<?xml version="1.0" encoding="utf-8" standalone="no"?>
<!DOCTYPE svg PUBLIC "-//W3C//DTD SVG 1.1//EN"
  "http://www.w3.org/Graphics/SVG/1.1/DTD/svg11.dtd">
<svg xmlns:xlink="http://www.w3.org/1999/xlink" width="720pt" height="288pt" viewBox="0 0 720 288" xmlns="http://www.w3.org/2000/svg" version="1.1">
 <metadata>
  <rdf:RDF xmlns:dc="http://purl.org/dc/elements/1.1/" xmlns:cc="http://creativecommons.org/ns#" xmlns:rdf="http://www.w3.org/1999/02/22-rdf-syntax-ns#">
   <cc:Work>
    <dc:type rdf:resource="http://purl.org/dc/dcmitype/StillImage"/>
    <dc:date>2023-05-07T02:15:32.828081</dc:date>
    <dc:format>image/svg+xml</dc:format>
    <dc:creator>
     <cc:Agent>
      <dc:title>Matplotlib v3.7.1, https://matplotlib.org/</dc:title>
     </cc:Agent>
    </dc:creator>
   </cc:Work>
  </rdf:RDF>
 </metadata>
 <defs>
  <style type="text/css">*{stroke-linejoin: round; stroke-linecap: butt}</style>
 </defs>
 <g id="figure_1">
  <g id="patch_1">
   <path d="M 0 288 
L 720 288 
L 720 0 
L 0 0 
z
" style="fill: #ffffff"/>
  </g>
  <g id="axes_1">
   <g id="patch_2">
    <path d="M 90 256.32 
L 648 256.32 
L 648 34.56 
L 90 34.56 
z
" style="fill: #ffffff"/>
   </g>
   <g id="matplotlib.axis_1">
    <g id="xtick_1">
     <g id="line2d_1">
      <defs>
       <path id="m882efc991d" d="M 0 0 
L 0 3.5 
" style="stroke: #000000; stroke-width: 0.8"/>
      </defs>
      <g>
       <use xlink:href="#m882efc991d" x="115.363636" y="256.32" style="stroke: #000000; stroke-width: 0.8"/>
      </g>
     </g>
     <g id="text_1">
      <!-- 0:00:00 -->
      <g transform="translate(96.088636 270.918437) scale(0.1 -0.1)">
       <defs>
        <path id="DejaVuSans-30" d="M 2034 4250 
Q 1547 4250 1301 3770 
Q 1056 3291 1056 2328 
Q 1056 1369 1301 889 
Q 1547 409 2034 409 
Q 2525 409 2770 889 
Q 3016 1369 3016 2328 
Q 3016 3291 2770 3770 
Q 2525 4250 2034 4250 
z
M 2034 4750 
Q 2819 4750 3233 4129 
Q 3647 3509 3647 2328 
Q 3647 1150 3233 529 
Q 2819 -91 2034 -91 
Q 1250 -91 836 529 
Q 422 1150 422 2328 
Q 422 3509 836 4129 
Q 1250 4750 2034 4750 
z
" transform="scale(0.015625)"/>
        <path id="DejaVuSans-3a" d="M 750 794 
L 1409 794 
L 1409 0 
L 750 0 
L 750 794 
z
M 750 3309 
L 1409 3309 
L 1409 2516 
L 750 2516 
L 750 3309 
z
" transform="scale(0.015625)"/>
       </defs>
       <use xlink:href="#DejaVuSans-30"/>
       <use xlink:href="#DejaVuSans-3a" x="63.623047"/>
       <use xlink:href="#DejaVuSans-30" x="97.314453"/>
       <use xlink:href="#DejaVuSans-30" x="160.9375"/>
       <use xlink:href="#DejaVuSans-3a" x="224.560547"/>
       <use xlink:href="#DejaVuSans-30" x="258.251953"/>
       <use xlink:href="#DejaVuSans-30" x="321.875"/>
      </g>
     </g>
    </g>
    <g id="xtick_2">
     <g id="line2d_2">
      <g>
       <use xlink:href="#m882efc991d" x="166.090909" y="256.32" style="stroke: #000000; stroke-width: 0.8"/>
      </g>
     </g>
     <g id="text_2">
      <!-- 0:00:30 -->
      <g transform="translate(146.815909 270.918437) scale(0.1 -0.1)">
       <defs>
        <path id="DejaVuSans-33" d="M 2597 2516 
Q 3050 2419 3304 2112 
Q 3559 1806 3559 1356 
Q 3559 666 3084 287 
Q 2609 -91 1734 -91 
Q 1441 -91 1130 -33 
Q 819 25 488 141 
L 488 750 
Q 750 597 1062 519 
Q 1375 441 1716 441 
Q 2309 441 2620 675 
Q 2931 909 2931 1356 
Q 2931 1769 2642 2001 
Q 2353 2234 1838 2234 
L 1294 2234 
L 1294 2753 
L 1863 2753 
Q 2328 2753 2575 2939 
Q 2822 3125 2822 3475 
Q 2822 3834 2567 4026 
Q 2313 4219 1838 4219 
Q 1578 4219 1281 4162 
Q 984 4106 628 3988 
L 628 4550 
Q 988 4650 1302 4700 
Q 1616 4750 1894 4750 
Q 2613 4750 3031 4423 
Q 3450 4097 3450 3541 
Q 3450 3153 3228 2886 
Q 3006 2619 2597 2516 
z
" transform="scale(0.015625)"/>
       </defs>
       <use xlink:href="#DejaVuSans-30"/>
       <use xlink:href="#DejaVuSans-3a" x="63.623047"/>
       <use xlink:href="#DejaVuSans-30" x="97.314453"/>
       <use xlink:href="#DejaVuSans-30" x="160.9375"/>
       <use xlink:href="#DejaVuSans-3a" x="224.560547"/>
       <use xlink:href="#DejaVuSans-33" x="258.251953"/>
       <use xlink:href="#DejaVuSans-30" x="321.875"/>
      </g>
     </g>
    </g>
    <g id="xtick_3">
     <g id="line2d_3">
      <g>
       <use xlink:href="#m882efc991d" x="216.818182" y="256.32" style="stroke: #000000; stroke-width: 0.8"/>
      </g>
     </g>
     <g id="text_3">
      <!-- 0:01:00 -->
      <g transform="translate(197.543182 270.918437) scale(0.1 -0.1)">
       <defs>
        <path id="DejaVuSans-31" d="M 794 531 
L 1825 531 
L 1825 4091 
L 703 3866 
L 703 4441 
L 1819 4666 
L 2450 4666 
L 2450 531 
L 3481 531 
L 3481 0 
L 794 0 
L 794 531 
z
" transform="scale(0.015625)"/>
       </defs>
       <use xlink:href="#DejaVuSans-30"/>
       <use xlink:href="#DejaVuSans-3a" x="63.623047"/>
       <use xlink:href="#DejaVuSans-30" x="97.314453"/>
       <use xlink:href="#DejaVuSans-31" x="160.9375"/>
       <use xlink:href="#DejaVuSans-3a" x="224.560547"/>
       <use xlink:href="#DejaVuSans-30" x="258.251953"/>
       <use xlink:href="#DejaVuSans-30" x="321.875"/>
      </g>
     </g>
    </g>
    <g id="xtick_4">
     <g id="line2d_4">
      <g>
       <use xlink:href="#m882efc991d" x="267.545455" y="256.32" style="stroke: #000000; stroke-width: 0.8"/>
      </g>
     </g>
     <g id="text_4">
      <!-- 0:01:30 -->
      <g transform="translate(248.270455 270.918437) scale(0.1 -0.1)">
       <use xlink:href="#DejaVuSans-30"/>
       <use xlink:href="#DejaVuSans-3a" x="63.623047"/>
       <use xlink:href="#DejaVuSans-30" x="97.314453"/>
       <use xlink:href="#DejaVuSans-31" x="160.9375"/>
       <use xlink:href="#DejaVuSans-3a" x="224.560547"/>
       <use xlink:href="#DejaVuSans-33" x="258.251953"/>
       <use xlink:href="#DejaVuSans-30" x="321.875"/>
      </g>
     </g>
    </g>
    <g id="xtick_5">
     <g id="line2d_5">
      <g>
       <use xlink:href="#m882efc991d" x="318.272727" y="256.32" style="stroke: #000000; stroke-width: 0.8"/>
      </g>
     </g>
     <g id="text_5">
      <!-- 0:02:00 -->
      <g transform="translate(298.997727 270.918437) scale(0.1 -0.1)">
       <defs>
        <path id="DejaVuSans-32" d="M 1228 531 
L 3431 531 
L 3431 0 
L 469 0 
L 469 531 
Q 828 903 1448 1529 
Q 2069 2156 2228 2338 
Q 2531 2678 2651 2914 
Q 2772 3150 2772 3378 
Q 2772 3750 2511 3984 
Q 2250 4219 1831 4219 
Q 1534 4219 1204 4116 
Q 875 4013 500 3803 
L 500 4441 
Q 881 4594 1212 4672 
Q 1544 4750 1819 4750 
Q 2544 4750 2975 4387 
Q 3406 4025 3406 3419 
Q 3406 3131 3298 2873 
Q 3191 2616 2906 2266 
Q 2828 2175 2409 1742 
Q 1991 1309 1228 531 
z
" transform="scale(0.015625)"/>
       </defs>
       <use xlink:href="#DejaVuSans-30"/>
       <use xlink:href="#DejaVuSans-3a" x="63.623047"/>
       <use xlink:href="#DejaVuSans-30" x="97.314453"/>
       <use xlink:href="#DejaVuSans-32" x="160.9375"/>
       <use xlink:href="#DejaVuSans-3a" x="224.560547"/>
       <use xlink:href="#DejaVuSans-30" x="258.251953"/>
       <use xlink:href="#DejaVuSans-30" x="321.875"/>
      </g>
     </g>
    </g>
    <g id="xtick_6">
     <g id="line2d_6">
      <g>
       <use xlink:href="#m882efc991d" x="369" y="256.32" style="stroke: #000000; stroke-width: 0.8"/>
      </g>
     </g>
     <g id="text_6">
      <!-- 0:02:30 -->
      <g transform="translate(349.725 270.918437) scale(0.1 -0.1)">
       <use xlink:href="#DejaVuSans-30"/>
       <use xlink:href="#DejaVuSans-3a" x="63.623047"/>
       <use xlink:href="#DejaVuSans-30" x="97.314453"/>
       <use xlink:href="#DejaVuSans-32" x="160.9375"/>
       <use xlink:href="#DejaVuSans-3a" x="224.560547"/>
       <use xlink:href="#DejaVuSans-33" x="258.251953"/>
       <use xlink:href="#DejaVuSans-30" x="321.875"/>
      </g>
     </g>
    </g>
    <g id="xtick_7">
     <g id="line2d_7">
      <g>
       <use xlink:href="#m882efc991d" x="419.727273" y="256.32" style="stroke: #000000; stroke-width: 0.8"/>
      </g>
     </g>
     <g id="text_7">
      <!-- 0:03:00 -->
      <g transform="translate(400.452273 270.918437) scale(0.1 -0.1)">
       <use xlink:href="#DejaVuSans-30"/>
       <use xlink:href="#DejaVuSans-3a" x="63.623047"/>
       <use xlink:href="#DejaVuSans-30" x="97.314453"/>
       <use xlink:href="#DejaVuSans-33" x="160.9375"/>
       <use xlink:href="#DejaVuSans-3a" x="224.560547"/>
       <use xlink:href="#DejaVuSans-30" x="258.251953"/>
       <use xlink:href="#DejaVuSans-30" x="321.875"/>
      </g>
     </g>
    </g>
    <g id="xtick_8">
     <g id="line2d_8">
      <g>
       <use xlink:href="#m882efc991d" x="470.454545" y="256.32" style="stroke: #000000; stroke-width: 0.8"/>
      </g>
     </g>
     <g id="text_8">
      <!-- 0:03:30 -->
      <g transform="translate(451.179545 270.918437) scale(0.1 -0.1)">
       <use xlink:href="#DejaVuSans-30"/>
       <use xlink:href="#DejaVuSans-3a" x="63.623047"/>
       <use xlink:href="#DejaVuSans-30" x="97.314453"/>
       <use xlink:href="#DejaVuSans-33" x="160.9375"/>
       <use xlink:href="#DejaVuSans-3a" x="224.560547"/>
       <use xlink:href="#DejaVuSans-33" x="258.251953"/>
       <use xlink:href="#DejaVuSans-30" x="321.875"/>
      </g>
     </g>
    </g>
    <g id="xtick_9">
     <g id="line2d_9">
      <g>
       <use xlink:href="#m882efc991d" x="521.181818" y="256.32" style="stroke: #000000; stroke-width: 0.8"/>
      </g>
     </g>
     <g id="text_9">
      <!-- 0:04:00 -->
      <g transform="translate(501.906818 270.918437) scale(0.1 -0.1)">
       <defs>
        <path id="DejaVuSans-34" d="M 2419 4116 
L 825 1625 
L 2419 1625 
L 2419 4116 
z
M 2253 4666 
L 3047 4666 
L 3047 1625 
L 3713 1625 
L 3713 1100 
L 3047 1100 
L 3047 0 
L 2419 0 
L 2419 1100 
L 313 1100 
L 313 1709 
L 2253 4666 
z
" transform="scale(0.015625)"/>
       </defs>
       <use xlink:href="#DejaVuSans-30"/>
       <use xlink:href="#DejaVuSans-3a" x="63.623047"/>
       <use xlink:href="#DejaVuSans-30" x="97.314453"/>
       <use xlink:href="#DejaVuSans-34" x="160.9375"/>
       <use xlink:href="#DejaVuSans-3a" x="224.560547"/>
       <use xlink:href="#DejaVuSans-30" x="258.251953"/>
       <use xlink:href="#DejaVuSans-30" x="321.875"/>
      </g>
     </g>
    </g>
    <g id="xtick_10">
     <g id="line2d_10">
      <g>
       <use xlink:href="#m882efc991d" x="571.909091" y="256.32" style="stroke: #000000; stroke-width: 0.8"/>
      </g>
     </g>
     <g id="text_10">
      <!-- 0:04:30 -->
      <g transform="translate(552.634091 270.918437) scale(0.1 -0.1)">
       <use xlink:href="#DejaVuSans-30"/>
       <use xlink:href="#DejaVuSans-3a" x="63.623047"/>
       <use xlink:href="#DejaVuSans-30" x="97.314453"/>
       <use xlink:href="#DejaVuSans-34" x="160.9375"/>
       <use xlink:href="#DejaVuSans-3a" x="224.560547"/>
       <use xlink:href="#DejaVuSans-33" x="258.251953"/>
       <use xlink:href="#DejaVuSans-30" x="321.875"/>
      </g>
     </g>
    </g>
    <g id="xtick_11">
     <g id="line2d_11">
      <g>
       <use xlink:href="#m882efc991d" x="622.636364" y="256.32" style="stroke: #000000; stroke-width: 0.8"/>
      </g>
     </g>
     <g id="text_11">
      <!-- 0:05:00 -->
      <g transform="translate(603.361364 270.918437) scale(0.1 -0.1)">
       <defs>
        <path id="DejaVuSans-35" d="M 691 4666 
L 3169 4666 
L 3169 4134 
L 1269 4134 
L 1269 2991 
Q 1406 3038 1543 3061 
Q 1681 3084 1819 3084 
Q 2600 3084 3056 2656 
Q 3513 2228 3513 1497 
Q 3513 744 3044 326 
Q 2575 -91 1722 -91 
Q 1428 -91 1123 -41 
Q 819 9 494 109 
L 494 744 
Q 775 591 1075 516 
Q 1375 441 1709 441 
Q 2250 441 2565 725 
Q 2881 1009 2881 1497 
Q 2881 1984 2565 2268 
Q 2250 2553 1709 2553 
Q 1456 2553 1204 2497 
Q 953 2441 691 2322 
L 691 4666 
z
" transform="scale(0.015625)"/>
       </defs>
       <use xlink:href="#DejaVuSans-30"/>
       <use xlink:href="#DejaVuSans-3a" x="63.623047"/>
       <use xlink:href="#DejaVuSans-30" x="97.314453"/>
       <use xlink:href="#DejaVuSans-35" x="160.9375"/>
       <use xlink:href="#DejaVuSans-3a" x="224.560547"/>
       <use xlink:href="#DejaVuSans-30" x="258.251953"/>
       <use xlink:href="#DejaVuSans-30" x="321.875"/>
      </g>
     </g>
    </g>
    <g id="text_12">
     <!-- Time -->
     <g transform="translate(356.766406 284.596563) scale(0.1 -0.1)">
      <defs>
       <path id="DejaVuSans-54" d="M -19 4666 
L 3928 4666 
L 3928 4134 
L 2272 4134 
L 2272 0 
L 1638 0 
L 1638 4134 
L -19 4134 
L -19 4666 
z
" transform="scale(0.015625)"/>
       <path id="DejaVuSans-69" d="M 603 3500 
L 1178 3500 
L 1178 0 
L 603 0 
L 603 3500 
z
M 603 4863 
L 1178 4863 
L 1178 4134 
L 603 4134 
L 603 4863 
z
" transform="scale(0.015625)"/>
       <path id="DejaVuSans-6d" d="M 3328 2828 
Q 3544 3216 3844 3400 
Q 4144 3584 4550 3584 
Q 5097 3584 5394 3201 
Q 5691 2819 5691 2113 
L 5691 0 
L 5113 0 
L 5113 2094 
Q 5113 2597 4934 2840 
Q 4756 3084 4391 3084 
Q 3944 3084 3684 2787 
Q 3425 2491 3425 1978 
L 3425 0 
L 2847 0 
L 2847 2094 
Q 2847 2600 2669 2842 
Q 2491 3084 2119 3084 
Q 1678 3084 1418 2786 
Q 1159 2488 1159 1978 
L 1159 0 
L 581 0 
L 581 3500 
L 1159 3500 
L 1159 2956 
Q 1356 3278 1631 3431 
Q 1906 3584 2284 3584 
Q 2666 3584 2933 3390 
Q 3200 3197 3328 2828 
z
" transform="scale(0.015625)"/>
       <path id="DejaVuSans-65" d="M 3597 1894 
L 3597 1613 
L 953 1613 
Q 991 1019 1311 708 
Q 1631 397 2203 397 
Q 2534 397 2845 478 
Q 3156 559 3463 722 
L 3463 178 
Q 3153 47 2828 -22 
Q 2503 -91 2169 -91 
Q 1331 -91 842 396 
Q 353 884 353 1716 
Q 353 2575 817 3079 
Q 1281 3584 2069 3584 
Q 2775 3584 3186 3129 
Q 3597 2675 3597 1894 
z
M 3022 2063 
Q 3016 2534 2758 2815 
Q 2500 3097 2075 3097 
Q 1594 3097 1305 2825 
Q 1016 2553 972 2059 
L 3022 2063 
z
" transform="scale(0.015625)"/>
      </defs>
      <use xlink:href="#DejaVuSans-54"/>
      <use xlink:href="#DejaVuSans-69" x="57.958984"/>
      <use xlink:href="#DejaVuSans-6d" x="85.742188"/>
      <use xlink:href="#DejaVuSans-65" x="183.154297"/>
     </g>
    </g>
   </g>
   <g id="matplotlib.axis_2">
    <g id="ytick_1">
     <g id="line2d_12">
      <path d="M 90 246.24 
L 648 246.24 
" clip-path="url(#p4d51f9cf91)" style="fill: none; stroke: #b0b0b0; stroke-width: 0.8; stroke-linecap: square"/>
     </g>
     <g id="line2d_13">
      <defs>
       <path id="mdd175676f8" d="M 0 0 
L -3.5 0 
" style="stroke: #000000; stroke-width: 0.8"/>
      </defs>
      <g>
       <use xlink:href="#mdd175676f8" x="90" y="246.24" style="stroke: #000000; stroke-width: 0.8"/>
      </g>
     </g>
     <g id="text_13">
      <!-- 0 -->
      <g transform="translate(76.6375 250.039219) scale(0.1 -0.1)">
       <use xlink:href="#DejaVuSans-30"/>
      </g>
     </g>
    </g>
    <g id="ytick_2">
     <g id="line2d_14">
      <path d="M 90 209.085558 
L 648 209.085558 
" clip-path="url(#p4d51f9cf91)" style="fill: none; stroke: #b0b0b0; stroke-width: 0.8; stroke-linecap: square"/>
     </g>
     <g id="line2d_15">
      <g>
       <use xlink:href="#mdd175676f8" x="90" y="209.085558" style="stroke: #000000; stroke-width: 0.8"/>
      </g>
     </g>
     <g id="text_14">
      <!-- 2,000 -->
      <g transform="translate(54.371875 212.884777) scale(0.1 -0.1)">
       <defs>
        <path id="DejaVuSans-2c" d="M 750 794 
L 1409 794 
L 1409 256 
L 897 -744 
L 494 -744 
L 750 256 
L 750 794 
z
" transform="scale(0.015625)"/>
       </defs>
       <use xlink:href="#DejaVuSans-32"/>
       <use xlink:href="#DejaVuSans-2c" x="63.623047"/>
       <use xlink:href="#DejaVuSans-30" x="95.410156"/>
       <use xlink:href="#DejaVuSans-30" x="159.033203"/>
       <use xlink:href="#DejaVuSans-30" x="222.65625"/>
      </g>
     </g>
    </g>
    <g id="ytick_3">
     <g id="line2d_16">
      <path d="M 90 171.931117 
L 648 171.931117 
" clip-path="url(#p4d51f9cf91)" style="fill: none; stroke: #b0b0b0; stroke-width: 0.8; stroke-linecap: square"/>
     </g>
     <g id="line2d_17">
      <g>
       <use xlink:href="#mdd175676f8" x="90" y="171.931117" style="stroke: #000000; stroke-width: 0.8"/>
      </g>
     </g>
     <g id="text_15">
      <!-- 4,000 -->
      <g transform="translate(54.371875 175.730336) scale(0.1 -0.1)">
       <use xlink:href="#DejaVuSans-34"/>
       <use xlink:href="#DejaVuSans-2c" x="63.623047"/>
       <use xlink:href="#DejaVuSans-30" x="95.410156"/>
       <use xlink:href="#DejaVuSans-30" x="159.033203"/>
       <use xlink:href="#DejaVuSans-30" x="222.65625"/>
      </g>
     </g>
    </g>
    <g id="ytick_4">
     <g id="line2d_18">
      <path d="M 90 134.776675 
L 648 134.776675 
" clip-path="url(#p4d51f9cf91)" style="fill: none; stroke: #b0b0b0; stroke-width: 0.8; stroke-linecap: square"/>
     </g>
     <g id="line2d_19">
      <g>
       <use xlink:href="#mdd175676f8" x="90" y="134.776675" style="stroke: #000000; stroke-width: 0.8"/>
      </g>
     </g>
     <g id="text_16">
      <!-- 6,000 -->
      <g transform="translate(54.371875 138.575894) scale(0.1 -0.1)">
       <defs>
        <path id="DejaVuSans-36" d="M 2113 2584 
Q 1688 2584 1439 2293 
Q 1191 2003 1191 1497 
Q 1191 994 1439 701 
Q 1688 409 2113 409 
Q 2538 409 2786 701 
Q 3034 994 3034 1497 
Q 3034 2003 2786 2293 
Q 2538 2584 2113 2584 
z
M 3366 4563 
L 3366 3988 
Q 3128 4100 2886 4159 
Q 2644 4219 2406 4219 
Q 1781 4219 1451 3797 
Q 1122 3375 1075 2522 
Q 1259 2794 1537 2939 
Q 1816 3084 2150 3084 
Q 2853 3084 3261 2657 
Q 3669 2231 3669 1497 
Q 3669 778 3244 343 
Q 2819 -91 2113 -91 
Q 1303 -91 875 529 
Q 447 1150 447 2328 
Q 447 3434 972 4092 
Q 1497 4750 2381 4750 
Q 2619 4750 2861 4703 
Q 3103 4656 3366 4563 
z
" transform="scale(0.015625)"/>
       </defs>
       <use xlink:href="#DejaVuSans-36"/>
       <use xlink:href="#DejaVuSans-2c" x="63.623047"/>
       <use xlink:href="#DejaVuSans-30" x="95.410156"/>
       <use xlink:href="#DejaVuSans-30" x="159.033203"/>
       <use xlink:href="#DejaVuSans-30" x="222.65625"/>
      </g>
     </g>
    </g>
    <g id="ytick_5">
     <g id="line2d_20">
      <path d="M 90 97.622234 
L 648 97.622234 
" clip-path="url(#p4d51f9cf91)" style="fill: none; stroke: #b0b0b0; stroke-width: 0.8; stroke-linecap: square"/>
     </g>
     <g id="line2d_21">
      <g>
       <use xlink:href="#mdd175676f8" x="90" y="97.622234" style="stroke: #000000; stroke-width: 0.8"/>
      </g>
     </g>
     <g id="text_17">
      <!-- 8,000 -->
      <g transform="translate(54.371875 101.421452) scale(0.1 -0.1)">
       <defs>
        <path id="DejaVuSans-38" d="M 2034 2216 
Q 1584 2216 1326 1975 
Q 1069 1734 1069 1313 
Q 1069 891 1326 650 
Q 1584 409 2034 409 
Q 2484 409 2743 651 
Q 3003 894 3003 1313 
Q 3003 1734 2745 1975 
Q 2488 2216 2034 2216 
z
M 1403 2484 
Q 997 2584 770 2862 
Q 544 3141 544 3541 
Q 544 4100 942 4425 
Q 1341 4750 2034 4750 
Q 2731 4750 3128 4425 
Q 3525 4100 3525 3541 
Q 3525 3141 3298 2862 
Q 3072 2584 2669 2484 
Q 3125 2378 3379 2068 
Q 3634 1759 3634 1313 
Q 3634 634 3220 271 
Q 2806 -91 2034 -91 
Q 1263 -91 848 271 
Q 434 634 434 1313 
Q 434 1759 690 2068 
Q 947 2378 1403 2484 
z
M 1172 3481 
Q 1172 3119 1398 2916 
Q 1625 2713 2034 2713 
Q 2441 2713 2670 2916 
Q 2900 3119 2900 3481 
Q 2900 3844 2670 4047 
Q 2441 4250 2034 4250 
Q 1625 4250 1398 4047 
Q 1172 3844 1172 3481 
z
" transform="scale(0.015625)"/>
       </defs>
       <use xlink:href="#DejaVuSans-38"/>
       <use xlink:href="#DejaVuSans-2c" x="63.623047"/>
       <use xlink:href="#DejaVuSans-30" x="95.410156"/>
       <use xlink:href="#DejaVuSans-30" x="159.033203"/>
       <use xlink:href="#DejaVuSans-30" x="222.65625"/>
      </g>
     </g>
    </g>
    <g id="ytick_6">
     <g id="line2d_22">
      <path d="M 90 60.467792 
L 648 60.467792 
" clip-path="url(#p4d51f9cf91)" style="fill: none; stroke: #b0b0b0; stroke-width: 0.8; stroke-linecap: square"/>
     </g>
     <g id="line2d_23">
      <g>
       <use xlink:href="#mdd175676f8" x="90" y="60.467792" style="stroke: #000000; stroke-width: 0.8"/>
      </g>
     </g>
     <g id="text_18">
      <!-- 10,000 -->
      <g transform="translate(48.009375 64.267011) scale(0.1 -0.1)">
       <use xlink:href="#DejaVuSans-31"/>
       <use xlink:href="#DejaVuSans-30" x="63.623047"/>
       <use xlink:href="#DejaVuSans-2c" x="127.246094"/>
       <use xlink:href="#DejaVuSans-30" x="159.033203"/>
       <use xlink:href="#DejaVuSans-30" x="222.65625"/>
       <use xlink:href="#DejaVuSans-30" x="286.279297"/>
      </g>
     </g>
    </g>
    <g id="text_19">
     <!-- Bitrate (kbit/s) -->
     <g transform="translate(41.929688 181.574375) rotate(-90) scale(0.1 -0.1)">
      <defs>
       <path id="DejaVuSans-42" d="M 1259 2228 
L 1259 519 
L 2272 519 
Q 2781 519 3026 730 
Q 3272 941 3272 1375 
Q 3272 1813 3026 2020 
Q 2781 2228 2272 2228 
L 1259 2228 
z
M 1259 4147 
L 1259 2741 
L 2194 2741 
Q 2656 2741 2882 2914 
Q 3109 3088 3109 3444 
Q 3109 3797 2882 3972 
Q 2656 4147 2194 4147 
L 1259 4147 
z
M 628 4666 
L 2241 4666 
Q 2963 4666 3353 4366 
Q 3744 4066 3744 3513 
Q 3744 3084 3544 2831 
Q 3344 2578 2956 2516 
Q 3422 2416 3680 2098 
Q 3938 1781 3938 1306 
Q 3938 681 3513 340 
Q 3088 0 2303 0 
L 628 0 
L 628 4666 
z
" transform="scale(0.015625)"/>
       <path id="DejaVuSans-74" d="M 1172 4494 
L 1172 3500 
L 2356 3500 
L 2356 3053 
L 1172 3053 
L 1172 1153 
Q 1172 725 1289 603 
Q 1406 481 1766 481 
L 2356 481 
L 2356 0 
L 1766 0 
Q 1100 0 847 248 
Q 594 497 594 1153 
L 594 3053 
L 172 3053 
L 172 3500 
L 594 3500 
L 594 4494 
L 1172 4494 
z
" transform="scale(0.015625)"/>
       <path id="DejaVuSans-72" d="M 2631 2963 
Q 2534 3019 2420 3045 
Q 2306 3072 2169 3072 
Q 1681 3072 1420 2755 
Q 1159 2438 1159 1844 
L 1159 0 
L 581 0 
L 581 3500 
L 1159 3500 
L 1159 2956 
Q 1341 3275 1631 3429 
Q 1922 3584 2338 3584 
Q 2397 3584 2469 3576 
Q 2541 3569 2628 3553 
L 2631 2963 
z
" transform="scale(0.015625)"/>
       <path id="DejaVuSans-61" d="M 2194 1759 
Q 1497 1759 1228 1600 
Q 959 1441 959 1056 
Q 959 750 1161 570 
Q 1363 391 1709 391 
Q 2188 391 2477 730 
Q 2766 1069 2766 1631 
L 2766 1759 
L 2194 1759 
z
M 3341 1997 
L 3341 0 
L 2766 0 
L 2766 531 
Q 2569 213 2275 61 
Q 1981 -91 1556 -91 
Q 1019 -91 701 211 
Q 384 513 384 1019 
Q 384 1609 779 1909 
Q 1175 2209 1959 2209 
L 2766 2209 
L 2766 2266 
Q 2766 2663 2505 2880 
Q 2244 3097 1772 3097 
Q 1472 3097 1187 3025 
Q 903 2953 641 2809 
L 641 3341 
Q 956 3463 1253 3523 
Q 1550 3584 1831 3584 
Q 2591 3584 2966 3190 
Q 3341 2797 3341 1997 
z
" transform="scale(0.015625)"/>
       <path id="DejaVuSans-20" transform="scale(0.015625)"/>
       <path id="DejaVuSans-28" d="M 1984 4856 
Q 1566 4138 1362 3434 
Q 1159 2731 1159 2009 
Q 1159 1288 1364 580 
Q 1569 -128 1984 -844 
L 1484 -844 
Q 1016 -109 783 600 
Q 550 1309 550 2009 
Q 550 2706 781 3412 
Q 1013 4119 1484 4856 
L 1984 4856 
z
" transform="scale(0.015625)"/>
       <path id="DejaVuSans-6b" d="M 581 4863 
L 1159 4863 
L 1159 1991 
L 2875 3500 
L 3609 3500 
L 1753 1863 
L 3688 0 
L 2938 0 
L 1159 1709 
L 1159 0 
L 581 0 
L 581 4863 
z
" transform="scale(0.015625)"/>
       <path id="DejaVuSans-62" d="M 3116 1747 
Q 3116 2381 2855 2742 
Q 2594 3103 2138 3103 
Q 1681 3103 1420 2742 
Q 1159 2381 1159 1747 
Q 1159 1113 1420 752 
Q 1681 391 2138 391 
Q 2594 391 2855 752 
Q 3116 1113 3116 1747 
z
M 1159 2969 
Q 1341 3281 1617 3432 
Q 1894 3584 2278 3584 
Q 2916 3584 3314 3078 
Q 3713 2572 3713 1747 
Q 3713 922 3314 415 
Q 2916 -91 2278 -91 
Q 1894 -91 1617 61 
Q 1341 213 1159 525 
L 1159 0 
L 581 0 
L 581 4863 
L 1159 4863 
L 1159 2969 
z
" transform="scale(0.015625)"/>
       <path id="DejaVuSans-2f" d="M 1625 4666 
L 2156 4666 
L 531 -594 
L 0 -594 
L 1625 4666 
z
" transform="scale(0.015625)"/>
       <path id="DejaVuSans-73" d="M 2834 3397 
L 2834 2853 
Q 2591 2978 2328 3040 
Q 2066 3103 1784 3103 
Q 1356 3103 1142 2972 
Q 928 2841 928 2578 
Q 928 2378 1081 2264 
Q 1234 2150 1697 2047 
L 1894 2003 
Q 2506 1872 2764 1633 
Q 3022 1394 3022 966 
Q 3022 478 2636 193 
Q 2250 -91 1575 -91 
Q 1294 -91 989 -36 
Q 684 19 347 128 
L 347 722 
Q 666 556 975 473 
Q 1284 391 1588 391 
Q 1994 391 2212 530 
Q 2431 669 2431 922 
Q 2431 1156 2273 1281 
Q 2116 1406 1581 1522 
L 1381 1569 
Q 847 1681 609 1914 
Q 372 2147 372 2553 
Q 372 3047 722 3315 
Q 1072 3584 1716 3584 
Q 2034 3584 2315 3537 
Q 2597 3491 2834 3397 
z
" transform="scale(0.015625)"/>
       <path id="DejaVuSans-29" d="M 513 4856 
L 1013 4856 
Q 1481 4119 1714 3412 
Q 1947 2706 1947 2009 
Q 1947 1309 1714 600 
Q 1481 -109 1013 -844 
L 513 -844 
Q 928 -128 1133 580 
Q 1338 1288 1338 2009 
Q 1338 2731 1133 3434 
Q 928 4138 513 4856 
z
" transform="scale(0.015625)"/>
      </defs>
      <use xlink:href="#DejaVuSans-42"/>
      <use xlink:href="#DejaVuSans-69" x="68.603516"/>
      <use xlink:href="#DejaVuSans-74" x="96.386719"/>
      <use xlink:href="#DejaVuSans-72" x="135.595703"/>
      <use xlink:href="#DejaVuSans-61" x="176.708984"/>
      <use xlink:href="#DejaVuSans-74" x="237.988281"/>
      <use xlink:href="#DejaVuSans-65" x="277.197266"/>
      <use xlink:href="#DejaVuSans-20" x="338.720703"/>
      <use xlink:href="#DejaVuSans-28" x="370.507812"/>
      <use xlink:href="#DejaVuSans-6b" x="409.521484"/>
      <use xlink:href="#DejaVuSans-62" x="467.431641"/>
      <use xlink:href="#DejaVuSans-69" x="530.908203"/>
      <use xlink:href="#DejaVuSans-74" x="558.691406"/>
      <use xlink:href="#DejaVuSans-2f" x="597.900391"/>
      <use xlink:href="#DejaVuSans-73" x="631.591797"/>
      <use xlink:href="#DejaVuSans-29" x="683.691406"/>
     </g>
    </g>
   </g>
   <g id="PolyCollection_1">
    <defs>
     <path id="me811c52eff" d="M 115.363636 -44.175039 
L 115.363636 -41.76 
L 117.054545 -41.76 
L 118.745455 -41.76 
L 120.436364 -41.76 
L 122.127273 -41.76 
L 123.818182 -41.76 
L 125.509091 -41.76 
L 127.2 -41.76 
L 128.890909 -41.76 
L 130.581818 -41.76 
L 132.272727 -41.76 
L 133.963636 -41.76 
L 135.654545 -41.76 
L 137.345455 -41.76 
L 139.036364 -41.76 
L 140.727273 -41.76 
L 142.418182 -41.76 
L 144.109091 -41.76 
L 145.8 -41.76 
L 147.490909 -41.76 
L 149.181818 -41.76 
L 150.872727 -41.76 
L 152.563636 -41.76 
L 154.254545 -41.76 
L 155.945455 -41.76 
L 157.636364 -41.76 
L 159.327273 -41.76 
L 161.018182 -41.76 
L 162.709091 -41.76 
L 164.4 -41.76 
L 166.090909 -41.76 
L 167.781818 -41.76 
L 169.472727 -41.76 
L 171.163636 -41.76 
L 172.854545 -41.76 
L 174.545455 -41.76 
L 176.236364 -41.76 
L 177.927273 -41.76 
L 179.618182 -41.76 
L 181.309091 -41.76 
L 183 -41.76 
L 184.690909 -41.76 
L 186.381818 -41.76 
L 188.072727 -41.76 
L 189.763636 -41.76 
L 191.454545 -41.76 
L 193.145455 -41.76 
L 194.836364 -41.76 
L 196.527273 -41.76 
L 198.218182 -41.76 
L 199.909091 -41.76 
L 201.6 -41.76 
L 203.290909 -41.76 
L 204.981818 -41.76 
L 206.672727 -41.76 
L 208.363636 -41.76 
L 210.054545 -41.76 
L 211.745455 -41.76 
L 213.436364 -41.76 
L 215.127273 -41.76 
L 216.818182 -41.76 
L 218.509091 -41.76 
L 220.2 -41.76 
L 221.890909 -41.76 
L 223.581818 -41.76 
L 225.272727 -41.76 
L 226.963636 -41.76 
L 228.654545 -41.76 
L 230.345455 -41.76 
L 232.036364 -41.76 
L 233.727273 -41.76 
L 235.418182 -41.76 
L 237.109091 -41.76 
L 238.8 -41.76 
L 240.490909 -41.76 
L 242.181818 -41.76 
L 243.872727 -41.76 
L 245.563636 -41.76 
L 247.254545 -41.76 
L 248.945455 -41.76 
L 250.636364 -41.76 
L 252.327273 -41.76 
L 254.018182 -41.76 
L 255.709091 -41.76 
L 257.4 -41.76 
L 259.090909 -41.76 
L 260.781818 -41.76 
L 262.472727 -41.76 
L 264.163636 -41.76 
L 265.854545 -41.76 
L 267.545455 -41.76 
L 269.236364 -41.76 
L 270.927273 -41.76 
L 272.618182 -41.76 
L 274.309091 -41.76 
L 276 -41.76 
L 277.690909 -41.76 
L 279.381818 -41.76 
L 281.072727 -41.76 
L 282.763636 -41.76 
L 284.454545 -41.76 
L 286.145455 -41.76 
L 287.836364 -41.76 
L 289.527273 -41.76 
L 291.218182 -41.76 
L 292.909091 -41.76 
L 294.6 -41.76 
L 296.290909 -41.76 
L 297.981818 -41.76 
L 299.672727 -41.76 
L 301.363636 -41.76 
L 303.054545 -41.76 
L 304.745455 -41.76 
L 306.436364 -41.76 
L 308.127273 -41.76 
L 309.818182 -41.76 
L 311.509091 -41.76 
L 313.2 -41.76 
L 314.890909 -41.76 
L 316.581818 -41.76 
L 318.272727 -41.76 
L 319.963636 -41.76 
L 321.654545 -41.76 
L 323.345455 -41.76 
L 325.036364 -41.76 
L 326.727273 -41.76 
L 328.418182 -41.76 
L 330.109091 -41.76 
L 331.8 -41.76 
L 333.490909 -41.76 
L 335.181818 -41.76 
L 336.872727 -41.76 
L 338.563636 -41.76 
L 340.254545 -41.76 
L 341.945455 -41.76 
L 343.636364 -41.76 
L 345.327273 -41.76 
L 347.018182 -41.76 
L 348.709091 -41.76 
L 350.4 -41.76 
L 352.090909 -41.76 
L 353.781818 -41.76 
L 355.472727 -41.76 
L 357.163636 -41.76 
L 358.854545 -41.76 
L 360.545455 -41.76 
L 362.236364 -41.76 
L 363.927273 -41.76 
L 365.618182 -41.76 
L 367.309091 -41.76 
L 369 -41.76 
L 370.690909 -41.76 
L 372.381818 -41.76 
L 374.072727 -41.76 
L 375.763636 -41.76 
L 377.454545 -41.76 
L 379.145455 -41.76 
L 380.836364 -41.76 
L 382.527273 -41.76 
L 384.218182 -41.76 
L 385.909091 -41.76 
L 387.6 -41.76 
L 389.290909 -41.76 
L 390.981818 -41.76 
L 392.672727 -41.76 
L 394.363636 -41.76 
L 396.054545 -41.76 
L 397.745455 -41.76 
L 399.436364 -41.76 
L 401.127273 -41.76 
L 402.818182 -41.76 
L 404.509091 -41.76 
L 406.2 -41.76 
L 407.890909 -41.76 
L 409.581818 -41.76 
L 411.272727 -41.76 
L 412.963636 -41.76 
L 414.654545 -41.76 
L 416.345455 -41.76 
L 418.036364 -41.76 
L 419.727273 -41.76 
L 421.418182 -41.76 
L 423.109091 -41.76 
L 424.8 -41.76 
L 426.490909 -41.76 
L 428.181818 -41.76 
L 429.872727 -41.76 
L 431.563636 -41.76 
L 433.254545 -41.76 
L 434.945455 -41.76 
L 436.636364 -41.76 
L 438.327273 -41.76 
L 440.018182 -41.76 
L 441.709091 -41.76 
L 443.4 -41.76 
L 445.090909 -41.76 
L 446.781818 -41.76 
L 448.472727 -41.76 
L 450.163636 -41.76 
L 451.854545 -41.76 
L 453.545455 -41.76 
L 455.236364 -41.76 
L 456.927273 -41.76 
L 458.618182 -41.76 
L 460.309091 -41.76 
L 462 -41.76 
L 463.690909 -41.76 
L 465.381818 -41.76 
L 467.072727 -41.76 
L 468.763636 -41.76 
L 470.454545 -41.76 
L 472.145455 -41.76 
L 473.836364 -41.76 
L 475.527273 -41.76 
L 477.218182 -41.76 
L 478.909091 -41.76 
L 480.6 -41.76 
L 482.290909 -41.76 
L 483.981818 -41.76 
L 485.672727 -41.76 
L 487.363636 -41.76 
L 489.054545 -41.76 
L 490.745455 -41.76 
L 492.436364 -41.76 
L 494.127273 -41.76 
L 495.818182 -41.76 
L 497.509091 -41.76 
L 499.2 -41.76 
L 500.890909 -41.76 
L 502.581818 -41.76 
L 504.272727 -41.76 
L 505.963636 -41.76 
L 507.654545 -41.76 
L 509.345455 -41.76 
L 511.036364 -41.76 
L 512.727273 -41.76 
L 514.418182 -41.76 
L 516.109091 -41.76 
L 517.8 -41.76 
L 519.490909 -41.76 
L 521.181818 -41.76 
L 522.872727 -41.76 
L 524.563636 -41.76 
L 526.254545 -41.76 
L 527.945455 -41.76 
L 529.636364 -41.76 
L 531.327273 -41.76 
L 533.018182 -41.76 
L 534.709091 -41.76 
L 536.4 -41.76 
L 538.090909 -41.76 
L 539.781818 -41.76 
L 541.472727 -41.76 
L 543.163636 -41.76 
L 544.854545 -41.76 
L 546.545455 -41.76 
L 548.236364 -41.76 
L 549.927273 -41.76 
L 551.618182 -41.76 
L 553.309091 -41.76 
L 555 -41.76 
L 556.690909 -41.76 
L 558.381818 -41.76 
L 560.072727 -41.76 
L 561.763636 -41.76 
L 563.454545 -41.76 
L 565.145455 -41.76 
L 566.836364 -41.76 
L 568.527273 -41.76 
L 570.218182 -41.76 
L 571.909091 -41.76 
L 573.6 -41.76 
L 575.290909 -41.76 
L 576.981818 -41.76 
L 578.672727 -41.76 
L 580.363636 -41.76 
L 582.054545 -41.76 
L 583.745455 -41.76 
L 585.436364 -41.76 
L 587.127273 -41.76 
L 588.818182 -41.76 
L 590.509091 -41.76 
L 592.2 -41.76 
L 593.890909 -41.76 
L 595.581818 -41.76 
L 597.272727 -41.76 
L 598.963636 -41.76 
L 600.654545 -41.76 
L 602.345455 -41.76 
L 604.036364 -41.76 
L 605.727273 -41.76 
L 607.418182 -41.76 
L 609.109091 -41.76 
L 610.8 -41.76 
L 612.490909 -41.76 
L 614.181818 -41.76 
L 615.872727 -41.76 
L 617.563636 -41.76 
L 619.254545 -41.76 
L 620.945455 -41.76 
L 622.636364 -41.76 
L 622.636364 -74.3816 
L 622.636364 -74.3816 
L 620.945455 -58.758157 
L 619.254545 -41.76 
L 617.563636 -41.76 
L 615.872727 -58.033645 
L 614.181818 -109.158157 
L 612.490909 -41.76 
L 610.8 -41.76 
L 609.109091 -41.76 
L 607.418182 -41.76 
L 605.727273 -103.306332 
L 604.036364 -104.235194 
L 602.345455 -41.76 
L 600.654545 -41.76 
L 598.963636 -41.76 
L 597.272727 -110.309945 
L 595.581818 -78.765824 
L 593.890909 -41.76 
L 592.2 -85.713704 
L 590.509091 -41.76 
L 588.818182 -110.087018 
L 587.127273 -41.76 
L 585.436364 -41.76 
L 583.745455 -41.76 
L 582.054545 -41.76 
L 580.363636 -85.212119 
L 578.672727 -88.184475 
L 576.981818 -41.76 
L 575.290909 -41.76 
L 573.6 -41.76 
L 571.909091 -94.203494 
L 570.218182 -41.76 
L 568.527273 -74.641681 
L 566.836364 -75.291884 
L 565.145455 -41.76 
L 563.454545 -109.47397 
L 561.763636 -41.76 
L 560.072727 -122.663797 
L 558.381818 -41.76 
L 556.690909 -83.614478 
L 555 -58.20084 
L 553.309091 -54.949827 
L 551.618182 -86.586834 
L 549.927273 -41.76 
L 548.236364 -53.296454 
L 546.545455 -77.874117 
L 544.854545 -41.76 
L 543.163636 -41.76 
L 541.472727 -41.76 
L 539.781818 -41.76 
L 538.090909 -66.486281 
L 536.4 -41.76 
L 534.709091 -41.76 
L 533.018182 -78.468588 
L 531.327273 -104.588161 
L 529.636364 -59.334051 
L 527.945455 -41.76 
L 526.254545 -41.76 
L 524.563636 -41.76 
L 522.872727 -41.76 
L 521.181818 -84.190372 
L 519.490909 -41.76 
L 517.8 -41.76 
L 516.109091 -41.76 
L 514.418182 -58.107954 
L 512.727273 -100.686944 
L 511.036364 -110.421408 
L 509.345455 -41.76 
L 507.654545 -41.76 
L 505.963636 -41.76 
L 504.272727 -95.039469 
L 502.581818 -41.76 
L 500.890909 -122.942455 
L 499.2 -41.76 
L 497.509091 -41.76 
L 495.818182 -93.311788 
L 494.127273 -52.980641 
L 492.436364 -41.76 
L 490.745455 -41.76 
L 489.054545 -41.76 
L 487.363636 -60.337221 
L 485.672727 -41.76 
L 483.981818 -54.59686 
L 482.290909 -41.76 
L 480.6 -60.838806 
L 478.909091 -56.157346 
L 477.218182 -41.76 
L 475.527273 -62.733682 
L 473.836364 -41.76 
L 472.145455 -61.730512 
L 470.454545 -83.428706 
L 468.763636 -41.76 
L 467.072727 -67.210792 
L 465.381818 -41.76 
L 463.690909 -41.76 
L 462 -79.211677 
L 460.309091 -66.300509 
L 458.618182 -41.76 
L 456.927273 -41.76 
L 455.236364 -52.850601 
L 453.545455 -63.662543 
L 451.854545 -56.06446 
L 450.163636 -41.76 
L 448.472727 -41.76 
L 446.781818 -55.228485 
L 445.090909 -78.041312 
L 443.4 -41.76 
L 441.709091 -78.134198 
L 440.018182 -41.76 
L 438.327273 -41.76 
L 436.636364 -80.32631 
L 434.945455 -41.76 
L 433.254545 -41.76 
L 431.563636 -41.76 
L 429.872727 -41.76 
L 428.181818 -74.938916 
L 426.490909 -67.080752 
L 424.8 -41.76 
L 423.109091 -72.189488 
L 421.418182 -41.76 
L 419.727273 -90.135083 
L 418.036364 -41.76 
L 416.345455 -41.76 
L 414.654545 -41.76 
L 412.963636 -41.76 
L 411.272727 -69.551522 
L 409.581818 -41.76 
L 407.890909 -57.123362 
L 406.2 -85.490778 
L 404.509091 -41.76 
L 402.818182 -98.754913 
L 401.127273 -41.76 
L 399.436364 -41.76 
L 397.745455 -81.403789 
L 396.054545 -58.349458 
L 394.363636 -117.016321 
L 392.672727 -41.76 
L 390.981818 -41.76 
L 389.290909 -41.76 
L 387.6 -41.76 
L 385.909091 -175.590299 
L 384.218182 -41.76 
L 382.527273 -41.76 
L 380.836364 -41.76 
L 379.145455 -41.76 
L 377.454545 -79.230254 
L 375.763636 -41.76 
L 374.072727 -76.666598 
L 372.381818 -41.76 
L 370.690909 -41.76 
L 369 -179.287165 
L 367.309091 -41.76 
L 365.618182 -41.76 
L 363.927273 -41.76 
L 362.236364 -41.76 
L 360.545455 -74.734567 
L 358.854545 -41.76 
L 357.163636 -41.76 
L 355.472727 -41.76 
L 353.781818 -41.76 
L 352.090909 -75.867777 
L 350.4 -41.76 
L 348.709091 -41.76 
L 347.018182 -41.76 
L 345.327273 -41.76 
L 343.636364 -74.04721 
L 341.945455 -41.76 
L 340.254545 -41.76 
L 338.563636 -41.76 
L 336.872727 -76.536557 
L 335.181818 -70.851928 
L 333.490909 -41.76 
L 331.8 -41.76 
L 330.109091 -72.876845 
L 328.418182 -41.76 
L 326.727273 -101.188529 
L 325.036364 -41.76 
L 323.345455 -41.76 
L 321.654545 -76.090704 
L 319.963636 -41.76 
L 318.272727 -91.769878 
L 316.581818 -41.76 
L 314.890909 -41.76 
L 313.2 -94.872274 
L 311.509091 -41.76 
L 309.818182 -58.107954 
L 308.127273 -41.76 
L 306.436364 -41.76 
L 304.745455 -41.76 
L 303.054545 -41.76 
L 301.363636 -57.179093 
L 299.672727 -41.76 
L 297.981818 -58.925352 
L 296.290909 -41.76 
L 294.6 -41.76 
L 292.909091 -104.606738 
L 291.218182 -122.143634 
L 289.527273 -41.76 
L 287.836364 -41.76 
L 286.145455 -41.76 
L 284.454545 -78.264239 
L 282.763636 -41.76 
L 281.072727 -41.76 
L 279.381818 -41.76 
L 277.690909 -41.76 
L 276 -146.999956 
L 274.309091 -92.773048 
L 272.618182 -41.76 
L 270.927273 -41.76 
L 269.236364 -41.76 
L 267.545455 -82.109724 
L 265.854545 -41.76 
L 264.163636 -41.76 
L 262.472727 -41.76 
L 260.781818 -41.76 
L 259.090909 -61.526163 
L 257.4 -56.120192 
L 255.709091 -41.76 
L 254.018182 -41.76 
L 252.327273 -41.76 
L 250.636364 -67.991036 
L 248.945455 -71.427822 
L 247.254545 -41.76 
L 245.563636 -57.996491 
L 243.872727 -41.76 
L 242.181818 -131.952407 
L 240.490909 -41.76 
L 238.8 -74.288714 
L 237.109091 -41.76 
L 235.418182 -41.76 
L 233.727273 -72.746804 
L 232.036364 -41.76 
L 230.345455 -93.126015 
L 228.654545 -41.76 
L 226.963636 -41.76 
L 225.272727 -79.471758 
L 223.581818 -41.76 
L 221.890909 -41.76 
L 220.2 -41.76 
L 218.509091 -41.76 
L 216.818182 -129.72314 
L 215.127273 -41.76 
L 213.436364 -41.76 
L 211.745455 -41.76 
L 210.054545 -41.76 
L 208.363636 -85.323583 
L 206.672727 -41.76 
L 204.981818 -41.76 
L 203.290909 -99.776661 
L 201.6 -41.76 
L 199.909091 -76.202167 
L 198.218182 -41.76 
L 196.527273 -41.76 
L 194.836364 -41.76 
L 193.145455 -41.76 
L 191.454545 -79.750417 
L 189.763636 -41.76 
L 188.072727 -41.76 
L 186.381818 -41.76 
L 184.690909 -41.76 
L 183 -87.515695 
L 181.309091 -75.867777 
L 179.618182 -41.76 
L 177.927273 -41.76 
L 176.236364 -41.76 
L 174.545455 -80.289156 
L 172.854545 -41.76 
L 171.163636 -41.76 
L 169.472727 -41.76 
L 167.781818 -41.76 
L 166.090909 -79.973343 
L 164.4 -41.76 
L 162.709091 -41.76 
L 161.018182 -116.75624 
L 159.327273 -41.76 
L 157.636364 -58.665271 
L 155.945455 -41.76 
L 154.254545 -41.76 
L 152.563636 -41.76 
L 150.872727 -41.76 
L 149.181818 -110.718644 
L 147.490909 -41.76 
L 145.8 -41.76 
L 144.109091 -41.76 
L 142.418182 -93.999145 
L 140.727273 -81.032245 
L 139.036364 -41.76 
L 137.345455 -41.76 
L 135.654545 -41.76 
L 133.963636 -41.76 
L 132.272727 -67.266524 
L 130.581818 -41.76 
L 128.890909 -41.76 
L 127.2 -41.76 
L 125.509091 -41.76 
L 123.818182 -56.788972 
L 122.127273 -41.815732 
L 120.436364 -41.76 
L 118.745455 -41.76 
L 117.054545 -41.76 
L 115.363636 -44.175039 
z
" style="stroke: #ff0000; stroke-width: 0.5"/>
    </defs>
    <g clip-path="url(#p4d51f9cf91)">
     <use xlink:href="#me811c52eff" x="0" y="288" style="fill: #ff0000; stroke: #ff0000; stroke-width: 0.5"/>
    </g>
   </g>
   <g id="PolyCollection_2">
    <defs>
     <path id="mdb07d6e0ed" d="M 115.363636 -47.147394 
L 115.363636 -44.175039 
L 117.054545 -41.76 
L 118.745455 -41.76 
L 120.436364 -41.76 
L 122.127273 -41.815732 
L 123.818182 -56.788972 
L 125.509091 -41.76 
L 127.2 -41.76 
L 128.890909 -41.76 
L 130.581818 -41.76 
L 132.272727 -67.266524 
L 133.963636 -41.76 
L 135.654545 -41.76 
L 137.345455 -41.76 
L 139.036364 -41.76 
L 140.727273 -81.032245 
L 142.418182 -93.999145 
L 144.109091 -41.76 
L 145.8 -41.76 
L 147.490909 -41.76 
L 149.181818 -110.718644 
L 150.872727 -41.76 
L 152.563636 -41.76 
L 154.254545 -41.76 
L 155.945455 -41.76 
L 157.636364 -58.665271 
L 159.327273 -41.76 
L 161.018182 -116.75624 
L 162.709091 -41.76 
L 164.4 -41.76 
L 166.090909 -79.973343 
L 167.781818 -41.76 
L 169.472727 -41.76 
L 171.163636 -41.76 
L 172.854545 -41.76 
L 174.545455 -80.289156 
L 176.236364 -41.76 
L 177.927273 -41.76 
L 179.618182 -41.76 
L 181.309091 -75.867777 
L 183 -87.515695 
L 184.690909 -41.76 
L 186.381818 -41.76 
L 188.072727 -41.76 
L 189.763636 -41.76 
L 191.454545 -79.750417 
L 193.145455 -41.76 
L 194.836364 -41.76 
L 196.527273 -41.76 
L 198.218182 -41.76 
L 199.909091 -76.202167 
L 201.6 -41.76 
L 203.290909 -99.776661 
L 204.981818 -41.76 
L 206.672727 -41.76 
L 208.363636 -85.323583 
L 210.054545 -41.76 
L 211.745455 -41.76 
L 213.436364 -41.76 
L 215.127273 -41.76 
L 216.818182 -129.72314 
L 218.509091 -41.76 
L 220.2 -41.76 
L 221.890909 -41.76 
L 223.581818 -41.76 
L 225.272727 -79.471758 
L 226.963636 -41.76 
L 228.654545 -41.76 
L 230.345455 -93.126015 
L 232.036364 -41.76 
L 233.727273 -72.746804 
L 235.418182 -41.76 
L 237.109091 -41.76 
L 238.8 -74.288714 
L 240.490909 -41.76 
L 242.181818 -131.952407 
L 243.872727 -41.76 
L 245.563636 -57.996491 
L 247.254545 -41.76 
L 248.945455 -71.427822 
L 250.636364 -67.991036 
L 252.327273 -41.76 
L 254.018182 -41.76 
L 255.709091 -41.76 
L 257.4 -56.120192 
L 259.090909 -61.526163 
L 260.781818 -41.76 
L 262.472727 -41.76 
L 264.163636 -41.76 
L 265.854545 -41.76 
L 267.545455 -82.109724 
L 269.236364 -41.76 
L 270.927273 -41.76 
L 272.618182 -41.76 
L 274.309091 -92.773048 
L 276 -146.999956 
L 277.690909 -41.76 
L 279.381818 -41.76 
L 281.072727 -41.76 
L 282.763636 -41.76 
L 284.454545 -78.264239 
L 286.145455 -41.76 
L 287.836364 -41.76 
L 289.527273 -41.76 
L 291.218182 -122.143634 
L 292.909091 -104.606738 
L 294.6 -41.76 
L 296.290909 -41.76 
L 297.981818 -58.925352 
L 299.672727 -41.76 
L 301.363636 -57.179093 
L 303.054545 -41.76 
L 304.745455 -41.76 
L 306.436364 -41.76 
L 308.127273 -41.76 
L 309.818182 -58.107954 
L 311.509091 -41.76 
L 313.2 -94.872274 
L 314.890909 -41.76 
L 316.581818 -41.76 
L 318.272727 -91.769878 
L 319.963636 -41.76 
L 321.654545 -76.090704 
L 323.345455 -41.76 
L 325.036364 -41.76 
L 326.727273 -101.188529 
L 328.418182 -41.76 
L 330.109091 -72.876845 
L 331.8 -41.76 
L 333.490909 -41.76 
L 335.181818 -70.851928 
L 336.872727 -76.536557 
L 338.563636 -41.76 
L 340.254545 -41.76 
L 341.945455 -41.76 
L 343.636364 -74.04721 
L 345.327273 -41.76 
L 347.018182 -41.76 
L 348.709091 -41.76 
L 350.4 -41.76 
L 352.090909 -75.867777 
L 353.781818 -41.76 
L 355.472727 -41.76 
L 357.163636 -41.76 
L 358.854545 -41.76 
L 360.545455 -74.734567 
L 362.236364 -41.76 
L 363.927273 -41.76 
L 365.618182 -41.76 
L 367.309091 -41.76 
L 369 -179.287165 
L 370.690909 -41.76 
L 372.381818 -41.76 
L 374.072727 -76.666598 
L 375.763636 -41.76 
L 377.454545 -79.230254 
L 379.145455 -41.76 
L 380.836364 -41.76 
L 382.527273 -41.76 
L 384.218182 -41.76 
L 385.909091 -175.590299 
L 387.6 -41.76 
L 389.290909 -41.76 
L 390.981818 -41.76 
L 392.672727 -41.76 
L 394.363636 -117.016321 
L 396.054545 -58.349458 
L 397.745455 -81.403789 
L 399.436364 -41.76 
L 401.127273 -41.76 
L 402.818182 -98.754913 
L 404.509091 -41.76 
L 406.2 -85.490778 
L 407.890909 -57.123362 
L 409.581818 -41.76 
L 411.272727 -69.551522 
L 412.963636 -41.76 
L 414.654545 -41.76 
L 416.345455 -41.76 
L 418.036364 -41.76 
L 419.727273 -90.135083 
L 421.418182 -41.76 
L 423.109091 -72.189488 
L 424.8 -41.76 
L 426.490909 -67.080752 
L 428.181818 -74.938916 
L 429.872727 -41.76 
L 431.563636 -41.76 
L 433.254545 -41.76 
L 434.945455 -41.76 
L 436.636364 -80.32631 
L 438.327273 -41.76 
L 440.018182 -41.76 
L 441.709091 -78.134198 
L 443.4 -41.76 
L 445.090909 -78.041312 
L 446.781818 -55.228485 
L 448.472727 -41.76 
L 450.163636 -41.76 
L 451.854545 -56.06446 
L 453.545455 -63.662543 
L 455.236364 -52.850601 
L 456.927273 -41.76 
L 458.618182 -41.76 
L 460.309091 -66.300509 
L 462 -79.211677 
L 463.690909 -41.76 
L 465.381818 -41.76 
L 467.072727 -67.210792 
L 468.763636 -41.76 
L 470.454545 -83.428706 
L 472.145455 -61.730512 
L 473.836364 -41.76 
L 475.527273 -62.733682 
L 477.218182 -41.76 
L 478.909091 -56.157346 
L 480.6 -60.838806 
L 482.290909 -41.76 
L 483.981818 -54.59686 
L 485.672727 -41.76 
L 487.363636 -60.337221 
L 489.054545 -41.76 
L 490.745455 -41.76 
L 492.436364 -41.76 
L 494.127273 -52.980641 
L 495.818182 -93.311788 
L 497.509091 -41.76 
L 499.2 -41.76 
L 500.890909 -122.942455 
L 502.581818 -41.76 
L 504.272727 -95.039469 
L 505.963636 -41.76 
L 507.654545 -41.76 
L 509.345455 -41.76 
L 511.036364 -110.421408 
L 512.727273 -100.686944 
L 514.418182 -58.107954 
L 516.109091 -41.76 
L 517.8 -41.76 
L 519.490909 -41.76 
L 521.181818 -84.190372 
L 522.872727 -41.76 
L 524.563636 -41.76 
L 526.254545 -41.76 
L 527.945455 -41.76 
L 529.636364 -59.334051 
L 531.327273 -104.588161 
L 533.018182 -78.468588 
L 534.709091 -41.76 
L 536.4 -41.76 
L 538.090909 -66.486281 
L 539.781818 -41.76 
L 541.472727 -41.76 
L 543.163636 -41.76 
L 544.854545 -41.76 
L 546.545455 -77.874117 
L 548.236364 -53.296454 
L 549.927273 -41.76 
L 551.618182 -86.586834 
L 553.309091 -54.949827 
L 555 -58.20084 
L 556.690909 -83.614478 
L 558.381818 -41.76 
L 560.072727 -122.663797 
L 561.763636 -41.76 
L 563.454545 -109.47397 
L 565.145455 -41.76 
L 566.836364 -75.291884 
L 568.527273 -74.641681 
L 570.218182 -41.76 
L 571.909091 -94.203494 
L 573.6 -41.76 
L 575.290909 -41.76 
L 576.981818 -41.76 
L 578.672727 -88.184475 
L 580.363636 -85.212119 
L 582.054545 -41.76 
L 583.745455 -41.76 
L 585.436364 -41.76 
L 587.127273 -41.76 
L 588.818182 -110.087018 
L 590.509091 -41.76 
L 592.2 -85.713704 
L 593.890909 -41.76 
L 595.581818 -78.765824 
L 597.272727 -110.309945 
L 598.963636 -41.76 
L 600.654545 -41.76 
L 602.345455 -41.76 
L 604.036364 -104.235194 
L 605.727273 -103.306332 
L 607.418182 -41.76 
L 609.109091 -41.76 
L 610.8 -41.76 
L 612.490909 -41.76 
L 614.181818 -109.158157 
L 615.872727 -58.033645 
L 617.563636 -41.76 
L 619.254545 -41.76 
L 620.945455 -58.758157 
L 622.636364 -74.3816 
L 622.636364 -74.3816 
L 622.636364 -74.3816 
L 620.945455 -71.112009 
L 619.254545 -60.430107 
L 617.563636 -52.869178 
L 615.872727 -61.228927 
L 614.181818 -110.235636 
L 612.490909 -43.599145 
L 610.8 -44.397965 
L 609.109091 -46.868736 
L 607.418182 -43.209023 
L 605.727273 -103.900804 
L 604.036364 -105.684217 
L 602.345455 -54.968404 
L 600.654545 -51.420155 
L 598.963636 -55.042713 
L 597.272727 -121.512009 
L 595.581818 -94.463575 
L 593.890909 -47.017353 
L 592.2 -91.546952 
L 590.509091 -53.407917 
L 588.818182 -119.598555 
L 587.127273 -46.998776 
L 585.436364 -44.862396 
L 583.745455 -65.390225 
L 582.054545 -68.418312 
L 580.363636 -106.817427 
L 578.672727 -96.711419 
L 576.981818 -45.512599 
L 575.290909 -43.524836 
L 573.6 -48.800767 
L 571.909091 -96.321297 
L 570.218182 -49.135157 
L 568.527273 -78.022735 
L 566.836364 -85.249274 
L 565.145455 -50.361253 
L 563.454545 -115.028559 
L 561.763636 -44.472274 
L 560.072727 -130.763465 
L 558.381818 -50.788529 
L 556.690909 -89.633498 
L 555 -60.560147 
L 553.309091 -58.219418 
L 551.618182 -93.609023 
L 549.927273 -61.730512 
L 548.236364 -67.470874 
L 546.545455 -85.249274 
L 544.854545 -45.085323 
L 543.163636 -49.395238 
L 541.472727 -68.994206 
L 539.781818 -52.813446 
L 538.090909 -81.385212 
L 536.4 -54.986981 
L 534.709091 -65.297339 
L 533.018182 -90.116506 
L 531.327273 -108.637995 
L 529.636364 -67.582337 
L 527.945455 -45.419712 
L 526.254545 -44.56516 
L 524.563636 -44.137884 
L 522.872727 -47.054508 
L 521.181818 -88.946141 
L 519.490909 -44.360811 
L 517.8 -49.450969 
L 516.109091 -56.101614 
L 514.418182 -62.027748 
L 512.727273 -101.65296 
L 511.036364 -112.260553 
L 509.345455 -55.39568 
L 507.654545 -50.175481 
L 505.963636 -60.467261 
L 504.272727 -113.560958 
L 502.581818 -45.977029 
L 500.890909 -123.053918 
L 499.2 -42.09439 
L 497.509091 -42.131544 
L 495.818182 -95.652518 
L 494.127273 -55.860111 
L 492.436364 -51.735968 
L 490.745455 -58.033645 
L 489.054545 -49.450969 
L 487.363636 -68.436889 
L 485.672727 -47.370321 
L 483.981818 -60.690188 
L 482.290909 -83.057162 
L 480.6 -89.614921 
L 478.909091 -80.604969 
L 477.218182 -67.415142 
L 475.527273 -84.524762 
L 473.836364 -49.525278 
L 472.145455 -68.90132 
L 470.454545 -92.791626 
L 468.763636 -44.918128 
L 467.072727 -69.755872 
L 465.381818 -48.299182 
L 463.690909 -46.162801 
L 462 -94.444998 
L 460.309091 -74.976071 
L 458.618182 -48.893653 
L 456.927273 -48.076255 
L 455.236364 -55.377103 
L 453.545455 -94.742234 
L 451.854545 -68.827011 
L 450.163636 -49.135157 
L 448.472727 -62.659373 
L 446.781818 -70.090262 
L 445.090909 -78.747247 
L 443.4 -41.890041 
L 441.709091 -81.032245 
L 440.018182 -65.483111 
L 438.327273 -65.037258 
L 436.636364 -95.373859 
L 434.945455 -53.649421 
L 433.254545 -61.87913 
L 431.563636 -60.002831 
L 429.872727 -62.362138 
L 428.181818 -94.705079 
L 426.490909 -76.034972 
L 424.8 -48.392068 
L 423.109091 -79.100214 
L 421.418182 -63.718275 
L 419.727273 -109.455393 
L 418.036364 -58.386613 
L 416.345455 -52.033203 
L 414.654545 -57.104784 
L 412.963636 -46.478614 
L 411.272727 -76.480826 
L 409.581818 -47.091662 
L 407.890909 -67.396565 
L 406.2 -90.599513 
L 404.509091 -45.995606 
L 402.818182 -103.566414 
L 401.127273 -46.720118 
L 399.436364 -49.283774 
L 397.745455 -89.949311 
L 396.054545 -63.978356 
L 394.363636 -121.77209 
L 392.672727 -48.020523 
L 390.981818 -49.24662 
L 389.290909 -45.308249 
L 387.6 -46.292842 
L 385.909091 -176.31481 
L 384.218182 -46.144224 
L 382.527273 -49.172311 
L 380.836364 -53.575112 
L 379.145455 -52.832024 
L 377.454545 -84.524762 
L 375.763636 -45.531176 
L 374.072727 -77.632613 
L 372.381818 -42.688861 
L 370.690909 -42.595975 
L 369 -179.528669 
L 367.309091 -44.639469 
L 365.618182 -48.392068 
L 363.927273 -62.603642 
L 362.236364 -50.788529 
L 360.545455 -78.041312 
L 358.854545 -51.884585 
L 357.163636 -50.175481 
L 355.472727 -52.887755 
L 353.781818 -44.360811 
L 352.090909 -81.125131 
L 350.4 -49.989709 
L 348.709091 -46.10707 
L 347.018182 -45.271095 
L 345.327273 -45.1039 
L 343.636364 -78.802978 
L 341.945455 -43.729185 
L 340.254545 -44.472274 
L 338.563636 -52.330439 
L 336.872727 -84.450453 
L 335.181818 -77.019565 
L 333.490909 -46.757272 
L 331.8 -48.614994 
L 330.109091 -85.713704 
L 328.418182 -53.872348 
L 326.727273 -114.638437 
L 325.036364 -51.104342 
L 323.345455 -65.390225 
L 321.654545 -84.0046 
L 319.963636 -51.04861 
L 318.272727 -105.405558 
L 316.581818 -49.005116 
L 314.890909 -49.450969 
L 313.2 -107.151817 
L 311.509091 -55.971574 
L 309.818182 -70.70331 
L 308.127273 -56.361696 
L 306.436364 -53.519381 
L 304.745455 -60.597302 
L 303.054545 -54.318201 
L 301.363636 -73.564202 
L 299.672727 -49.618164 
L 297.981818 -64.015511 
L 296.290909 -44.026421 
L 294.6 -52.980641 
L 292.909091 -108.173564 
L 291.218182 -125.673306 
L 289.527273 -47.463207 
L 287.836364 -47.426052 
L 286.145455 -46.998776 
L 284.454545 -85.472201 
L 282.763636 -46.422882 
L 281.072727 -44.453697 
L 279.381818 -44.43512 
L 277.690909 -44.602315 
L 276 -147.557272 
L 274.309091 -93.6276 
L 272.618182 -44.175039 
L 270.927273 -44.212193 
L 269.236364 -48.652149 
L 267.545455 -87.404231 
L 265.854545 -41.908618 
L 264.163636 -44.880973 
L 262.472727 -46.292842 
L 260.781818 -53.482226 
L 259.090909 -77.409687 
L 257.4 -72.022293 
L 255.709091 -69.718717 
L 254.018182 -66.504858 
L 252.327273 -67.972459 
L 250.636364 -81.050822 
L 248.945455 -88.500288 
L 247.254545 -51.996049 
L 245.563636 -59.779904 
L 243.872727 -43.153292 
L 242.181818 -133.252812 
L 240.490909 -43.246178 
L 238.8 -87.831508 
L 237.109091 -52.441902 
L 235.418182 -64.944372 
L 233.727273 -86.103826 
L 232.036364 -49.265197 
L 230.345455 -95.429591 
L 228.654545 -49.543856 
L 226.963636 -48.262027 
L 225.272727 -88.964718 
L 223.581818 -44.397965 
L 221.890909 -47.333166 
L 220.2 -53.779462 
L 218.509091 -44.56516 
L 216.818182 -142.244187 
L 215.127273 -49.58101 
L 213.436364 -42.503089 
L 211.745455 -43.153292 
L 210.054545 -43.56199 
L 208.363636 -88.518865 
L 206.672727 -51.810276 
L 204.981818 -59.984254 
L 203.290909 -107.671979 
L 201.6 -47.11024 
L 199.909091 -81.942529 
L 198.218182 -48.317759 
L 196.527273 -47.24028 
L 194.836364 -45.029591 
L 193.145455 -46.738695 
L 191.454545 -84.190372 
L 189.763636 -47.091662 
L 188.072727 -47.946215 
L 186.381818 -47.90906 
L 184.690909 -48.707881 
L 183 -94.705079 
L 181.309091 -83.67021 
L 179.618182 -50.24979 
L 177.927273 -50.064018 
L 176.236364 -50.361253 
L 174.545455 -86.363907 
L 172.854545 -50.37983 
L 171.163636 -49.358083 
L 169.472727 -49.896823 
L 167.781818 -50.324099 
L 166.090909 -85.695127 
L 164.4 -52.59052 
L 162.709091 -51.643081 
L 161.018182 -120.954692 
L 159.327273 -42.614552 
L 157.636364 -62.715105 
L 155.945455 -55.302794 
L 154.254545 -44.583738 
L 152.563636 -49.469547 
L 150.872727 -47.017353 
L 149.181818 -115.75307 
L 147.490909 -46.311419 
L 145.8 -44.249348 
L 144.109091 -44.472274 
L 142.418182 -96.024062 
L 140.727273 -84.784843 
L 139.036364 -48.633572 
L 137.345455 -50.064018 
L 135.654545 -47.407475 
L 133.963636 -50.732798 
L 132.272727 -72.449569 
L 130.581818 -53.38934 
L 128.890909 -53.946657 
L 127.2 -51.643081 
L 125.509091 -46.590077 
L 123.818182 -59.092547 
L 122.127273 -66.746362 
L 120.436364 -49.172311 
L 118.745455 -42.595975 
L 117.054545 -43.320487 
L 115.363636 -47.147394 
z
" style="stroke: #0000ff; stroke-width: 0.5"/>
    </defs>
    <g clip-path="url(#p4d51f9cf91)">
     <use xlink:href="#mdb07d6e0ed" x="0" y="288" style="fill: #0000ff; stroke: #0000ff; stroke-width: 0.5"/>
    </g>
   </g>
   <g id="PolyCollection_3">
    <defs>
     <path id="ma3df5c8559" d="M 115.363636 -71.446399 
L 115.363636 -47.147394 
L 117.054545 -43.320487 
L 118.745455 -42.595975 
L 120.436364 -49.172311 
L 122.127273 -66.746362 
L 123.818182 -59.092547 
L 125.509091 -46.590077 
L 127.2 -51.643081 
L 128.890909 -53.946657 
L 130.581818 -53.38934 
L 132.272727 -72.449569 
L 133.963636 -50.732798 
L 135.654545 -47.407475 
L 137.345455 -50.064018 
L 139.036364 -48.633572 
L 140.727273 -84.784843 
L 142.418182 -96.024062 
L 144.109091 -44.472274 
L 145.8 -44.249348 
L 147.490909 -46.311419 
L 149.181818 -115.75307 
L 150.872727 -47.017353 
L 152.563636 -49.469547 
L 154.254545 -44.583738 
L 155.945455 -55.302794 
L 157.636364 -62.715105 
L 159.327273 -42.614552 
L 161.018182 -120.954692 
L 162.709091 -51.643081 
L 164.4 -52.59052 
L 166.090909 -85.695127 
L 167.781818 -50.324099 
L 169.472727 -49.896823 
L 171.163636 -49.358083 
L 172.854545 -50.37983 
L 174.545455 -86.363907 
L 176.236364 -50.361253 
L 177.927273 -50.064018 
L 179.618182 -50.24979 
L 181.309091 -83.67021 
L 183 -94.705079 
L 184.690909 -48.707881 
L 186.381818 -47.90906 
L 188.072727 -47.946215 
L 189.763636 -47.091662 
L 191.454545 -84.190372 
L 193.145455 -46.738695 
L 194.836364 -45.029591 
L 196.527273 -47.24028 
L 198.218182 -48.317759 
L 199.909091 -81.942529 
L 201.6 -47.11024 
L 203.290909 -107.671979 
L 204.981818 -59.984254 
L 206.672727 -51.810276 
L 208.363636 -88.518865 
L 210.054545 -43.56199 
L 211.745455 -43.153292 
L 213.436364 -42.503089 
L 215.127273 -49.58101 
L 216.818182 -142.244187 
L 218.509091 -44.56516 
L 220.2 -53.779462 
L 221.890909 -47.333166 
L 223.581818 -44.397965 
L 225.272727 -88.964718 
L 226.963636 -48.262027 
L 228.654545 -49.543856 
L 230.345455 -95.429591 
L 232.036364 -49.265197 
L 233.727273 -86.103826 
L 235.418182 -64.944372 
L 237.109091 -52.441902 
L 238.8 -87.831508 
L 240.490909 -43.246178 
L 242.181818 -133.252812 
L 243.872727 -43.153292 
L 245.563636 -59.779904 
L 247.254545 -51.996049 
L 248.945455 -88.500288 
L 250.636364 -81.050822 
L 252.327273 -67.972459 
L 254.018182 -66.504858 
L 255.709091 -69.718717 
L 257.4 -72.022293 
L 259.090909 -77.409687 
L 260.781818 -53.482226 
L 262.472727 -46.292842 
L 264.163636 -44.880973 
L 265.854545 -41.908618 
L 267.545455 -87.404231 
L 269.236364 -48.652149 
L 270.927273 -44.212193 
L 272.618182 -44.175039 
L 274.309091 -93.6276 
L 276 -147.557272 
L 277.690909 -44.602315 
L 279.381818 -44.43512 
L 281.072727 -44.453697 
L 282.763636 -46.422882 
L 284.454545 -85.472201 
L 286.145455 -46.998776 
L 287.836364 -47.426052 
L 289.527273 -47.463207 
L 291.218182 -125.673306 
L 292.909091 -108.173564 
L 294.6 -52.980641 
L 296.290909 -44.026421 
L 297.981818 -64.015511 
L 299.672727 -49.618164 
L 301.363636 -73.564202 
L 303.054545 -54.318201 
L 304.745455 -60.597302 
L 306.436364 -53.519381 
L 308.127273 -56.361696 
L 309.818182 -70.70331 
L 311.509091 -55.971574 
L 313.2 -107.151817 
L 314.890909 -49.450969 
L 316.581818 -49.005116 
L 318.272727 -105.405558 
L 319.963636 -51.04861 
L 321.654545 -84.0046 
L 323.345455 -65.390225 
L 325.036364 -51.104342 
L 326.727273 -114.638437 
L 328.418182 -53.872348 
L 330.109091 -85.713704 
L 331.8 -48.614994 
L 333.490909 -46.757272 
L 335.181818 -77.019565 
L 336.872727 -84.450453 
L 338.563636 -52.330439 
L 340.254545 -44.472274 
L 341.945455 -43.729185 
L 343.636364 -78.802978 
L 345.327273 -45.1039 
L 347.018182 -45.271095 
L 348.709091 -46.10707 
L 350.4 -49.989709 
L 352.090909 -81.125131 
L 353.781818 -44.360811 
L 355.472727 -52.887755 
L 357.163636 -50.175481 
L 358.854545 -51.884585 
L 360.545455 -78.041312 
L 362.236364 -50.788529 
L 363.927273 -62.603642 
L 365.618182 -48.392068 
L 367.309091 -44.639469 
L 369 -179.528669 
L 370.690909 -42.595975 
L 372.381818 -42.688861 
L 374.072727 -77.632613 
L 375.763636 -45.531176 
L 377.454545 -84.524762 
L 379.145455 -52.832024 
L 380.836364 -53.575112 
L 382.527273 -49.172311 
L 384.218182 -46.144224 
L 385.909091 -176.31481 
L 387.6 -46.292842 
L 389.290909 -45.308249 
L 390.981818 -49.24662 
L 392.672727 -48.020523 
L 394.363636 -121.77209 
L 396.054545 -63.978356 
L 397.745455 -89.949311 
L 399.436364 -49.283774 
L 401.127273 -46.720118 
L 402.818182 -103.566414 
L 404.509091 -45.995606 
L 406.2 -90.599513 
L 407.890909 -67.396565 
L 409.581818 -47.091662 
L 411.272727 -76.480826 
L 412.963636 -46.478614 
L 414.654545 -57.104784 
L 416.345455 -52.033203 
L 418.036364 -58.386613 
L 419.727273 -109.455393 
L 421.418182 -63.718275 
L 423.109091 -79.100214 
L 424.8 -48.392068 
L 426.490909 -76.034972 
L 428.181818 -94.705079 
L 429.872727 -62.362138 
L 431.563636 -60.002831 
L 433.254545 -61.87913 
L 434.945455 -53.649421 
L 436.636364 -95.373859 
L 438.327273 -65.037258 
L 440.018182 -65.483111 
L 441.709091 -81.032245 
L 443.4 -41.890041 
L 445.090909 -78.747247 
L 446.781818 -70.090262 
L 448.472727 -62.659373 
L 450.163636 -49.135157 
L 451.854545 -68.827011 
L 453.545455 -94.742234 
L 455.236364 -55.377103 
L 456.927273 -48.076255 
L 458.618182 -48.893653 
L 460.309091 -74.976071 
L 462 -94.444998 
L 463.690909 -46.162801 
L 465.381818 -48.299182 
L 467.072727 -69.755872 
L 468.763636 -44.918128 
L 470.454545 -92.791626 
L 472.145455 -68.90132 
L 473.836364 -49.525278 
L 475.527273 -84.524762 
L 477.218182 -67.415142 
L 478.909091 -80.604969 
L 480.6 -89.614921 
L 482.290909 -83.057162 
L 483.981818 -60.690188 
L 485.672727 -47.370321 
L 487.363636 -68.436889 
L 489.054545 -49.450969 
L 490.745455 -58.033645 
L 492.436364 -51.735968 
L 494.127273 -55.860111 
L 495.818182 -95.652518 
L 497.509091 -42.131544 
L 499.2 -42.09439 
L 500.890909 -123.053918 
L 502.581818 -45.977029 
L 504.272727 -113.560958 
L 505.963636 -60.467261 
L 507.654545 -50.175481 
L 509.345455 -55.39568 
L 511.036364 -112.260553 
L 512.727273 -101.65296 
L 514.418182 -62.027748 
L 516.109091 -56.101614 
L 517.8 -49.450969 
L 519.490909 -44.360811 
L 521.181818 -88.946141 
L 522.872727 -47.054508 
L 524.563636 -44.137884 
L 526.254545 -44.56516 
L 527.945455 -45.419712 
L 529.636364 -67.582337 
L 531.327273 -108.637995 
L 533.018182 -90.116506 
L 534.709091 -65.297339 
L 536.4 -54.986981 
L 538.090909 -81.385212 
L 539.781818 -52.813446 
L 541.472727 -68.994206 
L 543.163636 -49.395238 
L 544.854545 -45.085323 
L 546.545455 -85.249274 
L 548.236364 -67.470874 
L 549.927273 -61.730512 
L 551.618182 -93.609023 
L 553.309091 -58.219418 
L 555 -60.560147 
L 556.690909 -89.633498 
L 558.381818 -50.788529 
L 560.072727 -130.763465 
L 561.763636 -44.472274 
L 563.454545 -115.028559 
L 565.145455 -50.361253 
L 566.836364 -85.249274 
L 568.527273 -78.022735 
L 570.218182 -49.135157 
L 571.909091 -96.321297 
L 573.6 -48.800767 
L 575.290909 -43.524836 
L 576.981818 -45.512599 
L 578.672727 -96.711419 
L 580.363636 -106.817427 
L 582.054545 -68.418312 
L 583.745455 -65.390225 
L 585.436364 -44.862396 
L 587.127273 -46.998776 
L 588.818182 -119.598555 
L 590.509091 -53.407917 
L 592.2 -91.546952 
L 593.890909 -47.017353 
L 595.581818 -94.463575 
L 597.272727 -121.512009 
L 598.963636 -55.042713 
L 600.654545 -51.420155 
L 602.345455 -54.968404 
L 604.036364 -105.684217 
L 605.727273 -103.900804 
L 607.418182 -43.209023 
L 609.109091 -46.868736 
L 610.8 -44.397965 
L 612.490909 -43.599145 
L 614.181818 -110.235636 
L 615.872727 -61.228927 
L 617.563636 -52.869178 
L 619.254545 -60.430107 
L 620.945455 -71.112009 
L 622.636364 -74.3816 
L 622.636364 -74.3816 
L 622.636364 -74.3816 
L 620.945455 -128.478467 
L 619.254545 -143.971869 
L 617.563636 -105.182632 
L 615.872727 -98.680604 
L 614.181818 -146.052518 
L 612.490909 -102.488935 
L 610.8 -112.446325 
L 609.109091 -147.297191 
L 607.418182 -76.796638 
L 605.727273 -189.708986 
L 604.036364 -165.930144 
L 602.345455 -116.663354 
L 600.654545 -106.947468 
L 598.963636 -103.566414 
L 597.272727 -162.697707 
L 595.581818 -147.111419 
L 593.890909 -121.289082 
L 592.2 -139.346141 
L 590.509091 -97.473085 
L 588.818182 -154.040722 
L 587.127273 -96.878614 
L 585.436364 -105.108323 
L 583.745455 -159.483848 
L 582.054545 -170.407254 
L 580.363636 -186.662322 
L 578.672727 -137.488419 
L 576.981818 -100.222514 
L 575.290909 -86.661143 
L 573.6 -94.537884 
L 571.909091 -114.28547 
L 570.218182 -70.015953 
L 568.527273 -98.97784 
L 566.836364 -120.750343 
L 565.145455 -88.407401 
L 563.454545 -165.168478 
L 561.763636 -111.238806 
L 560.072727 -165.874412 
L 558.381818 -91.844187 
L 556.690909 -118.279572 
L 555 -79.676108 
L 553.309091 -81.385212 
L 551.618182 -134.497486 
L 549.927273 -123.964202 
L 548.236364 -106.947468 
L 546.545455 -119.542823 
L 544.854545 -78.598629 
L 543.163636 -110.14275 
L 541.472727 -163.366487 
L 539.781818 -110.997302 
L 538.090909 -135.797892 
L 536.4 -115.325794 
L 534.709091 -178.897044 
L 533.018182 -178.915621 
L 531.327273 -145.067925 
L 529.636364 -100.872717 
L 527.945455 -82.351227 
L 526.254545 -80.270579 
L 524.563636 -81.087976 
L 522.872727 -102.767593 
L 521.181818 -153.409097 
L 519.490909 -62.975186 
L 517.8 -81.125131 
L 516.109091 -115.232908 
L 514.418182 -80.99509 
L 512.727273 -147.984548 
L 511.036364 -126.955135 
L 509.345455 -89.967888 
L 507.654545 -90.562359 
L 505.963636 -130.336189 
L 504.272727 -211.388603 
L 502.581818 -121.047578 
L 500.890909 -171.057457 
L 499.2 -46.032761 
L 497.509091 -45.512599 
L 495.818182 -104.755356 
L 494.127273 -84.469031 
L 492.436364 -91.602683 
L 490.745455 -115.734493 
L 489.054545 -89.373417 
L 487.363636 -107.244703 
L 485.672727 -77.18676 
L 483.981818 -105.535599 
L 482.290909 -214.490999 
L 480.6 -173.751154 
L 478.909091 -148.857678 
L 477.218182 -133.884438 
L 475.527273 -136.838216 
L 473.836364 -66.523435 
L 472.145455 -103.603568 
L 470.454545 -123.165381 
L 468.763636 -58.609539 
L 467.072727 -89.837847 
L 465.381818 -92.49439 
L 463.690909 -92.085691 
L 462 -174.011235 
L 460.309091 -101.634383 
L 458.618182 -73.991478 
L 456.927273 -72.152333 
L 455.236364 -99.739506 
L 453.545455 -219.246767 
L 451.854545 -104.606738 
L 450.163636 -101.355724 
L 448.472727 -162.196122 
L 446.781818 -112.464902 
L 445.090909 -83.075739 
L 443.4 -46.348574 
L 441.709091 -106.743118 
L 440.018182 -149.619344 
L 438.327273 -157.960516 
L 436.636364 -158.963686 
L 434.945455 -111.294537 
L 433.254545 -122.9053 
L 431.563636 -116.849126 
L 429.872727 -128.236963 
L 428.181818 -147.91024 
L 426.490909 -105.851412 
L 424.8 -74.121519 
L 423.109091 -100.3154 
L 421.418182 -123.964202 
L 419.727273 -158.573564 
L 418.036364 -120.824652 
L 416.345455 -104.086576 
L 414.654545 -97.380199 
L 412.963636 -74.195827 
L 411.272727 -107.411898 
L 409.581818 -74.864607 
L 407.890909 -117.220671 
L 406.2 -109.659742 
L 404.509091 -64.461364 
L 402.818182 -127.568183 
L 401.127273 -79.100214 
L 399.436364 -100.77983 
L 397.745455 -120.304489 
L 396.054545 -94.054877 
L 394.363636 -152.480236 
L 392.672727 -86.029517 
L 390.981818 -82.87139 
L 389.290909 -64.145551 
L 387.6 -77.762654 
L 385.909091 -189.374596 
L 384.218182 -88.333093 
L 382.527273 -100.909871 
L 380.836364 -117.592215 
L 379.145455 -113.077951 
L 377.454545 -124.038511 
L 375.763636 -69.142823 
L 374.072727 -168.15941 
L 372.381818 -149.619344 
L 370.690909 -140.55366 
L 369 -192.272643 
L 367.309091 -82.295496 
L 365.618182 -106.538769 
L 363.927273 -131.376513 
L 362.236364 -102.173122 
L 360.545455 -117.870874 
L 358.854545 -109.715474 
L 357.163636 -109.083848 
L 355.472727 -110.551449 
L 353.781818 -83.224357 
L 352.090909 -130.447652 
L 350.4 -103.157715 
L 348.709091 -97.082964 
L 347.018182 -89.039027 
L 345.327273 -91.138253 
L 343.636364 -121.716358 
L 341.945455 -77.595459 
L 340.254545 -81.218017 
L 338.563636 -105.628485 
L 336.872727 -122.645219 
L 335.181818 -106.46446 
L 333.490909 -71.985138 
L 331.8 -79.601799 
L 330.109091 -122.459447 
L 328.418182 -101.44861 
L 326.727273 -176.612046 
L 325.036364 -127.531028 
L 323.345455 -164.704047 
L 321.654545 -129.816027 
L 319.963636 -105.034014 
L 318.272727 -156.251412 
L 316.581818 -71.595017 
L 314.890909 -78.041312 
L 313.2 -148.616174 
L 311.509091 -89.949311 
L 309.818182 -98.457678 
L 308.127273 -96.544224 
L 306.436364 -90.042197 
L 304.745455 -106.13007 
L 303.054545 -85.286428 
L 301.363636 -122.533756 
L 299.672727 -78.431434 
L 297.981818 -79.731839 
L 296.290909 -63.606812 
L 294.6 -128.441312 
L 292.909091 -135.352038 
L 291.218182 -151.17983 
L 289.527273 -57.513483 
L 287.836364 -63.290999 
L 286.145455 -83.447283 
L 284.454545 -130.113262 
L 282.763636 -71.817943 
L 281.072727 -61.284659 
L 279.381818 -66.077582 
L 277.690909 -67.935304 
L 276 -243.36 
L 274.309091 -166.710387 
L 272.618182 -59.594132 
L 270.927273 -74.3816 
L 269.236364 -83.00143 
L 267.545455 -114.61986 
L 265.854545 -46.10707 
L 264.163636 -70.647578 
L 262.472727 -107.709134 
L 260.781818 -112.799292 
L 259.090909 -151.532798 
L 257.4 -123.499771 
L 255.709091 -157.793321 
L 254.018182 -152.796049 
L 252.327273 -159.483848 
L 250.636364 -125.394648 
L 248.945455 -146.498371 
L 247.254545 -93.256056 
L 245.563636 -80.697855 
L 243.872727 -61.358968 
L 242.181818 -138.473011 
L 240.490909 -49.599587 
L 238.8 -138.287239 
L 237.109091 -95.726826 
L 235.418182 -127.010866 
L 233.727273 -136.819639 
L 232.036364 -94.426421 
L 230.345455 -112.929333 
L 228.654545 -87.664313 
L 226.963636 -74.251559 
L 225.272727 -122.868146 
L 223.581818 -66.504858 
L 221.890909 -75.551965 
L 220.2 -87.701467 
L 218.509091 -55.525721 
L 216.818182 -232.343708 
L 215.127273 -149.359263 
L 213.436364 -142.782927 
L 211.745455 -135.723583 
L 210.054545 -128.850011 
L 208.363636 -159.168035 
L 206.672727 -129.314442 
L 204.981818 -167.304858 
L 203.290909 -177.057899 
L 201.6 -105.684217 
L 199.909091 -128.645662 
L 198.218182 -100.333977 
L 196.527273 -103.975112 
L 194.836364 -94.29638 
L 193.145455 -104.569583 
L 191.454545 -124.595827 
L 189.763636 -96.395606 
L 188.072727 -113.189414 
L 186.381818 -117.387866 
L 184.690909 -123.945625 
L 183 -155.359705 
L 181.309091 -139.439027 
L 179.618182 -144.436299 
L 177.927273 -145.160811 
L 176.236364 -157.236004 
L 174.545455 -136.07655 
L 172.854545 -135.017648 
L 171.163636 -143.748942 
L 169.472727 -144.139064 
L 167.781818 -159.037995 
L 166.090909 -135.705006 
L 164.4 -182.631065 
L 162.709091 -193.257236 
L 161.018182 -173.156683 
L 159.327273 -50.286944 
L 157.636364 -92.141423 
L 155.945455 -103.845072 
L 154.254545 -62.789414 
L 152.563636 -89.057604 
L 150.872727 -77.428264 
L 149.181818 -155.601209 
L 147.490909 -128.719971 
L 145.8 -142.615732 
L 144.109091 -137.859963 
L 142.418182 -178.469768 
L 140.727273 -129.05436 
L 139.036364 -124.632982 
L 137.345455 -148.634751 
L 135.654545 -159.223767 
L 133.963636 -152.090114 
L 132.272727 -133.457162 
L 130.581818 -183.448463 
L 128.890909 -183.46704 
L 127.2 -148.876255 
L 125.509091 -114.582705 
L 123.818182 -89.875002 
L 122.127273 -124.595827 
L 120.436364 -54.745477 
L 118.745455 -47.686133 
L 117.054545 -49.58101 
L 115.363636 -71.446399 
z
" style="stroke: #008000; stroke-width: 0.5"/>
    </defs>
    <g clip-path="url(#p4d51f9cf91)">
     <use xlink:href="#ma3df5c8559" x="0" y="288" style="fill: #008000; stroke: #008000; stroke-width: 0.5"/>
    </g>
   </g>
   <g id="line2d_24">
    <path d="M 90 44.64 
L 648 44.64 
" clip-path="url(#p4d51f9cf91)" style="fill: none; stroke: #000000; stroke-width: 1.5; stroke-linecap: square"/>
   </g>
   <g id="line2d_25">
    <path d="M 90 172.432702 
L 648 172.432702 
" clip-path="url(#p4d51f9cf91)" style="fill: none; stroke: #000000; stroke-width: 1.5; stroke-linecap: square"/>
   </g>
   <g id="patch_3">
    <path d="M 90 256.32 
L 90 34.56 
" style="fill: none; stroke: #000000; stroke-width: 0.8; stroke-linejoin: miter; stroke-linecap: square"/>
   </g>
   <g id="patch_4">
    <path d="M 648 256.32 
L 648 34.56 
" style="fill: none; stroke: #000000; stroke-width: 0.8; stroke-linejoin: miter; stroke-linecap: square"/>
   </g>
   <g id="patch_5">
    <path d="M 90 256.32 
L 648 256.32 
" style="fill: none; stroke: #000000; stroke-width: 0.8; stroke-linejoin: miter; stroke-linecap: square"/>
   </g>
   <g id="patch_6">
    <path d="M 90 34.56 
L 648 34.56 
" style="fill: none; stroke: #000000; stroke-width: 0.8; stroke-linejoin: miter; stroke-linecap: square"/>
   </g>
   <g id="text_20">
    <!-- peak (10,852) -->
    <g transform="translate(118.700327 41.3136) scale(0.1 -0.1)">
     <defs>
      <path id="DejaVuSans-Bold-70" d="M 1656 506 
L 1656 -1331 
L 538 -1331 
L 538 3500 
L 1656 3500 
L 1656 2988 
Q 1888 3294 2169 3439 
Q 2450 3584 2816 3584 
Q 3463 3584 3878 3070 
Q 4294 2556 4294 1747 
Q 4294 938 3878 423 
Q 3463 -91 2816 -91 
Q 2450 -91 2169 54 
Q 1888 200 1656 506 
z
M 2400 2772 
Q 2041 2772 1848 2508 
Q 1656 2244 1656 1747 
Q 1656 1250 1848 986 
Q 2041 722 2400 722 
Q 2759 722 2948 984 
Q 3138 1247 3138 1747 
Q 3138 2247 2948 2509 
Q 2759 2772 2400 2772 
z
" transform="scale(0.015625)"/>
      <path id="DejaVuSans-Bold-65" d="M 4031 1759 
L 4031 1441 
L 1416 1441 
Q 1456 1047 1700 850 
Q 1944 653 2381 653 
Q 2734 653 3104 758 
Q 3475 863 3866 1075 
L 3866 213 
Q 3469 63 3072 -14 
Q 2675 -91 2278 -91 
Q 1328 -91 801 392 
Q 275 875 275 1747 
Q 275 2603 792 3093 
Q 1309 3584 2216 3584 
Q 3041 3584 3536 3087 
Q 4031 2591 4031 1759 
z
M 2881 2131 
Q 2881 2450 2695 2645 
Q 2509 2841 2209 2841 
Q 1884 2841 1681 2658 
Q 1478 2475 1428 2131 
L 2881 2131 
z
" transform="scale(0.015625)"/>
      <path id="DejaVuSans-Bold-61" d="M 2106 1575 
Q 1756 1575 1579 1456 
Q 1403 1338 1403 1106 
Q 1403 894 1545 773 
Q 1688 653 1941 653 
Q 2256 653 2472 879 
Q 2688 1106 2688 1447 
L 2688 1575 
L 2106 1575 
z
M 3816 1997 
L 3816 0 
L 2688 0 
L 2688 519 
Q 2463 200 2181 54 
Q 1900 -91 1497 -91 
Q 953 -91 614 226 
Q 275 544 275 1050 
Q 275 1666 698 1953 
Q 1122 2241 2028 2241 
L 2688 2241 
L 2688 2328 
Q 2688 2594 2478 2717 
Q 2269 2841 1825 2841 
Q 1466 2841 1156 2769 
Q 847 2697 581 2553 
L 581 3406 
Q 941 3494 1303 3539 
Q 1666 3584 2028 3584 
Q 2975 3584 3395 3211 
Q 3816 2838 3816 1997 
z
" transform="scale(0.015625)"/>
      <path id="DejaVuSans-Bold-6b" d="M 538 4863 
L 1656 4863 
L 1656 2216 
L 2944 3500 
L 4244 3500 
L 2534 1894 
L 4378 0 
L 3022 0 
L 1656 1459 
L 1656 0 
L 538 0 
L 538 4863 
z
" transform="scale(0.015625)"/>
      <path id="DejaVuSans-Bold-20" transform="scale(0.015625)"/>
      <path id="DejaVuSans-Bold-28" d="M 2413 -844 
L 1484 -844 
Q 1006 -72 778 623 
Q 550 1319 550 2003 
Q 550 2688 779 3389 
Q 1009 4091 1484 4856 
L 2413 4856 
Q 2013 4116 1813 3408 
Q 1613 2700 1613 2009 
Q 1613 1319 1811 609 
Q 2009 -100 2413 -844 
z
" transform="scale(0.015625)"/>
      <path id="DejaVuSans-Bold-31" d="M 750 831 
L 1813 831 
L 1813 3847 
L 722 3622 
L 722 4441 
L 1806 4666 
L 2950 4666 
L 2950 831 
L 4013 831 
L 4013 0 
L 750 0 
L 750 831 
z
" transform="scale(0.015625)"/>
      <path id="DejaVuSans-Bold-30" d="M 2944 2338 
Q 2944 3213 2780 3570 
Q 2616 3928 2228 3928 
Q 1841 3928 1675 3570 
Q 1509 3213 1509 2338 
Q 1509 1453 1675 1090 
Q 1841 728 2228 728 
Q 2613 728 2778 1090 
Q 2944 1453 2944 2338 
z
M 4147 2328 
Q 4147 1169 3647 539 
Q 3147 -91 2228 -91 
Q 1306 -91 806 539 
Q 306 1169 306 2328 
Q 306 3491 806 4120 
Q 1306 4750 2228 4750 
Q 3147 4750 3647 4120 
Q 4147 3491 4147 2328 
z
" transform="scale(0.015625)"/>
      <path id="DejaVuSans-Bold-2c" d="M 653 1209 
L 1778 1209 
L 1778 256 
L 1006 -909 
L 341 -909 
L 653 256 
L 653 1209 
z
" transform="scale(0.015625)"/>
      <path id="DejaVuSans-Bold-38" d="M 2228 2088 
Q 1891 2088 1709 1903 
Q 1528 1719 1528 1375 
Q 1528 1031 1709 848 
Q 1891 666 2228 666 
Q 2563 666 2741 848 
Q 2919 1031 2919 1375 
Q 2919 1722 2741 1905 
Q 2563 2088 2228 2088 
z
M 1350 2484 
Q 925 2613 709 2878 
Q 494 3144 494 3541 
Q 494 4131 934 4440 
Q 1375 4750 2228 4750 
Q 3075 4750 3515 4442 
Q 3956 4134 3956 3541 
Q 3956 3144 3739 2878 
Q 3522 2613 3097 2484 
Q 3572 2353 3814 2058 
Q 4056 1763 4056 1313 
Q 4056 619 3595 264 
Q 3134 -91 2228 -91 
Q 1319 -91 855 264 
Q 391 619 391 1313 
Q 391 1763 633 2058 
Q 875 2353 1350 2484 
z
M 1631 3419 
Q 1631 3141 1786 2991 
Q 1941 2841 2228 2841 
Q 2509 2841 2662 2991 
Q 2816 3141 2816 3419 
Q 2816 3697 2662 3845 
Q 2509 3994 2228 3994 
Q 1941 3994 1786 3844 
Q 1631 3694 1631 3419 
z
" transform="scale(0.015625)"/>
      <path id="DejaVuSans-Bold-35" d="M 678 4666 
L 3669 4666 
L 3669 3781 
L 1638 3781 
L 1638 3059 
Q 1775 3097 1914 3117 
Q 2053 3138 2203 3138 
Q 3056 3138 3531 2711 
Q 4006 2284 4006 1522 
Q 4006 766 3489 337 
Q 2972 -91 2053 -91 
Q 1656 -91 1267 -14 
Q 878 63 494 219 
L 494 1166 
Q 875 947 1217 837 
Q 1559 728 1863 728 
Q 2300 728 2551 942 
Q 2803 1156 2803 1522 
Q 2803 1891 2551 2103 
Q 2300 2316 1863 2316 
Q 1603 2316 1309 2248 
Q 1016 2181 678 2041 
L 678 4666 
z
" transform="scale(0.015625)"/>
      <path id="DejaVuSans-Bold-32" d="M 1844 884 
L 3897 884 
L 3897 0 
L 506 0 
L 506 884 
L 2209 2388 
Q 2438 2594 2547 2791 
Q 2656 2988 2656 3200 
Q 2656 3528 2436 3728 
Q 2216 3928 1850 3928 
Q 1569 3928 1234 3808 
Q 900 3688 519 3450 
L 519 4475 
Q 925 4609 1322 4679 
Q 1719 4750 2100 4750 
Q 2938 4750 3402 4381 
Q 3866 4013 3866 3353 
Q 3866 2972 3669 2642 
Q 3472 2313 2841 1759 
L 1844 884 
z
" transform="scale(0.015625)"/>
      <path id="DejaVuSans-Bold-29" d="M 513 -844 
Q 913 -100 1113 609 
Q 1313 1319 1313 2009 
Q 1313 2700 1113 3408 
Q 913 4116 513 4856 
L 1441 4856 
Q 1916 4091 2145 3389 
Q 2375 2688 2375 2003 
Q 2375 1319 2147 623 
Q 1919 -72 1441 -844 
L 513 -844 
z
" transform="scale(0.015625)"/>
     </defs>
     <use xlink:href="#DejaVuSans-Bold-70"/>
     <use xlink:href="#DejaVuSans-Bold-65" x="71.582031"/>
     <use xlink:href="#DejaVuSans-Bold-61" x="139.404297"/>
     <use xlink:href="#DejaVuSans-Bold-6b" x="206.884766"/>
     <use xlink:href="#DejaVuSans-Bold-20" x="273.388672"/>
     <use xlink:href="#DejaVuSans-Bold-28" x="308.203125"/>
     <use xlink:href="#DejaVuSans-Bold-31" x="353.90625"/>
     <use xlink:href="#DejaVuSans-Bold-30" x="423.486328"/>
     <use xlink:href="#DejaVuSans-Bold-2c" x="493.066406"/>
     <use xlink:href="#DejaVuSans-Bold-38" x="531.054688"/>
     <use xlink:href="#DejaVuSans-Bold-35" x="600.634766"/>
     <use xlink:href="#DejaVuSans-Bold-32" x="670.214844"/>
     <use xlink:href="#DejaVuSans-Bold-29" x="739.794922"/>
    </g>
   </g>
   <g id="text_21">
    <!-- mean (3,973) -->
    <g transform="translate(567.728153 169.106302) scale(0.1 -0.1)">
     <defs>
      <path id="DejaVuSans-Bold-6d" d="M 3781 2919 
Q 3994 3244 4286 3414 
Q 4578 3584 4928 3584 
Q 5531 3584 5847 3212 
Q 6163 2841 6163 2131 
L 6163 0 
L 5038 0 
L 5038 1825 
Q 5041 1866 5042 1909 
Q 5044 1953 5044 2034 
Q 5044 2406 4934 2573 
Q 4825 2741 4581 2741 
Q 4263 2741 4089 2478 
Q 3916 2216 3909 1719 
L 3909 0 
L 2784 0 
L 2784 1825 
Q 2784 2406 2684 2573 
Q 2584 2741 2328 2741 
Q 2006 2741 1831 2477 
Q 1656 2213 1656 1722 
L 1656 0 
L 531 0 
L 531 3500 
L 1656 3500 
L 1656 2988 
Q 1863 3284 2130 3434 
Q 2397 3584 2719 3584 
Q 3081 3584 3359 3409 
Q 3638 3234 3781 2919 
z
" transform="scale(0.015625)"/>
      <path id="DejaVuSans-Bold-6e" d="M 4056 2131 
L 4056 0 
L 2931 0 
L 2931 347 
L 2931 1631 
Q 2931 2084 2911 2256 
Q 2891 2428 2841 2509 
Q 2775 2619 2662 2680 
Q 2550 2741 2406 2741 
Q 2056 2741 1856 2470 
Q 1656 2200 1656 1722 
L 1656 0 
L 538 0 
L 538 3500 
L 1656 3500 
L 1656 2988 
Q 1909 3294 2193 3439 
Q 2478 3584 2822 3584 
Q 3428 3584 3742 3212 
Q 4056 2841 4056 2131 
z
" transform="scale(0.015625)"/>
      <path id="DejaVuSans-Bold-33" d="M 2981 2516 
Q 3453 2394 3698 2092 
Q 3944 1791 3944 1325 
Q 3944 631 3412 270 
Q 2881 -91 1863 -91 
Q 1503 -91 1142 -33 
Q 781 25 428 141 
L 428 1069 
Q 766 900 1098 814 
Q 1431 728 1753 728 
Q 2231 728 2486 893 
Q 2741 1059 2741 1369 
Q 2741 1688 2480 1852 
Q 2219 2016 1709 2016 
L 1228 2016 
L 1228 2791 
L 1734 2791 
Q 2188 2791 2409 2933 
Q 2631 3075 2631 3366 
Q 2631 3634 2415 3781 
Q 2200 3928 1806 3928 
Q 1516 3928 1219 3862 
Q 922 3797 628 3669 
L 628 4550 
Q 984 4650 1334 4700 
Q 1684 4750 2022 4750 
Q 2931 4750 3382 4451 
Q 3834 4153 3834 3553 
Q 3834 3144 3618 2883 
Q 3403 2622 2981 2516 
z
" transform="scale(0.015625)"/>
      <path id="DejaVuSans-Bold-39" d="M 641 103 
L 641 966 
Q 928 831 1190 764 
Q 1453 697 1709 697 
Q 2247 697 2547 995 
Q 2847 1294 2900 1881 
Q 2688 1725 2447 1647 
Q 2206 1569 1925 1569 
Q 1209 1569 770 1986 
Q 331 2403 331 3084 
Q 331 3838 820 4291 
Q 1309 4744 2131 4744 
Q 3044 4744 3544 4128 
Q 4044 3513 4044 2388 
Q 4044 1231 3459 570 
Q 2875 -91 1856 -91 
Q 1528 -91 1228 -42 
Q 928 6 641 103 
z
M 2125 2350 
Q 2441 2350 2600 2554 
Q 2759 2759 2759 3169 
Q 2759 3575 2600 3781 
Q 2441 3988 2125 3988 
Q 1809 3988 1650 3781 
Q 1491 3575 1491 3169 
Q 1491 2759 1650 2554 
Q 1809 2350 2125 2350 
z
" transform="scale(0.015625)"/>
      <path id="DejaVuSans-Bold-37" d="M 428 4666 
L 3944 4666 
L 3944 3988 
L 2125 0 
L 953 0 
L 2675 3781 
L 428 3781 
L 428 4666 
z
" transform="scale(0.015625)"/>
     </defs>
     <use xlink:href="#DejaVuSans-Bold-6d"/>
     <use xlink:href="#DejaVuSans-Bold-65" x="104.199219"/>
     <use xlink:href="#DejaVuSans-Bold-61" x="172.021484"/>
     <use xlink:href="#DejaVuSans-Bold-6e" x="239.501953"/>
     <use xlink:href="#DejaVuSans-Bold-20" x="310.693359"/>
     <use xlink:href="#DejaVuSans-Bold-28" x="345.507812"/>
     <use xlink:href="#DejaVuSans-Bold-33" x="391.210938"/>
     <use xlink:href="#DejaVuSans-Bold-2c" x="460.791016"/>
     <use xlink:href="#DejaVuSans-Bold-39" x="498.779297"/>
     <use xlink:href="#DejaVuSans-Bold-37" x="568.359375"/>
     <use xlink:href="#DejaVuSans-Bold-33" x="637.939453"/>
     <use xlink:href="#DejaVuSans-Bold-29" x="707.519531"/>
    </g>
   </g>
   <g id="text_22">
    <!-- Stream Bitrate over Time -->
    <g transform="translate(293.189062 28.56) scale(0.12 -0.12)">
     <defs>
      <path id="DejaVuSans-53" d="M 3425 4513 
L 3425 3897 
Q 3066 4069 2747 4153 
Q 2428 4238 2131 4238 
Q 1616 4238 1336 4038 
Q 1056 3838 1056 3469 
Q 1056 3159 1242 3001 
Q 1428 2844 1947 2747 
L 2328 2669 
Q 3034 2534 3370 2195 
Q 3706 1856 3706 1288 
Q 3706 609 3251 259 
Q 2797 -91 1919 -91 
Q 1588 -91 1214 -16 
Q 841 59 441 206 
L 441 856 
Q 825 641 1194 531 
Q 1563 422 1919 422 
Q 2459 422 2753 634 
Q 3047 847 3047 1241 
Q 3047 1584 2836 1778 
Q 2625 1972 2144 2069 
L 1759 2144 
Q 1053 2284 737 2584 
Q 422 2884 422 3419 
Q 422 4038 858 4394 
Q 1294 4750 2059 4750 
Q 2388 4750 2728 4690 
Q 3069 4631 3425 4513 
z
" transform="scale(0.015625)"/>
      <path id="DejaVuSans-6f" d="M 1959 3097 
Q 1497 3097 1228 2736 
Q 959 2375 959 1747 
Q 959 1119 1226 758 
Q 1494 397 1959 397 
Q 2419 397 2687 759 
Q 2956 1122 2956 1747 
Q 2956 2369 2687 2733 
Q 2419 3097 1959 3097 
z
M 1959 3584 
Q 2709 3584 3137 3096 
Q 3566 2609 3566 1747 
Q 3566 888 3137 398 
Q 2709 -91 1959 -91 
Q 1206 -91 779 398 
Q 353 888 353 1747 
Q 353 2609 779 3096 
Q 1206 3584 1959 3584 
z
" transform="scale(0.015625)"/>
      <path id="DejaVuSans-76" d="M 191 3500 
L 800 3500 
L 1894 563 
L 2988 3500 
L 3597 3500 
L 2284 0 
L 1503 0 
L 191 3500 
z
" transform="scale(0.015625)"/>
     </defs>
     <use xlink:href="#DejaVuSans-53"/>
     <use xlink:href="#DejaVuSans-74" x="63.476562"/>
     <use xlink:href="#DejaVuSans-72" x="102.685547"/>
     <use xlink:href="#DejaVuSans-65" x="141.548828"/>
     <use xlink:href="#DejaVuSans-61" x="203.072266"/>
     <use xlink:href="#DejaVuSans-6d" x="264.351562"/>
     <use xlink:href="#DejaVuSans-20" x="361.763672"/>
     <use xlink:href="#DejaVuSans-42" x="393.550781"/>
     <use xlink:href="#DejaVuSans-69" x="462.154297"/>
     <use xlink:href="#DejaVuSans-74" x="489.9375"/>
     <use xlink:href="#DejaVuSans-72" x="529.146484"/>
     <use xlink:href="#DejaVuSans-61" x="570.259766"/>
     <use xlink:href="#DejaVuSans-74" x="631.539062"/>
     <use xlink:href="#DejaVuSans-65" x="670.748047"/>
     <use xlink:href="#DejaVuSans-20" x="732.271484"/>
     <use xlink:href="#DejaVuSans-6f" x="764.058594"/>
     <use xlink:href="#DejaVuSans-76" x="825.240234"/>
     <use xlink:href="#DejaVuSans-65" x="884.419922"/>
     <use xlink:href="#DejaVuSans-72" x="945.943359"/>
     <use xlink:href="#DejaVuSans-20" x="987.056641"/>
     <use xlink:href="#DejaVuSans-54" x="1018.84375"/>
     <use xlink:href="#DejaVuSans-69" x="1076.802734"/>
     <use xlink:href="#DejaVuSans-6d" x="1104.585938"/>
     <use xlink:href="#DejaVuSans-65" x="1201.998047"/>
    </g>
   </g>
   <g id="legend_1">
    <g id="patch_7">
     <path d="M 602.139063 86.594375 
L 641 86.594375 
Q 643 86.594375 643 84.594375 
L 643 41.56 
Q 643 39.56 641 39.56 
L 602.139063 39.56 
Q 600.139063 39.56 600.139063 41.56 
L 600.139063 84.594375 
Q 600.139063 86.594375 602.139063 86.594375 
z
" style="fill: #ffffff; opacity: 0.8; stroke: #cccccc; stroke-linejoin: miter"/>
    </g>
    <g id="patch_8">
     <path d="M 604.139063 51.158438 
L 624.139063 51.158438 
L 624.139063 44.158438 
L 604.139063 44.158438 
z
" style="fill: #ff0000; stroke: #ff0000; stroke-width: 0.5; stroke-linejoin: miter"/>
    </g>
    <g id="text_23">
     <!-- I -->
     <g transform="translate(632.139063 51.158438) scale(0.1 -0.1)">
      <defs>
       <path id="DejaVuSans-49" d="M 628 4666 
L 1259 4666 
L 1259 0 
L 628 0 
L 628 4666 
z
" transform="scale(0.015625)"/>
      </defs>
      <use xlink:href="#DejaVuSans-49"/>
     </g>
    </g>
    <g id="patch_9">
     <path d="M 604.139063 65.836563 
L 624.139063 65.836563 
L 624.139063 58.836563 
L 604.139063 58.836563 
z
" style="fill: #0000ff; stroke: #0000ff; stroke-width: 0.5; stroke-linejoin: miter"/>
    </g>
    <g id="text_24">
     <!-- B -->
     <g transform="translate(632.139063 65.836563) scale(0.1 -0.1)">
      <use xlink:href="#DejaVuSans-42"/>
     </g>
    </g>
    <g id="patch_10">
     <path d="M 604.139063 80.514688 
L 624.139063 80.514688 
L 624.139063 73.514688 
L 604.139063 73.514688 
z
" style="fill: #008000; stroke: #008000; stroke-width: 0.5; stroke-linejoin: miter"/>
    </g>
    <g id="text_25">
     <!-- P -->
     <g transform="translate(632.139063 80.514688) scale(0.1 -0.1)">
      <defs>
       <path id="DejaVuSans-50" d="M 1259 4147 
L 1259 2394 
L 2053 2394 
Q 2494 2394 2734 2622 
Q 2975 2850 2975 3272 
Q 2975 3691 2734 3919 
Q 2494 4147 2053 4147 
L 1259 4147 
z
M 628 4666 
L 2053 4666 
Q 2838 4666 3239 4311 
Q 3641 3956 3641 3272 
Q 3641 2581 3239 2228 
Q 2838 1875 2053 1875 
L 1259 1875 
L 1259 0 
L 628 0 
L 628 4666 
z
" transform="scale(0.015625)"/>
      </defs>
      <use xlink:href="#DejaVuSans-50"/>
     </g>
    </g>
   </g>
  </g>
 </g>
 <defs>
  <clipPath id="p4d51f9cf91">
   <rect x="90" y="34.56" width="558" height="221.76"/>
  </clipPath>
 </defs>
</svg>
