<?xml version="1.0" encoding="utf-8" standalone="no"?>
<!DOCTYPE svg PUBLIC "-//W3C//DTD SVG 1.1//EN"
  "http://www.w3.org/Graphics/SVG/1.1/DTD/svg11.dtd">
<svg xmlns:xlink="http://www.w3.org/1999/xlink" width="720pt" height="288pt" viewBox="0 0 720 288" xmlns="http://www.w3.org/2000/svg" version="1.1">
 <metadata>
  <rdf:RDF xmlns:dc="http://purl.org/dc/elements/1.1/" xmlns:cc="http://creativecommons.org/ns#" xmlns:rdf="http://www.w3.org/1999/02/22-rdf-syntax-ns#">
   <cc:Work>
    <dc:type rdf:resource="http://purl.org/dc/dcmitype/StillImage"/>
    <dc:date>2023-05-07T02:15:02.529191</dc:date>
    <dc:format>image/svg+xml</dc:format>
    <dc:creator>
     <cc:Agent>
      <dc:title>Matplotlib v3.7.1, https://matplotlib.org/</dc:title>
     </cc:Agent>
    </dc:creator>
   </cc:Work>
  </rdf:RDF>
 </metadata>
 <defs>
  <style type="text/css">*{stroke-linejoin: round; stroke-linecap: butt}</style>
 </defs>
 <g id="figure_1">
  <g id="patch_1">
   <path d="M 0 288 
L 720 288 
L 720 0 
L 0 0 
z
" style="fill: #ffffff"/>
  </g>
  <g id="axes_1">
   <g id="patch_2">
    <path d="M 90 256.32 
L 648 256.32 
L 648 34.56 
L 90 34.56 
z
" style="fill: #ffffff"/>
   </g>
   <g id="matplotlib.axis_1">
    <g id="xtick_1">
     <g id="line2d_1">
      <defs>
       <path id="m7c41d0eace" d="M 0 0 
L 0 3.5 
" style="stroke: #000000; stroke-width: 0.8"/>
      </defs>
      <g>
       <use xlink:href="#m7c41d0eace" x="115.363636" y="256.32" style="stroke: #000000; stroke-width: 0.8"/>
      </g>
     </g>
     <g id="text_1">
      <!-- 0:00:00 -->
      <g transform="translate(96.088636 270.918437) scale(0.1 -0.1)">
       <defs>
        <path id="DejaVuSans-30" d="M 2034 4250 
Q 1547 4250 1301 3770 
Q 1056 3291 1056 2328 
Q 1056 1369 1301 889 
Q 1547 409 2034 409 
Q 2525 409 2770 889 
Q 3016 1369 3016 2328 
Q 3016 3291 2770 3770 
Q 2525 4250 2034 4250 
z
M 2034 4750 
Q 2819 4750 3233 4129 
Q 3647 3509 3647 2328 
Q 3647 1150 3233 529 
Q 2819 -91 2034 -91 
Q 1250 -91 836 529 
Q 422 1150 422 2328 
Q 422 3509 836 4129 
Q 1250 4750 2034 4750 
z
" transform="scale(0.015625)"/>
        <path id="DejaVuSans-3a" d="M 750 794 
L 1409 794 
L 1409 0 
L 750 0 
L 750 794 
z
M 750 3309 
L 1409 3309 
L 1409 2516 
L 750 2516 
L 750 3309 
z
" transform="scale(0.015625)"/>
       </defs>
       <use xlink:href="#DejaVuSans-30"/>
       <use xlink:href="#DejaVuSans-3a" x="63.623047"/>
       <use xlink:href="#DejaVuSans-30" x="97.314453"/>
       <use xlink:href="#DejaVuSans-30" x="160.9375"/>
       <use xlink:href="#DejaVuSans-3a" x="224.560547"/>
       <use xlink:href="#DejaVuSans-30" x="258.251953"/>
       <use xlink:href="#DejaVuSans-30" x="321.875"/>
      </g>
     </g>
    </g>
    <g id="xtick_2">
     <g id="line2d_2">
      <g>
       <use xlink:href="#m7c41d0eace" x="166.090909" y="256.32" style="stroke: #000000; stroke-width: 0.8"/>
      </g>
     </g>
     <g id="text_2">
      <!-- 0:00:30 -->
      <g transform="translate(146.815909 270.918437) scale(0.1 -0.1)">
       <defs>
        <path id="DejaVuSans-33" d="M 2597 2516 
Q 3050 2419 3304 2112 
Q 3559 1806 3559 1356 
Q 3559 666 3084 287 
Q 2609 -91 1734 -91 
Q 1441 -91 1130 -33 
Q 819 25 488 141 
L 488 750 
Q 750 597 1062 519 
Q 1375 441 1716 441 
Q 2309 441 2620 675 
Q 2931 909 2931 1356 
Q 2931 1769 2642 2001 
Q 2353 2234 1838 2234 
L 1294 2234 
L 1294 2753 
L 1863 2753 
Q 2328 2753 2575 2939 
Q 2822 3125 2822 3475 
Q 2822 3834 2567 4026 
Q 2313 4219 1838 4219 
Q 1578 4219 1281 4162 
Q 984 4106 628 3988 
L 628 4550 
Q 988 4650 1302 4700 
Q 1616 4750 1894 4750 
Q 2613 4750 3031 4423 
Q 3450 4097 3450 3541 
Q 3450 3153 3228 2886 
Q 3006 2619 2597 2516 
z
" transform="scale(0.015625)"/>
       </defs>
       <use xlink:href="#DejaVuSans-30"/>
       <use xlink:href="#DejaVuSans-3a" x="63.623047"/>
       <use xlink:href="#DejaVuSans-30" x="97.314453"/>
       <use xlink:href="#DejaVuSans-30" x="160.9375"/>
       <use xlink:href="#DejaVuSans-3a" x="224.560547"/>
       <use xlink:href="#DejaVuSans-33" x="258.251953"/>
       <use xlink:href="#DejaVuSans-30" x="321.875"/>
      </g>
     </g>
    </g>
    <g id="xtick_3">
     <g id="line2d_3">
      <g>
       <use xlink:href="#m7c41d0eace" x="216.818182" y="256.32" style="stroke: #000000; stroke-width: 0.8"/>
      </g>
     </g>
     <g id="text_3">
      <!-- 0:01:00 -->
      <g transform="translate(197.543182 270.918437) scale(0.1 -0.1)">
       <defs>
        <path id="DejaVuSans-31" d="M 794 531 
L 1825 531 
L 1825 4091 
L 703 3866 
L 703 4441 
L 1819 4666 
L 2450 4666 
L 2450 531 
L 3481 531 
L 3481 0 
L 794 0 
L 794 531 
z
" transform="scale(0.015625)"/>
       </defs>
       <use xlink:href="#DejaVuSans-30"/>
       <use xlink:href="#DejaVuSans-3a" x="63.623047"/>
       <use xlink:href="#DejaVuSans-30" x="97.314453"/>
       <use xlink:href="#DejaVuSans-31" x="160.9375"/>
       <use xlink:href="#DejaVuSans-3a" x="224.560547"/>
       <use xlink:href="#DejaVuSans-30" x="258.251953"/>
       <use xlink:href="#DejaVuSans-30" x="321.875"/>
      </g>
     </g>
    </g>
    <g id="xtick_4">
     <g id="line2d_4">
      <g>
       <use xlink:href="#m7c41d0eace" x="267.545455" y="256.32" style="stroke: #000000; stroke-width: 0.8"/>
      </g>
     </g>
     <g id="text_4">
      <!-- 0:01:30 -->
      <g transform="translate(248.270455 270.918437) scale(0.1 -0.1)">
       <use xlink:href="#DejaVuSans-30"/>
       <use xlink:href="#DejaVuSans-3a" x="63.623047"/>
       <use xlink:href="#DejaVuSans-30" x="97.314453"/>
       <use xlink:href="#DejaVuSans-31" x="160.9375"/>
       <use xlink:href="#DejaVuSans-3a" x="224.560547"/>
       <use xlink:href="#DejaVuSans-33" x="258.251953"/>
       <use xlink:href="#DejaVuSans-30" x="321.875"/>
      </g>
     </g>
    </g>
    <g id="xtick_5">
     <g id="line2d_5">
      <g>
       <use xlink:href="#m7c41d0eace" x="318.272727" y="256.32" style="stroke: #000000; stroke-width: 0.8"/>
      </g>
     </g>
     <g id="text_5">
      <!-- 0:02:00 -->
      <g transform="translate(298.997727 270.918437) scale(0.1 -0.1)">
       <defs>
        <path id="DejaVuSans-32" d="M 1228 531 
L 3431 531 
L 3431 0 
L 469 0 
L 469 531 
Q 828 903 1448 1529 
Q 2069 2156 2228 2338 
Q 2531 2678 2651 2914 
Q 2772 3150 2772 3378 
Q 2772 3750 2511 3984 
Q 2250 4219 1831 4219 
Q 1534 4219 1204 4116 
Q 875 4013 500 3803 
L 500 4441 
Q 881 4594 1212 4672 
Q 1544 4750 1819 4750 
Q 2544 4750 2975 4387 
Q 3406 4025 3406 3419 
Q 3406 3131 3298 2873 
Q 3191 2616 2906 2266 
Q 2828 2175 2409 1742 
Q 1991 1309 1228 531 
z
" transform="scale(0.015625)"/>
       </defs>
       <use xlink:href="#DejaVuSans-30"/>
       <use xlink:href="#DejaVuSans-3a" x="63.623047"/>
       <use xlink:href="#DejaVuSans-30" x="97.314453"/>
       <use xlink:href="#DejaVuSans-32" x="160.9375"/>
       <use xlink:href="#DejaVuSans-3a" x="224.560547"/>
       <use xlink:href="#DejaVuSans-30" x="258.251953"/>
       <use xlink:href="#DejaVuSans-30" x="321.875"/>
      </g>
     </g>
    </g>
    <g id="xtick_6">
     <g id="line2d_6">
      <g>
       <use xlink:href="#m7c41d0eace" x="369" y="256.32" style="stroke: #000000; stroke-width: 0.8"/>
      </g>
     </g>
     <g id="text_6">
      <!-- 0:02:30 -->
      <g transform="translate(349.725 270.918437) scale(0.1 -0.1)">
       <use xlink:href="#DejaVuSans-30"/>
       <use xlink:href="#DejaVuSans-3a" x="63.623047"/>
       <use xlink:href="#DejaVuSans-30" x="97.314453"/>
       <use xlink:href="#DejaVuSans-32" x="160.9375"/>
       <use xlink:href="#DejaVuSans-3a" x="224.560547"/>
       <use xlink:href="#DejaVuSans-33" x="258.251953"/>
       <use xlink:href="#DejaVuSans-30" x="321.875"/>
      </g>
     </g>
    </g>
    <g id="xtick_7">
     <g id="line2d_7">
      <g>
       <use xlink:href="#m7c41d0eace" x="419.727273" y="256.32" style="stroke: #000000; stroke-width: 0.8"/>
      </g>
     </g>
     <g id="text_7">
      <!-- 0:03:00 -->
      <g transform="translate(400.452273 270.918437) scale(0.1 -0.1)">
       <use xlink:href="#DejaVuSans-30"/>
       <use xlink:href="#DejaVuSans-3a" x="63.623047"/>
       <use xlink:href="#DejaVuSans-30" x="97.314453"/>
       <use xlink:href="#DejaVuSans-33" x="160.9375"/>
       <use xlink:href="#DejaVuSans-3a" x="224.560547"/>
       <use xlink:href="#DejaVuSans-30" x="258.251953"/>
       <use xlink:href="#DejaVuSans-30" x="321.875"/>
      </g>
     </g>
    </g>
    <g id="xtick_8">
     <g id="line2d_8">
      <g>
       <use xlink:href="#m7c41d0eace" x="470.454545" y="256.32" style="stroke: #000000; stroke-width: 0.8"/>
      </g>
     </g>
     <g id="text_8">
      <!-- 0:03:30 -->
      <g transform="translate(451.179545 270.918437) scale(0.1 -0.1)">
       <use xlink:href="#DejaVuSans-30"/>
       <use xlink:href="#DejaVuSans-3a" x="63.623047"/>
       <use xlink:href="#DejaVuSans-30" x="97.314453"/>
       <use xlink:href="#DejaVuSans-33" x="160.9375"/>
       <use xlink:href="#DejaVuSans-3a" x="224.560547"/>
       <use xlink:href="#DejaVuSans-33" x="258.251953"/>
       <use xlink:href="#DejaVuSans-30" x="321.875"/>
      </g>
     </g>
    </g>
    <g id="xtick_9">
     <g id="line2d_9">
      <g>
       <use xlink:href="#m7c41d0eace" x="521.181818" y="256.32" style="stroke: #000000; stroke-width: 0.8"/>
      </g>
     </g>
     <g id="text_9">
      <!-- 0:04:00 -->
      <g transform="translate(501.906818 270.918437) scale(0.1 -0.1)">
       <defs>
        <path id="DejaVuSans-34" d="M 2419 4116 
L 825 1625 
L 2419 1625 
L 2419 4116 
z
M 2253 4666 
L 3047 4666 
L 3047 1625 
L 3713 1625 
L 3713 1100 
L 3047 1100 
L 3047 0 
L 2419 0 
L 2419 1100 
L 313 1100 
L 313 1709 
L 2253 4666 
z
" transform="scale(0.015625)"/>
       </defs>
       <use xlink:href="#DejaVuSans-30"/>
       <use xlink:href="#DejaVuSans-3a" x="63.623047"/>
       <use xlink:href="#DejaVuSans-30" x="97.314453"/>
       <use xlink:href="#DejaVuSans-34" x="160.9375"/>
       <use xlink:href="#DejaVuSans-3a" x="224.560547"/>
       <use xlink:href="#DejaVuSans-30" x="258.251953"/>
       <use xlink:href="#DejaVuSans-30" x="321.875"/>
      </g>
     </g>
    </g>
    <g id="xtick_10">
     <g id="line2d_10">
      <g>
       <use xlink:href="#m7c41d0eace" x="571.909091" y="256.32" style="stroke: #000000; stroke-width: 0.8"/>
      </g>
     </g>
     <g id="text_10">
      <!-- 0:04:30 -->
      <g transform="translate(552.634091 270.918437) scale(0.1 -0.1)">
       <use xlink:href="#DejaVuSans-30"/>
       <use xlink:href="#DejaVuSans-3a" x="63.623047"/>
       <use xlink:href="#DejaVuSans-30" x="97.314453"/>
       <use xlink:href="#DejaVuSans-34" x="160.9375"/>
       <use xlink:href="#DejaVuSans-3a" x="224.560547"/>
       <use xlink:href="#DejaVuSans-33" x="258.251953"/>
       <use xlink:href="#DejaVuSans-30" x="321.875"/>
      </g>
     </g>
    </g>
    <g id="xtick_11">
     <g id="line2d_11">
      <g>
       <use xlink:href="#m7c41d0eace" x="622.636364" y="256.32" style="stroke: #000000; stroke-width: 0.8"/>
      </g>
     </g>
     <g id="text_11">
      <!-- 0:05:00 -->
      <g transform="translate(603.361364 270.918437) scale(0.1 -0.1)">
       <defs>
        <path id="DejaVuSans-35" d="M 691 4666 
L 3169 4666 
L 3169 4134 
L 1269 4134 
L 1269 2991 
Q 1406 3038 1543 3061 
Q 1681 3084 1819 3084 
Q 2600 3084 3056 2656 
Q 3513 2228 3513 1497 
Q 3513 744 3044 326 
Q 2575 -91 1722 -91 
Q 1428 -91 1123 -41 
Q 819 9 494 109 
L 494 744 
Q 775 591 1075 516 
Q 1375 441 1709 441 
Q 2250 441 2565 725 
Q 2881 1009 2881 1497 
Q 2881 1984 2565 2268 
Q 2250 2553 1709 2553 
Q 1456 2553 1204 2497 
Q 953 2441 691 2322 
L 691 4666 
z
" transform="scale(0.015625)"/>
       </defs>
       <use xlink:href="#DejaVuSans-30"/>
       <use xlink:href="#DejaVuSans-3a" x="63.623047"/>
       <use xlink:href="#DejaVuSans-30" x="97.314453"/>
       <use xlink:href="#DejaVuSans-35" x="160.9375"/>
       <use xlink:href="#DejaVuSans-3a" x="224.560547"/>
       <use xlink:href="#DejaVuSans-30" x="258.251953"/>
       <use xlink:href="#DejaVuSans-30" x="321.875"/>
      </g>
     </g>
    </g>
    <g id="text_12">
     <!-- Time -->
     <g transform="translate(356.766406 284.596563) scale(0.1 -0.1)">
      <defs>
       <path id="DejaVuSans-54" d="M -19 4666 
L 3928 4666 
L 3928 4134 
L 2272 4134 
L 2272 0 
L 1638 0 
L 1638 4134 
L -19 4134 
L -19 4666 
z
" transform="scale(0.015625)"/>
       <path id="DejaVuSans-69" d="M 603 3500 
L 1178 3500 
L 1178 0 
L 603 0 
L 603 3500 
z
M 603 4863 
L 1178 4863 
L 1178 4134 
L 603 4134 
L 603 4863 
z
" transform="scale(0.015625)"/>
       <path id="DejaVuSans-6d" d="M 3328 2828 
Q 3544 3216 3844 3400 
Q 4144 3584 4550 3584 
Q 5097 3584 5394 3201 
Q 5691 2819 5691 2113 
L 5691 0 
L 5113 0 
L 5113 2094 
Q 5113 2597 4934 2840 
Q 4756 3084 4391 3084 
Q 3944 3084 3684 2787 
Q 3425 2491 3425 1978 
L 3425 0 
L 2847 0 
L 2847 2094 
Q 2847 2600 2669 2842 
Q 2491 3084 2119 3084 
Q 1678 3084 1418 2786 
Q 1159 2488 1159 1978 
L 1159 0 
L 581 0 
L 581 3500 
L 1159 3500 
L 1159 2956 
Q 1356 3278 1631 3431 
Q 1906 3584 2284 3584 
Q 2666 3584 2933 3390 
Q 3200 3197 3328 2828 
z
" transform="scale(0.015625)"/>
       <path id="DejaVuSans-65" d="M 3597 1894 
L 3597 1613 
L 953 1613 
Q 991 1019 1311 708 
Q 1631 397 2203 397 
Q 2534 397 2845 478 
Q 3156 559 3463 722 
L 3463 178 
Q 3153 47 2828 -22 
Q 2503 -91 2169 -91 
Q 1331 -91 842 396 
Q 353 884 353 1716 
Q 353 2575 817 3079 
Q 1281 3584 2069 3584 
Q 2775 3584 3186 3129 
Q 3597 2675 3597 1894 
z
M 3022 2063 
Q 3016 2534 2758 2815 
Q 2500 3097 2075 3097 
Q 1594 3097 1305 2825 
Q 1016 2553 972 2059 
L 3022 2063 
z
" transform="scale(0.015625)"/>
      </defs>
      <use xlink:href="#DejaVuSans-54"/>
      <use xlink:href="#DejaVuSans-69" x="57.958984"/>
      <use xlink:href="#DejaVuSans-6d" x="85.742188"/>
      <use xlink:href="#DejaVuSans-65" x="183.154297"/>
     </g>
    </g>
   </g>
   <g id="matplotlib.axis_2">
    <g id="ytick_1">
     <g id="line2d_12">
      <path d="M 90 246.24 
L 648 246.24 
" clip-path="url(#p2c28068c62)" style="fill: none; stroke: #b0b0b0; stroke-width: 0.8; stroke-linecap: square"/>
     </g>
     <g id="line2d_13">
      <defs>
       <path id="m1299cfc193" d="M 0 0 
L -3.5 0 
" style="stroke: #000000; stroke-width: 0.8"/>
      </defs>
      <g>
       <use xlink:href="#m1299cfc193" x="90" y="246.24" style="stroke: #000000; stroke-width: 0.8"/>
      </g>
     </g>
     <g id="text_13">
      <!-- 0 -->
      <g transform="translate(76.6375 250.039219) scale(0.1 -0.1)">
       <use xlink:href="#DejaVuSans-30"/>
      </g>
     </g>
    </g>
    <g id="ytick_2">
     <g id="line2d_14">
      <path d="M 90 218.945118 
L 648 218.945118 
" clip-path="url(#p2c28068c62)" style="fill: none; stroke: #b0b0b0; stroke-width: 0.8; stroke-linecap: square"/>
     </g>
     <g id="line2d_15">
      <g>
       <use xlink:href="#m1299cfc193" x="90" y="218.945118" style="stroke: #000000; stroke-width: 0.8"/>
      </g>
     </g>
     <g id="text_14">
      <!-- 1,000 -->
      <g transform="translate(54.371875 222.744337) scale(0.1 -0.1)">
       <defs>
        <path id="DejaVuSans-2c" d="M 750 794 
L 1409 794 
L 1409 256 
L 897 -744 
L 494 -744 
L 750 256 
L 750 794 
z
" transform="scale(0.015625)"/>
       </defs>
       <use xlink:href="#DejaVuSans-31"/>
       <use xlink:href="#DejaVuSans-2c" x="63.623047"/>
       <use xlink:href="#DejaVuSans-30" x="95.410156"/>
       <use xlink:href="#DejaVuSans-30" x="159.033203"/>
       <use xlink:href="#DejaVuSans-30" x="222.65625"/>
      </g>
     </g>
    </g>
    <g id="ytick_3">
     <g id="line2d_16">
      <path d="M 90 191.650236 
L 648 191.650236 
" clip-path="url(#p2c28068c62)" style="fill: none; stroke: #b0b0b0; stroke-width: 0.8; stroke-linecap: square"/>
     </g>
     <g id="line2d_17">
      <g>
       <use xlink:href="#m1299cfc193" x="90" y="191.650236" style="stroke: #000000; stroke-width: 0.8"/>
      </g>
     </g>
     <g id="text_15">
      <!-- 2,000 -->
      <g transform="translate(54.371875 195.449454) scale(0.1 -0.1)">
       <use xlink:href="#DejaVuSans-32"/>
       <use xlink:href="#DejaVuSans-2c" x="63.623047"/>
       <use xlink:href="#DejaVuSans-30" x="95.410156"/>
       <use xlink:href="#DejaVuSans-30" x="159.033203"/>
       <use xlink:href="#DejaVuSans-30" x="222.65625"/>
      </g>
     </g>
    </g>
    <g id="ytick_4">
     <g id="line2d_18">
      <path d="M 90 164.355353 
L 648 164.355353 
" clip-path="url(#p2c28068c62)" style="fill: none; stroke: #b0b0b0; stroke-width: 0.8; stroke-linecap: square"/>
     </g>
     <g id="line2d_19">
      <g>
       <use xlink:href="#m1299cfc193" x="90" y="164.355353" style="stroke: #000000; stroke-width: 0.8"/>
      </g>
     </g>
     <g id="text_16">
      <!-- 3,000 -->
      <g transform="translate(54.371875 168.154572) scale(0.1 -0.1)">
       <use xlink:href="#DejaVuSans-33"/>
       <use xlink:href="#DejaVuSans-2c" x="63.623047"/>
       <use xlink:href="#DejaVuSans-30" x="95.410156"/>
       <use xlink:href="#DejaVuSans-30" x="159.033203"/>
       <use xlink:href="#DejaVuSans-30" x="222.65625"/>
      </g>
     </g>
    </g>
    <g id="ytick_5">
     <g id="line2d_20">
      <path d="M 90 137.060471 
L 648 137.060471 
" clip-path="url(#p2c28068c62)" style="fill: none; stroke: #b0b0b0; stroke-width: 0.8; stroke-linecap: square"/>
     </g>
     <g id="line2d_21">
      <g>
       <use xlink:href="#m1299cfc193" x="90" y="137.060471" style="stroke: #000000; stroke-width: 0.8"/>
      </g>
     </g>
     <g id="text_17">
      <!-- 4,000 -->
      <g transform="translate(54.371875 140.85969) scale(0.1 -0.1)">
       <use xlink:href="#DejaVuSans-34"/>
       <use xlink:href="#DejaVuSans-2c" x="63.623047"/>
       <use xlink:href="#DejaVuSans-30" x="95.410156"/>
       <use xlink:href="#DejaVuSans-30" x="159.033203"/>
       <use xlink:href="#DejaVuSans-30" x="222.65625"/>
      </g>
     </g>
    </g>
    <g id="ytick_6">
     <g id="line2d_22">
      <path d="M 90 109.765589 
L 648 109.765589 
" clip-path="url(#p2c28068c62)" style="fill: none; stroke: #b0b0b0; stroke-width: 0.8; stroke-linecap: square"/>
     </g>
     <g id="line2d_23">
      <g>
       <use xlink:href="#m1299cfc193" x="90" y="109.765589" style="stroke: #000000; stroke-width: 0.8"/>
      </g>
     </g>
     <g id="text_18">
      <!-- 5,000 -->
      <g transform="translate(54.371875 113.564808) scale(0.1 -0.1)">
       <use xlink:href="#DejaVuSans-35"/>
       <use xlink:href="#DejaVuSans-2c" x="63.623047"/>
       <use xlink:href="#DejaVuSans-30" x="95.410156"/>
       <use xlink:href="#DejaVuSans-30" x="159.033203"/>
       <use xlink:href="#DejaVuSans-30" x="222.65625"/>
      </g>
     </g>
    </g>
    <g id="ytick_7">
     <g id="line2d_24">
      <path d="M 90 82.470707 
L 648 82.470707 
" clip-path="url(#p2c28068c62)" style="fill: none; stroke: #b0b0b0; stroke-width: 0.8; stroke-linecap: square"/>
     </g>
     <g id="line2d_25">
      <g>
       <use xlink:href="#m1299cfc193" x="90" y="82.470707" style="stroke: #000000; stroke-width: 0.8"/>
      </g>
     </g>
     <g id="text_19">
      <!-- 6,000 -->
      <g transform="translate(54.371875 86.269925) scale(0.1 -0.1)">
       <defs>
        <path id="DejaVuSans-36" d="M 2113 2584 
Q 1688 2584 1439 2293 
Q 1191 2003 1191 1497 
Q 1191 994 1439 701 
Q 1688 409 2113 409 
Q 2538 409 2786 701 
Q 3034 994 3034 1497 
Q 3034 2003 2786 2293 
Q 2538 2584 2113 2584 
z
M 3366 4563 
L 3366 3988 
Q 3128 4100 2886 4159 
Q 2644 4219 2406 4219 
Q 1781 4219 1451 3797 
Q 1122 3375 1075 2522 
Q 1259 2794 1537 2939 
Q 1816 3084 2150 3084 
Q 2853 3084 3261 2657 
Q 3669 2231 3669 1497 
Q 3669 778 3244 343 
Q 2819 -91 2113 -91 
Q 1303 -91 875 529 
Q 447 1150 447 2328 
Q 447 3434 972 4092 
Q 1497 4750 2381 4750 
Q 2619 4750 2861 4703 
Q 3103 4656 3366 4563 
z
" transform="scale(0.015625)"/>
       </defs>
       <use xlink:href="#DejaVuSans-36"/>
       <use xlink:href="#DejaVuSans-2c" x="63.623047"/>
       <use xlink:href="#DejaVuSans-30" x="95.410156"/>
       <use xlink:href="#DejaVuSans-30" x="159.033203"/>
       <use xlink:href="#DejaVuSans-30" x="222.65625"/>
      </g>
     </g>
    </g>
    <g id="ytick_8">
     <g id="line2d_26">
      <path d="M 90 55.175825 
L 648 55.175825 
" clip-path="url(#p2c28068c62)" style="fill: none; stroke: #b0b0b0; stroke-width: 0.8; stroke-linecap: square"/>
     </g>
     <g id="line2d_27">
      <g>
       <use xlink:href="#m1299cfc193" x="90" y="55.175825" style="stroke: #000000; stroke-width: 0.8"/>
      </g>
     </g>
     <g id="text_20">
      <!-- 7,000 -->
      <g transform="translate(54.371875 58.975043) scale(0.1 -0.1)">
       <defs>
        <path id="DejaVuSans-37" d="M 525 4666 
L 3525 4666 
L 3525 4397 
L 1831 0 
L 1172 0 
L 2766 4134 
L 525 4134 
L 525 4666 
z
" transform="scale(0.015625)"/>
       </defs>
       <use xlink:href="#DejaVuSans-37"/>
       <use xlink:href="#DejaVuSans-2c" x="63.623047"/>
       <use xlink:href="#DejaVuSans-30" x="95.410156"/>
       <use xlink:href="#DejaVuSans-30" x="159.033203"/>
       <use xlink:href="#DejaVuSans-30" x="222.65625"/>
      </g>
     </g>
    </g>
    <g id="text_21">
     <!-- Bitrate (kbit/s) -->
     <g transform="translate(48.292187 181.574375) rotate(-90) scale(0.1 -0.1)">
      <defs>
       <path id="DejaVuSans-42" d="M 1259 2228 
L 1259 519 
L 2272 519 
Q 2781 519 3026 730 
Q 3272 941 3272 1375 
Q 3272 1813 3026 2020 
Q 2781 2228 2272 2228 
L 1259 2228 
z
M 1259 4147 
L 1259 2741 
L 2194 2741 
Q 2656 2741 2882 2914 
Q 3109 3088 3109 3444 
Q 3109 3797 2882 3972 
Q 2656 4147 2194 4147 
L 1259 4147 
z
M 628 4666 
L 2241 4666 
Q 2963 4666 3353 4366 
Q 3744 4066 3744 3513 
Q 3744 3084 3544 2831 
Q 3344 2578 2956 2516 
Q 3422 2416 3680 2098 
Q 3938 1781 3938 1306 
Q 3938 681 3513 340 
Q 3088 0 2303 0 
L 628 0 
L 628 4666 
z
" transform="scale(0.015625)"/>
       <path id="DejaVuSans-74" d="M 1172 4494 
L 1172 3500 
L 2356 3500 
L 2356 3053 
L 1172 3053 
L 1172 1153 
Q 1172 725 1289 603 
Q 1406 481 1766 481 
L 2356 481 
L 2356 0 
L 1766 0 
Q 1100 0 847 248 
Q 594 497 594 1153 
L 594 3053 
L 172 3053 
L 172 3500 
L 594 3500 
L 594 4494 
L 1172 4494 
z
" transform="scale(0.015625)"/>
       <path id="DejaVuSans-72" d="M 2631 2963 
Q 2534 3019 2420 3045 
Q 2306 3072 2169 3072 
Q 1681 3072 1420 2755 
Q 1159 2438 1159 1844 
L 1159 0 
L 581 0 
L 581 3500 
L 1159 3500 
L 1159 2956 
Q 1341 3275 1631 3429 
Q 1922 3584 2338 3584 
Q 2397 3584 2469 3576 
Q 2541 3569 2628 3553 
L 2631 2963 
z
" transform="scale(0.015625)"/>
       <path id="DejaVuSans-61" d="M 2194 1759 
Q 1497 1759 1228 1600 
Q 959 1441 959 1056 
Q 959 750 1161 570 
Q 1363 391 1709 391 
Q 2188 391 2477 730 
Q 2766 1069 2766 1631 
L 2766 1759 
L 2194 1759 
z
M 3341 1997 
L 3341 0 
L 2766 0 
L 2766 531 
Q 2569 213 2275 61 
Q 1981 -91 1556 -91 
Q 1019 -91 701 211 
Q 384 513 384 1019 
Q 384 1609 779 1909 
Q 1175 2209 1959 2209 
L 2766 2209 
L 2766 2266 
Q 2766 2663 2505 2880 
Q 2244 3097 1772 3097 
Q 1472 3097 1187 3025 
Q 903 2953 641 2809 
L 641 3341 
Q 956 3463 1253 3523 
Q 1550 3584 1831 3584 
Q 2591 3584 2966 3190 
Q 3341 2797 3341 1997 
z
" transform="scale(0.015625)"/>
       <path id="DejaVuSans-20" transform="scale(0.015625)"/>
       <path id="DejaVuSans-28" d="M 1984 4856 
Q 1566 4138 1362 3434 
Q 1159 2731 1159 2009 
Q 1159 1288 1364 580 
Q 1569 -128 1984 -844 
L 1484 -844 
Q 1016 -109 783 600 
Q 550 1309 550 2009 
Q 550 2706 781 3412 
Q 1013 4119 1484 4856 
L 1984 4856 
z
" transform="scale(0.015625)"/>
       <path id="DejaVuSans-6b" d="M 581 4863 
L 1159 4863 
L 1159 1991 
L 2875 3500 
L 3609 3500 
L 1753 1863 
L 3688 0 
L 2938 0 
L 1159 1709 
L 1159 0 
L 581 0 
L 581 4863 
z
" transform="scale(0.015625)"/>
       <path id="DejaVuSans-62" d="M 3116 1747 
Q 3116 2381 2855 2742 
Q 2594 3103 2138 3103 
Q 1681 3103 1420 2742 
Q 1159 2381 1159 1747 
Q 1159 1113 1420 752 
Q 1681 391 2138 391 
Q 2594 391 2855 752 
Q 3116 1113 3116 1747 
z
M 1159 2969 
Q 1341 3281 1617 3432 
Q 1894 3584 2278 3584 
Q 2916 3584 3314 3078 
Q 3713 2572 3713 1747 
Q 3713 922 3314 415 
Q 2916 -91 2278 -91 
Q 1894 -91 1617 61 
Q 1341 213 1159 525 
L 1159 0 
L 581 0 
L 581 4863 
L 1159 4863 
L 1159 2969 
z
" transform="scale(0.015625)"/>
       <path id="DejaVuSans-2f" d="M 1625 4666 
L 2156 4666 
L 531 -594 
L 0 -594 
L 1625 4666 
z
" transform="scale(0.015625)"/>
       <path id="DejaVuSans-73" d="M 2834 3397 
L 2834 2853 
Q 2591 2978 2328 3040 
Q 2066 3103 1784 3103 
Q 1356 3103 1142 2972 
Q 928 2841 928 2578 
Q 928 2378 1081 2264 
Q 1234 2150 1697 2047 
L 1894 2003 
Q 2506 1872 2764 1633 
Q 3022 1394 3022 966 
Q 3022 478 2636 193 
Q 2250 -91 1575 -91 
Q 1294 -91 989 -36 
Q 684 19 347 128 
L 347 722 
Q 666 556 975 473 
Q 1284 391 1588 391 
Q 1994 391 2212 530 
Q 2431 669 2431 922 
Q 2431 1156 2273 1281 
Q 2116 1406 1581 1522 
L 1381 1569 
Q 847 1681 609 1914 
Q 372 2147 372 2553 
Q 372 3047 722 3315 
Q 1072 3584 1716 3584 
Q 2034 3584 2315 3537 
Q 2597 3491 2834 3397 
z
" transform="scale(0.015625)"/>
       <path id="DejaVuSans-29" d="M 513 4856 
L 1013 4856 
Q 1481 4119 1714 3412 
Q 1947 2706 1947 2009 
Q 1947 1309 1714 600 
Q 1481 -109 1013 -844 
L 513 -844 
Q 928 -128 1133 580 
Q 1338 1288 1338 2009 
Q 1338 2731 1133 3434 
Q 928 4138 513 4856 
z
" transform="scale(0.015625)"/>
      </defs>
      <use xlink:href="#DejaVuSans-42"/>
      <use xlink:href="#DejaVuSans-69" x="68.603516"/>
      <use xlink:href="#DejaVuSans-74" x="96.386719"/>
      <use xlink:href="#DejaVuSans-72" x="135.595703"/>
      <use xlink:href="#DejaVuSans-61" x="176.708984"/>
      <use xlink:href="#DejaVuSans-74" x="237.988281"/>
      <use xlink:href="#DejaVuSans-65" x="277.197266"/>
      <use xlink:href="#DejaVuSans-20" x="338.720703"/>
      <use xlink:href="#DejaVuSans-28" x="370.507812"/>
      <use xlink:href="#DejaVuSans-6b" x="409.521484"/>
      <use xlink:href="#DejaVuSans-62" x="467.431641"/>
      <use xlink:href="#DejaVuSans-69" x="530.908203"/>
      <use xlink:href="#DejaVuSans-74" x="558.691406"/>
      <use xlink:href="#DejaVuSans-2f" x="597.900391"/>
      <use xlink:href="#DejaVuSans-73" x="631.591797"/>
      <use xlink:href="#DejaVuSans-29" x="683.691406"/>
     </g>
    </g>
   </g>
   <g id="PolyCollection_1">
    <defs>
     <path id="m95aeb9b99d" d="M 115.363636 -43.99818 
L 115.363636 -41.76 
L 117.054545 -41.76 
L 118.745455 -41.76 
L 120.436364 -41.76 
L 122.127273 -41.76 
L 123.818182 -41.76 
L 125.509091 -41.76 
L 127.2 -41.76 
L 128.890909 -41.76 
L 130.581818 -41.76 
L 132.272727 -41.76 
L 133.963636 -41.76 
L 135.654545 -41.76 
L 137.345455 -41.76 
L 139.036364 -41.76 
L 140.727273 -41.76 
L 142.418182 -41.76 
L 144.109091 -41.76 
L 145.8 -41.76 
L 147.490909 -41.76 
L 149.181818 -41.76 
L 150.872727 -41.76 
L 152.563636 -41.76 
L 154.254545 -41.76 
L 155.945455 -41.76 
L 157.636364 -41.76 
L 159.327273 -41.76 
L 161.018182 -41.76 
L 162.709091 -41.76 
L 164.4 -41.76 
L 166.090909 -41.76 
L 167.781818 -41.76 
L 169.472727 -41.76 
L 171.163636 -41.76 
L 172.854545 -41.76 
L 174.545455 -41.76 
L 176.236364 -41.76 
L 177.927273 -41.76 
L 179.618182 -41.76 
L 181.309091 -41.76 
L 183 -41.76 
L 184.690909 -41.76 
L 186.381818 -41.76 
L 188.072727 -41.76 
L 189.763636 -41.76 
L 191.454545 -41.76 
L 193.145455 -41.76 
L 194.836364 -41.76 
L 196.527273 -41.76 
L 198.218182 -41.76 
L 199.909091 -41.76 
L 201.6 -41.76 
L 203.290909 -41.76 
L 204.981818 -41.76 
L 206.672727 -41.76 
L 208.363636 -41.76 
L 210.054545 -41.76 
L 211.745455 -41.76 
L 213.436364 -41.76 
L 215.127273 -41.76 
L 216.818182 -41.76 
L 218.509091 -41.76 
L 220.2 -41.76 
L 221.890909 -41.76 
L 223.581818 -41.76 
L 225.272727 -41.76 
L 226.963636 -41.76 
L 228.654545 -41.76 
L 230.345455 -41.76 
L 232.036364 -41.76 
L 233.727273 -41.76 
L 235.418182 -41.76 
L 237.109091 -41.76 
L 238.8 -41.76 
L 240.490909 -41.76 
L 242.181818 -41.76 
L 243.872727 -41.76 
L 245.563636 -41.76 
L 247.254545 -41.76 
L 248.945455 -41.76 
L 250.636364 -41.76 
L 252.327273 -41.76 
L 254.018182 -41.76 
L 255.709091 -41.76 
L 257.4 -41.76 
L 259.090909 -41.76 
L 260.781818 -41.76 
L 262.472727 -41.76 
L 264.163636 -41.76 
L 265.854545 -41.76 
L 267.545455 -41.76 
L 269.236364 -41.76 
L 270.927273 -41.76 
L 272.618182 -41.76 
L 274.309091 -41.76 
L 276 -41.76 
L 277.690909 -41.76 
L 279.381818 -41.76 
L 281.072727 -41.76 
L 282.763636 -41.76 
L 284.454545 -41.76 
L 286.145455 -41.76 
L 287.836364 -41.76 
L 289.527273 -41.76 
L 291.218182 -41.76 
L 292.909091 -41.76 
L 294.6 -41.76 
L 296.290909 -41.76 
L 297.981818 -41.76 
L 299.672727 -41.76 
L 301.363636 -41.76 
L 303.054545 -41.76 
L 304.745455 -41.76 
L 306.436364 -41.76 
L 308.127273 -41.76 
L 309.818182 -41.76 
L 311.509091 -41.76 
L 313.2 -41.76 
L 314.890909 -41.76 
L 316.581818 -41.76 
L 318.272727 -41.76 
L 319.963636 -41.76 
L 321.654545 -41.76 
L 323.345455 -41.76 
L 325.036364 -41.76 
L 326.727273 -41.76 
L 328.418182 -41.76 
L 330.109091 -41.76 
L 331.8 -41.76 
L 333.490909 -41.76 
L 335.181818 -41.76 
L 336.872727 -41.76 
L 338.563636 -41.76 
L 340.254545 -41.76 
L 341.945455 -41.76 
L 343.636364 -41.76 
L 345.327273 -41.76 
L 347.018182 -41.76 
L 348.709091 -41.76 
L 350.4 -41.76 
L 352.090909 -41.76 
L 353.781818 -41.76 
L 355.472727 -41.76 
L 357.163636 -41.76 
L 358.854545 -41.76 
L 360.545455 -41.76 
L 362.236364 -41.76 
L 363.927273 -41.76 
L 365.618182 -41.76 
L 367.309091 -41.76 
L 369 -41.76 
L 370.690909 -41.76 
L 372.381818 -41.76 
L 374.072727 -41.76 
L 375.763636 -41.76 
L 377.454545 -41.76 
L 379.145455 -41.76 
L 380.836364 -41.76 
L 382.527273 -41.76 
L 384.218182 -41.76 
L 385.909091 -41.76 
L 387.6 -41.76 
L 389.290909 -41.76 
L 390.981818 -41.76 
L 392.672727 -41.76 
L 394.363636 -41.76 
L 396.054545 -41.76 
L 397.745455 -41.76 
L 399.436364 -41.76 
L 401.127273 -41.76 
L 402.818182 -41.76 
L 404.509091 -41.76 
L 406.2 -41.76 
L 407.890909 -41.76 
L 409.581818 -41.76 
L 411.272727 -41.76 
L 412.963636 -41.76 
L 414.654545 -41.76 
L 416.345455 -41.76 
L 418.036364 -41.76 
L 419.727273 -41.76 
L 421.418182 -41.76 
L 423.109091 -41.76 
L 424.8 -41.76 
L 426.490909 -41.76 
L 428.181818 -41.76 
L 429.872727 -41.76 
L 431.563636 -41.76 
L 433.254545 -41.76 
L 434.945455 -41.76 
L 436.636364 -41.76 
L 438.327273 -41.76 
L 440.018182 -41.76 
L 441.709091 -41.76 
L 443.4 -41.76 
L 445.090909 -41.76 
L 446.781818 -41.76 
L 448.472727 -41.76 
L 450.163636 -41.76 
L 451.854545 -41.76 
L 453.545455 -41.76 
L 455.236364 -41.76 
L 456.927273 -41.76 
L 458.618182 -41.76 
L 460.309091 -41.76 
L 462 -41.76 
L 463.690909 -41.76 
L 465.381818 -41.76 
L 467.072727 -41.76 
L 468.763636 -41.76 
L 470.454545 -41.76 
L 472.145455 -41.76 
L 473.836364 -41.76 
L 475.527273 -41.76 
L 477.218182 -41.76 
L 478.909091 -41.76 
L 480.6 -41.76 
L 482.290909 -41.76 
L 483.981818 -41.76 
L 485.672727 -41.76 
L 487.363636 -41.76 
L 489.054545 -41.76 
L 490.745455 -41.76 
L 492.436364 -41.76 
L 494.127273 -41.76 
L 495.818182 -41.76 
L 497.509091 -41.76 
L 499.2 -41.76 
L 500.890909 -41.76 
L 502.581818 -41.76 
L 504.272727 -41.76 
L 505.963636 -41.76 
L 507.654545 -41.76 
L 509.345455 -41.76 
L 511.036364 -41.76 
L 512.727273 -41.76 
L 514.418182 -41.76 
L 516.109091 -41.76 
L 517.8 -41.76 
L 519.490909 -41.76 
L 521.181818 -41.76 
L 522.872727 -41.76 
L 524.563636 -41.76 
L 526.254545 -41.76 
L 527.945455 -41.76 
L 529.636364 -41.76 
L 531.327273 -41.76 
L 533.018182 -41.76 
L 534.709091 -41.76 
L 536.4 -41.76 
L 538.090909 -41.76 
L 539.781818 -41.76 
L 541.472727 -41.76 
L 543.163636 -41.76 
L 544.854545 -41.76 
L 546.545455 -41.76 
L 548.236364 -41.76 
L 549.927273 -41.76 
L 551.618182 -41.76 
L 553.309091 -41.76 
L 555 -41.76 
L 556.690909 -41.76 
L 558.381818 -41.76 
L 560.072727 -41.76 
L 561.763636 -41.76 
L 563.454545 -41.76 
L 565.145455 -41.76 
L 566.836364 -41.76 
L 568.527273 -41.76 
L 570.218182 -41.76 
L 571.909091 -41.76 
L 573.6 -41.76 
L 575.290909 -41.76 
L 576.981818 -41.76 
L 578.672727 -41.76 
L 580.363636 -41.76 
L 582.054545 -41.76 
L 583.745455 -41.76 
L 585.436364 -41.76 
L 587.127273 -41.76 
L 588.818182 -41.76 
L 590.509091 -41.76 
L 592.2 -41.76 
L 593.890909 -41.76 
L 595.581818 -41.76 
L 597.272727 -41.76 
L 598.963636 -41.76 
L 600.654545 -41.76 
L 602.345455 -41.76 
L 604.036364 -41.76 
L 605.727273 -41.76 
L 607.418182 -41.76 
L 609.109091 -41.76 
L 610.8 -41.76 
L 612.490909 -41.76 
L 614.181818 -41.76 
L 615.872727 -41.76 
L 617.563636 -41.76 
L 619.254545 -41.76 
L 620.945455 -41.76 
L 622.636364 -41.76 
L 622.636364 -41.76 
L 622.636364 -41.76 
L 620.945455 -41.76 
L 619.254545 -41.76 
L 617.563636 -41.76 
L 615.872727 -64.578522 
L 614.181818 -41.76 
L 612.490909 -41.76 
L 610.8 -118.731568 
L 609.109091 -41.76 
L 607.418182 -41.76 
L 605.727273 -41.76 
L 604.036364 -127.957238 
L 602.345455 -41.76 
L 600.654545 -41.76 
L 598.963636 -41.76 
L 597.272727 -82.483964 
L 595.581818 -94.903136 
L 593.890909 -41.76 
L 592.2 -103.228075 
L 590.509091 -41.76 
L 588.818182 -59.774622 
L 587.127273 -41.76 
L 585.436364 -112.890463 
L 583.745455 -41.76 
L 582.054545 -41.76 
L 580.363636 -41.76 
L 578.672727 -108.577872 
L 576.981818 -41.76 
L 575.290909 -41.76 
L 573.6 -41.76 
L 571.909091 -79.317758 
L 570.218182 -41.76 
L 568.527273 -86.196068 
L 566.836364 -86.250658 
L 565.145455 -41.76 
L 563.454545 -59.447084 
L 561.763636 -41.76 
L 560.072727 -153.150414 
L 558.381818 -41.76 
L 556.690909 -98.669829 
L 555 -41.76 
L 553.309091 -60.593469 
L 551.618182 -105.957563 
L 549.927273 -41.76 
L 548.236364 -56.881365 
L 546.545455 -62.176572 
L 544.854545 -41.76 
L 543.163636 -41.76 
L 541.472727 -68.236036 
L 539.781818 -41.76 
L 538.090909 -41.76 
L 536.4 -41.76 
L 534.709091 -41.76 
L 533.018182 -95.285264 
L 531.327273 -133.443509 
L 529.636364 -66.707522 
L 527.945455 -41.76 
L 526.254545 -41.76 
L 524.563636 -41.76 
L 522.872727 -70.474216 
L 521.181818 -41.76 
L 519.490909 -41.76 
L 517.8 -41.76 
L 516.109091 -41.76 
L 514.418182 -64.824175 
L 512.727273 -41.76 
L 511.036364 -139.14814 
L 509.345455 -41.76 
L 507.654545 -41.76 
L 505.963636 -41.76 
L 504.272727 -62.749764 
L 502.581818 -41.76 
L 500.890909 -155.552364 
L 499.2 -41.76 
L 497.509091 -41.76 
L 495.818182 -94.957725 
L 494.127273 -56.444647 
L 492.436364 -41.76 
L 490.745455 -68.972998 
L 489.054545 -41.76 
L 487.363636 -41.76 
L 485.672727 -41.76 
L 483.981818 -60.293225 
L 482.290909 -41.76 
L 480.6 -68.508985 
L 478.909091 -41.76 
L 477.218182 -41.76 
L 475.527273 -69.382421 
L 473.836364 -41.76 
L 472.145455 -68.754639 
L 470.454545 -75.905898 
L 468.763636 -41.76 
L 467.072727 -92.965199 
L 465.381818 -41.76 
L 463.690909 -41.76 
L 462 -41.76 
L 460.309091 -74.486564 
L 458.618182 -41.76 
L 456.927273 -41.76 
L 455.236364 -57.372673 
L 453.545455 -56.717595 
L 451.854545 -59.365199 
L 450.163636 -41.76 
L 448.472727 -41.76 
L 446.781818 -58.109634 
L 445.090909 -41.76 
L 443.4 -41.76 
L 441.709091 -93.729456 
L 440.018182 -41.76 
L 438.327273 -41.76 
L 436.636364 -50.467067 
L 434.945455 -76.369911 
L 433.254545 -41.76 
L 431.563636 -41.76 
L 429.872727 -41.76 
L 428.181818 -41.76 
L 426.490909 -78.744565 
L 424.8 -41.76 
L 423.109091 -83.439285 
L 421.418182 -41.76 
L 419.727273 -91.109147 
L 418.036364 -41.76 
L 416.345455 -60.566174 
L 414.654545 -41.76 
L 412.963636 -41.76 
L 411.272727 -41.76 
L 409.581818 -41.76 
L 407.890909 -60.675353 
L 406.2 -98.806304 
L 404.509091 -41.76 
L 402.818182 -66.898587 
L 401.127273 -41.76 
L 399.436364 -41.76 
L 397.745455 -97.223201 
L 396.054545 -63.159188 
L 394.363636 -98.014752 
L 392.672727 -93.81134 
L 390.981818 -41.76 
L 389.290909 -41.76 
L 387.6 -41.76 
L 385.909091 -103.828562 
L 384.218182 -41.76 
L 382.527273 -41.76 
L 380.836364 -85.513696 
L 379.145455 -41.76 
L 377.454545 -41.76 
L 375.763636 -41.76 
L 374.072727 -92.173647 
L 372.381818 -41.76 
L 370.690909 -41.76 
L 369 -186.313696 
L 367.309091 -41.76 
L 365.618182 -41.76 
L 363.927273 -73.258294 
L 362.236364 -41.76 
L 360.545455 -41.76 
L 358.854545 -41.76 
L 357.163636 -84.421901 
L 355.472727 -41.76 
L 353.781818 -41.76 
L 352.090909 -41.76 
L 350.4 -84.776734 
L 348.709091 -41.76 
L 347.018182 -41.76 
L 345.327273 -41.76 
L 343.636364 -82.183721 
L 341.945455 -41.76 
L 340.254545 -41.76 
L 338.563636 -41.76 
L 336.872727 -88.898262 
L 335.181818 -41.76 
L 333.490909 -41.76 
L 331.8 -41.76 
L 330.109091 -84.776734 
L 328.418182 -41.76 
L 326.727273 -76.779334 
L 325.036364 -41.76 
L 323.345455 -41.76 
L 321.654545 -89.416864 
L 319.963636 -102.381933 
L 318.272727 -41.76 
L 316.581818 -41.76 
L 314.890909 -41.76 
L 313.2 -115.374297 
L 311.509091 -53.769748 
L 309.818182 -41.76 
L 308.127273 -41.76 
L 306.436364 -41.76 
L 304.745455 -59.720032 
L 303.054545 -41.76 
L 301.363636 -41.76 
L 299.672727 -41.76 
L 297.981818 -62.695175 
L 296.290909 -41.76 
L 294.6 -41.76 
L 292.909091 -41.76 
L 291.218182 -130.222713 
L 289.527273 -41.76 
L 287.836364 -41.76 
L 286.145455 -41.76 
L 284.454545 -41.76 
L 282.763636 -76.015077 
L 281.072727 -41.76 
L 279.381818 -41.76 
L 277.690909 -41.76 
L 276 -82.23831 
L 274.309091 -92.392006 
L 272.618182 -41.76 
L 270.927273 -80.464143 
L 269.236364 -41.76 
L 267.545455 -41.76 
L 265.854545 -41.76 
L 264.163636 -75.824013 
L 262.472727 -41.76 
L 260.781818 -41.76 
L 259.090909 -41.76 
L 257.4 -87.751877 
L 255.709091 -41.76 
L 254.018182 -41.76 
L 252.327273 -41.76 
L 250.636364 -41.76 
L 248.945455 -85.240747 
L 247.254545 -41.76 
L 245.563636 -63.186483 
L 243.872727 -41.76 
L 242.181818 -123.890301 
L 240.490909 -41.76 
L 238.8 -87.342453 
L 237.109091 -57.700211 
L 235.418182 -41.76 
L 233.727273 -41.76 
L 232.036364 -41.76 
L 230.345455 -105.684614 
L 228.654545 -41.76 
L 226.963636 -41.76 
L 225.272727 -67.526369 
L 223.581818 -63.322957 
L 221.890909 -41.76 
L 220.2 -41.76 
L 218.509091 -41.76 
L 216.818182 -91.191032 
L 215.127273 -41.76 
L 213.436364 -41.76 
L 211.745455 -41.76 
L 210.054545 -99.406791 
L 208.363636 -41.76 
L 206.672727 -41.76 
L 204.981818 -41.76 
L 203.290909 -121.133517 
L 201.6 -41.76 
L 199.909091 -41.76 
L 198.218182 -41.76 
L 196.527273 -83.057157 
L 194.836364 -41.76 
L 193.145455 -41.76 
L 191.454545 -41.76 
L 189.763636 -41.76 
L 188.072727 -85.86853 
L 186.381818 -41.76 
L 184.690909 -41.76 
L 183 -41.76 
L 181.309091 -93.756751 
L 179.618182 -41.76 
L 177.927273 -41.76 
L 176.236364 -41.76 
L 174.545455 -113.982258 
L 172.854545 -41.76 
L 171.163636 -41.76 
L 169.472727 -41.76 
L 167.781818 -110.297449 
L 166.090909 -41.76 
L 164.4 -41.76 
L 162.709091 -41.76 
L 161.018182 -146.654232 
L 159.327273 -41.76 
L 157.636364 -41.76 
L 155.945455 -62.858944 
L 154.254545 -41.76 
L 152.563636 -41.76 
L 150.872727 -41.76 
L 149.181818 -67.30801 
L 147.490909 -41.76 
L 145.8 -41.76 
L 144.109091 -41.76 
L 142.418182 -119.386645 
L 140.727273 -41.76 
L 139.036364 -41.76 
L 137.345455 -41.76 
L 135.654545 -102.354639 
L 133.963636 -41.76 
L 132.272727 -41.76 
L 130.581818 -41.76 
L 128.890909 -67.908497 
L 127.2 -41.76 
L 125.509091 -41.76 
L 123.818182 -41.76 
L 122.127273 -42.633436 
L 120.436364 -41.76 
L 118.745455 -41.76 
L 117.054545 -41.76 
L 115.363636 -43.99818 
z
" style="stroke: #ff0000; stroke-width: 0.5"/>
    </defs>
    <g clip-path="url(#p2c28068c62)">
     <use xlink:href="#m95aeb9b99d" x="0" y="288" style="fill: #ff0000; stroke: #ff0000; stroke-width: 0.5"/>
    </g>
   </g>
   <g id="PolyCollection_2">
    <defs>
     <path id="mb93c51811a" d="M 115.363636 -48.338067 
L 115.363636 -43.99818 
L 117.054545 -41.76 
L 118.745455 -41.76 
L 120.436364 -41.76 
L 122.127273 -42.633436 
L 123.818182 -41.76 
L 125.509091 -41.76 
L 127.2 -41.76 
L 128.890909 -67.908497 
L 130.581818 -41.76 
L 132.272727 -41.76 
L 133.963636 -41.76 
L 135.654545 -102.354639 
L 137.345455 -41.76 
L 139.036364 -41.76 
L 140.727273 -41.76 
L 142.418182 -119.386645 
L 144.109091 -41.76 
L 145.8 -41.76 
L 147.490909 -41.76 
L 149.181818 -67.30801 
L 150.872727 -41.76 
L 152.563636 -41.76 
L 154.254545 -41.76 
L 155.945455 -62.858944 
L 157.636364 -41.76 
L 159.327273 -41.76 
L 161.018182 -146.654232 
L 162.709091 -41.76 
L 164.4 -41.76 
L 166.090909 -41.76 
L 167.781818 -110.297449 
L 169.472727 -41.76 
L 171.163636 -41.76 
L 172.854545 -41.76 
L 174.545455 -113.982258 
L 176.236364 -41.76 
L 177.927273 -41.76 
L 179.618182 -41.76 
L 181.309091 -93.756751 
L 183 -41.76 
L 184.690909 -41.76 
L 186.381818 -41.76 
L 188.072727 -85.86853 
L 189.763636 -41.76 
L 191.454545 -41.76 
L 193.145455 -41.76 
L 194.836364 -41.76 
L 196.527273 -83.057157 
L 198.218182 -41.76 
L 199.909091 -41.76 
L 201.6 -41.76 
L 203.290909 -121.133517 
L 204.981818 -41.76 
L 206.672727 -41.76 
L 208.363636 -41.76 
L 210.054545 -99.406791 
L 211.745455 -41.76 
L 213.436364 -41.76 
L 215.127273 -41.76 
L 216.818182 -91.191032 
L 218.509091 -41.76 
L 220.2 -41.76 
L 221.890909 -41.76 
L 223.581818 -63.322957 
L 225.272727 -67.526369 
L 226.963636 -41.76 
L 228.654545 -41.76 
L 230.345455 -105.684614 
L 232.036364 -41.76 
L 233.727273 -41.76 
L 235.418182 -41.76 
L 237.109091 -57.700211 
L 238.8 -87.342453 
L 240.490909 -41.76 
L 242.181818 -123.890301 
L 243.872727 -41.76 
L 245.563636 -63.186483 
L 247.254545 -41.76 
L 248.945455 -85.240747 
L 250.636364 -41.76 
L 252.327273 -41.76 
L 254.018182 -41.76 
L 255.709091 -41.76 
L 257.4 -87.751877 
L 259.090909 -41.76 
L 260.781818 -41.76 
L 262.472727 -41.76 
L 264.163636 -75.824013 
L 265.854545 -41.76 
L 267.545455 -41.76 
L 269.236364 -41.76 
L 270.927273 -80.464143 
L 272.618182 -41.76 
L 274.309091 -92.392006 
L 276 -82.23831 
L 277.690909 -41.76 
L 279.381818 -41.76 
L 281.072727 -41.76 
L 282.763636 -76.015077 
L 284.454545 -41.76 
L 286.145455 -41.76 
L 287.836364 -41.76 
L 289.527273 -41.76 
L 291.218182 -130.222713 
L 292.909091 -41.76 
L 294.6 -41.76 
L 296.290909 -41.76 
L 297.981818 -62.695175 
L 299.672727 -41.76 
L 301.363636 -41.76 
L 303.054545 -41.76 
L 304.745455 -59.720032 
L 306.436364 -41.76 
L 308.127273 -41.76 
L 309.818182 -41.76 
L 311.509091 -53.769748 
L 313.2 -115.374297 
L 314.890909 -41.76 
L 316.581818 -41.76 
L 318.272727 -41.76 
L 319.963636 -102.381933 
L 321.654545 -89.416864 
L 323.345455 -41.76 
L 325.036364 -41.76 
L 326.727273 -76.779334 
L 328.418182 -41.76 
L 330.109091 -84.776734 
L 331.8 -41.76 
L 333.490909 -41.76 
L 335.181818 -41.76 
L 336.872727 -88.898262 
L 338.563636 -41.76 
L 340.254545 -41.76 
L 341.945455 -41.76 
L 343.636364 -82.183721 
L 345.327273 -41.76 
L 347.018182 -41.76 
L 348.709091 -41.76 
L 350.4 -84.776734 
L 352.090909 -41.76 
L 353.781818 -41.76 
L 355.472727 -41.76 
L 357.163636 -84.421901 
L 358.854545 -41.76 
L 360.545455 -41.76 
L 362.236364 -41.76 
L 363.927273 -73.258294 
L 365.618182 -41.76 
L 367.309091 -41.76 
L 369 -186.313696 
L 370.690909 -41.76 
L 372.381818 -41.76 
L 374.072727 -92.173647 
L 375.763636 -41.76 
L 377.454545 -41.76 
L 379.145455 -41.76 
L 380.836364 -85.513696 
L 382.527273 -41.76 
L 384.218182 -41.76 
L 385.909091 -103.828562 
L 387.6 -41.76 
L 389.290909 -41.76 
L 390.981818 -41.76 
L 392.672727 -93.81134 
L 394.363636 -98.014752 
L 396.054545 -63.159188 
L 397.745455 -97.223201 
L 399.436364 -41.76 
L 401.127273 -41.76 
L 402.818182 -66.898587 
L 404.509091 -41.76 
L 406.2 -98.806304 
L 407.890909 -60.675353 
L 409.581818 -41.76 
L 411.272727 -41.76 
L 412.963636 -41.76 
L 414.654545 -41.76 
L 416.345455 -60.566174 
L 418.036364 -41.76 
L 419.727273 -91.109147 
L 421.418182 -41.76 
L 423.109091 -83.439285 
L 424.8 -41.76 
L 426.490909 -78.744565 
L 428.181818 -41.76 
L 429.872727 -41.76 
L 431.563636 -41.76 
L 433.254545 -41.76 
L 434.945455 -76.369911 
L 436.636364 -50.467067 
L 438.327273 -41.76 
L 440.018182 -41.76 
L 441.709091 -93.729456 
L 443.4 -41.76 
L 445.090909 -41.76 
L 446.781818 -58.109634 
L 448.472727 -41.76 
L 450.163636 -41.76 
L 451.854545 -59.365199 
L 453.545455 -56.717595 
L 455.236364 -57.372673 
L 456.927273 -41.76 
L 458.618182 -41.76 
L 460.309091 -74.486564 
L 462 -41.76 
L 463.690909 -41.76 
L 465.381818 -41.76 
L 467.072727 -92.965199 
L 468.763636 -41.76 
L 470.454545 -75.905898 
L 472.145455 -68.754639 
L 473.836364 -41.76 
L 475.527273 -69.382421 
L 477.218182 -41.76 
L 478.909091 -41.76 
L 480.6 -68.508985 
L 482.290909 -41.76 
L 483.981818 -60.293225 
L 485.672727 -41.76 
L 487.363636 -41.76 
L 489.054545 -41.76 
L 490.745455 -68.972998 
L 492.436364 -41.76 
L 494.127273 -56.444647 
L 495.818182 -94.957725 
L 497.509091 -41.76 
L 499.2 -41.76 
L 500.890909 -155.552364 
L 502.581818 -41.76 
L 504.272727 -62.749764 
L 505.963636 -41.76 
L 507.654545 -41.76 
L 509.345455 -41.76 
L 511.036364 -139.14814 
L 512.727273 -41.76 
L 514.418182 -64.824175 
L 516.109091 -41.76 
L 517.8 -41.76 
L 519.490909 -41.76 
L 521.181818 -41.76 
L 522.872727 -70.474216 
L 524.563636 -41.76 
L 526.254545 -41.76 
L 527.945455 -41.76 
L 529.636364 -66.707522 
L 531.327273 -133.443509 
L 533.018182 -95.285264 
L 534.709091 -41.76 
L 536.4 -41.76 
L 538.090909 -41.76 
L 539.781818 -41.76 
L 541.472727 -68.236036 
L 543.163636 -41.76 
L 544.854545 -41.76 
L 546.545455 -62.176572 
L 548.236364 -56.881365 
L 549.927273 -41.76 
L 551.618182 -105.957563 
L 553.309091 -60.593469 
L 555 -41.76 
L 556.690909 -98.669829 
L 558.381818 -41.76 
L 560.072727 -153.150414 
L 561.763636 -41.76 
L 563.454545 -59.447084 
L 565.145455 -41.76 
L 566.836364 -86.250658 
L 568.527273 -86.196068 
L 570.218182 -41.76 
L 571.909091 -79.317758 
L 573.6 -41.76 
L 575.290909 -41.76 
L 576.981818 -41.76 
L 578.672727 -108.577872 
L 580.363636 -41.76 
L 582.054545 -41.76 
L 583.745455 -41.76 
L 585.436364 -112.890463 
L 587.127273 -41.76 
L 588.818182 -59.774622 
L 590.509091 -41.76 
L 592.2 -103.228075 
L 593.890909 -41.76 
L 595.581818 -94.903136 
L 597.272727 -82.483964 
L 598.963636 -41.76 
L 600.654545 -41.76 
L 602.345455 -41.76 
L 604.036364 -127.957238 
L 605.727273 -41.76 
L 607.418182 -41.76 
L 609.109091 -41.76 
L 610.8 -118.731568 
L 612.490909 -41.76 
L 614.181818 -41.76 
L 615.872727 -64.578522 
L 617.563636 -41.76 
L 619.254545 -41.76 
L 620.945455 -41.76 
L 622.636364 -41.76 
L 622.636364 -41.76 
L 622.636364 -41.76 
L 620.945455 -69.682665 
L 619.254545 -76.888513 
L 617.563636 -66.461868 
L 615.872727 -73.585833 
L 614.181818 -45.990707 
L 612.490909 -48.856669 
L 610.8 -125.609878 
L 609.109091 -54.697774 
L 607.418182 -46.946028 
L 605.727273 -48.283477 
L 604.036364 -132.269829 
L 602.345455 -73.094525 
L 600.654545 -66.243509 
L 598.963636 -71.647896 
L 597.272727 -109.888026 
L 595.581818 -132.324419 
L 593.890909 -56.79948 
L 592.2 -114.691925 
L 590.509091 -66.461868 
L 588.818182 -80.764387 
L 587.127273 -55.352851 
L 585.436364 -121.024338 
L 583.745455 -91.791519 
L 582.054545 -99.515971 
L 580.363636 -93.101673 
L 578.672727 -126.974622 
L 576.981818 -52.759838 
L 575.290909 -50.903786 
L 573.6 -57.481852 
L 571.909091 -84.885914 
L 570.218182 -54.45212 
L 568.527273 -95.558213 
L 566.836364 -107.404192 
L 565.145455 -61.030187 
L 563.454545 -80.10931 
L 561.763636 -51.558863 
L 560.072727 -171.820114 
L 558.381818 -63.159188 
L 556.690909 -112.890463 
L 555 -51.313209 
L 553.309091 -69.982908 
L 551.618182 -122.962275 
L 549.927273 -78.389732 
L 548.236364 -86.414427 
L 546.545455 -76.397206 
L 544.854545 -51.449683 
L 543.163636 -62.749764 
L 541.472727 -122.443672 
L 539.781818 -68.263331 
L 538.090909 -73.312884 
L 536.4 -76.233436 
L 534.709091 -108.632461 
L 533.018182 -126.40143 
L 531.327273 -147.582258 
L 529.636364 -81.910772 
L 527.945455 -49.675516 
L 526.254545 -48.720195 
L 524.563636 -47.082502 
L 522.872727 -79.508822 
L 521.181818 -49.566336 
L 519.490909 -50.603542 
L 517.8 -58.846596 
L 516.109091 -70.010203 
L 514.418182 -73.203704 
L 512.727273 -45.963412 
L 511.036364 -145.644322 
L 509.345455 -66.489163 
L 507.654545 -59.992981 
L 505.963636 -72.766986 
L 504.272727 -92.965199 
L 502.581818 -49.102323 
L 500.890909 -156.835223 
L 499.2 -43.807116 
L 497.509091 -44.080065 
L 495.818182 -100.580471 
L 494.127273 -65.561137 
L 492.436364 -62.340341 
L 490.745455 -98.751714 
L 489.054545 -60.293225 
L 487.363636 -59.556263 
L 485.672727 -56.308172 
L 483.981818 -76.752039 
L 482.290909 -95.394444 
L 480.6 -111.007116 
L 478.909091 -94.220764 
L 477.218182 -95.312559 
L 475.527273 -109.096474 
L 473.836364 -56.226288 
L 472.145455 -88.406954 
L 470.454545 -95.831162 
L 468.763636 -48.911259 
L 467.072727 -98.970073 
L 465.381818 -53.169261 
L 463.690909 -51.859106 
L 462 -60.839123 
L 460.309091 -90.481365 
L 458.618182 -57.618327 
L 456.927273 -55.73498 
L 455.236364 -70.747165 
L 453.545455 -99.324907 
L 451.854545 -90.263006 
L 450.163636 -63.923444 
L 448.472727 -85.377222 
L 446.781818 -85.186158 
L 445.090909 -45.690463 
L 443.4 -44.243834 
L 441.709091 -102.736767 
L 440.018182 -83.3574 
L 438.327273 -84.776734 
L 436.636364 -72.139204 
L 434.945455 -98.260406 
L 433.254545 -76.260731 
L 431.563636 -79.426937 
L 429.872727 -81.419464 
L 428.181818 -76.915808 
L 426.490909 -94.493712 
L 424.8 -53.824338 
L 423.109091 -95.885751 
L 421.418182 -81.910772 
L 419.727273 -124.026775 
L 418.036364 -55.270967 
L 416.345455 -73.01264 
L 414.654545 -54.970723 
L 412.963636 -47.027912 
L 411.272727 -49.266093 
L 409.581818 -52.978197 
L 407.890909 -80.709797 
L 406.2 -109.751552 
L 404.509091 -51.149439 
L 402.818182 -79.536117 
L 401.127273 -54.834249 
L 399.436364 -59.064955 
L 397.745455 -115.265118 
L 396.054545 -76.560975 
L 394.363636 -111.825963 
L 392.672727 -102.518408 
L 390.981818 -52.022876 
L 389.290909 -46.946028 
L 387.6 -47.410041 
L 385.909091 -106.530755 
L 384.218182 -54.39753 
L 382.527273 -57.863981 
L 380.836364 -111.553014 
L 379.145455 -67.526369 
L 377.454545 -56.79948 
L 375.763636 -53.005491 
L 374.072727 -97.44156 
L 372.381818 -46.45472 
L 370.690909 -46.236361 
L 369 -189.561787 
L 367.309091 -50.412478 
L 365.618182 -56.253582 
L 363.927273 -110.270154 
L 362.236364 -61.002892 
L 360.545455 -52.15935 
L 358.854545 -65.861381 
L 357.163636 -104.701998 
L 355.472727 -67.19883 
L 353.781818 -49.511747 
L 352.090909 -56.772185 
L 350.4 -103.20078 
L 348.709091 -52.596068 
L 347.018182 -50.958375 
L 345.327273 -51.558863 
L 343.636364 -94.602892 
L 341.945455 -48.665605 
L 340.254545 -50.658132 
L 338.563636 -64.250983 
L 336.872727 -105.711909 
L 335.181818 -58.737417 
L 333.490909 -55.107197 
L 331.8 -57.345378 
L 330.109091 -111.662193 
L 328.418182 -65.451958 
L 326.727273 -105.684614 
L 325.036364 -64.305573 
L 323.345455 -90.290301 
L 321.654545 -110.18827 
L 319.963636 -120.614915 
L 318.272727 -69.709959 
L 316.581818 -56.144403 
L 314.890909 -58.164224 
L 313.2 -138.847896 
L 311.509091 -74.486564 
L 309.818182 -63.896149 
L 308.127273 -61.521495 
L 306.436364 -59.638148 
L 304.745455 -85.650171 
L 303.054545 -59.501673 
L 301.363636 -61.54879 
L 299.672727 -59.010366 
L 297.981818 -72.766986 
L 296.290909 -46.836848 
L 294.6 -62.61329 
L 292.909091 -52.377709 
L 291.218182 -136.991844 
L 289.527273 -48.856669 
L 287.836364 -49.156913 
L 286.145455 -50.303298 
L 284.454545 -52.596068 
L 282.763636 -82.811503 
L 281.072727 -46.482015 
L 279.381818 -46.236361 
L 277.690909 -46.181771 
L 276 -83.41199 
L 274.309091 -94.493712 
L 272.618182 -46.700374 
L 270.927273 -84.64026 
L 269.236364 -50.794606 
L 267.545455 -50.494362 
L 265.854545 -43.424988 
L 264.163636 -81.665118 
L 262.472727 -56.90866 
L 260.781818 -65.342778 
L 259.090909 -74.322794 
L 257.4 -126.810853 
L 255.709091 -117.612478 
L 254.018182 -112.153501 
L 252.327273 -109.888026 
L 250.636364 -82.2929 
L 248.945455 -125.910122 
L 247.254545 -70.692575 
L 245.563636 -69.764549 
L 243.872727 -48.092413 
L 242.181818 -127.57511 
L 240.490909 -45.963412 
L 238.8 -121.106223 
L 237.109091 -83.57576 
L 235.418182 -91.272916 
L 233.727273 -72.903461 
L 232.036364 -57.672916 
L 230.345455 -112.289976 
L 228.654545 -58.710122 
L 226.963636 -55.270967 
L 225.272727 -83.848708 
L 223.581818 -68.563574 
L 221.890909 -49.648221 
L 220.2 -54.261056 
L 218.509091 -45.608578 
L 216.818182 -99.133842 
L 215.127273 -63.077303 
L 213.436364 -44.953501 
L 211.745455 -50.658132 
L 210.054545 -106.257807 
L 208.363636 -54.069992 
L 206.672727 -68.072266 
L 204.981818 -80.436848 
L 203.290909 -146.08104 
L 201.6 -58.955776 
L 199.909091 -58.846596 
L 198.218182 -61.166661 
L 196.527273 -100.416702 
L 194.836364 -54.861543 
L 193.145455 -58.055045 
L 191.454545 -57.536442 
L 189.763636 -58.846596 
L 188.072727 -103.746677 
L 186.381818 -60.26593 
L 184.690909 -61.466905 
L 183 -63.104598 
L 181.309091 -120.287376 
L 179.618182 -69.65537 
L 177.927273 -69.273241 
L 176.236364 -69.109472 
L 174.545455 -140.076166 
L 172.854545 -69.846434 
L 171.163636 -68.945703 
L 169.472727 -69.873729 
L 167.781818 -138.056344 
L 166.090909 -68.208741 
L 164.4 -70.71987 
L 162.709091 -68.563574 
L 161.018182 -160.574622 
L 159.327273 -44.844322 
L 157.636364 -51.258619 
L 155.945455 -82.947977 
L 154.254545 -49.238798 
L 152.563636 -57.481852 
L 150.872727 -53.27844 
L 149.181818 -83.739529 
L 147.490909 -76.560975 
L 145.8 -74.595743 
L 144.109091 -73.285589 
L 142.418182 -146.736117 
L 140.727273 -59.14684 
L 139.036364 -62.695175 
L 137.345455 -66.789407 
L 135.654545 -124.709147 
L 133.963636 -65.997855 
L 132.272727 -65.643022 
L 130.581818 -67.580959 
L 128.890909 -94.029699 
L 127.2 -67.062356 
L 125.509091 -57.754801 
L 123.818182 -50.767311 
L 122.127273 -60.702648 
L 120.436364 -52.950902 
L 118.745455 -43.970885 
L 117.054545 -45.062681 
L 115.363636 -48.338067 
z
" style="stroke: #0000ff; stroke-width: 0.5"/>
    </defs>
    <g clip-path="url(#p2c28068c62)">
     <use xlink:href="#mb93c51811a" x="0" y="288" style="fill: #0000ff; stroke: #0000ff; stroke-width: 0.5"/>
    </g>
   </g>
   <g id="PolyCollection_3">
    <defs>
     <path id="m0094e2b92e" d="M 115.363636 -58.273404 
L 115.363636 -48.338067 
L 117.054545 -45.062681 
L 118.745455 -43.970885 
L 120.436364 -52.950902 
L 122.127273 -60.702648 
L 123.818182 -50.767311 
L 125.509091 -57.754801 
L 127.2 -67.062356 
L 128.890909 -94.029699 
L 130.581818 -67.580959 
L 132.272727 -65.643022 
L 133.963636 -65.997855 
L 135.654545 -124.709147 
L 137.345455 -66.789407 
L 139.036364 -62.695175 
L 140.727273 -59.14684 
L 142.418182 -146.736117 
L 144.109091 -73.285589 
L 145.8 -74.595743 
L 147.490909 -76.560975 
L 149.181818 -83.739529 
L 150.872727 -53.27844 
L 152.563636 -57.481852 
L 154.254545 -49.238798 
L 155.945455 -82.947977 
L 157.636364 -51.258619 
L 159.327273 -44.844322 
L 161.018182 -160.574622 
L 162.709091 -68.563574 
L 164.4 -70.71987 
L 166.090909 -68.208741 
L 167.781818 -138.056344 
L 169.472727 -69.873729 
L 171.163636 -68.945703 
L 172.854545 -69.846434 
L 174.545455 -140.076166 
L 176.236364 -69.109472 
L 177.927273 -69.273241 
L 179.618182 -69.65537 
L 181.309091 -120.287376 
L 183 -63.104598 
L 184.690909 -61.466905 
L 186.381818 -60.26593 
L 188.072727 -103.746677 
L 189.763636 -58.846596 
L 191.454545 -57.536442 
L 193.145455 -58.055045 
L 194.836364 -54.861543 
L 196.527273 -100.416702 
L 198.218182 -61.166661 
L 199.909091 -58.846596 
L 201.6 -58.955776 
L 203.290909 -146.08104 
L 204.981818 -80.436848 
L 206.672727 -68.072266 
L 208.363636 -54.069992 
L 210.054545 -106.257807 
L 211.745455 -50.658132 
L 213.436364 -44.953501 
L 215.127273 -63.077303 
L 216.818182 -99.133842 
L 218.509091 -45.608578 
L 220.2 -54.261056 
L 221.890909 -49.648221 
L 223.581818 -68.563574 
L 225.272727 -83.848708 
L 226.963636 -55.270967 
L 228.654545 -58.710122 
L 230.345455 -112.289976 
L 232.036364 -57.672916 
L 233.727273 -72.903461 
L 235.418182 -91.272916 
L 237.109091 -83.57576 
L 238.8 -121.106223 
L 240.490909 -45.963412 
L 242.181818 -127.57511 
L 243.872727 -48.092413 
L 245.563636 -69.764549 
L 247.254545 -70.692575 
L 248.945455 -125.910122 
L 250.636364 -82.2929 
L 252.327273 -109.888026 
L 254.018182 -112.153501 
L 255.709091 -117.612478 
L 257.4 -126.810853 
L 259.090909 -74.322794 
L 260.781818 -65.342778 
L 262.472727 -56.90866 
L 264.163636 -81.665118 
L 265.854545 -43.424988 
L 267.545455 -50.494362 
L 269.236364 -50.794606 
L 270.927273 -84.64026 
L 272.618182 -46.700374 
L 274.309091 -94.493712 
L 276 -83.41199 
L 277.690909 -46.181771 
L 279.381818 -46.236361 
L 281.072727 -46.482015 
L 282.763636 -82.811503 
L 284.454545 -52.596068 
L 286.145455 -50.303298 
L 287.836364 -49.156913 
L 289.527273 -48.856669 
L 291.218182 -136.991844 
L 292.909091 -52.377709 
L 294.6 -62.61329 
L 296.290909 -46.836848 
L 297.981818 -72.766986 
L 299.672727 -59.010366 
L 301.363636 -61.54879 
L 303.054545 -59.501673 
L 304.745455 -85.650171 
L 306.436364 -59.638148 
L 308.127273 -61.521495 
L 309.818182 -63.896149 
L 311.509091 -74.486564 
L 313.2 -138.847896 
L 314.890909 -58.164224 
L 316.581818 -56.144403 
L 318.272727 -69.709959 
L 319.963636 -120.614915 
L 321.654545 -110.18827 
L 323.345455 -90.290301 
L 325.036364 -64.305573 
L 326.727273 -105.684614 
L 328.418182 -65.451958 
L 330.109091 -111.662193 
L 331.8 -57.345378 
L 333.490909 -55.107197 
L 335.181818 -58.737417 
L 336.872727 -105.711909 
L 338.563636 -64.250983 
L 340.254545 -50.658132 
L 341.945455 -48.665605 
L 343.636364 -94.602892 
L 345.327273 -51.558863 
L 347.018182 -50.958375 
L 348.709091 -52.596068 
L 350.4 -103.20078 
L 352.090909 -56.772185 
L 353.781818 -49.511747 
L 355.472727 -67.19883 
L 357.163636 -104.701998 
L 358.854545 -65.861381 
L 360.545455 -52.15935 
L 362.236364 -61.002892 
L 363.927273 -110.270154 
L 365.618182 -56.253582 
L 367.309091 -50.412478 
L 369 -189.561787 
L 370.690909 -46.236361 
L 372.381818 -46.45472 
L 374.072727 -97.44156 
L 375.763636 -53.005491 
L 377.454545 -56.79948 
L 379.145455 -67.526369 
L 380.836364 -111.553014 
L 382.527273 -57.863981 
L 384.218182 -54.39753 
L 385.909091 -106.530755 
L 387.6 -47.410041 
L 389.290909 -46.946028 
L 390.981818 -52.022876 
L 392.672727 -102.518408 
L 394.363636 -111.825963 
L 396.054545 -76.560975 
L 397.745455 -115.265118 
L 399.436364 -59.064955 
L 401.127273 -54.834249 
L 402.818182 -79.536117 
L 404.509091 -51.149439 
L 406.2 -109.751552 
L 407.890909 -80.709797 
L 409.581818 -52.978197 
L 411.272727 -49.266093 
L 412.963636 -47.027912 
L 414.654545 -54.970723 
L 416.345455 -73.01264 
L 418.036364 -55.270967 
L 419.727273 -124.026775 
L 421.418182 -81.910772 
L 423.109091 -95.885751 
L 424.8 -53.824338 
L 426.490909 -94.493712 
L 428.181818 -76.915808 
L 429.872727 -81.419464 
L 431.563636 -79.426937 
L 433.254545 -76.260731 
L 434.945455 -98.260406 
L 436.636364 -72.139204 
L 438.327273 -84.776734 
L 440.018182 -83.3574 
L 441.709091 -102.736767 
L 443.4 -44.243834 
L 445.090909 -45.690463 
L 446.781818 -85.186158 
L 448.472727 -85.377222 
L 450.163636 -63.923444 
L 451.854545 -90.263006 
L 453.545455 -99.324907 
L 455.236364 -70.747165 
L 456.927273 -55.73498 
L 458.618182 -57.618327 
L 460.309091 -90.481365 
L 462 -60.839123 
L 463.690909 -51.859106 
L 465.381818 -53.169261 
L 467.072727 -98.970073 
L 468.763636 -48.911259 
L 470.454545 -95.831162 
L 472.145455 -88.406954 
L 473.836364 -56.226288 
L 475.527273 -109.096474 
L 477.218182 -95.312559 
L 478.909091 -94.220764 
L 480.6 -111.007116 
L 482.290909 -95.394444 
L 483.981818 -76.752039 
L 485.672727 -56.308172 
L 487.363636 -59.556263 
L 489.054545 -60.293225 
L 490.745455 -98.751714 
L 492.436364 -62.340341 
L 494.127273 -65.561137 
L 495.818182 -100.580471 
L 497.509091 -44.080065 
L 499.2 -43.807116 
L 500.890909 -156.835223 
L 502.581818 -49.102323 
L 504.272727 -92.965199 
L 505.963636 -72.766986 
L 507.654545 -59.992981 
L 509.345455 -66.489163 
L 511.036364 -145.644322 
L 512.727273 -45.963412 
L 514.418182 -73.203704 
L 516.109091 -70.010203 
L 517.8 -58.846596 
L 519.490909 -50.603542 
L 521.181818 -49.566336 
L 522.872727 -79.508822 
L 524.563636 -47.082502 
L 526.254545 -48.720195 
L 527.945455 -49.675516 
L 529.636364 -81.910772 
L 531.327273 -147.582258 
L 533.018182 -126.40143 
L 534.709091 -108.632461 
L 536.4 -76.233436 
L 538.090909 -73.312884 
L 539.781818 -68.263331 
L 541.472727 -122.443672 
L 543.163636 -62.749764 
L 544.854545 -51.449683 
L 546.545455 -76.397206 
L 548.236364 -86.414427 
L 549.927273 -78.389732 
L 551.618182 -122.962275 
L 553.309091 -69.982908 
L 555 -51.313209 
L 556.690909 -112.890463 
L 558.381818 -63.159188 
L 560.072727 -171.820114 
L 561.763636 -51.558863 
L 563.454545 -80.10931 
L 565.145455 -61.030187 
L 566.836364 -107.404192 
L 568.527273 -95.558213 
L 570.218182 -54.45212 
L 571.909091 -84.885914 
L 573.6 -57.481852 
L 575.290909 -50.903786 
L 576.981818 -52.759838 
L 578.672727 -126.974622 
L 580.363636 -93.101673 
L 582.054545 -99.515971 
L 583.745455 -91.791519 
L 585.436364 -121.024338 
L 587.127273 -55.352851 
L 588.818182 -80.764387 
L 590.509091 -66.461868 
L 592.2 -114.691925 
L 593.890909 -56.79948 
L 595.581818 -132.324419 
L 597.272727 -109.888026 
L 598.963636 -71.647896 
L 600.654545 -66.243509 
L 602.345455 -73.094525 
L 604.036364 -132.269829 
L 605.727273 -48.283477 
L 607.418182 -46.946028 
L 609.109091 -54.697774 
L 610.8 -125.609878 
L 612.490909 -48.856669 
L 614.181818 -45.990707 
L 615.872727 -73.585833 
L 617.563636 -66.461868 
L 619.254545 -76.888513 
L 620.945455 -69.682665 
L 622.636364 -41.76 
L 622.636364 -41.951064 
L 622.636364 -41.951064 
L 620.945455 -137.592331 
L 619.254545 -153.641722 
L 617.563636 -111.962437 
L 615.872727 -97.059431 
L 614.181818 -88.21589 
L 612.490909 -95.203379 
L 610.8 -171.820114 
L 609.109091 -137.264793 
L 607.418182 -73.094525 
L 605.727273 -114.691925 
L 604.036364 -204.983396 
L 602.345455 -122.443672 
L 600.654545 -116.165849 
L 598.963636 -111.607604 
L 597.272727 -150.72117 
L 595.581818 -173.102973 
L 593.890909 -126.23766 
L 592.2 -161.12052 
L 590.509091 -103.992331 
L 588.818182 -118.840747 
L 587.127273 -107.84091 
L 585.436364 -191.335955 
L 583.745455 -176.705898 
L 582.054545 -179.189732 
L 580.363636 -173.430512 
L 578.672727 -164.505085 
L 576.981818 -108.304923 
L 575.290909 -90.617839 
L 573.6 -101.699561 
L 571.909091 -104.183396 
L 570.218182 -75.605654 
L 568.527273 -113.572835 
L 566.836364 -139.748627 
L 565.145455 -95.394444 
L 563.454545 -121.679415 
L 561.763636 -111.143591 
L 560.072727 -205.365524 
L 558.381818 -93.401917 
L 556.690909 -137.264793 
L 555 -69.737254 
L 553.309091 -89.717108 
L 551.618182 -157.080877 
L 549.927273 -135.545215 
L 548.236364 -119.004517 
L 546.545455 -112.42645 
L 544.854545 -82.920682 
L 543.163636 -117.885426 
L 541.472727 -196.740341 
L 539.781818 -116.275028 
L 538.090909 -131.723932 
L 536.4 -138.220114 
L 534.709091 -204.273729 
L 533.018182 -193.54684 
L 531.327273 -177.579334 
L 529.636364 -128.58502 
L 527.945455 -69.846434 
L 526.254545 -64.032624 
L 524.563636 -63.459431 
L 522.872727 -99.652445 
L 521.181818 -72.985345 
L 519.490909 -67.580959 
L 517.8 -85.486401 
L 516.109091 -119.41394 
L 514.418182 -82.2929 
L 512.727273 -79.972835 
L 511.036364 -157.162762 
L 509.345455 -97.468855 
L 507.654545 -94.98502 
L 505.963636 -140.15805 
L 504.272727 -198.323444 
L 502.581818 -132.242535 
L 500.890909 -204.028075 
L 499.2 -46.700374 
L 497.509091 -46.427425 
L 495.818182 -109.915321 
L 494.127273 -86.414427 
L 492.436364 -90.727019 
L 490.745455 -141.44091 
L 489.054545 -92.310122 
L 487.363636 -98.369586 
L 485.672727 -88.952851 
L 483.981818 -121.7613 
L 482.290909 -243.36 
L 480.6 -208.804679 
L 478.909091 -169.581933 
L 477.218182 -148.4284 
L 475.527273 -156.262031 
L 473.836364 -71.238473 
L 472.145455 -117.148465 
L 470.454545 -121.406466 
L 468.763636 -57.236198 
L 467.072727 -106.858294 
L 465.381818 -78.82645 
L 463.690909 -76.833924 
L 462 -118.704273 
L 460.309091 -116.302323 
L 458.618182 -80.518733 
L 456.927273 -78.580796 
L 455.236364 -103.173485 
L 453.545455 -221.769748 
L 451.854545 -120.205491 
L 450.163636 -108.495987 
L 448.472727 -167.971535 
L 446.781818 -122.361787 
L 445.090909 -51.613452 
L 443.4 -47.000617 
L 441.709091 -127.056507 
L 440.018182 -161.12052 
L 438.327273 -168.981446 
L 436.636364 -136.582421 
L 434.945455 -149.083477 
L 433.254545 -116.739041 
L 431.563636 -109.888026 
L 429.872727 -125.555288 
L 428.181818 -119.905248 
L 426.490909 -123.098749 
L 424.8 -78.88104 
L 423.109091 -114.364387 
L 421.418182 -120.942453 
L 419.727273 -166.715971 
L 418.036364 -88.1613 
L 416.345455 -89.689813 
L 414.654545 -73.258294 
L 412.963636 -56.553826 
L 411.272727 -61.38502 
L 409.581818 -79.099399 
L 407.890909 -120.069017 
L 406.2 -124.791032 
L 404.509091 -65.561137 
L 402.818182 -102.08169 
L 401.127273 -83.712234 
L 399.436364 -102.08169 
L 397.745455 -140.103461 
L 396.054545 -98.833599 
L 394.363636 -134.34424 
L 392.672727 -119.632299 
L 390.981818 -65.342778 
L 389.290909 -54.015402 
L 387.6 -59.774622 
L 385.909091 -115.237823 
L 384.218182 -94.739366 
L 382.527273 -103.910447 
L 380.836364 -161.993956 
L 379.145455 -118.922632 
L 377.454545 -96.813777 
L 375.763636 -74.077141 
L 374.072727 -177.360975 
L 372.381818 -152.90476 
L 370.690909 -157.326531 
L 369 -210.551552 
L 367.309091 -88.761787 
L 365.618182 -109.123769 
L 363.927273 -163.631649 
L 362.236364 -105.466255 
L 360.545455 -99.78892 
L 358.854545 -118.29485 
L 357.163636 -150.475516 
L 355.472727 -116.875516 
L 353.781818 -86.496312 
L 352.090909 -112.017027 
L 350.4 -148.810528 
L 348.709091 -99.461381 
L 347.018182 -92.064468 
L 345.327273 -92.664955 
L 343.636364 -135.68169 
L 341.945455 -83.794119 
L 340.254545 -83.111747 
L 338.563636 -112.672104 
L 336.872727 -136.828075 
L 335.181818 -90.208416 
L 333.490909 -79.699886 
L 331.8 -85.841235 
L 330.109091 -140.512884 
L 328.418182 -109.096474 
L 326.727273 -160.902161 
L 325.036364 -132.897612 
L 323.345455 -166.279253 
L 321.654545 -139.284614 
L 319.963636 -165.569586 
L 318.272727 -116.493387 
L 316.581818 -75.905898 
L 314.890909 -85.404517 
L 313.2 -179.380796 
L 311.509091 -110.597693 
L 309.818182 -92.282827 
L 308.127273 -87.724582 
L 306.436364 -84.885914 
L 304.745455 -114.71922 
L 303.054545 -81.17381 
L 301.363636 -102.108985 
L 299.672727 -83.684939 
L 297.981818 -86.387132 
L 296.290909 -63.814265 
L 294.6 -137.292088 
L 292.909091 -81.282989 
L 291.218182 -149.875028 
L 289.527273 -53.578684 
L 287.836364 -58.546353 
L 286.145455 -73.01264 
L 284.454545 -86.414427 
L 282.763636 -95.776572 
L 281.072727 -52.950902 
L 279.381818 -55.6258 
L 277.690909 -54.725069 
L 276 -129.240097 
L 274.309091 -142.641885 
L 272.618182 -55.352851 
L 270.927273 -98.45147 
L 269.236364 -71.183883 
L 267.545455 -69.928318 
L 265.854545 -46.181771 
L 264.163636 -100.007279 
L 262.472727 -103.309959 
L 260.781818 -115.155938 
L 259.090909 -136.445946 
L 257.4 -178.50736 
L 255.709091 -202.554151 
L 254.018182 -200.889163 
L 252.327273 -198.896637 
L 250.636364 -140.895012 
L 248.945455 -178.125232 
L 247.254545 -103.719383 
L 245.563636 -88.21589 
L 243.872727 -63.541316 
L 242.181818 -133.22515 
L 240.490909 -51.449683 
L 238.8 -169.609228 
L 237.109091 -117.612478 
L 235.418182 -142.014102 
L 233.727273 -129.513046 
L 232.036364 -91.709634 
L 230.345455 -123.480877 
L 228.654545 -85.240747 
L 226.963636 -73.394768 
L 225.272727 -104.783883 
L 223.581818 -76.397206 
L 221.890909 -62.940829 
L 220.2 -70.71987 
L 218.509091 -53.223851 
L 216.818182 -143.406141 
L 215.127273 -151.540016 
L 213.436364 -138.520357 
L 211.745455 -128.58502 
L 210.054545 -175.968936 
L 208.363636 -131.560162 
L 206.672727 -135.68169 
L 204.981818 -168.653907 
L 203.290909 -188.579171 
L 201.6 -104.128806 
L 199.909091 -112.071617 
L 198.218182 -106.912884 
L 196.527273 -137.892575 
L 194.836364 -91.327506 
L 193.145455 -103.828562 
L 191.454545 -107.431487 
L 189.763636 -99.406791 
L 188.072727 -152.659106 
L 186.381818 -115.292413 
L 184.690909 -119.113696 
L 183 -127.356751 
L 181.309091 -175.068205 
L 179.618182 -169.308985 
L 177.927273 -171.165037 
L 176.236364 -177.552039 
L 174.545455 -236.727344 
L 172.854545 -165.951714 
L 171.163636 -169.17251 
L 169.472727 -170.045946 
L 167.781818 -239.429537 
L 166.090909 -163.113046 
L 164.4 -170.100536 
L 162.709091 -169.636523 
L 161.018182 -193.656019 
L 159.327273 -51.558863 
L 157.636364 -84.421901 
L 155.945455 -125.992006 
L 154.254545 -63.432136 
L 152.563636 -91.900699 
L 150.872727 -78.908335 
L 149.181818 -116.247734 
L 147.490909 -145.889976 
L 145.8 -161.12052 
L 144.109091 -160.492738 
L 142.418182 -225.509147 
L 140.727273 -149.875028 
L 139.036364 -164.778034 
L 137.345455 -192.345865 
L 135.654545 -242.104435 
L 133.963636 -187.296312 
L 132.272727 -167.862356 
L 130.581818 -182.847246 
L 128.890909 -195.321007 
L 127.2 -143.897449 
L 125.509091 -105.54814 
L 123.818182 -75.087051 
L 122.127273 -93.210853 
L 120.436364 -54.670479 
L 118.745455 -45.553989 
L 117.054545 -46.536604 
L 115.363636 -58.273404 
z
" style="stroke: #008000; stroke-width: 0.5"/>
    </defs>
    <g clip-path="url(#p2c28068c62)">
     <use xlink:href="#m0094e2b92e" x="0" y="288" style="fill: #008000; stroke: #008000; stroke-width: 0.5"/>
    </g>
   </g>
   <g id="line2d_28">
    <path d="M 90 44.64 
L 648 44.64 
" clip-path="url(#p2c28068c62)" style="fill: none; stroke: #000000; stroke-width: 1.5; stroke-linecap: square"/>
   </g>
   <g id="line2d_29">
    <path d="M 90 168.340406 
L 648 168.340406 
" clip-path="url(#p2c28068c62)" style="fill: none; stroke: #000000; stroke-width: 1.5; stroke-linecap: square"/>
   </g>
   <g id="patch_3">
    <path d="M 90 256.32 
L 90 34.56 
" style="fill: none; stroke: #000000; stroke-width: 0.8; stroke-linejoin: miter; stroke-linecap: square"/>
   </g>
   <g id="patch_4">
    <path d="M 648 256.32 
L 648 34.56 
" style="fill: none; stroke: #000000; stroke-width: 0.8; stroke-linejoin: miter; stroke-linecap: square"/>
   </g>
   <g id="patch_5">
    <path d="M 90 256.32 
L 648 256.32 
" style="fill: none; stroke: #000000; stroke-width: 0.8; stroke-linejoin: miter; stroke-linecap: square"/>
   </g>
   <g id="patch_6">
    <path d="M 90 34.56 
L 648 34.56 
" style="fill: none; stroke: #000000; stroke-width: 0.8; stroke-linejoin: miter; stroke-linecap: square"/>
   </g>
   <g id="text_22">
    <!-- peak (7,386) -->
    <g transform="translate(122.179233 41.3136) scale(0.1 -0.1)">
     <defs>
      <path id="DejaVuSans-Bold-70" d="M 1656 506 
L 1656 -1331 
L 538 -1331 
L 538 3500 
L 1656 3500 
L 1656 2988 
Q 1888 3294 2169 3439 
Q 2450 3584 2816 3584 
Q 3463 3584 3878 3070 
Q 4294 2556 4294 1747 
Q 4294 938 3878 423 
Q 3463 -91 2816 -91 
Q 2450 -91 2169 54 
Q 1888 200 1656 506 
z
M 2400 2772 
Q 2041 2772 1848 2508 
Q 1656 2244 1656 1747 
Q 1656 1250 1848 986 
Q 2041 722 2400 722 
Q 2759 722 2948 984 
Q 3138 1247 3138 1747 
Q 3138 2247 2948 2509 
Q 2759 2772 2400 2772 
z
" transform="scale(0.015625)"/>
      <path id="DejaVuSans-Bold-65" d="M 4031 1759 
L 4031 1441 
L 1416 1441 
Q 1456 1047 1700 850 
Q 1944 653 2381 653 
Q 2734 653 3104 758 
Q 3475 863 3866 1075 
L 3866 213 
Q 3469 63 3072 -14 
Q 2675 -91 2278 -91 
Q 1328 -91 801 392 
Q 275 875 275 1747 
Q 275 2603 792 3093 
Q 1309 3584 2216 3584 
Q 3041 3584 3536 3087 
Q 4031 2591 4031 1759 
z
M 2881 2131 
Q 2881 2450 2695 2645 
Q 2509 2841 2209 2841 
Q 1884 2841 1681 2658 
Q 1478 2475 1428 2131 
L 2881 2131 
z
" transform="scale(0.015625)"/>
      <path id="DejaVuSans-Bold-61" d="M 2106 1575 
Q 1756 1575 1579 1456 
Q 1403 1338 1403 1106 
Q 1403 894 1545 773 
Q 1688 653 1941 653 
Q 2256 653 2472 879 
Q 2688 1106 2688 1447 
L 2688 1575 
L 2106 1575 
z
M 3816 1997 
L 3816 0 
L 2688 0 
L 2688 519 
Q 2463 200 2181 54 
Q 1900 -91 1497 -91 
Q 953 -91 614 226 
Q 275 544 275 1050 
Q 275 1666 698 1953 
Q 1122 2241 2028 2241 
L 2688 2241 
L 2688 2328 
Q 2688 2594 2478 2717 
Q 2269 2841 1825 2841 
Q 1466 2841 1156 2769 
Q 847 2697 581 2553 
L 581 3406 
Q 941 3494 1303 3539 
Q 1666 3584 2028 3584 
Q 2975 3584 3395 3211 
Q 3816 2838 3816 1997 
z
" transform="scale(0.015625)"/>
      <path id="DejaVuSans-Bold-6b" d="M 538 4863 
L 1656 4863 
L 1656 2216 
L 2944 3500 
L 4244 3500 
L 2534 1894 
L 4378 0 
L 3022 0 
L 1656 1459 
L 1656 0 
L 538 0 
L 538 4863 
z
" transform="scale(0.015625)"/>
      <path id="DejaVuSans-Bold-20" transform="scale(0.015625)"/>
      <path id="DejaVuSans-Bold-28" d="M 2413 -844 
L 1484 -844 
Q 1006 -72 778 623 
Q 550 1319 550 2003 
Q 550 2688 779 3389 
Q 1009 4091 1484 4856 
L 2413 4856 
Q 2013 4116 1813 3408 
Q 1613 2700 1613 2009 
Q 1613 1319 1811 609 
Q 2009 -100 2413 -844 
z
" transform="scale(0.015625)"/>
      <path id="DejaVuSans-Bold-37" d="M 428 4666 
L 3944 4666 
L 3944 3988 
L 2125 0 
L 953 0 
L 2675 3781 
L 428 3781 
L 428 4666 
z
" transform="scale(0.015625)"/>
      <path id="DejaVuSans-Bold-2c" d="M 653 1209 
L 1778 1209 
L 1778 256 
L 1006 -909 
L 341 -909 
L 653 256 
L 653 1209 
z
" transform="scale(0.015625)"/>
      <path id="DejaVuSans-Bold-33" d="M 2981 2516 
Q 3453 2394 3698 2092 
Q 3944 1791 3944 1325 
Q 3944 631 3412 270 
Q 2881 -91 1863 -91 
Q 1503 -91 1142 -33 
Q 781 25 428 141 
L 428 1069 
Q 766 900 1098 814 
Q 1431 728 1753 728 
Q 2231 728 2486 893 
Q 2741 1059 2741 1369 
Q 2741 1688 2480 1852 
Q 2219 2016 1709 2016 
L 1228 2016 
L 1228 2791 
L 1734 2791 
Q 2188 2791 2409 2933 
Q 2631 3075 2631 3366 
Q 2631 3634 2415 3781 
Q 2200 3928 1806 3928 
Q 1516 3928 1219 3862 
Q 922 3797 628 3669 
L 628 4550 
Q 984 4650 1334 4700 
Q 1684 4750 2022 4750 
Q 2931 4750 3382 4451 
Q 3834 4153 3834 3553 
Q 3834 3144 3618 2883 
Q 3403 2622 2981 2516 
z
" transform="scale(0.015625)"/>
      <path id="DejaVuSans-Bold-38" d="M 2228 2088 
Q 1891 2088 1709 1903 
Q 1528 1719 1528 1375 
Q 1528 1031 1709 848 
Q 1891 666 2228 666 
Q 2563 666 2741 848 
Q 2919 1031 2919 1375 
Q 2919 1722 2741 1905 
Q 2563 2088 2228 2088 
z
M 1350 2484 
Q 925 2613 709 2878 
Q 494 3144 494 3541 
Q 494 4131 934 4440 
Q 1375 4750 2228 4750 
Q 3075 4750 3515 4442 
Q 3956 4134 3956 3541 
Q 3956 3144 3739 2878 
Q 3522 2613 3097 2484 
Q 3572 2353 3814 2058 
Q 4056 1763 4056 1313 
Q 4056 619 3595 264 
Q 3134 -91 2228 -91 
Q 1319 -91 855 264 
Q 391 619 391 1313 
Q 391 1763 633 2058 
Q 875 2353 1350 2484 
z
M 1631 3419 
Q 1631 3141 1786 2991 
Q 1941 2841 2228 2841 
Q 2509 2841 2662 2991 
Q 2816 3141 2816 3419 
Q 2816 3697 2662 3845 
Q 2509 3994 2228 3994 
Q 1941 3994 1786 3844 
Q 1631 3694 1631 3419 
z
" transform="scale(0.015625)"/>
      <path id="DejaVuSans-Bold-36" d="M 2316 2303 
Q 2000 2303 1842 2098 
Q 1684 1894 1684 1484 
Q 1684 1075 1842 870 
Q 2000 666 2316 666 
Q 2634 666 2792 870 
Q 2950 1075 2950 1484 
Q 2950 1894 2792 2098 
Q 2634 2303 2316 2303 
z
M 3803 4544 
L 3803 3681 
Q 3506 3822 3243 3889 
Q 2981 3956 2731 3956 
Q 2194 3956 1894 3657 
Q 1594 3359 1544 2772 
Q 1750 2925 1990 3001 
Q 2231 3078 2516 3078 
Q 3231 3078 3670 2659 
Q 4109 2241 4109 1563 
Q 4109 813 3618 361 
Q 3128 -91 2303 -91 
Q 1394 -91 895 523 
Q 397 1138 397 2266 
Q 397 3422 980 4083 
Q 1563 4744 2578 4744 
Q 2900 4744 3203 4694 
Q 3506 4644 3803 4544 
z
" transform="scale(0.015625)"/>
      <path id="DejaVuSans-Bold-29" d="M 513 -844 
Q 913 -100 1113 609 
Q 1313 1319 1313 2009 
Q 1313 2700 1113 3408 
Q 913 4116 513 4856 
L 1441 4856 
Q 1916 4091 2145 3389 
Q 2375 2688 2375 2003 
Q 2375 1319 2147 623 
Q 1919 -72 1441 -844 
L 513 -844 
z
" transform="scale(0.015625)"/>
     </defs>
     <use xlink:href="#DejaVuSans-Bold-70"/>
     <use xlink:href="#DejaVuSans-Bold-65" x="71.582031"/>
     <use xlink:href="#DejaVuSans-Bold-61" x="139.404297"/>
     <use xlink:href="#DejaVuSans-Bold-6b" x="206.884766"/>
     <use xlink:href="#DejaVuSans-Bold-20" x="273.388672"/>
     <use xlink:href="#DejaVuSans-Bold-28" x="308.203125"/>
     <use xlink:href="#DejaVuSans-Bold-37" x="353.90625"/>
     <use xlink:href="#DejaVuSans-Bold-2c" x="423.486328"/>
     <use xlink:href="#DejaVuSans-Bold-33" x="461.474609"/>
     <use xlink:href="#DejaVuSans-Bold-38" x="531.054688"/>
     <use xlink:href="#DejaVuSans-Bold-36" x="600.634766"/>
     <use xlink:href="#DejaVuSans-Bold-29" x="670.214844"/>
    </g>
   </g>
   <g id="text_23">
    <!-- mean (2,854) -->
    <g transform="translate(567.728153 165.014006) scale(0.1 -0.1)">
     <defs>
      <path id="DejaVuSans-Bold-6d" d="M 3781 2919 
Q 3994 3244 4286 3414 
Q 4578 3584 4928 3584 
Q 5531 3584 5847 3212 
Q 6163 2841 6163 2131 
L 6163 0 
L 5038 0 
L 5038 1825 
Q 5041 1866 5042 1909 
Q 5044 1953 5044 2034 
Q 5044 2406 4934 2573 
Q 4825 2741 4581 2741 
Q 4263 2741 4089 2478 
Q 3916 2216 3909 1719 
L 3909 0 
L 2784 0 
L 2784 1825 
Q 2784 2406 2684 2573 
Q 2584 2741 2328 2741 
Q 2006 2741 1831 2477 
Q 1656 2213 1656 1722 
L 1656 0 
L 531 0 
L 531 3500 
L 1656 3500 
L 1656 2988 
Q 1863 3284 2130 3434 
Q 2397 3584 2719 3584 
Q 3081 3584 3359 3409 
Q 3638 3234 3781 2919 
z
" transform="scale(0.015625)"/>
      <path id="DejaVuSans-Bold-6e" d="M 4056 2131 
L 4056 0 
L 2931 0 
L 2931 347 
L 2931 1631 
Q 2931 2084 2911 2256 
Q 2891 2428 2841 2509 
Q 2775 2619 2662 2680 
Q 2550 2741 2406 2741 
Q 2056 2741 1856 2470 
Q 1656 2200 1656 1722 
L 1656 0 
L 538 0 
L 538 3500 
L 1656 3500 
L 1656 2988 
Q 1909 3294 2193 3439 
Q 2478 3584 2822 3584 
Q 3428 3584 3742 3212 
Q 4056 2841 4056 2131 
z
" transform="scale(0.015625)"/>
      <path id="DejaVuSans-Bold-32" d="M 1844 884 
L 3897 884 
L 3897 0 
L 506 0 
L 506 884 
L 2209 2388 
Q 2438 2594 2547 2791 
Q 2656 2988 2656 3200 
Q 2656 3528 2436 3728 
Q 2216 3928 1850 3928 
Q 1569 3928 1234 3808 
Q 900 3688 519 3450 
L 519 4475 
Q 925 4609 1322 4679 
Q 1719 4750 2100 4750 
Q 2938 4750 3402 4381 
Q 3866 4013 3866 3353 
Q 3866 2972 3669 2642 
Q 3472 2313 2841 1759 
L 1844 884 
z
" transform="scale(0.015625)"/>
      <path id="DejaVuSans-Bold-35" d="M 678 4666 
L 3669 4666 
L 3669 3781 
L 1638 3781 
L 1638 3059 
Q 1775 3097 1914 3117 
Q 2053 3138 2203 3138 
Q 3056 3138 3531 2711 
Q 4006 2284 4006 1522 
Q 4006 766 3489 337 
Q 2972 -91 2053 -91 
Q 1656 -91 1267 -14 
Q 878 63 494 219 
L 494 1166 
Q 875 947 1217 837 
Q 1559 728 1863 728 
Q 2300 728 2551 942 
Q 2803 1156 2803 1522 
Q 2803 1891 2551 2103 
Q 2300 2316 1863 2316 
Q 1603 2316 1309 2248 
Q 1016 2181 678 2041 
L 678 4666 
z
" transform="scale(0.015625)"/>
      <path id="DejaVuSans-Bold-34" d="M 2356 3675 
L 1038 1722 
L 2356 1722 
L 2356 3675 
z
M 2156 4666 
L 3494 4666 
L 3494 1722 
L 4159 1722 
L 4159 850 
L 3494 850 
L 3494 0 
L 2356 0 
L 2356 850 
L 288 850 
L 288 1881 
L 2156 4666 
z
" transform="scale(0.015625)"/>
     </defs>
     <use xlink:href="#DejaVuSans-Bold-6d"/>
     <use xlink:href="#DejaVuSans-Bold-65" x="104.199219"/>
     <use xlink:href="#DejaVuSans-Bold-61" x="172.021484"/>
     <use xlink:href="#DejaVuSans-Bold-6e" x="239.501953"/>
     <use xlink:href="#DejaVuSans-Bold-20" x="310.693359"/>
     <use xlink:href="#DejaVuSans-Bold-28" x="345.507812"/>
     <use xlink:href="#DejaVuSans-Bold-32" x="391.210938"/>
     <use xlink:href="#DejaVuSans-Bold-2c" x="460.791016"/>
     <use xlink:href="#DejaVuSans-Bold-38" x="498.779297"/>
     <use xlink:href="#DejaVuSans-Bold-35" x="568.359375"/>
     <use xlink:href="#DejaVuSans-Bold-34" x="637.939453"/>
     <use xlink:href="#DejaVuSans-Bold-29" x="707.519531"/>
    </g>
   </g>
   <g id="text_24">
    <!-- Stream Bitrate over Time -->
    <g transform="translate(293.189062 28.56) scale(0.12 -0.12)">
     <defs>
      <path id="DejaVuSans-53" d="M 3425 4513 
L 3425 3897 
Q 3066 4069 2747 4153 
Q 2428 4238 2131 4238 
Q 1616 4238 1336 4038 
Q 1056 3838 1056 3469 
Q 1056 3159 1242 3001 
Q 1428 2844 1947 2747 
L 2328 2669 
Q 3034 2534 3370 2195 
Q 3706 1856 3706 1288 
Q 3706 609 3251 259 
Q 2797 -91 1919 -91 
Q 1588 -91 1214 -16 
Q 841 59 441 206 
L 441 856 
Q 825 641 1194 531 
Q 1563 422 1919 422 
Q 2459 422 2753 634 
Q 3047 847 3047 1241 
Q 3047 1584 2836 1778 
Q 2625 1972 2144 2069 
L 1759 2144 
Q 1053 2284 737 2584 
Q 422 2884 422 3419 
Q 422 4038 858 4394 
Q 1294 4750 2059 4750 
Q 2388 4750 2728 4690 
Q 3069 4631 3425 4513 
z
" transform="scale(0.015625)"/>
      <path id="DejaVuSans-6f" d="M 1959 3097 
Q 1497 3097 1228 2736 
Q 959 2375 959 1747 
Q 959 1119 1226 758 
Q 1494 397 1959 397 
Q 2419 397 2687 759 
Q 2956 1122 2956 1747 
Q 2956 2369 2687 2733 
Q 2419 3097 1959 3097 
z
M 1959 3584 
Q 2709 3584 3137 3096 
Q 3566 2609 3566 1747 
Q 3566 888 3137 398 
Q 2709 -91 1959 -91 
Q 1206 -91 779 398 
Q 353 888 353 1747 
Q 353 2609 779 3096 
Q 1206 3584 1959 3584 
z
" transform="scale(0.015625)"/>
      <path id="DejaVuSans-76" d="M 191 3500 
L 800 3500 
L 1894 563 
L 2988 3500 
L 3597 3500 
L 2284 0 
L 1503 0 
L 191 3500 
z
" transform="scale(0.015625)"/>
     </defs>
     <use xlink:href="#DejaVuSans-53"/>
     <use xlink:href="#DejaVuSans-74" x="63.476562"/>
     <use xlink:href="#DejaVuSans-72" x="102.685547"/>
     <use xlink:href="#DejaVuSans-65" x="141.548828"/>
     <use xlink:href="#DejaVuSans-61" x="203.072266"/>
     <use xlink:href="#DejaVuSans-6d" x="264.351562"/>
     <use xlink:href="#DejaVuSans-20" x="361.763672"/>
     <use xlink:href="#DejaVuSans-42" x="393.550781"/>
     <use xlink:href="#DejaVuSans-69" x="462.154297"/>
     <use xlink:href="#DejaVuSans-74" x="489.9375"/>
     <use xlink:href="#DejaVuSans-72" x="529.146484"/>
     <use xlink:href="#DejaVuSans-61" x="570.259766"/>
     <use xlink:href="#DejaVuSans-74" x="631.539062"/>
     <use xlink:href="#DejaVuSans-65" x="670.748047"/>
     <use xlink:href="#DejaVuSans-20" x="732.271484"/>
     <use xlink:href="#DejaVuSans-6f" x="764.058594"/>
     <use xlink:href="#DejaVuSans-76" x="825.240234"/>
     <use xlink:href="#DejaVuSans-65" x="884.419922"/>
     <use xlink:href="#DejaVuSans-72" x="945.943359"/>
     <use xlink:href="#DejaVuSans-20" x="987.056641"/>
     <use xlink:href="#DejaVuSans-54" x="1018.84375"/>
     <use xlink:href="#DejaVuSans-69" x="1076.802734"/>
     <use xlink:href="#DejaVuSans-6d" x="1104.585938"/>
     <use xlink:href="#DejaVuSans-65" x="1201.998047"/>
    </g>
   </g>
   <g id="legend_1">
    <g id="patch_7">
     <path d="M 602.139063 86.594375 
L 641 86.594375 
Q 643 86.594375 643 84.594375 
L 643 41.56 
Q 643 39.56 641 39.56 
L 602.139063 39.56 
Q 600.139063 39.56 600.139063 41.56 
L 600.139063 84.594375 
Q 600.139063 86.594375 602.139063 86.594375 
z
" style="fill: #ffffff; opacity: 0.8; stroke: #cccccc; stroke-linejoin: miter"/>
    </g>
    <g id="patch_8">
     <path d="M 604.139063 51.158438 
L 624.139063 51.158438 
L 624.139063 44.158438 
L 604.139063 44.158438 
z
" style="fill: #ff0000; stroke: #ff0000; stroke-width: 0.5; stroke-linejoin: miter"/>
    </g>
    <g id="text_25">
     <!-- I -->
     <g transform="translate(632.139063 51.158438) scale(0.1 -0.1)">
      <defs>
       <path id="DejaVuSans-49" d="M 628 4666 
L 1259 4666 
L 1259 0 
L 628 0 
L 628 4666 
z
" transform="scale(0.015625)"/>
      </defs>
      <use xlink:href="#DejaVuSans-49"/>
     </g>
    </g>
    <g id="patch_9">
     <path d="M 604.139063 65.836563 
L 624.139063 65.836563 
L 624.139063 58.836563 
L 604.139063 58.836563 
z
" style="fill: #0000ff; stroke: #0000ff; stroke-width: 0.5; stroke-linejoin: miter"/>
    </g>
    <g id="text_26">
     <!-- B -->
     <g transform="translate(632.139063 65.836563) scale(0.1 -0.1)">
      <use xlink:href="#DejaVuSans-42"/>
     </g>
    </g>
    <g id="patch_10">
     <path d="M 604.139063 80.514688 
L 624.139063 80.514688 
L 624.139063 73.514688 
L 604.139063 73.514688 
z
" style="fill: #008000; stroke: #008000; stroke-width: 0.5; stroke-linejoin: miter"/>
    </g>
    <g id="text_27">
     <!-- P -->
     <g transform="translate(632.139063 80.514688) scale(0.1 -0.1)">
      <defs>
       <path id="DejaVuSans-50" d="M 1259 4147 
L 1259 2394 
L 2053 2394 
Q 2494 2394 2734 2622 
Q 2975 2850 2975 3272 
Q 2975 3691 2734 3919 
Q 2494 4147 2053 4147 
L 1259 4147 
z
M 628 4666 
L 2053 4666 
Q 2838 4666 3239 4311 
Q 3641 3956 3641 3272 
Q 3641 2581 3239 2228 
Q 2838 1875 2053 1875 
L 1259 1875 
L 1259 0 
L 628 0 
L 628 4666 
z
" transform="scale(0.015625)"/>
      </defs>
      <use xlink:href="#DejaVuSans-50"/>
     </g>
    </g>
   </g>
  </g>
 </g>
 <defs>
  <clipPath id="p2c28068c62">
   <rect x="90" y="34.56" width="558" height="221.76"/>
  </clipPath>
 </defs>
</svg>
