<?xml version="1.0" encoding="utf-8" standalone="no"?>
<!DOCTYPE svg PUBLIC "-//W3C//DTD SVG 1.1//EN"
  "http://www.w3.org/Graphics/SVG/1.1/DTD/svg11.dtd">
<svg xmlns:xlink="http://www.w3.org/1999/xlink" width="720pt" height="288pt" viewBox="0 0 720 288" xmlns="http://www.w3.org/2000/svg" version="1.1">
 <metadata>
  <rdf:RDF xmlns:dc="http://purl.org/dc/elements/1.1/" xmlns:cc="http://creativecommons.org/ns#" xmlns:rdf="http://www.w3.org/1999/02/22-rdf-syntax-ns#">
   <cc:Work>
    <dc:type rdf:resource="http://purl.org/dc/dcmitype/StillImage"/>
    <dc:date>2023-05-07T02:09:30.509981</dc:date>
    <dc:format>image/svg+xml</dc:format>
    <dc:creator>
     <cc:Agent>
      <dc:title>Matplotlib v3.7.1, https://matplotlib.org/</dc:title>
     </cc:Agent>
    </dc:creator>
   </cc:Work>
  </rdf:RDF>
 </metadata>
 <defs>
  <style type="text/css">*{stroke-linejoin: round; stroke-linecap: butt}</style>
 </defs>
 <g id="figure_1">
  <g id="patch_1">
   <path d="M 0 288 
L 720 288 
L 720 0 
L 0 0 
z
" style="fill: #ffffff"/>
  </g>
  <g id="axes_1">
   <g id="patch_2">
    <path d="M 90 256.32 
L 648 256.32 
L 648 34.56 
L 90 34.56 
z
" style="fill: #ffffff"/>
   </g>
   <g id="matplotlib.axis_1">
    <g id="xtick_1">
     <g id="line2d_1">
      <defs>
       <path id="mff71aa2ea4" d="M 0 0 
L 0 3.5 
" style="stroke: #000000; stroke-width: 0.8"/>
      </defs>
      <g>
       <use xlink:href="#mff71aa2ea4" x="115.363636" y="256.32" style="stroke: #000000; stroke-width: 0.8"/>
      </g>
     </g>
     <g id="text_1">
      <!-- 0:00:00 -->
      <g transform="translate(96.088636 270.918437) scale(0.1 -0.1)">
       <defs>
        <path id="DejaVuSans-30" d="M 2034 4250 
Q 1547 4250 1301 3770 
Q 1056 3291 1056 2328 
Q 1056 1369 1301 889 
Q 1547 409 2034 409 
Q 2525 409 2770 889 
Q 3016 1369 3016 2328 
Q 3016 3291 2770 3770 
Q 2525 4250 2034 4250 
z
M 2034 4750 
Q 2819 4750 3233 4129 
Q 3647 3509 3647 2328 
Q 3647 1150 3233 529 
Q 2819 -91 2034 -91 
Q 1250 -91 836 529 
Q 422 1150 422 2328 
Q 422 3509 836 4129 
Q 1250 4750 2034 4750 
z
" transform="scale(0.015625)"/>
        <path id="DejaVuSans-3a" d="M 750 794 
L 1409 794 
L 1409 0 
L 750 0 
L 750 794 
z
M 750 3309 
L 1409 3309 
L 1409 2516 
L 750 2516 
L 750 3309 
z
" transform="scale(0.015625)"/>
       </defs>
       <use xlink:href="#DejaVuSans-30"/>
       <use xlink:href="#DejaVuSans-3a" x="63.623047"/>
       <use xlink:href="#DejaVuSans-30" x="97.314453"/>
       <use xlink:href="#DejaVuSans-30" x="160.9375"/>
       <use xlink:href="#DejaVuSans-3a" x="224.560547"/>
       <use xlink:href="#DejaVuSans-30" x="258.251953"/>
       <use xlink:href="#DejaVuSans-30" x="321.875"/>
      </g>
     </g>
    </g>
    <g id="xtick_2">
     <g id="line2d_2">
      <g>
       <use xlink:href="#mff71aa2ea4" x="166.090909" y="256.32" style="stroke: #000000; stroke-width: 0.8"/>
      </g>
     </g>
     <g id="text_2">
      <!-- 0:00:30 -->
      <g transform="translate(146.815909 270.918437) scale(0.1 -0.1)">
       <defs>
        <path id="DejaVuSans-33" d="M 2597 2516 
Q 3050 2419 3304 2112 
Q 3559 1806 3559 1356 
Q 3559 666 3084 287 
Q 2609 -91 1734 -91 
Q 1441 -91 1130 -33 
Q 819 25 488 141 
L 488 750 
Q 750 597 1062 519 
Q 1375 441 1716 441 
Q 2309 441 2620 675 
Q 2931 909 2931 1356 
Q 2931 1769 2642 2001 
Q 2353 2234 1838 2234 
L 1294 2234 
L 1294 2753 
L 1863 2753 
Q 2328 2753 2575 2939 
Q 2822 3125 2822 3475 
Q 2822 3834 2567 4026 
Q 2313 4219 1838 4219 
Q 1578 4219 1281 4162 
Q 984 4106 628 3988 
L 628 4550 
Q 988 4650 1302 4700 
Q 1616 4750 1894 4750 
Q 2613 4750 3031 4423 
Q 3450 4097 3450 3541 
Q 3450 3153 3228 2886 
Q 3006 2619 2597 2516 
z
" transform="scale(0.015625)"/>
       </defs>
       <use xlink:href="#DejaVuSans-30"/>
       <use xlink:href="#DejaVuSans-3a" x="63.623047"/>
       <use xlink:href="#DejaVuSans-30" x="97.314453"/>
       <use xlink:href="#DejaVuSans-30" x="160.9375"/>
       <use xlink:href="#DejaVuSans-3a" x="224.560547"/>
       <use xlink:href="#DejaVuSans-33" x="258.251953"/>
       <use xlink:href="#DejaVuSans-30" x="321.875"/>
      </g>
     </g>
    </g>
    <g id="xtick_3">
     <g id="line2d_3">
      <g>
       <use xlink:href="#mff71aa2ea4" x="216.818182" y="256.32" style="stroke: #000000; stroke-width: 0.8"/>
      </g>
     </g>
     <g id="text_3">
      <!-- 0:01:00 -->
      <g transform="translate(197.543182 270.918437) scale(0.1 -0.1)">
       <defs>
        <path id="DejaVuSans-31" d="M 794 531 
L 1825 531 
L 1825 4091 
L 703 3866 
L 703 4441 
L 1819 4666 
L 2450 4666 
L 2450 531 
L 3481 531 
L 3481 0 
L 794 0 
L 794 531 
z
" transform="scale(0.015625)"/>
       </defs>
       <use xlink:href="#DejaVuSans-30"/>
       <use xlink:href="#DejaVuSans-3a" x="63.623047"/>
       <use xlink:href="#DejaVuSans-30" x="97.314453"/>
       <use xlink:href="#DejaVuSans-31" x="160.9375"/>
       <use xlink:href="#DejaVuSans-3a" x="224.560547"/>
       <use xlink:href="#DejaVuSans-30" x="258.251953"/>
       <use xlink:href="#DejaVuSans-30" x="321.875"/>
      </g>
     </g>
    </g>
    <g id="xtick_4">
     <g id="line2d_4">
      <g>
       <use xlink:href="#mff71aa2ea4" x="267.545455" y="256.32" style="stroke: #000000; stroke-width: 0.8"/>
      </g>
     </g>
     <g id="text_4">
      <!-- 0:01:30 -->
      <g transform="translate(248.270455 270.918437) scale(0.1 -0.1)">
       <use xlink:href="#DejaVuSans-30"/>
       <use xlink:href="#DejaVuSans-3a" x="63.623047"/>
       <use xlink:href="#DejaVuSans-30" x="97.314453"/>
       <use xlink:href="#DejaVuSans-31" x="160.9375"/>
       <use xlink:href="#DejaVuSans-3a" x="224.560547"/>
       <use xlink:href="#DejaVuSans-33" x="258.251953"/>
       <use xlink:href="#DejaVuSans-30" x="321.875"/>
      </g>
     </g>
    </g>
    <g id="xtick_5">
     <g id="line2d_5">
      <g>
       <use xlink:href="#mff71aa2ea4" x="318.272727" y="256.32" style="stroke: #000000; stroke-width: 0.8"/>
      </g>
     </g>
     <g id="text_5">
      <!-- 0:02:00 -->
      <g transform="translate(298.997727 270.918437) scale(0.1 -0.1)">
       <defs>
        <path id="DejaVuSans-32" d="M 1228 531 
L 3431 531 
L 3431 0 
L 469 0 
L 469 531 
Q 828 903 1448 1529 
Q 2069 2156 2228 2338 
Q 2531 2678 2651 2914 
Q 2772 3150 2772 3378 
Q 2772 3750 2511 3984 
Q 2250 4219 1831 4219 
Q 1534 4219 1204 4116 
Q 875 4013 500 3803 
L 500 4441 
Q 881 4594 1212 4672 
Q 1544 4750 1819 4750 
Q 2544 4750 2975 4387 
Q 3406 4025 3406 3419 
Q 3406 3131 3298 2873 
Q 3191 2616 2906 2266 
Q 2828 2175 2409 1742 
Q 1991 1309 1228 531 
z
" transform="scale(0.015625)"/>
       </defs>
       <use xlink:href="#DejaVuSans-30"/>
       <use xlink:href="#DejaVuSans-3a" x="63.623047"/>
       <use xlink:href="#DejaVuSans-30" x="97.314453"/>
       <use xlink:href="#DejaVuSans-32" x="160.9375"/>
       <use xlink:href="#DejaVuSans-3a" x="224.560547"/>
       <use xlink:href="#DejaVuSans-30" x="258.251953"/>
       <use xlink:href="#DejaVuSans-30" x="321.875"/>
      </g>
     </g>
    </g>
    <g id="xtick_6">
     <g id="line2d_6">
      <g>
       <use xlink:href="#mff71aa2ea4" x="369" y="256.32" style="stroke: #000000; stroke-width: 0.8"/>
      </g>
     </g>
     <g id="text_6">
      <!-- 0:02:30 -->
      <g transform="translate(349.725 270.918437) scale(0.1 -0.1)">
       <use xlink:href="#DejaVuSans-30"/>
       <use xlink:href="#DejaVuSans-3a" x="63.623047"/>
       <use xlink:href="#DejaVuSans-30" x="97.314453"/>
       <use xlink:href="#DejaVuSans-32" x="160.9375"/>
       <use xlink:href="#DejaVuSans-3a" x="224.560547"/>
       <use xlink:href="#DejaVuSans-33" x="258.251953"/>
       <use xlink:href="#DejaVuSans-30" x="321.875"/>
      </g>
     </g>
    </g>
    <g id="xtick_7">
     <g id="line2d_7">
      <g>
       <use xlink:href="#mff71aa2ea4" x="419.727273" y="256.32" style="stroke: #000000; stroke-width: 0.8"/>
      </g>
     </g>
     <g id="text_7">
      <!-- 0:03:00 -->
      <g transform="translate(400.452273 270.918437) scale(0.1 -0.1)">
       <use xlink:href="#DejaVuSans-30"/>
       <use xlink:href="#DejaVuSans-3a" x="63.623047"/>
       <use xlink:href="#DejaVuSans-30" x="97.314453"/>
       <use xlink:href="#DejaVuSans-33" x="160.9375"/>
       <use xlink:href="#DejaVuSans-3a" x="224.560547"/>
       <use xlink:href="#DejaVuSans-30" x="258.251953"/>
       <use xlink:href="#DejaVuSans-30" x="321.875"/>
      </g>
     </g>
    </g>
    <g id="xtick_8">
     <g id="line2d_8">
      <g>
       <use xlink:href="#mff71aa2ea4" x="470.454545" y="256.32" style="stroke: #000000; stroke-width: 0.8"/>
      </g>
     </g>
     <g id="text_8">
      <!-- 0:03:30 -->
      <g transform="translate(451.179545 270.918437) scale(0.1 -0.1)">
       <use xlink:href="#DejaVuSans-30"/>
       <use xlink:href="#DejaVuSans-3a" x="63.623047"/>
       <use xlink:href="#DejaVuSans-30" x="97.314453"/>
       <use xlink:href="#DejaVuSans-33" x="160.9375"/>
       <use xlink:href="#DejaVuSans-3a" x="224.560547"/>
       <use xlink:href="#DejaVuSans-33" x="258.251953"/>
       <use xlink:href="#DejaVuSans-30" x="321.875"/>
      </g>
     </g>
    </g>
    <g id="xtick_9">
     <g id="line2d_9">
      <g>
       <use xlink:href="#mff71aa2ea4" x="521.181818" y="256.32" style="stroke: #000000; stroke-width: 0.8"/>
      </g>
     </g>
     <g id="text_9">
      <!-- 0:04:00 -->
      <g transform="translate(501.906818 270.918437) scale(0.1 -0.1)">
       <defs>
        <path id="DejaVuSans-34" d="M 2419 4116 
L 825 1625 
L 2419 1625 
L 2419 4116 
z
M 2253 4666 
L 3047 4666 
L 3047 1625 
L 3713 1625 
L 3713 1100 
L 3047 1100 
L 3047 0 
L 2419 0 
L 2419 1100 
L 313 1100 
L 313 1709 
L 2253 4666 
z
" transform="scale(0.015625)"/>
       </defs>
       <use xlink:href="#DejaVuSans-30"/>
       <use xlink:href="#DejaVuSans-3a" x="63.623047"/>
       <use xlink:href="#DejaVuSans-30" x="97.314453"/>
       <use xlink:href="#DejaVuSans-34" x="160.9375"/>
       <use xlink:href="#DejaVuSans-3a" x="224.560547"/>
       <use xlink:href="#DejaVuSans-30" x="258.251953"/>
       <use xlink:href="#DejaVuSans-30" x="321.875"/>
      </g>
     </g>
    </g>
    <g id="xtick_10">
     <g id="line2d_10">
      <g>
       <use xlink:href="#mff71aa2ea4" x="571.909091" y="256.32" style="stroke: #000000; stroke-width: 0.8"/>
      </g>
     </g>
     <g id="text_10">
      <!-- 0:04:30 -->
      <g transform="translate(552.634091 270.918437) scale(0.1 -0.1)">
       <use xlink:href="#DejaVuSans-30"/>
       <use xlink:href="#DejaVuSans-3a" x="63.623047"/>
       <use xlink:href="#DejaVuSans-30" x="97.314453"/>
       <use xlink:href="#DejaVuSans-34" x="160.9375"/>
       <use xlink:href="#DejaVuSans-3a" x="224.560547"/>
       <use xlink:href="#DejaVuSans-33" x="258.251953"/>
       <use xlink:href="#DejaVuSans-30" x="321.875"/>
      </g>
     </g>
    </g>
    <g id="xtick_11">
     <g id="line2d_11">
      <g>
       <use xlink:href="#mff71aa2ea4" x="622.636364" y="256.32" style="stroke: #000000; stroke-width: 0.8"/>
      </g>
     </g>
     <g id="text_11">
      <!-- 0:05:00 -->
      <g transform="translate(603.361364 270.918437) scale(0.1 -0.1)">
       <defs>
        <path id="DejaVuSans-35" d="M 691 4666 
L 3169 4666 
L 3169 4134 
L 1269 4134 
L 1269 2991 
Q 1406 3038 1543 3061 
Q 1681 3084 1819 3084 
Q 2600 3084 3056 2656 
Q 3513 2228 3513 1497 
Q 3513 744 3044 326 
Q 2575 -91 1722 -91 
Q 1428 -91 1123 -41 
Q 819 9 494 109 
L 494 744 
Q 775 591 1075 516 
Q 1375 441 1709 441 
Q 2250 441 2565 725 
Q 2881 1009 2881 1497 
Q 2881 1984 2565 2268 
Q 2250 2553 1709 2553 
Q 1456 2553 1204 2497 
Q 953 2441 691 2322 
L 691 4666 
z
" transform="scale(0.015625)"/>
       </defs>
       <use xlink:href="#DejaVuSans-30"/>
       <use xlink:href="#DejaVuSans-3a" x="63.623047"/>
       <use xlink:href="#DejaVuSans-30" x="97.314453"/>
       <use xlink:href="#DejaVuSans-35" x="160.9375"/>
       <use xlink:href="#DejaVuSans-3a" x="224.560547"/>
       <use xlink:href="#DejaVuSans-30" x="258.251953"/>
       <use xlink:href="#DejaVuSans-30" x="321.875"/>
      </g>
     </g>
    </g>
    <g id="text_12">
     <!-- Time -->
     <g transform="translate(356.766406 284.596563) scale(0.1 -0.1)">
      <defs>
       <path id="DejaVuSans-54" d="M -19 4666 
L 3928 4666 
L 3928 4134 
L 2272 4134 
L 2272 0 
L 1638 0 
L 1638 4134 
L -19 4134 
L -19 4666 
z
" transform="scale(0.015625)"/>
       <path id="DejaVuSans-69" d="M 603 3500 
L 1178 3500 
L 1178 0 
L 603 0 
L 603 3500 
z
M 603 4863 
L 1178 4863 
L 1178 4134 
L 603 4134 
L 603 4863 
z
" transform="scale(0.015625)"/>
       <path id="DejaVuSans-6d" d="M 3328 2828 
Q 3544 3216 3844 3400 
Q 4144 3584 4550 3584 
Q 5097 3584 5394 3201 
Q 5691 2819 5691 2113 
L 5691 0 
L 5113 0 
L 5113 2094 
Q 5113 2597 4934 2840 
Q 4756 3084 4391 3084 
Q 3944 3084 3684 2787 
Q 3425 2491 3425 1978 
L 3425 0 
L 2847 0 
L 2847 2094 
Q 2847 2600 2669 2842 
Q 2491 3084 2119 3084 
Q 1678 3084 1418 2786 
Q 1159 2488 1159 1978 
L 1159 0 
L 581 0 
L 581 3500 
L 1159 3500 
L 1159 2956 
Q 1356 3278 1631 3431 
Q 1906 3584 2284 3584 
Q 2666 3584 2933 3390 
Q 3200 3197 3328 2828 
z
" transform="scale(0.015625)"/>
       <path id="DejaVuSans-65" d="M 3597 1894 
L 3597 1613 
L 953 1613 
Q 991 1019 1311 708 
Q 1631 397 2203 397 
Q 2534 397 2845 478 
Q 3156 559 3463 722 
L 3463 178 
Q 3153 47 2828 -22 
Q 2503 -91 2169 -91 
Q 1331 -91 842 396 
Q 353 884 353 1716 
Q 353 2575 817 3079 
Q 1281 3584 2069 3584 
Q 2775 3584 3186 3129 
Q 3597 2675 3597 1894 
z
M 3022 2063 
Q 3016 2534 2758 2815 
Q 2500 3097 2075 3097 
Q 1594 3097 1305 2825 
Q 1016 2553 972 2059 
L 3022 2063 
z
" transform="scale(0.015625)"/>
      </defs>
      <use xlink:href="#DejaVuSans-54"/>
      <use xlink:href="#DejaVuSans-69" x="57.958984"/>
      <use xlink:href="#DejaVuSans-6d" x="85.742188"/>
      <use xlink:href="#DejaVuSans-65" x="183.154297"/>
     </g>
    </g>
   </g>
   <g id="matplotlib.axis_2">
    <g id="ytick_1">
     <g id="line2d_12">
      <path d="M 90 246.24 
L 648 246.24 
" clip-path="url(#p3a00a366cb)" style="fill: none; stroke: #b0b0b0; stroke-width: 0.8; stroke-linecap: square"/>
     </g>
     <g id="line2d_13">
      <defs>
       <path id="mde6cd8164d" d="M 0 0 
L -3.5 0 
" style="stroke: #000000; stroke-width: 0.8"/>
      </defs>
      <g>
       <use xlink:href="#mde6cd8164d" x="90" y="246.24" style="stroke: #000000; stroke-width: 0.8"/>
      </g>
     </g>
     <g id="text_13">
      <!-- 0 -->
      <g transform="translate(76.6375 250.039219) scale(0.1 -0.1)">
       <use xlink:href="#DejaVuSans-30"/>
      </g>
     </g>
    </g>
    <g id="ytick_2">
     <g id="line2d_14">
      <path d="M 90 208.49426 
L 648 208.49426 
" clip-path="url(#p3a00a366cb)" style="fill: none; stroke: #b0b0b0; stroke-width: 0.8; stroke-linecap: square"/>
     </g>
     <g id="line2d_15">
      <g>
       <use xlink:href="#mde6cd8164d" x="90" y="208.49426" style="stroke: #000000; stroke-width: 0.8"/>
      </g>
     </g>
     <g id="text_14">
      <!-- 1,000 -->
      <g transform="translate(54.371875 212.293478) scale(0.1 -0.1)">
       <defs>
        <path id="DejaVuSans-2c" d="M 750 794 
L 1409 794 
L 1409 256 
L 897 -744 
L 494 -744 
L 750 256 
L 750 794 
z
" transform="scale(0.015625)"/>
       </defs>
       <use xlink:href="#DejaVuSans-31"/>
       <use xlink:href="#DejaVuSans-2c" x="63.623047"/>
       <use xlink:href="#DejaVuSans-30" x="95.410156"/>
       <use xlink:href="#DejaVuSans-30" x="159.033203"/>
       <use xlink:href="#DejaVuSans-30" x="222.65625"/>
      </g>
     </g>
    </g>
    <g id="ytick_3">
     <g id="line2d_16">
      <path d="M 90 170.748519 
L 648 170.748519 
" clip-path="url(#p3a00a366cb)" style="fill: none; stroke: #b0b0b0; stroke-width: 0.8; stroke-linecap: square"/>
     </g>
     <g id="line2d_17">
      <g>
       <use xlink:href="#mde6cd8164d" x="90" y="170.748519" style="stroke: #000000; stroke-width: 0.8"/>
      </g>
     </g>
     <g id="text_15">
      <!-- 2,000 -->
      <g transform="translate(54.371875 174.547738) scale(0.1 -0.1)">
       <use xlink:href="#DejaVuSans-32"/>
       <use xlink:href="#DejaVuSans-2c" x="63.623047"/>
       <use xlink:href="#DejaVuSans-30" x="95.410156"/>
       <use xlink:href="#DejaVuSans-30" x="159.033203"/>
       <use xlink:href="#DejaVuSans-30" x="222.65625"/>
      </g>
     </g>
    </g>
    <g id="ytick_4">
     <g id="line2d_18">
      <path d="M 90 133.002779 
L 648 133.002779 
" clip-path="url(#p3a00a366cb)" style="fill: none; stroke: #b0b0b0; stroke-width: 0.8; stroke-linecap: square"/>
     </g>
     <g id="line2d_19">
      <g>
       <use xlink:href="#mde6cd8164d" x="90" y="133.002779" style="stroke: #000000; stroke-width: 0.8"/>
      </g>
     </g>
     <g id="text_16">
      <!-- 3,000 -->
      <g transform="translate(54.371875 136.801997) scale(0.1 -0.1)">
       <use xlink:href="#DejaVuSans-33"/>
       <use xlink:href="#DejaVuSans-2c" x="63.623047"/>
       <use xlink:href="#DejaVuSans-30" x="95.410156"/>
       <use xlink:href="#DejaVuSans-30" x="159.033203"/>
       <use xlink:href="#DejaVuSans-30" x="222.65625"/>
      </g>
     </g>
    </g>
    <g id="ytick_5">
     <g id="line2d_20">
      <path d="M 90 95.257038 
L 648 95.257038 
" clip-path="url(#p3a00a366cb)" style="fill: none; stroke: #b0b0b0; stroke-width: 0.8; stroke-linecap: square"/>
     </g>
     <g id="line2d_21">
      <g>
       <use xlink:href="#mde6cd8164d" x="90" y="95.257038" style="stroke: #000000; stroke-width: 0.8"/>
      </g>
     </g>
     <g id="text_17">
      <!-- 4,000 -->
      <g transform="translate(54.371875 99.056257) scale(0.1 -0.1)">
       <use xlink:href="#DejaVuSans-34"/>
       <use xlink:href="#DejaVuSans-2c" x="63.623047"/>
       <use xlink:href="#DejaVuSans-30" x="95.410156"/>
       <use xlink:href="#DejaVuSans-30" x="159.033203"/>
       <use xlink:href="#DejaVuSans-30" x="222.65625"/>
      </g>
     </g>
    </g>
    <g id="ytick_6">
     <g id="line2d_22">
      <path d="M 90 57.511298 
L 648 57.511298 
" clip-path="url(#p3a00a366cb)" style="fill: none; stroke: #b0b0b0; stroke-width: 0.8; stroke-linecap: square"/>
     </g>
     <g id="line2d_23">
      <g>
       <use xlink:href="#mde6cd8164d" x="90" y="57.511298" style="stroke: #000000; stroke-width: 0.8"/>
      </g>
     </g>
     <g id="text_18">
      <!-- 5,000 -->
      <g transform="translate(54.371875 61.310516) scale(0.1 -0.1)">
       <use xlink:href="#DejaVuSans-35"/>
       <use xlink:href="#DejaVuSans-2c" x="63.623047"/>
       <use xlink:href="#DejaVuSans-30" x="95.410156"/>
       <use xlink:href="#DejaVuSans-30" x="159.033203"/>
       <use xlink:href="#DejaVuSans-30" x="222.65625"/>
      </g>
     </g>
    </g>
    <g id="text_19">
     <!-- Bitrate (kbit/s) -->
     <g transform="translate(48.292187 181.574375) rotate(-90) scale(0.1 -0.1)">
      <defs>
       <path id="DejaVuSans-42" d="M 1259 2228 
L 1259 519 
L 2272 519 
Q 2781 519 3026 730 
Q 3272 941 3272 1375 
Q 3272 1813 3026 2020 
Q 2781 2228 2272 2228 
L 1259 2228 
z
M 1259 4147 
L 1259 2741 
L 2194 2741 
Q 2656 2741 2882 2914 
Q 3109 3088 3109 3444 
Q 3109 3797 2882 3972 
Q 2656 4147 2194 4147 
L 1259 4147 
z
M 628 4666 
L 2241 4666 
Q 2963 4666 3353 4366 
Q 3744 4066 3744 3513 
Q 3744 3084 3544 2831 
Q 3344 2578 2956 2516 
Q 3422 2416 3680 2098 
Q 3938 1781 3938 1306 
Q 3938 681 3513 340 
Q 3088 0 2303 0 
L 628 0 
L 628 4666 
z
" transform="scale(0.015625)"/>
       <path id="DejaVuSans-74" d="M 1172 4494 
L 1172 3500 
L 2356 3500 
L 2356 3053 
L 1172 3053 
L 1172 1153 
Q 1172 725 1289 603 
Q 1406 481 1766 481 
L 2356 481 
L 2356 0 
L 1766 0 
Q 1100 0 847 248 
Q 594 497 594 1153 
L 594 3053 
L 172 3053 
L 172 3500 
L 594 3500 
L 594 4494 
L 1172 4494 
z
" transform="scale(0.015625)"/>
       <path id="DejaVuSans-72" d="M 2631 2963 
Q 2534 3019 2420 3045 
Q 2306 3072 2169 3072 
Q 1681 3072 1420 2755 
Q 1159 2438 1159 1844 
L 1159 0 
L 581 0 
L 581 3500 
L 1159 3500 
L 1159 2956 
Q 1341 3275 1631 3429 
Q 1922 3584 2338 3584 
Q 2397 3584 2469 3576 
Q 2541 3569 2628 3553 
L 2631 2963 
z
" transform="scale(0.015625)"/>
       <path id="DejaVuSans-61" d="M 2194 1759 
Q 1497 1759 1228 1600 
Q 959 1441 959 1056 
Q 959 750 1161 570 
Q 1363 391 1709 391 
Q 2188 391 2477 730 
Q 2766 1069 2766 1631 
L 2766 1759 
L 2194 1759 
z
M 3341 1997 
L 3341 0 
L 2766 0 
L 2766 531 
Q 2569 213 2275 61 
Q 1981 -91 1556 -91 
Q 1019 -91 701 211 
Q 384 513 384 1019 
Q 384 1609 779 1909 
Q 1175 2209 1959 2209 
L 2766 2209 
L 2766 2266 
Q 2766 2663 2505 2880 
Q 2244 3097 1772 3097 
Q 1472 3097 1187 3025 
Q 903 2953 641 2809 
L 641 3341 
Q 956 3463 1253 3523 
Q 1550 3584 1831 3584 
Q 2591 3584 2966 3190 
Q 3341 2797 3341 1997 
z
" transform="scale(0.015625)"/>
       <path id="DejaVuSans-20" transform="scale(0.015625)"/>
       <path id="DejaVuSans-28" d="M 1984 4856 
Q 1566 4138 1362 3434 
Q 1159 2731 1159 2009 
Q 1159 1288 1364 580 
Q 1569 -128 1984 -844 
L 1484 -844 
Q 1016 -109 783 600 
Q 550 1309 550 2009 
Q 550 2706 781 3412 
Q 1013 4119 1484 4856 
L 1984 4856 
z
" transform="scale(0.015625)"/>
       <path id="DejaVuSans-6b" d="M 581 4863 
L 1159 4863 
L 1159 1991 
L 2875 3500 
L 3609 3500 
L 1753 1863 
L 3688 0 
L 2938 0 
L 1159 1709 
L 1159 0 
L 581 0 
L 581 4863 
z
" transform="scale(0.015625)"/>
       <path id="DejaVuSans-62" d="M 3116 1747 
Q 3116 2381 2855 2742 
Q 2594 3103 2138 3103 
Q 1681 3103 1420 2742 
Q 1159 2381 1159 1747 
Q 1159 1113 1420 752 
Q 1681 391 2138 391 
Q 2594 391 2855 752 
Q 3116 1113 3116 1747 
z
M 1159 2969 
Q 1341 3281 1617 3432 
Q 1894 3584 2278 3584 
Q 2916 3584 3314 3078 
Q 3713 2572 3713 1747 
Q 3713 922 3314 415 
Q 2916 -91 2278 -91 
Q 1894 -91 1617 61 
Q 1341 213 1159 525 
L 1159 0 
L 581 0 
L 581 4863 
L 1159 4863 
L 1159 2969 
z
" transform="scale(0.015625)"/>
       <path id="DejaVuSans-2f" d="M 1625 4666 
L 2156 4666 
L 531 -594 
L 0 -594 
L 1625 4666 
z
" transform="scale(0.015625)"/>
       <path id="DejaVuSans-73" d="M 2834 3397 
L 2834 2853 
Q 2591 2978 2328 3040 
Q 2066 3103 1784 3103 
Q 1356 3103 1142 2972 
Q 928 2841 928 2578 
Q 928 2378 1081 2264 
Q 1234 2150 1697 2047 
L 1894 2003 
Q 2506 1872 2764 1633 
Q 3022 1394 3022 966 
Q 3022 478 2636 193 
Q 2250 -91 1575 -91 
Q 1294 -91 989 -36 
Q 684 19 347 128 
L 347 722 
Q 666 556 975 473 
Q 1284 391 1588 391 
Q 1994 391 2212 530 
Q 2431 669 2431 922 
Q 2431 1156 2273 1281 
Q 2116 1406 1581 1522 
L 1381 1569 
Q 847 1681 609 1914 
Q 372 2147 372 2553 
Q 372 3047 722 3315 
Q 1072 3584 1716 3584 
Q 2034 3584 2315 3537 
Q 2597 3491 2834 3397 
z
" transform="scale(0.015625)"/>
       <path id="DejaVuSans-29" d="M 513 4856 
L 1013 4856 
Q 1481 4119 1714 3412 
Q 1947 2706 1947 2009 
Q 1947 1309 1714 600 
Q 1481 -109 1013 -844 
L 513 -844 
Q 928 -128 1133 580 
Q 1338 1288 1338 2009 
Q 1338 2731 1133 3434 
Q 928 4138 513 4856 
z
" transform="scale(0.015625)"/>
      </defs>
      <use xlink:href="#DejaVuSans-42"/>
      <use xlink:href="#DejaVuSans-69" x="68.603516"/>
      <use xlink:href="#DejaVuSans-74" x="96.386719"/>
      <use xlink:href="#DejaVuSans-72" x="135.595703"/>
      <use xlink:href="#DejaVuSans-61" x="176.708984"/>
      <use xlink:href="#DejaVuSans-74" x="237.988281"/>
      <use xlink:href="#DejaVuSans-65" x="277.197266"/>
      <use xlink:href="#DejaVuSans-20" x="338.720703"/>
      <use xlink:href="#DejaVuSans-28" x="370.507812"/>
      <use xlink:href="#DejaVuSans-6b" x="409.521484"/>
      <use xlink:href="#DejaVuSans-62" x="467.431641"/>
      <use xlink:href="#DejaVuSans-69" x="530.908203"/>
      <use xlink:href="#DejaVuSans-74" x="558.691406"/>
      <use xlink:href="#DejaVuSans-2f" x="597.900391"/>
      <use xlink:href="#DejaVuSans-73" x="631.591797"/>
      <use xlink:href="#DejaVuSans-29" x="683.691406"/>
     </g>
    </g>
   </g>
   <g id="PolyCollection_1">
    <defs>
     <path id="m5c4ab48e82" d="M 115.363636 -41.873237 
L 115.363636 -41.76 
L 117.054545 -41.76 
L 118.745455 -41.76 
L 120.436364 -41.76 
L 122.127273 -41.76 
L 123.818182 -41.76 
L 125.509091 -41.76 
L 127.2 -41.76 
L 128.890909 -41.76 
L 130.581818 -41.76 
L 132.272727 -41.76 
L 133.963636 -41.76 
L 135.654545 -41.76 
L 137.345455 -41.76 
L 139.036364 -41.76 
L 140.727273 -41.76 
L 142.418182 -41.76 
L 144.109091 -41.76 
L 145.8 -41.76 
L 147.490909 -41.76 
L 149.181818 -41.76 
L 150.872727 -41.76 
L 152.563636 -41.76 
L 154.254545 -41.76 
L 155.945455 -41.76 
L 157.636364 -41.76 
L 159.327273 -41.76 
L 161.018182 -41.76 
L 162.709091 -41.76 
L 164.4 -41.76 
L 166.090909 -41.76 
L 167.781818 -41.76 
L 169.472727 -41.76 
L 171.163636 -41.76 
L 172.854545 -41.76 
L 174.545455 -41.76 
L 176.236364 -41.76 
L 177.927273 -41.76 
L 179.618182 -41.76 
L 181.309091 -41.76 
L 183 -41.76 
L 184.690909 -41.76 
L 186.381818 -41.76 
L 188.072727 -41.76 
L 189.763636 -41.76 
L 191.454545 -41.76 
L 193.145455 -41.76 
L 194.836364 -41.76 
L 196.527273 -41.76 
L 198.218182 -41.76 
L 199.909091 -41.76 
L 201.6 -41.76 
L 203.290909 -41.76 
L 204.981818 -41.76 
L 206.672727 -41.76 
L 208.363636 -41.76 
L 210.054545 -41.76 
L 211.745455 -41.76 
L 213.436364 -41.76 
L 215.127273 -41.76 
L 216.818182 -41.76 
L 218.509091 -41.76 
L 220.2 -41.76 
L 221.890909 -41.76 
L 223.581818 -41.76 
L 225.272727 -41.76 
L 226.963636 -41.76 
L 228.654545 -41.76 
L 230.345455 -41.76 
L 232.036364 -41.76 
L 233.727273 -41.76 
L 235.418182 -41.76 
L 237.109091 -41.76 
L 238.8 -41.76 
L 240.490909 -41.76 
L 242.181818 -41.76 
L 243.872727 -41.76 
L 245.563636 -41.76 
L 247.254545 -41.76 
L 248.945455 -41.76 
L 250.636364 -41.76 
L 252.327273 -41.76 
L 254.018182 -41.76 
L 255.709091 -41.76 
L 257.4 -41.76 
L 259.090909 -41.76 
L 260.781818 -41.76 
L 262.472727 -41.76 
L 264.163636 -41.76 
L 265.854545 -41.76 
L 267.545455 -41.76 
L 269.236364 -41.76 
L 270.927273 -41.76 
L 272.618182 -41.76 
L 274.309091 -41.76 
L 276 -41.76 
L 277.690909 -41.76 
L 279.381818 -41.76 
L 281.072727 -41.76 
L 282.763636 -41.76 
L 284.454545 -41.76 
L 286.145455 -41.76 
L 287.836364 -41.76 
L 289.527273 -41.76 
L 291.218182 -41.76 
L 292.909091 -41.76 
L 294.6 -41.76 
L 296.290909 -41.76 
L 297.981818 -41.76 
L 299.672727 -41.76 
L 301.363636 -41.76 
L 303.054545 -41.76 
L 304.745455 -41.76 
L 306.436364 -41.76 
L 308.127273 -41.76 
L 309.818182 -41.76 
L 311.509091 -41.76 
L 313.2 -41.76 
L 314.890909 -41.76 
L 316.581818 -41.76 
L 318.272727 -41.76 
L 319.963636 -41.76 
L 321.654545 -41.76 
L 323.345455 -41.76 
L 325.036364 -41.76 
L 326.727273 -41.76 
L 328.418182 -41.76 
L 330.109091 -41.76 
L 331.8 -41.76 
L 333.490909 -41.76 
L 335.181818 -41.76 
L 336.872727 -41.76 
L 338.563636 -41.76 
L 340.254545 -41.76 
L 341.945455 -41.76 
L 343.636364 -41.76 
L 345.327273 -41.76 
L 347.018182 -41.76 
L 348.709091 -41.76 
L 350.4 -41.76 
L 352.090909 -41.76 
L 353.781818 -41.76 
L 355.472727 -41.76 
L 357.163636 -41.76 
L 358.854545 -41.76 
L 360.545455 -41.76 
L 362.236364 -41.76 
L 363.927273 -41.76 
L 365.618182 -41.76 
L 367.309091 -41.76 
L 369 -41.76 
L 370.690909 -41.76 
L 372.381818 -41.76 
L 374.072727 -41.76 
L 375.763636 -41.76 
L 377.454545 -41.76 
L 379.145455 -41.76 
L 380.836364 -41.76 
L 382.527273 -41.76 
L 384.218182 -41.76 
L 385.909091 -41.76 
L 387.6 -41.76 
L 389.290909 -41.76 
L 390.981818 -41.76 
L 392.672727 -41.76 
L 394.363636 -41.76 
L 396.054545 -41.76 
L 397.745455 -41.76 
L 399.436364 -41.76 
L 401.127273 -41.76 
L 402.818182 -41.76 
L 404.509091 -41.76 
L 406.2 -41.76 
L 407.890909 -41.76 
L 409.581818 -41.76 
L 411.272727 -41.76 
L 412.963636 -41.76 
L 414.654545 -41.76 
L 416.345455 -41.76 
L 418.036364 -41.76 
L 419.727273 -41.76 
L 421.418182 -41.76 
L 423.109091 -41.76 
L 424.8 -41.76 
L 426.490909 -41.76 
L 428.181818 -41.76 
L 429.872727 -41.76 
L 431.563636 -41.76 
L 433.254545 -41.76 
L 434.945455 -41.76 
L 436.636364 -41.76 
L 438.327273 -41.76 
L 440.018182 -41.76 
L 441.709091 -41.76 
L 443.4 -41.76 
L 445.090909 -41.76 
L 446.781818 -41.76 
L 448.472727 -41.76 
L 450.163636 -41.76 
L 451.854545 -41.76 
L 453.545455 -41.76 
L 455.236364 -41.76 
L 456.927273 -41.76 
L 458.618182 -41.76 
L 460.309091 -41.76 
L 462 -41.76 
L 463.690909 -41.76 
L 465.381818 -41.76 
L 467.072727 -41.76 
L 468.763636 -41.76 
L 470.454545 -41.76 
L 472.145455 -41.76 
L 473.836364 -41.76 
L 475.527273 -41.76 
L 477.218182 -41.76 
L 478.909091 -41.76 
L 480.6 -41.76 
L 482.290909 -41.76 
L 483.981818 -41.76 
L 485.672727 -41.76 
L 487.363636 -41.76 
L 489.054545 -41.76 
L 490.745455 -41.76 
L 492.436364 -41.76 
L 494.127273 -41.76 
L 495.818182 -41.76 
L 497.509091 -41.76 
L 499.2 -41.76 
L 500.890909 -41.76 
L 502.581818 -41.76 
L 504.272727 -41.76 
L 505.963636 -41.76 
L 507.654545 -41.76 
L 509.345455 -41.76 
L 511.036364 -41.76 
L 512.727273 -41.76 
L 514.418182 -41.76 
L 516.109091 -41.76 
L 517.8 -41.76 
L 519.490909 -41.76 
L 521.181818 -41.76 
L 522.872727 -41.76 
L 524.563636 -41.76 
L 526.254545 -41.76 
L 527.945455 -41.76 
L 529.636364 -41.76 
L 531.327273 -41.76 
L 533.018182 -41.76 
L 534.709091 -41.76 
L 536.4 -41.76 
L 538.090909 -41.76 
L 539.781818 -41.76 
L 541.472727 -41.76 
L 543.163636 -41.76 
L 544.854545 -41.76 
L 546.545455 -41.76 
L 548.236364 -41.76 
L 549.927273 -41.76 
L 551.618182 -41.76 
L 553.309091 -41.76 
L 555 -41.76 
L 556.690909 -41.76 
L 558.381818 -41.76 
L 560.072727 -41.76 
L 561.763636 -41.76 
L 563.454545 -41.76 
L 565.145455 -41.76 
L 566.836364 -41.76 
L 568.527273 -41.76 
L 570.218182 -41.76 
L 571.909091 -41.76 
L 573.6 -41.76 
L 575.290909 -41.76 
L 576.981818 -41.76 
L 578.672727 -41.76 
L 580.363636 -41.76 
L 582.054545 -41.76 
L 583.745455 -41.76 
L 585.436364 -41.76 
L 587.127273 -41.76 
L 588.818182 -41.76 
L 590.509091 -41.76 
L 592.2 -41.76 
L 593.890909 -41.76 
L 595.581818 -41.76 
L 597.272727 -41.76 
L 598.963636 -41.76 
L 600.654545 -41.76 
L 602.345455 -41.76 
L 604.036364 -41.76 
L 605.727273 -41.76 
L 607.418182 -41.76 
L 609.109091 -41.76 
L 610.8 -41.76 
L 612.490909 -41.76 
L 614.181818 -41.76 
L 615.872727 -41.76 
L 617.563636 -41.76 
L 619.254545 -41.76 
L 620.945455 -41.76 
L 622.636364 -41.76 
L 622.636364 -41.76 
L 622.636364 -41.76 
L 620.945455 -67.804561 
L 619.254545 -41.76 
L 617.563636 -41.76 
L 615.872727 -62.897615 
L 614.181818 -41.76 
L 612.490909 -41.76 
L 610.8 -110.608231 
L 609.109091 -41.76 
L 607.418182 -41.76 
L 605.727273 -41.76 
L 604.036364 -109.28713 
L 602.345455 -59.651481 
L 600.654545 -41.76 
L 598.963636 -41.76 
L 597.272727 -41.76 
L 595.581818 -91.508886 
L 593.890909 -41.76 
L 592.2 -99.058034 
L 590.509091 -41.76 
L 588.818182 -53.121468 
L 587.127273 -41.76 
L 585.436364 -107.173368 
L 583.745455 -41.76 
L 582.054545 -41.76 
L 580.363636 -41.76 
L 578.672727 -113.023958 
L 576.981818 -41.76 
L 575.290909 -41.76 
L 573.6 -41.76 
L 571.909091 -69.578611 
L 570.218182 -41.76 
L 568.527273 -75.013997 
L 566.836364 -78.826317 
L 565.145455 -41.76 
L 563.454545 -54.933263 
L 561.763636 -41.76 
L 560.072727 -140.616094 
L 558.381818 -41.76 
L 556.690909 -91.244666 
L 555 -41.76 
L 553.309091 -56.631822 
L 551.618182 -101.888965 
L 549.927273 -41.76 
L 548.236364 -58.368126 
L 546.545455 -55.876907 
L 544.854545 -41.76 
L 543.163636 -41.76 
L 541.472727 -72.107575 
L 539.781818 -41.76 
L 538.090909 -41.76 
L 536.4 -41.76 
L 534.709091 -41.76 
L 533.018182 -107.022385 
L 531.327273 -144.46616 
L 529.636364 -69.540865 
L 527.945455 -41.76 
L 526.254545 -41.76 
L 524.563636 -41.76 
L 522.872727 -68.182018 
L 521.181818 -41.76 
L 519.490909 -41.76 
L 517.8 -41.76 
L 516.109091 -41.76 
L 514.418182 -62.973106 
L 512.727273 -41.76 
L 511.036364 -106.909148 
L 509.345455 -41.76 
L 507.654545 -41.76 
L 505.963636 -41.76 
L 504.272727 -54.820026 
L 502.581818 -41.76 
L 500.890909 -132.953709 
L 499.2 -41.76 
L 497.509091 -41.76 
L 495.818182 -77.618453 
L 494.127273 -55.197484 
L 492.436364 -41.76 
L 490.745455 -67.691324 
L 489.054545 -41.76 
L 487.363636 -41.76 
L 485.672727 -41.76 
L 483.981818 -57.424482 
L 482.290909 -41.76 
L 480.6 -66.256986 
L 478.909091 -41.76 
L 477.218182 -41.76 
L 475.527273 -69.125662 
L 473.836364 -41.76 
L 472.145455 -62.369174 
L 470.454545 -75.504692 
L 468.763636 -41.76 
L 467.072727 -84.29945 
L 465.381818 -41.76 
L 463.690909 -41.76 
L 462 -41.76 
L 460.309091 -68.333001 
L 458.618182 -41.76 
L 456.927273 -41.76 
L 455.236364 -52.706265 
L 453.545455 -54.895518 
L 451.854545 -58.028414 
L 450.163636 -41.76 
L 448.472727 -41.76 
L 446.781818 -59.500498 
L 445.090909 -41.76 
L 443.4 -41.76 
L 441.709091 -78.109148 
L 440.018182 -41.76 
L 438.327273 -41.76 
L 436.636364 -50.1773 
L 434.945455 -78.297877 
L 433.254545 -41.76 
L 431.563636 -41.76 
L 429.872727 -41.76 
L 428.181818 -41.76 
L 426.490909 -85.469567 
L 424.8 -41.76 
L 423.109091 -81.128807 
L 421.418182 -41.76 
L 419.727273 -96.680052 
L 418.036364 -41.76 
L 416.345455 -41.76 
L 414.654545 -41.76 
L 412.963636 -62.557903 
L 411.272727 -41.76 
L 409.581818 -41.76 
L 407.890909 -41.76 
L 406.2 -97.812425 
L 404.509091 -61.010328 
L 402.818182 -41.76 
L 401.127273 -41.76 
L 399.436364 -41.76 
L 397.745455 -94.339817 
L 396.054545 -41.76 
L 394.363636 -95.472189 
L 392.672727 -96.302595 
L 390.981818 -41.76 
L 389.290909 -41.76 
L 387.6 -41.76 
L 385.909091 -97.05751 
L 384.218182 -41.76 
L 382.527273 -41.76 
L 380.836364 -78.788571 
L 379.145455 -41.76 
L 377.454545 -41.76 
L 375.763636 -41.76 
L 374.072727 -83.58228 
L 372.381818 -41.76 
L 370.690909 -41.76 
L 369 -136.275334 
L 367.309091 -41.76 
L 365.618182 -41.76 
L 363.927273 -74.712031 
L 362.236364 -41.76 
L 360.545455 -41.76 
L 358.854545 -41.76 
L 357.163636 -93.849122 
L 355.472727 -41.76 
L 353.781818 -41.76 
L 352.090909 -41.76 
L 350.4 -87.470092 
L 348.709091 -41.76 
L 347.018182 -41.76 
L 345.327273 -41.76 
L 343.636364 -89.017667 
L 341.945455 -41.76 
L 340.254545 -41.76 
L 338.563636 -41.76 
L 336.872727 -86.903906 
L 335.181818 -41.76 
L 333.490909 -41.76 
L 331.8 -41.76 
L 330.109091 -79.279266 
L 328.418182 -41.76 
L 326.727273 -79.732215 
L 325.036364 -41.76 
L 323.345455 -41.76 
L 321.654545 -101.322779 
L 319.963636 -102.077693 
L 318.272727 -41.76 
L 316.581818 -41.76 
L 314.890909 -41.76 
L 313.2 -127.858034 
L 311.509091 -58.141651 
L 309.818182 -41.76 
L 308.127273 -41.76 
L 306.436364 -41.76 
L 304.745455 -62.93536 
L 303.054545 -41.76 
L 301.363636 -41.76 
L 299.672727 -41.76 
L 297.981818 -62.557903 
L 296.290909 -41.76 
L 294.6 -41.76 
L 292.909091 -41.76 
L 291.218182 -134.878742 
L 289.527273 -41.76 
L 287.836364 -41.76 
L 286.145455 -41.76 
L 284.454545 -41.76 
L 282.763636 -82.298925 
L 281.072727 -41.76 
L 279.381818 -41.76 
L 277.690909 -41.76 
L 276 -79.50574 
L 274.309091 -92.829987 
L 272.618182 -41.76 
L 270.927273 -75.278218 
L 269.236364 -41.76 
L 267.545455 -41.76 
L 265.854545 -41.76 
L 264.163636 -70.409017 
L 262.472727 -41.76 
L 260.781818 -41.76 
L 259.090909 -41.76 
L 257.4 -75.051743 
L 255.709091 -41.76 
L 254.018182 -41.76 
L 252.327273 -41.76 
L 250.636364 -41.76 
L 248.945455 -101.964456 
L 247.254545 -41.76 
L 245.563636 -67.162883 
L 243.872727 -41.76 
L 242.181818 -122.57363 
L 240.490909 -41.76 
L 238.8 -77.316488 
L 237.109091 -63.728021 
L 235.418182 -41.76 
L 233.727273 -41.76 
L 232.036364 -41.76 
L 230.345455 -108.117012 
L 228.654545 -41.76 
L 226.963636 -41.76 
L 225.272727 -70.937457 
L 223.581818 -66.256986 
L 221.890909 -41.76 
L 220.2 -41.76 
L 218.509091 -41.76 
L 216.818182 -53.347942 
L 215.127273 -41.76 
L 213.436364 -41.76 
L 211.745455 -41.76 
L 210.054545 -102.304168 
L 208.363636 -41.76 
L 206.672727 -41.76 
L 204.981818 -41.76 
L 203.290909 -118.081887 
L 201.6 -41.76 
L 199.909091 -41.76 
L 198.218182 -41.76 
L 196.527273 -88.187261 
L 194.836364 -41.76 
L 193.145455 -41.76 
L 191.454545 -41.76 
L 189.763636 -41.76 
L 188.072727 -86.413211 
L 186.381818 -41.76 
L 184.690909 -41.76 
L 183 -41.76 
L 181.309091 -94.830511 
L 179.618182 -41.76 
L 177.927273 -41.76 
L 176.236364 -41.76 
L 174.545455 -102.9081 
L 172.854545 -41.76 
L 171.163636 -41.76 
L 169.472727 -41.76 
L 167.781818 -99.963932 
L 166.090909 -41.76 
L 164.4 -41.76 
L 162.709091 -41.76 
L 161.018182 -135.520419 
L 159.327273 -41.76 
L 157.636364 -41.76 
L 155.945455 -64.029987 
L 154.254545 -41.76 
L 152.563636 -41.76 
L 150.872727 -41.76 
L 149.181818 -61.274548 
L 147.490909 -41.76 
L 145.8 -41.76 
L 144.109091 -41.76 
L 142.418182 -124.08346 
L 140.727273 -41.76 
L 139.036364 -41.76 
L 137.345455 -41.76 
L 135.654545 -90.640734 
L 133.963636 -41.76 
L 132.272727 -41.76 
L 130.581818 -41.76 
L 128.890909 -66.634443 
L 127.2 -41.76 
L 125.509091 -41.76 
L 123.818182 -41.76 
L 122.127273 -43.005609 
L 120.436364 -41.76 
L 118.745455 -41.76 
L 117.054545 -41.76 
L 115.363636 -41.873237 
z
" style="stroke: #ff0000; stroke-width: 0.5"/>
    </defs>
    <g clip-path="url(#p3a00a366cb)">
     <use xlink:href="#m5c4ab48e82" x="0" y="288" style="fill: #ff0000; stroke: #ff0000; stroke-width: 0.5"/>
    </g>
   </g>
   <g id="PolyCollection_2">
    <defs>
     <path id="m337c4b8749" d="M 115.363636 -46.515963 
L 115.363636 -41.873237 
L 117.054545 -41.76 
L 118.745455 -41.76 
L 120.436364 -41.76 
L 122.127273 -43.005609 
L 123.818182 -41.76 
L 125.509091 -41.76 
L 127.2 -41.76 
L 128.890909 -66.634443 
L 130.581818 -41.76 
L 132.272727 -41.76 
L 133.963636 -41.76 
L 135.654545 -90.640734 
L 137.345455 -41.76 
L 139.036364 -41.76 
L 140.727273 -41.76 
L 142.418182 -124.08346 
L 144.109091 -41.76 
L 145.8 -41.76 
L 147.490909 -41.76 
L 149.181818 -61.274548 
L 150.872727 -41.76 
L 152.563636 -41.76 
L 154.254545 -41.76 
L 155.945455 -64.029987 
L 157.636364 -41.76 
L 159.327273 -41.76 
L 161.018182 -135.520419 
L 162.709091 -41.76 
L 164.4 -41.76 
L 166.090909 -41.76 
L 167.781818 -99.963932 
L 169.472727 -41.76 
L 171.163636 -41.76 
L 172.854545 -41.76 
L 174.545455 -102.9081 
L 176.236364 -41.76 
L 177.927273 -41.76 
L 179.618182 -41.76 
L 181.309091 -94.830511 
L 183 -41.76 
L 184.690909 -41.76 
L 186.381818 -41.76 
L 188.072727 -86.413211 
L 189.763636 -41.76 
L 191.454545 -41.76 
L 193.145455 -41.76 
L 194.836364 -41.76 
L 196.527273 -88.187261 
L 198.218182 -41.76 
L 199.909091 -41.76 
L 201.6 -41.76 
L 203.290909 -118.081887 
L 204.981818 -41.76 
L 206.672727 -41.76 
L 208.363636 -41.76 
L 210.054545 -102.304168 
L 211.745455 -41.76 
L 213.436364 -41.76 
L 215.127273 -41.76 
L 216.818182 -53.347942 
L 218.509091 -41.76 
L 220.2 -41.76 
L 221.890909 -41.76 
L 223.581818 -66.256986 
L 225.272727 -70.937457 
L 226.963636 -41.76 
L 228.654545 -41.76 
L 230.345455 -108.117012 
L 232.036364 -41.76 
L 233.727273 -41.76 
L 235.418182 -41.76 
L 237.109091 -63.728021 
L 238.8 -77.316488 
L 240.490909 -41.76 
L 242.181818 -122.57363 
L 243.872727 -41.76 
L 245.563636 -67.162883 
L 247.254545 -41.76 
L 248.945455 -101.964456 
L 250.636364 -41.76 
L 252.327273 -41.76 
L 254.018182 -41.76 
L 255.709091 -41.76 
L 257.4 -75.051743 
L 259.090909 -41.76 
L 260.781818 -41.76 
L 262.472727 -41.76 
L 264.163636 -70.409017 
L 265.854545 -41.76 
L 267.545455 -41.76 
L 269.236364 -41.76 
L 270.927273 -75.278218 
L 272.618182 -41.76 
L 274.309091 -92.829987 
L 276 -79.50574 
L 277.690909 -41.76 
L 279.381818 -41.76 
L 281.072727 -41.76 
L 282.763636 -82.298925 
L 284.454545 -41.76 
L 286.145455 -41.76 
L 287.836364 -41.76 
L 289.527273 -41.76 
L 291.218182 -134.878742 
L 292.909091 -41.76 
L 294.6 -41.76 
L 296.290909 -41.76 
L 297.981818 -62.557903 
L 299.672727 -41.76 
L 301.363636 -41.76 
L 303.054545 -41.76 
L 304.745455 -62.93536 
L 306.436364 -41.76 
L 308.127273 -41.76 
L 309.818182 -41.76 
L 311.509091 -58.141651 
L 313.2 -127.858034 
L 314.890909 -41.76 
L 316.581818 -41.76 
L 318.272727 -41.76 
L 319.963636 -102.077693 
L 321.654545 -101.322779 
L 323.345455 -41.76 
L 325.036364 -41.76 
L 326.727273 -79.732215 
L 328.418182 -41.76 
L 330.109091 -79.279266 
L 331.8 -41.76 
L 333.490909 -41.76 
L 335.181818 -41.76 
L 336.872727 -86.903906 
L 338.563636 -41.76 
L 340.254545 -41.76 
L 341.945455 -41.76 
L 343.636364 -89.017667 
L 345.327273 -41.76 
L 347.018182 -41.76 
L 348.709091 -41.76 
L 350.4 -87.470092 
L 352.090909 -41.76 
L 353.781818 -41.76 
L 355.472727 -41.76 
L 357.163636 -93.849122 
L 358.854545 -41.76 
L 360.545455 -41.76 
L 362.236364 -41.76 
L 363.927273 -74.712031 
L 365.618182 -41.76 
L 367.309091 -41.76 
L 369 -136.275334 
L 370.690909 -41.76 
L 372.381818 -41.76 
L 374.072727 -83.58228 
L 375.763636 -41.76 
L 377.454545 -41.76 
L 379.145455 -41.76 
L 380.836364 -78.788571 
L 382.527273 -41.76 
L 384.218182 -41.76 
L 385.909091 -97.05751 
L 387.6 -41.76 
L 389.290909 -41.76 
L 390.981818 -41.76 
L 392.672727 -96.302595 
L 394.363636 -95.472189 
L 396.054545 -41.76 
L 397.745455 -94.339817 
L 399.436364 -41.76 
L 401.127273 -41.76 
L 402.818182 -41.76 
L 404.509091 -61.010328 
L 406.2 -97.812425 
L 407.890909 -41.76 
L 409.581818 -41.76 
L 411.272727 -41.76 
L 412.963636 -62.557903 
L 414.654545 -41.76 
L 416.345455 -41.76 
L 418.036364 -41.76 
L 419.727273 -96.680052 
L 421.418182 -41.76 
L 423.109091 -81.128807 
L 424.8 -41.76 
L 426.490909 -85.469567 
L 428.181818 -41.76 
L 429.872727 -41.76 
L 431.563636 -41.76 
L 433.254545 -41.76 
L 434.945455 -78.297877 
L 436.636364 -50.1773 
L 438.327273 -41.76 
L 440.018182 -41.76 
L 441.709091 -78.109148 
L 443.4 -41.76 
L 445.090909 -41.76 
L 446.781818 -59.500498 
L 448.472727 -41.76 
L 450.163636 -41.76 
L 451.854545 -58.028414 
L 453.545455 -54.895518 
L 455.236364 -52.706265 
L 456.927273 -41.76 
L 458.618182 -41.76 
L 460.309091 -68.333001 
L 462 -41.76 
L 463.690909 -41.76 
L 465.381818 -41.76 
L 467.072727 -84.29945 
L 468.763636 -41.76 
L 470.454545 -75.504692 
L 472.145455 -62.369174 
L 473.836364 -41.76 
L 475.527273 -69.125662 
L 477.218182 -41.76 
L 478.909091 -41.76 
L 480.6 -66.256986 
L 482.290909 -41.76 
L 483.981818 -57.424482 
L 485.672727 -41.76 
L 487.363636 -41.76 
L 489.054545 -41.76 
L 490.745455 -67.691324 
L 492.436364 -41.76 
L 494.127273 -55.197484 
L 495.818182 -77.618453 
L 497.509091 -41.76 
L 499.2 -41.76 
L 500.890909 -132.953709 
L 502.581818 -41.76 
L 504.272727 -54.820026 
L 505.963636 -41.76 
L 507.654545 -41.76 
L 509.345455 -41.76 
L 511.036364 -106.909148 
L 512.727273 -41.76 
L 514.418182 -62.973106 
L 516.109091 -41.76 
L 517.8 -41.76 
L 519.490909 -41.76 
L 521.181818 -41.76 
L 522.872727 -68.182018 
L 524.563636 -41.76 
L 526.254545 -41.76 
L 527.945455 -41.76 
L 529.636364 -69.540865 
L 531.327273 -144.46616 
L 533.018182 -107.022385 
L 534.709091 -41.76 
L 536.4 -41.76 
L 538.090909 -41.76 
L 539.781818 -41.76 
L 541.472727 -72.107575 
L 543.163636 -41.76 
L 544.854545 -41.76 
L 546.545455 -55.876907 
L 548.236364 -58.368126 
L 549.927273 -41.76 
L 551.618182 -101.888965 
L 553.309091 -56.631822 
L 555 -41.76 
L 556.690909 -91.244666 
L 558.381818 -41.76 
L 560.072727 -140.616094 
L 561.763636 -41.76 
L 563.454545 -54.933263 
L 565.145455 -41.76 
L 566.836364 -78.826317 
L 568.527273 -75.013997 
L 570.218182 -41.76 
L 571.909091 -69.578611 
L 573.6 -41.76 
L 575.290909 -41.76 
L 576.981818 -41.76 
L 578.672727 -113.023958 
L 580.363636 -41.76 
L 582.054545 -41.76 
L 583.745455 -41.76 
L 585.436364 -107.173368 
L 587.127273 -41.76 
L 588.818182 -53.121468 
L 590.509091 -41.76 
L 592.2 -99.058034 
L 593.890909 -41.76 
L 595.581818 -91.508886 
L 597.272727 -41.76 
L 598.963636 -41.76 
L 600.654545 -41.76 
L 602.345455 -59.651481 
L 604.036364 -109.28713 
L 605.727273 -41.76 
L 607.418182 -41.76 
L 609.109091 -41.76 
L 610.8 -110.608231 
L 612.490909 -41.76 
L 614.181818 -41.76 
L 615.872727 -62.897615 
L 617.563636 -41.76 
L 619.254545 -41.76 
L 620.945455 -67.804561 
L 622.636364 -41.76 
L 622.636364 -41.76 
L 622.636364 -41.76 
L 620.945455 -109.55135 
L 619.254545 -89.621599 
L 617.563636 -73.579659 
L 615.872727 -72.220813 
L 614.181818 -48.290013 
L 612.490909 -49.346894 
L 610.8 -120.988309 
L 609.109091 -60.36865 
L 607.418182 -47.006658 
L 605.727273 -46.855675 
L 604.036364 -113.778873 
L 602.345455 -78.297877 
L 600.654545 -55.574941 
L 598.963636 -59.425007 
L 597.272727 -69.654102 
L 595.581818 -130.839948 
L 593.890909 -70.29578 
L 592.2 -117.062752 
L 590.509091 -62.633394 
L 588.818182 -69.087916 
L 587.127273 -59.802464 
L 585.436364 -122.724613 
L 583.745455 -99.586474 
L 582.054545 -107.211114 
L 580.363636 -109.928807 
L 578.672727 -138.162621 
L 576.981818 -49.271402 
L 575.290909 -45.685557 
L 573.6 -61.576514 
L 571.909091 -76.221861 
L 570.218182 -59.387261 
L 568.527273 -82.78962 
L 566.836364 -102.757117 
L 565.145455 -57.688702 
L 563.454545 -76.372844 
L 561.763636 -54.404823 
L 560.072727 -157.299712 
L 558.381818 -64.935885 
L 556.690909 -108.343486 
L 555 -50.592503 
L 553.309091 -69.427628 
L 551.618182 -123.290799 
L 549.927273 -86.299974 
L 548.236364 -85.394076 
L 546.545455 -79.467995 
L 544.854545 -49.082674 
L 543.163636 -65.313342 
L 541.472727 -125.668781 
L 539.781818 -65.162359 
L 538.090909 -69.880577 
L 536.4 -66.596697 
L 534.709091 -108.418978 
L 533.018182 -136.464063 
L 531.327273 -163.112556 
L 529.636364 -102.304168 
L 527.945455 -47.270878 
L 526.254545 -47.006658 
L 524.563636 -45.043879 
L 522.872727 -73.919371 
L 521.181818 -45.194862 
L 519.490909 -48.252267 
L 517.8 -55.008755 
L 516.109091 -71.201678 
L 514.418182 -74.37232 
L 512.727273 -45.949777 
L 511.036364 -112.797484 
L 509.345455 -65.049122 
L 507.654545 -53.536671 
L 505.963636 -73.12671 
L 504.272727 -94.000105 
L 502.581818 -53.574417 
L 500.890909 -136.237588 
L 499.2 -43.194338 
L 497.509091 -43.232084 
L 495.818182 -82.487654 
L 494.127273 -62.557903 
L 492.436364 -59.462752 
L 490.745455 -99.737457 
L 489.054545 -58.556855 
L 487.363636 -59.57599 
L 485.672727 -56.518585 
L 483.981818 -77.807182 
L 482.290909 -104.153709 
L 480.6 -134.840996 
L 478.909091 -113.741127 
L 477.218182 -108.003775 
L 475.527273 -125.782018 
L 473.836364 -59.274024 
L 472.145455 -87.885295 
L 470.454545 -102.606134 
L 468.763636 -46.968912 
L 467.072727 -88.526972 
L 465.381818 -52.442045 
L 463.690909 -47.988047 
L 462 -73.957117 
L 460.309091 -83.959738 
L 458.618182 -55.423958 
L 456.927273 -52.706265 
L 455.236364 -62.897615 
L 453.545455 -101.92671 
L 451.854545 -80.260655 
L 450.163636 -58.481363 
L 448.472727 -90.753971 
L 446.781818 -90.753971 
L 445.090909 -43.647287 
L 443.4 -43.043355 
L 441.709091 -84.56367 
L 440.018182 -93.698139 
L 438.327273 -111.740603 
L 436.636364 -124.687392 
L 434.945455 -106.305216 
L 433.254545 -103.059083 
L 431.563636 -97.812425 
L 429.872727 -106.98464 
L 428.181818 -103.851743 
L 426.490909 -120.875072 
L 424.8 -69.012425 
L 423.109091 -107.286606 
L 421.418182 -112.420026 
L 419.727273 -163.791979 
L 418.036364 -78.901809 
L 416.345455 -59.57599 
L 414.654545 -63.501547 
L 412.963636 -71.730118 
L 411.272727 -54.555806 
L 409.581818 -62.784377 
L 407.890909 -81.430773 
L 406.2 -113.36367 
L 404.509091 -71.767864 
L 402.818182 -61.199056 
L 401.127273 -63.614784 
L 399.436364 -71.805609 
L 397.745455 -117.213735 
L 396.054545 -61.387785 
L 394.363636 -115.628414 
L 392.672727 -108.720944 
L 390.981818 -54.631298 
L 389.290909 -48.893945 
L 387.6 -46.931166 
L 385.909091 -99.62422 
L 384.218182 -62.1427 
L 382.527273 -60.783853 
L 380.836364 -112.155806 
L 379.145455 -76.335098 
L 377.454545 -70.069305 
L 375.763636 -60.934836 
L 374.072727 -92.565767 
L 372.381818 -48.893945 
L 370.690909 -51.875858 
L 369 -141.635229 
L 367.309091 -56.55633 
L 365.618182 -58.103906 
L 363.927273 -119.289751 
L 362.236364 -71.994338 
L 360.545455 -55.688178 
L 358.854545 -84.261704 
L 357.163636 -129.330118 
L 355.472727 -84.790144 
L 353.781818 -51.42291 
L 352.090909 -65.917274 
L 350.4 -120.044666 
L 348.709091 -62.1427 
L 347.018182 -56.858296 
L 345.327273 -55.725924 
L 343.636364 -107.437588 
L 341.945455 -52.442045 
L 340.254545 -53.687654 
L 338.563636 -78.864063 
L 336.872727 -115.477431 
L 335.181818 -55.876907 
L 333.490909 -52.932739 
L 331.8 -50.667995 
L 330.109091 -116.043617 
L 328.418182 -78.109148 
L 326.727273 -119.667208 
L 325.036364 -64.482936 
L 323.345455 -92.075072 
L 321.654545 -129.367864 
L 319.963636 -129.518847 
L 318.272727 -85.318585 
L 316.581818 -69.201153 
L 314.890909 -65.577562 
L 313.2 -164.433657 
L 311.509091 -102.077693 
L 309.818182 -92.112818 
L 308.127273 -90.602988 
L 306.436364 -84.035229 
L 304.745455 -121.629987 
L 303.054545 -83.129332 
L 301.363636 -100.492372 
L 299.672727 -75.429201 
L 297.981818 -80.977824 
L 296.290909 -54.102857 
L 294.6 -77.354233 
L 292.909091 -61.199056 
L 291.218182 -147.674548 
L 289.527273 -58.028414 
L 287.836364 -56.858296 
L 286.145455 -58.179397 
L 284.454545 -64.294207 
L 282.763636 -94.339817 
L 281.072727 -48.856199 
L 279.381818 -47.648336 
L 277.690909 -46.327235 
L 276 -85.847025 
L 274.309091 -99.850695 
L 272.618182 -47.195387 
L 270.927273 -81.166553 
L 269.236364 -55.121992 
L 267.545455 -51.68713 
L 265.854545 -43.081101 
L 264.163636 -77.165505 
L 262.472727 -52.819502 
L 260.781818 -64.029987 
L 259.090909 -65.388834 
L 257.4 -100.643355 
L 255.709091 -90.980446 
L 254.018182 -92.528021 
L 252.327273 -102.606134 
L 250.636364 -88.715701 
L 248.945455 -150.807444 
L 247.254545 -75.617929 
L 245.563636 -73.353185 
L 243.872727 -45.647811 
L 242.181818 -125.555544 
L 240.490909 -44.590931 
L 238.8 -119.780446 
L 237.109091 -90.074548 
L 235.418182 -87.621075 
L 233.727273 -88.64021 
L 232.036364 -69.767339 
L 230.345455 -115.779397 
L 228.654545 -61.199056 
L 226.963636 -55.952398 
L 225.272727 -88.111769 
L 223.581818 -70.182543 
L 221.890909 -48.818453 
L 220.2 -55.121992 
L 218.509091 -46.289489 
L 216.818182 -65.124613 
L 215.127273 -67.880052 
L 213.436364 -60.406396 
L 211.745455 -57.235754 
L 210.054545 -115.024482 
L 208.363636 -52.177824 
L 206.672727 -65.577562 
L 204.981818 -76.599318 
L 203.290909 -142.314653 
L 201.6 -60.406396 
L 199.909091 -66.106003 
L 198.218182 -65.388834 
L 196.527273 -101.209541 
L 194.836364 -52.857248 
L 193.145455 -55.310721 
L 191.454545 -55.688178 
L 189.763636 -54.933263 
L 188.072727 -97.58595 
L 186.381818 -53.914128 
L 184.690909 -54.216094 
L 183 -53.876383 
L 181.309091 -111.702857 
L 179.618182 -58.632346 
L 177.927273 -58.783329 
L 176.236364 -57.122516 
L 174.545455 -120.686343 
L 172.854545 -61.576514 
L 171.163636 -60.595125 
L 169.472727 -58.745583 
L 167.781818 -115.817143 
L 166.090909 -59.085295 
L 164.4 -59.311769 
L 162.709091 -57.650957 
L 161.018182 -147.599056 
L 159.327273 -44.704168 
L 157.636364 -57.839685 
L 155.945455 -96.717798 
L 154.254545 -47.988047 
L 152.563636 -57.424482 
L 150.872727 -52.026841 
L 149.181818 -72.975727 
L 147.490909 -59.160786 
L 145.8 -56.480839 
L 144.109091 -55.688178 
L 142.418182 -142.012687 
L 140.727273 -54.971009 
L 139.036364 -57.990668 
L 137.345455 -58.103906 
L 135.654545 -104.417929 
L 133.963636 -55.76367 
L 132.272727 -55.046501 
L 130.581818 -53.045976 
L 128.890909 -77.014522 
L 127.2 -56.216619 
L 125.509091 -54.78228 
L 123.818182 -51.234181 
L 122.127273 -51.42291 
L 120.436364 -53.045976 
L 118.745455 -47.157641 
L 117.054545 -48.13903 
L 115.363636 -46.515963 
z
" style="stroke: #0000ff; stroke-width: 0.5"/>
    </defs>
    <g clip-path="url(#p3a00a366cb)">
     <use xlink:href="#m337c4b8749" x="0" y="288" style="fill: #0000ff; stroke: #0000ff; stroke-width: 0.5"/>
    </g>
   </g>
   <g id="PolyCollection_3">
    <defs>
     <path id="m1cb3505d19" d="M 115.363636 -80.22291 
L 115.363636 -46.515963 
L 117.054545 -48.13903 
L 118.745455 -47.157641 
L 120.436364 -53.045976 
L 122.127273 -51.42291 
L 123.818182 -51.234181 
L 125.509091 -54.78228 
L 127.2 -56.216619 
L 128.890909 -77.014522 
L 130.581818 -53.045976 
L 132.272727 -55.046501 
L 133.963636 -55.76367 
L 135.654545 -104.417929 
L 137.345455 -58.103906 
L 139.036364 -57.990668 
L 140.727273 -54.971009 
L 142.418182 -142.012687 
L 144.109091 -55.688178 
L 145.8 -56.480839 
L 147.490909 -59.160786 
L 149.181818 -72.975727 
L 150.872727 -52.026841 
L 152.563636 -57.424482 
L 154.254545 -47.988047 
L 155.945455 -96.717798 
L 157.636364 -57.839685 
L 159.327273 -44.704168 
L 161.018182 -147.599056 
L 162.709091 -57.650957 
L 164.4 -59.311769 
L 166.090909 -59.085295 
L 167.781818 -115.817143 
L 169.472727 -58.745583 
L 171.163636 -60.595125 
L 172.854545 -61.576514 
L 174.545455 -120.686343 
L 176.236364 -57.122516 
L 177.927273 -58.783329 
L 179.618182 -58.632346 
L 181.309091 -111.702857 
L 183 -53.876383 
L 184.690909 -54.216094 
L 186.381818 -53.914128 
L 188.072727 -97.58595 
L 189.763636 -54.933263 
L 191.454545 -55.688178 
L 193.145455 -55.310721 
L 194.836364 -52.857248 
L 196.527273 -101.209541 
L 198.218182 -65.388834 
L 199.909091 -66.106003 
L 201.6 -60.406396 
L 203.290909 -142.314653 
L 204.981818 -76.599318 
L 206.672727 -65.577562 
L 208.363636 -52.177824 
L 210.054545 -115.024482 
L 211.745455 -57.235754 
L 213.436364 -60.406396 
L 215.127273 -67.880052 
L 216.818182 -65.124613 
L 218.509091 -46.289489 
L 220.2 -55.121992 
L 221.890909 -48.818453 
L 223.581818 -70.182543 
L 225.272727 -88.111769 
L 226.963636 -55.952398 
L 228.654545 -61.199056 
L 230.345455 -115.779397 
L 232.036364 -69.767339 
L 233.727273 -88.64021 
L 235.418182 -87.621075 
L 237.109091 -90.074548 
L 238.8 -119.780446 
L 240.490909 -44.590931 
L 242.181818 -125.555544 
L 243.872727 -45.647811 
L 245.563636 -73.353185 
L 247.254545 -75.617929 
L 248.945455 -150.807444 
L 250.636364 -88.715701 
L 252.327273 -102.606134 
L 254.018182 -92.528021 
L 255.709091 -90.980446 
L 257.4 -100.643355 
L 259.090909 -65.388834 
L 260.781818 -64.029987 
L 262.472727 -52.819502 
L 264.163636 -77.165505 
L 265.854545 -43.081101 
L 267.545455 -51.68713 
L 269.236364 -55.121992 
L 270.927273 -81.166553 
L 272.618182 -47.195387 
L 274.309091 -99.850695 
L 276 -85.847025 
L 277.690909 -46.327235 
L 279.381818 -47.648336 
L 281.072727 -48.856199 
L 282.763636 -94.339817 
L 284.454545 -64.294207 
L 286.145455 -58.179397 
L 287.836364 -56.858296 
L 289.527273 -58.028414 
L 291.218182 -147.674548 
L 292.909091 -61.199056 
L 294.6 -77.354233 
L 296.290909 -54.102857 
L 297.981818 -80.977824 
L 299.672727 -75.429201 
L 301.363636 -100.492372 
L 303.054545 -83.129332 
L 304.745455 -121.629987 
L 306.436364 -84.035229 
L 308.127273 -90.602988 
L 309.818182 -92.112818 
L 311.509091 -102.077693 
L 313.2 -164.433657 
L 314.890909 -65.577562 
L 316.581818 -69.201153 
L 318.272727 -85.318585 
L 319.963636 -129.518847 
L 321.654545 -129.367864 
L 323.345455 -92.075072 
L 325.036364 -64.482936 
L 326.727273 -119.667208 
L 328.418182 -78.109148 
L 330.109091 -116.043617 
L 331.8 -50.667995 
L 333.490909 -52.932739 
L 335.181818 -55.876907 
L 336.872727 -115.477431 
L 338.563636 -78.864063 
L 340.254545 -53.687654 
L 341.945455 -52.442045 
L 343.636364 -107.437588 
L 345.327273 -55.725924 
L 347.018182 -56.858296 
L 348.709091 -62.1427 
L 350.4 -120.044666 
L 352.090909 -65.917274 
L 353.781818 -51.42291 
L 355.472727 -84.790144 
L 357.163636 -129.330118 
L 358.854545 -84.261704 
L 360.545455 -55.688178 
L 362.236364 -71.994338 
L 363.927273 -119.289751 
L 365.618182 -58.103906 
L 367.309091 -56.55633 
L 369 -141.635229 
L 370.690909 -51.875858 
L 372.381818 -48.893945 
L 374.072727 -92.565767 
L 375.763636 -60.934836 
L 377.454545 -70.069305 
L 379.145455 -76.335098 
L 380.836364 -112.155806 
L 382.527273 -60.783853 
L 384.218182 -62.1427 
L 385.909091 -99.62422 
L 387.6 -46.931166 
L 389.290909 -48.893945 
L 390.981818 -54.631298 
L 392.672727 -108.720944 
L 394.363636 -115.628414 
L 396.054545 -61.387785 
L 397.745455 -117.213735 
L 399.436364 -71.805609 
L 401.127273 -63.614784 
L 402.818182 -61.199056 
L 404.509091 -71.767864 
L 406.2 -113.36367 
L 407.890909 -81.430773 
L 409.581818 -62.784377 
L 411.272727 -54.555806 
L 412.963636 -71.730118 
L 414.654545 -63.501547 
L 416.345455 -59.57599 
L 418.036364 -78.901809 
L 419.727273 -163.791979 
L 421.418182 -112.420026 
L 423.109091 -107.286606 
L 424.8 -69.012425 
L 426.490909 -120.875072 
L 428.181818 -103.851743 
L 429.872727 -106.98464 
L 431.563636 -97.812425 
L 433.254545 -103.059083 
L 434.945455 -106.305216 
L 436.636364 -124.687392 
L 438.327273 -111.740603 
L 440.018182 -93.698139 
L 441.709091 -84.56367 
L 443.4 -43.043355 
L 445.090909 -43.647287 
L 446.781818 -90.753971 
L 448.472727 -90.753971 
L 450.163636 -58.481363 
L 451.854545 -80.260655 
L 453.545455 -101.92671 
L 455.236364 -62.897615 
L 456.927273 -52.706265 
L 458.618182 -55.423958 
L 460.309091 -83.959738 
L 462 -73.957117 
L 463.690909 -47.988047 
L 465.381818 -52.442045 
L 467.072727 -88.526972 
L 468.763636 -46.968912 
L 470.454545 -102.606134 
L 472.145455 -87.885295 
L 473.836364 -59.274024 
L 475.527273 -125.782018 
L 477.218182 -108.003775 
L 478.909091 -113.741127 
L 480.6 -134.840996 
L 482.290909 -104.153709 
L 483.981818 -77.807182 
L 485.672727 -56.518585 
L 487.363636 -59.57599 
L 489.054545 -58.556855 
L 490.745455 -99.737457 
L 492.436364 -59.462752 
L 494.127273 -62.557903 
L 495.818182 -82.487654 
L 497.509091 -43.232084 
L 499.2 -43.194338 
L 500.890909 -136.237588 
L 502.581818 -53.574417 
L 504.272727 -94.000105 
L 505.963636 -73.12671 
L 507.654545 -53.536671 
L 509.345455 -65.049122 
L 511.036364 -112.797484 
L 512.727273 -45.949777 
L 514.418182 -74.37232 
L 516.109091 -71.201678 
L 517.8 -55.008755 
L 519.490909 -48.252267 
L 521.181818 -45.194862 
L 522.872727 -73.919371 
L 524.563636 -45.043879 
L 526.254545 -47.006658 
L 527.945455 -47.270878 
L 529.636364 -102.304168 
L 531.327273 -163.112556 
L 533.018182 -136.464063 
L 534.709091 -108.418978 
L 536.4 -66.596697 
L 538.090909 -69.880577 
L 539.781818 -65.162359 
L 541.472727 -125.668781 
L 543.163636 -65.313342 
L 544.854545 -49.082674 
L 546.545455 -79.467995 
L 548.236364 -85.394076 
L 549.927273 -86.299974 
L 551.618182 -123.290799 
L 553.309091 -69.427628 
L 555 -50.592503 
L 556.690909 -108.343486 
L 558.381818 -64.935885 
L 560.072727 -157.299712 
L 561.763636 -54.404823 
L 563.454545 -76.372844 
L 565.145455 -57.688702 
L 566.836364 -102.757117 
L 568.527273 -82.78962 
L 570.218182 -59.387261 
L 571.909091 -76.221861 
L 573.6 -61.576514 
L 575.290909 -45.685557 
L 576.981818 -49.271402 
L 578.672727 -138.162621 
L 580.363636 -109.928807 
L 582.054545 -107.211114 
L 583.745455 -99.586474 
L 585.436364 -122.724613 
L 587.127273 -59.802464 
L 588.818182 -69.087916 
L 590.509091 -62.633394 
L 592.2 -117.062752 
L 593.890909 -70.29578 
L 595.581818 -130.839948 
L 597.272727 -69.654102 
L 598.963636 -59.425007 
L 600.654545 -55.574941 
L 602.345455 -78.297877 
L 604.036364 -113.778873 
L 605.727273 -46.855675 
L 607.418182 -47.006658 
L 609.109091 -60.36865 
L 610.8 -120.988309 
L 612.490909 -49.346894 
L 614.181818 -48.290013 
L 615.872727 -72.220813 
L 617.563636 -73.579659 
L 619.254545 -89.621599 
L 620.945455 -109.55135 
L 622.636364 -41.76 
L 622.636364 -42.363932 
L 622.636364 -42.363932 
L 620.945455 -168.132739 
L 619.254545 -181.306003 
L 617.563636 -127.178611 
L 615.872727 -92.679004 
L 614.181818 -69.993814 
L 612.490909 -79.958689 
L 610.8 -147.561311 
L 609.109091 -120.573106 
L 607.418182 -62.1427 
L 605.727273 -96.79329 
L 604.036364 -161.527235 
L 602.345455 -118.912294 
L 600.654545 -96.302595 
L 598.963636 -104.795387 
L 597.272727 -109.513604 
L 595.581818 -174.813735 
L 593.890909 -128.499712 
L 592.2 -164.433657 
L 590.509091 -107.097877 
L 588.818182 -115.552923 
L 587.127273 -103.096828 
L 585.436364 -167.189096 
L 583.745455 -187.005609 
L 582.054545 -201.386737 
L 580.363636 -201.650957 
L 578.672727 -170.888178 
L 576.981818 -94.226579 
L 575.290909 -73.088965 
L 573.6 -97.095256 
L 571.909091 -90.112294 
L 570.218182 -79.090537 
L 568.527273 -98.944797 
L 566.836364 -133.293421 
L 565.145455 -89.055413 
L 563.454545 -145.409803 
L 561.763636 -115.326448 
L 560.072727 -195.385164 
L 558.381818 -103.398794 
L 556.690909 -134.199318 
L 555 -63.275072 
L 553.309091 -97.246239 
L 551.618182 -163.414522 
L 549.927273 -158.658558 
L 548.236364 -128.990406 
L 546.545455 -105.701284 
L 544.854545 -78.44886 
L 543.163636 -115.175465 
L 541.472727 -200.329856 
L 539.781818 -125.329069 
L 538.090909 -130.46249 
L 536.4 -129.632084 
L 534.709091 -205.274548 
L 533.018182 -237.320682 
L 531.327273 -243.36 
L 529.636364 -140.691586 
L 527.945455 -68.182018 
L 526.254545 -61.048073 
L 524.563636 -55.688178 
L 522.872727 -92.603512 
L 521.181818 -61.727497 
L 519.490909 -66.21924 
L 517.8 -81.959214 
L 516.109091 -109.664587 
L 514.418182 -93.622647 
L 512.727273 -63.690275 
L 511.036364 -129.858558 
L 509.345455 -94.075596 
L 507.654545 -82.26118 
L 505.963636 -120.308886 
L 504.272727 -191.195387 
L 502.581818 -136.539554 
L 500.890909 -189.647811 
L 499.2 -44.968388 
L 497.509091 -45.3081 
L 495.818182 -89.470616 
L 494.127273 -81.883722 
L 492.436364 -92.452529 
L 490.745455 -144.541651 
L 489.054545 -89.885819 
L 487.363636 -87.13038 
L 485.672727 -79.392503 
L 483.981818 -113.703381 
L 482.290909 -214.673237 
L 480.6 -234.41426 
L 478.909091 -201.80194 
L 477.218182 -182.891324 
L 475.527273 -185.49578 
L 473.836364 -78.071402 
L 472.145455 -130.537982 
L 470.454545 -140.91806 
L 468.763636 -56.782805 
L 467.072727 -98.152136 
L 465.381818 -75.127235 
L 463.690909 -68.52173 
L 462 -110.872451 
L 460.309091 -107.815046 
L 458.618182 -80.147418 
L 456.927273 -69.578611 
L 455.236364 -91.773106 
L 453.545455 -219.013997 
L 451.854545 -119.440734 
L 450.163636 -104.417929 
L 448.472727 -193.422385 
L 446.781818 -139.332739 
L 445.090909 -47.195387 
L 443.4 -44.741913 
L 441.709091 -111.514128 
L 440.018182 -192.478742 
L 438.327273 -205.991717 
L 436.636364 -187.873761 
L 434.945455 -153.034443 
L 433.254545 -169.831298 
L 431.563636 -161.829201 
L 429.872727 -181.834443 
L 428.181818 -170.020026 
L 426.490909 -159.186999 
L 424.8 -101.096304 
L 423.109091 -134.086081 
L 421.418182 -190.855675 
L 419.727273 -233.357379 
L 418.036364 -115.590668 
L 416.345455 -85.469567 
L 414.654545 -88.753447 
L 412.963636 -85.243093 
L 411.272727 -71.654626 
L 409.581818 -91.848598 
L 407.890909 -152.996697 
L 406.2 -133.104692 
L 404.509091 -87.65882 
L 402.818182 -100.492372 
L 401.127273 -99.171271 
L 399.436364 -128.046763 
L 397.745455 -153.676121 
L 396.054545 -107.739554 
L 394.363636 -156.393814 
L 392.672727 -133.519895 
L 390.981818 -77.391979 
L 389.290909 -59.425007 
L 387.6 -58.934312 
L 385.909091 -108.645452 
L 384.218182 -102.832608 
L 382.527273 -99.661966 
L 380.836364 -175.191193 
L 379.145455 -137.634181 
L 377.454545 -119.47848 
L 375.763636 -90.225531 
L 374.072727 -185.986474 
L 372.381818 -153.827104 
L 370.690909 -187.005609 
L 369 -166.094469 
L 367.309091 -90.565242 
L 365.618182 -95.132477 
L 363.927273 -182.627104 
L 362.236364 -123.630511 
L 360.545455 -98.416356 
L 358.854545 -142.012687 
L 357.163636 -185.835491 
L 355.472727 -143.975465 
L 353.781818 -85.998008 
L 352.090909 -122.196173 
L 350.4 -172.284771 
L 348.709091 -110.07979 
L 347.018182 -96.906527 
L 345.327273 -95.54768 
L 343.636364 -149.750564 
L 341.945455 -84.525924 
L 340.254545 -84.488178 
L 338.563636 -128.839423 
L 336.872727 -151.524613 
L 335.181818 -87.319109 
L 333.490909 -75.127235 
L 331.8 -74.674286 
L 330.109091 -164.660131 
L 328.418182 -127.140865 
L 326.727273 -169.906789 
L 325.036364 -118.383853 
L 323.345455 -196.442045 
L 321.654545 -181.796697 
L 319.963636 -175.153447 
L 318.272727 -155.789882 
L 316.581818 -110.457248 
L 314.890909 -105.437064 
L 313.2 -219.957641 
L 311.509091 -157.375203 
L 309.818182 -132.349777 
L 308.127273 -136.84152 
L 306.436364 -120.497615 
L 304.745455 -170.925924 
L 303.054545 -120.00692 
L 301.363636 -161.753709 
L 299.672727 -123.706003 
L 297.981818 -115.552923 
L 296.290909 -99.058034 
L 294.6 -178.701547 
L 292.909091 -114.496042 
L 291.218182 -175.493159 
L 289.527273 -68.710459 
L 287.836364 -69.012425 
L 286.145455 -87.809803 
L 284.454545 -103.889489 
L 282.763636 -115.66616 
L 281.072727 -57.311245 
L 279.381818 -57.575465 
L 277.690909 -55.725924 
L 276 -131.255151 
L 274.309091 -138.124875 
L 272.618182 -57.764194 
L 270.927273 -91.357903 
L 269.236364 -79.920944 
L 267.545455 -68.936933 
L 265.854545 -45.006134 
L 264.163636 -87.696566 
L 262.472727 -83.733263 
L 260.781818 -102.190931 
L 259.090909 -118.308362 
L 257.4 -163.942962 
L 255.709091 -192.893945 
L 254.018182 -192.780708 
L 252.327273 -211.125138 
L 250.636364 -169.604823 
L 248.945455 -241.434967 
L 247.254545 -133.029201 
L 245.563636 -98.038899 
L 243.872727 -68.861442 
L 242.181818 -130.764456 
L 240.490909 -48.893945 
L 238.8 -200.707313 
L 237.109091 -141.786212 
L 235.418182 -150.996173 
L 233.727273 -166.471927 
L 232.036364 -118.572582 
L 230.345455 -136.652792 
L 228.654545 -100.416881 
L 226.963636 -77.656199 
L 225.272727 -116.609803 
L 223.581818 -78.18464 
L 221.890909 -63.614784 
L 220.2 -73.541913 
L 218.509091 -51.611638 
L 216.818182 -109.626841 
L 215.127273 -141.974941 
L 213.436364 -118.572582 
L 211.745455 -103.210066 
L 210.054545 -158.885033 
L 208.363636 -107.815046 
L 206.672727 -119.855937 
L 204.981818 -146.919633 
L 203.290909 -215.805609 
L 201.6 -106.078742 
L 199.909091 -114.080839 
L 198.218182 -117.628938 
L 196.527273 -138.464587 
L 194.836364 -87.998532 
L 193.145455 -90.452005 
L 191.454545 -90.602988 
L 189.763636 -81.355282 
L 188.072727 -143.258296 
L 186.381818 -99.246763 
L 184.690909 -99.171271 
L 183 -97.623696 
L 181.309091 -158.016881 
L 179.618182 -117.100498 
L 177.927273 -119.365242 
L 176.236364 -112.835229 
L 174.545455 -182.702595 
L 172.854545 -120.384377 
L 171.163636 -119.440734 
L 169.472727 -117.893159 
L 167.781818 -180.17363 
L 166.090909 -136.011114 
L 164.4 -139.030773 
L 162.709091 -138.049384 
L 161.018182 -217.843879 
L 159.327273 -50.479266 
L 157.636364 -83.884246 
L 155.945455 -143.975465 
L 154.254545 -61.576514 
L 152.563636 -88.602464 
L 150.872727 -72.824744 
L 149.181818 -102.794862 
L 147.490909 -115.590668 
L 145.8 -112.872975 
L 144.109091 -109.966553 
L 142.418182 -214.673237 
L 140.727273 -111.514128 
L 139.036364 -107.966029 
L 137.345455 -112.155806 
L 135.654545 -164.924351 
L 133.963636 -127.254102 
L 132.272727 -133.104692 
L 130.581818 -145.447549 
L 128.890909 -177.682412 
L 127.2 -183.344273 
L 125.509091 -142.503381 
L 123.818182 -94.528545 
L 122.127273 -123.668257 
L 120.436364 -120.27114 
L 118.745455 -82.487654 
L 117.054545 -82.600891 
L 115.363636 -80.22291 
z
" style="stroke: #008000; stroke-width: 0.5"/>
    </defs>
    <g clip-path="url(#p3a00a366cb)">
     <use xlink:href="#m1cb3505d19" x="0" y="288" style="fill: #008000; stroke: #008000; stroke-width: 0.5"/>
    </g>
   </g>
   <g id="line2d_24">
    <path d="M 90 44.64 
L 648 44.64 
" clip-path="url(#p3a00a366cb)" style="fill: none; stroke: #000000; stroke-width: 1.5; stroke-linecap: square"/>
   </g>
   <g id="line2d_25">
    <path d="M 90 164.897929 
L 648 164.897929 
" clip-path="url(#p3a00a366cb)" style="fill: none; stroke: #000000; stroke-width: 1.5; stroke-linecap: square"/>
   </g>
   <g id="patch_3">
    <path d="M 90 256.32 
L 90 34.56 
" style="fill: none; stroke: #000000; stroke-width: 0.8; stroke-linejoin: miter; stroke-linecap: square"/>
   </g>
   <g id="patch_4">
    <path d="M 648 256.32 
L 648 34.56 
" style="fill: none; stroke: #000000; stroke-width: 0.8; stroke-linejoin: miter; stroke-linecap: square"/>
   </g>
   <g id="patch_5">
    <path d="M 90 256.32 
L 648 256.32 
" style="fill: none; stroke: #000000; stroke-width: 0.8; stroke-linejoin: miter; stroke-linecap: square"/>
   </g>
   <g id="patch_6">
    <path d="M 90 34.56 
L 648 34.56 
" style="fill: none; stroke: #000000; stroke-width: 0.8; stroke-linejoin: miter; stroke-linecap: square"/>
   </g>
   <g id="text_20">
    <!-- peak (5,341) -->
    <g transform="translate(122.179233 41.3136) scale(0.1 -0.1)">
     <defs>
      <path id="DejaVuSans-Bold-70" d="M 1656 506 
L 1656 -1331 
L 538 -1331 
L 538 3500 
L 1656 3500 
L 1656 2988 
Q 1888 3294 2169 3439 
Q 2450 3584 2816 3584 
Q 3463 3584 3878 3070 
Q 4294 2556 4294 1747 
Q 4294 938 3878 423 
Q 3463 -91 2816 -91 
Q 2450 -91 2169 54 
Q 1888 200 1656 506 
z
M 2400 2772 
Q 2041 2772 1848 2508 
Q 1656 2244 1656 1747 
Q 1656 1250 1848 986 
Q 2041 722 2400 722 
Q 2759 722 2948 984 
Q 3138 1247 3138 1747 
Q 3138 2247 2948 2509 
Q 2759 2772 2400 2772 
z
" transform="scale(0.015625)"/>
      <path id="DejaVuSans-Bold-65" d="M 4031 1759 
L 4031 1441 
L 1416 1441 
Q 1456 1047 1700 850 
Q 1944 653 2381 653 
Q 2734 653 3104 758 
Q 3475 863 3866 1075 
L 3866 213 
Q 3469 63 3072 -14 
Q 2675 -91 2278 -91 
Q 1328 -91 801 392 
Q 275 875 275 1747 
Q 275 2603 792 3093 
Q 1309 3584 2216 3584 
Q 3041 3584 3536 3087 
Q 4031 2591 4031 1759 
z
M 2881 2131 
Q 2881 2450 2695 2645 
Q 2509 2841 2209 2841 
Q 1884 2841 1681 2658 
Q 1478 2475 1428 2131 
L 2881 2131 
z
" transform="scale(0.015625)"/>
      <path id="DejaVuSans-Bold-61" d="M 2106 1575 
Q 1756 1575 1579 1456 
Q 1403 1338 1403 1106 
Q 1403 894 1545 773 
Q 1688 653 1941 653 
Q 2256 653 2472 879 
Q 2688 1106 2688 1447 
L 2688 1575 
L 2106 1575 
z
M 3816 1997 
L 3816 0 
L 2688 0 
L 2688 519 
Q 2463 200 2181 54 
Q 1900 -91 1497 -91 
Q 953 -91 614 226 
Q 275 544 275 1050 
Q 275 1666 698 1953 
Q 1122 2241 2028 2241 
L 2688 2241 
L 2688 2328 
Q 2688 2594 2478 2717 
Q 2269 2841 1825 2841 
Q 1466 2841 1156 2769 
Q 847 2697 581 2553 
L 581 3406 
Q 941 3494 1303 3539 
Q 1666 3584 2028 3584 
Q 2975 3584 3395 3211 
Q 3816 2838 3816 1997 
z
" transform="scale(0.015625)"/>
      <path id="DejaVuSans-Bold-6b" d="M 538 4863 
L 1656 4863 
L 1656 2216 
L 2944 3500 
L 4244 3500 
L 2534 1894 
L 4378 0 
L 3022 0 
L 1656 1459 
L 1656 0 
L 538 0 
L 538 4863 
z
" transform="scale(0.015625)"/>
      <path id="DejaVuSans-Bold-20" transform="scale(0.015625)"/>
      <path id="DejaVuSans-Bold-28" d="M 2413 -844 
L 1484 -844 
Q 1006 -72 778 623 
Q 550 1319 550 2003 
Q 550 2688 779 3389 
Q 1009 4091 1484 4856 
L 2413 4856 
Q 2013 4116 1813 3408 
Q 1613 2700 1613 2009 
Q 1613 1319 1811 609 
Q 2009 -100 2413 -844 
z
" transform="scale(0.015625)"/>
      <path id="DejaVuSans-Bold-35" d="M 678 4666 
L 3669 4666 
L 3669 3781 
L 1638 3781 
L 1638 3059 
Q 1775 3097 1914 3117 
Q 2053 3138 2203 3138 
Q 3056 3138 3531 2711 
Q 4006 2284 4006 1522 
Q 4006 766 3489 337 
Q 2972 -91 2053 -91 
Q 1656 -91 1267 -14 
Q 878 63 494 219 
L 494 1166 
Q 875 947 1217 837 
Q 1559 728 1863 728 
Q 2300 728 2551 942 
Q 2803 1156 2803 1522 
Q 2803 1891 2551 2103 
Q 2300 2316 1863 2316 
Q 1603 2316 1309 2248 
Q 1016 2181 678 2041 
L 678 4666 
z
" transform="scale(0.015625)"/>
      <path id="DejaVuSans-Bold-2c" d="M 653 1209 
L 1778 1209 
L 1778 256 
L 1006 -909 
L 341 -909 
L 653 256 
L 653 1209 
z
" transform="scale(0.015625)"/>
      <path id="DejaVuSans-Bold-33" d="M 2981 2516 
Q 3453 2394 3698 2092 
Q 3944 1791 3944 1325 
Q 3944 631 3412 270 
Q 2881 -91 1863 -91 
Q 1503 -91 1142 -33 
Q 781 25 428 141 
L 428 1069 
Q 766 900 1098 814 
Q 1431 728 1753 728 
Q 2231 728 2486 893 
Q 2741 1059 2741 1369 
Q 2741 1688 2480 1852 
Q 2219 2016 1709 2016 
L 1228 2016 
L 1228 2791 
L 1734 2791 
Q 2188 2791 2409 2933 
Q 2631 3075 2631 3366 
Q 2631 3634 2415 3781 
Q 2200 3928 1806 3928 
Q 1516 3928 1219 3862 
Q 922 3797 628 3669 
L 628 4550 
Q 984 4650 1334 4700 
Q 1684 4750 2022 4750 
Q 2931 4750 3382 4451 
Q 3834 4153 3834 3553 
Q 3834 3144 3618 2883 
Q 3403 2622 2981 2516 
z
" transform="scale(0.015625)"/>
      <path id="DejaVuSans-Bold-34" d="M 2356 3675 
L 1038 1722 
L 2356 1722 
L 2356 3675 
z
M 2156 4666 
L 3494 4666 
L 3494 1722 
L 4159 1722 
L 4159 850 
L 3494 850 
L 3494 0 
L 2356 0 
L 2356 850 
L 288 850 
L 288 1881 
L 2156 4666 
z
" transform="scale(0.015625)"/>
      <path id="DejaVuSans-Bold-31" d="M 750 831 
L 1813 831 
L 1813 3847 
L 722 3622 
L 722 4441 
L 1806 4666 
L 2950 4666 
L 2950 831 
L 4013 831 
L 4013 0 
L 750 0 
L 750 831 
z
" transform="scale(0.015625)"/>
      <path id="DejaVuSans-Bold-29" d="M 513 -844 
Q 913 -100 1113 609 
Q 1313 1319 1313 2009 
Q 1313 2700 1113 3408 
Q 913 4116 513 4856 
L 1441 4856 
Q 1916 4091 2145 3389 
Q 2375 2688 2375 2003 
Q 2375 1319 2147 623 
Q 1919 -72 1441 -844 
L 513 -844 
z
" transform="scale(0.015625)"/>
     </defs>
     <use xlink:href="#DejaVuSans-Bold-70"/>
     <use xlink:href="#DejaVuSans-Bold-65" x="71.582031"/>
     <use xlink:href="#DejaVuSans-Bold-61" x="139.404297"/>
     <use xlink:href="#DejaVuSans-Bold-6b" x="206.884766"/>
     <use xlink:href="#DejaVuSans-Bold-20" x="273.388672"/>
     <use xlink:href="#DejaVuSans-Bold-28" x="308.203125"/>
     <use xlink:href="#DejaVuSans-Bold-35" x="353.90625"/>
     <use xlink:href="#DejaVuSans-Bold-2c" x="423.486328"/>
     <use xlink:href="#DejaVuSans-Bold-33" x="461.474609"/>
     <use xlink:href="#DejaVuSans-Bold-34" x="531.054688"/>
     <use xlink:href="#DejaVuSans-Bold-31" x="600.634766"/>
     <use xlink:href="#DejaVuSans-Bold-29" x="670.214844"/>
    </g>
   </g>
   <g id="text_21">
    <!-- mean (2,155) -->
    <g transform="translate(567.728153 161.571529) scale(0.1 -0.1)">
     <defs>
      <path id="DejaVuSans-Bold-6d" d="M 3781 2919 
Q 3994 3244 4286 3414 
Q 4578 3584 4928 3584 
Q 5531 3584 5847 3212 
Q 6163 2841 6163 2131 
L 6163 0 
L 5038 0 
L 5038 1825 
Q 5041 1866 5042 1909 
Q 5044 1953 5044 2034 
Q 5044 2406 4934 2573 
Q 4825 2741 4581 2741 
Q 4263 2741 4089 2478 
Q 3916 2216 3909 1719 
L 3909 0 
L 2784 0 
L 2784 1825 
Q 2784 2406 2684 2573 
Q 2584 2741 2328 2741 
Q 2006 2741 1831 2477 
Q 1656 2213 1656 1722 
L 1656 0 
L 531 0 
L 531 3500 
L 1656 3500 
L 1656 2988 
Q 1863 3284 2130 3434 
Q 2397 3584 2719 3584 
Q 3081 3584 3359 3409 
Q 3638 3234 3781 2919 
z
" transform="scale(0.015625)"/>
      <path id="DejaVuSans-Bold-6e" d="M 4056 2131 
L 4056 0 
L 2931 0 
L 2931 347 
L 2931 1631 
Q 2931 2084 2911 2256 
Q 2891 2428 2841 2509 
Q 2775 2619 2662 2680 
Q 2550 2741 2406 2741 
Q 2056 2741 1856 2470 
Q 1656 2200 1656 1722 
L 1656 0 
L 538 0 
L 538 3500 
L 1656 3500 
L 1656 2988 
Q 1909 3294 2193 3439 
Q 2478 3584 2822 3584 
Q 3428 3584 3742 3212 
Q 4056 2841 4056 2131 
z
" transform="scale(0.015625)"/>
      <path id="DejaVuSans-Bold-32" d="M 1844 884 
L 3897 884 
L 3897 0 
L 506 0 
L 506 884 
L 2209 2388 
Q 2438 2594 2547 2791 
Q 2656 2988 2656 3200 
Q 2656 3528 2436 3728 
Q 2216 3928 1850 3928 
Q 1569 3928 1234 3808 
Q 900 3688 519 3450 
L 519 4475 
Q 925 4609 1322 4679 
Q 1719 4750 2100 4750 
Q 2938 4750 3402 4381 
Q 3866 4013 3866 3353 
Q 3866 2972 3669 2642 
Q 3472 2313 2841 1759 
L 1844 884 
z
" transform="scale(0.015625)"/>
     </defs>
     <use xlink:href="#DejaVuSans-Bold-6d"/>
     <use xlink:href="#DejaVuSans-Bold-65" x="104.199219"/>
     <use xlink:href="#DejaVuSans-Bold-61" x="172.021484"/>
     <use xlink:href="#DejaVuSans-Bold-6e" x="239.501953"/>
     <use xlink:href="#DejaVuSans-Bold-20" x="310.693359"/>
     <use xlink:href="#DejaVuSans-Bold-28" x="345.507812"/>
     <use xlink:href="#DejaVuSans-Bold-32" x="391.210938"/>
     <use xlink:href="#DejaVuSans-Bold-2c" x="460.791016"/>
     <use xlink:href="#DejaVuSans-Bold-31" x="498.779297"/>
     <use xlink:href="#DejaVuSans-Bold-35" x="568.359375"/>
     <use xlink:href="#DejaVuSans-Bold-35" x="637.939453"/>
     <use xlink:href="#DejaVuSans-Bold-29" x="707.519531"/>
    </g>
   </g>
   <g id="text_22">
    <!-- Stream Bitrate over Time -->
    <g transform="translate(293.189062 28.56) scale(0.12 -0.12)">
     <defs>
      <path id="DejaVuSans-53" d="M 3425 4513 
L 3425 3897 
Q 3066 4069 2747 4153 
Q 2428 4238 2131 4238 
Q 1616 4238 1336 4038 
Q 1056 3838 1056 3469 
Q 1056 3159 1242 3001 
Q 1428 2844 1947 2747 
L 2328 2669 
Q 3034 2534 3370 2195 
Q 3706 1856 3706 1288 
Q 3706 609 3251 259 
Q 2797 -91 1919 -91 
Q 1588 -91 1214 -16 
Q 841 59 441 206 
L 441 856 
Q 825 641 1194 531 
Q 1563 422 1919 422 
Q 2459 422 2753 634 
Q 3047 847 3047 1241 
Q 3047 1584 2836 1778 
Q 2625 1972 2144 2069 
L 1759 2144 
Q 1053 2284 737 2584 
Q 422 2884 422 3419 
Q 422 4038 858 4394 
Q 1294 4750 2059 4750 
Q 2388 4750 2728 4690 
Q 3069 4631 3425 4513 
z
" transform="scale(0.015625)"/>
      <path id="DejaVuSans-6f" d="M 1959 3097 
Q 1497 3097 1228 2736 
Q 959 2375 959 1747 
Q 959 1119 1226 758 
Q 1494 397 1959 397 
Q 2419 397 2687 759 
Q 2956 1122 2956 1747 
Q 2956 2369 2687 2733 
Q 2419 3097 1959 3097 
z
M 1959 3584 
Q 2709 3584 3137 3096 
Q 3566 2609 3566 1747 
Q 3566 888 3137 398 
Q 2709 -91 1959 -91 
Q 1206 -91 779 398 
Q 353 888 353 1747 
Q 353 2609 779 3096 
Q 1206 3584 1959 3584 
z
" transform="scale(0.015625)"/>
      <path id="DejaVuSans-76" d="M 191 3500 
L 800 3500 
L 1894 563 
L 2988 3500 
L 3597 3500 
L 2284 0 
L 1503 0 
L 191 3500 
z
" transform="scale(0.015625)"/>
     </defs>
     <use xlink:href="#DejaVuSans-53"/>
     <use xlink:href="#DejaVuSans-74" x="63.476562"/>
     <use xlink:href="#DejaVuSans-72" x="102.685547"/>
     <use xlink:href="#DejaVuSans-65" x="141.548828"/>
     <use xlink:href="#DejaVuSans-61" x="203.072266"/>
     <use xlink:href="#DejaVuSans-6d" x="264.351562"/>
     <use xlink:href="#DejaVuSans-20" x="361.763672"/>
     <use xlink:href="#DejaVuSans-42" x="393.550781"/>
     <use xlink:href="#DejaVuSans-69" x="462.154297"/>
     <use xlink:href="#DejaVuSans-74" x="489.9375"/>
     <use xlink:href="#DejaVuSans-72" x="529.146484"/>
     <use xlink:href="#DejaVuSans-61" x="570.259766"/>
     <use xlink:href="#DejaVuSans-74" x="631.539062"/>
     <use xlink:href="#DejaVuSans-65" x="670.748047"/>
     <use xlink:href="#DejaVuSans-20" x="732.271484"/>
     <use xlink:href="#DejaVuSans-6f" x="764.058594"/>
     <use xlink:href="#DejaVuSans-76" x="825.240234"/>
     <use xlink:href="#DejaVuSans-65" x="884.419922"/>
     <use xlink:href="#DejaVuSans-72" x="945.943359"/>
     <use xlink:href="#DejaVuSans-20" x="987.056641"/>
     <use xlink:href="#DejaVuSans-54" x="1018.84375"/>
     <use xlink:href="#DejaVuSans-69" x="1076.802734"/>
     <use xlink:href="#DejaVuSans-6d" x="1104.585938"/>
     <use xlink:href="#DejaVuSans-65" x="1201.998047"/>
    </g>
   </g>
   <g id="legend_1">
    <g id="patch_7">
     <path d="M 602.139063 86.594375 
L 641 86.594375 
Q 643 86.594375 643 84.594375 
L 643 41.56 
Q 643 39.56 641 39.56 
L 602.139063 39.56 
Q 600.139063 39.56 600.139063 41.56 
L 600.139063 84.594375 
Q 600.139063 86.594375 602.139063 86.594375 
z
" style="fill: #ffffff; opacity: 0.8; stroke: #cccccc; stroke-linejoin: miter"/>
    </g>
    <g id="patch_8">
     <path d="M 604.139063 51.158438 
L 624.139063 51.158438 
L 624.139063 44.158438 
L 604.139063 44.158438 
z
" style="fill: #ff0000; stroke: #ff0000; stroke-width: 0.5; stroke-linejoin: miter"/>
    </g>
    <g id="text_23">
     <!-- I -->
     <g transform="translate(632.139063 51.158438) scale(0.1 -0.1)">
      <defs>
       <path id="DejaVuSans-49" d="M 628 4666 
L 1259 4666 
L 1259 0 
L 628 0 
L 628 4666 
z
" transform="scale(0.015625)"/>
      </defs>
      <use xlink:href="#DejaVuSans-49"/>
     </g>
    </g>
    <g id="patch_9">
     <path d="M 604.139063 65.836563 
L 624.139063 65.836563 
L 624.139063 58.836563 
L 604.139063 58.836563 
z
" style="fill: #0000ff; stroke: #0000ff; stroke-width: 0.5; stroke-linejoin: miter"/>
    </g>
    <g id="text_24">
     <!-- B -->
     <g transform="translate(632.139063 65.836563) scale(0.1 -0.1)">
      <use xlink:href="#DejaVuSans-42"/>
     </g>
    </g>
    <g id="patch_10">
     <path d="M 604.139063 80.514688 
L 624.139063 80.514688 
L 624.139063 73.514688 
L 604.139063 73.514688 
z
" style="fill: #008000; stroke: #008000; stroke-width: 0.5; stroke-linejoin: miter"/>
    </g>
    <g id="text_25">
     <!-- P -->
     <g transform="translate(632.139063 80.514688) scale(0.1 -0.1)">
      <defs>
       <path id="DejaVuSans-50" d="M 1259 4147 
L 1259 2394 
L 2053 2394 
Q 2494 2394 2734 2622 
Q 2975 2850 2975 3272 
Q 2975 3691 2734 3919 
Q 2494 4147 2053 4147 
L 1259 4147 
z
M 628 4666 
L 2053 4666 
Q 2838 4666 3239 4311 
Q 3641 3956 3641 3272 
Q 3641 2581 3239 2228 
Q 2838 1875 2053 1875 
L 1259 1875 
L 1259 0 
L 628 0 
L 628 4666 
z
" transform="scale(0.015625)"/>
      </defs>
      <use xlink:href="#DejaVuSans-50"/>
     </g>
    </g>
   </g>
  </g>
 </g>
 <defs>
  <clipPath id="p3a00a366cb">
   <rect x="90" y="34.56" width="558" height="221.76"/>
  </clipPath>
 </defs>
</svg>
