<?xml version="1.0" encoding="utf-8" standalone="no"?>
<!DOCTYPE svg PUBLIC "-//W3C//DTD SVG 1.1//EN"
  "http://www.w3.org/Graphics/SVG/1.1/DTD/svg11.dtd">
<svg xmlns:xlink="http://www.w3.org/1999/xlink" width="720pt" height="288pt" viewBox="0 0 720 288" xmlns="http://www.w3.org/2000/svg" version="1.1">
 <metadata>
  <rdf:RDF xmlns:dc="http://purl.org/dc/elements/1.1/" xmlns:cc="http://creativecommons.org/ns#" xmlns:rdf="http://www.w3.org/1999/02/22-rdf-syntax-ns#">
   <cc:Work>
    <dc:type rdf:resource="http://purl.org/dc/dcmitype/StillImage"/>
    <dc:date>2023-05-07T02:00:23.751076</dc:date>
    <dc:format>image/svg+xml</dc:format>
    <dc:creator>
     <cc:Agent>
      <dc:title>Matplotlib v3.7.1, https://matplotlib.org/</dc:title>
     </cc:Agent>
    </dc:creator>
   </cc:Work>
  </rdf:RDF>
 </metadata>
 <defs>
  <style type="text/css">*{stroke-linejoin: round; stroke-linecap: butt}</style>
 </defs>
 <g id="figure_1">
  <g id="patch_1">
   <path d="M 0 288 
L 720 288 
L 720 0 
L 0 0 
z
" style="fill: #ffffff"/>
  </g>
  <g id="axes_1">
   <g id="patch_2">
    <path d="M 90 256.32 
L 648 256.32 
L 648 34.56 
L 90 34.56 
z
" style="fill: #ffffff"/>
   </g>
   <g id="matplotlib.axis_1">
    <g id="xtick_1">
     <g id="line2d_1">
      <defs>
       <path id="mf3f277e614" d="M 0 0 
L 0 3.5 
" style="stroke: #000000; stroke-width: 0.8"/>
      </defs>
      <g>
       <use xlink:href="#mf3f277e614" x="115.363636" y="256.32" style="stroke: #000000; stroke-width: 0.8"/>
      </g>
     </g>
     <g id="text_1">
      <!-- 0:00:00 -->
      <g transform="translate(96.088636 270.918437) scale(0.1 -0.1)">
       <defs>
        <path id="DejaVuSans-30" d="M 2034 4250 
Q 1547 4250 1301 3770 
Q 1056 3291 1056 2328 
Q 1056 1369 1301 889 
Q 1547 409 2034 409 
Q 2525 409 2770 889 
Q 3016 1369 3016 2328 
Q 3016 3291 2770 3770 
Q 2525 4250 2034 4250 
z
M 2034 4750 
Q 2819 4750 3233 4129 
Q 3647 3509 3647 2328 
Q 3647 1150 3233 529 
Q 2819 -91 2034 -91 
Q 1250 -91 836 529 
Q 422 1150 422 2328 
Q 422 3509 836 4129 
Q 1250 4750 2034 4750 
z
" transform="scale(0.015625)"/>
        <path id="DejaVuSans-3a" d="M 750 794 
L 1409 794 
L 1409 0 
L 750 0 
L 750 794 
z
M 750 3309 
L 1409 3309 
L 1409 2516 
L 750 2516 
L 750 3309 
z
" transform="scale(0.015625)"/>
       </defs>
       <use xlink:href="#DejaVuSans-30"/>
       <use xlink:href="#DejaVuSans-3a" x="63.623047"/>
       <use xlink:href="#DejaVuSans-30" x="97.314453"/>
       <use xlink:href="#DejaVuSans-30" x="160.9375"/>
       <use xlink:href="#DejaVuSans-3a" x="224.560547"/>
       <use xlink:href="#DejaVuSans-30" x="258.251953"/>
       <use xlink:href="#DejaVuSans-30" x="321.875"/>
      </g>
     </g>
    </g>
    <g id="xtick_2">
     <g id="line2d_2">
      <g>
       <use xlink:href="#mf3f277e614" x="166.090909" y="256.32" style="stroke: #000000; stroke-width: 0.8"/>
      </g>
     </g>
     <g id="text_2">
      <!-- 0:00:30 -->
      <g transform="translate(146.815909 270.918437) scale(0.1 -0.1)">
       <defs>
        <path id="DejaVuSans-33" d="M 2597 2516 
Q 3050 2419 3304 2112 
Q 3559 1806 3559 1356 
Q 3559 666 3084 287 
Q 2609 -91 1734 -91 
Q 1441 -91 1130 -33 
Q 819 25 488 141 
L 488 750 
Q 750 597 1062 519 
Q 1375 441 1716 441 
Q 2309 441 2620 675 
Q 2931 909 2931 1356 
Q 2931 1769 2642 2001 
Q 2353 2234 1838 2234 
L 1294 2234 
L 1294 2753 
L 1863 2753 
Q 2328 2753 2575 2939 
Q 2822 3125 2822 3475 
Q 2822 3834 2567 4026 
Q 2313 4219 1838 4219 
Q 1578 4219 1281 4162 
Q 984 4106 628 3988 
L 628 4550 
Q 988 4650 1302 4700 
Q 1616 4750 1894 4750 
Q 2613 4750 3031 4423 
Q 3450 4097 3450 3541 
Q 3450 3153 3228 2886 
Q 3006 2619 2597 2516 
z
" transform="scale(0.015625)"/>
       </defs>
       <use xlink:href="#DejaVuSans-30"/>
       <use xlink:href="#DejaVuSans-3a" x="63.623047"/>
       <use xlink:href="#DejaVuSans-30" x="97.314453"/>
       <use xlink:href="#DejaVuSans-30" x="160.9375"/>
       <use xlink:href="#DejaVuSans-3a" x="224.560547"/>
       <use xlink:href="#DejaVuSans-33" x="258.251953"/>
       <use xlink:href="#DejaVuSans-30" x="321.875"/>
      </g>
     </g>
    </g>
    <g id="xtick_3">
     <g id="line2d_3">
      <g>
       <use xlink:href="#mf3f277e614" x="216.818182" y="256.32" style="stroke: #000000; stroke-width: 0.8"/>
      </g>
     </g>
     <g id="text_3">
      <!-- 0:01:00 -->
      <g transform="translate(197.543182 270.918437) scale(0.1 -0.1)">
       <defs>
        <path id="DejaVuSans-31" d="M 794 531 
L 1825 531 
L 1825 4091 
L 703 3866 
L 703 4441 
L 1819 4666 
L 2450 4666 
L 2450 531 
L 3481 531 
L 3481 0 
L 794 0 
L 794 531 
z
" transform="scale(0.015625)"/>
       </defs>
       <use xlink:href="#DejaVuSans-30"/>
       <use xlink:href="#DejaVuSans-3a" x="63.623047"/>
       <use xlink:href="#DejaVuSans-30" x="97.314453"/>
       <use xlink:href="#DejaVuSans-31" x="160.9375"/>
       <use xlink:href="#DejaVuSans-3a" x="224.560547"/>
       <use xlink:href="#DejaVuSans-30" x="258.251953"/>
       <use xlink:href="#DejaVuSans-30" x="321.875"/>
      </g>
     </g>
    </g>
    <g id="xtick_4">
     <g id="line2d_4">
      <g>
       <use xlink:href="#mf3f277e614" x="267.545455" y="256.32" style="stroke: #000000; stroke-width: 0.8"/>
      </g>
     </g>
     <g id="text_4">
      <!-- 0:01:30 -->
      <g transform="translate(248.270455 270.918437) scale(0.1 -0.1)">
       <use xlink:href="#DejaVuSans-30"/>
       <use xlink:href="#DejaVuSans-3a" x="63.623047"/>
       <use xlink:href="#DejaVuSans-30" x="97.314453"/>
       <use xlink:href="#DejaVuSans-31" x="160.9375"/>
       <use xlink:href="#DejaVuSans-3a" x="224.560547"/>
       <use xlink:href="#DejaVuSans-33" x="258.251953"/>
       <use xlink:href="#DejaVuSans-30" x="321.875"/>
      </g>
     </g>
    </g>
    <g id="xtick_5">
     <g id="line2d_5">
      <g>
       <use xlink:href="#mf3f277e614" x="318.272727" y="256.32" style="stroke: #000000; stroke-width: 0.8"/>
      </g>
     </g>
     <g id="text_5">
      <!-- 0:02:00 -->
      <g transform="translate(298.997727 270.918437) scale(0.1 -0.1)">
       <defs>
        <path id="DejaVuSans-32" d="M 1228 531 
L 3431 531 
L 3431 0 
L 469 0 
L 469 531 
Q 828 903 1448 1529 
Q 2069 2156 2228 2338 
Q 2531 2678 2651 2914 
Q 2772 3150 2772 3378 
Q 2772 3750 2511 3984 
Q 2250 4219 1831 4219 
Q 1534 4219 1204 4116 
Q 875 4013 500 3803 
L 500 4441 
Q 881 4594 1212 4672 
Q 1544 4750 1819 4750 
Q 2544 4750 2975 4387 
Q 3406 4025 3406 3419 
Q 3406 3131 3298 2873 
Q 3191 2616 2906 2266 
Q 2828 2175 2409 1742 
Q 1991 1309 1228 531 
z
" transform="scale(0.015625)"/>
       </defs>
       <use xlink:href="#DejaVuSans-30"/>
       <use xlink:href="#DejaVuSans-3a" x="63.623047"/>
       <use xlink:href="#DejaVuSans-30" x="97.314453"/>
       <use xlink:href="#DejaVuSans-32" x="160.9375"/>
       <use xlink:href="#DejaVuSans-3a" x="224.560547"/>
       <use xlink:href="#DejaVuSans-30" x="258.251953"/>
       <use xlink:href="#DejaVuSans-30" x="321.875"/>
      </g>
     </g>
    </g>
    <g id="xtick_6">
     <g id="line2d_6">
      <g>
       <use xlink:href="#mf3f277e614" x="369" y="256.32" style="stroke: #000000; stroke-width: 0.8"/>
      </g>
     </g>
     <g id="text_6">
      <!-- 0:02:30 -->
      <g transform="translate(349.725 270.918437) scale(0.1 -0.1)">
       <use xlink:href="#DejaVuSans-30"/>
       <use xlink:href="#DejaVuSans-3a" x="63.623047"/>
       <use xlink:href="#DejaVuSans-30" x="97.314453"/>
       <use xlink:href="#DejaVuSans-32" x="160.9375"/>
       <use xlink:href="#DejaVuSans-3a" x="224.560547"/>
       <use xlink:href="#DejaVuSans-33" x="258.251953"/>
       <use xlink:href="#DejaVuSans-30" x="321.875"/>
      </g>
     </g>
    </g>
    <g id="xtick_7">
     <g id="line2d_7">
      <g>
       <use xlink:href="#mf3f277e614" x="419.727273" y="256.32" style="stroke: #000000; stroke-width: 0.8"/>
      </g>
     </g>
     <g id="text_7">
      <!-- 0:03:00 -->
      <g transform="translate(400.452273 270.918437) scale(0.1 -0.1)">
       <use xlink:href="#DejaVuSans-30"/>
       <use xlink:href="#DejaVuSans-3a" x="63.623047"/>
       <use xlink:href="#DejaVuSans-30" x="97.314453"/>
       <use xlink:href="#DejaVuSans-33" x="160.9375"/>
       <use xlink:href="#DejaVuSans-3a" x="224.560547"/>
       <use xlink:href="#DejaVuSans-30" x="258.251953"/>
       <use xlink:href="#DejaVuSans-30" x="321.875"/>
      </g>
     </g>
    </g>
    <g id="xtick_8">
     <g id="line2d_8">
      <g>
       <use xlink:href="#mf3f277e614" x="470.454545" y="256.32" style="stroke: #000000; stroke-width: 0.8"/>
      </g>
     </g>
     <g id="text_8">
      <!-- 0:03:30 -->
      <g transform="translate(451.179545 270.918437) scale(0.1 -0.1)">
       <use xlink:href="#DejaVuSans-30"/>
       <use xlink:href="#DejaVuSans-3a" x="63.623047"/>
       <use xlink:href="#DejaVuSans-30" x="97.314453"/>
       <use xlink:href="#DejaVuSans-33" x="160.9375"/>
       <use xlink:href="#DejaVuSans-3a" x="224.560547"/>
       <use xlink:href="#DejaVuSans-33" x="258.251953"/>
       <use xlink:href="#DejaVuSans-30" x="321.875"/>
      </g>
     </g>
    </g>
    <g id="xtick_9">
     <g id="line2d_9">
      <g>
       <use xlink:href="#mf3f277e614" x="521.181818" y="256.32" style="stroke: #000000; stroke-width: 0.8"/>
      </g>
     </g>
     <g id="text_9">
      <!-- 0:04:00 -->
      <g transform="translate(501.906818 270.918437) scale(0.1 -0.1)">
       <defs>
        <path id="DejaVuSans-34" d="M 2419 4116 
L 825 1625 
L 2419 1625 
L 2419 4116 
z
M 2253 4666 
L 3047 4666 
L 3047 1625 
L 3713 1625 
L 3713 1100 
L 3047 1100 
L 3047 0 
L 2419 0 
L 2419 1100 
L 313 1100 
L 313 1709 
L 2253 4666 
z
" transform="scale(0.015625)"/>
       </defs>
       <use xlink:href="#DejaVuSans-30"/>
       <use xlink:href="#DejaVuSans-3a" x="63.623047"/>
       <use xlink:href="#DejaVuSans-30" x="97.314453"/>
       <use xlink:href="#DejaVuSans-34" x="160.9375"/>
       <use xlink:href="#DejaVuSans-3a" x="224.560547"/>
       <use xlink:href="#DejaVuSans-30" x="258.251953"/>
       <use xlink:href="#DejaVuSans-30" x="321.875"/>
      </g>
     </g>
    </g>
    <g id="xtick_10">
     <g id="line2d_10">
      <g>
       <use xlink:href="#mf3f277e614" x="571.909091" y="256.32" style="stroke: #000000; stroke-width: 0.8"/>
      </g>
     </g>
     <g id="text_10">
      <!-- 0:04:30 -->
      <g transform="translate(552.634091 270.918437) scale(0.1 -0.1)">
       <use xlink:href="#DejaVuSans-30"/>
       <use xlink:href="#DejaVuSans-3a" x="63.623047"/>
       <use xlink:href="#DejaVuSans-30" x="97.314453"/>
       <use xlink:href="#DejaVuSans-34" x="160.9375"/>
       <use xlink:href="#DejaVuSans-3a" x="224.560547"/>
       <use xlink:href="#DejaVuSans-33" x="258.251953"/>
       <use xlink:href="#DejaVuSans-30" x="321.875"/>
      </g>
     </g>
    </g>
    <g id="xtick_11">
     <g id="line2d_11">
      <g>
       <use xlink:href="#mf3f277e614" x="622.636364" y="256.32" style="stroke: #000000; stroke-width: 0.8"/>
      </g>
     </g>
     <g id="text_11">
      <!-- 0:05:00 -->
      <g transform="translate(603.361364 270.918437) scale(0.1 -0.1)">
       <defs>
        <path id="DejaVuSans-35" d="M 691 4666 
L 3169 4666 
L 3169 4134 
L 1269 4134 
L 1269 2991 
Q 1406 3038 1543 3061 
Q 1681 3084 1819 3084 
Q 2600 3084 3056 2656 
Q 3513 2228 3513 1497 
Q 3513 744 3044 326 
Q 2575 -91 1722 -91 
Q 1428 -91 1123 -41 
Q 819 9 494 109 
L 494 744 
Q 775 591 1075 516 
Q 1375 441 1709 441 
Q 2250 441 2565 725 
Q 2881 1009 2881 1497 
Q 2881 1984 2565 2268 
Q 2250 2553 1709 2553 
Q 1456 2553 1204 2497 
Q 953 2441 691 2322 
L 691 4666 
z
" transform="scale(0.015625)"/>
       </defs>
       <use xlink:href="#DejaVuSans-30"/>
       <use xlink:href="#DejaVuSans-3a" x="63.623047"/>
       <use xlink:href="#DejaVuSans-30" x="97.314453"/>
       <use xlink:href="#DejaVuSans-35" x="160.9375"/>
       <use xlink:href="#DejaVuSans-3a" x="224.560547"/>
       <use xlink:href="#DejaVuSans-30" x="258.251953"/>
       <use xlink:href="#DejaVuSans-30" x="321.875"/>
      </g>
     </g>
    </g>
    <g id="text_12">
     <!-- Time -->
     <g transform="translate(356.766406 284.596563) scale(0.1 -0.1)">
      <defs>
       <path id="DejaVuSans-54" d="M -19 4666 
L 3928 4666 
L 3928 4134 
L 2272 4134 
L 2272 0 
L 1638 0 
L 1638 4134 
L -19 4134 
L -19 4666 
z
" transform="scale(0.015625)"/>
       <path id="DejaVuSans-69" d="M 603 3500 
L 1178 3500 
L 1178 0 
L 603 0 
L 603 3500 
z
M 603 4863 
L 1178 4863 
L 1178 4134 
L 603 4134 
L 603 4863 
z
" transform="scale(0.015625)"/>
       <path id="DejaVuSans-6d" d="M 3328 2828 
Q 3544 3216 3844 3400 
Q 4144 3584 4550 3584 
Q 5097 3584 5394 3201 
Q 5691 2819 5691 2113 
L 5691 0 
L 5113 0 
L 5113 2094 
Q 5113 2597 4934 2840 
Q 4756 3084 4391 3084 
Q 3944 3084 3684 2787 
Q 3425 2491 3425 1978 
L 3425 0 
L 2847 0 
L 2847 2094 
Q 2847 2600 2669 2842 
Q 2491 3084 2119 3084 
Q 1678 3084 1418 2786 
Q 1159 2488 1159 1978 
L 1159 0 
L 581 0 
L 581 3500 
L 1159 3500 
L 1159 2956 
Q 1356 3278 1631 3431 
Q 1906 3584 2284 3584 
Q 2666 3584 2933 3390 
Q 3200 3197 3328 2828 
z
" transform="scale(0.015625)"/>
       <path id="DejaVuSans-65" d="M 3597 1894 
L 3597 1613 
L 953 1613 
Q 991 1019 1311 708 
Q 1631 397 2203 397 
Q 2534 397 2845 478 
Q 3156 559 3463 722 
L 3463 178 
Q 3153 47 2828 -22 
Q 2503 -91 2169 -91 
Q 1331 -91 842 396 
Q 353 884 353 1716 
Q 353 2575 817 3079 
Q 1281 3584 2069 3584 
Q 2775 3584 3186 3129 
Q 3597 2675 3597 1894 
z
M 3022 2063 
Q 3016 2534 2758 2815 
Q 2500 3097 2075 3097 
Q 1594 3097 1305 2825 
Q 1016 2553 972 2059 
L 3022 2063 
z
" transform="scale(0.015625)"/>
      </defs>
      <use xlink:href="#DejaVuSans-54"/>
      <use xlink:href="#DejaVuSans-69" x="57.958984"/>
      <use xlink:href="#DejaVuSans-6d" x="85.742188"/>
      <use xlink:href="#DejaVuSans-65" x="183.154297"/>
     </g>
    </g>
   </g>
   <g id="matplotlib.axis_2">
    <g id="ytick_1">
     <g id="line2d_12">
      <path d="M 90 246.24 
L 648 246.24 
" clip-path="url(#p535bfe73c7)" style="fill: none; stroke: #b0b0b0; stroke-width: 0.8; stroke-linecap: square"/>
     </g>
     <g id="line2d_13">
      <defs>
       <path id="m331a96276d" d="M 0 0 
L -3.5 0 
" style="stroke: #000000; stroke-width: 0.8"/>
      </defs>
      <g>
       <use xlink:href="#m331a96276d" x="90" y="246.24" style="stroke: #000000; stroke-width: 0.8"/>
      </g>
     </g>
     <g id="text_13">
      <!-- 0 -->
      <g transform="translate(76.6375 250.039219) scale(0.1 -0.1)">
       <use xlink:href="#DejaVuSans-30"/>
      </g>
     </g>
    </g>
    <g id="ytick_2">
     <g id="line2d_14">
      <path d="M 90 202.121387 
L 648 202.121387 
" clip-path="url(#p535bfe73c7)" style="fill: none; stroke: #b0b0b0; stroke-width: 0.8; stroke-linecap: square"/>
     </g>
     <g id="line2d_15">
      <g>
       <use xlink:href="#m331a96276d" x="90" y="202.121387" style="stroke: #000000; stroke-width: 0.8"/>
      </g>
     </g>
     <g id="text_14">
      <!-- 2,000 -->
      <g transform="translate(54.371875 205.920606) scale(0.1 -0.1)">
       <defs>
        <path id="DejaVuSans-2c" d="M 750 794 
L 1409 794 
L 1409 256 
L 897 -744 
L 494 -744 
L 750 256 
L 750 794 
z
" transform="scale(0.015625)"/>
       </defs>
       <use xlink:href="#DejaVuSans-32"/>
       <use xlink:href="#DejaVuSans-2c" x="63.623047"/>
       <use xlink:href="#DejaVuSans-30" x="95.410156"/>
       <use xlink:href="#DejaVuSans-30" x="159.033203"/>
       <use xlink:href="#DejaVuSans-30" x="222.65625"/>
      </g>
     </g>
    </g>
    <g id="ytick_3">
     <g id="line2d_16">
      <path d="M 90 158.002775 
L 648 158.002775 
" clip-path="url(#p535bfe73c7)" style="fill: none; stroke: #b0b0b0; stroke-width: 0.8; stroke-linecap: square"/>
     </g>
     <g id="line2d_17">
      <g>
       <use xlink:href="#m331a96276d" x="90" y="158.002775" style="stroke: #000000; stroke-width: 0.8"/>
      </g>
     </g>
     <g id="text_15">
      <!-- 4,000 -->
      <g transform="translate(54.371875 161.801994) scale(0.1 -0.1)">
       <use xlink:href="#DejaVuSans-34"/>
       <use xlink:href="#DejaVuSans-2c" x="63.623047"/>
       <use xlink:href="#DejaVuSans-30" x="95.410156"/>
       <use xlink:href="#DejaVuSans-30" x="159.033203"/>
       <use xlink:href="#DejaVuSans-30" x="222.65625"/>
      </g>
     </g>
    </g>
    <g id="ytick_4">
     <g id="line2d_18">
      <path d="M 90 113.884162 
L 648 113.884162 
" clip-path="url(#p535bfe73c7)" style="fill: none; stroke: #b0b0b0; stroke-width: 0.8; stroke-linecap: square"/>
     </g>
     <g id="line2d_19">
      <g>
       <use xlink:href="#m331a96276d" x="90" y="113.884162" style="stroke: #000000; stroke-width: 0.8"/>
      </g>
     </g>
     <g id="text_16">
      <!-- 6,000 -->
      <g transform="translate(54.371875 117.683381) scale(0.1 -0.1)">
       <defs>
        <path id="DejaVuSans-36" d="M 2113 2584 
Q 1688 2584 1439 2293 
Q 1191 2003 1191 1497 
Q 1191 994 1439 701 
Q 1688 409 2113 409 
Q 2538 409 2786 701 
Q 3034 994 3034 1497 
Q 3034 2003 2786 2293 
Q 2538 2584 2113 2584 
z
M 3366 4563 
L 3366 3988 
Q 3128 4100 2886 4159 
Q 2644 4219 2406 4219 
Q 1781 4219 1451 3797 
Q 1122 3375 1075 2522 
Q 1259 2794 1537 2939 
Q 1816 3084 2150 3084 
Q 2853 3084 3261 2657 
Q 3669 2231 3669 1497 
Q 3669 778 3244 343 
Q 2819 -91 2113 -91 
Q 1303 -91 875 529 
Q 447 1150 447 2328 
Q 447 3434 972 4092 
Q 1497 4750 2381 4750 
Q 2619 4750 2861 4703 
Q 3103 4656 3366 4563 
z
" transform="scale(0.015625)"/>
       </defs>
       <use xlink:href="#DejaVuSans-36"/>
       <use xlink:href="#DejaVuSans-2c" x="63.623047"/>
       <use xlink:href="#DejaVuSans-30" x="95.410156"/>
       <use xlink:href="#DejaVuSans-30" x="159.033203"/>
       <use xlink:href="#DejaVuSans-30" x="222.65625"/>
      </g>
     </g>
    </g>
    <g id="ytick_5">
     <g id="line2d_20">
      <path d="M 90 69.76555 
L 648 69.76555 
" clip-path="url(#p535bfe73c7)" style="fill: none; stroke: #b0b0b0; stroke-width: 0.8; stroke-linecap: square"/>
     </g>
     <g id="line2d_21">
      <g>
       <use xlink:href="#m331a96276d" x="90" y="69.76555" style="stroke: #000000; stroke-width: 0.8"/>
      </g>
     </g>
     <g id="text_17">
      <!-- 8,000 -->
      <g transform="translate(54.371875 73.564769) scale(0.1 -0.1)">
       <defs>
        <path id="DejaVuSans-38" d="M 2034 2216 
Q 1584 2216 1326 1975 
Q 1069 1734 1069 1313 
Q 1069 891 1326 650 
Q 1584 409 2034 409 
Q 2484 409 2743 651 
Q 3003 894 3003 1313 
Q 3003 1734 2745 1975 
Q 2488 2216 2034 2216 
z
M 1403 2484 
Q 997 2584 770 2862 
Q 544 3141 544 3541 
Q 544 4100 942 4425 
Q 1341 4750 2034 4750 
Q 2731 4750 3128 4425 
Q 3525 4100 3525 3541 
Q 3525 3141 3298 2862 
Q 3072 2584 2669 2484 
Q 3125 2378 3379 2068 
Q 3634 1759 3634 1313 
Q 3634 634 3220 271 
Q 2806 -91 2034 -91 
Q 1263 -91 848 271 
Q 434 634 434 1313 
Q 434 1759 690 2068 
Q 947 2378 1403 2484 
z
M 1172 3481 
Q 1172 3119 1398 2916 
Q 1625 2713 2034 2713 
Q 2441 2713 2670 2916 
Q 2900 3119 2900 3481 
Q 2900 3844 2670 4047 
Q 2441 4250 2034 4250 
Q 1625 4250 1398 4047 
Q 1172 3844 1172 3481 
z
" transform="scale(0.015625)"/>
       </defs>
       <use xlink:href="#DejaVuSans-38"/>
       <use xlink:href="#DejaVuSans-2c" x="63.623047"/>
       <use xlink:href="#DejaVuSans-30" x="95.410156"/>
       <use xlink:href="#DejaVuSans-30" x="159.033203"/>
       <use xlink:href="#DejaVuSans-30" x="222.65625"/>
      </g>
     </g>
    </g>
    <g id="text_18">
     <!-- Bitrate (kbit/s) -->
     <g transform="translate(48.292187 181.574375) rotate(-90) scale(0.1 -0.1)">
      <defs>
       <path id="DejaVuSans-42" d="M 1259 2228 
L 1259 519 
L 2272 519 
Q 2781 519 3026 730 
Q 3272 941 3272 1375 
Q 3272 1813 3026 2020 
Q 2781 2228 2272 2228 
L 1259 2228 
z
M 1259 4147 
L 1259 2741 
L 2194 2741 
Q 2656 2741 2882 2914 
Q 3109 3088 3109 3444 
Q 3109 3797 2882 3972 
Q 2656 4147 2194 4147 
L 1259 4147 
z
M 628 4666 
L 2241 4666 
Q 2963 4666 3353 4366 
Q 3744 4066 3744 3513 
Q 3744 3084 3544 2831 
Q 3344 2578 2956 2516 
Q 3422 2416 3680 2098 
Q 3938 1781 3938 1306 
Q 3938 681 3513 340 
Q 3088 0 2303 0 
L 628 0 
L 628 4666 
z
" transform="scale(0.015625)"/>
       <path id="DejaVuSans-74" d="M 1172 4494 
L 1172 3500 
L 2356 3500 
L 2356 3053 
L 1172 3053 
L 1172 1153 
Q 1172 725 1289 603 
Q 1406 481 1766 481 
L 2356 481 
L 2356 0 
L 1766 0 
Q 1100 0 847 248 
Q 594 497 594 1153 
L 594 3053 
L 172 3053 
L 172 3500 
L 594 3500 
L 594 4494 
L 1172 4494 
z
" transform="scale(0.015625)"/>
       <path id="DejaVuSans-72" d="M 2631 2963 
Q 2534 3019 2420 3045 
Q 2306 3072 2169 3072 
Q 1681 3072 1420 2755 
Q 1159 2438 1159 1844 
L 1159 0 
L 581 0 
L 581 3500 
L 1159 3500 
L 1159 2956 
Q 1341 3275 1631 3429 
Q 1922 3584 2338 3584 
Q 2397 3584 2469 3576 
Q 2541 3569 2628 3553 
L 2631 2963 
z
" transform="scale(0.015625)"/>
       <path id="DejaVuSans-61" d="M 2194 1759 
Q 1497 1759 1228 1600 
Q 959 1441 959 1056 
Q 959 750 1161 570 
Q 1363 391 1709 391 
Q 2188 391 2477 730 
Q 2766 1069 2766 1631 
L 2766 1759 
L 2194 1759 
z
M 3341 1997 
L 3341 0 
L 2766 0 
L 2766 531 
Q 2569 213 2275 61 
Q 1981 -91 1556 -91 
Q 1019 -91 701 211 
Q 384 513 384 1019 
Q 384 1609 779 1909 
Q 1175 2209 1959 2209 
L 2766 2209 
L 2766 2266 
Q 2766 2663 2505 2880 
Q 2244 3097 1772 3097 
Q 1472 3097 1187 3025 
Q 903 2953 641 2809 
L 641 3341 
Q 956 3463 1253 3523 
Q 1550 3584 1831 3584 
Q 2591 3584 2966 3190 
Q 3341 2797 3341 1997 
z
" transform="scale(0.015625)"/>
       <path id="DejaVuSans-20" transform="scale(0.015625)"/>
       <path id="DejaVuSans-28" d="M 1984 4856 
Q 1566 4138 1362 3434 
Q 1159 2731 1159 2009 
Q 1159 1288 1364 580 
Q 1569 -128 1984 -844 
L 1484 -844 
Q 1016 -109 783 600 
Q 550 1309 550 2009 
Q 550 2706 781 3412 
Q 1013 4119 1484 4856 
L 1984 4856 
z
" transform="scale(0.015625)"/>
       <path id="DejaVuSans-6b" d="M 581 4863 
L 1159 4863 
L 1159 1991 
L 2875 3500 
L 3609 3500 
L 1753 1863 
L 3688 0 
L 2938 0 
L 1159 1709 
L 1159 0 
L 581 0 
L 581 4863 
z
" transform="scale(0.015625)"/>
       <path id="DejaVuSans-62" d="M 3116 1747 
Q 3116 2381 2855 2742 
Q 2594 3103 2138 3103 
Q 1681 3103 1420 2742 
Q 1159 2381 1159 1747 
Q 1159 1113 1420 752 
Q 1681 391 2138 391 
Q 2594 391 2855 752 
Q 3116 1113 3116 1747 
z
M 1159 2969 
Q 1341 3281 1617 3432 
Q 1894 3584 2278 3584 
Q 2916 3584 3314 3078 
Q 3713 2572 3713 1747 
Q 3713 922 3314 415 
Q 2916 -91 2278 -91 
Q 1894 -91 1617 61 
Q 1341 213 1159 525 
L 1159 0 
L 581 0 
L 581 4863 
L 1159 4863 
L 1159 2969 
z
" transform="scale(0.015625)"/>
       <path id="DejaVuSans-2f" d="M 1625 4666 
L 2156 4666 
L 531 -594 
L 0 -594 
L 1625 4666 
z
" transform="scale(0.015625)"/>
       <path id="DejaVuSans-73" d="M 2834 3397 
L 2834 2853 
Q 2591 2978 2328 3040 
Q 2066 3103 1784 3103 
Q 1356 3103 1142 2972 
Q 928 2841 928 2578 
Q 928 2378 1081 2264 
Q 1234 2150 1697 2047 
L 1894 2003 
Q 2506 1872 2764 1633 
Q 3022 1394 3022 966 
Q 3022 478 2636 193 
Q 2250 -91 1575 -91 
Q 1294 -91 989 -36 
Q 684 19 347 128 
L 347 722 
Q 666 556 975 473 
Q 1284 391 1588 391 
Q 1994 391 2212 530 
Q 2431 669 2431 922 
Q 2431 1156 2273 1281 
Q 2116 1406 1581 1522 
L 1381 1569 
Q 847 1681 609 1914 
Q 372 2147 372 2553 
Q 372 3047 722 3315 
Q 1072 3584 1716 3584 
Q 2034 3584 2315 3537 
Q 2597 3491 2834 3397 
z
" transform="scale(0.015625)"/>
       <path id="DejaVuSans-29" d="M 513 4856 
L 1013 4856 
Q 1481 4119 1714 3412 
Q 1947 2706 1947 2009 
Q 1947 1309 1714 600 
Q 1481 -109 1013 -844 
L 513 -844 
Q 928 -128 1133 580 
Q 1338 1288 1338 2009 
Q 1338 2731 1133 3434 
Q 928 4138 513 4856 
z
" transform="scale(0.015625)"/>
      </defs>
      <use xlink:href="#DejaVuSans-42"/>
      <use xlink:href="#DejaVuSans-69" x="68.603516"/>
      <use xlink:href="#DejaVuSans-74" x="96.386719"/>
      <use xlink:href="#DejaVuSans-72" x="135.595703"/>
      <use xlink:href="#DejaVuSans-61" x="176.708984"/>
      <use xlink:href="#DejaVuSans-74" x="237.988281"/>
      <use xlink:href="#DejaVuSans-65" x="277.197266"/>
      <use xlink:href="#DejaVuSans-20" x="338.720703"/>
      <use xlink:href="#DejaVuSans-28" x="370.507812"/>
      <use xlink:href="#DejaVuSans-6b" x="409.521484"/>
      <use xlink:href="#DejaVuSans-62" x="467.431641"/>
      <use xlink:href="#DejaVuSans-69" x="530.908203"/>
      <use xlink:href="#DejaVuSans-74" x="558.691406"/>
      <use xlink:href="#DejaVuSans-2f" x="597.900391"/>
      <use xlink:href="#DejaVuSans-73" x="631.591797"/>
      <use xlink:href="#DejaVuSans-29" x="683.691406"/>
     </g>
    </g>
   </g>
   <g id="PolyCollection_1">
    <defs>
     <path id="mc9a14813ea" d="M 115.363636 -43.789456 
L 115.363636 -41.76 
L 117.054545 -41.76 
L 118.745455 -41.76 
L 120.436364 -41.76 
L 122.127273 -41.76 
L 123.818182 -41.76 
L 125.509091 -41.76 
L 127.2 -41.76 
L 128.890909 -41.76 
L 130.581818 -41.76 
L 132.272727 -41.76 
L 133.963636 -41.76 
L 135.654545 -41.76 
L 137.345455 -41.76 
L 139.036364 -41.76 
L 140.727273 -41.76 
L 142.418182 -41.76 
L 144.109091 -41.76 
L 145.8 -41.76 
L 147.490909 -41.76 
L 149.181818 -41.76 
L 150.872727 -41.76 
L 152.563636 -41.76 
L 154.254545 -41.76 
L 155.945455 -41.76 
L 157.636364 -41.76 
L 159.327273 -41.76 
L 161.018182 -41.76 
L 162.709091 -41.76 
L 164.4 -41.76 
L 166.090909 -41.76 
L 167.781818 -41.76 
L 169.472727 -41.76 
L 171.163636 -41.76 
L 172.854545 -41.76 
L 174.545455 -41.76 
L 176.236364 -41.76 
L 177.927273 -41.76 
L 179.618182 -41.76 
L 181.309091 -41.76 
L 183 -41.76 
L 184.690909 -41.76 
L 186.381818 -41.76 
L 188.072727 -41.76 
L 189.763636 -41.76 
L 191.454545 -41.76 
L 193.145455 -41.76 
L 194.836364 -41.76 
L 196.527273 -41.76 
L 198.218182 -41.76 
L 199.909091 -41.76 
L 201.6 -41.76 
L 203.290909 -41.76 
L 204.981818 -41.76 
L 206.672727 -41.76 
L 208.363636 -41.76 
L 210.054545 -41.76 
L 211.745455 -41.76 
L 213.436364 -41.76 
L 215.127273 -41.76 
L 216.818182 -41.76 
L 218.509091 -41.76 
L 220.2 -41.76 
L 221.890909 -41.76 
L 223.581818 -41.76 
L 225.272727 -41.76 
L 226.963636 -41.76 
L 228.654545 -41.76 
L 230.345455 -41.76 
L 232.036364 -41.76 
L 233.727273 -41.76 
L 235.418182 -41.76 
L 237.109091 -41.76 
L 238.8 -41.76 
L 240.490909 -41.76 
L 242.181818 -41.76 
L 243.872727 -41.76 
L 245.563636 -41.76 
L 247.254545 -41.76 
L 248.945455 -41.76 
L 250.636364 -41.76 
L 252.327273 -41.76 
L 254.018182 -41.76 
L 255.709091 -41.76 
L 257.4 -41.76 
L 259.090909 -41.76 
L 260.781818 -41.76 
L 262.472727 -41.76 
L 264.163636 -41.76 
L 265.854545 -41.76 
L 267.545455 -41.76 
L 269.236364 -41.76 
L 270.927273 -41.76 
L 272.618182 -41.76 
L 274.309091 -41.76 
L 276 -41.76 
L 277.690909 -41.76 
L 279.381818 -41.76 
L 281.072727 -41.76 
L 282.763636 -41.76 
L 284.454545 -41.76 
L 286.145455 -41.76 
L 287.836364 -41.76 
L 289.527273 -41.76 
L 291.218182 -41.76 
L 292.909091 -41.76 
L 294.6 -41.76 
L 296.290909 -41.76 
L 297.981818 -41.76 
L 299.672727 -41.76 
L 301.363636 -41.76 
L 303.054545 -41.76 
L 304.745455 -41.76 
L 306.436364 -41.76 
L 308.127273 -41.76 
L 309.818182 -41.76 
L 311.509091 -41.76 
L 313.2 -41.76 
L 314.890909 -41.76 
L 316.581818 -41.76 
L 318.272727 -41.76 
L 319.963636 -41.76 
L 321.654545 -41.76 
L 323.345455 -41.76 
L 325.036364 -41.76 
L 326.727273 -41.76 
L 328.418182 -41.76 
L 330.109091 -41.76 
L 331.8 -41.76 
L 333.490909 -41.76 
L 335.181818 -41.76 
L 336.872727 -41.76 
L 338.563636 -41.76 
L 340.254545 -41.76 
L 341.945455 -41.76 
L 343.636364 -41.76 
L 345.327273 -41.76 
L 347.018182 -41.76 
L 348.709091 -41.76 
L 350.4 -41.76 
L 352.090909 -41.76 
L 353.781818 -41.76 
L 355.472727 -41.76 
L 357.163636 -41.76 
L 358.854545 -41.76 
L 360.545455 -41.76 
L 362.236364 -41.76 
L 363.927273 -41.76 
L 365.618182 -41.76 
L 367.309091 -41.76 
L 369 -41.76 
L 370.690909 -41.76 
L 372.381818 -41.76 
L 374.072727 -41.76 
L 375.763636 -41.76 
L 377.454545 -41.76 
L 379.145455 -41.76 
L 380.836364 -41.76 
L 382.527273 -41.76 
L 384.218182 -41.76 
L 385.909091 -41.76 
L 387.6 -41.76 
L 389.290909 -41.76 
L 390.981818 -41.76 
L 392.672727 -41.76 
L 394.363636 -41.76 
L 396.054545 -41.76 
L 397.745455 -41.76 
L 399.436364 -41.76 
L 401.127273 -41.76 
L 402.818182 -41.76 
L 404.509091 -41.76 
L 406.2 -41.76 
L 407.890909 -41.76 
L 409.581818 -41.76 
L 411.272727 -41.76 
L 412.963636 -41.76 
L 414.654545 -41.76 
L 416.345455 -41.76 
L 418.036364 -41.76 
L 419.727273 -41.76 
L 421.418182 -41.76 
L 423.109091 -41.76 
L 424.8 -41.76 
L 426.490909 -41.76 
L 428.181818 -41.76 
L 429.872727 -41.76 
L 431.563636 -41.76 
L 433.254545 -41.76 
L 434.945455 -41.76 
L 436.636364 -41.76 
L 438.327273 -41.76 
L 440.018182 -41.76 
L 441.709091 -41.76 
L 443.4 -41.76 
L 445.090909 -41.76 
L 446.781818 -41.76 
L 448.472727 -41.76 
L 450.163636 -41.76 
L 451.854545 -41.76 
L 453.545455 -41.76 
L 455.236364 -41.76 
L 456.927273 -41.76 
L 458.618182 -41.76 
L 460.309091 -41.76 
L 462 -41.76 
L 463.690909 -41.76 
L 465.381818 -41.76 
L 467.072727 -41.76 
L 468.763636 -41.76 
L 470.454545 -41.76 
L 472.145455 -41.76 
L 473.836364 -41.76 
L 475.527273 -41.76 
L 477.218182 -41.76 
L 478.909091 -41.76 
L 480.6 -41.76 
L 482.290909 -41.76 
L 483.981818 -41.76 
L 485.672727 -41.76 
L 487.363636 -41.76 
L 489.054545 -41.76 
L 490.745455 -41.76 
L 492.436364 -41.76 
L 494.127273 -41.76 
L 495.818182 -41.76 
L 497.509091 -41.76 
L 499.2 -41.76 
L 500.890909 -41.76 
L 502.581818 -41.76 
L 504.272727 -41.76 
L 505.963636 -41.76 
L 507.654545 -41.76 
L 509.345455 -41.76 
L 511.036364 -41.76 
L 512.727273 -41.76 
L 514.418182 -41.76 
L 516.109091 -41.76 
L 517.8 -41.76 
L 519.490909 -41.76 
L 521.181818 -41.76 
L 522.872727 -41.76 
L 524.563636 -41.76 
L 526.254545 -41.76 
L 527.945455 -41.76 
L 529.636364 -41.76 
L 531.327273 -41.76 
L 533.018182 -41.76 
L 534.709091 -41.76 
L 536.4 -41.76 
L 538.090909 -41.76 
L 539.781818 -41.76 
L 541.472727 -41.76 
L 543.163636 -41.76 
L 544.854545 -41.76 
L 546.545455 -41.76 
L 548.236364 -41.76 
L 549.927273 -41.76 
L 551.618182 -41.76 
L 553.309091 -41.76 
L 555 -41.76 
L 556.690909 -41.76 
L 558.381818 -41.76 
L 560.072727 -41.76 
L 561.763636 -41.76 
L 563.454545 -41.76 
L 565.145455 -41.76 
L 566.836364 -41.76 
L 568.527273 -41.76 
L 570.218182 -41.76 
L 571.909091 -41.76 
L 573.6 -41.76 
L 575.290909 -41.76 
L 576.981818 -41.76 
L 578.672727 -41.76 
L 580.363636 -41.76 
L 582.054545 -41.76 
L 583.745455 -41.76 
L 585.436364 -41.76 
L 587.127273 -41.76 
L 588.818182 -41.76 
L 590.509091 -41.76 
L 592.2 -41.76 
L 593.890909 -41.76 
L 595.581818 -41.76 
L 597.272727 -41.76 
L 598.963636 -41.76 
L 600.654545 -41.76 
L 602.345455 -41.76 
L 604.036364 -41.76 
L 605.727273 -41.76 
L 607.418182 -41.76 
L 609.109091 -41.76 
L 610.8 -41.76 
L 612.490909 -41.76 
L 614.181818 -41.76 
L 615.872727 -41.76 
L 617.563636 -41.76 
L 619.254545 -41.76 
L 620.945455 -41.76 
L 622.636364 -41.76 
L 622.636364 -41.76 
L 622.636364 -41.76 
L 620.945455 -41.76 
L 619.254545 -41.76 
L 617.563636 -41.76 
L 615.872727 -60.973656 
L 614.181818 -41.76 
L 612.490909 -41.76 
L 610.8 -115.107193 
L 609.109091 -41.76 
L 607.418182 -41.76 
L 605.727273 -41.76 
L 604.036364 -116.518989 
L 602.345455 -41.76 
L 600.654545 -41.76 
L 598.963636 -41.76 
L 597.272727 -77.804906 
L 595.581818 -86.760985 
L 593.890909 -41.76 
L 592.2 -94.592039 
L 590.509091 -41.76 
L 588.818182 -56.583854 
L 587.127273 -41.76 
L 585.436364 -108.886469 
L 583.745455 -41.76 
L 582.054545 -41.76 
L 580.363636 -41.76 
L 578.672727 -98.121528 
L 576.981818 -41.76 
L 575.290909 -41.76 
L 573.6 -41.76 
L 571.909091 -74.981315 
L 570.218182 -41.76 
L 568.527273 -81.003506 
L 566.836364 -81.422633 
L 565.145455 -41.76 
L 563.454545 -56.252964 
L 561.763636 -41.76 
L 560.072727 -138.600355 
L 558.381818 -41.76 
L 556.690909 -91.68021 
L 555 -41.76 
L 553.309091 -57.797116 
L 551.618182 -96.13619 
L 549.927273 -41.76 
L 548.236364 -55.502948 
L 546.545455 -60.289817 
L 544.854545 -41.76 
L 543.163636 -41.76 
L 541.472727 -67.50321 
L 539.781818 -41.76 
L 538.090909 -41.76 
L 536.4 -41.76 
L 534.709091 -41.76 
L 533.018182 -86.783044 
L 531.327273 -118.019022 
L 529.636364 -64.039899 
L 527.945455 -41.76 
L 526.254545 -41.76 
L 524.563636 -41.76 
L 522.872727 -70.194446 
L 521.181818 -41.76 
L 519.490909 -41.76 
L 517.8 -41.76 
L 516.109091 -41.76 
L 514.418182 -60.995715 
L 512.727273 -41.76 
L 511.036364 -124.217687 
L 509.345455 -41.76 
L 507.654545 -41.76 
L 505.963636 -41.76 
L 504.272727 -59.319208 
L 502.581818 -41.76 
L 500.890909 -139.085659 
L 499.2 -41.76 
L 497.509091 -41.76 
L 495.818182 -87.356586 
L 494.127273 -55.194118 
L 492.436364 -41.76 
L 490.745455 -68.010574 
L 489.054545 -41.76 
L 487.363636 -41.76 
L 485.672727 -41.76 
L 483.981818 -57.201514 
L 482.290909 -41.76 
L 480.6 -64.679619 
L 478.909091 -41.76 
L 477.218182 -41.76 
L 475.527273 -66.356126 
L 473.836364 -41.76 
L 472.145455 -65.517873 
L 470.454545 -72.157724 
L 468.763636 -41.76 
L 467.072727 -92.739057 
L 465.381818 -41.76 
L 463.690909 -41.76 
L 462 -41.76 
L 460.309091 -70.569454 
L 458.618182 -41.76 
L 456.927273 -41.76 
L 455.236364 -54.730872 
L 453.545455 -55.789719 
L 451.854545 -58.150065 
L 450.163636 -41.76 
L 448.472727 -41.76 
L 446.781818 -56.892684 
L 445.090909 -41.76 
L 443.4 -41.76 
L 441.709091 -85.768316 
L 440.018182 -41.76 
L 438.327273 -41.76 
L 436.636364 -49.855765 
L 434.945455 -74.143062 
L 433.254545 -41.76 
L 431.563636 -41.76 
L 429.872727 -41.76 
L 428.181818 -41.76 
L 426.490909 -74.20924 
L 424.8 -41.76 
L 423.109091 -77.738729 
L 421.418182 -41.76 
L 419.727273 -85.547723 
L 418.036364 -41.76 
L 416.345455 -60.113343 
L 414.654545 -41.76 
L 412.963636 -41.76 
L 411.272727 -41.76 
L 409.581818 -41.76 
L 407.890909 -59.142733 
L 406.2 -93.422895 
L 404.509091 -41.76 
L 402.818182 -64.172255 
L 401.127273 -41.76 
L 399.436364 -41.76 
L 397.745455 -89.540457 
L 396.054545 -61.017774 
L 394.363636 -90.378711 
L 392.672727 -91.856685 
L 390.981818 -41.76 
L 389.290909 -41.76 
L 387.6 -41.76 
L 385.909091 -103.614295 
L 384.218182 -41.76 
L 382.527273 -41.76 
L 380.836364 -81.885878 
L 379.145455 -41.76 
L 377.454545 -41.76 
L 375.763636 -41.76 
L 374.072727 -84.202105 
L 372.381818 -41.76 
L 370.690909 -41.76 
L 369 -166.328903 
L 367.309091 -41.76 
L 365.618182 -41.76 
L 363.927273 -71.694479 
L 362.236364 -41.76 
L 360.545455 -41.76 
L 358.854545 -41.76 
L 357.163636 -82.040293 
L 355.472727 -41.76 
L 353.781818 -41.76 
L 352.090909 -41.76 
L 350.4 -82.282946 
L 348.709091 -41.76 
L 347.018182 -41.76 
L 345.327273 -41.76 
L 343.636364 -78.444626 
L 341.945455 -41.76 
L 340.254545 -41.76 
L 338.563636 -41.76 
L 336.872727 -83.077081 
L 335.181818 -41.76 
L 333.490909 -41.76 
L 331.8 -41.76 
L 330.109091 -78.97405 
L 328.418182 -41.76 
L 326.727273 -73.216571 
L 325.036364 -41.76 
L 323.345455 -41.76 
L 321.654545 -83.143259 
L 319.963636 -95.253818 
L 318.272727 -41.76 
L 316.581818 -41.76 
L 314.890909 -41.76 
L 313.2 -105.092268 
L 311.509091 -53.429373 
L 309.818182 -41.76 
L 308.127273 -41.76 
L 306.436364 -41.76 
L 304.745455 -59.319208 
L 303.054545 -41.76 
L 301.363636 -41.76 
L 299.672727 -41.76 
L 297.981818 -61.216308 
L 296.290909 -41.76 
L 294.6 -41.76 
L 292.909091 -41.76 
L 291.218182 -125.541245 
L 289.527273 -41.76 
L 287.836364 -41.76 
L 286.145455 -41.76 
L 284.454545 -41.76 
L 282.763636 -74.981315 
L 281.072727 -41.76 
L 279.381818 -41.76 
L 277.690909 -41.76 
L 276 -81.246158 
L 274.309091 -92.077278 
L 272.618182 -41.76 
L 270.927273 -79.812303 
L 269.236364 -41.76 
L 267.545455 -41.76 
L 265.854545 -41.76 
L 264.163636 -74.782781 
L 262.472727 -41.76 
L 260.781818 -41.76 
L 259.090909 -41.76 
L 257.4 -84.466817 
L 255.709091 -41.76 
L 254.018182 -41.76 
L 252.327273 -41.76 
L 250.636364 -41.76 
L 248.945455 -79.790244 
L 247.254545 -41.76 
L 245.563636 -61.061893 
L 243.872727 -41.76 
L 242.181818 -112.371839 
L 240.490909 -41.76 
L 238.8 -80.827031 
L 237.109091 -57.267692 
L 235.418182 -41.76 
L 233.727273 -41.76 
L 232.036364 -41.76 
L 230.345455 -100.503933 
L 228.654545 -41.76 
L 226.963636 -41.76 
L 225.272727 -67.017906 
L 223.581818 -62.297214 
L 221.890909 -41.76 
L 220.2 -41.76 
L 218.509091 -41.76 
L 216.818182 -88.966915 
L 215.127273 -41.76 
L 213.436364 -41.76 
L 211.745455 -41.76 
L 210.054545 -97.128859 
L 208.363636 -41.76 
L 206.672727 -41.76 
L 204.981818 -41.76 
L 203.290909 -110.937984 
L 201.6 -41.76 
L 199.909091 -41.76 
L 198.218182 -41.76 
L 196.527273 -81.841759 
L 194.836364 -41.76 
L 193.145455 -41.76 
L 191.454545 -41.76 
L 189.763636 -41.76 
L 188.072727 -84.488876 
L 186.381818 -41.76 
L 184.690909 -41.76 
L 183 -41.76 
L 181.309091 -87.444823 
L 179.618182 -41.76 
L 177.927273 -41.76 
L 176.236364 -41.76 
L 174.545455 -110.960044 
L 172.854545 -41.76 
L 171.163636 -41.76 
L 169.472727 -41.76 
L 167.781818 -107.607029 
L 166.090909 -41.76 
L 164.4 -41.76 
L 162.709091 -41.76 
L 161.018182 -131.850207 
L 159.327273 -41.76 
L 157.636364 -41.76 
L 155.945455 -61.922206 
L 154.254545 -41.76 
L 152.563636 -41.76 
L 150.872727 -41.76 
L 149.181818 -63.642832 
L 147.490909 -41.76 
L 145.8 -41.76 
L 144.109091 -41.76 
L 142.418182 -106.570242 
L 140.727273 -41.76 
L 139.036364 -41.76 
L 137.345455 -41.76 
L 135.654545 -99.378908 
L 133.963636 -41.76 
L 132.272727 -41.76 
L 130.581818 -41.76 
L 128.890909 -66.422304 
L 127.2 -41.76 
L 125.509091 -41.76 
L 123.818182 -41.76 
L 122.127273 -42.620313 
L 120.436364 -41.76 
L 118.745455 -41.76 
L 117.054545 -41.76 
L 115.363636 -43.789456 
z
" style="stroke: #ff0000; stroke-width: 0.5"/>
    </defs>
    <g clip-path="url(#p535bfe73c7)">
     <use xlink:href="#mc9a14813ea" x="0" y="288" style="fill: #ff0000; stroke: #ff0000; stroke-width: 0.5"/>
    </g>
   </g>
   <g id="PolyCollection_2">
    <defs>
     <path id="mcae7d07d48" d="M 115.363636 -47.826309 
L 115.363636 -43.789456 
L 117.054545 -41.76 
L 118.745455 -41.76 
L 120.436364 -41.76 
L 122.127273 -42.620313 
L 123.818182 -41.76 
L 125.509091 -41.76 
L 127.2 -41.76 
L 128.890909 -66.422304 
L 130.581818 -41.76 
L 132.272727 -41.76 
L 133.963636 -41.76 
L 135.654545 -99.378908 
L 137.345455 -41.76 
L 139.036364 -41.76 
L 140.727273 -41.76 
L 142.418182 -106.570242 
L 144.109091 -41.76 
L 145.8 -41.76 
L 147.490909 -41.76 
L 149.181818 -63.642832 
L 150.872727 -41.76 
L 152.563636 -41.76 
L 154.254545 -41.76 
L 155.945455 -61.922206 
L 157.636364 -41.76 
L 159.327273 -41.76 
L 161.018182 -131.850207 
L 162.709091 -41.76 
L 164.4 -41.76 
L 166.090909 -41.76 
L 167.781818 -107.607029 
L 169.472727 -41.76 
L 171.163636 -41.76 
L 172.854545 -41.76 
L 174.545455 -110.960044 
L 176.236364 -41.76 
L 177.927273 -41.76 
L 179.618182 -41.76 
L 181.309091 -87.444823 
L 183 -41.76 
L 184.690909 -41.76 
L 186.381818 -41.76 
L 188.072727 -84.488876 
L 189.763636 -41.76 
L 191.454545 -41.76 
L 193.145455 -41.76 
L 194.836364 -41.76 
L 196.527273 -81.841759 
L 198.218182 -41.76 
L 199.909091 -41.76 
L 201.6 -41.76 
L 203.290909 -110.937984 
L 204.981818 -41.76 
L 206.672727 -41.76 
L 208.363636 -41.76 
L 210.054545 -97.128859 
L 211.745455 -41.76 
L 213.436364 -41.76 
L 215.127273 -41.76 
L 216.818182 -88.966915 
L 218.509091 -41.76 
L 220.2 -41.76 
L 221.890909 -41.76 
L 223.581818 -62.297214 
L 225.272727 -67.017906 
L 226.963636 -41.76 
L 228.654545 -41.76 
L 230.345455 -100.503933 
L 232.036364 -41.76 
L 233.727273 -41.76 
L 235.418182 -41.76 
L 237.109091 -57.267692 
L 238.8 -80.827031 
L 240.490909 -41.76 
L 242.181818 -112.371839 
L 243.872727 -41.76 
L 245.563636 -61.061893 
L 247.254545 -41.76 
L 248.945455 -79.790244 
L 250.636364 -41.76 
L 252.327273 -41.76 
L 254.018182 -41.76 
L 255.709091 -41.76 
L 257.4 -84.466817 
L 259.090909 -41.76 
L 260.781818 -41.76 
L 262.472727 -41.76 
L 264.163636 -74.782781 
L 265.854545 -41.76 
L 267.545455 -41.76 
L 269.236364 -41.76 
L 270.927273 -79.812303 
L 272.618182 -41.76 
L 274.309091 -92.077278 
L 276 -81.246158 
L 277.690909 -41.76 
L 279.381818 -41.76 
L 281.072727 -41.76 
L 282.763636 -74.981315 
L 284.454545 -41.76 
L 286.145455 -41.76 
L 287.836364 -41.76 
L 289.527273 -41.76 
L 291.218182 -125.541245 
L 292.909091 -41.76 
L 294.6 -41.76 
L 296.290909 -41.76 
L 297.981818 -61.216308 
L 299.672727 -41.76 
L 301.363636 -41.76 
L 303.054545 -41.76 
L 304.745455 -59.319208 
L 306.436364 -41.76 
L 308.127273 -41.76 
L 309.818182 -41.76 
L 311.509091 -53.429373 
L 313.2 -105.092268 
L 314.890909 -41.76 
L 316.581818 -41.76 
L 318.272727 -41.76 
L 319.963636 -95.253818 
L 321.654545 -83.143259 
L 323.345455 -41.76 
L 325.036364 -41.76 
L 326.727273 -73.216571 
L 328.418182 -41.76 
L 330.109091 -78.97405 
L 331.8 -41.76 
L 333.490909 -41.76 
L 335.181818 -41.76 
L 336.872727 -83.077081 
L 338.563636 -41.76 
L 340.254545 -41.76 
L 341.945455 -41.76 
L 343.636364 -78.444626 
L 345.327273 -41.76 
L 347.018182 -41.76 
L 348.709091 -41.76 
L 350.4 -82.282946 
L 352.090909 -41.76 
L 353.781818 -41.76 
L 355.472727 -41.76 
L 357.163636 -82.040293 
L 358.854545 -41.76 
L 360.545455 -41.76 
L 362.236364 -41.76 
L 363.927273 -71.694479 
L 365.618182 -41.76 
L 367.309091 -41.76 
L 369 -166.328903 
L 370.690909 -41.76 
L 372.381818 -41.76 
L 374.072727 -84.202105 
L 375.763636 -41.76 
L 377.454545 -41.76 
L 379.145455 -41.76 
L 380.836364 -81.885878 
L 382.527273 -41.76 
L 384.218182 -41.76 
L 385.909091 -103.614295 
L 387.6 -41.76 
L 389.290909 -41.76 
L 390.981818 -41.76 
L 392.672727 -91.856685 
L 394.363636 -90.378711 
L 396.054545 -61.017774 
L 397.745455 -89.540457 
L 399.436364 -41.76 
L 401.127273 -41.76 
L 402.818182 -64.172255 
L 404.509091 -41.76 
L 406.2 -93.422895 
L 407.890909 -59.142733 
L 409.581818 -41.76 
L 411.272727 -41.76 
L 412.963636 -41.76 
L 414.654545 -41.76 
L 416.345455 -60.113343 
L 418.036364 -41.76 
L 419.727273 -85.547723 
L 421.418182 -41.76 
L 423.109091 -77.738729 
L 424.8 -41.76 
L 426.490909 -74.20924 
L 428.181818 -41.76 
L 429.872727 -41.76 
L 431.563636 -41.76 
L 433.254545 -41.76 
L 434.945455 -74.143062 
L 436.636364 -49.855765 
L 438.327273 -41.76 
L 440.018182 -41.76 
L 441.709091 -85.768316 
L 443.4 -41.76 
L 445.090909 -41.76 
L 446.781818 -56.892684 
L 448.472727 -41.76 
L 450.163636 -41.76 
L 451.854545 -58.150065 
L 453.545455 -55.789719 
L 455.236364 -54.730872 
L 456.927273 -41.76 
L 458.618182 -41.76 
L 460.309091 -70.569454 
L 462 -41.76 
L 463.690909 -41.76 
L 465.381818 -41.76 
L 467.072727 -92.739057 
L 468.763636 -41.76 
L 470.454545 -72.157724 
L 472.145455 -65.517873 
L 473.836364 -41.76 
L 475.527273 -66.356126 
L 477.218182 -41.76 
L 478.909091 -41.76 
L 480.6 -64.679619 
L 482.290909 -41.76 
L 483.981818 -57.201514 
L 485.672727 -41.76 
L 487.363636 -41.76 
L 489.054545 -41.76 
L 490.745455 -68.010574 
L 492.436364 -41.76 
L 494.127273 -55.194118 
L 495.818182 -87.356586 
L 497.509091 -41.76 
L 499.2 -41.76 
L 500.890909 -139.085659 
L 502.581818 -41.76 
L 504.272727 -59.319208 
L 505.963636 -41.76 
L 507.654545 -41.76 
L 509.345455 -41.76 
L 511.036364 -124.217687 
L 512.727273 -41.76 
L 514.418182 -60.995715 
L 516.109091 -41.76 
L 517.8 -41.76 
L 519.490909 -41.76 
L 521.181818 -41.76 
L 522.872727 -70.194446 
L 524.563636 -41.76 
L 526.254545 -41.76 
L 527.945455 -41.76 
L 529.636364 -64.039899 
L 531.327273 -118.019022 
L 533.018182 -86.783044 
L 534.709091 -41.76 
L 536.4 -41.76 
L 538.090909 -41.76 
L 539.781818 -41.76 
L 541.472727 -67.50321 
L 543.163636 -41.76 
L 544.854545 -41.76 
L 546.545455 -60.289817 
L 548.236364 -55.502948 
L 549.927273 -41.76 
L 551.618182 -96.13619 
L 553.309091 -57.797116 
L 555 -41.76 
L 556.690909 -91.68021 
L 558.381818 -41.76 
L 560.072727 -138.600355 
L 561.763636 -41.76 
L 563.454545 -56.252964 
L 565.145455 -41.76 
L 566.836364 -81.422633 
L 568.527273 -81.003506 
L 570.218182 -41.76 
L 571.909091 -74.981315 
L 573.6 -41.76 
L 575.290909 -41.76 
L 576.981818 -41.76 
L 578.672727 -98.121528 
L 580.363636 -41.76 
L 582.054545 -41.76 
L 583.745455 -41.76 
L 585.436364 -108.886469 
L 587.127273 -41.76 
L 588.818182 -56.583854 
L 590.509091 -41.76 
L 592.2 -94.592039 
L 593.890909 -41.76 
L 595.581818 -86.760985 
L 597.272727 -77.804906 
L 598.963636 -41.76 
L 600.654545 -41.76 
L 602.345455 -41.76 
L 604.036364 -116.518989 
L 605.727273 -41.76 
L 607.418182 -41.76 
L 609.109091 -41.76 
L 610.8 -115.107193 
L 612.490909 -41.76 
L 614.181818 -41.76 
L 615.872727 -60.973656 
L 617.563636 -41.76 
L 619.254545 -41.76 
L 620.945455 -41.76 
L 622.636364 -41.76 
L 622.636364 -41.76 
L 622.636364 -41.76 
L 620.945455 -69.047362 
L 619.254545 -76.393111 
L 617.563636 -65.892881 
L 615.872727 -69.75326 
L 614.181818 -45.554201 
L 612.490909 -49.06163 
L 610.8 -121.636748 
L 609.109091 -54.995584 
L 607.418182 -46.635107 
L 605.727273 -49.105749 
L 604.036364 -120.114656 
L 602.345455 -73.172452 
L 600.654545 -65.672288 
L 598.963636 -71.760657 
L 597.272727 -104.673141 
L 595.581818 -122.563239 
L 593.890909 -56.561795 
L 592.2 -105.731988 
L 590.509091 -66.731135 
L 588.818182 -77.38578 
L 587.127273 -54.863228 
L 585.436364 -116.916056 
L 583.745455 -89.893406 
L 582.054545 -98.05535 
L 580.363636 -91.150787 
L 578.672727 -115.746913 
L 576.981818 -52.194052 
L 575.290909 -50.429307 
L 573.6 -56.892684 
L 571.909091 -80.385845 
L 570.218182 -54.113212 
L 568.527273 -90.113999 
L 566.836364 -101.827491 
L 565.145455 -60.731003 
L 563.454545 -76.856356 
L 561.763636 -51.113146 
L 560.072727 -157.019875 
L 558.381818 -62.407511 
L 556.690909 -105.114328 
L 555 -50.738138 
L 553.309091 -67.062024 
L 551.618182 -112.857144 
L 549.927273 -78.113737 
L 548.236364 -84.908003 
L 546.545455 -74.473951 
L 544.854545 -51.267561 
L 543.163636 -62.606044 
L 541.472727 -120.401427 
L 539.781818 -67.569388 
L 538.090909 -72.554792 
L 536.4 -75.201908 
L 534.709091 -105.379039 
L 533.018182 -116.916056 
L 531.327273 -131.364902 
L 529.636364 -78.400508 
L 527.945455 -49.171927 
L 526.254545 -48.355733 
L 524.563636 -46.613047 
L 522.872727 -79.150524 
L 521.181818 -49.171927 
L 519.490909 -50.451367 
L 517.8 -58.547132 
L 516.109091 -69.642963 
L 514.418182 -69.42237 
L 512.727273 -46.193921 
L 511.036364 -130.614886 
L 509.345455 -66.091415 
L 507.654545 -60.091284 
L 505.963636 -72.753325 
L 504.272727 -88.922797 
L 502.581818 -48.907215 
L 500.890909 -140.32098 
L 499.2 -43.612982 
L 497.509091 -43.877693 
L 495.818182 -92.827294 
L 494.127273 -63.973721 
L 492.436364 -61.547198 
L 490.745455 -97.062681 
L 489.054545 -59.208911 
L 487.363636 -59.120674 
L 485.672727 -55.547066 
L 483.981818 -72.90774 
L 482.290909 -95.981775 
L 480.6 -105.158446 
L 478.909091 -90.709601 
L 477.218182 -92.62876 
L 475.527273 -104.011362 
L 473.836364 -55.833837 
L 472.145455 -84.312402 
L 470.454545 -91.084609 
L 468.763636 -48.532207 
L 467.072727 -98.584773 
L 465.381818 -52.56906 
L 463.690909 -51.157264 
L 462 -60.797181 
L 460.309091 -86.408036 
L 458.618182 -57.35593 
L 456.927273 -55.216177 
L 455.236364 -68.209108 
L 453.545455 -101.320127 
L 451.854545 -88.393373 
L 450.163636 -62.826637 
L 448.472727 -84.555054 
L 446.781818 -84.025631 
L 445.090909 -45.510082 
L 443.4 -44.208583 
L 441.709091 -94.172912 
L 440.018182 -83.231496 
L 438.327273 -84.04769 
L 436.636364 -71.518004 
L 434.945455 -95.49647 
L 433.254545 -75.687213 
L 431.563636 -78.599041 
L 429.872727 -80.672616 
L 428.181818 -76.10634 
L 426.490909 -89.672813 
L 424.8 -53.451432 
L 423.109091 -89.937525 
L 421.418182 -81.246158 
L 419.727273 -117.842547 
L 418.036364 -55.679422 
L 416.345455 -72.356258 
L 414.654545 -55.149999 
L 412.963636 -47.010115 
L 411.272727 -49.326342 
L 409.581818 -52.723475 
L 407.890909 -78.95199 
L 406.2 -104.209896 
L 404.509091 -50.782256 
L 402.818182 -76.437229 
L 401.127273 -54.399982 
L 399.436364 -58.878022 
L 397.745455 -107.518792 
L 396.054545 -73.966587 
L 394.363636 -104.165777 
L 392.672727 -100.658348 
L 390.981818 -51.774925 
L 389.290909 -46.877759 
L 387.6 -47.252767 
L 385.909091 -106.261412 
L 384.218182 -54.333805 
L 382.527273 -57.752997 
L 380.836364 -107.871741 
L 379.145455 -67.039965 
L 377.454545 -56.627972 
L 375.763636 -52.767594 
L 374.072727 -89.165449 
L 372.381818 -46.149802 
L 370.690909 -46.149802 
L 369 -169.483383 
L 367.309091 -49.966062 
L 365.618182 -56.275024 
L 363.927273 -108.709995 
L 362.236364 -60.598648 
L 360.545455 -51.708747 
L 358.854545 -64.701679 
L 357.163636 -101.761313 
L 355.472727 -65.892881 
L 353.781818 -49.149868 
L 352.090909 -56.583854 
L 350.4 -100.062746 
L 348.709091 -52.061696 
L 347.018182 -50.363129 
L 345.327273 -51.31168 
L 343.636364 -90.489008 
L 341.945455 -48.311614 
L 340.254545 -50.03224 
L 338.563636 -63.356061 
L 336.872727 -99.423027 
L 335.181818 -59.451564 
L 333.490909 -54.951465 
L 331.8 -57.752997 
L 330.109091 -105.290802 
L 328.418182 -65.032568 
L 326.727273 -101.673076 
L 325.036364 -63.113408 
L 323.345455 -90.069881 
L 321.654545 -103.371642 
L 319.963636 -113.29833 
L 318.272727 -70.150327 
L 316.581818 -55.7456 
L 314.890909 -57.819175 
L 313.2 -128.541311 
L 311.509091 -73.790113 
L 309.818182 -63.157527 
L 308.127273 -61.745731 
L 306.436364 -59.230971 
L 304.745455 -85.216833 
L 303.054545 -59.054496 
L 301.363636 -61.238367 
L 299.672727 -58.767725 
L 297.981818 -71.142996 
L 296.290909 -47.010115 
L 294.6 -62.7384 
L 292.909091 -52.304348 
L 291.218182 -132.600223 
L 289.527273 -48.863097 
L 287.836364 -49.260164 
L 286.145455 -50.076358 
L 284.454545 -52.458764 
L 282.763636 -81.554989 
L 281.072727 -46.282158 
L 279.381818 -46.127743 
L 277.690909 -46.105683 
L 276 -82.327064 
L 274.309091 -94.106734 
L 272.618182 -46.458632 
L 270.927273 -83.893275 
L 269.236364 -50.716078 
L 267.545455 -50.296952 
L 265.854545 -43.502685 
L 264.163636 -80.407905 
L 262.472727 -56.142668 
L 260.781818 -64.260492 
L 259.090909 -73.790113 
L 257.4 -123.136781 
L 255.709091 -115.195431 
L 254.018182 -109.945316 
L 252.327273 -107.033487 
L 250.636364 -79.128465 
L 248.945455 -119.629351 
L 247.254545 -70.216505 
L 245.563636 -67.414973 
L 243.872727 -48.11308 
L 242.181818 -116.011625 
L 240.490909 -45.752734 
L 238.8 -114.092465 
L 237.109091 -83.452089 
L 235.418182 -93.709666 
L 233.727273 -71.915072 
L 232.036364 -57.444167 
L 230.345455 -107.033487 
L 228.654545 -59.120674 
L 226.963636 -55.039702 
L 225.272727 -83.716801 
L 223.581818 -67.569388 
L 221.890909 -49.899884 
L 220.2 -54.532338 
L 218.509091 -45.443904 
L 216.818182 -97.172977 
L 215.127273 -62.981053 
L 213.436364 -44.715947 
L 211.745455 -50.34107 
L 210.054545 -103.724591 
L 208.363636 -53.142602 
L 206.672727 -66.687016 
L 204.981818 -79.349058 
L 203.290909 -135.512052 
L 201.6 -57.885353 
L 199.909091 -57.532404 
L 198.218182 -59.914809 
L 196.527273 -98.121528 
L 194.836364 -53.473492 
L 193.145455 -56.672091 
L 191.454545 -55.679422 
L 189.763636 -57.35593 
L 188.072727 -100.702466 
L 186.381818 -58.414776 
L 184.690909 -59.804513 
L 183 -61.282486 
L 181.309091 -112.835085 
L 179.618182 -69.687082 
L 177.927273 -69.378251 
L 176.236364 -69.290014 
L 174.545455 -136.52678 
L 172.854545 -69.642963 
L 171.163636 -68.915006 
L 169.472727 -70.172386 
L 167.781818 -135.688526 
L 166.090909 -67.547329 
L 164.4 -70.922403 
L 162.709091 -68.451761 
L 161.018182 -144.821079 
L 159.327273 -44.605651 
L 157.636364 -50.958731 
L 155.945455 -81.885878 
L 154.254545 -48.686622 
L 152.563636 -56.936803 
L 150.872727 -52.833772 
L 149.181818 -79.657888 
L 147.490909 -76.459289 
L 145.8 -75.179849 
L 144.109091 -73.834231 
L 142.418182 -133.9679 
L 140.727273 -58.833903 
L 139.036364 -62.076621 
L 137.345455 -66.157593 
L 135.654545 -121.702926 
L 133.963636 -66.312008 
L 132.272727 -66.223771 
L 130.581818 -68.16499 
L 128.890909 -93.202302 
L 127.2 -67.392914 
L 125.509091 -57.951531 
L 123.818182 -50.385189 
L 122.127273 -61.238367 
L 120.436364 -51.664629 
L 118.745455 -43.67916 
L 117.054545 -44.671828 
L 115.363636 -47.826309 
z
" style="stroke: #0000ff; stroke-width: 0.5"/>
    </defs>
    <g clip-path="url(#p535bfe73c7)">
     <use xlink:href="#mcae7d07d48" x="0" y="288" style="fill: #0000ff; stroke: #0000ff; stroke-width: 0.5"/>
    </g>
   </g>
   <g id="PolyCollection_3">
    <defs>
     <path id="mc65cb26a37" d="M 115.363636 -57.995649 
L 115.363636 -47.826309 
L 117.054545 -44.671828 
L 118.745455 -43.67916 
L 120.436364 -51.664629 
L 122.127273 -61.238367 
L 123.818182 -50.385189 
L 125.509091 -57.951531 
L 127.2 -67.392914 
L 128.890909 -93.202302 
L 130.581818 -68.16499 
L 132.272727 -66.223771 
L 133.963636 -66.312008 
L 135.654545 -121.702926 
L 137.345455 -66.157593 
L 139.036364 -62.076621 
L 140.727273 -58.833903 
L 142.418182 -133.9679 
L 144.109091 -73.834231 
L 145.8 -75.179849 
L 147.490909 -76.459289 
L 149.181818 -79.657888 
L 150.872727 -52.833772 
L 152.563636 -56.936803 
L 154.254545 -48.686622 
L 155.945455 -81.885878 
L 157.636364 -50.958731 
L 159.327273 -44.605651 
L 161.018182 -144.821079 
L 162.709091 -68.451761 
L 164.4 -70.922403 
L 166.090909 -67.547329 
L 167.781818 -135.688526 
L 169.472727 -70.172386 
L 171.163636 -68.915006 
L 172.854545 -69.642963 
L 174.545455 -136.52678 
L 176.236364 -69.290014 
L 177.927273 -69.378251 
L 179.618182 -69.687082 
L 181.309091 -112.835085 
L 183 -61.282486 
L 184.690909 -59.804513 
L 186.381818 -58.414776 
L 188.072727 -100.702466 
L 189.763636 -57.35593 
L 191.454545 -55.679422 
L 193.145455 -56.672091 
L 194.836364 -53.473492 
L 196.527273 -98.121528 
L 198.218182 -59.914809 
L 199.909091 -57.532404 
L 201.6 -57.885353 
L 203.290909 -135.512052 
L 204.981818 -79.349058 
L 206.672727 -66.687016 
L 208.363636 -53.142602 
L 210.054545 -103.724591 
L 211.745455 -50.34107 
L 213.436364 -44.715947 
L 215.127273 -62.981053 
L 216.818182 -97.172977 
L 218.509091 -45.443904 
L 220.2 -54.532338 
L 221.890909 -49.899884 
L 223.581818 -67.569388 
L 225.272727 -83.716801 
L 226.963636 -55.039702 
L 228.654545 -59.120674 
L 230.345455 -107.033487 
L 232.036364 -57.444167 
L 233.727273 -71.915072 
L 235.418182 -93.709666 
L 237.109091 -83.452089 
L 238.8 -114.092465 
L 240.490909 -45.752734 
L 242.181818 -116.011625 
L 243.872727 -48.11308 
L 245.563636 -67.414973 
L 247.254545 -70.216505 
L 248.945455 -119.629351 
L 250.636364 -79.128465 
L 252.327273 -107.033487 
L 254.018182 -109.945316 
L 255.709091 -115.195431 
L 257.4 -123.136781 
L 259.090909 -73.790113 
L 260.781818 -64.260492 
L 262.472727 -56.142668 
L 264.163636 -80.407905 
L 265.854545 -43.502685 
L 267.545455 -50.296952 
L 269.236364 -50.716078 
L 270.927273 -83.893275 
L 272.618182 -46.458632 
L 274.309091 -94.106734 
L 276 -82.327064 
L 277.690909 -46.105683 
L 279.381818 -46.127743 
L 281.072727 -46.282158 
L 282.763636 -81.554989 
L 284.454545 -52.458764 
L 286.145455 -50.076358 
L 287.836364 -49.260164 
L 289.527273 -48.863097 
L 291.218182 -132.600223 
L 292.909091 -52.304348 
L 294.6 -62.7384 
L 296.290909 -47.010115 
L 297.981818 -71.142996 
L 299.672727 -58.767725 
L 301.363636 -61.238367 
L 303.054545 -59.054496 
L 304.745455 -85.216833 
L 306.436364 -59.230971 
L 308.127273 -61.745731 
L 309.818182 -63.157527 
L 311.509091 -73.790113 
L 313.2 -128.541311 
L 314.890909 -57.819175 
L 316.581818 -55.7456 
L 318.272727 -70.150327 
L 319.963636 -113.29833 
L 321.654545 -103.371642 
L 323.345455 -90.069881 
L 325.036364 -63.113408 
L 326.727273 -101.673076 
L 328.418182 -65.032568 
L 330.109091 -105.290802 
L 331.8 -57.752997 
L 333.490909 -54.951465 
L 335.181818 -59.451564 
L 336.872727 -99.423027 
L 338.563636 -63.356061 
L 340.254545 -50.03224 
L 341.945455 -48.311614 
L 343.636364 -90.489008 
L 345.327273 -51.31168 
L 347.018182 -50.363129 
L 348.709091 -52.061696 
L 350.4 -100.062746 
L 352.090909 -56.583854 
L 353.781818 -49.149868 
L 355.472727 -65.892881 
L 357.163636 -101.761313 
L 358.854545 -64.701679 
L 360.545455 -51.708747 
L 362.236364 -60.598648 
L 363.927273 -108.709995 
L 365.618182 -56.275024 
L 367.309091 -49.966062 
L 369 -169.483383 
L 370.690909 -46.149802 
L 372.381818 -46.149802 
L 374.072727 -89.165449 
L 375.763636 -52.767594 
L 377.454545 -56.627972 
L 379.145455 -67.039965 
L 380.836364 -107.871741 
L 382.527273 -57.752997 
L 384.218182 -54.333805 
L 385.909091 -106.261412 
L 387.6 -47.252767 
L 389.290909 -46.877759 
L 390.981818 -51.774925 
L 392.672727 -100.658348 
L 394.363636 -104.165777 
L 396.054545 -73.966587 
L 397.745455 -107.518792 
L 399.436364 -58.878022 
L 401.127273 -54.399982 
L 402.818182 -76.437229 
L 404.509091 -50.782256 
L 406.2 -104.209896 
L 407.890909 -78.95199 
L 409.581818 -52.723475 
L 411.272727 -49.326342 
L 412.963636 -47.010115 
L 414.654545 -55.149999 
L 416.345455 -72.356258 
L 418.036364 -55.679422 
L 419.727273 -117.842547 
L 421.418182 -81.246158 
L 423.109091 -89.937525 
L 424.8 -53.451432 
L 426.490909 -89.672813 
L 428.181818 -76.10634 
L 429.872727 -80.672616 
L 431.563636 -78.599041 
L 433.254545 -75.687213 
L 434.945455 -95.49647 
L 436.636364 -71.518004 
L 438.327273 -84.04769 
L 440.018182 -83.231496 
L 441.709091 -94.172912 
L 443.4 -44.208583 
L 445.090909 -45.510082 
L 446.781818 -84.025631 
L 448.472727 -84.555054 
L 450.163636 -62.826637 
L 451.854545 -88.393373 
L 453.545455 -101.320127 
L 455.236364 -68.209108 
L 456.927273 -55.216177 
L 458.618182 -57.35593 
L 460.309091 -86.408036 
L 462 -60.797181 
L 463.690909 -51.157264 
L 465.381818 -52.56906 
L 467.072727 -98.584773 
L 468.763636 -48.532207 
L 470.454545 -91.084609 
L 472.145455 -84.312402 
L 473.836364 -55.833837 
L 475.527273 -104.011362 
L 477.218182 -92.62876 
L 478.909091 -90.709601 
L 480.6 -105.158446 
L 482.290909 -95.981775 
L 483.981818 -72.90774 
L 485.672727 -55.547066 
L 487.363636 -59.120674 
L 489.054545 -59.208911 
L 490.745455 -97.062681 
L 492.436364 -61.547198 
L 494.127273 -63.973721 
L 495.818182 -92.827294 
L 497.509091 -43.877693 
L 499.2 -43.612982 
L 500.890909 -140.32098 
L 502.581818 -48.907215 
L 504.272727 -88.922797 
L 505.963636 -72.753325 
L 507.654545 -60.091284 
L 509.345455 -66.091415 
L 511.036364 -130.614886 
L 512.727273 -46.193921 
L 514.418182 -69.42237 
L 516.109091 -69.642963 
L 517.8 -58.547132 
L 519.490909 -50.451367 
L 521.181818 -49.171927 
L 522.872727 -79.150524 
L 524.563636 -46.613047 
L 526.254545 -48.355733 
L 527.945455 -49.171927 
L 529.636364 -78.400508 
L 531.327273 -131.364902 
L 533.018182 -116.916056 
L 534.709091 -105.379039 
L 536.4 -75.201908 
L 538.090909 -72.554792 
L 539.781818 -67.569388 
L 541.472727 -120.401427 
L 543.163636 -62.606044 
L 544.854545 -51.267561 
L 546.545455 -74.473951 
L 548.236364 -84.908003 
L 549.927273 -78.113737 
L 551.618182 -112.857144 
L 553.309091 -67.062024 
L 555 -50.738138 
L 556.690909 -105.114328 
L 558.381818 -62.407511 
L 560.072727 -157.019875 
L 561.763636 -51.113146 
L 563.454545 -76.856356 
L 565.145455 -60.731003 
L 566.836364 -101.827491 
L 568.527273 -90.113999 
L 570.218182 -54.113212 
L 571.909091 -80.385845 
L 573.6 -56.892684 
L 575.290909 -50.429307 
L 576.981818 -52.194052 
L 578.672727 -115.746913 
L 580.363636 -91.150787 
L 582.054545 -98.05535 
L 583.745455 -89.893406 
L 585.436364 -116.916056 
L 587.127273 -54.863228 
L 588.818182 -77.38578 
L 590.509091 -66.731135 
L 592.2 -105.731988 
L 593.890909 -56.561795 
L 595.581818 -122.563239 
L 597.272727 -104.673141 
L 598.963636 -71.760657 
L 600.654545 -65.672288 
L 602.345455 -73.172452 
L 604.036364 -120.114656 
L 605.727273 -49.105749 
L 607.418182 -46.635107 
L 609.109091 -54.995584 
L 610.8 -121.636748 
L 612.490909 -49.06163 
L 614.181818 -45.554201 
L 615.872727 -69.75326 
L 617.563636 -65.892881 
L 619.254545 -76.393111 
L 620.945455 -69.047362 
L 622.636364 -41.76 
L 622.636364 -42.002652 
L 622.636364 -42.002652 
L 620.945455 -136.107653 
L 619.254545 -151.857998 
L 617.563636 -111.40123 
L 615.872727 -96.687673 
L 614.181818 -101.077475 
L 612.490909 -102.82016 
L 610.8 -177.490911 
L 609.109091 -147.887322 
L 607.418182 -77.540195 
L 605.727273 -135.997356 
L 604.036364 -189.380878 
L 602.345455 -124.592695 
L 600.654545 -117.202827 
L 598.963636 -112.592432 
L 597.272727 -149.585889 
L 595.581818 -164.100913 
L 593.890909 -126.070669 
L 592.2 -152.10065 
L 590.509091 -104.739319 
L 588.818182 -119.894063 
L 587.127273 -106.790835 
L 585.436364 -185.851389 
L 583.745455 -174.887913 
L 582.054545 -180.755689 
L 580.363636 -176.012938 
L 578.672727 -152.43154 
L 576.981818 -106.349649 
L 575.290909 -90.180177 
L 573.6 -100.856881 
L 571.909091 -100.724526 
L 570.218182 -74.319536 
L 568.527273 -108.709995 
L 566.836364 -133.306121 
L 565.145455 -95.099403 
L 563.454545 -123.291196 
L 561.763636 -115.724854 
L 560.072727 -190.439724 
L 558.381818 -93.886141 
L 556.690909 -129.754573 
L 555 -71.98125 
L 553.309091 -86.716866 
L 551.618182 -147.490255 
L 549.927273 -134.210553 
L 548.236364 -117.335183 
L 546.545455 -111.114459 
L 544.854545 -83.121199 
L 543.163636 -118.041081 
L 541.472727 -193.814798 
L 539.781818 -115.680735 
L 538.090909 -132.114918 
L 536.4 -135.622348 
L 534.709091 -200.189938 
L 533.018182 -189.535293 
L 531.327273 -162.093516 
L 529.636364 -123.688263 
L 527.945455 -70.790047 
L 526.254545 -65.672288 
L 524.563636 -65.29728 
L 522.872727 -101.452483 
L 521.181818 -76.834297 
L 519.490909 -67.547329 
L 517.8 -85.547723 
L 516.109091 -119.938181 
L 514.418182 -80.077015 
L 512.727273 -94.481742 
L 511.036364 -142.372496 
L 509.345455 -96.643554 
L 507.654545 -95.209699 
L 505.963636 -139.151837 
L 504.272727 -199.770811 
L 502.581818 -128.408955 
L 500.890909 -189.005869 
L 499.2 -46.811581 
L 497.509091 -46.282158 
L 495.818182 -103.261346 
L 494.127273 -85.834494 
L 492.436364 -90.996372 
L 490.745455 -140.387158 
L 489.054545 -91.658151 
L 487.363636 -99.423027 
L 485.672727 -86.893341 
L 483.981818 -117.202827 
L 482.290909 -243.139407 
L 480.6 -198.998735 
L 478.909091 -163.064125 
L 477.218182 -144.313715 
L 475.527273 -149.210881 
L 473.836364 -70.282683 
L 472.145455 -113.143915 
L 470.454545 -116.982234 
L 468.763636 -57.311811 
L 467.072727 -107.364377 
L 465.381818 -80.385845 
L 463.690909 -78.246093 
L 462 -120.776435 
L 460.309091 -111.489467 
L 458.618182 -80.275549 
L 456.927273 -78.113737 
L 455.236364 -102.48927 
L 453.545455 -222.425718 
L 451.854545 -117.930785 
L 450.163636 -108.886469 
L 448.472727 -168.027469 
L 446.781818 -120.820554 
L 445.090909 -55.458829 
L 443.4 -47.186589 
L 441.709091 -119.099928 
L 440.018182 -160.262593 
L 438.327273 -167.608342 
L 436.636364 -135.754704 
L 434.945455 -145.615214 
L 433.254545 -117.357243 
L 431.563636 -111.026222 
L 429.872727 -125.894194 
L 428.181818 -123.357374 
L 426.490909 -117.555776 
L 424.8 -77.871084 
L 423.109091 -108.070275 
L 421.418182 -121.526451 
L 419.727273 -159.644933 
L 418.036364 -89.981644 
L 416.345455 -90.555185 
L 414.654545 -73.966587 
L 412.963636 -57.201514 
L 411.272727 -62.650163 
L 409.581818 -77.937262 
L 407.890909 -118.526386 
L 406.2 -119.386699 
L 404.509091 -65.60611 
L 402.818182 -101.011297 
L 401.127273 -83.341792 
L 399.436364 -102.48927 
L 397.745455 -132.0708 
L 396.054545 -96.974444 
L 394.363636 -127.460405 
L 392.672727 -118.658742 
L 390.981818 -65.826703 
L 389.290909 -54.223508 
L 387.6 -60.642766 
L 385.909091 -117.202827 
L 384.218182 -94.481742 
L 382.527273 -103.967244 
L 380.836364 -159.027272 
L 379.145455 -118.658742 
L 377.454545 -100.945119 
L 375.763636 -73.326867 
L 374.072727 -179.035063 
L 372.381818 -158.299315 
L 370.690909 -152.806548 
L 369 -193.947154 
L 367.309091 -87.753654 
L 365.618182 -110.011494 
L 363.927273 -161.872923 
L 362.236364 -105.334921 
L 360.545455 -102.224558 
L 358.854545 -116.585167 
L 357.163636 -148.681457 
L 355.472727 -115.482202 
L 353.781818 -86.959519 
L 352.090909 -114.8866 
L 350.4 -145.615214 
L 348.709091 -99.048018 
L 347.018182 -91.834625 
L 345.327273 -93.069946 
L 343.636364 -134.519383 
L 341.945455 -83.121199 
L 340.254545 -82.76825 
L 338.563636 -111.643882 
L 336.872727 -130.813419 
L 335.181818 -93.886141 
L 333.490909 -80.054956 
L 331.8 -86.430095 
L 330.109091 -133.239943 
L 328.418182 -108.136453 
L 326.727273 -161.939101 
L 325.036364 -136.482661 
L 323.345455 -169.946629 
L 321.654545 -134.762035 
L 319.963636 -159.644933 
L 318.272727 -119.496995 
L 316.581818 -75.003375 
L 314.890909 -84.268283 
L 313.2 -167.123038 
L 311.509091 -108.379105 
L 309.818182 -92.408167 
L 308.127273 -88.371314 
L 306.436364 -84.908003 
L 304.745455 -114.754244 
L 303.054545 -81.047624 
L 301.363636 -102.378974 
L 299.672727 -83.143259 
L 297.981818 -84.643291 
L 296.290909 -64.459026 
L 294.6 -134.012019 
L 292.909091 -82.878547 
L 291.218182 -146.475527 
L 289.527273 -53.870559 
L 287.836364 -59.275089 
L 286.145455 -73.393045 
L 284.454545 -88.238958 
L 282.763636 -94.812632 
L 281.072727 -53.186721 
L 279.381818 -56.120608 
L 277.690909 -55.502948 
L 276 -134.29879 
L 274.309091 -146.431408 
L 272.618182 -55.525007 
L 270.927273 -99.180374 
L 269.236364 -71.628301 
L 267.545455 -72.819503 
L 265.854545 -46.458632 
L 264.163636 -100.128924 
L 262.472727 -105.114328 
L 260.781818 -116.49693 
L 259.090909 -139.681261 
L 257.4 -174.04966 
L 255.709091 -198.932557 
L 254.018182 -199.15315 
L 252.327273 -196.881042 
L 250.636364 -141.093056 
L 248.945455 -170.696645 
L 247.254545 -103.151049 
L 245.563636 -86.099206 
L 243.872727 -63.731069 
L 242.181818 -123.732382 
L 240.490909 -51.421976 
L 238.8 -161.277321 
L 237.109091 -117.555776 
L 235.418182 -143.387224 
L 233.727273 -128.916319 
L 232.036364 -92.275811 
L 230.345455 -118.526386 
L 228.654545 -86.827163 
L 226.963636 -74.341595 
L 225.272727 -105.68787 
L 223.581818 -76.348992 
L 221.890909 -64.039899 
L 220.2 -71.275352 
L 218.509091 -53.032306 
L 216.818182 -147.247603 
L 215.127273 -150.997685 
L 213.436364 -141.357768 
L 211.745455 -132.159037 
L 210.054545 -177.777682 
L 208.363636 -137.585626 
L 206.672727 -140.34304 
L 204.981818 -174.446727 
L 203.290909 -182.718967 
L 201.6 -106.63642 
L 199.909091 -116.364574 
L 198.218182 -109.415892 
L 196.527273 -139.923913 
L 194.836364 -94.150852 
L 193.145455 -106.967309 
L 191.454545 -111.842416 
L 189.763636 -102.643685 
L 188.072727 -155.453665 
L 186.381818 -119.717588 
L 184.690909 -124.460339 
L 183 -135.909119 
L 181.309091 -170.608408 
L 179.618182 -173.851126 
L 177.927273 -175.174684 
L 176.236364 -181.814536 
L 174.545455 -237.183394 
L 172.854545 -169.549561 
L 171.163636 -173.167287 
L 169.472727 -174.270253 
L 167.781818 -243.36 
L 166.090909 -166.968622 
L 164.4 -179.807139 
L 162.709091 -180.755689 
L 161.018182 -181.99101 
L 159.327273 -51.399917 
L 157.636364 -84.665351 
L 155.945455 -123.930916 
L 154.254545 -63.311942 
L 152.563636 -91.106668 
L 150.872727 -78.797575 
L 149.181818 -115.151312 
L 147.490909 -148.262331 
L 145.8 -164.277387 
L 144.109091 -163.21854 
L 142.418182 -214.374072 
L 140.727273 -151.637405 
L 139.036364 -164.80681 
L 137.345455 -194.322162 
L 135.654545 -242.786458 
L 133.963636 -189.402937 
L 132.272727 -169.240731 
L 130.581818 -188.079378 
L 128.890909 -198.53549 
L 127.2 -146.629942 
L 125.509091 -109.261477 
L 123.818182 -77.319602 
L 122.127273 -94.393505 
L 120.436364 -53.363195 
L 118.745455 -45.24537 
L 117.054545 -46.105683 
L 115.363636 -57.995649 
z
" style="stroke: #008000; stroke-width: 0.5"/>
    </defs>
    <g clip-path="url(#p535bfe73c7)">
     <use xlink:href="#mc65cb26a37" x="0" y="288" style="fill: #008000; stroke: #008000; stroke-width: 0.5"/>
    </g>
   </g>
   <g id="line2d_22">
    <path d="M 90 44.64 
L 648 44.64 
" clip-path="url(#p535bfe73c7)" style="fill: none; stroke: #000000; stroke-width: 1.5; stroke-linecap: square"/>
   </g>
   <g id="line2d_23">
    <path d="M 90 168.745657 
L 648 168.745657 
" clip-path="url(#p535bfe73c7)" style="fill: none; stroke: #000000; stroke-width: 1.5; stroke-linecap: square"/>
   </g>
   <g id="patch_3">
    <path d="M 90 256.32 
L 90 34.56 
" style="fill: none; stroke: #000000; stroke-width: 0.8; stroke-linejoin: miter; stroke-linecap: square"/>
   </g>
   <g id="patch_4">
    <path d="M 648 256.32 
L 648 34.56 
" style="fill: none; stroke: #000000; stroke-width: 0.8; stroke-linejoin: miter; stroke-linecap: square"/>
   </g>
   <g id="patch_5">
    <path d="M 90 256.32 
L 648 256.32 
" style="fill: none; stroke: #000000; stroke-width: 0.8; stroke-linejoin: miter; stroke-linecap: square"/>
   </g>
   <g id="patch_6">
    <path d="M 90 34.56 
L 648 34.56 
" style="fill: none; stroke: #000000; stroke-width: 0.8; stroke-linejoin: miter; stroke-linecap: square"/>
   </g>
   <g id="text_19">
    <!-- peak (9,139) -->
    <g transform="translate(122.179233 41.3136) scale(0.1 -0.1)">
     <defs>
      <path id="DejaVuSans-Bold-70" d="M 1656 506 
L 1656 -1331 
L 538 -1331 
L 538 3500 
L 1656 3500 
L 1656 2988 
Q 1888 3294 2169 3439 
Q 2450 3584 2816 3584 
Q 3463 3584 3878 3070 
Q 4294 2556 4294 1747 
Q 4294 938 3878 423 
Q 3463 -91 2816 -91 
Q 2450 -91 2169 54 
Q 1888 200 1656 506 
z
M 2400 2772 
Q 2041 2772 1848 2508 
Q 1656 2244 1656 1747 
Q 1656 1250 1848 986 
Q 2041 722 2400 722 
Q 2759 722 2948 984 
Q 3138 1247 3138 1747 
Q 3138 2247 2948 2509 
Q 2759 2772 2400 2772 
z
" transform="scale(0.015625)"/>
      <path id="DejaVuSans-Bold-65" d="M 4031 1759 
L 4031 1441 
L 1416 1441 
Q 1456 1047 1700 850 
Q 1944 653 2381 653 
Q 2734 653 3104 758 
Q 3475 863 3866 1075 
L 3866 213 
Q 3469 63 3072 -14 
Q 2675 -91 2278 -91 
Q 1328 -91 801 392 
Q 275 875 275 1747 
Q 275 2603 792 3093 
Q 1309 3584 2216 3584 
Q 3041 3584 3536 3087 
Q 4031 2591 4031 1759 
z
M 2881 2131 
Q 2881 2450 2695 2645 
Q 2509 2841 2209 2841 
Q 1884 2841 1681 2658 
Q 1478 2475 1428 2131 
L 2881 2131 
z
" transform="scale(0.015625)"/>
      <path id="DejaVuSans-Bold-61" d="M 2106 1575 
Q 1756 1575 1579 1456 
Q 1403 1338 1403 1106 
Q 1403 894 1545 773 
Q 1688 653 1941 653 
Q 2256 653 2472 879 
Q 2688 1106 2688 1447 
L 2688 1575 
L 2106 1575 
z
M 3816 1997 
L 3816 0 
L 2688 0 
L 2688 519 
Q 2463 200 2181 54 
Q 1900 -91 1497 -91 
Q 953 -91 614 226 
Q 275 544 275 1050 
Q 275 1666 698 1953 
Q 1122 2241 2028 2241 
L 2688 2241 
L 2688 2328 
Q 2688 2594 2478 2717 
Q 2269 2841 1825 2841 
Q 1466 2841 1156 2769 
Q 847 2697 581 2553 
L 581 3406 
Q 941 3494 1303 3539 
Q 1666 3584 2028 3584 
Q 2975 3584 3395 3211 
Q 3816 2838 3816 1997 
z
" transform="scale(0.015625)"/>
      <path id="DejaVuSans-Bold-6b" d="M 538 4863 
L 1656 4863 
L 1656 2216 
L 2944 3500 
L 4244 3500 
L 2534 1894 
L 4378 0 
L 3022 0 
L 1656 1459 
L 1656 0 
L 538 0 
L 538 4863 
z
" transform="scale(0.015625)"/>
      <path id="DejaVuSans-Bold-20" transform="scale(0.015625)"/>
      <path id="DejaVuSans-Bold-28" d="M 2413 -844 
L 1484 -844 
Q 1006 -72 778 623 
Q 550 1319 550 2003 
Q 550 2688 779 3389 
Q 1009 4091 1484 4856 
L 2413 4856 
Q 2013 4116 1813 3408 
Q 1613 2700 1613 2009 
Q 1613 1319 1811 609 
Q 2009 -100 2413 -844 
z
" transform="scale(0.015625)"/>
      <path id="DejaVuSans-Bold-39" d="M 641 103 
L 641 966 
Q 928 831 1190 764 
Q 1453 697 1709 697 
Q 2247 697 2547 995 
Q 2847 1294 2900 1881 
Q 2688 1725 2447 1647 
Q 2206 1569 1925 1569 
Q 1209 1569 770 1986 
Q 331 2403 331 3084 
Q 331 3838 820 4291 
Q 1309 4744 2131 4744 
Q 3044 4744 3544 4128 
Q 4044 3513 4044 2388 
Q 4044 1231 3459 570 
Q 2875 -91 1856 -91 
Q 1528 -91 1228 -42 
Q 928 6 641 103 
z
M 2125 2350 
Q 2441 2350 2600 2554 
Q 2759 2759 2759 3169 
Q 2759 3575 2600 3781 
Q 2441 3988 2125 3988 
Q 1809 3988 1650 3781 
Q 1491 3575 1491 3169 
Q 1491 2759 1650 2554 
Q 1809 2350 2125 2350 
z
" transform="scale(0.015625)"/>
      <path id="DejaVuSans-Bold-2c" d="M 653 1209 
L 1778 1209 
L 1778 256 
L 1006 -909 
L 341 -909 
L 653 256 
L 653 1209 
z
" transform="scale(0.015625)"/>
      <path id="DejaVuSans-Bold-31" d="M 750 831 
L 1813 831 
L 1813 3847 
L 722 3622 
L 722 4441 
L 1806 4666 
L 2950 4666 
L 2950 831 
L 4013 831 
L 4013 0 
L 750 0 
L 750 831 
z
" transform="scale(0.015625)"/>
      <path id="DejaVuSans-Bold-33" d="M 2981 2516 
Q 3453 2394 3698 2092 
Q 3944 1791 3944 1325 
Q 3944 631 3412 270 
Q 2881 -91 1863 -91 
Q 1503 -91 1142 -33 
Q 781 25 428 141 
L 428 1069 
Q 766 900 1098 814 
Q 1431 728 1753 728 
Q 2231 728 2486 893 
Q 2741 1059 2741 1369 
Q 2741 1688 2480 1852 
Q 2219 2016 1709 2016 
L 1228 2016 
L 1228 2791 
L 1734 2791 
Q 2188 2791 2409 2933 
Q 2631 3075 2631 3366 
Q 2631 3634 2415 3781 
Q 2200 3928 1806 3928 
Q 1516 3928 1219 3862 
Q 922 3797 628 3669 
L 628 4550 
Q 984 4650 1334 4700 
Q 1684 4750 2022 4750 
Q 2931 4750 3382 4451 
Q 3834 4153 3834 3553 
Q 3834 3144 3618 2883 
Q 3403 2622 2981 2516 
z
" transform="scale(0.015625)"/>
      <path id="DejaVuSans-Bold-29" d="M 513 -844 
Q 913 -100 1113 609 
Q 1313 1319 1313 2009 
Q 1313 2700 1113 3408 
Q 913 4116 513 4856 
L 1441 4856 
Q 1916 4091 2145 3389 
Q 2375 2688 2375 2003 
Q 2375 1319 2147 623 
Q 1919 -72 1441 -844 
L 513 -844 
z
" transform="scale(0.015625)"/>
     </defs>
     <use xlink:href="#DejaVuSans-Bold-70"/>
     <use xlink:href="#DejaVuSans-Bold-65" x="71.582031"/>
     <use xlink:href="#DejaVuSans-Bold-61" x="139.404297"/>
     <use xlink:href="#DejaVuSans-Bold-6b" x="206.884766"/>
     <use xlink:href="#DejaVuSans-Bold-20" x="273.388672"/>
     <use xlink:href="#DejaVuSans-Bold-28" x="308.203125"/>
     <use xlink:href="#DejaVuSans-Bold-39" x="353.90625"/>
     <use xlink:href="#DejaVuSans-Bold-2c" x="423.486328"/>
     <use xlink:href="#DejaVuSans-Bold-31" x="461.474609"/>
     <use xlink:href="#DejaVuSans-Bold-33" x="531.054688"/>
     <use xlink:href="#DejaVuSans-Bold-39" x="600.634766"/>
     <use xlink:href="#DejaVuSans-Bold-29" x="670.214844"/>
    </g>
   </g>
   <g id="text_20">
    <!-- mean (3,513) -->
    <g transform="translate(567.728153 165.419257) scale(0.1 -0.1)">
     <defs>
      <path id="DejaVuSans-Bold-6d" d="M 3781 2919 
Q 3994 3244 4286 3414 
Q 4578 3584 4928 3584 
Q 5531 3584 5847 3212 
Q 6163 2841 6163 2131 
L 6163 0 
L 5038 0 
L 5038 1825 
Q 5041 1866 5042 1909 
Q 5044 1953 5044 2034 
Q 5044 2406 4934 2573 
Q 4825 2741 4581 2741 
Q 4263 2741 4089 2478 
Q 3916 2216 3909 1719 
L 3909 0 
L 2784 0 
L 2784 1825 
Q 2784 2406 2684 2573 
Q 2584 2741 2328 2741 
Q 2006 2741 1831 2477 
Q 1656 2213 1656 1722 
L 1656 0 
L 531 0 
L 531 3500 
L 1656 3500 
L 1656 2988 
Q 1863 3284 2130 3434 
Q 2397 3584 2719 3584 
Q 3081 3584 3359 3409 
Q 3638 3234 3781 2919 
z
" transform="scale(0.015625)"/>
      <path id="DejaVuSans-Bold-6e" d="M 4056 2131 
L 4056 0 
L 2931 0 
L 2931 347 
L 2931 1631 
Q 2931 2084 2911 2256 
Q 2891 2428 2841 2509 
Q 2775 2619 2662 2680 
Q 2550 2741 2406 2741 
Q 2056 2741 1856 2470 
Q 1656 2200 1656 1722 
L 1656 0 
L 538 0 
L 538 3500 
L 1656 3500 
L 1656 2988 
Q 1909 3294 2193 3439 
Q 2478 3584 2822 3584 
Q 3428 3584 3742 3212 
Q 4056 2841 4056 2131 
z
" transform="scale(0.015625)"/>
      <path id="DejaVuSans-Bold-35" d="M 678 4666 
L 3669 4666 
L 3669 3781 
L 1638 3781 
L 1638 3059 
Q 1775 3097 1914 3117 
Q 2053 3138 2203 3138 
Q 3056 3138 3531 2711 
Q 4006 2284 4006 1522 
Q 4006 766 3489 337 
Q 2972 -91 2053 -91 
Q 1656 -91 1267 -14 
Q 878 63 494 219 
L 494 1166 
Q 875 947 1217 837 
Q 1559 728 1863 728 
Q 2300 728 2551 942 
Q 2803 1156 2803 1522 
Q 2803 1891 2551 2103 
Q 2300 2316 1863 2316 
Q 1603 2316 1309 2248 
Q 1016 2181 678 2041 
L 678 4666 
z
" transform="scale(0.015625)"/>
     </defs>
     <use xlink:href="#DejaVuSans-Bold-6d"/>
     <use xlink:href="#DejaVuSans-Bold-65" x="104.199219"/>
     <use xlink:href="#DejaVuSans-Bold-61" x="172.021484"/>
     <use xlink:href="#DejaVuSans-Bold-6e" x="239.501953"/>
     <use xlink:href="#DejaVuSans-Bold-20" x="310.693359"/>
     <use xlink:href="#DejaVuSans-Bold-28" x="345.507812"/>
     <use xlink:href="#DejaVuSans-Bold-33" x="391.210938"/>
     <use xlink:href="#DejaVuSans-Bold-2c" x="460.791016"/>
     <use xlink:href="#DejaVuSans-Bold-35" x="498.779297"/>
     <use xlink:href="#DejaVuSans-Bold-31" x="568.359375"/>
     <use xlink:href="#DejaVuSans-Bold-33" x="637.939453"/>
     <use xlink:href="#DejaVuSans-Bold-29" x="707.519531"/>
    </g>
   </g>
   <g id="text_21">
    <!-- Stream Bitrate over Time -->
    <g transform="translate(293.189062 28.56) scale(0.12 -0.12)">
     <defs>
      <path id="DejaVuSans-53" d="M 3425 4513 
L 3425 3897 
Q 3066 4069 2747 4153 
Q 2428 4238 2131 4238 
Q 1616 4238 1336 4038 
Q 1056 3838 1056 3469 
Q 1056 3159 1242 3001 
Q 1428 2844 1947 2747 
L 2328 2669 
Q 3034 2534 3370 2195 
Q 3706 1856 3706 1288 
Q 3706 609 3251 259 
Q 2797 -91 1919 -91 
Q 1588 -91 1214 -16 
Q 841 59 441 206 
L 441 856 
Q 825 641 1194 531 
Q 1563 422 1919 422 
Q 2459 422 2753 634 
Q 3047 847 3047 1241 
Q 3047 1584 2836 1778 
Q 2625 1972 2144 2069 
L 1759 2144 
Q 1053 2284 737 2584 
Q 422 2884 422 3419 
Q 422 4038 858 4394 
Q 1294 4750 2059 4750 
Q 2388 4750 2728 4690 
Q 3069 4631 3425 4513 
z
" transform="scale(0.015625)"/>
      <path id="DejaVuSans-6f" d="M 1959 3097 
Q 1497 3097 1228 2736 
Q 959 2375 959 1747 
Q 959 1119 1226 758 
Q 1494 397 1959 397 
Q 2419 397 2687 759 
Q 2956 1122 2956 1747 
Q 2956 2369 2687 2733 
Q 2419 3097 1959 3097 
z
M 1959 3584 
Q 2709 3584 3137 3096 
Q 3566 2609 3566 1747 
Q 3566 888 3137 398 
Q 2709 -91 1959 -91 
Q 1206 -91 779 398 
Q 353 888 353 1747 
Q 353 2609 779 3096 
Q 1206 3584 1959 3584 
z
" transform="scale(0.015625)"/>
      <path id="DejaVuSans-76" d="M 191 3500 
L 800 3500 
L 1894 563 
L 2988 3500 
L 3597 3500 
L 2284 0 
L 1503 0 
L 191 3500 
z
" transform="scale(0.015625)"/>
     </defs>
     <use xlink:href="#DejaVuSans-53"/>
     <use xlink:href="#DejaVuSans-74" x="63.476562"/>
     <use xlink:href="#DejaVuSans-72" x="102.685547"/>
     <use xlink:href="#DejaVuSans-65" x="141.548828"/>
     <use xlink:href="#DejaVuSans-61" x="203.072266"/>
     <use xlink:href="#DejaVuSans-6d" x="264.351562"/>
     <use xlink:href="#DejaVuSans-20" x="361.763672"/>
     <use xlink:href="#DejaVuSans-42" x="393.550781"/>
     <use xlink:href="#DejaVuSans-69" x="462.154297"/>
     <use xlink:href="#DejaVuSans-74" x="489.9375"/>
     <use xlink:href="#DejaVuSans-72" x="529.146484"/>
     <use xlink:href="#DejaVuSans-61" x="570.259766"/>
     <use xlink:href="#DejaVuSans-74" x="631.539062"/>
     <use xlink:href="#DejaVuSans-65" x="670.748047"/>
     <use xlink:href="#DejaVuSans-20" x="732.271484"/>
     <use xlink:href="#DejaVuSans-6f" x="764.058594"/>
     <use xlink:href="#DejaVuSans-76" x="825.240234"/>
     <use xlink:href="#DejaVuSans-65" x="884.419922"/>
     <use xlink:href="#DejaVuSans-72" x="945.943359"/>
     <use xlink:href="#DejaVuSans-20" x="987.056641"/>
     <use xlink:href="#DejaVuSans-54" x="1018.84375"/>
     <use xlink:href="#DejaVuSans-69" x="1076.802734"/>
     <use xlink:href="#DejaVuSans-6d" x="1104.585938"/>
     <use xlink:href="#DejaVuSans-65" x="1201.998047"/>
    </g>
   </g>
   <g id="legend_1">
    <g id="patch_7">
     <path d="M 602.139063 86.594375 
L 641 86.594375 
Q 643 86.594375 643 84.594375 
L 643 41.56 
Q 643 39.56 641 39.56 
L 602.139063 39.56 
Q 600.139063 39.56 600.139063 41.56 
L 600.139063 84.594375 
Q 600.139063 86.594375 602.139063 86.594375 
z
" style="fill: #ffffff; opacity: 0.8; stroke: #cccccc; stroke-linejoin: miter"/>
    </g>
    <g id="patch_8">
     <path d="M 604.139063 51.158438 
L 624.139063 51.158438 
L 624.139063 44.158438 
L 604.139063 44.158438 
z
" style="fill: #ff0000; stroke: #ff0000; stroke-width: 0.5; stroke-linejoin: miter"/>
    </g>
    <g id="text_22">
     <!-- I -->
     <g transform="translate(632.139063 51.158438) scale(0.1 -0.1)">
      <defs>
       <path id="DejaVuSans-49" d="M 628 4666 
L 1259 4666 
L 1259 0 
L 628 0 
L 628 4666 
z
" transform="scale(0.015625)"/>
      </defs>
      <use xlink:href="#DejaVuSans-49"/>
     </g>
    </g>
    <g id="patch_9">
     <path d="M 604.139063 65.836563 
L 624.139063 65.836563 
L 624.139063 58.836563 
L 604.139063 58.836563 
z
" style="fill: #0000ff; stroke: #0000ff; stroke-width: 0.5; stroke-linejoin: miter"/>
    </g>
    <g id="text_23">
     <!-- B -->
     <g transform="translate(632.139063 65.836563) scale(0.1 -0.1)">
      <use xlink:href="#DejaVuSans-42"/>
     </g>
    </g>
    <g id="patch_10">
     <path d="M 604.139063 80.514688 
L 624.139063 80.514688 
L 624.139063 73.514688 
L 604.139063 73.514688 
z
" style="fill: #008000; stroke: #008000; stroke-width: 0.5; stroke-linejoin: miter"/>
    </g>
    <g id="text_24">
     <!-- P -->
     <g transform="translate(632.139063 80.514688) scale(0.1 -0.1)">
      <defs>
       <path id="DejaVuSans-50" d="M 1259 4147 
L 1259 2394 
L 2053 2394 
Q 2494 2394 2734 2622 
Q 2975 2850 2975 3272 
Q 2975 3691 2734 3919 
Q 2494 4147 2053 4147 
L 1259 4147 
z
M 628 4666 
L 2053 4666 
Q 2838 4666 3239 4311 
Q 3641 3956 3641 3272 
Q 3641 2581 3239 2228 
Q 2838 1875 2053 1875 
L 1259 1875 
L 1259 0 
L 628 0 
L 628 4666 
z
" transform="scale(0.015625)"/>
      </defs>
      <use xlink:href="#DejaVuSans-50"/>
     </g>
    </g>
   </g>
  </g>
 </g>
 <defs>
  <clipPath id="p535bfe73c7">
   <rect x="90" y="34.56" width="558" height="221.76"/>
  </clipPath>
 </defs>
</svg>
