<?xml version="1.0" encoding="utf-8" standalone="no"?>
<!DOCTYPE svg PUBLIC "-//W3C//DTD SVG 1.1//EN"
  "http://www.w3.org/Graphics/SVG/1.1/DTD/svg11.dtd">
<svg xmlns:xlink="http://www.w3.org/1999/xlink" width="720pt" height="288pt" viewBox="0 0 720 288" xmlns="http://www.w3.org/2000/svg" version="1.1">
 <metadata>
  <rdf:RDF xmlns:dc="http://purl.org/dc/elements/1.1/" xmlns:cc="http://creativecommons.org/ns#" xmlns:rdf="http://www.w3.org/1999/02/22-rdf-syntax-ns#">
   <cc:Work>
    <dc:type rdf:resource="http://purl.org/dc/dcmitype/StillImage"/>
    <dc:date>2023-05-07T02:08:26.191154</dc:date>
    <dc:format>image/svg+xml</dc:format>
    <dc:creator>
     <cc:Agent>
      <dc:title>Matplotlib v3.7.1, https://matplotlib.org/</dc:title>
     </cc:Agent>
    </dc:creator>
   </cc:Work>
  </rdf:RDF>
 </metadata>
 <defs>
  <style type="text/css">*{stroke-linejoin: round; stroke-linecap: butt}</style>
 </defs>
 <g id="figure_1">
  <g id="patch_1">
   <path d="M 0 288 
L 720 288 
L 720 0 
L 0 0 
z
" style="fill: #ffffff"/>
  </g>
  <g id="axes_1">
   <g id="patch_2">
    <path d="M 90 256.32 
L 648 256.32 
L 648 34.56 
L 90 34.56 
z
" style="fill: #ffffff"/>
   </g>
   <g id="matplotlib.axis_1">
    <g id="xtick_1">
     <g id="line2d_1">
      <defs>
       <path id="m5258ff72e0" d="M 0 0 
L 0 3.5 
" style="stroke: #000000; stroke-width: 0.8"/>
      </defs>
      <g>
       <use xlink:href="#m5258ff72e0" x="115.363636" y="256.32" style="stroke: #000000; stroke-width: 0.8"/>
      </g>
     </g>
     <g id="text_1">
      <!-- 0:00:00 -->
      <g transform="translate(96.088636 270.918437) scale(0.1 -0.1)">
       <defs>
        <path id="DejaVuSans-30" d="M 2034 4250 
Q 1547 4250 1301 3770 
Q 1056 3291 1056 2328 
Q 1056 1369 1301 889 
Q 1547 409 2034 409 
Q 2525 409 2770 889 
Q 3016 1369 3016 2328 
Q 3016 3291 2770 3770 
Q 2525 4250 2034 4250 
z
M 2034 4750 
Q 2819 4750 3233 4129 
Q 3647 3509 3647 2328 
Q 3647 1150 3233 529 
Q 2819 -91 2034 -91 
Q 1250 -91 836 529 
Q 422 1150 422 2328 
Q 422 3509 836 4129 
Q 1250 4750 2034 4750 
z
" transform="scale(0.015625)"/>
        <path id="DejaVuSans-3a" d="M 750 794 
L 1409 794 
L 1409 0 
L 750 0 
L 750 794 
z
M 750 3309 
L 1409 3309 
L 1409 2516 
L 750 2516 
L 750 3309 
z
" transform="scale(0.015625)"/>
       </defs>
       <use xlink:href="#DejaVuSans-30"/>
       <use xlink:href="#DejaVuSans-3a" x="63.623047"/>
       <use xlink:href="#DejaVuSans-30" x="97.314453"/>
       <use xlink:href="#DejaVuSans-30" x="160.9375"/>
       <use xlink:href="#DejaVuSans-3a" x="224.560547"/>
       <use xlink:href="#DejaVuSans-30" x="258.251953"/>
       <use xlink:href="#DejaVuSans-30" x="321.875"/>
      </g>
     </g>
    </g>
    <g id="xtick_2">
     <g id="line2d_2">
      <g>
       <use xlink:href="#m5258ff72e0" x="166.090909" y="256.32" style="stroke: #000000; stroke-width: 0.8"/>
      </g>
     </g>
     <g id="text_2">
      <!-- 0:00:30 -->
      <g transform="translate(146.815909 270.918437) scale(0.1 -0.1)">
       <defs>
        <path id="DejaVuSans-33" d="M 2597 2516 
Q 3050 2419 3304 2112 
Q 3559 1806 3559 1356 
Q 3559 666 3084 287 
Q 2609 -91 1734 -91 
Q 1441 -91 1130 -33 
Q 819 25 488 141 
L 488 750 
Q 750 597 1062 519 
Q 1375 441 1716 441 
Q 2309 441 2620 675 
Q 2931 909 2931 1356 
Q 2931 1769 2642 2001 
Q 2353 2234 1838 2234 
L 1294 2234 
L 1294 2753 
L 1863 2753 
Q 2328 2753 2575 2939 
Q 2822 3125 2822 3475 
Q 2822 3834 2567 4026 
Q 2313 4219 1838 4219 
Q 1578 4219 1281 4162 
Q 984 4106 628 3988 
L 628 4550 
Q 988 4650 1302 4700 
Q 1616 4750 1894 4750 
Q 2613 4750 3031 4423 
Q 3450 4097 3450 3541 
Q 3450 3153 3228 2886 
Q 3006 2619 2597 2516 
z
" transform="scale(0.015625)"/>
       </defs>
       <use xlink:href="#DejaVuSans-30"/>
       <use xlink:href="#DejaVuSans-3a" x="63.623047"/>
       <use xlink:href="#DejaVuSans-30" x="97.314453"/>
       <use xlink:href="#DejaVuSans-30" x="160.9375"/>
       <use xlink:href="#DejaVuSans-3a" x="224.560547"/>
       <use xlink:href="#DejaVuSans-33" x="258.251953"/>
       <use xlink:href="#DejaVuSans-30" x="321.875"/>
      </g>
     </g>
    </g>
    <g id="xtick_3">
     <g id="line2d_3">
      <g>
       <use xlink:href="#m5258ff72e0" x="216.818182" y="256.32" style="stroke: #000000; stroke-width: 0.8"/>
      </g>
     </g>
     <g id="text_3">
      <!-- 0:01:00 -->
      <g transform="translate(197.543182 270.918437) scale(0.1 -0.1)">
       <defs>
        <path id="DejaVuSans-31" d="M 794 531 
L 1825 531 
L 1825 4091 
L 703 3866 
L 703 4441 
L 1819 4666 
L 2450 4666 
L 2450 531 
L 3481 531 
L 3481 0 
L 794 0 
L 794 531 
z
" transform="scale(0.015625)"/>
       </defs>
       <use xlink:href="#DejaVuSans-30"/>
       <use xlink:href="#DejaVuSans-3a" x="63.623047"/>
       <use xlink:href="#DejaVuSans-30" x="97.314453"/>
       <use xlink:href="#DejaVuSans-31" x="160.9375"/>
       <use xlink:href="#DejaVuSans-3a" x="224.560547"/>
       <use xlink:href="#DejaVuSans-30" x="258.251953"/>
       <use xlink:href="#DejaVuSans-30" x="321.875"/>
      </g>
     </g>
    </g>
    <g id="xtick_4">
     <g id="line2d_4">
      <g>
       <use xlink:href="#m5258ff72e0" x="267.545455" y="256.32" style="stroke: #000000; stroke-width: 0.8"/>
      </g>
     </g>
     <g id="text_4">
      <!-- 0:01:30 -->
      <g transform="translate(248.270455 270.918437) scale(0.1 -0.1)">
       <use xlink:href="#DejaVuSans-30"/>
       <use xlink:href="#DejaVuSans-3a" x="63.623047"/>
       <use xlink:href="#DejaVuSans-30" x="97.314453"/>
       <use xlink:href="#DejaVuSans-31" x="160.9375"/>
       <use xlink:href="#DejaVuSans-3a" x="224.560547"/>
       <use xlink:href="#DejaVuSans-33" x="258.251953"/>
       <use xlink:href="#DejaVuSans-30" x="321.875"/>
      </g>
     </g>
    </g>
    <g id="xtick_5">
     <g id="line2d_5">
      <g>
       <use xlink:href="#m5258ff72e0" x="318.272727" y="256.32" style="stroke: #000000; stroke-width: 0.8"/>
      </g>
     </g>
     <g id="text_5">
      <!-- 0:02:00 -->
      <g transform="translate(298.997727 270.918437) scale(0.1 -0.1)">
       <defs>
        <path id="DejaVuSans-32" d="M 1228 531 
L 3431 531 
L 3431 0 
L 469 0 
L 469 531 
Q 828 903 1448 1529 
Q 2069 2156 2228 2338 
Q 2531 2678 2651 2914 
Q 2772 3150 2772 3378 
Q 2772 3750 2511 3984 
Q 2250 4219 1831 4219 
Q 1534 4219 1204 4116 
Q 875 4013 500 3803 
L 500 4441 
Q 881 4594 1212 4672 
Q 1544 4750 1819 4750 
Q 2544 4750 2975 4387 
Q 3406 4025 3406 3419 
Q 3406 3131 3298 2873 
Q 3191 2616 2906 2266 
Q 2828 2175 2409 1742 
Q 1991 1309 1228 531 
z
" transform="scale(0.015625)"/>
       </defs>
       <use xlink:href="#DejaVuSans-30"/>
       <use xlink:href="#DejaVuSans-3a" x="63.623047"/>
       <use xlink:href="#DejaVuSans-30" x="97.314453"/>
       <use xlink:href="#DejaVuSans-32" x="160.9375"/>
       <use xlink:href="#DejaVuSans-3a" x="224.560547"/>
       <use xlink:href="#DejaVuSans-30" x="258.251953"/>
       <use xlink:href="#DejaVuSans-30" x="321.875"/>
      </g>
     </g>
    </g>
    <g id="xtick_6">
     <g id="line2d_6">
      <g>
       <use xlink:href="#m5258ff72e0" x="369" y="256.32" style="stroke: #000000; stroke-width: 0.8"/>
      </g>
     </g>
     <g id="text_6">
      <!-- 0:02:30 -->
      <g transform="translate(349.725 270.918437) scale(0.1 -0.1)">
       <use xlink:href="#DejaVuSans-30"/>
       <use xlink:href="#DejaVuSans-3a" x="63.623047"/>
       <use xlink:href="#DejaVuSans-30" x="97.314453"/>
       <use xlink:href="#DejaVuSans-32" x="160.9375"/>
       <use xlink:href="#DejaVuSans-3a" x="224.560547"/>
       <use xlink:href="#DejaVuSans-33" x="258.251953"/>
       <use xlink:href="#DejaVuSans-30" x="321.875"/>
      </g>
     </g>
    </g>
    <g id="xtick_7">
     <g id="line2d_7">
      <g>
       <use xlink:href="#m5258ff72e0" x="419.727273" y="256.32" style="stroke: #000000; stroke-width: 0.8"/>
      </g>
     </g>
     <g id="text_7">
      <!-- 0:03:00 -->
      <g transform="translate(400.452273 270.918437) scale(0.1 -0.1)">
       <use xlink:href="#DejaVuSans-30"/>
       <use xlink:href="#DejaVuSans-3a" x="63.623047"/>
       <use xlink:href="#DejaVuSans-30" x="97.314453"/>
       <use xlink:href="#DejaVuSans-33" x="160.9375"/>
       <use xlink:href="#DejaVuSans-3a" x="224.560547"/>
       <use xlink:href="#DejaVuSans-30" x="258.251953"/>
       <use xlink:href="#DejaVuSans-30" x="321.875"/>
      </g>
     </g>
    </g>
    <g id="xtick_8">
     <g id="line2d_8">
      <g>
       <use xlink:href="#m5258ff72e0" x="470.454545" y="256.32" style="stroke: #000000; stroke-width: 0.8"/>
      </g>
     </g>
     <g id="text_8">
      <!-- 0:03:30 -->
      <g transform="translate(451.179545 270.918437) scale(0.1 -0.1)">
       <use xlink:href="#DejaVuSans-30"/>
       <use xlink:href="#DejaVuSans-3a" x="63.623047"/>
       <use xlink:href="#DejaVuSans-30" x="97.314453"/>
       <use xlink:href="#DejaVuSans-33" x="160.9375"/>
       <use xlink:href="#DejaVuSans-3a" x="224.560547"/>
       <use xlink:href="#DejaVuSans-33" x="258.251953"/>
       <use xlink:href="#DejaVuSans-30" x="321.875"/>
      </g>
     </g>
    </g>
    <g id="xtick_9">
     <g id="line2d_9">
      <g>
       <use xlink:href="#m5258ff72e0" x="521.181818" y="256.32" style="stroke: #000000; stroke-width: 0.8"/>
      </g>
     </g>
     <g id="text_9">
      <!-- 0:04:00 -->
      <g transform="translate(501.906818 270.918437) scale(0.1 -0.1)">
       <defs>
        <path id="DejaVuSans-34" d="M 2419 4116 
L 825 1625 
L 2419 1625 
L 2419 4116 
z
M 2253 4666 
L 3047 4666 
L 3047 1625 
L 3713 1625 
L 3713 1100 
L 3047 1100 
L 3047 0 
L 2419 0 
L 2419 1100 
L 313 1100 
L 313 1709 
L 2253 4666 
z
" transform="scale(0.015625)"/>
       </defs>
       <use xlink:href="#DejaVuSans-30"/>
       <use xlink:href="#DejaVuSans-3a" x="63.623047"/>
       <use xlink:href="#DejaVuSans-30" x="97.314453"/>
       <use xlink:href="#DejaVuSans-34" x="160.9375"/>
       <use xlink:href="#DejaVuSans-3a" x="224.560547"/>
       <use xlink:href="#DejaVuSans-30" x="258.251953"/>
       <use xlink:href="#DejaVuSans-30" x="321.875"/>
      </g>
     </g>
    </g>
    <g id="xtick_10">
     <g id="line2d_10">
      <g>
       <use xlink:href="#m5258ff72e0" x="571.909091" y="256.32" style="stroke: #000000; stroke-width: 0.8"/>
      </g>
     </g>
     <g id="text_10">
      <!-- 0:04:30 -->
      <g transform="translate(552.634091 270.918437) scale(0.1 -0.1)">
       <use xlink:href="#DejaVuSans-30"/>
       <use xlink:href="#DejaVuSans-3a" x="63.623047"/>
       <use xlink:href="#DejaVuSans-30" x="97.314453"/>
       <use xlink:href="#DejaVuSans-34" x="160.9375"/>
       <use xlink:href="#DejaVuSans-3a" x="224.560547"/>
       <use xlink:href="#DejaVuSans-33" x="258.251953"/>
       <use xlink:href="#DejaVuSans-30" x="321.875"/>
      </g>
     </g>
    </g>
    <g id="xtick_11">
     <g id="line2d_11">
      <g>
       <use xlink:href="#m5258ff72e0" x="622.636364" y="256.32" style="stroke: #000000; stroke-width: 0.8"/>
      </g>
     </g>
     <g id="text_11">
      <!-- 0:05:00 -->
      <g transform="translate(603.361364 270.918437) scale(0.1 -0.1)">
       <defs>
        <path id="DejaVuSans-35" d="M 691 4666 
L 3169 4666 
L 3169 4134 
L 1269 4134 
L 1269 2991 
Q 1406 3038 1543 3061 
Q 1681 3084 1819 3084 
Q 2600 3084 3056 2656 
Q 3513 2228 3513 1497 
Q 3513 744 3044 326 
Q 2575 -91 1722 -91 
Q 1428 -91 1123 -41 
Q 819 9 494 109 
L 494 744 
Q 775 591 1075 516 
Q 1375 441 1709 441 
Q 2250 441 2565 725 
Q 2881 1009 2881 1497 
Q 2881 1984 2565 2268 
Q 2250 2553 1709 2553 
Q 1456 2553 1204 2497 
Q 953 2441 691 2322 
L 691 4666 
z
" transform="scale(0.015625)"/>
       </defs>
       <use xlink:href="#DejaVuSans-30"/>
       <use xlink:href="#DejaVuSans-3a" x="63.623047"/>
       <use xlink:href="#DejaVuSans-30" x="97.314453"/>
       <use xlink:href="#DejaVuSans-35" x="160.9375"/>
       <use xlink:href="#DejaVuSans-3a" x="224.560547"/>
       <use xlink:href="#DejaVuSans-30" x="258.251953"/>
       <use xlink:href="#DejaVuSans-30" x="321.875"/>
      </g>
     </g>
    </g>
    <g id="text_12">
     <!-- Time -->
     <g transform="translate(356.766406 284.596563) scale(0.1 -0.1)">
      <defs>
       <path id="DejaVuSans-54" d="M -19 4666 
L 3928 4666 
L 3928 4134 
L 2272 4134 
L 2272 0 
L 1638 0 
L 1638 4134 
L -19 4134 
L -19 4666 
z
" transform="scale(0.015625)"/>
       <path id="DejaVuSans-69" d="M 603 3500 
L 1178 3500 
L 1178 0 
L 603 0 
L 603 3500 
z
M 603 4863 
L 1178 4863 
L 1178 4134 
L 603 4134 
L 603 4863 
z
" transform="scale(0.015625)"/>
       <path id="DejaVuSans-6d" d="M 3328 2828 
Q 3544 3216 3844 3400 
Q 4144 3584 4550 3584 
Q 5097 3584 5394 3201 
Q 5691 2819 5691 2113 
L 5691 0 
L 5113 0 
L 5113 2094 
Q 5113 2597 4934 2840 
Q 4756 3084 4391 3084 
Q 3944 3084 3684 2787 
Q 3425 2491 3425 1978 
L 3425 0 
L 2847 0 
L 2847 2094 
Q 2847 2600 2669 2842 
Q 2491 3084 2119 3084 
Q 1678 3084 1418 2786 
Q 1159 2488 1159 1978 
L 1159 0 
L 581 0 
L 581 3500 
L 1159 3500 
L 1159 2956 
Q 1356 3278 1631 3431 
Q 1906 3584 2284 3584 
Q 2666 3584 2933 3390 
Q 3200 3197 3328 2828 
z
" transform="scale(0.015625)"/>
       <path id="DejaVuSans-65" d="M 3597 1894 
L 3597 1613 
L 953 1613 
Q 991 1019 1311 708 
Q 1631 397 2203 397 
Q 2534 397 2845 478 
Q 3156 559 3463 722 
L 3463 178 
Q 3153 47 2828 -22 
Q 2503 -91 2169 -91 
Q 1331 -91 842 396 
Q 353 884 353 1716 
Q 353 2575 817 3079 
Q 1281 3584 2069 3584 
Q 2775 3584 3186 3129 
Q 3597 2675 3597 1894 
z
M 3022 2063 
Q 3016 2534 2758 2815 
Q 2500 3097 2075 3097 
Q 1594 3097 1305 2825 
Q 1016 2553 972 2059 
L 3022 2063 
z
" transform="scale(0.015625)"/>
      </defs>
      <use xlink:href="#DejaVuSans-54"/>
      <use xlink:href="#DejaVuSans-69" x="57.958984"/>
      <use xlink:href="#DejaVuSans-6d" x="85.742188"/>
      <use xlink:href="#DejaVuSans-65" x="183.154297"/>
     </g>
    </g>
   </g>
   <g id="matplotlib.axis_2">
    <g id="ytick_1">
     <g id="line2d_12">
      <path d="M 90 246.24 
L 648 246.24 
" clip-path="url(#p1993ea1b30)" style="fill: none; stroke: #b0b0b0; stroke-width: 0.8; stroke-linecap: square"/>
     </g>
     <g id="line2d_13">
      <defs>
       <path id="md57a339649" d="M 0 0 
L -3.5 0 
" style="stroke: #000000; stroke-width: 0.8"/>
      </defs>
      <g>
       <use xlink:href="#md57a339649" x="90" y="246.24" style="stroke: #000000; stroke-width: 0.8"/>
      </g>
     </g>
     <g id="text_13">
      <!-- 0 -->
      <g transform="translate(76.6375 250.039219) scale(0.1 -0.1)">
       <use xlink:href="#DejaVuSans-30"/>
      </g>
     </g>
    </g>
    <g id="ytick_2">
     <g id="line2d_14">
      <path d="M 90 197.131552 
L 648 197.131552 
" clip-path="url(#p1993ea1b30)" style="fill: none; stroke: #b0b0b0; stroke-width: 0.8; stroke-linecap: square"/>
     </g>
     <g id="line2d_15">
      <g>
       <use xlink:href="#md57a339649" x="90" y="197.131552" style="stroke: #000000; stroke-width: 0.8"/>
      </g>
     </g>
     <g id="text_14">
      <!-- 5,000 -->
      <g transform="translate(54.371875 200.930771) scale(0.1 -0.1)">
       <defs>
        <path id="DejaVuSans-2c" d="M 750 794 
L 1409 794 
L 1409 256 
L 897 -744 
L 494 -744 
L 750 256 
L 750 794 
z
" transform="scale(0.015625)"/>
       </defs>
       <use xlink:href="#DejaVuSans-35"/>
       <use xlink:href="#DejaVuSans-2c" x="63.623047"/>
       <use xlink:href="#DejaVuSans-30" x="95.410156"/>
       <use xlink:href="#DejaVuSans-30" x="159.033203"/>
       <use xlink:href="#DejaVuSans-30" x="222.65625"/>
      </g>
     </g>
    </g>
    <g id="ytick_3">
     <g id="line2d_16">
      <path d="M 90 148.023104 
L 648 148.023104 
" clip-path="url(#p1993ea1b30)" style="fill: none; stroke: #b0b0b0; stroke-width: 0.8; stroke-linecap: square"/>
     </g>
     <g id="line2d_17">
      <g>
       <use xlink:href="#md57a339649" x="90" y="148.023104" style="stroke: #000000; stroke-width: 0.8"/>
      </g>
     </g>
     <g id="text_15">
      <!-- 10,000 -->
      <g transform="translate(48.009375 151.822323) scale(0.1 -0.1)">
       <use xlink:href="#DejaVuSans-31"/>
       <use xlink:href="#DejaVuSans-30" x="63.623047"/>
       <use xlink:href="#DejaVuSans-2c" x="127.246094"/>
       <use xlink:href="#DejaVuSans-30" x="159.033203"/>
       <use xlink:href="#DejaVuSans-30" x="222.65625"/>
       <use xlink:href="#DejaVuSans-30" x="286.279297"/>
      </g>
     </g>
    </g>
    <g id="ytick_4">
     <g id="line2d_18">
      <path d="M 90 98.914657 
L 648 98.914657 
" clip-path="url(#p1993ea1b30)" style="fill: none; stroke: #b0b0b0; stroke-width: 0.8; stroke-linecap: square"/>
     </g>
     <g id="line2d_19">
      <g>
       <use xlink:href="#md57a339649" x="90" y="98.914657" style="stroke: #000000; stroke-width: 0.8"/>
      </g>
     </g>
     <g id="text_16">
      <!-- 15,000 -->
      <g transform="translate(48.009375 102.713875) scale(0.1 -0.1)">
       <use xlink:href="#DejaVuSans-31"/>
       <use xlink:href="#DejaVuSans-35" x="63.623047"/>
       <use xlink:href="#DejaVuSans-2c" x="127.246094"/>
       <use xlink:href="#DejaVuSans-30" x="159.033203"/>
       <use xlink:href="#DejaVuSans-30" x="222.65625"/>
       <use xlink:href="#DejaVuSans-30" x="286.279297"/>
      </g>
     </g>
    </g>
    <g id="ytick_5">
     <g id="line2d_20">
      <path d="M 90 49.806209 
L 648 49.806209 
" clip-path="url(#p1993ea1b30)" style="fill: none; stroke: #b0b0b0; stroke-width: 0.8; stroke-linecap: square"/>
     </g>
     <g id="line2d_21">
      <g>
       <use xlink:href="#md57a339649" x="90" y="49.806209" style="stroke: #000000; stroke-width: 0.8"/>
      </g>
     </g>
     <g id="text_17">
      <!-- 20,000 -->
      <g transform="translate(48.009375 53.605427) scale(0.1 -0.1)">
       <use xlink:href="#DejaVuSans-32"/>
       <use xlink:href="#DejaVuSans-30" x="63.623047"/>
       <use xlink:href="#DejaVuSans-2c" x="127.246094"/>
       <use xlink:href="#DejaVuSans-30" x="159.033203"/>
       <use xlink:href="#DejaVuSans-30" x="222.65625"/>
       <use xlink:href="#DejaVuSans-30" x="286.279297"/>
      </g>
     </g>
    </g>
    <g id="text_18">
     <!-- Bitrate (kbit/s) -->
     <g transform="translate(41.929688 181.574375) rotate(-90) scale(0.1 -0.1)">
      <defs>
       <path id="DejaVuSans-42" d="M 1259 2228 
L 1259 519 
L 2272 519 
Q 2781 519 3026 730 
Q 3272 941 3272 1375 
Q 3272 1813 3026 2020 
Q 2781 2228 2272 2228 
L 1259 2228 
z
M 1259 4147 
L 1259 2741 
L 2194 2741 
Q 2656 2741 2882 2914 
Q 3109 3088 3109 3444 
Q 3109 3797 2882 3972 
Q 2656 4147 2194 4147 
L 1259 4147 
z
M 628 4666 
L 2241 4666 
Q 2963 4666 3353 4366 
Q 3744 4066 3744 3513 
Q 3744 3084 3544 2831 
Q 3344 2578 2956 2516 
Q 3422 2416 3680 2098 
Q 3938 1781 3938 1306 
Q 3938 681 3513 340 
Q 3088 0 2303 0 
L 628 0 
L 628 4666 
z
" transform="scale(0.015625)"/>
       <path id="DejaVuSans-74" d="M 1172 4494 
L 1172 3500 
L 2356 3500 
L 2356 3053 
L 1172 3053 
L 1172 1153 
Q 1172 725 1289 603 
Q 1406 481 1766 481 
L 2356 481 
L 2356 0 
L 1766 0 
Q 1100 0 847 248 
Q 594 497 594 1153 
L 594 3053 
L 172 3053 
L 172 3500 
L 594 3500 
L 594 4494 
L 1172 4494 
z
" transform="scale(0.015625)"/>
       <path id="DejaVuSans-72" d="M 2631 2963 
Q 2534 3019 2420 3045 
Q 2306 3072 2169 3072 
Q 1681 3072 1420 2755 
Q 1159 2438 1159 1844 
L 1159 0 
L 581 0 
L 581 3500 
L 1159 3500 
L 1159 2956 
Q 1341 3275 1631 3429 
Q 1922 3584 2338 3584 
Q 2397 3584 2469 3576 
Q 2541 3569 2628 3553 
L 2631 2963 
z
" transform="scale(0.015625)"/>
       <path id="DejaVuSans-61" d="M 2194 1759 
Q 1497 1759 1228 1600 
Q 959 1441 959 1056 
Q 959 750 1161 570 
Q 1363 391 1709 391 
Q 2188 391 2477 730 
Q 2766 1069 2766 1631 
L 2766 1759 
L 2194 1759 
z
M 3341 1997 
L 3341 0 
L 2766 0 
L 2766 531 
Q 2569 213 2275 61 
Q 1981 -91 1556 -91 
Q 1019 -91 701 211 
Q 384 513 384 1019 
Q 384 1609 779 1909 
Q 1175 2209 1959 2209 
L 2766 2209 
L 2766 2266 
Q 2766 2663 2505 2880 
Q 2244 3097 1772 3097 
Q 1472 3097 1187 3025 
Q 903 2953 641 2809 
L 641 3341 
Q 956 3463 1253 3523 
Q 1550 3584 1831 3584 
Q 2591 3584 2966 3190 
Q 3341 2797 3341 1997 
z
" transform="scale(0.015625)"/>
       <path id="DejaVuSans-20" transform="scale(0.015625)"/>
       <path id="DejaVuSans-28" d="M 1984 4856 
Q 1566 4138 1362 3434 
Q 1159 2731 1159 2009 
Q 1159 1288 1364 580 
Q 1569 -128 1984 -844 
L 1484 -844 
Q 1016 -109 783 600 
Q 550 1309 550 2009 
Q 550 2706 781 3412 
Q 1013 4119 1484 4856 
L 1984 4856 
z
" transform="scale(0.015625)"/>
       <path id="DejaVuSans-6b" d="M 581 4863 
L 1159 4863 
L 1159 1991 
L 2875 3500 
L 3609 3500 
L 1753 1863 
L 3688 0 
L 2938 0 
L 1159 1709 
L 1159 0 
L 581 0 
L 581 4863 
z
" transform="scale(0.015625)"/>
       <path id="DejaVuSans-62" d="M 3116 1747 
Q 3116 2381 2855 2742 
Q 2594 3103 2138 3103 
Q 1681 3103 1420 2742 
Q 1159 2381 1159 1747 
Q 1159 1113 1420 752 
Q 1681 391 2138 391 
Q 2594 391 2855 752 
Q 3116 1113 3116 1747 
z
M 1159 2969 
Q 1341 3281 1617 3432 
Q 1894 3584 2278 3584 
Q 2916 3584 3314 3078 
Q 3713 2572 3713 1747 
Q 3713 922 3314 415 
Q 2916 -91 2278 -91 
Q 1894 -91 1617 61 
Q 1341 213 1159 525 
L 1159 0 
L 581 0 
L 581 4863 
L 1159 4863 
L 1159 2969 
z
" transform="scale(0.015625)"/>
       <path id="DejaVuSans-2f" d="M 1625 4666 
L 2156 4666 
L 531 -594 
L 0 -594 
L 1625 4666 
z
" transform="scale(0.015625)"/>
       <path id="DejaVuSans-73" d="M 2834 3397 
L 2834 2853 
Q 2591 2978 2328 3040 
Q 2066 3103 1784 3103 
Q 1356 3103 1142 2972 
Q 928 2841 928 2578 
Q 928 2378 1081 2264 
Q 1234 2150 1697 2047 
L 1894 2003 
Q 2506 1872 2764 1633 
Q 3022 1394 3022 966 
Q 3022 478 2636 193 
Q 2250 -91 1575 -91 
Q 1294 -91 989 -36 
Q 684 19 347 128 
L 347 722 
Q 666 556 975 473 
Q 1284 391 1588 391 
Q 1994 391 2212 530 
Q 2431 669 2431 922 
Q 2431 1156 2273 1281 
Q 2116 1406 1581 1522 
L 1381 1569 
Q 847 1681 609 1914 
Q 372 2147 372 2553 
Q 372 3047 722 3315 
Q 1072 3584 1716 3584 
Q 2034 3584 2315 3537 
Q 2597 3491 2834 3397 
z
" transform="scale(0.015625)"/>
       <path id="DejaVuSans-29" d="M 513 4856 
L 1013 4856 
Q 1481 4119 1714 3412 
Q 1947 2706 1947 2009 
Q 1947 1309 1714 600 
Q 1481 -109 1013 -844 
L 513 -844 
Q 928 -128 1133 580 
Q 1338 1288 1338 2009 
Q 1338 2731 1133 3434 
Q 928 4138 513 4856 
z
" transform="scale(0.015625)"/>
      </defs>
      <use xlink:href="#DejaVuSans-42"/>
      <use xlink:href="#DejaVuSans-69" x="68.603516"/>
      <use xlink:href="#DejaVuSans-74" x="96.386719"/>
      <use xlink:href="#DejaVuSans-72" x="135.595703"/>
      <use xlink:href="#DejaVuSans-61" x="176.708984"/>
      <use xlink:href="#DejaVuSans-74" x="237.988281"/>
      <use xlink:href="#DejaVuSans-65" x="277.197266"/>
      <use xlink:href="#DejaVuSans-20" x="338.720703"/>
      <use xlink:href="#DejaVuSans-28" x="370.507812"/>
      <use xlink:href="#DejaVuSans-6b" x="409.521484"/>
      <use xlink:href="#DejaVuSans-62" x="467.431641"/>
      <use xlink:href="#DejaVuSans-69" x="530.908203"/>
      <use xlink:href="#DejaVuSans-74" x="558.691406"/>
      <use xlink:href="#DejaVuSans-2f" x="597.900391"/>
      <use xlink:href="#DejaVuSans-73" x="631.591797"/>
      <use xlink:href="#DejaVuSans-29" x="683.691406"/>
     </g>
    </g>
   </g>
   <g id="PolyCollection_1">
    <defs>
     <path id="m6ee95eb49b" d="M 115.363636 -41.799287 
L 115.363636 -41.76 
L 117.054545 -41.76 
L 118.745455 -41.76 
L 120.436364 -41.76 
L 122.127273 -41.76 
L 123.818182 -41.76 
L 125.509091 -41.76 
L 127.2 -41.76 
L 128.890909 -41.76 
L 130.581818 -41.76 
L 132.272727 -41.76 
L 133.963636 -41.76 
L 135.654545 -41.76 
L 137.345455 -41.76 
L 139.036364 -41.76 
L 140.727273 -41.76 
L 142.418182 -41.76 
L 144.109091 -41.76 
L 145.8 -41.76 
L 147.490909 -41.76 
L 149.181818 -41.76 
L 150.872727 -41.76 
L 152.563636 -41.76 
L 154.254545 -41.76 
L 155.945455 -41.76 
L 157.636364 -41.76 
L 159.327273 -41.76 
L 161.018182 -41.76 
L 162.709091 -41.76 
L 164.4 -41.76 
L 166.090909 -41.76 
L 167.781818 -41.76 
L 169.472727 -41.76 
L 171.163636 -41.76 
L 172.854545 -41.76 
L 174.545455 -41.76 
L 176.236364 -41.76 
L 177.927273 -41.76 
L 179.618182 -41.76 
L 181.309091 -41.76 
L 183 -41.76 
L 184.690909 -41.76 
L 186.381818 -41.76 
L 188.072727 -41.76 
L 189.763636 -41.76 
L 191.454545 -41.76 
L 193.145455 -41.76 
L 194.836364 -41.76 
L 196.527273 -41.76 
L 198.218182 -41.76 
L 199.909091 -41.76 
L 201.6 -41.76 
L 203.290909 -41.76 
L 204.981818 -41.76 
L 206.672727 -41.76 
L 208.363636 -41.76 
L 210.054545 -41.76 
L 211.745455 -41.76 
L 213.436364 -41.76 
L 215.127273 -41.76 
L 216.818182 -41.76 
L 218.509091 -41.76 
L 220.2 -41.76 
L 221.890909 -41.76 
L 223.581818 -41.76 
L 225.272727 -41.76 
L 226.963636 -41.76 
L 228.654545 -41.76 
L 230.345455 -41.76 
L 232.036364 -41.76 
L 233.727273 -41.76 
L 235.418182 -41.76 
L 237.109091 -41.76 
L 238.8 -41.76 
L 240.490909 -41.76 
L 242.181818 -41.76 
L 243.872727 -41.76 
L 245.563636 -41.76 
L 247.254545 -41.76 
L 248.945455 -41.76 
L 250.636364 -41.76 
L 252.327273 -41.76 
L 254.018182 -41.76 
L 255.709091 -41.76 
L 257.4 -41.76 
L 259.090909 -41.76 
L 260.781818 -41.76 
L 262.472727 -41.76 
L 264.163636 -41.76 
L 265.854545 -41.76 
L 267.545455 -41.76 
L 269.236364 -41.76 
L 270.927273 -41.76 
L 272.618182 -41.76 
L 274.309091 -41.76 
L 276 -41.76 
L 277.690909 -41.76 
L 279.381818 -41.76 
L 281.072727 -41.76 
L 282.763636 -41.76 
L 284.454545 -41.76 
L 286.145455 -41.76 
L 287.836364 -41.76 
L 289.527273 -41.76 
L 291.218182 -41.76 
L 292.909091 -41.76 
L 294.6 -41.76 
L 296.290909 -41.76 
L 297.981818 -41.76 
L 299.672727 -41.76 
L 301.363636 -41.76 
L 303.054545 -41.76 
L 304.745455 -41.76 
L 306.436364 -41.76 
L 308.127273 -41.76 
L 309.818182 -41.76 
L 311.509091 -41.76 
L 313.2 -41.76 
L 314.890909 -41.76 
L 316.581818 -41.76 
L 318.272727 -41.76 
L 319.963636 -41.76 
L 321.654545 -41.76 
L 323.345455 -41.76 
L 325.036364 -41.76 
L 326.727273 -41.76 
L 328.418182 -41.76 
L 330.109091 -41.76 
L 331.8 -41.76 
L 333.490909 -41.76 
L 335.181818 -41.76 
L 336.872727 -41.76 
L 338.563636 -41.76 
L 340.254545 -41.76 
L 341.945455 -41.76 
L 343.636364 -41.76 
L 345.327273 -41.76 
L 347.018182 -41.76 
L 348.709091 -41.76 
L 350.4 -41.76 
L 352.090909 -41.76 
L 353.781818 -41.76 
L 355.472727 -41.76 
L 357.163636 -41.76 
L 358.854545 -41.76 
L 360.545455 -41.76 
L 362.236364 -41.76 
L 363.927273 -41.76 
L 365.618182 -41.76 
L 367.309091 -41.76 
L 369 -41.76 
L 370.690909 -41.76 
L 372.381818 -41.76 
L 374.072727 -41.76 
L 375.763636 -41.76 
L 377.454545 -41.76 
L 379.145455 -41.76 
L 380.836364 -41.76 
L 382.527273 -41.76 
L 384.218182 -41.76 
L 385.909091 -41.76 
L 387.6 -41.76 
L 389.290909 -41.76 
L 390.981818 -41.76 
L 392.672727 -41.76 
L 394.363636 -41.76 
L 396.054545 -41.76 
L 397.745455 -41.76 
L 399.436364 -41.76 
L 401.127273 -41.76 
L 402.818182 -41.76 
L 404.509091 -41.76 
L 406.2 -41.76 
L 407.890909 -41.76 
L 409.581818 -41.76 
L 411.272727 -41.76 
L 412.963636 -41.76 
L 414.654545 -41.76 
L 416.345455 -41.76 
L 418.036364 -41.76 
L 419.727273 -41.76 
L 421.418182 -41.76 
L 423.109091 -41.76 
L 424.8 -41.76 
L 426.490909 -41.76 
L 428.181818 -41.76 
L 429.872727 -41.76 
L 431.563636 -41.76 
L 433.254545 -41.76 
L 434.945455 -41.76 
L 436.636364 -41.76 
L 438.327273 -41.76 
L 440.018182 -41.76 
L 441.709091 -41.76 
L 443.4 -41.76 
L 445.090909 -41.76 
L 446.781818 -41.76 
L 448.472727 -41.76 
L 450.163636 -41.76 
L 451.854545 -41.76 
L 453.545455 -41.76 
L 455.236364 -41.76 
L 456.927273 -41.76 
L 458.618182 -41.76 
L 460.309091 -41.76 
L 462 -41.76 
L 463.690909 -41.76 
L 465.381818 -41.76 
L 467.072727 -41.76 
L 468.763636 -41.76 
L 470.454545 -41.76 
L 472.145455 -41.76 
L 473.836364 -41.76 
L 475.527273 -41.76 
L 477.218182 -41.76 
L 478.909091 -41.76 
L 480.6 -41.76 
L 482.290909 -41.76 
L 483.981818 -41.76 
L 485.672727 -41.76 
L 487.363636 -41.76 
L 489.054545 -41.76 
L 490.745455 -41.76 
L 492.436364 -41.76 
L 494.127273 -41.76 
L 495.818182 -41.76 
L 497.509091 -41.76 
L 499.2 -41.76 
L 500.890909 -41.76 
L 502.581818 -41.76 
L 504.272727 -41.76 
L 505.963636 -41.76 
L 507.654545 -41.76 
L 509.345455 -41.76 
L 511.036364 -41.76 
L 512.727273 -41.76 
L 514.418182 -41.76 
L 516.109091 -41.76 
L 517.8 -41.76 
L 519.490909 -41.76 
L 521.181818 -41.76 
L 522.872727 -41.76 
L 524.563636 -41.76 
L 526.254545 -41.76 
L 527.945455 -41.76 
L 529.636364 -41.76 
L 531.327273 -41.76 
L 533.018182 -41.76 
L 534.709091 -41.76 
L 536.4 -41.76 
L 538.090909 -41.76 
L 539.781818 -41.76 
L 541.472727 -41.76 
L 543.163636 -41.76 
L 544.854545 -41.76 
L 546.545455 -41.76 
L 548.236364 -41.76 
L 549.927273 -41.76 
L 551.618182 -41.76 
L 553.309091 -41.76 
L 555 -41.76 
L 556.690909 -41.76 
L 558.381818 -41.76 
L 560.072727 -41.76 
L 561.763636 -41.76 
L 563.454545 -41.76 
L 565.145455 -41.76 
L 566.836364 -41.76 
L 568.527273 -41.76 
L 570.218182 -41.76 
L 571.909091 -41.76 
L 573.6 -41.76 
L 575.290909 -41.76 
L 576.981818 -41.76 
L 578.672727 -41.76 
L 580.363636 -41.76 
L 582.054545 -41.76 
L 583.745455 -41.76 
L 585.436364 -41.76 
L 587.127273 -41.76 
L 588.818182 -41.76 
L 590.509091 -41.76 
L 592.2 -41.76 
L 593.890909 -41.76 
L 595.581818 -41.76 
L 597.272727 -41.76 
L 598.963636 -41.76 
L 600.654545 -41.76 
L 602.345455 -41.76 
L 604.036364 -41.76 
L 605.727273 -41.76 
L 607.418182 -41.76 
L 609.109091 -41.76 
L 610.8 -41.76 
L 612.490909 -41.76 
L 614.181818 -41.76 
L 615.872727 -41.76 
L 617.563636 -41.76 
L 619.254545 -41.76 
L 620.945455 -41.76 
L 622.636364 -41.76 
L 622.636364 -54.999638 
L 622.636364 -54.999638 
L 620.945455 -41.76 
L 619.254545 -50.12808 
L 617.563636 -41.76 
L 615.872727 -69.565203 
L 614.181818 -41.76 
L 612.490909 -68.258918 
L 610.8 -41.76 
L 609.109091 -67.649974 
L 607.418182 -41.76 
L 605.727273 -70.193791 
L 604.036364 -41.76 
L 602.345455 -50.992388 
L 600.654545 -41.76 
L 598.963636 -54.744274 
L 597.272727 -41.76 
L 595.581818 -62.778416 
L 593.890909 -41.76 
L 592.2 -48.713756 
L 590.509091 -41.76 
L 588.818182 -69.368769 
L 587.127273 -41.76 
L 585.436364 -66.137433 
L 583.745455 -41.76 
L 582.054545 -66.569588 
L 580.363636 -41.76 
L 578.672727 -53.712996 
L 576.981818 -41.76 
L 575.290909 -53.054943 
L 573.6 -41.76 
L 571.909091 -53.73264 
L 570.218182 -41.76 
L 568.527273 -56.669325 
L 566.836364 -41.76 
L 565.145455 -48.252137 
L 563.454545 -41.76 
L 561.763636 -71.75544 
L 560.072727 -41.76 
L 558.381818 -60.264063 
L 556.690909 -41.76 
L 555 -48.674469 
L 553.309091 -41.76 
L 551.618182 -50.462017 
L 549.927273 -41.76 
L 548.236364 -48.694113 
L 546.545455 -41.76 
L 544.854545 -54.655878 
L 543.163636 -41.76 
L 541.472727 -54.174616 
L 539.781818 -41.76 
L 538.090909 -55.029103 
L 536.4 -41.76 
L 534.709091 -65.88207 
L 533.018182 -41.76 
L 531.327273 -52.475463 
L 529.636364 -41.76 
L 527.945455 -52.092417 
L 526.254545 -41.76 
L 524.563636 -52.229921 
L 522.872727 -41.76 
L 521.181818 -52.711184 
L 519.490909 -41.76 
L 517.8 -51.994201 
L 516.109091 -41.76 
L 514.418182 -68.740181 
L 512.727273 -41.76 
L 511.036364 -52.170991 
L 509.345455 -41.76 
L 507.654545 -51.12007 
L 505.963636 -41.76 
L 504.272727 -64.811505 
L 502.581818 -41.76 
L 500.890909 -56.895224 
L 499.2 -41.76 
L 497.509091 -57.111301 
L 495.818182 -41.76 
L 494.127273 -53.084408 
L 492.436364 -41.76 
L 490.745455 -52.927261 
L 489.054545 -41.76 
L 487.363636 -49.872716 
L 485.672727 -41.76 
L 483.981818 -54.538018 
L 482.290909 -41.76 
L 480.6 -51.925449 
L 478.909091 -41.76 
L 477.218182 -51.895984 
L 475.527273 -41.76 
L 473.836364 -50.059328 
L 472.145455 -41.76 
L 470.454545 -49.43074 
L 468.763636 -41.76 
L 467.072727 -54.78356 
L 465.381818 -41.76 
L 463.690909 -54.596948 
L 462 -41.76 
L 460.309091 -48.350354 
L 458.618182 -41.76 
L 456.927273 -48.261958 
L 455.236364 -41.76 
L 453.545455 -47.378006 
L 451.854545 -41.76 
L 450.163636 -52.996013 
L 448.472727 -41.76 
L 446.781818 -56.728255 
L 445.090909 -41.76 
L 443.4 -57.504168 
L 441.709091 -41.76 
L 440.018182 -50.864706 
L 438.327273 -41.76 
L 436.636364 -57.936323 
L 434.945455 -41.76 
L 433.254545 -58.083648 
L 431.563636 -41.76 
L 429.872727 -58.260438 
L 428.181818 -41.76 
L 426.490909 -54.194259 
L 424.8 -41.76 
L 423.109091 -58.712236 
L 421.418182 -41.76 
L 419.727273 -47.142286 
L 418.036364 -41.76 
L 416.345455 -47.319076 
L 414.654545 -41.76 
L 412.963636 -48.281602 
L 411.272727 -41.76 
L 409.581818 -48.713756 
L 407.890909 -41.76 
L 406.2 -48.173563 
L 404.509091 -41.76 
L 402.818182 -59.72387 
L 401.127273 -41.76 
L 399.436364 -60.195311 
L 397.745455 -41.76 
L 396.054545 -60.106916 
L 394.363636 -41.76 
L 392.672727 -61.128372 
L 390.981818 -41.76 
L 389.290909 -61.481953 
L 387.6 -41.76 
L 385.909091 -61.423023 
L 384.218182 -41.76 
L 382.527273 -59.645297 
L 380.836364 -41.76 
L 379.145455 -59.507793 
L 377.454545 -41.76 
L 375.763636 -58.820275 
L 374.072727 -41.76 
L 372.381818 -80.555674 
L 370.690909 -41.76 
L 369 -58.869383 
L 367.309091 -41.76 
L 365.618182 -55.146963 
L 363.927273 -41.76 
L 362.236364 -58.103291 
L 360.545455 -41.76 
L 358.854545 -58.643484 
L 357.163636 -41.76 
L 355.472727 -58.456872 
L 353.781818 -41.76 
L 352.090909 -58.515802 
L 350.4 -41.76 
L 348.709091 -57.985431 
L 347.018182 -41.76 
L 345.327273 -57.710424 
L 343.636364 -41.76 
L 341.945455 -57.386308 
L 340.254545 -41.76 
L 338.563636 -57.651494 
L 336.872727 -41.76 
L 335.181818 -55.313932 
L 333.490909 -41.76 
L 331.8 -55.765729 
L 330.109091 -41.76 
L 328.418182 -55.255001 
L 326.727273 -41.76 
L 325.036364 -58.09347 
L 323.345455 -41.76 
L 321.654545 -64.300778 
L 319.963636 -41.76 
L 318.272727 -64.958831 
L 316.581818 -41.76 
L 314.890909 -65.36152 
L 313.2 -41.76 
L 311.509091 -48.458392 
L 309.818182 -41.76 
L 308.127273 -48.723578 
L 306.436364 -41.76 
L 304.745455 -48.203028 
L 303.054545 -41.76 
L 301.363636 -47.63337 
L 299.672727 -41.76 
L 297.981818 -80.594961 
L 296.290909 -41.76 
L 294.6 -67.679439 
L 292.909091 -41.76 
L 291.218182 -53.978182 
L 289.527273 -41.76 
L 287.836364 -53.663888 
L 286.145455 -41.76 
L 284.454545 -53.821035 
L 282.763636 -41.76 
L 281.072727 -54.253189 
L 279.381818 -41.76 
L 277.690909 -54.48891 
L 276 -41.76 
L 274.309091 -54.056755 
L 272.618182 -41.76 
L 270.927273 -53.811213 
L 269.236364 -41.76 
L 267.545455 -54.017469 
L 265.854545 -41.76 
L 264.163636 -53.221912 
L 262.472727 -41.76 
L 260.781818 -52.622789 
L 259.090909 -41.76 
L 257.4 -56.777363 
L 255.709091 -41.76 
L 254.018182 -59.939947 
L 252.327273 -41.76 
L 250.636364 -61.305162 
L 248.945455 -41.76 
L 247.254545 -50.344157 
L 245.563636 -41.76 
L 243.872727 -66.805308 
L 242.181818 -41.76 
L 240.490909 -55.618404 
L 238.8 -41.76 
L 237.109091 -49.02805 
L 235.418182 -41.76 
L 233.727273 -57.464882 
L 232.036364 -41.76 
L 230.345455 -51.287039 
L 228.654545 -41.76 
L 226.963636 -50.668272 
L 225.272727 -41.76 
L 223.581818 -49.470026 
L 221.890909 -41.76 
L 220.2 -49.018229 
L 218.509091 -41.76 
L 216.818182 -65.332055 
L 215.127273 -41.76 
L 213.436364 -66.039217 
L 211.745455 -41.76 
L 210.054545 -64.173096 
L 208.363636 -41.76 
L 206.672727 -63.917732 
L 204.981818 -41.76 
L 203.290909 -57.769354 
L 201.6 -41.76 
L 199.909091 -59.566723 
L 198.218182 -41.76 
L 196.527273 -58.103291 
L 194.836364 -41.76 
L 193.145455 -58.712236 
L 191.454545 -41.76 
L 189.763636 -60.116738 
L 188.072727 -41.76 
L 186.381818 -62.326618 
L 184.690909 -41.76 
L 183 -65.764209 
L 181.309091 -41.76 
L 179.618182 -72.177773 
L 177.927273 -41.76 
L 176.236364 -71.254534 
L 174.545455 -41.76 
L 172.854545 -71.942052 
L 171.163636 -41.76 
L 169.472727 -71.824192 
L 167.781818 -41.76 
L 166.090909 -71.529541 
L 164.4 -41.76 
L 162.709091 -75.006419 
L 161.018182 -41.76 
L 159.327273 -48.645004 
L 157.636364 -41.76 
L 155.945455 -51.041497 
L 154.254545 -41.76 
L 152.563636 -51.846875 
L 150.872727 -41.76 
L 149.181818 -71.588471 
L 147.490909 -41.76 
L 145.8 -69.447343 
L 144.109091 -41.76 
L 142.418182 -71.863479 
L 140.727273 -41.76 
L 139.036364 -70.30183 
L 137.345455 -41.76 
L 135.654545 -66.559766 
L 133.963636 -41.76 
L 132.272727 -60.087273 
L 130.581818 -41.76 
L 128.890909 -51.837053 
L 127.2 -41.76 
L 125.509091 -48.222672 
L 123.818182 -41.76 
L 122.127273 -43.115393 
L 120.436364 -41.76 
L 118.745455 -43.920772 
L 117.054545 -41.76 
L 115.363636 -41.799287 
z
" style="stroke: #ff0000; stroke-width: 0.5"/>
    </defs>
    <g clip-path="url(#p1993ea1b30)">
     <use xlink:href="#m6ee95eb49b" x="0" y="288" style="fill: #ff0000; stroke: #ff0000; stroke-width: 0.5"/>
    </g>
   </g>
   <g id="PolyCollection_2">
    <defs>
     <path id="m2ed849aaa0" d="M 115.363636 -52.563859 
L 115.363636 -41.799287 
L 117.054545 -41.76 
L 118.745455 -43.920772 
L 120.436364 -41.76 
L 122.127273 -43.115393 
L 123.818182 -41.76 
L 125.509091 -48.222672 
L 127.2 -41.76 
L 128.890909 -51.837053 
L 130.581818 -41.76 
L 132.272727 -60.087273 
L 133.963636 -41.76 
L 135.654545 -66.559766 
L 137.345455 -41.76 
L 139.036364 -70.30183 
L 140.727273 -41.76 
L 142.418182 -71.863479 
L 144.109091 -41.76 
L 145.8 -69.447343 
L 147.490909 -41.76 
L 149.181818 -71.588471 
L 150.872727 -41.76 
L 152.563636 -51.846875 
L 154.254545 -41.76 
L 155.945455 -51.041497 
L 157.636364 -41.76 
L 159.327273 -48.645004 
L 161.018182 -41.76 
L 162.709091 -75.006419 
L 164.4 -41.76 
L 166.090909 -71.529541 
L 167.781818 -41.76 
L 169.472727 -71.824192 
L 171.163636 -41.76 
L 172.854545 -71.942052 
L 174.545455 -41.76 
L 176.236364 -71.254534 
L 177.927273 -41.76 
L 179.618182 -72.177773 
L 181.309091 -41.76 
L 183 -65.764209 
L 184.690909 -41.76 
L 186.381818 -62.326618 
L 188.072727 -41.76 
L 189.763636 -60.116738 
L 191.454545 -41.76 
L 193.145455 -58.712236 
L 194.836364 -41.76 
L 196.527273 -58.103291 
L 198.218182 -41.76 
L 199.909091 -59.566723 
L 201.6 -41.76 
L 203.290909 -57.769354 
L 204.981818 -41.76 
L 206.672727 -63.917732 
L 208.363636 -41.76 
L 210.054545 -64.173096 
L 211.745455 -41.76 
L 213.436364 -66.039217 
L 215.127273 -41.76 
L 216.818182 -65.332055 
L 218.509091 -41.76 
L 220.2 -49.018229 
L 221.890909 -41.76 
L 223.581818 -49.470026 
L 225.272727 -41.76 
L 226.963636 -50.668272 
L 228.654545 -41.76 
L 230.345455 -51.287039 
L 232.036364 -41.76 
L 233.727273 -57.464882 
L 235.418182 -41.76 
L 237.109091 -49.02805 
L 238.8 -41.76 
L 240.490909 -55.618404 
L 242.181818 -41.76 
L 243.872727 -66.805308 
L 245.563636 -41.76 
L 247.254545 -50.344157 
L 248.945455 -41.76 
L 250.636364 -61.305162 
L 252.327273 -41.76 
L 254.018182 -59.939947 
L 255.709091 -41.76 
L 257.4 -56.777363 
L 259.090909 -41.76 
L 260.781818 -52.622789 
L 262.472727 -41.76 
L 264.163636 -53.221912 
L 265.854545 -41.76 
L 267.545455 -54.017469 
L 269.236364 -41.76 
L 270.927273 -53.811213 
L 272.618182 -41.76 
L 274.309091 -54.056755 
L 276 -41.76 
L 277.690909 -54.48891 
L 279.381818 -41.76 
L 281.072727 -54.253189 
L 282.763636 -41.76 
L 284.454545 -53.821035 
L 286.145455 -41.76 
L 287.836364 -53.663888 
L 289.527273 -41.76 
L 291.218182 -53.978182 
L 292.909091 -41.76 
L 294.6 -67.679439 
L 296.290909 -41.76 
L 297.981818 -80.594961 
L 299.672727 -41.76 
L 301.363636 -47.63337 
L 303.054545 -41.76 
L 304.745455 -48.203028 
L 306.436364 -41.76 
L 308.127273 -48.723578 
L 309.818182 -41.76 
L 311.509091 -48.458392 
L 313.2 -41.76 
L 314.890909 -65.36152 
L 316.581818 -41.76 
L 318.272727 -64.958831 
L 319.963636 -41.76 
L 321.654545 -64.300778 
L 323.345455 -41.76 
L 325.036364 -58.09347 
L 326.727273 -41.76 
L 328.418182 -55.255001 
L 330.109091 -41.76 
L 331.8 -55.765729 
L 333.490909 -41.76 
L 335.181818 -55.313932 
L 336.872727 -41.76 
L 338.563636 -57.651494 
L 340.254545 -41.76 
L 341.945455 -57.386308 
L 343.636364 -41.76 
L 345.327273 -57.710424 
L 347.018182 -41.76 
L 348.709091 -57.985431 
L 350.4 -41.76 
L 352.090909 -58.515802 
L 353.781818 -41.76 
L 355.472727 -58.456872 
L 357.163636 -41.76 
L 358.854545 -58.643484 
L 360.545455 -41.76 
L 362.236364 -58.103291 
L 363.927273 -41.76 
L 365.618182 -55.146963 
L 367.309091 -41.76 
L 369 -58.869383 
L 370.690909 -41.76 
L 372.381818 -80.555674 
L 374.072727 -41.76 
L 375.763636 -58.820275 
L 377.454545 -41.76 
L 379.145455 -59.507793 
L 380.836364 -41.76 
L 382.527273 -59.645297 
L 384.218182 -41.76 
L 385.909091 -61.423023 
L 387.6 -41.76 
L 389.290909 -61.481953 
L 390.981818 -41.76 
L 392.672727 -61.128372 
L 394.363636 -41.76 
L 396.054545 -60.106916 
L 397.745455 -41.76 
L 399.436364 -60.195311 
L 401.127273 -41.76 
L 402.818182 -59.72387 
L 404.509091 -41.76 
L 406.2 -48.173563 
L 407.890909 -41.76 
L 409.581818 -48.713756 
L 411.272727 -41.76 
L 412.963636 -48.281602 
L 414.654545 -41.76 
L 416.345455 -47.319076 
L 418.036364 -41.76 
L 419.727273 -47.142286 
L 421.418182 -41.76 
L 423.109091 -58.712236 
L 424.8 -41.76 
L 426.490909 -54.194259 
L 428.181818 -41.76 
L 429.872727 -58.260438 
L 431.563636 -41.76 
L 433.254545 -58.083648 
L 434.945455 -41.76 
L 436.636364 -57.936323 
L 438.327273 -41.76 
L 440.018182 -50.864706 
L 441.709091 -41.76 
L 443.4 -57.504168 
L 445.090909 -41.76 
L 446.781818 -56.728255 
L 448.472727 -41.76 
L 450.163636 -52.996013 
L 451.854545 -41.76 
L 453.545455 -47.378006 
L 455.236364 -41.76 
L 456.927273 -48.261958 
L 458.618182 -41.76 
L 460.309091 -48.350354 
L 462 -41.76 
L 463.690909 -54.596948 
L 465.381818 -41.76 
L 467.072727 -54.78356 
L 468.763636 -41.76 
L 470.454545 -49.43074 
L 472.145455 -41.76 
L 473.836364 -50.059328 
L 475.527273 -41.76 
L 477.218182 -51.895984 
L 478.909091 -41.76 
L 480.6 -51.925449 
L 482.290909 -41.76 
L 483.981818 -54.538018 
L 485.672727 -41.76 
L 487.363636 -49.872716 
L 489.054545 -41.76 
L 490.745455 -52.927261 
L 492.436364 -41.76 
L 494.127273 -53.084408 
L 495.818182 -41.76 
L 497.509091 -57.111301 
L 499.2 -41.76 
L 500.890909 -56.895224 
L 502.581818 -41.76 
L 504.272727 -64.811505 
L 505.963636 -41.76 
L 507.654545 -51.12007 
L 509.345455 -41.76 
L 511.036364 -52.170991 
L 512.727273 -41.76 
L 514.418182 -68.740181 
L 516.109091 -41.76 
L 517.8 -51.994201 
L 519.490909 -41.76 
L 521.181818 -52.711184 
L 522.872727 -41.76 
L 524.563636 -52.229921 
L 526.254545 -41.76 
L 527.945455 -52.092417 
L 529.636364 -41.76 
L 531.327273 -52.475463 
L 533.018182 -41.76 
L 534.709091 -65.88207 
L 536.4 -41.76 
L 538.090909 -55.029103 
L 539.781818 -41.76 
L 541.472727 -54.174616 
L 543.163636 -41.76 
L 544.854545 -54.655878 
L 546.545455 -41.76 
L 548.236364 -48.694113 
L 549.927273 -41.76 
L 551.618182 -50.462017 
L 553.309091 -41.76 
L 555 -48.674469 
L 556.690909 -41.76 
L 558.381818 -60.264063 
L 560.072727 -41.76 
L 561.763636 -71.75544 
L 563.454545 -41.76 
L 565.145455 -48.252137 
L 566.836364 -41.76 
L 568.527273 -56.669325 
L 570.218182 -41.76 
L 571.909091 -53.73264 
L 573.6 -41.76 
L 575.290909 -53.054943 
L 576.981818 -41.76 
L 578.672727 -53.712996 
L 580.363636 -41.76 
L 582.054545 -66.569588 
L 583.745455 -41.76 
L 585.436364 -66.137433 
L 587.127273 -41.76 
L 588.818182 -69.368769 
L 590.509091 -41.76 
L 592.2 -48.713756 
L 593.890909 -41.76 
L 595.581818 -62.778416 
L 597.272727 -41.76 
L 598.963636 -54.744274 
L 600.654545 -41.76 
L 602.345455 -50.992388 
L 604.036364 -41.76 
L 605.727273 -70.193791 
L 607.418182 -41.76 
L 609.109091 -67.649974 
L 610.8 -41.76 
L 612.490909 -68.258918 
L 614.181818 -41.76 
L 615.872727 -69.565203 
L 617.563636 -41.76 
L 619.254545 -50.12808 
L 620.945455 -41.76 
L 622.636364 -54.999638 
L 622.636364 -54.999638 
L 622.636364 -54.999638 
L 620.945455 -61.108728 
L 619.254545 -74.240327 
L 617.563636 -61.81589 
L 615.872727 -76.194844 
L 614.181818 -43.675229 
L 612.490909 -71.794727 
L 610.8 -45.826179 
L 609.109091 -75.026063 
L 607.418182 -43.370757 
L 605.727273 -71.352751 
L 604.036364 -45.757428 
L 602.345455 -62.238223 
L 600.654545 -50.059328 
L 598.963636 -65.99993 
L 597.272727 -63.053423 
L 595.581818 -93.284583 
L 593.890909 -67.021386 
L 592.2 -65.017761 
L 590.509091 -52.730827 
L 588.818182 -81.98964 
L 587.127273 -50.697738 
L 585.436364 -75.733224 
L 583.745455 -74.210862 
L 582.054545 -103.273242 
L 580.363636 -91.025595 
L 578.672727 -70.753628 
L 576.981818 -45.698498 
L 575.290909 -55.019281 
L 573.6 -55.834481 
L 571.909091 -56.855937 
L 570.218182 -50.471839 
L 568.527273 -60.057808 
L 566.836364 -56.286279 
L 565.145455 -54.469266 
L 563.454545 -52.63261 
L 561.763636 -77.383268 
L 560.072727 -53.506741 
L 558.381818 -70.439334 
L 556.690909 -52.053131 
L 555 -51.444186 
L 553.309091 -49.833429 
L 551.618182 -65.567776 
L 549.927273 -67.875873 
L 548.236364 -66.559766 
L 546.545455 -52.750471 
L 544.854545 -58.417586 
L 543.163636 -51.856697 
L 541.472727 -81.203905 
L 539.781818 -52.554037 
L 538.090909 -68.425887 
L 536.4 -56.266635 
L 534.709091 -99.531178 
L 533.018182 -77.579702 
L 531.327273 -67.620509 
L 529.636364 -52.701362 
L 527.945455 -54.223724 
L 526.254545 -43.252897 
L 524.563636 -52.946904 
L 522.872727 -44.814545 
L 521.181818 -54.174616 
L 519.490909 -44.853832 
L 517.8 -58.083648 
L 516.109091 -61.560526 
L 514.418182 -73.808173 
L 512.727273 -44.146671 
L 511.036364 -55.638047 
L 509.345455 -52.897796 
L 507.654545 -57.828284 
L 505.963636 -56.905045 
L 504.272727 -88.049623 
L 502.581818 -49.499491 
L 500.890909 -59.458685 
L 499.2 -42.201976 
L 497.509091 -57.602385 
L 495.818182 -45.060088 
L 494.127273 -56.463069 
L 492.436364 -49.244127 
L 490.745455 -68.553569 
L 489.054545 -49.234306 
L 487.363636 -58.358655 
L 485.672727 -50.589699 
L 483.981818 -68.622321 
L 482.290909 -111.415422 
L 480.6 -117.720947 
L 478.909091 -77.078796 
L 477.218182 -83.934335 
L 475.527273 -76.05734 
L 473.836364 -56.895224 
L 472.145455 -58.437229 
L 470.454545 -66.441906 
L 468.763636 -45.757428 
L 467.072727 -57.258626 
L 465.381818 -46.160117 
L 463.690909 -57.749711 
L 462 -58.957778 
L 460.309091 -59.54708 
L 458.618182 -47.112821 
L 456.927273 -52.51475 
L 455.236364 -48.350354 
L 453.545455 -88.38356 
L 451.854545 -58.162222 
L 450.163636 -62.100719 
L 448.472727 -82.618229 
L 446.781818 -83.472716 
L 445.090909 -42.535913 
L 443.4 -57.926501 
L 441.709091 -45.610102 
L 440.018182 -75.654651 
L 438.327273 -71.185782 
L 436.636364 -84.150412 
L 434.945455 -56.846115 
L 433.254545 -83.895048 
L 431.563636 -64.271312 
L 429.872727 -85.407588 
L 428.181818 -75.99841 
L 426.490909 -66.569588 
L 424.8 -53.929073 
L 423.109091 -70.056288 
L 421.418182 -79.377071 
L 419.727273 -75.281426 
L 418.036364 -50.805776 
L 416.345455 -51.827232 
L 414.654545 -47.181573 
L 412.963636 -50.923636 
L 411.272727 -46.985139 
L 409.581818 -56.080023 
L 407.890909 -62.640912 
L 406.2 -55.402327 
L 404.509091 -47.446758 
L 402.818182 -66.549944 
L 401.127273 -48.713756 
L 399.436364 -72.158129 
L 397.745455 -54.184437 
L 396.054545 -68.750003 
L 394.363636 -54.174616 
L 392.672727 -65.832961 
L 390.981818 -46.307442 
L 389.290909 -63.947197 
L 387.6 -45.54135 
L 385.909091 -62.267688 
L 384.218182 -50.766489 
L 382.527273 -69.123227 
L 380.836364 -58.643484 
L 379.145455 -75.762689 
L 377.454545 -53.172803 
L 375.763636 -66.314224 
L 374.072727 -46.651201 
L 372.381818 -82.362865 
L 370.690909 -46.160117 
L 369 -60.411388 
L 367.309091 -46.091365 
L 365.618182 -60.087273 
L 363.927273 -60.332815 
L 362.236364 -68.84822 
L 360.545455 -46.00297 
L 358.854545 -74.348366 
L 357.163636 -54.803204 
L 355.472727 -72.914399 
L 353.781818 -44.66722 
L 352.090909 -67.68926 
L 350.4 -53.437989 
L 348.709091 -64.251669 
L 347.018182 -46.169939 
L 345.327273 -62.473943 
L 343.636364 -48.38964 
L 341.945455 -60.922116 
L 340.254545 -45.227056 
L 338.563636 -71.038457 
L 336.872727 -56.993441 
L 335.181818 -59.772979 
L 333.490909 -44.873476 
L 331.8 -59.969412 
L 330.109091 -57.916679 
L 328.418182 -69.751815 
L 326.727273 -62.935563 
L 325.036364 -69.466986 
L 323.345455 -83.777188 
L 321.654545 -84.612032 
L 319.963636 -52.131704 
L 318.272727 -80.565495 
L 316.581818 -50.137901 
L 314.890909 -72.875113 
L 313.2 -59.900661 
L 311.509091 -60.607822 
L 309.818182 -54.60677 
L 308.127273 -62.257866 
L 306.436364 -52.57368 
L 304.745455 -63.524864 
L 303.054545 -51.984379 
L 301.363636 -63.2695 
L 299.672727 -55.088033 
L 297.981818 -87.656755 
L 296.290909 -44.755615 
L 294.6 -77.884174 
L 292.909091 -48.703935 
L 291.218182 -58.90867 
L 289.527273 -45.786893 
L 287.836364 -57.739889 
L 286.145455 -46.336907 
L 284.454545 -61.049798 
L 282.763636 -45.54135 
L 281.072727 -56.296101 
L 279.381818 -43.439509 
L 277.690909 -56.050558 
L 276 -45.452955 
L 274.309091 -58.260438 
L 272.618182 -43.694873 
L 270.927273 -55.657691 
L 269.236364 -47.181573 
L 267.545455 -58.555089 
L 265.854545 -42.133224 
L 264.163636 -56.138954 
L 262.472727 -46.336907 
L 260.781818 -64.48739 
L 259.090909 -56.87558 
L 257.4 -79.121707 
L 255.709091 -79.887799 
L 254.018182 -96.388237 
L 252.327273 -77.618989 
L 250.636364 -83.639684 
L 248.945455 -60.804256 
L 247.254545 -62.189114 
L 245.563636 -44.018989 
L 243.872727 -68.042841 
L 242.181818 -42.722526 
L 240.490909 -56.482713 
L 238.8 -58.142578 
L 237.109091 -58.191687 
L 235.418182 -59.252429 
L 233.727273 -72.600105 
L 232.036364 -54.891599 
L 230.345455 -55.42197 
L 228.654545 -48.38964 
L 226.963636 -55.412148 
L 225.272727 -52.799579 
L 223.581818 -50.697738 
L 221.890909 -44.402034 
L 220.2 -54.037112 
L 218.509091 -44.02881 
L 216.818182 -72.501888 
L 215.127273 -56.806828 
L 213.436364 -76.361812 
L 211.745455 -49.185197 
L 210.054545 -71.333107 
L 208.363636 -47.112821 
L 206.672727 -79.936907 
L 204.981818 -74.986776 
L 203.290909 -84.474528 
L 201.6 -47.613727 
L 199.909091 -66.324046 
L 198.218182 -49.823607 
L 196.527273 -64.281134 
L 194.836364 -45.256521 
L 193.145455 -63.858802 
L 191.454545 -47.181573 
L 189.763636 -67.659795 
L 188.072727 -50.353978 
L 186.381818 -71.215247 
L 184.690909 -49.037872 
L 183 -73.798351 
L 181.309091 -62.306975 
L 179.618182 -92.361345 
L 177.927273 -60.637287 
L 176.236364 -90.082713 
L 174.545455 -58.21133 
L 172.854545 -90.161286 
L 171.163636 -58.417586 
L 169.472727 -88.756785 
L 167.781818 -58.044361 
L 166.090909 -85.653131 
L 164.4 -57.504168 
L 162.709091 -90.18093 
L 161.018182 -55.117498 
L 159.327273 -49.745034 
L 157.636364 -49.018229 
L 155.945455 -66.274937 
L 154.254545 -44.343104 
L 152.563636 -59.684583 
L 150.872727 -50.226296 
L 149.181818 -82.785197 
L 147.490909 -61.265875 
L 145.8 -89.621093 
L 144.109091 -73.562631 
L 142.418182 -95.828401 
L 140.727273 -53.084408 
L 139.036364 -83.590576 
L 137.345455 -59.989056 
L 135.654545 -81.98964 
L 133.963636 -52.789757 
L 132.272727 -73.503701 
L 130.581818 -53.811213 
L 128.890909 -67.080316 
L 127.2 -51.611155 
L 125.509091 -54.675522 
L 123.818182 -44.834189 
L 122.127273 -45.295808 
L 120.436364 -43.292184 
L 118.745455 -44.500251 
L 117.054545 -43.203788 
L 115.363636 -52.563859 
z
" style="stroke: #0000ff; stroke-width: 0.5"/>
    </defs>
    <g clip-path="url(#p1993ea1b30)">
     <use xlink:href="#m2ed849aaa0" x="0" y="288" style="fill: #0000ff; stroke: #0000ff; stroke-width: 0.5"/>
    </g>
   </g>
   <g id="PolyCollection_3">
    <defs>
     <path id="m330641b4b4" d="M 115.363636 -61.953394 
L 115.363636 -52.563859 
L 117.054545 -43.203788 
L 118.745455 -44.500251 
L 120.436364 -43.292184 
L 122.127273 -45.295808 
L 123.818182 -44.834189 
L 125.509091 -54.675522 
L 127.2 -51.611155 
L 128.890909 -67.080316 
L 130.581818 -53.811213 
L 132.272727 -73.503701 
L 133.963636 -52.789757 
L 135.654545 -81.98964 
L 137.345455 -59.989056 
L 139.036364 -83.590576 
L 140.727273 -53.084408 
L 142.418182 -95.828401 
L 144.109091 -73.562631 
L 145.8 -89.621093 
L 147.490909 -61.265875 
L 149.181818 -82.785197 
L 150.872727 -50.226296 
L 152.563636 -59.684583 
L 154.254545 -44.343104 
L 155.945455 -66.274937 
L 157.636364 -49.018229 
L 159.327273 -49.745034 
L 161.018182 -55.117498 
L 162.709091 -90.18093 
L 164.4 -57.504168 
L 166.090909 -85.653131 
L 167.781818 -58.044361 
L 169.472727 -88.756785 
L 171.163636 -58.417586 
L 172.854545 -90.161286 
L 174.545455 -58.21133 
L 176.236364 -90.082713 
L 177.927273 -60.637287 
L 179.618182 -92.361345 
L 181.309091 -62.306975 
L 183 -73.798351 
L 184.690909 -49.037872 
L 186.381818 -71.215247 
L 188.072727 -50.353978 
L 189.763636 -67.659795 
L 191.454545 -47.181573 
L 193.145455 -63.858802 
L 194.836364 -45.256521 
L 196.527273 -64.281134 
L 198.218182 -49.823607 
L 199.909091 -66.324046 
L 201.6 -47.613727 
L 203.290909 -84.474528 
L 204.981818 -74.986776 
L 206.672727 -79.936907 
L 208.363636 -47.112821 
L 210.054545 -71.333107 
L 211.745455 -49.185197 
L 213.436364 -76.361812 
L 215.127273 -56.806828 
L 216.818182 -72.501888 
L 218.509091 -44.02881 
L 220.2 -54.037112 
L 221.890909 -44.402034 
L 223.581818 -50.697738 
L 225.272727 -52.799579 
L 226.963636 -55.412148 
L 228.654545 -48.38964 
L 230.345455 -55.42197 
L 232.036364 -54.891599 
L 233.727273 -72.600105 
L 235.418182 -59.252429 
L 237.109091 -58.191687 
L 238.8 -58.142578 
L 240.490909 -56.482713 
L 242.181818 -42.722526 
L 243.872727 -68.042841 
L 245.563636 -44.018989 
L 247.254545 -62.189114 
L 248.945455 -60.804256 
L 250.636364 -83.639684 
L 252.327273 -77.618989 
L 254.018182 -96.388237 
L 255.709091 -79.887799 
L 257.4 -79.121707 
L 259.090909 -56.87558 
L 260.781818 -64.48739 
L 262.472727 -46.336907 
L 264.163636 -56.138954 
L 265.854545 -42.133224 
L 267.545455 -58.555089 
L 269.236364 -47.181573 
L 270.927273 -55.657691 
L 272.618182 -43.694873 
L 274.309091 -58.260438 
L 276 -45.452955 
L 277.690909 -56.050558 
L 279.381818 -43.439509 
L 281.072727 -56.296101 
L 282.763636 -45.54135 
L 284.454545 -61.049798 
L 286.145455 -46.336907 
L 287.836364 -57.739889 
L 289.527273 -45.786893 
L 291.218182 -58.90867 
L 292.909091 -48.703935 
L 294.6 -77.884174 
L 296.290909 -44.755615 
L 297.981818 -87.656755 
L 299.672727 -55.088033 
L 301.363636 -63.2695 
L 303.054545 -51.984379 
L 304.745455 -63.524864 
L 306.436364 -52.57368 
L 308.127273 -62.257866 
L 309.818182 -54.60677 
L 311.509091 -60.607822 
L 313.2 -59.900661 
L 314.890909 -72.875113 
L 316.581818 -50.137901 
L 318.272727 -80.565495 
L 319.963636 -52.131704 
L 321.654545 -84.612032 
L 323.345455 -83.777188 
L 325.036364 -69.466986 
L 326.727273 -62.935563 
L 328.418182 -69.751815 
L 330.109091 -57.916679 
L 331.8 -59.969412 
L 333.490909 -44.873476 
L 335.181818 -59.772979 
L 336.872727 -56.993441 
L 338.563636 -71.038457 
L 340.254545 -45.227056 
L 341.945455 -60.922116 
L 343.636364 -48.38964 
L 345.327273 -62.473943 
L 347.018182 -46.169939 
L 348.709091 -64.251669 
L 350.4 -53.437989 
L 352.090909 -67.68926 
L 353.781818 -44.66722 
L 355.472727 -72.914399 
L 357.163636 -54.803204 
L 358.854545 -74.348366 
L 360.545455 -46.00297 
L 362.236364 -68.84822 
L 363.927273 -60.332815 
L 365.618182 -60.087273 
L 367.309091 -46.091365 
L 369 -60.411388 
L 370.690909 -46.160117 
L 372.381818 -82.362865 
L 374.072727 -46.651201 
L 375.763636 -66.314224 
L 377.454545 -53.172803 
L 379.145455 -75.762689 
L 380.836364 -58.643484 
L 382.527273 -69.123227 
L 384.218182 -50.766489 
L 385.909091 -62.267688 
L 387.6 -45.54135 
L 389.290909 -63.947197 
L 390.981818 -46.307442 
L 392.672727 -65.832961 
L 394.363636 -54.174616 
L 396.054545 -68.750003 
L 397.745455 -54.184437 
L 399.436364 -72.158129 
L 401.127273 -48.713756 
L 402.818182 -66.549944 
L 404.509091 -47.446758 
L 406.2 -55.402327 
L 407.890909 -62.640912 
L 409.581818 -56.080023 
L 411.272727 -46.985139 
L 412.963636 -50.923636 
L 414.654545 -47.181573 
L 416.345455 -51.827232 
L 418.036364 -50.805776 
L 419.727273 -75.281426 
L 421.418182 -79.377071 
L 423.109091 -70.056288 
L 424.8 -53.929073 
L 426.490909 -66.569588 
L 428.181818 -75.99841 
L 429.872727 -85.407588 
L 431.563636 -64.271312 
L 433.254545 -83.895048 
L 434.945455 -56.846115 
L 436.636364 -84.150412 
L 438.327273 -71.185782 
L 440.018182 -75.654651 
L 441.709091 -45.610102 
L 443.4 -57.926501 
L 445.090909 -42.535913 
L 446.781818 -83.472716 
L 448.472727 -82.618229 
L 450.163636 -62.100719 
L 451.854545 -58.162222 
L 453.545455 -88.38356 
L 455.236364 -48.350354 
L 456.927273 -52.51475 
L 458.618182 -47.112821 
L 460.309091 -59.54708 
L 462 -58.957778 
L 463.690909 -57.749711 
L 465.381818 -46.160117 
L 467.072727 -57.258626 
L 468.763636 -45.757428 
L 470.454545 -66.441906 
L 472.145455 -58.437229 
L 473.836364 -56.895224 
L 475.527273 -76.05734 
L 477.218182 -83.934335 
L 478.909091 -77.078796 
L 480.6 -117.720947 
L 482.290909 -111.415422 
L 483.981818 -68.622321 
L 485.672727 -50.589699 
L 487.363636 -58.358655 
L 489.054545 -49.234306 
L 490.745455 -68.553569 
L 492.436364 -49.244127 
L 494.127273 -56.463069 
L 495.818182 -45.060088 
L 497.509091 -57.602385 
L 499.2 -42.201976 
L 500.890909 -59.458685 
L 502.581818 -49.499491 
L 504.272727 -88.049623 
L 505.963636 -56.905045 
L 507.654545 -57.828284 
L 509.345455 -52.897796 
L 511.036364 -55.638047 
L 512.727273 -44.146671 
L 514.418182 -73.808173 
L 516.109091 -61.560526 
L 517.8 -58.083648 
L 519.490909 -44.853832 
L 521.181818 -54.174616 
L 522.872727 -44.814545 
L 524.563636 -52.946904 
L 526.254545 -43.252897 
L 527.945455 -54.223724 
L 529.636364 -52.701362 
L 531.327273 -67.620509 
L 533.018182 -77.579702 
L 534.709091 -99.531178 
L 536.4 -56.266635 
L 538.090909 -68.425887 
L 539.781818 -52.554037 
L 541.472727 -81.203905 
L 543.163636 -51.856697 
L 544.854545 -58.417586 
L 546.545455 -52.750471 
L 548.236364 -66.559766 
L 549.927273 -67.875873 
L 551.618182 -65.567776 
L 553.309091 -49.833429 
L 555 -51.444186 
L 556.690909 -52.053131 
L 558.381818 -70.439334 
L 560.072727 -53.506741 
L 561.763636 -77.383268 
L 563.454545 -52.63261 
L 565.145455 -54.469266 
L 566.836364 -56.286279 
L 568.527273 -60.057808 
L 570.218182 -50.471839 
L 571.909091 -56.855937 
L 573.6 -55.834481 
L 575.290909 -55.019281 
L 576.981818 -45.698498 
L 578.672727 -70.753628 
L 580.363636 -91.025595 
L 582.054545 -103.273242 
L 583.745455 -74.210862 
L 585.436364 -75.733224 
L 587.127273 -50.697738 
L 588.818182 -81.98964 
L 590.509091 -52.730827 
L 592.2 -65.017761 
L 593.890909 -67.021386 
L 595.581818 -93.284583 
L 597.272727 -63.053423 
L 598.963636 -65.99993 
L 600.654545 -50.059328 
L 602.345455 -62.238223 
L 604.036364 -45.757428 
L 605.727273 -71.352751 
L 607.418182 -43.370757 
L 609.109091 -75.026063 
L 610.8 -45.826179 
L 612.490909 -71.794727 
L 614.181818 -43.675229 
L 615.872727 -76.194844 
L 617.563636 -61.81589 
L 619.254545 -74.240327 
L 620.945455 -61.108728 
L 622.636364 -54.999638 
L 622.636364 -54.999638 
L 622.636364 -54.999638 
L 620.945455 -116.581631 
L 619.254545 -123.712178 
L 617.563636 -116.80753 
L 615.872727 -107.535855 
L 614.181818 -70.233078 
L 612.490909 -102.350003 
L 610.8 -78.139538 
L 609.109091 -121.561228 
L 607.418182 -60.814078 
L 605.727273 -108.989465 
L 604.036364 -122.160351 
L 602.345455 -113.772628 
L 600.654545 -104.432201 
L 598.963636 -114.990517 
L 597.272727 -121.10943 
L 595.581818 -156.094288 
L 593.890909 -128.564092 
L 592.2 -129.418579 
L 590.509091 -89.316621 
L 588.818182 -119.636177 
L 587.127273 -87.705864 
L 585.436364 -112.436878 
L 583.745455 -155.789816 
L 582.054545 -178.458275 
L 580.363636 -185.63793 
L 578.672727 -133.307968 
L 576.981818 -86.92995 
L 575.290909 -79.809225 
L 573.6 -94.77748 
L 571.909091 -87.136206 
L 570.218182 -70.665232 
L 568.527273 -96.064122 
L 566.836364 -111.818112 
L 565.145455 -83.826296 
L 563.454545 -110.099316 
L 561.763636 -115.520889 
L 560.072727 -143.846641 
L 558.381818 -105.669734 
L 556.690909 -111.975259 
L 555 -61.845355 
L 553.309091 -80.41817 
L 551.618182 -125.175609 
L 549.927273 -126.540824 
L 548.236364 -110.727904 
L 546.545455 -90.9372 
L 544.854545 -83.934335 
L 543.163636 -102.782157 
L 541.472727 -151.006653 
L 539.781818 -102.919661 
L 538.090909 -110.904695 
L 536.4 -115.638749 
L 534.709091 -180.707442 
L 533.018182 -226.378299 
L 531.327273 -150.741467 
L 529.636364 -82.56912 
L 527.945455 -73.346554 
L 526.254545 -60.224776 
L 524.563636 -66.69727 
L 522.872727 -69.329483 
L 521.181818 -71.647401 
L 519.490909 -61.904285 
L 517.8 -83.72808 
L 516.109091 -109.991277 
L 514.418182 -96.309664 
L 512.727273 -72.403671 
L 511.036364 -103.990225 
L 509.345455 -83.580754 
L 507.654545 -84.729892 
L 505.963636 -112.594025 
L 504.272727 -162.940006 
L 502.581818 -109.686805 
L 500.890909 -133.190108 
L 499.2 -44.519895 
L 497.509091 -59.890839 
L 495.818182 -80.437814 
L 494.127273 -82.942344 
L 492.436364 -83.983443 
L 490.745455 -108.527846 
L 489.054545 -80.310132 
L 487.363636 -81.547664 
L 485.672727 -82.402151 
L 483.981818 -110.688617 
L 482.290909 -243.36 
L 480.6 -216.497679 
L 478.909091 -143.679673 
L 477.218182 -133.013318 
L 475.527273 -141.430506 
L 473.836364 -76.126092 
L 472.145455 -113.615481 
L 470.454545 -115.815539 
L 468.763636 -58.014896 
L 467.072727 -81.095867 
L 465.381818 -72.62957 
L 463.690909 -79.02349 
L 462 -105.640269 
L 460.309091 -100.366022 
L 458.618182 -68.553569 
L 456.927273 -67.954446 
L 455.236364 -90.328255 
L 453.545455 -169.314282 
L 451.854545 -107.859971 
L 450.163636 -99.668682 
L 448.472727 -172.339363 
L 446.781818 -128.662309 
L 445.090909 -48.674469 
L 443.4 -60.352458 
L 441.709091 -89.71931 
L 440.018182 -135.841964 
L 438.327273 -138.827758 
L 436.636364 -121.217469 
L 434.945455 -94.649798 
L 433.254545 -127.38549 
L 431.563636 -108.832318 
L 429.872727 -130.685577 
L 428.181818 -132.640094 
L 426.490909 -109.961812 
L 424.8 -77.658275 
L 423.109091 -106.828693 
L 421.418182 -138.77865 
L 419.727273 -137.482186 
L 418.036364 -76.351991 
L 416.345455 -70.616124 
L 414.654545 -64.222204 
L 412.963636 -58.722058 
L 411.272727 -61.796247 
L 409.581818 -76.735037 
L 407.890909 -119.636177 
L 406.2 -95.160526 
L 404.509091 -66.481193 
L 402.818182 -95.455177 
L 401.127273 -75.134101 
L 399.436364 -110.138603 
L 397.745455 -106.592973 
L 396.054545 -103.764326 
L 394.363636 -117.573622 
L 392.672727 -80.732464 
L 390.981818 -61.275697 
L 389.290909 -71.11703 
L 387.6 -56.472891 
L 385.909091 -97.841847 
L 384.218182 -83.187887 
L 382.527273 -101.161578 
L 380.836364 -106.946554 
L 379.145455 -118.428109 
L 377.454545 -87.813902 
L 375.763636 -82.903058 
L 374.072727 -128.033721 
L 372.381818 -148.236937 
L 370.690909 -114.126209 
L 369 -128.406945 
L 367.309091 -70.743806 
L 365.618182 -87.371926 
L 363.927273 -110.502005 
L 362.236364 -101.86874 
L 360.545455 -81.203905 
L 358.854545 -113.546729 
L 357.163636 -95.720362 
L 355.472727 -110.767191 
L 353.781818 -71.0581 
L 352.090909 -100.650851 
L 350.4 -92.341701 
L 348.709091 -94.188179 
L 347.018182 -75.782333 
L 345.327273 -89.13983 
L 343.636364 -82.657515 
L 341.945455 -81.341409 
L 340.254545 -69.437521 
L 338.563636 -105.984028 
L 336.872727 -112.996714 
L 335.181818 -82.824484 
L 333.490909 -64.949009 
L 331.8 -81.606595 
L 330.109091 -109.696627 
L 328.418182 -102.202678 
L 326.727273 -138.042023 
L 325.036364 -123.555031 
L 323.345455 -184.508436 
L 321.654545 -149.720012 
L 319.963636 -95.386425 
L 318.272727 -122.759474 
L 316.581818 -68.96608 
L 314.890909 -91.271137 
L 313.2 -126.521181 
L 311.509091 -86.006711 
L 309.818182 -78.8467 
L 308.127273 -85.437053 
L 306.436364 -73.03226 
L 304.745455 -88.471956 
L 303.054545 -71.421502 
L 301.363636 -90.397007 
L 299.672727 -83.187887 
L 297.981818 -112.574382 
L 296.290909 -56.924689 
L 294.6 -120.903175 
L 292.909091 -77.540415 
L 291.218182 -107.015305 
L 289.527273 -51.188822 
L 287.836364 -64.349886 
L 286.145455 -63.289144 
L 284.454545 -81.901245 
L 282.763636 -57.788997 
L 281.072727 -61.904285 
L 279.381818 -50.815598 
L 277.690909 -63.259678 
L 276 -104.589348 
L 274.309091 -118.683473 
L 272.618182 -52.072774 
L 270.927273 -64.369529 
L 269.236364 -64.556141 
L 267.545455 -70.743806 
L 265.854545 -44.402034 
L 264.163636 -66.785665 
L 262.472727 -80.005659 
L 260.781818 -102.065174 
L 259.090909 -107.879614 
L 257.4 -139.01437 
L 255.709091 -188.928196 
L 254.018182 -191.540766 
L 252.327273 -215.45658 
L 250.636364 -170.659854 
L 248.945455 -145.143104 
L 247.254545 -99.48207 
L 245.563636 -70.773271 
L 243.872727 -79.995837 
L 242.181818 -80.4771 
L 240.490909 -61.265875 
L 238.8 -119.960292 
L 237.109091 -93.893528 
L 235.418182 -107.368886 
L 233.727273 -110.5904 
L 232.036364 -92.33188 
L 230.345455 -94.168536 
L 228.654545 -77.226121 
L 226.963636 -74.466226 
L 225.272727 -94.590868 
L 223.581818 -57.622029 
L 221.890909 -55.078211 
L 220.2 -67.099959 
L 218.509091 -48.350354 
L 216.818182 -108.115335 
L 215.127273 -125.666694 
L 213.436364 -126.570289 
L 211.745455 -99.933867 
L 210.054545 -114.234247 
L 208.363636 -94.973914 
L 206.672727 -131.756141 
L 204.981818 -186.227232 
L 203.290909 -185.52007 
L 201.6 -88.933575 
L 199.909091 -102.133926 
L 198.218182 -97.321298 
L 196.527273 -104.815247 
L 194.836364 -83.158422 
L 193.145455 -102.114282 
L 191.454545 -93.854241 
L 189.763636 -105.325975 
L 188.072727 -100.552634 
L 186.381818 -116.080725 
L 184.690909 -105.463479 
L 183 -122.297854 
L 181.309091 -168.921415 
L 179.618182 -179.057398 
L 177.927273 -159.836352 
L 176.236364 -182.377129 
L 174.545455 -155.809459 
L 172.854545 -173.763508 
L 171.163636 -157.695224 
L 169.472727 -175.875171 
L 167.781818 -163.028401 
L 166.090909 -157.292534 
L 164.4 -163.961462 
L 162.709091 -187.071897 
L 161.018182 -153.521006 
L 159.327273 -53.565671 
L 157.636364 -71.067922 
L 155.945455 -99.550821 
L 154.254545 -57.877393 
L 152.563636 -84.60221 
L 150.872727 -77.717205 
L 149.181818 -123.368419 
L 147.490909 -138.935797 
L 145.8 -160.592622 
L 144.109091 -176.837697 
L 142.418182 -213.698498 
L 140.727273 -134.486571 
L 139.036364 -154.88622 
L 137.345455 -155.946963 
L 135.654545 -164.658802 
L 133.963636 -145.477042 
L 132.272727 -142.353745 
L 130.581818 -140.58584 
L 128.890909 -137.482186 
L 127.2 -106.082245 
L 125.509091 -86.625478 
L 123.818182 -65.322233 
L 122.127273 -68.592856 
L 120.436364 -54.312119 
L 118.745455 -45.855645 
L 117.054545 -45.757428 
L 115.363636 -61.953394 
z
" style="stroke: #008000; stroke-width: 0.5"/>
    </defs>
    <g clip-path="url(#p1993ea1b30)">
     <use xlink:href="#m330641b4b4" x="0" y="288" style="fill: #008000; stroke: #008000; stroke-width: 0.5"/>
    </g>
   </g>
   <g id="line2d_22">
    <path d="M 90 44.64 
L 648 44.64 
" clip-path="url(#p1993ea1b30)" style="fill: none; stroke: #000000; stroke-width: 1.5; stroke-linecap: square"/>
   </g>
   <g id="line2d_23">
    <path d="M 90 182.801707 
L 648 182.801707 
" clip-path="url(#p1993ea1b30)" style="fill: none; stroke: #000000; stroke-width: 1.5; stroke-linecap: square"/>
   </g>
   <g id="patch_3">
    <path d="M 90 256.32 
L 90 34.56 
" style="fill: none; stroke: #000000; stroke-width: 0.8; stroke-linejoin: miter; stroke-linecap: square"/>
   </g>
   <g id="patch_4">
    <path d="M 648 256.32 
L 648 34.56 
" style="fill: none; stroke: #000000; stroke-width: 0.8; stroke-linejoin: miter; stroke-linecap: square"/>
   </g>
   <g id="patch_5">
    <path d="M 90 256.32 
L 648 256.32 
" style="fill: none; stroke: #000000; stroke-width: 0.8; stroke-linejoin: miter; stroke-linecap: square"/>
   </g>
   <g id="patch_6">
    <path d="M 90 34.56 
L 648 34.56 
" style="fill: none; stroke: #000000; stroke-width: 0.8; stroke-linejoin: miter; stroke-linecap: square"/>
   </g>
   <g id="text_19">
    <!-- peak (20,526) -->
    <g transform="translate(118.700327 41.3136) scale(0.1 -0.1)">
     <defs>
      <path id="DejaVuSans-Bold-70" d="M 1656 506 
L 1656 -1331 
L 538 -1331 
L 538 3500 
L 1656 3500 
L 1656 2988 
Q 1888 3294 2169 3439 
Q 2450 3584 2816 3584 
Q 3463 3584 3878 3070 
Q 4294 2556 4294 1747 
Q 4294 938 3878 423 
Q 3463 -91 2816 -91 
Q 2450 -91 2169 54 
Q 1888 200 1656 506 
z
M 2400 2772 
Q 2041 2772 1848 2508 
Q 1656 2244 1656 1747 
Q 1656 1250 1848 986 
Q 2041 722 2400 722 
Q 2759 722 2948 984 
Q 3138 1247 3138 1747 
Q 3138 2247 2948 2509 
Q 2759 2772 2400 2772 
z
" transform="scale(0.015625)"/>
      <path id="DejaVuSans-Bold-65" d="M 4031 1759 
L 4031 1441 
L 1416 1441 
Q 1456 1047 1700 850 
Q 1944 653 2381 653 
Q 2734 653 3104 758 
Q 3475 863 3866 1075 
L 3866 213 
Q 3469 63 3072 -14 
Q 2675 -91 2278 -91 
Q 1328 -91 801 392 
Q 275 875 275 1747 
Q 275 2603 792 3093 
Q 1309 3584 2216 3584 
Q 3041 3584 3536 3087 
Q 4031 2591 4031 1759 
z
M 2881 2131 
Q 2881 2450 2695 2645 
Q 2509 2841 2209 2841 
Q 1884 2841 1681 2658 
Q 1478 2475 1428 2131 
L 2881 2131 
z
" transform="scale(0.015625)"/>
      <path id="DejaVuSans-Bold-61" d="M 2106 1575 
Q 1756 1575 1579 1456 
Q 1403 1338 1403 1106 
Q 1403 894 1545 773 
Q 1688 653 1941 653 
Q 2256 653 2472 879 
Q 2688 1106 2688 1447 
L 2688 1575 
L 2106 1575 
z
M 3816 1997 
L 3816 0 
L 2688 0 
L 2688 519 
Q 2463 200 2181 54 
Q 1900 -91 1497 -91 
Q 953 -91 614 226 
Q 275 544 275 1050 
Q 275 1666 698 1953 
Q 1122 2241 2028 2241 
L 2688 2241 
L 2688 2328 
Q 2688 2594 2478 2717 
Q 2269 2841 1825 2841 
Q 1466 2841 1156 2769 
Q 847 2697 581 2553 
L 581 3406 
Q 941 3494 1303 3539 
Q 1666 3584 2028 3584 
Q 2975 3584 3395 3211 
Q 3816 2838 3816 1997 
z
" transform="scale(0.015625)"/>
      <path id="DejaVuSans-Bold-6b" d="M 538 4863 
L 1656 4863 
L 1656 2216 
L 2944 3500 
L 4244 3500 
L 2534 1894 
L 4378 0 
L 3022 0 
L 1656 1459 
L 1656 0 
L 538 0 
L 538 4863 
z
" transform="scale(0.015625)"/>
      <path id="DejaVuSans-Bold-20" transform="scale(0.015625)"/>
      <path id="DejaVuSans-Bold-28" d="M 2413 -844 
L 1484 -844 
Q 1006 -72 778 623 
Q 550 1319 550 2003 
Q 550 2688 779 3389 
Q 1009 4091 1484 4856 
L 2413 4856 
Q 2013 4116 1813 3408 
Q 1613 2700 1613 2009 
Q 1613 1319 1811 609 
Q 2009 -100 2413 -844 
z
" transform="scale(0.015625)"/>
      <path id="DejaVuSans-Bold-32" d="M 1844 884 
L 3897 884 
L 3897 0 
L 506 0 
L 506 884 
L 2209 2388 
Q 2438 2594 2547 2791 
Q 2656 2988 2656 3200 
Q 2656 3528 2436 3728 
Q 2216 3928 1850 3928 
Q 1569 3928 1234 3808 
Q 900 3688 519 3450 
L 519 4475 
Q 925 4609 1322 4679 
Q 1719 4750 2100 4750 
Q 2938 4750 3402 4381 
Q 3866 4013 3866 3353 
Q 3866 2972 3669 2642 
Q 3472 2313 2841 1759 
L 1844 884 
z
" transform="scale(0.015625)"/>
      <path id="DejaVuSans-Bold-30" d="M 2944 2338 
Q 2944 3213 2780 3570 
Q 2616 3928 2228 3928 
Q 1841 3928 1675 3570 
Q 1509 3213 1509 2338 
Q 1509 1453 1675 1090 
Q 1841 728 2228 728 
Q 2613 728 2778 1090 
Q 2944 1453 2944 2338 
z
M 4147 2328 
Q 4147 1169 3647 539 
Q 3147 -91 2228 -91 
Q 1306 -91 806 539 
Q 306 1169 306 2328 
Q 306 3491 806 4120 
Q 1306 4750 2228 4750 
Q 3147 4750 3647 4120 
Q 4147 3491 4147 2328 
z
" transform="scale(0.015625)"/>
      <path id="DejaVuSans-Bold-2c" d="M 653 1209 
L 1778 1209 
L 1778 256 
L 1006 -909 
L 341 -909 
L 653 256 
L 653 1209 
z
" transform="scale(0.015625)"/>
      <path id="DejaVuSans-Bold-35" d="M 678 4666 
L 3669 4666 
L 3669 3781 
L 1638 3781 
L 1638 3059 
Q 1775 3097 1914 3117 
Q 2053 3138 2203 3138 
Q 3056 3138 3531 2711 
Q 4006 2284 4006 1522 
Q 4006 766 3489 337 
Q 2972 -91 2053 -91 
Q 1656 -91 1267 -14 
Q 878 63 494 219 
L 494 1166 
Q 875 947 1217 837 
Q 1559 728 1863 728 
Q 2300 728 2551 942 
Q 2803 1156 2803 1522 
Q 2803 1891 2551 2103 
Q 2300 2316 1863 2316 
Q 1603 2316 1309 2248 
Q 1016 2181 678 2041 
L 678 4666 
z
" transform="scale(0.015625)"/>
      <path id="DejaVuSans-Bold-36" d="M 2316 2303 
Q 2000 2303 1842 2098 
Q 1684 1894 1684 1484 
Q 1684 1075 1842 870 
Q 2000 666 2316 666 
Q 2634 666 2792 870 
Q 2950 1075 2950 1484 
Q 2950 1894 2792 2098 
Q 2634 2303 2316 2303 
z
M 3803 4544 
L 3803 3681 
Q 3506 3822 3243 3889 
Q 2981 3956 2731 3956 
Q 2194 3956 1894 3657 
Q 1594 3359 1544 2772 
Q 1750 2925 1990 3001 
Q 2231 3078 2516 3078 
Q 3231 3078 3670 2659 
Q 4109 2241 4109 1563 
Q 4109 813 3618 361 
Q 3128 -91 2303 -91 
Q 1394 -91 895 523 
Q 397 1138 397 2266 
Q 397 3422 980 4083 
Q 1563 4744 2578 4744 
Q 2900 4744 3203 4694 
Q 3506 4644 3803 4544 
z
" transform="scale(0.015625)"/>
      <path id="DejaVuSans-Bold-29" d="M 513 -844 
Q 913 -100 1113 609 
Q 1313 1319 1313 2009 
Q 1313 2700 1113 3408 
Q 913 4116 513 4856 
L 1441 4856 
Q 1916 4091 2145 3389 
Q 2375 2688 2375 2003 
Q 2375 1319 2147 623 
Q 1919 -72 1441 -844 
L 513 -844 
z
" transform="scale(0.015625)"/>
     </defs>
     <use xlink:href="#DejaVuSans-Bold-70"/>
     <use xlink:href="#DejaVuSans-Bold-65" x="71.582031"/>
     <use xlink:href="#DejaVuSans-Bold-61" x="139.404297"/>
     <use xlink:href="#DejaVuSans-Bold-6b" x="206.884766"/>
     <use xlink:href="#DejaVuSans-Bold-20" x="273.388672"/>
     <use xlink:href="#DejaVuSans-Bold-28" x="308.203125"/>
     <use xlink:href="#DejaVuSans-Bold-32" x="353.90625"/>
     <use xlink:href="#DejaVuSans-Bold-30" x="423.486328"/>
     <use xlink:href="#DejaVuSans-Bold-2c" x="493.066406"/>
     <use xlink:href="#DejaVuSans-Bold-35" x="531.054688"/>
     <use xlink:href="#DejaVuSans-Bold-32" x="600.634766"/>
     <use xlink:href="#DejaVuSans-Bold-36" x="670.214844"/>
     <use xlink:href="#DejaVuSans-Bold-29" x="739.794922"/>
    </g>
   </g>
   <g id="text_20">
    <!-- mean (6,459) -->
    <g transform="translate(567.728153 179.475307) scale(0.1 -0.1)">
     <defs>
      <path id="DejaVuSans-Bold-6d" d="M 3781 2919 
Q 3994 3244 4286 3414 
Q 4578 3584 4928 3584 
Q 5531 3584 5847 3212 
Q 6163 2841 6163 2131 
L 6163 0 
L 5038 0 
L 5038 1825 
Q 5041 1866 5042 1909 
Q 5044 1953 5044 2034 
Q 5044 2406 4934 2573 
Q 4825 2741 4581 2741 
Q 4263 2741 4089 2478 
Q 3916 2216 3909 1719 
L 3909 0 
L 2784 0 
L 2784 1825 
Q 2784 2406 2684 2573 
Q 2584 2741 2328 2741 
Q 2006 2741 1831 2477 
Q 1656 2213 1656 1722 
L 1656 0 
L 531 0 
L 531 3500 
L 1656 3500 
L 1656 2988 
Q 1863 3284 2130 3434 
Q 2397 3584 2719 3584 
Q 3081 3584 3359 3409 
Q 3638 3234 3781 2919 
z
" transform="scale(0.015625)"/>
      <path id="DejaVuSans-Bold-6e" d="M 4056 2131 
L 4056 0 
L 2931 0 
L 2931 347 
L 2931 1631 
Q 2931 2084 2911 2256 
Q 2891 2428 2841 2509 
Q 2775 2619 2662 2680 
Q 2550 2741 2406 2741 
Q 2056 2741 1856 2470 
Q 1656 2200 1656 1722 
L 1656 0 
L 538 0 
L 538 3500 
L 1656 3500 
L 1656 2988 
Q 1909 3294 2193 3439 
Q 2478 3584 2822 3584 
Q 3428 3584 3742 3212 
Q 4056 2841 4056 2131 
z
" transform="scale(0.015625)"/>
      <path id="DejaVuSans-Bold-34" d="M 2356 3675 
L 1038 1722 
L 2356 1722 
L 2356 3675 
z
M 2156 4666 
L 3494 4666 
L 3494 1722 
L 4159 1722 
L 4159 850 
L 3494 850 
L 3494 0 
L 2356 0 
L 2356 850 
L 288 850 
L 288 1881 
L 2156 4666 
z
" transform="scale(0.015625)"/>
      <path id="DejaVuSans-Bold-39" d="M 641 103 
L 641 966 
Q 928 831 1190 764 
Q 1453 697 1709 697 
Q 2247 697 2547 995 
Q 2847 1294 2900 1881 
Q 2688 1725 2447 1647 
Q 2206 1569 1925 1569 
Q 1209 1569 770 1986 
Q 331 2403 331 3084 
Q 331 3838 820 4291 
Q 1309 4744 2131 4744 
Q 3044 4744 3544 4128 
Q 4044 3513 4044 2388 
Q 4044 1231 3459 570 
Q 2875 -91 1856 -91 
Q 1528 -91 1228 -42 
Q 928 6 641 103 
z
M 2125 2350 
Q 2441 2350 2600 2554 
Q 2759 2759 2759 3169 
Q 2759 3575 2600 3781 
Q 2441 3988 2125 3988 
Q 1809 3988 1650 3781 
Q 1491 3575 1491 3169 
Q 1491 2759 1650 2554 
Q 1809 2350 2125 2350 
z
" transform="scale(0.015625)"/>
     </defs>
     <use xlink:href="#DejaVuSans-Bold-6d"/>
     <use xlink:href="#DejaVuSans-Bold-65" x="104.199219"/>
     <use xlink:href="#DejaVuSans-Bold-61" x="172.021484"/>
     <use xlink:href="#DejaVuSans-Bold-6e" x="239.501953"/>
     <use xlink:href="#DejaVuSans-Bold-20" x="310.693359"/>
     <use xlink:href="#DejaVuSans-Bold-28" x="345.507812"/>
     <use xlink:href="#DejaVuSans-Bold-36" x="391.210938"/>
     <use xlink:href="#DejaVuSans-Bold-2c" x="460.791016"/>
     <use xlink:href="#DejaVuSans-Bold-34" x="498.779297"/>
     <use xlink:href="#DejaVuSans-Bold-35" x="568.359375"/>
     <use xlink:href="#DejaVuSans-Bold-39" x="637.939453"/>
     <use xlink:href="#DejaVuSans-Bold-29" x="707.519531"/>
    </g>
   </g>
   <g id="text_21">
    <!-- Stream Bitrate over Time -->
    <g transform="translate(293.189062 28.56) scale(0.12 -0.12)">
     <defs>
      <path id="DejaVuSans-53" d="M 3425 4513 
L 3425 3897 
Q 3066 4069 2747 4153 
Q 2428 4238 2131 4238 
Q 1616 4238 1336 4038 
Q 1056 3838 1056 3469 
Q 1056 3159 1242 3001 
Q 1428 2844 1947 2747 
L 2328 2669 
Q 3034 2534 3370 2195 
Q 3706 1856 3706 1288 
Q 3706 609 3251 259 
Q 2797 -91 1919 -91 
Q 1588 -91 1214 -16 
Q 841 59 441 206 
L 441 856 
Q 825 641 1194 531 
Q 1563 422 1919 422 
Q 2459 422 2753 634 
Q 3047 847 3047 1241 
Q 3047 1584 2836 1778 
Q 2625 1972 2144 2069 
L 1759 2144 
Q 1053 2284 737 2584 
Q 422 2884 422 3419 
Q 422 4038 858 4394 
Q 1294 4750 2059 4750 
Q 2388 4750 2728 4690 
Q 3069 4631 3425 4513 
z
" transform="scale(0.015625)"/>
      <path id="DejaVuSans-6f" d="M 1959 3097 
Q 1497 3097 1228 2736 
Q 959 2375 959 1747 
Q 959 1119 1226 758 
Q 1494 397 1959 397 
Q 2419 397 2687 759 
Q 2956 1122 2956 1747 
Q 2956 2369 2687 2733 
Q 2419 3097 1959 3097 
z
M 1959 3584 
Q 2709 3584 3137 3096 
Q 3566 2609 3566 1747 
Q 3566 888 3137 398 
Q 2709 -91 1959 -91 
Q 1206 -91 779 398 
Q 353 888 353 1747 
Q 353 2609 779 3096 
Q 1206 3584 1959 3584 
z
" transform="scale(0.015625)"/>
      <path id="DejaVuSans-76" d="M 191 3500 
L 800 3500 
L 1894 563 
L 2988 3500 
L 3597 3500 
L 2284 0 
L 1503 0 
L 191 3500 
z
" transform="scale(0.015625)"/>
     </defs>
     <use xlink:href="#DejaVuSans-53"/>
     <use xlink:href="#DejaVuSans-74" x="63.476562"/>
     <use xlink:href="#DejaVuSans-72" x="102.685547"/>
     <use xlink:href="#DejaVuSans-65" x="141.548828"/>
     <use xlink:href="#DejaVuSans-61" x="203.072266"/>
     <use xlink:href="#DejaVuSans-6d" x="264.351562"/>
     <use xlink:href="#DejaVuSans-20" x="361.763672"/>
     <use xlink:href="#DejaVuSans-42" x="393.550781"/>
     <use xlink:href="#DejaVuSans-69" x="462.154297"/>
     <use xlink:href="#DejaVuSans-74" x="489.9375"/>
     <use xlink:href="#DejaVuSans-72" x="529.146484"/>
     <use xlink:href="#DejaVuSans-61" x="570.259766"/>
     <use xlink:href="#DejaVuSans-74" x="631.539062"/>
     <use xlink:href="#DejaVuSans-65" x="670.748047"/>
     <use xlink:href="#DejaVuSans-20" x="732.271484"/>
     <use xlink:href="#DejaVuSans-6f" x="764.058594"/>
     <use xlink:href="#DejaVuSans-76" x="825.240234"/>
     <use xlink:href="#DejaVuSans-65" x="884.419922"/>
     <use xlink:href="#DejaVuSans-72" x="945.943359"/>
     <use xlink:href="#DejaVuSans-20" x="987.056641"/>
     <use xlink:href="#DejaVuSans-54" x="1018.84375"/>
     <use xlink:href="#DejaVuSans-69" x="1076.802734"/>
     <use xlink:href="#DejaVuSans-6d" x="1104.585938"/>
     <use xlink:href="#DejaVuSans-65" x="1201.998047"/>
    </g>
   </g>
   <g id="legend_1">
    <g id="patch_7">
     <path d="M 602.139063 86.594375 
L 641 86.594375 
Q 643 86.594375 643 84.594375 
L 643 41.56 
Q 643 39.56 641 39.56 
L 602.139063 39.56 
Q 600.139063 39.56 600.139063 41.56 
L 600.139063 84.594375 
Q 600.139063 86.594375 602.139063 86.594375 
z
" style="fill: #ffffff; opacity: 0.8; stroke: #cccccc; stroke-linejoin: miter"/>
    </g>
    <g id="patch_8">
     <path d="M 604.139063 51.158438 
L 624.139063 51.158438 
L 624.139063 44.158438 
L 604.139063 44.158438 
z
" style="fill: #ff0000; stroke: #ff0000; stroke-width: 0.5; stroke-linejoin: miter"/>
    </g>
    <g id="text_22">
     <!-- I -->
     <g transform="translate(632.139063 51.158438) scale(0.1 -0.1)">
      <defs>
       <path id="DejaVuSans-49" d="M 628 4666 
L 1259 4666 
L 1259 0 
L 628 0 
L 628 4666 
z
" transform="scale(0.015625)"/>
      </defs>
      <use xlink:href="#DejaVuSans-49"/>
     </g>
    </g>
    <g id="patch_9">
     <path d="M 604.139063 65.836563 
L 624.139063 65.836563 
L 624.139063 58.836563 
L 604.139063 58.836563 
z
" style="fill: #0000ff; stroke: #0000ff; stroke-width: 0.5; stroke-linejoin: miter"/>
    </g>
    <g id="text_23">
     <!-- B -->
     <g transform="translate(632.139063 65.836563) scale(0.1 -0.1)">
      <use xlink:href="#DejaVuSans-42"/>
     </g>
    </g>
    <g id="patch_10">
     <path d="M 604.139063 80.514688 
L 624.139063 80.514688 
L 624.139063 73.514688 
L 604.139063 73.514688 
z
" style="fill: #008000; stroke: #008000; stroke-width: 0.5; stroke-linejoin: miter"/>
    </g>
    <g id="text_24">
     <!-- P -->
     <g transform="translate(632.139063 80.514688) scale(0.1 -0.1)">
      <defs>
       <path id="DejaVuSans-50" d="M 1259 4147 
L 1259 2394 
L 2053 2394 
Q 2494 2394 2734 2622 
Q 2975 2850 2975 3272 
Q 2975 3691 2734 3919 
Q 2494 4147 2053 4147 
L 1259 4147 
z
M 628 4666 
L 2053 4666 
Q 2838 4666 3239 4311 
Q 3641 3956 3641 3272 
Q 3641 2581 3239 2228 
Q 2838 1875 2053 1875 
L 1259 1875 
L 1259 0 
L 628 0 
L 628 4666 
z
" transform="scale(0.015625)"/>
      </defs>
      <use xlink:href="#DejaVuSans-50"/>
     </g>
    </g>
   </g>
  </g>
 </g>
 <defs>
  <clipPath id="p1993ea1b30">
   <rect x="90" y="34.56" width="558" height="221.76"/>
  </clipPath>
 </defs>
</svg>
