<?xml version="1.0" encoding="utf-8" standalone="no"?>
<!DOCTYPE svg PUBLIC "-//W3C//DTD SVG 1.1//EN"
  "http://www.w3.org/Graphics/SVG/1.1/DTD/svg11.dtd">
<svg xmlns:xlink="http://www.w3.org/1999/xlink" width="720pt" height="288pt" viewBox="0 0 720 288" xmlns="http://www.w3.org/2000/svg" version="1.1">
 <metadata>
  <rdf:RDF xmlns:dc="http://purl.org/dc/elements/1.1/" xmlns:cc="http://creativecommons.org/ns#" xmlns:rdf="http://www.w3.org/1999/02/22-rdf-syntax-ns#">
   <cc:Work>
    <dc:type rdf:resource="http://purl.org/dc/dcmitype/StillImage"/>
    <dc:date>2023-05-07T02:06:04.338778</dc:date>
    <dc:format>image/svg+xml</dc:format>
    <dc:creator>
     <cc:Agent>
      <dc:title>Matplotlib v3.7.1, https://matplotlib.org/</dc:title>
     </cc:Agent>
    </dc:creator>
   </cc:Work>
  </rdf:RDF>
 </metadata>
 <defs>
  <style type="text/css">*{stroke-linejoin: round; stroke-linecap: butt}</style>
 </defs>
 <g id="figure_1">
  <g id="patch_1">
   <path d="M 0 288 
L 720 288 
L 720 0 
L 0 0 
z
" style="fill: #ffffff"/>
  </g>
  <g id="axes_1">
   <g id="patch_2">
    <path d="M 90 256.32 
L 648 256.32 
L 648 34.56 
L 90 34.56 
z
" style="fill: #ffffff"/>
   </g>
   <g id="matplotlib.axis_1">
    <g id="xtick_1">
     <g id="line2d_1">
      <defs>
       <path id="m1bf394dab1" d="M 0 0 
L 0 3.5 
" style="stroke: #000000; stroke-width: 0.8"/>
      </defs>
      <g>
       <use xlink:href="#m1bf394dab1" x="115.363636" y="256.32" style="stroke: #000000; stroke-width: 0.8"/>
      </g>
     </g>
     <g id="text_1">
      <!-- 0:00:00 -->
      <g transform="translate(96.088636 270.918437) scale(0.1 -0.1)">
       <defs>
        <path id="DejaVuSans-30" d="M 2034 4250 
Q 1547 4250 1301 3770 
Q 1056 3291 1056 2328 
Q 1056 1369 1301 889 
Q 1547 409 2034 409 
Q 2525 409 2770 889 
Q 3016 1369 3016 2328 
Q 3016 3291 2770 3770 
Q 2525 4250 2034 4250 
z
M 2034 4750 
Q 2819 4750 3233 4129 
Q 3647 3509 3647 2328 
Q 3647 1150 3233 529 
Q 2819 -91 2034 -91 
Q 1250 -91 836 529 
Q 422 1150 422 2328 
Q 422 3509 836 4129 
Q 1250 4750 2034 4750 
z
" transform="scale(0.015625)"/>
        <path id="DejaVuSans-3a" d="M 750 794 
L 1409 794 
L 1409 0 
L 750 0 
L 750 794 
z
M 750 3309 
L 1409 3309 
L 1409 2516 
L 750 2516 
L 750 3309 
z
" transform="scale(0.015625)"/>
       </defs>
       <use xlink:href="#DejaVuSans-30"/>
       <use xlink:href="#DejaVuSans-3a" x="63.623047"/>
       <use xlink:href="#DejaVuSans-30" x="97.314453"/>
       <use xlink:href="#DejaVuSans-30" x="160.9375"/>
       <use xlink:href="#DejaVuSans-3a" x="224.560547"/>
       <use xlink:href="#DejaVuSans-30" x="258.251953"/>
       <use xlink:href="#DejaVuSans-30" x="321.875"/>
      </g>
     </g>
    </g>
    <g id="xtick_2">
     <g id="line2d_2">
      <g>
       <use xlink:href="#m1bf394dab1" x="166.090909" y="256.32" style="stroke: #000000; stroke-width: 0.8"/>
      </g>
     </g>
     <g id="text_2">
      <!-- 0:00:30 -->
      <g transform="translate(146.815909 270.918437) scale(0.1 -0.1)">
       <defs>
        <path id="DejaVuSans-33" d="M 2597 2516 
Q 3050 2419 3304 2112 
Q 3559 1806 3559 1356 
Q 3559 666 3084 287 
Q 2609 -91 1734 -91 
Q 1441 -91 1130 -33 
Q 819 25 488 141 
L 488 750 
Q 750 597 1062 519 
Q 1375 441 1716 441 
Q 2309 441 2620 675 
Q 2931 909 2931 1356 
Q 2931 1769 2642 2001 
Q 2353 2234 1838 2234 
L 1294 2234 
L 1294 2753 
L 1863 2753 
Q 2328 2753 2575 2939 
Q 2822 3125 2822 3475 
Q 2822 3834 2567 4026 
Q 2313 4219 1838 4219 
Q 1578 4219 1281 4162 
Q 984 4106 628 3988 
L 628 4550 
Q 988 4650 1302 4700 
Q 1616 4750 1894 4750 
Q 2613 4750 3031 4423 
Q 3450 4097 3450 3541 
Q 3450 3153 3228 2886 
Q 3006 2619 2597 2516 
z
" transform="scale(0.015625)"/>
       </defs>
       <use xlink:href="#DejaVuSans-30"/>
       <use xlink:href="#DejaVuSans-3a" x="63.623047"/>
       <use xlink:href="#DejaVuSans-30" x="97.314453"/>
       <use xlink:href="#DejaVuSans-30" x="160.9375"/>
       <use xlink:href="#DejaVuSans-3a" x="224.560547"/>
       <use xlink:href="#DejaVuSans-33" x="258.251953"/>
       <use xlink:href="#DejaVuSans-30" x="321.875"/>
      </g>
     </g>
    </g>
    <g id="xtick_3">
     <g id="line2d_3">
      <g>
       <use xlink:href="#m1bf394dab1" x="216.818182" y="256.32" style="stroke: #000000; stroke-width: 0.8"/>
      </g>
     </g>
     <g id="text_3">
      <!-- 0:01:00 -->
      <g transform="translate(197.543182 270.918437) scale(0.1 -0.1)">
       <defs>
        <path id="DejaVuSans-31" d="M 794 531 
L 1825 531 
L 1825 4091 
L 703 3866 
L 703 4441 
L 1819 4666 
L 2450 4666 
L 2450 531 
L 3481 531 
L 3481 0 
L 794 0 
L 794 531 
z
" transform="scale(0.015625)"/>
       </defs>
       <use xlink:href="#DejaVuSans-30"/>
       <use xlink:href="#DejaVuSans-3a" x="63.623047"/>
       <use xlink:href="#DejaVuSans-30" x="97.314453"/>
       <use xlink:href="#DejaVuSans-31" x="160.9375"/>
       <use xlink:href="#DejaVuSans-3a" x="224.560547"/>
       <use xlink:href="#DejaVuSans-30" x="258.251953"/>
       <use xlink:href="#DejaVuSans-30" x="321.875"/>
      </g>
     </g>
    </g>
    <g id="xtick_4">
     <g id="line2d_4">
      <g>
       <use xlink:href="#m1bf394dab1" x="267.545455" y="256.32" style="stroke: #000000; stroke-width: 0.8"/>
      </g>
     </g>
     <g id="text_4">
      <!-- 0:01:30 -->
      <g transform="translate(248.270455 270.918437) scale(0.1 -0.1)">
       <use xlink:href="#DejaVuSans-30"/>
       <use xlink:href="#DejaVuSans-3a" x="63.623047"/>
       <use xlink:href="#DejaVuSans-30" x="97.314453"/>
       <use xlink:href="#DejaVuSans-31" x="160.9375"/>
       <use xlink:href="#DejaVuSans-3a" x="224.560547"/>
       <use xlink:href="#DejaVuSans-33" x="258.251953"/>
       <use xlink:href="#DejaVuSans-30" x="321.875"/>
      </g>
     </g>
    </g>
    <g id="xtick_5">
     <g id="line2d_5">
      <g>
       <use xlink:href="#m1bf394dab1" x="318.272727" y="256.32" style="stroke: #000000; stroke-width: 0.8"/>
      </g>
     </g>
     <g id="text_5">
      <!-- 0:02:00 -->
      <g transform="translate(298.997727 270.918437) scale(0.1 -0.1)">
       <defs>
        <path id="DejaVuSans-32" d="M 1228 531 
L 3431 531 
L 3431 0 
L 469 0 
L 469 531 
Q 828 903 1448 1529 
Q 2069 2156 2228 2338 
Q 2531 2678 2651 2914 
Q 2772 3150 2772 3378 
Q 2772 3750 2511 3984 
Q 2250 4219 1831 4219 
Q 1534 4219 1204 4116 
Q 875 4013 500 3803 
L 500 4441 
Q 881 4594 1212 4672 
Q 1544 4750 1819 4750 
Q 2544 4750 2975 4387 
Q 3406 4025 3406 3419 
Q 3406 3131 3298 2873 
Q 3191 2616 2906 2266 
Q 2828 2175 2409 1742 
Q 1991 1309 1228 531 
z
" transform="scale(0.015625)"/>
       </defs>
       <use xlink:href="#DejaVuSans-30"/>
       <use xlink:href="#DejaVuSans-3a" x="63.623047"/>
       <use xlink:href="#DejaVuSans-30" x="97.314453"/>
       <use xlink:href="#DejaVuSans-32" x="160.9375"/>
       <use xlink:href="#DejaVuSans-3a" x="224.560547"/>
       <use xlink:href="#DejaVuSans-30" x="258.251953"/>
       <use xlink:href="#DejaVuSans-30" x="321.875"/>
      </g>
     </g>
    </g>
    <g id="xtick_6">
     <g id="line2d_6">
      <g>
       <use xlink:href="#m1bf394dab1" x="369" y="256.32" style="stroke: #000000; stroke-width: 0.8"/>
      </g>
     </g>
     <g id="text_6">
      <!-- 0:02:30 -->
      <g transform="translate(349.725 270.918437) scale(0.1 -0.1)">
       <use xlink:href="#DejaVuSans-30"/>
       <use xlink:href="#DejaVuSans-3a" x="63.623047"/>
       <use xlink:href="#DejaVuSans-30" x="97.314453"/>
       <use xlink:href="#DejaVuSans-32" x="160.9375"/>
       <use xlink:href="#DejaVuSans-3a" x="224.560547"/>
       <use xlink:href="#DejaVuSans-33" x="258.251953"/>
       <use xlink:href="#DejaVuSans-30" x="321.875"/>
      </g>
     </g>
    </g>
    <g id="xtick_7">
     <g id="line2d_7">
      <g>
       <use xlink:href="#m1bf394dab1" x="419.727273" y="256.32" style="stroke: #000000; stroke-width: 0.8"/>
      </g>
     </g>
     <g id="text_7">
      <!-- 0:03:00 -->
      <g transform="translate(400.452273 270.918437) scale(0.1 -0.1)">
       <use xlink:href="#DejaVuSans-30"/>
       <use xlink:href="#DejaVuSans-3a" x="63.623047"/>
       <use xlink:href="#DejaVuSans-30" x="97.314453"/>
       <use xlink:href="#DejaVuSans-33" x="160.9375"/>
       <use xlink:href="#DejaVuSans-3a" x="224.560547"/>
       <use xlink:href="#DejaVuSans-30" x="258.251953"/>
       <use xlink:href="#DejaVuSans-30" x="321.875"/>
      </g>
     </g>
    </g>
    <g id="xtick_8">
     <g id="line2d_8">
      <g>
       <use xlink:href="#m1bf394dab1" x="470.454545" y="256.32" style="stroke: #000000; stroke-width: 0.8"/>
      </g>
     </g>
     <g id="text_8">
      <!-- 0:03:30 -->
      <g transform="translate(451.179545 270.918437) scale(0.1 -0.1)">
       <use xlink:href="#DejaVuSans-30"/>
       <use xlink:href="#DejaVuSans-3a" x="63.623047"/>
       <use xlink:href="#DejaVuSans-30" x="97.314453"/>
       <use xlink:href="#DejaVuSans-33" x="160.9375"/>
       <use xlink:href="#DejaVuSans-3a" x="224.560547"/>
       <use xlink:href="#DejaVuSans-33" x="258.251953"/>
       <use xlink:href="#DejaVuSans-30" x="321.875"/>
      </g>
     </g>
    </g>
    <g id="xtick_9">
     <g id="line2d_9">
      <g>
       <use xlink:href="#m1bf394dab1" x="521.181818" y="256.32" style="stroke: #000000; stroke-width: 0.8"/>
      </g>
     </g>
     <g id="text_9">
      <!-- 0:04:00 -->
      <g transform="translate(501.906818 270.918437) scale(0.1 -0.1)">
       <defs>
        <path id="DejaVuSans-34" d="M 2419 4116 
L 825 1625 
L 2419 1625 
L 2419 4116 
z
M 2253 4666 
L 3047 4666 
L 3047 1625 
L 3713 1625 
L 3713 1100 
L 3047 1100 
L 3047 0 
L 2419 0 
L 2419 1100 
L 313 1100 
L 313 1709 
L 2253 4666 
z
" transform="scale(0.015625)"/>
       </defs>
       <use xlink:href="#DejaVuSans-30"/>
       <use xlink:href="#DejaVuSans-3a" x="63.623047"/>
       <use xlink:href="#DejaVuSans-30" x="97.314453"/>
       <use xlink:href="#DejaVuSans-34" x="160.9375"/>
       <use xlink:href="#DejaVuSans-3a" x="224.560547"/>
       <use xlink:href="#DejaVuSans-30" x="258.251953"/>
       <use xlink:href="#DejaVuSans-30" x="321.875"/>
      </g>
     </g>
    </g>
    <g id="xtick_10">
     <g id="line2d_10">
      <g>
       <use xlink:href="#m1bf394dab1" x="571.909091" y="256.32" style="stroke: #000000; stroke-width: 0.8"/>
      </g>
     </g>
     <g id="text_10">
      <!-- 0:04:30 -->
      <g transform="translate(552.634091 270.918437) scale(0.1 -0.1)">
       <use xlink:href="#DejaVuSans-30"/>
       <use xlink:href="#DejaVuSans-3a" x="63.623047"/>
       <use xlink:href="#DejaVuSans-30" x="97.314453"/>
       <use xlink:href="#DejaVuSans-34" x="160.9375"/>
       <use xlink:href="#DejaVuSans-3a" x="224.560547"/>
       <use xlink:href="#DejaVuSans-33" x="258.251953"/>
       <use xlink:href="#DejaVuSans-30" x="321.875"/>
      </g>
     </g>
    </g>
    <g id="xtick_11">
     <g id="line2d_11">
      <g>
       <use xlink:href="#m1bf394dab1" x="622.636364" y="256.32" style="stroke: #000000; stroke-width: 0.8"/>
      </g>
     </g>
     <g id="text_11">
      <!-- 0:05:00 -->
      <g transform="translate(603.361364 270.918437) scale(0.1 -0.1)">
       <defs>
        <path id="DejaVuSans-35" d="M 691 4666 
L 3169 4666 
L 3169 4134 
L 1269 4134 
L 1269 2991 
Q 1406 3038 1543 3061 
Q 1681 3084 1819 3084 
Q 2600 3084 3056 2656 
Q 3513 2228 3513 1497 
Q 3513 744 3044 326 
Q 2575 -91 1722 -91 
Q 1428 -91 1123 -41 
Q 819 9 494 109 
L 494 744 
Q 775 591 1075 516 
Q 1375 441 1709 441 
Q 2250 441 2565 725 
Q 2881 1009 2881 1497 
Q 2881 1984 2565 2268 
Q 2250 2553 1709 2553 
Q 1456 2553 1204 2497 
Q 953 2441 691 2322 
L 691 4666 
z
" transform="scale(0.015625)"/>
       </defs>
       <use xlink:href="#DejaVuSans-30"/>
       <use xlink:href="#DejaVuSans-3a" x="63.623047"/>
       <use xlink:href="#DejaVuSans-30" x="97.314453"/>
       <use xlink:href="#DejaVuSans-35" x="160.9375"/>
       <use xlink:href="#DejaVuSans-3a" x="224.560547"/>
       <use xlink:href="#DejaVuSans-30" x="258.251953"/>
       <use xlink:href="#DejaVuSans-30" x="321.875"/>
      </g>
     </g>
    </g>
    <g id="text_12">
     <!-- Time -->
     <g transform="translate(356.766406 284.596563) scale(0.1 -0.1)">
      <defs>
       <path id="DejaVuSans-54" d="M -19 4666 
L 3928 4666 
L 3928 4134 
L 2272 4134 
L 2272 0 
L 1638 0 
L 1638 4134 
L -19 4134 
L -19 4666 
z
" transform="scale(0.015625)"/>
       <path id="DejaVuSans-69" d="M 603 3500 
L 1178 3500 
L 1178 0 
L 603 0 
L 603 3500 
z
M 603 4863 
L 1178 4863 
L 1178 4134 
L 603 4134 
L 603 4863 
z
" transform="scale(0.015625)"/>
       <path id="DejaVuSans-6d" d="M 3328 2828 
Q 3544 3216 3844 3400 
Q 4144 3584 4550 3584 
Q 5097 3584 5394 3201 
Q 5691 2819 5691 2113 
L 5691 0 
L 5113 0 
L 5113 2094 
Q 5113 2597 4934 2840 
Q 4756 3084 4391 3084 
Q 3944 3084 3684 2787 
Q 3425 2491 3425 1978 
L 3425 0 
L 2847 0 
L 2847 2094 
Q 2847 2600 2669 2842 
Q 2491 3084 2119 3084 
Q 1678 3084 1418 2786 
Q 1159 2488 1159 1978 
L 1159 0 
L 581 0 
L 581 3500 
L 1159 3500 
L 1159 2956 
Q 1356 3278 1631 3431 
Q 1906 3584 2284 3584 
Q 2666 3584 2933 3390 
Q 3200 3197 3328 2828 
z
" transform="scale(0.015625)"/>
       <path id="DejaVuSans-65" d="M 3597 1894 
L 3597 1613 
L 953 1613 
Q 991 1019 1311 708 
Q 1631 397 2203 397 
Q 2534 397 2845 478 
Q 3156 559 3463 722 
L 3463 178 
Q 3153 47 2828 -22 
Q 2503 -91 2169 -91 
Q 1331 -91 842 396 
Q 353 884 353 1716 
Q 353 2575 817 3079 
Q 1281 3584 2069 3584 
Q 2775 3584 3186 3129 
Q 3597 2675 3597 1894 
z
M 3022 2063 
Q 3016 2534 2758 2815 
Q 2500 3097 2075 3097 
Q 1594 3097 1305 2825 
Q 1016 2553 972 2059 
L 3022 2063 
z
" transform="scale(0.015625)"/>
      </defs>
      <use xlink:href="#DejaVuSans-54"/>
      <use xlink:href="#DejaVuSans-69" x="57.958984"/>
      <use xlink:href="#DejaVuSans-6d" x="85.742188"/>
      <use xlink:href="#DejaVuSans-65" x="183.154297"/>
     </g>
    </g>
   </g>
   <g id="matplotlib.axis_2">
    <g id="ytick_1">
     <g id="line2d_12">
      <path d="M 90 246.24 
L 648 246.24 
" clip-path="url(#p8218e2b989)" style="fill: none; stroke: #b0b0b0; stroke-width: 0.8; stroke-linecap: square"/>
     </g>
     <g id="line2d_13">
      <defs>
       <path id="m53b1cc61b9" d="M 0 0 
L -3.5 0 
" style="stroke: #000000; stroke-width: 0.8"/>
      </defs>
      <g>
       <use xlink:href="#m53b1cc61b9" x="90" y="246.24" style="stroke: #000000; stroke-width: 0.8"/>
      </g>
     </g>
     <g id="text_13">
      <!-- 0 -->
      <g transform="translate(76.6375 250.039219) scale(0.1 -0.1)">
       <use xlink:href="#DejaVuSans-30"/>
      </g>
     </g>
    </g>
    <g id="ytick_2">
     <g id="line2d_14">
      <path d="M 90 217.865616 
L 648 217.865616 
" clip-path="url(#p8218e2b989)" style="fill: none; stroke: #b0b0b0; stroke-width: 0.8; stroke-linecap: square"/>
     </g>
     <g id="line2d_15">
      <g>
       <use xlink:href="#m53b1cc61b9" x="90" y="217.865616" style="stroke: #000000; stroke-width: 0.8"/>
      </g>
     </g>
     <g id="text_14">
      <!-- 1,000 -->
      <g transform="translate(54.371875 221.664835) scale(0.1 -0.1)">
       <defs>
        <path id="DejaVuSans-2c" d="M 750 794 
L 1409 794 
L 1409 256 
L 897 -744 
L 494 -744 
L 750 256 
L 750 794 
z
" transform="scale(0.015625)"/>
       </defs>
       <use xlink:href="#DejaVuSans-31"/>
       <use xlink:href="#DejaVuSans-2c" x="63.623047"/>
       <use xlink:href="#DejaVuSans-30" x="95.410156"/>
       <use xlink:href="#DejaVuSans-30" x="159.033203"/>
       <use xlink:href="#DejaVuSans-30" x="222.65625"/>
      </g>
     </g>
    </g>
    <g id="ytick_3">
     <g id="line2d_16">
      <path d="M 90 189.491232 
L 648 189.491232 
" clip-path="url(#p8218e2b989)" style="fill: none; stroke: #b0b0b0; stroke-width: 0.8; stroke-linecap: square"/>
     </g>
     <g id="line2d_17">
      <g>
       <use xlink:href="#m53b1cc61b9" x="90" y="189.491232" style="stroke: #000000; stroke-width: 0.8"/>
      </g>
     </g>
     <g id="text_15">
      <!-- 2,000 -->
      <g transform="translate(54.371875 193.29045) scale(0.1 -0.1)">
       <use xlink:href="#DejaVuSans-32"/>
       <use xlink:href="#DejaVuSans-2c" x="63.623047"/>
       <use xlink:href="#DejaVuSans-30" x="95.410156"/>
       <use xlink:href="#DejaVuSans-30" x="159.033203"/>
       <use xlink:href="#DejaVuSans-30" x="222.65625"/>
      </g>
     </g>
    </g>
    <g id="ytick_4">
     <g id="line2d_18">
      <path d="M 90 161.116847 
L 648 161.116847 
" clip-path="url(#p8218e2b989)" style="fill: none; stroke: #b0b0b0; stroke-width: 0.8; stroke-linecap: square"/>
     </g>
     <g id="line2d_19">
      <g>
       <use xlink:href="#m53b1cc61b9" x="90" y="161.116847" style="stroke: #000000; stroke-width: 0.8"/>
      </g>
     </g>
     <g id="text_16">
      <!-- 3,000 -->
      <g transform="translate(54.371875 164.916066) scale(0.1 -0.1)">
       <use xlink:href="#DejaVuSans-33"/>
       <use xlink:href="#DejaVuSans-2c" x="63.623047"/>
       <use xlink:href="#DejaVuSans-30" x="95.410156"/>
       <use xlink:href="#DejaVuSans-30" x="159.033203"/>
       <use xlink:href="#DejaVuSans-30" x="222.65625"/>
      </g>
     </g>
    </g>
    <g id="ytick_5">
     <g id="line2d_20">
      <path d="M 90 132.742463 
L 648 132.742463 
" clip-path="url(#p8218e2b989)" style="fill: none; stroke: #b0b0b0; stroke-width: 0.8; stroke-linecap: square"/>
     </g>
     <g id="line2d_21">
      <g>
       <use xlink:href="#m53b1cc61b9" x="90" y="132.742463" style="stroke: #000000; stroke-width: 0.8"/>
      </g>
     </g>
     <g id="text_17">
      <!-- 4,000 -->
      <g transform="translate(54.371875 136.541682) scale(0.1 -0.1)">
       <use xlink:href="#DejaVuSans-34"/>
       <use xlink:href="#DejaVuSans-2c" x="63.623047"/>
       <use xlink:href="#DejaVuSans-30" x="95.410156"/>
       <use xlink:href="#DejaVuSans-30" x="159.033203"/>
       <use xlink:href="#DejaVuSans-30" x="222.65625"/>
      </g>
     </g>
    </g>
    <g id="ytick_6">
     <g id="line2d_22">
      <path d="M 90 104.368079 
L 648 104.368079 
" clip-path="url(#p8218e2b989)" style="fill: none; stroke: #b0b0b0; stroke-width: 0.8; stroke-linecap: square"/>
     </g>
     <g id="line2d_23">
      <g>
       <use xlink:href="#m53b1cc61b9" x="90" y="104.368079" style="stroke: #000000; stroke-width: 0.8"/>
      </g>
     </g>
     <g id="text_18">
      <!-- 5,000 -->
      <g transform="translate(54.371875 108.167298) scale(0.1 -0.1)">
       <use xlink:href="#DejaVuSans-35"/>
       <use xlink:href="#DejaVuSans-2c" x="63.623047"/>
       <use xlink:href="#DejaVuSans-30" x="95.410156"/>
       <use xlink:href="#DejaVuSans-30" x="159.033203"/>
       <use xlink:href="#DejaVuSans-30" x="222.65625"/>
      </g>
     </g>
    </g>
    <g id="ytick_7">
     <g id="line2d_24">
      <path d="M 90 75.993695 
L 648 75.993695 
" clip-path="url(#p8218e2b989)" style="fill: none; stroke: #b0b0b0; stroke-width: 0.8; stroke-linecap: square"/>
     </g>
     <g id="line2d_25">
      <g>
       <use xlink:href="#m53b1cc61b9" x="90" y="75.993695" style="stroke: #000000; stroke-width: 0.8"/>
      </g>
     </g>
     <g id="text_19">
      <!-- 6,000 -->
      <g transform="translate(54.371875 79.792913) scale(0.1 -0.1)">
       <defs>
        <path id="DejaVuSans-36" d="M 2113 2584 
Q 1688 2584 1439 2293 
Q 1191 2003 1191 1497 
Q 1191 994 1439 701 
Q 1688 409 2113 409 
Q 2538 409 2786 701 
Q 3034 994 3034 1497 
Q 3034 2003 2786 2293 
Q 2538 2584 2113 2584 
z
M 3366 4563 
L 3366 3988 
Q 3128 4100 2886 4159 
Q 2644 4219 2406 4219 
Q 1781 4219 1451 3797 
Q 1122 3375 1075 2522 
Q 1259 2794 1537 2939 
Q 1816 3084 2150 3084 
Q 2853 3084 3261 2657 
Q 3669 2231 3669 1497 
Q 3669 778 3244 343 
Q 2819 -91 2113 -91 
Q 1303 -91 875 529 
Q 447 1150 447 2328 
Q 447 3434 972 4092 
Q 1497 4750 2381 4750 
Q 2619 4750 2861 4703 
Q 3103 4656 3366 4563 
z
" transform="scale(0.015625)"/>
       </defs>
       <use xlink:href="#DejaVuSans-36"/>
       <use xlink:href="#DejaVuSans-2c" x="63.623047"/>
       <use xlink:href="#DejaVuSans-30" x="95.410156"/>
       <use xlink:href="#DejaVuSans-30" x="159.033203"/>
       <use xlink:href="#DejaVuSans-30" x="222.65625"/>
      </g>
     </g>
    </g>
    <g id="ytick_8">
     <g id="line2d_26">
      <path d="M 90 47.61931 
L 648 47.61931 
" clip-path="url(#p8218e2b989)" style="fill: none; stroke: #b0b0b0; stroke-width: 0.8; stroke-linecap: square"/>
     </g>
     <g id="line2d_27">
      <g>
       <use xlink:href="#m53b1cc61b9" x="90" y="47.61931" style="stroke: #000000; stroke-width: 0.8"/>
      </g>
     </g>
     <g id="text_20">
      <!-- 7,000 -->
      <g transform="translate(54.371875 51.418529) scale(0.1 -0.1)">
       <defs>
        <path id="DejaVuSans-37" d="M 525 4666 
L 3525 4666 
L 3525 4397 
L 1831 0 
L 1172 0 
L 2766 4134 
L 525 4134 
L 525 4666 
z
" transform="scale(0.015625)"/>
       </defs>
       <use xlink:href="#DejaVuSans-37"/>
       <use xlink:href="#DejaVuSans-2c" x="63.623047"/>
       <use xlink:href="#DejaVuSans-30" x="95.410156"/>
       <use xlink:href="#DejaVuSans-30" x="159.033203"/>
       <use xlink:href="#DejaVuSans-30" x="222.65625"/>
      </g>
     </g>
    </g>
    <g id="text_21">
     <!-- Bitrate (kbit/s) -->
     <g transform="translate(48.292187 181.574375) rotate(-90) scale(0.1 -0.1)">
      <defs>
       <path id="DejaVuSans-42" d="M 1259 2228 
L 1259 519 
L 2272 519 
Q 2781 519 3026 730 
Q 3272 941 3272 1375 
Q 3272 1813 3026 2020 
Q 2781 2228 2272 2228 
L 1259 2228 
z
M 1259 4147 
L 1259 2741 
L 2194 2741 
Q 2656 2741 2882 2914 
Q 3109 3088 3109 3444 
Q 3109 3797 2882 3972 
Q 2656 4147 2194 4147 
L 1259 4147 
z
M 628 4666 
L 2241 4666 
Q 2963 4666 3353 4366 
Q 3744 4066 3744 3513 
Q 3744 3084 3544 2831 
Q 3344 2578 2956 2516 
Q 3422 2416 3680 2098 
Q 3938 1781 3938 1306 
Q 3938 681 3513 340 
Q 3088 0 2303 0 
L 628 0 
L 628 4666 
z
" transform="scale(0.015625)"/>
       <path id="DejaVuSans-74" d="M 1172 4494 
L 1172 3500 
L 2356 3500 
L 2356 3053 
L 1172 3053 
L 1172 1153 
Q 1172 725 1289 603 
Q 1406 481 1766 481 
L 2356 481 
L 2356 0 
L 1766 0 
Q 1100 0 847 248 
Q 594 497 594 1153 
L 594 3053 
L 172 3053 
L 172 3500 
L 594 3500 
L 594 4494 
L 1172 4494 
z
" transform="scale(0.015625)"/>
       <path id="DejaVuSans-72" d="M 2631 2963 
Q 2534 3019 2420 3045 
Q 2306 3072 2169 3072 
Q 1681 3072 1420 2755 
Q 1159 2438 1159 1844 
L 1159 0 
L 581 0 
L 581 3500 
L 1159 3500 
L 1159 2956 
Q 1341 3275 1631 3429 
Q 1922 3584 2338 3584 
Q 2397 3584 2469 3576 
Q 2541 3569 2628 3553 
L 2631 2963 
z
" transform="scale(0.015625)"/>
       <path id="DejaVuSans-61" d="M 2194 1759 
Q 1497 1759 1228 1600 
Q 959 1441 959 1056 
Q 959 750 1161 570 
Q 1363 391 1709 391 
Q 2188 391 2477 730 
Q 2766 1069 2766 1631 
L 2766 1759 
L 2194 1759 
z
M 3341 1997 
L 3341 0 
L 2766 0 
L 2766 531 
Q 2569 213 2275 61 
Q 1981 -91 1556 -91 
Q 1019 -91 701 211 
Q 384 513 384 1019 
Q 384 1609 779 1909 
Q 1175 2209 1959 2209 
L 2766 2209 
L 2766 2266 
Q 2766 2663 2505 2880 
Q 2244 3097 1772 3097 
Q 1472 3097 1187 3025 
Q 903 2953 641 2809 
L 641 3341 
Q 956 3463 1253 3523 
Q 1550 3584 1831 3584 
Q 2591 3584 2966 3190 
Q 3341 2797 3341 1997 
z
" transform="scale(0.015625)"/>
       <path id="DejaVuSans-20" transform="scale(0.015625)"/>
       <path id="DejaVuSans-28" d="M 1984 4856 
Q 1566 4138 1362 3434 
Q 1159 2731 1159 2009 
Q 1159 1288 1364 580 
Q 1569 -128 1984 -844 
L 1484 -844 
Q 1016 -109 783 600 
Q 550 1309 550 2009 
Q 550 2706 781 3412 
Q 1013 4119 1484 4856 
L 1984 4856 
z
" transform="scale(0.015625)"/>
       <path id="DejaVuSans-6b" d="M 581 4863 
L 1159 4863 
L 1159 1991 
L 2875 3500 
L 3609 3500 
L 1753 1863 
L 3688 0 
L 2938 0 
L 1159 1709 
L 1159 0 
L 581 0 
L 581 4863 
z
" transform="scale(0.015625)"/>
       <path id="DejaVuSans-62" d="M 3116 1747 
Q 3116 2381 2855 2742 
Q 2594 3103 2138 3103 
Q 1681 3103 1420 2742 
Q 1159 2381 1159 1747 
Q 1159 1113 1420 752 
Q 1681 391 2138 391 
Q 2594 391 2855 752 
Q 3116 1113 3116 1747 
z
M 1159 2969 
Q 1341 3281 1617 3432 
Q 1894 3584 2278 3584 
Q 2916 3584 3314 3078 
Q 3713 2572 3713 1747 
Q 3713 922 3314 415 
Q 2916 -91 2278 -91 
Q 1894 -91 1617 61 
Q 1341 213 1159 525 
L 1159 0 
L 581 0 
L 581 4863 
L 1159 4863 
L 1159 2969 
z
" transform="scale(0.015625)"/>
       <path id="DejaVuSans-2f" d="M 1625 4666 
L 2156 4666 
L 531 -594 
L 0 -594 
L 1625 4666 
z
" transform="scale(0.015625)"/>
       <path id="DejaVuSans-73" d="M 2834 3397 
L 2834 2853 
Q 2591 2978 2328 3040 
Q 2066 3103 1784 3103 
Q 1356 3103 1142 2972 
Q 928 2841 928 2578 
Q 928 2378 1081 2264 
Q 1234 2150 1697 2047 
L 1894 2003 
Q 2506 1872 2764 1633 
Q 3022 1394 3022 966 
Q 3022 478 2636 193 
Q 2250 -91 1575 -91 
Q 1294 -91 989 -36 
Q 684 19 347 128 
L 347 722 
Q 666 556 975 473 
Q 1284 391 1588 391 
Q 1994 391 2212 530 
Q 2431 669 2431 922 
Q 2431 1156 2273 1281 
Q 2116 1406 1581 1522 
L 1381 1569 
Q 847 1681 609 1914 
Q 372 2147 372 2553 
Q 372 3047 722 3315 
Q 1072 3584 1716 3584 
Q 2034 3584 2315 3537 
Q 2597 3491 2834 3397 
z
" transform="scale(0.015625)"/>
       <path id="DejaVuSans-29" d="M 513 4856 
L 1013 4856 
Q 1481 4119 1714 3412 
Q 1947 2706 1947 2009 
Q 1947 1309 1714 600 
Q 1481 -109 1013 -844 
L 513 -844 
Q 928 -128 1133 580 
Q 1338 1288 1338 2009 
Q 1338 2731 1133 3434 
Q 928 4138 513 4856 
z
" transform="scale(0.015625)"/>
      </defs>
      <use xlink:href="#DejaVuSans-42"/>
      <use xlink:href="#DejaVuSans-69" x="68.603516"/>
      <use xlink:href="#DejaVuSans-74" x="96.386719"/>
      <use xlink:href="#DejaVuSans-72" x="135.595703"/>
      <use xlink:href="#DejaVuSans-61" x="176.708984"/>
      <use xlink:href="#DejaVuSans-74" x="237.988281"/>
      <use xlink:href="#DejaVuSans-65" x="277.197266"/>
      <use xlink:href="#DejaVuSans-20" x="338.720703"/>
      <use xlink:href="#DejaVuSans-28" x="370.507812"/>
      <use xlink:href="#DejaVuSans-6b" x="409.521484"/>
      <use xlink:href="#DejaVuSans-62" x="467.431641"/>
      <use xlink:href="#DejaVuSans-69" x="530.908203"/>
      <use xlink:href="#DejaVuSans-74" x="558.691406"/>
      <use xlink:href="#DejaVuSans-2f" x="597.900391"/>
      <use xlink:href="#DejaVuSans-73" x="631.591797"/>
      <use xlink:href="#DejaVuSans-29" x="683.691406"/>
     </g>
    </g>
   </g>
   <g id="PolyCollection_1">
    <defs>
     <path id="m8e74c3e70f" d="M 115.363636 -43.632709 
L 115.363636 -41.76 
L 117.054545 -41.76 
L 118.745455 -41.76 
L 120.436364 -41.76 
L 122.127273 -41.76 
L 123.818182 -41.76 
L 125.509091 -41.76 
L 127.2 -41.76 
L 128.890909 -41.76 
L 130.581818 -41.76 
L 132.272727 -41.76 
L 133.963636 -41.76 
L 135.654545 -41.76 
L 137.345455 -41.76 
L 139.036364 -41.76 
L 140.727273 -41.76 
L 142.418182 -41.76 
L 144.109091 -41.76 
L 145.8 -41.76 
L 147.490909 -41.76 
L 149.181818 -41.76 
L 150.872727 -41.76 
L 152.563636 -41.76 
L 154.254545 -41.76 
L 155.945455 -41.76 
L 157.636364 -41.76 
L 159.327273 -41.76 
L 161.018182 -41.76 
L 162.709091 -41.76 
L 164.4 -41.76 
L 166.090909 -41.76 
L 167.781818 -41.76 
L 169.472727 -41.76 
L 171.163636 -41.76 
L 172.854545 -41.76 
L 174.545455 -41.76 
L 176.236364 -41.76 
L 177.927273 -41.76 
L 179.618182 -41.76 
L 181.309091 -41.76 
L 183 -41.76 
L 184.690909 -41.76 
L 186.381818 -41.76 
L 188.072727 -41.76 
L 189.763636 -41.76 
L 191.454545 -41.76 
L 193.145455 -41.76 
L 194.836364 -41.76 
L 196.527273 -41.76 
L 198.218182 -41.76 
L 199.909091 -41.76 
L 201.6 -41.76 
L 203.290909 -41.76 
L 204.981818 -41.76 
L 206.672727 -41.76 
L 208.363636 -41.76 
L 210.054545 -41.76 
L 211.745455 -41.76 
L 213.436364 -41.76 
L 215.127273 -41.76 
L 216.818182 -41.76 
L 218.509091 -41.76 
L 220.2 -41.76 
L 221.890909 -41.76 
L 223.581818 -41.76 
L 225.272727 -41.76 
L 226.963636 -41.76 
L 228.654545 -41.76 
L 230.345455 -41.76 
L 232.036364 -41.76 
L 233.727273 -41.76 
L 235.418182 -41.76 
L 237.109091 -41.76 
L 238.8 -41.76 
L 240.490909 -41.76 
L 242.181818 -41.76 
L 243.872727 -41.76 
L 245.563636 -41.76 
L 247.254545 -41.76 
L 248.945455 -41.76 
L 250.636364 -41.76 
L 252.327273 -41.76 
L 254.018182 -41.76 
L 255.709091 -41.76 
L 257.4 -41.76 
L 259.090909 -41.76 
L 260.781818 -41.76 
L 262.472727 -41.76 
L 264.163636 -41.76 
L 265.854545 -41.76 
L 267.545455 -41.76 
L 269.236364 -41.76 
L 270.927273 -41.76 
L 272.618182 -41.76 
L 274.309091 -41.76 
L 276 -41.76 
L 277.690909 -41.76 
L 279.381818 -41.76 
L 281.072727 -41.76 
L 282.763636 -41.76 
L 284.454545 -41.76 
L 286.145455 -41.76 
L 287.836364 -41.76 
L 289.527273 -41.76 
L 291.218182 -41.76 
L 292.909091 -41.76 
L 294.6 -41.76 
L 296.290909 -41.76 
L 297.981818 -41.76 
L 299.672727 -41.76 
L 301.363636 -41.76 
L 303.054545 -41.76 
L 304.745455 -41.76 
L 306.436364 -41.76 
L 308.127273 -41.76 
L 309.818182 -41.76 
L 311.509091 -41.76 
L 313.2 -41.76 
L 314.890909 -41.76 
L 316.581818 -41.76 
L 318.272727 -41.76 
L 319.963636 -41.76 
L 321.654545 -41.76 
L 323.345455 -41.76 
L 325.036364 -41.76 
L 326.727273 -41.76 
L 328.418182 -41.76 
L 330.109091 -41.76 
L 331.8 -41.76 
L 333.490909 -41.76 
L 335.181818 -41.76 
L 336.872727 -41.76 
L 338.563636 -41.76 
L 340.254545 -41.76 
L 341.945455 -41.76 
L 343.636364 -41.76 
L 345.327273 -41.76 
L 347.018182 -41.76 
L 348.709091 -41.76 
L 350.4 -41.76 
L 352.090909 -41.76 
L 353.781818 -41.76 
L 355.472727 -41.76 
L 357.163636 -41.76 
L 358.854545 -41.76 
L 360.545455 -41.76 
L 362.236364 -41.76 
L 363.927273 -41.76 
L 365.618182 -41.76 
L 367.309091 -41.76 
L 369 -41.76 
L 370.690909 -41.76 
L 372.381818 -41.76 
L 374.072727 -41.76 
L 375.763636 -41.76 
L 377.454545 -41.76 
L 379.145455 -41.76 
L 380.836364 -41.76 
L 382.527273 -41.76 
L 384.218182 -41.76 
L 385.909091 -41.76 
L 387.6 -41.76 
L 389.290909 -41.76 
L 390.981818 -41.76 
L 392.672727 -41.76 
L 394.363636 -41.76 
L 396.054545 -41.76 
L 397.745455 -41.76 
L 399.436364 -41.76 
L 401.127273 -41.76 
L 402.818182 -41.76 
L 404.509091 -41.76 
L 406.2 -41.76 
L 407.890909 -41.76 
L 409.581818 -41.76 
L 411.272727 -41.76 
L 412.963636 -41.76 
L 414.654545 -41.76 
L 416.345455 -41.76 
L 418.036364 -41.76 
L 419.727273 -41.76 
L 421.418182 -41.76 
L 423.109091 -41.76 
L 424.8 -41.76 
L 426.490909 -41.76 
L 428.181818 -41.76 
L 429.872727 -41.76 
L 431.563636 -41.76 
L 433.254545 -41.76 
L 434.945455 -41.76 
L 436.636364 -41.76 
L 438.327273 -41.76 
L 440.018182 -41.76 
L 441.709091 -41.76 
L 443.4 -41.76 
L 445.090909 -41.76 
L 446.781818 -41.76 
L 448.472727 -41.76 
L 450.163636 -41.76 
L 451.854545 -41.76 
L 453.545455 -41.76 
L 455.236364 -41.76 
L 456.927273 -41.76 
L 458.618182 -41.76 
L 460.309091 -41.76 
L 462 -41.76 
L 463.690909 -41.76 
L 465.381818 -41.76 
L 467.072727 -41.76 
L 468.763636 -41.76 
L 470.454545 -41.76 
L 472.145455 -41.76 
L 473.836364 -41.76 
L 475.527273 -41.76 
L 477.218182 -41.76 
L 478.909091 -41.76 
L 480.6 -41.76 
L 482.290909 -41.76 
L 483.981818 -41.76 
L 485.672727 -41.76 
L 487.363636 -41.76 
L 489.054545 -41.76 
L 490.745455 -41.76 
L 492.436364 -41.76 
L 494.127273 -41.76 
L 495.818182 -41.76 
L 497.509091 -41.76 
L 499.2 -41.76 
L 500.890909 -41.76 
L 502.581818 -41.76 
L 504.272727 -41.76 
L 505.963636 -41.76 
L 507.654545 -41.76 
L 509.345455 -41.76 
L 511.036364 -41.76 
L 512.727273 -41.76 
L 514.418182 -41.76 
L 516.109091 -41.76 
L 517.8 -41.76 
L 519.490909 -41.76 
L 521.181818 -41.76 
L 522.872727 -41.76 
L 524.563636 -41.76 
L 526.254545 -41.76 
L 527.945455 -41.76 
L 529.636364 -41.76 
L 531.327273 -41.76 
L 533.018182 -41.76 
L 534.709091 -41.76 
L 536.4 -41.76 
L 538.090909 -41.76 
L 539.781818 -41.76 
L 541.472727 -41.76 
L 543.163636 -41.76 
L 544.854545 -41.76 
L 546.545455 -41.76 
L 548.236364 -41.76 
L 549.927273 -41.76 
L 551.618182 -41.76 
L 553.309091 -41.76 
L 555 -41.76 
L 556.690909 -41.76 
L 558.381818 -41.76 
L 560.072727 -41.76 
L 561.763636 -41.76 
L 563.454545 -41.76 
L 565.145455 -41.76 
L 566.836364 -41.76 
L 568.527273 -41.76 
L 570.218182 -41.76 
L 571.909091 -41.76 
L 573.6 -41.76 
L 575.290909 -41.76 
L 576.981818 -41.76 
L 578.672727 -41.76 
L 580.363636 -41.76 
L 582.054545 -41.76 
L 583.745455 -41.76 
L 585.436364 -41.76 
L 587.127273 -41.76 
L 588.818182 -41.76 
L 590.509091 -41.76 
L 592.2 -41.76 
L 593.890909 -41.76 
L 595.581818 -41.76 
L 597.272727 -41.76 
L 598.963636 -41.76 
L 600.654545 -41.76 
L 602.345455 -41.76 
L 604.036364 -41.76 
L 605.727273 -41.76 
L 607.418182 -41.76 
L 609.109091 -41.76 
L 610.8 -41.76 
L 612.490909 -41.76 
L 614.181818 -41.76 
L 615.872727 -41.76 
L 617.563636 -41.76 
L 619.254545 -41.76 
L 620.945455 -41.76 
L 622.636364 -41.76 
L 622.636364 -41.76 
L 622.636364 -41.76 
L 620.945455 -64.062266 
L 619.254545 -41.76 
L 617.563636 -41.76 
L 615.872727 -62.104433 
L 614.181818 -41.76 
L 612.490909 -41.76 
L 610.8 -101.402956 
L 609.109091 -41.76 
L 607.418182 -41.76 
L 605.727273 -41.76 
L 604.036364 -103.531034 
L 602.345455 -41.76 
L 600.654545 -41.76 
L 598.963636 -41.76 
L 597.272727 -77.000985 
L 595.581818 -84.690443 
L 593.890909 -41.76 
L 592.2 -88.662857 
L 590.509091 -41.76 
L 588.818182 -58.273892 
L 587.127273 -41.76 
L 585.436364 -96.238818 
L 583.745455 -41.76 
L 582.054545 -41.76 
L 580.363636 -41.76 
L 578.672727 -96.976552 
L 576.981818 -41.76 
L 575.290909 -41.76 
L 573.6 -41.76 
L 571.909091 -70.049261 
L 570.218182 -41.76 
L 568.527273 -72.375961 
L 566.836364 -76.064631 
L 565.145455 -41.76 
L 563.454545 -57.990148 
L 561.763636 -41.76 
L 560.072727 -127.649261 
L 558.381818 -41.76 
L 556.690909 -84.662069 
L 555 -41.76 
L 553.309091 -58.472512 
L 551.618182 -90.223448 
L 549.927273 -41.76 
L 548.236364 -55.578325 
L 546.545455 -57.167291 
L 544.854545 -41.76 
L 543.163636 -41.76 
L 541.472727 -66.303842 
L 539.781818 -41.76 
L 538.090909 -41.76 
L 536.4 -41.76 
L 534.709091 -41.76 
L 533.018182 -91.925911 
L 531.327273 -118.115468 
L 529.636364 -63.154286 
L 527.945455 -41.76 
L 526.254545 -41.76 
L 524.563636 -41.76 
L 522.872727 -64.34601 
L 521.181818 -41.76 
L 519.490909 -41.76 
L 517.8 -41.76 
L 516.109091 -41.76 
L 514.418182 -62.161182 
L 512.727273 -41.76 
L 511.036364 -104.013399 
L 509.345455 -41.76 
L 507.654545 -41.76 
L 505.963636 -41.76 
L 504.272727 -61.082956 
L 502.581818 -41.76 
L 500.890909 -119.959803 
L 499.2 -41.76 
L 497.509091 -41.76 
L 495.818182 -76.376749 
L 494.127273 -55.493202 
L 492.436364 -41.76 
L 490.745455 -64.34601 
L 489.054545 -41.76 
L 487.363636 -41.76 
L 485.672727 -41.76 
L 483.981818 -57.905025 
L 482.290909 -41.76 
L 480.6 -66.190345 
L 478.909091 -41.76 
L 477.218182 -41.76 
L 475.527273 -65.793103 
L 473.836364 -41.76 
L 472.145455 -61.281576 
L 470.454545 -68.687291 
L 468.763636 -41.76 
L 467.072727 -87.726502 
L 465.381818 -41.76 
L 463.690909 -41.76 
L 462 -41.76 
L 460.309091 -66.360591 
L 458.618182 -41.76 
L 456.927273 -41.76 
L 455.236364 -55.947192 
L 453.545455 -64.544631 
L 451.854545 -57.479409 
L 450.163636 -41.76 
L 448.472727 -41.76 
L 446.781818 -57.536158 
L 445.090909 -41.76 
L 443.4 -41.76 
L 441.709091 -76.915862 
L 440.018182 -41.76 
L 438.327273 -41.76 
L 436.636364 -50.215567 
L 434.945455 -71.553103 
L 433.254545 -41.76 
L 431.563636 -41.76 
L 429.872727 -41.76 
L 428.181818 -41.76 
L 426.490909 -77.341478 
L 424.8 -41.76 
L 423.109091 -71.666601 
L 421.418182 -41.76 
L 419.727273 -79.7533 
L 418.036364 -41.76 
L 416.345455 -56.51468 
L 414.654545 -41.76 
L 412.963636 -41.76 
L 411.272727 -41.76 
L 409.581818 -41.76 
L 407.890909 -57.905025 
L 406.2 -81.228768 
L 404.509091 -41.76 
L 402.818182 -60.969458 
L 401.127273 -41.76 
L 399.436364 -41.76 
L 397.745455 -82.420493 
L 396.054545 -60.373596 
L 394.363636 -82.760985 
L 392.672727 -83.527094 
L 390.981818 -41.76 
L 389.290909 -41.76 
L 387.6 -41.76 
L 385.909091 -86.563153 
L 384.218182 -41.76 
L 382.527273 -41.76 
L 380.836364 -75.582266 
L 379.145455 -41.76 
L 377.454545 -41.76 
L 375.763636 -41.76 
L 374.072727 -78.987192 
L 372.381818 -41.76 
L 370.690909 -41.76 
L 369 -135.934581 
L 367.309091 -41.76 
L 365.618182 -41.76 
L 363.927273 -67.694187 
L 362.236364 -41.76 
L 360.545455 -41.76 
L 358.854545 -41.76 
L 357.163636 -76.234877 
L 355.472727 -41.76 
L 353.781818 -41.76 
L 352.090909 -41.76 
L 350.4 -75.61064 
L 348.709091 -41.76 
L 347.018182 -41.76 
L 345.327273 -41.76 
L 343.636364 -73.198818 
L 341.945455 -41.76 
L 340.254545 -41.76 
L 338.563636 -41.76 
L 336.872727 -76.461872 
L 335.181818 -41.76 
L 333.490909 -41.76 
L 331.8 -41.76 
L 330.109091 -71.865222 
L 328.418182 -41.76 
L 326.727273 -71.72335 
L 325.036364 -41.76 
L 323.345455 -41.76 
L 321.654545 -82.98798 
L 319.963636 -85.229557 
L 318.272727 -41.76 
L 316.581818 -41.76 
L 314.890909 -41.76 
L 313.2 -93.713498 
L 311.509091 -52.967882 
L 309.818182 -41.76 
L 308.127273 -41.76 
L 306.436364 -41.76 
L 304.745455 -56.51468 
L 303.054545 -41.76 
L 301.363636 -41.76 
L 299.672727 -41.76 
L 297.981818 -57.621281 
L 296.290909 -41.76 
L 294.6 -41.76 
L 292.909091 -41.76 
L 291.218182 -104.467389 
L 289.527273 -41.76 
L 287.836364 -41.76 
L 286.145455 -41.76 
L 284.454545 -41.76 
L 282.763636 -67.609064 
L 281.072727 -41.76 
L 279.381818 -41.76 
L 277.690909 -41.76 
L 276 -71.46798 
L 274.309091 -81.086897 
L 272.618182 -41.76 
L 270.927273 -69.538522 
L 269.236364 -41.76 
L 267.545455 -41.76 
L 265.854545 -41.76 
L 264.163636 -67.438818 
L 262.472727 -41.76 
L 260.781818 -41.76 
L 259.090909 -41.76 
L 257.4 -88.74798 
L 255.709091 -41.76 
L 254.018182 -41.76 
L 252.327273 -41.76 
L 250.636364 -41.76 
L 248.945455 -86.22266 
L 247.254545 -41.76 
L 245.563636 -60.174975 
L 243.872727 -41.76 
L 242.181818 -97.345419 
L 240.490909 -41.76 
L 238.8 -73.000197 
L 237.109091 -56.145813 
L 235.418182 -41.76 
L 233.727273 -41.76 
L 232.036364 -41.76 
L 230.345455 -85.456552 
L 228.654545 -41.76 
L 226.963636 -41.76 
L 225.272727 -62.104433 
L 223.581818 -60.288473 
L 221.890909 -41.76 
L 220.2 -41.76 
L 218.509091 -41.76 
L 216.818182 -89.116847 
L 215.127273 -41.76 
L 213.436364 -41.76 
L 211.745455 -41.76 
L 210.054545 -89.258719 
L 208.363636 -41.76 
L 206.672727 -41.76 
L 204.981818 -41.76 
L 203.290909 -103.75803 
L 201.6 -41.76 
L 199.909091 -41.76 
L 198.218182 -41.76 
L 196.527273 -76.433498 
L 194.836364 -41.76 
L 193.145455 -41.76 
L 191.454545 -41.76 
L 189.763636 -41.76 
L 188.072727 -78.731823 
L 186.381818 -41.76 
L 184.690909 -41.76 
L 183 -41.76 
L 181.309091 -91.698916 
L 179.618182 -41.76 
L 177.927273 -41.76 
L 176.236364 -41.76 
L 174.545455 -101.998818 
L 172.854545 -41.76 
L 171.163636 -41.76 
L 169.472727 -41.76 
L 167.781818 -99.019507 
L 166.090909 -41.76 
L 164.4 -41.76 
L 162.709091 -41.76 
L 161.018182 -121.066404 
L 159.327273 -41.76 
L 157.636364 -41.76 
L 155.945455 -59.976355 
L 154.254545 -41.76 
L 152.563636 -41.76 
L 150.872727 -41.76 
L 149.181818 -62.927291 
L 147.490909 -41.76 
L 145.8 -41.76 
L 144.109091 -41.76 
L 142.418182 -115.051034 
L 140.727273 -41.76 
L 139.036364 -41.76 
L 137.345455 -41.76 
L 135.654545 -93.486502 
L 133.963636 -41.76 
L 132.272727 -41.76 
L 130.581818 -41.76 
L 128.890909 -65.793103 
L 127.2 -41.76 
L 125.509091 -41.76 
L 123.818182 -41.76 
L 122.127273 -44.143448 
L 120.436364 -41.76 
L 118.745455 -41.76 
L 117.054545 -41.76 
L 115.363636 -43.632709 
z
" style="stroke: #ff0000; stroke-width: 0.5"/>
    </defs>
    <g clip-path="url(#p8218e2b989)">
     <use xlink:href="#m8e74c3e70f" x="0" y="288" style="fill: #ff0000; stroke: #ff0000; stroke-width: 0.5"/>
    </g>
   </g>
   <g id="PolyCollection_2">
    <defs>
     <path id="m846387067d" d="M 115.363636 -46.243153 
L 115.363636 -43.632709 
L 117.054545 -41.76 
L 118.745455 -41.76 
L 120.436364 -41.76 
L 122.127273 -44.143448 
L 123.818182 -41.76 
L 125.509091 -41.76 
L 127.2 -41.76 
L 128.890909 -65.793103 
L 130.581818 -41.76 
L 132.272727 -41.76 
L 133.963636 -41.76 
L 135.654545 -93.486502 
L 137.345455 -41.76 
L 139.036364 -41.76 
L 140.727273 -41.76 
L 142.418182 -115.051034 
L 144.109091 -41.76 
L 145.8 -41.76 
L 147.490909 -41.76 
L 149.181818 -62.927291 
L 150.872727 -41.76 
L 152.563636 -41.76 
L 154.254545 -41.76 
L 155.945455 -59.976355 
L 157.636364 -41.76 
L 159.327273 -41.76 
L 161.018182 -121.066404 
L 162.709091 -41.76 
L 164.4 -41.76 
L 166.090909 -41.76 
L 167.781818 -99.019507 
L 169.472727 -41.76 
L 171.163636 -41.76 
L 172.854545 -41.76 
L 174.545455 -101.998818 
L 176.236364 -41.76 
L 177.927273 -41.76 
L 179.618182 -41.76 
L 181.309091 -91.698916 
L 183 -41.76 
L 184.690909 -41.76 
L 186.381818 -41.76 
L 188.072727 -78.731823 
L 189.763636 -41.76 
L 191.454545 -41.76 
L 193.145455 -41.76 
L 194.836364 -41.76 
L 196.527273 -76.433498 
L 198.218182 -41.76 
L 199.909091 -41.76 
L 201.6 -41.76 
L 203.290909 -103.75803 
L 204.981818 -41.76 
L 206.672727 -41.76 
L 208.363636 -41.76 
L 210.054545 -89.258719 
L 211.745455 -41.76 
L 213.436364 -41.76 
L 215.127273 -41.76 
L 216.818182 -89.116847 
L 218.509091 -41.76 
L 220.2 -41.76 
L 221.890909 -41.76 
L 223.581818 -60.288473 
L 225.272727 -62.104433 
L 226.963636 -41.76 
L 228.654545 -41.76 
L 230.345455 -85.456552 
L 232.036364 -41.76 
L 233.727273 -41.76 
L 235.418182 -41.76 
L 237.109091 -56.145813 
L 238.8 -73.000197 
L 240.490909 -41.76 
L 242.181818 -97.345419 
L 243.872727 -41.76 
L 245.563636 -60.174975 
L 247.254545 -41.76 
L 248.945455 -86.22266 
L 250.636364 -41.76 
L 252.327273 -41.76 
L 254.018182 -41.76 
L 255.709091 -41.76 
L 257.4 -88.74798 
L 259.090909 -41.76 
L 260.781818 -41.76 
L 262.472727 -41.76 
L 264.163636 -67.438818 
L 265.854545 -41.76 
L 267.545455 -41.76 
L 269.236364 -41.76 
L 270.927273 -69.538522 
L 272.618182 -41.76 
L 274.309091 -81.086897 
L 276 -71.46798 
L 277.690909 -41.76 
L 279.381818 -41.76 
L 281.072727 -41.76 
L 282.763636 -67.609064 
L 284.454545 -41.76 
L 286.145455 -41.76 
L 287.836364 -41.76 
L 289.527273 -41.76 
L 291.218182 -104.467389 
L 292.909091 -41.76 
L 294.6 -41.76 
L 296.290909 -41.76 
L 297.981818 -57.621281 
L 299.672727 -41.76 
L 301.363636 -41.76 
L 303.054545 -41.76 
L 304.745455 -56.51468 
L 306.436364 -41.76 
L 308.127273 -41.76 
L 309.818182 -41.76 
L 311.509091 -52.967882 
L 313.2 -93.713498 
L 314.890909 -41.76 
L 316.581818 -41.76 
L 318.272727 -41.76 
L 319.963636 -85.229557 
L 321.654545 -82.98798 
L 323.345455 -41.76 
L 325.036364 -41.76 
L 326.727273 -71.72335 
L 328.418182 -41.76 
L 330.109091 -71.865222 
L 331.8 -41.76 
L 333.490909 -41.76 
L 335.181818 -41.76 
L 336.872727 -76.461872 
L 338.563636 -41.76 
L 340.254545 -41.76 
L 341.945455 -41.76 
L 343.636364 -73.198818 
L 345.327273 -41.76 
L 347.018182 -41.76 
L 348.709091 -41.76 
L 350.4 -75.61064 
L 352.090909 -41.76 
L 353.781818 -41.76 
L 355.472727 -41.76 
L 357.163636 -76.234877 
L 358.854545 -41.76 
L 360.545455 -41.76 
L 362.236364 -41.76 
L 363.927273 -67.694187 
L 365.618182 -41.76 
L 367.309091 -41.76 
L 369 -135.934581 
L 370.690909 -41.76 
L 372.381818 -41.76 
L 374.072727 -78.987192 
L 375.763636 -41.76 
L 377.454545 -41.76 
L 379.145455 -41.76 
L 380.836364 -75.582266 
L 382.527273 -41.76 
L 384.218182 -41.76 
L 385.909091 -86.563153 
L 387.6 -41.76 
L 389.290909 -41.76 
L 390.981818 -41.76 
L 392.672727 -83.527094 
L 394.363636 -82.760985 
L 396.054545 -60.373596 
L 397.745455 -82.420493 
L 399.436364 -41.76 
L 401.127273 -41.76 
L 402.818182 -60.969458 
L 404.509091 -41.76 
L 406.2 -81.228768 
L 407.890909 -57.905025 
L 409.581818 -41.76 
L 411.272727 -41.76 
L 412.963636 -41.76 
L 414.654545 -41.76 
L 416.345455 -56.51468 
L 418.036364 -41.76 
L 419.727273 -79.7533 
L 421.418182 -41.76 
L 423.109091 -71.666601 
L 424.8 -41.76 
L 426.490909 -77.341478 
L 428.181818 -41.76 
L 429.872727 -41.76 
L 431.563636 -41.76 
L 433.254545 -41.76 
L 434.945455 -71.553103 
L 436.636364 -50.215567 
L 438.327273 -41.76 
L 440.018182 -41.76 
L 441.709091 -76.915862 
L 443.4 -41.76 
L 445.090909 -41.76 
L 446.781818 -57.536158 
L 448.472727 -41.76 
L 450.163636 -41.76 
L 451.854545 -57.479409 
L 453.545455 -64.544631 
L 455.236364 -55.947192 
L 456.927273 -41.76 
L 458.618182 -41.76 
L 460.309091 -66.360591 
L 462 -41.76 
L 463.690909 -41.76 
L 465.381818 -41.76 
L 467.072727 -87.726502 
L 468.763636 -41.76 
L 470.454545 -68.687291 
L 472.145455 -61.281576 
L 473.836364 -41.76 
L 475.527273 -65.793103 
L 477.218182 -41.76 
L 478.909091 -41.76 
L 480.6 -66.190345 
L 482.290909 -41.76 
L 483.981818 -57.905025 
L 485.672727 -41.76 
L 487.363636 -41.76 
L 489.054545 -41.76 
L 490.745455 -64.34601 
L 492.436364 -41.76 
L 494.127273 -55.493202 
L 495.818182 -76.376749 
L 497.509091 -41.76 
L 499.2 -41.76 
L 500.890909 -119.959803 
L 502.581818 -41.76 
L 504.272727 -61.082956 
L 505.963636 -41.76 
L 507.654545 -41.76 
L 509.345455 -41.76 
L 511.036364 -104.013399 
L 512.727273 -41.76 
L 514.418182 -62.161182 
L 516.109091 -41.76 
L 517.8 -41.76 
L 519.490909 -41.76 
L 521.181818 -41.76 
L 522.872727 -64.34601 
L 524.563636 -41.76 
L 526.254545 -41.76 
L 527.945455 -41.76 
L 529.636364 -63.154286 
L 531.327273 -118.115468 
L 533.018182 -91.925911 
L 534.709091 -41.76 
L 536.4 -41.76 
L 538.090909 -41.76 
L 539.781818 -41.76 
L 541.472727 -66.303842 
L 543.163636 -41.76 
L 544.854545 -41.76 
L 546.545455 -57.167291 
L 548.236364 -55.578325 
L 549.927273 -41.76 
L 551.618182 -90.223448 
L 553.309091 -58.472512 
L 555 -41.76 
L 556.690909 -84.662069 
L 558.381818 -41.76 
L 560.072727 -127.649261 
L 561.763636 -41.76 
L 563.454545 -57.990148 
L 565.145455 -41.76 
L 566.836364 -76.064631 
L 568.527273 -72.375961 
L 570.218182 -41.76 
L 571.909091 -70.049261 
L 573.6 -41.76 
L 575.290909 -41.76 
L 576.981818 -41.76 
L 578.672727 -96.976552 
L 580.363636 -41.76 
L 582.054545 -41.76 
L 583.745455 -41.76 
L 585.436364 -96.238818 
L 587.127273 -41.76 
L 588.818182 -58.273892 
L 590.509091 -41.76 
L 592.2 -88.662857 
L 593.890909 -41.76 
L 595.581818 -84.690443 
L 597.272727 -77.000985 
L 598.963636 -41.76 
L 600.654545 -41.76 
L 602.345455 -41.76 
L 604.036364 -103.531034 
L 605.727273 -41.76 
L 607.418182 -41.76 
L 609.109091 -41.76 
L 610.8 -101.402956 
L 612.490909 -41.76 
L 614.181818 -41.76 
L 615.872727 -62.104433 
L 617.563636 -41.76 
L 619.254545 -41.76 
L 620.945455 -64.062266 
L 622.636364 -41.76 
L 622.636364 -41.76 
L 622.636364 -41.76 
L 620.945455 -78.816946 
L 619.254545 -66.984828 
L 617.563636 -53.166502 
L 615.872727 -66.020099 
L 614.181818 -44.0867 
L 612.490909 -45.278424 
L 610.8 -106.198227 
L 609.109091 -50.9533 
L 607.418182 -44.200197 
L 605.727273 -42.497734 
L 604.036364 -105.57399 
L 602.345455 -54.556847 
L 600.654545 -51.293793 
L 598.963636 -54.528473 
L 597.272727 -102.991921 
L 595.581818 -115.306404 
L 593.890909 -50.641182 
L 592.2 -98.253399 
L 590.509091 -61.763941 
L 588.818182 -70.673498 
L 587.127273 -50.556059 
L 585.436364 -100.608473 
L 583.745455 -88.435862 
L 582.054545 -94.621478 
L 580.363636 -89.826207 
L 578.672727 -111.33399 
L 576.981818 -45.675665 
L 575.290909 -43.689458 
L 573.6 -47.888867 
L 571.909091 -73.567685 
L 570.218182 -52.882759 
L 568.527273 -75.497143 
L 566.836364 -88.379113 
L 565.145455 -49.392709 
L 563.454545 -69.453399 
L 561.763636 -44.54069 
L 560.072727 -134.232118 
L 558.381818 -52.996256 
L 556.690909 -93.826995 
L 555 -46.044532 
L 553.309091 -64.317635 
L 551.618182 -101.6867 
L 549.927273 -60.827586 
L 548.236364 -68.091429 
L 546.545455 -65.934975 
L 544.854545 -43.065222 
L 543.163636 -50.641182 
L 541.472727 -107.475074 
L 539.781818 -53.336749 
L 538.090909 -58.58601 
L 536.4 -59.834483 
L 534.709091 -100.948966 
L 533.018182 -105.545616 
L 531.327273 -125.237438 
L 529.636364 -74.24867 
L 527.945455 -42.611232 
L 526.254545 -42.980099 
L 524.563636 -42.412611 
L 522.872727 -65.991724 
L 521.181818 -43.008473 
L 519.490909 -43.717833 
L 517.8 -50.187192 
L 516.109091 -62.530049 
L 514.418182 -68.573793 
L 512.727273 -42.980099 
L 511.036364 -106.708966 
L 509.345455 -59.806108 
L 507.654545 -49.279212 
L 505.963636 -65.50936 
L 504.272727 -85.087685 
L 502.581818 -47.576749 
L 500.890909 -120.300296 
L 499.2 -42.526108 
L 497.509091 -42.497734 
L 495.818182 -78.504828 
L 494.127273 -59.380493 
L 492.436364 -53.620493 
L 490.745455 -85.825419 
L 489.054545 -51.151921 
L 487.363636 -55.237833 
L 485.672727 -52.201773 
L 483.981818 -66.928079 
L 482.290909 -73.53931 
L 480.6 -105.857734 
L 478.909091 -82.023251 
L 477.218182 -91.784039 
L 475.527273 -99.81399 
L 473.836364 -51.435665 
L 472.145455 -73.227192 
L 470.454545 -84.349951 
L 468.763636 -44.115074 
L 467.072727 -89.996453 
L 465.381818 -47.746995 
L 463.690909 -44.966305 
L 462 -55.493202 
L 460.309091 -76.490246 
L 458.618182 -49.165714 
L 456.927273 -48.513103 
L 455.236364 -63.948768 
L 453.545455 -105.091626 
L 451.854545 -70.673498 
L 450.163636 -52.82601 
L 448.472727 -75.355271 
L 446.781818 -84.463448 
L 445.090909 -42.66798 
L 443.4 -42.440985 
L 441.709091 -80.888276 
L 440.018182 -75.809261 
L 438.327273 -78.362956 
L 436.636364 -67.069951 
L 434.945455 -87.300887 
L 433.254545 -78.930443 
L 431.563636 -79.781675 
L 429.872727 -78.675074 
L 428.181818 -81.086897 
L 426.490909 -92.067783 
L 424.8 -50.442562 
L 423.109091 -82.306995 
L 421.418182 -83.158227 
L 419.727273 -110.199015 
L 418.036364 -51.804532 
L 416.345455 -61.622069 
L 414.654545 -51.804532 
L 412.963636 -45.505419 
L 411.272727 -48.371232 
L 409.581818 -48.257734 
L 407.890909 -74.645911 
L 406.2 -86.903645 
L 404.509091 -45.477044 
L 402.818182 -68.999409 
L 401.127273 -49.477833 
L 399.436364 -53.450246 
L 397.745455 -90.961182 
L 396.054545 -67.609064 
L 394.363636 -88.492611 
L 392.672727 -88.606108 
L 390.981818 -48.399606 
L 389.290909 -44.99468 
L 387.6 -44.625813 
L 385.909091 -87.414384 
L 384.218182 -48.286108 
L 382.527273 -51.010049 
L 380.836364 -97.090049 
L 379.145455 -58.359015 
L 377.454545 -52.315271 
L 375.763636 -50.981675 
L 374.072727 -82.335369 
L 372.381818 -45.108177 
L 370.690909 -44.796059 
L 369 -137.097931 
L 367.309091 -45.420296 
L 365.618182 -50.868177 
L 363.927273 -94.564729 
L 362.236364 -50.75468 
L 360.545455 -45.590542 
L 358.854545 -58.926502 
L 357.163636 -91.103054 
L 355.472727 -60.288473 
L 353.781818 -43.320591 
L 352.090909 -48.399606 
L 350.4 -86.47803 
L 348.709091 -46.129655 
L 347.018182 -44.313695 
L 345.327273 -44.370443 
L 343.636364 -81.427389 
L 341.945455 -44.228571 
L 340.254545 -45.221675 
L 338.563636 -56.486305 
L 336.872727 -88.322365 
L 335.181818 -46.867389 
L 333.490909 -46.413399 
L 331.8 -47.576749 
L 330.109091 -95.274089 
L 328.418182 -60.628966 
L 326.727273 -90.649064 
L 325.036364 -51.946404 
L 323.345455 -76.121379 
L 321.654545 -91.500296 
L 319.963636 -94.791724 
L 318.272727 -65.424236 
L 316.581818 -55.691823 
L 314.890909 -52.967882 
L 313.2 -112.24197 
L 311.509091 -72.205714 
L 309.818182 -60.515468 
L 308.127273 -61.792315 
L 306.436364 -58.075271 
L 304.745455 -80.122167 
L 303.054545 -56.202562 
L 301.363636 -58.671133 
L 299.672727 -50.272315 
L 297.981818 -63.097537 
L 296.290909 -45.079803 
L 294.6 -58.529261 
L 292.909091 -45.647291 
L 291.218182 -107.90069 
L 289.527273 -48.910345 
L 287.836364 -48.796847 
L 286.145455 -46.299901 
L 284.454545 -47.832118 
L 282.763636 -70.872118 
L 281.072727 -44.824433 
L 279.381818 -43.802956 
L 277.690909 -43.37734 
L 276 -71.808473 
L 274.309091 -81.824631 
L 272.618182 -43.774581 
L 270.927273 -71.46798 
L 269.236364 -47.236256 
L 267.545455 -45.817537 
L 265.854545 -42.46936 
L 264.163636 -71.26936 
L 262.472727 -47.97399 
L 260.781818 -56.543054 
L 259.090909 -64.686502 
L 257.4 -114.937537 
L 255.709091 -88.606108 
L 254.018182 -93.968867 
L 252.327273 -88.691232 
L 250.636364 -67.467192 
L 248.945455 -104.524138 
L 247.254545 -50.04532 
L 245.563636 -61.622069 
L 243.872727 -42.894975 
L 242.181818 -98.90601 
L 240.490909 -43.008473 
L 238.8 -88.237241 
L 237.109091 -64.8 
L 235.418182 -74.305419 
L 233.727273 -58.273892 
L 232.036364 -50.811429 
L 230.345455 -87.783251 
L 228.654545 -47.06601 
L 226.963636 -45.250049 
L 225.272727 -67.722562 
L 223.581818 -61.593695 
L 221.890909 -44.001576 
L 220.2 -48.286108 
L 218.509091 -44.909557 
L 216.818182 -95.274089 
L 215.127273 -49.392709 
L 213.436364 -42.299113 
L 211.745455 -42.66798 
L 210.054545 -91.500296 
L 208.363636 -43.12197 
L 206.672727 -49.931823 
L 204.981818 -61.281576 
L 203.290909 -113.603941 
L 201.6 -47.463251 
L 199.909091 -45.1933 
L 198.218182 -45.477044 
L 196.527273 -80.746404 
L 194.836364 -42.951724 
L 193.145455 -44.427192 
L 191.454545 -43.916453 
L 189.763636 -44.228571 
L 188.072727 -82.136749 
L 186.381818 -44.73931 
L 184.690909 -45.335172 
L 183 -45.477044 
L 181.309091 -98.65064 
L 179.618182 -49.13734 
L 177.927273 -49.13734 
L 176.236364 -48.796847 
L 174.545455 -108.723547 
L 172.854545 -48.399606 
L 171.163636 -48.342857 
L 169.472727 -48.456355 
L 167.781818 -105.772611 
L 166.090909 -48.768473 
L 164.4 -48.200985 
L 162.709091 -48.172611 
L 161.018182 -124.386207 
L 159.327273 -43.405714 
L 157.636364 -50.839803 
L 155.945455 -79.10069 
L 154.254545 -45.079803 
L 152.563636 -51.20867 
L 150.872727 -48.456355 
L 149.181818 -71.581478 
L 147.490909 -54.556847 
L 145.8 -54.89734 
L 144.109091 -53.421872 
L 142.418182 -123.875468 
L 140.727273 -46.555271 
L 139.036364 -49.704828 
L 137.345455 -55.748571 
L 135.654545 -104.921379 
L 133.963636 -56.003941 
L 132.272727 -55.776946 
L 130.581818 -59.465616 
L 128.890909 -88.74798 
L 127.2 -58.245517 
L 125.509091 -48.371232 
L 123.818182 -44.029951 
L 122.127273 -67.552315 
L 120.436364 -49.960197 
L 118.745455 -42.753103 
L 117.054545 -43.547586 
L 115.363636 -46.243153 
z
" style="stroke: #0000ff; stroke-width: 0.5"/>
    </defs>
    <g clip-path="url(#p8218e2b989)">
     <use xlink:href="#m846387067d" x="0" y="288" style="fill: #0000ff; stroke: #0000ff; stroke-width: 0.5"/>
    </g>
   </g>
   <g id="PolyCollection_3">
    <defs>
     <path id="mcdee6f0258" d="M 115.363636 -54.755468 
L 115.363636 -46.243153 
L 117.054545 -43.547586 
L 118.745455 -42.753103 
L 120.436364 -49.960197 
L 122.127273 -67.552315 
L 123.818182 -44.029951 
L 125.509091 -48.371232 
L 127.2 -58.245517 
L 128.890909 -88.74798 
L 130.581818 -59.465616 
L 132.272727 -55.776946 
L 133.963636 -56.003941 
L 135.654545 -104.921379 
L 137.345455 -55.748571 
L 139.036364 -49.704828 
L 140.727273 -46.555271 
L 142.418182 -123.875468 
L 144.109091 -53.421872 
L 145.8 -54.89734 
L 147.490909 -54.556847 
L 149.181818 -71.581478 
L 150.872727 -48.456355 
L 152.563636 -51.20867 
L 154.254545 -45.079803 
L 155.945455 -79.10069 
L 157.636364 -50.839803 
L 159.327273 -43.405714 
L 161.018182 -124.386207 
L 162.709091 -48.172611 
L 164.4 -48.200985 
L 166.090909 -48.768473 
L 167.781818 -105.772611 
L 169.472727 -48.456355 
L 171.163636 -48.342857 
L 172.854545 -48.399606 
L 174.545455 -108.723547 
L 176.236364 -48.796847 
L 177.927273 -49.13734 
L 179.618182 -49.13734 
L 181.309091 -98.65064 
L 183 -45.477044 
L 184.690909 -45.335172 
L 186.381818 -44.73931 
L 188.072727 -82.136749 
L 189.763636 -44.228571 
L 191.454545 -43.916453 
L 193.145455 -44.427192 
L 194.836364 -42.951724 
L 196.527273 -80.746404 
L 198.218182 -45.477044 
L 199.909091 -45.1933 
L 201.6 -47.463251 
L 203.290909 -113.603941 
L 204.981818 -61.281576 
L 206.672727 -49.931823 
L 208.363636 -43.12197 
L 210.054545 -91.500296 
L 211.745455 -42.66798 
L 213.436364 -42.299113 
L 215.127273 -49.392709 
L 216.818182 -95.274089 
L 218.509091 -44.909557 
L 220.2 -48.286108 
L 221.890909 -44.001576 
L 223.581818 -61.593695 
L 225.272727 -67.722562 
L 226.963636 -45.250049 
L 228.654545 -47.06601 
L 230.345455 -87.783251 
L 232.036364 -50.811429 
L 233.727273 -58.273892 
L 235.418182 -74.305419 
L 237.109091 -64.8 
L 238.8 -88.237241 
L 240.490909 -43.008473 
L 242.181818 -98.90601 
L 243.872727 -42.894975 
L 245.563636 -61.622069 
L 247.254545 -50.04532 
L 248.945455 -104.524138 
L 250.636364 -67.467192 
L 252.327273 -88.691232 
L 254.018182 -93.968867 
L 255.709091 -88.606108 
L 257.4 -114.937537 
L 259.090909 -64.686502 
L 260.781818 -56.543054 
L 262.472727 -47.97399 
L 264.163636 -71.26936 
L 265.854545 -42.46936 
L 267.545455 -45.817537 
L 269.236364 -47.236256 
L 270.927273 -71.46798 
L 272.618182 -43.774581 
L 274.309091 -81.824631 
L 276 -71.808473 
L 277.690909 -43.37734 
L 279.381818 -43.802956 
L 281.072727 -44.824433 
L 282.763636 -70.872118 
L 284.454545 -47.832118 
L 286.145455 -46.299901 
L 287.836364 -48.796847 
L 289.527273 -48.910345 
L 291.218182 -107.90069 
L 292.909091 -45.647291 
L 294.6 -58.529261 
L 296.290909 -45.079803 
L 297.981818 -63.097537 
L 299.672727 -50.272315 
L 301.363636 -58.671133 
L 303.054545 -56.202562 
L 304.745455 -80.122167 
L 306.436364 -58.075271 
L 308.127273 -61.792315 
L 309.818182 -60.515468 
L 311.509091 -72.205714 
L 313.2 -112.24197 
L 314.890909 -52.967882 
L 316.581818 -55.691823 
L 318.272727 -65.424236 
L 319.963636 -94.791724 
L 321.654545 -91.500296 
L 323.345455 -76.121379 
L 325.036364 -51.946404 
L 326.727273 -90.649064 
L 328.418182 -60.628966 
L 330.109091 -95.274089 
L 331.8 -47.576749 
L 333.490909 -46.413399 
L 335.181818 -46.867389 
L 336.872727 -88.322365 
L 338.563636 -56.486305 
L 340.254545 -45.221675 
L 341.945455 -44.228571 
L 343.636364 -81.427389 
L 345.327273 -44.370443 
L 347.018182 -44.313695 
L 348.709091 -46.129655 
L 350.4 -86.47803 
L 352.090909 -48.399606 
L 353.781818 -43.320591 
L 355.472727 -60.288473 
L 357.163636 -91.103054 
L 358.854545 -58.926502 
L 360.545455 -45.590542 
L 362.236364 -50.75468 
L 363.927273 -94.564729 
L 365.618182 -50.868177 
L 367.309091 -45.420296 
L 369 -137.097931 
L 370.690909 -44.796059 
L 372.381818 -45.108177 
L 374.072727 -82.335369 
L 375.763636 -50.981675 
L 377.454545 -52.315271 
L 379.145455 -58.359015 
L 380.836364 -97.090049 
L 382.527273 -51.010049 
L 384.218182 -48.286108 
L 385.909091 -87.414384 
L 387.6 -44.625813 
L 389.290909 -44.99468 
L 390.981818 -48.399606 
L 392.672727 -88.606108 
L 394.363636 -88.492611 
L 396.054545 -67.609064 
L 397.745455 -90.961182 
L 399.436364 -53.450246 
L 401.127273 -49.477833 
L 402.818182 -68.999409 
L 404.509091 -45.477044 
L 406.2 -86.903645 
L 407.890909 -74.645911 
L 409.581818 -48.257734 
L 411.272727 -48.371232 
L 412.963636 -45.505419 
L 414.654545 -51.804532 
L 416.345455 -61.622069 
L 418.036364 -51.804532 
L 419.727273 -110.199015 
L 421.418182 -83.158227 
L 423.109091 -82.306995 
L 424.8 -50.442562 
L 426.490909 -92.067783 
L 428.181818 -81.086897 
L 429.872727 -78.675074 
L 431.563636 -79.781675 
L 433.254545 -78.930443 
L 434.945455 -87.300887 
L 436.636364 -67.069951 
L 438.327273 -78.362956 
L 440.018182 -75.809261 
L 441.709091 -80.888276 
L 443.4 -42.440985 
L 445.090909 -42.66798 
L 446.781818 -84.463448 
L 448.472727 -75.355271 
L 450.163636 -52.82601 
L 451.854545 -70.673498 
L 453.545455 -105.091626 
L 455.236364 -63.948768 
L 456.927273 -48.513103 
L 458.618182 -49.165714 
L 460.309091 -76.490246 
L 462 -55.493202 
L 463.690909 -44.966305 
L 465.381818 -47.746995 
L 467.072727 -89.996453 
L 468.763636 -44.115074 
L 470.454545 -84.349951 
L 472.145455 -73.227192 
L 473.836364 -51.435665 
L 475.527273 -99.81399 
L 477.218182 -91.784039 
L 478.909091 -82.023251 
L 480.6 -105.857734 
L 482.290909 -73.53931 
L 483.981818 -66.928079 
L 485.672727 -52.201773 
L 487.363636 -55.237833 
L 489.054545 -51.151921 
L 490.745455 -85.825419 
L 492.436364 -53.620493 
L 494.127273 -59.380493 
L 495.818182 -78.504828 
L 497.509091 -42.497734 
L 499.2 -42.526108 
L 500.890909 -120.300296 
L 502.581818 -47.576749 
L 504.272727 -85.087685 
L 505.963636 -65.50936 
L 507.654545 -49.279212 
L 509.345455 -59.806108 
L 511.036364 -106.708966 
L 512.727273 -42.980099 
L 514.418182 -68.573793 
L 516.109091 -62.530049 
L 517.8 -50.187192 
L 519.490909 -43.717833 
L 521.181818 -43.008473 
L 522.872727 -65.991724 
L 524.563636 -42.412611 
L 526.254545 -42.980099 
L 527.945455 -42.611232 
L 529.636364 -74.24867 
L 531.327273 -125.237438 
L 533.018182 -105.545616 
L 534.709091 -100.948966 
L 536.4 -59.834483 
L 538.090909 -58.58601 
L 539.781818 -53.336749 
L 541.472727 -107.475074 
L 543.163636 -50.641182 
L 544.854545 -43.065222 
L 546.545455 -65.934975 
L 548.236364 -68.091429 
L 549.927273 -60.827586 
L 551.618182 -101.6867 
L 553.309091 -64.317635 
L 555 -46.044532 
L 556.690909 -93.826995 
L 558.381818 -52.996256 
L 560.072727 -134.232118 
L 561.763636 -44.54069 
L 563.454545 -69.453399 
L 565.145455 -49.392709 
L 566.836364 -88.379113 
L 568.527273 -75.497143 
L 570.218182 -52.882759 
L 571.909091 -73.567685 
L 573.6 -47.888867 
L 575.290909 -43.689458 
L 576.981818 -45.675665 
L 578.672727 -111.33399 
L 580.363636 -89.826207 
L 582.054545 -94.621478 
L 583.745455 -88.435862 
L 585.436364 -100.608473 
L 587.127273 -50.556059 
L 588.818182 -70.673498 
L 590.509091 -61.763941 
L 592.2 -98.253399 
L 593.890909 -50.641182 
L 595.581818 -115.306404 
L 597.272727 -102.991921 
L 598.963636 -54.528473 
L 600.654545 -51.293793 
L 602.345455 -54.556847 
L 604.036364 -105.57399 
L 605.727273 -42.497734 
L 607.418182 -44.200197 
L 609.109091 -50.9533 
L 610.8 -106.198227 
L 612.490909 -45.278424 
L 614.181818 -44.0867 
L 615.872727 -66.020099 
L 617.563636 -53.166502 
L 619.254545 -66.984828 
L 620.945455 -78.816946 
L 622.636364 -41.76 
L 622.636364 -41.845123 
L 622.636364 -41.845123 
L 620.945455 -147.653202 
L 619.254545 -153.441576 
L 617.563636 -108.269557 
L 615.872727 -82.53399 
L 614.181818 -59.834483 
L 612.490909 -69.65202 
L 610.8 -131.536552 
L 609.109091 -93.826995 
L 607.418182 -55.152709 
L 605.727273 -73.369064 
L 604.036364 -139.793498 
L 602.345455 -115.902266 
L 600.654545 -106.226601 
L 598.963636 -103.020296 
L 597.272727 -133.693005 
L 595.581818 -151.597241 
L 593.890909 -125.606305 
L 592.2 -141.978325 
L 590.509091 -108.070936 
L 588.818182 -114.710542 
L 587.127273 -91.415172 
L 585.436364 -157.782857 
L 583.745455 -187.292217 
L 582.054545 -194.641182 
L 580.363636 -184.766897 
L 578.672727 -150.235271 
L 576.981818 -95.415961 
L 575.290909 -78.448079 
L 573.6 -90.1667 
L 571.909091 -92.635271 
L 570.218182 -76.376749 
L 568.527273 -93.259507 
L 566.836364 -125.8333 
L 565.145455 -86.534778 
L 563.454545 -112.24197 
L 561.763636 -75.86601 
L 560.072727 -171.090443 
L 558.381818 -95.160591 
L 556.690909 -116.015764 
L 555 -60.033103 
L 553.309091 -86.648276 
L 551.618182 -137.012808 
L 549.927273 -135.168473 
L 548.236364 -111.504236 
L 546.545455 -105.176749 
L 544.854545 -75.241773 
L 543.163636 -104.21202 
L 541.472727 -188.398818 
L 539.781818 -110.823251 
L 538.090909 -119.817931 
L 536.4 -129.550345 
L 534.709091 -183.404926 
L 533.018182 -174.892611 
L 531.327273 -154.746798 
L 529.636364 -124.329458 
L 527.945455 -62.217931 
L 526.254545 -55.975567 
L 524.563636 -55.237833 
L 522.872727 -85.05931 
L 521.181818 -60.855961 
L 519.490909 -61.792315 
L 517.8 -77.908966 
L 516.109091 -106.02798 
L 514.418182 -78.873695 
L 512.727273 -50.9533 
L 511.036364 -119.505813 
L 509.345455 -93.798621 
L 507.654545 -86.705025 
L 505.963636 -131.791921 
L 504.272727 -195.549163 
L 502.581818 -108.439803 
L 500.890909 -152.079606 
L 499.2 -44.370443 
L 497.509091 -44.28532 
L 495.818182 -87.13064 
L 494.127273 -78.618325 
L 492.436364 -86.903645 
L 490.745455 -127.025025 
L 489.054545 -84.208079 
L 487.363636 -88.29399 
L 485.672727 -80.122167 
L 483.981818 -117.916847 
L 482.290909 -243.36 
L 480.6 -210.360591 
L 478.909091 -184.341281 
L 477.218182 -157.272118 
L 475.527273 -155.683153 
L 473.836364 -70.020887 
L 472.145455 -107.588571 
L 470.454545 -111.475862 
L 468.763636 -52.173399 
L 467.072727 -98.423645 
L 465.381818 -71.01399 
L 463.690909 -64.771626 
L 462 -110.993498 
L 460.309091 -104.070148 
L 458.618182 -75.270148 
L 456.927273 -70.162759 
L 455.236364 -95.21734 
L 453.545455 -231.159015 
L 451.854545 -112.298719 
L 450.163636 -95.728079 
L 448.472727 -166.437044 
L 446.781818 -122.712118 
L 445.090909 -45.931034 
L 443.4 -44.001576 
L 441.709091 -102.083941 
L 440.018182 -161.55665 
L 438.327273 -173.842759 
L 436.636364 -155.257537 
L 434.945455 -141.382463 
L 433.254545 -135.480591 
L 431.563636 -124.47133 
L 429.872727 -143.879409 
L 428.181818 -128.245123 
L 426.490909 -125.18069 
L 424.8 -81.17202 
L 423.109091 -105.82936 
L 421.418182 -135.650837 
L 419.727273 -161.499901 
L 418.036364 -88.861478 
L 416.345455 -81.030148 
L 414.654545 -70.247882 
L 412.963636 -54.329852 
L 411.272727 -60.033103 
L 409.581818 -77.908966 
L 407.890909 -115.760394 
L 406.2 -100.665222 
L 404.509091 -61.11133 
L 402.818182 -91.244926 
L 401.127273 -77.908966 
L 399.436364 -98.820887 
L 397.745455 -124.074089 
L 396.054545 -94.734975 
L 394.363636 -118.030345 
L 392.672727 -105.659113 
L 390.981818 -62.757044 
L 389.290909 -52.37202 
L 387.6 -53.648867 
L 385.909091 -95.188966 
L 384.218182 -86.194286 
L 382.527273 -92.096158 
L 380.836364 -144.759015 
L 379.145455 -115.788768 
L 377.454545 -93.032512 
L 375.763636 -71.26936 
L 374.072727 -151.426995 
L 372.381818 -124.130837 
L 370.690909 -133.749754 
L 369 -153.072709 
L 367.309091 -78.84532 
L 365.618182 -91.98266 
L 363.927273 -155.285911 
L 362.236364 -99.899113 
L 360.545455 -84.066207 
L 358.854545 -113.121576 
L 357.163636 -134.118621 
L 355.472727 -105.602365 
L 353.781818 -74.844532 
L 352.090909 -97.771034 
L 350.4 -129.720591 
L 348.709091 -87.669754 
L 347.018182 -81.313892 
L 345.327273 -80.122167 
L 343.636364 -111.021872 
L 341.945455 -72.347586 
L 340.254545 -72.744828 
L 338.563636 -104.41064 
L 336.872727 -121.406897 
L 335.181818 -80.178916 
L 333.490909 -70.020887 
L 331.8 -77.454975 
L 330.109091 -129.209852 
L 328.418182 -104.949754 
L 326.727273 -139.878621 
L 325.036364 -100.807094 
L 323.345455 -152.306601 
L 321.654545 -125.152315 
L 319.963636 -141.070345 
L 318.272727 -116.696749 
L 316.581818 -78.419704 
L 314.890909 -83.24335 
L 313.2 -159.74069 
L 311.509091 -111.873103 
L 309.818182 -91.471921 
L 308.127273 -91.557044 
L 306.436364 -82.732611 
L 304.745455 -110.709754 
L 303.054545 -79.497931 
L 301.363636 -104.041773 
L 299.672727 -83.186601 
L 297.981818 -79.611429 
L 296.290909 -60.260099 
L 294.6 -124.92532 
L 292.909091 -72.461084 
L 291.218182 -119.278818 
L 289.527273 -55.095961 
L 287.836364 -56.96867 
L 286.145455 -71.01399 
L 284.454545 -83.69734 
L 282.763636 -85.598424 
L 281.072727 -51.66266 
L 279.381818 -51.350542 
L 277.690909 -51.322167 
L 276 -112.809458 
L 274.309091 -117.320985 
L 272.618182 -52.343645 
L 270.927273 -82.08 
L 269.236364 -70.531626 
L 267.545455 -64.005517 
L 265.854545 -44.28532 
L 264.163636 -83.924335 
L 262.472727 -83.073103 
L 260.781818 -97.175172 
L 259.090909 -121.69064 
L 257.4 -178.950148 
L 255.709091 -205.763941 
L 254.018182 -195.91803 
L 252.327273 -198.613596 
L 250.636364 -135.253596 
L 248.945455 -173.757635 
L 247.254545 -97.146798 
L 245.563636 -78.873695 
L 243.872727 -56.940296 
L 242.181818 -102.963547 
L 240.490909 -47.009261 
L 238.8 -148.305813 
L 237.109091 -109.51803 
L 235.418182 -144.191527 
L 233.727273 -124.556453 
L 232.036364 -85.371429 
L 230.345455 -98.622266 
L 228.654545 -80.547783 
L 226.963636 -66.474089 
L 225.272727 -94.025616 
L 223.581818 -68.687291 
L 221.890909 -58.58601 
L 220.2 -68.517044 
L 218.509091 -51.719409 
L 216.818182 -142.262069 
L 215.127273 -153.413202 
L 213.436364 -129.06798 
L 211.745455 -112.24197 
L 210.054545 -144.446897 
L 208.363636 -98.65064 
L 206.672727 -105.148374 
L 204.981818 -135.53734 
L 203.290909 -150.405517 
L 201.6 -84.264828 
L 199.909091 -88.350739 
L 198.218182 -90.904433 
L 196.527273 -111.646108 
L 194.836364 -73.908177 
L 193.145455 -81.115271 
L 191.454545 -79.980296 
L 189.763636 -73.737931 
L 188.072727 -118.342463 
L 186.381818 -84.349951 
L 184.690909 -88.066995 
L 183 -88.066995 
L 181.309091 -151.483744 
L 179.618182 -126.287291 
L 177.927273 -129.039606 
L 176.236364 -127.507389 
L 174.545455 -177.417931 
L 172.854545 -130.628571 
L 171.163636 -127.791133 
L 169.472727 -123.960591 
L 167.781818 -176.481576 
L 166.090909 -127.564138 
L 164.4 -133.125517 
L 162.709091 -126.258916 
L 161.018182 -146.120985 
L 159.327273 -49.023842 
L 157.636364 -81.030148 
L 155.945455 -125.549557 
L 154.254545 -57.706404 
L 152.563636 -88.066995 
L 150.872727 -72.262463 
L 149.181818 -105.687488 
L 147.490909 -132.047291 
L 145.8 -130.883941 
L 144.109091 -132.444532 
L 142.418182 -195.492414 
L 140.727273 -111.135369 
L 139.036364 -130.571823 
L 137.345455 -132.75665 
L 135.654545 -194.49931 
L 133.963636 -135.565714 
L 132.272727 -147.227586 
L 130.581818 -136.89931 
L 128.890909 -167.231527 
L 127.2 -130.146207 
L 125.509091 -88.861478 
L 123.818182 -65.764729 
L 122.127273 -99.274877 
L 120.436364 -53.677241 
L 118.745455 -44.200197 
L 117.054545 -45.760788 
L 115.363636 -54.755468 
z
" style="stroke: #008000; stroke-width: 0.5"/>
    </defs>
    <g clip-path="url(#p8218e2b989)">
     <use xlink:href="#mcdee6f0258" x="0" y="288" style="fill: #008000; stroke: #008000; stroke-width: 0.5"/>
    </g>
   </g>
   <g id="line2d_28">
    <path d="M 90 44.64 
L 648 44.64 
" clip-path="url(#p8218e2b989)" style="fill: none; stroke: #000000; stroke-width: 1.5; stroke-linecap: square"/>
   </g>
   <g id="line2d_29">
    <path d="M 90 181.035665 
L 648 181.035665 
" clip-path="url(#p8218e2b989)" style="fill: none; stroke: #000000; stroke-width: 1.5; stroke-linecap: square"/>
   </g>
   <g id="patch_3">
    <path d="M 90 256.32 
L 90 34.56 
" style="fill: none; stroke: #000000; stroke-width: 0.8; stroke-linejoin: miter; stroke-linecap: square"/>
   </g>
   <g id="patch_4">
    <path d="M 648 256.32 
L 648 34.56 
" style="fill: none; stroke: #000000; stroke-width: 0.8; stroke-linejoin: miter; stroke-linecap: square"/>
   </g>
   <g id="patch_5">
    <path d="M 90 256.32 
L 648 256.32 
" style="fill: none; stroke: #000000; stroke-width: 0.8; stroke-linejoin: miter; stroke-linecap: square"/>
   </g>
   <g id="patch_6">
    <path d="M 90 34.56 
L 648 34.56 
" style="fill: none; stroke: #000000; stroke-width: 0.8; stroke-linejoin: miter; stroke-linecap: square"/>
   </g>
   <g id="text_22">
    <!-- peak (7,105) -->
    <g transform="translate(122.179233 41.3136) scale(0.1 -0.1)">
     <defs>
      <path id="DejaVuSans-Bold-70" d="M 1656 506 
L 1656 -1331 
L 538 -1331 
L 538 3500 
L 1656 3500 
L 1656 2988 
Q 1888 3294 2169 3439 
Q 2450 3584 2816 3584 
Q 3463 3584 3878 3070 
Q 4294 2556 4294 1747 
Q 4294 938 3878 423 
Q 3463 -91 2816 -91 
Q 2450 -91 2169 54 
Q 1888 200 1656 506 
z
M 2400 2772 
Q 2041 2772 1848 2508 
Q 1656 2244 1656 1747 
Q 1656 1250 1848 986 
Q 2041 722 2400 722 
Q 2759 722 2948 984 
Q 3138 1247 3138 1747 
Q 3138 2247 2948 2509 
Q 2759 2772 2400 2772 
z
" transform="scale(0.015625)"/>
      <path id="DejaVuSans-Bold-65" d="M 4031 1759 
L 4031 1441 
L 1416 1441 
Q 1456 1047 1700 850 
Q 1944 653 2381 653 
Q 2734 653 3104 758 
Q 3475 863 3866 1075 
L 3866 213 
Q 3469 63 3072 -14 
Q 2675 -91 2278 -91 
Q 1328 -91 801 392 
Q 275 875 275 1747 
Q 275 2603 792 3093 
Q 1309 3584 2216 3584 
Q 3041 3584 3536 3087 
Q 4031 2591 4031 1759 
z
M 2881 2131 
Q 2881 2450 2695 2645 
Q 2509 2841 2209 2841 
Q 1884 2841 1681 2658 
Q 1478 2475 1428 2131 
L 2881 2131 
z
" transform="scale(0.015625)"/>
      <path id="DejaVuSans-Bold-61" d="M 2106 1575 
Q 1756 1575 1579 1456 
Q 1403 1338 1403 1106 
Q 1403 894 1545 773 
Q 1688 653 1941 653 
Q 2256 653 2472 879 
Q 2688 1106 2688 1447 
L 2688 1575 
L 2106 1575 
z
M 3816 1997 
L 3816 0 
L 2688 0 
L 2688 519 
Q 2463 200 2181 54 
Q 1900 -91 1497 -91 
Q 953 -91 614 226 
Q 275 544 275 1050 
Q 275 1666 698 1953 
Q 1122 2241 2028 2241 
L 2688 2241 
L 2688 2328 
Q 2688 2594 2478 2717 
Q 2269 2841 1825 2841 
Q 1466 2841 1156 2769 
Q 847 2697 581 2553 
L 581 3406 
Q 941 3494 1303 3539 
Q 1666 3584 2028 3584 
Q 2975 3584 3395 3211 
Q 3816 2838 3816 1997 
z
" transform="scale(0.015625)"/>
      <path id="DejaVuSans-Bold-6b" d="M 538 4863 
L 1656 4863 
L 1656 2216 
L 2944 3500 
L 4244 3500 
L 2534 1894 
L 4378 0 
L 3022 0 
L 1656 1459 
L 1656 0 
L 538 0 
L 538 4863 
z
" transform="scale(0.015625)"/>
      <path id="DejaVuSans-Bold-20" transform="scale(0.015625)"/>
      <path id="DejaVuSans-Bold-28" d="M 2413 -844 
L 1484 -844 
Q 1006 -72 778 623 
Q 550 1319 550 2003 
Q 550 2688 779 3389 
Q 1009 4091 1484 4856 
L 2413 4856 
Q 2013 4116 1813 3408 
Q 1613 2700 1613 2009 
Q 1613 1319 1811 609 
Q 2009 -100 2413 -844 
z
" transform="scale(0.015625)"/>
      <path id="DejaVuSans-Bold-37" d="M 428 4666 
L 3944 4666 
L 3944 3988 
L 2125 0 
L 953 0 
L 2675 3781 
L 428 3781 
L 428 4666 
z
" transform="scale(0.015625)"/>
      <path id="DejaVuSans-Bold-2c" d="M 653 1209 
L 1778 1209 
L 1778 256 
L 1006 -909 
L 341 -909 
L 653 256 
L 653 1209 
z
" transform="scale(0.015625)"/>
      <path id="DejaVuSans-Bold-31" d="M 750 831 
L 1813 831 
L 1813 3847 
L 722 3622 
L 722 4441 
L 1806 4666 
L 2950 4666 
L 2950 831 
L 4013 831 
L 4013 0 
L 750 0 
L 750 831 
z
" transform="scale(0.015625)"/>
      <path id="DejaVuSans-Bold-30" d="M 2944 2338 
Q 2944 3213 2780 3570 
Q 2616 3928 2228 3928 
Q 1841 3928 1675 3570 
Q 1509 3213 1509 2338 
Q 1509 1453 1675 1090 
Q 1841 728 2228 728 
Q 2613 728 2778 1090 
Q 2944 1453 2944 2338 
z
M 4147 2328 
Q 4147 1169 3647 539 
Q 3147 -91 2228 -91 
Q 1306 -91 806 539 
Q 306 1169 306 2328 
Q 306 3491 806 4120 
Q 1306 4750 2228 4750 
Q 3147 4750 3647 4120 
Q 4147 3491 4147 2328 
z
" transform="scale(0.015625)"/>
      <path id="DejaVuSans-Bold-35" d="M 678 4666 
L 3669 4666 
L 3669 3781 
L 1638 3781 
L 1638 3059 
Q 1775 3097 1914 3117 
Q 2053 3138 2203 3138 
Q 3056 3138 3531 2711 
Q 4006 2284 4006 1522 
Q 4006 766 3489 337 
Q 2972 -91 2053 -91 
Q 1656 -91 1267 -14 
Q 878 63 494 219 
L 494 1166 
Q 875 947 1217 837 
Q 1559 728 1863 728 
Q 2300 728 2551 942 
Q 2803 1156 2803 1522 
Q 2803 1891 2551 2103 
Q 2300 2316 1863 2316 
Q 1603 2316 1309 2248 
Q 1016 2181 678 2041 
L 678 4666 
z
" transform="scale(0.015625)"/>
      <path id="DejaVuSans-Bold-29" d="M 513 -844 
Q 913 -100 1113 609 
Q 1313 1319 1313 2009 
Q 1313 2700 1113 3408 
Q 913 4116 513 4856 
L 1441 4856 
Q 1916 4091 2145 3389 
Q 2375 2688 2375 2003 
Q 2375 1319 2147 623 
Q 1919 -72 1441 -844 
L 513 -844 
z
" transform="scale(0.015625)"/>
     </defs>
     <use xlink:href="#DejaVuSans-Bold-70"/>
     <use xlink:href="#DejaVuSans-Bold-65" x="71.582031"/>
     <use xlink:href="#DejaVuSans-Bold-61" x="139.404297"/>
     <use xlink:href="#DejaVuSans-Bold-6b" x="206.884766"/>
     <use xlink:href="#DejaVuSans-Bold-20" x="273.388672"/>
     <use xlink:href="#DejaVuSans-Bold-28" x="308.203125"/>
     <use xlink:href="#DejaVuSans-Bold-37" x="353.90625"/>
     <use xlink:href="#DejaVuSans-Bold-2c" x="423.486328"/>
     <use xlink:href="#DejaVuSans-Bold-31" x="461.474609"/>
     <use xlink:href="#DejaVuSans-Bold-30" x="531.054688"/>
     <use xlink:href="#DejaVuSans-Bold-35" x="600.634766"/>
     <use xlink:href="#DejaVuSans-Bold-29" x="670.214844"/>
    </g>
   </g>
   <g id="text_23">
    <!-- mean (2,298) -->
    <g transform="translate(567.728153 177.709265) scale(0.1 -0.1)">
     <defs>
      <path id="DejaVuSans-Bold-6d" d="M 3781 2919 
Q 3994 3244 4286 3414 
Q 4578 3584 4928 3584 
Q 5531 3584 5847 3212 
Q 6163 2841 6163 2131 
L 6163 0 
L 5038 0 
L 5038 1825 
Q 5041 1866 5042 1909 
Q 5044 1953 5044 2034 
Q 5044 2406 4934 2573 
Q 4825 2741 4581 2741 
Q 4263 2741 4089 2478 
Q 3916 2216 3909 1719 
L 3909 0 
L 2784 0 
L 2784 1825 
Q 2784 2406 2684 2573 
Q 2584 2741 2328 2741 
Q 2006 2741 1831 2477 
Q 1656 2213 1656 1722 
L 1656 0 
L 531 0 
L 531 3500 
L 1656 3500 
L 1656 2988 
Q 1863 3284 2130 3434 
Q 2397 3584 2719 3584 
Q 3081 3584 3359 3409 
Q 3638 3234 3781 2919 
z
" transform="scale(0.015625)"/>
      <path id="DejaVuSans-Bold-6e" d="M 4056 2131 
L 4056 0 
L 2931 0 
L 2931 347 
L 2931 1631 
Q 2931 2084 2911 2256 
Q 2891 2428 2841 2509 
Q 2775 2619 2662 2680 
Q 2550 2741 2406 2741 
Q 2056 2741 1856 2470 
Q 1656 2200 1656 1722 
L 1656 0 
L 538 0 
L 538 3500 
L 1656 3500 
L 1656 2988 
Q 1909 3294 2193 3439 
Q 2478 3584 2822 3584 
Q 3428 3584 3742 3212 
Q 4056 2841 4056 2131 
z
" transform="scale(0.015625)"/>
      <path id="DejaVuSans-Bold-32" d="M 1844 884 
L 3897 884 
L 3897 0 
L 506 0 
L 506 884 
L 2209 2388 
Q 2438 2594 2547 2791 
Q 2656 2988 2656 3200 
Q 2656 3528 2436 3728 
Q 2216 3928 1850 3928 
Q 1569 3928 1234 3808 
Q 900 3688 519 3450 
L 519 4475 
Q 925 4609 1322 4679 
Q 1719 4750 2100 4750 
Q 2938 4750 3402 4381 
Q 3866 4013 3866 3353 
Q 3866 2972 3669 2642 
Q 3472 2313 2841 1759 
L 1844 884 
z
" transform="scale(0.015625)"/>
      <path id="DejaVuSans-Bold-39" d="M 641 103 
L 641 966 
Q 928 831 1190 764 
Q 1453 697 1709 697 
Q 2247 697 2547 995 
Q 2847 1294 2900 1881 
Q 2688 1725 2447 1647 
Q 2206 1569 1925 1569 
Q 1209 1569 770 1986 
Q 331 2403 331 3084 
Q 331 3838 820 4291 
Q 1309 4744 2131 4744 
Q 3044 4744 3544 4128 
Q 4044 3513 4044 2388 
Q 4044 1231 3459 570 
Q 2875 -91 1856 -91 
Q 1528 -91 1228 -42 
Q 928 6 641 103 
z
M 2125 2350 
Q 2441 2350 2600 2554 
Q 2759 2759 2759 3169 
Q 2759 3575 2600 3781 
Q 2441 3988 2125 3988 
Q 1809 3988 1650 3781 
Q 1491 3575 1491 3169 
Q 1491 2759 1650 2554 
Q 1809 2350 2125 2350 
z
" transform="scale(0.015625)"/>
      <path id="DejaVuSans-Bold-38" d="M 2228 2088 
Q 1891 2088 1709 1903 
Q 1528 1719 1528 1375 
Q 1528 1031 1709 848 
Q 1891 666 2228 666 
Q 2563 666 2741 848 
Q 2919 1031 2919 1375 
Q 2919 1722 2741 1905 
Q 2563 2088 2228 2088 
z
M 1350 2484 
Q 925 2613 709 2878 
Q 494 3144 494 3541 
Q 494 4131 934 4440 
Q 1375 4750 2228 4750 
Q 3075 4750 3515 4442 
Q 3956 4134 3956 3541 
Q 3956 3144 3739 2878 
Q 3522 2613 3097 2484 
Q 3572 2353 3814 2058 
Q 4056 1763 4056 1313 
Q 4056 619 3595 264 
Q 3134 -91 2228 -91 
Q 1319 -91 855 264 
Q 391 619 391 1313 
Q 391 1763 633 2058 
Q 875 2353 1350 2484 
z
M 1631 3419 
Q 1631 3141 1786 2991 
Q 1941 2841 2228 2841 
Q 2509 2841 2662 2991 
Q 2816 3141 2816 3419 
Q 2816 3697 2662 3845 
Q 2509 3994 2228 3994 
Q 1941 3994 1786 3844 
Q 1631 3694 1631 3419 
z
" transform="scale(0.015625)"/>
     </defs>
     <use xlink:href="#DejaVuSans-Bold-6d"/>
     <use xlink:href="#DejaVuSans-Bold-65" x="104.199219"/>
     <use xlink:href="#DejaVuSans-Bold-61" x="172.021484"/>
     <use xlink:href="#DejaVuSans-Bold-6e" x="239.501953"/>
     <use xlink:href="#DejaVuSans-Bold-20" x="310.693359"/>
     <use xlink:href="#DejaVuSans-Bold-28" x="345.507812"/>
     <use xlink:href="#DejaVuSans-Bold-32" x="391.210938"/>
     <use xlink:href="#DejaVuSans-Bold-2c" x="460.791016"/>
     <use xlink:href="#DejaVuSans-Bold-32" x="498.779297"/>
     <use xlink:href="#DejaVuSans-Bold-39" x="568.359375"/>
     <use xlink:href="#DejaVuSans-Bold-38" x="637.939453"/>
     <use xlink:href="#DejaVuSans-Bold-29" x="707.519531"/>
    </g>
   </g>
   <g id="text_24">
    <!-- Stream Bitrate over Time -->
    <g transform="translate(293.189062 28.56) scale(0.12 -0.12)">
     <defs>
      <path id="DejaVuSans-53" d="M 3425 4513 
L 3425 3897 
Q 3066 4069 2747 4153 
Q 2428 4238 2131 4238 
Q 1616 4238 1336 4038 
Q 1056 3838 1056 3469 
Q 1056 3159 1242 3001 
Q 1428 2844 1947 2747 
L 2328 2669 
Q 3034 2534 3370 2195 
Q 3706 1856 3706 1288 
Q 3706 609 3251 259 
Q 2797 -91 1919 -91 
Q 1588 -91 1214 -16 
Q 841 59 441 206 
L 441 856 
Q 825 641 1194 531 
Q 1563 422 1919 422 
Q 2459 422 2753 634 
Q 3047 847 3047 1241 
Q 3047 1584 2836 1778 
Q 2625 1972 2144 2069 
L 1759 2144 
Q 1053 2284 737 2584 
Q 422 2884 422 3419 
Q 422 4038 858 4394 
Q 1294 4750 2059 4750 
Q 2388 4750 2728 4690 
Q 3069 4631 3425 4513 
z
" transform="scale(0.015625)"/>
      <path id="DejaVuSans-6f" d="M 1959 3097 
Q 1497 3097 1228 2736 
Q 959 2375 959 1747 
Q 959 1119 1226 758 
Q 1494 397 1959 397 
Q 2419 397 2687 759 
Q 2956 1122 2956 1747 
Q 2956 2369 2687 2733 
Q 2419 3097 1959 3097 
z
M 1959 3584 
Q 2709 3584 3137 3096 
Q 3566 2609 3566 1747 
Q 3566 888 3137 398 
Q 2709 -91 1959 -91 
Q 1206 -91 779 398 
Q 353 888 353 1747 
Q 353 2609 779 3096 
Q 1206 3584 1959 3584 
z
" transform="scale(0.015625)"/>
      <path id="DejaVuSans-76" d="M 191 3500 
L 800 3500 
L 1894 563 
L 2988 3500 
L 3597 3500 
L 2284 0 
L 1503 0 
L 191 3500 
z
" transform="scale(0.015625)"/>
     </defs>
     <use xlink:href="#DejaVuSans-53"/>
     <use xlink:href="#DejaVuSans-74" x="63.476562"/>
     <use xlink:href="#DejaVuSans-72" x="102.685547"/>
     <use xlink:href="#DejaVuSans-65" x="141.548828"/>
     <use xlink:href="#DejaVuSans-61" x="203.072266"/>
     <use xlink:href="#DejaVuSans-6d" x="264.351562"/>
     <use xlink:href="#DejaVuSans-20" x="361.763672"/>
     <use xlink:href="#DejaVuSans-42" x="393.550781"/>
     <use xlink:href="#DejaVuSans-69" x="462.154297"/>
     <use xlink:href="#DejaVuSans-74" x="489.9375"/>
     <use xlink:href="#DejaVuSans-72" x="529.146484"/>
     <use xlink:href="#DejaVuSans-61" x="570.259766"/>
     <use xlink:href="#DejaVuSans-74" x="631.539062"/>
     <use xlink:href="#DejaVuSans-65" x="670.748047"/>
     <use xlink:href="#DejaVuSans-20" x="732.271484"/>
     <use xlink:href="#DejaVuSans-6f" x="764.058594"/>
     <use xlink:href="#DejaVuSans-76" x="825.240234"/>
     <use xlink:href="#DejaVuSans-65" x="884.419922"/>
     <use xlink:href="#DejaVuSans-72" x="945.943359"/>
     <use xlink:href="#DejaVuSans-20" x="987.056641"/>
     <use xlink:href="#DejaVuSans-54" x="1018.84375"/>
     <use xlink:href="#DejaVuSans-69" x="1076.802734"/>
     <use xlink:href="#DejaVuSans-6d" x="1104.585938"/>
     <use xlink:href="#DejaVuSans-65" x="1201.998047"/>
    </g>
   </g>
   <g id="legend_1">
    <g id="patch_7">
     <path d="M 602.139063 86.594375 
L 641 86.594375 
Q 643 86.594375 643 84.594375 
L 643 41.56 
Q 643 39.56 641 39.56 
L 602.139063 39.56 
Q 600.139063 39.56 600.139063 41.56 
L 600.139063 84.594375 
Q 600.139063 86.594375 602.139063 86.594375 
z
" style="fill: #ffffff; opacity: 0.8; stroke: #cccccc; stroke-linejoin: miter"/>
    </g>
    <g id="patch_8">
     <path d="M 604.139063 51.158438 
L 624.139063 51.158438 
L 624.139063 44.158438 
L 604.139063 44.158438 
z
" style="fill: #ff0000; stroke: #ff0000; stroke-width: 0.5; stroke-linejoin: miter"/>
    </g>
    <g id="text_25">
     <!-- I -->
     <g transform="translate(632.139063 51.158438) scale(0.1 -0.1)">
      <defs>
       <path id="DejaVuSans-49" d="M 628 4666 
L 1259 4666 
L 1259 0 
L 628 0 
L 628 4666 
z
" transform="scale(0.015625)"/>
      </defs>
      <use xlink:href="#DejaVuSans-49"/>
     </g>
    </g>
    <g id="patch_9">
     <path d="M 604.139063 65.836563 
L 624.139063 65.836563 
L 624.139063 58.836563 
L 604.139063 58.836563 
z
" style="fill: #0000ff; stroke: #0000ff; stroke-width: 0.5; stroke-linejoin: miter"/>
    </g>
    <g id="text_26">
     <!-- B -->
     <g transform="translate(632.139063 65.836563) scale(0.1 -0.1)">
      <use xlink:href="#DejaVuSans-42"/>
     </g>
    </g>
    <g id="patch_10">
     <path d="M 604.139063 80.514688 
L 624.139063 80.514688 
L 624.139063 73.514688 
L 604.139063 73.514688 
z
" style="fill: #008000; stroke: #008000; stroke-width: 0.5; stroke-linejoin: miter"/>
    </g>
    <g id="text_27">
     <!-- P -->
     <g transform="translate(632.139063 80.514688) scale(0.1 -0.1)">
      <defs>
       <path id="DejaVuSans-50" d="M 1259 4147 
L 1259 2394 
L 2053 2394 
Q 2494 2394 2734 2622 
Q 2975 2850 2975 3272 
Q 2975 3691 2734 3919 
Q 2494 4147 2053 4147 
L 1259 4147 
z
M 628 4666 
L 2053 4666 
Q 2838 4666 3239 4311 
Q 3641 3956 3641 3272 
Q 3641 2581 3239 2228 
Q 2838 1875 2053 1875 
L 1259 1875 
L 1259 0 
L 628 0 
L 628 4666 
z
" transform="scale(0.015625)"/>
      </defs>
      <use xlink:href="#DejaVuSans-50"/>
     </g>
    </g>
   </g>
  </g>
 </g>
 <defs>
  <clipPath id="p8218e2b989">
   <rect x="90" y="34.56" width="558" height="221.76"/>
  </clipPath>
 </defs>
</svg>
