<?xml version="1.0" encoding="utf-8" standalone="no"?>
<!DOCTYPE svg PUBLIC "-//W3C//DTD SVG 1.1//EN"
  "http://www.w3.org/Graphics/SVG/1.1/DTD/svg11.dtd">
<svg xmlns:xlink="http://www.w3.org/1999/xlink" width="720pt" height="288pt" viewBox="0 0 720 288" xmlns="http://www.w3.org/2000/svg" version="1.1">
 <metadata>
  <rdf:RDF xmlns:dc="http://purl.org/dc/elements/1.1/" xmlns:cc="http://creativecommons.org/ns#" xmlns:rdf="http://www.w3.org/1999/02/22-rdf-syntax-ns#">
   <cc:Work>
    <dc:type rdf:resource="http://purl.org/dc/dcmitype/StillImage"/>
    <dc:date>2023-05-07T01:59:21.063448</dc:date>
    <dc:format>image/svg+xml</dc:format>
    <dc:creator>
     <cc:Agent>
      <dc:title>Matplotlib v3.7.1, https://matplotlib.org/</dc:title>
     </cc:Agent>
    </dc:creator>
   </cc:Work>
  </rdf:RDF>
 </metadata>
 <defs>
  <style type="text/css">*{stroke-linejoin: round; stroke-linecap: butt}</style>
 </defs>
 <g id="figure_1">
  <g id="patch_1">
   <path d="M 0 288 
L 720 288 
L 720 0 
L 0 0 
z
" style="fill: #ffffff"/>
  </g>
  <g id="axes_1">
   <g id="patch_2">
    <path d="M 90 256.32 
L 648 256.32 
L 648 34.56 
L 90 34.56 
z
" style="fill: #ffffff"/>
   </g>
   <g id="matplotlib.axis_1">
    <g id="xtick_1">
     <g id="line2d_1">
      <defs>
       <path id="m8378e16a76" d="M 0 0 
L 0 3.5 
" style="stroke: #000000; stroke-width: 0.8"/>
      </defs>
      <g>
       <use xlink:href="#m8378e16a76" x="115.363636" y="256.32" style="stroke: #000000; stroke-width: 0.8"/>
      </g>
     </g>
     <g id="text_1">
      <!-- 0:00:00 -->
      <g transform="translate(96.088636 270.918437) scale(0.1 -0.1)">
       <defs>
        <path id="DejaVuSans-30" d="M 2034 4250 
Q 1547 4250 1301 3770 
Q 1056 3291 1056 2328 
Q 1056 1369 1301 889 
Q 1547 409 2034 409 
Q 2525 409 2770 889 
Q 3016 1369 3016 2328 
Q 3016 3291 2770 3770 
Q 2525 4250 2034 4250 
z
M 2034 4750 
Q 2819 4750 3233 4129 
Q 3647 3509 3647 2328 
Q 3647 1150 3233 529 
Q 2819 -91 2034 -91 
Q 1250 -91 836 529 
Q 422 1150 422 2328 
Q 422 3509 836 4129 
Q 1250 4750 2034 4750 
z
" transform="scale(0.015625)"/>
        <path id="DejaVuSans-3a" d="M 750 794 
L 1409 794 
L 1409 0 
L 750 0 
L 750 794 
z
M 750 3309 
L 1409 3309 
L 1409 2516 
L 750 2516 
L 750 3309 
z
" transform="scale(0.015625)"/>
       </defs>
       <use xlink:href="#DejaVuSans-30"/>
       <use xlink:href="#DejaVuSans-3a" x="63.623047"/>
       <use xlink:href="#DejaVuSans-30" x="97.314453"/>
       <use xlink:href="#DejaVuSans-30" x="160.9375"/>
       <use xlink:href="#DejaVuSans-3a" x="224.560547"/>
       <use xlink:href="#DejaVuSans-30" x="258.251953"/>
       <use xlink:href="#DejaVuSans-30" x="321.875"/>
      </g>
     </g>
    </g>
    <g id="xtick_2">
     <g id="line2d_2">
      <g>
       <use xlink:href="#m8378e16a76" x="166.090909" y="256.32" style="stroke: #000000; stroke-width: 0.8"/>
      </g>
     </g>
     <g id="text_2">
      <!-- 0:00:30 -->
      <g transform="translate(146.815909 270.918437) scale(0.1 -0.1)">
       <defs>
        <path id="DejaVuSans-33" d="M 2597 2516 
Q 3050 2419 3304 2112 
Q 3559 1806 3559 1356 
Q 3559 666 3084 287 
Q 2609 -91 1734 -91 
Q 1441 -91 1130 -33 
Q 819 25 488 141 
L 488 750 
Q 750 597 1062 519 
Q 1375 441 1716 441 
Q 2309 441 2620 675 
Q 2931 909 2931 1356 
Q 2931 1769 2642 2001 
Q 2353 2234 1838 2234 
L 1294 2234 
L 1294 2753 
L 1863 2753 
Q 2328 2753 2575 2939 
Q 2822 3125 2822 3475 
Q 2822 3834 2567 4026 
Q 2313 4219 1838 4219 
Q 1578 4219 1281 4162 
Q 984 4106 628 3988 
L 628 4550 
Q 988 4650 1302 4700 
Q 1616 4750 1894 4750 
Q 2613 4750 3031 4423 
Q 3450 4097 3450 3541 
Q 3450 3153 3228 2886 
Q 3006 2619 2597 2516 
z
" transform="scale(0.015625)"/>
       </defs>
       <use xlink:href="#DejaVuSans-30"/>
       <use xlink:href="#DejaVuSans-3a" x="63.623047"/>
       <use xlink:href="#DejaVuSans-30" x="97.314453"/>
       <use xlink:href="#DejaVuSans-30" x="160.9375"/>
       <use xlink:href="#DejaVuSans-3a" x="224.560547"/>
       <use xlink:href="#DejaVuSans-33" x="258.251953"/>
       <use xlink:href="#DejaVuSans-30" x="321.875"/>
      </g>
     </g>
    </g>
    <g id="xtick_3">
     <g id="line2d_3">
      <g>
       <use xlink:href="#m8378e16a76" x="216.818182" y="256.32" style="stroke: #000000; stroke-width: 0.8"/>
      </g>
     </g>
     <g id="text_3">
      <!-- 0:01:00 -->
      <g transform="translate(197.543182 270.918437) scale(0.1 -0.1)">
       <defs>
        <path id="DejaVuSans-31" d="M 794 531 
L 1825 531 
L 1825 4091 
L 703 3866 
L 703 4441 
L 1819 4666 
L 2450 4666 
L 2450 531 
L 3481 531 
L 3481 0 
L 794 0 
L 794 531 
z
" transform="scale(0.015625)"/>
       </defs>
       <use xlink:href="#DejaVuSans-30"/>
       <use xlink:href="#DejaVuSans-3a" x="63.623047"/>
       <use xlink:href="#DejaVuSans-30" x="97.314453"/>
       <use xlink:href="#DejaVuSans-31" x="160.9375"/>
       <use xlink:href="#DejaVuSans-3a" x="224.560547"/>
       <use xlink:href="#DejaVuSans-30" x="258.251953"/>
       <use xlink:href="#DejaVuSans-30" x="321.875"/>
      </g>
     </g>
    </g>
    <g id="xtick_4">
     <g id="line2d_4">
      <g>
       <use xlink:href="#m8378e16a76" x="267.545455" y="256.32" style="stroke: #000000; stroke-width: 0.8"/>
      </g>
     </g>
     <g id="text_4">
      <!-- 0:01:30 -->
      <g transform="translate(248.270455 270.918437) scale(0.1 -0.1)">
       <use xlink:href="#DejaVuSans-30"/>
       <use xlink:href="#DejaVuSans-3a" x="63.623047"/>
       <use xlink:href="#DejaVuSans-30" x="97.314453"/>
       <use xlink:href="#DejaVuSans-31" x="160.9375"/>
       <use xlink:href="#DejaVuSans-3a" x="224.560547"/>
       <use xlink:href="#DejaVuSans-33" x="258.251953"/>
       <use xlink:href="#DejaVuSans-30" x="321.875"/>
      </g>
     </g>
    </g>
    <g id="xtick_5">
     <g id="line2d_5">
      <g>
       <use xlink:href="#m8378e16a76" x="318.272727" y="256.32" style="stroke: #000000; stroke-width: 0.8"/>
      </g>
     </g>
     <g id="text_5">
      <!-- 0:02:00 -->
      <g transform="translate(298.997727 270.918437) scale(0.1 -0.1)">
       <defs>
        <path id="DejaVuSans-32" d="M 1228 531 
L 3431 531 
L 3431 0 
L 469 0 
L 469 531 
Q 828 903 1448 1529 
Q 2069 2156 2228 2338 
Q 2531 2678 2651 2914 
Q 2772 3150 2772 3378 
Q 2772 3750 2511 3984 
Q 2250 4219 1831 4219 
Q 1534 4219 1204 4116 
Q 875 4013 500 3803 
L 500 4441 
Q 881 4594 1212 4672 
Q 1544 4750 1819 4750 
Q 2544 4750 2975 4387 
Q 3406 4025 3406 3419 
Q 3406 3131 3298 2873 
Q 3191 2616 2906 2266 
Q 2828 2175 2409 1742 
Q 1991 1309 1228 531 
z
" transform="scale(0.015625)"/>
       </defs>
       <use xlink:href="#DejaVuSans-30"/>
       <use xlink:href="#DejaVuSans-3a" x="63.623047"/>
       <use xlink:href="#DejaVuSans-30" x="97.314453"/>
       <use xlink:href="#DejaVuSans-32" x="160.9375"/>
       <use xlink:href="#DejaVuSans-3a" x="224.560547"/>
       <use xlink:href="#DejaVuSans-30" x="258.251953"/>
       <use xlink:href="#DejaVuSans-30" x="321.875"/>
      </g>
     </g>
    </g>
    <g id="xtick_6">
     <g id="line2d_6">
      <g>
       <use xlink:href="#m8378e16a76" x="369" y="256.32" style="stroke: #000000; stroke-width: 0.8"/>
      </g>
     </g>
     <g id="text_6">
      <!-- 0:02:30 -->
      <g transform="translate(349.725 270.918437) scale(0.1 -0.1)">
       <use xlink:href="#DejaVuSans-30"/>
       <use xlink:href="#DejaVuSans-3a" x="63.623047"/>
       <use xlink:href="#DejaVuSans-30" x="97.314453"/>
       <use xlink:href="#DejaVuSans-32" x="160.9375"/>
       <use xlink:href="#DejaVuSans-3a" x="224.560547"/>
       <use xlink:href="#DejaVuSans-33" x="258.251953"/>
       <use xlink:href="#DejaVuSans-30" x="321.875"/>
      </g>
     </g>
    </g>
    <g id="xtick_7">
     <g id="line2d_7">
      <g>
       <use xlink:href="#m8378e16a76" x="419.727273" y="256.32" style="stroke: #000000; stroke-width: 0.8"/>
      </g>
     </g>
     <g id="text_7">
      <!-- 0:03:00 -->
      <g transform="translate(400.452273 270.918437) scale(0.1 -0.1)">
       <use xlink:href="#DejaVuSans-30"/>
       <use xlink:href="#DejaVuSans-3a" x="63.623047"/>
       <use xlink:href="#DejaVuSans-30" x="97.314453"/>
       <use xlink:href="#DejaVuSans-33" x="160.9375"/>
       <use xlink:href="#DejaVuSans-3a" x="224.560547"/>
       <use xlink:href="#DejaVuSans-30" x="258.251953"/>
       <use xlink:href="#DejaVuSans-30" x="321.875"/>
      </g>
     </g>
    </g>
    <g id="xtick_8">
     <g id="line2d_8">
      <g>
       <use xlink:href="#m8378e16a76" x="470.454545" y="256.32" style="stroke: #000000; stroke-width: 0.8"/>
      </g>
     </g>
     <g id="text_8">
      <!-- 0:03:30 -->
      <g transform="translate(451.179545 270.918437) scale(0.1 -0.1)">
       <use xlink:href="#DejaVuSans-30"/>
       <use xlink:href="#DejaVuSans-3a" x="63.623047"/>
       <use xlink:href="#DejaVuSans-30" x="97.314453"/>
       <use xlink:href="#DejaVuSans-33" x="160.9375"/>
       <use xlink:href="#DejaVuSans-3a" x="224.560547"/>
       <use xlink:href="#DejaVuSans-33" x="258.251953"/>
       <use xlink:href="#DejaVuSans-30" x="321.875"/>
      </g>
     </g>
    </g>
    <g id="xtick_9">
     <g id="line2d_9">
      <g>
       <use xlink:href="#m8378e16a76" x="521.181818" y="256.32" style="stroke: #000000; stroke-width: 0.8"/>
      </g>
     </g>
     <g id="text_9">
      <!-- 0:04:00 -->
      <g transform="translate(501.906818 270.918437) scale(0.1 -0.1)">
       <defs>
        <path id="DejaVuSans-34" d="M 2419 4116 
L 825 1625 
L 2419 1625 
L 2419 4116 
z
M 2253 4666 
L 3047 4666 
L 3047 1625 
L 3713 1625 
L 3713 1100 
L 3047 1100 
L 3047 0 
L 2419 0 
L 2419 1100 
L 313 1100 
L 313 1709 
L 2253 4666 
z
" transform="scale(0.015625)"/>
       </defs>
       <use xlink:href="#DejaVuSans-30"/>
       <use xlink:href="#DejaVuSans-3a" x="63.623047"/>
       <use xlink:href="#DejaVuSans-30" x="97.314453"/>
       <use xlink:href="#DejaVuSans-34" x="160.9375"/>
       <use xlink:href="#DejaVuSans-3a" x="224.560547"/>
       <use xlink:href="#DejaVuSans-30" x="258.251953"/>
       <use xlink:href="#DejaVuSans-30" x="321.875"/>
      </g>
     </g>
    </g>
    <g id="xtick_10">
     <g id="line2d_10">
      <g>
       <use xlink:href="#m8378e16a76" x="571.909091" y="256.32" style="stroke: #000000; stroke-width: 0.8"/>
      </g>
     </g>
     <g id="text_10">
      <!-- 0:04:30 -->
      <g transform="translate(552.634091 270.918437) scale(0.1 -0.1)">
       <use xlink:href="#DejaVuSans-30"/>
       <use xlink:href="#DejaVuSans-3a" x="63.623047"/>
       <use xlink:href="#DejaVuSans-30" x="97.314453"/>
       <use xlink:href="#DejaVuSans-34" x="160.9375"/>
       <use xlink:href="#DejaVuSans-3a" x="224.560547"/>
       <use xlink:href="#DejaVuSans-33" x="258.251953"/>
       <use xlink:href="#DejaVuSans-30" x="321.875"/>
      </g>
     </g>
    </g>
    <g id="xtick_11">
     <g id="line2d_11">
      <g>
       <use xlink:href="#m8378e16a76" x="622.636364" y="256.32" style="stroke: #000000; stroke-width: 0.8"/>
      </g>
     </g>
     <g id="text_11">
      <!-- 0:05:00 -->
      <g transform="translate(603.361364 270.918437) scale(0.1 -0.1)">
       <defs>
        <path id="DejaVuSans-35" d="M 691 4666 
L 3169 4666 
L 3169 4134 
L 1269 4134 
L 1269 2991 
Q 1406 3038 1543 3061 
Q 1681 3084 1819 3084 
Q 2600 3084 3056 2656 
Q 3513 2228 3513 1497 
Q 3513 744 3044 326 
Q 2575 -91 1722 -91 
Q 1428 -91 1123 -41 
Q 819 9 494 109 
L 494 744 
Q 775 591 1075 516 
Q 1375 441 1709 441 
Q 2250 441 2565 725 
Q 2881 1009 2881 1497 
Q 2881 1984 2565 2268 
Q 2250 2553 1709 2553 
Q 1456 2553 1204 2497 
Q 953 2441 691 2322 
L 691 4666 
z
" transform="scale(0.015625)"/>
       </defs>
       <use xlink:href="#DejaVuSans-30"/>
       <use xlink:href="#DejaVuSans-3a" x="63.623047"/>
       <use xlink:href="#DejaVuSans-30" x="97.314453"/>
       <use xlink:href="#DejaVuSans-35" x="160.9375"/>
       <use xlink:href="#DejaVuSans-3a" x="224.560547"/>
       <use xlink:href="#DejaVuSans-30" x="258.251953"/>
       <use xlink:href="#DejaVuSans-30" x="321.875"/>
      </g>
     </g>
    </g>
    <g id="text_12">
     <!-- Time -->
     <g transform="translate(356.766406 284.596563) scale(0.1 -0.1)">
      <defs>
       <path id="DejaVuSans-54" d="M -19 4666 
L 3928 4666 
L 3928 4134 
L 2272 4134 
L 2272 0 
L 1638 0 
L 1638 4134 
L -19 4134 
L -19 4666 
z
" transform="scale(0.015625)"/>
       <path id="DejaVuSans-69" d="M 603 3500 
L 1178 3500 
L 1178 0 
L 603 0 
L 603 3500 
z
M 603 4863 
L 1178 4863 
L 1178 4134 
L 603 4134 
L 603 4863 
z
" transform="scale(0.015625)"/>
       <path id="DejaVuSans-6d" d="M 3328 2828 
Q 3544 3216 3844 3400 
Q 4144 3584 4550 3584 
Q 5097 3584 5394 3201 
Q 5691 2819 5691 2113 
L 5691 0 
L 5113 0 
L 5113 2094 
Q 5113 2597 4934 2840 
Q 4756 3084 4391 3084 
Q 3944 3084 3684 2787 
Q 3425 2491 3425 1978 
L 3425 0 
L 2847 0 
L 2847 2094 
Q 2847 2600 2669 2842 
Q 2491 3084 2119 3084 
Q 1678 3084 1418 2786 
Q 1159 2488 1159 1978 
L 1159 0 
L 581 0 
L 581 3500 
L 1159 3500 
L 1159 2956 
Q 1356 3278 1631 3431 
Q 1906 3584 2284 3584 
Q 2666 3584 2933 3390 
Q 3200 3197 3328 2828 
z
" transform="scale(0.015625)"/>
       <path id="DejaVuSans-65" d="M 3597 1894 
L 3597 1613 
L 953 1613 
Q 991 1019 1311 708 
Q 1631 397 2203 397 
Q 2534 397 2845 478 
Q 3156 559 3463 722 
L 3463 178 
Q 3153 47 2828 -22 
Q 2503 -91 2169 -91 
Q 1331 -91 842 396 
Q 353 884 353 1716 
Q 353 2575 817 3079 
Q 1281 3584 2069 3584 
Q 2775 3584 3186 3129 
Q 3597 2675 3597 1894 
z
M 3022 2063 
Q 3016 2534 2758 2815 
Q 2500 3097 2075 3097 
Q 1594 3097 1305 2825 
Q 1016 2553 972 2059 
L 3022 2063 
z
" transform="scale(0.015625)"/>
      </defs>
      <use xlink:href="#DejaVuSans-54"/>
      <use xlink:href="#DejaVuSans-69" x="57.958984"/>
      <use xlink:href="#DejaVuSans-6d" x="85.742188"/>
      <use xlink:href="#DejaVuSans-65" x="183.154297"/>
     </g>
    </g>
   </g>
   <g id="matplotlib.axis_2">
    <g id="ytick_1">
     <g id="line2d_12">
      <path d="M 90 246.24 
L 648 246.24 
" clip-path="url(#pcbe03299de)" style="fill: none; stroke: #b0b0b0; stroke-width: 0.8; stroke-linecap: square"/>
     </g>
     <g id="line2d_13">
      <defs>
       <path id="m2d465d781b" d="M 0 0 
L -3.5 0 
" style="stroke: #000000; stroke-width: 0.8"/>
      </defs>
      <g>
       <use xlink:href="#m2d465d781b" x="90" y="246.24" style="stroke: #000000; stroke-width: 0.8"/>
      </g>
     </g>
     <g id="text_13">
      <!-- 0 -->
      <g transform="translate(76.6375 250.039219) scale(0.1 -0.1)">
       <use xlink:href="#DejaVuSans-30"/>
      </g>
     </g>
    </g>
    <g id="ytick_2">
     <g id="line2d_14">
      <path d="M 90 211.636498 
L 648 211.636498 
" clip-path="url(#pcbe03299de)" style="fill: none; stroke: #b0b0b0; stroke-width: 0.8; stroke-linecap: square"/>
     </g>
     <g id="line2d_15">
      <g>
       <use xlink:href="#m2d465d781b" x="90" y="211.636498" style="stroke: #000000; stroke-width: 0.8"/>
      </g>
     </g>
     <g id="text_14">
      <!-- 1,000 -->
      <g transform="translate(54.371875 215.435717) scale(0.1 -0.1)">
       <defs>
        <path id="DejaVuSans-2c" d="M 750 794 
L 1409 794 
L 1409 256 
L 897 -744 
L 494 -744 
L 750 256 
L 750 794 
z
" transform="scale(0.015625)"/>
       </defs>
       <use xlink:href="#DejaVuSans-31"/>
       <use xlink:href="#DejaVuSans-2c" x="63.623047"/>
       <use xlink:href="#DejaVuSans-30" x="95.410156"/>
       <use xlink:href="#DejaVuSans-30" x="159.033203"/>
       <use xlink:href="#DejaVuSans-30" x="222.65625"/>
      </g>
     </g>
    </g>
    <g id="ytick_3">
     <g id="line2d_16">
      <path d="M 90 177.032997 
L 648 177.032997 
" clip-path="url(#pcbe03299de)" style="fill: none; stroke: #b0b0b0; stroke-width: 0.8; stroke-linecap: square"/>
     </g>
     <g id="line2d_17">
      <g>
       <use xlink:href="#m2d465d781b" x="90" y="177.032997" style="stroke: #000000; stroke-width: 0.8"/>
      </g>
     </g>
     <g id="text_15">
      <!-- 2,000 -->
      <g transform="translate(54.371875 180.832216) scale(0.1 -0.1)">
       <use xlink:href="#DejaVuSans-32"/>
       <use xlink:href="#DejaVuSans-2c" x="63.623047"/>
       <use xlink:href="#DejaVuSans-30" x="95.410156"/>
       <use xlink:href="#DejaVuSans-30" x="159.033203"/>
       <use xlink:href="#DejaVuSans-30" x="222.65625"/>
      </g>
     </g>
    </g>
    <g id="ytick_4">
     <g id="line2d_18">
      <path d="M 90 142.429495 
L 648 142.429495 
" clip-path="url(#pcbe03299de)" style="fill: none; stroke: #b0b0b0; stroke-width: 0.8; stroke-linecap: square"/>
     </g>
     <g id="line2d_19">
      <g>
       <use xlink:href="#m2d465d781b" x="90" y="142.429495" style="stroke: #000000; stroke-width: 0.8"/>
      </g>
     </g>
     <g id="text_16">
      <!-- 3,000 -->
      <g transform="translate(54.371875 146.228714) scale(0.1 -0.1)">
       <use xlink:href="#DejaVuSans-33"/>
       <use xlink:href="#DejaVuSans-2c" x="63.623047"/>
       <use xlink:href="#DejaVuSans-30" x="95.410156"/>
       <use xlink:href="#DejaVuSans-30" x="159.033203"/>
       <use xlink:href="#DejaVuSans-30" x="222.65625"/>
      </g>
     </g>
    </g>
    <g id="ytick_5">
     <g id="line2d_20">
      <path d="M 90 107.825994 
L 648 107.825994 
" clip-path="url(#pcbe03299de)" style="fill: none; stroke: #b0b0b0; stroke-width: 0.8; stroke-linecap: square"/>
     </g>
     <g id="line2d_21">
      <g>
       <use xlink:href="#m2d465d781b" x="90" y="107.825994" style="stroke: #000000; stroke-width: 0.8"/>
      </g>
     </g>
     <g id="text_17">
      <!-- 4,000 -->
      <g transform="translate(54.371875 111.625213) scale(0.1 -0.1)">
       <use xlink:href="#DejaVuSans-34"/>
       <use xlink:href="#DejaVuSans-2c" x="63.623047"/>
       <use xlink:href="#DejaVuSans-30" x="95.410156"/>
       <use xlink:href="#DejaVuSans-30" x="159.033203"/>
       <use xlink:href="#DejaVuSans-30" x="222.65625"/>
      </g>
     </g>
    </g>
    <g id="ytick_6">
     <g id="line2d_22">
      <path d="M 90 73.222492 
L 648 73.222492 
" clip-path="url(#pcbe03299de)" style="fill: none; stroke: #b0b0b0; stroke-width: 0.8; stroke-linecap: square"/>
     </g>
     <g id="line2d_23">
      <g>
       <use xlink:href="#m2d465d781b" x="90" y="73.222492" style="stroke: #000000; stroke-width: 0.8"/>
      </g>
     </g>
     <g id="text_18">
      <!-- 5,000 -->
      <g transform="translate(54.371875 77.021711) scale(0.1 -0.1)">
       <use xlink:href="#DejaVuSans-35"/>
       <use xlink:href="#DejaVuSans-2c" x="63.623047"/>
       <use xlink:href="#DejaVuSans-30" x="95.410156"/>
       <use xlink:href="#DejaVuSans-30" x="159.033203"/>
       <use xlink:href="#DejaVuSans-30" x="222.65625"/>
      </g>
     </g>
    </g>
    <g id="ytick_7">
     <g id="line2d_24">
      <path d="M 90 38.618991 
L 648 38.618991 
" clip-path="url(#pcbe03299de)" style="fill: none; stroke: #b0b0b0; stroke-width: 0.8; stroke-linecap: square"/>
     </g>
     <g id="line2d_25">
      <g>
       <use xlink:href="#m2d465d781b" x="90" y="38.618991" style="stroke: #000000; stroke-width: 0.8"/>
      </g>
     </g>
     <g id="text_19">
      <!-- 6,000 -->
      <g transform="translate(54.371875 42.418209) scale(0.1 -0.1)">
       <defs>
        <path id="DejaVuSans-36" d="M 2113 2584 
Q 1688 2584 1439 2293 
Q 1191 2003 1191 1497 
Q 1191 994 1439 701 
Q 1688 409 2113 409 
Q 2538 409 2786 701 
Q 3034 994 3034 1497 
Q 3034 2003 2786 2293 
Q 2538 2584 2113 2584 
z
M 3366 4563 
L 3366 3988 
Q 3128 4100 2886 4159 
Q 2644 4219 2406 4219 
Q 1781 4219 1451 3797 
Q 1122 3375 1075 2522 
Q 1259 2794 1537 2939 
Q 1816 3084 2150 3084 
Q 2853 3084 3261 2657 
Q 3669 2231 3669 1497 
Q 3669 778 3244 343 
Q 2819 -91 2113 -91 
Q 1303 -91 875 529 
Q 447 1150 447 2328 
Q 447 3434 972 4092 
Q 1497 4750 2381 4750 
Q 2619 4750 2861 4703 
Q 3103 4656 3366 4563 
z
" transform="scale(0.015625)"/>
       </defs>
       <use xlink:href="#DejaVuSans-36"/>
       <use xlink:href="#DejaVuSans-2c" x="63.623047"/>
       <use xlink:href="#DejaVuSans-30" x="95.410156"/>
       <use xlink:href="#DejaVuSans-30" x="159.033203"/>
       <use xlink:href="#DejaVuSans-30" x="222.65625"/>
      </g>
     </g>
    </g>
    <g id="text_20">
     <!-- Bitrate (kbit/s) -->
     <g transform="translate(48.292187 181.574375) rotate(-90) scale(0.1 -0.1)">
      <defs>
       <path id="DejaVuSans-42" d="M 1259 2228 
L 1259 519 
L 2272 519 
Q 2781 519 3026 730 
Q 3272 941 3272 1375 
Q 3272 1813 3026 2020 
Q 2781 2228 2272 2228 
L 1259 2228 
z
M 1259 4147 
L 1259 2741 
L 2194 2741 
Q 2656 2741 2882 2914 
Q 3109 3088 3109 3444 
Q 3109 3797 2882 3972 
Q 2656 4147 2194 4147 
L 1259 4147 
z
M 628 4666 
L 2241 4666 
Q 2963 4666 3353 4366 
Q 3744 4066 3744 3513 
Q 3744 3084 3544 2831 
Q 3344 2578 2956 2516 
Q 3422 2416 3680 2098 
Q 3938 1781 3938 1306 
Q 3938 681 3513 340 
Q 3088 0 2303 0 
L 628 0 
L 628 4666 
z
" transform="scale(0.015625)"/>
       <path id="DejaVuSans-74" d="M 1172 4494 
L 1172 3500 
L 2356 3500 
L 2356 3053 
L 1172 3053 
L 1172 1153 
Q 1172 725 1289 603 
Q 1406 481 1766 481 
L 2356 481 
L 2356 0 
L 1766 0 
Q 1100 0 847 248 
Q 594 497 594 1153 
L 594 3053 
L 172 3053 
L 172 3500 
L 594 3500 
L 594 4494 
L 1172 4494 
z
" transform="scale(0.015625)"/>
       <path id="DejaVuSans-72" d="M 2631 2963 
Q 2534 3019 2420 3045 
Q 2306 3072 2169 3072 
Q 1681 3072 1420 2755 
Q 1159 2438 1159 1844 
L 1159 0 
L 581 0 
L 581 3500 
L 1159 3500 
L 1159 2956 
Q 1341 3275 1631 3429 
Q 1922 3584 2338 3584 
Q 2397 3584 2469 3576 
Q 2541 3569 2628 3553 
L 2631 2963 
z
" transform="scale(0.015625)"/>
       <path id="DejaVuSans-61" d="M 2194 1759 
Q 1497 1759 1228 1600 
Q 959 1441 959 1056 
Q 959 750 1161 570 
Q 1363 391 1709 391 
Q 2188 391 2477 730 
Q 2766 1069 2766 1631 
L 2766 1759 
L 2194 1759 
z
M 3341 1997 
L 3341 0 
L 2766 0 
L 2766 531 
Q 2569 213 2275 61 
Q 1981 -91 1556 -91 
Q 1019 -91 701 211 
Q 384 513 384 1019 
Q 384 1609 779 1909 
Q 1175 2209 1959 2209 
L 2766 2209 
L 2766 2266 
Q 2766 2663 2505 2880 
Q 2244 3097 1772 3097 
Q 1472 3097 1187 3025 
Q 903 2953 641 2809 
L 641 3341 
Q 956 3463 1253 3523 
Q 1550 3584 1831 3584 
Q 2591 3584 2966 3190 
Q 3341 2797 3341 1997 
z
" transform="scale(0.015625)"/>
       <path id="DejaVuSans-20" transform="scale(0.015625)"/>
       <path id="DejaVuSans-28" d="M 1984 4856 
Q 1566 4138 1362 3434 
Q 1159 2731 1159 2009 
Q 1159 1288 1364 580 
Q 1569 -128 1984 -844 
L 1484 -844 
Q 1016 -109 783 600 
Q 550 1309 550 2009 
Q 550 2706 781 3412 
Q 1013 4119 1484 4856 
L 1984 4856 
z
" transform="scale(0.015625)"/>
       <path id="DejaVuSans-6b" d="M 581 4863 
L 1159 4863 
L 1159 1991 
L 2875 3500 
L 3609 3500 
L 1753 1863 
L 3688 0 
L 2938 0 
L 1159 1709 
L 1159 0 
L 581 0 
L 581 4863 
z
" transform="scale(0.015625)"/>
       <path id="DejaVuSans-62" d="M 3116 1747 
Q 3116 2381 2855 2742 
Q 2594 3103 2138 3103 
Q 1681 3103 1420 2742 
Q 1159 2381 1159 1747 
Q 1159 1113 1420 752 
Q 1681 391 2138 391 
Q 2594 391 2855 752 
Q 3116 1113 3116 1747 
z
M 1159 2969 
Q 1341 3281 1617 3432 
Q 1894 3584 2278 3584 
Q 2916 3584 3314 3078 
Q 3713 2572 3713 1747 
Q 3713 922 3314 415 
Q 2916 -91 2278 -91 
Q 1894 -91 1617 61 
Q 1341 213 1159 525 
L 1159 0 
L 581 0 
L 581 4863 
L 1159 4863 
L 1159 2969 
z
" transform="scale(0.015625)"/>
       <path id="DejaVuSans-2f" d="M 1625 4666 
L 2156 4666 
L 531 -594 
L 0 -594 
L 1625 4666 
z
" transform="scale(0.015625)"/>
       <path id="DejaVuSans-73" d="M 2834 3397 
L 2834 2853 
Q 2591 2978 2328 3040 
Q 2066 3103 1784 3103 
Q 1356 3103 1142 2972 
Q 928 2841 928 2578 
Q 928 2378 1081 2264 
Q 1234 2150 1697 2047 
L 1894 2003 
Q 2506 1872 2764 1633 
Q 3022 1394 3022 966 
Q 3022 478 2636 193 
Q 2250 -91 1575 -91 
Q 1294 -91 989 -36 
Q 684 19 347 128 
L 347 722 
Q 666 556 975 473 
Q 1284 391 1588 391 
Q 1994 391 2212 530 
Q 2431 669 2431 922 
Q 2431 1156 2273 1281 
Q 2116 1406 1581 1522 
L 1381 1569 
Q 847 1681 609 1914 
Q 372 2147 372 2553 
Q 372 3047 722 3315 
Q 1072 3584 1716 3584 
Q 2034 3584 2315 3537 
Q 2597 3491 2834 3397 
z
" transform="scale(0.015625)"/>
       <path id="DejaVuSans-29" d="M 513 4856 
L 1013 4856 
Q 1481 4119 1714 3412 
Q 1947 2706 1947 2009 
Q 1947 1309 1714 600 
Q 1481 -109 1013 -844 
L 513 -844 
Q 928 -128 1133 580 
Q 1338 1288 1338 2009 
Q 1338 2731 1133 3434 
Q 928 4138 513 4856 
z
" transform="scale(0.015625)"/>
      </defs>
      <use xlink:href="#DejaVuSans-42"/>
      <use xlink:href="#DejaVuSans-69" x="68.603516"/>
      <use xlink:href="#DejaVuSans-74" x="96.386719"/>
      <use xlink:href="#DejaVuSans-72" x="135.595703"/>
      <use xlink:href="#DejaVuSans-61" x="176.708984"/>
      <use xlink:href="#DejaVuSans-74" x="237.988281"/>
      <use xlink:href="#DejaVuSans-65" x="277.197266"/>
      <use xlink:href="#DejaVuSans-20" x="338.720703"/>
      <use xlink:href="#DejaVuSans-28" x="370.507812"/>
      <use xlink:href="#DejaVuSans-6b" x="409.521484"/>
      <use xlink:href="#DejaVuSans-62" x="467.431641"/>
      <use xlink:href="#DejaVuSans-69" x="530.908203"/>
      <use xlink:href="#DejaVuSans-74" x="558.691406"/>
      <use xlink:href="#DejaVuSans-2f" x="597.900391"/>
      <use xlink:href="#DejaVuSans-73" x="631.591797"/>
      <use xlink:href="#DejaVuSans-29" x="683.691406"/>
     </g>
    </g>
   </g>
   <g id="PolyCollection_1">
    <defs>
     <path id="m6d9f102be3" d="M 115.363636 -44.251452 
L 115.363636 -41.76 
L 117.054545 -41.76 
L 118.745455 -41.76 
L 120.436364 -41.76 
L 122.127273 -41.76 
L 123.818182 -41.76 
L 125.509091 -41.76 
L 127.2 -41.76 
L 128.890909 -41.76 
L 130.581818 -41.76 
L 132.272727 -41.76 
L 133.963636 -41.76 
L 135.654545 -41.76 
L 137.345455 -41.76 
L 139.036364 -41.76 
L 140.727273 -41.76 
L 142.418182 -41.76 
L 144.109091 -41.76 
L 145.8 -41.76 
L 147.490909 -41.76 
L 149.181818 -41.76 
L 150.872727 -41.76 
L 152.563636 -41.76 
L 154.254545 -41.76 
L 155.945455 -41.76 
L 157.636364 -41.76 
L 159.327273 -41.76 
L 161.018182 -41.76 
L 162.709091 -41.76 
L 164.4 -41.76 
L 166.090909 -41.76 
L 167.781818 -41.76 
L 169.472727 -41.76 
L 171.163636 -41.76 
L 172.854545 -41.76 
L 174.545455 -41.76 
L 176.236364 -41.76 
L 177.927273 -41.76 
L 179.618182 -41.76 
L 181.309091 -41.76 
L 183 -41.76 
L 184.690909 -41.76 
L 186.381818 -41.76 
L 188.072727 -41.76 
L 189.763636 -41.76 
L 191.454545 -41.76 
L 193.145455 -41.76 
L 194.836364 -41.76 
L 196.527273 -41.76 
L 198.218182 -41.76 
L 199.909091 -41.76 
L 201.6 -41.76 
L 203.290909 -41.76 
L 204.981818 -41.76 
L 206.672727 -41.76 
L 208.363636 -41.76 
L 210.054545 -41.76 
L 211.745455 -41.76 
L 213.436364 -41.76 
L 215.127273 -41.76 
L 216.818182 -41.76 
L 218.509091 -41.76 
L 220.2 -41.76 
L 221.890909 -41.76 
L 223.581818 -41.76 
L 225.272727 -41.76 
L 226.963636 -41.76 
L 228.654545 -41.76 
L 230.345455 -41.76 
L 232.036364 -41.76 
L 233.727273 -41.76 
L 235.418182 -41.76 
L 237.109091 -41.76 
L 238.8 -41.76 
L 240.490909 -41.76 
L 242.181818 -41.76 
L 243.872727 -41.76 
L 245.563636 -41.76 
L 247.254545 -41.76 
L 248.945455 -41.76 
L 250.636364 -41.76 
L 252.327273 -41.76 
L 254.018182 -41.76 
L 255.709091 -41.76 
L 257.4 -41.76 
L 259.090909 -41.76 
L 260.781818 -41.76 
L 262.472727 -41.76 
L 264.163636 -41.76 
L 265.854545 -41.76 
L 267.545455 -41.76 
L 269.236364 -41.76 
L 270.927273 -41.76 
L 272.618182 -41.76 
L 274.309091 -41.76 
L 276 -41.76 
L 277.690909 -41.76 
L 279.381818 -41.76 
L 281.072727 -41.76 
L 282.763636 -41.76 
L 284.454545 -41.76 
L 286.145455 -41.76 
L 287.836364 -41.76 
L 289.527273 -41.76 
L 291.218182 -41.76 
L 292.909091 -41.76 
L 294.6 -41.76 
L 296.290909 -41.76 
L 297.981818 -41.76 
L 299.672727 -41.76 
L 301.363636 -41.76 
L 303.054545 -41.76 
L 304.745455 -41.76 
L 306.436364 -41.76 
L 308.127273 -41.76 
L 309.818182 -41.76 
L 311.509091 -41.76 
L 313.2 -41.76 
L 314.890909 -41.76 
L 316.581818 -41.76 
L 318.272727 -41.76 
L 319.963636 -41.76 
L 321.654545 -41.76 
L 323.345455 -41.76 
L 325.036364 -41.76 
L 326.727273 -41.76 
L 328.418182 -41.76 
L 330.109091 -41.76 
L 331.8 -41.76 
L 333.490909 -41.76 
L 335.181818 -41.76 
L 336.872727 -41.76 
L 338.563636 -41.76 
L 340.254545 -41.76 
L 341.945455 -41.76 
L 343.636364 -41.76 
L 345.327273 -41.76 
L 347.018182 -41.76 
L 348.709091 -41.76 
L 350.4 -41.76 
L 352.090909 -41.76 
L 353.781818 -41.76 
L 355.472727 -41.76 
L 357.163636 -41.76 
L 358.854545 -41.76 
L 360.545455 -41.76 
L 362.236364 -41.76 
L 363.927273 -41.76 
L 365.618182 -41.76 
L 367.309091 -41.76 
L 369 -41.76 
L 370.690909 -41.76 
L 372.381818 -41.76 
L 374.072727 -41.76 
L 375.763636 -41.76 
L 377.454545 -41.76 
L 379.145455 -41.76 
L 380.836364 -41.76 
L 382.527273 -41.76 
L 384.218182 -41.76 
L 385.909091 -41.76 
L 387.6 -41.76 
L 389.290909 -41.76 
L 390.981818 -41.76 
L 392.672727 -41.76 
L 394.363636 -41.76 
L 396.054545 -41.76 
L 397.745455 -41.76 
L 399.436364 -41.76 
L 401.127273 -41.76 
L 402.818182 -41.76 
L 404.509091 -41.76 
L 406.2 -41.76 
L 407.890909 -41.76 
L 409.581818 -41.76 
L 411.272727 -41.76 
L 412.963636 -41.76 
L 414.654545 -41.76 
L 416.345455 -41.76 
L 418.036364 -41.76 
L 419.727273 -41.76 
L 421.418182 -41.76 
L 423.109091 -41.76 
L 424.8 -41.76 
L 426.490909 -41.76 
L 428.181818 -41.76 
L 429.872727 -41.76 
L 431.563636 -41.76 
L 433.254545 -41.76 
L 434.945455 -41.76 
L 436.636364 -41.76 
L 438.327273 -41.76 
L 440.018182 -41.76 
L 441.709091 -41.76 
L 443.4 -41.76 
L 445.090909 -41.76 
L 446.781818 -41.76 
L 448.472727 -41.76 
L 450.163636 -41.76 
L 451.854545 -41.76 
L 453.545455 -41.76 
L 455.236364 -41.76 
L 456.927273 -41.76 
L 458.618182 -41.76 
L 460.309091 -41.76 
L 462 -41.76 
L 463.690909 -41.76 
L 465.381818 -41.76 
L 467.072727 -41.76 
L 468.763636 -41.76 
L 470.454545 -41.76 
L 472.145455 -41.76 
L 473.836364 -41.76 
L 475.527273 -41.76 
L 477.218182 -41.76 
L 478.909091 -41.76 
L 480.6 -41.76 
L 482.290909 -41.76 
L 483.981818 -41.76 
L 485.672727 -41.76 
L 487.363636 -41.76 
L 489.054545 -41.76 
L 490.745455 -41.76 
L 492.436364 -41.76 
L 494.127273 -41.76 
L 495.818182 -41.76 
L 497.509091 -41.76 
L 499.2 -41.76 
L 500.890909 -41.76 
L 502.581818 -41.76 
L 504.272727 -41.76 
L 505.963636 -41.76 
L 507.654545 -41.76 
L 509.345455 -41.76 
L 511.036364 -41.76 
L 512.727273 -41.76 
L 514.418182 -41.76 
L 516.109091 -41.76 
L 517.8 -41.76 
L 519.490909 -41.76 
L 521.181818 -41.76 
L 522.872727 -41.76 
L 524.563636 -41.76 
L 526.254545 -41.76 
L 527.945455 -41.76 
L 529.636364 -41.76 
L 531.327273 -41.76 
L 533.018182 -41.76 
L 534.709091 -41.76 
L 536.4 -41.76 
L 538.090909 -41.76 
L 539.781818 -41.76 
L 541.472727 -41.76 
L 543.163636 -41.76 
L 544.854545 -41.76 
L 546.545455 -41.76 
L 548.236364 -41.76 
L 549.927273 -41.76 
L 551.618182 -41.76 
L 553.309091 -41.76 
L 555 -41.76 
L 556.690909 -41.76 
L 558.381818 -41.76 
L 560.072727 -41.76 
L 561.763636 -41.76 
L 563.454545 -41.76 
L 565.145455 -41.76 
L 566.836364 -41.76 
L 568.527273 -41.76 
L 570.218182 -41.76 
L 571.909091 -41.76 
L 573.6 -41.76 
L 575.290909 -41.76 
L 576.981818 -41.76 
L 578.672727 -41.76 
L 580.363636 -41.76 
L 582.054545 -41.76 
L 583.745455 -41.76 
L 585.436364 -41.76 
L 587.127273 -41.76 
L 588.818182 -41.76 
L 590.509091 -41.76 
L 592.2 -41.76 
L 593.890909 -41.76 
L 595.581818 -41.76 
L 597.272727 -41.76 
L 598.963636 -41.76 
L 600.654545 -41.76 
L 602.345455 -41.76 
L 604.036364 -41.76 
L 605.727273 -41.76 
L 607.418182 -41.76 
L 609.109091 -41.76 
L 610.8 -41.76 
L 612.490909 -41.76 
L 614.181818 -41.76 
L 615.872727 -41.76 
L 617.563636 -41.76 
L 619.254545 -41.76 
L 620.945455 -41.76 
L 622.636364 -41.76 
L 622.636364 -41.76 
L 622.636364 -41.76 
L 620.945455 -41.76 
L 619.254545 -41.76 
L 617.563636 -41.76 
L 615.872727 -68.750731 
L 614.181818 -41.76 
L 612.490909 -41.76 
L 610.8 -124.254748 
L 609.109091 -41.76 
L 607.418182 -41.76 
L 605.727273 -41.76 
L 604.036364 -131.867518 
L 602.345455 -41.76 
L 600.654545 -41.76 
L 598.963636 -41.76 
L 597.272727 -81.969269 
L 595.581818 -102.558352 
L 593.890909 -41.76 
L 592.2 -108.025705 
L 590.509091 -41.76 
L 588.818182 -63.525602 
L 587.127273 -41.76 
L 585.436364 -118.579773 
L 583.745455 -41.76 
L 582.054545 -41.76 
L 580.363636 -41.76 
L 578.672727 -118.856601 
L 576.981818 -41.76 
L 575.290909 -41.76 
L 573.6 -41.76 
L 571.909091 -80.273697 
L 570.218182 -41.76 
L 568.527273 -87.678847 
L 566.836364 -87.298208 
L 565.145455 -41.76 
L 563.454545 -63.387188 
L 561.763636 -41.76 
L 560.072727 -159.896354 
L 558.381818 -41.76 
L 556.690909 -101.001195 
L 555 -41.76 
L 553.309091 -63.525602 
L 551.618182 -113.147024 
L 549.927273 -41.76 
L 548.236364 -57.712214 
L 546.545455 -62.764325 
L 544.854545 -41.76 
L 543.163636 -41.76 
L 541.472727 -69.892647 
L 539.781818 -41.76 
L 538.090909 -41.76 
L 536.4 -41.76 
L 534.709091 -41.76 
L 533.018182 -104.945994 
L 531.327273 -147.923543 
L 529.636364 -69.304387 
L 527.945455 -41.76 
L 526.254545 -41.76 
L 524.563636 -41.76 
L 522.872727 -71.242183 
L 521.181818 -41.76 
L 519.490909 -41.76 
L 517.8 -41.76 
L 516.109091 -41.76 
L 514.418182 -69.304387 
L 512.727273 -41.76 
L 511.036364 -144.982245 
L 509.345455 -41.76 
L 507.654545 -41.76 
L 505.963636 -41.76 
L 504.272727 -66.812935 
L 502.581818 -41.76 
L 500.890909 -166.644037 
L 499.2 -41.76 
L 497.509091 -41.76 
L 495.818182 -98.336725 
L 494.127273 -57.5738 
L 492.436364 -41.76 
L 490.745455 -70.204078 
L 489.054545 -41.76 
L 487.363636 -41.76 
L 485.672727 -41.76 
L 483.981818 -64.217673 
L 482.290909 -41.76 
L 480.6 -71.034562 
L 478.909091 -41.76 
L 477.218182 -41.76 
L 475.527273 -70.238682 
L 473.836364 -41.76 
L 472.145455 -69.650422 
L 470.454545 -76.398105 
L 468.763636 -41.76 
L 467.072727 -93.596045 
L 465.381818 -41.76 
L 463.690909 -41.76 
L 462 -41.76 
L 460.309091 -75.256189 
L 458.618182 -41.76 
L 456.927273 -41.76 
L 455.236364 -60.791926 
L 453.545455 -57.158558 
L 451.854545 -59.65001 
L 450.163636 -41.76 
L 448.472727 -41.76 
L 446.781818 -58.404284 
L 445.090909 -41.76 
L 443.4 -41.76 
L 441.709091 -98.405932 
L 440.018182 -41.76 
L 438.327273 -41.76 
L 436.636364 -50.860721 
L 434.945455 -77.713038 
L 433.254545 -41.76 
L 431.563636 -41.76 
L 429.872727 -41.76 
L 428.181818 -41.76 
L 426.490909 -84.322307 
L 424.8 -41.76 
L 423.109091 -86.363913 
L 421.418182 -41.76 
L 419.727273 -92.211905 
L 418.036364 -41.76 
L 416.345455 -61.137961 
L 414.654545 -41.76 
L 412.963636 -41.76 
L 411.272727 -41.76 
L 409.581818 -41.76 
L 407.890909 -60.964943 
L 406.2 -98.57895 
L 404.509091 -41.76 
L 402.818182 -67.539609 
L 401.127273 -41.76 
L 399.436364 -41.76 
L 397.745455 -100.343728 
L 396.054545 -63.629413 
L 394.363636 -100.724367 
L 392.672727 -97.471637 
L 390.981818 -41.76 
L 389.290909 -41.76 
L 387.6 -41.76 
L 385.909091 -108.406344 
L 384.218182 -41.76 
L 382.527273 -41.76 
L 380.836364 -87.748054 
L 379.145455 -41.76 
L 377.454545 -41.76 
L 375.763636 -41.76 
L 374.072727 -97.540844 
L 372.381818 -41.76 
L 370.690909 -41.76 
L 369 -198.617673 
L 367.309091 -41.76 
L 365.618182 -41.76 
L 363.927273 -75.013965 
L 362.236364 -41.76 
L 360.545455 -41.76 
L 358.854545 -41.76 
L 357.163636 -86.813759 
L 355.472727 -41.76 
L 353.781818 -41.76 
L 352.090909 -41.76 
L 350.4 -87.402019 
L 348.709091 -41.76 
L 347.018182 -41.76 
L 345.327273 -41.76 
L 343.636364 -84.979773 
L 341.945455 -41.76 
L 340.254545 -41.76 
L 338.563636 -41.76 
L 336.872727 -90.620144 
L 335.181818 -41.76 
L 333.490909 -41.76 
L 331.8 -41.76 
L 330.109091 -86.986777 
L 328.418182 -41.76 
L 326.727273 -77.955263 
L 325.036364 -41.76 
L 323.345455 -41.76 
L 321.654545 -93.25001 
L 319.963636 -107.195221 
L 318.272727 -41.76 
L 316.581818 -41.76 
L 314.890909 -41.76 
L 313.2 -121.20964 
L 311.509091 -54.044243 
L 309.818182 -41.76 
L 308.127273 -41.76 
L 306.436364 -41.76 
L 304.745455 -60.065252 
L 303.054545 -41.76 
L 301.363636 -41.76 
L 299.672727 -41.76 
L 297.981818 -63.11036 
L 296.290909 -41.76 
L 294.6 -41.76 
L 292.909091 -41.76 
L 291.218182 -134.705005 
L 289.527273 -41.76 
L 287.836364 -41.76 
L 286.145455 -41.76 
L 284.454545 -41.76 
L 282.763636 -77.886056 
L 281.072727 -41.76 
L 279.381818 -41.76 
L 277.690909 -41.76 
L 276 -84.668342 
L 274.309091 -93.319217 
L 272.618182 -41.76 
L 270.927273 -82.349907 
L 269.236364 -41.76 
L 267.545455 -41.76 
L 265.854545 -41.76 
L 264.163636 -77.782245 
L 262.472727 -41.76 
L 260.781818 -41.76 
L 259.090909 -41.76 
L 257.4 -92.765561 
L 255.709091 -41.76 
L 254.018182 -41.76 
L 252.327273 -41.76 
L 250.636364 -41.76 
L 248.945455 -93.353821 
L 247.254545 -41.76 
L 245.563636 -64.183069 
L 243.872727 -41.76 
L 242.181818 -132.005932 
L 240.490909 -41.76 
L 238.8 -90.343316 
L 237.109091 -58.473491 
L 235.418182 -41.76 
L 233.727273 -41.76 
L 232.036364 -41.76 
L 230.345455 -107.264428 
L 228.654545 -41.76 
L 226.963636 -41.76 
L 225.272727 -67.678023 
L 223.581818 -64.529104 
L 221.890909 -41.76 
L 220.2 -41.76 
L 218.509091 -41.76 
L 216.818182 -95.049392 
L 215.127273 -41.76 
L 213.436364 -41.76 
L 211.745455 -41.76 
L 210.054545 -102.938991 
L 208.363636 -41.76 
L 206.672727 -41.76 
L 204.981818 -41.76 
L 203.290909 -124.185541 
L 201.6 -41.76 
L 199.909091 -41.76 
L 198.218182 -41.76 
L 196.527273 -85.360412 
L 194.836364 -41.76 
L 193.145455 -41.76 
L 191.454545 -41.76 
L 189.763636 -41.76 
L 188.072727 -88.336313 
L 186.381818 -41.76 
L 184.690909 -41.76 
L 183 -41.76 
L 181.309091 -104.669166 
L 179.618182 -41.76 
L 177.927273 -41.76 
L 176.236364 -41.76 
L 174.545455 -118.441359 
L 172.854545 -41.76 
L 171.163636 -41.76 
L 169.472727 -41.76 
L 167.781818 -114.39275 
L 166.090909 -41.76 
L 164.4 -41.76 
L 162.709091 -41.76 
L 161.018182 -154.359794 
L 159.327273 -41.76 
L 157.636364 -41.76 
L 155.945455 -64.113862 
L 154.254545 -41.76 
L 152.563636 -41.76 
L 150.872727 -41.76 
L 149.181818 -70.965355 
L 147.490909 -41.76 
L 145.8 -41.76 
L 144.109091 -41.76 
L 142.418182 -135.431679 
L 140.727273 -41.76 
L 139.036364 -41.76 
L 137.345455 -41.76 
L 135.654545 -106.710772 
L 133.963636 -41.76 
L 132.272727 -41.76 
L 130.581818 -41.76 
L 128.890909 -69.92725 
L 127.2 -41.76 
L 125.509091 -41.76 
L 123.818182 -41.76 
L 122.127273 -42.694295 
L 120.436364 -41.76 
L 118.745455 -41.76 
L 117.054545 -41.76 
L 115.363636 -44.251452 
z
" style="stroke: #ff0000; stroke-width: 0.5"/>
    </defs>
    <g clip-path="url(#pcbe03299de)">
     <use xlink:href="#m6d9f102be3" x="0" y="288" style="fill: #ff0000; stroke: #ff0000; stroke-width: 0.5"/>
    </g>
   </g>
   <g id="PolyCollection_2">
    <defs>
     <path id="m6a9010ac6a" d="M 115.363636 -48.888321 
L 115.363636 -44.251452 
L 117.054545 -41.76 
L 118.745455 -41.76 
L 120.436364 -41.76 
L 122.127273 -42.694295 
L 123.818182 -41.76 
L 125.509091 -41.76 
L 127.2 -41.76 
L 128.890909 -69.92725 
L 130.581818 -41.76 
L 132.272727 -41.76 
L 133.963636 -41.76 
L 135.654545 -106.710772 
L 137.345455 -41.76 
L 139.036364 -41.76 
L 140.727273 -41.76 
L 142.418182 -135.431679 
L 144.109091 -41.76 
L 145.8 -41.76 
L 147.490909 -41.76 
L 149.181818 -70.965355 
L 150.872727 -41.76 
L 152.563636 -41.76 
L 154.254545 -41.76 
L 155.945455 -64.113862 
L 157.636364 -41.76 
L 159.327273 -41.76 
L 161.018182 -154.359794 
L 162.709091 -41.76 
L 164.4 -41.76 
L 166.090909 -41.76 
L 167.781818 -114.39275 
L 169.472727 -41.76 
L 171.163636 -41.76 
L 172.854545 -41.76 
L 174.545455 -118.441359 
L 176.236364 -41.76 
L 177.927273 -41.76 
L 179.618182 -41.76 
L 181.309091 -104.669166 
L 183 -41.76 
L 184.690909 -41.76 
L 186.381818 -41.76 
L 188.072727 -88.336313 
L 189.763636 -41.76 
L 191.454545 -41.76 
L 193.145455 -41.76 
L 194.836364 -41.76 
L 196.527273 -85.360412 
L 198.218182 -41.76 
L 199.909091 -41.76 
L 201.6 -41.76 
L 203.290909 -124.185541 
L 204.981818 -41.76 
L 206.672727 -41.76 
L 208.363636 -41.76 
L 210.054545 -102.938991 
L 211.745455 -41.76 
L 213.436364 -41.76 
L 215.127273 -41.76 
L 216.818182 -95.049392 
L 218.509091 -41.76 
L 220.2 -41.76 
L 221.890909 -41.76 
L 223.581818 -64.529104 
L 225.272727 -67.678023 
L 226.963636 -41.76 
L 228.654545 -41.76 
L 230.345455 -107.264428 
L 232.036364 -41.76 
L 233.727273 -41.76 
L 235.418182 -41.76 
L 237.109091 -58.473491 
L 238.8 -90.343316 
L 240.490909 -41.76 
L 242.181818 -132.005932 
L 243.872727 -41.76 
L 245.563636 -64.183069 
L 247.254545 -41.76 
L 248.945455 -93.353821 
L 250.636364 -41.76 
L 252.327273 -41.76 
L 254.018182 -41.76 
L 255.709091 -41.76 
L 257.4 -92.765561 
L 259.090909 -41.76 
L 260.781818 -41.76 
L 262.472727 -41.76 
L 264.163636 -77.782245 
L 265.854545 -41.76 
L 267.545455 -41.76 
L 269.236364 -41.76 
L 270.927273 -82.349907 
L 272.618182 -41.76 
L 274.309091 -93.319217 
L 276 -84.668342 
L 277.690909 -41.76 
L 279.381818 -41.76 
L 281.072727 -41.76 
L 282.763636 -77.886056 
L 284.454545 -41.76 
L 286.145455 -41.76 
L 287.836364 -41.76 
L 289.527273 -41.76 
L 291.218182 -134.705005 
L 292.909091 -41.76 
L 294.6 -41.76 
L 296.290909 -41.76 
L 297.981818 -63.11036 
L 299.672727 -41.76 
L 301.363636 -41.76 
L 303.054545 -41.76 
L 304.745455 -60.065252 
L 306.436364 -41.76 
L 308.127273 -41.76 
L 309.818182 -41.76 
L 311.509091 -54.044243 
L 313.2 -121.20964 
L 314.890909 -41.76 
L 316.581818 -41.76 
L 318.272727 -41.76 
L 319.963636 -107.195221 
L 321.654545 -93.25001 
L 323.345455 -41.76 
L 325.036364 -41.76 
L 326.727273 -77.955263 
L 328.418182 -41.76 
L 330.109091 -86.986777 
L 331.8 -41.76 
L 333.490909 -41.76 
L 335.181818 -41.76 
L 336.872727 -90.620144 
L 338.563636 -41.76 
L 340.254545 -41.76 
L 341.945455 -41.76 
L 343.636364 -84.979773 
L 345.327273 -41.76 
L 347.018182 -41.76 
L 348.709091 -41.76 
L 350.4 -87.402019 
L 352.090909 -41.76 
L 353.781818 -41.76 
L 355.472727 -41.76 
L 357.163636 -86.813759 
L 358.854545 -41.76 
L 360.545455 -41.76 
L 362.236364 -41.76 
L 363.927273 -75.013965 
L 365.618182 -41.76 
L 367.309091 -41.76 
L 369 -198.617673 
L 370.690909 -41.76 
L 372.381818 -41.76 
L 374.072727 -97.540844 
L 375.763636 -41.76 
L 377.454545 -41.76 
L 379.145455 -41.76 
L 380.836364 -87.748054 
L 382.527273 -41.76 
L 384.218182 -41.76 
L 385.909091 -108.406344 
L 387.6 -41.76 
L 389.290909 -41.76 
L 390.981818 -41.76 
L 392.672727 -97.471637 
L 394.363636 -100.724367 
L 396.054545 -63.629413 
L 397.745455 -100.343728 
L 399.436364 -41.76 
L 401.127273 -41.76 
L 402.818182 -67.539609 
L 404.509091 -41.76 
L 406.2 -98.57895 
L 407.890909 -60.964943 
L 409.581818 -41.76 
L 411.272727 -41.76 
L 412.963636 -41.76 
L 414.654545 -41.76 
L 416.345455 -61.137961 
L 418.036364 -41.76 
L 419.727273 -92.211905 
L 421.418182 -41.76 
L 423.109091 -86.363913 
L 424.8 -41.76 
L 426.490909 -84.322307 
L 428.181818 -41.76 
L 429.872727 -41.76 
L 431.563636 -41.76 
L 433.254545 -41.76 
L 434.945455 -77.713038 
L 436.636364 -50.860721 
L 438.327273 -41.76 
L 440.018182 -41.76 
L 441.709091 -98.405932 
L 443.4 -41.76 
L 445.090909 -41.76 
L 446.781818 -58.404284 
L 448.472727 -41.76 
L 450.163636 -41.76 
L 451.854545 -59.65001 
L 453.545455 -57.158558 
L 455.236364 -60.791926 
L 456.927273 -41.76 
L 458.618182 -41.76 
L 460.309091 -75.256189 
L 462 -41.76 
L 463.690909 -41.76 
L 465.381818 -41.76 
L 467.072727 -93.596045 
L 468.763636 -41.76 
L 470.454545 -76.398105 
L 472.145455 -69.650422 
L 473.836364 -41.76 
L 475.527273 -70.238682 
L 477.218182 -41.76 
L 478.909091 -41.76 
L 480.6 -71.034562 
L 482.290909 -41.76 
L 483.981818 -64.217673 
L 485.672727 -41.76 
L 487.363636 -41.76 
L 489.054545 -41.76 
L 490.745455 -70.204078 
L 492.436364 -41.76 
L 494.127273 -57.5738 
L 495.818182 -98.336725 
L 497.509091 -41.76 
L 499.2 -41.76 
L 500.890909 -166.644037 
L 502.581818 -41.76 
L 504.272727 -66.812935 
L 505.963636 -41.76 
L 507.654545 -41.76 
L 509.345455 -41.76 
L 511.036364 -144.982245 
L 512.727273 -41.76 
L 514.418182 -69.304387 
L 516.109091 -41.76 
L 517.8 -41.76 
L 519.490909 -41.76 
L 521.181818 -41.76 
L 522.872727 -71.242183 
L 524.563636 -41.76 
L 526.254545 -41.76 
L 527.945455 -41.76 
L 529.636364 -69.304387 
L 531.327273 -147.923543 
L 533.018182 -104.945994 
L 534.709091 -41.76 
L 536.4 -41.76 
L 538.090909 -41.76 
L 539.781818 -41.76 
L 541.472727 -69.892647 
L 543.163636 -41.76 
L 544.854545 -41.76 
L 546.545455 -62.764325 
L 548.236364 -57.712214 
L 549.927273 -41.76 
L 551.618182 -113.147024 
L 553.309091 -63.525602 
L 555 -41.76 
L 556.690909 -101.001195 
L 558.381818 -41.76 
L 560.072727 -159.896354 
L 561.763636 -41.76 
L 563.454545 -63.387188 
L 565.145455 -41.76 
L 566.836364 -87.298208 
L 568.527273 -87.678847 
L 570.218182 -41.76 
L 571.909091 -80.273697 
L 573.6 -41.76 
L 575.290909 -41.76 
L 576.981818 -41.76 
L 578.672727 -118.856601 
L 580.363636 -41.76 
L 582.054545 -41.76 
L 583.745455 -41.76 
L 585.436364 -118.579773 
L 587.127273 -41.76 
L 588.818182 -63.525602 
L 590.509091 -41.76 
L 592.2 -108.025705 
L 593.890909 -41.76 
L 595.581818 -102.558352 
L 597.272727 -81.969269 
L 598.963636 -41.76 
L 600.654545 -41.76 
L 602.345455 -41.76 
L 604.036364 -131.867518 
L 605.727273 -41.76 
L 607.418182 -41.76 
L 609.109091 -41.76 
L 610.8 -124.254748 
L 612.490909 -41.76 
L 614.181818 -41.76 
L 615.872727 -68.750731 
L 617.563636 -41.76 
L 619.254545 -41.76 
L 620.945455 -41.76 
L 622.636364 -41.76 
L 622.636364 -41.76 
L 622.636364 -41.76 
L 620.945455 -70.965355 
L 619.254545 -78.266694 
L 617.563636 -67.435798 
L 615.872727 -78.301298 
L 614.181818 -46.258455 
L 612.490909 -49.580391 
L 610.8 -132.005932 
L 609.109091 -54.459485 
L 607.418182 -46.950525 
L 605.727273 -48.922925 
L 604.036364 -137.542492 
L 602.345455 -73.837446 
L 600.654545 -67.366591 
L 598.963636 -71.934253 
L 597.272727 -110.136519 
L 595.581818 -141.452688 
L 593.890909 -57.089351 
L 592.2 -120.171535 
L 590.509091 -66.882142 
L 588.818182 -85.221998 
L 587.127273 -56.08585 
L 585.436364 -127.092235 
L 583.745455 -93.388424 
L 582.054545 -100.897384 
L 580.363636 -95.187806 
L 578.672727 -138.061545 
L 576.981818 -53.940433 
L 575.290909 -51.621998 
L 573.6 -58.16206 
L 571.909091 -86.121689 
L 570.218182 -54.80552 
L 568.527273 -97.610051 
L 566.836364 -109.54826 
L 565.145455 -62.176066 
L 563.454545 -83.768651 
L 561.763636 -52.279464 
L 560.072727 -178.92828 
L 558.381818 -64.356087 
L 556.690909 -116.192132 
L 555 -51.552791 
L 553.309091 -73.422204 
L 551.618182 -130.414171 
L 549.927273 -79.200989 
L 548.236364 -87.990278 
L 546.545455 -77.193986 
L 544.854545 -52.244861 
L 543.163636 -63.629413 
L 541.472727 -125.950319 
L 539.781818 -69.546612 
L 538.090909 -74.66793 
L 536.4 -77.747642 
L 534.709091 -112.766385 
L 533.018182 -138.822822 
L 531.327273 -163.183687 
L 529.636364 -85.671843 
L 527.945455 -50.480082 
L 526.254545 -49.338167 
L 524.563636 -47.919423 
L 522.872727 -81.000371 
L 521.181818 -50.376272 
L 519.490909 -51.102945 
L 517.8 -59.5462 
L 516.109091 -70.826941 
L 514.418182 -77.989866 
L 512.727273 -46.293059 
L 511.036364 -151.591514 
L 509.345455 -67.366591 
L 507.654545 -60.584305 
L 505.963636 -73.491411 
L 504.272727 -97.748465 
L 502.581818 -49.441977 
L 500.890909 -168.131988 
L 499.2 -44.182245 
L 497.509091 -44.286056 
L 495.818182 -104.392338 
L 494.127273 -67.297384 
L 492.436364 -63.560206 
L 490.745455 -101.312626 
L 489.054545 -61.657013 
L 487.363636 -60.307477 
L 485.672727 -57.262369 
L 483.981818 -81.415613 
L 482.290909 -95.879876 
L 480.6 -115.603872 
L 478.909091 -97.852276 
L 477.218182 -98.613553 
L 475.527273 -112.42035 
L 473.836364 -56.88173 
L 472.145455 -90.723955 
L 470.454545 -97.713862 
L 468.763636 -49.649598 
L 467.072727 -100.205314 
L 465.381818 -54.078847 
L 463.690909 -52.936931 
L 462 -61.449392 
L 460.309091 -91.76206 
L 458.618182 -58.508095 
L 456.927273 -56.88173 
L 455.236364 -74.564119 
L 453.545455 -97.99069 
L 451.854545 -91.76206 
L 450.163636 -66.017055 
L 448.472727 -87.02138 
L 446.781818 -85.914068 
L 445.090909 -45.427971 
L 443.4 -44.251452 
L 441.709091 -108.475551 
L 440.018182 -84.841359 
L 438.327273 -86.190896 
L 436.636364 -73.110772 
L 434.945455 -100.378332 
L 433.254545 -77.124779 
L 431.563636 -80.481318 
L 429.872727 -82.315304 
L 428.181818 -78.059073 
L 426.490909 -100.65516 
L 424.8 -54.494089 
L 423.109091 -99.167209 
L 421.418182 -83.041977 
L 419.727273 -126.123337 
L 418.036364 -55.601401 
L 416.345455 -74.045067 
L 414.654545 -55.359176 
L 412.963636 -47.400371 
L 411.272727 -49.476581 
L 409.581818 -53.144552 
L 407.890909 -81.554027 
L 406.2 -109.859691 
L 404.509091 -51.552791 
L 402.818182 -80.515922 
L 401.127273 -55.359176 
L 399.436364 -59.753821 
L 397.745455 -118.718187 
L 396.054545 -77.43621 
L 394.363636 -115.015613 
L 392.672727 -106.503151 
L 390.981818 -52.625499 
L 389.290909 -47.261957 
L 387.6 -47.677199 
L 385.909091 -111.209228 
L 384.218182 -54.563296 
L 382.527273 -58.404284 
L 380.836364 -114.254336 
L 379.145455 -68.473903 
L 377.454545 -57.054748 
L 375.763636 -52.936931 
L 374.072727 -104.357734 
L 372.381818 -47.29656 
L 370.690909 -46.742904 
L 369 -202.008816 
L 367.309091 -50.964531 
L 365.618182 -56.985541 
L 363.927273 -112.904799 
L 362.236364 -61.933841 
L 360.545455 -52.867724 
L 358.854545 -67.262781 
L 357.163636 -107.818084 
L 355.472727 -68.54311 
L 353.781818 -50.341668 
L 352.090909 -57.539197 
L 350.4 -106.433944 
L 348.709091 -53.248363 
L 347.018182 -51.829619 
L 345.327273 -52.244861 
L 343.636364 -97.921483 
L 341.945455 -49.026735 
L 340.254545 -51.379773 
L 338.563636 -65.117364 
L 336.872727 -108.337137 
L 335.181818 -58.508095 
L 333.490909 -55.255366 
L 331.8 -57.158558 
L 330.109091 -114.738785 
L 328.418182 -66.293883 
L 326.727273 -107.714274 
L 325.036364 -66.155469 
L 323.345455 -91.243007 
L 321.654545 -114.911802 
L 319.963636 -126.227147 
L 318.272727 -69.685026 
L 316.581818 -56.431885 
L 314.890909 -58.784923 
L 313.2 -145.259073 
L 311.509091 -75.775242 
L 309.818182 -64.702122 
L 308.127273 -62.245273 
L 306.436364 -60.23827 
L 304.745455 -86.91757 
L 303.054545 -60.272873 
L 301.363636 -62.695118 
L 299.672727 -59.753821 
L 297.981818 -73.768239 
L 296.290909 -46.777508 
L 294.6 -62.902739 
L 292.909091 -52.763913 
L 291.218182 -141.418084 
L 289.527273 -49.026735 
L 287.836364 -49.303563 
L 286.145455 -50.826117 
L 284.454545 -52.936931 
L 282.763636 -85.325808 
L 281.072727 -46.846715 
L 279.381818 -46.742904 
L 277.690909 -46.50068 
L 276 -86.017878 
L 274.309091 -95.637652 
L 272.618182 -47.019732 
L 270.927273 -86.536931 
L 269.236364 -51.44898 
L 267.545455 -50.929928 
L 265.854545 -43.524779 
L 264.163636 -83.837858 
L 262.472727 -58.542698 
L 260.781818 -67.297384 
L 259.090909 -76.294295 
L 257.4 -132.594192 
L 255.709091 -120.206138 
L 254.018182 -114.081318 
L 252.327273 -112.281936 
L 250.636364 -85.602636 
L 248.945455 -135.708507 
L 247.254545 -71.934253 
L 245.563636 -71.345994 
L 243.872727 -48.542286 
L 242.181818 -135.985335 
L 240.490909 -46.223852 
L 238.8 -125.742698 
L 237.109091 -84.806756 
L 235.418182 -89.858867 
L 233.727273 -74.391102 
L 232.036364 -58.16206 
L 230.345455 -114.219732 
L 228.654545 -59.165561 
L 226.963636 -55.843625 
L 225.272727 -84.218496 
L 223.581818 -70.031061 
L 221.890909 -50.099444 
L 220.2 -54.770917 
L 218.509091 -45.877817 
L 216.818182 -102.869784 
L 215.127273 -63.871637 
L 213.436364 -45.358764 
L 211.745455 -51.414377 
L 210.054545 -110.447951 
L 208.363636 -55.739815 
L 206.672727 -70.169475 
L 204.981818 -82.107683 
L 203.290909 -150.76103 
L 201.6 -60.653512 
L 199.909091 -61.172564 
L 198.218182 -63.248774 
L 196.527273 -104.496148 
L 194.836364 -57.400783 
L 193.145455 -60.515098 
L 191.454545 -60.065252 
L 189.763636 -61.414789 
L 188.072727 -108.856189 
L 186.381818 -63.144964 
L 184.690909 -64.702122 
L 183 -66.190072 
L 181.309091 -133.909125 
L 179.618182 -72.453306 
L 177.927273 -71.89965 
L 176.236364 -71.622822 
L 174.545455 -146.850834 
L 172.854545 -72.557116 
L 171.163636 -71.968857 
L 169.472727 -72.522513 
L 167.781818 -144.567003 
L 166.090909 -70.826941 
L 164.4 -73.28379 
L 162.709091 -71.345994 
L 161.018182 -170.415819 
L 159.327273 -45.081936 
L 157.636364 -51.621998 
L 155.945455 -84.564531 
L 154.254545 -49.891823 
L 152.563636 -58.231267 
L 150.872727 -54.11345 
L 149.181818 -88.094089 
L 147.490909 -77.989866 
L 145.8 -74.737137 
L 144.109091 -73.699032 
L 142.418182 -163.771946 
L 140.727273 -61.103357 
L 139.036364 -64.529104 
L 137.345455 -69.13137 
L 135.654545 -130.379567 
L 133.963636 -67.608816 
L 132.272727 -67.089763 
L 130.581818 -68.577714 
L 128.890909 -97.125602 
L 127.2 -67.678023 
L 125.509091 -58.508095 
L 123.818182 -51.518187 
L 122.127273 -62.556704 
L 120.436364 -55.151555 
L 118.745455 -44.286056 
L 117.054545 -45.289557 
L 115.363636 -48.888321 
z
" style="stroke: #0000ff; stroke-width: 0.5"/>
    </defs>
    <g clip-path="url(#pcbe03299de)">
     <use xlink:href="#m6a9010ac6a" x="0" y="288" style="fill: #0000ff; stroke: #0000ff; stroke-width: 0.5"/>
    </g>
   </g>
   <g id="PolyCollection_3">
    <defs>
     <path id="m0ea18e74f7" d="M 115.363636 -58.611905 
L 115.363636 -48.888321 
L 117.054545 -45.289557 
L 118.745455 -44.286056 
L 120.436364 -55.151555 
L 122.127273 -62.556704 
L 123.818182 -51.518187 
L 125.509091 -58.508095 
L 127.2 -67.678023 
L 128.890909 -97.125602 
L 130.581818 -68.577714 
L 132.272727 -67.089763 
L 133.963636 -67.608816 
L 135.654545 -130.379567 
L 137.345455 -69.13137 
L 139.036364 -64.529104 
L 140.727273 -61.103357 
L 142.418182 -163.771946 
L 144.109091 -73.699032 
L 145.8 -74.737137 
L 147.490909 -77.989866 
L 149.181818 -88.094089 
L 150.872727 -54.11345 
L 152.563636 -58.231267 
L 154.254545 -49.891823 
L 155.945455 -84.564531 
L 157.636364 -51.621998 
L 159.327273 -45.081936 
L 161.018182 -170.415819 
L 162.709091 -71.345994 
L 164.4 -73.28379 
L 166.090909 -70.826941 
L 167.781818 -144.567003 
L 169.472727 -72.522513 
L 171.163636 -71.968857 
L 172.854545 -72.557116 
L 174.545455 -146.850834 
L 176.236364 -71.622822 
L 177.927273 -71.89965 
L 179.618182 -72.453306 
L 181.309091 -133.909125 
L 183 -66.190072 
L 184.690909 -64.702122 
L 186.381818 -63.144964 
L 188.072727 -108.856189 
L 189.763636 -61.414789 
L 191.454545 -60.065252 
L 193.145455 -60.515098 
L 194.836364 -57.400783 
L 196.527273 -104.496148 
L 198.218182 -63.248774 
L 199.909091 -61.172564 
L 201.6 -60.653512 
L 203.290909 -150.76103 
L 204.981818 -82.107683 
L 206.672727 -70.169475 
L 208.363636 -55.739815 
L 210.054545 -110.447951 
L 211.745455 -51.414377 
L 213.436364 -45.358764 
L 215.127273 -63.871637 
L 216.818182 -102.869784 
L 218.509091 -45.877817 
L 220.2 -54.770917 
L 221.890909 -50.099444 
L 223.581818 -70.031061 
L 225.272727 -84.218496 
L 226.963636 -55.843625 
L 228.654545 -59.165561 
L 230.345455 -114.219732 
L 232.036364 -58.16206 
L 233.727273 -74.391102 
L 235.418182 -89.858867 
L 237.109091 -84.806756 
L 238.8 -125.742698 
L 240.490909 -46.223852 
L 242.181818 -135.985335 
L 243.872727 -48.542286 
L 245.563636 -71.345994 
L 247.254545 -71.934253 
L 248.945455 -135.708507 
L 250.636364 -85.602636 
L 252.327273 -112.281936 
L 254.018182 -114.081318 
L 255.709091 -120.206138 
L 257.4 -132.594192 
L 259.090909 -76.294295 
L 260.781818 -67.297384 
L 262.472727 -58.542698 
L 264.163636 -83.837858 
L 265.854545 -43.524779 
L 267.545455 -50.929928 
L 269.236364 -51.44898 
L 270.927273 -86.536931 
L 272.618182 -47.019732 
L 274.309091 -95.637652 
L 276 -86.017878 
L 277.690909 -46.50068 
L 279.381818 -46.742904 
L 281.072727 -46.846715 
L 282.763636 -85.325808 
L 284.454545 -52.936931 
L 286.145455 -50.826117 
L 287.836364 -49.303563 
L 289.527273 -49.026735 
L 291.218182 -141.418084 
L 292.909091 -52.763913 
L 294.6 -62.902739 
L 296.290909 -46.777508 
L 297.981818 -73.768239 
L 299.672727 -59.753821 
L 301.363636 -62.695118 
L 303.054545 -60.272873 
L 304.745455 -86.91757 
L 306.436364 -60.23827 
L 308.127273 -62.245273 
L 309.818182 -64.702122 
L 311.509091 -75.775242 
L 313.2 -145.259073 
L 314.890909 -58.784923 
L 316.581818 -56.431885 
L 318.272727 -69.685026 
L 319.963636 -126.227147 
L 321.654545 -114.911802 
L 323.345455 -91.243007 
L 325.036364 -66.155469 
L 326.727273 -107.714274 
L 328.418182 -66.293883 
L 330.109091 -114.738785 
L 331.8 -57.158558 
L 333.490909 -55.255366 
L 335.181818 -58.508095 
L 336.872727 -108.337137 
L 338.563636 -65.117364 
L 340.254545 -51.379773 
L 341.945455 -49.026735 
L 343.636364 -97.921483 
L 345.327273 -52.244861 
L 347.018182 -51.829619 
L 348.709091 -53.248363 
L 350.4 -106.433944 
L 352.090909 -57.539197 
L 353.781818 -50.341668 
L 355.472727 -68.54311 
L 357.163636 -107.818084 
L 358.854545 -67.262781 
L 360.545455 -52.867724 
L 362.236364 -61.933841 
L 363.927273 -112.904799 
L 365.618182 -56.985541 
L 367.309091 -50.964531 
L 369 -202.008816 
L 370.690909 -46.742904 
L 372.381818 -47.29656 
L 374.072727 -104.357734 
L 375.763636 -52.936931 
L 377.454545 -57.054748 
L 379.145455 -68.473903 
L 380.836364 -114.254336 
L 382.527273 -58.404284 
L 384.218182 -54.563296 
L 385.909091 -111.209228 
L 387.6 -47.677199 
L 389.290909 -47.261957 
L 390.981818 -52.625499 
L 392.672727 -106.503151 
L 394.363636 -115.015613 
L 396.054545 -77.43621 
L 397.745455 -118.718187 
L 399.436364 -59.753821 
L 401.127273 -55.359176 
L 402.818182 -80.515922 
L 404.509091 -51.552791 
L 406.2 -109.859691 
L 407.890909 -81.554027 
L 409.581818 -53.144552 
L 411.272727 -49.476581 
L 412.963636 -47.400371 
L 414.654545 -55.359176 
L 416.345455 -74.045067 
L 418.036364 -55.601401 
L 419.727273 -126.123337 
L 421.418182 -83.041977 
L 423.109091 -99.167209 
L 424.8 -54.494089 
L 426.490909 -100.65516 
L 428.181818 -78.059073 
L 429.872727 -82.315304 
L 431.563636 -80.481318 
L 433.254545 -77.124779 
L 434.945455 -100.378332 
L 436.636364 -73.110772 
L 438.327273 -86.190896 
L 440.018182 -84.841359 
L 441.709091 -108.475551 
L 443.4 -44.251452 
L 445.090909 -45.427971 
L 446.781818 -85.914068 
L 448.472727 -87.02138 
L 450.163636 -66.017055 
L 451.854545 -91.76206 
L 453.545455 -97.99069 
L 455.236364 -74.564119 
L 456.927273 -56.88173 
L 458.618182 -58.508095 
L 460.309091 -91.76206 
L 462 -61.449392 
L 463.690909 -52.936931 
L 465.381818 -54.078847 
L 467.072727 -100.205314 
L 468.763636 -49.649598 
L 470.454545 -97.713862 
L 472.145455 -90.723955 
L 473.836364 -56.88173 
L 475.527273 -112.42035 
L 477.218182 -98.613553 
L 478.909091 -97.852276 
L 480.6 -115.603872 
L 482.290909 -95.879876 
L 483.981818 -81.415613 
L 485.672727 -57.262369 
L 487.363636 -60.307477 
L 489.054545 -61.657013 
L 490.745455 -101.312626 
L 492.436364 -63.560206 
L 494.127273 -67.297384 
L 495.818182 -104.392338 
L 497.509091 -44.286056 
L 499.2 -44.182245 
L 500.890909 -168.131988 
L 502.581818 -49.441977 
L 504.272727 -97.748465 
L 505.963636 -73.491411 
L 507.654545 -60.584305 
L 509.345455 -67.366591 
L 511.036364 -151.591514 
L 512.727273 -46.293059 
L 514.418182 -77.989866 
L 516.109091 -70.826941 
L 517.8 -59.5462 
L 519.490909 -51.102945 
L 521.181818 -50.376272 
L 522.872727 -81.000371 
L 524.563636 -47.919423 
L 526.254545 -49.338167 
L 527.945455 -50.480082 
L 529.636364 -85.671843 
L 531.327273 -163.183687 
L 533.018182 -138.822822 
L 534.709091 -112.766385 
L 536.4 -77.747642 
L 538.090909 -74.66793 
L 539.781818 -69.546612 
L 541.472727 -125.950319 
L 543.163636 -63.629413 
L 544.854545 -52.244861 
L 546.545455 -77.193986 
L 548.236364 -87.990278 
L 549.927273 -79.200989 
L 551.618182 -130.414171 
L 553.309091 -73.422204 
L 555 -51.552791 
L 556.690909 -116.192132 
L 558.381818 -64.356087 
L 560.072727 -178.92828 
L 561.763636 -52.279464 
L 563.454545 -83.768651 
L 565.145455 -62.176066 
L 566.836364 -109.54826 
L 568.527273 -97.610051 
L 570.218182 -54.80552 
L 571.909091 -86.121689 
L 573.6 -58.16206 
L 575.290909 -51.621998 
L 576.981818 -53.940433 
L 578.672727 -138.061545 
L 580.363636 -95.187806 
L 582.054545 -100.897384 
L 583.745455 -93.388424 
L 585.436364 -127.092235 
L 587.127273 -56.08585 
L 588.818182 -85.221998 
L 590.509091 -66.882142 
L 592.2 -120.171535 
L 593.890909 -57.089351 
L 595.581818 -141.452688 
L 597.272727 -110.136519 
L 598.963636 -71.934253 
L 600.654545 -67.366591 
L 602.345455 -73.837446 
L 604.036364 -137.542492 
L 605.727273 -48.922925 
L 607.418182 -46.950525 
L 609.109091 -54.459485 
L 610.8 -132.005932 
L 612.490909 -49.580391 
L 614.181818 -46.258455 
L 615.872727 -78.301298 
L 617.563636 -67.435798 
L 619.254545 -78.266694 
L 620.945455 -70.965355 
L 622.636364 -41.76 
L 622.636364 -41.967621 
L 622.636364 -41.967621 
L 620.945455 -141.27967 
L 619.254545 -156.678229 
L 617.563636 -113.354645 
L 615.872727 -98.544346 
L 614.181818 -73.941256 
L 612.490909 -84.910566 
L 610.8 -163.702739 
L 609.109091 -118.441359 
L 607.418182 -66.224676 
L 605.727273 -92.730958 
L 604.036364 -201.939609 
L 602.345455 -121.140433 
L 600.654545 -115.223234 
L 598.963636 -110.793986 
L 597.272727 -147.612111 
L 595.581818 -180.381627 
L 593.890909 -126.711596 
L 592.2 -166.955469 
L 590.509091 -104.150113 
L 588.818182 -120.552173 
L 587.127273 -106.260927 
L 585.436364 -197.475757 
L 583.745455 -176.679053 
L 582.054545 -176.090793 
L 580.363636 -171.834562 
L 578.672727 -176.125396 
L 576.981818 -110.413347 
L 575.290909 -90.689351 
L 573.6 -102.350731 
L 571.909091 -104.876787 
L 570.218182 -76.778744 
L 568.527273 -115.361648 
L 566.836364 -142.733018 
L 565.145455 -96.744964 
L 563.454545 -122.524573 
L 561.763636 -100.862781 
L 560.072727 -212.770505 
L 558.381818 -94.218908 
L 556.690909 -140.5876 
L 555 -68.231679 
L 553.309091 -93.561442 
L 551.618182 -164.152585 
L 549.927273 -138.165355 
L 548.236364 -121.486468 
L 546.545455 -113.562266 
L 544.854545 -83.66484 
L 543.163636 -118.891205 
L 541.472727 -200.590072 
L 539.781818 -118.026117 
L 538.090909 -133.147848 
L 536.4 -141.764119 
L 534.709091 -205.953615 
L 533.018182 -198.479258 
L 531.327273 -191.28173 
L 529.636364 -134.739609 
L 527.945455 -69.650422 
L 526.254545 -63.421792 
L 524.563636 -62.902739 
L 522.872727 -99.859279 
L 521.181818 -71.20758 
L 519.490909 -68.127868 
L 517.8 -86.087085 
L 516.109091 -118.441359 
L 514.418182 -86.190896 
L 512.727273 -66.570711 
L 511.036364 -163.149083 
L 509.345455 -99.132606 
L 507.654545 -95.187806 
L 505.963636 -140.933635 
L 504.272727 -194.984305 
L 502.581818 -132.005932 
L 500.890909 -212.320659 
L 499.2 -46.881318 
L 497.509091 -46.569887 
L 495.818182 -113.423852 
L 494.127273 -87.505829 
L 492.436364 -91.104593 
L 490.745455 -143.771123 
L 489.054545 -93.284614 
L 487.363636 -98.059897 
L 485.672727 -90.654748 
L 483.981818 -126.780803 
L 482.290909 -243.36 
L 480.6 -215.815613 
L 478.909091 -176.886674 
L 477.218182 -153.909949 
L 475.527273 -162.076375 
L 473.836364 -72.730134 
L 472.145455 -119.721689 
L 470.454545 -123.38966 
L 468.763636 -57.816025 
L 467.072727 -107.57586 
L 465.381818 -78.12828 
L 463.690909 -76.259691 
L 462 -118.995015 
L 460.309091 -118.233738 
L 458.618182 -81.865458 
L 456.927273 -79.547024 
L 455.236364 -103.804078 
L 453.545455 -223.255366 
L 451.854545 -122.628383 
L 450.163636 -109.479053 
L 448.472727 -168.54723 
L 446.781818 -123.874109 
L 445.090909 -50.168651 
L 443.4 -46.915922 
L 441.709091 -132.28276 
L 440.018182 -163.80655 
L 438.327273 -171.073285 
L 436.636364 -140.137755 
L 434.945455 -151.418496 
L 433.254545 -117.507065 
L 431.563636 -109.790484 
L 429.872727 -126.05413 
L 428.181818 -118.199135 
L 426.490909 -130.621792 
L 424.8 -80.342904 
L 423.109091 -118.372152 
L 421.418182 -121.521071 
L 419.727273 -170.312008 
L 418.036364 -88.578538 
L 416.345455 -90.101092 
L 414.654545 -73.733635 
L 412.963636 -56.847127 
L 411.272727 -61.276375 
L 409.581818 -80.031473 
L 407.890909 -120.309949 
L 406.2 -124.946818 
L 404.509091 -65.636416 
L 402.818182 -102.212317 
L 401.127273 -84.114686 
L 399.436364 -102.558352 
L 397.745455 -144.082554 
L 396.054545 -99.098002 
L 394.363636 -137.334871 
L 392.672727 -123.458867 
L 390.981818 -65.809434 
L 389.290909 -54.355675 
L 387.6 -59.303975 
L 385.909091 -118.614377 
L 384.218182 -95.187806 
L 382.527273 -104.011699 
L 380.836364 -164.221792 
L 379.145455 -120.067724 
L 377.454545 -95.32622 
L 375.763636 -74.564119 
L 374.072727 -164.844655 
L 372.381818 -135.950731 
L 370.690909 -151.176272 
L 369 -220.348671 
L 367.309091 -89.443625 
L 365.618182 -107.818084 
L 363.927273 -166.817055 
L 362.236364 -106.018702 
L 360.545455 -98.163708 
L 358.854545 -119.825499 
L 357.163636 -152.24898 
L 355.472727 -117.991514 
L 353.781818 -86.606138 
L 352.090909 -110.309537 
L 350.4 -151.799135 
L 348.709091 -99.790072 
L 347.018182 -92.246509 
L 345.327273 -92.730958 
L 343.636364 -136.746612 
L 341.945455 -84.045479 
L 340.254545 -83.526426 
L 338.563636 -113.631473 
L 336.872727 -139.134253 
L 335.181818 -88.820762 
L 333.490909 -79.270196 
L 331.8 -85.879464 
L 330.109091 -144.567003 
L 328.418182 -110.620968 
L 326.727273 -156.505211 
L 325.036364 -129.099238 
L 323.345455 -163.252894 
L 321.654545 -141.764119 
L 319.963636 -169.516128 
L 318.272727 -115.638476 
L 316.581818 -76.917158 
L 314.890909 -87.298208 
L 313.2 -187.925191 
L 311.509091 -113.839094 
L 309.818182 -93.25001 
L 308.127273 -88.99378 
L 306.436364 -85.464222 
L 304.745455 -116.330546 
L 303.054545 -82.211493 
L 301.363636 -104.323131 
L 299.672727 -85.360412 
L 297.981818 -87.540433 
L 296.290909 -63.80243 
L 294.6 -140.276169 
L 292.909091 -80.619732 
L 291.218182 -153.875345 
L 289.527273 -53.767415 
L 287.836364 -58.577302 
L 286.145455 -73.526014 
L 284.454545 -85.844861 
L 282.763636 -98.371329 
L 281.072727 -53.213759 
L 279.381818 -55.878229 
L 277.690909 -54.770917 
L 276 -127.54208 
L 274.309091 -140.033944 
L 272.618182 -55.636004 
L 270.927273 -99.582451 
L 269.236364 -71.934253 
L 267.545455 -68.300886 
L 265.854545 -46.120041 
L 264.163636 -100.585953 
L 262.472727 -102.316128 
L 260.781818 -114.877199 
L 259.090909 -135.74311 
L 257.4 -185.84898 
L 255.709091 -207.510772 
L 254.018182 -203.773594 
L 252.327273 -201.489763 
L 250.636364 -141.210463 
L 248.945455 -190.174418 
L 247.254545 -105.707271 
L 245.563636 -89.236004 
L 243.872727 -63.837034 
L 242.181818 -140.829825 
L 240.490909 -51.725808 
L 238.8 -176.229207 
L 237.109091 -119.23724 
L 235.418182 -142.040947 
L 233.727273 -131.348465 
L 232.036364 -91.727456 
L 230.345455 -125.604284 
L 228.654545 -85.221998 
L 226.963636 -73.110772 
L 225.272727 -104.634562 
L 223.581818 -77.43621 
L 221.890909 -62.937343 
L 220.2 -71.692029 
L 218.509091 -53.594398 
L 216.818182 -143.355881 
L 215.127273 -152.595015 
L 213.436364 -135.154851 
L 211.745455 -124.220144 
L 210.054545 -174.08379 
L 208.363636 -125.915716 
L 206.672727 -132.248157 
L 204.981818 -162.976066 
L 203.290909 -188.928692 
L 201.6 -102.246921 
L 199.909091 -108.890793 
L 198.218182 -105.880288 
L 196.527273 -137.438682 
L 194.836364 -90.204902 
L 193.145455 -102.0393 
L 191.454545 -103.700268 
L 189.763636 -96.883378 
L 188.072727 -152.491205 
L 186.381818 -111.762884 
L 184.690909 -115.119423 
L 183 -119.098826 
L 181.309091 -184.776272 
L 179.618182 -165.88276 
L 177.927273 -168.201195 
L 176.236364 -172.872667 
L 174.545455 -240.072667 
L 172.854545 -163.045273 
L 171.163636 -166.194192 
L 169.472727 -166.436416 
L 167.781818 -237.096766 
L 166.090909 -161.072873 
L 164.4 -161.245891 
L 162.709091 -159.481112 
L 161.018182 -198.825294 
L 159.327273 -51.725808 
L 157.636364 -84.426117 
L 155.945455 -128.960824 
L 154.254545 -63.560206 
L 152.563636 -92.938579 
L 150.872727 -79.547024 
L 149.181818 -118.475963 
L 147.490909 -144.601607 
L 145.8 -157.543316 
L 144.109091 -157.370299 
L 142.418182 -237.961854 
L 140.727273 -149.169269 
L 139.036364 -164.533223 
L 137.345455 -190.001401 
L 135.654545 -241.664428 
L 133.963636 -184.36103 
L 132.272727 -169.100886 
L 130.581818 -176.886674 
L 128.890909 -192.838888 
L 127.2 -141.902533 
L 125.509091 -102.627559 
L 123.818182 -73.041565 
L 122.127273 -95.291617 
L 120.436364 -56.950937 
L 118.745455 -45.843213 
L 117.054545 -46.777508 
L 115.363636 -58.611905 
z
" style="stroke: #008000; stroke-width: 0.5"/>
    </defs>
    <g clip-path="url(#pcbe03299de)">
     <use xlink:href="#m0ea18e74f7" x="0" y="288" style="fill: #008000; stroke: #008000; stroke-width: 0.5"/>
    </g>
   </g>
   <g id="line2d_26">
    <path d="M 90 44.64 
L 648 44.64 
" clip-path="url(#pcbe03299de)" style="fill: none; stroke: #000000; stroke-width: 1.5; stroke-linecap: square"/>
   </g>
   <g id="line2d_27">
    <path d="M 90 167.96688 
L 648 167.96688 
" clip-path="url(#pcbe03299de)" style="fill: none; stroke: #000000; stroke-width: 1.5; stroke-linecap: square"/>
   </g>
   <g id="patch_3">
    <path d="M 90 256.32 
L 90 34.56 
" style="fill: none; stroke: #000000; stroke-width: 0.8; stroke-linejoin: miter; stroke-linecap: square"/>
   </g>
   <g id="patch_4">
    <path d="M 648 256.32 
L 648 34.56 
" style="fill: none; stroke: #000000; stroke-width: 0.8; stroke-linejoin: miter; stroke-linecap: square"/>
   </g>
   <g id="patch_5">
    <path d="M 90 256.32 
L 648 256.32 
" style="fill: none; stroke: #000000; stroke-width: 0.8; stroke-linejoin: miter; stroke-linecap: square"/>
   </g>
   <g id="patch_6">
    <path d="M 90 34.56 
L 648 34.56 
" style="fill: none; stroke: #000000; stroke-width: 0.8; stroke-linejoin: miter; stroke-linecap: square"/>
   </g>
   <g id="text_21">
    <!-- peak (5,826) -->
    <g transform="translate(122.179233 41.3136) scale(0.1 -0.1)">
     <defs>
      <path id="DejaVuSans-Bold-70" d="M 1656 506 
L 1656 -1331 
L 538 -1331 
L 538 3500 
L 1656 3500 
L 1656 2988 
Q 1888 3294 2169 3439 
Q 2450 3584 2816 3584 
Q 3463 3584 3878 3070 
Q 4294 2556 4294 1747 
Q 4294 938 3878 423 
Q 3463 -91 2816 -91 
Q 2450 -91 2169 54 
Q 1888 200 1656 506 
z
M 2400 2772 
Q 2041 2772 1848 2508 
Q 1656 2244 1656 1747 
Q 1656 1250 1848 986 
Q 2041 722 2400 722 
Q 2759 722 2948 984 
Q 3138 1247 3138 1747 
Q 3138 2247 2948 2509 
Q 2759 2772 2400 2772 
z
" transform="scale(0.015625)"/>
      <path id="DejaVuSans-Bold-65" d="M 4031 1759 
L 4031 1441 
L 1416 1441 
Q 1456 1047 1700 850 
Q 1944 653 2381 653 
Q 2734 653 3104 758 
Q 3475 863 3866 1075 
L 3866 213 
Q 3469 63 3072 -14 
Q 2675 -91 2278 -91 
Q 1328 -91 801 392 
Q 275 875 275 1747 
Q 275 2603 792 3093 
Q 1309 3584 2216 3584 
Q 3041 3584 3536 3087 
Q 4031 2591 4031 1759 
z
M 2881 2131 
Q 2881 2450 2695 2645 
Q 2509 2841 2209 2841 
Q 1884 2841 1681 2658 
Q 1478 2475 1428 2131 
L 2881 2131 
z
" transform="scale(0.015625)"/>
      <path id="DejaVuSans-Bold-61" d="M 2106 1575 
Q 1756 1575 1579 1456 
Q 1403 1338 1403 1106 
Q 1403 894 1545 773 
Q 1688 653 1941 653 
Q 2256 653 2472 879 
Q 2688 1106 2688 1447 
L 2688 1575 
L 2106 1575 
z
M 3816 1997 
L 3816 0 
L 2688 0 
L 2688 519 
Q 2463 200 2181 54 
Q 1900 -91 1497 -91 
Q 953 -91 614 226 
Q 275 544 275 1050 
Q 275 1666 698 1953 
Q 1122 2241 2028 2241 
L 2688 2241 
L 2688 2328 
Q 2688 2594 2478 2717 
Q 2269 2841 1825 2841 
Q 1466 2841 1156 2769 
Q 847 2697 581 2553 
L 581 3406 
Q 941 3494 1303 3539 
Q 1666 3584 2028 3584 
Q 2975 3584 3395 3211 
Q 3816 2838 3816 1997 
z
" transform="scale(0.015625)"/>
      <path id="DejaVuSans-Bold-6b" d="M 538 4863 
L 1656 4863 
L 1656 2216 
L 2944 3500 
L 4244 3500 
L 2534 1894 
L 4378 0 
L 3022 0 
L 1656 1459 
L 1656 0 
L 538 0 
L 538 4863 
z
" transform="scale(0.015625)"/>
      <path id="DejaVuSans-Bold-20" transform="scale(0.015625)"/>
      <path id="DejaVuSans-Bold-28" d="M 2413 -844 
L 1484 -844 
Q 1006 -72 778 623 
Q 550 1319 550 2003 
Q 550 2688 779 3389 
Q 1009 4091 1484 4856 
L 2413 4856 
Q 2013 4116 1813 3408 
Q 1613 2700 1613 2009 
Q 1613 1319 1811 609 
Q 2009 -100 2413 -844 
z
" transform="scale(0.015625)"/>
      <path id="DejaVuSans-Bold-35" d="M 678 4666 
L 3669 4666 
L 3669 3781 
L 1638 3781 
L 1638 3059 
Q 1775 3097 1914 3117 
Q 2053 3138 2203 3138 
Q 3056 3138 3531 2711 
Q 4006 2284 4006 1522 
Q 4006 766 3489 337 
Q 2972 -91 2053 -91 
Q 1656 -91 1267 -14 
Q 878 63 494 219 
L 494 1166 
Q 875 947 1217 837 
Q 1559 728 1863 728 
Q 2300 728 2551 942 
Q 2803 1156 2803 1522 
Q 2803 1891 2551 2103 
Q 2300 2316 1863 2316 
Q 1603 2316 1309 2248 
Q 1016 2181 678 2041 
L 678 4666 
z
" transform="scale(0.015625)"/>
      <path id="DejaVuSans-Bold-2c" d="M 653 1209 
L 1778 1209 
L 1778 256 
L 1006 -909 
L 341 -909 
L 653 256 
L 653 1209 
z
" transform="scale(0.015625)"/>
      <path id="DejaVuSans-Bold-38" d="M 2228 2088 
Q 1891 2088 1709 1903 
Q 1528 1719 1528 1375 
Q 1528 1031 1709 848 
Q 1891 666 2228 666 
Q 2563 666 2741 848 
Q 2919 1031 2919 1375 
Q 2919 1722 2741 1905 
Q 2563 2088 2228 2088 
z
M 1350 2484 
Q 925 2613 709 2878 
Q 494 3144 494 3541 
Q 494 4131 934 4440 
Q 1375 4750 2228 4750 
Q 3075 4750 3515 4442 
Q 3956 4134 3956 3541 
Q 3956 3144 3739 2878 
Q 3522 2613 3097 2484 
Q 3572 2353 3814 2058 
Q 4056 1763 4056 1313 
Q 4056 619 3595 264 
Q 3134 -91 2228 -91 
Q 1319 -91 855 264 
Q 391 619 391 1313 
Q 391 1763 633 2058 
Q 875 2353 1350 2484 
z
M 1631 3419 
Q 1631 3141 1786 2991 
Q 1941 2841 2228 2841 
Q 2509 2841 2662 2991 
Q 2816 3141 2816 3419 
Q 2816 3697 2662 3845 
Q 2509 3994 2228 3994 
Q 1941 3994 1786 3844 
Q 1631 3694 1631 3419 
z
" transform="scale(0.015625)"/>
      <path id="DejaVuSans-Bold-32" d="M 1844 884 
L 3897 884 
L 3897 0 
L 506 0 
L 506 884 
L 2209 2388 
Q 2438 2594 2547 2791 
Q 2656 2988 2656 3200 
Q 2656 3528 2436 3728 
Q 2216 3928 1850 3928 
Q 1569 3928 1234 3808 
Q 900 3688 519 3450 
L 519 4475 
Q 925 4609 1322 4679 
Q 1719 4750 2100 4750 
Q 2938 4750 3402 4381 
Q 3866 4013 3866 3353 
Q 3866 2972 3669 2642 
Q 3472 2313 2841 1759 
L 1844 884 
z
" transform="scale(0.015625)"/>
      <path id="DejaVuSans-Bold-36" d="M 2316 2303 
Q 2000 2303 1842 2098 
Q 1684 1894 1684 1484 
Q 1684 1075 1842 870 
Q 2000 666 2316 666 
Q 2634 666 2792 870 
Q 2950 1075 2950 1484 
Q 2950 1894 2792 2098 
Q 2634 2303 2316 2303 
z
M 3803 4544 
L 3803 3681 
Q 3506 3822 3243 3889 
Q 2981 3956 2731 3956 
Q 2194 3956 1894 3657 
Q 1594 3359 1544 2772 
Q 1750 2925 1990 3001 
Q 2231 3078 2516 3078 
Q 3231 3078 3670 2659 
Q 4109 2241 4109 1563 
Q 4109 813 3618 361 
Q 3128 -91 2303 -91 
Q 1394 -91 895 523 
Q 397 1138 397 2266 
Q 397 3422 980 4083 
Q 1563 4744 2578 4744 
Q 2900 4744 3203 4694 
Q 3506 4644 3803 4544 
z
" transform="scale(0.015625)"/>
      <path id="DejaVuSans-Bold-29" d="M 513 -844 
Q 913 -100 1113 609 
Q 1313 1319 1313 2009 
Q 1313 2700 1113 3408 
Q 913 4116 513 4856 
L 1441 4856 
Q 1916 4091 2145 3389 
Q 2375 2688 2375 2003 
Q 2375 1319 2147 623 
Q 1919 -72 1441 -844 
L 513 -844 
z
" transform="scale(0.015625)"/>
     </defs>
     <use xlink:href="#DejaVuSans-Bold-70"/>
     <use xlink:href="#DejaVuSans-Bold-65" x="71.582031"/>
     <use xlink:href="#DejaVuSans-Bold-61" x="139.404297"/>
     <use xlink:href="#DejaVuSans-Bold-6b" x="206.884766"/>
     <use xlink:href="#DejaVuSans-Bold-20" x="273.388672"/>
     <use xlink:href="#DejaVuSans-Bold-28" x="308.203125"/>
     <use xlink:href="#DejaVuSans-Bold-35" x="353.90625"/>
     <use xlink:href="#DejaVuSans-Bold-2c" x="423.486328"/>
     <use xlink:href="#DejaVuSans-Bold-38" x="461.474609"/>
     <use xlink:href="#DejaVuSans-Bold-32" x="531.054688"/>
     <use xlink:href="#DejaVuSans-Bold-36" x="600.634766"/>
     <use xlink:href="#DejaVuSans-Bold-29" x="670.214844"/>
    </g>
   </g>
   <g id="text_22">
    <!-- mean (2,262) -->
    <g transform="translate(567.728153 164.64048) scale(0.1 -0.1)">
     <defs>
      <path id="DejaVuSans-Bold-6d" d="M 3781 2919 
Q 3994 3244 4286 3414 
Q 4578 3584 4928 3584 
Q 5531 3584 5847 3212 
Q 6163 2841 6163 2131 
L 6163 0 
L 5038 0 
L 5038 1825 
Q 5041 1866 5042 1909 
Q 5044 1953 5044 2034 
Q 5044 2406 4934 2573 
Q 4825 2741 4581 2741 
Q 4263 2741 4089 2478 
Q 3916 2216 3909 1719 
L 3909 0 
L 2784 0 
L 2784 1825 
Q 2784 2406 2684 2573 
Q 2584 2741 2328 2741 
Q 2006 2741 1831 2477 
Q 1656 2213 1656 1722 
L 1656 0 
L 531 0 
L 531 3500 
L 1656 3500 
L 1656 2988 
Q 1863 3284 2130 3434 
Q 2397 3584 2719 3584 
Q 3081 3584 3359 3409 
Q 3638 3234 3781 2919 
z
" transform="scale(0.015625)"/>
      <path id="DejaVuSans-Bold-6e" d="M 4056 2131 
L 4056 0 
L 2931 0 
L 2931 347 
L 2931 1631 
Q 2931 2084 2911 2256 
Q 2891 2428 2841 2509 
Q 2775 2619 2662 2680 
Q 2550 2741 2406 2741 
Q 2056 2741 1856 2470 
Q 1656 2200 1656 1722 
L 1656 0 
L 538 0 
L 538 3500 
L 1656 3500 
L 1656 2988 
Q 1909 3294 2193 3439 
Q 2478 3584 2822 3584 
Q 3428 3584 3742 3212 
Q 4056 2841 4056 2131 
z
" transform="scale(0.015625)"/>
     </defs>
     <use xlink:href="#DejaVuSans-Bold-6d"/>
     <use xlink:href="#DejaVuSans-Bold-65" x="104.199219"/>
     <use xlink:href="#DejaVuSans-Bold-61" x="172.021484"/>
     <use xlink:href="#DejaVuSans-Bold-6e" x="239.501953"/>
     <use xlink:href="#DejaVuSans-Bold-20" x="310.693359"/>
     <use xlink:href="#DejaVuSans-Bold-28" x="345.507812"/>
     <use xlink:href="#DejaVuSans-Bold-32" x="391.210938"/>
     <use xlink:href="#DejaVuSans-Bold-2c" x="460.791016"/>
     <use xlink:href="#DejaVuSans-Bold-32" x="498.779297"/>
     <use xlink:href="#DejaVuSans-Bold-36" x="568.359375"/>
     <use xlink:href="#DejaVuSans-Bold-32" x="637.939453"/>
     <use xlink:href="#DejaVuSans-Bold-29" x="707.519531"/>
    </g>
   </g>
   <g id="text_23">
    <!-- Stream Bitrate over Time -->
    <g transform="translate(293.189062 28.56) scale(0.12 -0.12)">
     <defs>
      <path id="DejaVuSans-53" d="M 3425 4513 
L 3425 3897 
Q 3066 4069 2747 4153 
Q 2428 4238 2131 4238 
Q 1616 4238 1336 4038 
Q 1056 3838 1056 3469 
Q 1056 3159 1242 3001 
Q 1428 2844 1947 2747 
L 2328 2669 
Q 3034 2534 3370 2195 
Q 3706 1856 3706 1288 
Q 3706 609 3251 259 
Q 2797 -91 1919 -91 
Q 1588 -91 1214 -16 
Q 841 59 441 206 
L 441 856 
Q 825 641 1194 531 
Q 1563 422 1919 422 
Q 2459 422 2753 634 
Q 3047 847 3047 1241 
Q 3047 1584 2836 1778 
Q 2625 1972 2144 2069 
L 1759 2144 
Q 1053 2284 737 2584 
Q 422 2884 422 3419 
Q 422 4038 858 4394 
Q 1294 4750 2059 4750 
Q 2388 4750 2728 4690 
Q 3069 4631 3425 4513 
z
" transform="scale(0.015625)"/>
      <path id="DejaVuSans-6f" d="M 1959 3097 
Q 1497 3097 1228 2736 
Q 959 2375 959 1747 
Q 959 1119 1226 758 
Q 1494 397 1959 397 
Q 2419 397 2687 759 
Q 2956 1122 2956 1747 
Q 2956 2369 2687 2733 
Q 2419 3097 1959 3097 
z
M 1959 3584 
Q 2709 3584 3137 3096 
Q 3566 2609 3566 1747 
Q 3566 888 3137 398 
Q 2709 -91 1959 -91 
Q 1206 -91 779 398 
Q 353 888 353 1747 
Q 353 2609 779 3096 
Q 1206 3584 1959 3584 
z
" transform="scale(0.015625)"/>
      <path id="DejaVuSans-76" d="M 191 3500 
L 800 3500 
L 1894 563 
L 2988 3500 
L 3597 3500 
L 2284 0 
L 1503 0 
L 191 3500 
z
" transform="scale(0.015625)"/>
     </defs>
     <use xlink:href="#DejaVuSans-53"/>
     <use xlink:href="#DejaVuSans-74" x="63.476562"/>
     <use xlink:href="#DejaVuSans-72" x="102.685547"/>
     <use xlink:href="#DejaVuSans-65" x="141.548828"/>
     <use xlink:href="#DejaVuSans-61" x="203.072266"/>
     <use xlink:href="#DejaVuSans-6d" x="264.351562"/>
     <use xlink:href="#DejaVuSans-20" x="361.763672"/>
     <use xlink:href="#DejaVuSans-42" x="393.550781"/>
     <use xlink:href="#DejaVuSans-69" x="462.154297"/>
     <use xlink:href="#DejaVuSans-74" x="489.9375"/>
     <use xlink:href="#DejaVuSans-72" x="529.146484"/>
     <use xlink:href="#DejaVuSans-61" x="570.259766"/>
     <use xlink:href="#DejaVuSans-74" x="631.539062"/>
     <use xlink:href="#DejaVuSans-65" x="670.748047"/>
     <use xlink:href="#DejaVuSans-20" x="732.271484"/>
     <use xlink:href="#DejaVuSans-6f" x="764.058594"/>
     <use xlink:href="#DejaVuSans-76" x="825.240234"/>
     <use xlink:href="#DejaVuSans-65" x="884.419922"/>
     <use xlink:href="#DejaVuSans-72" x="945.943359"/>
     <use xlink:href="#DejaVuSans-20" x="987.056641"/>
     <use xlink:href="#DejaVuSans-54" x="1018.84375"/>
     <use xlink:href="#DejaVuSans-69" x="1076.802734"/>
     <use xlink:href="#DejaVuSans-6d" x="1104.585938"/>
     <use xlink:href="#DejaVuSans-65" x="1201.998047"/>
    </g>
   </g>
   <g id="legend_1">
    <g id="patch_7">
     <path d="M 602.139063 86.594375 
L 641 86.594375 
Q 643 86.594375 643 84.594375 
L 643 41.56 
Q 643 39.56 641 39.56 
L 602.139063 39.56 
Q 600.139063 39.56 600.139063 41.56 
L 600.139063 84.594375 
Q 600.139063 86.594375 602.139063 86.594375 
z
" style="fill: #ffffff; opacity: 0.8; stroke: #cccccc; stroke-linejoin: miter"/>
    </g>
    <g id="patch_8">
     <path d="M 604.139063 51.158438 
L 624.139063 51.158438 
L 624.139063 44.158438 
L 604.139063 44.158438 
z
" style="fill: #ff0000; stroke: #ff0000; stroke-width: 0.5; stroke-linejoin: miter"/>
    </g>
    <g id="text_24">
     <!-- I -->
     <g transform="translate(632.139063 51.158438) scale(0.1 -0.1)">
      <defs>
       <path id="DejaVuSans-49" d="M 628 4666 
L 1259 4666 
L 1259 0 
L 628 0 
L 628 4666 
z
" transform="scale(0.015625)"/>
      </defs>
      <use xlink:href="#DejaVuSans-49"/>
     </g>
    </g>
    <g id="patch_9">
     <path d="M 604.139063 65.836563 
L 624.139063 65.836563 
L 624.139063 58.836563 
L 604.139063 58.836563 
z
" style="fill: #0000ff; stroke: #0000ff; stroke-width: 0.5; stroke-linejoin: miter"/>
    </g>
    <g id="text_25">
     <!-- B -->
     <g transform="translate(632.139063 65.836563) scale(0.1 -0.1)">
      <use xlink:href="#DejaVuSans-42"/>
     </g>
    </g>
    <g id="patch_10">
     <path d="M 604.139063 80.514688 
L 624.139063 80.514688 
L 624.139063 73.514688 
L 604.139063 73.514688 
z
" style="fill: #008000; stroke: #008000; stroke-width: 0.5; stroke-linejoin: miter"/>
    </g>
    <g id="text_26">
     <!-- P -->
     <g transform="translate(632.139063 80.514688) scale(0.1 -0.1)">
      <defs>
       <path id="DejaVuSans-50" d="M 1259 4147 
L 1259 2394 
L 2053 2394 
Q 2494 2394 2734 2622 
Q 2975 2850 2975 3272 
Q 2975 3691 2734 3919 
Q 2494 4147 2053 4147 
L 1259 4147 
z
M 628 4666 
L 2053 4666 
Q 2838 4666 3239 4311 
Q 3641 3956 3641 3272 
Q 3641 2581 3239 2228 
Q 2838 1875 2053 1875 
L 1259 1875 
L 1259 0 
L 628 0 
L 628 4666 
z
" transform="scale(0.015625)"/>
      </defs>
      <use xlink:href="#DejaVuSans-50"/>
     </g>
    </g>
   </g>
  </g>
 </g>
 <defs>
  <clipPath id="pcbe03299de">
   <rect x="90" y="34.56" width="558" height="221.76"/>
  </clipPath>
 </defs>
</svg>
