<?xml version="1.0" encoding="utf-8" standalone="no"?>
<!DOCTYPE svg PUBLIC "-//W3C//DTD SVG 1.1//EN"
  "http://www.w3.org/Graphics/SVG/1.1/DTD/svg11.dtd">
<svg xmlns:xlink="http://www.w3.org/1999/xlink" width="720pt" height="288pt" viewBox="0 0 720 288" xmlns="http://www.w3.org/2000/svg" version="1.1">
 <metadata>
  <rdf:RDF xmlns:dc="http://purl.org/dc/elements/1.1/" xmlns:cc="http://creativecommons.org/ns#" xmlns:rdf="http://www.w3.org/1999/02/22-rdf-syntax-ns#">
   <cc:Work>
    <dc:type rdf:resource="http://purl.org/dc/dcmitype/StillImage"/>
    <dc:date>2023-05-07T02:13:48.082640</dc:date>
    <dc:format>image/svg+xml</dc:format>
    <dc:creator>
     <cc:Agent>
      <dc:title>Matplotlib v3.7.1, https://matplotlib.org/</dc:title>
     </cc:Agent>
    </dc:creator>
   </cc:Work>
  </rdf:RDF>
 </metadata>
 <defs>
  <style type="text/css">*{stroke-linejoin: round; stroke-linecap: butt}</style>
 </defs>
 <g id="figure_1">
  <g id="patch_1">
   <path d="M 0 288 
L 720 288 
L 720 0 
L 0 0 
z
" style="fill: #ffffff"/>
  </g>
  <g id="axes_1">
   <g id="patch_2">
    <path d="M 90 256.32 
L 648 256.32 
L 648 34.56 
L 90 34.56 
z
" style="fill: #ffffff"/>
   </g>
   <g id="matplotlib.axis_1">
    <g id="xtick_1">
     <g id="line2d_1">
      <defs>
       <path id="m25a395f7b6" d="M 0 0 
L 0 3.5 
" style="stroke: #000000; stroke-width: 0.8"/>
      </defs>
      <g>
       <use xlink:href="#m25a395f7b6" x="115.363636" y="256.32" style="stroke: #000000; stroke-width: 0.8"/>
      </g>
     </g>
     <g id="text_1">
      <!-- 0:00:00 -->
      <g transform="translate(96.088636 270.918437) scale(0.1 -0.1)">
       <defs>
        <path id="DejaVuSans-30" d="M 2034 4250 
Q 1547 4250 1301 3770 
Q 1056 3291 1056 2328 
Q 1056 1369 1301 889 
Q 1547 409 2034 409 
Q 2525 409 2770 889 
Q 3016 1369 3016 2328 
Q 3016 3291 2770 3770 
Q 2525 4250 2034 4250 
z
M 2034 4750 
Q 2819 4750 3233 4129 
Q 3647 3509 3647 2328 
Q 3647 1150 3233 529 
Q 2819 -91 2034 -91 
Q 1250 -91 836 529 
Q 422 1150 422 2328 
Q 422 3509 836 4129 
Q 1250 4750 2034 4750 
z
" transform="scale(0.015625)"/>
        <path id="DejaVuSans-3a" d="M 750 794 
L 1409 794 
L 1409 0 
L 750 0 
L 750 794 
z
M 750 3309 
L 1409 3309 
L 1409 2516 
L 750 2516 
L 750 3309 
z
" transform="scale(0.015625)"/>
       </defs>
       <use xlink:href="#DejaVuSans-30"/>
       <use xlink:href="#DejaVuSans-3a" x="63.623047"/>
       <use xlink:href="#DejaVuSans-30" x="97.314453"/>
       <use xlink:href="#DejaVuSans-30" x="160.9375"/>
       <use xlink:href="#DejaVuSans-3a" x="224.560547"/>
       <use xlink:href="#DejaVuSans-30" x="258.251953"/>
       <use xlink:href="#DejaVuSans-30" x="321.875"/>
      </g>
     </g>
    </g>
    <g id="xtick_2">
     <g id="line2d_2">
      <g>
       <use xlink:href="#m25a395f7b6" x="166.090909" y="256.32" style="stroke: #000000; stroke-width: 0.8"/>
      </g>
     </g>
     <g id="text_2">
      <!-- 0:00:30 -->
      <g transform="translate(146.815909 270.918437) scale(0.1 -0.1)">
       <defs>
        <path id="DejaVuSans-33" d="M 2597 2516 
Q 3050 2419 3304 2112 
Q 3559 1806 3559 1356 
Q 3559 666 3084 287 
Q 2609 -91 1734 -91 
Q 1441 -91 1130 -33 
Q 819 25 488 141 
L 488 750 
Q 750 597 1062 519 
Q 1375 441 1716 441 
Q 2309 441 2620 675 
Q 2931 909 2931 1356 
Q 2931 1769 2642 2001 
Q 2353 2234 1838 2234 
L 1294 2234 
L 1294 2753 
L 1863 2753 
Q 2328 2753 2575 2939 
Q 2822 3125 2822 3475 
Q 2822 3834 2567 4026 
Q 2313 4219 1838 4219 
Q 1578 4219 1281 4162 
Q 984 4106 628 3988 
L 628 4550 
Q 988 4650 1302 4700 
Q 1616 4750 1894 4750 
Q 2613 4750 3031 4423 
Q 3450 4097 3450 3541 
Q 3450 3153 3228 2886 
Q 3006 2619 2597 2516 
z
" transform="scale(0.015625)"/>
       </defs>
       <use xlink:href="#DejaVuSans-30"/>
       <use xlink:href="#DejaVuSans-3a" x="63.623047"/>
       <use xlink:href="#DejaVuSans-30" x="97.314453"/>
       <use xlink:href="#DejaVuSans-30" x="160.9375"/>
       <use xlink:href="#DejaVuSans-3a" x="224.560547"/>
       <use xlink:href="#DejaVuSans-33" x="258.251953"/>
       <use xlink:href="#DejaVuSans-30" x="321.875"/>
      </g>
     </g>
    </g>
    <g id="xtick_3">
     <g id="line2d_3">
      <g>
       <use xlink:href="#m25a395f7b6" x="216.818182" y="256.32" style="stroke: #000000; stroke-width: 0.8"/>
      </g>
     </g>
     <g id="text_3">
      <!-- 0:01:00 -->
      <g transform="translate(197.543182 270.918437) scale(0.1 -0.1)">
       <defs>
        <path id="DejaVuSans-31" d="M 794 531 
L 1825 531 
L 1825 4091 
L 703 3866 
L 703 4441 
L 1819 4666 
L 2450 4666 
L 2450 531 
L 3481 531 
L 3481 0 
L 794 0 
L 794 531 
z
" transform="scale(0.015625)"/>
       </defs>
       <use xlink:href="#DejaVuSans-30"/>
       <use xlink:href="#DejaVuSans-3a" x="63.623047"/>
       <use xlink:href="#DejaVuSans-30" x="97.314453"/>
       <use xlink:href="#DejaVuSans-31" x="160.9375"/>
       <use xlink:href="#DejaVuSans-3a" x="224.560547"/>
       <use xlink:href="#DejaVuSans-30" x="258.251953"/>
       <use xlink:href="#DejaVuSans-30" x="321.875"/>
      </g>
     </g>
    </g>
    <g id="xtick_4">
     <g id="line2d_4">
      <g>
       <use xlink:href="#m25a395f7b6" x="267.545455" y="256.32" style="stroke: #000000; stroke-width: 0.8"/>
      </g>
     </g>
     <g id="text_4">
      <!-- 0:01:30 -->
      <g transform="translate(248.270455 270.918437) scale(0.1 -0.1)">
       <use xlink:href="#DejaVuSans-30"/>
       <use xlink:href="#DejaVuSans-3a" x="63.623047"/>
       <use xlink:href="#DejaVuSans-30" x="97.314453"/>
       <use xlink:href="#DejaVuSans-31" x="160.9375"/>
       <use xlink:href="#DejaVuSans-3a" x="224.560547"/>
       <use xlink:href="#DejaVuSans-33" x="258.251953"/>
       <use xlink:href="#DejaVuSans-30" x="321.875"/>
      </g>
     </g>
    </g>
    <g id="xtick_5">
     <g id="line2d_5">
      <g>
       <use xlink:href="#m25a395f7b6" x="318.272727" y="256.32" style="stroke: #000000; stroke-width: 0.8"/>
      </g>
     </g>
     <g id="text_5">
      <!-- 0:02:00 -->
      <g transform="translate(298.997727 270.918437) scale(0.1 -0.1)">
       <defs>
        <path id="DejaVuSans-32" d="M 1228 531 
L 3431 531 
L 3431 0 
L 469 0 
L 469 531 
Q 828 903 1448 1529 
Q 2069 2156 2228 2338 
Q 2531 2678 2651 2914 
Q 2772 3150 2772 3378 
Q 2772 3750 2511 3984 
Q 2250 4219 1831 4219 
Q 1534 4219 1204 4116 
Q 875 4013 500 3803 
L 500 4441 
Q 881 4594 1212 4672 
Q 1544 4750 1819 4750 
Q 2544 4750 2975 4387 
Q 3406 4025 3406 3419 
Q 3406 3131 3298 2873 
Q 3191 2616 2906 2266 
Q 2828 2175 2409 1742 
Q 1991 1309 1228 531 
z
" transform="scale(0.015625)"/>
       </defs>
       <use xlink:href="#DejaVuSans-30"/>
       <use xlink:href="#DejaVuSans-3a" x="63.623047"/>
       <use xlink:href="#DejaVuSans-30" x="97.314453"/>
       <use xlink:href="#DejaVuSans-32" x="160.9375"/>
       <use xlink:href="#DejaVuSans-3a" x="224.560547"/>
       <use xlink:href="#DejaVuSans-30" x="258.251953"/>
       <use xlink:href="#DejaVuSans-30" x="321.875"/>
      </g>
     </g>
    </g>
    <g id="xtick_6">
     <g id="line2d_6">
      <g>
       <use xlink:href="#m25a395f7b6" x="369" y="256.32" style="stroke: #000000; stroke-width: 0.8"/>
      </g>
     </g>
     <g id="text_6">
      <!-- 0:02:30 -->
      <g transform="translate(349.725 270.918437) scale(0.1 -0.1)">
       <use xlink:href="#DejaVuSans-30"/>
       <use xlink:href="#DejaVuSans-3a" x="63.623047"/>
       <use xlink:href="#DejaVuSans-30" x="97.314453"/>
       <use xlink:href="#DejaVuSans-32" x="160.9375"/>
       <use xlink:href="#DejaVuSans-3a" x="224.560547"/>
       <use xlink:href="#DejaVuSans-33" x="258.251953"/>
       <use xlink:href="#DejaVuSans-30" x="321.875"/>
      </g>
     </g>
    </g>
    <g id="xtick_7">
     <g id="line2d_7">
      <g>
       <use xlink:href="#m25a395f7b6" x="419.727273" y="256.32" style="stroke: #000000; stroke-width: 0.8"/>
      </g>
     </g>
     <g id="text_7">
      <!-- 0:03:00 -->
      <g transform="translate(400.452273 270.918437) scale(0.1 -0.1)">
       <use xlink:href="#DejaVuSans-30"/>
       <use xlink:href="#DejaVuSans-3a" x="63.623047"/>
       <use xlink:href="#DejaVuSans-30" x="97.314453"/>
       <use xlink:href="#DejaVuSans-33" x="160.9375"/>
       <use xlink:href="#DejaVuSans-3a" x="224.560547"/>
       <use xlink:href="#DejaVuSans-30" x="258.251953"/>
       <use xlink:href="#DejaVuSans-30" x="321.875"/>
      </g>
     </g>
    </g>
    <g id="xtick_8">
     <g id="line2d_8">
      <g>
       <use xlink:href="#m25a395f7b6" x="470.454545" y="256.32" style="stroke: #000000; stroke-width: 0.8"/>
      </g>
     </g>
     <g id="text_8">
      <!-- 0:03:30 -->
      <g transform="translate(451.179545 270.918437) scale(0.1 -0.1)">
       <use xlink:href="#DejaVuSans-30"/>
       <use xlink:href="#DejaVuSans-3a" x="63.623047"/>
       <use xlink:href="#DejaVuSans-30" x="97.314453"/>
       <use xlink:href="#DejaVuSans-33" x="160.9375"/>
       <use xlink:href="#DejaVuSans-3a" x="224.560547"/>
       <use xlink:href="#DejaVuSans-33" x="258.251953"/>
       <use xlink:href="#DejaVuSans-30" x="321.875"/>
      </g>
     </g>
    </g>
    <g id="xtick_9">
     <g id="line2d_9">
      <g>
       <use xlink:href="#m25a395f7b6" x="521.181818" y="256.32" style="stroke: #000000; stroke-width: 0.8"/>
      </g>
     </g>
     <g id="text_9">
      <!-- 0:04:00 -->
      <g transform="translate(501.906818 270.918437) scale(0.1 -0.1)">
       <defs>
        <path id="DejaVuSans-34" d="M 2419 4116 
L 825 1625 
L 2419 1625 
L 2419 4116 
z
M 2253 4666 
L 3047 4666 
L 3047 1625 
L 3713 1625 
L 3713 1100 
L 3047 1100 
L 3047 0 
L 2419 0 
L 2419 1100 
L 313 1100 
L 313 1709 
L 2253 4666 
z
" transform="scale(0.015625)"/>
       </defs>
       <use xlink:href="#DejaVuSans-30"/>
       <use xlink:href="#DejaVuSans-3a" x="63.623047"/>
       <use xlink:href="#DejaVuSans-30" x="97.314453"/>
       <use xlink:href="#DejaVuSans-34" x="160.9375"/>
       <use xlink:href="#DejaVuSans-3a" x="224.560547"/>
       <use xlink:href="#DejaVuSans-30" x="258.251953"/>
       <use xlink:href="#DejaVuSans-30" x="321.875"/>
      </g>
     </g>
    </g>
    <g id="xtick_10">
     <g id="line2d_10">
      <g>
       <use xlink:href="#m25a395f7b6" x="571.909091" y="256.32" style="stroke: #000000; stroke-width: 0.8"/>
      </g>
     </g>
     <g id="text_10">
      <!-- 0:04:30 -->
      <g transform="translate(552.634091 270.918437) scale(0.1 -0.1)">
       <use xlink:href="#DejaVuSans-30"/>
       <use xlink:href="#DejaVuSans-3a" x="63.623047"/>
       <use xlink:href="#DejaVuSans-30" x="97.314453"/>
       <use xlink:href="#DejaVuSans-34" x="160.9375"/>
       <use xlink:href="#DejaVuSans-3a" x="224.560547"/>
       <use xlink:href="#DejaVuSans-33" x="258.251953"/>
       <use xlink:href="#DejaVuSans-30" x="321.875"/>
      </g>
     </g>
    </g>
    <g id="xtick_11">
     <g id="line2d_11">
      <g>
       <use xlink:href="#m25a395f7b6" x="622.636364" y="256.32" style="stroke: #000000; stroke-width: 0.8"/>
      </g>
     </g>
     <g id="text_11">
      <!-- 0:05:00 -->
      <g transform="translate(603.361364 270.918437) scale(0.1 -0.1)">
       <defs>
        <path id="DejaVuSans-35" d="M 691 4666 
L 3169 4666 
L 3169 4134 
L 1269 4134 
L 1269 2991 
Q 1406 3038 1543 3061 
Q 1681 3084 1819 3084 
Q 2600 3084 3056 2656 
Q 3513 2228 3513 1497 
Q 3513 744 3044 326 
Q 2575 -91 1722 -91 
Q 1428 -91 1123 -41 
Q 819 9 494 109 
L 494 744 
Q 775 591 1075 516 
Q 1375 441 1709 441 
Q 2250 441 2565 725 
Q 2881 1009 2881 1497 
Q 2881 1984 2565 2268 
Q 2250 2553 1709 2553 
Q 1456 2553 1204 2497 
Q 953 2441 691 2322 
L 691 4666 
z
" transform="scale(0.015625)"/>
       </defs>
       <use xlink:href="#DejaVuSans-30"/>
       <use xlink:href="#DejaVuSans-3a" x="63.623047"/>
       <use xlink:href="#DejaVuSans-30" x="97.314453"/>
       <use xlink:href="#DejaVuSans-35" x="160.9375"/>
       <use xlink:href="#DejaVuSans-3a" x="224.560547"/>
       <use xlink:href="#DejaVuSans-30" x="258.251953"/>
       <use xlink:href="#DejaVuSans-30" x="321.875"/>
      </g>
     </g>
    </g>
    <g id="text_12">
     <!-- Time -->
     <g transform="translate(356.766406 284.596563) scale(0.1 -0.1)">
      <defs>
       <path id="DejaVuSans-54" d="M -19 4666 
L 3928 4666 
L 3928 4134 
L 2272 4134 
L 2272 0 
L 1638 0 
L 1638 4134 
L -19 4134 
L -19 4666 
z
" transform="scale(0.015625)"/>
       <path id="DejaVuSans-69" d="M 603 3500 
L 1178 3500 
L 1178 0 
L 603 0 
L 603 3500 
z
M 603 4863 
L 1178 4863 
L 1178 4134 
L 603 4134 
L 603 4863 
z
" transform="scale(0.015625)"/>
       <path id="DejaVuSans-6d" d="M 3328 2828 
Q 3544 3216 3844 3400 
Q 4144 3584 4550 3584 
Q 5097 3584 5394 3201 
Q 5691 2819 5691 2113 
L 5691 0 
L 5113 0 
L 5113 2094 
Q 5113 2597 4934 2840 
Q 4756 3084 4391 3084 
Q 3944 3084 3684 2787 
Q 3425 2491 3425 1978 
L 3425 0 
L 2847 0 
L 2847 2094 
Q 2847 2600 2669 2842 
Q 2491 3084 2119 3084 
Q 1678 3084 1418 2786 
Q 1159 2488 1159 1978 
L 1159 0 
L 581 0 
L 581 3500 
L 1159 3500 
L 1159 2956 
Q 1356 3278 1631 3431 
Q 1906 3584 2284 3584 
Q 2666 3584 2933 3390 
Q 3200 3197 3328 2828 
z
" transform="scale(0.015625)"/>
       <path id="DejaVuSans-65" d="M 3597 1894 
L 3597 1613 
L 953 1613 
Q 991 1019 1311 708 
Q 1631 397 2203 397 
Q 2534 397 2845 478 
Q 3156 559 3463 722 
L 3463 178 
Q 3153 47 2828 -22 
Q 2503 -91 2169 -91 
Q 1331 -91 842 396 
Q 353 884 353 1716 
Q 353 2575 817 3079 
Q 1281 3584 2069 3584 
Q 2775 3584 3186 3129 
Q 3597 2675 3597 1894 
z
M 3022 2063 
Q 3016 2534 2758 2815 
Q 2500 3097 2075 3097 
Q 1594 3097 1305 2825 
Q 1016 2553 972 2059 
L 3022 2063 
z
" transform="scale(0.015625)"/>
      </defs>
      <use xlink:href="#DejaVuSans-54"/>
      <use xlink:href="#DejaVuSans-69" x="57.958984"/>
      <use xlink:href="#DejaVuSans-6d" x="85.742188"/>
      <use xlink:href="#DejaVuSans-65" x="183.154297"/>
     </g>
    </g>
   </g>
   <g id="matplotlib.axis_2">
    <g id="ytick_1">
     <g id="line2d_12">
      <path d="M 90 246.24 
L 648 246.24 
" clip-path="url(#p1a0d746d5c)" style="fill: none; stroke: #b0b0b0; stroke-width: 0.8; stroke-linecap: square"/>
     </g>
     <g id="line2d_13">
      <defs>
       <path id="mc6eb5f2932" d="M 0 0 
L -3.5 0 
" style="stroke: #000000; stroke-width: 0.8"/>
      </defs>
      <g>
       <use xlink:href="#mc6eb5f2932" x="90" y="246.24" style="stroke: #000000; stroke-width: 0.8"/>
      </g>
     </g>
     <g id="text_13">
      <!-- 0 -->
      <g transform="translate(76.6375 250.039219) scale(0.1 -0.1)">
       <use xlink:href="#DejaVuSans-30"/>
      </g>
     </g>
    </g>
    <g id="ytick_2">
     <g id="line2d_14">
      <path d="M 90 221.449051 
L 648 221.449051 
" clip-path="url(#p1a0d746d5c)" style="fill: none; stroke: #b0b0b0; stroke-width: 0.8; stroke-linecap: square"/>
     </g>
     <g id="line2d_15">
      <g>
       <use xlink:href="#mc6eb5f2932" x="90" y="221.449051" style="stroke: #000000; stroke-width: 0.8"/>
      </g>
     </g>
     <g id="text_14">
      <!-- 1,000 -->
      <g transform="translate(54.371875 225.248269) scale(0.1 -0.1)">
       <defs>
        <path id="DejaVuSans-2c" d="M 750 794 
L 1409 794 
L 1409 256 
L 897 -744 
L 494 -744 
L 750 256 
L 750 794 
z
" transform="scale(0.015625)"/>
       </defs>
       <use xlink:href="#DejaVuSans-31"/>
       <use xlink:href="#DejaVuSans-2c" x="63.623047"/>
       <use xlink:href="#DejaVuSans-30" x="95.410156"/>
       <use xlink:href="#DejaVuSans-30" x="159.033203"/>
       <use xlink:href="#DejaVuSans-30" x="222.65625"/>
      </g>
     </g>
    </g>
    <g id="ytick_3">
     <g id="line2d_16">
      <path d="M 90 196.658101 
L 648 196.658101 
" clip-path="url(#p1a0d746d5c)" style="fill: none; stroke: #b0b0b0; stroke-width: 0.8; stroke-linecap: square"/>
     </g>
     <g id="line2d_17">
      <g>
       <use xlink:href="#mc6eb5f2932" x="90" y="196.658101" style="stroke: #000000; stroke-width: 0.8"/>
      </g>
     </g>
     <g id="text_15">
      <!-- 2,000 -->
      <g transform="translate(54.371875 200.45732) scale(0.1 -0.1)">
       <use xlink:href="#DejaVuSans-32"/>
       <use xlink:href="#DejaVuSans-2c" x="63.623047"/>
       <use xlink:href="#DejaVuSans-30" x="95.410156"/>
       <use xlink:href="#DejaVuSans-30" x="159.033203"/>
       <use xlink:href="#DejaVuSans-30" x="222.65625"/>
      </g>
     </g>
    </g>
    <g id="ytick_4">
     <g id="line2d_18">
      <path d="M 90 171.867152 
L 648 171.867152 
" clip-path="url(#p1a0d746d5c)" style="fill: none; stroke: #b0b0b0; stroke-width: 0.8; stroke-linecap: square"/>
     </g>
     <g id="line2d_19">
      <g>
       <use xlink:href="#mc6eb5f2932" x="90" y="171.867152" style="stroke: #000000; stroke-width: 0.8"/>
      </g>
     </g>
     <g id="text_16">
      <!-- 3,000 -->
      <g transform="translate(54.371875 175.666371) scale(0.1 -0.1)">
       <use xlink:href="#DejaVuSans-33"/>
       <use xlink:href="#DejaVuSans-2c" x="63.623047"/>
       <use xlink:href="#DejaVuSans-30" x="95.410156"/>
       <use xlink:href="#DejaVuSans-30" x="159.033203"/>
       <use xlink:href="#DejaVuSans-30" x="222.65625"/>
      </g>
     </g>
    </g>
    <g id="ytick_5">
     <g id="line2d_20">
      <path d="M 90 147.076203 
L 648 147.076203 
" clip-path="url(#p1a0d746d5c)" style="fill: none; stroke: #b0b0b0; stroke-width: 0.8; stroke-linecap: square"/>
     </g>
     <g id="line2d_21">
      <g>
       <use xlink:href="#mc6eb5f2932" x="90" y="147.076203" style="stroke: #000000; stroke-width: 0.8"/>
      </g>
     </g>
     <g id="text_17">
      <!-- 4,000 -->
      <g transform="translate(54.371875 150.875421) scale(0.1 -0.1)">
       <use xlink:href="#DejaVuSans-34"/>
       <use xlink:href="#DejaVuSans-2c" x="63.623047"/>
       <use xlink:href="#DejaVuSans-30" x="95.410156"/>
       <use xlink:href="#DejaVuSans-30" x="159.033203"/>
       <use xlink:href="#DejaVuSans-30" x="222.65625"/>
      </g>
     </g>
    </g>
    <g id="ytick_6">
     <g id="line2d_22">
      <path d="M 90 122.285253 
L 648 122.285253 
" clip-path="url(#p1a0d746d5c)" style="fill: none; stroke: #b0b0b0; stroke-width: 0.8; stroke-linecap: square"/>
     </g>
     <g id="line2d_23">
      <g>
       <use xlink:href="#mc6eb5f2932" x="90" y="122.285253" style="stroke: #000000; stroke-width: 0.8"/>
      </g>
     </g>
     <g id="text_18">
      <!-- 5,000 -->
      <g transform="translate(54.371875 126.084472) scale(0.1 -0.1)">
       <use xlink:href="#DejaVuSans-35"/>
       <use xlink:href="#DejaVuSans-2c" x="63.623047"/>
       <use xlink:href="#DejaVuSans-30" x="95.410156"/>
       <use xlink:href="#DejaVuSans-30" x="159.033203"/>
       <use xlink:href="#DejaVuSans-30" x="222.65625"/>
      </g>
     </g>
    </g>
    <g id="ytick_7">
     <g id="line2d_24">
      <path d="M 90 97.494304 
L 648 97.494304 
" clip-path="url(#p1a0d746d5c)" style="fill: none; stroke: #b0b0b0; stroke-width: 0.8; stroke-linecap: square"/>
     </g>
     <g id="line2d_25">
      <g>
       <use xlink:href="#mc6eb5f2932" x="90" y="97.494304" style="stroke: #000000; stroke-width: 0.8"/>
      </g>
     </g>
     <g id="text_19">
      <!-- 6,000 -->
      <g transform="translate(54.371875 101.293523) scale(0.1 -0.1)">
       <defs>
        <path id="DejaVuSans-36" d="M 2113 2584 
Q 1688 2584 1439 2293 
Q 1191 2003 1191 1497 
Q 1191 994 1439 701 
Q 1688 409 2113 409 
Q 2538 409 2786 701 
Q 3034 994 3034 1497 
Q 3034 2003 2786 2293 
Q 2538 2584 2113 2584 
z
M 3366 4563 
L 3366 3988 
Q 3128 4100 2886 4159 
Q 2644 4219 2406 4219 
Q 1781 4219 1451 3797 
Q 1122 3375 1075 2522 
Q 1259 2794 1537 2939 
Q 1816 3084 2150 3084 
Q 2853 3084 3261 2657 
Q 3669 2231 3669 1497 
Q 3669 778 3244 343 
Q 2819 -91 2113 -91 
Q 1303 -91 875 529 
Q 447 1150 447 2328 
Q 447 3434 972 4092 
Q 1497 4750 2381 4750 
Q 2619 4750 2861 4703 
Q 3103 4656 3366 4563 
z
" transform="scale(0.015625)"/>
       </defs>
       <use xlink:href="#DejaVuSans-36"/>
       <use xlink:href="#DejaVuSans-2c" x="63.623047"/>
       <use xlink:href="#DejaVuSans-30" x="95.410156"/>
       <use xlink:href="#DejaVuSans-30" x="159.033203"/>
       <use xlink:href="#DejaVuSans-30" x="222.65625"/>
      </g>
     </g>
    </g>
    <g id="ytick_8">
     <g id="line2d_26">
      <path d="M 90 72.703355 
L 648 72.703355 
" clip-path="url(#p1a0d746d5c)" style="fill: none; stroke: #b0b0b0; stroke-width: 0.8; stroke-linecap: square"/>
     </g>
     <g id="line2d_27">
      <g>
       <use xlink:href="#mc6eb5f2932" x="90" y="72.703355" style="stroke: #000000; stroke-width: 0.8"/>
      </g>
     </g>
     <g id="text_20">
      <!-- 7,000 -->
      <g transform="translate(54.371875 76.502573) scale(0.1 -0.1)">
       <defs>
        <path id="DejaVuSans-37" d="M 525 4666 
L 3525 4666 
L 3525 4397 
L 1831 0 
L 1172 0 
L 2766 4134 
L 525 4134 
L 525 4666 
z
" transform="scale(0.015625)"/>
       </defs>
       <use xlink:href="#DejaVuSans-37"/>
       <use xlink:href="#DejaVuSans-2c" x="63.623047"/>
       <use xlink:href="#DejaVuSans-30" x="95.410156"/>
       <use xlink:href="#DejaVuSans-30" x="159.033203"/>
       <use xlink:href="#DejaVuSans-30" x="222.65625"/>
      </g>
     </g>
    </g>
    <g id="ytick_9">
     <g id="line2d_28">
      <path d="M 90 47.912405 
L 648 47.912405 
" clip-path="url(#p1a0d746d5c)" style="fill: none; stroke: #b0b0b0; stroke-width: 0.8; stroke-linecap: square"/>
     </g>
     <g id="line2d_29">
      <g>
       <use xlink:href="#mc6eb5f2932" x="90" y="47.912405" style="stroke: #000000; stroke-width: 0.8"/>
      </g>
     </g>
     <g id="text_21">
      <!-- 8,000 -->
      <g transform="translate(54.371875 51.711624) scale(0.1 -0.1)">
       <defs>
        <path id="DejaVuSans-38" d="M 2034 2216 
Q 1584 2216 1326 1975 
Q 1069 1734 1069 1313 
Q 1069 891 1326 650 
Q 1584 409 2034 409 
Q 2484 409 2743 651 
Q 3003 894 3003 1313 
Q 3003 1734 2745 1975 
Q 2488 2216 2034 2216 
z
M 1403 2484 
Q 997 2584 770 2862 
Q 544 3141 544 3541 
Q 544 4100 942 4425 
Q 1341 4750 2034 4750 
Q 2731 4750 3128 4425 
Q 3525 4100 3525 3541 
Q 3525 3141 3298 2862 
Q 3072 2584 2669 2484 
Q 3125 2378 3379 2068 
Q 3634 1759 3634 1313 
Q 3634 634 3220 271 
Q 2806 -91 2034 -91 
Q 1263 -91 848 271 
Q 434 634 434 1313 
Q 434 1759 690 2068 
Q 947 2378 1403 2484 
z
M 1172 3481 
Q 1172 3119 1398 2916 
Q 1625 2713 2034 2713 
Q 2441 2713 2670 2916 
Q 2900 3119 2900 3481 
Q 2900 3844 2670 4047 
Q 2441 4250 2034 4250 
Q 1625 4250 1398 4047 
Q 1172 3844 1172 3481 
z
" transform="scale(0.015625)"/>
       </defs>
       <use xlink:href="#DejaVuSans-38"/>
       <use xlink:href="#DejaVuSans-2c" x="63.623047"/>
       <use xlink:href="#DejaVuSans-30" x="95.410156"/>
       <use xlink:href="#DejaVuSans-30" x="159.033203"/>
       <use xlink:href="#DejaVuSans-30" x="222.65625"/>
      </g>
     </g>
    </g>
    <g id="text_22">
     <!-- Bitrate (kbit/s) -->
     <g transform="translate(48.292187 181.574375) rotate(-90) scale(0.1 -0.1)">
      <defs>
       <path id="DejaVuSans-42" d="M 1259 2228 
L 1259 519 
L 2272 519 
Q 2781 519 3026 730 
Q 3272 941 3272 1375 
Q 3272 1813 3026 2020 
Q 2781 2228 2272 2228 
L 1259 2228 
z
M 1259 4147 
L 1259 2741 
L 2194 2741 
Q 2656 2741 2882 2914 
Q 3109 3088 3109 3444 
Q 3109 3797 2882 3972 
Q 2656 4147 2194 4147 
L 1259 4147 
z
M 628 4666 
L 2241 4666 
Q 2963 4666 3353 4366 
Q 3744 4066 3744 3513 
Q 3744 3084 3544 2831 
Q 3344 2578 2956 2516 
Q 3422 2416 3680 2098 
Q 3938 1781 3938 1306 
Q 3938 681 3513 340 
Q 3088 0 2303 0 
L 628 0 
L 628 4666 
z
" transform="scale(0.015625)"/>
       <path id="DejaVuSans-74" d="M 1172 4494 
L 1172 3500 
L 2356 3500 
L 2356 3053 
L 1172 3053 
L 1172 1153 
Q 1172 725 1289 603 
Q 1406 481 1766 481 
L 2356 481 
L 2356 0 
L 1766 0 
Q 1100 0 847 248 
Q 594 497 594 1153 
L 594 3053 
L 172 3053 
L 172 3500 
L 594 3500 
L 594 4494 
L 1172 4494 
z
" transform="scale(0.015625)"/>
       <path id="DejaVuSans-72" d="M 2631 2963 
Q 2534 3019 2420 3045 
Q 2306 3072 2169 3072 
Q 1681 3072 1420 2755 
Q 1159 2438 1159 1844 
L 1159 0 
L 581 0 
L 581 3500 
L 1159 3500 
L 1159 2956 
Q 1341 3275 1631 3429 
Q 1922 3584 2338 3584 
Q 2397 3584 2469 3576 
Q 2541 3569 2628 3553 
L 2631 2963 
z
" transform="scale(0.015625)"/>
       <path id="DejaVuSans-61" d="M 2194 1759 
Q 1497 1759 1228 1600 
Q 959 1441 959 1056 
Q 959 750 1161 570 
Q 1363 391 1709 391 
Q 2188 391 2477 730 
Q 2766 1069 2766 1631 
L 2766 1759 
L 2194 1759 
z
M 3341 1997 
L 3341 0 
L 2766 0 
L 2766 531 
Q 2569 213 2275 61 
Q 1981 -91 1556 -91 
Q 1019 -91 701 211 
Q 384 513 384 1019 
Q 384 1609 779 1909 
Q 1175 2209 1959 2209 
L 2766 2209 
L 2766 2266 
Q 2766 2663 2505 2880 
Q 2244 3097 1772 3097 
Q 1472 3097 1187 3025 
Q 903 2953 641 2809 
L 641 3341 
Q 956 3463 1253 3523 
Q 1550 3584 1831 3584 
Q 2591 3584 2966 3190 
Q 3341 2797 3341 1997 
z
" transform="scale(0.015625)"/>
       <path id="DejaVuSans-20" transform="scale(0.015625)"/>
       <path id="DejaVuSans-28" d="M 1984 4856 
Q 1566 4138 1362 3434 
Q 1159 2731 1159 2009 
Q 1159 1288 1364 580 
Q 1569 -128 1984 -844 
L 1484 -844 
Q 1016 -109 783 600 
Q 550 1309 550 2009 
Q 550 2706 781 3412 
Q 1013 4119 1484 4856 
L 1984 4856 
z
" transform="scale(0.015625)"/>
       <path id="DejaVuSans-6b" d="M 581 4863 
L 1159 4863 
L 1159 1991 
L 2875 3500 
L 3609 3500 
L 1753 1863 
L 3688 0 
L 2938 0 
L 1159 1709 
L 1159 0 
L 581 0 
L 581 4863 
z
" transform="scale(0.015625)"/>
       <path id="DejaVuSans-62" d="M 3116 1747 
Q 3116 2381 2855 2742 
Q 2594 3103 2138 3103 
Q 1681 3103 1420 2742 
Q 1159 2381 1159 1747 
Q 1159 1113 1420 752 
Q 1681 391 2138 391 
Q 2594 391 2855 752 
Q 3116 1113 3116 1747 
z
M 1159 2969 
Q 1341 3281 1617 3432 
Q 1894 3584 2278 3584 
Q 2916 3584 3314 3078 
Q 3713 2572 3713 1747 
Q 3713 922 3314 415 
Q 2916 -91 2278 -91 
Q 1894 -91 1617 61 
Q 1341 213 1159 525 
L 1159 0 
L 581 0 
L 581 4863 
L 1159 4863 
L 1159 2969 
z
" transform="scale(0.015625)"/>
       <path id="DejaVuSans-2f" d="M 1625 4666 
L 2156 4666 
L 531 -594 
L 0 -594 
L 1625 4666 
z
" transform="scale(0.015625)"/>
       <path id="DejaVuSans-73" d="M 2834 3397 
L 2834 2853 
Q 2591 2978 2328 3040 
Q 2066 3103 1784 3103 
Q 1356 3103 1142 2972 
Q 928 2841 928 2578 
Q 928 2378 1081 2264 
Q 1234 2150 1697 2047 
L 1894 2003 
Q 2506 1872 2764 1633 
Q 3022 1394 3022 966 
Q 3022 478 2636 193 
Q 2250 -91 1575 -91 
Q 1294 -91 989 -36 
Q 684 19 347 128 
L 347 722 
Q 666 556 975 473 
Q 1284 391 1588 391 
Q 1994 391 2212 530 
Q 2431 669 2431 922 
Q 2431 1156 2273 1281 
Q 2116 1406 1581 1522 
L 1381 1569 
Q 847 1681 609 1914 
Q 372 2147 372 2553 
Q 372 3047 722 3315 
Q 1072 3584 1716 3584 
Q 2034 3584 2315 3537 
Q 2597 3491 2834 3397 
z
" transform="scale(0.015625)"/>
       <path id="DejaVuSans-29" d="M 513 4856 
L 1013 4856 
Q 1481 4119 1714 3412 
Q 1947 2706 1947 2009 
Q 1947 1309 1714 600 
Q 1481 -109 1013 -844 
L 513 -844 
Q 928 -128 1133 580 
Q 1338 1288 1338 2009 
Q 1338 2731 1133 3434 
Q 928 4138 513 4856 
z
" transform="scale(0.015625)"/>
      </defs>
      <use xlink:href="#DejaVuSans-42"/>
      <use xlink:href="#DejaVuSans-69" x="68.603516"/>
      <use xlink:href="#DejaVuSans-74" x="96.386719"/>
      <use xlink:href="#DejaVuSans-72" x="135.595703"/>
      <use xlink:href="#DejaVuSans-61" x="176.708984"/>
      <use xlink:href="#DejaVuSans-74" x="237.988281"/>
      <use xlink:href="#DejaVuSans-65" x="277.197266"/>
      <use xlink:href="#DejaVuSans-20" x="338.720703"/>
      <use xlink:href="#DejaVuSans-28" x="370.507812"/>
      <use xlink:href="#DejaVuSans-6b" x="409.521484"/>
      <use xlink:href="#DejaVuSans-62" x="467.431641"/>
      <use xlink:href="#DejaVuSans-69" x="530.908203"/>
      <use xlink:href="#DejaVuSans-74" x="558.691406"/>
      <use xlink:href="#DejaVuSans-2f" x="597.900391"/>
      <use xlink:href="#DejaVuSans-73" x="631.591797"/>
      <use xlink:href="#DejaVuSans-29" x="683.691406"/>
     </g>
    </g>
   </g>
   <g id="PolyCollection_1">
    <defs>
     <path id="m7c198ba309" d="M 115.363636 -43.792858 
L 115.363636 -41.76 
L 117.054545 -41.76 
L 118.745455 -41.76 
L 120.436364 -41.76 
L 122.127273 -41.76 
L 123.818182 -41.76 
L 125.509091 -41.76 
L 127.2 -41.76 
L 128.890909 -41.76 
L 130.581818 -41.76 
L 132.272727 -41.76 
L 133.963636 -41.76 
L 135.654545 -41.76 
L 137.345455 -41.76 
L 139.036364 -41.76 
L 140.727273 -41.76 
L 142.418182 -41.76 
L 144.109091 -41.76 
L 145.8 -41.76 
L 147.490909 -41.76 
L 149.181818 -41.76 
L 150.872727 -41.76 
L 152.563636 -41.76 
L 154.254545 -41.76 
L 155.945455 -41.76 
L 157.636364 -41.76 
L 159.327273 -41.76 
L 161.018182 -41.76 
L 162.709091 -41.76 
L 164.4 -41.76 
L 166.090909 -41.76 
L 167.781818 -41.76 
L 169.472727 -41.76 
L 171.163636 -41.76 
L 172.854545 -41.76 
L 174.545455 -41.76 
L 176.236364 -41.76 
L 177.927273 -41.76 
L 179.618182 -41.76 
L 181.309091 -41.76 
L 183 -41.76 
L 184.690909 -41.76 
L 186.381818 -41.76 
L 188.072727 -41.76 
L 189.763636 -41.76 
L 191.454545 -41.76 
L 193.145455 -41.76 
L 194.836364 -41.76 
L 196.527273 -41.76 
L 198.218182 -41.76 
L 199.909091 -41.76 
L 201.6 -41.76 
L 203.290909 -41.76 
L 204.981818 -41.76 
L 206.672727 -41.76 
L 208.363636 -41.76 
L 210.054545 -41.76 
L 211.745455 -41.76 
L 213.436364 -41.76 
L 215.127273 -41.76 
L 216.818182 -41.76 
L 218.509091 -41.76 
L 220.2 -41.76 
L 221.890909 -41.76 
L 223.581818 -41.76 
L 225.272727 -41.76 
L 226.963636 -41.76 
L 228.654545 -41.76 
L 230.345455 -41.76 
L 232.036364 -41.76 
L 233.727273 -41.76 
L 235.418182 -41.76 
L 237.109091 -41.76 
L 238.8 -41.76 
L 240.490909 -41.76 
L 242.181818 -41.76 
L 243.872727 -41.76 
L 245.563636 -41.76 
L 247.254545 -41.76 
L 248.945455 -41.76 
L 250.636364 -41.76 
L 252.327273 -41.76 
L 254.018182 -41.76 
L 255.709091 -41.76 
L 257.4 -41.76 
L 259.090909 -41.76 
L 260.781818 -41.76 
L 262.472727 -41.76 
L 264.163636 -41.76 
L 265.854545 -41.76 
L 267.545455 -41.76 
L 269.236364 -41.76 
L 270.927273 -41.76 
L 272.618182 -41.76 
L 274.309091 -41.76 
L 276 -41.76 
L 277.690909 -41.76 
L 279.381818 -41.76 
L 281.072727 -41.76 
L 282.763636 -41.76 
L 284.454545 -41.76 
L 286.145455 -41.76 
L 287.836364 -41.76 
L 289.527273 -41.76 
L 291.218182 -41.76 
L 292.909091 -41.76 
L 294.6 -41.76 
L 296.290909 -41.76 
L 297.981818 -41.76 
L 299.672727 -41.76 
L 301.363636 -41.76 
L 303.054545 -41.76 
L 304.745455 -41.76 
L 306.436364 -41.76 
L 308.127273 -41.76 
L 309.818182 -41.76 
L 311.509091 -41.76 
L 313.2 -41.76 
L 314.890909 -41.76 
L 316.581818 -41.76 
L 318.272727 -41.76 
L 319.963636 -41.76 
L 321.654545 -41.76 
L 323.345455 -41.76 
L 325.036364 -41.76 
L 326.727273 -41.76 
L 328.418182 -41.76 
L 330.109091 -41.76 
L 331.8 -41.76 
L 333.490909 -41.76 
L 335.181818 -41.76 
L 336.872727 -41.76 
L 338.563636 -41.76 
L 340.254545 -41.76 
L 341.945455 -41.76 
L 343.636364 -41.76 
L 345.327273 -41.76 
L 347.018182 -41.76 
L 348.709091 -41.76 
L 350.4 -41.76 
L 352.090909 -41.76 
L 353.781818 -41.76 
L 355.472727 -41.76 
L 357.163636 -41.76 
L 358.854545 -41.76 
L 360.545455 -41.76 
L 362.236364 -41.76 
L 363.927273 -41.76 
L 365.618182 -41.76 
L 367.309091 -41.76 
L 369 -41.76 
L 370.690909 -41.76 
L 372.381818 -41.76 
L 374.072727 -41.76 
L 375.763636 -41.76 
L 377.454545 -41.76 
L 379.145455 -41.76 
L 380.836364 -41.76 
L 382.527273 -41.76 
L 384.218182 -41.76 
L 385.909091 -41.76 
L 387.6 -41.76 
L 389.290909 -41.76 
L 390.981818 -41.76 
L 392.672727 -41.76 
L 394.363636 -41.76 
L 396.054545 -41.76 
L 397.745455 -41.76 
L 399.436364 -41.76 
L 401.127273 -41.76 
L 402.818182 -41.76 
L 404.509091 -41.76 
L 406.2 -41.76 
L 407.890909 -41.76 
L 409.581818 -41.76 
L 411.272727 -41.76 
L 412.963636 -41.76 
L 414.654545 -41.76 
L 416.345455 -41.76 
L 418.036364 -41.76 
L 419.727273 -41.76 
L 421.418182 -41.76 
L 423.109091 -41.76 
L 424.8 -41.76 
L 426.490909 -41.76 
L 428.181818 -41.76 
L 429.872727 -41.76 
L 431.563636 -41.76 
L 433.254545 -41.76 
L 434.945455 -41.76 
L 436.636364 -41.76 
L 438.327273 -41.76 
L 440.018182 -41.76 
L 441.709091 -41.76 
L 443.4 -41.76 
L 445.090909 -41.76 
L 446.781818 -41.76 
L 448.472727 -41.76 
L 450.163636 -41.76 
L 451.854545 -41.76 
L 453.545455 -41.76 
L 455.236364 -41.76 
L 456.927273 -41.76 
L 458.618182 -41.76 
L 460.309091 -41.76 
L 462 -41.76 
L 463.690909 -41.76 
L 465.381818 -41.76 
L 467.072727 -41.76 
L 468.763636 -41.76 
L 470.454545 -41.76 
L 472.145455 -41.76 
L 473.836364 -41.76 
L 475.527273 -41.76 
L 477.218182 -41.76 
L 478.909091 -41.76 
L 480.6 -41.76 
L 482.290909 -41.76 
L 483.981818 -41.76 
L 485.672727 -41.76 
L 487.363636 -41.76 
L 489.054545 -41.76 
L 490.745455 -41.76 
L 492.436364 -41.76 
L 494.127273 -41.76 
L 495.818182 -41.76 
L 497.509091 -41.76 
L 499.2 -41.76 
L 500.890909 -41.76 
L 502.581818 -41.76 
L 504.272727 -41.76 
L 505.963636 -41.76 
L 507.654545 -41.76 
L 509.345455 -41.76 
L 511.036364 -41.76 
L 512.727273 -41.76 
L 514.418182 -41.76 
L 516.109091 -41.76 
L 517.8 -41.76 
L 519.490909 -41.76 
L 521.181818 -41.76 
L 522.872727 -41.76 
L 524.563636 -41.76 
L 526.254545 -41.76 
L 527.945455 -41.76 
L 529.636364 -41.76 
L 531.327273 -41.76 
L 533.018182 -41.76 
L 534.709091 -41.76 
L 536.4 -41.76 
L 538.090909 -41.76 
L 539.781818 -41.76 
L 541.472727 -41.76 
L 543.163636 -41.76 
L 544.854545 -41.76 
L 546.545455 -41.76 
L 548.236364 -41.76 
L 549.927273 -41.76 
L 551.618182 -41.76 
L 553.309091 -41.76 
L 555 -41.76 
L 556.690909 -41.76 
L 558.381818 -41.76 
L 560.072727 -41.76 
L 561.763636 -41.76 
L 563.454545 -41.76 
L 565.145455 -41.76 
L 566.836364 -41.76 
L 568.527273 -41.76 
L 570.218182 -41.76 
L 571.909091 -41.76 
L 573.6 -41.76 
L 575.290909 -41.76 
L 576.981818 -41.76 
L 578.672727 -41.76 
L 580.363636 -41.76 
L 582.054545 -41.76 
L 583.745455 -41.76 
L 585.436364 -41.76 
L 587.127273 -41.76 
L 588.818182 -41.76 
L 590.509091 -41.76 
L 592.2 -41.76 
L 593.890909 -41.76 
L 595.581818 -41.76 
L 597.272727 -41.76 
L 598.963636 -41.76 
L 600.654545 -41.76 
L 602.345455 -41.76 
L 604.036364 -41.76 
L 605.727273 -41.76 
L 607.418182 -41.76 
L 609.109091 -41.76 
L 610.8 -41.76 
L 612.490909 -41.76 
L 614.181818 -41.76 
L 615.872727 -41.76 
L 617.563636 -41.76 
L 619.254545 -41.76 
L 620.945455 -41.76 
L 622.636364 -41.76 
L 622.636364 -41.76 
L 622.636364 -41.76 
L 620.945455 -61.915042 
L 619.254545 -41.76 
L 617.563636 -41.76 
L 615.872727 -60.799449 
L 614.181818 -41.76 
L 612.490909 -41.76 
L 610.8 -109.439292 
L 609.109091 -41.76 
L 607.418182 -41.76 
L 605.727273 -41.76 
L 604.036364 -117.22365 
L 602.345455 -41.76 
L 600.654545 -41.76 
L 598.963636 -41.76 
L 597.272727 -77.434176 
L 595.581818 -87.920748 
L 593.890909 -41.76 
L 592.2 -95.605942 
L 590.509091 -41.76 
L 588.818182 -56.38666 
L 587.127273 -41.76 
L 585.436364 -105.74544 
L 583.745455 -41.76 
L 582.054545 -41.76 
L 580.363636 -41.76 
L 578.672727 -102.646572 
L 576.981818 -41.76 
L 575.290909 -41.76 
L 573.6 -41.76 
L 571.909091 -74.459262 
L 570.218182 -41.76 
L 568.527273 -80.185971 
L 566.836364 -80.40909 
L 565.145455 -41.76 
L 563.454545 -56.857688 
L 561.763636 -41.76 
L 560.072727 -139.262804 
L 558.381818 -41.76 
L 556.690909 -91.044407 
L 555 -41.76 
L 553.309091 -59.064083 
L 551.618182 -97.415681 
L 549.927273 -41.76 
L 548.236364 -55.320649 
L 546.545455 -60.30363 
L 544.854545 -41.76 
L 543.163636 -41.76 
L 541.472727 -66.625322 
L 539.781818 -41.76 
L 538.090909 -41.76 
L 536.4 -41.76 
L 534.709091 -41.76 
L 533.018182 -90.548588 
L 531.327273 -124.437816 
L 529.636364 -64.790792 
L 527.945455 -41.76 
L 526.254545 -41.76 
L 524.563636 -41.76 
L 522.872727 -67.369051 
L 521.181818 -41.76 
L 519.490909 -41.76 
L 517.8 -41.76 
L 516.109091 -41.76 
L 514.418182 -60.749867 
L 512.727273 -41.76 
L 511.036364 -124.512189 
L 509.345455 -41.76 
L 507.654545 -41.76 
L 505.963636 -41.76 
L 504.272727 -58.940128 
L 502.581818 -41.76 
L 500.890909 -140.155278 
L 499.2 -41.76 
L 497.509091 -41.76 
L 495.818182 -86.458082 
L 494.127273 -55.618141 
L 492.436364 -41.76 
L 490.745455 -66.129503 
L 489.054545 -41.76 
L 487.363636 -41.76 
L 485.672727 -41.76 
L 483.981818 -57.477462 
L 482.290909 -41.76 
L 480.6 -66.377413 
L 478.909091 -41.76 
L 477.218182 -41.76 
L 475.527273 -66.898023 
L 473.836364 -41.76 
L 472.145455 -65.088283 
L 470.454545 -71.360394 
L 468.763636 -41.76 
L 467.072727 -88.267821 
L 465.381818 -41.76 
L 463.690909 -41.76 
L 462 -41.76 
L 460.309091 -70.096055 
L 458.618182 -41.76 
L 456.927273 -41.76 
L 455.236364 -55.395022 
L 453.545455 -62.311697 
L 451.854545 -57.056016 
L 450.163636 -41.76 
L 448.472727 -41.76 
L 446.781818 -56.808106 
L 445.090909 -41.76 
L 443.4 -41.76 
L 441.709091 -86.16059 
L 440.018182 -41.76 
L 438.327273 -41.76 
L 436.636364 -50.064968 
L 434.945455 -72.996596 
L 433.254545 -41.76 
L 431.563636 -41.76 
L 429.872727 -41.76 
L 428.181818 -41.76 
L 426.490909 -77.434176 
L 424.8 -41.76 
L 423.109091 -77.434176 
L 421.418182 -41.76 
L 419.727273 -84.623551 
L 418.036364 -41.76 
L 416.345455 -58.320354 
L 414.654545 -41.76 
L 412.963636 -41.76 
L 411.272727 -41.76 
L 409.581818 -41.76 
L 407.890909 -58.444309 
L 406.2 -90.573379 
L 404.509091 -41.76 
L 402.818182 -63.030635 
L 401.127273 -41.76 
L 399.436364 -41.76 
L 397.745455 -89.457787 
L 396.054545 -60.82424 
L 394.363636 -90.176724 
L 392.672727 -91.664181 
L 390.981818 -41.76 
L 389.290909 -41.76 
L 387.6 -41.76 
L 385.909091 -96.944653 
L 384.218182 -41.76 
L 382.527273 -41.76 
L 380.836364 -80.756163 
L 379.145455 -41.76 
L 377.454545 -41.76 
L 375.763636 -41.76 
L 374.072727 -85.218534 
L 372.381818 -41.76 
L 370.690909 -41.76 
L 369 -168.540915 
L 367.309091 -41.76 
L 365.618182 -41.76 
L 363.927273 -70.343965 
L 362.236364 -41.76 
L 360.545455 -41.76 
L 358.854545 -41.76 
L 357.163636 -80.657 
L 355.472727 -41.76 
L 353.781818 -41.76 
L 352.090909 -41.76 
L 350.4 -80.805745 
L 348.709091 -41.76 
L 347.018182 -41.76 
L 345.327273 -41.76 
L 343.636364 -77.706877 
L 341.945455 -41.76 
L 340.254545 -41.76 
L 338.563636 -41.76 
L 336.872727 -82.565903 
L 335.181818 -41.76 
L 333.490909 -41.76 
L 331.8 -41.76 
L 330.109091 -78.425814 
L 328.418182 -41.76 
L 326.727273 -73.021387 
L 325.036364 -41.76 
L 323.345455 -41.76 
L 321.654545 -82.962558 
L 319.963636 -94.440767 
L 318.272727 -41.76 
L 316.581818 -41.76 
L 314.890909 -41.76 
L 313.2 -105.274412 
L 311.509091 -53.362164 
L 309.818182 -41.76 
L 308.127273 -41.76 
L 306.436364 -41.76 
L 304.745455 -58.022863 
L 303.054545 -41.76 
L 301.363636 -41.76 
L 299.672727 -41.76 
L 297.981818 -59.807811 
L 296.290909 -41.76 
L 294.6 -41.76 
L 292.909091 -41.76 
L 291.218182 -117.620305 
L 289.527273 -41.76 
L 287.836364 -41.76 
L 286.145455 -41.76 
L 284.454545 -41.76 
L 282.763636 -72.128913 
L 281.072727 -41.76 
L 279.381818 -41.76 
L 277.690909 -41.76 
L 276 -77.359803 
L 274.309091 -86.730782 
L 272.618182 -41.76 
L 270.927273 -75.525273 
L 269.236364 -41.76 
L 267.545455 -41.76 
L 265.854545 -41.76 
L 264.163636 -71.881003 
L 262.472727 -41.76 
L 260.781818 -41.76 
L 259.090909 -41.76 
L 257.4 -85.516026 
L 255.709091 -41.76 
L 254.018182 -41.76 
L 252.327273 -41.76 
L 250.636364 -41.76 
L 248.945455 -83.830241 
L 247.254545 -41.76 
L 245.563636 -60.799449 
L 243.872727 -41.76 
L 242.181818 -111.868805 
L 240.490909 -41.76 
L 238.8 -80.756163 
L 237.109091 -56.609779 
L 235.418182 -41.76 
L 233.727273 -41.76 
L 232.036364 -41.76 
L 230.345455 -96.424043 
L 228.654545 -41.76 
L 226.963636 -41.76 
L 225.272727 -64.245391 
L 223.581818 -61.989415 
L 221.890909 -41.76 
L 220.2 -41.76 
L 218.509091 -41.76 
L 216.818182 -87.846375 
L 215.127273 -41.76 
L 213.436364 -41.76 
L 211.745455 -41.76 
L 210.054545 -94.24244 
L 208.363636 -41.76 
L 206.672727 -41.76 
L 204.981818 -41.76 
L 203.290909 -111.125076 
L 201.6 -41.76 
L 199.909091 -41.76 
L 198.218182 -41.76 
L 196.527273 -78.401023 
L 194.836364 -41.76 
L 193.145455 -41.76 
L 191.454545 -41.76 
L 189.763636 -41.76 
L 188.072727 -81.152818 
L 186.381818 -41.76 
L 184.690909 -41.76 
L 183 -41.76 
L 181.309091 -90.994825 
L 179.618182 -41.76 
L 177.927273 -41.76 
L 176.236364 -41.76 
L 174.545455 -105.299203 
L 172.854545 -41.76 
L 171.163636 -41.76 
L 169.472727 -41.76 
L 167.781818 -102.07638 
L 166.090909 -41.76 
L 164.4 -41.76 
L 162.709091 -41.76 
L 161.018182 -131.379282 
L 159.327273 -41.76 
L 157.636364 -41.76 
L 155.945455 -61.716714 
L 154.254545 -41.76 
L 152.563636 -41.76 
L 150.872727 -41.76 
L 149.181818 -63.749572 
L 147.490909 -41.76 
L 145.8 -41.76 
L 144.109091 -41.76 
L 142.418182 -114.223945 
L 140.727273 -41.76 
L 139.036364 -41.76 
L 137.345455 -41.76 
L 135.654545 -95.903433 
L 133.963636 -41.76 
L 132.272727 -41.76 
L 130.581818 -41.76 
L 128.890909 -66.600531 
L 127.2 -41.76 
L 125.509091 -41.76 
L 123.818182 -41.76 
L 122.127273 -44.387841 
L 120.436364 -41.76 
L 118.745455 -41.76 
L 117.054545 -41.76 
L 115.363636 -43.792858 
z
" style="stroke: #ff0000; stroke-width: 0.5"/>
    </defs>
    <g clip-path="url(#p1a0d746d5c)">
     <use xlink:href="#m7c198ba309" x="0" y="288" style="fill: #ff0000; stroke: #ff0000; stroke-width: 0.5"/>
    </g>
   </g>
   <g id="PolyCollection_2">
    <defs>
     <path id="mf0affbf4f8" d="M 115.363636 -46.71819 
L 115.363636 -43.792858 
L 117.054545 -41.76 
L 118.745455 -41.76 
L 120.436364 -41.76 
L 122.127273 -44.387841 
L 123.818182 -41.76 
L 125.509091 -41.76 
L 127.2 -41.76 
L 128.890909 -66.600531 
L 130.581818 -41.76 
L 132.272727 -41.76 
L 133.963636 -41.76 
L 135.654545 -95.903433 
L 137.345455 -41.76 
L 139.036364 -41.76 
L 140.727273 -41.76 
L 142.418182 -114.223945 
L 144.109091 -41.76 
L 145.8 -41.76 
L 147.490909 -41.76 
L 149.181818 -63.749572 
L 150.872727 -41.76 
L 152.563636 -41.76 
L 154.254545 -41.76 
L 155.945455 -61.716714 
L 157.636364 -41.76 
L 159.327273 -41.76 
L 161.018182 -131.379282 
L 162.709091 -41.76 
L 164.4 -41.76 
L 166.090909 -41.76 
L 167.781818 -102.07638 
L 169.472727 -41.76 
L 171.163636 -41.76 
L 172.854545 -41.76 
L 174.545455 -105.299203 
L 176.236364 -41.76 
L 177.927273 -41.76 
L 179.618182 -41.76 
L 181.309091 -90.994825 
L 183 -41.76 
L 184.690909 -41.76 
L 186.381818 -41.76 
L 188.072727 -81.152818 
L 189.763636 -41.76 
L 191.454545 -41.76 
L 193.145455 -41.76 
L 194.836364 -41.76 
L 196.527273 -78.401023 
L 198.218182 -41.76 
L 199.909091 -41.76 
L 201.6 -41.76 
L 203.290909 -111.125076 
L 204.981818 -41.76 
L 206.672727 -41.76 
L 208.363636 -41.76 
L 210.054545 -94.24244 
L 211.745455 -41.76 
L 213.436364 -41.76 
L 215.127273 -41.76 
L 216.818182 -87.846375 
L 218.509091 -41.76 
L 220.2 -41.76 
L 221.890909 -41.76 
L 223.581818 -61.989415 
L 225.272727 -64.245391 
L 226.963636 -41.76 
L 228.654545 -41.76 
L 230.345455 -96.424043 
L 232.036364 -41.76 
L 233.727273 -41.76 
L 235.418182 -41.76 
L 237.109091 -56.609779 
L 238.8 -80.756163 
L 240.490909 -41.76 
L 242.181818 -111.868805 
L 243.872727 -41.76 
L 245.563636 -60.799449 
L 247.254545 -41.76 
L 248.945455 -83.830241 
L 250.636364 -41.76 
L 252.327273 -41.76 
L 254.018182 -41.76 
L 255.709091 -41.76 
L 257.4 -85.516026 
L 259.090909 -41.76 
L 260.781818 -41.76 
L 262.472727 -41.76 
L 264.163636 -71.881003 
L 265.854545 -41.76 
L 267.545455 -41.76 
L 269.236364 -41.76 
L 270.927273 -75.525273 
L 272.618182 -41.76 
L 274.309091 -86.730782 
L 276 -77.359803 
L 277.690909 -41.76 
L 279.381818 -41.76 
L 281.072727 -41.76 
L 282.763636 -72.128913 
L 284.454545 -41.76 
L 286.145455 -41.76 
L 287.836364 -41.76 
L 289.527273 -41.76 
L 291.218182 -117.620305 
L 292.909091 -41.76 
L 294.6 -41.76 
L 296.290909 -41.76 
L 297.981818 -59.807811 
L 299.672727 -41.76 
L 301.363636 -41.76 
L 303.054545 -41.76 
L 304.745455 -58.022863 
L 306.436364 -41.76 
L 308.127273 -41.76 
L 309.818182 -41.76 
L 311.509091 -53.362164 
L 313.2 -105.274412 
L 314.890909 -41.76 
L 316.581818 -41.76 
L 318.272727 -41.76 
L 319.963636 -94.440767 
L 321.654545 -82.962558 
L 323.345455 -41.76 
L 325.036364 -41.76 
L 326.727273 -73.021387 
L 328.418182 -41.76 
L 330.109091 -78.425814 
L 331.8 -41.76 
L 333.490909 -41.76 
L 335.181818 -41.76 
L 336.872727 -82.565903 
L 338.563636 -41.76 
L 340.254545 -41.76 
L 341.945455 -41.76 
L 343.636364 -77.706877 
L 345.327273 -41.76 
L 347.018182 -41.76 
L 348.709091 -41.76 
L 350.4 -80.805745 
L 352.090909 -41.76 
L 353.781818 -41.76 
L 355.472727 -41.76 
L 357.163636 -80.657 
L 358.854545 -41.76 
L 360.545455 -41.76 
L 362.236364 -41.76 
L 363.927273 -70.343965 
L 365.618182 -41.76 
L 367.309091 -41.76 
L 369 -168.540915 
L 370.690909 -41.76 
L 372.381818 -41.76 
L 374.072727 -85.218534 
L 375.763636 -41.76 
L 377.454545 -41.76 
L 379.145455 -41.76 
L 380.836364 -80.756163 
L 382.527273 -41.76 
L 384.218182 -41.76 
L 385.909091 -96.944653 
L 387.6 -41.76 
L 389.290909 -41.76 
L 390.981818 -41.76 
L 392.672727 -91.664181 
L 394.363636 -90.176724 
L 396.054545 -60.82424 
L 397.745455 -89.457787 
L 399.436364 -41.76 
L 401.127273 -41.76 
L 402.818182 -63.030635 
L 404.509091 -41.76 
L 406.2 -90.573379 
L 407.890909 -58.444309 
L 409.581818 -41.76 
L 411.272727 -41.76 
L 412.963636 -41.76 
L 414.654545 -41.76 
L 416.345455 -58.320354 
L 418.036364 -41.76 
L 419.727273 -84.623551 
L 421.418182 -41.76 
L 423.109091 -77.434176 
L 424.8 -41.76 
L 426.490909 -77.434176 
L 428.181818 -41.76 
L 429.872727 -41.76 
L 431.563636 -41.76 
L 433.254545 -41.76 
L 434.945455 -72.996596 
L 436.636364 -50.064968 
L 438.327273 -41.76 
L 440.018182 -41.76 
L 441.709091 -86.16059 
L 443.4 -41.76 
L 445.090909 -41.76 
L 446.781818 -56.808106 
L 448.472727 -41.76 
L 450.163636 -41.76 
L 451.854545 -57.056016 
L 453.545455 -62.311697 
L 455.236364 -55.395022 
L 456.927273 -41.76 
L 458.618182 -41.76 
L 460.309091 -70.096055 
L 462 -41.76 
L 463.690909 -41.76 
L 465.381818 -41.76 
L 467.072727 -88.267821 
L 468.763636 -41.76 
L 470.454545 -71.360394 
L 472.145455 -65.088283 
L 473.836364 -41.76 
L 475.527273 -66.898023 
L 477.218182 -41.76 
L 478.909091 -41.76 
L 480.6 -66.377413 
L 482.290909 -41.76 
L 483.981818 -57.477462 
L 485.672727 -41.76 
L 487.363636 -41.76 
L 489.054545 -41.76 
L 490.745455 -66.129503 
L 492.436364 -41.76 
L 494.127273 -55.618141 
L 495.818182 -86.458082 
L 497.509091 -41.76 
L 499.2 -41.76 
L 500.890909 -140.155278 
L 502.581818 -41.76 
L 504.272727 -58.940128 
L 505.963636 -41.76 
L 507.654545 -41.76 
L 509.345455 -41.76 
L 511.036364 -124.512189 
L 512.727273 -41.76 
L 514.418182 -60.749867 
L 516.109091 -41.76 
L 517.8 -41.76 
L 519.490909 -41.76 
L 521.181818 -41.76 
L 522.872727 -67.369051 
L 524.563636 -41.76 
L 526.254545 -41.76 
L 527.945455 -41.76 
L 529.636364 -64.790792 
L 531.327273 -124.437816 
L 533.018182 -90.548588 
L 534.709091 -41.76 
L 536.4 -41.76 
L 538.090909 -41.76 
L 539.781818 -41.76 
L 541.472727 -66.625322 
L 543.163636 -41.76 
L 544.854545 -41.76 
L 546.545455 -60.30363 
L 548.236364 -55.320649 
L 549.927273 -41.76 
L 551.618182 -97.415681 
L 553.309091 -59.064083 
L 555 -41.76 
L 556.690909 -91.044407 
L 558.381818 -41.76 
L 560.072727 -139.262804 
L 561.763636 -41.76 
L 563.454545 -56.857688 
L 565.145455 -41.76 
L 566.836364 -80.40909 
L 568.527273 -80.185971 
L 570.218182 -41.76 
L 571.909091 -74.459262 
L 573.6 -41.76 
L 575.290909 -41.76 
L 576.981818 -41.76 
L 578.672727 -102.646572 
L 580.363636 -41.76 
L 582.054545 -41.76 
L 583.745455 -41.76 
L 585.436364 -105.74544 
L 587.127273 -41.76 
L 588.818182 -56.38666 
L 590.509091 -41.76 
L 592.2 -95.605942 
L 593.890909 -41.76 
L 595.581818 -87.920748 
L 597.272727 -77.434176 
L 598.963636 -41.76 
L 600.654545 -41.76 
L 602.345455 -41.76 
L 604.036364 -117.22365 
L 605.727273 -41.76 
L 607.418182 -41.76 
L 609.109091 -41.76 
L 610.8 -109.439292 
L 612.490909 -41.76 
L 614.181818 -41.76 
L 615.872727 -60.799449 
L 617.563636 -41.76 
L 619.254545 -41.76 
L 620.945455 -61.915042 
L 622.636364 -41.76 
L 622.636364 -41.76 
L 622.636364 -41.76 
L 620.945455 -79.714943 
L 619.254545 -71.459557 
L 617.563636 -58.667427 
L 615.872727 -68.534225 
L 614.181818 -45.701761 
L 612.490909 -47.288382 
L 610.8 -115.612238 
L 609.109091 -52.073035 
L 607.418182 -46.668608 
L 605.727273 -44.387841 
L 604.036364 -121.289365 
L 602.345455 -63.055425 
L 600.654545 -61.86546 
L 598.963636 -64.096645 
L 597.272727 -105.100876 
L 595.581818 -120.248146 
L 593.890909 -52.544063 
L 592.2 -107.208106 
L 590.509091 -61.07215 
L 588.818182 -73.88907 
L 587.127273 -54.329011 
L 585.436364 -113.009188 
L 583.745455 -86.805155 
L 582.054545 -97.6388 
L 580.363636 -92.606237 
L 578.672727 -121.016665 
L 576.981818 -53.486119 
L 575.290909 -49.916222 
L 573.6 -54.775248 
L 571.909091 -79.516616 
L 570.218182 -54.279429 
L 568.527273 -88.044702 
L 566.836364 -95.531569 
L 565.145455 -55.246276 
L 563.454545 -73.938652 
L 561.763636 -48.899793 
L 560.072727 -152.079725 
L 558.381818 -58.890546 
L 556.690909 -105.001712 
L 555 -50.362459 
L 553.309091 -66.82365 
L 551.618182 -111.819223 
L 549.927273 -69.104417 
L 548.236364 -75.153409 
L 546.545455 -72.029749 
L 544.854545 -47.610664 
L 543.163636 -56.932061 
L 541.472727 -111.49694 
L 539.781818 -60.080512 
L 538.090909 -67.145932 
L 536.4 -69.129208 
L 534.709091 -107.82788 
L 533.018182 -118.190497 
L 531.327273 -136.634963 
L 529.636364 -79.268706 
L 527.945455 -47.808992 
L 526.254545 -47.858574 
L 524.563636 -46.569444 
L 522.872727 -73.88907 
L 521.181818 -49.370821 
L 519.490909 -47.585873 
L 517.8 -54.82483 
L 516.109091 -65.856803 
L 514.418182 -68.360689 
L 512.727273 -45.453851 
L 511.036364 -128.900187 
L 509.345455 -64.245391 
L 507.654545 -53.78361 
L 505.963636 -68.162361 
L 504.272727 -84.697924 
L 502.581818 -48.924584 
L 500.890909 -141.270871 
L 499.2 -43.396203 
L 497.509091 -43.420994 
L 495.818182 -91.069198 
L 494.127273 -63.848736 
L 492.436364 -58.617846 
L 490.745455 -90.32547 
L 489.054545 -57.750162 
L 487.363636 -57.130389 
L 485.672727 -55.791677 
L 483.981818 -70.071264 
L 482.290909 -82.144456 
L 480.6 -113.529798 
L 478.909091 -88.614894 
L 477.218182 -94.366394 
L 475.527273 -110.18302 
L 473.836364 -53.981938 
L 472.145455 -81.177609 
L 470.454545 -90.151933 
L 468.763636 -48.131274 
L 467.072727 -93.969739 
L 465.381818 -52.023453 
L 463.690909 -50.90786 
L 462 -61.196104 
L 460.309091 -83.160885 
L 458.618182 -52.9903 
L 456.927273 -52.742391 
L 455.236364 -72.203286 
L 453.545455 -107.803089 
L 451.854545 -77.880413 
L 450.163636 -62.336488 
L 448.472727 -79.36787 
L 446.781818 -84.524388 
L 445.090909 -44.536586 
L 443.4 -43.916813 
L 441.709091 -95.358032 
L 440.018182 -76.417747 
L 438.327273 -84.59876 
L 436.636364 -71.53393 
L 434.945455 -90.573379 
L 433.254545 -79.467034 
L 431.563636 -79.987644 
L 429.872727 -81.004073 
L 428.181818 -78.723305 
L 426.490909 -92.854147 
L 424.8 -52.221781 
L 423.109091 -89.185086 
L 421.418182 -82.49153 
L 419.727273 -114.075199 
L 418.036364 -55.469395 
L 416.345455 -67.988824 
L 414.654545 -53.585283 
L 412.963636 -46.866936 
L 411.272727 -49.544358 
L 409.581818 -50.164132 
L 407.890909 -77.781249 
L 406.2 -99.969149 
L 404.509091 -48.998957 
L 402.818182 -74.434471 
L 401.127273 -52.122617 
L 399.436364 -56.213123 
L 397.745455 -100.861623 
L 396.054545 -71.633094 
L 394.363636 -98.779183 
L 392.672727 -99.696449 
L 390.981818 -50.684742 
L 389.290909 -46.296744 
L 387.6 -46.619026 
L 385.909091 -99.275002 
L 384.218182 -50.263296 
L 382.527273 -53.734029 
L 380.836364 -102.86969 
L 379.145455 -57.898908 
L 377.454545 -53.634865 
L 375.763636 -52.048244 
L 374.072727 -90.424634 
L 372.381818 -47.015681 
L 370.690909 -46.693399 
L 369 -171.862902 
L 367.309091 -48.03211 
L 365.618182 -54.502548 
L 363.927273 -103.266345 
L 362.236364 -53.560492 
L 360.545455 -49.965804 
L 358.854545 -59.138455 
L 357.163636 -96.919862 
L 355.472727 -63.42729 
L 353.781818 -46.693399 
L 352.090909 -52.122617 
L 350.4 -95.010959 
L 348.709091 -49.767477 
L 347.018182 -47.461918 
L 345.327273 -48.428765 
L 343.636364 -88.862804 
L 341.945455 -47.362755 
L 340.254545 -48.428765 
L 338.563636 -58.394727 
L 336.872727 -97.39089 
L 335.181818 -53.039882 
L 333.490909 -51.94908 
L 331.8 -53.808401 
L 330.109091 -103.191972 
L 328.418182 -64.096645 
L 326.727273 -98.283364 
L 325.036364 -65.881594 
L 323.345455 -85.88789 
L 321.654545 -100.26664 
L 319.963636 -107.456016 
L 318.272727 -64.840374 
L 316.581818 -56.708942 
L 314.890909 -53.957147 
L 313.2 -124.487398 
L 311.509091 -74.062607 
L 309.818182 -61.964624 
L 308.127273 -64.071854 
L 306.436364 -61.245686 
L 304.745455 -83.904614 
L 303.054545 -57.824535 
L 301.363636 -59.931766 
L 299.672727 -52.668018 
L 297.981818 -67.170723 
L 296.290909 -46.346326 
L 294.6 -59.584693 
L 292.909091 -49.048539 
L 291.218182 -122.578495 
L 289.527273 -48.651884 
L 287.836364 -48.974166 
L 286.145455 -47.164427 
L 284.454545 -49.544358 
L 282.763636 -77.434176 
L 281.072727 -45.701761 
L 279.381818 -45.776134 
L 277.690909 -45.181151 
L 276 -78.351441 
L 274.309091 -88.664476 
L 272.618182 -46.147998 
L 270.927273 -79.268706 
L 269.236364 -49.222076 
L 267.545455 -47.833783 
L 265.854545 -43.346621 
L 264.163636 -77.087103 
L 262.472727 -56.039587 
L 260.781818 -68.806926 
L 259.090909 -74.087398 
L 257.4 -121.091038 
L 255.709091 -97.539636 
L 254.018182 -107.208106 
L 252.327273 -99.820403 
L 250.636364 -76.169838 
L 248.945455 -109.811156 
L 247.254545 -57.750162 
L 245.563636 -66.426995 
L 243.872727 -46.99089 
L 242.181818 -115.587447 
L 240.490909 -45.776134 
L 238.8 -102.051589 
L 237.109091 -71.881003 
L 235.418182 -76.021092 
L 233.727273 -64.245391 
L 232.036364 -53.684447 
L 230.345455 -101.382233 
L 228.654545 -52.444899 
L 226.963636 -51.130979 
L 225.272727 -75.475691 
L 223.581818 -66.798859 
L 221.890909 -47.040472 
L 220.2 -50.734324 
L 218.509091 -45.255524 
L 216.818182 -96.696744 
L 215.127273 -52.444899 
L 213.436364 -43.693694 
L 211.745455 -45.800925 
L 210.054545 -98.828765 
L 208.363636 -52.320944 
L 206.672727 -67.740915 
L 204.981818 -79.318288 
L 203.290909 -134.155868 
L 201.6 -59.882184 
L 199.909091 -58.642636 
L 198.218182 -60.923404 
L 196.527273 -96.324879 
L 194.836364 -55.122322 
L 193.145455 -58.518682 
L 191.454545 -57.898908 
L 189.763636 -59.485529 
L 188.072727 -100.043522 
L 186.381818 -60.452376 
L 184.690909 -61.146522 
L 183 -61.86546 
L 181.309091 -116.355967 
L 179.618182 -68.13757 
L 177.927273 -67.914452 
L 176.236364 -68.211943 
L 174.545455 -130.486808 
L 172.854545 -67.269887 
L 171.163636 -67.319469 
L 169.472727 -67.61696 
L 167.781818 -128.801023 
L 166.090909 -67.641751 
L 164.4 -67.046768 
L 162.709091 -66.724486 
L 161.018182 -145.336586 
L 159.327273 -44.412632 
L 157.636364 -52.122617 
L 155.945455 -81.896547 
L 154.254545 -48.056901 
L 152.563636 -56.609779 
L 150.872727 -52.073035 
L 149.181818 -76.120256 
L 147.490909 -68.90609 
L 145.8 -70.22001 
L 144.109091 -67.691333 
L 142.418182 -136.8085 
L 140.727273 -58.940128 
L 139.036364 -59.088874 
L 137.345455 -66.724486 
L 135.654545 -115.637029 
L 133.963636 -65.906385 
L 132.272727 -63.17938 
L 130.581818 -67.418633 
L 128.890909 -95.953015 
L 127.2 -66.873232 
L 125.509091 -56.337078 
L 123.818182 -48.974166 
L 122.127273 -66.550949 
L 120.436364 -48.503138 
L 118.745455 -43.07392 
L 117.054545 -43.817649 
L 115.363636 -46.71819 
z
" style="stroke: #0000ff; stroke-width: 0.5"/>
    </defs>
    <g clip-path="url(#p1a0d746d5c)">
     <use xlink:href="#mf0affbf4f8" x="0" y="288" style="fill: #0000ff; stroke: #0000ff; stroke-width: 0.5"/>
    </g>
   </g>
   <g id="PolyCollection_3">
    <defs>
     <path id="md5da36468b" d="M 115.363636 -56.213123 
L 115.363636 -46.71819 
L 117.054545 -43.817649 
L 118.745455 -43.07392 
L 120.436364 -48.503138 
L 122.127273 -66.550949 
L 123.818182 -48.974166 
L 125.509091 -56.337078 
L 127.2 -66.873232 
L 128.890909 -95.953015 
L 130.581818 -67.418633 
L 132.272727 -63.17938 
L 133.963636 -65.906385 
L 135.654545 -115.637029 
L 137.345455 -66.724486 
L 139.036364 -59.088874 
L 140.727273 -58.940128 
L 142.418182 -136.8085 
L 144.109091 -67.691333 
L 145.8 -70.22001 
L 147.490909 -68.90609 
L 149.181818 -76.120256 
L 150.872727 -52.073035 
L 152.563636 -56.609779 
L 154.254545 -48.056901 
L 155.945455 -81.896547 
L 157.636364 -52.122617 
L 159.327273 -44.412632 
L 161.018182 -145.336586 
L 162.709091 -66.724486 
L 164.4 -67.046768 
L 166.090909 -67.641751 
L 167.781818 -128.801023 
L 169.472727 -67.61696 
L 171.163636 -67.319469 
L 172.854545 -67.269887 
L 174.545455 -130.486808 
L 176.236364 -68.211943 
L 177.927273 -67.914452 
L 179.618182 -68.13757 
L 181.309091 -116.355967 
L 183 -61.86546 
L 184.690909 -61.146522 
L 186.381818 -60.452376 
L 188.072727 -100.043522 
L 189.763636 -59.485529 
L 191.454545 -57.898908 
L 193.145455 -58.518682 
L 194.836364 -55.122322 
L 196.527273 -96.324879 
L 198.218182 -60.923404 
L 199.909091 -58.642636 
L 201.6 -59.882184 
L 203.290909 -134.155868 
L 204.981818 -79.318288 
L 206.672727 -67.740915 
L 208.363636 -52.320944 
L 210.054545 -98.828765 
L 211.745455 -45.800925 
L 213.436364 -43.693694 
L 215.127273 -52.444899 
L 216.818182 -96.696744 
L 218.509091 -45.255524 
L 220.2 -50.734324 
L 221.890909 -47.040472 
L 223.581818 -66.798859 
L 225.272727 -75.475691 
L 226.963636 -51.130979 
L 228.654545 -52.444899 
L 230.345455 -101.382233 
L 232.036364 -53.684447 
L 233.727273 -64.245391 
L 235.418182 -76.021092 
L 237.109091 -71.881003 
L 238.8 -102.051589 
L 240.490909 -45.776134 
L 242.181818 -115.587447 
L 243.872727 -46.99089 
L 245.563636 -66.426995 
L 247.254545 -57.750162 
L 248.945455 -109.811156 
L 250.636364 -76.169838 
L 252.327273 -99.820403 
L 254.018182 -107.208106 
L 255.709091 -97.539636 
L 257.4 -121.091038 
L 259.090909 -74.087398 
L 260.781818 -68.806926 
L 262.472727 -56.039587 
L 264.163636 -77.087103 
L 265.854545 -43.346621 
L 267.545455 -47.833783 
L 269.236364 -49.222076 
L 270.927273 -79.268706 
L 272.618182 -46.147998 
L 274.309091 -88.664476 
L 276 -78.351441 
L 277.690909 -45.181151 
L 279.381818 -45.776134 
L 281.072727 -45.701761 
L 282.763636 -77.434176 
L 284.454545 -49.544358 
L 286.145455 -47.164427 
L 287.836364 -48.974166 
L 289.527273 -48.651884 
L 291.218182 -122.578495 
L 292.909091 -49.048539 
L 294.6 -59.584693 
L 296.290909 -46.346326 
L 297.981818 -67.170723 
L 299.672727 -52.668018 
L 301.363636 -59.931766 
L 303.054545 -57.824535 
L 304.745455 -83.904614 
L 306.436364 -61.245686 
L 308.127273 -64.071854 
L 309.818182 -61.964624 
L 311.509091 -74.062607 
L 313.2 -124.487398 
L 314.890909 -53.957147 
L 316.581818 -56.708942 
L 318.272727 -64.840374 
L 319.963636 -107.456016 
L 321.654545 -100.26664 
L 323.345455 -85.88789 
L 325.036364 -65.881594 
L 326.727273 -98.283364 
L 328.418182 -64.096645 
L 330.109091 -103.191972 
L 331.8 -53.808401 
L 333.490909 -51.94908 
L 335.181818 -53.039882 
L 336.872727 -97.39089 
L 338.563636 -58.394727 
L 340.254545 -48.428765 
L 341.945455 -47.362755 
L 343.636364 -88.862804 
L 345.327273 -48.428765 
L 347.018182 -47.461918 
L 348.709091 -49.767477 
L 350.4 -95.010959 
L 352.090909 -52.122617 
L 353.781818 -46.693399 
L 355.472727 -63.42729 
L 357.163636 -96.919862 
L 358.854545 -59.138455 
L 360.545455 -49.965804 
L 362.236364 -53.560492 
L 363.927273 -103.266345 
L 365.618182 -54.502548 
L 367.309091 -48.03211 
L 369 -171.862902 
L 370.690909 -46.693399 
L 372.381818 -47.015681 
L 374.072727 -90.424634 
L 375.763636 -52.048244 
L 377.454545 -53.634865 
L 379.145455 -57.898908 
L 380.836364 -102.86969 
L 382.527273 -53.734029 
L 384.218182 -50.263296 
L 385.909091 -99.275002 
L 387.6 -46.619026 
L 389.290909 -46.296744 
L 390.981818 -50.684742 
L 392.672727 -99.696449 
L 394.363636 -98.779183 
L 396.054545 -71.633094 
L 397.745455 -100.861623 
L 399.436364 -56.213123 
L 401.127273 -52.122617 
L 402.818182 -74.434471 
L 404.509091 -48.998957 
L 406.2 -99.969149 
L 407.890909 -77.781249 
L 409.581818 -50.164132 
L 411.272727 -49.544358 
L 412.963636 -46.866936 
L 414.654545 -53.585283 
L 416.345455 -67.988824 
L 418.036364 -55.469395 
L 419.727273 -114.075199 
L 421.418182 -82.49153 
L 423.109091 -89.185086 
L 424.8 -52.221781 
L 426.490909 -92.854147 
L 428.181818 -78.723305 
L 429.872727 -81.004073 
L 431.563636 -79.987644 
L 433.254545 -79.467034 
L 434.945455 -90.573379 
L 436.636364 -71.53393 
L 438.327273 -84.59876 
L 440.018182 -76.417747 
L 441.709091 -95.358032 
L 443.4 -43.916813 
L 445.090909 -44.536586 
L 446.781818 -84.524388 
L 448.472727 -79.36787 
L 450.163636 -62.336488 
L 451.854545 -77.880413 
L 453.545455 -107.803089 
L 455.236364 -72.203286 
L 456.927273 -52.742391 
L 458.618182 -52.9903 
L 460.309091 -83.160885 
L 462 -61.196104 
L 463.690909 -50.90786 
L 465.381818 -52.023453 
L 467.072727 -93.969739 
L 468.763636 -48.131274 
L 470.454545 -90.151933 
L 472.145455 -81.177609 
L 473.836364 -53.981938 
L 475.527273 -110.18302 
L 477.218182 -94.366394 
L 478.909091 -88.614894 
L 480.6 -113.529798 
L 482.290909 -82.144456 
L 483.981818 -70.071264 
L 485.672727 -55.791677 
L 487.363636 -57.130389 
L 489.054545 -57.750162 
L 490.745455 -90.32547 
L 492.436364 -58.617846 
L 494.127273 -63.848736 
L 495.818182 -91.069198 
L 497.509091 -43.420994 
L 499.2 -43.396203 
L 500.890909 -141.270871 
L 502.581818 -48.924584 
L 504.272727 -84.697924 
L 505.963636 -68.162361 
L 507.654545 -53.78361 
L 509.345455 -64.245391 
L 511.036364 -128.900187 
L 512.727273 -45.453851 
L 514.418182 -68.360689 
L 516.109091 -65.856803 
L 517.8 -54.82483 
L 519.490909 -47.585873 
L 521.181818 -49.370821 
L 522.872727 -73.88907 
L 524.563636 -46.569444 
L 526.254545 -47.858574 
L 527.945455 -47.808992 
L 529.636364 -79.268706 
L 531.327273 -136.634963 
L 533.018182 -118.190497 
L 534.709091 -107.82788 
L 536.4 -69.129208 
L 538.090909 -67.145932 
L 539.781818 -60.080512 
L 541.472727 -111.49694 
L 543.163636 -56.932061 
L 544.854545 -47.610664 
L 546.545455 -72.029749 
L 548.236364 -75.153409 
L 549.927273 -69.104417 
L 551.618182 -111.819223 
L 553.309091 -66.82365 
L 555 -50.362459 
L 556.690909 -105.001712 
L 558.381818 -58.890546 
L 560.072727 -152.079725 
L 561.763636 -48.899793 
L 563.454545 -73.938652 
L 565.145455 -55.246276 
L 566.836364 -95.531569 
L 568.527273 -88.044702 
L 570.218182 -54.279429 
L 571.909091 -79.516616 
L 573.6 -54.775248 
L 575.290909 -49.916222 
L 576.981818 -53.486119 
L 578.672727 -121.016665 
L 580.363636 -92.606237 
L 582.054545 -97.6388 
L 583.745455 -86.805155 
L 585.436364 -113.009188 
L 587.127273 -54.329011 
L 588.818182 -73.88907 
L 590.509091 -61.07215 
L 592.2 -107.208106 
L 593.890909 -52.544063 
L 595.581818 -120.248146 
L 597.272727 -105.100876 
L 598.963636 -64.096645 
L 600.654545 -61.86546 
L 602.345455 -63.055425 
L 604.036364 -121.289365 
L 605.727273 -44.387841 
L 607.418182 -46.668608 
L 609.109091 -52.073035 
L 610.8 -115.612238 
L 612.490909 -47.288382 
L 614.181818 -45.701761 
L 615.872727 -68.534225 
L 617.563636 -58.667427 
L 619.254545 -71.459557 
L 620.945455 -79.714943 
L 622.636364 -41.76 
L 622.636364 -41.933537 
L 622.636364 -41.933537 
L 620.945455 -143.328519 
L 619.254545 -158.004761 
L 617.563636 -113.752917 
L 615.872727 -92.705401 
L 614.181818 -93.077265 
L 612.490909 -93.672248 
L 610.8 -165.119764 
L 609.109091 -136.511008 
L 607.418182 -72.228077 
L 605.727273 -124.239488 
L 604.036364 -187.828273 
L 602.345455 -124.041161 
L 600.654545 -117.322814 
L 598.963636 -112.587742 
L 597.272727 -145.460541 
L 595.581818 -162.020895 
L 593.890909 -127.263984 
L 592.2 -152.550753 
L 590.509091 -110.654048 
L 588.818182 -118.512779 
L 587.127273 -107.009779 
L 585.436364 -179.424142 
L 583.745455 -186.316026 
L 582.054545 -190.208205 
L 580.363636 -181.184299 
L 578.672727 -161.178003 
L 576.981818 -109.711992 
L 575.290909 -91.069198 
L 573.6 -100.564132 
L 571.909091 -102.07638 
L 570.218182 -75.996301 
L 568.527273 -108.497236 
L 566.836364 -134.20545 
L 565.145455 -97.242145 
L 563.454545 -119.950654 
L 561.763636 -105.795022 
L 560.072727 -191.299006 
L 558.381818 -99.151048 
L 556.690909 -129.49517 
L 555 -69.030044 
L 553.309091 -89.085922 
L 551.618182 -147.146326 
L 549.927273 -137.229946 
L 548.236364 -121.239784 
L 546.545455 -110.579675 
L 544.854545 -85.069788 
L 543.163636 -117.471559 
L 541.472727 -195.339931 
L 539.781818 -121.66123 
L 538.090909 -134.031913 
L 536.4 -142.708746 
L 534.709091 -197.645489 
L 533.018182 -195.414304 
L 531.327273 -171.565411 
L 529.636364 -128.057295 
L 527.945455 -70.938947 
L 526.254545 -64.766001 
L 524.563636 -63.823945 
L 522.872727 -97.787545 
L 521.181818 -73.318879 
L 519.490909 -68.187152 
L 517.8 -87.177019 
L 516.109091 -116.97574 
L 514.418182 -79.541407 
L 512.727273 -81.2024 
L 511.036364 -142.758328 
L 509.345455 -97.614009 
L 507.654545 -96.07697 
L 505.963636 -142.262509 
L 504.272727 -196.777806 
L 502.581818 -127.338357 
L 500.890909 -183.390694 
L 499.2 -46.619026 
L 497.509091 -46.47028 
L 495.818182 -102.125962 
L 494.127273 -86.507664 
L 492.436364 -96.027388 
L 490.745455 -136.163935 
L 489.054545 -93.622666 
L 487.363636 -96.845489 
L 485.672727 -88.862804 
L 483.981818 -123.446178 
L 482.290909 -243.36 
L 480.6 -202.380561 
L 478.909091 -171.119174 
L 477.218182 -153.567182 
L 475.527273 -153.096153 
L 473.836364 -72.252868 
L 472.145455 -115.41391 
L 470.454545 -119.30609 
L 468.763636 -58.692218 
L 467.072727 -104.109238 
L 465.381818 -80.483463 
L 463.690909 -78.252277 
L 462 -116.033684 
L 460.309091 -111.447359 
L 458.618182 -82.665066 
L 456.927273 -78.450605 
L 455.236364 -104.95213 
L 453.545455 -224.618042 
L 451.854545 -121.760394 
L 450.163636 -109.414501 
L 448.472727 -172.953704 
L 446.781818 -121.066247 
L 445.090909 -51.577216 
L 443.4 -47.015681 
L 441.709091 -119.256508 
L 440.018182 -164.574363 
L 438.327273 -172.656212 
L 436.636364 -146.055524 
L 434.945455 -146.799252 
L 433.254545 -130.189316 
L 431.563636 -122.256212 
L 429.872727 -137.552228 
L 428.181818 -127.586267 
L 426.490909 -124.413025 
L 424.8 -80.904909 
L 423.109091 -110.728421 
L 421.418182 -131.428864 
L 419.727273 -162.467132 
L 418.036364 -89.482577 
L 416.345455 -89.432996 
L 414.654545 -72.500777 
L 412.963636 -56.832897 
L 411.272727 -62.683561 
L 409.581818 -79.169543 
L 407.890909 -117.49635 
L 406.2 -115.93452 
L 404.509091 -66.104712 
L 402.818182 -99.547703 
L 401.127273 -82.441948 
L 399.436364 -103.588628 
L 397.745455 -133.610467 
L 396.054545 -98.754393 
L 394.363636 -128.677068 
L 392.672727 -117.645096 
L 390.981818 -66.625322 
L 389.290909 -54.229848 
L 387.6 -58.667427 
L 385.909091 -108.769936 
L 384.218182 -92.928519 
L 382.527273 -102.59699 
L 380.836364 -155.277757 
L 379.145455 -119.504417 
L 377.454545 -96.647162 
L 375.763636 -73.591579 
L 374.072727 -175.631126 
L 372.381818 -162.591087 
L 370.690909 -161.450703 
L 369 -193.2327 
L 367.309091 -86.92911 
L 365.618182 -106.439587 
L 363.927273 -161.277167 
L 362.236364 -105.918977 
L 360.545455 -98.828765 
L 358.854545 -118.78548 
L 357.163636 -146.154688 
L 355.472727 -115.587447 
L 353.781818 -85.292907 
L 352.090909 -110.306975 
L 350.4 -144.617649 
L 348.709091 -98.456901 
L 347.018182 -90.821289 
L 345.327273 -91.664181 
L 343.636364 -129.470379 
L 341.945455 -81.72301 
L 340.254545 -82.912976 
L 338.563636 -111.199449 
L 336.872727 -132.023847 
L 335.181818 -92.135209 
L 333.490909 -79.491825 
L 331.8 -86.705991 
L 330.109091 -135.593743 
L 328.418182 -109.637619 
L 326.727273 -155.723994 
L 325.036364 -129.197678 
L 323.345455 -169.70609 
L 321.654545 -137.84972 
L 319.963636 -156.542095 
L 318.272727 -117.818633 
L 316.581818 -78.128323 
L 314.890909 -85.243325 
L 313.2 -170.375445 
L 311.509091 -112.067132 
L 309.818182 -93.523502 
L 308.127273 -93.969739 
L 306.436364 -86.854737 
L 304.745455 -113.926454 
L 303.054545 -82.317993 
L 301.363636 -105.249621 
L 299.672727 -84.400433 
L 297.981818 -83.483168 
L 296.290909 -64.369346 
L 294.6 -135.568952 
L 292.909091 -80.904909 
L 291.218182 -137.403483 
L 289.527273 -54.775248 
L 287.836364 -59.039292 
L 286.145455 -74.558426 
L 284.454545 -87.251392 
L 282.763636 -92.804565 
L 281.072727 -53.981938 
L 279.381818 -55.419813 
L 277.690909 -55.246276 
L 276 -124.01637 
L 274.309091 -134.577314 
L 272.618182 -56.138751 
L 270.927273 -93.72183 
L 269.236364 -73.269297 
L 267.545455 -69.996891 
L 265.854545 -46.569444 
L 264.163636 -95.333242 
L 262.472727 -105.274412 
L 260.781818 -116.083266 
L 259.090909 -142.386463 
L 257.4 -183.638603 
L 255.709091 -207.165214 
L 254.018182 -202.702843 
L 252.327273 -206.099203 
L 250.636364 -147.071953 
L 248.945455 -179.746424 
L 247.254545 -108.472445 
L 245.563636 -87.424929 
L 243.872727 -64.518091 
L 242.181818 -122.45454 
L 240.490909 -52.048244 
L 238.8 -163.136488 
L 237.109091 -120.644801 
L 235.418182 -143.700384 
L 233.727273 -129.594333 
L 232.036364 -92.705401 
L 230.345455 -115.463492 
L 228.654545 -87.300974 
L 226.963636 -75.004663 
L 225.272727 -104.357147 
L 223.581818 -75.97151 
L 221.890909 -64.146227 
L 220.2 -71.806631 
L 218.509091 -52.791972 
L 216.818182 -141.221289 
L 215.127273 -159.467427 
L 213.436364 -137.577019 
L 211.745455 -129.743079 
L 210.054545 -168.689661 
L 208.363636 -127.660639 
L 206.672727 -137.031618 
L 204.981818 -168.268214 
L 203.290909 -185.820207 
L 201.6 -104.505893 
L 199.909091 -115.215583 
L 198.218182 -114.248736 
L 196.527273 -136.486217 
L 194.836364 -96.300089 
L 193.145455 -106.290841 
L 191.454545 -107.803089 
L 189.763636 -103.588628 
L 188.072727 -149.129602 
L 186.381818 -115.785775 
L 184.690909 -120.743965 
L 183 -128.007713 
L 181.309091 -177.490448 
L 179.618182 -170.003581 
L 177.927273 -170.7721 
L 176.236364 -175.408008 
L 174.545455 -222.857885 
L 172.854545 -166.607221 
L 171.163636 -168.466542 
L 169.472727 -167.821977 
L 167.781818 -225.981545 
L 166.090909 -164.103335 
L 164.4 -173.300777 
L 162.709091 -169.780462 
L 161.018182 -178.308549 
L 159.327273 -51.800334 
L 157.636364 -84.549179 
L 155.945455 -125.751736 
L 154.254545 -63.69999 
L 152.563636 -91.143571 
L 150.872727 -78.153114 
L 149.181818 -112.612533 
L 147.490909 -150.418731 
L 145.8 -158.50058 
L 144.109091 -157.508942 
L 142.418182 -219.610271 
L 140.727273 -148.55941 
L 139.036364 -164.450408 
L 137.345455 -177.639193 
L 135.654545 -231.658672 
L 133.963636 -178.680413 
L 132.272727 -174.490743 
L 130.581818 -170.846473 
L 128.890909 -191.621289 
L 127.2 -146.724879 
L 125.509091 -104.555475 
L 123.818182 -78.252277 
L 122.127273 -99.72124 
L 120.436364 -51.701171 
L 118.745455 -44.933242 
L 117.054545 -46.098416 
L 115.363636 -56.213123 
z
" style="stroke: #008000; stroke-width: 0.5"/>
    </defs>
    <g clip-path="url(#p1a0d746d5c)">
     <use xlink:href="#md5da36468b" x="0" y="288" style="fill: #008000; stroke: #008000; stroke-width: 0.5"/>
    </g>
   </g>
   <g id="line2d_30">
    <path d="M 90 44.64 
L 648 44.64 
" clip-path="url(#p1a0d746d5c)" style="fill: none; stroke: #000000; stroke-width: 1.5; stroke-linecap: square"/>
   </g>
   <g id="line2d_31">
    <path d="M 90 169.040984 
L 648 169.040984 
" clip-path="url(#p1a0d746d5c)" style="fill: none; stroke: #000000; stroke-width: 1.5; stroke-linecap: square"/>
   </g>
   <g id="patch_3">
    <path d="M 90 256.32 
L 90 34.56 
" style="fill: none; stroke: #000000; stroke-width: 0.8; stroke-linejoin: miter; stroke-linecap: square"/>
   </g>
   <g id="patch_4">
    <path d="M 648 256.32 
L 648 34.56 
" style="fill: none; stroke: #000000; stroke-width: 0.8; stroke-linejoin: miter; stroke-linecap: square"/>
   </g>
   <g id="patch_5">
    <path d="M 90 256.32 
L 648 256.32 
" style="fill: none; stroke: #000000; stroke-width: 0.8; stroke-linejoin: miter; stroke-linecap: square"/>
   </g>
   <g id="patch_6">
    <path d="M 90 34.56 
L 648 34.56 
" style="fill: none; stroke: #000000; stroke-width: 0.8; stroke-linejoin: miter; stroke-linecap: square"/>
   </g>
   <g id="text_23">
    <!-- peak (8,132) -->
    <g transform="translate(122.179233 41.3136) scale(0.1 -0.1)">
     <defs>
      <path id="DejaVuSans-Bold-70" d="M 1656 506 
L 1656 -1331 
L 538 -1331 
L 538 3500 
L 1656 3500 
L 1656 2988 
Q 1888 3294 2169 3439 
Q 2450 3584 2816 3584 
Q 3463 3584 3878 3070 
Q 4294 2556 4294 1747 
Q 4294 938 3878 423 
Q 3463 -91 2816 -91 
Q 2450 -91 2169 54 
Q 1888 200 1656 506 
z
M 2400 2772 
Q 2041 2772 1848 2508 
Q 1656 2244 1656 1747 
Q 1656 1250 1848 986 
Q 2041 722 2400 722 
Q 2759 722 2948 984 
Q 3138 1247 3138 1747 
Q 3138 2247 2948 2509 
Q 2759 2772 2400 2772 
z
" transform="scale(0.015625)"/>
      <path id="DejaVuSans-Bold-65" d="M 4031 1759 
L 4031 1441 
L 1416 1441 
Q 1456 1047 1700 850 
Q 1944 653 2381 653 
Q 2734 653 3104 758 
Q 3475 863 3866 1075 
L 3866 213 
Q 3469 63 3072 -14 
Q 2675 -91 2278 -91 
Q 1328 -91 801 392 
Q 275 875 275 1747 
Q 275 2603 792 3093 
Q 1309 3584 2216 3584 
Q 3041 3584 3536 3087 
Q 4031 2591 4031 1759 
z
M 2881 2131 
Q 2881 2450 2695 2645 
Q 2509 2841 2209 2841 
Q 1884 2841 1681 2658 
Q 1478 2475 1428 2131 
L 2881 2131 
z
" transform="scale(0.015625)"/>
      <path id="DejaVuSans-Bold-61" d="M 2106 1575 
Q 1756 1575 1579 1456 
Q 1403 1338 1403 1106 
Q 1403 894 1545 773 
Q 1688 653 1941 653 
Q 2256 653 2472 879 
Q 2688 1106 2688 1447 
L 2688 1575 
L 2106 1575 
z
M 3816 1997 
L 3816 0 
L 2688 0 
L 2688 519 
Q 2463 200 2181 54 
Q 1900 -91 1497 -91 
Q 953 -91 614 226 
Q 275 544 275 1050 
Q 275 1666 698 1953 
Q 1122 2241 2028 2241 
L 2688 2241 
L 2688 2328 
Q 2688 2594 2478 2717 
Q 2269 2841 1825 2841 
Q 1466 2841 1156 2769 
Q 847 2697 581 2553 
L 581 3406 
Q 941 3494 1303 3539 
Q 1666 3584 2028 3584 
Q 2975 3584 3395 3211 
Q 3816 2838 3816 1997 
z
" transform="scale(0.015625)"/>
      <path id="DejaVuSans-Bold-6b" d="M 538 4863 
L 1656 4863 
L 1656 2216 
L 2944 3500 
L 4244 3500 
L 2534 1894 
L 4378 0 
L 3022 0 
L 1656 1459 
L 1656 0 
L 538 0 
L 538 4863 
z
" transform="scale(0.015625)"/>
      <path id="DejaVuSans-Bold-20" transform="scale(0.015625)"/>
      <path id="DejaVuSans-Bold-28" d="M 2413 -844 
L 1484 -844 
Q 1006 -72 778 623 
Q 550 1319 550 2003 
Q 550 2688 779 3389 
Q 1009 4091 1484 4856 
L 2413 4856 
Q 2013 4116 1813 3408 
Q 1613 2700 1613 2009 
Q 1613 1319 1811 609 
Q 2009 -100 2413 -844 
z
" transform="scale(0.015625)"/>
      <path id="DejaVuSans-Bold-38" d="M 2228 2088 
Q 1891 2088 1709 1903 
Q 1528 1719 1528 1375 
Q 1528 1031 1709 848 
Q 1891 666 2228 666 
Q 2563 666 2741 848 
Q 2919 1031 2919 1375 
Q 2919 1722 2741 1905 
Q 2563 2088 2228 2088 
z
M 1350 2484 
Q 925 2613 709 2878 
Q 494 3144 494 3541 
Q 494 4131 934 4440 
Q 1375 4750 2228 4750 
Q 3075 4750 3515 4442 
Q 3956 4134 3956 3541 
Q 3956 3144 3739 2878 
Q 3522 2613 3097 2484 
Q 3572 2353 3814 2058 
Q 4056 1763 4056 1313 
Q 4056 619 3595 264 
Q 3134 -91 2228 -91 
Q 1319 -91 855 264 
Q 391 619 391 1313 
Q 391 1763 633 2058 
Q 875 2353 1350 2484 
z
M 1631 3419 
Q 1631 3141 1786 2991 
Q 1941 2841 2228 2841 
Q 2509 2841 2662 2991 
Q 2816 3141 2816 3419 
Q 2816 3697 2662 3845 
Q 2509 3994 2228 3994 
Q 1941 3994 1786 3844 
Q 1631 3694 1631 3419 
z
" transform="scale(0.015625)"/>
      <path id="DejaVuSans-Bold-2c" d="M 653 1209 
L 1778 1209 
L 1778 256 
L 1006 -909 
L 341 -909 
L 653 256 
L 653 1209 
z
" transform="scale(0.015625)"/>
      <path id="DejaVuSans-Bold-31" d="M 750 831 
L 1813 831 
L 1813 3847 
L 722 3622 
L 722 4441 
L 1806 4666 
L 2950 4666 
L 2950 831 
L 4013 831 
L 4013 0 
L 750 0 
L 750 831 
z
" transform="scale(0.015625)"/>
      <path id="DejaVuSans-Bold-33" d="M 2981 2516 
Q 3453 2394 3698 2092 
Q 3944 1791 3944 1325 
Q 3944 631 3412 270 
Q 2881 -91 1863 -91 
Q 1503 -91 1142 -33 
Q 781 25 428 141 
L 428 1069 
Q 766 900 1098 814 
Q 1431 728 1753 728 
Q 2231 728 2486 893 
Q 2741 1059 2741 1369 
Q 2741 1688 2480 1852 
Q 2219 2016 1709 2016 
L 1228 2016 
L 1228 2791 
L 1734 2791 
Q 2188 2791 2409 2933 
Q 2631 3075 2631 3366 
Q 2631 3634 2415 3781 
Q 2200 3928 1806 3928 
Q 1516 3928 1219 3862 
Q 922 3797 628 3669 
L 628 4550 
Q 984 4650 1334 4700 
Q 1684 4750 2022 4750 
Q 2931 4750 3382 4451 
Q 3834 4153 3834 3553 
Q 3834 3144 3618 2883 
Q 3403 2622 2981 2516 
z
" transform="scale(0.015625)"/>
      <path id="DejaVuSans-Bold-32" d="M 1844 884 
L 3897 884 
L 3897 0 
L 506 0 
L 506 884 
L 2209 2388 
Q 2438 2594 2547 2791 
Q 2656 2988 2656 3200 
Q 2656 3528 2436 3728 
Q 2216 3928 1850 3928 
Q 1569 3928 1234 3808 
Q 900 3688 519 3450 
L 519 4475 
Q 925 4609 1322 4679 
Q 1719 4750 2100 4750 
Q 2938 4750 3402 4381 
Q 3866 4013 3866 3353 
Q 3866 2972 3669 2642 
Q 3472 2313 2841 1759 
L 1844 884 
z
" transform="scale(0.015625)"/>
      <path id="DejaVuSans-Bold-29" d="M 513 -844 
Q 913 -100 1113 609 
Q 1313 1319 1313 2009 
Q 1313 2700 1113 3408 
Q 913 4116 513 4856 
L 1441 4856 
Q 1916 4091 2145 3389 
Q 2375 2688 2375 2003 
Q 2375 1319 2147 623 
Q 1919 -72 1441 -844 
L 513 -844 
z
" transform="scale(0.015625)"/>
     </defs>
     <use xlink:href="#DejaVuSans-Bold-70"/>
     <use xlink:href="#DejaVuSans-Bold-65" x="71.582031"/>
     <use xlink:href="#DejaVuSans-Bold-61" x="139.404297"/>
     <use xlink:href="#DejaVuSans-Bold-6b" x="206.884766"/>
     <use xlink:href="#DejaVuSans-Bold-20" x="273.388672"/>
     <use xlink:href="#DejaVuSans-Bold-28" x="308.203125"/>
     <use xlink:href="#DejaVuSans-Bold-38" x="353.90625"/>
     <use xlink:href="#DejaVuSans-Bold-2c" x="423.486328"/>
     <use xlink:href="#DejaVuSans-Bold-31" x="461.474609"/>
     <use xlink:href="#DejaVuSans-Bold-33" x="531.054688"/>
     <use xlink:href="#DejaVuSans-Bold-32" x="600.634766"/>
     <use xlink:href="#DejaVuSans-Bold-29" x="670.214844"/>
    </g>
   </g>
   <g id="text_24">
    <!-- mean (3,114) -->
    <g transform="translate(567.728153 165.714584) scale(0.1 -0.1)">
     <defs>
      <path id="DejaVuSans-Bold-6d" d="M 3781 2919 
Q 3994 3244 4286 3414 
Q 4578 3584 4928 3584 
Q 5531 3584 5847 3212 
Q 6163 2841 6163 2131 
L 6163 0 
L 5038 0 
L 5038 1825 
Q 5041 1866 5042 1909 
Q 5044 1953 5044 2034 
Q 5044 2406 4934 2573 
Q 4825 2741 4581 2741 
Q 4263 2741 4089 2478 
Q 3916 2216 3909 1719 
L 3909 0 
L 2784 0 
L 2784 1825 
Q 2784 2406 2684 2573 
Q 2584 2741 2328 2741 
Q 2006 2741 1831 2477 
Q 1656 2213 1656 1722 
L 1656 0 
L 531 0 
L 531 3500 
L 1656 3500 
L 1656 2988 
Q 1863 3284 2130 3434 
Q 2397 3584 2719 3584 
Q 3081 3584 3359 3409 
Q 3638 3234 3781 2919 
z
" transform="scale(0.015625)"/>
      <path id="DejaVuSans-Bold-6e" d="M 4056 2131 
L 4056 0 
L 2931 0 
L 2931 347 
L 2931 1631 
Q 2931 2084 2911 2256 
Q 2891 2428 2841 2509 
Q 2775 2619 2662 2680 
Q 2550 2741 2406 2741 
Q 2056 2741 1856 2470 
Q 1656 2200 1656 1722 
L 1656 0 
L 538 0 
L 538 3500 
L 1656 3500 
L 1656 2988 
Q 1909 3294 2193 3439 
Q 2478 3584 2822 3584 
Q 3428 3584 3742 3212 
Q 4056 2841 4056 2131 
z
" transform="scale(0.015625)"/>
      <path id="DejaVuSans-Bold-34" d="M 2356 3675 
L 1038 1722 
L 2356 1722 
L 2356 3675 
z
M 2156 4666 
L 3494 4666 
L 3494 1722 
L 4159 1722 
L 4159 850 
L 3494 850 
L 3494 0 
L 2356 0 
L 2356 850 
L 288 850 
L 288 1881 
L 2156 4666 
z
" transform="scale(0.015625)"/>
     </defs>
     <use xlink:href="#DejaVuSans-Bold-6d"/>
     <use xlink:href="#DejaVuSans-Bold-65" x="104.199219"/>
     <use xlink:href="#DejaVuSans-Bold-61" x="172.021484"/>
     <use xlink:href="#DejaVuSans-Bold-6e" x="239.501953"/>
     <use xlink:href="#DejaVuSans-Bold-20" x="310.693359"/>
     <use xlink:href="#DejaVuSans-Bold-28" x="345.507812"/>
     <use xlink:href="#DejaVuSans-Bold-33" x="391.210938"/>
     <use xlink:href="#DejaVuSans-Bold-2c" x="460.791016"/>
     <use xlink:href="#DejaVuSans-Bold-31" x="498.779297"/>
     <use xlink:href="#DejaVuSans-Bold-31" x="568.359375"/>
     <use xlink:href="#DejaVuSans-Bold-34" x="637.939453"/>
     <use xlink:href="#DejaVuSans-Bold-29" x="707.519531"/>
    </g>
   </g>
   <g id="text_25">
    <!-- Stream Bitrate over Time -->
    <g transform="translate(293.189062 28.56) scale(0.12 -0.12)">
     <defs>
      <path id="DejaVuSans-53" d="M 3425 4513 
L 3425 3897 
Q 3066 4069 2747 4153 
Q 2428 4238 2131 4238 
Q 1616 4238 1336 4038 
Q 1056 3838 1056 3469 
Q 1056 3159 1242 3001 
Q 1428 2844 1947 2747 
L 2328 2669 
Q 3034 2534 3370 2195 
Q 3706 1856 3706 1288 
Q 3706 609 3251 259 
Q 2797 -91 1919 -91 
Q 1588 -91 1214 -16 
Q 841 59 441 206 
L 441 856 
Q 825 641 1194 531 
Q 1563 422 1919 422 
Q 2459 422 2753 634 
Q 3047 847 3047 1241 
Q 3047 1584 2836 1778 
Q 2625 1972 2144 2069 
L 1759 2144 
Q 1053 2284 737 2584 
Q 422 2884 422 3419 
Q 422 4038 858 4394 
Q 1294 4750 2059 4750 
Q 2388 4750 2728 4690 
Q 3069 4631 3425 4513 
z
" transform="scale(0.015625)"/>
      <path id="DejaVuSans-6f" d="M 1959 3097 
Q 1497 3097 1228 2736 
Q 959 2375 959 1747 
Q 959 1119 1226 758 
Q 1494 397 1959 397 
Q 2419 397 2687 759 
Q 2956 1122 2956 1747 
Q 2956 2369 2687 2733 
Q 2419 3097 1959 3097 
z
M 1959 3584 
Q 2709 3584 3137 3096 
Q 3566 2609 3566 1747 
Q 3566 888 3137 398 
Q 2709 -91 1959 -91 
Q 1206 -91 779 398 
Q 353 888 353 1747 
Q 353 2609 779 3096 
Q 1206 3584 1959 3584 
z
" transform="scale(0.015625)"/>
      <path id="DejaVuSans-76" d="M 191 3500 
L 800 3500 
L 1894 563 
L 2988 3500 
L 3597 3500 
L 2284 0 
L 1503 0 
L 191 3500 
z
" transform="scale(0.015625)"/>
     </defs>
     <use xlink:href="#DejaVuSans-53"/>
     <use xlink:href="#DejaVuSans-74" x="63.476562"/>
     <use xlink:href="#DejaVuSans-72" x="102.685547"/>
     <use xlink:href="#DejaVuSans-65" x="141.548828"/>
     <use xlink:href="#DejaVuSans-61" x="203.072266"/>
     <use xlink:href="#DejaVuSans-6d" x="264.351562"/>
     <use xlink:href="#DejaVuSans-20" x="361.763672"/>
     <use xlink:href="#DejaVuSans-42" x="393.550781"/>
     <use xlink:href="#DejaVuSans-69" x="462.154297"/>
     <use xlink:href="#DejaVuSans-74" x="489.9375"/>
     <use xlink:href="#DejaVuSans-72" x="529.146484"/>
     <use xlink:href="#DejaVuSans-61" x="570.259766"/>
     <use xlink:href="#DejaVuSans-74" x="631.539062"/>
     <use xlink:href="#DejaVuSans-65" x="670.748047"/>
     <use xlink:href="#DejaVuSans-20" x="732.271484"/>
     <use xlink:href="#DejaVuSans-6f" x="764.058594"/>
     <use xlink:href="#DejaVuSans-76" x="825.240234"/>
     <use xlink:href="#DejaVuSans-65" x="884.419922"/>
     <use xlink:href="#DejaVuSans-72" x="945.943359"/>
     <use xlink:href="#DejaVuSans-20" x="987.056641"/>
     <use xlink:href="#DejaVuSans-54" x="1018.84375"/>
     <use xlink:href="#DejaVuSans-69" x="1076.802734"/>
     <use xlink:href="#DejaVuSans-6d" x="1104.585938"/>
     <use xlink:href="#DejaVuSans-65" x="1201.998047"/>
    </g>
   </g>
   <g id="legend_1">
    <g id="patch_7">
     <path d="M 602.139063 86.594375 
L 641 86.594375 
Q 643 86.594375 643 84.594375 
L 643 41.56 
Q 643 39.56 641 39.56 
L 602.139063 39.56 
Q 600.139063 39.56 600.139063 41.56 
L 600.139063 84.594375 
Q 600.139063 86.594375 602.139063 86.594375 
z
" style="fill: #ffffff; opacity: 0.8; stroke: #cccccc; stroke-linejoin: miter"/>
    </g>
    <g id="patch_8">
     <path d="M 604.139063 51.158438 
L 624.139063 51.158438 
L 624.139063 44.158438 
L 604.139063 44.158438 
z
" style="fill: #ff0000; stroke: #ff0000; stroke-width: 0.5; stroke-linejoin: miter"/>
    </g>
    <g id="text_26">
     <!-- I -->
     <g transform="translate(632.139063 51.158438) scale(0.1 -0.1)">
      <defs>
       <path id="DejaVuSans-49" d="M 628 4666 
L 1259 4666 
L 1259 0 
L 628 0 
L 628 4666 
z
" transform="scale(0.015625)"/>
      </defs>
      <use xlink:href="#DejaVuSans-49"/>
     </g>
    </g>
    <g id="patch_9">
     <path d="M 604.139063 65.836563 
L 624.139063 65.836563 
L 624.139063 58.836563 
L 604.139063 58.836563 
z
" style="fill: #0000ff; stroke: #0000ff; stroke-width: 0.5; stroke-linejoin: miter"/>
    </g>
    <g id="text_27">
     <!-- B -->
     <g transform="translate(632.139063 65.836563) scale(0.1 -0.1)">
      <use xlink:href="#DejaVuSans-42"/>
     </g>
    </g>
    <g id="patch_10">
     <path d="M 604.139063 80.514688 
L 624.139063 80.514688 
L 624.139063 73.514688 
L 604.139063 73.514688 
z
" style="fill: #008000; stroke: #008000; stroke-width: 0.5; stroke-linejoin: miter"/>
    </g>
    <g id="text_28">
     <!-- P -->
     <g transform="translate(632.139063 80.514688) scale(0.1 -0.1)">
      <defs>
       <path id="DejaVuSans-50" d="M 1259 4147 
L 1259 2394 
L 2053 2394 
Q 2494 2394 2734 2622 
Q 2975 2850 2975 3272 
Q 2975 3691 2734 3919 
Q 2494 4147 2053 4147 
L 1259 4147 
z
M 628 4666 
L 2053 4666 
Q 2838 4666 3239 4311 
Q 3641 3956 3641 3272 
Q 3641 2581 3239 2228 
Q 2838 1875 2053 1875 
L 1259 1875 
L 1259 0 
L 628 0 
L 628 4666 
z
" transform="scale(0.015625)"/>
      </defs>
      <use xlink:href="#DejaVuSans-50"/>
     </g>
    </g>
   </g>
  </g>
 </g>
 <defs>
  <clipPath id="p1a0d746d5c">
   <rect x="90" y="34.56" width="558" height="221.76"/>
  </clipPath>
 </defs>
</svg>
