<?xml version="1.0" encoding="utf-8" standalone="no"?>
<!DOCTYPE svg PUBLIC "-//W3C//DTD SVG 1.1//EN"
  "http://www.w3.org/Graphics/SVG/1.1/DTD/svg11.dtd">
<svg xmlns:xlink="http://www.w3.org/1999/xlink" width="720pt" height="288pt" viewBox="0 0 720 288" xmlns="http://www.w3.org/2000/svg" version="1.1">
 <metadata>
  <rdf:RDF xmlns:dc="http://purl.org/dc/elements/1.1/" xmlns:cc="http://creativecommons.org/ns#" xmlns:rdf="http://www.w3.org/1999/02/22-rdf-syntax-ns#">
   <cc:Work>
    <dc:type rdf:resource="http://purl.org/dc/dcmitype/StillImage"/>
    <dc:date>2023-05-07T02:07:06.580770</dc:date>
    <dc:format>image/svg+xml</dc:format>
    <dc:creator>
     <cc:Agent>
      <dc:title>Matplotlib v3.7.1, https://matplotlib.org/</dc:title>
     </cc:Agent>
    </dc:creator>
   </cc:Work>
  </rdf:RDF>
 </metadata>
 <defs>
  <style type="text/css">*{stroke-linejoin: round; stroke-linecap: butt}</style>
 </defs>
 <g id="figure_1">
  <g id="patch_1">
   <path d="M 0 288 
L 720 288 
L 720 0 
L 0 0 
z
" style="fill: #ffffff"/>
  </g>
  <g id="axes_1">
   <g id="patch_2">
    <path d="M 90 256.32 
L 648 256.32 
L 648 34.56 
L 90 34.56 
z
" style="fill: #ffffff"/>
   </g>
   <g id="matplotlib.axis_1">
    <g id="xtick_1">
     <g id="line2d_1">
      <defs>
       <path id="m946d1aa766" d="M 0 0 
L 0 3.5 
" style="stroke: #000000; stroke-width: 0.8"/>
      </defs>
      <g>
       <use xlink:href="#m946d1aa766" x="115.363636" y="256.32" style="stroke: #000000; stroke-width: 0.8"/>
      </g>
     </g>
     <g id="text_1">
      <!-- 0:00:00 -->
      <g transform="translate(96.088636 270.918437) scale(0.1 -0.1)">
       <defs>
        <path id="DejaVuSans-30" d="M 2034 4250 
Q 1547 4250 1301 3770 
Q 1056 3291 1056 2328 
Q 1056 1369 1301 889 
Q 1547 409 2034 409 
Q 2525 409 2770 889 
Q 3016 1369 3016 2328 
Q 3016 3291 2770 3770 
Q 2525 4250 2034 4250 
z
M 2034 4750 
Q 2819 4750 3233 4129 
Q 3647 3509 3647 2328 
Q 3647 1150 3233 529 
Q 2819 -91 2034 -91 
Q 1250 -91 836 529 
Q 422 1150 422 2328 
Q 422 3509 836 4129 
Q 1250 4750 2034 4750 
z
" transform="scale(0.015625)"/>
        <path id="DejaVuSans-3a" d="M 750 794 
L 1409 794 
L 1409 0 
L 750 0 
L 750 794 
z
M 750 3309 
L 1409 3309 
L 1409 2516 
L 750 2516 
L 750 3309 
z
" transform="scale(0.015625)"/>
       </defs>
       <use xlink:href="#DejaVuSans-30"/>
       <use xlink:href="#DejaVuSans-3a" x="63.623047"/>
       <use xlink:href="#DejaVuSans-30" x="97.314453"/>
       <use xlink:href="#DejaVuSans-30" x="160.9375"/>
       <use xlink:href="#DejaVuSans-3a" x="224.560547"/>
       <use xlink:href="#DejaVuSans-30" x="258.251953"/>
       <use xlink:href="#DejaVuSans-30" x="321.875"/>
      </g>
     </g>
    </g>
    <g id="xtick_2">
     <g id="line2d_2">
      <g>
       <use xlink:href="#m946d1aa766" x="166.090909" y="256.32" style="stroke: #000000; stroke-width: 0.8"/>
      </g>
     </g>
     <g id="text_2">
      <!-- 0:00:30 -->
      <g transform="translate(146.815909 270.918437) scale(0.1 -0.1)">
       <defs>
        <path id="DejaVuSans-33" d="M 2597 2516 
Q 3050 2419 3304 2112 
Q 3559 1806 3559 1356 
Q 3559 666 3084 287 
Q 2609 -91 1734 -91 
Q 1441 -91 1130 -33 
Q 819 25 488 141 
L 488 750 
Q 750 597 1062 519 
Q 1375 441 1716 441 
Q 2309 441 2620 675 
Q 2931 909 2931 1356 
Q 2931 1769 2642 2001 
Q 2353 2234 1838 2234 
L 1294 2234 
L 1294 2753 
L 1863 2753 
Q 2328 2753 2575 2939 
Q 2822 3125 2822 3475 
Q 2822 3834 2567 4026 
Q 2313 4219 1838 4219 
Q 1578 4219 1281 4162 
Q 984 4106 628 3988 
L 628 4550 
Q 988 4650 1302 4700 
Q 1616 4750 1894 4750 
Q 2613 4750 3031 4423 
Q 3450 4097 3450 3541 
Q 3450 3153 3228 2886 
Q 3006 2619 2597 2516 
z
" transform="scale(0.015625)"/>
       </defs>
       <use xlink:href="#DejaVuSans-30"/>
       <use xlink:href="#DejaVuSans-3a" x="63.623047"/>
       <use xlink:href="#DejaVuSans-30" x="97.314453"/>
       <use xlink:href="#DejaVuSans-30" x="160.9375"/>
       <use xlink:href="#DejaVuSans-3a" x="224.560547"/>
       <use xlink:href="#DejaVuSans-33" x="258.251953"/>
       <use xlink:href="#DejaVuSans-30" x="321.875"/>
      </g>
     </g>
    </g>
    <g id="xtick_3">
     <g id="line2d_3">
      <g>
       <use xlink:href="#m946d1aa766" x="216.818182" y="256.32" style="stroke: #000000; stroke-width: 0.8"/>
      </g>
     </g>
     <g id="text_3">
      <!-- 0:01:00 -->
      <g transform="translate(197.543182 270.918437) scale(0.1 -0.1)">
       <defs>
        <path id="DejaVuSans-31" d="M 794 531 
L 1825 531 
L 1825 4091 
L 703 3866 
L 703 4441 
L 1819 4666 
L 2450 4666 
L 2450 531 
L 3481 531 
L 3481 0 
L 794 0 
L 794 531 
z
" transform="scale(0.015625)"/>
       </defs>
       <use xlink:href="#DejaVuSans-30"/>
       <use xlink:href="#DejaVuSans-3a" x="63.623047"/>
       <use xlink:href="#DejaVuSans-30" x="97.314453"/>
       <use xlink:href="#DejaVuSans-31" x="160.9375"/>
       <use xlink:href="#DejaVuSans-3a" x="224.560547"/>
       <use xlink:href="#DejaVuSans-30" x="258.251953"/>
       <use xlink:href="#DejaVuSans-30" x="321.875"/>
      </g>
     </g>
    </g>
    <g id="xtick_4">
     <g id="line2d_4">
      <g>
       <use xlink:href="#m946d1aa766" x="267.545455" y="256.32" style="stroke: #000000; stroke-width: 0.8"/>
      </g>
     </g>
     <g id="text_4">
      <!-- 0:01:30 -->
      <g transform="translate(248.270455 270.918437) scale(0.1 -0.1)">
       <use xlink:href="#DejaVuSans-30"/>
       <use xlink:href="#DejaVuSans-3a" x="63.623047"/>
       <use xlink:href="#DejaVuSans-30" x="97.314453"/>
       <use xlink:href="#DejaVuSans-31" x="160.9375"/>
       <use xlink:href="#DejaVuSans-3a" x="224.560547"/>
       <use xlink:href="#DejaVuSans-33" x="258.251953"/>
       <use xlink:href="#DejaVuSans-30" x="321.875"/>
      </g>
     </g>
    </g>
    <g id="xtick_5">
     <g id="line2d_5">
      <g>
       <use xlink:href="#m946d1aa766" x="318.272727" y="256.32" style="stroke: #000000; stroke-width: 0.8"/>
      </g>
     </g>
     <g id="text_5">
      <!-- 0:02:00 -->
      <g transform="translate(298.997727 270.918437) scale(0.1 -0.1)">
       <defs>
        <path id="DejaVuSans-32" d="M 1228 531 
L 3431 531 
L 3431 0 
L 469 0 
L 469 531 
Q 828 903 1448 1529 
Q 2069 2156 2228 2338 
Q 2531 2678 2651 2914 
Q 2772 3150 2772 3378 
Q 2772 3750 2511 3984 
Q 2250 4219 1831 4219 
Q 1534 4219 1204 4116 
Q 875 4013 500 3803 
L 500 4441 
Q 881 4594 1212 4672 
Q 1544 4750 1819 4750 
Q 2544 4750 2975 4387 
Q 3406 4025 3406 3419 
Q 3406 3131 3298 2873 
Q 3191 2616 2906 2266 
Q 2828 2175 2409 1742 
Q 1991 1309 1228 531 
z
" transform="scale(0.015625)"/>
       </defs>
       <use xlink:href="#DejaVuSans-30"/>
       <use xlink:href="#DejaVuSans-3a" x="63.623047"/>
       <use xlink:href="#DejaVuSans-30" x="97.314453"/>
       <use xlink:href="#DejaVuSans-32" x="160.9375"/>
       <use xlink:href="#DejaVuSans-3a" x="224.560547"/>
       <use xlink:href="#DejaVuSans-30" x="258.251953"/>
       <use xlink:href="#DejaVuSans-30" x="321.875"/>
      </g>
     </g>
    </g>
    <g id="xtick_6">
     <g id="line2d_6">
      <g>
       <use xlink:href="#m946d1aa766" x="369" y="256.32" style="stroke: #000000; stroke-width: 0.8"/>
      </g>
     </g>
     <g id="text_6">
      <!-- 0:02:30 -->
      <g transform="translate(349.725 270.918437) scale(0.1 -0.1)">
       <use xlink:href="#DejaVuSans-30"/>
       <use xlink:href="#DejaVuSans-3a" x="63.623047"/>
       <use xlink:href="#DejaVuSans-30" x="97.314453"/>
       <use xlink:href="#DejaVuSans-32" x="160.9375"/>
       <use xlink:href="#DejaVuSans-3a" x="224.560547"/>
       <use xlink:href="#DejaVuSans-33" x="258.251953"/>
       <use xlink:href="#DejaVuSans-30" x="321.875"/>
      </g>
     </g>
    </g>
    <g id="xtick_7">
     <g id="line2d_7">
      <g>
       <use xlink:href="#m946d1aa766" x="419.727273" y="256.32" style="stroke: #000000; stroke-width: 0.8"/>
      </g>
     </g>
     <g id="text_7">
      <!-- 0:03:00 -->
      <g transform="translate(400.452273 270.918437) scale(0.1 -0.1)">
       <use xlink:href="#DejaVuSans-30"/>
       <use xlink:href="#DejaVuSans-3a" x="63.623047"/>
       <use xlink:href="#DejaVuSans-30" x="97.314453"/>
       <use xlink:href="#DejaVuSans-33" x="160.9375"/>
       <use xlink:href="#DejaVuSans-3a" x="224.560547"/>
       <use xlink:href="#DejaVuSans-30" x="258.251953"/>
       <use xlink:href="#DejaVuSans-30" x="321.875"/>
      </g>
     </g>
    </g>
    <g id="xtick_8">
     <g id="line2d_8">
      <g>
       <use xlink:href="#m946d1aa766" x="470.454545" y="256.32" style="stroke: #000000; stroke-width: 0.8"/>
      </g>
     </g>
     <g id="text_8">
      <!-- 0:03:30 -->
      <g transform="translate(451.179545 270.918437) scale(0.1 -0.1)">
       <use xlink:href="#DejaVuSans-30"/>
       <use xlink:href="#DejaVuSans-3a" x="63.623047"/>
       <use xlink:href="#DejaVuSans-30" x="97.314453"/>
       <use xlink:href="#DejaVuSans-33" x="160.9375"/>
       <use xlink:href="#DejaVuSans-3a" x="224.560547"/>
       <use xlink:href="#DejaVuSans-33" x="258.251953"/>
       <use xlink:href="#DejaVuSans-30" x="321.875"/>
      </g>
     </g>
    </g>
    <g id="xtick_9">
     <g id="line2d_9">
      <g>
       <use xlink:href="#m946d1aa766" x="521.181818" y="256.32" style="stroke: #000000; stroke-width: 0.8"/>
      </g>
     </g>
     <g id="text_9">
      <!-- 0:04:00 -->
      <g transform="translate(501.906818 270.918437) scale(0.1 -0.1)">
       <defs>
        <path id="DejaVuSans-34" d="M 2419 4116 
L 825 1625 
L 2419 1625 
L 2419 4116 
z
M 2253 4666 
L 3047 4666 
L 3047 1625 
L 3713 1625 
L 3713 1100 
L 3047 1100 
L 3047 0 
L 2419 0 
L 2419 1100 
L 313 1100 
L 313 1709 
L 2253 4666 
z
" transform="scale(0.015625)"/>
       </defs>
       <use xlink:href="#DejaVuSans-30"/>
       <use xlink:href="#DejaVuSans-3a" x="63.623047"/>
       <use xlink:href="#DejaVuSans-30" x="97.314453"/>
       <use xlink:href="#DejaVuSans-34" x="160.9375"/>
       <use xlink:href="#DejaVuSans-3a" x="224.560547"/>
       <use xlink:href="#DejaVuSans-30" x="258.251953"/>
       <use xlink:href="#DejaVuSans-30" x="321.875"/>
      </g>
     </g>
    </g>
    <g id="xtick_10">
     <g id="line2d_10">
      <g>
       <use xlink:href="#m946d1aa766" x="571.909091" y="256.32" style="stroke: #000000; stroke-width: 0.8"/>
      </g>
     </g>
     <g id="text_10">
      <!-- 0:04:30 -->
      <g transform="translate(552.634091 270.918437) scale(0.1 -0.1)">
       <use xlink:href="#DejaVuSans-30"/>
       <use xlink:href="#DejaVuSans-3a" x="63.623047"/>
       <use xlink:href="#DejaVuSans-30" x="97.314453"/>
       <use xlink:href="#DejaVuSans-34" x="160.9375"/>
       <use xlink:href="#DejaVuSans-3a" x="224.560547"/>
       <use xlink:href="#DejaVuSans-33" x="258.251953"/>
       <use xlink:href="#DejaVuSans-30" x="321.875"/>
      </g>
     </g>
    </g>
    <g id="xtick_11">
     <g id="line2d_11">
      <g>
       <use xlink:href="#m946d1aa766" x="622.636364" y="256.32" style="stroke: #000000; stroke-width: 0.8"/>
      </g>
     </g>
     <g id="text_11">
      <!-- 0:05:00 -->
      <g transform="translate(603.361364 270.918437) scale(0.1 -0.1)">
       <defs>
        <path id="DejaVuSans-35" d="M 691 4666 
L 3169 4666 
L 3169 4134 
L 1269 4134 
L 1269 2991 
Q 1406 3038 1543 3061 
Q 1681 3084 1819 3084 
Q 2600 3084 3056 2656 
Q 3513 2228 3513 1497 
Q 3513 744 3044 326 
Q 2575 -91 1722 -91 
Q 1428 -91 1123 -41 
Q 819 9 494 109 
L 494 744 
Q 775 591 1075 516 
Q 1375 441 1709 441 
Q 2250 441 2565 725 
Q 2881 1009 2881 1497 
Q 2881 1984 2565 2268 
Q 2250 2553 1709 2553 
Q 1456 2553 1204 2497 
Q 953 2441 691 2322 
L 691 4666 
z
" transform="scale(0.015625)"/>
       </defs>
       <use xlink:href="#DejaVuSans-30"/>
       <use xlink:href="#DejaVuSans-3a" x="63.623047"/>
       <use xlink:href="#DejaVuSans-30" x="97.314453"/>
       <use xlink:href="#DejaVuSans-35" x="160.9375"/>
       <use xlink:href="#DejaVuSans-3a" x="224.560547"/>
       <use xlink:href="#DejaVuSans-30" x="258.251953"/>
       <use xlink:href="#DejaVuSans-30" x="321.875"/>
      </g>
     </g>
    </g>
    <g id="text_12">
     <!-- Time -->
     <g transform="translate(356.766406 284.596563) scale(0.1 -0.1)">
      <defs>
       <path id="DejaVuSans-54" d="M -19 4666 
L 3928 4666 
L 3928 4134 
L 2272 4134 
L 2272 0 
L 1638 0 
L 1638 4134 
L -19 4134 
L -19 4666 
z
" transform="scale(0.015625)"/>
       <path id="DejaVuSans-69" d="M 603 3500 
L 1178 3500 
L 1178 0 
L 603 0 
L 603 3500 
z
M 603 4863 
L 1178 4863 
L 1178 4134 
L 603 4134 
L 603 4863 
z
" transform="scale(0.015625)"/>
       <path id="DejaVuSans-6d" d="M 3328 2828 
Q 3544 3216 3844 3400 
Q 4144 3584 4550 3584 
Q 5097 3584 5394 3201 
Q 5691 2819 5691 2113 
L 5691 0 
L 5113 0 
L 5113 2094 
Q 5113 2597 4934 2840 
Q 4756 3084 4391 3084 
Q 3944 3084 3684 2787 
Q 3425 2491 3425 1978 
L 3425 0 
L 2847 0 
L 2847 2094 
Q 2847 2600 2669 2842 
Q 2491 3084 2119 3084 
Q 1678 3084 1418 2786 
Q 1159 2488 1159 1978 
L 1159 0 
L 581 0 
L 581 3500 
L 1159 3500 
L 1159 2956 
Q 1356 3278 1631 3431 
Q 1906 3584 2284 3584 
Q 2666 3584 2933 3390 
Q 3200 3197 3328 2828 
z
" transform="scale(0.015625)"/>
       <path id="DejaVuSans-65" d="M 3597 1894 
L 3597 1613 
L 953 1613 
Q 991 1019 1311 708 
Q 1631 397 2203 397 
Q 2534 397 2845 478 
Q 3156 559 3463 722 
L 3463 178 
Q 3153 47 2828 -22 
Q 2503 -91 2169 -91 
Q 1331 -91 842 396 
Q 353 884 353 1716 
Q 353 2575 817 3079 
Q 1281 3584 2069 3584 
Q 2775 3584 3186 3129 
Q 3597 2675 3597 1894 
z
M 3022 2063 
Q 3016 2534 2758 2815 
Q 2500 3097 2075 3097 
Q 1594 3097 1305 2825 
Q 1016 2553 972 2059 
L 3022 2063 
z
" transform="scale(0.015625)"/>
      </defs>
      <use xlink:href="#DejaVuSans-54"/>
      <use xlink:href="#DejaVuSans-69" x="57.958984"/>
      <use xlink:href="#DejaVuSans-6d" x="85.742188"/>
      <use xlink:href="#DejaVuSans-65" x="183.154297"/>
     </g>
    </g>
   </g>
   <g id="matplotlib.axis_2">
    <g id="ytick_1">
     <g id="line2d_12">
      <path d="M 90 246.24 
L 648 246.24 
" clip-path="url(#p4e6d5c6566)" style="fill: none; stroke: #b0b0b0; stroke-width: 0.8; stroke-linecap: square"/>
     </g>
     <g id="line2d_13">
      <defs>
       <path id="mf15aaae615" d="M 0 0 
L -3.5 0 
" style="stroke: #000000; stroke-width: 0.8"/>
      </defs>
      <g>
       <use xlink:href="#mf15aaae615" x="90" y="246.24" style="stroke: #000000; stroke-width: 0.8"/>
      </g>
     </g>
     <g id="text_13">
      <!-- 0 -->
      <g transform="translate(76.6375 250.039219) scale(0.1 -0.1)">
       <use xlink:href="#DejaVuSans-30"/>
      </g>
     </g>
    </g>
    <g id="ytick_2">
     <g id="line2d_14">
      <path d="M 90 210.323378 
L 648 210.323378 
" clip-path="url(#p4e6d5c6566)" style="fill: none; stroke: #b0b0b0; stroke-width: 0.8; stroke-linecap: square"/>
     </g>
     <g id="line2d_15">
      <g>
       <use xlink:href="#mf15aaae615" x="90" y="210.323378" style="stroke: #000000; stroke-width: 0.8"/>
      </g>
     </g>
     <g id="text_14">
      <!-- 1,000 -->
      <g transform="translate(54.371875 214.122597) scale(0.1 -0.1)">
       <defs>
        <path id="DejaVuSans-2c" d="M 750 794 
L 1409 794 
L 1409 256 
L 897 -744 
L 494 -744 
L 750 256 
L 750 794 
z
" transform="scale(0.015625)"/>
       </defs>
       <use xlink:href="#DejaVuSans-31"/>
       <use xlink:href="#DejaVuSans-2c" x="63.623047"/>
       <use xlink:href="#DejaVuSans-30" x="95.410156"/>
       <use xlink:href="#DejaVuSans-30" x="159.033203"/>
       <use xlink:href="#DejaVuSans-30" x="222.65625"/>
      </g>
     </g>
    </g>
    <g id="ytick_3">
     <g id="line2d_16">
      <path d="M 90 174.406756 
L 648 174.406756 
" clip-path="url(#p4e6d5c6566)" style="fill: none; stroke: #b0b0b0; stroke-width: 0.8; stroke-linecap: square"/>
     </g>
     <g id="line2d_17">
      <g>
       <use xlink:href="#mf15aaae615" x="90" y="174.406756" style="stroke: #000000; stroke-width: 0.8"/>
      </g>
     </g>
     <g id="text_15">
      <!-- 2,000 -->
      <g transform="translate(54.371875 178.205974) scale(0.1 -0.1)">
       <use xlink:href="#DejaVuSans-32"/>
       <use xlink:href="#DejaVuSans-2c" x="63.623047"/>
       <use xlink:href="#DejaVuSans-30" x="95.410156"/>
       <use xlink:href="#DejaVuSans-30" x="159.033203"/>
       <use xlink:href="#DejaVuSans-30" x="222.65625"/>
      </g>
     </g>
    </g>
    <g id="ytick_4">
     <g id="line2d_18">
      <path d="M 90 138.490134 
L 648 138.490134 
" clip-path="url(#p4e6d5c6566)" style="fill: none; stroke: #b0b0b0; stroke-width: 0.8; stroke-linecap: square"/>
     </g>
     <g id="line2d_19">
      <g>
       <use xlink:href="#mf15aaae615" x="90" y="138.490134" style="stroke: #000000; stroke-width: 0.8"/>
      </g>
     </g>
     <g id="text_16">
      <!-- 3,000 -->
      <g transform="translate(54.371875 142.289352) scale(0.1 -0.1)">
       <use xlink:href="#DejaVuSans-33"/>
       <use xlink:href="#DejaVuSans-2c" x="63.623047"/>
       <use xlink:href="#DejaVuSans-30" x="95.410156"/>
       <use xlink:href="#DejaVuSans-30" x="159.033203"/>
       <use xlink:href="#DejaVuSans-30" x="222.65625"/>
      </g>
     </g>
    </g>
    <g id="ytick_5">
     <g id="line2d_20">
      <path d="M 90 102.573511 
L 648 102.573511 
" clip-path="url(#p4e6d5c6566)" style="fill: none; stroke: #b0b0b0; stroke-width: 0.8; stroke-linecap: square"/>
     </g>
     <g id="line2d_21">
      <g>
       <use xlink:href="#mf15aaae615" x="90" y="102.573511" style="stroke: #000000; stroke-width: 0.8"/>
      </g>
     </g>
     <g id="text_17">
      <!-- 4,000 -->
      <g transform="translate(54.371875 106.37273) scale(0.1 -0.1)">
       <use xlink:href="#DejaVuSans-34"/>
       <use xlink:href="#DejaVuSans-2c" x="63.623047"/>
       <use xlink:href="#DejaVuSans-30" x="95.410156"/>
       <use xlink:href="#DejaVuSans-30" x="159.033203"/>
       <use xlink:href="#DejaVuSans-30" x="222.65625"/>
      </g>
     </g>
    </g>
    <g id="ytick_6">
     <g id="line2d_22">
      <path d="M 90 66.656889 
L 648 66.656889 
" clip-path="url(#p4e6d5c6566)" style="fill: none; stroke: #b0b0b0; stroke-width: 0.8; stroke-linecap: square"/>
     </g>
     <g id="line2d_23">
      <g>
       <use xlink:href="#mf15aaae615" x="90" y="66.656889" style="stroke: #000000; stroke-width: 0.8"/>
      </g>
     </g>
     <g id="text_18">
      <!-- 5,000 -->
      <g transform="translate(54.371875 70.456108) scale(0.1 -0.1)">
       <use xlink:href="#DejaVuSans-35"/>
       <use xlink:href="#DejaVuSans-2c" x="63.623047"/>
       <use xlink:href="#DejaVuSans-30" x="95.410156"/>
       <use xlink:href="#DejaVuSans-30" x="159.033203"/>
       <use xlink:href="#DejaVuSans-30" x="222.65625"/>
      </g>
     </g>
    </g>
    <g id="text_19">
     <!-- Bitrate (kbit/s) -->
     <g transform="translate(48.292187 181.574375) rotate(-90) scale(0.1 -0.1)">
      <defs>
       <path id="DejaVuSans-42" d="M 1259 2228 
L 1259 519 
L 2272 519 
Q 2781 519 3026 730 
Q 3272 941 3272 1375 
Q 3272 1813 3026 2020 
Q 2781 2228 2272 2228 
L 1259 2228 
z
M 1259 4147 
L 1259 2741 
L 2194 2741 
Q 2656 2741 2882 2914 
Q 3109 3088 3109 3444 
Q 3109 3797 2882 3972 
Q 2656 4147 2194 4147 
L 1259 4147 
z
M 628 4666 
L 2241 4666 
Q 2963 4666 3353 4366 
Q 3744 4066 3744 3513 
Q 3744 3084 3544 2831 
Q 3344 2578 2956 2516 
Q 3422 2416 3680 2098 
Q 3938 1781 3938 1306 
Q 3938 681 3513 340 
Q 3088 0 2303 0 
L 628 0 
L 628 4666 
z
" transform="scale(0.015625)"/>
       <path id="DejaVuSans-74" d="M 1172 4494 
L 1172 3500 
L 2356 3500 
L 2356 3053 
L 1172 3053 
L 1172 1153 
Q 1172 725 1289 603 
Q 1406 481 1766 481 
L 2356 481 
L 2356 0 
L 1766 0 
Q 1100 0 847 248 
Q 594 497 594 1153 
L 594 3053 
L 172 3053 
L 172 3500 
L 594 3500 
L 594 4494 
L 1172 4494 
z
" transform="scale(0.015625)"/>
       <path id="DejaVuSans-72" d="M 2631 2963 
Q 2534 3019 2420 3045 
Q 2306 3072 2169 3072 
Q 1681 3072 1420 2755 
Q 1159 2438 1159 1844 
L 1159 0 
L 581 0 
L 581 3500 
L 1159 3500 
L 1159 2956 
Q 1341 3275 1631 3429 
Q 1922 3584 2338 3584 
Q 2397 3584 2469 3576 
Q 2541 3569 2628 3553 
L 2631 2963 
z
" transform="scale(0.015625)"/>
       <path id="DejaVuSans-61" d="M 2194 1759 
Q 1497 1759 1228 1600 
Q 959 1441 959 1056 
Q 959 750 1161 570 
Q 1363 391 1709 391 
Q 2188 391 2477 730 
Q 2766 1069 2766 1631 
L 2766 1759 
L 2194 1759 
z
M 3341 1997 
L 3341 0 
L 2766 0 
L 2766 531 
Q 2569 213 2275 61 
Q 1981 -91 1556 -91 
Q 1019 -91 701 211 
Q 384 513 384 1019 
Q 384 1609 779 1909 
Q 1175 2209 1959 2209 
L 2766 2209 
L 2766 2266 
Q 2766 2663 2505 2880 
Q 2244 3097 1772 3097 
Q 1472 3097 1187 3025 
Q 903 2953 641 2809 
L 641 3341 
Q 956 3463 1253 3523 
Q 1550 3584 1831 3584 
Q 2591 3584 2966 3190 
Q 3341 2797 3341 1997 
z
" transform="scale(0.015625)"/>
       <path id="DejaVuSans-20" transform="scale(0.015625)"/>
       <path id="DejaVuSans-28" d="M 1984 4856 
Q 1566 4138 1362 3434 
Q 1159 2731 1159 2009 
Q 1159 1288 1364 580 
Q 1569 -128 1984 -844 
L 1484 -844 
Q 1016 -109 783 600 
Q 550 1309 550 2009 
Q 550 2706 781 3412 
Q 1013 4119 1484 4856 
L 1984 4856 
z
" transform="scale(0.015625)"/>
       <path id="DejaVuSans-6b" d="M 581 4863 
L 1159 4863 
L 1159 1991 
L 2875 3500 
L 3609 3500 
L 1753 1863 
L 3688 0 
L 2938 0 
L 1159 1709 
L 1159 0 
L 581 0 
L 581 4863 
z
" transform="scale(0.015625)"/>
       <path id="DejaVuSans-62" d="M 3116 1747 
Q 3116 2381 2855 2742 
Q 2594 3103 2138 3103 
Q 1681 3103 1420 2742 
Q 1159 2381 1159 1747 
Q 1159 1113 1420 752 
Q 1681 391 2138 391 
Q 2594 391 2855 752 
Q 3116 1113 3116 1747 
z
M 1159 2969 
Q 1341 3281 1617 3432 
Q 1894 3584 2278 3584 
Q 2916 3584 3314 3078 
Q 3713 2572 3713 1747 
Q 3713 922 3314 415 
Q 2916 -91 2278 -91 
Q 1894 -91 1617 61 
Q 1341 213 1159 525 
L 1159 0 
L 581 0 
L 581 4863 
L 1159 4863 
L 1159 2969 
z
" transform="scale(0.015625)"/>
       <path id="DejaVuSans-2f" d="M 1625 4666 
L 2156 4666 
L 531 -594 
L 0 -594 
L 1625 4666 
z
" transform="scale(0.015625)"/>
       <path id="DejaVuSans-73" d="M 2834 3397 
L 2834 2853 
Q 2591 2978 2328 3040 
Q 2066 3103 1784 3103 
Q 1356 3103 1142 2972 
Q 928 2841 928 2578 
Q 928 2378 1081 2264 
Q 1234 2150 1697 2047 
L 1894 2003 
Q 2506 1872 2764 1633 
Q 3022 1394 3022 966 
Q 3022 478 2636 193 
Q 2250 -91 1575 -91 
Q 1294 -91 989 -36 
Q 684 19 347 128 
L 347 722 
Q 666 556 975 473 
Q 1284 391 1588 391 
Q 1994 391 2212 530 
Q 2431 669 2431 922 
Q 2431 1156 2273 1281 
Q 2116 1406 1581 1522 
L 1381 1569 
Q 847 1681 609 1914 
Q 372 2147 372 2553 
Q 372 3047 722 3315 
Q 1072 3584 1716 3584 
Q 2034 3584 2315 3537 
Q 2597 3491 2834 3397 
z
" transform="scale(0.015625)"/>
       <path id="DejaVuSans-29" d="M 513 4856 
L 1013 4856 
Q 1481 4119 1714 3412 
Q 1947 2706 1947 2009 
Q 1947 1309 1714 600 
Q 1481 -109 1013 -844 
L 513 -844 
Q 928 -128 1133 580 
Q 1338 1288 1338 2009 
Q 1338 2731 1133 3434 
Q 928 4138 513 4856 
z
" transform="scale(0.015625)"/>
      </defs>
      <use xlink:href="#DejaVuSans-42"/>
      <use xlink:href="#DejaVuSans-69" x="68.603516"/>
      <use xlink:href="#DejaVuSans-74" x="96.386719"/>
      <use xlink:href="#DejaVuSans-72" x="135.595703"/>
      <use xlink:href="#DejaVuSans-61" x="176.708984"/>
      <use xlink:href="#DejaVuSans-74" x="237.988281"/>
      <use xlink:href="#DejaVuSans-65" x="277.197266"/>
      <use xlink:href="#DejaVuSans-20" x="338.720703"/>
      <use xlink:href="#DejaVuSans-28" x="370.507812"/>
      <use xlink:href="#DejaVuSans-6b" x="409.521484"/>
      <use xlink:href="#DejaVuSans-62" x="467.431641"/>
      <use xlink:href="#DejaVuSans-69" x="530.908203"/>
      <use xlink:href="#DejaVuSans-74" x="558.691406"/>
      <use xlink:href="#DejaVuSans-2f" x="597.900391"/>
      <use xlink:href="#DejaVuSans-73" x="631.591797"/>
      <use xlink:href="#DejaVuSans-29" x="683.691406"/>
     </g>
    </g>
   </g>
   <g id="PolyCollection_1">
    <defs>
     <path id="mce6a47c9a9" d="M 115.363636 -43.843164 
L 115.363636 -41.76 
L 117.054545 -41.76 
L 118.745455 -41.76 
L 120.436364 -41.76 
L 122.127273 -41.76 
L 123.818182 -41.76 
L 125.509091 -41.76 
L 127.2 -41.76 
L 128.890909 -41.76 
L 130.581818 -41.76 
L 132.272727 -41.76 
L 133.963636 -41.76 
L 135.654545 -41.76 
L 137.345455 -41.76 
L 139.036364 -41.76 
L 140.727273 -41.76 
L 142.418182 -41.76 
L 144.109091 -41.76 
L 145.8 -41.76 
L 147.490909 -41.76 
L 149.181818 -41.76 
L 150.872727 -41.76 
L 152.563636 -41.76 
L 154.254545 -41.76 
L 155.945455 -41.76 
L 157.636364 -41.76 
L 159.327273 -41.76 
L 161.018182 -41.76 
L 162.709091 -41.76 
L 164.4 -41.76 
L 166.090909 -41.76 
L 167.781818 -41.76 
L 169.472727 -41.76 
L 171.163636 -41.76 
L 172.854545 -41.76 
L 174.545455 -41.76 
L 176.236364 -41.76 
L 177.927273 -41.76 
L 179.618182 -41.76 
L 181.309091 -41.76 
L 183 -41.76 
L 184.690909 -41.76 
L 186.381818 -41.76 
L 188.072727 -41.76 
L 189.763636 -41.76 
L 191.454545 -41.76 
L 193.145455 -41.76 
L 194.836364 -41.76 
L 196.527273 -41.76 
L 198.218182 -41.76 
L 199.909091 -41.76 
L 201.6 -41.76 
L 203.290909 -41.76 
L 204.981818 -41.76 
L 206.672727 -41.76 
L 208.363636 -41.76 
L 210.054545 -41.76 
L 211.745455 -41.76 
L 213.436364 -41.76 
L 215.127273 -41.76 
L 216.818182 -41.76 
L 218.509091 -41.76 
L 220.2 -41.76 
L 221.890909 -41.76 
L 223.581818 -41.76 
L 225.272727 -41.76 
L 226.963636 -41.76 
L 228.654545 -41.76 
L 230.345455 -41.76 
L 232.036364 -41.76 
L 233.727273 -41.76 
L 235.418182 -41.76 
L 237.109091 -41.76 
L 238.8 -41.76 
L 240.490909 -41.76 
L 242.181818 -41.76 
L 243.872727 -41.76 
L 245.563636 -41.76 
L 247.254545 -41.76 
L 248.945455 -41.76 
L 250.636364 -41.76 
L 252.327273 -41.76 
L 254.018182 -41.76 
L 255.709091 -41.76 
L 257.4 -41.76 
L 259.090909 -41.76 
L 260.781818 -41.76 
L 262.472727 -41.76 
L 264.163636 -41.76 
L 265.854545 -41.76 
L 267.545455 -41.76 
L 269.236364 -41.76 
L 270.927273 -41.76 
L 272.618182 -41.76 
L 274.309091 -41.76 
L 276 -41.76 
L 277.690909 -41.76 
L 279.381818 -41.76 
L 281.072727 -41.76 
L 282.763636 -41.76 
L 284.454545 -41.76 
L 286.145455 -41.76 
L 287.836364 -41.76 
L 289.527273 -41.76 
L 291.218182 -41.76 
L 292.909091 -41.76 
L 294.6 -41.76 
L 296.290909 -41.76 
L 297.981818 -41.76 
L 299.672727 -41.76 
L 301.363636 -41.76 
L 303.054545 -41.76 
L 304.745455 -41.76 
L 306.436364 -41.76 
L 308.127273 -41.76 
L 309.818182 -41.76 
L 311.509091 -41.76 
L 313.2 -41.76 
L 314.890909 -41.76 
L 316.581818 -41.76 
L 318.272727 -41.76 
L 319.963636 -41.76 
L 321.654545 -41.76 
L 323.345455 -41.76 
L 325.036364 -41.76 
L 326.727273 -41.76 
L 328.418182 -41.76 
L 330.109091 -41.76 
L 331.8 -41.76 
L 333.490909 -41.76 
L 335.181818 -41.76 
L 336.872727 -41.76 
L 338.563636 -41.76 
L 340.254545 -41.76 
L 341.945455 -41.76 
L 343.636364 -41.76 
L 345.327273 -41.76 
L 347.018182 -41.76 
L 348.709091 -41.76 
L 350.4 -41.76 
L 352.090909 -41.76 
L 353.781818 -41.76 
L 355.472727 -41.76 
L 357.163636 -41.76 
L 358.854545 -41.76 
L 360.545455 -41.76 
L 362.236364 -41.76 
L 363.927273 -41.76 
L 365.618182 -41.76 
L 367.309091 -41.76 
L 369 -41.76 
L 370.690909 -41.76 
L 372.381818 -41.76 
L 374.072727 -41.76 
L 375.763636 -41.76 
L 377.454545 -41.76 
L 379.145455 -41.76 
L 380.836364 -41.76 
L 382.527273 -41.76 
L 384.218182 -41.76 
L 385.909091 -41.76 
L 387.6 -41.76 
L 389.290909 -41.76 
L 390.981818 -41.76 
L 392.672727 -41.76 
L 394.363636 -41.76 
L 396.054545 -41.76 
L 397.745455 -41.76 
L 399.436364 -41.76 
L 401.127273 -41.76 
L 402.818182 -41.76 
L 404.509091 -41.76 
L 406.2 -41.76 
L 407.890909 -41.76 
L 409.581818 -41.76 
L 411.272727 -41.76 
L 412.963636 -41.76 
L 414.654545 -41.76 
L 416.345455 -41.76 
L 418.036364 -41.76 
L 419.727273 -41.76 
L 421.418182 -41.76 
L 423.109091 -41.76 
L 424.8 -41.76 
L 426.490909 -41.76 
L 428.181818 -41.76 
L 429.872727 -41.76 
L 431.563636 -41.76 
L 433.254545 -41.76 
L 434.945455 -41.76 
L 436.636364 -41.76 
L 438.327273 -41.76 
L 440.018182 -41.76 
L 441.709091 -41.76 
L 443.4 -41.76 
L 445.090909 -41.76 
L 446.781818 -41.76 
L 448.472727 -41.76 
L 450.163636 -41.76 
L 451.854545 -41.76 
L 453.545455 -41.76 
L 455.236364 -41.76 
L 456.927273 -41.76 
L 458.618182 -41.76 
L 460.309091 -41.76 
L 462 -41.76 
L 463.690909 -41.76 
L 465.381818 -41.76 
L 467.072727 -41.76 
L 468.763636 -41.76 
L 470.454545 -41.76 
L 472.145455 -41.76 
L 473.836364 -41.76 
L 475.527273 -41.76 
L 477.218182 -41.76 
L 478.909091 -41.76 
L 480.6 -41.76 
L 482.290909 -41.76 
L 483.981818 -41.76 
L 485.672727 -41.76 
L 487.363636 -41.76 
L 489.054545 -41.76 
L 490.745455 -41.76 
L 492.436364 -41.76 
L 494.127273 -41.76 
L 495.818182 -41.76 
L 497.509091 -41.76 
L 499.2 -41.76 
L 500.890909 -41.76 
L 502.581818 -41.76 
L 504.272727 -41.76 
L 505.963636 -41.76 
L 507.654545 -41.76 
L 509.345455 -41.76 
L 511.036364 -41.76 
L 512.727273 -41.76 
L 514.418182 -41.76 
L 516.109091 -41.76 
L 517.8 -41.76 
L 519.490909 -41.76 
L 521.181818 -41.76 
L 522.872727 -41.76 
L 524.563636 -41.76 
L 526.254545 -41.76 
L 527.945455 -41.76 
L 529.636364 -41.76 
L 531.327273 -41.76 
L 533.018182 -41.76 
L 534.709091 -41.76 
L 536.4 -41.76 
L 538.090909 -41.76 
L 539.781818 -41.76 
L 541.472727 -41.76 
L 543.163636 -41.76 
L 544.854545 -41.76 
L 546.545455 -41.76 
L 548.236364 -41.76 
L 549.927273 -41.76 
L 551.618182 -41.76 
L 553.309091 -41.76 
L 555 -41.76 
L 556.690909 -41.76 
L 558.381818 -41.76 
L 560.072727 -41.76 
L 561.763636 -41.76 
L 563.454545 -41.76 
L 565.145455 -41.76 
L 566.836364 -41.76 
L 568.527273 -41.76 
L 570.218182 -41.76 
L 571.909091 -41.76 
L 573.6 -41.76 
L 575.290909 -41.76 
L 576.981818 -41.76 
L 578.672727 -41.76 
L 580.363636 -41.76 
L 582.054545 -41.76 
L 583.745455 -41.76 
L 585.436364 -41.76 
L 587.127273 -41.76 
L 588.818182 -41.76 
L 590.509091 -41.76 
L 592.2 -41.76 
L 593.890909 -41.76 
L 595.581818 -41.76 
L 597.272727 -41.76 
L 598.963636 -41.76 
L 600.654545 -41.76 
L 602.345455 -41.76 
L 604.036364 -41.76 
L 605.727273 -41.76 
L 607.418182 -41.76 
L 609.109091 -41.76 
L 610.8 -41.76 
L 612.490909 -41.76 
L 614.181818 -41.76 
L 615.872727 -41.76 
L 617.563636 -41.76 
L 619.254545 -41.76 
L 620.945455 -41.76 
L 622.636364 -41.76 
L 622.636364 -41.76 
L 622.636364 -41.76 
L 620.945455 -64.854388 
L 619.254545 -41.76 
L 617.563636 -41.76 
L 615.872727 -63.956472 
L 614.181818 -41.76 
L 612.490909 -41.76 
L 610.8 -103.500673 
L 609.109091 -41.76 
L 607.418182 -41.76 
L 605.727273 -41.76 
L 604.036364 -106.050754 
L 602.345455 -41.76 
L 600.654545 -41.76 
L 598.963636 -41.76 
L 597.272727 -74.839209 
L 595.581818 -87.625526 
L 593.890909 -41.76 
L 592.2 -90.391106 
L 590.509091 -41.76 
L 588.818182 -59.718311 
L 587.127273 -41.76 
L 585.436364 -98.364596 
L 583.745455 -41.76 
L 582.054545 -41.76 
L 580.363636 -41.76 
L 578.672727 -96.963848 
L 576.981818 -41.76 
L 575.290909 -41.76 
L 573.6 -41.76 
L 571.909091 -69.559466 
L 570.218182 -41.76 
L 568.527273 -72.935628 
L 566.836364 -75.737125 
L 565.145455 -41.76 
L 563.454545 -59.143645 
L 561.763636 -41.76 
L 560.072727 -130.581807 
L 558.381818 -41.76 
L 556.690909 -84.895863 
L 555 -41.76 
L 553.309091 -58.999979 
L 551.618182 -92.47427 
L 549.927273 -41.76 
L 548.236364 -55.767483 
L 546.545455 -57.311897 
L 544.854545 -41.76 
L 543.163636 -41.76 
L 541.472727 -67.296718 
L 539.781818 -41.76 
L 538.090909 -41.76 
L 536.4 -41.76 
L 534.709091 -41.76 
L 533.018182 -97.430764 
L 531.327273 -120.165986 
L 529.636364 -63.309973 
L 527.945455 -41.76 
L 526.254545 -41.76 
L 524.563636 -41.76 
L 522.872727 -64.423389 
L 521.181818 -41.76 
L 519.490909 -41.76 
L 517.8 -41.76 
L 516.109091 -41.76 
L 514.418182 -64.387472 
L 512.727273 -41.76 
L 511.036364 -106.697253 
L 509.345455 -41.76 
L 507.654545 -41.76 
L 505.963636 -41.76 
L 504.272727 -63.202223 
L 502.581818 -41.76 
L 500.890909 -124.152731 
L 499.2 -41.76 
L 497.509091 -41.76 
L 495.818182 -77.604789 
L 494.127273 -55.444233 
L 492.436364 -41.76 
L 490.745455 -64.818471 
L 489.054545 -41.76 
L 487.363636 -41.76 
L 485.672727 -41.76 
L 483.981818 -59.969727 
L 482.290909 -41.76 
L 480.6 -66.901635 
L 478.909091 -41.76 
L 477.218182 -41.76 
L 475.527273 -66.039637 
L 473.836364 -41.76 
L 472.145455 -61.083143 
L 470.454545 -68.481967 
L 468.763636 -41.76 
L 467.072727 -88.056526 
L 465.381818 -41.76 
L 463.690909 -41.76 
L 462 -41.76 
L 460.309091 -66.650219 
L 458.618182 -41.76 
L 456.927273 -41.76 
L 455.236364 -57.168231 
L 453.545455 -65.644554 
L 451.854545 -57.527397 
L 450.163636 -41.76 
L 448.472727 -41.76 
L 446.781818 -57.850647 
L 445.090909 -41.76 
L 443.4 -41.76 
L 441.709091 -78.215371 
L 440.018182 -41.76 
L 438.327273 -41.76 
L 436.636364 -50.559572 
L 434.945455 -72.432795 
L 433.254545 -41.76 
L 431.563636 -41.76 
L 429.872727 -41.76 
L 428.181818 -41.76 
L 426.490909 -78.107622 
L 424.8 -41.76 
L 423.109091 -72.360962 
L 421.418182 -41.76 
L 419.727273 -79.939369 
L 418.036364 -41.76 
L 416.345455 -56.413982 
L 414.654545 -41.76 
L 412.963636 -41.76 
L 411.272727 -41.76 
L 409.581818 -41.76 
L 407.890909 -57.81473 
L 406.2 -81.878867 
L 404.509091 -41.76 
L 402.818182 -60.149311 
L 401.127273 -41.76 
L 399.436364 -41.76 
L 397.745455 -82.848616 
L 396.054545 -60.005644 
L 394.363636 -83.243699 
L 392.672727 -85.03953 
L 390.981818 -41.76 
L 389.290909 -41.76 
L 387.6 -41.76 
L 385.909091 -87.58961 
L 384.218182 -41.76 
L 382.527273 -41.76 
L 380.836364 -76.778707 
L 379.145455 -41.76 
L 377.454545 -41.76 
L 375.763636 -41.76 
L 374.072727 -80.226702 
L 372.381818 -41.76 
L 370.690909 -41.76 
L 369 -138.914463 
L 367.309091 -41.76 
L 365.618182 -41.76 
L 363.927273 -68.66155 
L 362.236364 -41.76 
L 360.545455 -41.76 
L 358.854545 -41.76 
L 357.163636 -77.425206 
L 355.472727 -41.76 
L 353.781818 -41.76 
L 352.090909 -41.76 
L 350.4 -76.63504 
L 348.709091 -41.76 
L 347.018182 -41.76 
L 345.327273 -41.76 
L 343.636364 -74.30046 
L 341.945455 -41.76 
L 340.254545 -41.76 
L 338.563636 -41.76 
L 336.872727 -77.317456 
L 335.181818 -41.76 
L 333.490909 -41.76 
L 331.8 -41.76 
L 330.109091 -72.756045 
L 328.418182 -41.76 
L 326.727273 -72.289129 
L 325.036364 -41.76 
L 323.345455 -41.76 
L 321.654545 -86.368445 
L 319.963636 -87.80511 
L 318.272727 -41.76 
L 316.581818 -41.76 
L 314.890909 -41.76 
L 313.2 -96.317349 
L 311.509091 -53.468819 
L 309.818182 -41.76 
L 308.127273 -41.76 
L 306.436364 -41.76 
L 304.745455 -56.701315 
L 303.054545 -41.76 
L 301.363636 -41.76 
L 299.672727 -41.76 
L 297.981818 -57.59923 
L 296.290909 -41.76 
L 294.6 -41.76 
L 292.909091 -41.76 
L 291.218182 -107.271919 
L 289.527273 -41.76 
L 287.836364 -41.76 
L 286.145455 -41.76 
L 284.454545 -41.76 
L 282.763636 -68.3383 
L 281.072727 -41.76 
L 279.381818 -41.76 
L 277.690909 -41.76 
L 276 -71.929963 
L 274.309091 -82.05845 
L 272.618182 -41.76 
L 270.927273 -70.241881 
L 269.236364 -41.76 
L 267.545455 -41.76 
L 265.854545 -41.76 
L 264.163636 -68.230551 
L 262.472727 -41.76 
L 260.781818 -41.76 
L 259.090909 -41.76 
L 257.4 -90.750273 
L 255.709091 -41.76 
L 254.018182 -41.76 
L 252.327273 -41.76 
L 250.636364 -41.76 
L 248.945455 -88.056526 
L 247.254545 -41.76 
L 245.563636 -60.25706 
L 243.872727 -41.76 
L 242.181818 -100.411844 
L 240.490909 -41.76 
L 238.8 -73.905377 
L 237.109091 -56.701315 
L 235.418182 -41.76 
L 233.727273 -41.76 
L 232.036364 -41.76 
L 230.345455 -87.194527 
L 228.654545 -41.76 
L 226.963636 -41.76 
L 225.272727 -62.340224 
L 223.581818 -60.68806 
L 221.890909 -41.76 
L 220.2 -41.76 
L 218.509091 -41.76 
L 216.818182 -90.714356 
L 215.127273 -41.76 
L 213.436364 -41.76 
L 211.745455 -41.76 
L 210.054545 -91.432688 
L 208.363636 -41.76 
L 206.672727 -41.76 
L 204.981818 -41.76 
L 203.290909 -104.937338 
L 201.6 -41.76 
L 199.909091 -41.76 
L 198.218182 -41.76 
L 196.527273 -77.640706 
L 194.836364 -41.76 
L 193.145455 -41.76 
L 191.454545 -41.76 
L 189.763636 -41.76 
L 188.072727 -80.190786 
L 186.381818 -41.76 
L 184.690909 -41.76 
L 183 -41.76 
L 181.309091 -96.245516 
L 179.618182 -41.76 
L 177.927273 -41.76 
L 176.236364 -41.76 
L 174.545455 -104.650005 
L 172.854545 -41.76 
L 171.163636 -41.76 
L 169.472727 -41.76 
L 167.781818 -101.237926 
L 166.090909 -41.76 
L 164.4 -41.76 
L 162.709091 -41.76 
L 161.018182 -121.171652 
L 159.327273 -41.76 
L 157.636364 -41.76 
L 155.945455 -60.68806 
L 154.254545 -41.76 
L 152.563636 -41.76 
L 150.872727 -41.76 
L 149.181818 -64.926221 
L 147.490909 -41.76 
L 145.8 -41.76 
L 144.109091 -41.76 
L 142.418182 -119.016654 
L 140.727273 -41.76 
L 139.036364 -41.76 
L 137.345455 -41.76 
L 135.654545 -96.317349 
L 133.963636 -41.76 
L 132.272727 -41.76 
L 130.581818 -41.76 
L 128.890909 -67.476301 
L 127.2 -41.76 
L 125.509091 -41.76 
L 123.818182 -41.76 
L 122.127273 -44.274164 
L 120.436364 -41.76 
L 118.745455 -41.76 
L 117.054545 -41.76 
L 115.363636 -43.843164 
z
" style="stroke: #ff0000; stroke-width: 0.5"/>
    </defs>
    <g clip-path="url(#p4e6d5c6566)">
     <use xlink:href="#mce6a47c9a9" x="0" y="288" style="fill: #ff0000; stroke: #ff0000; stroke-width: 0.5"/>
    </g>
   </g>
   <g id="PolyCollection_2">
    <defs>
     <path id="m8338e2390f" d="M 115.363636 -46.716494 
L 115.363636 -43.843164 
L 117.054545 -41.76 
L 118.745455 -41.76 
L 120.436364 -41.76 
L 122.127273 -44.274164 
L 123.818182 -41.76 
L 125.509091 -41.76 
L 127.2 -41.76 
L 128.890909 -67.476301 
L 130.581818 -41.76 
L 132.272727 -41.76 
L 133.963636 -41.76 
L 135.654545 -96.317349 
L 137.345455 -41.76 
L 139.036364 -41.76 
L 140.727273 -41.76 
L 142.418182 -119.016654 
L 144.109091 -41.76 
L 145.8 -41.76 
L 147.490909 -41.76 
L 149.181818 -64.926221 
L 150.872727 -41.76 
L 152.563636 -41.76 
L 154.254545 -41.76 
L 155.945455 -60.68806 
L 157.636364 -41.76 
L 159.327273 -41.76 
L 161.018182 -121.171652 
L 162.709091 -41.76 
L 164.4 -41.76 
L 166.090909 -41.76 
L 167.781818 -101.237926 
L 169.472727 -41.76 
L 171.163636 -41.76 
L 172.854545 -41.76 
L 174.545455 -104.650005 
L 176.236364 -41.76 
L 177.927273 -41.76 
L 179.618182 -41.76 
L 181.309091 -96.245516 
L 183 -41.76 
L 184.690909 -41.76 
L 186.381818 -41.76 
L 188.072727 -80.190786 
L 189.763636 -41.76 
L 191.454545 -41.76 
L 193.145455 -41.76 
L 194.836364 -41.76 
L 196.527273 -77.640706 
L 198.218182 -41.76 
L 199.909091 -41.76 
L 201.6 -41.76 
L 203.290909 -104.937338 
L 204.981818 -41.76 
L 206.672727 -41.76 
L 208.363636 -41.76 
L 210.054545 -91.432688 
L 211.745455 -41.76 
L 213.436364 -41.76 
L 215.127273 -41.76 
L 216.818182 -90.714356 
L 218.509091 -41.76 
L 220.2 -41.76 
L 221.890909 -41.76 
L 223.581818 -60.68806 
L 225.272727 -62.340224 
L 226.963636 -41.76 
L 228.654545 -41.76 
L 230.345455 -87.194527 
L 232.036364 -41.76 
L 233.727273 -41.76 
L 235.418182 -41.76 
L 237.109091 -56.701315 
L 238.8 -73.905377 
L 240.490909 -41.76 
L 242.181818 -100.411844 
L 243.872727 -41.76 
L 245.563636 -60.25706 
L 247.254545 -41.76 
L 248.945455 -88.056526 
L 250.636364 -41.76 
L 252.327273 -41.76 
L 254.018182 -41.76 
L 255.709091 -41.76 
L 257.4 -90.750273 
L 259.090909 -41.76 
L 260.781818 -41.76 
L 262.472727 -41.76 
L 264.163636 -68.230551 
L 265.854545 -41.76 
L 267.545455 -41.76 
L 269.236364 -41.76 
L 270.927273 -70.241881 
L 272.618182 -41.76 
L 274.309091 -82.05845 
L 276 -71.929963 
L 277.690909 -41.76 
L 279.381818 -41.76 
L 281.072727 -41.76 
L 282.763636 -68.3383 
L 284.454545 -41.76 
L 286.145455 -41.76 
L 287.836364 -41.76 
L 289.527273 -41.76 
L 291.218182 -107.271919 
L 292.909091 -41.76 
L 294.6 -41.76 
L 296.290909 -41.76 
L 297.981818 -57.59923 
L 299.672727 -41.76 
L 301.363636 -41.76 
L 303.054545 -41.76 
L 304.745455 -56.701315 
L 306.436364 -41.76 
L 308.127273 -41.76 
L 309.818182 -41.76 
L 311.509091 -53.468819 
L 313.2 -96.317349 
L 314.890909 -41.76 
L 316.581818 -41.76 
L 318.272727 -41.76 
L 319.963636 -87.80511 
L 321.654545 -86.368445 
L 323.345455 -41.76 
L 325.036364 -41.76 
L 326.727273 -72.289129 
L 328.418182 -41.76 
L 330.109091 -72.756045 
L 331.8 -41.76 
L 333.490909 -41.76 
L 335.181818 -41.76 
L 336.872727 -77.317456 
L 338.563636 -41.76 
L 340.254545 -41.76 
L 341.945455 -41.76 
L 343.636364 -74.30046 
L 345.327273 -41.76 
L 347.018182 -41.76 
L 348.709091 -41.76 
L 350.4 -76.63504 
L 352.090909 -41.76 
L 353.781818 -41.76 
L 355.472727 -41.76 
L 357.163636 -77.425206 
L 358.854545 -41.76 
L 360.545455 -41.76 
L 362.236364 -41.76 
L 363.927273 -68.66155 
L 365.618182 -41.76 
L 367.309091 -41.76 
L 369 -138.914463 
L 370.690909 -41.76 
L 372.381818 -41.76 
L 374.072727 -80.226702 
L 375.763636 -41.76 
L 377.454545 -41.76 
L 379.145455 -41.76 
L 380.836364 -76.778707 
L 382.527273 -41.76 
L 384.218182 -41.76 
L 385.909091 -87.58961 
L 387.6 -41.76 
L 389.290909 -41.76 
L 390.981818 -41.76 
L 392.672727 -85.03953 
L 394.363636 -83.243699 
L 396.054545 -60.005644 
L 397.745455 -82.848616 
L 399.436364 -41.76 
L 401.127273 -41.76 
L 402.818182 -60.149311 
L 404.509091 -41.76 
L 406.2 -81.878867 
L 407.890909 -57.81473 
L 409.581818 -41.76 
L 411.272727 -41.76 
L 412.963636 -41.76 
L 414.654545 -41.76 
L 416.345455 -56.413982 
L 418.036364 -41.76 
L 419.727273 -79.939369 
L 421.418182 -41.76 
L 423.109091 -72.360962 
L 424.8 -41.76 
L 426.490909 -78.107622 
L 428.181818 -41.76 
L 429.872727 -41.76 
L 431.563636 -41.76 
L 433.254545 -41.76 
L 434.945455 -72.432795 
L 436.636364 -50.559572 
L 438.327273 -41.76 
L 440.018182 -41.76 
L 441.709091 -78.215371 
L 443.4 -41.76 
L 445.090909 -41.76 
L 446.781818 -57.850647 
L 448.472727 -41.76 
L 450.163636 -41.76 
L 451.854545 -57.527397 
L 453.545455 -65.644554 
L 455.236364 -57.168231 
L 456.927273 -41.76 
L 458.618182 -41.76 
L 460.309091 -66.650219 
L 462 -41.76 
L 463.690909 -41.76 
L 465.381818 -41.76 
L 467.072727 -88.056526 
L 468.763636 -41.76 
L 470.454545 -68.481967 
L 472.145455 -61.083143 
L 473.836364 -41.76 
L 475.527273 -66.039637 
L 477.218182 -41.76 
L 478.909091 -41.76 
L 480.6 -66.901635 
L 482.290909 -41.76 
L 483.981818 -59.969727 
L 485.672727 -41.76 
L 487.363636 -41.76 
L 489.054545 -41.76 
L 490.745455 -64.818471 
L 492.436364 -41.76 
L 494.127273 -55.444233 
L 495.818182 -77.604789 
L 497.509091 -41.76 
L 499.2 -41.76 
L 500.890909 -124.152731 
L 502.581818 -41.76 
L 504.272727 -63.202223 
L 505.963636 -41.76 
L 507.654545 -41.76 
L 509.345455 -41.76 
L 511.036364 -106.697253 
L 512.727273 -41.76 
L 514.418182 -64.387472 
L 516.109091 -41.76 
L 517.8 -41.76 
L 519.490909 -41.76 
L 521.181818 -41.76 
L 522.872727 -64.423389 
L 524.563636 -41.76 
L 526.254545 -41.76 
L 527.945455 -41.76 
L 529.636364 -63.309973 
L 531.327273 -120.165986 
L 533.018182 -97.430764 
L 534.709091 -41.76 
L 536.4 -41.76 
L 538.090909 -41.76 
L 539.781818 -41.76 
L 541.472727 -67.296718 
L 543.163636 -41.76 
L 544.854545 -41.76 
L 546.545455 -57.311897 
L 548.236364 -55.767483 
L 549.927273 -41.76 
L 551.618182 -92.47427 
L 553.309091 -58.999979 
L 555 -41.76 
L 556.690909 -84.895863 
L 558.381818 -41.76 
L 560.072727 -130.581807 
L 561.763636 -41.76 
L 563.454545 -59.143645 
L 565.145455 -41.76 
L 566.836364 -75.737125 
L 568.527273 -72.935628 
L 570.218182 -41.76 
L 571.909091 -69.559466 
L 573.6 -41.76 
L 575.290909 -41.76 
L 576.981818 -41.76 
L 578.672727 -96.963848 
L 580.363636 -41.76 
L 582.054545 -41.76 
L 583.745455 -41.76 
L 585.436364 -98.364596 
L 587.127273 -41.76 
L 588.818182 -59.718311 
L 590.509091 -41.76 
L 592.2 -90.391106 
L 593.890909 -41.76 
L 595.581818 -87.625526 
L 597.272727 -74.839209 
L 598.963636 -41.76 
L 600.654545 -41.76 
L 602.345455 -41.76 
L 604.036364 -106.050754 
L 605.727273 -41.76 
L 607.418182 -41.76 
L 609.109091 -41.76 
L 610.8 -103.500673 
L 612.490909 -41.76 
L 614.181818 -41.76 
L 615.872727 -63.956472 
L 617.563636 -41.76 
L 619.254545 -41.76 
L 620.945455 -64.854388 
L 622.636364 -41.76 
L 622.636364 -41.76 
L 622.636364 -41.76 
L 620.945455 -79.580203 
L 619.254545 -66.901635 
L 617.563636 -53.109653 
L 615.872727 -67.835468 
L 614.181818 -44.274164 
L 612.490909 -45.279829 
L 610.8 -108.313501 
L 609.109091 -51.062405 
L 607.418182 -44.381913 
L 605.727273 -42.586082 
L 604.036364 -108.205751 
L 602.345455 -53.396986 
L 600.654545 -50.559572 
L 598.963636 -53.217402 
L 597.272727 -101.273843 
L 595.581818 -118.837071 
L 593.890909 -50.667322 
L 592.2 -99.980844 
L 590.509091 -61.981058 
L 588.818182 -72.540545 
L 587.127273 -50.595489 
L 585.436364 -102.674591 
L 583.745455 -89.421358 
L 582.054545 -95.634933 
L 580.363636 -90.858022 
L 578.672727 -111.474164 
L 576.981818 -44.63333 
L 575.290909 -43.340331 
L 573.6 -47.793993 
L 571.909091 -73.258878 
L 570.218182 -53.217402 
L 568.527273 -75.916708 
L 566.836364 -88.307942 
L 565.145455 -49.051074 
L 563.454545 -70.026382 
L 561.763636 -44.453747 
L 560.072727 -137.010882 
L 558.381818 -52.965986 
L 556.690909 -93.982769 
L 555 -46.249578 
L 553.309091 -64.890305 
L 551.618182 -103.895756 
L 549.927273 -60.939476 
L 548.236364 -67.799551 
L 546.545455 -65.89597 
L 544.854545 -43.088915 
L 543.163636 -50.451823 
L 541.472727 -109.031833 
L 539.781818 -53.289236 
L 538.090909 -58.281646 
L 536.4 -59.107728 
L 534.709091 -102.997841 
L 533.018182 -110.145249 
L 531.327273 -127.45706 
L 529.636364 -74.803292 
L 527.945455 -42.621999 
L 526.254545 -43.052998 
L 524.563636 -42.514249 
L 522.872727 -66.11147 
L 521.181818 -42.945249 
L 519.490909 -43.699498 
L 517.8 -49.877157 
L 516.109091 -62.268391 
L 514.418182 -70.99613 
L 512.727273 -43.052998 
L 511.036364 -109.498749 
L 509.345455 -59.502811 
L 507.654545 -49.015158 
L 505.963636 -64.998055 
L 504.272727 -87.338193 
L 502.581818 -47.722159 
L 500.890909 -124.583731 
L 499.2 -42.693832 
L 497.509091 -42.657916 
L 495.818182 -79.759786 
L 494.127273 -59.502811 
L 492.436364 -53.827985 
L 490.745455 -86.943111 
L 489.054545 -51.385655 
L 487.363636 -55.3724 
L 485.672727 -52.570903 
L 483.981818 -69.308049 
L 482.290909 -74.08496 
L 480.6 -108.026168 
L 478.909091 -84.39303 
L 477.218182 -94.054602 
L 475.527273 -101.776676 
L 473.836364 -51.601154 
L 472.145455 -73.402544 
L 470.454545 -84.50078 
L 468.763636 -44.130497 
L 467.072727 -90.46294 
L 465.381818 -47.901742 
L 463.690909 -45.100246 
L 462 -55.300567 
L 460.309091 -76.599123 
L 458.618182 -49.374324 
L 456.927273 -48.548242 
L 455.236364 -63.740973 
L 453.545455 -103.357007 
L 451.854545 -70.205965 
L 450.163636 -52.49907 
L 448.472727 -74.982875 
L 446.781818 -84.788113 
L 445.090909 -42.801582 
L 443.4 -42.621999 
L 441.709091 -82.309866 
L 440.018182 -75.880791 
L 438.327273 -78.790037 
L 436.636364 -67.943218 
L 434.945455 -88.774858 
L 433.254545 -79.652036 
L 431.563636 -80.657702 
L 429.872727 -79.580203 
L 428.181818 -82.3817 
L 426.490909 -92.977103 
L 424.8 -50.703239 
L 423.109091 -83.100032 
L 421.418182 -84.177531 
L 419.727273 -110.971331 
L 418.036364 -51.708904 
L 416.345455 -61.334559 
L 414.654545 -51.816654 
L 412.963636 -45.567162 
L 411.272727 -48.548242 
L 409.581818 -48.081325 
L 407.890909 -74.623709 
L 406.2 -87.37411 
L 404.509091 -45.387579 
L 402.818182 -68.230551 
L 401.127273 -49.62574 
L 399.436364 -53.432902 
L 397.745455 -91.037606 
L 396.054545 -67.117135 
L 394.363636 -88.810775 
L 392.672727 -90.067857 
L 390.981818 -48.404575 
L 389.290909 -45.100246 
L 387.6 -44.561497 
L 385.909091 -88.595275 
L 384.218182 -48.081325 
L 382.527273 -50.954655 
L 380.836364 -98.041347 
L 379.145455 -58.676729 
L 377.454545 -52.427237 
L 375.763636 -51.170155 
L 374.072727 -83.171865 
L 372.381818 -44.022747 
L 370.690909 -44.41783 
L 369 -140.207461 
L 367.309091 -45.495329 
L 365.618182 -50.595489 
L 363.927273 -95.168017 
L 362.236364 -50.954655 
L 360.545455 -45.638995 
L 358.854545 -59.538728 
L 357.163636 -92.725687 
L 355.472727 -60.831726 
L 353.781818 -43.376248 
L 352.090909 -48.332742 
L 350.4 -87.733276 
L 348.709091 -46.141828 
L 347.018182 -44.489663 
L 345.327273 -44.274164 
L 343.636364 -82.561283 
L 341.945455 -44.166414 
L 340.254545 -45.423495 
L 338.563636 -56.701315 
L 336.872727 -89.529107 
L 335.181818 -46.141828 
L 333.490909 -46.357328 
L 331.8 -46.141828 
L 330.109091 -96.425099 
L 328.418182 -60.79581 
L 326.727273 -91.001689 
L 325.036364 -50.775072 
L 323.345455 -74.587793 
L 321.654545 -94.665184 
L 319.963636 -97.143431 
L 318.272727 -64.818471 
L 316.581818 -55.623816 
L 314.890909 -52.894153 
L 313.2 -114.670743 
L 311.509091 -72.720128 
L 309.818182 -61.154976 
L 308.127273 -62.124725 
L 306.436364 -58.497146 
L 304.745455 -80.549952 
L 303.054545 -56.701315 
L 301.363636 -59.107728 
L 299.672727 -50.344073 
L 297.981818 -63.166307 
L 296.290909 -44.956579 
L 294.6 -58.066146 
L 292.909091 -45.423495 
L 291.218182 -110.612165 
L 289.527273 -49.230657 
L 287.836364 -49.015158 
L 286.145455 -46.465077 
L 284.454545 -48.153159 
L 282.763636 -71.678546 
L 281.072727 -44.920663 
L 279.381818 -43.879081 
L 277.690909 -43.483998 
L 276 -72.325045 
L 274.309091 -82.776782 
L 272.618182 -43.843164 
L 270.927273 -72.360962 
L 269.236364 -47.327076 
L 267.545455 -45.890412 
L 265.854545 -42.657916 
L 264.163636 -72.253212 
L 262.472727 -47.829909 
L 260.781818 -56.342149 
L 259.090909 -63.56139 
L 257.4 -116.143324 
L 255.709091 -87.445943 
L 254.018182 -91.468605 
L 252.327273 -86.583944 
L 250.636364 -67.476301 
L 248.945455 -106.230337 
L 247.254545 -49.73349 
L 245.563636 -61.657809 
L 243.872727 -42.945249 
L 242.181818 -101.956259 
L 240.490909 -43.052998 
L 238.8 -89.385441 
L 237.109091 -64.854388 
L 235.418182 -70.313715 
L 233.727273 -57.742897 
L 232.036364 -50.882822 
L 230.345455 -89.600941 
L 228.654545 -46.500994 
L 226.963636 -44.776996 
L 225.272727 -67.081219 
L 223.581818 -62.016975 
L 221.890909 -43.950914 
L 220.2 -48.260909 
L 218.509091 -45.100246 
L 216.818182 -96.604682 
L 215.127273 -49.374324 
L 213.436364 -42.298749 
L 211.745455 -42.693832 
L 210.054545 -93.623602 
L 208.363636 -43.160748 
L 206.672727 -48.691908 
L 204.981818 -59.610561 
L 203.290909 -114.096077 
L 201.6 -47.039743 
L 199.909091 -44.52558 
L 198.218182 -44.669246 
L 196.527273 -81.268284 
L 194.836364 -42.837499 
L 193.145455 -43.807247 
L 191.454545 -43.483998 
L 189.763636 -43.807247 
L 188.072727 -83.064115 
L 186.381818 -44.381913 
L 184.690909 -44.812913 
L 183 -44.884746 
L 181.309091 -101.704842 
L 179.618182 -47.686243 
L 177.927273 -47.434826 
L 176.236364 -47.003827 
L 174.545455 -109.750166 
L 172.854545 -47.003827 
L 171.163636 -47.003827 
L 169.472727 -46.824244 
L 167.781818 -106.374003 
L 166.090909 -47.255243 
L 164.4 -47.003827 
L 162.709091 -47.003827 
L 161.018182 -124.296398 
L 159.327273 -43.483998 
L 157.636364 -50.882822 
L 155.945455 -80.011203 
L 154.254545 -45.028413 
L 152.563636 -51.313821 
L 150.872727 -48.440492 
L 149.181818 -73.079294 
L 147.490909 -52.858236 
L 145.8 -52.965986 
L 144.109091 -51.744821 
L 142.418182 -126.487312 
L 140.727273 -45.782662 
L 139.036364 -49.015158 
L 137.345455 -54.797734 
L 135.654545 -106.769086 
L 133.963636 -54.546317 
L 132.272727 -54.474484 
L 130.581818 -58.13798 
L 128.890909 -87.553693 
L 127.2 -56.018899 
L 125.509091 -47.865826 
L 123.818182 -43.771331 
L 122.127273 -62.663474 
L 120.436364 -49.62574 
L 118.745455 -42.945249 
L 117.054545 -43.807247 
L 115.363636 -46.716494 
z
" style="stroke: #0000ff; stroke-width: 0.5"/>
    </defs>
    <g clip-path="url(#p4e6d5c6566)">
     <use xlink:href="#m8338e2390f" x="0" y="288" style="fill: #0000ff; stroke: #0000ff; stroke-width: 0.5"/>
    </g>
   </g>
   <g id="PolyCollection_3">
    <defs>
     <path id="mc9de58ffcf" d="M 115.363636 -55.839316 
L 115.363636 -46.716494 
L 117.054545 -43.807247 
L 118.745455 -42.945249 
L 120.436364 -49.62574 
L 122.127273 -62.663474 
L 123.818182 -43.771331 
L 125.509091 -47.865826 
L 127.2 -56.018899 
L 128.890909 -87.553693 
L 130.581818 -58.13798 
L 132.272727 -54.474484 
L 133.963636 -54.546317 
L 135.654545 -106.769086 
L 137.345455 -54.797734 
L 139.036364 -49.015158 
L 140.727273 -45.782662 
L 142.418182 -126.487312 
L 144.109091 -51.744821 
L 145.8 -52.965986 
L 147.490909 -52.858236 
L 149.181818 -73.079294 
L 150.872727 -48.440492 
L 152.563636 -51.313821 
L 154.254545 -45.028413 
L 155.945455 -80.011203 
L 157.636364 -50.882822 
L 159.327273 -43.483998 
L 161.018182 -124.296398 
L 162.709091 -47.003827 
L 164.4 -47.003827 
L 166.090909 -47.255243 
L 167.781818 -106.374003 
L 169.472727 -46.824244 
L 171.163636 -47.003827 
L 172.854545 -47.003827 
L 174.545455 -109.750166 
L 176.236364 -47.003827 
L 177.927273 -47.434826 
L 179.618182 -47.686243 
L 181.309091 -101.704842 
L 183 -44.884746 
L 184.690909 -44.812913 
L 186.381818 -44.381913 
L 188.072727 -83.064115 
L 189.763636 -43.807247 
L 191.454545 -43.483998 
L 193.145455 -43.807247 
L 194.836364 -42.837499 
L 196.527273 -81.268284 
L 198.218182 -44.669246 
L 199.909091 -44.52558 
L 201.6 -47.039743 
L 203.290909 -114.096077 
L 204.981818 -59.610561 
L 206.672727 -48.691908 
L 208.363636 -43.160748 
L 210.054545 -93.623602 
L 211.745455 -42.693832 
L 213.436364 -42.298749 
L 215.127273 -49.374324 
L 216.818182 -96.604682 
L 218.509091 -45.100246 
L 220.2 -48.260909 
L 221.890909 -43.950914 
L 223.581818 -62.016975 
L 225.272727 -67.081219 
L 226.963636 -44.776996 
L 228.654545 -46.500994 
L 230.345455 -89.600941 
L 232.036364 -50.882822 
L 233.727273 -57.742897 
L 235.418182 -70.313715 
L 237.109091 -64.854388 
L 238.8 -89.385441 
L 240.490909 -43.052998 
L 242.181818 -101.956259 
L 243.872727 -42.945249 
L 245.563636 -61.657809 
L 247.254545 -49.73349 
L 248.945455 -106.230337 
L 250.636364 -67.476301 
L 252.327273 -86.583944 
L 254.018182 -91.468605 
L 255.709091 -87.445943 
L 257.4 -116.143324 
L 259.090909 -63.56139 
L 260.781818 -56.342149 
L 262.472727 -47.829909 
L 264.163636 -72.253212 
L 265.854545 -42.657916 
L 267.545455 -45.890412 
L 269.236364 -47.327076 
L 270.927273 -72.360962 
L 272.618182 -43.843164 
L 274.309091 -82.776782 
L 276 -72.325045 
L 277.690909 -43.483998 
L 279.381818 -43.879081 
L 281.072727 -44.920663 
L 282.763636 -71.678546 
L 284.454545 -48.153159 
L 286.145455 -46.465077 
L 287.836364 -49.015158 
L 289.527273 -49.230657 
L 291.218182 -110.612165 
L 292.909091 -45.423495 
L 294.6 -58.066146 
L 296.290909 -44.956579 
L 297.981818 -63.166307 
L 299.672727 -50.344073 
L 301.363636 -59.107728 
L 303.054545 -56.701315 
L 304.745455 -80.549952 
L 306.436364 -58.497146 
L 308.127273 -62.124725 
L 309.818182 -61.154976 
L 311.509091 -72.720128 
L 313.2 -114.670743 
L 314.890909 -52.894153 
L 316.581818 -55.623816 
L 318.272727 -64.818471 
L 319.963636 -97.143431 
L 321.654545 -94.665184 
L 323.345455 -74.587793 
L 325.036364 -50.775072 
L 326.727273 -91.001689 
L 328.418182 -60.79581 
L 330.109091 -96.425099 
L 331.8 -46.141828 
L 333.490909 -46.357328 
L 335.181818 -46.141828 
L 336.872727 -89.529107 
L 338.563636 -56.701315 
L 340.254545 -45.423495 
L 341.945455 -44.166414 
L 343.636364 -82.561283 
L 345.327273 -44.274164 
L 347.018182 -44.489663 
L 348.709091 -46.141828 
L 350.4 -87.733276 
L 352.090909 -48.332742 
L 353.781818 -43.376248 
L 355.472727 -60.831726 
L 357.163636 -92.725687 
L 358.854545 -59.538728 
L 360.545455 -45.638995 
L 362.236364 -50.954655 
L 363.927273 -95.168017 
L 365.618182 -50.595489 
L 367.309091 -45.495329 
L 369 -140.207461 
L 370.690909 -44.41783 
L 372.381818 -44.022747 
L 374.072727 -83.171865 
L 375.763636 -51.170155 
L 377.454545 -52.427237 
L 379.145455 -58.676729 
L 380.836364 -98.041347 
L 382.527273 -50.954655 
L 384.218182 -48.081325 
L 385.909091 -88.595275 
L 387.6 -44.561497 
L 389.290909 -45.100246 
L 390.981818 -48.404575 
L 392.672727 -90.067857 
L 394.363636 -88.810775 
L 396.054545 -67.117135 
L 397.745455 -91.037606 
L 399.436364 -53.432902 
L 401.127273 -49.62574 
L 402.818182 -68.230551 
L 404.509091 -45.387579 
L 406.2 -87.37411 
L 407.890909 -74.623709 
L 409.581818 -48.081325 
L 411.272727 -48.548242 
L 412.963636 -45.567162 
L 414.654545 -51.816654 
L 416.345455 -61.334559 
L 418.036364 -51.708904 
L 419.727273 -110.971331 
L 421.418182 -84.177531 
L 423.109091 -83.100032 
L 424.8 -50.703239 
L 426.490909 -92.977103 
L 428.181818 -82.3817 
L 429.872727 -79.580203 
L 431.563636 -80.657702 
L 433.254545 -79.652036 
L 434.945455 -88.774858 
L 436.636364 -67.943218 
L 438.327273 -78.790037 
L 440.018182 -75.880791 
L 441.709091 -82.309866 
L 443.4 -42.621999 
L 445.090909 -42.801582 
L 446.781818 -84.788113 
L 448.472727 -74.982875 
L 450.163636 -52.49907 
L 451.854545 -70.205965 
L 453.545455 -103.357007 
L 455.236364 -63.740973 
L 456.927273 -48.548242 
L 458.618182 -49.374324 
L 460.309091 -76.599123 
L 462 -55.300567 
L 463.690909 -45.100246 
L 465.381818 -47.901742 
L 467.072727 -90.46294 
L 468.763636 -44.130497 
L 470.454545 -84.50078 
L 472.145455 -73.402544 
L 473.836364 -51.601154 
L 475.527273 -101.776676 
L 477.218182 -94.054602 
L 478.909091 -84.39303 
L 480.6 -108.026168 
L 482.290909 -74.08496 
L 483.981818 -69.308049 
L 485.672727 -52.570903 
L 487.363636 -55.3724 
L 489.054545 -51.385655 
L 490.745455 -86.943111 
L 492.436364 -53.827985 
L 494.127273 -59.502811 
L 495.818182 -79.759786 
L 497.509091 -42.657916 
L 499.2 -42.693832 
L 500.890909 -124.583731 
L 502.581818 -47.722159 
L 504.272727 -87.338193 
L 505.963636 -64.998055 
L 507.654545 -49.015158 
L 509.345455 -59.502811 
L 511.036364 -109.498749 
L 512.727273 -43.052998 
L 514.418182 -70.99613 
L 516.109091 -62.268391 
L 517.8 -49.877157 
L 519.490909 -43.699498 
L 521.181818 -42.945249 
L 522.872727 -66.11147 
L 524.563636 -42.514249 
L 526.254545 -43.052998 
L 527.945455 -42.621999 
L 529.636364 -74.803292 
L 531.327273 -127.45706 
L 533.018182 -110.145249 
L 534.709091 -102.997841 
L 536.4 -59.107728 
L 538.090909 -58.281646 
L 539.781818 -53.289236 
L 541.472727 -109.031833 
L 543.163636 -50.451823 
L 544.854545 -43.088915 
L 546.545455 -65.89597 
L 548.236364 -67.799551 
L 549.927273 -60.939476 
L 551.618182 -103.895756 
L 553.309091 -64.890305 
L 555 -46.249578 
L 556.690909 -93.982769 
L 558.381818 -52.965986 
L 560.072727 -137.010882 
L 561.763636 -44.453747 
L 563.454545 -70.026382 
L 565.145455 -49.051074 
L 566.836364 -88.307942 
L 568.527273 -75.916708 
L 570.218182 -53.217402 
L 571.909091 -73.258878 
L 573.6 -47.793993 
L 575.290909 -43.340331 
L 576.981818 -44.63333 
L 578.672727 -111.474164 
L 580.363636 -90.858022 
L 582.054545 -95.634933 
L 583.745455 -89.421358 
L 585.436364 -102.674591 
L 587.127273 -50.595489 
L 588.818182 -72.540545 
L 590.509091 -61.981058 
L 592.2 -99.980844 
L 593.890909 -50.667322 
L 595.581818 -118.837071 
L 597.272727 -101.273843 
L 598.963636 -53.217402 
L 600.654545 -50.559572 
L 602.345455 -53.396986 
L 604.036364 -108.205751 
L 605.727273 -42.586082 
L 607.418182 -44.381913 
L 609.109091 -51.062405 
L 610.8 -108.313501 
L 612.490909 -45.279829 
L 614.181818 -44.274164 
L 615.872727 -67.835468 
L 617.563636 -53.109653 
L 619.254545 -66.901635 
L 620.945455 -79.580203 
L 622.636364 -41.76 
L 622.636364 -41.795917 
L 622.636364 -41.795917 
L 620.945455 -150.587365 
L 619.254545 -155.292443 
L 617.563636 -108.277584 
L 615.872727 -81.7352 
L 614.181818 -53.863902 
L 612.490909 -62.016975 
L 610.8 -125.948562 
L 609.109091 -79.939369 
L 607.418182 -52.139904 
L 605.727273 -58.820396 
L 604.036364 -130.258557 
L 602.345455 -111.905163 
L 600.654545 -103.249257 
L 598.963636 -99.154762 
L 597.272727 -130.474057 
L 595.581818 -154.35861 
L 593.890909 -124.871064 
L 592.2 -143.224458 
L 590.509091 -109.642416 
L 588.818182 -115.281325 
L 587.127273 -89.169941 
L 585.436364 -158.740438 
L 583.745455 -189.018151 
L 582.054545 -196.560641 
L 580.363636 -186.719487 
L 578.672727 -150.551448 
L 576.981818 -94.593351 
L 575.290909 -76.994206 
L 573.6 -88.954441 
L 571.909091 -92.007354 
L 570.218182 -77.317456 
L 568.527273 -92.977103 
L 566.836364 -125.876729 
L 565.145455 -85.398696 
L 563.454545 -110.396665 
L 561.763636 -70.924297 
L 560.072727 -172.783838 
L 558.381818 -93.910935 
L 556.690909 -115.245409 
L 555 -58.676729 
L 553.309091 -87.086777 
L 551.618182 -139.129963 
L 549.927273 -136.436216 
L 548.236364 -111.186831 
L 546.545455 -104.398589 
L 544.854545 -74.731459 
L 543.163636 -103.823923 
L 541.472727 -190.167483 
L 539.781818 -110.899498 
L 538.090909 -119.69907 
L 536.4 -129.504308 
L 534.709091 -182.122159 
L 533.018182 -172.029588 
L 531.327273 -154.57411 
L 529.636364 -126.559145 
L 527.945455 -61.154976 
L 526.254545 -55.192817 
L 524.563636 -54.546317 
L 522.872727 -83.890198 
L 521.181818 -59.466895 
L 519.490909 -61.693725 
L 517.8 -76.922373 
L 516.109091 -102.423175 
L 514.418182 -80.909118 
L 512.727273 -48.296825 
L 511.036364 -121.997734 
L 509.345455 -93.156686 
L 507.654545 -84.788113 
L 505.963636 -129.324725 
L 504.272727 -189.44915 
L 502.581818 -101.633009 
L 500.890909 -151.952197 
L 499.2 -44.31008 
L 497.509091 -44.345997 
L 495.818182 -87.841026 
L 494.127273 -77.892122 
L 492.436364 -86.691694 
L 490.745455 -127.78031 
L 489.054545 -84.069781 
L 487.363636 -87.80511 
L 485.672727 -78.394955 
L 483.981818 -118.046905 
L 482.290909 -243.36 
L 480.6 -214.842202 
L 478.909091 -191.604148 
L 477.218182 -161.434185 
L 475.527273 -159.315104 
L 473.836364 -70.960214 
L 472.145455 -107.631085 
L 470.454545 -111.61783 
L 468.763636 -51.672988 
L 467.072727 -98.22093 
L 465.381818 -69.810882 
L 463.690909 -63.489556 
L 462 -110.935414 
L 460.309091 -104.111256 
L 458.618182 -75.916708 
L 456.927273 -69.990465 
L 455.236364 -91.073522 
L 453.545455 -232.082181 
L 451.854545 -113.557328 
L 450.163636 -93.336269 
L 448.472727 -164.882181 
L 446.781818 -123.398482 
L 445.090909 -45.710828 
L 443.4 -44.058664 
L 441.709091 -102.135842 
L 440.018182 -161.613768 
L 438.327273 -174.759252 
L 436.636364 -160.284853 
L 434.945455 -142.757541 
L 433.254545 -136.687632 
L 431.563636 -125.302063 
L 429.872727 -145.235788 
L 428.181818 -129.432475 
L 426.490909 -126.990144 
L 424.8 -82.022533 
L 423.109091 -107.056419 
L 421.418182 -137.046799 
L 419.727273 -163.373683 
L 418.036364 -88.451609 
L 416.345455 -79.939369 
L 414.654545 -70.277798 
L 412.963636 -54.187151 
L 411.272727 -60.400727 
L 409.581818 -78.287205 
L 407.890909 -114.886243 
L 406.2 -100.699177 
L 404.509091 -60.149311 
L 402.818182 -89.421358 
L 401.127273 -77.532956 
L 399.436364 -97.754014 
L 397.745455 -123.937231 
L 396.054545 -93.156686 
L 394.363636 -117.400406 
L 392.672727 -107.056419 
L 390.981818 -62.555724 
L 389.290909 -52.427237 
L 387.6 -53.145569 
L 385.909091 -95.45535 
L 384.218182 -85.326863 
L 382.527273 -90.606606 
L 380.836364 -144.768872 
L 379.145455 -115.820075 
L 377.454545 -93.01302 
L 375.763636 -71.570796 
L 374.072727 -131.587472 
L 372.381818 -101.166093 
L 370.690909 -117.292656 
L 369 -154.68186 
L 367.309091 -77.389289 
L 365.618182 -89.960107 
L 363.927273 -156.549524 
L 362.236364 -99.406179 
L 360.545455 -82.27395 
L 358.854545 -112.946745 
L 357.163636 -134.640385 
L 355.472727 -105.009172 
L 353.781818 -73.187044 
L 352.090909 -95.634933 
L 350.4 -129.899391 
L 348.709091 -86.296611 
L 347.018182 -79.831619 
L 345.327273 -78.610454 
L 343.636364 -110.145249 
L 341.945455 -71.139797 
L 340.254545 -71.498963 
L 338.563636 -103.895756 
L 336.872727 -121.710401 
L 335.181818 -78.143538 
L 333.490909 -69.559466 
L 331.8 -75.198375 
L 330.109091 -131.156472 
L 328.418182 -105.296505 
L 326.727273 -136.256633 
L 325.036364 -95.203934 
L 323.345455 -148.252785 
L 321.654545 -126.092229 
L 319.963636 -141.39271 
L 318.272727 -115.496825 
L 316.581818 -78.682288 
L 314.890909 -83.459198 
L 313.2 -163.265933 
L 311.509091 -113.808744 
L 309.818182 -92.761603 
L 308.127273 -92.438354 
L 306.436364 -83.100032 
L 304.745455 -111.474164 
L 303.054545 -80.226702 
L 301.363636 -105.332421 
L 299.672727 -83.962031 
L 297.981818 -79.61612 
L 296.290909 -59.682394 
L 294.6 -125.302063 
L 292.909091 -70.960214 
L 291.218182 -121.099818 
L 289.527273 -55.300567 
L 287.836364 -57.204148 
L 286.145455 -71.391213 
L 284.454545 -83.746531 
L 282.763636 -86.476195 
L 281.072727 -51.672988 
L 279.381818 -51.206072 
L 277.690909 -51.026489 
L 276 -108.995917 
L 274.309091 -114.455243 
L 272.618182 -52.247654 
L 270.927273 -82.812699 
L 269.236364 -70.744714 
L 267.545455 -63.956472 
L 265.854545 -44.381913 
L 264.163636 -83.997948 
L 262.472727 -80.945035 
L 260.781818 -96.065933 
L 259.090909 -119.80682 
L 257.4 -180.721411 
L 255.709091 -206.329963 
L 254.018182 -192.897146 
L 252.327273 -196.452892 
L 250.636364 -133.347386 
L 248.945455 -177.560748 
L 247.254545 -96.784265 
L 245.563636 -78.071705 
L 243.872727 -56.593565 
L 242.181818 -105.691587 
L 240.490909 -46.680577 
L 238.8 -151.341614 
L 237.109091 -109.28325 
L 235.418182 -141.428626 
L 233.727273 -124.368231 
L 232.036364 -85.255029 
L 230.345455 -100.304094 
L 228.654545 -79.221037 
L 226.963636 -64.926221 
L 225.272727 -92.115104 
L 223.581818 -68.374217 
L 221.890909 -58.173896 
L 220.2 -68.697467 
L 218.509091 -52.032154 
L 216.818182 -141.536376 
L 215.127273 -152.095863 
L 213.436364 -125.050647 
L 211.745455 -107.164169 
L 210.054545 -142.182875 
L 208.363636 -94.306018 
L 206.672727 -100.806927 
L 204.981818 -130.617723 
L 203.290909 -147.714035 
L 201.6 -82.3817 
L 199.909091 -85.398696 
L 198.218182 -88.272026 
L 196.527273 -109.103666 
L 194.836364 -71.64263 
L 193.145455 -78.179455 
L 191.454545 -75.952624 
L 189.763636 -68.7693 
L 188.072727 -116.682074 
L 186.381818 -81.268284 
L 184.690909 -83.818365 
L 183 -80.011203 
L 181.309091 -149.689449 
L 179.618182 -117.220823 
L 177.927273 -120.058236 
L 176.236364 -113.916494 
L 174.545455 -170.341507 
L 172.854545 -122.608316 
L 171.163636 -118.765238 
L 169.472727 -112.767162 
L 167.781818 -167.719594 
L 166.090909 -119.196237 
L 164.4 -123.147066 
L 162.709091 -114.096077 
L 161.018182 -141.895542 
L 159.327273 -48.727825 
L 157.636364 -80.657702 
L 155.945455 -126.666895 
L 154.254545 -56.916815 
L 152.563636 -87.338193 
L 150.872727 -71.570796 
L 149.181818 -104.685922 
L 147.490909 -127.313394 
L 145.8 -125.302063 
L 144.109091 -125.768979 
L 142.418182 -186.827237 
L 140.727273 -102.530925 
L 139.036364 -122.03365 
L 137.345455 -122.428733 
L 135.654545 -184.887739 
L 133.963636 -125.697146 
L 132.272727 -140.602544 
L 130.581818 -130.11489 
L 128.890909 -160.895436 
L 127.2 -124.835147 
L 125.509091 -85.937445 
L 123.818182 -61.657809 
L 122.127273 -94.306018 
L 120.436364 -54.007568 
L 118.745455 -44.345997 
L 117.054545 -46.069995 
L 115.363636 -55.839316 
z
" style="stroke: #008000; stroke-width: 0.5"/>
    </defs>
    <g clip-path="url(#p4e6d5c6566)">
     <use xlink:href="#mc9de58ffcf" x="0" y="288" style="fill: #008000; stroke: #008000; stroke-width: 0.5"/>
    </g>
   </g>
   <g id="line2d_24">
    <path d="M 90 44.64 
L 648 44.64 
" clip-path="url(#p4e6d5c6566)" style="fill: none; stroke: #000000; stroke-width: 1.5; stroke-linecap: square"/>
   </g>
   <g id="line2d_25">
    <path d="M 90 182.559829 
L 648 182.559829 
" clip-path="url(#p4e6d5c6566)" style="fill: none; stroke: #000000; stroke-width: 1.5; stroke-linecap: square"/>
   </g>
   <g id="patch_3">
    <path d="M 90 256.32 
L 90 34.56 
" style="fill: none; stroke: #000000; stroke-width: 0.8; stroke-linejoin: miter; stroke-linecap: square"/>
   </g>
   <g id="patch_4">
    <path d="M 648 256.32 
L 648 34.56 
" style="fill: none; stroke: #000000; stroke-width: 0.8; stroke-linejoin: miter; stroke-linecap: square"/>
   </g>
   <g id="patch_5">
    <path d="M 90 256.32 
L 648 256.32 
" style="fill: none; stroke: #000000; stroke-width: 0.8; stroke-linejoin: miter; stroke-linecap: square"/>
   </g>
   <g id="patch_6">
    <path d="M 90 34.56 
L 648 34.56 
" style="fill: none; stroke: #000000; stroke-width: 0.8; stroke-linejoin: miter; stroke-linecap: square"/>
   </g>
   <g id="text_20">
    <!-- peak (5,613) -->
    <g transform="translate(122.179233 41.3136) scale(0.1 -0.1)">
     <defs>
      <path id="DejaVuSans-Bold-70" d="M 1656 506 
L 1656 -1331 
L 538 -1331 
L 538 3500 
L 1656 3500 
L 1656 2988 
Q 1888 3294 2169 3439 
Q 2450 3584 2816 3584 
Q 3463 3584 3878 3070 
Q 4294 2556 4294 1747 
Q 4294 938 3878 423 
Q 3463 -91 2816 -91 
Q 2450 -91 2169 54 
Q 1888 200 1656 506 
z
M 2400 2772 
Q 2041 2772 1848 2508 
Q 1656 2244 1656 1747 
Q 1656 1250 1848 986 
Q 2041 722 2400 722 
Q 2759 722 2948 984 
Q 3138 1247 3138 1747 
Q 3138 2247 2948 2509 
Q 2759 2772 2400 2772 
z
" transform="scale(0.015625)"/>
      <path id="DejaVuSans-Bold-65" d="M 4031 1759 
L 4031 1441 
L 1416 1441 
Q 1456 1047 1700 850 
Q 1944 653 2381 653 
Q 2734 653 3104 758 
Q 3475 863 3866 1075 
L 3866 213 
Q 3469 63 3072 -14 
Q 2675 -91 2278 -91 
Q 1328 -91 801 392 
Q 275 875 275 1747 
Q 275 2603 792 3093 
Q 1309 3584 2216 3584 
Q 3041 3584 3536 3087 
Q 4031 2591 4031 1759 
z
M 2881 2131 
Q 2881 2450 2695 2645 
Q 2509 2841 2209 2841 
Q 1884 2841 1681 2658 
Q 1478 2475 1428 2131 
L 2881 2131 
z
" transform="scale(0.015625)"/>
      <path id="DejaVuSans-Bold-61" d="M 2106 1575 
Q 1756 1575 1579 1456 
Q 1403 1338 1403 1106 
Q 1403 894 1545 773 
Q 1688 653 1941 653 
Q 2256 653 2472 879 
Q 2688 1106 2688 1447 
L 2688 1575 
L 2106 1575 
z
M 3816 1997 
L 3816 0 
L 2688 0 
L 2688 519 
Q 2463 200 2181 54 
Q 1900 -91 1497 -91 
Q 953 -91 614 226 
Q 275 544 275 1050 
Q 275 1666 698 1953 
Q 1122 2241 2028 2241 
L 2688 2241 
L 2688 2328 
Q 2688 2594 2478 2717 
Q 2269 2841 1825 2841 
Q 1466 2841 1156 2769 
Q 847 2697 581 2553 
L 581 3406 
Q 941 3494 1303 3539 
Q 1666 3584 2028 3584 
Q 2975 3584 3395 3211 
Q 3816 2838 3816 1997 
z
" transform="scale(0.015625)"/>
      <path id="DejaVuSans-Bold-6b" d="M 538 4863 
L 1656 4863 
L 1656 2216 
L 2944 3500 
L 4244 3500 
L 2534 1894 
L 4378 0 
L 3022 0 
L 1656 1459 
L 1656 0 
L 538 0 
L 538 4863 
z
" transform="scale(0.015625)"/>
      <path id="DejaVuSans-Bold-20" transform="scale(0.015625)"/>
      <path id="DejaVuSans-Bold-28" d="M 2413 -844 
L 1484 -844 
Q 1006 -72 778 623 
Q 550 1319 550 2003 
Q 550 2688 779 3389 
Q 1009 4091 1484 4856 
L 2413 4856 
Q 2013 4116 1813 3408 
Q 1613 2700 1613 2009 
Q 1613 1319 1811 609 
Q 2009 -100 2413 -844 
z
" transform="scale(0.015625)"/>
      <path id="DejaVuSans-Bold-35" d="M 678 4666 
L 3669 4666 
L 3669 3781 
L 1638 3781 
L 1638 3059 
Q 1775 3097 1914 3117 
Q 2053 3138 2203 3138 
Q 3056 3138 3531 2711 
Q 4006 2284 4006 1522 
Q 4006 766 3489 337 
Q 2972 -91 2053 -91 
Q 1656 -91 1267 -14 
Q 878 63 494 219 
L 494 1166 
Q 875 947 1217 837 
Q 1559 728 1863 728 
Q 2300 728 2551 942 
Q 2803 1156 2803 1522 
Q 2803 1891 2551 2103 
Q 2300 2316 1863 2316 
Q 1603 2316 1309 2248 
Q 1016 2181 678 2041 
L 678 4666 
z
" transform="scale(0.015625)"/>
      <path id="DejaVuSans-Bold-2c" d="M 653 1209 
L 1778 1209 
L 1778 256 
L 1006 -909 
L 341 -909 
L 653 256 
L 653 1209 
z
" transform="scale(0.015625)"/>
      <path id="DejaVuSans-Bold-36" d="M 2316 2303 
Q 2000 2303 1842 2098 
Q 1684 1894 1684 1484 
Q 1684 1075 1842 870 
Q 2000 666 2316 666 
Q 2634 666 2792 870 
Q 2950 1075 2950 1484 
Q 2950 1894 2792 2098 
Q 2634 2303 2316 2303 
z
M 3803 4544 
L 3803 3681 
Q 3506 3822 3243 3889 
Q 2981 3956 2731 3956 
Q 2194 3956 1894 3657 
Q 1594 3359 1544 2772 
Q 1750 2925 1990 3001 
Q 2231 3078 2516 3078 
Q 3231 3078 3670 2659 
Q 4109 2241 4109 1563 
Q 4109 813 3618 361 
Q 3128 -91 2303 -91 
Q 1394 -91 895 523 
Q 397 1138 397 2266 
Q 397 3422 980 4083 
Q 1563 4744 2578 4744 
Q 2900 4744 3203 4694 
Q 3506 4644 3803 4544 
z
" transform="scale(0.015625)"/>
      <path id="DejaVuSans-Bold-31" d="M 750 831 
L 1813 831 
L 1813 3847 
L 722 3622 
L 722 4441 
L 1806 4666 
L 2950 4666 
L 2950 831 
L 4013 831 
L 4013 0 
L 750 0 
L 750 831 
z
" transform="scale(0.015625)"/>
      <path id="DejaVuSans-Bold-33" d="M 2981 2516 
Q 3453 2394 3698 2092 
Q 3944 1791 3944 1325 
Q 3944 631 3412 270 
Q 2881 -91 1863 -91 
Q 1503 -91 1142 -33 
Q 781 25 428 141 
L 428 1069 
Q 766 900 1098 814 
Q 1431 728 1753 728 
Q 2231 728 2486 893 
Q 2741 1059 2741 1369 
Q 2741 1688 2480 1852 
Q 2219 2016 1709 2016 
L 1228 2016 
L 1228 2791 
L 1734 2791 
Q 2188 2791 2409 2933 
Q 2631 3075 2631 3366 
Q 2631 3634 2415 3781 
Q 2200 3928 1806 3928 
Q 1516 3928 1219 3862 
Q 922 3797 628 3669 
L 628 4550 
Q 984 4650 1334 4700 
Q 1684 4750 2022 4750 
Q 2931 4750 3382 4451 
Q 3834 4153 3834 3553 
Q 3834 3144 3618 2883 
Q 3403 2622 2981 2516 
z
" transform="scale(0.015625)"/>
      <path id="DejaVuSans-Bold-29" d="M 513 -844 
Q 913 -100 1113 609 
Q 1313 1319 1313 2009 
Q 1313 2700 1113 3408 
Q 913 4116 513 4856 
L 1441 4856 
Q 1916 4091 2145 3389 
Q 2375 2688 2375 2003 
Q 2375 1319 2147 623 
Q 1919 -72 1441 -844 
L 513 -844 
z
" transform="scale(0.015625)"/>
     </defs>
     <use xlink:href="#DejaVuSans-Bold-70"/>
     <use xlink:href="#DejaVuSans-Bold-65" x="71.582031"/>
     <use xlink:href="#DejaVuSans-Bold-61" x="139.404297"/>
     <use xlink:href="#DejaVuSans-Bold-6b" x="206.884766"/>
     <use xlink:href="#DejaVuSans-Bold-20" x="273.388672"/>
     <use xlink:href="#DejaVuSans-Bold-28" x="308.203125"/>
     <use xlink:href="#DejaVuSans-Bold-35" x="353.90625"/>
     <use xlink:href="#DejaVuSans-Bold-2c" x="423.486328"/>
     <use xlink:href="#DejaVuSans-Bold-36" x="461.474609"/>
     <use xlink:href="#DejaVuSans-Bold-31" x="531.054688"/>
     <use xlink:href="#DejaVuSans-Bold-33" x="600.634766"/>
     <use xlink:href="#DejaVuSans-Bold-29" x="670.214844"/>
    </g>
   </g>
   <g id="text_21">
    <!-- mean (1,773) -->
    <g transform="translate(567.728153 179.233429) scale(0.1 -0.1)">
     <defs>
      <path id="DejaVuSans-Bold-6d" d="M 3781 2919 
Q 3994 3244 4286 3414 
Q 4578 3584 4928 3584 
Q 5531 3584 5847 3212 
Q 6163 2841 6163 2131 
L 6163 0 
L 5038 0 
L 5038 1825 
Q 5041 1866 5042 1909 
Q 5044 1953 5044 2034 
Q 5044 2406 4934 2573 
Q 4825 2741 4581 2741 
Q 4263 2741 4089 2478 
Q 3916 2216 3909 1719 
L 3909 0 
L 2784 0 
L 2784 1825 
Q 2784 2406 2684 2573 
Q 2584 2741 2328 2741 
Q 2006 2741 1831 2477 
Q 1656 2213 1656 1722 
L 1656 0 
L 531 0 
L 531 3500 
L 1656 3500 
L 1656 2988 
Q 1863 3284 2130 3434 
Q 2397 3584 2719 3584 
Q 3081 3584 3359 3409 
Q 3638 3234 3781 2919 
z
" transform="scale(0.015625)"/>
      <path id="DejaVuSans-Bold-6e" d="M 4056 2131 
L 4056 0 
L 2931 0 
L 2931 347 
L 2931 1631 
Q 2931 2084 2911 2256 
Q 2891 2428 2841 2509 
Q 2775 2619 2662 2680 
Q 2550 2741 2406 2741 
Q 2056 2741 1856 2470 
Q 1656 2200 1656 1722 
L 1656 0 
L 538 0 
L 538 3500 
L 1656 3500 
L 1656 2988 
Q 1909 3294 2193 3439 
Q 2478 3584 2822 3584 
Q 3428 3584 3742 3212 
Q 4056 2841 4056 2131 
z
" transform="scale(0.015625)"/>
      <path id="DejaVuSans-Bold-37" d="M 428 4666 
L 3944 4666 
L 3944 3988 
L 2125 0 
L 953 0 
L 2675 3781 
L 428 3781 
L 428 4666 
z
" transform="scale(0.015625)"/>
     </defs>
     <use xlink:href="#DejaVuSans-Bold-6d"/>
     <use xlink:href="#DejaVuSans-Bold-65" x="104.199219"/>
     <use xlink:href="#DejaVuSans-Bold-61" x="172.021484"/>
     <use xlink:href="#DejaVuSans-Bold-6e" x="239.501953"/>
     <use xlink:href="#DejaVuSans-Bold-20" x="310.693359"/>
     <use xlink:href="#DejaVuSans-Bold-28" x="345.507812"/>
     <use xlink:href="#DejaVuSans-Bold-31" x="391.210938"/>
     <use xlink:href="#DejaVuSans-Bold-2c" x="460.791016"/>
     <use xlink:href="#DejaVuSans-Bold-37" x="498.779297"/>
     <use xlink:href="#DejaVuSans-Bold-37" x="568.359375"/>
     <use xlink:href="#DejaVuSans-Bold-33" x="637.939453"/>
     <use xlink:href="#DejaVuSans-Bold-29" x="707.519531"/>
    </g>
   </g>
   <g id="text_22">
    <!-- Stream Bitrate over Time -->
    <g transform="translate(293.189062 28.56) scale(0.12 -0.12)">
     <defs>
      <path id="DejaVuSans-53" d="M 3425 4513 
L 3425 3897 
Q 3066 4069 2747 4153 
Q 2428 4238 2131 4238 
Q 1616 4238 1336 4038 
Q 1056 3838 1056 3469 
Q 1056 3159 1242 3001 
Q 1428 2844 1947 2747 
L 2328 2669 
Q 3034 2534 3370 2195 
Q 3706 1856 3706 1288 
Q 3706 609 3251 259 
Q 2797 -91 1919 -91 
Q 1588 -91 1214 -16 
Q 841 59 441 206 
L 441 856 
Q 825 641 1194 531 
Q 1563 422 1919 422 
Q 2459 422 2753 634 
Q 3047 847 3047 1241 
Q 3047 1584 2836 1778 
Q 2625 1972 2144 2069 
L 1759 2144 
Q 1053 2284 737 2584 
Q 422 2884 422 3419 
Q 422 4038 858 4394 
Q 1294 4750 2059 4750 
Q 2388 4750 2728 4690 
Q 3069 4631 3425 4513 
z
" transform="scale(0.015625)"/>
      <path id="DejaVuSans-6f" d="M 1959 3097 
Q 1497 3097 1228 2736 
Q 959 2375 959 1747 
Q 959 1119 1226 758 
Q 1494 397 1959 397 
Q 2419 397 2687 759 
Q 2956 1122 2956 1747 
Q 2956 2369 2687 2733 
Q 2419 3097 1959 3097 
z
M 1959 3584 
Q 2709 3584 3137 3096 
Q 3566 2609 3566 1747 
Q 3566 888 3137 398 
Q 2709 -91 1959 -91 
Q 1206 -91 779 398 
Q 353 888 353 1747 
Q 353 2609 779 3096 
Q 1206 3584 1959 3584 
z
" transform="scale(0.015625)"/>
      <path id="DejaVuSans-76" d="M 191 3500 
L 800 3500 
L 1894 563 
L 2988 3500 
L 3597 3500 
L 2284 0 
L 1503 0 
L 191 3500 
z
" transform="scale(0.015625)"/>
     </defs>
     <use xlink:href="#DejaVuSans-53"/>
     <use xlink:href="#DejaVuSans-74" x="63.476562"/>
     <use xlink:href="#DejaVuSans-72" x="102.685547"/>
     <use xlink:href="#DejaVuSans-65" x="141.548828"/>
     <use xlink:href="#DejaVuSans-61" x="203.072266"/>
     <use xlink:href="#DejaVuSans-6d" x="264.351562"/>
     <use xlink:href="#DejaVuSans-20" x="361.763672"/>
     <use xlink:href="#DejaVuSans-42" x="393.550781"/>
     <use xlink:href="#DejaVuSans-69" x="462.154297"/>
     <use xlink:href="#DejaVuSans-74" x="489.9375"/>
     <use xlink:href="#DejaVuSans-72" x="529.146484"/>
     <use xlink:href="#DejaVuSans-61" x="570.259766"/>
     <use xlink:href="#DejaVuSans-74" x="631.539062"/>
     <use xlink:href="#DejaVuSans-65" x="670.748047"/>
     <use xlink:href="#DejaVuSans-20" x="732.271484"/>
     <use xlink:href="#DejaVuSans-6f" x="764.058594"/>
     <use xlink:href="#DejaVuSans-76" x="825.240234"/>
     <use xlink:href="#DejaVuSans-65" x="884.419922"/>
     <use xlink:href="#DejaVuSans-72" x="945.943359"/>
     <use xlink:href="#DejaVuSans-20" x="987.056641"/>
     <use xlink:href="#DejaVuSans-54" x="1018.84375"/>
     <use xlink:href="#DejaVuSans-69" x="1076.802734"/>
     <use xlink:href="#DejaVuSans-6d" x="1104.585938"/>
     <use xlink:href="#DejaVuSans-65" x="1201.998047"/>
    </g>
   </g>
   <g id="legend_1">
    <g id="patch_7">
     <path d="M 602.139063 86.594375 
L 641 86.594375 
Q 643 86.594375 643 84.594375 
L 643 41.56 
Q 643 39.56 641 39.56 
L 602.139063 39.56 
Q 600.139063 39.56 600.139063 41.56 
L 600.139063 84.594375 
Q 600.139063 86.594375 602.139063 86.594375 
z
" style="fill: #ffffff; opacity: 0.8; stroke: #cccccc; stroke-linejoin: miter"/>
    </g>
    <g id="patch_8">
     <path d="M 604.139063 51.158438 
L 624.139063 51.158438 
L 624.139063 44.158438 
L 604.139063 44.158438 
z
" style="fill: #ff0000; stroke: #ff0000; stroke-width: 0.5; stroke-linejoin: miter"/>
    </g>
    <g id="text_23">
     <!-- I -->
     <g transform="translate(632.139063 51.158438) scale(0.1 -0.1)">
      <defs>
       <path id="DejaVuSans-49" d="M 628 4666 
L 1259 4666 
L 1259 0 
L 628 0 
L 628 4666 
z
" transform="scale(0.015625)"/>
      </defs>
      <use xlink:href="#DejaVuSans-49"/>
     </g>
    </g>
    <g id="patch_9">
     <path d="M 604.139063 65.836563 
L 624.139063 65.836563 
L 624.139063 58.836563 
L 604.139063 58.836563 
z
" style="fill: #0000ff; stroke: #0000ff; stroke-width: 0.5; stroke-linejoin: miter"/>
    </g>
    <g id="text_24">
     <!-- B -->
     <g transform="translate(632.139063 65.836563) scale(0.1 -0.1)">
      <use xlink:href="#DejaVuSans-42"/>
     </g>
    </g>
    <g id="patch_10">
     <path d="M 604.139063 80.514688 
L 624.139063 80.514688 
L 624.139063 73.514688 
L 604.139063 73.514688 
z
" style="fill: #008000; stroke: #008000; stroke-width: 0.5; stroke-linejoin: miter"/>
    </g>
    <g id="text_25">
     <!-- P -->
     <g transform="translate(632.139063 80.514688) scale(0.1 -0.1)">
      <defs>
       <path id="DejaVuSans-50" d="M 1259 4147 
L 1259 2394 
L 2053 2394 
Q 2494 2394 2734 2622 
Q 2975 2850 2975 3272 
Q 2975 3691 2734 3919 
Q 2494 4147 2053 4147 
L 1259 4147 
z
M 628 4666 
L 2053 4666 
Q 2838 4666 3239 4311 
Q 3641 3956 3641 3272 
Q 3641 2581 3239 2228 
Q 2838 1875 2053 1875 
L 1259 1875 
L 1259 0 
L 628 0 
L 628 4666 
z
" transform="scale(0.015625)"/>
      </defs>
      <use xlink:href="#DejaVuSans-50"/>
     </g>
    </g>
   </g>
  </g>
 </g>
 <defs>
  <clipPath id="p4e6d5c6566">
   <rect x="90" y="34.56" width="558" height="221.76"/>
  </clipPath>
 </defs>
</svg>
