<?xml version="1.0" encoding="utf-8" standalone="no"?>
<!DOCTYPE svg PUBLIC "-//W3C//DTD SVG 1.1//EN"
  "http://www.w3.org/Graphics/SVG/1.1/DTD/svg11.dtd">
<svg xmlns:xlink="http://www.w3.org/1999/xlink" width="720pt" height="288pt" viewBox="0 0 720 288" xmlns="http://www.w3.org/2000/svg" version="1.1">
 <metadata>
  <rdf:RDF xmlns:dc="http://purl.org/dc/elements/1.1/" xmlns:cc="http://creativecommons.org/ns#" xmlns:rdf="http://www.w3.org/1999/02/22-rdf-syntax-ns#">
   <cc:Work>
    <dc:type rdf:resource="http://purl.org/dc/dcmitype/StillImage"/>
    <dc:date>2023-05-07T02:10:00.889184</dc:date>
    <dc:format>image/svg+xml</dc:format>
    <dc:creator>
     <cc:Agent>
      <dc:title>Matplotlib v3.7.1, https://matplotlib.org/</dc:title>
     </cc:Agent>
    </dc:creator>
   </cc:Work>
  </rdf:RDF>
 </metadata>
 <defs>
  <style type="text/css">*{stroke-linejoin: round; stroke-linecap: butt}</style>
 </defs>
 <g id="figure_1">
  <g id="patch_1">
   <path d="M 0 288 
L 720 288 
L 720 0 
L 0 0 
z
" style="fill: #ffffff"/>
  </g>
  <g id="axes_1">
   <g id="patch_2">
    <path d="M 90 256.32 
L 648 256.32 
L 648 34.56 
L 90 34.56 
z
" style="fill: #ffffff"/>
   </g>
   <g id="matplotlib.axis_1">
    <g id="xtick_1">
     <g id="line2d_1">
      <defs>
       <path id="m7cb0d662b2" d="M 0 0 
L 0 3.5 
" style="stroke: #000000; stroke-width: 0.8"/>
      </defs>
      <g>
       <use xlink:href="#m7cb0d662b2" x="115.363636" y="256.32" style="stroke: #000000; stroke-width: 0.8"/>
      </g>
     </g>
     <g id="text_1">
      <!-- 0:00:00 -->
      <g transform="translate(96.088636 270.918437) scale(0.1 -0.1)">
       <defs>
        <path id="DejaVuSans-30" d="M 2034 4250 
Q 1547 4250 1301 3770 
Q 1056 3291 1056 2328 
Q 1056 1369 1301 889 
Q 1547 409 2034 409 
Q 2525 409 2770 889 
Q 3016 1369 3016 2328 
Q 3016 3291 2770 3770 
Q 2525 4250 2034 4250 
z
M 2034 4750 
Q 2819 4750 3233 4129 
Q 3647 3509 3647 2328 
Q 3647 1150 3233 529 
Q 2819 -91 2034 -91 
Q 1250 -91 836 529 
Q 422 1150 422 2328 
Q 422 3509 836 4129 
Q 1250 4750 2034 4750 
z
" transform="scale(0.015625)"/>
        <path id="DejaVuSans-3a" d="M 750 794 
L 1409 794 
L 1409 0 
L 750 0 
L 750 794 
z
M 750 3309 
L 1409 3309 
L 1409 2516 
L 750 2516 
L 750 3309 
z
" transform="scale(0.015625)"/>
       </defs>
       <use xlink:href="#DejaVuSans-30"/>
       <use xlink:href="#DejaVuSans-3a" x="63.623047"/>
       <use xlink:href="#DejaVuSans-30" x="97.314453"/>
       <use xlink:href="#DejaVuSans-30" x="160.9375"/>
       <use xlink:href="#DejaVuSans-3a" x="224.560547"/>
       <use xlink:href="#DejaVuSans-30" x="258.251953"/>
       <use xlink:href="#DejaVuSans-30" x="321.875"/>
      </g>
     </g>
    </g>
    <g id="xtick_2">
     <g id="line2d_2">
      <g>
       <use xlink:href="#m7cb0d662b2" x="166.090909" y="256.32" style="stroke: #000000; stroke-width: 0.8"/>
      </g>
     </g>
     <g id="text_2">
      <!-- 0:00:30 -->
      <g transform="translate(146.815909 270.918437) scale(0.1 -0.1)">
       <defs>
        <path id="DejaVuSans-33" d="M 2597 2516 
Q 3050 2419 3304 2112 
Q 3559 1806 3559 1356 
Q 3559 666 3084 287 
Q 2609 -91 1734 -91 
Q 1441 -91 1130 -33 
Q 819 25 488 141 
L 488 750 
Q 750 597 1062 519 
Q 1375 441 1716 441 
Q 2309 441 2620 675 
Q 2931 909 2931 1356 
Q 2931 1769 2642 2001 
Q 2353 2234 1838 2234 
L 1294 2234 
L 1294 2753 
L 1863 2753 
Q 2328 2753 2575 2939 
Q 2822 3125 2822 3475 
Q 2822 3834 2567 4026 
Q 2313 4219 1838 4219 
Q 1578 4219 1281 4162 
Q 984 4106 628 3988 
L 628 4550 
Q 988 4650 1302 4700 
Q 1616 4750 1894 4750 
Q 2613 4750 3031 4423 
Q 3450 4097 3450 3541 
Q 3450 3153 3228 2886 
Q 3006 2619 2597 2516 
z
" transform="scale(0.015625)"/>
       </defs>
       <use xlink:href="#DejaVuSans-30"/>
       <use xlink:href="#DejaVuSans-3a" x="63.623047"/>
       <use xlink:href="#DejaVuSans-30" x="97.314453"/>
       <use xlink:href="#DejaVuSans-30" x="160.9375"/>
       <use xlink:href="#DejaVuSans-3a" x="224.560547"/>
       <use xlink:href="#DejaVuSans-33" x="258.251953"/>
       <use xlink:href="#DejaVuSans-30" x="321.875"/>
      </g>
     </g>
    </g>
    <g id="xtick_3">
     <g id="line2d_3">
      <g>
       <use xlink:href="#m7cb0d662b2" x="216.818182" y="256.32" style="stroke: #000000; stroke-width: 0.8"/>
      </g>
     </g>
     <g id="text_3">
      <!-- 0:01:00 -->
      <g transform="translate(197.543182 270.918437) scale(0.1 -0.1)">
       <defs>
        <path id="DejaVuSans-31" d="M 794 531 
L 1825 531 
L 1825 4091 
L 703 3866 
L 703 4441 
L 1819 4666 
L 2450 4666 
L 2450 531 
L 3481 531 
L 3481 0 
L 794 0 
L 794 531 
z
" transform="scale(0.015625)"/>
       </defs>
       <use xlink:href="#DejaVuSans-30"/>
       <use xlink:href="#DejaVuSans-3a" x="63.623047"/>
       <use xlink:href="#DejaVuSans-30" x="97.314453"/>
       <use xlink:href="#DejaVuSans-31" x="160.9375"/>
       <use xlink:href="#DejaVuSans-3a" x="224.560547"/>
       <use xlink:href="#DejaVuSans-30" x="258.251953"/>
       <use xlink:href="#DejaVuSans-30" x="321.875"/>
      </g>
     </g>
    </g>
    <g id="xtick_4">
     <g id="line2d_4">
      <g>
       <use xlink:href="#m7cb0d662b2" x="267.545455" y="256.32" style="stroke: #000000; stroke-width: 0.8"/>
      </g>
     </g>
     <g id="text_4">
      <!-- 0:01:30 -->
      <g transform="translate(248.270455 270.918437) scale(0.1 -0.1)">
       <use xlink:href="#DejaVuSans-30"/>
       <use xlink:href="#DejaVuSans-3a" x="63.623047"/>
       <use xlink:href="#DejaVuSans-30" x="97.314453"/>
       <use xlink:href="#DejaVuSans-31" x="160.9375"/>
       <use xlink:href="#DejaVuSans-3a" x="224.560547"/>
       <use xlink:href="#DejaVuSans-33" x="258.251953"/>
       <use xlink:href="#DejaVuSans-30" x="321.875"/>
      </g>
     </g>
    </g>
    <g id="xtick_5">
     <g id="line2d_5">
      <g>
       <use xlink:href="#m7cb0d662b2" x="318.272727" y="256.32" style="stroke: #000000; stroke-width: 0.8"/>
      </g>
     </g>
     <g id="text_5">
      <!-- 0:02:00 -->
      <g transform="translate(298.997727 270.918437) scale(0.1 -0.1)">
       <defs>
        <path id="DejaVuSans-32" d="M 1228 531 
L 3431 531 
L 3431 0 
L 469 0 
L 469 531 
Q 828 903 1448 1529 
Q 2069 2156 2228 2338 
Q 2531 2678 2651 2914 
Q 2772 3150 2772 3378 
Q 2772 3750 2511 3984 
Q 2250 4219 1831 4219 
Q 1534 4219 1204 4116 
Q 875 4013 500 3803 
L 500 4441 
Q 881 4594 1212 4672 
Q 1544 4750 1819 4750 
Q 2544 4750 2975 4387 
Q 3406 4025 3406 3419 
Q 3406 3131 3298 2873 
Q 3191 2616 2906 2266 
Q 2828 2175 2409 1742 
Q 1991 1309 1228 531 
z
" transform="scale(0.015625)"/>
       </defs>
       <use xlink:href="#DejaVuSans-30"/>
       <use xlink:href="#DejaVuSans-3a" x="63.623047"/>
       <use xlink:href="#DejaVuSans-30" x="97.314453"/>
       <use xlink:href="#DejaVuSans-32" x="160.9375"/>
       <use xlink:href="#DejaVuSans-3a" x="224.560547"/>
       <use xlink:href="#DejaVuSans-30" x="258.251953"/>
       <use xlink:href="#DejaVuSans-30" x="321.875"/>
      </g>
     </g>
    </g>
    <g id="xtick_6">
     <g id="line2d_6">
      <g>
       <use xlink:href="#m7cb0d662b2" x="369" y="256.32" style="stroke: #000000; stroke-width: 0.8"/>
      </g>
     </g>
     <g id="text_6">
      <!-- 0:02:30 -->
      <g transform="translate(349.725 270.918437) scale(0.1 -0.1)">
       <use xlink:href="#DejaVuSans-30"/>
       <use xlink:href="#DejaVuSans-3a" x="63.623047"/>
       <use xlink:href="#DejaVuSans-30" x="97.314453"/>
       <use xlink:href="#DejaVuSans-32" x="160.9375"/>
       <use xlink:href="#DejaVuSans-3a" x="224.560547"/>
       <use xlink:href="#DejaVuSans-33" x="258.251953"/>
       <use xlink:href="#DejaVuSans-30" x="321.875"/>
      </g>
     </g>
    </g>
    <g id="xtick_7">
     <g id="line2d_7">
      <g>
       <use xlink:href="#m7cb0d662b2" x="419.727273" y="256.32" style="stroke: #000000; stroke-width: 0.8"/>
      </g>
     </g>
     <g id="text_7">
      <!-- 0:03:00 -->
      <g transform="translate(400.452273 270.918437) scale(0.1 -0.1)">
       <use xlink:href="#DejaVuSans-30"/>
       <use xlink:href="#DejaVuSans-3a" x="63.623047"/>
       <use xlink:href="#DejaVuSans-30" x="97.314453"/>
       <use xlink:href="#DejaVuSans-33" x="160.9375"/>
       <use xlink:href="#DejaVuSans-3a" x="224.560547"/>
       <use xlink:href="#DejaVuSans-30" x="258.251953"/>
       <use xlink:href="#DejaVuSans-30" x="321.875"/>
      </g>
     </g>
    </g>
    <g id="xtick_8">
     <g id="line2d_8">
      <g>
       <use xlink:href="#m7cb0d662b2" x="470.454545" y="256.32" style="stroke: #000000; stroke-width: 0.8"/>
      </g>
     </g>
     <g id="text_8">
      <!-- 0:03:30 -->
      <g transform="translate(451.179545 270.918437) scale(0.1 -0.1)">
       <use xlink:href="#DejaVuSans-30"/>
       <use xlink:href="#DejaVuSans-3a" x="63.623047"/>
       <use xlink:href="#DejaVuSans-30" x="97.314453"/>
       <use xlink:href="#DejaVuSans-33" x="160.9375"/>
       <use xlink:href="#DejaVuSans-3a" x="224.560547"/>
       <use xlink:href="#DejaVuSans-33" x="258.251953"/>
       <use xlink:href="#DejaVuSans-30" x="321.875"/>
      </g>
     </g>
    </g>
    <g id="xtick_9">
     <g id="line2d_9">
      <g>
       <use xlink:href="#m7cb0d662b2" x="521.181818" y="256.32" style="stroke: #000000; stroke-width: 0.8"/>
      </g>
     </g>
     <g id="text_9">
      <!-- 0:04:00 -->
      <g transform="translate(501.906818 270.918437) scale(0.1 -0.1)">
       <defs>
        <path id="DejaVuSans-34" d="M 2419 4116 
L 825 1625 
L 2419 1625 
L 2419 4116 
z
M 2253 4666 
L 3047 4666 
L 3047 1625 
L 3713 1625 
L 3713 1100 
L 3047 1100 
L 3047 0 
L 2419 0 
L 2419 1100 
L 313 1100 
L 313 1709 
L 2253 4666 
z
" transform="scale(0.015625)"/>
       </defs>
       <use xlink:href="#DejaVuSans-30"/>
       <use xlink:href="#DejaVuSans-3a" x="63.623047"/>
       <use xlink:href="#DejaVuSans-30" x="97.314453"/>
       <use xlink:href="#DejaVuSans-34" x="160.9375"/>
       <use xlink:href="#DejaVuSans-3a" x="224.560547"/>
       <use xlink:href="#DejaVuSans-30" x="258.251953"/>
       <use xlink:href="#DejaVuSans-30" x="321.875"/>
      </g>
     </g>
    </g>
    <g id="xtick_10">
     <g id="line2d_10">
      <g>
       <use xlink:href="#m7cb0d662b2" x="571.909091" y="256.32" style="stroke: #000000; stroke-width: 0.8"/>
      </g>
     </g>
     <g id="text_10">
      <!-- 0:04:30 -->
      <g transform="translate(552.634091 270.918437) scale(0.1 -0.1)">
       <use xlink:href="#DejaVuSans-30"/>
       <use xlink:href="#DejaVuSans-3a" x="63.623047"/>
       <use xlink:href="#DejaVuSans-30" x="97.314453"/>
       <use xlink:href="#DejaVuSans-34" x="160.9375"/>
       <use xlink:href="#DejaVuSans-3a" x="224.560547"/>
       <use xlink:href="#DejaVuSans-33" x="258.251953"/>
       <use xlink:href="#DejaVuSans-30" x="321.875"/>
      </g>
     </g>
    </g>
    <g id="xtick_11">
     <g id="line2d_11">
      <g>
       <use xlink:href="#m7cb0d662b2" x="622.636364" y="256.32" style="stroke: #000000; stroke-width: 0.8"/>
      </g>
     </g>
     <g id="text_11">
      <!-- 0:05:00 -->
      <g transform="translate(603.361364 270.918437) scale(0.1 -0.1)">
       <defs>
        <path id="DejaVuSans-35" d="M 691 4666 
L 3169 4666 
L 3169 4134 
L 1269 4134 
L 1269 2991 
Q 1406 3038 1543 3061 
Q 1681 3084 1819 3084 
Q 2600 3084 3056 2656 
Q 3513 2228 3513 1497 
Q 3513 744 3044 326 
Q 2575 -91 1722 -91 
Q 1428 -91 1123 -41 
Q 819 9 494 109 
L 494 744 
Q 775 591 1075 516 
Q 1375 441 1709 441 
Q 2250 441 2565 725 
Q 2881 1009 2881 1497 
Q 2881 1984 2565 2268 
Q 2250 2553 1709 2553 
Q 1456 2553 1204 2497 
Q 953 2441 691 2322 
L 691 4666 
z
" transform="scale(0.015625)"/>
       </defs>
       <use xlink:href="#DejaVuSans-30"/>
       <use xlink:href="#DejaVuSans-3a" x="63.623047"/>
       <use xlink:href="#DejaVuSans-30" x="97.314453"/>
       <use xlink:href="#DejaVuSans-35" x="160.9375"/>
       <use xlink:href="#DejaVuSans-3a" x="224.560547"/>
       <use xlink:href="#DejaVuSans-30" x="258.251953"/>
       <use xlink:href="#DejaVuSans-30" x="321.875"/>
      </g>
     </g>
    </g>
    <g id="text_12">
     <!-- Time -->
     <g transform="translate(356.766406 284.596563) scale(0.1 -0.1)">
      <defs>
       <path id="DejaVuSans-54" d="M -19 4666 
L 3928 4666 
L 3928 4134 
L 2272 4134 
L 2272 0 
L 1638 0 
L 1638 4134 
L -19 4134 
L -19 4666 
z
" transform="scale(0.015625)"/>
       <path id="DejaVuSans-69" d="M 603 3500 
L 1178 3500 
L 1178 0 
L 603 0 
L 603 3500 
z
M 603 4863 
L 1178 4863 
L 1178 4134 
L 603 4134 
L 603 4863 
z
" transform="scale(0.015625)"/>
       <path id="DejaVuSans-6d" d="M 3328 2828 
Q 3544 3216 3844 3400 
Q 4144 3584 4550 3584 
Q 5097 3584 5394 3201 
Q 5691 2819 5691 2113 
L 5691 0 
L 5113 0 
L 5113 2094 
Q 5113 2597 4934 2840 
Q 4756 3084 4391 3084 
Q 3944 3084 3684 2787 
Q 3425 2491 3425 1978 
L 3425 0 
L 2847 0 
L 2847 2094 
Q 2847 2600 2669 2842 
Q 2491 3084 2119 3084 
Q 1678 3084 1418 2786 
Q 1159 2488 1159 1978 
L 1159 0 
L 581 0 
L 581 3500 
L 1159 3500 
L 1159 2956 
Q 1356 3278 1631 3431 
Q 1906 3584 2284 3584 
Q 2666 3584 2933 3390 
Q 3200 3197 3328 2828 
z
" transform="scale(0.015625)"/>
       <path id="DejaVuSans-65" d="M 3597 1894 
L 3597 1613 
L 953 1613 
Q 991 1019 1311 708 
Q 1631 397 2203 397 
Q 2534 397 2845 478 
Q 3156 559 3463 722 
L 3463 178 
Q 3153 47 2828 -22 
Q 2503 -91 2169 -91 
Q 1331 -91 842 396 
Q 353 884 353 1716 
Q 353 2575 817 3079 
Q 1281 3584 2069 3584 
Q 2775 3584 3186 3129 
Q 3597 2675 3597 1894 
z
M 3022 2063 
Q 3016 2534 2758 2815 
Q 2500 3097 2075 3097 
Q 1594 3097 1305 2825 
Q 1016 2553 972 2059 
L 3022 2063 
z
" transform="scale(0.015625)"/>
      </defs>
      <use xlink:href="#DejaVuSans-54"/>
      <use xlink:href="#DejaVuSans-69" x="57.958984"/>
      <use xlink:href="#DejaVuSans-6d" x="85.742188"/>
      <use xlink:href="#DejaVuSans-65" x="183.154297"/>
     </g>
    </g>
   </g>
   <g id="matplotlib.axis_2">
    <g id="ytick_1">
     <g id="line2d_12">
      <path d="M 90 246.24 
L 648 246.24 
" clip-path="url(#pf161c68d5a)" style="fill: none; stroke: #b0b0b0; stroke-width: 0.8; stroke-linecap: square"/>
     </g>
     <g id="line2d_13">
      <defs>
       <path id="m41ab0c74dc" d="M 0 0 
L -3.5 0 
" style="stroke: #000000; stroke-width: 0.8"/>
      </defs>
      <g>
       <use xlink:href="#m41ab0c74dc" x="90" y="246.24" style="stroke: #000000; stroke-width: 0.8"/>
      </g>
     </g>
     <g id="text_13">
      <!-- 0 -->
      <g transform="translate(76.6375 250.039219) scale(0.1 -0.1)">
       <use xlink:href="#DejaVuSans-30"/>
      </g>
     </g>
    </g>
    <g id="ytick_2">
     <g id="line2d_14">
      <path d="M 90 205.948204 
L 648 205.948204 
" clip-path="url(#pf161c68d5a)" style="fill: none; stroke: #b0b0b0; stroke-width: 0.8; stroke-linecap: square"/>
     </g>
     <g id="line2d_15">
      <g>
       <use xlink:href="#m41ab0c74dc" x="90" y="205.948204" style="stroke: #000000; stroke-width: 0.8"/>
      </g>
     </g>
     <g id="text_14">
      <!-- 2,000 -->
      <g transform="translate(54.371875 209.747423) scale(0.1 -0.1)">
       <defs>
        <path id="DejaVuSans-2c" d="M 750 794 
L 1409 794 
L 1409 256 
L 897 -744 
L 494 -744 
L 750 256 
L 750 794 
z
" transform="scale(0.015625)"/>
       </defs>
       <use xlink:href="#DejaVuSans-32"/>
       <use xlink:href="#DejaVuSans-2c" x="63.623047"/>
       <use xlink:href="#DejaVuSans-30" x="95.410156"/>
       <use xlink:href="#DejaVuSans-30" x="159.033203"/>
       <use xlink:href="#DejaVuSans-30" x="222.65625"/>
      </g>
     </g>
    </g>
    <g id="ytick_3">
     <g id="line2d_16">
      <path d="M 90 165.656409 
L 648 165.656409 
" clip-path="url(#pf161c68d5a)" style="fill: none; stroke: #b0b0b0; stroke-width: 0.8; stroke-linecap: square"/>
     </g>
     <g id="line2d_17">
      <g>
       <use xlink:href="#m41ab0c74dc" x="90" y="165.656409" style="stroke: #000000; stroke-width: 0.8"/>
      </g>
     </g>
     <g id="text_15">
      <!-- 4,000 -->
      <g transform="translate(54.371875 169.455627) scale(0.1 -0.1)">
       <use xlink:href="#DejaVuSans-34"/>
       <use xlink:href="#DejaVuSans-2c" x="63.623047"/>
       <use xlink:href="#DejaVuSans-30" x="95.410156"/>
       <use xlink:href="#DejaVuSans-30" x="159.033203"/>
       <use xlink:href="#DejaVuSans-30" x="222.65625"/>
      </g>
     </g>
    </g>
    <g id="ytick_4">
     <g id="line2d_18">
      <path d="M 90 125.364613 
L 648 125.364613 
" clip-path="url(#pf161c68d5a)" style="fill: none; stroke: #b0b0b0; stroke-width: 0.8; stroke-linecap: square"/>
     </g>
     <g id="line2d_19">
      <g>
       <use xlink:href="#m41ab0c74dc" x="90" y="125.364613" style="stroke: #000000; stroke-width: 0.8"/>
      </g>
     </g>
     <g id="text_16">
      <!-- 6,000 -->
      <g transform="translate(54.371875 129.163832) scale(0.1 -0.1)">
       <defs>
        <path id="DejaVuSans-36" d="M 2113 2584 
Q 1688 2584 1439 2293 
Q 1191 2003 1191 1497 
Q 1191 994 1439 701 
Q 1688 409 2113 409 
Q 2538 409 2786 701 
Q 3034 994 3034 1497 
Q 3034 2003 2786 2293 
Q 2538 2584 2113 2584 
z
M 3366 4563 
L 3366 3988 
Q 3128 4100 2886 4159 
Q 2644 4219 2406 4219 
Q 1781 4219 1451 3797 
Q 1122 3375 1075 2522 
Q 1259 2794 1537 2939 
Q 1816 3084 2150 3084 
Q 2853 3084 3261 2657 
Q 3669 2231 3669 1497 
Q 3669 778 3244 343 
Q 2819 -91 2113 -91 
Q 1303 -91 875 529 
Q 447 1150 447 2328 
Q 447 3434 972 4092 
Q 1497 4750 2381 4750 
Q 2619 4750 2861 4703 
Q 3103 4656 3366 4563 
z
" transform="scale(0.015625)"/>
       </defs>
       <use xlink:href="#DejaVuSans-36"/>
       <use xlink:href="#DejaVuSans-2c" x="63.623047"/>
       <use xlink:href="#DejaVuSans-30" x="95.410156"/>
       <use xlink:href="#DejaVuSans-30" x="159.033203"/>
       <use xlink:href="#DejaVuSans-30" x="222.65625"/>
      </g>
     </g>
    </g>
    <g id="ytick_5">
     <g id="line2d_20">
      <path d="M 90 85.072817 
L 648 85.072817 
" clip-path="url(#pf161c68d5a)" style="fill: none; stroke: #b0b0b0; stroke-width: 0.8; stroke-linecap: square"/>
     </g>
     <g id="line2d_21">
      <g>
       <use xlink:href="#m41ab0c74dc" x="90" y="85.072817" style="stroke: #000000; stroke-width: 0.8"/>
      </g>
     </g>
     <g id="text_17">
      <!-- 8,000 -->
      <g transform="translate(54.371875 88.872036) scale(0.1 -0.1)">
       <defs>
        <path id="DejaVuSans-38" d="M 2034 2216 
Q 1584 2216 1326 1975 
Q 1069 1734 1069 1313 
Q 1069 891 1326 650 
Q 1584 409 2034 409 
Q 2484 409 2743 651 
Q 3003 894 3003 1313 
Q 3003 1734 2745 1975 
Q 2488 2216 2034 2216 
z
M 1403 2484 
Q 997 2584 770 2862 
Q 544 3141 544 3541 
Q 544 4100 942 4425 
Q 1341 4750 2034 4750 
Q 2731 4750 3128 4425 
Q 3525 4100 3525 3541 
Q 3525 3141 3298 2862 
Q 3072 2584 2669 2484 
Q 3125 2378 3379 2068 
Q 3634 1759 3634 1313 
Q 3634 634 3220 271 
Q 2806 -91 2034 -91 
Q 1263 -91 848 271 
Q 434 634 434 1313 
Q 434 1759 690 2068 
Q 947 2378 1403 2484 
z
M 1172 3481 
Q 1172 3119 1398 2916 
Q 1625 2713 2034 2713 
Q 2441 2713 2670 2916 
Q 2900 3119 2900 3481 
Q 2900 3844 2670 4047 
Q 2441 4250 2034 4250 
Q 1625 4250 1398 4047 
Q 1172 3844 1172 3481 
z
" transform="scale(0.015625)"/>
       </defs>
       <use xlink:href="#DejaVuSans-38"/>
       <use xlink:href="#DejaVuSans-2c" x="63.623047"/>
       <use xlink:href="#DejaVuSans-30" x="95.410156"/>
       <use xlink:href="#DejaVuSans-30" x="159.033203"/>
       <use xlink:href="#DejaVuSans-30" x="222.65625"/>
      </g>
     </g>
    </g>
    <g id="ytick_6">
     <g id="line2d_22">
      <path d="M 90 44.781021 
L 648 44.781021 
" clip-path="url(#pf161c68d5a)" style="fill: none; stroke: #b0b0b0; stroke-width: 0.8; stroke-linecap: square"/>
     </g>
     <g id="line2d_23">
      <g>
       <use xlink:href="#m41ab0c74dc" x="90" y="44.781021" style="stroke: #000000; stroke-width: 0.8"/>
      </g>
     </g>
     <g id="text_18">
      <!-- 10,000 -->
      <g transform="translate(48.009375 48.58024) scale(0.1 -0.1)">
       <use xlink:href="#DejaVuSans-31"/>
       <use xlink:href="#DejaVuSans-30" x="63.623047"/>
       <use xlink:href="#DejaVuSans-2c" x="127.246094"/>
       <use xlink:href="#DejaVuSans-30" x="159.033203"/>
       <use xlink:href="#DejaVuSans-30" x="222.65625"/>
       <use xlink:href="#DejaVuSans-30" x="286.279297"/>
      </g>
     </g>
    </g>
    <g id="text_19">
     <!-- Bitrate (kbit/s) -->
     <g transform="translate(41.929688 181.574375) rotate(-90) scale(0.1 -0.1)">
      <defs>
       <path id="DejaVuSans-42" d="M 1259 2228 
L 1259 519 
L 2272 519 
Q 2781 519 3026 730 
Q 3272 941 3272 1375 
Q 3272 1813 3026 2020 
Q 2781 2228 2272 2228 
L 1259 2228 
z
M 1259 4147 
L 1259 2741 
L 2194 2741 
Q 2656 2741 2882 2914 
Q 3109 3088 3109 3444 
Q 3109 3797 2882 3972 
Q 2656 4147 2194 4147 
L 1259 4147 
z
M 628 4666 
L 2241 4666 
Q 2963 4666 3353 4366 
Q 3744 4066 3744 3513 
Q 3744 3084 3544 2831 
Q 3344 2578 2956 2516 
Q 3422 2416 3680 2098 
Q 3938 1781 3938 1306 
Q 3938 681 3513 340 
Q 3088 0 2303 0 
L 628 0 
L 628 4666 
z
" transform="scale(0.015625)"/>
       <path id="DejaVuSans-74" d="M 1172 4494 
L 1172 3500 
L 2356 3500 
L 2356 3053 
L 1172 3053 
L 1172 1153 
Q 1172 725 1289 603 
Q 1406 481 1766 481 
L 2356 481 
L 2356 0 
L 1766 0 
Q 1100 0 847 248 
Q 594 497 594 1153 
L 594 3053 
L 172 3053 
L 172 3500 
L 594 3500 
L 594 4494 
L 1172 4494 
z
" transform="scale(0.015625)"/>
       <path id="DejaVuSans-72" d="M 2631 2963 
Q 2534 3019 2420 3045 
Q 2306 3072 2169 3072 
Q 1681 3072 1420 2755 
Q 1159 2438 1159 1844 
L 1159 0 
L 581 0 
L 581 3500 
L 1159 3500 
L 1159 2956 
Q 1341 3275 1631 3429 
Q 1922 3584 2338 3584 
Q 2397 3584 2469 3576 
Q 2541 3569 2628 3553 
L 2631 2963 
z
" transform="scale(0.015625)"/>
       <path id="DejaVuSans-61" d="M 2194 1759 
Q 1497 1759 1228 1600 
Q 959 1441 959 1056 
Q 959 750 1161 570 
Q 1363 391 1709 391 
Q 2188 391 2477 730 
Q 2766 1069 2766 1631 
L 2766 1759 
L 2194 1759 
z
M 3341 1997 
L 3341 0 
L 2766 0 
L 2766 531 
Q 2569 213 2275 61 
Q 1981 -91 1556 -91 
Q 1019 -91 701 211 
Q 384 513 384 1019 
Q 384 1609 779 1909 
Q 1175 2209 1959 2209 
L 2766 2209 
L 2766 2266 
Q 2766 2663 2505 2880 
Q 2244 3097 1772 3097 
Q 1472 3097 1187 3025 
Q 903 2953 641 2809 
L 641 3341 
Q 956 3463 1253 3523 
Q 1550 3584 1831 3584 
Q 2591 3584 2966 3190 
Q 3341 2797 3341 1997 
z
" transform="scale(0.015625)"/>
       <path id="DejaVuSans-20" transform="scale(0.015625)"/>
       <path id="DejaVuSans-28" d="M 1984 4856 
Q 1566 4138 1362 3434 
Q 1159 2731 1159 2009 
Q 1159 1288 1364 580 
Q 1569 -128 1984 -844 
L 1484 -844 
Q 1016 -109 783 600 
Q 550 1309 550 2009 
Q 550 2706 781 3412 
Q 1013 4119 1484 4856 
L 1984 4856 
z
" transform="scale(0.015625)"/>
       <path id="DejaVuSans-6b" d="M 581 4863 
L 1159 4863 
L 1159 1991 
L 2875 3500 
L 3609 3500 
L 1753 1863 
L 3688 0 
L 2938 0 
L 1159 1709 
L 1159 0 
L 581 0 
L 581 4863 
z
" transform="scale(0.015625)"/>
       <path id="DejaVuSans-62" d="M 3116 1747 
Q 3116 2381 2855 2742 
Q 2594 3103 2138 3103 
Q 1681 3103 1420 2742 
Q 1159 2381 1159 1747 
Q 1159 1113 1420 752 
Q 1681 391 2138 391 
Q 2594 391 2855 752 
Q 3116 1113 3116 1747 
z
M 1159 2969 
Q 1341 3281 1617 3432 
Q 1894 3584 2278 3584 
Q 2916 3584 3314 3078 
Q 3713 2572 3713 1747 
Q 3713 922 3314 415 
Q 2916 -91 2278 -91 
Q 1894 -91 1617 61 
Q 1341 213 1159 525 
L 1159 0 
L 581 0 
L 581 4863 
L 1159 4863 
L 1159 2969 
z
" transform="scale(0.015625)"/>
       <path id="DejaVuSans-2f" d="M 1625 4666 
L 2156 4666 
L 531 -594 
L 0 -594 
L 1625 4666 
z
" transform="scale(0.015625)"/>
       <path id="DejaVuSans-73" d="M 2834 3397 
L 2834 2853 
Q 2591 2978 2328 3040 
Q 2066 3103 1784 3103 
Q 1356 3103 1142 2972 
Q 928 2841 928 2578 
Q 928 2378 1081 2264 
Q 1234 2150 1697 2047 
L 1894 2003 
Q 2506 1872 2764 1633 
Q 3022 1394 3022 966 
Q 3022 478 2636 193 
Q 2250 -91 1575 -91 
Q 1294 -91 989 -36 
Q 684 19 347 128 
L 347 722 
Q 666 556 975 473 
Q 1284 391 1588 391 
Q 1994 391 2212 530 
Q 2431 669 2431 922 
Q 2431 1156 2273 1281 
Q 2116 1406 1581 1522 
L 1381 1569 
Q 847 1681 609 1914 
Q 372 2147 372 2553 
Q 372 3047 722 3315 
Q 1072 3584 1716 3584 
Q 2034 3584 2315 3537 
Q 2597 3491 2834 3397 
z
" transform="scale(0.015625)"/>
       <path id="DejaVuSans-29" d="M 513 4856 
L 1013 4856 
Q 1481 4119 1714 3412 
Q 1947 2706 1947 2009 
Q 1947 1309 1714 600 
Q 1481 -109 1013 -844 
L 513 -844 
Q 928 -128 1133 580 
Q 1338 1288 1338 2009 
Q 1338 2731 1133 3434 
Q 928 4138 513 4856 
z
" transform="scale(0.015625)"/>
      </defs>
      <use xlink:href="#DejaVuSans-42"/>
      <use xlink:href="#DejaVuSans-69" x="68.603516"/>
      <use xlink:href="#DejaVuSans-74" x="96.386719"/>
      <use xlink:href="#DejaVuSans-72" x="135.595703"/>
      <use xlink:href="#DejaVuSans-61" x="176.708984"/>
      <use xlink:href="#DejaVuSans-74" x="237.988281"/>
      <use xlink:href="#DejaVuSans-65" x="277.197266"/>
      <use xlink:href="#DejaVuSans-20" x="338.720703"/>
      <use xlink:href="#DejaVuSans-28" x="370.507812"/>
      <use xlink:href="#DejaVuSans-6b" x="409.521484"/>
      <use xlink:href="#DejaVuSans-62" x="467.431641"/>
      <use xlink:href="#DejaVuSans-69" x="530.908203"/>
      <use xlink:href="#DejaVuSans-74" x="558.691406"/>
      <use xlink:href="#DejaVuSans-2f" x="597.900391"/>
      <use xlink:href="#DejaVuSans-73" x="631.591797"/>
      <use xlink:href="#DejaVuSans-29" x="683.691406"/>
     </g>
    </g>
   </g>
   <g id="PolyCollection_1">
    <defs>
     <path id="m9377d83241" d="M 115.363636 -43.633569 
L 115.363636 -41.76 
L 117.054545 -41.76 
L 118.745455 -41.76 
L 120.436364 -41.76 
L 122.127273 -41.76 
L 123.818182 -41.76 
L 125.509091 -41.76 
L 127.2 -41.76 
L 128.890909 -41.76 
L 130.581818 -41.76 
L 132.272727 -41.76 
L 133.963636 -41.76 
L 135.654545 -41.76 
L 137.345455 -41.76 
L 139.036364 -41.76 
L 140.727273 -41.76 
L 142.418182 -41.76 
L 144.109091 -41.76 
L 145.8 -41.76 
L 147.490909 -41.76 
L 149.181818 -41.76 
L 150.872727 -41.76 
L 152.563636 -41.76 
L 154.254545 -41.76 
L 155.945455 -41.76 
L 157.636364 -41.76 
L 159.327273 -41.76 
L 161.018182 -41.76 
L 162.709091 -41.76 
L 164.4 -41.76 
L 166.090909 -41.76 
L 167.781818 -41.76 
L 169.472727 -41.76 
L 171.163636 -41.76 
L 172.854545 -41.76 
L 174.545455 -41.76 
L 176.236364 -41.76 
L 177.927273 -41.76 
L 179.618182 -41.76 
L 181.309091 -41.76 
L 183 -41.76 
L 184.690909 -41.76 
L 186.381818 -41.76 
L 188.072727 -41.76 
L 189.763636 -41.76 
L 191.454545 -41.76 
L 193.145455 -41.76 
L 194.836364 -41.76 
L 196.527273 -41.76 
L 198.218182 -41.76 
L 199.909091 -41.76 
L 201.6 -41.76 
L 203.290909 -41.76 
L 204.981818 -41.76 
L 206.672727 -41.76 
L 208.363636 -41.76 
L 210.054545 -41.76 
L 211.745455 -41.76 
L 213.436364 -41.76 
L 215.127273 -41.76 
L 216.818182 -41.76 
L 218.509091 -41.76 
L 220.2 -41.76 
L 221.890909 -41.76 
L 223.581818 -41.76 
L 225.272727 -41.76 
L 226.963636 -41.76 
L 228.654545 -41.76 
L 230.345455 -41.76 
L 232.036364 -41.76 
L 233.727273 -41.76 
L 235.418182 -41.76 
L 237.109091 -41.76 
L 238.8 -41.76 
L 240.490909 -41.76 
L 242.181818 -41.76 
L 243.872727 -41.76 
L 245.563636 -41.76 
L 247.254545 -41.76 
L 248.945455 -41.76 
L 250.636364 -41.76 
L 252.327273 -41.76 
L 254.018182 -41.76 
L 255.709091 -41.76 
L 257.4 -41.76 
L 259.090909 -41.76 
L 260.781818 -41.76 
L 262.472727 -41.76 
L 264.163636 -41.76 
L 265.854545 -41.76 
L 267.545455 -41.76 
L 269.236364 -41.76 
L 270.927273 -41.76 
L 272.618182 -41.76 
L 274.309091 -41.76 
L 276 -41.76 
L 277.690909 -41.76 
L 279.381818 -41.76 
L 281.072727 -41.76 
L 282.763636 -41.76 
L 284.454545 -41.76 
L 286.145455 -41.76 
L 287.836364 -41.76 
L 289.527273 -41.76 
L 291.218182 -41.76 
L 292.909091 -41.76 
L 294.6 -41.76 
L 296.290909 -41.76 
L 297.981818 -41.76 
L 299.672727 -41.76 
L 301.363636 -41.76 
L 303.054545 -41.76 
L 304.745455 -41.76 
L 306.436364 -41.76 
L 308.127273 -41.76 
L 309.818182 -41.76 
L 311.509091 -41.76 
L 313.2 -41.76 
L 314.890909 -41.76 
L 316.581818 -41.76 
L 318.272727 -41.76 
L 319.963636 -41.76 
L 321.654545 -41.76 
L 323.345455 -41.76 
L 325.036364 -41.76 
L 326.727273 -41.76 
L 328.418182 -41.76 
L 330.109091 -41.76 
L 331.8 -41.76 
L 333.490909 -41.76 
L 335.181818 -41.76 
L 336.872727 -41.76 
L 338.563636 -41.76 
L 340.254545 -41.76 
L 341.945455 -41.76 
L 343.636364 -41.76 
L 345.327273 -41.76 
L 347.018182 -41.76 
L 348.709091 -41.76 
L 350.4 -41.76 
L 352.090909 -41.76 
L 353.781818 -41.76 
L 355.472727 -41.76 
L 357.163636 -41.76 
L 358.854545 -41.76 
L 360.545455 -41.76 
L 362.236364 -41.76 
L 363.927273 -41.76 
L 365.618182 -41.76 
L 367.309091 -41.76 
L 369 -41.76 
L 370.690909 -41.76 
L 372.381818 -41.76 
L 374.072727 -41.76 
L 375.763636 -41.76 
L 377.454545 -41.76 
L 379.145455 -41.76 
L 380.836364 -41.76 
L 382.527273 -41.76 
L 384.218182 -41.76 
L 385.909091 -41.76 
L 387.6 -41.76 
L 389.290909 -41.76 
L 390.981818 -41.76 
L 392.672727 -41.76 
L 394.363636 -41.76 
L 396.054545 -41.76 
L 397.745455 -41.76 
L 399.436364 -41.76 
L 401.127273 -41.76 
L 402.818182 -41.76 
L 404.509091 -41.76 
L 406.2 -41.76 
L 407.890909 -41.76 
L 409.581818 -41.76 
L 411.272727 -41.76 
L 412.963636 -41.76 
L 414.654545 -41.76 
L 416.345455 -41.76 
L 418.036364 -41.76 
L 419.727273 -41.76 
L 421.418182 -41.76 
L 423.109091 -41.76 
L 424.8 -41.76 
L 426.490909 -41.76 
L 428.181818 -41.76 
L 429.872727 -41.76 
L 431.563636 -41.76 
L 433.254545 -41.76 
L 434.945455 -41.76 
L 436.636364 -41.76 
L 438.327273 -41.76 
L 440.018182 -41.76 
L 441.709091 -41.76 
L 443.4 -41.76 
L 445.090909 -41.76 
L 446.781818 -41.76 
L 448.472727 -41.76 
L 450.163636 -41.76 
L 451.854545 -41.76 
L 453.545455 -41.76 
L 455.236364 -41.76 
L 456.927273 -41.76 
L 458.618182 -41.76 
L 460.309091 -41.76 
L 462 -41.76 
L 463.690909 -41.76 
L 465.381818 -41.76 
L 467.072727 -41.76 
L 468.763636 -41.76 
L 470.454545 -41.76 
L 472.145455 -41.76 
L 473.836364 -41.76 
L 475.527273 -41.76 
L 477.218182 -41.76 
L 478.909091 -41.76 
L 480.6 -41.76 
L 482.290909 -41.76 
L 483.981818 -41.76 
L 485.672727 -41.76 
L 487.363636 -41.76 
L 489.054545 -41.76 
L 490.745455 -41.76 
L 492.436364 -41.76 
L 494.127273 -41.76 
L 495.818182 -41.76 
L 497.509091 -41.76 
L 499.2 -41.76 
L 500.890909 -41.76 
L 502.581818 -41.76 
L 504.272727 -41.76 
L 505.963636 -41.76 
L 507.654545 -41.76 
L 509.345455 -41.76 
L 511.036364 -41.76 
L 512.727273 -41.76 
L 514.418182 -41.76 
L 516.109091 -41.76 
L 517.8 -41.76 
L 519.490909 -41.76 
L 521.181818 -41.76 
L 522.872727 -41.76 
L 524.563636 -41.76 
L 526.254545 -41.76 
L 527.945455 -41.76 
L 529.636364 -41.76 
L 531.327273 -41.76 
L 533.018182 -41.76 
L 534.709091 -41.76 
L 536.4 -41.76 
L 538.090909 -41.76 
L 539.781818 -41.76 
L 541.472727 -41.76 
L 543.163636 -41.76 
L 544.854545 -41.76 
L 546.545455 -41.76 
L 548.236364 -41.76 
L 549.927273 -41.76 
L 551.618182 -41.76 
L 553.309091 -41.76 
L 555 -41.76 
L 556.690909 -41.76 
L 558.381818 -41.76 
L 560.072727 -41.76 
L 561.763636 -41.76 
L 563.454545 -41.76 
L 565.145455 -41.76 
L 566.836364 -41.76 
L 568.527273 -41.76 
L 570.218182 -41.76 
L 571.909091 -41.76 
L 573.6 -41.76 
L 575.290909 -41.76 
L 576.981818 -41.76 
L 578.672727 -41.76 
L 580.363636 -41.76 
L 582.054545 -41.76 
L 583.745455 -41.76 
L 585.436364 -41.76 
L 587.127273 -41.76 
L 588.818182 -41.76 
L 590.509091 -41.76 
L 592.2 -41.76 
L 593.890909 -41.76 
L 595.581818 -41.76 
L 597.272727 -41.76 
L 598.963636 -41.76 
L 600.654545 -41.76 
L 602.345455 -41.76 
L 604.036364 -41.76 
L 605.727273 -41.76 
L 607.418182 -41.76 
L 609.109091 -41.76 
L 610.8 -41.76 
L 612.490909 -41.76 
L 614.181818 -41.76 
L 615.872727 -41.76 
L 617.563636 -41.76 
L 619.254545 -41.76 
L 620.945455 -41.76 
L 622.636364 -41.76 
L 622.636364 -41.76 
L 622.636364 -41.76 
L 620.945455 -60.475539 
L 619.254545 -41.76 
L 617.563636 -41.76 
L 615.872727 -58.904159 
L 614.181818 -41.76 
L 612.490909 -41.76 
L 610.8 -106.38804 
L 609.109091 -41.76 
L 607.418182 -41.76 
L 605.727273 -41.76 
L 604.036364 -110.276199 
L 602.345455 -41.76 
L 600.654545 -41.76 
L 598.963636 -41.76 
L 597.272727 -74.799273 
L 595.581818 -82.978507 
L 593.890909 -41.76 
L 592.2 -90.633948 
L 590.509091 -41.76 
L 588.818182 -55.036147 
L 587.127273 -41.76 
L 585.436364 -102.983384 
L 583.745455 -41.76 
L 582.054545 -41.76 
L 580.363636 -41.76 
L 578.672727 -96.798593 
L 576.981818 -41.76 
L 575.290909 -41.76 
L 573.6 -41.76 
L 571.909091 -72.140014 
L 570.218182 -41.76 
L 568.527273 -77.418239 
L 566.836364 -77.962178 
L 565.145455 -41.76 
L 563.454545 -55.21746 
L 561.763636 -41.76 
L 560.072727 -130.50268 
L 558.381818 -41.76 
L 556.690909 -87.410605 
L 555 -41.76 
L 553.309091 -57.292487 
L 551.618182 -91.923286 
L 549.927273 -41.76 
L 548.236364 -54.592937 
L 546.545455 -58.984743 
L 544.854545 -41.76 
L 543.163636 -41.76 
L 541.472727 -66.076099 
L 539.781818 -41.76 
L 538.090909 -41.76 
L 536.4 -41.76 
L 534.709091 -41.76 
L 533.018182 -85.577328 
L 531.327273 -115.655153 
L 529.636364 -63.457132 
L 527.945455 -41.76 
L 526.254545 -41.76 
L 524.563636 -41.76 
L 522.872727 -67.244561 
L 521.181818 -41.76 
L 519.490909 -41.76 
L 517.8 -41.76 
L 516.109091 -41.76 
L 514.418182 -58.904159 
L 512.727273 -41.76 
L 511.036364 -117.085512 
L 509.345455 -41.76 
L 507.654545 -41.76 
L 505.963636 -41.76 
L 504.272727 -57.393217 
L 502.581818 -41.76 
L 500.890909 -130.704139 
L 499.2 -41.76 
L 497.509091 -41.76 
L 495.818182 -82.756902 
L 494.127273 -55.076438 
L 492.436364 -41.76 
L 490.745455 -65.532159 
L 489.054545 -41.76 
L 487.363636 -41.76 
L 485.672727 -41.76 
L 483.981818 -55.821837 
L 482.290909 -41.76 
L 480.6 -64.121947 
L 478.909091 -41.76 
L 477.218182 -41.76 
L 475.527273 -64.927783 
L 473.836364 -41.76 
L 472.145455 -63.457132 
L 470.454545 -69.35988 
L 468.763636 -41.76 
L 467.072727 -88.055273 
L 465.381818 -41.76 
L 463.690909 -41.76 
L 462 -41.76 
L 460.309091 -67.969813 
L 458.618182 -41.76 
L 456.927273 -41.76 
L 455.236364 -53.746809 
L 453.545455 -61.180646 
L 451.854545 -56.547089 
L 450.163636 -41.76 
L 448.472727 -41.76 
L 446.781818 -55.922566 
L 445.090909 -41.76 
L 443.4 -41.76 
L 441.709091 -82.071942 
L 440.018182 -41.76 
L 438.327273 -41.76 
L 436.636364 -49.516171 
L 434.945455 -71.878117 
L 433.254545 -41.76 
L 431.563636 -41.76 
L 429.872727 -41.76 
L 428.181818 -41.76 
L 426.490909 -74.537376 
L 424.8 -41.76 
L 423.109091 -74.557522 
L 421.418182 -41.76 
L 419.727273 -81.608586 
L 418.036364 -41.76 
L 416.345455 -58.098323 
L 414.654545 -41.76 
L 412.963636 -41.76 
L 411.272727 -41.76 
L 409.581818 -41.76 
L 407.890909 -57.634968 
L 406.2 -87.632209 
L 404.509091 -41.76 
L 402.818182 -61.885752 
L 401.127273 -41.76 
L 399.436364 -41.76 
L 397.745455 -85.537036 
L 396.054545 -59.58912 
L 394.363636 -86.242143 
L 392.672727 -89.969134 
L 390.981818 -41.76 
L 389.290909 -41.76 
L 387.6 -41.76 
L 385.909091 -95.408526 
L 384.218182 -41.76 
L 382.527273 -41.76 
L 380.836364 -78.909036 
L 379.145455 -41.76 
L 377.454545 -41.76 
L 375.763636 -41.76 
L 374.072727 -81.225814 
L 372.381818 -41.76 
L 370.690909 -41.76 
L 369 -155.423156 
L 367.309091 -41.76 
L 365.618182 -41.76 
L 363.927273 -69.339734 
L 362.236364 -41.76 
L 360.545455 -41.76 
L 358.854545 -41.76 
L 357.163636 -79.251516 
L 355.472727 -41.76 
L 353.781818 -41.76 
L 352.090909 -41.76 
L 350.4 -79.452975 
L 348.709091 -41.76 
L 347.018182 -41.76 
L 345.327273 -41.76 
L 343.636364 -75.725984 
L 341.945455 -41.76 
L 340.254545 -41.76 
L 338.563636 -41.76 
L 336.872727 -79.493267 
L 335.181818 -41.76 
L 333.490909 -41.76 
L 331.8 -41.76 
L 330.109091 -75.725984 
L 328.418182 -41.76 
L 326.727273 -70.770093 
L 325.036364 -41.76 
L 323.345455 -41.76 
L 321.654545 -79.271662 
L 319.963636 -90.593656 
L 318.272727 -41.76 
L 316.581818 -41.76 
L 314.890909 -41.76 
L 313.2 -99.639165 
L 311.509091 -52.981265 
L 309.818182 -41.76 
L 308.127273 -41.76 
L 306.436364 -41.76 
L 304.745455 -57.735697 
L 303.054545 -41.76 
L 301.363636 -41.76 
L 299.672727 -41.76 
L 297.981818 -59.04518 
L 296.290909 -41.76 
L 294.6 -41.76 
L 292.909091 -41.76 
L 291.218182 -113.66071 
L 289.527273 -41.76 
L 287.836364 -41.76 
L 286.145455 -41.76 
L 284.454545 -41.76 
L 282.763636 -71.253594 
L 281.072727 -41.76 
L 279.381818 -41.76 
L 277.690909 -41.76 
L 276 -76.269923 
L 274.309091 -86.141413 
L 272.618182 -41.76 
L 270.927273 -74.638105 
L 269.236364 -41.76 
L 267.545455 -41.76 
L 265.854545 -41.76 
L 264.163636 -71.173011 
L 262.472727 -41.76 
L 260.781818 -41.76 
L 259.090909 -41.76 
L 257.4 -83.401571 
L 255.709091 -41.76 
L 254.018182 -41.76 
L 252.327273 -41.76 
L 250.636364 -41.76 
L 248.945455 -80.11779 
L 247.254545 -41.76 
L 245.563636 -59.629411 
L 243.872727 -41.76 
L 242.181818 -105.400891 
L 240.490909 -41.76 
L 238.8 -77.478677 
L 237.109091 -56.406068 
L 235.418182 -41.76 
L 233.727273 -41.76 
L 232.036364 -41.76 
L 230.345455 -93.333499 
L 228.654545 -41.76 
L 226.963636 -41.76 
L 225.272727 -63.900342 
L 223.581818 -61.05977 
L 221.890909 -41.76 
L 220.2 -41.76 
L 218.509091 -41.76 
L 216.818182 -85.980246 
L 215.127273 -41.76 
L 213.436364 -41.76 
L 211.745455 -41.76 
L 210.054545 -92.467225 
L 208.363636 -41.76 
L 206.672727 -41.76 
L 204.981818 -41.76 
L 203.290909 -105.118849 
L 201.6 -41.76 
L 199.909091 -41.76 
L 198.218182 -41.76 
L 196.527273 -77.599552 
L 194.836364 -41.76 
L 193.145455 -41.76 
L 191.454545 -41.76 
L 189.763636 -41.76 
L 188.072727 -80.11779 
L 186.381818 -41.76 
L 184.690909 -41.76 
L 183 -41.76 
L 181.309091 -86.020538 
L 179.618182 -41.76 
L 177.927273 -41.76 
L 176.236364 -41.76 
L 174.545455 -103.043821 
L 172.854545 -41.76 
L 171.163636 -41.76 
L 169.472727 -41.76 
L 167.781818 -100.223396 
L 166.090909 -41.76 
L 164.4 -41.76 
L 162.709091 -41.76 
L 161.018182 -123.33074 
L 159.327273 -41.76 
L 157.636364 -41.76 
L 155.945455 -60.999332 
L 154.254545 -41.76 
L 152.563636 -41.76 
L 150.872727 -41.76 
L 149.181818 -61.623855 
L 147.490909 -41.76 
L 145.8 -41.76 
L 144.109091 -41.76 
L 142.418182 -106.952126 
L 140.727273 -41.76 
L 139.036364 -41.76 
L 137.345455 -41.76 
L 135.654545 -93.534958 
L 133.963636 -41.76 
L 132.272727 -41.76 
L 130.581818 -41.76 
L 128.890909 -65.109096 
L 127.2 -41.76 
L 125.509091 -41.76 
L 123.818182 -41.76 
L 122.127273 -44.318529 
L 120.436364 -41.76 
L 118.745455 -41.76 
L 117.054545 -41.76 
L 115.363636 -43.633569 
z
" style="stroke: #ff0000; stroke-width: 0.5"/>
    </defs>
    <g clip-path="url(#pf161c68d5a)">
     <use xlink:href="#m9377d83241" x="0" y="288" style="fill: #ff0000; stroke: #ff0000; stroke-width: 0.5"/>
    </g>
   </g>
   <g id="PolyCollection_2">
    <defs>
     <path id="ma9bb380a14" d="M 115.363636 -46.373411 
L 115.363636 -43.633569 
L 117.054545 -41.76 
L 118.745455 -41.76 
L 120.436364 -41.76 
L 122.127273 -44.318529 
L 123.818182 -41.76 
L 125.509091 -41.76 
L 127.2 -41.76 
L 128.890909 -65.109096 
L 130.581818 -41.76 
L 132.272727 -41.76 
L 133.963636 -41.76 
L 135.654545 -93.534958 
L 137.345455 -41.76 
L 139.036364 -41.76 
L 140.727273 -41.76 
L 142.418182 -106.952126 
L 144.109091 -41.76 
L 145.8 -41.76 
L 147.490909 -41.76 
L 149.181818 -61.623855 
L 150.872727 -41.76 
L 152.563636 -41.76 
L 154.254545 -41.76 
L 155.945455 -60.999332 
L 157.636364 -41.76 
L 159.327273 -41.76 
L 161.018182 -123.33074 
L 162.709091 -41.76 
L 164.4 -41.76 
L 166.090909 -41.76 
L 167.781818 -100.223396 
L 169.472727 -41.76 
L 171.163636 -41.76 
L 172.854545 -41.76 
L 174.545455 -103.043821 
L 176.236364 -41.76 
L 177.927273 -41.76 
L 179.618182 -41.76 
L 181.309091 -86.020538 
L 183 -41.76 
L 184.690909 -41.76 
L 186.381818 -41.76 
L 188.072727 -80.11779 
L 189.763636 -41.76 
L 191.454545 -41.76 
L 193.145455 -41.76 
L 194.836364 -41.76 
L 196.527273 -77.599552 
L 198.218182 -41.76 
L 199.909091 -41.76 
L 201.6 -41.76 
L 203.290909 -105.118849 
L 204.981818 -41.76 
L 206.672727 -41.76 
L 208.363636 -41.76 
L 210.054545 -92.467225 
L 211.745455 -41.76 
L 213.436364 -41.76 
L 215.127273 -41.76 
L 216.818182 -85.980246 
L 218.509091 -41.76 
L 220.2 -41.76 
L 221.890909 -41.76 
L 223.581818 -61.05977 
L 225.272727 -63.900342 
L 226.963636 -41.76 
L 228.654545 -41.76 
L 230.345455 -93.333499 
L 232.036364 -41.76 
L 233.727273 -41.76 
L 235.418182 -41.76 
L 237.109091 -56.406068 
L 238.8 -77.478677 
L 240.490909 -41.76 
L 242.181818 -105.400891 
L 243.872727 -41.76 
L 245.563636 -59.629411 
L 247.254545 -41.76 
L 248.945455 -80.11779 
L 250.636364 -41.76 
L 252.327273 -41.76 
L 254.018182 -41.76 
L 255.709091 -41.76 
L 257.4 -83.401571 
L 259.090909 -41.76 
L 260.781818 -41.76 
L 262.472727 -41.76 
L 264.163636 -71.173011 
L 265.854545 -41.76 
L 267.545455 -41.76 
L 269.236364 -41.76 
L 270.927273 -74.638105 
L 272.618182 -41.76 
L 274.309091 -86.141413 
L 276 -76.269923 
L 277.690909 -41.76 
L 279.381818 -41.76 
L 281.072727 -41.76 
L 282.763636 -71.253594 
L 284.454545 -41.76 
L 286.145455 -41.76 
L 287.836364 -41.76 
L 289.527273 -41.76 
L 291.218182 -113.66071 
L 292.909091 -41.76 
L 294.6 -41.76 
L 296.290909 -41.76 
L 297.981818 -59.04518 
L 299.672727 -41.76 
L 301.363636 -41.76 
L 303.054545 -41.76 
L 304.745455 -57.735697 
L 306.436364 -41.76 
L 308.127273 -41.76 
L 309.818182 -41.76 
L 311.509091 -52.981265 
L 313.2 -99.639165 
L 314.890909 -41.76 
L 316.581818 -41.76 
L 318.272727 -41.76 
L 319.963636 -90.593656 
L 321.654545 -79.271662 
L 323.345455 -41.76 
L 325.036364 -41.76 
L 326.727273 -70.770093 
L 328.418182 -41.76 
L 330.109091 -75.725984 
L 331.8 -41.76 
L 333.490909 -41.76 
L 335.181818 -41.76 
L 336.872727 -79.493267 
L 338.563636 -41.76 
L 340.254545 -41.76 
L 341.945455 -41.76 
L 343.636364 -75.725984 
L 345.327273 -41.76 
L 347.018182 -41.76 
L 348.709091 -41.76 
L 350.4 -79.452975 
L 352.090909 -41.76 
L 353.781818 -41.76 
L 355.472727 -41.76 
L 357.163636 -79.251516 
L 358.854545 -41.76 
L 360.545455 -41.76 
L 362.236364 -41.76 
L 363.927273 -69.339734 
L 365.618182 -41.76 
L 367.309091 -41.76 
L 369 -155.423156 
L 370.690909 -41.76 
L 372.381818 -41.76 
L 374.072727 -81.225814 
L 375.763636 -41.76 
L 377.454545 -41.76 
L 379.145455 -41.76 
L 380.836364 -78.909036 
L 382.527273 -41.76 
L 384.218182 -41.76 
L 385.909091 -95.408526 
L 387.6 -41.76 
L 389.290909 -41.76 
L 390.981818 -41.76 
L 392.672727 -89.969134 
L 394.363636 -86.242143 
L 396.054545 -59.58912 
L 397.745455 -85.537036 
L 399.436364 -41.76 
L 401.127273 -41.76 
L 402.818182 -61.885752 
L 404.509091 -41.76 
L 406.2 -87.632209 
L 407.890909 -57.634968 
L 409.581818 -41.76 
L 411.272727 -41.76 
L 412.963636 -41.76 
L 414.654545 -41.76 
L 416.345455 -58.098323 
L 418.036364 -41.76 
L 419.727273 -81.608586 
L 421.418182 -41.76 
L 423.109091 -74.557522 
L 424.8 -41.76 
L 426.490909 -74.537376 
L 428.181818 -41.76 
L 429.872727 -41.76 
L 431.563636 -41.76 
L 433.254545 -41.76 
L 434.945455 -71.878117 
L 436.636364 -49.516171 
L 438.327273 -41.76 
L 440.018182 -41.76 
L 441.709091 -82.071942 
L 443.4 -41.76 
L 445.090909 -41.76 
L 446.781818 -55.922566 
L 448.472727 -41.76 
L 450.163636 -41.76 
L 451.854545 -56.547089 
L 453.545455 -61.180646 
L 455.236364 -53.746809 
L 456.927273 -41.76 
L 458.618182 -41.76 
L 460.309091 -67.969813 
L 462 -41.76 
L 463.690909 -41.76 
L 465.381818 -41.76 
L 467.072727 -88.055273 
L 468.763636 -41.76 
L 470.454545 -69.35988 
L 472.145455 -63.457132 
L 473.836364 -41.76 
L 475.527273 -64.927783 
L 477.218182 -41.76 
L 478.909091 -41.76 
L 480.6 -64.121947 
L 482.290909 -41.76 
L 483.981818 -55.821837 
L 485.672727 -41.76 
L 487.363636 -41.76 
L 489.054545 -41.76 
L 490.745455 -65.532159 
L 492.436364 -41.76 
L 494.127273 -55.076438 
L 495.818182 -82.756902 
L 497.509091 -41.76 
L 499.2 -41.76 
L 500.890909 -130.704139 
L 502.581818 -41.76 
L 504.272727 -57.393217 
L 505.963636 -41.76 
L 507.654545 -41.76 
L 509.345455 -41.76 
L 511.036364 -117.085512 
L 512.727273 -41.76 
L 514.418182 -58.904159 
L 516.109091 -41.76 
L 517.8 -41.76 
L 519.490909 -41.76 
L 521.181818 -41.76 
L 522.872727 -67.244561 
L 524.563636 -41.76 
L 526.254545 -41.76 
L 527.945455 -41.76 
L 529.636364 -63.457132 
L 531.327273 -115.655153 
L 533.018182 -85.577328 
L 534.709091 -41.76 
L 536.4 -41.76 
L 538.090909 -41.76 
L 539.781818 -41.76 
L 541.472727 -66.076099 
L 543.163636 -41.76 
L 544.854545 -41.76 
L 546.545455 -58.984743 
L 548.236364 -54.592937 
L 549.927273 -41.76 
L 551.618182 -91.923286 
L 553.309091 -57.292487 
L 555 -41.76 
L 556.690909 -87.410605 
L 558.381818 -41.76 
L 560.072727 -130.50268 
L 561.763636 -41.76 
L 563.454545 -55.21746 
L 565.145455 -41.76 
L 566.836364 -77.962178 
L 568.527273 -77.418239 
L 570.218182 -41.76 
L 571.909091 -72.140014 
L 573.6 -41.76 
L 575.290909 -41.76 
L 576.981818 -41.76 
L 578.672727 -96.798593 
L 580.363636 -41.76 
L 582.054545 -41.76 
L 583.745455 -41.76 
L 585.436364 -102.983384 
L 587.127273 -41.76 
L 588.818182 -55.036147 
L 590.509091 -41.76 
L 592.2 -90.633948 
L 593.890909 -41.76 
L 595.581818 -82.978507 
L 597.272727 -74.799273 
L 598.963636 -41.76 
L 600.654545 -41.76 
L 602.345455 -41.76 
L 604.036364 -110.276199 
L 605.727273 -41.76 
L 607.418182 -41.76 
L 609.109091 -41.76 
L 610.8 -106.38804 
L 612.490909 -41.76 
L 614.181818 -41.76 
L 615.872727 -58.904159 
L 617.563636 -41.76 
L 619.254545 -41.76 
L 620.945455 -60.475539 
L 622.636364 -41.76 
L 622.636364 -41.76 
L 622.636364 -41.76 
L 620.945455 -77.760719 
L 619.254545 -71.052136 
L 617.563636 -58.178907 
L 615.872727 -66.579746 
L 614.181818 -45.486991 
L 612.490909 -46.957642 
L 610.8 -112.310934 
L 609.109091 -51.712074 
L 607.418182 -46.554724 
L 605.727273 -44.157362 
L 604.036364 -113.983044 
L 602.345455 -62.611004 
L 600.654545 -61.523126 
L 598.963636 -63.980925 
L 597.272727 -102.137256 
L 595.581818 -114.4464 
L 593.890909 -52.638785 
L 592.2 -102.237985 
L 590.509091 -61.321667 
L 588.818182 -72.482494 
L 587.127273 -53.787101 
L 585.436364 -110.054594 
L 583.745455 -85.194556 
L 582.054545 -96.033049 
L 580.363636 -91.359201 
L 578.672727 -115.030631 
L 576.981818 -53.666226 
L 575.290909 -49.898943 
L 573.6 -54.512353 
L 571.909091 -77.156343 
L 570.218182 -54.270603 
L 568.527273 -85.275139 
L 566.836364 -92.447079 
L 565.145455 -55.016001 
L 563.454545 -72.704099 
L 561.763636 -48.609605 
L 560.072727 -142.852116 
L 558.381818 -58.279636 
L 556.690909 -101.009086 
L 555 -50.261569 
L 553.309091 -65.008366 
L 551.618182 -106.529062 
L 549.927273 -68.332439 
L 548.236364 -74.013582 
L 546.545455 -70.689509 
L 544.854545 -47.199392 
L 543.163636 -56.647819 
L 541.472727 -109.812843 
L 539.781818 -59.427952 
L 538.090909 -66.620038 
L 536.4 -68.755503 
L 534.709091 -105.844101 
L 533.018182 -112.270643 
L 531.327273 -127.299482 
L 529.636364 -77.357802 
L 527.945455 -47.60231 
L 526.254545 -47.763478 
L 524.563636 -46.373411 
L 522.872727 -73.791978 
L 521.181818 -49.516171 
L 519.490909 -47.541873 
L 517.8 -54.713812 
L 516.109091 -65.612743 
L 514.418182 -66.519308 
L 512.727273 -45.769034 
L 511.036364 -121.598193 
L 509.345455 -63.900342 
L 507.654545 -53.424475 
L 505.963636 -68.050397 
L 504.272727 -82.656173 
L 502.581818 -48.790918 
L 500.890909 -131.73158 
L 499.2 -43.230651 
L 497.509091 -43.33138 
L 495.818182 -87.309875 
L 494.127273 -62.97363 
L 492.436364 -58.178907 
L 490.745455 -89.082714 
L 489.054545 -57.252195 
L 487.363636 -56.869423 
L 485.672727 -55.298043 
L 483.981818 -67.546749 
L 482.290909 -82.253255 
L 480.6 -109.812843 
L 478.909091 -85.657911 
L 477.218182 -91.661389 
L 475.527273 -106.287311 
L 473.836364 -53.807247 
L 472.145455 -78.909036 
L 470.454545 -87.370313 
L 468.763636 -47.904499 
L 467.072727 -93.696125 
L 465.381818 -51.63149 
L 463.690909 -50.50332 
L 462 -61.321667 
L 460.309091 -80.863188 
L 458.618182 -52.578347 
L 456.927273 -52.578347 
L 455.236364 -71.27374 
L 453.545455 -109.772551 
L 451.854545 -76.713133 
L 450.163636 -61.684293 
L 448.472727 -78.526264 
L 446.781818 -83.542592 
L 445.090909 -44.620717 
L 443.4 -43.976049 
L 441.709091 -90.996574 
L 440.018182 -75.967735 
L 438.327273 -83.582884 
L 436.636364 -70.185862 
L 434.945455 -88.780526 
L 433.254545 -78.465826 
L 431.563636 -79.090349 
L 429.872727 -79.694726 
L 428.181818 -77.599552 
L 426.490909 -89.666945 
L 424.8 -51.893387 
L 423.109091 -86.141413 
L 421.418182 -81.306398 
L 419.727273 -110.7597 
L 418.036364 -55.90242 
L 416.345455 -67.909375 
L 414.654545 -54.008706 
L 412.963636 -47.058371 
L 411.272727 -49.71763 
L 409.581818 -50.039964 
L 407.890909 -76.713133 
L 406.2 -96.919468 
L 404.509091 -48.770772 
L 402.818182 -73.127163 
L 401.127273 -51.792657 
L 399.436364 -55.801691 
L 397.745455 -96.838885 
L 396.054545 -70.085132 
L 394.363636 -94.562398 
L 392.672727 -98.249098 
L 390.981818 -50.624195 
L 389.290909 -46.413702 
L 387.6 -46.736037 
L 385.909091 -97.906617 
L 384.218182 -50.100402 
L 382.527273 -53.323745 
L 380.836364 -100.586022 
L 379.145455 -57.171612 
L 377.454545 -53.243162 
L 375.763636 -52.135137 
L 374.072727 -86.342872 
L 372.381818 -46.615161 
L 370.690909 -46.292827 
L 369 -158.787521 
L 367.309091 -47.682894 
L 365.618182 -54.451916 
L 363.927273 -102.419298 
L 362.236364 -53.021557 
L 360.545455 -49.657192 
L 358.854545 -58.25949 
L 357.163636 -94.904879 
L 355.472727 -62.510275 
L 353.781818 -46.312973 
L 352.090909 -51.651636 
L 350.4 -93.111894 
L 348.709091 -49.314712 
L 347.018182 -46.997933 
L 345.327273 -48.206687 
L 343.636364 -86.886811 
L 341.945455 -47.219538 
L 340.254545 -48.005228 
L 338.563636 -57.4738 
L 336.872727 -93.776708 
L 335.181818 -53.102141 
L 333.490909 -51.832949 
L 331.8 -54.290748 
L 330.109091 -100.122666 
L 328.418182 -63.75932 
L 326.727273 -95.851736 
L 325.036364 -65.995515 
L 323.345455 -86.504039 
L 321.654545 -96.375529 
L 319.963636 -103.204989 
L 318.272727 -64.726324 
L 316.581818 -56.78884 
L 314.890909 -53.787101 
L 313.2 -118.757622 
L 311.509091 -73.550227 
L 309.818182 -61.261229 
L 308.127273 -63.819758 
L 306.436364 -60.938895 
L 304.745455 -83.60303 
L 303.054545 -57.594676 
L 301.363636 -59.709995 
L 299.672727 -52.437326 
L 297.981818 -66.237266 
L 296.290909 -46.675599 
L 294.6 -59.669703 
L 292.909091 -48.83121 
L 291.218182 -118.918789 
L 289.527273 -48.629751 
L 287.836364 -48.972231 
L 286.145455 -46.997933 
L 284.454545 -49.556462 
L 282.763636 -76.511674 
L 281.072727 -45.607866 
L 279.381818 -45.769034 
L 277.690909 -45.144511 
L 276 -77.21678 
L 274.309091 -88.014982 
L 272.618182 -46.03093 
L 270.927273 -78.506118 
L 269.236364 -49.113253 
L 267.545455 -47.723186 
L 265.854545 -43.351526 
L 264.163636 -76.249777 
L 262.472727 -55.55994 
L 260.781818 -68.433169 
L 259.090909 -74.194896 
L 257.4 -119.120248 
L 255.709091 -95.771152 
L 254.018182 -107.435627 
L 252.327273 -99.31683 
L 250.636364 -74.456792 
L 248.945455 -105.138995 
L 247.254545 -57.13132 
L 245.563636 -65.008366 
L 243.872727 -46.675599 
L 242.181818 -109.268904 
L 240.490909 -45.728742 
L 238.8 -98.490848 
L 237.109091 -71.434908 
L 235.418182 -78.667285 
L 233.727273 -63.819758 
L 232.036364 -53.54535 
L 230.345455 -98.369973 
L 228.654545 -52.558201 
L 226.963636 -51.147988 
L 225.272727 -75.504379 
L 223.581818 -66.076099 
L 221.890909 -47.199392 
L 220.2 -51.228572 
L 218.509091 -45.104219 
L 216.818182 -95.247359 
L 215.127273 -52.054554 
L 213.436364 -43.532839 
L 211.745455 -45.587721 
L 210.054545 -96.838885 
L 208.363636 -51.812803 
L 206.672727 -67.325144 
L 204.981818 -79.755163 
L 203.290909 -128.14561 
L 201.6 -59.58912 
L 199.909091 -58.199053 
L 198.218182 -60.737436 
L 196.527273 -95.227213 
L 194.836364 -53.787101 
L 193.145455 -57.715551 
L 191.454545 -56.950007 
L 189.763636 -58.521387 
L 188.072727 -98.08793 
L 186.381818 -59.568974 
L 184.690909 -60.27408 
L 183 -61.301521 
L 181.309091 -111.061889 
L 179.618182 -68.070543 
L 177.927273 -67.667625 
L 176.236364 -68.211564 
L 174.545455 -128.105318 
L 172.854545 -66.620038 
L 171.163636 -66.902081 
L 169.472727 -67.264707 
L 167.781818 -126.695105 
L 166.090909 -67.224415 
L 164.4 -66.519308 
L 162.709091 -66.076099 
L 161.018182 -136.586741 
L 159.327273 -44.419259 
L 157.636364 -52.094846 
L 155.945455 -80.80275 
L 154.254545 -47.823915 
L 152.563636 -56.506797 
L 150.872727 -52.034408 
L 149.181818 -73.872561 
L 147.490909 -69.279296 
L 145.8 -71.394616 
L 144.109091 -68.513752 
L 142.418182 -129.71699 
L 140.727273 -58.521387 
L 139.036364 -58.904159 
L 137.345455 -67.083394 
L 135.654545 -113.801731 
L 133.963636 -66.700622 
L 132.272727 -64.081655 
L 130.581818 -68.57419 
L 128.890909 -95.650277 
L 127.2 -67.486312 
L 125.509091 -56.426214 
L 123.818182 -48.690189 
L 122.127273 -67.204269 
L 120.436364 -48.025374 
L 118.745455 -42.968754 
L 117.054545 -43.734298 
L 115.363636 -46.373411 
z
" style="stroke: #0000ff; stroke-width: 0.5"/>
    </defs>
    <g clip-path="url(#pf161c68d5a)">
     <use xlink:href="#ma9bb380a14" x="0" y="288" style="fill: #0000ff; stroke: #0000ff; stroke-width: 0.5"/>
    </g>
   </g>
   <g id="PolyCollection_3">
    <defs>
     <path id="md8d5d4cdfa" d="M 115.363636 -56.204609 
L 115.363636 -46.373411 
L 117.054545 -43.734298 
L 118.745455 -42.968754 
L 120.436364 -48.025374 
L 122.127273 -67.204269 
L 123.818182 -48.690189 
L 125.509091 -56.426214 
L 127.2 -67.486312 
L 128.890909 -95.650277 
L 130.581818 -68.57419 
L 132.272727 -64.081655 
L 133.963636 -66.700622 
L 135.654545 -113.801731 
L 137.345455 -67.083394 
L 139.036364 -58.904159 
L 140.727273 -58.521387 
L 142.418182 -129.71699 
L 144.109091 -68.513752 
L 145.8 -71.394616 
L 147.490909 -69.279296 
L 149.181818 -73.872561 
L 150.872727 -52.034408 
L 152.563636 -56.506797 
L 154.254545 -47.823915 
L 155.945455 -80.80275 
L 157.636364 -52.094846 
L 159.327273 -44.419259 
L 161.018182 -136.586741 
L 162.709091 -66.076099 
L 164.4 -66.519308 
L 166.090909 -67.224415 
L 167.781818 -126.695105 
L 169.472727 -67.264707 
L 171.163636 -66.902081 
L 172.854545 -66.620038 
L 174.545455 -128.105318 
L 176.236364 -68.211564 
L 177.927273 -67.667625 
L 179.618182 -68.070543 
L 181.309091 -111.061889 
L 183 -61.301521 
L 184.690909 -60.27408 
L 186.381818 -59.568974 
L 188.072727 -98.08793 
L 189.763636 -58.521387 
L 191.454545 -56.950007 
L 193.145455 -57.715551 
L 194.836364 -53.787101 
L 196.527273 -95.227213 
L 198.218182 -60.737436 
L 199.909091 -58.199053 
L 201.6 -59.58912 
L 203.290909 -128.14561 
L 204.981818 -79.755163 
L 206.672727 -67.325144 
L 208.363636 -51.812803 
L 210.054545 -96.838885 
L 211.745455 -45.587721 
L 213.436364 -43.532839 
L 215.127273 -52.054554 
L 216.818182 -95.247359 
L 218.509091 -45.104219 
L 220.2 -51.228572 
L 221.890909 -47.199392 
L 223.581818 -66.076099 
L 225.272727 -75.504379 
L 226.963636 -51.147988 
L 228.654545 -52.558201 
L 230.345455 -98.369973 
L 232.036364 -53.54535 
L 233.727273 -63.819758 
L 235.418182 -78.667285 
L 237.109091 -71.434908 
L 238.8 -98.490848 
L 240.490909 -45.728742 
L 242.181818 -109.268904 
L 243.872727 -46.675599 
L 245.563636 -65.008366 
L 247.254545 -57.13132 
L 248.945455 -105.138995 
L 250.636364 -74.456792 
L 252.327273 -99.31683 
L 254.018182 -107.435627 
L 255.709091 -95.771152 
L 257.4 -119.120248 
L 259.090909 -74.194896 
L 260.781818 -68.433169 
L 262.472727 -55.55994 
L 264.163636 -76.249777 
L 265.854545 -43.351526 
L 267.545455 -47.723186 
L 269.236364 -49.113253 
L 270.927273 -78.506118 
L 272.618182 -46.03093 
L 274.309091 -88.014982 
L 276 -77.21678 
L 277.690909 -45.144511 
L 279.381818 -45.769034 
L 281.072727 -45.607866 
L 282.763636 -76.511674 
L 284.454545 -49.556462 
L 286.145455 -46.997933 
L 287.836364 -48.972231 
L 289.527273 -48.629751 
L 291.218182 -118.918789 
L 292.909091 -48.83121 
L 294.6 -59.669703 
L 296.290909 -46.675599 
L 297.981818 -66.237266 
L 299.672727 -52.437326 
L 301.363636 -59.709995 
L 303.054545 -57.594676 
L 304.745455 -83.60303 
L 306.436364 -60.938895 
L 308.127273 -63.819758 
L 309.818182 -61.261229 
L 311.509091 -73.550227 
L 313.2 -118.757622 
L 314.890909 -53.787101 
L 316.581818 -56.78884 
L 318.272727 -64.726324 
L 319.963636 -103.204989 
L 321.654545 -96.375529 
L 323.345455 -86.504039 
L 325.036364 -65.995515 
L 326.727273 -95.851736 
L 328.418182 -63.75932 
L 330.109091 -100.122666 
L 331.8 -54.290748 
L 333.490909 -51.832949 
L 335.181818 -53.102141 
L 336.872727 -93.776708 
L 338.563636 -57.4738 
L 340.254545 -48.005228 
L 341.945455 -47.219538 
L 343.636364 -86.886811 
L 345.327273 -48.206687 
L 347.018182 -46.997933 
L 348.709091 -49.314712 
L 350.4 -93.111894 
L 352.090909 -51.651636 
L 353.781818 -46.312973 
L 355.472727 -62.510275 
L 357.163636 -94.904879 
L 358.854545 -58.25949 
L 360.545455 -49.657192 
L 362.236364 -53.021557 
L 363.927273 -102.419298 
L 365.618182 -54.451916 
L 367.309091 -47.682894 
L 369 -158.787521 
L 370.690909 -46.292827 
L 372.381818 -46.615161 
L 374.072727 -86.342872 
L 375.763636 -52.135137 
L 377.454545 -53.243162 
L 379.145455 -57.171612 
L 380.836364 -100.586022 
L 382.527273 -53.323745 
L 384.218182 -50.100402 
L 385.909091 -97.906617 
L 387.6 -46.736037 
L 389.290909 -46.413702 
L 390.981818 -50.624195 
L 392.672727 -98.249098 
L 394.363636 -94.562398 
L 396.054545 -70.085132 
L 397.745455 -96.838885 
L 399.436364 -55.801691 
L 401.127273 -51.792657 
L 402.818182 -73.127163 
L 404.509091 -48.770772 
L 406.2 -96.919468 
L 407.890909 -76.713133 
L 409.581818 -50.039964 
L 411.272727 -49.71763 
L 412.963636 -47.058371 
L 414.654545 -54.008706 
L 416.345455 -67.909375 
L 418.036364 -55.90242 
L 419.727273 -110.7597 
L 421.418182 -81.306398 
L 423.109091 -86.141413 
L 424.8 -51.893387 
L 426.490909 -89.666945 
L 428.181818 -77.599552 
L 429.872727 -79.694726 
L 431.563636 -79.090349 
L 433.254545 -78.465826 
L 434.945455 -88.780526 
L 436.636364 -70.185862 
L 438.327273 -83.582884 
L 440.018182 -75.967735 
L 441.709091 -90.996574 
L 443.4 -43.976049 
L 445.090909 -44.620717 
L 446.781818 -83.542592 
L 448.472727 -78.526264 
L 450.163636 -61.684293 
L 451.854545 -76.713133 
L 453.545455 -109.772551 
L 455.236364 -71.27374 
L 456.927273 -52.578347 
L 458.618182 -52.578347 
L 460.309091 -80.863188 
L 462 -61.321667 
L 463.690909 -50.50332 
L 465.381818 -51.63149 
L 467.072727 -93.696125 
L 468.763636 -47.904499 
L 470.454545 -87.370313 
L 472.145455 -78.909036 
L 473.836364 -53.807247 
L 475.527273 -106.287311 
L 477.218182 -91.661389 
L 478.909091 -85.657911 
L 480.6 -109.812843 
L 482.290909 -82.253255 
L 483.981818 -67.546749 
L 485.672727 -55.298043 
L 487.363636 -56.869423 
L 489.054545 -57.252195 
L 490.745455 -89.082714 
L 492.436364 -58.178907 
L 494.127273 -62.97363 
L 495.818182 -87.309875 
L 497.509091 -43.33138 
L 499.2 -43.230651 
L 500.890909 -131.73158 
L 502.581818 -48.790918 
L 504.272727 -82.656173 
L 505.963636 -68.050397 
L 507.654545 -53.424475 
L 509.345455 -63.900342 
L 511.036364 -121.598193 
L 512.727273 -45.769034 
L 514.418182 -66.519308 
L 516.109091 -65.612743 
L 517.8 -54.713812 
L 519.490909 -47.541873 
L 521.181818 -49.516171 
L 522.872727 -73.791978 
L 524.563636 -46.373411 
L 526.254545 -47.763478 
L 527.945455 -47.60231 
L 529.636364 -77.357802 
L 531.327273 -127.299482 
L 533.018182 -112.270643 
L 534.709091 -105.844101 
L 536.4 -68.755503 
L 538.090909 -66.620038 
L 539.781818 -59.427952 
L 541.472727 -109.812843 
L 543.163636 -56.647819 
L 544.854545 -47.199392 
L 546.545455 -70.689509 
L 548.236364 -74.013582 
L 549.927273 -68.332439 
L 551.618182 -106.529062 
L 553.309091 -65.008366 
L 555 -50.261569 
L 556.690909 -101.009086 
L 558.381818 -58.279636 
L 560.072727 -142.852116 
L 561.763636 -48.609605 
L 563.454545 -72.704099 
L 565.145455 -55.016001 
L 566.836364 -92.447079 
L 568.527273 -85.275139 
L 570.218182 -54.270603 
L 571.909091 -77.156343 
L 573.6 -54.512353 
L 575.290909 -49.898943 
L 576.981818 -53.666226 
L 578.672727 -115.030631 
L 580.363636 -91.359201 
L 582.054545 -96.033049 
L 583.745455 -85.194556 
L 585.436364 -110.054594 
L 587.127273 -53.787101 
L 588.818182 -72.482494 
L 590.509091 -61.321667 
L 592.2 -102.237985 
L 593.890909 -52.638785 
L 595.581818 -114.4464 
L 597.272727 -102.137256 
L 598.963636 -63.980925 
L 600.654545 -61.523126 
L 602.345455 -62.611004 
L 604.036364 -113.983044 
L 605.727273 -44.157362 
L 607.418182 -46.554724 
L 609.109091 -51.712074 
L 610.8 -112.310934 
L 612.490909 -46.957642 
L 614.181818 -45.486991 
L 615.872727 -66.579746 
L 617.563636 -58.178907 
L 619.254545 -71.052136 
L 620.945455 -77.760719 
L 622.636364 -41.76 
L 622.636364 -42.001751 
L 622.636364 -42.001751 
L 620.945455 -139.125124 
L 619.254545 -155.644761 
L 617.563636 -113.499542 
L 615.872727 -93.978167 
L 614.181818 -104.494326 
L 612.490909 -100.747189 
L 610.8 -170.451996 
L 609.109091 -142.368614 
L 607.418182 -76.894446 
L 605.727273 -139.528042 
L 604.036364 -179.41692 
L 602.345455 -124.801391 
L 600.654545 -119.019518 
L 598.963636 -113.2175 
L 597.272727 -146.176189 
L 595.581818 -157.437746 
L 593.890909 -127.561379 
L 592.2 -147.243921 
L 590.509091 -109.732259 
L 588.818182 -120.147689 
L 587.127273 -107.536357 
L 585.436364 -176.536057 
L 583.745455 -183.264787 
L 582.054545 -188.986222 
L 580.363636 -182.640264 
L 578.672727 -154.939654 
L 576.981818 -109.369633 
L 575.290909 -91.379346 
L 573.6 -100.505438 
L 571.909091 -100.666605 
L 570.218182 -75.242482 
L 568.527273 -106.347749 
L 566.836364 -130.1602 
L 565.145455 -96.758301 
L 563.454545 -124.076139 
L 561.763636 -110.679117 
L 560.072727 -181.290489 
L 558.381818 -99.397414 
L 556.690909 -125.949707 
L 555 -71.455053 
L 553.309091 -87.249437 
L 551.618182 -141.985842 
L 549.927273 -134.77361 
L 548.236364 -119.100102 
L 546.545455 -109.228612 
L 544.854545 -85.194556 
L 543.163636 -117.770473 
L 541.472727 -192.330441 
L 539.781818 -121.215421 
L 538.090909 -134.77361 
L 536.4 -141.321027 
L 534.709091 -197.366915 
L 533.018182 -196.540933 
L 531.327273 -164.267205 
L 529.636364 -125.164017 
L 527.945455 -72.784683 
L 526.254545 -66.861789 
L 524.563636 -66.31785 
L 522.872727 -100.223396 
L 521.181818 -77.942033 
L 519.490909 -68.413023 
L 517.8 -87.309875 
L 516.109091 -118.233828 
L 514.418182 -79.3321 
L 512.727273 -94.582544 
L 511.036364 -135.5593 
L 509.345455 -96.95976 
L 507.654545 -96.033049 
L 505.963636 -140.656213 
L 504.272727 -196.702101 
L 502.581818 -125.284893 
L 500.890909 -176.415181 
L 499.2 -46.836766 
L 497.509091 -46.635307 
L 495.818182 -99.31683 
L 494.127273 -86.725644 
L 492.436364 -96.697863 
L 490.745455 -135.498863 
L 489.054545 -94.078897 
L 487.363636 -98.269244 
L 485.672727 -87.410605 
L 483.981818 -116.501281 
L 482.290909 -243.36 
L 480.6 -195.654514 
L 478.909091 -165.153624 
L 477.218182 -148.996614 
L 475.527273 -147.606547 
L 473.836364 -71.515491 
L 472.145455 -113.016041 
L 470.454545 -116.70274 
L 468.763636 -58.984743 
L 467.072727 -105.018119 
L 465.381818 -82.656173 
L 463.690909 -80.419978 
L 462 -118.153245 
L 460.309091 -108.825694 
L 458.618182 -81.971212 
L 456.927273 -78.78816 
L 455.236364 -104.454034 
L 453.545455 -224.926503 
L 451.854545 -119.321707 
L 450.163636 -110.356782 
L 448.472727 -172.506877 
L 446.781818 -119.986521 
L 445.090909 -55.620378 
L 443.4 -47.420997 
L 441.709091 -115.655153 
L 440.018182 -162.977867 
L 438.327273 -169.98864 
L 436.636364 -142.348468 
L 434.945455 -145.007727 
L 433.254545 -128.870862 
L 431.563636 -121.598193 
L 429.872727 -135.599592 
L 428.181818 -129.233489 
L 426.490909 -120.18798 
L 424.8 -79.815601 
L 423.109091 -106.992417 
L 421.418182 -129.918449 
L 419.727273 -158.001831 
L 418.036364 -91.218179 
L 416.345455 -90.976429 
L 414.654545 -73.671102 
L 412.963636 -57.91701 
L 411.272727 -64.121947 
L 409.581818 -78.344951 
L 407.890909 -117.105658 
L 406.2 -113.096624 
L 404.509091 -66.398433 
L 402.818182 -100.666605 
L 401.127273 -82.555443 
L 399.436364 -103.487031 
L 397.745455 -128.891008 
L 396.054545 -97.604429 
L 394.363636 -125.123725 
L 392.672727 -116.904199 
L 390.981818 -67.284853 
L 389.290909 -54.794396 
L 387.6 -59.971892 
L 385.909091 -109.953864 
L 384.218182 -93.232769 
L 382.527273 -102.963238 
L 380.836364 -153.751046 
L 379.145455 -118.898643 
L 377.454545 -99.739894 
L 375.763636 -73.570373 
L 374.072727 -175.468324 
L 372.381818 -156.08797 
L 370.690909 -152.401271 
L 369 -183.869164 
L 367.309091 -87.43075 
L 365.618182 -108.040004 
L 363.927273 -160.661089 
L 362.236364 -106.287311 
L 360.545455 -102.21784 
L 358.854545 -117.427992 
L 357.163636 -145.53152 
L 355.472727 -115.675299 
L 353.781818 -86.74579 
L 352.090909 -113.237646 
L 350.4 -143.295325 
L 348.709091 -99.135517 
L 347.018182 -91.500222 
L 345.327273 -92.809705 
L 343.636364 -130.683993 
L 341.945455 -82.132379 
L 340.254545 -83.562738 
L 338.563636 -110.215761 
L 336.872727 -128.568674 
L 335.181818 -94.683274 
L 333.490909 -79.835747 
L 331.8 -87.068124 
L 330.109091 -131.792018 
L 328.418182 -109.228612 
L 326.727273 -157.256432 
L 325.036364 -135.498863 
L 323.345455 -174.904239 
L 321.654545 -136.365136 
L 319.963636 -153.48915 
L 318.272727 -119.50302 
L 316.581818 -77.841303 
L 314.890909 -84.066386 
L 313.2 -162.615241 
L 311.509091 -110.054594 
L 309.818182 -93.313353 
L 308.127273 -93.595395 
L 306.436364 -87.007687 
L 304.745455 -113.801731 
L 303.054545 -82.313692 
L 301.363636 -104.877098 
L 299.672727 -83.240404 
L 297.981818 -82.192817 
L 296.290909 -65.350846 
L 294.6 -133.705878 
L 292.909091 -83.059091 
L 291.218182 -134.693027 
L 289.527273 -55.136876 
L 287.836364 -59.750287 
L 286.145455 -75.343212 
L 284.454545 -89.54607 
L 282.763636 -92.205328 
L 281.072727 -54.451916 
L 279.381818 -56.144171 
L 277.690909 -56.043442 
L 276 -129.81772 
L 274.309091 -138.420018 
L 272.618182 -56.466505 
L 270.927273 -94.723566 
L 269.236364 -73.932999 
L 267.545455 -73.308476 
L 265.854545 -46.856912 
L 264.163636 -96.133778 
L 262.472727 -107.95942 
L 260.781818 -118.415141 
L 259.090909 -146.075459 
L 257.4 -180.766695 
L 255.709091 -202.584703 
L 254.018182 -204.720168 
L 252.327273 -207.057092 
L 250.636364 -148.372092 
L 248.945455 -172.023376 
L 247.254545 -106.468624 
L 245.563636 -86.282434 
L 243.872727 -64.142093 
L 242.181818 -118.455433 
L 240.490909 -52.256013 
L 238.8 -157.155703 
L 237.109091 -119.623895 
L 235.418182 -144.947289 
L 233.727273 -129.495385 
L 232.036364 -93.393936 
L 230.345455 -112.693706 
L 228.654545 -88.095565 
L 226.963636 -75.947589 
L 225.272727 -105.400891 
L 223.581818 -76.290069 
L 221.890909 -65.290409 
L 220.2 -72.683953 
L 218.509091 -52.900682 
L 216.818182 -145.491228 
L 215.127273 -158.98898 
L 213.436364 -141.300881 
L 211.745455 -133.947629 
L 210.054545 -172.365856 
L 208.363636 -134.451276 
L 206.672727 -142.711094 
L 204.981818 -175.971972 
L 203.290909 -185.057772 
L 201.6 -108.201171 
L 199.909091 -120.651336 
L 198.218182 -118.475579 
L 196.527273 -139.93096 
L 194.836364 -99.457852 
L 193.145455 -110.296345 
L 191.454545 -112.975749 
L 189.763636 -108.019858 
L 188.072727 -152.804189 
L 186.381818 -121.094546 
L 184.690909 -127.077877 
L 183 -137.372431 
L 181.309091 -179.07444 
L 179.618182 -179.275899 
L 177.927273 -179.598233 
L 176.236364 -185.46069 
L 174.545455 -228.452036 
L 172.854545 -173.453734 
L 171.163636 -176.898683 
L 169.472727 -176.27416 
L 167.781818 -233.871282 
L 166.090909 -172.184543 
L 164.4 -185.339814 
L 162.709091 -182.761139 
L 161.018182 -175.065406 
L 159.327273 -52.034408 
L 157.636364 -85.214702 
L 155.945455 -123.814242 
L 154.254545 -64.021217 
L 152.563636 -91.097304 
L 150.872727 -78.747868 
L 149.181818 -114.406108 
L 147.490909 -154.294986 
L 145.8 -162.998013 
L 144.109091 -160.640943 
L 142.418182 -215.901141 
L 140.727273 -152.904919 
L 139.036364 -168.41726 
L 137.345455 -186.669443 
L 135.654545 -235.200911 
L 133.963636 -189.107097 
L 132.272727 -179.275899 
L 130.581818 -180.64582 
L 128.890909 -197.064727 
L 127.2 -150.729162 
L 125.509091 -108.362338 
L 123.818182 -80.540853 
L 122.127273 -100.565876 
L 120.436364 -51.127843 
L 118.745455 -44.842322 
L 117.054545 -46.051076 
L 115.363636 -56.204609 
z
" style="stroke: #008000; stroke-width: 0.5"/>
    </defs>
    <g clip-path="url(#pf161c68d5a)">
     <use xlink:href="#md8d5d4cdfa" x="0" y="288" style="fill: #008000; stroke: #008000; stroke-width: 0.5"/>
    </g>
   </g>
   <g id="line2d_24">
    <path d="M 90 44.64 
L 648 44.64 
" clip-path="url(#pf161c68d5a)" style="fill: none; stroke: #000000; stroke-width: 1.5; stroke-linecap: square"/>
   </g>
   <g id="line2d_25">
    <path d="M 90 168.456688 
L 648 168.456688 
" clip-path="url(#pf161c68d5a)" style="fill: none; stroke: #000000; stroke-width: 1.5; stroke-linecap: square"/>
   </g>
   <g id="patch_3">
    <path d="M 90 256.32 
L 90 34.56 
" style="fill: none; stroke: #000000; stroke-width: 0.8; stroke-linejoin: miter; stroke-linecap: square"/>
   </g>
   <g id="patch_4">
    <path d="M 648 256.32 
L 648 34.56 
" style="fill: none; stroke: #000000; stroke-width: 0.8; stroke-linejoin: miter; stroke-linecap: square"/>
   </g>
   <g id="patch_5">
    <path d="M 90 256.32 
L 648 256.32 
" style="fill: none; stroke: #000000; stroke-width: 0.8; stroke-linejoin: miter; stroke-linecap: square"/>
   </g>
   <g id="patch_6">
    <path d="M 90 34.56 
L 648 34.56 
" style="fill: none; stroke: #000000; stroke-width: 0.8; stroke-linejoin: miter; stroke-linecap: square"/>
   </g>
   <g id="text_20">
    <!-- peak (10,007) -->
    <g transform="translate(118.700327 41.3136) scale(0.1 -0.1)">
     <defs>
      <path id="DejaVuSans-Bold-70" d="M 1656 506 
L 1656 -1331 
L 538 -1331 
L 538 3500 
L 1656 3500 
L 1656 2988 
Q 1888 3294 2169 3439 
Q 2450 3584 2816 3584 
Q 3463 3584 3878 3070 
Q 4294 2556 4294 1747 
Q 4294 938 3878 423 
Q 3463 -91 2816 -91 
Q 2450 -91 2169 54 
Q 1888 200 1656 506 
z
M 2400 2772 
Q 2041 2772 1848 2508 
Q 1656 2244 1656 1747 
Q 1656 1250 1848 986 
Q 2041 722 2400 722 
Q 2759 722 2948 984 
Q 3138 1247 3138 1747 
Q 3138 2247 2948 2509 
Q 2759 2772 2400 2772 
z
" transform="scale(0.015625)"/>
      <path id="DejaVuSans-Bold-65" d="M 4031 1759 
L 4031 1441 
L 1416 1441 
Q 1456 1047 1700 850 
Q 1944 653 2381 653 
Q 2734 653 3104 758 
Q 3475 863 3866 1075 
L 3866 213 
Q 3469 63 3072 -14 
Q 2675 -91 2278 -91 
Q 1328 -91 801 392 
Q 275 875 275 1747 
Q 275 2603 792 3093 
Q 1309 3584 2216 3584 
Q 3041 3584 3536 3087 
Q 4031 2591 4031 1759 
z
M 2881 2131 
Q 2881 2450 2695 2645 
Q 2509 2841 2209 2841 
Q 1884 2841 1681 2658 
Q 1478 2475 1428 2131 
L 2881 2131 
z
" transform="scale(0.015625)"/>
      <path id="DejaVuSans-Bold-61" d="M 2106 1575 
Q 1756 1575 1579 1456 
Q 1403 1338 1403 1106 
Q 1403 894 1545 773 
Q 1688 653 1941 653 
Q 2256 653 2472 879 
Q 2688 1106 2688 1447 
L 2688 1575 
L 2106 1575 
z
M 3816 1997 
L 3816 0 
L 2688 0 
L 2688 519 
Q 2463 200 2181 54 
Q 1900 -91 1497 -91 
Q 953 -91 614 226 
Q 275 544 275 1050 
Q 275 1666 698 1953 
Q 1122 2241 2028 2241 
L 2688 2241 
L 2688 2328 
Q 2688 2594 2478 2717 
Q 2269 2841 1825 2841 
Q 1466 2841 1156 2769 
Q 847 2697 581 2553 
L 581 3406 
Q 941 3494 1303 3539 
Q 1666 3584 2028 3584 
Q 2975 3584 3395 3211 
Q 3816 2838 3816 1997 
z
" transform="scale(0.015625)"/>
      <path id="DejaVuSans-Bold-6b" d="M 538 4863 
L 1656 4863 
L 1656 2216 
L 2944 3500 
L 4244 3500 
L 2534 1894 
L 4378 0 
L 3022 0 
L 1656 1459 
L 1656 0 
L 538 0 
L 538 4863 
z
" transform="scale(0.015625)"/>
      <path id="DejaVuSans-Bold-20" transform="scale(0.015625)"/>
      <path id="DejaVuSans-Bold-28" d="M 2413 -844 
L 1484 -844 
Q 1006 -72 778 623 
Q 550 1319 550 2003 
Q 550 2688 779 3389 
Q 1009 4091 1484 4856 
L 2413 4856 
Q 2013 4116 1813 3408 
Q 1613 2700 1613 2009 
Q 1613 1319 1811 609 
Q 2009 -100 2413 -844 
z
" transform="scale(0.015625)"/>
      <path id="DejaVuSans-Bold-31" d="M 750 831 
L 1813 831 
L 1813 3847 
L 722 3622 
L 722 4441 
L 1806 4666 
L 2950 4666 
L 2950 831 
L 4013 831 
L 4013 0 
L 750 0 
L 750 831 
z
" transform="scale(0.015625)"/>
      <path id="DejaVuSans-Bold-30" d="M 2944 2338 
Q 2944 3213 2780 3570 
Q 2616 3928 2228 3928 
Q 1841 3928 1675 3570 
Q 1509 3213 1509 2338 
Q 1509 1453 1675 1090 
Q 1841 728 2228 728 
Q 2613 728 2778 1090 
Q 2944 1453 2944 2338 
z
M 4147 2328 
Q 4147 1169 3647 539 
Q 3147 -91 2228 -91 
Q 1306 -91 806 539 
Q 306 1169 306 2328 
Q 306 3491 806 4120 
Q 1306 4750 2228 4750 
Q 3147 4750 3647 4120 
Q 4147 3491 4147 2328 
z
" transform="scale(0.015625)"/>
      <path id="DejaVuSans-Bold-2c" d="M 653 1209 
L 1778 1209 
L 1778 256 
L 1006 -909 
L 341 -909 
L 653 256 
L 653 1209 
z
" transform="scale(0.015625)"/>
      <path id="DejaVuSans-Bold-37" d="M 428 4666 
L 3944 4666 
L 3944 3988 
L 2125 0 
L 953 0 
L 2675 3781 
L 428 3781 
L 428 4666 
z
" transform="scale(0.015625)"/>
      <path id="DejaVuSans-Bold-29" d="M 513 -844 
Q 913 -100 1113 609 
Q 1313 1319 1313 2009 
Q 1313 2700 1113 3408 
Q 913 4116 513 4856 
L 1441 4856 
Q 1916 4091 2145 3389 
Q 2375 2688 2375 2003 
Q 2375 1319 2147 623 
Q 1919 -72 1441 -844 
L 513 -844 
z
" transform="scale(0.015625)"/>
     </defs>
     <use xlink:href="#DejaVuSans-Bold-70"/>
     <use xlink:href="#DejaVuSans-Bold-65" x="71.582031"/>
     <use xlink:href="#DejaVuSans-Bold-61" x="139.404297"/>
     <use xlink:href="#DejaVuSans-Bold-6b" x="206.884766"/>
     <use xlink:href="#DejaVuSans-Bold-20" x="273.388672"/>
     <use xlink:href="#DejaVuSans-Bold-28" x="308.203125"/>
     <use xlink:href="#DejaVuSans-Bold-31" x="353.90625"/>
     <use xlink:href="#DejaVuSans-Bold-30" x="423.486328"/>
     <use xlink:href="#DejaVuSans-Bold-2c" x="493.066406"/>
     <use xlink:href="#DejaVuSans-Bold-30" x="531.054688"/>
     <use xlink:href="#DejaVuSans-Bold-30" x="600.634766"/>
     <use xlink:href="#DejaVuSans-Bold-37" x="670.214844"/>
     <use xlink:href="#DejaVuSans-Bold-29" x="739.794922"/>
    </g>
   </g>
   <g id="text_21">
    <!-- mean (3,861) -->
    <g transform="translate(567.728153 165.130288) scale(0.1 -0.1)">
     <defs>
      <path id="DejaVuSans-Bold-6d" d="M 3781 2919 
Q 3994 3244 4286 3414 
Q 4578 3584 4928 3584 
Q 5531 3584 5847 3212 
Q 6163 2841 6163 2131 
L 6163 0 
L 5038 0 
L 5038 1825 
Q 5041 1866 5042 1909 
Q 5044 1953 5044 2034 
Q 5044 2406 4934 2573 
Q 4825 2741 4581 2741 
Q 4263 2741 4089 2478 
Q 3916 2216 3909 1719 
L 3909 0 
L 2784 0 
L 2784 1825 
Q 2784 2406 2684 2573 
Q 2584 2741 2328 2741 
Q 2006 2741 1831 2477 
Q 1656 2213 1656 1722 
L 1656 0 
L 531 0 
L 531 3500 
L 1656 3500 
L 1656 2988 
Q 1863 3284 2130 3434 
Q 2397 3584 2719 3584 
Q 3081 3584 3359 3409 
Q 3638 3234 3781 2919 
z
" transform="scale(0.015625)"/>
      <path id="DejaVuSans-Bold-6e" d="M 4056 2131 
L 4056 0 
L 2931 0 
L 2931 347 
L 2931 1631 
Q 2931 2084 2911 2256 
Q 2891 2428 2841 2509 
Q 2775 2619 2662 2680 
Q 2550 2741 2406 2741 
Q 2056 2741 1856 2470 
Q 1656 2200 1656 1722 
L 1656 0 
L 538 0 
L 538 3500 
L 1656 3500 
L 1656 2988 
Q 1909 3294 2193 3439 
Q 2478 3584 2822 3584 
Q 3428 3584 3742 3212 
Q 4056 2841 4056 2131 
z
" transform="scale(0.015625)"/>
      <path id="DejaVuSans-Bold-33" d="M 2981 2516 
Q 3453 2394 3698 2092 
Q 3944 1791 3944 1325 
Q 3944 631 3412 270 
Q 2881 -91 1863 -91 
Q 1503 -91 1142 -33 
Q 781 25 428 141 
L 428 1069 
Q 766 900 1098 814 
Q 1431 728 1753 728 
Q 2231 728 2486 893 
Q 2741 1059 2741 1369 
Q 2741 1688 2480 1852 
Q 2219 2016 1709 2016 
L 1228 2016 
L 1228 2791 
L 1734 2791 
Q 2188 2791 2409 2933 
Q 2631 3075 2631 3366 
Q 2631 3634 2415 3781 
Q 2200 3928 1806 3928 
Q 1516 3928 1219 3862 
Q 922 3797 628 3669 
L 628 4550 
Q 984 4650 1334 4700 
Q 1684 4750 2022 4750 
Q 2931 4750 3382 4451 
Q 3834 4153 3834 3553 
Q 3834 3144 3618 2883 
Q 3403 2622 2981 2516 
z
" transform="scale(0.015625)"/>
      <path id="DejaVuSans-Bold-38" d="M 2228 2088 
Q 1891 2088 1709 1903 
Q 1528 1719 1528 1375 
Q 1528 1031 1709 848 
Q 1891 666 2228 666 
Q 2563 666 2741 848 
Q 2919 1031 2919 1375 
Q 2919 1722 2741 1905 
Q 2563 2088 2228 2088 
z
M 1350 2484 
Q 925 2613 709 2878 
Q 494 3144 494 3541 
Q 494 4131 934 4440 
Q 1375 4750 2228 4750 
Q 3075 4750 3515 4442 
Q 3956 4134 3956 3541 
Q 3956 3144 3739 2878 
Q 3522 2613 3097 2484 
Q 3572 2353 3814 2058 
Q 4056 1763 4056 1313 
Q 4056 619 3595 264 
Q 3134 -91 2228 -91 
Q 1319 -91 855 264 
Q 391 619 391 1313 
Q 391 1763 633 2058 
Q 875 2353 1350 2484 
z
M 1631 3419 
Q 1631 3141 1786 2991 
Q 1941 2841 2228 2841 
Q 2509 2841 2662 2991 
Q 2816 3141 2816 3419 
Q 2816 3697 2662 3845 
Q 2509 3994 2228 3994 
Q 1941 3994 1786 3844 
Q 1631 3694 1631 3419 
z
" transform="scale(0.015625)"/>
      <path id="DejaVuSans-Bold-36" d="M 2316 2303 
Q 2000 2303 1842 2098 
Q 1684 1894 1684 1484 
Q 1684 1075 1842 870 
Q 2000 666 2316 666 
Q 2634 666 2792 870 
Q 2950 1075 2950 1484 
Q 2950 1894 2792 2098 
Q 2634 2303 2316 2303 
z
M 3803 4544 
L 3803 3681 
Q 3506 3822 3243 3889 
Q 2981 3956 2731 3956 
Q 2194 3956 1894 3657 
Q 1594 3359 1544 2772 
Q 1750 2925 1990 3001 
Q 2231 3078 2516 3078 
Q 3231 3078 3670 2659 
Q 4109 2241 4109 1563 
Q 4109 813 3618 361 
Q 3128 -91 2303 -91 
Q 1394 -91 895 523 
Q 397 1138 397 2266 
Q 397 3422 980 4083 
Q 1563 4744 2578 4744 
Q 2900 4744 3203 4694 
Q 3506 4644 3803 4544 
z
" transform="scale(0.015625)"/>
     </defs>
     <use xlink:href="#DejaVuSans-Bold-6d"/>
     <use xlink:href="#DejaVuSans-Bold-65" x="104.199219"/>
     <use xlink:href="#DejaVuSans-Bold-61" x="172.021484"/>
     <use xlink:href="#DejaVuSans-Bold-6e" x="239.501953"/>
     <use xlink:href="#DejaVuSans-Bold-20" x="310.693359"/>
     <use xlink:href="#DejaVuSans-Bold-28" x="345.507812"/>
     <use xlink:href="#DejaVuSans-Bold-33" x="391.210938"/>
     <use xlink:href="#DejaVuSans-Bold-2c" x="460.791016"/>
     <use xlink:href="#DejaVuSans-Bold-38" x="498.779297"/>
     <use xlink:href="#DejaVuSans-Bold-36" x="568.359375"/>
     <use xlink:href="#DejaVuSans-Bold-31" x="637.939453"/>
     <use xlink:href="#DejaVuSans-Bold-29" x="707.519531"/>
    </g>
   </g>
   <g id="text_22">
    <!-- Stream Bitrate over Time -->
    <g transform="translate(293.189062 28.56) scale(0.12 -0.12)">
     <defs>
      <path id="DejaVuSans-53" d="M 3425 4513 
L 3425 3897 
Q 3066 4069 2747 4153 
Q 2428 4238 2131 4238 
Q 1616 4238 1336 4038 
Q 1056 3838 1056 3469 
Q 1056 3159 1242 3001 
Q 1428 2844 1947 2747 
L 2328 2669 
Q 3034 2534 3370 2195 
Q 3706 1856 3706 1288 
Q 3706 609 3251 259 
Q 2797 -91 1919 -91 
Q 1588 -91 1214 -16 
Q 841 59 441 206 
L 441 856 
Q 825 641 1194 531 
Q 1563 422 1919 422 
Q 2459 422 2753 634 
Q 3047 847 3047 1241 
Q 3047 1584 2836 1778 
Q 2625 1972 2144 2069 
L 1759 2144 
Q 1053 2284 737 2584 
Q 422 2884 422 3419 
Q 422 4038 858 4394 
Q 1294 4750 2059 4750 
Q 2388 4750 2728 4690 
Q 3069 4631 3425 4513 
z
" transform="scale(0.015625)"/>
      <path id="DejaVuSans-6f" d="M 1959 3097 
Q 1497 3097 1228 2736 
Q 959 2375 959 1747 
Q 959 1119 1226 758 
Q 1494 397 1959 397 
Q 2419 397 2687 759 
Q 2956 1122 2956 1747 
Q 2956 2369 2687 2733 
Q 2419 3097 1959 3097 
z
M 1959 3584 
Q 2709 3584 3137 3096 
Q 3566 2609 3566 1747 
Q 3566 888 3137 398 
Q 2709 -91 1959 -91 
Q 1206 -91 779 398 
Q 353 888 353 1747 
Q 353 2609 779 3096 
Q 1206 3584 1959 3584 
z
" transform="scale(0.015625)"/>
      <path id="DejaVuSans-76" d="M 191 3500 
L 800 3500 
L 1894 563 
L 2988 3500 
L 3597 3500 
L 2284 0 
L 1503 0 
L 191 3500 
z
" transform="scale(0.015625)"/>
     </defs>
     <use xlink:href="#DejaVuSans-53"/>
     <use xlink:href="#DejaVuSans-74" x="63.476562"/>
     <use xlink:href="#DejaVuSans-72" x="102.685547"/>
     <use xlink:href="#DejaVuSans-65" x="141.548828"/>
     <use xlink:href="#DejaVuSans-61" x="203.072266"/>
     <use xlink:href="#DejaVuSans-6d" x="264.351562"/>
     <use xlink:href="#DejaVuSans-20" x="361.763672"/>
     <use xlink:href="#DejaVuSans-42" x="393.550781"/>
     <use xlink:href="#DejaVuSans-69" x="462.154297"/>
     <use xlink:href="#DejaVuSans-74" x="489.9375"/>
     <use xlink:href="#DejaVuSans-72" x="529.146484"/>
     <use xlink:href="#DejaVuSans-61" x="570.259766"/>
     <use xlink:href="#DejaVuSans-74" x="631.539062"/>
     <use xlink:href="#DejaVuSans-65" x="670.748047"/>
     <use xlink:href="#DejaVuSans-20" x="732.271484"/>
     <use xlink:href="#DejaVuSans-6f" x="764.058594"/>
     <use xlink:href="#DejaVuSans-76" x="825.240234"/>
     <use xlink:href="#DejaVuSans-65" x="884.419922"/>
     <use xlink:href="#DejaVuSans-72" x="945.943359"/>
     <use xlink:href="#DejaVuSans-20" x="987.056641"/>
     <use xlink:href="#DejaVuSans-54" x="1018.84375"/>
     <use xlink:href="#DejaVuSans-69" x="1076.802734"/>
     <use xlink:href="#DejaVuSans-6d" x="1104.585938"/>
     <use xlink:href="#DejaVuSans-65" x="1201.998047"/>
    </g>
   </g>
   <g id="legend_1">
    <g id="patch_7">
     <path d="M 602.139063 86.594375 
L 641 86.594375 
Q 643 86.594375 643 84.594375 
L 643 41.56 
Q 643 39.56 641 39.56 
L 602.139063 39.56 
Q 600.139063 39.56 600.139063 41.56 
L 600.139063 84.594375 
Q 600.139063 86.594375 602.139063 86.594375 
z
" style="fill: #ffffff; opacity: 0.8; stroke: #cccccc; stroke-linejoin: miter"/>
    </g>
    <g id="patch_8">
     <path d="M 604.139063 51.158438 
L 624.139063 51.158438 
L 624.139063 44.158438 
L 604.139063 44.158438 
z
" style="fill: #ff0000; stroke: #ff0000; stroke-width: 0.5; stroke-linejoin: miter"/>
    </g>
    <g id="text_23">
     <!-- I -->
     <g transform="translate(632.139063 51.158438) scale(0.1 -0.1)">
      <defs>
       <path id="DejaVuSans-49" d="M 628 4666 
L 1259 4666 
L 1259 0 
L 628 0 
L 628 4666 
z
" transform="scale(0.015625)"/>
      </defs>
      <use xlink:href="#DejaVuSans-49"/>
     </g>
    </g>
    <g id="patch_9">
     <path d="M 604.139063 65.836563 
L 624.139063 65.836563 
L 624.139063 58.836563 
L 604.139063 58.836563 
z
" style="fill: #0000ff; stroke: #0000ff; stroke-width: 0.5; stroke-linejoin: miter"/>
    </g>
    <g id="text_24">
     <!-- B -->
     <g transform="translate(632.139063 65.836563) scale(0.1 -0.1)">
      <use xlink:href="#DejaVuSans-42"/>
     </g>
    </g>
    <g id="patch_10">
     <path d="M 604.139063 80.514688 
L 624.139063 80.514688 
L 624.139063 73.514688 
L 604.139063 73.514688 
z
" style="fill: #008000; stroke: #008000; stroke-width: 0.5; stroke-linejoin: miter"/>
    </g>
    <g id="text_25">
     <!-- P -->
     <g transform="translate(632.139063 80.514688) scale(0.1 -0.1)">
      <defs>
       <path id="DejaVuSans-50" d="M 1259 4147 
L 1259 2394 
L 2053 2394 
Q 2494 2394 2734 2622 
Q 2975 2850 2975 3272 
Q 2975 3691 2734 3919 
Q 2494 4147 2053 4147 
L 1259 4147 
z
M 628 4666 
L 2053 4666 
Q 2838 4666 3239 4311 
Q 3641 3956 3641 3272 
Q 3641 2581 3239 2228 
Q 2838 1875 2053 1875 
L 1259 1875 
L 1259 0 
L 628 0 
L 628 4666 
z
" transform="scale(0.015625)"/>
      </defs>
      <use xlink:href="#DejaVuSans-50"/>
     </g>
    </g>
   </g>
  </g>
 </g>
 <defs>
  <clipPath id="pf161c68d5a">
   <rect x="90" y="34.56" width="558" height="221.76"/>
  </clipPath>
 </defs>
</svg>
