<?xml version="1.0" encoding="utf-8" standalone="no"?>
<!DOCTYPE svg PUBLIC "-//W3C//DTD SVG 1.1//EN"
  "http://www.w3.org/Graphics/SVG/1.1/DTD/svg11.dtd">
<svg xmlns:xlink="http://www.w3.org/1999/xlink" width="720pt" height="288pt" viewBox="0 0 720 288" xmlns="http://www.w3.org/2000/svg" version="1.1">
 <metadata>
  <rdf:RDF xmlns:dc="http://purl.org/dc/elements/1.1/" xmlns:cc="http://creativecommons.org/ns#" xmlns:rdf="http://www.w3.org/1999/02/22-rdf-syntax-ns#">
   <cc:Work>
    <dc:type rdf:resource="http://purl.org/dc/dcmitype/StillImage"/>
    <dc:date>2023-05-07T02:03:58.156674</dc:date>
    <dc:format>image/svg+xml</dc:format>
    <dc:creator>
     <cc:Agent>
      <dc:title>Matplotlib v3.7.1, https://matplotlib.org/</dc:title>
     </cc:Agent>
    </dc:creator>
   </cc:Work>
  </rdf:RDF>
 </metadata>
 <defs>
  <style type="text/css">*{stroke-linejoin: round; stroke-linecap: butt}</style>
 </defs>
 <g id="figure_1">
  <g id="patch_1">
   <path d="M 0 288 
L 720 288 
L 720 0 
L 0 0 
z
" style="fill: #ffffff"/>
  </g>
  <g id="axes_1">
   <g id="patch_2">
    <path d="M 90 256.32 
L 648 256.32 
L 648 34.56 
L 90 34.56 
z
" style="fill: #ffffff"/>
   </g>
   <g id="matplotlib.axis_1">
    <g id="xtick_1">
     <g id="line2d_1">
      <defs>
       <path id="m367d9f2163" d="M 0 0 
L 0 3.5 
" style="stroke: #000000; stroke-width: 0.8"/>
      </defs>
      <g>
       <use xlink:href="#m367d9f2163" x="115.363636" y="256.32" style="stroke: #000000; stroke-width: 0.8"/>
      </g>
     </g>
     <g id="text_1">
      <!-- 0:00:00 -->
      <g transform="translate(96.088636 270.918437) scale(0.1 -0.1)">
       <defs>
        <path id="DejaVuSans-30" d="M 2034 4250 
Q 1547 4250 1301 3770 
Q 1056 3291 1056 2328 
Q 1056 1369 1301 889 
Q 1547 409 2034 409 
Q 2525 409 2770 889 
Q 3016 1369 3016 2328 
Q 3016 3291 2770 3770 
Q 2525 4250 2034 4250 
z
M 2034 4750 
Q 2819 4750 3233 4129 
Q 3647 3509 3647 2328 
Q 3647 1150 3233 529 
Q 2819 -91 2034 -91 
Q 1250 -91 836 529 
Q 422 1150 422 2328 
Q 422 3509 836 4129 
Q 1250 4750 2034 4750 
z
" transform="scale(0.015625)"/>
        <path id="DejaVuSans-3a" d="M 750 794 
L 1409 794 
L 1409 0 
L 750 0 
L 750 794 
z
M 750 3309 
L 1409 3309 
L 1409 2516 
L 750 2516 
L 750 3309 
z
" transform="scale(0.015625)"/>
       </defs>
       <use xlink:href="#DejaVuSans-30"/>
       <use xlink:href="#DejaVuSans-3a" x="63.623047"/>
       <use xlink:href="#DejaVuSans-30" x="97.314453"/>
       <use xlink:href="#DejaVuSans-30" x="160.9375"/>
       <use xlink:href="#DejaVuSans-3a" x="224.560547"/>
       <use xlink:href="#DejaVuSans-30" x="258.251953"/>
       <use xlink:href="#DejaVuSans-30" x="321.875"/>
      </g>
     </g>
    </g>
    <g id="xtick_2">
     <g id="line2d_2">
      <g>
       <use xlink:href="#m367d9f2163" x="166.090909" y="256.32" style="stroke: #000000; stroke-width: 0.8"/>
      </g>
     </g>
     <g id="text_2">
      <!-- 0:00:30 -->
      <g transform="translate(146.815909 270.918437) scale(0.1 -0.1)">
       <defs>
        <path id="DejaVuSans-33" d="M 2597 2516 
Q 3050 2419 3304 2112 
Q 3559 1806 3559 1356 
Q 3559 666 3084 287 
Q 2609 -91 1734 -91 
Q 1441 -91 1130 -33 
Q 819 25 488 141 
L 488 750 
Q 750 597 1062 519 
Q 1375 441 1716 441 
Q 2309 441 2620 675 
Q 2931 909 2931 1356 
Q 2931 1769 2642 2001 
Q 2353 2234 1838 2234 
L 1294 2234 
L 1294 2753 
L 1863 2753 
Q 2328 2753 2575 2939 
Q 2822 3125 2822 3475 
Q 2822 3834 2567 4026 
Q 2313 4219 1838 4219 
Q 1578 4219 1281 4162 
Q 984 4106 628 3988 
L 628 4550 
Q 988 4650 1302 4700 
Q 1616 4750 1894 4750 
Q 2613 4750 3031 4423 
Q 3450 4097 3450 3541 
Q 3450 3153 3228 2886 
Q 3006 2619 2597 2516 
z
" transform="scale(0.015625)"/>
       </defs>
       <use xlink:href="#DejaVuSans-30"/>
       <use xlink:href="#DejaVuSans-3a" x="63.623047"/>
       <use xlink:href="#DejaVuSans-30" x="97.314453"/>
       <use xlink:href="#DejaVuSans-30" x="160.9375"/>
       <use xlink:href="#DejaVuSans-3a" x="224.560547"/>
       <use xlink:href="#DejaVuSans-33" x="258.251953"/>
       <use xlink:href="#DejaVuSans-30" x="321.875"/>
      </g>
     </g>
    </g>
    <g id="xtick_3">
     <g id="line2d_3">
      <g>
       <use xlink:href="#m367d9f2163" x="216.818182" y="256.32" style="stroke: #000000; stroke-width: 0.8"/>
      </g>
     </g>
     <g id="text_3">
      <!-- 0:01:00 -->
      <g transform="translate(197.543182 270.918437) scale(0.1 -0.1)">
       <defs>
        <path id="DejaVuSans-31" d="M 794 531 
L 1825 531 
L 1825 4091 
L 703 3866 
L 703 4441 
L 1819 4666 
L 2450 4666 
L 2450 531 
L 3481 531 
L 3481 0 
L 794 0 
L 794 531 
z
" transform="scale(0.015625)"/>
       </defs>
       <use xlink:href="#DejaVuSans-30"/>
       <use xlink:href="#DejaVuSans-3a" x="63.623047"/>
       <use xlink:href="#DejaVuSans-30" x="97.314453"/>
       <use xlink:href="#DejaVuSans-31" x="160.9375"/>
       <use xlink:href="#DejaVuSans-3a" x="224.560547"/>
       <use xlink:href="#DejaVuSans-30" x="258.251953"/>
       <use xlink:href="#DejaVuSans-30" x="321.875"/>
      </g>
     </g>
    </g>
    <g id="xtick_4">
     <g id="line2d_4">
      <g>
       <use xlink:href="#m367d9f2163" x="267.545455" y="256.32" style="stroke: #000000; stroke-width: 0.8"/>
      </g>
     </g>
     <g id="text_4">
      <!-- 0:01:30 -->
      <g transform="translate(248.270455 270.918437) scale(0.1 -0.1)">
       <use xlink:href="#DejaVuSans-30"/>
       <use xlink:href="#DejaVuSans-3a" x="63.623047"/>
       <use xlink:href="#DejaVuSans-30" x="97.314453"/>
       <use xlink:href="#DejaVuSans-31" x="160.9375"/>
       <use xlink:href="#DejaVuSans-3a" x="224.560547"/>
       <use xlink:href="#DejaVuSans-33" x="258.251953"/>
       <use xlink:href="#DejaVuSans-30" x="321.875"/>
      </g>
     </g>
    </g>
    <g id="xtick_5">
     <g id="line2d_5">
      <g>
       <use xlink:href="#m367d9f2163" x="318.272727" y="256.32" style="stroke: #000000; stroke-width: 0.8"/>
      </g>
     </g>
     <g id="text_5">
      <!-- 0:02:00 -->
      <g transform="translate(298.997727 270.918437) scale(0.1 -0.1)">
       <defs>
        <path id="DejaVuSans-32" d="M 1228 531 
L 3431 531 
L 3431 0 
L 469 0 
L 469 531 
Q 828 903 1448 1529 
Q 2069 2156 2228 2338 
Q 2531 2678 2651 2914 
Q 2772 3150 2772 3378 
Q 2772 3750 2511 3984 
Q 2250 4219 1831 4219 
Q 1534 4219 1204 4116 
Q 875 4013 500 3803 
L 500 4441 
Q 881 4594 1212 4672 
Q 1544 4750 1819 4750 
Q 2544 4750 2975 4387 
Q 3406 4025 3406 3419 
Q 3406 3131 3298 2873 
Q 3191 2616 2906 2266 
Q 2828 2175 2409 1742 
Q 1991 1309 1228 531 
z
" transform="scale(0.015625)"/>
       </defs>
       <use xlink:href="#DejaVuSans-30"/>
       <use xlink:href="#DejaVuSans-3a" x="63.623047"/>
       <use xlink:href="#DejaVuSans-30" x="97.314453"/>
       <use xlink:href="#DejaVuSans-32" x="160.9375"/>
       <use xlink:href="#DejaVuSans-3a" x="224.560547"/>
       <use xlink:href="#DejaVuSans-30" x="258.251953"/>
       <use xlink:href="#DejaVuSans-30" x="321.875"/>
      </g>
     </g>
    </g>
    <g id="xtick_6">
     <g id="line2d_6">
      <g>
       <use xlink:href="#m367d9f2163" x="369" y="256.32" style="stroke: #000000; stroke-width: 0.8"/>
      </g>
     </g>
     <g id="text_6">
      <!-- 0:02:30 -->
      <g transform="translate(349.725 270.918437) scale(0.1 -0.1)">
       <use xlink:href="#DejaVuSans-30"/>
       <use xlink:href="#DejaVuSans-3a" x="63.623047"/>
       <use xlink:href="#DejaVuSans-30" x="97.314453"/>
       <use xlink:href="#DejaVuSans-32" x="160.9375"/>
       <use xlink:href="#DejaVuSans-3a" x="224.560547"/>
       <use xlink:href="#DejaVuSans-33" x="258.251953"/>
       <use xlink:href="#DejaVuSans-30" x="321.875"/>
      </g>
     </g>
    </g>
    <g id="xtick_7">
     <g id="line2d_7">
      <g>
       <use xlink:href="#m367d9f2163" x="419.727273" y="256.32" style="stroke: #000000; stroke-width: 0.8"/>
      </g>
     </g>
     <g id="text_7">
      <!-- 0:03:00 -->
      <g transform="translate(400.452273 270.918437) scale(0.1 -0.1)">
       <use xlink:href="#DejaVuSans-30"/>
       <use xlink:href="#DejaVuSans-3a" x="63.623047"/>
       <use xlink:href="#DejaVuSans-30" x="97.314453"/>
       <use xlink:href="#DejaVuSans-33" x="160.9375"/>
       <use xlink:href="#DejaVuSans-3a" x="224.560547"/>
       <use xlink:href="#DejaVuSans-30" x="258.251953"/>
       <use xlink:href="#DejaVuSans-30" x="321.875"/>
      </g>
     </g>
    </g>
    <g id="xtick_8">
     <g id="line2d_8">
      <g>
       <use xlink:href="#m367d9f2163" x="470.454545" y="256.32" style="stroke: #000000; stroke-width: 0.8"/>
      </g>
     </g>
     <g id="text_8">
      <!-- 0:03:30 -->
      <g transform="translate(451.179545 270.918437) scale(0.1 -0.1)">
       <use xlink:href="#DejaVuSans-30"/>
       <use xlink:href="#DejaVuSans-3a" x="63.623047"/>
       <use xlink:href="#DejaVuSans-30" x="97.314453"/>
       <use xlink:href="#DejaVuSans-33" x="160.9375"/>
       <use xlink:href="#DejaVuSans-3a" x="224.560547"/>
       <use xlink:href="#DejaVuSans-33" x="258.251953"/>
       <use xlink:href="#DejaVuSans-30" x="321.875"/>
      </g>
     </g>
    </g>
    <g id="xtick_9">
     <g id="line2d_9">
      <g>
       <use xlink:href="#m367d9f2163" x="521.181818" y="256.32" style="stroke: #000000; stroke-width: 0.8"/>
      </g>
     </g>
     <g id="text_9">
      <!-- 0:04:00 -->
      <g transform="translate(501.906818 270.918437) scale(0.1 -0.1)">
       <defs>
        <path id="DejaVuSans-34" d="M 2419 4116 
L 825 1625 
L 2419 1625 
L 2419 4116 
z
M 2253 4666 
L 3047 4666 
L 3047 1625 
L 3713 1625 
L 3713 1100 
L 3047 1100 
L 3047 0 
L 2419 0 
L 2419 1100 
L 313 1100 
L 313 1709 
L 2253 4666 
z
" transform="scale(0.015625)"/>
       </defs>
       <use xlink:href="#DejaVuSans-30"/>
       <use xlink:href="#DejaVuSans-3a" x="63.623047"/>
       <use xlink:href="#DejaVuSans-30" x="97.314453"/>
       <use xlink:href="#DejaVuSans-34" x="160.9375"/>
       <use xlink:href="#DejaVuSans-3a" x="224.560547"/>
       <use xlink:href="#DejaVuSans-30" x="258.251953"/>
       <use xlink:href="#DejaVuSans-30" x="321.875"/>
      </g>
     </g>
    </g>
    <g id="xtick_10">
     <g id="line2d_10">
      <g>
       <use xlink:href="#m367d9f2163" x="571.909091" y="256.32" style="stroke: #000000; stroke-width: 0.8"/>
      </g>
     </g>
     <g id="text_10">
      <!-- 0:04:30 -->
      <g transform="translate(552.634091 270.918437) scale(0.1 -0.1)">
       <use xlink:href="#DejaVuSans-30"/>
       <use xlink:href="#DejaVuSans-3a" x="63.623047"/>
       <use xlink:href="#DejaVuSans-30" x="97.314453"/>
       <use xlink:href="#DejaVuSans-34" x="160.9375"/>
       <use xlink:href="#DejaVuSans-3a" x="224.560547"/>
       <use xlink:href="#DejaVuSans-33" x="258.251953"/>
       <use xlink:href="#DejaVuSans-30" x="321.875"/>
      </g>
     </g>
    </g>
    <g id="xtick_11">
     <g id="line2d_11">
      <g>
       <use xlink:href="#m367d9f2163" x="622.636364" y="256.32" style="stroke: #000000; stroke-width: 0.8"/>
      </g>
     </g>
     <g id="text_11">
      <!-- 0:05:00 -->
      <g transform="translate(603.361364 270.918437) scale(0.1 -0.1)">
       <defs>
        <path id="DejaVuSans-35" d="M 691 4666 
L 3169 4666 
L 3169 4134 
L 1269 4134 
L 1269 2991 
Q 1406 3038 1543 3061 
Q 1681 3084 1819 3084 
Q 2600 3084 3056 2656 
Q 3513 2228 3513 1497 
Q 3513 744 3044 326 
Q 2575 -91 1722 -91 
Q 1428 -91 1123 -41 
Q 819 9 494 109 
L 494 744 
Q 775 591 1075 516 
Q 1375 441 1709 441 
Q 2250 441 2565 725 
Q 2881 1009 2881 1497 
Q 2881 1984 2565 2268 
Q 2250 2553 1709 2553 
Q 1456 2553 1204 2497 
Q 953 2441 691 2322 
L 691 4666 
z
" transform="scale(0.015625)"/>
       </defs>
       <use xlink:href="#DejaVuSans-30"/>
       <use xlink:href="#DejaVuSans-3a" x="63.623047"/>
       <use xlink:href="#DejaVuSans-30" x="97.314453"/>
       <use xlink:href="#DejaVuSans-35" x="160.9375"/>
       <use xlink:href="#DejaVuSans-3a" x="224.560547"/>
       <use xlink:href="#DejaVuSans-30" x="258.251953"/>
       <use xlink:href="#DejaVuSans-30" x="321.875"/>
      </g>
     </g>
    </g>
    <g id="text_12">
     <!-- Time -->
     <g transform="translate(356.766406 284.596563) scale(0.1 -0.1)">
      <defs>
       <path id="DejaVuSans-54" d="M -19 4666 
L 3928 4666 
L 3928 4134 
L 2272 4134 
L 2272 0 
L 1638 0 
L 1638 4134 
L -19 4134 
L -19 4666 
z
" transform="scale(0.015625)"/>
       <path id="DejaVuSans-69" d="M 603 3500 
L 1178 3500 
L 1178 0 
L 603 0 
L 603 3500 
z
M 603 4863 
L 1178 4863 
L 1178 4134 
L 603 4134 
L 603 4863 
z
" transform="scale(0.015625)"/>
       <path id="DejaVuSans-6d" d="M 3328 2828 
Q 3544 3216 3844 3400 
Q 4144 3584 4550 3584 
Q 5097 3584 5394 3201 
Q 5691 2819 5691 2113 
L 5691 0 
L 5113 0 
L 5113 2094 
Q 5113 2597 4934 2840 
Q 4756 3084 4391 3084 
Q 3944 3084 3684 2787 
Q 3425 2491 3425 1978 
L 3425 0 
L 2847 0 
L 2847 2094 
Q 2847 2600 2669 2842 
Q 2491 3084 2119 3084 
Q 1678 3084 1418 2786 
Q 1159 2488 1159 1978 
L 1159 0 
L 581 0 
L 581 3500 
L 1159 3500 
L 1159 2956 
Q 1356 3278 1631 3431 
Q 1906 3584 2284 3584 
Q 2666 3584 2933 3390 
Q 3200 3197 3328 2828 
z
" transform="scale(0.015625)"/>
       <path id="DejaVuSans-65" d="M 3597 1894 
L 3597 1613 
L 953 1613 
Q 991 1019 1311 708 
Q 1631 397 2203 397 
Q 2534 397 2845 478 
Q 3156 559 3463 722 
L 3463 178 
Q 3153 47 2828 -22 
Q 2503 -91 2169 -91 
Q 1331 -91 842 396 
Q 353 884 353 1716 
Q 353 2575 817 3079 
Q 1281 3584 2069 3584 
Q 2775 3584 3186 3129 
Q 3597 2675 3597 1894 
z
M 3022 2063 
Q 3016 2534 2758 2815 
Q 2500 3097 2075 3097 
Q 1594 3097 1305 2825 
Q 1016 2553 972 2059 
L 3022 2063 
z
" transform="scale(0.015625)"/>
      </defs>
      <use xlink:href="#DejaVuSans-54"/>
      <use xlink:href="#DejaVuSans-69" x="57.958984"/>
      <use xlink:href="#DejaVuSans-6d" x="85.742188"/>
      <use xlink:href="#DejaVuSans-65" x="183.154297"/>
     </g>
    </g>
   </g>
   <g id="matplotlib.axis_2">
    <g id="ytick_1">
     <g id="line2d_12">
      <path d="M 90 246.24 
L 648 246.24 
" clip-path="url(#p8a3780ac3f)" style="fill: none; stroke: #b0b0b0; stroke-width: 0.8; stroke-linecap: square"/>
     </g>
     <g id="line2d_13">
      <defs>
       <path id="mfcd0a6924f" d="M 0 0 
L -3.5 0 
" style="stroke: #000000; stroke-width: 0.8"/>
      </defs>
      <g>
       <use xlink:href="#mfcd0a6924f" x="90" y="246.24" style="stroke: #000000; stroke-width: 0.8"/>
      </g>
     </g>
     <g id="text_13">
      <!-- 0 -->
      <g transform="translate(76.6375 250.039219) scale(0.1 -0.1)">
       <use xlink:href="#DejaVuSans-30"/>
      </g>
     </g>
    </g>
    <g id="ytick_2">
     <g id="line2d_14">
      <path d="M 90 201.340223 
L 648 201.340223 
" clip-path="url(#p8a3780ac3f)" style="fill: none; stroke: #b0b0b0; stroke-width: 0.8; stroke-linecap: square"/>
     </g>
     <g id="line2d_15">
      <g>
       <use xlink:href="#mfcd0a6924f" x="90" y="201.340223" style="stroke: #000000; stroke-width: 0.8"/>
      </g>
     </g>
     <g id="text_14">
      <!-- 2,000 -->
      <g transform="translate(54.371875 205.139441) scale(0.1 -0.1)">
       <defs>
        <path id="DejaVuSans-2c" d="M 750 794 
L 1409 794 
L 1409 256 
L 897 -744 
L 494 -744 
L 750 256 
L 750 794 
z
" transform="scale(0.015625)"/>
       </defs>
       <use xlink:href="#DejaVuSans-32"/>
       <use xlink:href="#DejaVuSans-2c" x="63.623047"/>
       <use xlink:href="#DejaVuSans-30" x="95.410156"/>
       <use xlink:href="#DejaVuSans-30" x="159.033203"/>
       <use xlink:href="#DejaVuSans-30" x="222.65625"/>
      </g>
     </g>
    </g>
    <g id="ytick_3">
     <g id="line2d_16">
      <path d="M 90 156.440445 
L 648 156.440445 
" clip-path="url(#p8a3780ac3f)" style="fill: none; stroke: #b0b0b0; stroke-width: 0.8; stroke-linecap: square"/>
     </g>
     <g id="line2d_17">
      <g>
       <use xlink:href="#mfcd0a6924f" x="90" y="156.440445" style="stroke: #000000; stroke-width: 0.8"/>
      </g>
     </g>
     <g id="text_15">
      <!-- 4,000 -->
      <g transform="translate(54.371875 160.239664) scale(0.1 -0.1)">
       <use xlink:href="#DejaVuSans-34"/>
       <use xlink:href="#DejaVuSans-2c" x="63.623047"/>
       <use xlink:href="#DejaVuSans-30" x="95.410156"/>
       <use xlink:href="#DejaVuSans-30" x="159.033203"/>
       <use xlink:href="#DejaVuSans-30" x="222.65625"/>
      </g>
     </g>
    </g>
    <g id="ytick_4">
     <g id="line2d_18">
      <path d="M 90 111.540668 
L 648 111.540668 
" clip-path="url(#p8a3780ac3f)" style="fill: none; stroke: #b0b0b0; stroke-width: 0.8; stroke-linecap: square"/>
     </g>
     <g id="line2d_19">
      <g>
       <use xlink:href="#mfcd0a6924f" x="90" y="111.540668" style="stroke: #000000; stroke-width: 0.8"/>
      </g>
     </g>
     <g id="text_16">
      <!-- 6,000 -->
      <g transform="translate(54.371875 115.339887) scale(0.1 -0.1)">
       <defs>
        <path id="DejaVuSans-36" d="M 2113 2584 
Q 1688 2584 1439 2293 
Q 1191 2003 1191 1497 
Q 1191 994 1439 701 
Q 1688 409 2113 409 
Q 2538 409 2786 701 
Q 3034 994 3034 1497 
Q 3034 2003 2786 2293 
Q 2538 2584 2113 2584 
z
M 3366 4563 
L 3366 3988 
Q 3128 4100 2886 4159 
Q 2644 4219 2406 4219 
Q 1781 4219 1451 3797 
Q 1122 3375 1075 2522 
Q 1259 2794 1537 2939 
Q 1816 3084 2150 3084 
Q 2853 3084 3261 2657 
Q 3669 2231 3669 1497 
Q 3669 778 3244 343 
Q 2819 -91 2113 -91 
Q 1303 -91 875 529 
Q 447 1150 447 2328 
Q 447 3434 972 4092 
Q 1497 4750 2381 4750 
Q 2619 4750 2861 4703 
Q 3103 4656 3366 4563 
z
" transform="scale(0.015625)"/>
       </defs>
       <use xlink:href="#DejaVuSans-36"/>
       <use xlink:href="#DejaVuSans-2c" x="63.623047"/>
       <use xlink:href="#DejaVuSans-30" x="95.410156"/>
       <use xlink:href="#DejaVuSans-30" x="159.033203"/>
       <use xlink:href="#DejaVuSans-30" x="222.65625"/>
      </g>
     </g>
    </g>
    <g id="ytick_5">
     <g id="line2d_20">
      <path d="M 90 66.640891 
L 648 66.640891 
" clip-path="url(#p8a3780ac3f)" style="fill: none; stroke: #b0b0b0; stroke-width: 0.8; stroke-linecap: square"/>
     </g>
     <g id="line2d_21">
      <g>
       <use xlink:href="#mfcd0a6924f" x="90" y="66.640891" style="stroke: #000000; stroke-width: 0.8"/>
      </g>
     </g>
     <g id="text_17">
      <!-- 8,000 -->
      <g transform="translate(54.371875 70.44011) scale(0.1 -0.1)">
       <defs>
        <path id="DejaVuSans-38" d="M 2034 2216 
Q 1584 2216 1326 1975 
Q 1069 1734 1069 1313 
Q 1069 891 1326 650 
Q 1584 409 2034 409 
Q 2484 409 2743 651 
Q 3003 894 3003 1313 
Q 3003 1734 2745 1975 
Q 2488 2216 2034 2216 
z
M 1403 2484 
Q 997 2584 770 2862 
Q 544 3141 544 3541 
Q 544 4100 942 4425 
Q 1341 4750 2034 4750 
Q 2731 4750 3128 4425 
Q 3525 4100 3525 3541 
Q 3525 3141 3298 2862 
Q 3072 2584 2669 2484 
Q 3125 2378 3379 2068 
Q 3634 1759 3634 1313 
Q 3634 634 3220 271 
Q 2806 -91 2034 -91 
Q 1263 -91 848 271 
Q 434 634 434 1313 
Q 434 1759 690 2068 
Q 947 2378 1403 2484 
z
M 1172 3481 
Q 1172 3119 1398 2916 
Q 1625 2713 2034 2713 
Q 2441 2713 2670 2916 
Q 2900 3119 2900 3481 
Q 2900 3844 2670 4047 
Q 2441 4250 2034 4250 
Q 1625 4250 1398 4047 
Q 1172 3844 1172 3481 
z
" transform="scale(0.015625)"/>
       </defs>
       <use xlink:href="#DejaVuSans-38"/>
       <use xlink:href="#DejaVuSans-2c" x="63.623047"/>
       <use xlink:href="#DejaVuSans-30" x="95.410156"/>
       <use xlink:href="#DejaVuSans-30" x="159.033203"/>
       <use xlink:href="#DejaVuSans-30" x="222.65625"/>
      </g>
     </g>
    </g>
    <g id="text_18">
     <!-- Bitrate (kbit/s) -->
     <g transform="translate(48.292187 181.574375) rotate(-90) scale(0.1 -0.1)">
      <defs>
       <path id="DejaVuSans-42" d="M 1259 2228 
L 1259 519 
L 2272 519 
Q 2781 519 3026 730 
Q 3272 941 3272 1375 
Q 3272 1813 3026 2020 
Q 2781 2228 2272 2228 
L 1259 2228 
z
M 1259 4147 
L 1259 2741 
L 2194 2741 
Q 2656 2741 2882 2914 
Q 3109 3088 3109 3444 
Q 3109 3797 2882 3972 
Q 2656 4147 2194 4147 
L 1259 4147 
z
M 628 4666 
L 2241 4666 
Q 2963 4666 3353 4366 
Q 3744 4066 3744 3513 
Q 3744 3084 3544 2831 
Q 3344 2578 2956 2516 
Q 3422 2416 3680 2098 
Q 3938 1781 3938 1306 
Q 3938 681 3513 340 
Q 3088 0 2303 0 
L 628 0 
L 628 4666 
z
" transform="scale(0.015625)"/>
       <path id="DejaVuSans-74" d="M 1172 4494 
L 1172 3500 
L 2356 3500 
L 2356 3053 
L 1172 3053 
L 1172 1153 
Q 1172 725 1289 603 
Q 1406 481 1766 481 
L 2356 481 
L 2356 0 
L 1766 0 
Q 1100 0 847 248 
Q 594 497 594 1153 
L 594 3053 
L 172 3053 
L 172 3500 
L 594 3500 
L 594 4494 
L 1172 4494 
z
" transform="scale(0.015625)"/>
       <path id="DejaVuSans-72" d="M 2631 2963 
Q 2534 3019 2420 3045 
Q 2306 3072 2169 3072 
Q 1681 3072 1420 2755 
Q 1159 2438 1159 1844 
L 1159 0 
L 581 0 
L 581 3500 
L 1159 3500 
L 1159 2956 
Q 1341 3275 1631 3429 
Q 1922 3584 2338 3584 
Q 2397 3584 2469 3576 
Q 2541 3569 2628 3553 
L 2631 2963 
z
" transform="scale(0.015625)"/>
       <path id="DejaVuSans-61" d="M 2194 1759 
Q 1497 1759 1228 1600 
Q 959 1441 959 1056 
Q 959 750 1161 570 
Q 1363 391 1709 391 
Q 2188 391 2477 730 
Q 2766 1069 2766 1631 
L 2766 1759 
L 2194 1759 
z
M 3341 1997 
L 3341 0 
L 2766 0 
L 2766 531 
Q 2569 213 2275 61 
Q 1981 -91 1556 -91 
Q 1019 -91 701 211 
Q 384 513 384 1019 
Q 384 1609 779 1909 
Q 1175 2209 1959 2209 
L 2766 2209 
L 2766 2266 
Q 2766 2663 2505 2880 
Q 2244 3097 1772 3097 
Q 1472 3097 1187 3025 
Q 903 2953 641 2809 
L 641 3341 
Q 956 3463 1253 3523 
Q 1550 3584 1831 3584 
Q 2591 3584 2966 3190 
Q 3341 2797 3341 1997 
z
" transform="scale(0.015625)"/>
       <path id="DejaVuSans-20" transform="scale(0.015625)"/>
       <path id="DejaVuSans-28" d="M 1984 4856 
Q 1566 4138 1362 3434 
Q 1159 2731 1159 2009 
Q 1159 1288 1364 580 
Q 1569 -128 1984 -844 
L 1484 -844 
Q 1016 -109 783 600 
Q 550 1309 550 2009 
Q 550 2706 781 3412 
Q 1013 4119 1484 4856 
L 1984 4856 
z
" transform="scale(0.015625)"/>
       <path id="DejaVuSans-6b" d="M 581 4863 
L 1159 4863 
L 1159 1991 
L 2875 3500 
L 3609 3500 
L 1753 1863 
L 3688 0 
L 2938 0 
L 1159 1709 
L 1159 0 
L 581 0 
L 581 4863 
z
" transform="scale(0.015625)"/>
       <path id="DejaVuSans-62" d="M 3116 1747 
Q 3116 2381 2855 2742 
Q 2594 3103 2138 3103 
Q 1681 3103 1420 2742 
Q 1159 2381 1159 1747 
Q 1159 1113 1420 752 
Q 1681 391 2138 391 
Q 2594 391 2855 752 
Q 3116 1113 3116 1747 
z
M 1159 2969 
Q 1341 3281 1617 3432 
Q 1894 3584 2278 3584 
Q 2916 3584 3314 3078 
Q 3713 2572 3713 1747 
Q 3713 922 3314 415 
Q 2916 -91 2278 -91 
Q 1894 -91 1617 61 
Q 1341 213 1159 525 
L 1159 0 
L 581 0 
L 581 4863 
L 1159 4863 
L 1159 2969 
z
" transform="scale(0.015625)"/>
       <path id="DejaVuSans-2f" d="M 1625 4666 
L 2156 4666 
L 531 -594 
L 0 -594 
L 1625 4666 
z
" transform="scale(0.015625)"/>
       <path id="DejaVuSans-73" d="M 2834 3397 
L 2834 2853 
Q 2591 2978 2328 3040 
Q 2066 3103 1784 3103 
Q 1356 3103 1142 2972 
Q 928 2841 928 2578 
Q 928 2378 1081 2264 
Q 1234 2150 1697 2047 
L 1894 2003 
Q 2506 1872 2764 1633 
Q 3022 1394 3022 966 
Q 3022 478 2636 193 
Q 2250 -91 1575 -91 
Q 1294 -91 989 -36 
Q 684 19 347 128 
L 347 722 
Q 666 556 975 473 
Q 1284 391 1588 391 
Q 1994 391 2212 530 
Q 2431 669 2431 922 
Q 2431 1156 2273 1281 
Q 2116 1406 1581 1522 
L 1381 1569 
Q 847 1681 609 1914 
Q 372 2147 372 2553 
Q 372 3047 722 3315 
Q 1072 3584 1716 3584 
Q 2034 3584 2315 3537 
Q 2597 3491 2834 3397 
z
" transform="scale(0.015625)"/>
       <path id="DejaVuSans-29" d="M 513 4856 
L 1013 4856 
Q 1481 4119 1714 3412 
Q 1947 2706 1947 2009 
Q 1947 1309 1714 600 
Q 1481 -109 1013 -844 
L 513 -844 
Q 928 -128 1133 580 
Q 1338 1288 1338 2009 
Q 1338 2731 1133 3434 
Q 928 4138 513 4856 
z
" transform="scale(0.015625)"/>
      </defs>
      <use xlink:href="#DejaVuSans-42"/>
      <use xlink:href="#DejaVuSans-69" x="68.603516"/>
      <use xlink:href="#DejaVuSans-74" x="96.386719"/>
      <use xlink:href="#DejaVuSans-72" x="135.595703"/>
      <use xlink:href="#DejaVuSans-61" x="176.708984"/>
      <use xlink:href="#DejaVuSans-74" x="237.988281"/>
      <use xlink:href="#DejaVuSans-65" x="277.197266"/>
      <use xlink:href="#DejaVuSans-20" x="338.720703"/>
      <use xlink:href="#DejaVuSans-28" x="370.507812"/>
      <use xlink:href="#DejaVuSans-6b" x="409.521484"/>
      <use xlink:href="#DejaVuSans-62" x="467.431641"/>
      <use xlink:href="#DejaVuSans-69" x="530.908203"/>
      <use xlink:href="#DejaVuSans-74" x="558.691406"/>
      <use xlink:href="#DejaVuSans-2f" x="597.900391"/>
      <use xlink:href="#DejaVuSans-73" x="631.591797"/>
      <use xlink:href="#DejaVuSans-29" x="683.691406"/>
     </g>
    </g>
   </g>
   <g id="PolyCollection_1">
    <defs>
     <path id="m17f443e902" d="M 115.363636 -43.466192 
L 115.363636 -41.76 
L 117.054545 -41.76 
L 118.745455 -41.76 
L 120.436364 -41.76 
L 122.127273 -41.76 
L 123.818182 -41.76 
L 125.509091 -41.76 
L 127.2 -41.76 
L 128.890909 -41.76 
L 130.581818 -41.76 
L 132.272727 -41.76 
L 133.963636 -41.76 
L 135.654545 -41.76 
L 137.345455 -41.76 
L 139.036364 -41.76 
L 140.727273 -41.76 
L 142.418182 -41.76 
L 144.109091 -41.76 
L 145.8 -41.76 
L 147.490909 -41.76 
L 149.181818 -41.76 
L 150.872727 -41.76 
L 152.563636 -41.76 
L 154.254545 -41.76 
L 155.945455 -41.76 
L 157.636364 -41.76 
L 159.327273 -41.76 
L 161.018182 -41.76 
L 162.709091 -41.76 
L 164.4 -41.76 
L 166.090909 -41.76 
L 167.781818 -41.76 
L 169.472727 -41.76 
L 171.163636 -41.76 
L 172.854545 -41.76 
L 174.545455 -41.76 
L 176.236364 -41.76 
L 177.927273 -41.76 
L 179.618182 -41.76 
L 181.309091 -41.76 
L 183 -41.76 
L 184.690909 -41.76 
L 186.381818 -41.76 
L 188.072727 -41.76 
L 189.763636 -41.76 
L 191.454545 -41.76 
L 193.145455 -41.76 
L 194.836364 -41.76 
L 196.527273 -41.76 
L 198.218182 -41.76 
L 199.909091 -41.76 
L 201.6 -41.76 
L 203.290909 -41.76 
L 204.981818 -41.76 
L 206.672727 -41.76 
L 208.363636 -41.76 
L 210.054545 -41.76 
L 211.745455 -41.76 
L 213.436364 -41.76 
L 215.127273 -41.76 
L 216.818182 -41.76 
L 218.509091 -41.76 
L 220.2 -41.76 
L 221.890909 -41.76 
L 223.581818 -41.76 
L 225.272727 -41.76 
L 226.963636 -41.76 
L 228.654545 -41.76 
L 230.345455 -41.76 
L 232.036364 -41.76 
L 233.727273 -41.76 
L 235.418182 -41.76 
L 237.109091 -41.76 
L 238.8 -41.76 
L 240.490909 -41.76 
L 242.181818 -41.76 
L 243.872727 -41.76 
L 245.563636 -41.76 
L 247.254545 -41.76 
L 248.945455 -41.76 
L 250.636364 -41.76 
L 252.327273 -41.76 
L 254.018182 -41.76 
L 255.709091 -41.76 
L 257.4 -41.76 
L 259.090909 -41.76 
L 260.781818 -41.76 
L 262.472727 -41.76 
L 264.163636 -41.76 
L 265.854545 -41.76 
L 267.545455 -41.76 
L 269.236364 -41.76 
L 270.927273 -41.76 
L 272.618182 -41.76 
L 274.309091 -41.76 
L 276 -41.76 
L 277.690909 -41.76 
L 279.381818 -41.76 
L 281.072727 -41.76 
L 282.763636 -41.76 
L 284.454545 -41.76 
L 286.145455 -41.76 
L 287.836364 -41.76 
L 289.527273 -41.76 
L 291.218182 -41.76 
L 292.909091 -41.76 
L 294.6 -41.76 
L 296.290909 -41.76 
L 297.981818 -41.76 
L 299.672727 -41.76 
L 301.363636 -41.76 
L 303.054545 -41.76 
L 304.745455 -41.76 
L 306.436364 -41.76 
L 308.127273 -41.76 
L 309.818182 -41.76 
L 311.509091 -41.76 
L 313.2 -41.76 
L 314.890909 -41.76 
L 316.581818 -41.76 
L 318.272727 -41.76 
L 319.963636 -41.76 
L 321.654545 -41.76 
L 323.345455 -41.76 
L 325.036364 -41.76 
L 326.727273 -41.76 
L 328.418182 -41.76 
L 330.109091 -41.76 
L 331.8 -41.76 
L 333.490909 -41.76 
L 335.181818 -41.76 
L 336.872727 -41.76 
L 338.563636 -41.76 
L 340.254545 -41.76 
L 341.945455 -41.76 
L 343.636364 -41.76 
L 345.327273 -41.76 
L 347.018182 -41.76 
L 348.709091 -41.76 
L 350.4 -41.76 
L 352.090909 -41.76 
L 353.781818 -41.76 
L 355.472727 -41.76 
L 357.163636 -41.76 
L 358.854545 -41.76 
L 360.545455 -41.76 
L 362.236364 -41.76 
L 363.927273 -41.76 
L 365.618182 -41.76 
L 367.309091 -41.76 
L 369 -41.76 
L 370.690909 -41.76 
L 372.381818 -41.76 
L 374.072727 -41.76 
L 375.763636 -41.76 
L 377.454545 -41.76 
L 379.145455 -41.76 
L 380.836364 -41.76 
L 382.527273 -41.76 
L 384.218182 -41.76 
L 385.909091 -41.76 
L 387.6 -41.76 
L 389.290909 -41.76 
L 390.981818 -41.76 
L 392.672727 -41.76 
L 394.363636 -41.76 
L 396.054545 -41.76 
L 397.745455 -41.76 
L 399.436364 -41.76 
L 401.127273 -41.76 
L 402.818182 -41.76 
L 404.509091 -41.76 
L 406.2 -41.76 
L 407.890909 -41.76 
L 409.581818 -41.76 
L 411.272727 -41.76 
L 412.963636 -41.76 
L 414.654545 -41.76 
L 416.345455 -41.76 
L 418.036364 -41.76 
L 419.727273 -41.76 
L 421.418182 -41.76 
L 423.109091 -41.76 
L 424.8 -41.76 
L 426.490909 -41.76 
L 428.181818 -41.76 
L 429.872727 -41.76 
L 431.563636 -41.76 
L 433.254545 -41.76 
L 434.945455 -41.76 
L 436.636364 -41.76 
L 438.327273 -41.76 
L 440.018182 -41.76 
L 441.709091 -41.76 
L 443.4 -41.76 
L 445.090909 -41.76 
L 446.781818 -41.76 
L 448.472727 -41.76 
L 450.163636 -41.76 
L 451.854545 -41.76 
L 453.545455 -41.76 
L 455.236364 -41.76 
L 456.927273 -41.76 
L 458.618182 -41.76 
L 460.309091 -41.76 
L 462 -41.76 
L 463.690909 -41.76 
L 465.381818 -41.76 
L 467.072727 -41.76 
L 468.763636 -41.76 
L 470.454545 -41.76 
L 472.145455 -41.76 
L 473.836364 -41.76 
L 475.527273 -41.76 
L 477.218182 -41.76 
L 478.909091 -41.76 
L 480.6 -41.76 
L 482.290909 -41.76 
L 483.981818 -41.76 
L 485.672727 -41.76 
L 487.363636 -41.76 
L 489.054545 -41.76 
L 490.745455 -41.76 
L 492.436364 -41.76 
L 494.127273 -41.76 
L 495.818182 -41.76 
L 497.509091 -41.76 
L 499.2 -41.76 
L 500.890909 -41.76 
L 502.581818 -41.76 
L 504.272727 -41.76 
L 505.963636 -41.76 
L 507.654545 -41.76 
L 509.345455 -41.76 
L 511.036364 -41.76 
L 512.727273 -41.76 
L 514.418182 -41.76 
L 516.109091 -41.76 
L 517.8 -41.76 
L 519.490909 -41.76 
L 521.181818 -41.76 
L 522.872727 -41.76 
L 524.563636 -41.76 
L 526.254545 -41.76 
L 527.945455 -41.76 
L 529.636364 -41.76 
L 531.327273 -41.76 
L 533.018182 -41.76 
L 534.709091 -41.76 
L 536.4 -41.76 
L 538.090909 -41.76 
L 539.781818 -41.76 
L 541.472727 -41.76 
L 543.163636 -41.76 
L 544.854545 -41.76 
L 546.545455 -41.76 
L 548.236364 -41.76 
L 549.927273 -41.76 
L 551.618182 -41.76 
L 553.309091 -41.76 
L 555 -41.76 
L 556.690909 -41.76 
L 558.381818 -41.76 
L 560.072727 -41.76 
L 561.763636 -41.76 
L 563.454545 -41.76 
L 565.145455 -41.76 
L 566.836364 -41.76 
L 568.527273 -41.76 
L 570.218182 -41.76 
L 571.909091 -41.76 
L 573.6 -41.76 
L 575.290909 -41.76 
L 576.981818 -41.76 
L 578.672727 -41.76 
L 580.363636 -41.76 
L 582.054545 -41.76 
L 583.745455 -41.76 
L 585.436364 -41.76 
L 587.127273 -41.76 
L 588.818182 -41.76 
L 590.509091 -41.76 
L 592.2 -41.76 
L 593.890909 -41.76 
L 595.581818 -41.76 
L 597.272727 -41.76 
L 598.963636 -41.76 
L 600.654545 -41.76 
L 602.345455 -41.76 
L 604.036364 -41.76 
L 605.727273 -41.76 
L 607.418182 -41.76 
L 609.109091 -41.76 
L 610.8 -41.76 
L 612.490909 -41.76 
L 614.181818 -41.76 
L 615.872727 -41.76 
L 617.563636 -41.76 
L 619.254545 -41.76 
L 620.945455 -41.76 
L 622.636364 -41.76 
L 622.636364 -41.76 
L 622.636364 -41.76 
L 620.945455 -62.750646 
L 619.254545 -41.76 
L 617.563636 -41.76 
L 615.872727 -60.101559 
L 614.181818 -41.76 
L 612.490909 -41.76 
L 610.8 -98.26637 
L 609.109091 -41.76 
L 607.418182 -41.76 
L 605.727273 -41.76 
L 604.036364 -102.733898 
L 602.345455 -41.76 
L 600.654545 -41.76 
L 598.963636 -41.76 
L 597.272727 -75.704232 
L 595.581818 -81.137105 
L 593.890909 -41.76 
L 592.2 -86.951626 
L 590.509091 -41.76 
L 588.818182 -56.419777 
L 587.127273 -41.76 
L 585.436364 -93.821292 
L 583.745455 -41.76 
L 582.054545 -41.76 
L 580.363636 -41.76 
L 578.672727 -94.09069 
L 576.981818 -41.76 
L 575.290909 -41.76 
L 573.6 -41.76 
L 571.909091 -69.844811 
L 570.218182 -41.76 
L 568.527273 -72.336748 
L 566.836364 -75.457283 
L 565.145455 -41.76 
L 563.454545 -56.352428 
L 561.763636 -41.76 
L 560.072727 -124.689889 
L 558.381818 -41.76 
L 556.690909 -83.584143 
L 555 -41.76 
L 553.309091 -57.587171 
L 551.618182 -87.580223 
L 549.927273 -41.76 
L 548.236364 -54.982984 
L 546.545455 -57.227973 
L 544.854545 -41.76 
L 543.163636 -41.76 
L 541.472727 -65.444633 
L 539.781818 -41.76 
L 538.090909 -41.76 
L 536.4 -41.76 
L 534.709091 -41.76 
L 533.018182 -86.480178 
L 531.327273 -113.846592 
L 529.636364 -62.526147 
L 527.945455 -41.76 
L 526.254545 -41.76 
L 524.563636 -41.76 
L 522.872727 -64.277238 
L 521.181818 -41.76 
L 519.490909 -41.76 
L 517.8 -41.76 
L 516.109091 -41.76 
L 514.418182 -60.034209 
L 512.727273 -41.76 
L 511.036364 -104.035991 
L 509.345455 -41.76 
L 507.654545 -41.76 
L 505.963636 -41.76 
L 504.272727 -59.001514 
L 502.581818 -41.76 
L 500.890909 -117.842673 
L 499.2 -41.76 
L 497.509091 -41.76 
L 495.818182 -75.816481 
L 494.127273 -55.117684 
L 492.436364 -41.76 
L 490.745455 -63.783341 
L 489.054545 -41.76 
L 487.363636 -41.76 
L 485.672727 -41.76 
L 483.981818 -56.240178 
L 482.290909 -41.76 
L 480.6 -64.860935 
L 478.909091 -41.76 
L 477.218182 -41.76 
L 475.527273 -64.883385 
L 473.836364 -41.76 
L 472.145455 -61.111804 
L 470.454545 -68.205969 
L 468.763636 -41.76 
L 467.072727 -87.288374 
L 465.381818 -41.76 
L 463.690909 -41.76 
L 462 -41.76 
L 460.309091 -65.758931 
L 458.618182 -41.76 
L 456.927273 -41.76 
L 455.236364 -54.578886 
L 453.545455 -62.907795 
L 451.854545 -57.227973 
L 450.163636 -41.76 
L 448.472727 -41.76 
L 446.781818 -56.823875 
L 445.090909 -41.76 
L 443.4 -41.76 
L 441.709091 -76.445078 
L 440.018182 -41.76 
L 438.327273 -41.76 
L 436.636364 -49.90931 
L 434.945455 -70.697906 
L 433.254545 -41.76 
L 431.563636 -41.76 
L 429.872727 -41.76 
L 428.181818 -41.76 
L 426.490909 -75.008285 
L 424.8 -41.76 
L 423.109091 -70.944855 
L 421.418182 -41.76 
L 419.727273 -78.622717 
L 418.036364 -41.76 
L 416.345455 -56.644276 
L 414.654545 -41.76 
L 412.963636 -41.76 
L 411.272727 -41.76 
L 409.581818 -41.76 
L 407.890909 -57.519822 
L 406.2 -80.710557 
L 404.509091 -41.76 
L 402.818182 -61.044454 
L 401.127273 -41.76 
L 399.436364 -41.76 
L 397.745455 -81.406503 
L 396.054545 -59.764811 
L 394.363636 -81.608552 
L 392.672727 -82.214699 
L 390.981818 -41.76 
L 389.290909 -41.76 
L 387.6 -41.76 
L 385.909091 -85.402584 
L 384.218182 -41.76 
L 382.527273 -41.76 
L 380.836364 -74.761336 
L 379.145455 -41.76 
L 377.454545 -41.76 
L 375.763636 -41.76 
L 374.072727 -77.590022 
L 372.381818 -41.76 
L 370.690909 -41.76 
L 369 -135.892383 
L 367.309091 -41.76 
L 365.618182 -41.76 
L 363.927273 -66.701826 
L 362.236364 -41.76 
L 360.545455 -41.76 
L 358.854545 -41.76 
L 357.163636 -75.232784 
L 355.472727 -41.76 
L 353.781818 -41.76 
L 352.090909 -41.76 
L 350.4 -74.693987 
L 348.709091 -41.76 
L 347.018182 -41.76 
L 345.327273 -41.76 
L 343.636364 -72.426548 
L 341.945455 -41.76 
L 340.254545 -41.76 
L 338.563636 -41.76 
L 336.872727 -75.614432 
L 335.181818 -41.76 
L 333.490909 -41.76 
L 331.8 -41.76 
L 330.109091 -71.528552 
L 328.418182 -41.76 
L 326.727273 -70.585657 
L 325.036364 -41.76 
L 323.345455 -41.76 
L 321.654545 -79.520713 
L 319.963636 -84.01069 
L 318.272727 -41.76 
L 316.581818 -41.76 
L 314.890909 -41.76 
L 313.2 -92.18245 
L 311.509091 -52.760445 
L 309.818182 -41.76 
L 308.127273 -41.76 
L 306.436364 -41.76 
L 304.745455 -56.105479 
L 303.054545 -41.76 
L 301.363636 -41.76 
L 299.672727 -41.76 
L 297.981818 -57.474922 
L 296.290909 -41.76 
L 294.6 -41.76 
L 292.909091 -41.76 
L 291.218182 -101.184855 
L 289.527273 -41.76 
L 287.836364 -41.76 
L 286.145455 -41.76 
L 284.454545 -41.76 
L 282.763636 -66.881425 
L 281.072727 -41.76 
L 279.381818 -41.76 
L 277.690909 -41.76 
L 276 -70.832606 
L 274.309091 -78.779866 
L 272.618182 -41.76 
L 270.927273 -69.036615 
L 269.236364 -41.76 
L 267.545455 -41.76 
L 265.854545 -41.76 
L 264.163636 -66.679376 
L 262.472727 -41.76 
L 260.781818 -41.76 
L 259.090909 -41.76 
L 257.4 -86.21078 
L 255.709091 -41.76 
L 254.018182 -41.76 
L 252.327273 -41.76 
L 250.636364 -41.76 
L 248.945455 -83.561693 
L 247.254545 -41.76 
L 245.563636 -59.607661 
L 243.872727 -41.76 
L 242.181818 -95.707082 
L 240.490909 -41.76 
L 238.8 -72.718396 
L 237.109091 -55.83608 
L 235.418182 -41.76 
L 233.727273 -41.76 
L 232.036364 -41.76 
L 230.345455 -82.933096 
L 228.654545 -41.76 
L 226.963636 -41.76 
L 225.272727 -61.740401 
L 223.581818 -59.85461 
L 221.890909 -41.76 
L 220.2 -41.76 
L 218.509091 -41.76 
L 216.818182 -87.378174 
L 215.127273 -41.76 
L 213.436364 -41.76 
L 211.745455 -41.76 
L 210.054545 -87.198575 
L 208.363636 -41.76 
L 206.672727 -41.76 
L 204.981818 -41.76 
L 203.290909 -102.419599 
L 201.6 -41.76 
L 199.909091 -41.76 
L 198.218182 -41.76 
L 196.527273 -75.232784 
L 194.836364 -41.76 
L 193.145455 -41.76 
L 191.454545 -41.76 
L 189.763636 -41.76 
L 188.072727 -77.365523 
L 186.381818 -41.76 
L 184.690909 -41.76 
L 183 -41.76 
L 181.309091 -86.457728 
L 179.618182 -41.76 
L 177.927273 -41.76 
L 176.236364 -41.76 
L 174.545455 -99.388864 
L 172.854545 -41.76 
L 171.163636 -41.76 
L 169.472727 -41.76 
L 167.781818 -96.649978 
L 166.090909 -41.76 
L 164.4 -41.76 
L 162.709091 -41.76 
L 161.018182 -119.930512 
L 159.327273 -41.76 
L 157.636364 -41.76 
L 155.945455 -59.315813 
L 154.254545 -41.76 
L 152.563636 -41.76 
L 150.872727 -41.76 
L 149.181818 -61.268953 
L 147.490909 -41.76 
L 145.8 -41.76 
L 144.109091 -41.76 
L 142.418182 -108.032071 
L 140.727273 -41.76 
L 139.036364 -41.76 
L 137.345455 -41.76 
L 135.654545 -90.498708 
L 133.963636 -41.76 
L 132.272727 -41.76 
L 130.581818 -41.76 
L 128.890909 -64.075189 
L 127.2 -41.76 
L 125.509091 -41.76 
L 123.818182 -41.76 
L 122.127273 -44.094788 
L 120.436364 -41.76 
L 118.745455 -41.76 
L 117.054545 -41.76 
L 115.363636 -43.466192 
z
" style="stroke: #ff0000; stroke-width: 0.5"/>
    </defs>
    <g clip-path="url(#p8a3780ac3f)">
     <use xlink:href="#m17f443e902" x="0" y="288" style="fill: #ff0000; stroke: #ff0000; stroke-width: 0.5"/>
    </g>
   </g>
   <g id="PolyCollection_2">
    <defs>
     <path id="ma5c351d72c" d="M 115.363636 -45.86833 
L 115.363636 -43.466192 
L 117.054545 -41.76 
L 118.745455 -41.76 
L 120.436364 -41.76 
L 122.127273 -44.094788 
L 123.818182 -41.76 
L 125.509091 -41.76 
L 127.2 -41.76 
L 128.890909 -64.075189 
L 130.581818 -41.76 
L 132.272727 -41.76 
L 133.963636 -41.76 
L 135.654545 -90.498708 
L 137.345455 -41.76 
L 139.036364 -41.76 
L 140.727273 -41.76 
L 142.418182 -108.032071 
L 144.109091 -41.76 
L 145.8 -41.76 
L 147.490909 -41.76 
L 149.181818 -61.268953 
L 150.872727 -41.76 
L 152.563636 -41.76 
L 154.254545 -41.76 
L 155.945455 -59.315813 
L 157.636364 -41.76 
L 159.327273 -41.76 
L 161.018182 -119.930512 
L 162.709091 -41.76 
L 164.4 -41.76 
L 166.090909 -41.76 
L 167.781818 -96.649978 
L 169.472727 -41.76 
L 171.163636 -41.76 
L 172.854545 -41.76 
L 174.545455 -99.388864 
L 176.236364 -41.76 
L 177.927273 -41.76 
L 179.618182 -41.76 
L 181.309091 -86.457728 
L 183 -41.76 
L 184.690909 -41.76 
L 186.381818 -41.76 
L 188.072727 -77.365523 
L 189.763636 -41.76 
L 191.454545 -41.76 
L 193.145455 -41.76 
L 194.836364 -41.76 
L 196.527273 -75.232784 
L 198.218182 -41.76 
L 199.909091 -41.76 
L 201.6 -41.76 
L 203.290909 -102.419599 
L 204.981818 -41.76 
L 206.672727 -41.76 
L 208.363636 -41.76 
L 210.054545 -87.198575 
L 211.745455 -41.76 
L 213.436364 -41.76 
L 215.127273 -41.76 
L 216.818182 -87.378174 
L 218.509091 -41.76 
L 220.2 -41.76 
L 221.890909 -41.76 
L 223.581818 -59.85461 
L 225.272727 -61.740401 
L 226.963636 -41.76 
L 228.654545 -41.76 
L 230.345455 -82.933096 
L 232.036364 -41.76 
L 233.727273 -41.76 
L 235.418182 -41.76 
L 237.109091 -55.83608 
L 238.8 -72.718396 
L 240.490909 -41.76 
L 242.181818 -95.707082 
L 243.872727 -41.76 
L 245.563636 -59.607661 
L 247.254545 -41.76 
L 248.945455 -83.561693 
L 250.636364 -41.76 
L 252.327273 -41.76 
L 254.018182 -41.76 
L 255.709091 -41.76 
L 257.4 -86.21078 
L 259.090909 -41.76 
L 260.781818 -41.76 
L 262.472727 -41.76 
L 264.163636 -66.679376 
L 265.854545 -41.76 
L 267.545455 -41.76 
L 269.236364 -41.76 
L 270.927273 -69.036615 
L 272.618182 -41.76 
L 274.309091 -78.779866 
L 276 -70.832606 
L 277.690909 -41.76 
L 279.381818 -41.76 
L 281.072727 -41.76 
L 282.763636 -66.881425 
L 284.454545 -41.76 
L 286.145455 -41.76 
L 287.836364 -41.76 
L 289.527273 -41.76 
L 291.218182 -101.184855 
L 292.909091 -41.76 
L 294.6 -41.76 
L 296.290909 -41.76 
L 297.981818 -57.474922 
L 299.672727 -41.76 
L 301.363636 -41.76 
L 303.054545 -41.76 
L 304.745455 -56.105479 
L 306.436364 -41.76 
L 308.127273 -41.76 
L 309.818182 -41.76 
L 311.509091 -52.760445 
L 313.2 -92.18245 
L 314.890909 -41.76 
L 316.581818 -41.76 
L 318.272727 -41.76 
L 319.963636 -84.01069 
L 321.654545 -79.520713 
L 323.345455 -41.76 
L 325.036364 -41.76 
L 326.727273 -70.585657 
L 328.418182 -41.76 
L 330.109091 -71.528552 
L 331.8 -41.76 
L 333.490909 -41.76 
L 335.181818 -41.76 
L 336.872727 -75.614432 
L 338.563636 -41.76 
L 340.254545 -41.76 
L 341.945455 -41.76 
L 343.636364 -72.426548 
L 345.327273 -41.76 
L 347.018182 -41.76 
L 348.709091 -41.76 
L 350.4 -74.693987 
L 352.090909 -41.76 
L 353.781818 -41.76 
L 355.472727 -41.76 
L 357.163636 -75.232784 
L 358.854545 -41.76 
L 360.545455 -41.76 
L 362.236364 -41.76 
L 363.927273 -66.701826 
L 365.618182 -41.76 
L 367.309091 -41.76 
L 369 -135.892383 
L 370.690909 -41.76 
L 372.381818 -41.76 
L 374.072727 -77.590022 
L 375.763636 -41.76 
L 377.454545 -41.76 
L 379.145455 -41.76 
L 380.836364 -74.761336 
L 382.527273 -41.76 
L 384.218182 -41.76 
L 385.909091 -85.402584 
L 387.6 -41.76 
L 389.290909 -41.76 
L 390.981818 -41.76 
L 392.672727 -82.214699 
L 394.363636 -81.608552 
L 396.054545 -59.764811 
L 397.745455 -81.406503 
L 399.436364 -41.76 
L 401.127273 -41.76 
L 402.818182 -61.044454 
L 404.509091 -41.76 
L 406.2 -80.710557 
L 407.890909 -57.519822 
L 409.581818 -41.76 
L 411.272727 -41.76 
L 412.963636 -41.76 
L 414.654545 -41.76 
L 416.345455 -56.644276 
L 418.036364 -41.76 
L 419.727273 -78.622717 
L 421.418182 -41.76 
L 423.109091 -70.944855 
L 424.8 -41.76 
L 426.490909 -75.008285 
L 428.181818 -41.76 
L 429.872727 -41.76 
L 431.563636 -41.76 
L 433.254545 -41.76 
L 434.945455 -70.697906 
L 436.636364 -49.90931 
L 438.327273 -41.76 
L 440.018182 -41.76 
L 441.709091 -76.445078 
L 443.4 -41.76 
L 445.090909 -41.76 
L 446.781818 -56.823875 
L 448.472727 -41.76 
L 450.163636 -41.76 
L 451.854545 -57.227973 
L 453.545455 -62.907795 
L 455.236364 -54.578886 
L 456.927273 -41.76 
L 458.618182 -41.76 
L 460.309091 -65.758931 
L 462 -41.76 
L 463.690909 -41.76 
L 465.381818 -41.76 
L 467.072727 -87.288374 
L 468.763636 -41.76 
L 470.454545 -68.205969 
L 472.145455 -61.111804 
L 473.836364 -41.76 
L 475.527273 -64.883385 
L 477.218182 -41.76 
L 478.909091 -41.76 
L 480.6 -64.860935 
L 482.290909 -41.76 
L 483.981818 -56.240178 
L 485.672727 -41.76 
L 487.363636 -41.76 
L 489.054545 -41.76 
L 490.745455 -63.783341 
L 492.436364 -41.76 
L 494.127273 -55.117684 
L 495.818182 -75.816481 
L 497.509091 -41.76 
L 499.2 -41.76 
L 500.890909 -117.842673 
L 502.581818 -41.76 
L 504.272727 -59.001514 
L 505.963636 -41.76 
L 507.654545 -41.76 
L 509.345455 -41.76 
L 511.036364 -104.035991 
L 512.727273 -41.76 
L 514.418182 -60.034209 
L 516.109091 -41.76 
L 517.8 -41.76 
L 519.490909 -41.76 
L 521.181818 -41.76 
L 522.872727 -64.277238 
L 524.563636 -41.76 
L 526.254545 -41.76 
L 527.945455 -41.76 
L 529.636364 -62.526147 
L 531.327273 -113.846592 
L 533.018182 -86.480178 
L 534.709091 -41.76 
L 536.4 -41.76 
L 538.090909 -41.76 
L 539.781818 -41.76 
L 541.472727 -65.444633 
L 543.163636 -41.76 
L 544.854545 -41.76 
L 546.545455 -57.227973 
L 548.236364 -54.982984 
L 549.927273 -41.76 
L 551.618182 -87.580223 
L 553.309091 -57.587171 
L 555 -41.76 
L 556.690909 -83.584143 
L 558.381818 -41.76 
L 560.072727 -124.689889 
L 561.763636 -41.76 
L 563.454545 -56.352428 
L 565.145455 -41.76 
L 566.836364 -75.457283 
L 568.527273 -72.336748 
L 570.218182 -41.76 
L 571.909091 -69.844811 
L 573.6 -41.76 
L 575.290909 -41.76 
L 576.981818 -41.76 
L 578.672727 -94.09069 
L 580.363636 -41.76 
L 582.054545 -41.76 
L 583.745455 -41.76 
L 585.436364 -93.821292 
L 587.127273 -41.76 
L 588.818182 -56.419777 
L 590.509091 -41.76 
L 592.2 -86.951626 
L 593.890909 -41.76 
L 595.581818 -81.137105 
L 597.272727 -75.704232 
L 598.963636 -41.76 
L 600.654545 -41.76 
L 602.345455 -41.76 
L 604.036364 -102.733898 
L 605.727273 -41.76 
L 607.418182 -41.76 
L 609.109091 -41.76 
L 610.8 -98.26637 
L 612.490909 -41.76 
L 614.181818 -41.76 
L 615.872727 -60.101559 
L 617.563636 -41.76 
L 619.254545 -41.76 
L 620.945455 -62.750646 
L 622.636364 -41.76 
L 622.636364 -41.76 
L 622.636364 -41.76 
L 620.945455 -77.298174 
L 619.254545 -66.701826 
L 617.563636 -53.299243 
L 615.872727 -64.209889 
L 614.181818 -43.960089 
L 612.490909 -45.284633 
L 610.8 -103.003296 
L 609.109091 -50.829755 
L 607.418182 -44.094788 
L 605.727273 -42.568196 
L 604.036364 -104.754388 
L 602.345455 -55.521782 
L 600.654545 -51.8849 
L 598.963636 -55.499332 
L 597.272727 -101.072606 
L 595.581818 -110.524009 
L 593.890909 -50.739955 
L 592.2 -96.313229 
L 590.509091 -61.560802 
L 588.818182 -68.857016 
L 587.127273 -50.582806 
L 585.436364 -98.19902 
L 583.745455 -86.772027 
L 582.054545 -92.900846 
L 580.363636 -88.321069 
L 578.672727 -108.32392 
L 576.981818 -47.103073 
L 575.290909 -44.364187 
L 573.6 -48.045969 
L 571.909091 -73.189844 
L 570.218182 -52.558396 
L 568.527273 -75.636882 
L 566.836364 -87.355724 
L 565.145455 -49.79706 
L 563.454545 -68.475367 
L 561.763636 -44.768285 
L 560.072727 -131.626904 
L 558.381818 -52.962494 
L 556.690909 -92.878396 
L 555 -45.89078 
L 553.309091 -63.424143 
L 551.618182 -98.984766 
L 549.927273 -60.887305 
L 548.236364 -68.183519 
L 546.545455 -66.02833 
L 544.854545 -43.219243 
L 543.163636 -50.942004 
L 541.472727 -105.764633 
L 539.781818 -53.456392 
L 538.090909 -58.979065 
L 536.4 -60.775056 
L 534.709091 -99.141915 
L 533.018182 -101.364454 
L 531.327273 -120.783608 
L 529.636364 -73.100045 
L 527.945455 -42.725345 
L 526.254545 -43.062094 
L 524.563636 -42.366147 
L 522.872727 -66.05078 
L 521.181818 -43.353942 
L 519.490909 -43.87029 
L 517.8 -50.942004 
L 516.109091 -62.526147 
L 514.418182 -66.297728 
L 512.727273 -42.972294 
L 511.036364 -106.954477 
L 509.345455 -60.011759 
L 507.654545 -49.84196 
L 505.963636 -65.758931 
L 504.272727 -82.618797 
L 502.581818 -47.484722 
L 500.890909 -118.112071 
L 499.2 -42.411047 
L 497.509091 -42.366147 
L 495.818182 -77.99412 
L 494.127273 -58.956615 
L 492.436364 -53.456392 
L 490.745455 -84.706637 
L 489.054545 -51.278753 
L 487.363636 -55.342183 
L 485.672727 -52.199198 
L 483.981818 -65.309933 
L 482.290909 -73.95314 
L 480.6 -103.025746 
L 478.909091 -79.453363 
L 477.218182 -89.129265 
L 475.527273 -97.054076 
L 473.836364 -51.503252 
L 472.145455 -72.942895 
L 470.454545 -83.539243 
L 468.763636 -44.117238 
L 467.072727 -89.533363 
L 465.381818 -47.70922 
L 463.690909 -45.149933 
L 462 -55.79118 
L 460.309091 -75.883831 
L 458.618182 -49.146013 
L 456.927273 -48.607216 
L 455.236364 -64.411938 
L 453.545455 -106.864677 
L 451.854545 -71.124454 
L 450.163636 -53.79314 
L 448.472727 -75.749131 
L 446.781818 -83.269844 
L 445.090909 -42.613096 
L 443.4 -42.321247 
L 441.709091 -81.002405 
L 440.018182 -76.198129 
L 438.327273 -77.500223 
L 436.636364 -66.02833 
L 434.945455 -85.739332 
L 433.254545 -77.747171 
L 431.563636 -78.645167 
L 429.872727 -77.522673 
L 428.181818 -79.520713 
L 426.490909 -89.488463 
L 424.8 -50.313408 
L 423.109091 -81.563653 
L 421.418182 -81.9902 
L 419.727273 -108.481069 
L 418.036364 -52.535947 
L 416.345455 -62.122049 
L 414.654545 -52.356347 
L 412.963636 -45.621381 
L 411.272727 -48.427617 
L 409.581818 -48.584766 
L 407.890909 -74.04294 
L 406.2 -86.614878 
L 404.509091 -45.598931 
L 402.818182 -69.014165 
L 401.127273 -49.348062 
L 399.436364 -53.546192 
L 397.745455 -90.408909 
L 396.054545 -67.330423 
L 394.363636 -87.490423 
L 392.672727 -87.580223 
L 390.981818 -48.607216 
L 389.290909 -44.992784 
L 387.6 -44.858085 
L 385.909091 -86.18833 
L 384.218182 -48.427617 
L 382.527273 -51.144053 
L 380.836364 -96.492829 
L 379.145455 -57.83412 
L 377.454545 -52.221648 
L 375.763636 -50.807305 
L 374.072727 -81.518753 
L 372.381818 -45.554031 
L 370.690909 -45.486682 
L 369 -137.014878 
L 367.309091 -45.284633 
L 365.618182 -50.897105 
L 363.927273 -94.000891 
L 362.236364 -50.717506 
L 360.545455 -45.77853 
L 358.854545 -58.238218 
L 357.163636 -89.623163 
L 355.472727 -59.630111 
L 353.781818 -43.331492 
L 352.090909 -48.539866 
L 350.4 -85.402584 
L 348.709091 -46.115278 
L 347.018182 -44.296837 
L 345.327273 -44.498886 
L 343.636364 -80.733007 
L 341.945455 -44.319287 
L 340.254545 -45.060134 
L 338.563636 -55.97078 
L 336.872727 -86.996526 
L 335.181818 -47.372472 
L 333.490909 -46.586726 
L 331.8 -48.584766 
L 330.109091 -94.539688 
L 328.418182 -60.258708 
L 326.727273 -90.027261 
L 325.036364 -53.725791 
L 323.345455 -78.330869 
L 321.654545 -88.523118 
L 319.963636 -93.888641 
L 318.272727 -66.118129 
L 316.581818 -55.656481 
L 314.890909 -53.052294 
L 313.2 -110.681158 
L 311.509091 -71.887751 
L 309.818182 -59.697461 
L 308.127273 -61.605702 
L 306.436364 -57.78922 
L 304.745455 -79.565612 
L 303.054545 -55.92588 
L 301.363636 -58.372918 
L 299.672727 -50.448107 
L 297.981818 -63.064944 
L 296.290909 -45.149933 
L 294.6 -58.732116 
L 292.909091 -45.89078 
L 291.218182 -104.709488 
L 289.527273 -48.741915 
L 287.836364 -48.584766 
L 286.145455 -46.205078 
L 284.454545 -47.84392 
L 282.763636 -70.204009 
L 281.072727 -44.745835 
L 279.381818 -43.78049 
L 277.690909 -43.376392 
L 276 -71.169354 
L 274.309091 -79.520713 
L 272.618182 -43.84784 
L 270.927273 -70.899955 
L 269.236364 -47.350022 
L 267.545455 -45.89078 
L 265.854545 -42.366147 
L 264.163636 -70.338708 
L 262.472727 -48.719465 
L 260.781818 -57.654521 
L 259.090909 -66.567127 
L 257.4 -113.083296 
L 255.709091 -89.017016 
L 254.018182 -96.22343 
L 252.327273 -90.880356 
L 250.636364 -67.510022 
L 248.945455 -102.060401 
L 247.254545 -50.470557 
L 245.563636 -61.291403 
L 243.872727 -42.949844 
L 242.181818 -97.301024 
L 240.490909 -43.062094 
L 238.8 -88.02922 
L 237.109091 -65.220134 
L 235.418182 -77.679822 
L 233.727273 -58.417817 
L 232.036364 -50.650156 
L 230.345455 -85.335234 
L 228.654545 -47.911269 
L 226.963636 -45.913229 
L 225.272727 -68.587617 
L 223.581818 -61.358753 
L 221.890909 -44.229488 
L 220.2 -48.427617 
L 218.509091 -44.745835 
L 216.818182 -93.843742 
L 215.127273 -49.639911 
L 213.436364 -42.366147 
L 211.745455 -42.680445 
L 210.054545 -89.600713 
L 208.363636 -43.466192 
L 206.672727 -51.705301 
L 204.981818 -64.120089 
L 203.290909 -113.173096 
L 201.6 -48.225568 
L 199.909091 -46.115278 
L 198.218182 -46.586726 
L 196.527273 -80.530958 
L 194.836364 -43.376392 
L 193.145455 -45.374432 
L 191.454545 -44.566236 
L 189.763636 -45.060134 
L 188.072727 -81.788151 
L 186.381818 -45.71118 
L 184.690909 -46.496927 
L 183 -46.990824 
L 181.309091 -95.909131 
L 179.618182 -51.7951 
L 177.927273 -51.997149 
L 176.236364 -51.346102 
L 174.545455 -108.481069 
L 172.854545 -50.807305 
L 171.163636 -50.739955 
L 169.472727 -50.897105 
L 167.781818 -106.25853 
L 166.090909 -51.435902 
L 164.4 -50.448107 
L 162.709091 -50.358307 
L 161.018182 -123.791893 
L 159.327273 -43.398842 
L 157.636364 -51.099154 
L 155.945455 -77.926771 
L 154.254545 -45.307082 
L 152.563636 -51.188953 
L 150.872727 -48.652116 
L 149.181818 -70.563207 
L 147.490909 -56.509577 
L 145.8 -57.272873 
L 144.109091 -55.387082 
L 142.418182 -118.650869 
L 140.727273 -48.450067 
L 139.036364 -51.054254 
L 137.345455 -57.519822 
L 135.654545 -103.901292 
L 133.963636 -58.148419 
L 132.272727 -57.90147 
L 130.581818 -62.256748 
L 128.890909 -89.623163 
L 127.2 -59.92196 
L 125.509091 -49.999109 
L 123.818182 -44.902984 
L 122.127273 -67.240624 
L 120.436364 -48.809265 
L 118.745455 -42.635546 
L 117.054545 -43.443742 
L 115.363636 -45.86833 
z
" style="stroke: #0000ff; stroke-width: 0.5"/>
    </defs>
    <g clip-path="url(#p8a3780ac3f)">
     <use xlink:href="#ma5c351d72c" x="0" y="288" style="fill: #0000ff; stroke: #0000ff; stroke-width: 0.5"/>
    </g>
   </g>
   <g id="PolyCollection_3">
    <defs>
     <path id="m72083bfcf4" d="M 115.363636 -53.88294 
L 115.363636 -45.86833 
L 117.054545 -43.443742 
L 118.745455 -42.635546 
L 120.436364 -48.809265 
L 122.127273 -67.240624 
L 123.818182 -44.902984 
L 125.509091 -49.999109 
L 127.2 -59.92196 
L 128.890909 -89.623163 
L 130.581818 -62.256748 
L 132.272727 -57.90147 
L 133.963636 -58.148419 
L 135.654545 -103.901292 
L 137.345455 -57.519822 
L 139.036364 -51.054254 
L 140.727273 -48.450067 
L 142.418182 -118.650869 
L 144.109091 -55.387082 
L 145.8 -57.272873 
L 147.490909 -56.509577 
L 149.181818 -70.563207 
L 150.872727 -48.652116 
L 152.563636 -51.188953 
L 154.254545 -45.307082 
L 155.945455 -77.926771 
L 157.636364 -51.099154 
L 159.327273 -43.398842 
L 161.018182 -123.791893 
L 162.709091 -50.358307 
L 164.4 -50.448107 
L 166.090909 -51.435902 
L 167.781818 -106.25853 
L 169.472727 -50.897105 
L 171.163636 -50.739955 
L 172.854545 -50.807305 
L 174.545455 -108.481069 
L 176.236364 -51.346102 
L 177.927273 -51.997149 
L 179.618182 -51.7951 
L 181.309091 -95.909131 
L 183 -46.990824 
L 184.690909 -46.496927 
L 186.381818 -45.71118 
L 188.072727 -81.788151 
L 189.763636 -45.060134 
L 191.454545 -44.566236 
L 193.145455 -45.374432 
L 194.836364 -43.376392 
L 196.527273 -80.530958 
L 198.218182 -46.586726 
L 199.909091 -46.115278 
L 201.6 -48.225568 
L 203.290909 -113.173096 
L 204.981818 -64.120089 
L 206.672727 -51.705301 
L 208.363636 -43.466192 
L 210.054545 -89.600713 
L 211.745455 -42.680445 
L 213.436364 -42.366147 
L 215.127273 -49.639911 
L 216.818182 -93.843742 
L 218.509091 -44.745835 
L 220.2 -48.427617 
L 221.890909 -44.229488 
L 223.581818 -61.358753 
L 225.272727 -68.587617 
L 226.963636 -45.913229 
L 228.654545 -47.911269 
L 230.345455 -85.335234 
L 232.036364 -50.650156 
L 233.727273 -58.417817 
L 235.418182 -77.679822 
L 237.109091 -65.220134 
L 238.8 -88.02922 
L 240.490909 -43.062094 
L 242.181818 -97.301024 
L 243.872727 -42.949844 
L 245.563636 -61.291403 
L 247.254545 -50.470557 
L 248.945455 -102.060401 
L 250.636364 -67.510022 
L 252.327273 -90.880356 
L 254.018182 -96.22343 
L 255.709091 -89.017016 
L 257.4 -113.083296 
L 259.090909 -66.567127 
L 260.781818 -57.654521 
L 262.472727 -48.719465 
L 264.163636 -70.338708 
L 265.854545 -42.366147 
L 267.545455 -45.89078 
L 269.236364 -47.350022 
L 270.927273 -70.899955 
L 272.618182 -43.84784 
L 274.309091 -79.520713 
L 276 -71.169354 
L 277.690909 -43.376392 
L 279.381818 -43.78049 
L 281.072727 -44.745835 
L 282.763636 -70.204009 
L 284.454545 -47.84392 
L 286.145455 -46.205078 
L 287.836364 -48.584766 
L 289.527273 -48.741915 
L 291.218182 -104.709488 
L 292.909091 -45.89078 
L 294.6 -58.732116 
L 296.290909 -45.149933 
L 297.981818 -63.064944 
L 299.672727 -50.448107 
L 301.363636 -58.372918 
L 303.054545 -55.92588 
L 304.745455 -79.565612 
L 306.436364 -57.78922 
L 308.127273 -61.605702 
L 309.818182 -59.697461 
L 311.509091 -71.887751 
L 313.2 -110.681158 
L 314.890909 -53.052294 
L 316.581818 -55.656481 
L 318.272727 -66.118129 
L 319.963636 -93.888641 
L 321.654545 -88.523118 
L 323.345455 -78.330869 
L 325.036364 -53.725791 
L 326.727273 -90.027261 
L 328.418182 -60.258708 
L 330.109091 -94.539688 
L 331.8 -48.584766 
L 333.490909 -46.586726 
L 335.181818 -47.372472 
L 336.872727 -86.996526 
L 338.563636 -55.97078 
L 340.254545 -45.060134 
L 341.945455 -44.319287 
L 343.636364 -80.733007 
L 345.327273 -44.498886 
L 347.018182 -44.296837 
L 348.709091 -46.115278 
L 350.4 -85.402584 
L 352.090909 -48.539866 
L 353.781818 -43.331492 
L 355.472727 -59.630111 
L 357.163636 -89.623163 
L 358.854545 -58.238218 
L 360.545455 -45.77853 
L 362.236364 -50.717506 
L 363.927273 -94.000891 
L 365.618182 -50.897105 
L 367.309091 -45.284633 
L 369 -137.014878 
L 370.690909 -45.486682 
L 372.381818 -45.554031 
L 374.072727 -81.518753 
L 375.763636 -50.807305 
L 377.454545 -52.221648 
L 379.145455 -57.83412 
L 380.836364 -96.492829 
L 382.527273 -51.144053 
L 384.218182 -48.427617 
L 385.909091 -86.18833 
L 387.6 -44.858085 
L 389.290909 -44.992784 
L 390.981818 -48.607216 
L 392.672727 -87.580223 
L 394.363636 -87.490423 
L 396.054545 -67.330423 
L 397.745455 -90.408909 
L 399.436364 -53.546192 
L 401.127273 -49.348062 
L 402.818182 -69.014165 
L 404.509091 -45.598931 
L 406.2 -86.614878 
L 407.890909 -74.04294 
L 409.581818 -48.584766 
L 411.272727 -48.427617 
L 412.963636 -45.621381 
L 414.654545 -52.356347 
L 416.345455 -62.122049 
L 418.036364 -52.535947 
L 419.727273 -108.481069 
L 421.418182 -81.9902 
L 423.109091 -81.563653 
L 424.8 -50.313408 
L 426.490909 -89.488463 
L 428.181818 -79.520713 
L 429.872727 -77.522673 
L 431.563636 -78.645167 
L 433.254545 -77.747171 
L 434.945455 -85.739332 
L 436.636364 -66.02833 
L 438.327273 -77.500223 
L 440.018182 -76.198129 
L 441.709091 -81.002405 
L 443.4 -42.321247 
L 445.090909 -42.613096 
L 446.781818 -83.269844 
L 448.472727 -75.749131 
L 450.163636 -53.79314 
L 451.854545 -71.124454 
L 453.545455 -106.864677 
L 455.236364 -64.411938 
L 456.927273 -48.607216 
L 458.618182 -49.146013 
L 460.309091 -75.883831 
L 462 -55.79118 
L 463.690909 -45.149933 
L 465.381818 -47.70922 
L 467.072727 -89.533363 
L 468.763636 -44.117238 
L 470.454545 -83.539243 
L 472.145455 -72.942895 
L 473.836364 -51.503252 
L 475.527273 -97.054076 
L 477.218182 -89.129265 
L 478.909091 -79.453363 
L 480.6 -103.025746 
L 482.290909 -73.95314 
L 483.981818 -65.309933 
L 485.672727 -52.199198 
L 487.363636 -55.342183 
L 489.054545 -51.278753 
L 490.745455 -84.706637 
L 492.436364 -53.456392 
L 494.127273 -58.956615 
L 495.818182 -77.99412 
L 497.509091 -42.366147 
L 499.2 -42.411047 
L 500.890909 -118.112071 
L 502.581818 -47.484722 
L 504.272727 -82.618797 
L 505.963636 -65.758931 
L 507.654545 -49.84196 
L 509.345455 -60.011759 
L 511.036364 -106.954477 
L 512.727273 -42.972294 
L 514.418182 -66.297728 
L 516.109091 -62.526147 
L 517.8 -50.942004 
L 519.490909 -43.87029 
L 521.181818 -43.353942 
L 522.872727 -66.05078 
L 524.563636 -42.366147 
L 526.254545 -43.062094 
L 527.945455 -42.725345 
L 529.636364 -73.100045 
L 531.327273 -120.783608 
L 533.018182 -101.364454 
L 534.709091 -99.141915 
L 536.4 -60.775056 
L 538.090909 -58.979065 
L 539.781818 -53.456392 
L 541.472727 -105.764633 
L 543.163636 -50.942004 
L 544.854545 -43.219243 
L 546.545455 -66.02833 
L 548.236364 -68.183519 
L 549.927273 -60.887305 
L 551.618182 -98.984766 
L 553.309091 -63.424143 
L 555 -45.89078 
L 556.690909 -92.878396 
L 558.381818 -52.962494 
L 560.072727 -131.626904 
L 561.763636 -44.768285 
L 563.454545 -68.475367 
L 565.145455 -49.79706 
L 566.836364 -87.355724 
L 568.527273 -75.636882 
L 570.218182 -52.558396 
L 571.909091 -73.189844 
L 573.6 -48.045969 
L 575.290909 -44.364187 
L 576.981818 -47.103073 
L 578.672727 -108.32392 
L 580.363636 -88.321069 
L 582.054545 -92.900846 
L 583.745455 -86.772027 
L 585.436364 -98.19902 
L 587.127273 -50.582806 
L 588.818182 -68.857016 
L 590.509091 -61.560802 
L 592.2 -96.313229 
L 593.890909 -50.739955 
L 595.581818 -110.524009 
L 597.272727 -101.072606 
L 598.963636 -55.499332 
L 600.654545 -51.8849 
L 602.345455 -55.521782 
L 604.036364 -104.754388 
L 605.727273 -42.568196 
L 607.418182 -44.094788 
L 609.109091 -50.829755 
L 610.8 -103.003296 
L 612.490909 -45.284633 
L 614.181818 -43.960089 
L 615.872727 -64.209889 
L 617.563636 -53.299243 
L 619.254545 -66.701826 
L 620.945455 -77.298174 
L 622.636364 -41.76 
L 622.636364 -41.894699 
L 622.636364 -41.894699 
L 620.945455 -143.749844 
L 619.254545 -151.001158 
L 617.563636 -108.436169 
L 615.872727 -83.112695 
L 614.181818 -67.689621 
L 612.490909 -77.881871 
L 610.8 -136.274031 
L 609.109091 -106.864677 
L 607.418182 -58.350468 
L 605.727273 -89.780312 
L 604.036364 -150.170512 
L 602.345455 -118.605969 
L 600.654545 -108.683118 
L 598.963636 -105.652383 
L 597.272727 -134.118842 
L 595.581818 -147.543875 
L 593.890909 -125.565434 
L 592.2 -140.023163 
L 590.509091 -106.707528 
L 588.818182 -115.126236 
L 587.127273 -94.11314 
L 585.436364 -156.209532 
L 583.745455 -184.429042 
L 582.054545 -191.815056 
L 580.363636 -182.588151 
L 578.672727 -146.847929 
L 576.981818 -96.829577 
L 575.290909 -79.857461 
L 573.6 -91.329354 
L 571.909091 -92.743697 
L 570.218182 -75.636882 
L 568.527273 -94.11314 
L 566.836364 -124.33069 
L 565.145455 -87.265924 
L 563.454545 -114.452739 
L 561.763636 -83.247394 
L 560.072727 -169.073318 
L 558.381818 -95.931581 
L 556.690909 -115.822183 
L 555 -61.471002 
L 553.309091 -85.694432 
L 551.618182 -134.141292 
L 549.927273 -133.355546 
L 548.236364 -111.534254 
L 546.545455 -105.674833 
L 544.854545 -75.883831 
L 543.163636 -105.203385 
L 541.472727 -186.337283 
L 539.781818 -110.726058 
L 538.090909 -119.908062 
L 536.4 -129.337016 
L 534.709091 -184.85559 
L 533.018182 -178.053274 
L 531.327273 -152.886949 
L 529.636364 -121.457105 
L 527.945455 -63.558842 
L 526.254545 -57.632071 
L 524.563636 -56.644276 
L 522.872727 -86.861826 
L 521.181818 -63.222094 
L 519.490909 -62.458797 
L 517.8 -79.296214 
L 516.109091 -108.593318 
L 514.418182 -77.230824 
L 512.727273 -58.238218 
L 511.036364 -119.975412 
L 509.345455 -93.462094 
L 507.654545 -88.388419 
L 505.963636 -133.535145 
L 504.272727 -199.762316 
L 502.581818 -113.554744 
L 500.890909 -152.819599 
L 499.2 -44.588686 
L 497.509091 -44.319287 
L 495.818182 -87.153675 
L 494.127273 -79.251314 
L 492.436364 -87.714922 
L 490.745455 -126.48588 
L 489.054545 -84.639287 
L 487.363636 -89.398664 
L 485.672727 -81.810601 
L 483.981818 -116.136481 
L 482.290909 -243.36 
L 480.6 -204.386993 
L 478.909091 -176.526682 
L 477.218182 -151.876704 
L 475.527273 -150.507261 
L 473.836364 -69.395813 
L 472.145455 -107.201425 
L 470.454545 -110.748508 
L 468.763636 -52.670646 
L 467.072727 -98.648018 
L 465.381818 -72.561247 
L 463.690909 -66.656927 
L 462 -111.601604 
L 460.309091 -103.003296 
L 458.618182 -74.963385 
L 456.927273 -70.877506 
L 455.236364 -97.547973 
L 453.545455 -229.530869 
L 451.854545 -112.005702 
L 450.163636 -98.670468 
L 448.472727 -167.142628 
L 446.781818 -120.716258 
L 445.090909 -46.519376 
L 443.4 -44.094788 
L 441.709091 -103.272695 
L 440.018182 -161.305657 
L 438.327273 -171.385657 
L 436.636364 -149.878664 
L 434.945455 -139.619065 
L 433.254545 -133.153497 
L 431.563636 -122.871448 
L 429.872727 -141.145657 
L 428.181818 -126.575679 
L 426.490909 -121.569354 
L 424.8 -80.08196 
L 423.109091 -104.395189 
L 421.418182 -133.624944 
L 419.727273 -158.252472 
L 418.036364 -90.274209 
L 416.345455 -82.506548 
L 414.654545 -70.855056 
L 412.963636 -54.691136 
L 411.272727 -60.213808 
L 409.581818 -77.365523 
L 407.890909 -115.799733 
L 406.2 -100.780757 
L 404.509091 -62.099599 
L 402.818182 -92.047751 
L 401.127273 -78.173719 
L 399.436364 -99.546013 
L 397.745455 -122.781648 
L 396.054545 -94.876437 
L 394.363636 -117.685523 
L 392.672727 -104.844187 
L 390.981818 -63.289443 
L 389.290909 -52.603296 
L 387.6 -54.354388 
L 385.909091 -95.280535 
L 384.218182 -86.951626 
L 382.527273 -93.551893 
L 380.836364 -144.67029 
L 379.145455 -115.103786 
L 377.454545 -93.215145 
L 375.763636 -70.967305 
L 374.072727 -163.348597 
L 372.381818 -136.633229 
L 370.690909 -141.706904 
L 369 -154.525791 
L 367.309091 -79.341114 
L 365.618182 -93.866192 
L 363.927273 -153.695145 
L 362.236364 -99.995011 
L 360.545455 -86.435278 
L 358.854545 -112.768998 
L 357.163636 -133.333096 
L 355.472727 -105.764633 
L 353.781818 -76.04098 
L 352.090909 -99.343964 
L 350.4 -129.292116 
L 348.709091 -88.590468 
L 347.018182 -82.304499 
L 345.327273 -81.428953 
L 343.636364 -112.4098 
L 341.945455 -73.279644 
L 340.254545 -73.773541 
L 338.563636 -103.923742 
L 336.872727 -120.626459 
L 335.181818 -82.1249 
L 333.490909 -71.326503 
L 331.8 -79.116615 
L 330.109091 -127.406325 
L 328.418182 -103.923742 
L 326.727273 -144.109042 
L 325.036364 -107.560624 
L 323.345455 -157.421826 
L 321.654545 -125.026637 
L 319.963636 -141.617105 
L 318.272727 -117.550824 
L 316.581818 -77.679822 
L 314.890909 -82.214699 
L 313.2 -156.007483 
L 311.509091 -109.491314 
L 309.818182 -89.892561 
L 308.127273 -90.970156 
L 306.436364 -82.439198 
L 304.745455 -109.783163 
L 303.054545 -79.094165 
L 301.363636 -102.958396 
L 299.672727 -82.282049 
L 297.981818 -79.386013 
L 296.290909 -60.460757 
L 294.6 -123.567394 
L 292.909091 -74.11029 
L 291.218182 -116.854878 
L 289.527273 -55.005434 
L 287.836364 -57.093274 
L 286.145455 -71.214254 
L 284.454545 -84.01069 
L 282.763636 -85.065835 
L 281.072727 -51.727751 
L 279.381818 -51.660401 
L 277.690909 -51.77265 
L 276 -117.236526 
L 274.309091 -119.324365 
L 272.618182 -52.715546 
L 270.927273 -82.01265 
L 269.236364 -70.563207 
L 267.545455 -64.748686 
L 265.854545 -44.409087 
L 264.163636 -83.561693 
L 262.472727 -86.16588 
L 260.781818 -100.30931 
L 259.090909 -125.879733 
L 257.4 -176.953229 
L 255.709091 -203.646147 
L 254.018182 -198.347973 
L 252.327273 -200.570512 
L 250.636364 -138.070022 
L 248.945455 -169.410067 
L 247.254545 -97.368374 
L 245.563636 -79.565612 
L 243.872727 -57.452472 
L 242.181818 -102.037951 
L 240.490909 -47.394922 
L 238.8 -146.488731 
L 237.109091 -110.23216 
L 235.418182 -145.343786 
L 233.727273 -124.240891 
L 232.036364 -85.582183 
L 230.345455 -96.26833 
L 228.654545 -82.394298 
L 226.963636 -68.250869 
L 225.272727 -95.931581 
L 223.581818 -68.812116 
L 221.890909 -59.517862 
L 220.2 -68.901915 
L 218.509091 -51.435902 
L 216.818182 -143.547795 
L 215.127273 -154.61559 
L 213.436364 -133.580045 
L 211.745455 -117.954922 
L 210.054545 -148.194922 
L 208.363636 -104.058441 
L 206.672727 -110.928107 
L 204.981818 -143.053898 
L 203.290909 -154.368641 
L 201.6 -87.288374 
L 199.909091 -93.349844 
L 198.218182 -94.651938 
L 196.527273 -116.024232 
L 194.836364 -77.679822 
L 193.145455 -85.537283 
L 191.454545 -85.514833 
L 189.763636 -80.12686 
L 188.072727 -122.197951 
L 186.381818 -90.09461 
L 184.690909 -94.562138 
L 183 -98.894967 
L 181.309091 -154.503341 
L 179.618182 -137.508775 
L 177.927273 -140.225212 
L 176.236364 -140.988508 
L 174.545455 -185.798486 
L 172.854545 -140.135412 
L 171.163636 -138.249621 
L 169.472727 -135.847483 
L 167.781818 -187.100579 
L 166.090909 -137.239376 
L 164.4 -144.760089 
L 162.709091 -140.157862 
L 161.018182 -150.64196 
L 159.327273 -49.168463 
L 157.636364 -80.822806 
L 155.945455 -123.365345 
L 154.254545 -58.619866 
L 152.563636 -88.276169 
L 150.872727 -73.100045 
L 149.181818 -107.762673 
L 147.490909 -137.800624 
L 145.8 -137.553675 
L 144.109091 -139.192517 
L 142.418182 -197.696927 
L 140.727273 -120.783608 
L 139.036364 -138.810869 
L 137.345455 -144.53559 
L 135.654545 -204.050245 
L 133.963636 -148.015323 
L 132.272727 -156.142183 
L 130.581818 -148.801069 
L 128.890909 -173.877595 
L 127.2 -135.892383 
L 125.509091 -93.821292 
L 123.818182 -69.755011 
L 122.127273 -97.278575 
L 120.436364 -52.266548 
L 118.745455 -44.049889 
L 117.054545 -45.554031 
L 115.363636 -53.88294 
z
" style="stroke: #008000; stroke-width: 0.5"/>
    </defs>
    <g clip-path="url(#p8a3780ac3f)">
     <use xlink:href="#m72083bfcf4" x="0" y="288" style="fill: #008000; stroke: #008000; stroke-width: 0.5"/>
    </g>
   </g>
   <g id="line2d_22">
    <path d="M 90 44.64 
L 648 44.64 
" clip-path="url(#p8a3780ac3f)" style="fill: none; stroke: #000000; stroke-width: 1.5; stroke-linecap: square"/>
   </g>
   <g id="line2d_23">
    <path d="M 90 179.496481 
L 648 179.496481 
" clip-path="url(#p8a3780ac3f)" style="fill: none; stroke: #000000; stroke-width: 1.5; stroke-linecap: square"/>
   </g>
   <g id="patch_3">
    <path d="M 90 256.32 
L 90 34.56 
" style="fill: none; stroke: #000000; stroke-width: 0.8; stroke-linejoin: miter; stroke-linecap: square"/>
   </g>
   <g id="patch_4">
    <path d="M 648 256.32 
L 648 34.56 
" style="fill: none; stroke: #000000; stroke-width: 0.8; stroke-linejoin: miter; stroke-linecap: square"/>
   </g>
   <g id="patch_5">
    <path d="M 90 256.32 
L 648 256.32 
" style="fill: none; stroke: #000000; stroke-width: 0.8; stroke-linejoin: miter; stroke-linecap: square"/>
   </g>
   <g id="patch_6">
    <path d="M 90 34.56 
L 648 34.56 
" style="fill: none; stroke: #000000; stroke-width: 0.8; stroke-linejoin: miter; stroke-linecap: square"/>
   </g>
   <g id="text_19">
    <!-- peak (8,980) -->
    <g transform="translate(122.179233 41.3136) scale(0.1 -0.1)">
     <defs>
      <path id="DejaVuSans-Bold-70" d="M 1656 506 
L 1656 -1331 
L 538 -1331 
L 538 3500 
L 1656 3500 
L 1656 2988 
Q 1888 3294 2169 3439 
Q 2450 3584 2816 3584 
Q 3463 3584 3878 3070 
Q 4294 2556 4294 1747 
Q 4294 938 3878 423 
Q 3463 -91 2816 -91 
Q 2450 -91 2169 54 
Q 1888 200 1656 506 
z
M 2400 2772 
Q 2041 2772 1848 2508 
Q 1656 2244 1656 1747 
Q 1656 1250 1848 986 
Q 2041 722 2400 722 
Q 2759 722 2948 984 
Q 3138 1247 3138 1747 
Q 3138 2247 2948 2509 
Q 2759 2772 2400 2772 
z
" transform="scale(0.015625)"/>
      <path id="DejaVuSans-Bold-65" d="M 4031 1759 
L 4031 1441 
L 1416 1441 
Q 1456 1047 1700 850 
Q 1944 653 2381 653 
Q 2734 653 3104 758 
Q 3475 863 3866 1075 
L 3866 213 
Q 3469 63 3072 -14 
Q 2675 -91 2278 -91 
Q 1328 -91 801 392 
Q 275 875 275 1747 
Q 275 2603 792 3093 
Q 1309 3584 2216 3584 
Q 3041 3584 3536 3087 
Q 4031 2591 4031 1759 
z
M 2881 2131 
Q 2881 2450 2695 2645 
Q 2509 2841 2209 2841 
Q 1884 2841 1681 2658 
Q 1478 2475 1428 2131 
L 2881 2131 
z
" transform="scale(0.015625)"/>
      <path id="DejaVuSans-Bold-61" d="M 2106 1575 
Q 1756 1575 1579 1456 
Q 1403 1338 1403 1106 
Q 1403 894 1545 773 
Q 1688 653 1941 653 
Q 2256 653 2472 879 
Q 2688 1106 2688 1447 
L 2688 1575 
L 2106 1575 
z
M 3816 1997 
L 3816 0 
L 2688 0 
L 2688 519 
Q 2463 200 2181 54 
Q 1900 -91 1497 -91 
Q 953 -91 614 226 
Q 275 544 275 1050 
Q 275 1666 698 1953 
Q 1122 2241 2028 2241 
L 2688 2241 
L 2688 2328 
Q 2688 2594 2478 2717 
Q 2269 2841 1825 2841 
Q 1466 2841 1156 2769 
Q 847 2697 581 2553 
L 581 3406 
Q 941 3494 1303 3539 
Q 1666 3584 2028 3584 
Q 2975 3584 3395 3211 
Q 3816 2838 3816 1997 
z
" transform="scale(0.015625)"/>
      <path id="DejaVuSans-Bold-6b" d="M 538 4863 
L 1656 4863 
L 1656 2216 
L 2944 3500 
L 4244 3500 
L 2534 1894 
L 4378 0 
L 3022 0 
L 1656 1459 
L 1656 0 
L 538 0 
L 538 4863 
z
" transform="scale(0.015625)"/>
      <path id="DejaVuSans-Bold-20" transform="scale(0.015625)"/>
      <path id="DejaVuSans-Bold-28" d="M 2413 -844 
L 1484 -844 
Q 1006 -72 778 623 
Q 550 1319 550 2003 
Q 550 2688 779 3389 
Q 1009 4091 1484 4856 
L 2413 4856 
Q 2013 4116 1813 3408 
Q 1613 2700 1613 2009 
Q 1613 1319 1811 609 
Q 2009 -100 2413 -844 
z
" transform="scale(0.015625)"/>
      <path id="DejaVuSans-Bold-38" d="M 2228 2088 
Q 1891 2088 1709 1903 
Q 1528 1719 1528 1375 
Q 1528 1031 1709 848 
Q 1891 666 2228 666 
Q 2563 666 2741 848 
Q 2919 1031 2919 1375 
Q 2919 1722 2741 1905 
Q 2563 2088 2228 2088 
z
M 1350 2484 
Q 925 2613 709 2878 
Q 494 3144 494 3541 
Q 494 4131 934 4440 
Q 1375 4750 2228 4750 
Q 3075 4750 3515 4442 
Q 3956 4134 3956 3541 
Q 3956 3144 3739 2878 
Q 3522 2613 3097 2484 
Q 3572 2353 3814 2058 
Q 4056 1763 4056 1313 
Q 4056 619 3595 264 
Q 3134 -91 2228 -91 
Q 1319 -91 855 264 
Q 391 619 391 1313 
Q 391 1763 633 2058 
Q 875 2353 1350 2484 
z
M 1631 3419 
Q 1631 3141 1786 2991 
Q 1941 2841 2228 2841 
Q 2509 2841 2662 2991 
Q 2816 3141 2816 3419 
Q 2816 3697 2662 3845 
Q 2509 3994 2228 3994 
Q 1941 3994 1786 3844 
Q 1631 3694 1631 3419 
z
" transform="scale(0.015625)"/>
      <path id="DejaVuSans-Bold-2c" d="M 653 1209 
L 1778 1209 
L 1778 256 
L 1006 -909 
L 341 -909 
L 653 256 
L 653 1209 
z
" transform="scale(0.015625)"/>
      <path id="DejaVuSans-Bold-39" d="M 641 103 
L 641 966 
Q 928 831 1190 764 
Q 1453 697 1709 697 
Q 2247 697 2547 995 
Q 2847 1294 2900 1881 
Q 2688 1725 2447 1647 
Q 2206 1569 1925 1569 
Q 1209 1569 770 1986 
Q 331 2403 331 3084 
Q 331 3838 820 4291 
Q 1309 4744 2131 4744 
Q 3044 4744 3544 4128 
Q 4044 3513 4044 2388 
Q 4044 1231 3459 570 
Q 2875 -91 1856 -91 
Q 1528 -91 1228 -42 
Q 928 6 641 103 
z
M 2125 2350 
Q 2441 2350 2600 2554 
Q 2759 2759 2759 3169 
Q 2759 3575 2600 3781 
Q 2441 3988 2125 3988 
Q 1809 3988 1650 3781 
Q 1491 3575 1491 3169 
Q 1491 2759 1650 2554 
Q 1809 2350 2125 2350 
z
" transform="scale(0.015625)"/>
      <path id="DejaVuSans-Bold-30" d="M 2944 2338 
Q 2944 3213 2780 3570 
Q 2616 3928 2228 3928 
Q 1841 3928 1675 3570 
Q 1509 3213 1509 2338 
Q 1509 1453 1675 1090 
Q 1841 728 2228 728 
Q 2613 728 2778 1090 
Q 2944 1453 2944 2338 
z
M 4147 2328 
Q 4147 1169 3647 539 
Q 3147 -91 2228 -91 
Q 1306 -91 806 539 
Q 306 1169 306 2328 
Q 306 3491 806 4120 
Q 1306 4750 2228 4750 
Q 3147 4750 3647 4120 
Q 4147 3491 4147 2328 
z
" transform="scale(0.015625)"/>
      <path id="DejaVuSans-Bold-29" d="M 513 -844 
Q 913 -100 1113 609 
Q 1313 1319 1313 2009 
Q 1313 2700 1113 3408 
Q 913 4116 513 4856 
L 1441 4856 
Q 1916 4091 2145 3389 
Q 2375 2688 2375 2003 
Q 2375 1319 2147 623 
Q 1919 -72 1441 -844 
L 513 -844 
z
" transform="scale(0.015625)"/>
     </defs>
     <use xlink:href="#DejaVuSans-Bold-70"/>
     <use xlink:href="#DejaVuSans-Bold-65" x="71.582031"/>
     <use xlink:href="#DejaVuSans-Bold-61" x="139.404297"/>
     <use xlink:href="#DejaVuSans-Bold-6b" x="206.884766"/>
     <use xlink:href="#DejaVuSans-Bold-20" x="273.388672"/>
     <use xlink:href="#DejaVuSans-Bold-28" x="308.203125"/>
     <use xlink:href="#DejaVuSans-Bold-38" x="353.90625"/>
     <use xlink:href="#DejaVuSans-Bold-2c" x="423.486328"/>
     <use xlink:href="#DejaVuSans-Bold-39" x="461.474609"/>
     <use xlink:href="#DejaVuSans-Bold-38" x="531.054688"/>
     <use xlink:href="#DejaVuSans-Bold-30" x="600.634766"/>
     <use xlink:href="#DejaVuSans-Bold-29" x="670.214844"/>
    </g>
   </g>
   <g id="text_20">
    <!-- mean (2,973) -->
    <g transform="translate(567.728153 176.170081) scale(0.1 -0.1)">
     <defs>
      <path id="DejaVuSans-Bold-6d" d="M 3781 2919 
Q 3994 3244 4286 3414 
Q 4578 3584 4928 3584 
Q 5531 3584 5847 3212 
Q 6163 2841 6163 2131 
L 6163 0 
L 5038 0 
L 5038 1825 
Q 5041 1866 5042 1909 
Q 5044 1953 5044 2034 
Q 5044 2406 4934 2573 
Q 4825 2741 4581 2741 
Q 4263 2741 4089 2478 
Q 3916 2216 3909 1719 
L 3909 0 
L 2784 0 
L 2784 1825 
Q 2784 2406 2684 2573 
Q 2584 2741 2328 2741 
Q 2006 2741 1831 2477 
Q 1656 2213 1656 1722 
L 1656 0 
L 531 0 
L 531 3500 
L 1656 3500 
L 1656 2988 
Q 1863 3284 2130 3434 
Q 2397 3584 2719 3584 
Q 3081 3584 3359 3409 
Q 3638 3234 3781 2919 
z
" transform="scale(0.015625)"/>
      <path id="DejaVuSans-Bold-6e" d="M 4056 2131 
L 4056 0 
L 2931 0 
L 2931 347 
L 2931 1631 
Q 2931 2084 2911 2256 
Q 2891 2428 2841 2509 
Q 2775 2619 2662 2680 
Q 2550 2741 2406 2741 
Q 2056 2741 1856 2470 
Q 1656 2200 1656 1722 
L 1656 0 
L 538 0 
L 538 3500 
L 1656 3500 
L 1656 2988 
Q 1909 3294 2193 3439 
Q 2478 3584 2822 3584 
Q 3428 3584 3742 3212 
Q 4056 2841 4056 2131 
z
" transform="scale(0.015625)"/>
      <path id="DejaVuSans-Bold-32" d="M 1844 884 
L 3897 884 
L 3897 0 
L 506 0 
L 506 884 
L 2209 2388 
Q 2438 2594 2547 2791 
Q 2656 2988 2656 3200 
Q 2656 3528 2436 3728 
Q 2216 3928 1850 3928 
Q 1569 3928 1234 3808 
Q 900 3688 519 3450 
L 519 4475 
Q 925 4609 1322 4679 
Q 1719 4750 2100 4750 
Q 2938 4750 3402 4381 
Q 3866 4013 3866 3353 
Q 3866 2972 3669 2642 
Q 3472 2313 2841 1759 
L 1844 884 
z
" transform="scale(0.015625)"/>
      <path id="DejaVuSans-Bold-37" d="M 428 4666 
L 3944 4666 
L 3944 3988 
L 2125 0 
L 953 0 
L 2675 3781 
L 428 3781 
L 428 4666 
z
" transform="scale(0.015625)"/>
      <path id="DejaVuSans-Bold-33" d="M 2981 2516 
Q 3453 2394 3698 2092 
Q 3944 1791 3944 1325 
Q 3944 631 3412 270 
Q 2881 -91 1863 -91 
Q 1503 -91 1142 -33 
Q 781 25 428 141 
L 428 1069 
Q 766 900 1098 814 
Q 1431 728 1753 728 
Q 2231 728 2486 893 
Q 2741 1059 2741 1369 
Q 2741 1688 2480 1852 
Q 2219 2016 1709 2016 
L 1228 2016 
L 1228 2791 
L 1734 2791 
Q 2188 2791 2409 2933 
Q 2631 3075 2631 3366 
Q 2631 3634 2415 3781 
Q 2200 3928 1806 3928 
Q 1516 3928 1219 3862 
Q 922 3797 628 3669 
L 628 4550 
Q 984 4650 1334 4700 
Q 1684 4750 2022 4750 
Q 2931 4750 3382 4451 
Q 3834 4153 3834 3553 
Q 3834 3144 3618 2883 
Q 3403 2622 2981 2516 
z
" transform="scale(0.015625)"/>
     </defs>
     <use xlink:href="#DejaVuSans-Bold-6d"/>
     <use xlink:href="#DejaVuSans-Bold-65" x="104.199219"/>
     <use xlink:href="#DejaVuSans-Bold-61" x="172.021484"/>
     <use xlink:href="#DejaVuSans-Bold-6e" x="239.501953"/>
     <use xlink:href="#DejaVuSans-Bold-20" x="310.693359"/>
     <use xlink:href="#DejaVuSans-Bold-28" x="345.507812"/>
     <use xlink:href="#DejaVuSans-Bold-32" x="391.210938"/>
     <use xlink:href="#DejaVuSans-Bold-2c" x="460.791016"/>
     <use xlink:href="#DejaVuSans-Bold-39" x="498.779297"/>
     <use xlink:href="#DejaVuSans-Bold-37" x="568.359375"/>
     <use xlink:href="#DejaVuSans-Bold-33" x="637.939453"/>
     <use xlink:href="#DejaVuSans-Bold-29" x="707.519531"/>
    </g>
   </g>
   <g id="text_21">
    <!-- Stream Bitrate over Time -->
    <g transform="translate(293.189062 28.56) scale(0.12 -0.12)">
     <defs>
      <path id="DejaVuSans-53" d="M 3425 4513 
L 3425 3897 
Q 3066 4069 2747 4153 
Q 2428 4238 2131 4238 
Q 1616 4238 1336 4038 
Q 1056 3838 1056 3469 
Q 1056 3159 1242 3001 
Q 1428 2844 1947 2747 
L 2328 2669 
Q 3034 2534 3370 2195 
Q 3706 1856 3706 1288 
Q 3706 609 3251 259 
Q 2797 -91 1919 -91 
Q 1588 -91 1214 -16 
Q 841 59 441 206 
L 441 856 
Q 825 641 1194 531 
Q 1563 422 1919 422 
Q 2459 422 2753 634 
Q 3047 847 3047 1241 
Q 3047 1584 2836 1778 
Q 2625 1972 2144 2069 
L 1759 2144 
Q 1053 2284 737 2584 
Q 422 2884 422 3419 
Q 422 4038 858 4394 
Q 1294 4750 2059 4750 
Q 2388 4750 2728 4690 
Q 3069 4631 3425 4513 
z
" transform="scale(0.015625)"/>
      <path id="DejaVuSans-6f" d="M 1959 3097 
Q 1497 3097 1228 2736 
Q 959 2375 959 1747 
Q 959 1119 1226 758 
Q 1494 397 1959 397 
Q 2419 397 2687 759 
Q 2956 1122 2956 1747 
Q 2956 2369 2687 2733 
Q 2419 3097 1959 3097 
z
M 1959 3584 
Q 2709 3584 3137 3096 
Q 3566 2609 3566 1747 
Q 3566 888 3137 398 
Q 2709 -91 1959 -91 
Q 1206 -91 779 398 
Q 353 888 353 1747 
Q 353 2609 779 3096 
Q 1206 3584 1959 3584 
z
" transform="scale(0.015625)"/>
      <path id="DejaVuSans-76" d="M 191 3500 
L 800 3500 
L 1894 563 
L 2988 3500 
L 3597 3500 
L 2284 0 
L 1503 0 
L 191 3500 
z
" transform="scale(0.015625)"/>
     </defs>
     <use xlink:href="#DejaVuSans-53"/>
     <use xlink:href="#DejaVuSans-74" x="63.476562"/>
     <use xlink:href="#DejaVuSans-72" x="102.685547"/>
     <use xlink:href="#DejaVuSans-65" x="141.548828"/>
     <use xlink:href="#DejaVuSans-61" x="203.072266"/>
     <use xlink:href="#DejaVuSans-6d" x="264.351562"/>
     <use xlink:href="#DejaVuSans-20" x="361.763672"/>
     <use xlink:href="#DejaVuSans-42" x="393.550781"/>
     <use xlink:href="#DejaVuSans-69" x="462.154297"/>
     <use xlink:href="#DejaVuSans-74" x="489.9375"/>
     <use xlink:href="#DejaVuSans-72" x="529.146484"/>
     <use xlink:href="#DejaVuSans-61" x="570.259766"/>
     <use xlink:href="#DejaVuSans-74" x="631.539062"/>
     <use xlink:href="#DejaVuSans-65" x="670.748047"/>
     <use xlink:href="#DejaVuSans-20" x="732.271484"/>
     <use xlink:href="#DejaVuSans-6f" x="764.058594"/>
     <use xlink:href="#DejaVuSans-76" x="825.240234"/>
     <use xlink:href="#DejaVuSans-65" x="884.419922"/>
     <use xlink:href="#DejaVuSans-72" x="945.943359"/>
     <use xlink:href="#DejaVuSans-20" x="987.056641"/>
     <use xlink:href="#DejaVuSans-54" x="1018.84375"/>
     <use xlink:href="#DejaVuSans-69" x="1076.802734"/>
     <use xlink:href="#DejaVuSans-6d" x="1104.585938"/>
     <use xlink:href="#DejaVuSans-65" x="1201.998047"/>
    </g>
   </g>
   <g id="legend_1">
    <g id="patch_7">
     <path d="M 602.139063 86.594375 
L 641 86.594375 
Q 643 86.594375 643 84.594375 
L 643 41.56 
Q 643 39.56 641 39.56 
L 602.139063 39.56 
Q 600.139063 39.56 600.139063 41.56 
L 600.139063 84.594375 
Q 600.139063 86.594375 602.139063 86.594375 
z
" style="fill: #ffffff; opacity: 0.8; stroke: #cccccc; stroke-linejoin: miter"/>
    </g>
    <g id="patch_8">
     <path d="M 604.139063 51.158438 
L 624.139063 51.158438 
L 624.139063 44.158438 
L 604.139063 44.158438 
z
" style="fill: #ff0000; stroke: #ff0000; stroke-width: 0.5; stroke-linejoin: miter"/>
    </g>
    <g id="text_22">
     <!-- I -->
     <g transform="translate(632.139063 51.158438) scale(0.1 -0.1)">
      <defs>
       <path id="DejaVuSans-49" d="M 628 4666 
L 1259 4666 
L 1259 0 
L 628 0 
L 628 4666 
z
" transform="scale(0.015625)"/>
      </defs>
      <use xlink:href="#DejaVuSans-49"/>
     </g>
    </g>
    <g id="patch_9">
     <path d="M 604.139063 65.836563 
L 624.139063 65.836563 
L 624.139063 58.836563 
L 604.139063 58.836563 
z
" style="fill: #0000ff; stroke: #0000ff; stroke-width: 0.5; stroke-linejoin: miter"/>
    </g>
    <g id="text_23">
     <!-- B -->
     <g transform="translate(632.139063 65.836563) scale(0.1 -0.1)">
      <use xlink:href="#DejaVuSans-42"/>
     </g>
    </g>
    <g id="patch_10">
     <path d="M 604.139063 80.514688 
L 624.139063 80.514688 
L 624.139063 73.514688 
L 604.139063 73.514688 
z
" style="fill: #008000; stroke: #008000; stroke-width: 0.5; stroke-linejoin: miter"/>
    </g>
    <g id="text_24">
     <!-- P -->
     <g transform="translate(632.139063 80.514688) scale(0.1 -0.1)">
      <defs>
       <path id="DejaVuSans-50" d="M 1259 4147 
L 1259 2394 
L 2053 2394 
Q 2494 2394 2734 2622 
Q 2975 2850 2975 3272 
Q 2975 3691 2734 3919 
Q 2494 4147 2053 4147 
L 1259 4147 
z
M 628 4666 
L 2053 4666 
Q 2838 4666 3239 4311 
Q 3641 3956 3641 3272 
Q 3641 2581 3239 2228 
Q 2838 1875 2053 1875 
L 1259 1875 
L 1259 0 
L 628 0 
L 628 4666 
z
" transform="scale(0.015625)"/>
      </defs>
      <use xlink:href="#DejaVuSans-50"/>
     </g>
    </g>
   </g>
  </g>
 </g>
 <defs>
  <clipPath id="p8a3780ac3f">
   <rect x="90" y="34.56" width="558" height="221.76"/>
  </clipPath>
 </defs>
</svg>
