<?xml version="1.0" encoding="utf-8" standalone="no"?>
<!DOCTYPE svg PUBLIC "-//W3C//DTD SVG 1.1//EN"
  "http://www.w3.org/Graphics/SVG/1.1/DTD/svg11.dtd">
<svg xmlns:xlink="http://www.w3.org/1999/xlink" width="720pt" height="288pt" viewBox="0 0 720 288" xmlns="http://www.w3.org/2000/svg" version="1.1">
 <metadata>
  <rdf:RDF xmlns:dc="http://purl.org/dc/elements/1.1/" xmlns:cc="http://creativecommons.org/ns#" xmlns:rdf="http://www.w3.org/1999/02/22-rdf-syntax-ns#">
   <cc:Work>
    <dc:type rdf:resource="http://purl.org/dc/dcmitype/StillImage"/>
    <dc:date>2023-05-07T01:58:16.200079</dc:date>
    <dc:format>image/svg+xml</dc:format>
    <dc:creator>
     <cc:Agent>
      <dc:title>Matplotlib v3.7.1, https://matplotlib.org/</dc:title>
     </cc:Agent>
    </dc:creator>
   </cc:Work>
  </rdf:RDF>
 </metadata>
 <defs>
  <style type="text/css">*{stroke-linejoin: round; stroke-linecap: butt}</style>
 </defs>
 <g id="figure_1">
  <g id="patch_1">
   <path d="M 0 288 
L 720 288 
L 720 0 
L 0 0 
z
" style="fill: #ffffff"/>
  </g>
  <g id="axes_1">
   <g id="patch_2">
    <path d="M 90 256.32 
L 648 256.32 
L 648 34.56 
L 90 34.56 
z
" style="fill: #ffffff"/>
   </g>
   <g id="matplotlib.axis_1">
    <g id="xtick_1">
     <g id="line2d_1">
      <defs>
       <path id="m09027cda21" d="M 0 0 
L 0 3.5 
" style="stroke: #000000; stroke-width: 0.8"/>
      </defs>
      <g>
       <use xlink:href="#m09027cda21" x="115.363636" y="256.32" style="stroke: #000000; stroke-width: 0.8"/>
      </g>
     </g>
     <g id="text_1">
      <!-- 0:00:00 -->
      <g transform="translate(96.088636 270.918437) scale(0.1 -0.1)">
       <defs>
        <path id="DejaVuSans-30" d="M 2034 4250 
Q 1547 4250 1301 3770 
Q 1056 3291 1056 2328 
Q 1056 1369 1301 889 
Q 1547 409 2034 409 
Q 2525 409 2770 889 
Q 3016 1369 3016 2328 
Q 3016 3291 2770 3770 
Q 2525 4250 2034 4250 
z
M 2034 4750 
Q 2819 4750 3233 4129 
Q 3647 3509 3647 2328 
Q 3647 1150 3233 529 
Q 2819 -91 2034 -91 
Q 1250 -91 836 529 
Q 422 1150 422 2328 
Q 422 3509 836 4129 
Q 1250 4750 2034 4750 
z
" transform="scale(0.015625)"/>
        <path id="DejaVuSans-3a" d="M 750 794 
L 1409 794 
L 1409 0 
L 750 0 
L 750 794 
z
M 750 3309 
L 1409 3309 
L 1409 2516 
L 750 2516 
L 750 3309 
z
" transform="scale(0.015625)"/>
       </defs>
       <use xlink:href="#DejaVuSans-30"/>
       <use xlink:href="#DejaVuSans-3a" x="63.623047"/>
       <use xlink:href="#DejaVuSans-30" x="97.314453"/>
       <use xlink:href="#DejaVuSans-30" x="160.9375"/>
       <use xlink:href="#DejaVuSans-3a" x="224.560547"/>
       <use xlink:href="#DejaVuSans-30" x="258.251953"/>
       <use xlink:href="#DejaVuSans-30" x="321.875"/>
      </g>
     </g>
    </g>
    <g id="xtick_2">
     <g id="line2d_2">
      <g>
       <use xlink:href="#m09027cda21" x="166.090909" y="256.32" style="stroke: #000000; stroke-width: 0.8"/>
      </g>
     </g>
     <g id="text_2">
      <!-- 0:00:30 -->
      <g transform="translate(146.815909 270.918437) scale(0.1 -0.1)">
       <defs>
        <path id="DejaVuSans-33" d="M 2597 2516 
Q 3050 2419 3304 2112 
Q 3559 1806 3559 1356 
Q 3559 666 3084 287 
Q 2609 -91 1734 -91 
Q 1441 -91 1130 -33 
Q 819 25 488 141 
L 488 750 
Q 750 597 1062 519 
Q 1375 441 1716 441 
Q 2309 441 2620 675 
Q 2931 909 2931 1356 
Q 2931 1769 2642 2001 
Q 2353 2234 1838 2234 
L 1294 2234 
L 1294 2753 
L 1863 2753 
Q 2328 2753 2575 2939 
Q 2822 3125 2822 3475 
Q 2822 3834 2567 4026 
Q 2313 4219 1838 4219 
Q 1578 4219 1281 4162 
Q 984 4106 628 3988 
L 628 4550 
Q 988 4650 1302 4700 
Q 1616 4750 1894 4750 
Q 2613 4750 3031 4423 
Q 3450 4097 3450 3541 
Q 3450 3153 3228 2886 
Q 3006 2619 2597 2516 
z
" transform="scale(0.015625)"/>
       </defs>
       <use xlink:href="#DejaVuSans-30"/>
       <use xlink:href="#DejaVuSans-3a" x="63.623047"/>
       <use xlink:href="#DejaVuSans-30" x="97.314453"/>
       <use xlink:href="#DejaVuSans-30" x="160.9375"/>
       <use xlink:href="#DejaVuSans-3a" x="224.560547"/>
       <use xlink:href="#DejaVuSans-33" x="258.251953"/>
       <use xlink:href="#DejaVuSans-30" x="321.875"/>
      </g>
     </g>
    </g>
    <g id="xtick_3">
     <g id="line2d_3">
      <g>
       <use xlink:href="#m09027cda21" x="216.818182" y="256.32" style="stroke: #000000; stroke-width: 0.8"/>
      </g>
     </g>
     <g id="text_3">
      <!-- 0:01:00 -->
      <g transform="translate(197.543182 270.918437) scale(0.1 -0.1)">
       <defs>
        <path id="DejaVuSans-31" d="M 794 531 
L 1825 531 
L 1825 4091 
L 703 3866 
L 703 4441 
L 1819 4666 
L 2450 4666 
L 2450 531 
L 3481 531 
L 3481 0 
L 794 0 
L 794 531 
z
" transform="scale(0.015625)"/>
       </defs>
       <use xlink:href="#DejaVuSans-30"/>
       <use xlink:href="#DejaVuSans-3a" x="63.623047"/>
       <use xlink:href="#DejaVuSans-30" x="97.314453"/>
       <use xlink:href="#DejaVuSans-31" x="160.9375"/>
       <use xlink:href="#DejaVuSans-3a" x="224.560547"/>
       <use xlink:href="#DejaVuSans-30" x="258.251953"/>
       <use xlink:href="#DejaVuSans-30" x="321.875"/>
      </g>
     </g>
    </g>
    <g id="xtick_4">
     <g id="line2d_4">
      <g>
       <use xlink:href="#m09027cda21" x="267.545455" y="256.32" style="stroke: #000000; stroke-width: 0.8"/>
      </g>
     </g>
     <g id="text_4">
      <!-- 0:01:30 -->
      <g transform="translate(248.270455 270.918437) scale(0.1 -0.1)">
       <use xlink:href="#DejaVuSans-30"/>
       <use xlink:href="#DejaVuSans-3a" x="63.623047"/>
       <use xlink:href="#DejaVuSans-30" x="97.314453"/>
       <use xlink:href="#DejaVuSans-31" x="160.9375"/>
       <use xlink:href="#DejaVuSans-3a" x="224.560547"/>
       <use xlink:href="#DejaVuSans-33" x="258.251953"/>
       <use xlink:href="#DejaVuSans-30" x="321.875"/>
      </g>
     </g>
    </g>
    <g id="xtick_5">
     <g id="line2d_5">
      <g>
       <use xlink:href="#m09027cda21" x="318.272727" y="256.32" style="stroke: #000000; stroke-width: 0.8"/>
      </g>
     </g>
     <g id="text_5">
      <!-- 0:02:00 -->
      <g transform="translate(298.997727 270.918437) scale(0.1 -0.1)">
       <defs>
        <path id="DejaVuSans-32" d="M 1228 531 
L 3431 531 
L 3431 0 
L 469 0 
L 469 531 
Q 828 903 1448 1529 
Q 2069 2156 2228 2338 
Q 2531 2678 2651 2914 
Q 2772 3150 2772 3378 
Q 2772 3750 2511 3984 
Q 2250 4219 1831 4219 
Q 1534 4219 1204 4116 
Q 875 4013 500 3803 
L 500 4441 
Q 881 4594 1212 4672 
Q 1544 4750 1819 4750 
Q 2544 4750 2975 4387 
Q 3406 4025 3406 3419 
Q 3406 3131 3298 2873 
Q 3191 2616 2906 2266 
Q 2828 2175 2409 1742 
Q 1991 1309 1228 531 
z
" transform="scale(0.015625)"/>
       </defs>
       <use xlink:href="#DejaVuSans-30"/>
       <use xlink:href="#DejaVuSans-3a" x="63.623047"/>
       <use xlink:href="#DejaVuSans-30" x="97.314453"/>
       <use xlink:href="#DejaVuSans-32" x="160.9375"/>
       <use xlink:href="#DejaVuSans-3a" x="224.560547"/>
       <use xlink:href="#DejaVuSans-30" x="258.251953"/>
       <use xlink:href="#DejaVuSans-30" x="321.875"/>
      </g>
     </g>
    </g>
    <g id="xtick_6">
     <g id="line2d_6">
      <g>
       <use xlink:href="#m09027cda21" x="369" y="256.32" style="stroke: #000000; stroke-width: 0.8"/>
      </g>
     </g>
     <g id="text_6">
      <!-- 0:02:30 -->
      <g transform="translate(349.725 270.918437) scale(0.1 -0.1)">
       <use xlink:href="#DejaVuSans-30"/>
       <use xlink:href="#DejaVuSans-3a" x="63.623047"/>
       <use xlink:href="#DejaVuSans-30" x="97.314453"/>
       <use xlink:href="#DejaVuSans-32" x="160.9375"/>
       <use xlink:href="#DejaVuSans-3a" x="224.560547"/>
       <use xlink:href="#DejaVuSans-33" x="258.251953"/>
       <use xlink:href="#DejaVuSans-30" x="321.875"/>
      </g>
     </g>
    </g>
    <g id="xtick_7">
     <g id="line2d_7">
      <g>
       <use xlink:href="#m09027cda21" x="419.727273" y="256.32" style="stroke: #000000; stroke-width: 0.8"/>
      </g>
     </g>
     <g id="text_7">
      <!-- 0:03:00 -->
      <g transform="translate(400.452273 270.918437) scale(0.1 -0.1)">
       <use xlink:href="#DejaVuSans-30"/>
       <use xlink:href="#DejaVuSans-3a" x="63.623047"/>
       <use xlink:href="#DejaVuSans-30" x="97.314453"/>
       <use xlink:href="#DejaVuSans-33" x="160.9375"/>
       <use xlink:href="#DejaVuSans-3a" x="224.560547"/>
       <use xlink:href="#DejaVuSans-30" x="258.251953"/>
       <use xlink:href="#DejaVuSans-30" x="321.875"/>
      </g>
     </g>
    </g>
    <g id="xtick_8">
     <g id="line2d_8">
      <g>
       <use xlink:href="#m09027cda21" x="470.454545" y="256.32" style="stroke: #000000; stroke-width: 0.8"/>
      </g>
     </g>
     <g id="text_8">
      <!-- 0:03:30 -->
      <g transform="translate(451.179545 270.918437) scale(0.1 -0.1)">
       <use xlink:href="#DejaVuSans-30"/>
       <use xlink:href="#DejaVuSans-3a" x="63.623047"/>
       <use xlink:href="#DejaVuSans-30" x="97.314453"/>
       <use xlink:href="#DejaVuSans-33" x="160.9375"/>
       <use xlink:href="#DejaVuSans-3a" x="224.560547"/>
       <use xlink:href="#DejaVuSans-33" x="258.251953"/>
       <use xlink:href="#DejaVuSans-30" x="321.875"/>
      </g>
     </g>
    </g>
    <g id="xtick_9">
     <g id="line2d_9">
      <g>
       <use xlink:href="#m09027cda21" x="521.181818" y="256.32" style="stroke: #000000; stroke-width: 0.8"/>
      </g>
     </g>
     <g id="text_9">
      <!-- 0:04:00 -->
      <g transform="translate(501.906818 270.918437) scale(0.1 -0.1)">
       <defs>
        <path id="DejaVuSans-34" d="M 2419 4116 
L 825 1625 
L 2419 1625 
L 2419 4116 
z
M 2253 4666 
L 3047 4666 
L 3047 1625 
L 3713 1625 
L 3713 1100 
L 3047 1100 
L 3047 0 
L 2419 0 
L 2419 1100 
L 313 1100 
L 313 1709 
L 2253 4666 
z
" transform="scale(0.015625)"/>
       </defs>
       <use xlink:href="#DejaVuSans-30"/>
       <use xlink:href="#DejaVuSans-3a" x="63.623047"/>
       <use xlink:href="#DejaVuSans-30" x="97.314453"/>
       <use xlink:href="#DejaVuSans-34" x="160.9375"/>
       <use xlink:href="#DejaVuSans-3a" x="224.560547"/>
       <use xlink:href="#DejaVuSans-30" x="258.251953"/>
       <use xlink:href="#DejaVuSans-30" x="321.875"/>
      </g>
     </g>
    </g>
    <g id="xtick_10">
     <g id="line2d_10">
      <g>
       <use xlink:href="#m09027cda21" x="571.909091" y="256.32" style="stroke: #000000; stroke-width: 0.8"/>
      </g>
     </g>
     <g id="text_10">
      <!-- 0:04:30 -->
      <g transform="translate(552.634091 270.918437) scale(0.1 -0.1)">
       <use xlink:href="#DejaVuSans-30"/>
       <use xlink:href="#DejaVuSans-3a" x="63.623047"/>
       <use xlink:href="#DejaVuSans-30" x="97.314453"/>
       <use xlink:href="#DejaVuSans-34" x="160.9375"/>
       <use xlink:href="#DejaVuSans-3a" x="224.560547"/>
       <use xlink:href="#DejaVuSans-33" x="258.251953"/>
       <use xlink:href="#DejaVuSans-30" x="321.875"/>
      </g>
     </g>
    </g>
    <g id="xtick_11">
     <g id="line2d_11">
      <g>
       <use xlink:href="#m09027cda21" x="622.636364" y="256.32" style="stroke: #000000; stroke-width: 0.8"/>
      </g>
     </g>
     <g id="text_11">
      <!-- 0:05:00 -->
      <g transform="translate(603.361364 270.918437) scale(0.1 -0.1)">
       <defs>
        <path id="DejaVuSans-35" d="M 691 4666 
L 3169 4666 
L 3169 4134 
L 1269 4134 
L 1269 2991 
Q 1406 3038 1543 3061 
Q 1681 3084 1819 3084 
Q 2600 3084 3056 2656 
Q 3513 2228 3513 1497 
Q 3513 744 3044 326 
Q 2575 -91 1722 -91 
Q 1428 -91 1123 -41 
Q 819 9 494 109 
L 494 744 
Q 775 591 1075 516 
Q 1375 441 1709 441 
Q 2250 441 2565 725 
Q 2881 1009 2881 1497 
Q 2881 1984 2565 2268 
Q 2250 2553 1709 2553 
Q 1456 2553 1204 2497 
Q 953 2441 691 2322 
L 691 4666 
z
" transform="scale(0.015625)"/>
       </defs>
       <use xlink:href="#DejaVuSans-30"/>
       <use xlink:href="#DejaVuSans-3a" x="63.623047"/>
       <use xlink:href="#DejaVuSans-30" x="97.314453"/>
       <use xlink:href="#DejaVuSans-35" x="160.9375"/>
       <use xlink:href="#DejaVuSans-3a" x="224.560547"/>
       <use xlink:href="#DejaVuSans-30" x="258.251953"/>
       <use xlink:href="#DejaVuSans-30" x="321.875"/>
      </g>
     </g>
    </g>
    <g id="text_12">
     <!-- Time -->
     <g transform="translate(356.766406 284.596563) scale(0.1 -0.1)">
      <defs>
       <path id="DejaVuSans-54" d="M -19 4666 
L 3928 4666 
L 3928 4134 
L 2272 4134 
L 2272 0 
L 1638 0 
L 1638 4134 
L -19 4134 
L -19 4666 
z
" transform="scale(0.015625)"/>
       <path id="DejaVuSans-69" d="M 603 3500 
L 1178 3500 
L 1178 0 
L 603 0 
L 603 3500 
z
M 603 4863 
L 1178 4863 
L 1178 4134 
L 603 4134 
L 603 4863 
z
" transform="scale(0.015625)"/>
       <path id="DejaVuSans-6d" d="M 3328 2828 
Q 3544 3216 3844 3400 
Q 4144 3584 4550 3584 
Q 5097 3584 5394 3201 
Q 5691 2819 5691 2113 
L 5691 0 
L 5113 0 
L 5113 2094 
Q 5113 2597 4934 2840 
Q 4756 3084 4391 3084 
Q 3944 3084 3684 2787 
Q 3425 2491 3425 1978 
L 3425 0 
L 2847 0 
L 2847 2094 
Q 2847 2600 2669 2842 
Q 2491 3084 2119 3084 
Q 1678 3084 1418 2786 
Q 1159 2488 1159 1978 
L 1159 0 
L 581 0 
L 581 3500 
L 1159 3500 
L 1159 2956 
Q 1356 3278 1631 3431 
Q 1906 3584 2284 3584 
Q 2666 3584 2933 3390 
Q 3200 3197 3328 2828 
z
" transform="scale(0.015625)"/>
       <path id="DejaVuSans-65" d="M 3597 1894 
L 3597 1613 
L 953 1613 
Q 991 1019 1311 708 
Q 1631 397 2203 397 
Q 2534 397 2845 478 
Q 3156 559 3463 722 
L 3463 178 
Q 3153 47 2828 -22 
Q 2503 -91 2169 -91 
Q 1331 -91 842 396 
Q 353 884 353 1716 
Q 353 2575 817 3079 
Q 1281 3584 2069 3584 
Q 2775 3584 3186 3129 
Q 3597 2675 3597 1894 
z
M 3022 2063 
Q 3016 2534 2758 2815 
Q 2500 3097 2075 3097 
Q 1594 3097 1305 2825 
Q 1016 2553 972 2059 
L 3022 2063 
z
" transform="scale(0.015625)"/>
      </defs>
      <use xlink:href="#DejaVuSans-54"/>
      <use xlink:href="#DejaVuSans-69" x="57.958984"/>
      <use xlink:href="#DejaVuSans-6d" x="85.742188"/>
      <use xlink:href="#DejaVuSans-65" x="183.154297"/>
     </g>
    </g>
   </g>
   <g id="matplotlib.axis_2">
    <g id="ytick_1">
     <g id="line2d_12">
      <path d="M 90 246.24 
L 648 246.24 
" clip-path="url(#p7b7f299ea2)" style="fill: none; stroke: #b0b0b0; stroke-width: 0.8; stroke-linecap: square"/>
     </g>
     <g id="line2d_13">
      <defs>
       <path id="m23ae23106b" d="M 0 0 
L -3.5 0 
" style="stroke: #000000; stroke-width: 0.8"/>
      </defs>
      <g>
       <use xlink:href="#m23ae23106b" x="90" y="246.24" style="stroke: #000000; stroke-width: 0.8"/>
      </g>
     </g>
     <g id="text_13">
      <!-- 0 -->
      <g transform="translate(76.6375 250.039219) scale(0.1 -0.1)">
       <use xlink:href="#DejaVuSans-30"/>
      </g>
     </g>
    </g>
    <g id="ytick_2">
     <g id="line2d_14">
      <path d="M 90 211.930946 
L 648 211.930946 
" clip-path="url(#p7b7f299ea2)" style="fill: none; stroke: #b0b0b0; stroke-width: 0.8; stroke-linecap: square"/>
     </g>
     <g id="line2d_15">
      <g>
       <use xlink:href="#m23ae23106b" x="90" y="211.930946" style="stroke: #000000; stroke-width: 0.8"/>
      </g>
     </g>
     <g id="text_14">
      <!-- 500 -->
      <g transform="translate(63.9125 215.730165) scale(0.1 -0.1)">
       <use xlink:href="#DejaVuSans-35"/>
       <use xlink:href="#DejaVuSans-30" x="63.623047"/>
       <use xlink:href="#DejaVuSans-30" x="127.246094"/>
      </g>
     </g>
    </g>
    <g id="ytick_3">
     <g id="line2d_16">
      <path d="M 90 177.621892 
L 648 177.621892 
" clip-path="url(#p7b7f299ea2)" style="fill: none; stroke: #b0b0b0; stroke-width: 0.8; stroke-linecap: square"/>
     </g>
     <g id="line2d_17">
      <g>
       <use xlink:href="#m23ae23106b" x="90" y="177.621892" style="stroke: #000000; stroke-width: 0.8"/>
      </g>
     </g>
     <g id="text_15">
      <!-- 1,000 -->
      <g transform="translate(54.371875 181.421111) scale(0.1 -0.1)">
       <defs>
        <path id="DejaVuSans-2c" d="M 750 794 
L 1409 794 
L 1409 256 
L 897 -744 
L 494 -744 
L 750 256 
L 750 794 
z
" transform="scale(0.015625)"/>
       </defs>
       <use xlink:href="#DejaVuSans-31"/>
       <use xlink:href="#DejaVuSans-2c" x="63.623047"/>
       <use xlink:href="#DejaVuSans-30" x="95.410156"/>
       <use xlink:href="#DejaVuSans-30" x="159.033203"/>
       <use xlink:href="#DejaVuSans-30" x="222.65625"/>
      </g>
     </g>
    </g>
    <g id="ytick_4">
     <g id="line2d_18">
      <path d="M 90 143.312839 
L 648 143.312839 
" clip-path="url(#p7b7f299ea2)" style="fill: none; stroke: #b0b0b0; stroke-width: 0.8; stroke-linecap: square"/>
     </g>
     <g id="line2d_19">
      <g>
       <use xlink:href="#m23ae23106b" x="90" y="143.312839" style="stroke: #000000; stroke-width: 0.8"/>
      </g>
     </g>
     <g id="text_16">
      <!-- 1,500 -->
      <g transform="translate(54.371875 147.112057) scale(0.1 -0.1)">
       <use xlink:href="#DejaVuSans-31"/>
       <use xlink:href="#DejaVuSans-2c" x="63.623047"/>
       <use xlink:href="#DejaVuSans-35" x="95.410156"/>
       <use xlink:href="#DejaVuSans-30" x="159.033203"/>
       <use xlink:href="#DejaVuSans-30" x="222.65625"/>
      </g>
     </g>
    </g>
    <g id="ytick_5">
     <g id="line2d_20">
      <path d="M 90 109.003785 
L 648 109.003785 
" clip-path="url(#p7b7f299ea2)" style="fill: none; stroke: #b0b0b0; stroke-width: 0.8; stroke-linecap: square"/>
     </g>
     <g id="line2d_21">
      <g>
       <use xlink:href="#m23ae23106b" x="90" y="109.003785" style="stroke: #000000; stroke-width: 0.8"/>
      </g>
     </g>
     <g id="text_17">
      <!-- 2,000 -->
      <g transform="translate(54.371875 112.803004) scale(0.1 -0.1)">
       <use xlink:href="#DejaVuSans-32"/>
       <use xlink:href="#DejaVuSans-2c" x="63.623047"/>
       <use xlink:href="#DejaVuSans-30" x="95.410156"/>
       <use xlink:href="#DejaVuSans-30" x="159.033203"/>
       <use xlink:href="#DejaVuSans-30" x="222.65625"/>
      </g>
     </g>
    </g>
    <g id="ytick_6">
     <g id="line2d_22">
      <path d="M 90 74.694731 
L 648 74.694731 
" clip-path="url(#p7b7f299ea2)" style="fill: none; stroke: #b0b0b0; stroke-width: 0.8; stroke-linecap: square"/>
     </g>
     <g id="line2d_23">
      <g>
       <use xlink:href="#m23ae23106b" x="90" y="74.694731" style="stroke: #000000; stroke-width: 0.8"/>
      </g>
     </g>
     <g id="text_18">
      <!-- 2,500 -->
      <g transform="translate(54.371875 78.49395) scale(0.1 -0.1)">
       <use xlink:href="#DejaVuSans-32"/>
       <use xlink:href="#DejaVuSans-2c" x="63.623047"/>
       <use xlink:href="#DejaVuSans-35" x="95.410156"/>
       <use xlink:href="#DejaVuSans-30" x="159.033203"/>
       <use xlink:href="#DejaVuSans-30" x="222.65625"/>
      </g>
     </g>
    </g>
    <g id="ytick_7">
     <g id="line2d_24">
      <path d="M 90 40.385677 
L 648 40.385677 
" clip-path="url(#p7b7f299ea2)" style="fill: none; stroke: #b0b0b0; stroke-width: 0.8; stroke-linecap: square"/>
     </g>
     <g id="line2d_25">
      <g>
       <use xlink:href="#m23ae23106b" x="90" y="40.385677" style="stroke: #000000; stroke-width: 0.8"/>
      </g>
     </g>
     <g id="text_19">
      <!-- 3,000 -->
      <g transform="translate(54.371875 44.184896) scale(0.1 -0.1)">
       <use xlink:href="#DejaVuSans-33"/>
       <use xlink:href="#DejaVuSans-2c" x="63.623047"/>
       <use xlink:href="#DejaVuSans-30" x="95.410156"/>
       <use xlink:href="#DejaVuSans-30" x="159.033203"/>
       <use xlink:href="#DejaVuSans-30" x="222.65625"/>
      </g>
     </g>
    </g>
    <g id="text_20">
     <!-- Bitrate (kbit/s) -->
     <g transform="translate(48.292187 181.574375) rotate(-90) scale(0.1 -0.1)">
      <defs>
       <path id="DejaVuSans-42" d="M 1259 2228 
L 1259 519 
L 2272 519 
Q 2781 519 3026 730 
Q 3272 941 3272 1375 
Q 3272 1813 3026 2020 
Q 2781 2228 2272 2228 
L 1259 2228 
z
M 1259 4147 
L 1259 2741 
L 2194 2741 
Q 2656 2741 2882 2914 
Q 3109 3088 3109 3444 
Q 3109 3797 2882 3972 
Q 2656 4147 2194 4147 
L 1259 4147 
z
M 628 4666 
L 2241 4666 
Q 2963 4666 3353 4366 
Q 3744 4066 3744 3513 
Q 3744 3084 3544 2831 
Q 3344 2578 2956 2516 
Q 3422 2416 3680 2098 
Q 3938 1781 3938 1306 
Q 3938 681 3513 340 
Q 3088 0 2303 0 
L 628 0 
L 628 4666 
z
" transform="scale(0.015625)"/>
       <path id="DejaVuSans-74" d="M 1172 4494 
L 1172 3500 
L 2356 3500 
L 2356 3053 
L 1172 3053 
L 1172 1153 
Q 1172 725 1289 603 
Q 1406 481 1766 481 
L 2356 481 
L 2356 0 
L 1766 0 
Q 1100 0 847 248 
Q 594 497 594 1153 
L 594 3053 
L 172 3053 
L 172 3500 
L 594 3500 
L 594 4494 
L 1172 4494 
z
" transform="scale(0.015625)"/>
       <path id="DejaVuSans-72" d="M 2631 2963 
Q 2534 3019 2420 3045 
Q 2306 3072 2169 3072 
Q 1681 3072 1420 2755 
Q 1159 2438 1159 1844 
L 1159 0 
L 581 0 
L 581 3500 
L 1159 3500 
L 1159 2956 
Q 1341 3275 1631 3429 
Q 1922 3584 2338 3584 
Q 2397 3584 2469 3576 
Q 2541 3569 2628 3553 
L 2631 2963 
z
" transform="scale(0.015625)"/>
       <path id="DejaVuSans-61" d="M 2194 1759 
Q 1497 1759 1228 1600 
Q 959 1441 959 1056 
Q 959 750 1161 570 
Q 1363 391 1709 391 
Q 2188 391 2477 730 
Q 2766 1069 2766 1631 
L 2766 1759 
L 2194 1759 
z
M 3341 1997 
L 3341 0 
L 2766 0 
L 2766 531 
Q 2569 213 2275 61 
Q 1981 -91 1556 -91 
Q 1019 -91 701 211 
Q 384 513 384 1019 
Q 384 1609 779 1909 
Q 1175 2209 1959 2209 
L 2766 2209 
L 2766 2266 
Q 2766 2663 2505 2880 
Q 2244 3097 1772 3097 
Q 1472 3097 1187 3025 
Q 903 2953 641 2809 
L 641 3341 
Q 956 3463 1253 3523 
Q 1550 3584 1831 3584 
Q 2591 3584 2966 3190 
Q 3341 2797 3341 1997 
z
" transform="scale(0.015625)"/>
       <path id="DejaVuSans-20" transform="scale(0.015625)"/>
       <path id="DejaVuSans-28" d="M 1984 4856 
Q 1566 4138 1362 3434 
Q 1159 2731 1159 2009 
Q 1159 1288 1364 580 
Q 1569 -128 1984 -844 
L 1484 -844 
Q 1016 -109 783 600 
Q 550 1309 550 2009 
Q 550 2706 781 3412 
Q 1013 4119 1484 4856 
L 1984 4856 
z
" transform="scale(0.015625)"/>
       <path id="DejaVuSans-6b" d="M 581 4863 
L 1159 4863 
L 1159 1991 
L 2875 3500 
L 3609 3500 
L 1753 1863 
L 3688 0 
L 2938 0 
L 1159 1709 
L 1159 0 
L 581 0 
L 581 4863 
z
" transform="scale(0.015625)"/>
       <path id="DejaVuSans-62" d="M 3116 1747 
Q 3116 2381 2855 2742 
Q 2594 3103 2138 3103 
Q 1681 3103 1420 2742 
Q 1159 2381 1159 1747 
Q 1159 1113 1420 752 
Q 1681 391 2138 391 
Q 2594 391 2855 752 
Q 3116 1113 3116 1747 
z
M 1159 2969 
Q 1341 3281 1617 3432 
Q 1894 3584 2278 3584 
Q 2916 3584 3314 3078 
Q 3713 2572 3713 1747 
Q 3713 922 3314 415 
Q 2916 -91 2278 -91 
Q 1894 -91 1617 61 
Q 1341 213 1159 525 
L 1159 0 
L 581 0 
L 581 4863 
L 1159 4863 
L 1159 2969 
z
" transform="scale(0.015625)"/>
       <path id="DejaVuSans-2f" d="M 1625 4666 
L 2156 4666 
L 531 -594 
L 0 -594 
L 1625 4666 
z
" transform="scale(0.015625)"/>
       <path id="DejaVuSans-73" d="M 2834 3397 
L 2834 2853 
Q 2591 2978 2328 3040 
Q 2066 3103 1784 3103 
Q 1356 3103 1142 2972 
Q 928 2841 928 2578 
Q 928 2378 1081 2264 
Q 1234 2150 1697 2047 
L 1894 2003 
Q 2506 1872 2764 1633 
Q 3022 1394 3022 966 
Q 3022 478 2636 193 
Q 2250 -91 1575 -91 
Q 1294 -91 989 -36 
Q 684 19 347 128 
L 347 722 
Q 666 556 975 473 
Q 1284 391 1588 391 
Q 1994 391 2212 530 
Q 2431 669 2431 922 
Q 2431 1156 2273 1281 
Q 2116 1406 1581 1522 
L 1381 1569 
Q 847 1681 609 1914 
Q 372 2147 372 2553 
Q 372 3047 722 3315 
Q 1072 3584 1716 3584 
Q 2034 3584 2315 3537 
Q 2597 3491 2834 3397 
z
" transform="scale(0.015625)"/>
       <path id="DejaVuSans-29" d="M 513 4856 
L 1013 4856 
Q 1481 4119 1714 3412 
Q 1947 2706 1947 2009 
Q 1947 1309 1714 600 
Q 1481 -109 1013 -844 
L 513 -844 
Q 928 -128 1133 580 
Q 1338 1288 1338 2009 
Q 1338 2731 1133 3434 
Q 928 4138 513 4856 
z
" transform="scale(0.015625)"/>
      </defs>
      <use xlink:href="#DejaVuSans-42"/>
      <use xlink:href="#DejaVuSans-69" x="68.603516"/>
      <use xlink:href="#DejaVuSans-74" x="96.386719"/>
      <use xlink:href="#DejaVuSans-72" x="135.595703"/>
      <use xlink:href="#DejaVuSans-61" x="176.708984"/>
      <use xlink:href="#DejaVuSans-74" x="237.988281"/>
      <use xlink:href="#DejaVuSans-65" x="277.197266"/>
      <use xlink:href="#DejaVuSans-20" x="338.720703"/>
      <use xlink:href="#DejaVuSans-28" x="370.507812"/>
      <use xlink:href="#DejaVuSans-6b" x="409.521484"/>
      <use xlink:href="#DejaVuSans-62" x="467.431641"/>
      <use xlink:href="#DejaVuSans-69" x="530.908203"/>
      <use xlink:href="#DejaVuSans-74" x="558.691406"/>
      <use xlink:href="#DejaVuSans-2f" x="597.900391"/>
      <use xlink:href="#DejaVuSans-73" x="631.591797"/>
      <use xlink:href="#DejaVuSans-29" x="683.691406"/>
     </g>
    </g>
   </g>
   <g id="PolyCollection_1">
    <defs>
     <path id="m38148156b1" d="M 115.363636 -41.965854 
L 115.363636 -41.76 
L 117.054545 -41.76 
L 118.745455 -41.76 
L 120.436364 -41.76 
L 122.127273 -41.76 
L 123.818182 -41.76 
L 125.509091 -41.76 
L 127.2 -41.76 
L 128.890909 -41.76 
L 130.581818 -41.76 
L 132.272727 -41.76 
L 133.963636 -41.76 
L 135.654545 -41.76 
L 137.345455 -41.76 
L 139.036364 -41.76 
L 140.727273 -41.76 
L 142.418182 -41.76 
L 144.109091 -41.76 
L 145.8 -41.76 
L 147.490909 -41.76 
L 149.181818 -41.76 
L 150.872727 -41.76 
L 152.563636 -41.76 
L 154.254545 -41.76 
L 155.945455 -41.76 
L 157.636364 -41.76 
L 159.327273 -41.76 
L 161.018182 -41.76 
L 162.709091 -41.76 
L 164.4 -41.76 
L 166.090909 -41.76 
L 167.781818 -41.76 
L 169.472727 -41.76 
L 171.163636 -41.76 
L 172.854545 -41.76 
L 174.545455 -41.76 
L 176.236364 -41.76 
L 177.927273 -41.76 
L 179.618182 -41.76 
L 181.309091 -41.76 
L 183 -41.76 
L 184.690909 -41.76 
L 186.381818 -41.76 
L 188.072727 -41.76 
L 189.763636 -41.76 
L 191.454545 -41.76 
L 193.145455 -41.76 
L 194.836364 -41.76 
L 196.527273 -41.76 
L 198.218182 -41.76 
L 199.909091 -41.76 
L 201.6 -41.76 
L 203.290909 -41.76 
L 204.981818 -41.76 
L 206.672727 -41.76 
L 208.363636 -41.76 
L 210.054545 -41.76 
L 211.745455 -41.76 
L 213.436364 -41.76 
L 215.127273 -41.76 
L 216.818182 -41.76 
L 218.509091 -41.76 
L 220.2 -41.76 
L 221.890909 -41.76 
L 223.581818 -41.76 
L 225.272727 -41.76 
L 226.963636 -41.76 
L 228.654545 -41.76 
L 230.345455 -41.76 
L 232.036364 -41.76 
L 233.727273 -41.76 
L 235.418182 -41.76 
L 237.109091 -41.76 
L 238.8 -41.76 
L 240.490909 -41.76 
L 242.181818 -41.76 
L 243.872727 -41.76 
L 245.563636 -41.76 
L 247.254545 -41.76 
L 248.945455 -41.76 
L 250.636364 -41.76 
L 252.327273 -41.76 
L 254.018182 -41.76 
L 255.709091 -41.76 
L 257.4 -41.76 
L 259.090909 -41.76 
L 260.781818 -41.76 
L 262.472727 -41.76 
L 264.163636 -41.76 
L 265.854545 -41.76 
L 267.545455 -41.76 
L 269.236364 -41.76 
L 270.927273 -41.76 
L 272.618182 -41.76 
L 274.309091 -41.76 
L 276 -41.76 
L 277.690909 -41.76 
L 279.381818 -41.76 
L 281.072727 -41.76 
L 282.763636 -41.76 
L 284.454545 -41.76 
L 286.145455 -41.76 
L 287.836364 -41.76 
L 289.527273 -41.76 
L 291.218182 -41.76 
L 292.909091 -41.76 
L 294.6 -41.76 
L 296.290909 -41.76 
L 297.981818 -41.76 
L 299.672727 -41.76 
L 301.363636 -41.76 
L 303.054545 -41.76 
L 304.745455 -41.76 
L 306.436364 -41.76 
L 308.127273 -41.76 
L 309.818182 -41.76 
L 311.509091 -41.76 
L 313.2 -41.76 
L 314.890909 -41.76 
L 316.581818 -41.76 
L 318.272727 -41.76 
L 319.963636 -41.76 
L 321.654545 -41.76 
L 323.345455 -41.76 
L 325.036364 -41.76 
L 326.727273 -41.76 
L 328.418182 -41.76 
L 330.109091 -41.76 
L 331.8 -41.76 
L 333.490909 -41.76 
L 335.181818 -41.76 
L 336.872727 -41.76 
L 338.563636 -41.76 
L 340.254545 -41.76 
L 341.945455 -41.76 
L 343.636364 -41.76 
L 345.327273 -41.76 
L 347.018182 -41.76 
L 348.709091 -41.76 
L 350.4 -41.76 
L 352.090909 -41.76 
L 353.781818 -41.76 
L 355.472727 -41.76 
L 357.163636 -41.76 
L 358.854545 -41.76 
L 360.545455 -41.76 
L 362.236364 -41.76 
L 363.927273 -41.76 
L 365.618182 -41.76 
L 367.309091 -41.76 
L 369 -41.76 
L 370.690909 -41.76 
L 372.381818 -41.76 
L 374.072727 -41.76 
L 375.763636 -41.76 
L 377.454545 -41.76 
L 379.145455 -41.76 
L 380.836364 -41.76 
L 382.527273 -41.76 
L 384.218182 -41.76 
L 385.909091 -41.76 
L 387.6 -41.76 
L 389.290909 -41.76 
L 390.981818 -41.76 
L 392.672727 -41.76 
L 394.363636 -41.76 
L 396.054545 -41.76 
L 397.745455 -41.76 
L 399.436364 -41.76 
L 401.127273 -41.76 
L 402.818182 -41.76 
L 404.509091 -41.76 
L 406.2 -41.76 
L 407.890909 -41.76 
L 409.581818 -41.76 
L 411.272727 -41.76 
L 412.963636 -41.76 
L 414.654545 -41.76 
L 416.345455 -41.76 
L 418.036364 -41.76 
L 419.727273 -41.76 
L 421.418182 -41.76 
L 423.109091 -41.76 
L 424.8 -41.76 
L 426.490909 -41.76 
L 428.181818 -41.76 
L 429.872727 -41.76 
L 431.563636 -41.76 
L 433.254545 -41.76 
L 434.945455 -41.76 
L 436.636364 -41.76 
L 438.327273 -41.76 
L 440.018182 -41.76 
L 441.709091 -41.76 
L 443.4 -41.76 
L 445.090909 -41.76 
L 446.781818 -41.76 
L 448.472727 -41.76 
L 450.163636 -41.76 
L 451.854545 -41.76 
L 453.545455 -41.76 
L 455.236364 -41.76 
L 456.927273 -41.76 
L 458.618182 -41.76 
L 460.309091 -41.76 
L 462 -41.76 
L 463.690909 -41.76 
L 465.381818 -41.76 
L 467.072727 -41.76 
L 468.763636 -41.76 
L 470.454545 -41.76 
L 472.145455 -41.76 
L 473.836364 -41.76 
L 475.527273 -41.76 
L 477.218182 -41.76 
L 478.909091 -41.76 
L 480.6 -41.76 
L 482.290909 -41.76 
L 483.981818 -41.76 
L 485.672727 -41.76 
L 487.363636 -41.76 
L 489.054545 -41.76 
L 490.745455 -41.76 
L 492.436364 -41.76 
L 494.127273 -41.76 
L 495.818182 -41.76 
L 497.509091 -41.76 
L 499.2 -41.76 
L 500.890909 -41.76 
L 502.581818 -41.76 
L 504.272727 -41.76 
L 505.963636 -41.76 
L 507.654545 -41.76 
L 509.345455 -41.76 
L 511.036364 -41.76 
L 512.727273 -41.76 
L 514.418182 -41.76 
L 516.109091 -41.76 
L 517.8 -41.76 
L 519.490909 -41.76 
L 521.181818 -41.76 
L 522.872727 -41.76 
L 524.563636 -41.76 
L 526.254545 -41.76 
L 527.945455 -41.76 
L 529.636364 -41.76 
L 531.327273 -41.76 
L 533.018182 -41.76 
L 534.709091 -41.76 
L 536.4 -41.76 
L 538.090909 -41.76 
L 539.781818 -41.76 
L 541.472727 -41.76 
L 543.163636 -41.76 
L 544.854545 -41.76 
L 546.545455 -41.76 
L 548.236364 -41.76 
L 549.927273 -41.76 
L 551.618182 -41.76 
L 553.309091 -41.76 
L 555 -41.76 
L 556.690909 -41.76 
L 558.381818 -41.76 
L 560.072727 -41.76 
L 561.763636 -41.76 
L 563.454545 -41.76 
L 565.145455 -41.76 
L 566.836364 -41.76 
L 568.527273 -41.76 
L 570.218182 -41.76 
L 571.909091 -41.76 
L 573.6 -41.76 
L 575.290909 -41.76 
L 576.981818 -41.76 
L 578.672727 -41.76 
L 580.363636 -41.76 
L 582.054545 -41.76 
L 583.745455 -41.76 
L 585.436364 -41.76 
L 587.127273 -41.76 
L 588.818182 -41.76 
L 590.509091 -41.76 
L 592.2 -41.76 
L 593.890909 -41.76 
L 595.581818 -41.76 
L 597.272727 -41.76 
L 598.963636 -41.76 
L 600.654545 -41.76 
L 602.345455 -41.76 
L 604.036364 -41.76 
L 605.727273 -41.76 
L 607.418182 -41.76 
L 609.109091 -41.76 
L 610.8 -41.76 
L 612.490909 -41.76 
L 614.181818 -41.76 
L 615.872727 -41.76 
L 617.563636 -41.76 
L 619.254545 -41.76 
L 620.945455 -41.76 
L 622.636364 -41.76 
L 622.636364 -41.76 
L 622.636364 -41.76 
L 620.945455 -41.76 
L 619.254545 -52.395807 
L 617.563636 -41.76 
L 615.872727 -41.76 
L 614.181818 -41.76 
L 612.490909 -90.204384 
L 610.8 -41.76 
L 609.109091 -41.76 
L 607.418182 -41.76 
L 605.727273 -69.962042 
L 604.036364 -41.76 
L 602.345455 -41.76 
L 600.654545 -41.76 
L 598.963636 -41.76 
L 597.272727 -47.93563 
L 595.581818 -41.76 
L 593.890909 -41.76 
L 592.2 -41.76 
L 590.509091 -50.748972 
L 588.818182 -41.76 
L 587.127273 -41.76 
L 585.436364 -41.76 
L 583.745455 -61.110306 
L 582.054545 -41.76 
L 580.363636 -41.76 
L 578.672727 -41.76 
L 576.981818 -66.05081 
L 575.290909 -41.76 
L 573.6 -41.76 
L 571.909091 -41.76 
L 570.218182 -41.76 
L 568.527273 -67.766263 
L 566.836364 -41.76 
L 565.145455 -41.76 
L 563.454545 -41.76 
L 561.763636 -67.423172 
L 560.072727 -41.76 
L 558.381818 -41.76 
L 556.690909 -41.76 
L 555 -55.620858 
L 553.309091 -41.76 
L 551.618182 -41.76 
L 549.927273 -41.76 
L 548.236364 -52.601661 
L 546.545455 -41.76 
L 544.854545 -41.76 
L 543.163636 -41.76 
L 541.472727 -41.76 
L 539.781818 -60.286889 
L 538.090909 -41.76 
L 536.4 -41.76 
L 534.709091 -41.76 
L 533.018182 -79.019632 
L 531.327273 -41.76 
L 529.636364 -41.76 
L 527.945455 -41.76 
L 526.254545 -64.335357 
L 524.563636 -41.76 
L 522.872727 -41.76 
L 521.181818 -41.76 
L 519.490909 -41.76 
L 517.8 -60.218271 
L 516.109091 -41.76 
L 514.418182 -41.76 
L 512.727273 -41.76 
L 511.036364 -97.340667 
L 509.345455 -41.76 
L 507.654545 -41.76 
L 505.963636 -41.76 
L 504.272727 -76.755235 
L 502.581818 -41.76 
L 500.890909 -41.76 
L 499.2 -41.76 
L 497.509091 -69.962042 
L 495.818182 -41.76 
L 494.127273 -41.76 
L 492.436364 -41.76 
L 490.745455 -41.76 
L 489.054545 -61.247543 
L 487.363636 -41.76 
L 485.672727 -41.76 
L 483.981818 -41.76 
L 482.290909 -50.543118 
L 480.6 -41.76 
L 478.909091 -41.76 
L 477.218182 -41.76 
L 475.527273 -54.728822 
L 473.836364 -41.76 
L 472.145455 -41.76 
L 470.454545 -41.76 
L 468.763636 -63.992267 
L 467.072727 -41.76 
L 465.381818 -41.76 
L 463.690909 -41.76 
L 462 -41.76 
L 460.309091 -67.080082 
L 458.618182 -41.76 
L 456.927273 -41.76 
L 455.236364 -41.76 
L 453.545455 -46.426031 
L 451.854545 -41.76 
L 450.163636 -41.76 
L 448.472727 -41.76 
L 446.781818 -77.510034 
L 445.090909 -41.76 
L 443.4 -41.76 
L 441.709091 -41.76 
L 440.018182 -51.503771 
L 438.327273 -41.76 
L 436.636364 -41.76 
L 434.945455 -41.76 
L 433.254545 -41.76 
L 431.563636 -55.689476 
L 429.872727 -41.76 
L 428.181818 -41.76 
L 426.490909 -41.76 
L 424.8 -60.767216 
L 423.109091 -41.76 
L 421.418182 -41.76 
L 419.727273 -41.76 
L 418.036364 -53.287842 
L 416.345455 -41.76 
L 414.654545 -41.76 
L 412.963636 -41.76 
L 411.272727 -41.76 
L 409.581818 -58.4342 
L 407.890909 -41.76 
L 406.2 -41.76 
L 404.509091 -41.76 
L 402.818182 -52.121334 
L 401.127273 -41.76 
L 399.436364 -41.76 
L 397.745455 -41.76 
L 396.054545 -69.550334 
L 394.363636 -41.76 
L 392.672727 -41.76 
L 390.981818 -41.76 
L 389.290909 -89.518203 
L 387.6 -41.76 
L 385.909091 -41.76 
L 384.218182 -41.76 
L 382.527273 -41.76 
L 380.836364 -59.669326 
L 379.145455 -41.76 
L 377.454545 -41.76 
L 375.763636 -41.76 
L 374.072727 -67.834881 
L 372.381818 -41.76 
L 370.690909 -41.76 
L 369 -41.76 
L 367.309091 -66.256664 
L 365.618182 -41.76 
L 363.927273 -41.76 
L 362.236364 -41.76 
L 360.545455 -62.139578 
L 358.854545 -41.76 
L 357.163636 -41.76 
L 355.472727 -41.76 
L 353.781818 -41.76 
L 352.090909 -70.648223 
L 350.4 -41.76 
L 348.709091 -41.76 
L 347.018182 -41.76 
L 345.327273 -66.462519 
L 343.636364 -41.76 
L 341.945455 -41.76 
L 340.254545 -41.76 
L 338.563636 -59.806562 
L 336.872727 -41.76 
L 335.181818 -41.76 
L 333.490909 -41.76 
L 331.8 -53.493696 
L 330.109091 -41.76 
L 328.418182 -41.76 
L 326.727273 -41.76 
L 325.036364 -41.76 
L 323.345455 -56.718747 
L 321.654545 -41.76 
L 319.963636 -41.76 
L 318.272727 -41.76 
L 316.581818 -81.901593 
L 314.890909 -41.76 
L 313.2 -41.76 
L 311.509091 -41.76 
L 309.818182 -53.768169 
L 308.127273 -41.76 
L 306.436364 -41.76 
L 304.745455 -41.76 
L 303.054545 -41.76 
L 301.363636 -52.601661 
L 299.672727 -41.76 
L 297.981818 -41.76 
L 296.290909 -41.76 
L 294.6 -115.112757 
L 292.909091 -41.76 
L 291.218182 -41.76 
L 289.527273 -41.76 
L 287.836364 -72.844003 
L 286.145455 -41.76 
L 284.454545 -41.76 
L 282.763636 -41.76 
L 281.072727 -71.265786 
L 279.381818 -41.76 
L 277.690909 -41.76 
L 276 -41.76 
L 274.309091 -41.76 
L 272.618182 -84.783553 
L 270.927273 -41.76 
L 269.236364 -41.76 
L 267.545455 -41.76 
L 265.854545 -72.56953 
L 264.163636 -41.76 
L 262.472727 -41.76 
L 260.781818 -41.76 
L 259.090909 -52.121334 
L 257.4 -41.76 
L 255.709091 -41.76 
L 254.018182 -41.76 
L 252.327273 -55.963948 
L 250.636364 -41.76 
L 248.945455 -41.76 
L 247.254545 -41.76 
L 245.563636 -41.76 
L 243.872727 -98.369939 
L 242.181818 -41.76 
L 240.490909 -41.76 
L 238.8 -41.76 
L 237.109091 -52.395807 
L 235.418182 -41.76 
L 233.727273 -41.76 
L 232.036364 -41.76 
L 230.345455 -75.451491 
L 228.654545 -41.76 
L 226.963636 -41.76 
L 225.272727 -41.76 
L 223.581818 -61.384779 
L 221.890909 -41.76 
L 220.2 -41.76 
L 218.509091 -41.76 
L 216.818182 -41.76 
L 215.127273 -60.97307 
L 213.436364 -41.76 
L 211.745455 -41.76 
L 210.054545 -41.76 
L 208.363636 -62.757141 
L 206.672727 -41.76 
L 204.981818 -41.76 
L 203.290909 -41.76 
L 201.6 -60.835834 
L 199.909091 -41.76 
L 198.218182 -41.76 
L 196.527273 -41.76 
L 194.836364 -41.76 
L 193.145455 -68.726916 
L 191.454545 -41.76 
L 189.763636 -41.76 
L 188.072727 -41.76 
L 186.381818 -62.276814 
L 184.690909 -41.76 
L 183 -41.76 
L 181.309091 -41.76 
L 179.618182 -67.1487 
L 177.927273 -41.76 
L 176.236364 -41.76 
L 174.545455 -41.76 
L 172.854545 -66.188046 
L 171.163636 -41.76 
L 169.472727 -41.76 
L 167.781818 -41.76 
L 166.090909 -41.76 
L 164.4 -81.832975 
L 162.709091 -41.76 
L 161.018182 -41.76 
L 159.327273 -41.76 
L 157.636364 -53.150606 
L 155.945455 -41.76 
L 154.254545 -41.76 
L 152.563636 -41.76 
L 150.872727 -51.778244 
L 149.181818 -41.76 
L 147.490909 -41.76 
L 145.8 -41.76 
L 144.109091 -68.315208 
L 142.418182 -41.76 
L 140.727273 -41.76 
L 139.036364 -41.76 
L 137.345455 -41.76 
L 135.654545 -64.129503 
L 133.963636 -41.76 
L 132.272727 -41.76 
L 130.581818 -41.76 
L 128.890909 -56.512893 
L 127.2 -41.76 
L 125.509091 -41.76 
L 123.818182 -41.76 
L 122.127273 -41.965854 
L 120.436364 -41.76 
L 118.745455 -41.76 
L 117.054545 -41.76 
L 115.363636 -41.965854 
z
" style="stroke: #ff0000; stroke-width: 0.5"/>
    </defs>
    <g clip-path="url(#p7b7f299ea2)">
     <use xlink:href="#m38148156b1" x="0" y="288" style="fill: #ff0000; stroke: #ff0000; stroke-width: 0.5"/>
    </g>
   </g>
   <g id="PolyCollection_2">
    <defs>
     <path id="mb7f17340cc" d="M 115.363636 -45.259523 
L 115.363636 -41.965854 
L 117.054545 -41.76 
L 118.745455 -41.76 
L 120.436364 -41.76 
L 122.127273 -41.965854 
L 123.818182 -41.76 
L 125.509091 -41.76 
L 127.2 -41.76 
L 128.890909 -56.512893 
L 130.581818 -41.76 
L 132.272727 -41.76 
L 133.963636 -41.76 
L 135.654545 -64.129503 
L 137.345455 -41.76 
L 139.036364 -41.76 
L 140.727273 -41.76 
L 142.418182 -41.76 
L 144.109091 -68.315208 
L 145.8 -41.76 
L 147.490909 -41.76 
L 149.181818 -41.76 
L 150.872727 -51.778244 
L 152.563636 -41.76 
L 154.254545 -41.76 
L 155.945455 -41.76 
L 157.636364 -53.150606 
L 159.327273 -41.76 
L 161.018182 -41.76 
L 162.709091 -41.76 
L 164.4 -81.832975 
L 166.090909 -41.76 
L 167.781818 -41.76 
L 169.472727 -41.76 
L 171.163636 -41.76 
L 172.854545 -66.188046 
L 174.545455 -41.76 
L 176.236364 -41.76 
L 177.927273 -41.76 
L 179.618182 -67.1487 
L 181.309091 -41.76 
L 183 -41.76 
L 184.690909 -41.76 
L 186.381818 -62.276814 
L 188.072727 -41.76 
L 189.763636 -41.76 
L 191.454545 -41.76 
L 193.145455 -68.726916 
L 194.836364 -41.76 
L 196.527273 -41.76 
L 198.218182 -41.76 
L 199.909091 -41.76 
L 201.6 -60.835834 
L 203.290909 -41.76 
L 204.981818 -41.76 
L 206.672727 -41.76 
L 208.363636 -62.757141 
L 210.054545 -41.76 
L 211.745455 -41.76 
L 213.436364 -41.76 
L 215.127273 -60.97307 
L 216.818182 -41.76 
L 218.509091 -41.76 
L 220.2 -41.76 
L 221.890909 -41.76 
L 223.581818 -61.384779 
L 225.272727 -41.76 
L 226.963636 -41.76 
L 228.654545 -41.76 
L 230.345455 -75.451491 
L 232.036364 -41.76 
L 233.727273 -41.76 
L 235.418182 -41.76 
L 237.109091 -52.395807 
L 238.8 -41.76 
L 240.490909 -41.76 
L 242.181818 -41.76 
L 243.872727 -98.369939 
L 245.563636 -41.76 
L 247.254545 -41.76 
L 248.945455 -41.76 
L 250.636364 -41.76 
L 252.327273 -55.963948 
L 254.018182 -41.76 
L 255.709091 -41.76 
L 257.4 -41.76 
L 259.090909 -52.121334 
L 260.781818 -41.76 
L 262.472727 -41.76 
L 264.163636 -41.76 
L 265.854545 -72.56953 
L 267.545455 -41.76 
L 269.236364 -41.76 
L 270.927273 -41.76 
L 272.618182 -84.783553 
L 274.309091 -41.76 
L 276 -41.76 
L 277.690909 -41.76 
L 279.381818 -41.76 
L 281.072727 -71.265786 
L 282.763636 -41.76 
L 284.454545 -41.76 
L 286.145455 -41.76 
L 287.836364 -72.844003 
L 289.527273 -41.76 
L 291.218182 -41.76 
L 292.909091 -41.76 
L 294.6 -115.112757 
L 296.290909 -41.76 
L 297.981818 -41.76 
L 299.672727 -41.76 
L 301.363636 -52.601661 
L 303.054545 -41.76 
L 304.745455 -41.76 
L 306.436364 -41.76 
L 308.127273 -41.76 
L 309.818182 -53.768169 
L 311.509091 -41.76 
L 313.2 -41.76 
L 314.890909 -41.76 
L 316.581818 -81.901593 
L 318.272727 -41.76 
L 319.963636 -41.76 
L 321.654545 -41.76 
L 323.345455 -56.718747 
L 325.036364 -41.76 
L 326.727273 -41.76 
L 328.418182 -41.76 
L 330.109091 -41.76 
L 331.8 -53.493696 
L 333.490909 -41.76 
L 335.181818 -41.76 
L 336.872727 -41.76 
L 338.563636 -59.806562 
L 340.254545 -41.76 
L 341.945455 -41.76 
L 343.636364 -41.76 
L 345.327273 -66.462519 
L 347.018182 -41.76 
L 348.709091 -41.76 
L 350.4 -41.76 
L 352.090909 -70.648223 
L 353.781818 -41.76 
L 355.472727 -41.76 
L 357.163636 -41.76 
L 358.854545 -41.76 
L 360.545455 -62.139578 
L 362.236364 -41.76 
L 363.927273 -41.76 
L 365.618182 -41.76 
L 367.309091 -66.256664 
L 369 -41.76 
L 370.690909 -41.76 
L 372.381818 -41.76 
L 374.072727 -67.834881 
L 375.763636 -41.76 
L 377.454545 -41.76 
L 379.145455 -41.76 
L 380.836364 -59.669326 
L 382.527273 -41.76 
L 384.218182 -41.76 
L 385.909091 -41.76 
L 387.6 -41.76 
L 389.290909 -89.518203 
L 390.981818 -41.76 
L 392.672727 -41.76 
L 394.363636 -41.76 
L 396.054545 -69.550334 
L 397.745455 -41.76 
L 399.436364 -41.76 
L 401.127273 -41.76 
L 402.818182 -52.121334 
L 404.509091 -41.76 
L 406.2 -41.76 
L 407.890909 -41.76 
L 409.581818 -58.4342 
L 411.272727 -41.76 
L 412.963636 -41.76 
L 414.654545 -41.76 
L 416.345455 -41.76 
L 418.036364 -53.287842 
L 419.727273 -41.76 
L 421.418182 -41.76 
L 423.109091 -41.76 
L 424.8 -60.767216 
L 426.490909 -41.76 
L 428.181818 -41.76 
L 429.872727 -41.76 
L 431.563636 -55.689476 
L 433.254545 -41.76 
L 434.945455 -41.76 
L 436.636364 -41.76 
L 438.327273 -41.76 
L 440.018182 -51.503771 
L 441.709091 -41.76 
L 443.4 -41.76 
L 445.090909 -41.76 
L 446.781818 -77.510034 
L 448.472727 -41.76 
L 450.163636 -41.76 
L 451.854545 -41.76 
L 453.545455 -46.426031 
L 455.236364 -41.76 
L 456.927273 -41.76 
L 458.618182 -41.76 
L 460.309091 -67.080082 
L 462 -41.76 
L 463.690909 -41.76 
L 465.381818 -41.76 
L 467.072727 -41.76 
L 468.763636 -63.992267 
L 470.454545 -41.76 
L 472.145455 -41.76 
L 473.836364 -41.76 
L 475.527273 -54.728822 
L 477.218182 -41.76 
L 478.909091 -41.76 
L 480.6 -41.76 
L 482.290909 -50.543118 
L 483.981818 -41.76 
L 485.672727 -41.76 
L 487.363636 -41.76 
L 489.054545 -61.247543 
L 490.745455 -41.76 
L 492.436364 -41.76 
L 494.127273 -41.76 
L 495.818182 -41.76 
L 497.509091 -69.962042 
L 499.2 -41.76 
L 500.890909 -41.76 
L 502.581818 -41.76 
L 504.272727 -76.755235 
L 505.963636 -41.76 
L 507.654545 -41.76 
L 509.345455 -41.76 
L 511.036364 -97.340667 
L 512.727273 -41.76 
L 514.418182 -41.76 
L 516.109091 -41.76 
L 517.8 -60.218271 
L 519.490909 -41.76 
L 521.181818 -41.76 
L 522.872727 -41.76 
L 524.563636 -41.76 
L 526.254545 -64.335357 
L 527.945455 -41.76 
L 529.636364 -41.76 
L 531.327273 -41.76 
L 533.018182 -79.019632 
L 534.709091 -41.76 
L 536.4 -41.76 
L 538.090909 -41.76 
L 539.781818 -60.286889 
L 541.472727 -41.76 
L 543.163636 -41.76 
L 544.854545 -41.76 
L 546.545455 -41.76 
L 548.236364 -52.601661 
L 549.927273 -41.76 
L 551.618182 -41.76 
L 553.309091 -41.76 
L 555 -55.620858 
L 556.690909 -41.76 
L 558.381818 -41.76 
L 560.072727 -41.76 
L 561.763636 -67.423172 
L 563.454545 -41.76 
L 565.145455 -41.76 
L 566.836364 -41.76 
L 568.527273 -67.766263 
L 570.218182 -41.76 
L 571.909091 -41.76 
L 573.6 -41.76 
L 575.290909 -41.76 
L 576.981818 -66.05081 
L 578.672727 -41.76 
L 580.363636 -41.76 
L 582.054545 -41.76 
L 583.745455 -61.110306 
L 585.436364 -41.76 
L 587.127273 -41.76 
L 588.818182 -41.76 
L 590.509091 -50.748972 
L 592.2 -41.76 
L 593.890909 -41.76 
L 595.581818 -41.76 
L 597.272727 -47.93563 
L 598.963636 -41.76 
L 600.654545 -41.76 
L 602.345455 -41.76 
L 604.036364 -41.76 
L 605.727273 -69.962042 
L 607.418182 -41.76 
L 609.109091 -41.76 
L 610.8 -41.76 
L 612.490909 -90.204384 
L 614.181818 -41.76 
L 615.872727 -41.76 
L 617.563636 -41.76 
L 619.254545 -52.395807 
L 620.945455 -41.76 
L 622.636364 -41.76 
L 622.636364 -41.76 
L 622.636364 -41.76 
L 620.945455 -75.657345 
L 619.254545 -85.606971 
L 617.563636 -67.1487 
L 615.872727 -48.759047 
L 614.181818 -46.220177 
L 612.490909 -96.174159 
L 610.8 -49.307992 
L 609.109091 -54.385732 
L 607.418182 -45.945705 
L 605.727273 -72.157822 
L 604.036364 -45.39676 
L 602.345455 -56.307039 
L 600.654545 -51.435153 
L 598.963636 -54.179877 
L 597.272727 -64.198121 
L 595.581818 -71.403022 
L 593.890909 -58.640054 
L 592.2 -57.953873 
L 590.509091 -69.070007 
L 588.818182 -56.99322 
L 587.127273 -51.984098 
L 585.436364 -50.954826 
L 583.745455 -95.831069 
L 582.054545 -78.196215 
L 580.363636 -76.892471 
L 578.672727 -56.99322 
L 576.981818 -71.12855 
L 575.290909 -44.29887 
L 573.6 -57.953873 
L 571.909091 -47.523921 
L 570.218182 -56.650129 
L 568.527273 -73.66742 
L 566.836364 -61.041688 
L 565.145455 -49.925555 
L 563.454545 -53.081988 
L 561.763636 -72.089204 
L 560.072727 -59.87518 
L 558.381818 -57.061838 
L 556.690909 -55.071913 
L 555 -66.256664 
L 553.309091 -50.611736 
L 551.618182 -57.061838 
L 549.927273 -72.638148 
L 548.236364 -76.823853 
L 546.545455 -55.209149 
L 544.854545 -45.808468 
L 543.163636 -54.385732 
L 541.472727 -79.088251 
L 539.781818 -71.677495 
L 538.090909 -55.620858 
L 536.4 -54.79744 
L 534.709091 -76.755235 
L 533.018182 -90.273002 
L 531.327273 -50.543118 
L 529.636364 -69.893424 
L 527.945455 -45.122287 
L 526.254545 -68.383826 
L 524.563636 -43.544071 
L 522.872727 -47.112212 
L 521.181818 -44.230252 
L 519.490909 -48.415956 
L 517.8 -68.864152 
L 516.109091 -63.786413 
L 514.418182 -54.866059 
L 512.727273 -44.916433 
L 511.036364 -103.104588 
L 509.345455 -60.286889 
L 507.654545 -50.81759 
L 505.963636 -67.354554 
L 504.272727 -106.329639 
L 502.581818 -49.102138 
L 500.890909 -43.681307 
L 499.2 -43.818543 
L 497.509091 -72.157822 
L 495.818182 -47.867012 
L 494.127273 -47.729775 
L 492.436364 -56.512893 
L 490.745455 -69.756188 
L 489.054545 -72.775385 
L 487.363636 -54.660204 
L 485.672727 -51.984098 
L 483.981818 -58.296964 
L 482.290909 -97.203431 
L 480.6 -86.018679 
L 478.909091 -100.840191 
L 477.218182 -97.409285 
L 475.527273 -96.997577 
L 473.836364 -64.472594 
L 472.145455 -61.590633 
L 470.454545 -63.16885 
L 468.763636 -72.844003 
L 467.072727 -46.563268 
L 465.381818 -50.405882 
L 463.690909 -46.83774 
L 462 -70.579605 
L 460.309091 -81.421266 
L 458.618182 -52.601661 
L 456.927273 -49.994173 
L 455.236364 -45.671232 
L 453.545455 -100.840191 
L 451.854545 -65.776338 
L 450.163636 -56.101184 
L 448.472727 -70.305133 
L 446.781818 -101.389135 
L 445.090909 -44.024398 
L 443.4 -43.681307 
L 441.709091 -46.151559 
L 440.018182 -86.430388 
L 438.327273 -75.725963 
L 436.636364 -92.331545 
L 434.945455 -66.393901 
L 433.254545 -80.666467 
L 431.563636 -86.36177 
L 429.872727 -78.74516 
L 428.181818 -75.520109 
L 426.490909 -70.167897 
L 424.8 -78.196215 
L 423.109091 -56.032566 
L 421.418182 -81.764357 
L 419.727273 -83.617046 
L 418.036364 -81.558502 
L 416.345455 -57.061838 
L 414.654545 -63.443322 
L 412.963636 -52.464425 
L 411.272727 -58.777291 
L 409.581818 -80.391995 
L 407.890909 -63.374704 
L 406.2 -50.131409 
L 404.509091 -54.042641 
L 402.818182 -63.031613 
L 401.127273 -53.493696 
L 399.436364 -59.463472 
L 397.745455 -57.610783 
L 396.054545 -82.107447 
L 394.363636 -53.287842 
L 392.672727 -53.287842 
L 390.981818 -53.836787 
L 389.290909 -96.51725 
L 387.6 -46.83774 
L 385.909091 -44.230252 
L 384.218182 -53.768169 
L 382.527273 -52.944752 
L 380.836364 -79.637195 
L 379.145455 -65.090157 
L 377.454545 -61.933724 
L 375.763636 -56.718747 
L 374.072727 -74.490837 
L 372.381818 -45.39676 
L 370.690909 -47.249449 
L 369 -44.641961 
L 367.309091 -73.392948 
L 365.618182 -51.503771 
L 363.927273 -72.775385 
L 362.236364 -58.708673 
L 360.545455 -68.452444 
L 358.854545 -64.747066 
L 357.163636 -63.51194 
L 355.472727 -65.639101 
L 353.781818 -45.671232 
L 352.090909 -81.764357 
L 350.4 -60.767216 
L 348.709091 -51.229299 
L 347.018182 -49.170756 
L 345.327273 -72.775385 
L 343.636364 -53.01337 
L 341.945455 -47.661157 
L 340.254545 -49.102138 
L 338.563636 -81.009558 
L 336.872727 -60.286889 
L 335.181818 -51.229299 
L 333.490909 -50.405882 
L 331.8 -59.051763 
L 330.109091 -62.276814 
L 328.418182 -61.522015 
L 326.727273 -58.708673 
L 325.036364 -51.503771 
L 323.345455 -84.16599 
L 321.654545 -53.150606 
L 319.963636 -58.022491 
L 318.272727 -64.60983 
L 316.581818 -96.174159 
L 314.890909 -54.317114 
L 313.2 -60.218271 
L 311.509091 -73.324329 
L 309.818182 -87.253805 
L 308.127273 -69.893424 
L 306.436364 -68.383826 
L 304.745455 -77.853125 
L 303.054545 -74.353601 
L 301.363636 -86.224534 
L 299.672727 -72.020585 
L 297.981818 -58.09111 
L 296.290909 -46.220177 
L 294.6 -126.22889 
L 292.909091 -48.415956 
L 291.218182 -47.249449 
L 289.527273 -57.748019 
L 287.836364 -88.351695 
L 286.145455 -54.79744 
L 284.454545 -59.806562 
L 282.763636 -52.395807 
L 281.072727 -78.127597 
L 279.381818 -46.220177 
L 277.690909 -45.808468 
L 276 -44.847815 
L 274.309091 -44.916433 
L 272.618182 -91.096419 
L 270.927273 -47.798393 
L 269.236364 -58.640054 
L 267.545455 -55.346385 
L 265.854545 -74.696692 
L 264.163636 -49.307992 
L 262.472727 -48.964901 
L 260.781818 -56.101184 
L 259.090909 -72.295058 
L 257.4 -60.904452 
L 255.709091 -69.070007 
L 254.018182 -70.373751 
L 252.327273 -87.253805 
L 250.636364 -65.70772 
L 248.945455 -64.60983 
L 247.254545 -63.786413 
L 245.563636 -45.671232 
L 243.872727 -100.771572 
L 242.181818 -44.29887 
L 240.490909 -43.955779 
L 238.8 -66.668373 
L 237.109091 -66.119428 
L 235.418182 -60.835834 
L 233.727273 -65.227393 
L 232.036364 -57.679401 
L 230.345455 -80.872321 
L 228.654545 -55.689476 
L 226.963636 -51.297917 
L 225.272727 -52.327189 
L 223.581818 -64.335357 
L 221.890909 -46.288795 
L 220.2 -52.052716 
L 218.509091 -46.769122 
L 216.818182 -51.778244 
L 215.127273 -77.441416 
L 213.436364 -51.709626 
L 211.745455 -49.445228 
L 210.054545 -48.964901 
L 208.363636 -65.913574 
L 206.672727 -49.582464 
L 204.981818 -59.87518 
L 203.290909 -49.307992 
L 201.6 -66.256664 
L 199.909091 -47.386685 
L 198.218182 -49.513846 
L 196.527273 -46.906358 
L 194.836364 -44.024398 
L 193.145455 -71.677495 
L 191.454545 -45.259523 
L 189.763636 -47.455303 
L 188.072727 -47.386685 
L 186.381818 -67.766263 
L 184.690909 -47.043594 
L 183 -45.877086 
L 181.309091 -48.415956 
L 179.618182 -74.422219 
L 177.927273 -48.415956 
L 176.236364 -46.494649 
L 174.545455 -46.082941 
L 172.854545 -71.334404 
L 171.163636 -46.631886 
L 169.472727 -46.700504 
L 167.781818 -47.18083 
L 166.090909 -47.661157 
L 164.4 -87.871368 
L 162.709091 -48.072866 
L 161.018182 -47.523921 
L 159.327273 -45.465378 
L 157.636364 -66.393901 
L 155.945455 -69.138625 
L 154.254545 -49.033519 
L 152.563636 -56.238421 
L 150.872727 -60.218271 
L 149.181818 -49.033519 
L 147.490909 -48.759047 
L 145.8 -48.004248 
L 144.109091 -73.736038 
L 142.418182 -46.563268 
L 140.727273 -46.288795 
L 139.036364 -50.748972 
L 137.345455 -54.179877 
L 135.654545 -74.284983 
L 133.963636 -51.503771 
L 132.272727 -52.327189 
L 130.581818 -53.630933 
L 128.890909 -67.972117 
L 127.2 -50.200027 
L 125.509091 -48.347338 
L 123.818182 -45.39676 
L 122.127273 -43.749925 
L 120.436364 -43.681307 
L 118.745455 -43.887161 
L 117.054545 -44.779197 
L 115.363636 -45.259523 
z
" style="stroke: #0000ff; stroke-width: 0.5"/>
    </defs>
    <g clip-path="url(#p7b7f299ea2)">
     <use xlink:href="#mb7f17340cc" x="0" y="288" style="fill: #0000ff; stroke: #0000ff; stroke-width: 0.5"/>
    </g>
   </g>
   <g id="PolyCollection_3">
    <defs>
     <path id="m6a3e32bc3b" d="M 115.363636 -58.571436 
L 115.363636 -45.259523 
L 117.054545 -44.779197 
L 118.745455 -43.887161 
L 120.436364 -43.681307 
L 122.127273 -43.749925 
L 123.818182 -45.39676 
L 125.509091 -48.347338 
L 127.2 -50.200027 
L 128.890909 -67.972117 
L 130.581818 -53.630933 
L 132.272727 -52.327189 
L 133.963636 -51.503771 
L 135.654545 -74.284983 
L 137.345455 -54.179877 
L 139.036364 -50.748972 
L 140.727273 -46.288795 
L 142.418182 -46.563268 
L 144.109091 -73.736038 
L 145.8 -48.004248 
L 147.490909 -48.759047 
L 149.181818 -49.033519 
L 150.872727 -60.218271 
L 152.563636 -56.238421 
L 154.254545 -49.033519 
L 155.945455 -69.138625 
L 157.636364 -66.393901 
L 159.327273 -45.465378 
L 161.018182 -47.523921 
L 162.709091 -48.072866 
L 164.4 -87.871368 
L 166.090909 -47.661157 
L 167.781818 -47.18083 
L 169.472727 -46.700504 
L 171.163636 -46.631886 
L 172.854545 -71.334404 
L 174.545455 -46.082941 
L 176.236364 -46.494649 
L 177.927273 -48.415956 
L 179.618182 -74.422219 
L 181.309091 -48.415956 
L 183 -45.877086 
L 184.690909 -47.043594 
L 186.381818 -67.766263 
L 188.072727 -47.386685 
L 189.763636 -47.455303 
L 191.454545 -45.259523 
L 193.145455 -71.677495 
L 194.836364 -44.024398 
L 196.527273 -46.906358 
L 198.218182 -49.513846 
L 199.909091 -47.386685 
L 201.6 -66.256664 
L 203.290909 -49.307992 
L 204.981818 -59.87518 
L 206.672727 -49.582464 
L 208.363636 -65.913574 
L 210.054545 -48.964901 
L 211.745455 -49.445228 
L 213.436364 -51.709626 
L 215.127273 -77.441416 
L 216.818182 -51.778244 
L 218.509091 -46.769122 
L 220.2 -52.052716 
L 221.890909 -46.288795 
L 223.581818 -64.335357 
L 225.272727 -52.327189 
L 226.963636 -51.297917 
L 228.654545 -55.689476 
L 230.345455 -80.872321 
L 232.036364 -57.679401 
L 233.727273 -65.227393 
L 235.418182 -60.835834 
L 237.109091 -66.119428 
L 238.8 -66.668373 
L 240.490909 -43.955779 
L 242.181818 -44.29887 
L 243.872727 -100.771572 
L 245.563636 -45.671232 
L 247.254545 -63.786413 
L 248.945455 -64.60983 
L 250.636364 -65.70772 
L 252.327273 -87.253805 
L 254.018182 -70.373751 
L 255.709091 -69.070007 
L 257.4 -60.904452 
L 259.090909 -72.295058 
L 260.781818 -56.101184 
L 262.472727 -48.964901 
L 264.163636 -49.307992 
L 265.854545 -74.696692 
L 267.545455 -55.346385 
L 269.236364 -58.640054 
L 270.927273 -47.798393 
L 272.618182 -91.096419 
L 274.309091 -44.916433 
L 276 -44.847815 
L 277.690909 -45.808468 
L 279.381818 -46.220177 
L 281.072727 -78.127597 
L 282.763636 -52.395807 
L 284.454545 -59.806562 
L 286.145455 -54.79744 
L 287.836364 -88.351695 
L 289.527273 -57.748019 
L 291.218182 -47.249449 
L 292.909091 -48.415956 
L 294.6 -126.22889 
L 296.290909 -46.220177 
L 297.981818 -58.09111 
L 299.672727 -72.020585 
L 301.363636 -86.224534 
L 303.054545 -74.353601 
L 304.745455 -77.853125 
L 306.436364 -68.383826 
L 308.127273 -69.893424 
L 309.818182 -87.253805 
L 311.509091 -73.324329 
L 313.2 -60.218271 
L 314.890909 -54.317114 
L 316.581818 -96.174159 
L 318.272727 -64.60983 
L 319.963636 -58.022491 
L 321.654545 -53.150606 
L 323.345455 -84.16599 
L 325.036364 -51.503771 
L 326.727273 -58.708673 
L 328.418182 -61.522015 
L 330.109091 -62.276814 
L 331.8 -59.051763 
L 333.490909 -50.405882 
L 335.181818 -51.229299 
L 336.872727 -60.286889 
L 338.563636 -81.009558 
L 340.254545 -49.102138 
L 341.945455 -47.661157 
L 343.636364 -53.01337 
L 345.327273 -72.775385 
L 347.018182 -49.170756 
L 348.709091 -51.229299 
L 350.4 -60.767216 
L 352.090909 -81.764357 
L 353.781818 -45.671232 
L 355.472727 -65.639101 
L 357.163636 -63.51194 
L 358.854545 -64.747066 
L 360.545455 -68.452444 
L 362.236364 -58.708673 
L 363.927273 -72.775385 
L 365.618182 -51.503771 
L 367.309091 -73.392948 
L 369 -44.641961 
L 370.690909 -47.249449 
L 372.381818 -45.39676 
L 374.072727 -74.490837 
L 375.763636 -56.718747 
L 377.454545 -61.933724 
L 379.145455 -65.090157 
L 380.836364 -79.637195 
L 382.527273 -52.944752 
L 384.218182 -53.768169 
L 385.909091 -44.230252 
L 387.6 -46.83774 
L 389.290909 -96.51725 
L 390.981818 -53.836787 
L 392.672727 -53.287842 
L 394.363636 -53.287842 
L 396.054545 -82.107447 
L 397.745455 -57.610783 
L 399.436364 -59.463472 
L 401.127273 -53.493696 
L 402.818182 -63.031613 
L 404.509091 -54.042641 
L 406.2 -50.131409 
L 407.890909 -63.374704 
L 409.581818 -80.391995 
L 411.272727 -58.777291 
L 412.963636 -52.464425 
L 414.654545 -63.443322 
L 416.345455 -57.061838 
L 418.036364 -81.558502 
L 419.727273 -83.617046 
L 421.418182 -81.764357 
L 423.109091 -56.032566 
L 424.8 -78.196215 
L 426.490909 -70.167897 
L 428.181818 -75.520109 
L 429.872727 -78.74516 
L 431.563636 -86.36177 
L 433.254545 -80.666467 
L 434.945455 -66.393901 
L 436.636364 -92.331545 
L 438.327273 -75.725963 
L 440.018182 -86.430388 
L 441.709091 -46.151559 
L 443.4 -43.681307 
L 445.090909 -44.024398 
L 446.781818 -101.389135 
L 448.472727 -70.305133 
L 450.163636 -56.101184 
L 451.854545 -65.776338 
L 453.545455 -100.840191 
L 455.236364 -45.671232 
L 456.927273 -49.994173 
L 458.618182 -52.601661 
L 460.309091 -81.421266 
L 462 -70.579605 
L 463.690909 -46.83774 
L 465.381818 -50.405882 
L 467.072727 -46.563268 
L 468.763636 -72.844003 
L 470.454545 -63.16885 
L 472.145455 -61.590633 
L 473.836364 -64.472594 
L 475.527273 -96.997577 
L 477.218182 -97.409285 
L 478.909091 -100.840191 
L 480.6 -86.018679 
L 482.290909 -97.203431 
L 483.981818 -58.296964 
L 485.672727 -51.984098 
L 487.363636 -54.660204 
L 489.054545 -72.775385 
L 490.745455 -69.756188 
L 492.436364 -56.512893 
L 494.127273 -47.729775 
L 495.818182 -47.867012 
L 497.509091 -72.157822 
L 499.2 -43.818543 
L 500.890909 -43.681307 
L 502.581818 -49.102138 
L 504.272727 -106.329639 
L 505.963636 -67.354554 
L 507.654545 -50.81759 
L 509.345455 -60.286889 
L 511.036364 -103.104588 
L 512.727273 -44.916433 
L 514.418182 -54.866059 
L 516.109091 -63.786413 
L 517.8 -68.864152 
L 519.490909 -48.415956 
L 521.181818 -44.230252 
L 522.872727 -47.112212 
L 524.563636 -43.544071 
L 526.254545 -68.383826 
L 527.945455 -45.122287 
L 529.636364 -69.893424 
L 531.327273 -50.543118 
L 533.018182 -90.273002 
L 534.709091 -76.755235 
L 536.4 -54.79744 
L 538.090909 -55.620858 
L 539.781818 -71.677495 
L 541.472727 -79.088251 
L 543.163636 -54.385732 
L 544.854545 -45.808468 
L 546.545455 -55.209149 
L 548.236364 -76.823853 
L 549.927273 -72.638148 
L 551.618182 -57.061838 
L 553.309091 -50.611736 
L 555 -66.256664 
L 556.690909 -55.071913 
L 558.381818 -57.061838 
L 560.072727 -59.87518 
L 561.763636 -72.089204 
L 563.454545 -53.081988 
L 565.145455 -49.925555 
L 566.836364 -61.041688 
L 568.527273 -73.66742 
L 570.218182 -56.650129 
L 571.909091 -47.523921 
L 573.6 -57.953873 
L 575.290909 -44.29887 
L 576.981818 -71.12855 
L 578.672727 -56.99322 
L 580.363636 -76.892471 
L 582.054545 -78.196215 
L 583.745455 -95.831069 
L 585.436364 -50.954826 
L 587.127273 -51.984098 
L 588.818182 -56.99322 
L 590.509091 -69.070007 
L 592.2 -57.953873 
L 593.890909 -58.640054 
L 595.581818 -71.403022 
L 597.272727 -64.198121 
L 598.963636 -54.179877 
L 600.654545 -51.435153 
L 602.345455 -56.307039 
L 604.036364 -45.39676 
L 605.727273 -72.157822 
L 607.418182 -45.945705 
L 609.109091 -54.385732 
L 610.8 -49.307992 
L 612.490909 -96.174159 
L 614.181818 -46.220177 
L 615.872727 -48.759047 
L 617.563636 -67.1487 
L 619.254545 -85.606971 
L 620.945455 -75.657345 
L 622.636364 -41.76 
L 622.636364 -42.926508 
L 622.636364 -42.926508 
L 620.945455 -197.797577 
L 619.254545 -203.081171 
L 617.563636 -187.50486 
L 615.872727 -105.643458 
L 614.181818 -70.579605 
L 612.490909 -173.232294 
L 610.8 -95.831069 
L 609.109091 -128.904997 
L 607.418182 -69.550334 
L 605.727273 -167.193901 
L 604.036364 -126.297509 
L 602.345455 -146.19676 
L 600.654545 -146.814323 
L 598.963636 -156.215003 
L 597.272727 -116.004792 
L 595.581818 -210.286072 
L 593.890909 -152.235153 
L 592.2 -161.704452 
L 590.509091 -145.441961 
L 588.818182 -140.158366 
L 587.127273 -130.483213 
L 585.436364 -116.965446 
L 583.745455 -215.638285 
L 582.054545 -191.004384 
L 580.363636 -204.865242 
L 578.672727 -158.204929 
L 576.981818 -194.023581 
L 575.290909 -104.13386 
L 573.6 -149.833519 
L 571.909091 -122.523513 
L 570.218182 -144.206835 
L 568.527273 -133.296555 
L 566.836364 -177.349381 
L 565.145455 -113.809013 
L 563.454545 -129.453941 
L 561.763636 -177.623853 
L 560.072727 -197.385868 
L 558.381818 -139.403567 
L 556.690909 -168.977971 
L 555 -145.647815 
L 553.309091 -99.193356 
L 551.618182 -178.378652 
L 549.927273 -174.261566 
L 548.236364 -198.209285 
L 546.545455 -117.377155 
L 544.854545 -102.281171 
L 543.163636 -131.786957 
L 541.472727 -182.632975 
L 539.781818 -154.15646 
L 538.090909 -145.236106 
L 536.4 -145.990905 
L 534.709091 -194.641144 
L 533.018182 -243.36 
L 531.327273 -166.713574 
L 529.636364 -157.175657 
L 527.945455 -109.623308 
L 526.254545 -144.961634 
L 524.563636 -82.38192 
L 522.872727 -108.11371 
L 521.181818 -103.516297 
L 519.490909 -97.61514 
L 517.8 -140.089748 
L 516.109091 -166.919428 
L 514.418182 -124.925146 
L 512.727273 -131.649721 
L 511.036364 -205.757277 
L 509.345455 -123.34693 
L 507.654545 -107.633383 
L 505.963636 -152.303771 
L 504.272727 -221.333587 
L 502.581818 -202.326372 
L 500.890909 -135.355099 
L 499.2 -53.836787 
L 497.509091 -114.769666 
L 495.818182 -139.334949 
L 494.127273 -99.05612 
L 492.436364 -130.140123 
L 490.745455 -165.547066 
L 489.054545 -141.667965 
L 487.363636 -105.094513 
L 485.672727 -83.960136 
L 483.981818 -115.936174 
L 482.290909 -198.826848 
L 480.6 -201.434336 
L 478.909091 -214.814867 
L 477.218182 -203.49288 
L 475.527273 -196.631069 
L 473.836364 -176.594581 
L 472.145455 -159.988999 
L 470.454545 -180.094105 
L 468.763636 -153.333043 
L 467.072727 -117.994717 
L 465.381818 -104.339714 
L 463.690909 -97.203431 
L 462 -178.790361 
L 460.309091 -177.417999 
L 458.618182 -96.105541 
L 456.927273 -89.586821 
L 455.236364 -91.302274 
L 453.545455 -190.249585 
L 451.854545 -198.346521 
L 450.163636 -138.511532 
L 448.472727 -175.839782 
L 446.781818 -203.767352 
L 445.090909 -55.963948 
L 443.4 -96.654486 
L 441.709091 -103.653533 
L 440.018182 -192.5826 
L 438.327273 -167.880082 
L 436.636364 -180.368577 
L 434.945455 -120.739442 
L 433.254545 -186.201116 
L 431.563636 -174.673274 
L 429.872727 -173.300912 
L 428.181818 -168.223172 
L 426.490909 -162.596487 
L 424.8 -157.038421 
L 423.109091 -136.658843 
L 421.418182 -196.699687 
L 419.727273 -200.267828 
L 418.036364 -184.691518 
L 416.345455 -141.530728 
L 414.654545 -157.930456 
L 412.963636 -123.827257 
L 411.272727 -130.757686 
L 409.581818 -166.919428 
L 407.890909 -159.371436 
L 406.2 -153.401661 
L 404.509091 -129.86565 
L 402.818182 -147.500504 
L 401.127273 -120.945296 
L 399.436364 -151.411736 
L 397.745455 -168.977971 
L 396.054545 -178.515888 
L 394.363636 -176.045636 
L 392.672727 -113.809013 
L 390.981818 -109.142982 
L 389.290909 -163.831613 
L 387.6 -73.118475 
L 385.909091 -147.912212 
L 384.218182 -147.569122 
L 382.527273 -127.464016 
L 380.836364 -182.015412 
L 379.145455 -166.713574 
L 377.454545 -151.61759 
L 375.763636 -134.94339 
L 374.072727 -171.448223 
L 372.381818 -139.540803 
L 370.690909 -153.127189 
L 369 -118.200572 
L 367.309091 -157.175657 
L 365.618182 -114.495194 
L 363.927273 -180.780286 
L 362.236364 -139.815276 
L 360.545455 -162.802342 
L 358.854545 -149.215956 
L 357.163636 -149.902138 
L 355.472727 -152.784098 
L 353.781818 -111.407379 
L 352.090909 -172.751967 
L 350.4 -155.117114 
L 348.709091 -135.835425 
L 347.018182 -132.130048 
L 345.327273 -166.576338 
L 343.636364 -125.542709 
L 341.945455 -109.417454 
L 340.254545 -133.914118 
L 338.563636 -176.800436 
L 336.872727 -164.860885 
L 335.181818 -136.247134 
L 333.490909 -120.602206 
L 331.8 -150.931409 
L 330.109091 -134.119973 
L 328.418182 -134.051355 
L 326.727273 -146.608468 
L 325.036364 -134.051355 
L 323.345455 -201.159864 
L 321.654545 -185.240463 
L 319.963636 -140.775929 
L 318.272727 -163.21405 
L 316.581818 -165.684302 
L 314.890909 -116.07341 
L 313.2 -173.36953 
L 311.509091 -161.567216 
L 309.818182 -173.712621 
L 308.127273 -143.589272 
L 306.436364 -132.130048 
L 304.745455 -172.889204 
L 303.054545 -163.008196 
L 301.363636 -183.730865 
L 299.672727 -195.807651 
L 297.981818 -143.246181 
L 296.290909 -62.825759 
L 294.6 -226.274091 
L 292.909091 -98.918884 
L 291.218182 -155.322968 
L 289.527273 -87.596896 
L 287.836364 -162.047543 
L 286.145455 -119.36708 
L 284.454545 -149.353193 
L 282.763636 -110.103635 
L 281.072727 -130.208741 
L 279.381818 -69.618952 
L 277.690909 -86.087297 
L 276 -136.04128 
L 274.309091 -153.264425 
L 272.618182 -150.931409 
L 270.927273 -105.231749 
L 269.236364 -138.854622 
L 267.545455 -132.884847 
L 265.854545 -107.633383 
L 264.163636 -95.831069 
L 262.472727 -112.711123 
L 260.781818 -144.275453 
L 259.090909 -168.085936 
L 257.4 -150.039374 
L 255.709091 -195.395943 
L 254.018182 -201.777427 
L 252.327273 -233.959319 
L 250.636364 -210.423308 
L 248.945455 -177.966943 
L 247.254545 -183.456392 
L 245.563636 -138.511532 
L 243.872727 -170.281715 
L 242.181818 -110.927052 
L 240.490909 -75.725963 
L 238.8 -173.987093 
L 237.109091 -156.215003 
L 235.418182 -154.774023 
L 233.727273 -168.017318 
L 232.036364 -139.883894 
L 230.345455 -210.0116 
L 228.654545 -141.736583 
L 226.963636 -119.023989 
L 225.272727 -152.441007 
L 223.581818 -106.466875 
L 221.890909 -70.236515 
L 220.2 -87.528278 
L 218.509091 -68.177971 
L 216.818182 -121.013914 
L 215.127273 -196.905541 
L 213.436364 -156.077767 
L 211.745455 -141.736583 
L 210.054545 -127.395398 
L 208.363636 -153.470279 
L 206.672727 -144.481307 
L 204.981818 -180.505813 
L 203.290909 -153.333043 
L 201.6 -166.713574 
L 199.909091 -150.313846 
L 198.218182 -180.98614 
L 196.527273 -164.929503 
L 194.836364 -144.00098 
L 193.145455 -169.664152 
L 191.454545 -137.756732 
L 189.763636 -144.824398 
L 188.072727 -156.558094 
L 186.381818 -157.999074 
L 184.690909 -127.395398 
L 183 -126.434745 
L 181.309091 -162.665106 
L 179.618182 -194.984234 
L 177.927273 -160.743799 
L 176.236364 -154.430933 
L 174.545455 -145.990905 
L 172.854545 -202.600844 
L 171.163636 -169.252444 
L 169.472727 -169.321062 
L 167.781818 -174.46742 
L 166.090909 -174.604656 
L 164.4 -218.451627 
L 162.709091 -187.299006 
L 161.018182 -161.910306 
L 159.327273 -73.873274 
L 157.636364 -122.866603 
L 155.945455 -166.85081 
L 154.254545 -101.869462 
L 152.563636 -124.170347 
L 150.872727 -113.877631 
L 149.181818 -114.769666 
L 147.490909 -179.270688 
L 145.8 -184.348428 
L 144.109091 -202.120517 
L 142.418182 -203.149789 
L 140.727273 -142.697236 
L 139.036364 -139.197713 
L 137.345455 -152.441007 
L 135.654545 -180.848904 
L 133.963636 -160.194854 
L 132.272727 -176.182873 
L 130.581818 -179.407924 
L 128.890909 -228.607107 
L 127.2 -168.429027 
L 125.509091 -135.423717 
L 123.818182 -91.851219 
L 122.127273 -143.108945 
L 120.436364 -81.901593 
L 118.745455 -48.759047 
L 117.054545 -63.031613 
L 115.363636 -58.571436 
z
" style="stroke: #008000; stroke-width: 0.5"/>
    </defs>
    <g clip-path="url(#p7b7f299ea2)">
     <use xlink:href="#m6a3e32bc3b" x="0" y="288" style="fill: #008000; stroke: #008000; stroke-width: 0.5"/>
    </g>
   </g>
   <g id="line2d_26">
    <path d="M 90 44.64 
L 648 44.64 
" clip-path="url(#p7b7f299ea2)" style="fill: none; stroke: #000000; stroke-width: 1.5; stroke-linecap: square"/>
   </g>
   <g id="line2d_27">
    <path d="M 90 140.36226 
L 648 140.36226 
" clip-path="url(#p7b7f299ea2)" style="fill: none; stroke: #000000; stroke-width: 1.5; stroke-linecap: square"/>
   </g>
   <g id="patch_3">
    <path d="M 90 256.32 
L 90 34.56 
" style="fill: none; stroke: #000000; stroke-width: 0.8; stroke-linejoin: miter; stroke-linecap: square"/>
   </g>
   <g id="patch_4">
    <path d="M 648 256.32 
L 648 34.56 
" style="fill: none; stroke: #000000; stroke-width: 0.8; stroke-linejoin: miter; stroke-linecap: square"/>
   </g>
   <g id="patch_5">
    <path d="M 90 256.32 
L 648 256.32 
" style="fill: none; stroke: #000000; stroke-width: 0.8; stroke-linejoin: miter; stroke-linecap: square"/>
   </g>
   <g id="patch_6">
    <path d="M 90 34.56 
L 648 34.56 
" style="fill: none; stroke: #000000; stroke-width: 0.8; stroke-linejoin: miter; stroke-linecap: square"/>
   </g>
   <g id="text_21">
    <!-- peak (2,938) -->
    <g transform="translate(122.179233 41.3136) scale(0.1 -0.1)">
     <defs>
      <path id="DejaVuSans-Bold-70" d="M 1656 506 
L 1656 -1331 
L 538 -1331 
L 538 3500 
L 1656 3500 
L 1656 2988 
Q 1888 3294 2169 3439 
Q 2450 3584 2816 3584 
Q 3463 3584 3878 3070 
Q 4294 2556 4294 1747 
Q 4294 938 3878 423 
Q 3463 -91 2816 -91 
Q 2450 -91 2169 54 
Q 1888 200 1656 506 
z
M 2400 2772 
Q 2041 2772 1848 2508 
Q 1656 2244 1656 1747 
Q 1656 1250 1848 986 
Q 2041 722 2400 722 
Q 2759 722 2948 984 
Q 3138 1247 3138 1747 
Q 3138 2247 2948 2509 
Q 2759 2772 2400 2772 
z
" transform="scale(0.015625)"/>
      <path id="DejaVuSans-Bold-65" d="M 4031 1759 
L 4031 1441 
L 1416 1441 
Q 1456 1047 1700 850 
Q 1944 653 2381 653 
Q 2734 653 3104 758 
Q 3475 863 3866 1075 
L 3866 213 
Q 3469 63 3072 -14 
Q 2675 -91 2278 -91 
Q 1328 -91 801 392 
Q 275 875 275 1747 
Q 275 2603 792 3093 
Q 1309 3584 2216 3584 
Q 3041 3584 3536 3087 
Q 4031 2591 4031 1759 
z
M 2881 2131 
Q 2881 2450 2695 2645 
Q 2509 2841 2209 2841 
Q 1884 2841 1681 2658 
Q 1478 2475 1428 2131 
L 2881 2131 
z
" transform="scale(0.015625)"/>
      <path id="DejaVuSans-Bold-61" d="M 2106 1575 
Q 1756 1575 1579 1456 
Q 1403 1338 1403 1106 
Q 1403 894 1545 773 
Q 1688 653 1941 653 
Q 2256 653 2472 879 
Q 2688 1106 2688 1447 
L 2688 1575 
L 2106 1575 
z
M 3816 1997 
L 3816 0 
L 2688 0 
L 2688 519 
Q 2463 200 2181 54 
Q 1900 -91 1497 -91 
Q 953 -91 614 226 
Q 275 544 275 1050 
Q 275 1666 698 1953 
Q 1122 2241 2028 2241 
L 2688 2241 
L 2688 2328 
Q 2688 2594 2478 2717 
Q 2269 2841 1825 2841 
Q 1466 2841 1156 2769 
Q 847 2697 581 2553 
L 581 3406 
Q 941 3494 1303 3539 
Q 1666 3584 2028 3584 
Q 2975 3584 3395 3211 
Q 3816 2838 3816 1997 
z
" transform="scale(0.015625)"/>
      <path id="DejaVuSans-Bold-6b" d="M 538 4863 
L 1656 4863 
L 1656 2216 
L 2944 3500 
L 4244 3500 
L 2534 1894 
L 4378 0 
L 3022 0 
L 1656 1459 
L 1656 0 
L 538 0 
L 538 4863 
z
" transform="scale(0.015625)"/>
      <path id="DejaVuSans-Bold-20" transform="scale(0.015625)"/>
      <path id="DejaVuSans-Bold-28" d="M 2413 -844 
L 1484 -844 
Q 1006 -72 778 623 
Q 550 1319 550 2003 
Q 550 2688 779 3389 
Q 1009 4091 1484 4856 
L 2413 4856 
Q 2013 4116 1813 3408 
Q 1613 2700 1613 2009 
Q 1613 1319 1811 609 
Q 2009 -100 2413 -844 
z
" transform="scale(0.015625)"/>
      <path id="DejaVuSans-Bold-32" d="M 1844 884 
L 3897 884 
L 3897 0 
L 506 0 
L 506 884 
L 2209 2388 
Q 2438 2594 2547 2791 
Q 2656 2988 2656 3200 
Q 2656 3528 2436 3728 
Q 2216 3928 1850 3928 
Q 1569 3928 1234 3808 
Q 900 3688 519 3450 
L 519 4475 
Q 925 4609 1322 4679 
Q 1719 4750 2100 4750 
Q 2938 4750 3402 4381 
Q 3866 4013 3866 3353 
Q 3866 2972 3669 2642 
Q 3472 2313 2841 1759 
L 1844 884 
z
" transform="scale(0.015625)"/>
      <path id="DejaVuSans-Bold-2c" d="M 653 1209 
L 1778 1209 
L 1778 256 
L 1006 -909 
L 341 -909 
L 653 256 
L 653 1209 
z
" transform="scale(0.015625)"/>
      <path id="DejaVuSans-Bold-39" d="M 641 103 
L 641 966 
Q 928 831 1190 764 
Q 1453 697 1709 697 
Q 2247 697 2547 995 
Q 2847 1294 2900 1881 
Q 2688 1725 2447 1647 
Q 2206 1569 1925 1569 
Q 1209 1569 770 1986 
Q 331 2403 331 3084 
Q 331 3838 820 4291 
Q 1309 4744 2131 4744 
Q 3044 4744 3544 4128 
Q 4044 3513 4044 2388 
Q 4044 1231 3459 570 
Q 2875 -91 1856 -91 
Q 1528 -91 1228 -42 
Q 928 6 641 103 
z
M 2125 2350 
Q 2441 2350 2600 2554 
Q 2759 2759 2759 3169 
Q 2759 3575 2600 3781 
Q 2441 3988 2125 3988 
Q 1809 3988 1650 3781 
Q 1491 3575 1491 3169 
Q 1491 2759 1650 2554 
Q 1809 2350 2125 2350 
z
" transform="scale(0.015625)"/>
      <path id="DejaVuSans-Bold-33" d="M 2981 2516 
Q 3453 2394 3698 2092 
Q 3944 1791 3944 1325 
Q 3944 631 3412 270 
Q 2881 -91 1863 -91 
Q 1503 -91 1142 -33 
Q 781 25 428 141 
L 428 1069 
Q 766 900 1098 814 
Q 1431 728 1753 728 
Q 2231 728 2486 893 
Q 2741 1059 2741 1369 
Q 2741 1688 2480 1852 
Q 2219 2016 1709 2016 
L 1228 2016 
L 1228 2791 
L 1734 2791 
Q 2188 2791 2409 2933 
Q 2631 3075 2631 3366 
Q 2631 3634 2415 3781 
Q 2200 3928 1806 3928 
Q 1516 3928 1219 3862 
Q 922 3797 628 3669 
L 628 4550 
Q 984 4650 1334 4700 
Q 1684 4750 2022 4750 
Q 2931 4750 3382 4451 
Q 3834 4153 3834 3553 
Q 3834 3144 3618 2883 
Q 3403 2622 2981 2516 
z
" transform="scale(0.015625)"/>
      <path id="DejaVuSans-Bold-38" d="M 2228 2088 
Q 1891 2088 1709 1903 
Q 1528 1719 1528 1375 
Q 1528 1031 1709 848 
Q 1891 666 2228 666 
Q 2563 666 2741 848 
Q 2919 1031 2919 1375 
Q 2919 1722 2741 1905 
Q 2563 2088 2228 2088 
z
M 1350 2484 
Q 925 2613 709 2878 
Q 494 3144 494 3541 
Q 494 4131 934 4440 
Q 1375 4750 2228 4750 
Q 3075 4750 3515 4442 
Q 3956 4134 3956 3541 
Q 3956 3144 3739 2878 
Q 3522 2613 3097 2484 
Q 3572 2353 3814 2058 
Q 4056 1763 4056 1313 
Q 4056 619 3595 264 
Q 3134 -91 2228 -91 
Q 1319 -91 855 264 
Q 391 619 391 1313 
Q 391 1763 633 2058 
Q 875 2353 1350 2484 
z
M 1631 3419 
Q 1631 3141 1786 2991 
Q 1941 2841 2228 2841 
Q 2509 2841 2662 2991 
Q 2816 3141 2816 3419 
Q 2816 3697 2662 3845 
Q 2509 3994 2228 3994 
Q 1941 3994 1786 3844 
Q 1631 3694 1631 3419 
z
" transform="scale(0.015625)"/>
      <path id="DejaVuSans-Bold-29" d="M 513 -844 
Q 913 -100 1113 609 
Q 1313 1319 1313 2009 
Q 1313 2700 1113 3408 
Q 913 4116 513 4856 
L 1441 4856 
Q 1916 4091 2145 3389 
Q 2375 2688 2375 2003 
Q 2375 1319 2147 623 
Q 1919 -72 1441 -844 
L 513 -844 
z
" transform="scale(0.015625)"/>
     </defs>
     <use xlink:href="#DejaVuSans-Bold-70"/>
     <use xlink:href="#DejaVuSans-Bold-65" x="71.582031"/>
     <use xlink:href="#DejaVuSans-Bold-61" x="139.404297"/>
     <use xlink:href="#DejaVuSans-Bold-6b" x="206.884766"/>
     <use xlink:href="#DejaVuSans-Bold-20" x="273.388672"/>
     <use xlink:href="#DejaVuSans-Bold-28" x="308.203125"/>
     <use xlink:href="#DejaVuSans-Bold-32" x="353.90625"/>
     <use xlink:href="#DejaVuSans-Bold-2c" x="423.486328"/>
     <use xlink:href="#DejaVuSans-Bold-39" x="461.474609"/>
     <use xlink:href="#DejaVuSans-Bold-33" x="531.054688"/>
     <use xlink:href="#DejaVuSans-Bold-38" x="600.634766"/>
     <use xlink:href="#DejaVuSans-Bold-29" x="670.214844"/>
    </g>
   </g>
   <g id="text_22">
    <!-- mean (1,543) -->
    <g transform="translate(567.728153 137.03586) scale(0.1 -0.1)">
     <defs>
      <path id="DejaVuSans-Bold-6d" d="M 3781 2919 
Q 3994 3244 4286 3414 
Q 4578 3584 4928 3584 
Q 5531 3584 5847 3212 
Q 6163 2841 6163 2131 
L 6163 0 
L 5038 0 
L 5038 1825 
Q 5041 1866 5042 1909 
Q 5044 1953 5044 2034 
Q 5044 2406 4934 2573 
Q 4825 2741 4581 2741 
Q 4263 2741 4089 2478 
Q 3916 2216 3909 1719 
L 3909 0 
L 2784 0 
L 2784 1825 
Q 2784 2406 2684 2573 
Q 2584 2741 2328 2741 
Q 2006 2741 1831 2477 
Q 1656 2213 1656 1722 
L 1656 0 
L 531 0 
L 531 3500 
L 1656 3500 
L 1656 2988 
Q 1863 3284 2130 3434 
Q 2397 3584 2719 3584 
Q 3081 3584 3359 3409 
Q 3638 3234 3781 2919 
z
" transform="scale(0.015625)"/>
      <path id="DejaVuSans-Bold-6e" d="M 4056 2131 
L 4056 0 
L 2931 0 
L 2931 347 
L 2931 1631 
Q 2931 2084 2911 2256 
Q 2891 2428 2841 2509 
Q 2775 2619 2662 2680 
Q 2550 2741 2406 2741 
Q 2056 2741 1856 2470 
Q 1656 2200 1656 1722 
L 1656 0 
L 538 0 
L 538 3500 
L 1656 3500 
L 1656 2988 
Q 1909 3294 2193 3439 
Q 2478 3584 2822 3584 
Q 3428 3584 3742 3212 
Q 4056 2841 4056 2131 
z
" transform="scale(0.015625)"/>
      <path id="DejaVuSans-Bold-31" d="M 750 831 
L 1813 831 
L 1813 3847 
L 722 3622 
L 722 4441 
L 1806 4666 
L 2950 4666 
L 2950 831 
L 4013 831 
L 4013 0 
L 750 0 
L 750 831 
z
" transform="scale(0.015625)"/>
      <path id="DejaVuSans-Bold-35" d="M 678 4666 
L 3669 4666 
L 3669 3781 
L 1638 3781 
L 1638 3059 
Q 1775 3097 1914 3117 
Q 2053 3138 2203 3138 
Q 3056 3138 3531 2711 
Q 4006 2284 4006 1522 
Q 4006 766 3489 337 
Q 2972 -91 2053 -91 
Q 1656 -91 1267 -14 
Q 878 63 494 219 
L 494 1166 
Q 875 947 1217 837 
Q 1559 728 1863 728 
Q 2300 728 2551 942 
Q 2803 1156 2803 1522 
Q 2803 1891 2551 2103 
Q 2300 2316 1863 2316 
Q 1603 2316 1309 2248 
Q 1016 2181 678 2041 
L 678 4666 
z
" transform="scale(0.015625)"/>
      <path id="DejaVuSans-Bold-34" d="M 2356 3675 
L 1038 1722 
L 2356 1722 
L 2356 3675 
z
M 2156 4666 
L 3494 4666 
L 3494 1722 
L 4159 1722 
L 4159 850 
L 3494 850 
L 3494 0 
L 2356 0 
L 2356 850 
L 288 850 
L 288 1881 
L 2156 4666 
z
" transform="scale(0.015625)"/>
     </defs>
     <use xlink:href="#DejaVuSans-Bold-6d"/>
     <use xlink:href="#DejaVuSans-Bold-65" x="104.199219"/>
     <use xlink:href="#DejaVuSans-Bold-61" x="172.021484"/>
     <use xlink:href="#DejaVuSans-Bold-6e" x="239.501953"/>
     <use xlink:href="#DejaVuSans-Bold-20" x="310.693359"/>
     <use xlink:href="#DejaVuSans-Bold-28" x="345.507812"/>
     <use xlink:href="#DejaVuSans-Bold-31" x="391.210938"/>
     <use xlink:href="#DejaVuSans-Bold-2c" x="460.791016"/>
     <use xlink:href="#DejaVuSans-Bold-35" x="498.779297"/>
     <use xlink:href="#DejaVuSans-Bold-34" x="568.359375"/>
     <use xlink:href="#DejaVuSans-Bold-33" x="637.939453"/>
     <use xlink:href="#DejaVuSans-Bold-29" x="707.519531"/>
    </g>
   </g>
   <g id="text_23">
    <!-- Stream Bitrate over Time -->
    <g transform="translate(293.189062 28.56) scale(0.12 -0.12)">
     <defs>
      <path id="DejaVuSans-53" d="M 3425 4513 
L 3425 3897 
Q 3066 4069 2747 4153 
Q 2428 4238 2131 4238 
Q 1616 4238 1336 4038 
Q 1056 3838 1056 3469 
Q 1056 3159 1242 3001 
Q 1428 2844 1947 2747 
L 2328 2669 
Q 3034 2534 3370 2195 
Q 3706 1856 3706 1288 
Q 3706 609 3251 259 
Q 2797 -91 1919 -91 
Q 1588 -91 1214 -16 
Q 841 59 441 206 
L 441 856 
Q 825 641 1194 531 
Q 1563 422 1919 422 
Q 2459 422 2753 634 
Q 3047 847 3047 1241 
Q 3047 1584 2836 1778 
Q 2625 1972 2144 2069 
L 1759 2144 
Q 1053 2284 737 2584 
Q 422 2884 422 3419 
Q 422 4038 858 4394 
Q 1294 4750 2059 4750 
Q 2388 4750 2728 4690 
Q 3069 4631 3425 4513 
z
" transform="scale(0.015625)"/>
      <path id="DejaVuSans-6f" d="M 1959 3097 
Q 1497 3097 1228 2736 
Q 959 2375 959 1747 
Q 959 1119 1226 758 
Q 1494 397 1959 397 
Q 2419 397 2687 759 
Q 2956 1122 2956 1747 
Q 2956 2369 2687 2733 
Q 2419 3097 1959 3097 
z
M 1959 3584 
Q 2709 3584 3137 3096 
Q 3566 2609 3566 1747 
Q 3566 888 3137 398 
Q 2709 -91 1959 -91 
Q 1206 -91 779 398 
Q 353 888 353 1747 
Q 353 2609 779 3096 
Q 1206 3584 1959 3584 
z
" transform="scale(0.015625)"/>
      <path id="DejaVuSans-76" d="M 191 3500 
L 800 3500 
L 1894 563 
L 2988 3500 
L 3597 3500 
L 2284 0 
L 1503 0 
L 191 3500 
z
" transform="scale(0.015625)"/>
     </defs>
     <use xlink:href="#DejaVuSans-53"/>
     <use xlink:href="#DejaVuSans-74" x="63.476562"/>
     <use xlink:href="#DejaVuSans-72" x="102.685547"/>
     <use xlink:href="#DejaVuSans-65" x="141.548828"/>
     <use xlink:href="#DejaVuSans-61" x="203.072266"/>
     <use xlink:href="#DejaVuSans-6d" x="264.351562"/>
     <use xlink:href="#DejaVuSans-20" x="361.763672"/>
     <use xlink:href="#DejaVuSans-42" x="393.550781"/>
     <use xlink:href="#DejaVuSans-69" x="462.154297"/>
     <use xlink:href="#DejaVuSans-74" x="489.9375"/>
     <use xlink:href="#DejaVuSans-72" x="529.146484"/>
     <use xlink:href="#DejaVuSans-61" x="570.259766"/>
     <use xlink:href="#DejaVuSans-74" x="631.539062"/>
     <use xlink:href="#DejaVuSans-65" x="670.748047"/>
     <use xlink:href="#DejaVuSans-20" x="732.271484"/>
     <use xlink:href="#DejaVuSans-6f" x="764.058594"/>
     <use xlink:href="#DejaVuSans-76" x="825.240234"/>
     <use xlink:href="#DejaVuSans-65" x="884.419922"/>
     <use xlink:href="#DejaVuSans-72" x="945.943359"/>
     <use xlink:href="#DejaVuSans-20" x="987.056641"/>
     <use xlink:href="#DejaVuSans-54" x="1018.84375"/>
     <use xlink:href="#DejaVuSans-69" x="1076.802734"/>
     <use xlink:href="#DejaVuSans-6d" x="1104.585938"/>
     <use xlink:href="#DejaVuSans-65" x="1201.998047"/>
    </g>
   </g>
   <g id="legend_1">
    <g id="patch_7">
     <path d="M 602.139063 86.594375 
L 641 86.594375 
Q 643 86.594375 643 84.594375 
L 643 41.56 
Q 643 39.56 641 39.56 
L 602.139063 39.56 
Q 600.139063 39.56 600.139063 41.56 
L 600.139063 84.594375 
Q 600.139063 86.594375 602.139063 86.594375 
z
" style="fill: #ffffff; opacity: 0.8; stroke: #cccccc; stroke-linejoin: miter"/>
    </g>
    <g id="patch_8">
     <path d="M 604.139063 51.158438 
L 624.139063 51.158438 
L 624.139063 44.158438 
L 604.139063 44.158438 
z
" style="fill: #ff0000; stroke: #ff0000; stroke-width: 0.5; stroke-linejoin: miter"/>
    </g>
    <g id="text_24">
     <!-- I -->
     <g transform="translate(632.139063 51.158438) scale(0.1 -0.1)">
      <defs>
       <path id="DejaVuSans-49" d="M 628 4666 
L 1259 4666 
L 1259 0 
L 628 0 
L 628 4666 
z
" transform="scale(0.015625)"/>
      </defs>
      <use xlink:href="#DejaVuSans-49"/>
     </g>
    </g>
    <g id="patch_9">
     <path d="M 604.139063 65.836563 
L 624.139063 65.836563 
L 624.139063 58.836563 
L 604.139063 58.836563 
z
" style="fill: #0000ff; stroke: #0000ff; stroke-width: 0.5; stroke-linejoin: miter"/>
    </g>
    <g id="text_25">
     <!-- B -->
     <g transform="translate(632.139063 65.836563) scale(0.1 -0.1)">
      <use xlink:href="#DejaVuSans-42"/>
     </g>
    </g>
    <g id="patch_10">
     <path d="M 604.139063 80.514688 
L 624.139063 80.514688 
L 624.139063 73.514688 
L 604.139063 73.514688 
z
" style="fill: #008000; stroke: #008000; stroke-width: 0.5; stroke-linejoin: miter"/>
    </g>
    <g id="text_26">
     <!-- P -->
     <g transform="translate(632.139063 80.514688) scale(0.1 -0.1)">
      <defs>
       <path id="DejaVuSans-50" d="M 1259 4147 
L 1259 2394 
L 2053 2394 
Q 2494 2394 2734 2622 
Q 2975 2850 2975 3272 
Q 2975 3691 2734 3919 
Q 2494 4147 2053 4147 
L 1259 4147 
z
M 628 4666 
L 2053 4666 
Q 2838 4666 3239 4311 
Q 3641 3956 3641 3272 
Q 3641 2581 3239 2228 
Q 2838 1875 2053 1875 
L 1259 1875 
L 1259 0 
L 628 0 
L 628 4666 
z
" transform="scale(0.015625)"/>
      </defs>
      <use xlink:href="#DejaVuSans-50"/>
     </g>
    </g>
   </g>
  </g>
 </g>
 <defs>
  <clipPath id="p7b7f299ea2">
   <rect x="90" y="34.56" width="558" height="221.76"/>
  </clipPath>
 </defs>
</svg>
