<?xml version="1.0" encoding="utf-8" standalone="no"?>
<!DOCTYPE svg PUBLIC "-//W3C//DTD SVG 1.1//EN"
  "http://www.w3.org/Graphics/SVG/1.1/DTD/svg11.dtd">
<svg xmlns:xlink="http://www.w3.org/1999/xlink" width="720pt" height="288pt" viewBox="0 0 720 288" xmlns="http://www.w3.org/2000/svg" version="1.1">
 <metadata>
  <rdf:RDF xmlns:dc="http://purl.org/dc/elements/1.1/" xmlns:cc="http://creativecommons.org/ns#" xmlns:rdf="http://www.w3.org/1999/02/22-rdf-syntax-ns#">
   <cc:Work>
    <dc:type rdf:resource="http://purl.org/dc/dcmitype/StillImage"/>
    <dc:date>2023-05-07T02:10:51.271787</dc:date>
    <dc:format>image/svg+xml</dc:format>
    <dc:creator>
     <cc:Agent>
      <dc:title>Matplotlib v3.7.1, https://matplotlib.org/</dc:title>
     </cc:Agent>
    </dc:creator>
   </cc:Work>
  </rdf:RDF>
 </metadata>
 <defs>
  <style type="text/css">*{stroke-linejoin: round; stroke-linecap: butt}</style>
 </defs>
 <g id="figure_1">
  <g id="patch_1">
   <path d="M 0 288 
L 720 288 
L 720 0 
L 0 0 
z
" style="fill: #ffffff"/>
  </g>
  <g id="axes_1">
   <g id="patch_2">
    <path d="M 90 256.32 
L 648 256.32 
L 648 34.56 
L 90 34.56 
z
" style="fill: #ffffff"/>
   </g>
   <g id="matplotlib.axis_1">
    <g id="xtick_1">
     <g id="line2d_1">
      <defs>
       <path id="m914c71596b" d="M 0 0 
L 0 3.5 
" style="stroke: #000000; stroke-width: 0.8"/>
      </defs>
      <g>
       <use xlink:href="#m914c71596b" x="115.363636" y="256.32" style="stroke: #000000; stroke-width: 0.8"/>
      </g>
     </g>
     <g id="text_1">
      <!-- 0:00:00 -->
      <g transform="translate(96.088636 270.918437) scale(0.1 -0.1)">
       <defs>
        <path id="DejaVuSans-30" d="M 2034 4250 
Q 1547 4250 1301 3770 
Q 1056 3291 1056 2328 
Q 1056 1369 1301 889 
Q 1547 409 2034 409 
Q 2525 409 2770 889 
Q 3016 1369 3016 2328 
Q 3016 3291 2770 3770 
Q 2525 4250 2034 4250 
z
M 2034 4750 
Q 2819 4750 3233 4129 
Q 3647 3509 3647 2328 
Q 3647 1150 3233 529 
Q 2819 -91 2034 -91 
Q 1250 -91 836 529 
Q 422 1150 422 2328 
Q 422 3509 836 4129 
Q 1250 4750 2034 4750 
z
" transform="scale(0.015625)"/>
        <path id="DejaVuSans-3a" d="M 750 794 
L 1409 794 
L 1409 0 
L 750 0 
L 750 794 
z
M 750 3309 
L 1409 3309 
L 1409 2516 
L 750 2516 
L 750 3309 
z
" transform="scale(0.015625)"/>
       </defs>
       <use xlink:href="#DejaVuSans-30"/>
       <use xlink:href="#DejaVuSans-3a" x="63.623047"/>
       <use xlink:href="#DejaVuSans-30" x="97.314453"/>
       <use xlink:href="#DejaVuSans-30" x="160.9375"/>
       <use xlink:href="#DejaVuSans-3a" x="224.560547"/>
       <use xlink:href="#DejaVuSans-30" x="258.251953"/>
       <use xlink:href="#DejaVuSans-30" x="321.875"/>
      </g>
     </g>
    </g>
    <g id="xtick_2">
     <g id="line2d_2">
      <g>
       <use xlink:href="#m914c71596b" x="166.090909" y="256.32" style="stroke: #000000; stroke-width: 0.8"/>
      </g>
     </g>
     <g id="text_2">
      <!-- 0:00:30 -->
      <g transform="translate(146.815909 270.918437) scale(0.1 -0.1)">
       <defs>
        <path id="DejaVuSans-33" d="M 2597 2516 
Q 3050 2419 3304 2112 
Q 3559 1806 3559 1356 
Q 3559 666 3084 287 
Q 2609 -91 1734 -91 
Q 1441 -91 1130 -33 
Q 819 25 488 141 
L 488 750 
Q 750 597 1062 519 
Q 1375 441 1716 441 
Q 2309 441 2620 675 
Q 2931 909 2931 1356 
Q 2931 1769 2642 2001 
Q 2353 2234 1838 2234 
L 1294 2234 
L 1294 2753 
L 1863 2753 
Q 2328 2753 2575 2939 
Q 2822 3125 2822 3475 
Q 2822 3834 2567 4026 
Q 2313 4219 1838 4219 
Q 1578 4219 1281 4162 
Q 984 4106 628 3988 
L 628 4550 
Q 988 4650 1302 4700 
Q 1616 4750 1894 4750 
Q 2613 4750 3031 4423 
Q 3450 4097 3450 3541 
Q 3450 3153 3228 2886 
Q 3006 2619 2597 2516 
z
" transform="scale(0.015625)"/>
       </defs>
       <use xlink:href="#DejaVuSans-30"/>
       <use xlink:href="#DejaVuSans-3a" x="63.623047"/>
       <use xlink:href="#DejaVuSans-30" x="97.314453"/>
       <use xlink:href="#DejaVuSans-30" x="160.9375"/>
       <use xlink:href="#DejaVuSans-3a" x="224.560547"/>
       <use xlink:href="#DejaVuSans-33" x="258.251953"/>
       <use xlink:href="#DejaVuSans-30" x="321.875"/>
      </g>
     </g>
    </g>
    <g id="xtick_3">
     <g id="line2d_3">
      <g>
       <use xlink:href="#m914c71596b" x="216.818182" y="256.32" style="stroke: #000000; stroke-width: 0.8"/>
      </g>
     </g>
     <g id="text_3">
      <!-- 0:01:00 -->
      <g transform="translate(197.543182 270.918437) scale(0.1 -0.1)">
       <defs>
        <path id="DejaVuSans-31" d="M 794 531 
L 1825 531 
L 1825 4091 
L 703 3866 
L 703 4441 
L 1819 4666 
L 2450 4666 
L 2450 531 
L 3481 531 
L 3481 0 
L 794 0 
L 794 531 
z
" transform="scale(0.015625)"/>
       </defs>
       <use xlink:href="#DejaVuSans-30"/>
       <use xlink:href="#DejaVuSans-3a" x="63.623047"/>
       <use xlink:href="#DejaVuSans-30" x="97.314453"/>
       <use xlink:href="#DejaVuSans-31" x="160.9375"/>
       <use xlink:href="#DejaVuSans-3a" x="224.560547"/>
       <use xlink:href="#DejaVuSans-30" x="258.251953"/>
       <use xlink:href="#DejaVuSans-30" x="321.875"/>
      </g>
     </g>
    </g>
    <g id="xtick_4">
     <g id="line2d_4">
      <g>
       <use xlink:href="#m914c71596b" x="267.545455" y="256.32" style="stroke: #000000; stroke-width: 0.8"/>
      </g>
     </g>
     <g id="text_4">
      <!-- 0:01:30 -->
      <g transform="translate(248.270455 270.918437) scale(0.1 -0.1)">
       <use xlink:href="#DejaVuSans-30"/>
       <use xlink:href="#DejaVuSans-3a" x="63.623047"/>
       <use xlink:href="#DejaVuSans-30" x="97.314453"/>
       <use xlink:href="#DejaVuSans-31" x="160.9375"/>
       <use xlink:href="#DejaVuSans-3a" x="224.560547"/>
       <use xlink:href="#DejaVuSans-33" x="258.251953"/>
       <use xlink:href="#DejaVuSans-30" x="321.875"/>
      </g>
     </g>
    </g>
    <g id="xtick_5">
     <g id="line2d_5">
      <g>
       <use xlink:href="#m914c71596b" x="318.272727" y="256.32" style="stroke: #000000; stroke-width: 0.8"/>
      </g>
     </g>
     <g id="text_5">
      <!-- 0:02:00 -->
      <g transform="translate(298.997727 270.918437) scale(0.1 -0.1)">
       <defs>
        <path id="DejaVuSans-32" d="M 1228 531 
L 3431 531 
L 3431 0 
L 469 0 
L 469 531 
Q 828 903 1448 1529 
Q 2069 2156 2228 2338 
Q 2531 2678 2651 2914 
Q 2772 3150 2772 3378 
Q 2772 3750 2511 3984 
Q 2250 4219 1831 4219 
Q 1534 4219 1204 4116 
Q 875 4013 500 3803 
L 500 4441 
Q 881 4594 1212 4672 
Q 1544 4750 1819 4750 
Q 2544 4750 2975 4387 
Q 3406 4025 3406 3419 
Q 3406 3131 3298 2873 
Q 3191 2616 2906 2266 
Q 2828 2175 2409 1742 
Q 1991 1309 1228 531 
z
" transform="scale(0.015625)"/>
       </defs>
       <use xlink:href="#DejaVuSans-30"/>
       <use xlink:href="#DejaVuSans-3a" x="63.623047"/>
       <use xlink:href="#DejaVuSans-30" x="97.314453"/>
       <use xlink:href="#DejaVuSans-32" x="160.9375"/>
       <use xlink:href="#DejaVuSans-3a" x="224.560547"/>
       <use xlink:href="#DejaVuSans-30" x="258.251953"/>
       <use xlink:href="#DejaVuSans-30" x="321.875"/>
      </g>
     </g>
    </g>
    <g id="xtick_6">
     <g id="line2d_6">
      <g>
       <use xlink:href="#m914c71596b" x="369" y="256.32" style="stroke: #000000; stroke-width: 0.8"/>
      </g>
     </g>
     <g id="text_6">
      <!-- 0:02:30 -->
      <g transform="translate(349.725 270.918437) scale(0.1 -0.1)">
       <use xlink:href="#DejaVuSans-30"/>
       <use xlink:href="#DejaVuSans-3a" x="63.623047"/>
       <use xlink:href="#DejaVuSans-30" x="97.314453"/>
       <use xlink:href="#DejaVuSans-32" x="160.9375"/>
       <use xlink:href="#DejaVuSans-3a" x="224.560547"/>
       <use xlink:href="#DejaVuSans-33" x="258.251953"/>
       <use xlink:href="#DejaVuSans-30" x="321.875"/>
      </g>
     </g>
    </g>
    <g id="xtick_7">
     <g id="line2d_7">
      <g>
       <use xlink:href="#m914c71596b" x="419.727273" y="256.32" style="stroke: #000000; stroke-width: 0.8"/>
      </g>
     </g>
     <g id="text_7">
      <!-- 0:03:00 -->
      <g transform="translate(400.452273 270.918437) scale(0.1 -0.1)">
       <use xlink:href="#DejaVuSans-30"/>
       <use xlink:href="#DejaVuSans-3a" x="63.623047"/>
       <use xlink:href="#DejaVuSans-30" x="97.314453"/>
       <use xlink:href="#DejaVuSans-33" x="160.9375"/>
       <use xlink:href="#DejaVuSans-3a" x="224.560547"/>
       <use xlink:href="#DejaVuSans-30" x="258.251953"/>
       <use xlink:href="#DejaVuSans-30" x="321.875"/>
      </g>
     </g>
    </g>
    <g id="xtick_8">
     <g id="line2d_8">
      <g>
       <use xlink:href="#m914c71596b" x="470.454545" y="256.32" style="stroke: #000000; stroke-width: 0.8"/>
      </g>
     </g>
     <g id="text_8">
      <!-- 0:03:30 -->
      <g transform="translate(451.179545 270.918437) scale(0.1 -0.1)">
       <use xlink:href="#DejaVuSans-30"/>
       <use xlink:href="#DejaVuSans-3a" x="63.623047"/>
       <use xlink:href="#DejaVuSans-30" x="97.314453"/>
       <use xlink:href="#DejaVuSans-33" x="160.9375"/>
       <use xlink:href="#DejaVuSans-3a" x="224.560547"/>
       <use xlink:href="#DejaVuSans-33" x="258.251953"/>
       <use xlink:href="#DejaVuSans-30" x="321.875"/>
      </g>
     </g>
    </g>
    <g id="xtick_9">
     <g id="line2d_9">
      <g>
       <use xlink:href="#m914c71596b" x="521.181818" y="256.32" style="stroke: #000000; stroke-width: 0.8"/>
      </g>
     </g>
     <g id="text_9">
      <!-- 0:04:00 -->
      <g transform="translate(501.906818 270.918437) scale(0.1 -0.1)">
       <defs>
        <path id="DejaVuSans-34" d="M 2419 4116 
L 825 1625 
L 2419 1625 
L 2419 4116 
z
M 2253 4666 
L 3047 4666 
L 3047 1625 
L 3713 1625 
L 3713 1100 
L 3047 1100 
L 3047 0 
L 2419 0 
L 2419 1100 
L 313 1100 
L 313 1709 
L 2253 4666 
z
" transform="scale(0.015625)"/>
       </defs>
       <use xlink:href="#DejaVuSans-30"/>
       <use xlink:href="#DejaVuSans-3a" x="63.623047"/>
       <use xlink:href="#DejaVuSans-30" x="97.314453"/>
       <use xlink:href="#DejaVuSans-34" x="160.9375"/>
       <use xlink:href="#DejaVuSans-3a" x="224.560547"/>
       <use xlink:href="#DejaVuSans-30" x="258.251953"/>
       <use xlink:href="#DejaVuSans-30" x="321.875"/>
      </g>
     </g>
    </g>
    <g id="xtick_10">
     <g id="line2d_10">
      <g>
       <use xlink:href="#m914c71596b" x="571.909091" y="256.32" style="stroke: #000000; stroke-width: 0.8"/>
      </g>
     </g>
     <g id="text_10">
      <!-- 0:04:30 -->
      <g transform="translate(552.634091 270.918437) scale(0.1 -0.1)">
       <use xlink:href="#DejaVuSans-30"/>
       <use xlink:href="#DejaVuSans-3a" x="63.623047"/>
       <use xlink:href="#DejaVuSans-30" x="97.314453"/>
       <use xlink:href="#DejaVuSans-34" x="160.9375"/>
       <use xlink:href="#DejaVuSans-3a" x="224.560547"/>
       <use xlink:href="#DejaVuSans-33" x="258.251953"/>
       <use xlink:href="#DejaVuSans-30" x="321.875"/>
      </g>
     </g>
    </g>
    <g id="xtick_11">
     <g id="line2d_11">
      <g>
       <use xlink:href="#m914c71596b" x="622.636364" y="256.32" style="stroke: #000000; stroke-width: 0.8"/>
      </g>
     </g>
     <g id="text_11">
      <!-- 0:05:00 -->
      <g transform="translate(603.361364 270.918437) scale(0.1 -0.1)">
       <defs>
        <path id="DejaVuSans-35" d="M 691 4666 
L 3169 4666 
L 3169 4134 
L 1269 4134 
L 1269 2991 
Q 1406 3038 1543 3061 
Q 1681 3084 1819 3084 
Q 2600 3084 3056 2656 
Q 3513 2228 3513 1497 
Q 3513 744 3044 326 
Q 2575 -91 1722 -91 
Q 1428 -91 1123 -41 
Q 819 9 494 109 
L 494 744 
Q 775 591 1075 516 
Q 1375 441 1709 441 
Q 2250 441 2565 725 
Q 2881 1009 2881 1497 
Q 2881 1984 2565 2268 
Q 2250 2553 1709 2553 
Q 1456 2553 1204 2497 
Q 953 2441 691 2322 
L 691 4666 
z
" transform="scale(0.015625)"/>
       </defs>
       <use xlink:href="#DejaVuSans-30"/>
       <use xlink:href="#DejaVuSans-3a" x="63.623047"/>
       <use xlink:href="#DejaVuSans-30" x="97.314453"/>
       <use xlink:href="#DejaVuSans-35" x="160.9375"/>
       <use xlink:href="#DejaVuSans-3a" x="224.560547"/>
       <use xlink:href="#DejaVuSans-30" x="258.251953"/>
       <use xlink:href="#DejaVuSans-30" x="321.875"/>
      </g>
     </g>
    </g>
    <g id="text_12">
     <!-- Time -->
     <g transform="translate(356.766406 284.596563) scale(0.1 -0.1)">
      <defs>
       <path id="DejaVuSans-54" d="M -19 4666 
L 3928 4666 
L 3928 4134 
L 2272 4134 
L 2272 0 
L 1638 0 
L 1638 4134 
L -19 4134 
L -19 4666 
z
" transform="scale(0.015625)"/>
       <path id="DejaVuSans-69" d="M 603 3500 
L 1178 3500 
L 1178 0 
L 603 0 
L 603 3500 
z
M 603 4863 
L 1178 4863 
L 1178 4134 
L 603 4134 
L 603 4863 
z
" transform="scale(0.015625)"/>
       <path id="DejaVuSans-6d" d="M 3328 2828 
Q 3544 3216 3844 3400 
Q 4144 3584 4550 3584 
Q 5097 3584 5394 3201 
Q 5691 2819 5691 2113 
L 5691 0 
L 5113 0 
L 5113 2094 
Q 5113 2597 4934 2840 
Q 4756 3084 4391 3084 
Q 3944 3084 3684 2787 
Q 3425 2491 3425 1978 
L 3425 0 
L 2847 0 
L 2847 2094 
Q 2847 2600 2669 2842 
Q 2491 3084 2119 3084 
Q 1678 3084 1418 2786 
Q 1159 2488 1159 1978 
L 1159 0 
L 581 0 
L 581 3500 
L 1159 3500 
L 1159 2956 
Q 1356 3278 1631 3431 
Q 1906 3584 2284 3584 
Q 2666 3584 2933 3390 
Q 3200 3197 3328 2828 
z
" transform="scale(0.015625)"/>
       <path id="DejaVuSans-65" d="M 3597 1894 
L 3597 1613 
L 953 1613 
Q 991 1019 1311 708 
Q 1631 397 2203 397 
Q 2534 397 2845 478 
Q 3156 559 3463 722 
L 3463 178 
Q 3153 47 2828 -22 
Q 2503 -91 2169 -91 
Q 1331 -91 842 396 
Q 353 884 353 1716 
Q 353 2575 817 3079 
Q 1281 3584 2069 3584 
Q 2775 3584 3186 3129 
Q 3597 2675 3597 1894 
z
M 3022 2063 
Q 3016 2534 2758 2815 
Q 2500 3097 2075 3097 
Q 1594 3097 1305 2825 
Q 1016 2553 972 2059 
L 3022 2063 
z
" transform="scale(0.015625)"/>
      </defs>
      <use xlink:href="#DejaVuSans-54"/>
      <use xlink:href="#DejaVuSans-69" x="57.958984"/>
      <use xlink:href="#DejaVuSans-6d" x="85.742188"/>
      <use xlink:href="#DejaVuSans-65" x="183.154297"/>
     </g>
    </g>
   </g>
   <g id="matplotlib.axis_2">
    <g id="ytick_1">
     <g id="line2d_12">
      <path d="M 90 246.24 
L 648 246.24 
" clip-path="url(#pbd6f11c678)" style="fill: none; stroke: #b0b0b0; stroke-width: 0.8; stroke-linecap: square"/>
     </g>
     <g id="line2d_13">
      <defs>
       <path id="ma283ddfa6f" d="M 0 0 
L -3.5 0 
" style="stroke: #000000; stroke-width: 0.8"/>
      </defs>
      <g>
       <use xlink:href="#ma283ddfa6f" x="90" y="246.24" style="stroke: #000000; stroke-width: 0.8"/>
      </g>
     </g>
     <g id="text_13">
      <!-- 0 -->
      <g transform="translate(76.6375 250.039219) scale(0.1 -0.1)">
       <use xlink:href="#DejaVuSans-30"/>
      </g>
     </g>
    </g>
    <g id="ytick_2">
     <g id="line2d_14">
      <path d="M 90 215.061528 
L 648 215.061528 
" clip-path="url(#pbd6f11c678)" style="fill: none; stroke: #b0b0b0; stroke-width: 0.8; stroke-linecap: square"/>
     </g>
     <g id="line2d_15">
      <g>
       <use xlink:href="#ma283ddfa6f" x="90" y="215.061528" style="stroke: #000000; stroke-width: 0.8"/>
      </g>
     </g>
     <g id="text_14">
      <!-- 1,000 -->
      <g transform="translate(54.371875 218.860747) scale(0.1 -0.1)">
       <defs>
        <path id="DejaVuSans-2c" d="M 750 794 
L 1409 794 
L 1409 256 
L 897 -744 
L 494 -744 
L 750 256 
L 750 794 
z
" transform="scale(0.015625)"/>
       </defs>
       <use xlink:href="#DejaVuSans-31"/>
       <use xlink:href="#DejaVuSans-2c" x="63.623047"/>
       <use xlink:href="#DejaVuSans-30" x="95.410156"/>
       <use xlink:href="#DejaVuSans-30" x="159.033203"/>
       <use xlink:href="#DejaVuSans-30" x="222.65625"/>
      </g>
     </g>
    </g>
    <g id="ytick_3">
     <g id="line2d_16">
      <path d="M 90 183.883056 
L 648 183.883056 
" clip-path="url(#pbd6f11c678)" style="fill: none; stroke: #b0b0b0; stroke-width: 0.8; stroke-linecap: square"/>
     </g>
     <g id="line2d_17">
      <g>
       <use xlink:href="#ma283ddfa6f" x="90" y="183.883056" style="stroke: #000000; stroke-width: 0.8"/>
      </g>
     </g>
     <g id="text_15">
      <!-- 2,000 -->
      <g transform="translate(54.371875 187.682275) scale(0.1 -0.1)">
       <use xlink:href="#DejaVuSans-32"/>
       <use xlink:href="#DejaVuSans-2c" x="63.623047"/>
       <use xlink:href="#DejaVuSans-30" x="95.410156"/>
       <use xlink:href="#DejaVuSans-30" x="159.033203"/>
       <use xlink:href="#DejaVuSans-30" x="222.65625"/>
      </g>
     </g>
    </g>
    <g id="ytick_4">
     <g id="line2d_18">
      <path d="M 90 152.704584 
L 648 152.704584 
" clip-path="url(#pbd6f11c678)" style="fill: none; stroke: #b0b0b0; stroke-width: 0.8; stroke-linecap: square"/>
     </g>
     <g id="line2d_19">
      <g>
       <use xlink:href="#ma283ddfa6f" x="90" y="152.704584" style="stroke: #000000; stroke-width: 0.8"/>
      </g>
     </g>
     <g id="text_16">
      <!-- 3,000 -->
      <g transform="translate(54.371875 156.503803) scale(0.1 -0.1)">
       <use xlink:href="#DejaVuSans-33"/>
       <use xlink:href="#DejaVuSans-2c" x="63.623047"/>
       <use xlink:href="#DejaVuSans-30" x="95.410156"/>
       <use xlink:href="#DejaVuSans-30" x="159.033203"/>
       <use xlink:href="#DejaVuSans-30" x="222.65625"/>
      </g>
     </g>
    </g>
    <g id="ytick_5">
     <g id="line2d_20">
      <path d="M 90 121.526112 
L 648 121.526112 
" clip-path="url(#pbd6f11c678)" style="fill: none; stroke: #b0b0b0; stroke-width: 0.8; stroke-linecap: square"/>
     </g>
     <g id="line2d_21">
      <g>
       <use xlink:href="#ma283ddfa6f" x="90" y="121.526112" style="stroke: #000000; stroke-width: 0.8"/>
      </g>
     </g>
     <g id="text_17">
      <!-- 4,000 -->
      <g transform="translate(54.371875 125.325331) scale(0.1 -0.1)">
       <use xlink:href="#DejaVuSans-34"/>
       <use xlink:href="#DejaVuSans-2c" x="63.623047"/>
       <use xlink:href="#DejaVuSans-30" x="95.410156"/>
       <use xlink:href="#DejaVuSans-30" x="159.033203"/>
       <use xlink:href="#DejaVuSans-30" x="222.65625"/>
      </g>
     </g>
    </g>
    <g id="ytick_6">
     <g id="line2d_22">
      <path d="M 90 90.34764 
L 648 90.34764 
" clip-path="url(#pbd6f11c678)" style="fill: none; stroke: #b0b0b0; stroke-width: 0.8; stroke-linecap: square"/>
     </g>
     <g id="line2d_23">
      <g>
       <use xlink:href="#ma283ddfa6f" x="90" y="90.34764" style="stroke: #000000; stroke-width: 0.8"/>
      </g>
     </g>
     <g id="text_18">
      <!-- 5,000 -->
      <g transform="translate(54.371875 94.146859) scale(0.1 -0.1)">
       <use xlink:href="#DejaVuSans-35"/>
       <use xlink:href="#DejaVuSans-2c" x="63.623047"/>
       <use xlink:href="#DejaVuSans-30" x="95.410156"/>
       <use xlink:href="#DejaVuSans-30" x="159.033203"/>
       <use xlink:href="#DejaVuSans-30" x="222.65625"/>
      </g>
     </g>
    </g>
    <g id="ytick_7">
     <g id="line2d_24">
      <path d="M 90 59.169168 
L 648 59.169168 
" clip-path="url(#pbd6f11c678)" style="fill: none; stroke: #b0b0b0; stroke-width: 0.8; stroke-linecap: square"/>
     </g>
     <g id="line2d_25">
      <g>
       <use xlink:href="#ma283ddfa6f" x="90" y="59.169168" style="stroke: #000000; stroke-width: 0.8"/>
      </g>
     </g>
     <g id="text_19">
      <!-- 6,000 -->
      <g transform="translate(54.371875 62.968387) scale(0.1 -0.1)">
       <defs>
        <path id="DejaVuSans-36" d="M 2113 2584 
Q 1688 2584 1439 2293 
Q 1191 2003 1191 1497 
Q 1191 994 1439 701 
Q 1688 409 2113 409 
Q 2538 409 2786 701 
Q 3034 994 3034 1497 
Q 3034 2003 2786 2293 
Q 2538 2584 2113 2584 
z
M 3366 4563 
L 3366 3988 
Q 3128 4100 2886 4159 
Q 2644 4219 2406 4219 
Q 1781 4219 1451 3797 
Q 1122 3375 1075 2522 
Q 1259 2794 1537 2939 
Q 1816 3084 2150 3084 
Q 2853 3084 3261 2657 
Q 3669 2231 3669 1497 
Q 3669 778 3244 343 
Q 2819 -91 2113 -91 
Q 1303 -91 875 529 
Q 447 1150 447 2328 
Q 447 3434 972 4092 
Q 1497 4750 2381 4750 
Q 2619 4750 2861 4703 
Q 3103 4656 3366 4563 
z
" transform="scale(0.015625)"/>
       </defs>
       <use xlink:href="#DejaVuSans-36"/>
       <use xlink:href="#DejaVuSans-2c" x="63.623047"/>
       <use xlink:href="#DejaVuSans-30" x="95.410156"/>
       <use xlink:href="#DejaVuSans-30" x="159.033203"/>
       <use xlink:href="#DejaVuSans-30" x="222.65625"/>
      </g>
     </g>
    </g>
    <g id="text_20">
     <!-- Bitrate (kbit/s) -->
     <g transform="translate(48.292187 181.574375) rotate(-90) scale(0.1 -0.1)">
      <defs>
       <path id="DejaVuSans-42" d="M 1259 2228 
L 1259 519 
L 2272 519 
Q 2781 519 3026 730 
Q 3272 941 3272 1375 
Q 3272 1813 3026 2020 
Q 2781 2228 2272 2228 
L 1259 2228 
z
M 1259 4147 
L 1259 2741 
L 2194 2741 
Q 2656 2741 2882 2914 
Q 3109 3088 3109 3444 
Q 3109 3797 2882 3972 
Q 2656 4147 2194 4147 
L 1259 4147 
z
M 628 4666 
L 2241 4666 
Q 2963 4666 3353 4366 
Q 3744 4066 3744 3513 
Q 3744 3084 3544 2831 
Q 3344 2578 2956 2516 
Q 3422 2416 3680 2098 
Q 3938 1781 3938 1306 
Q 3938 681 3513 340 
Q 3088 0 2303 0 
L 628 0 
L 628 4666 
z
" transform="scale(0.015625)"/>
       <path id="DejaVuSans-74" d="M 1172 4494 
L 1172 3500 
L 2356 3500 
L 2356 3053 
L 1172 3053 
L 1172 1153 
Q 1172 725 1289 603 
Q 1406 481 1766 481 
L 2356 481 
L 2356 0 
L 1766 0 
Q 1100 0 847 248 
Q 594 497 594 1153 
L 594 3053 
L 172 3053 
L 172 3500 
L 594 3500 
L 594 4494 
L 1172 4494 
z
" transform="scale(0.015625)"/>
       <path id="DejaVuSans-72" d="M 2631 2963 
Q 2534 3019 2420 3045 
Q 2306 3072 2169 3072 
Q 1681 3072 1420 2755 
Q 1159 2438 1159 1844 
L 1159 0 
L 581 0 
L 581 3500 
L 1159 3500 
L 1159 2956 
Q 1341 3275 1631 3429 
Q 1922 3584 2338 3584 
Q 2397 3584 2469 3576 
Q 2541 3569 2628 3553 
L 2631 2963 
z
" transform="scale(0.015625)"/>
       <path id="DejaVuSans-61" d="M 2194 1759 
Q 1497 1759 1228 1600 
Q 959 1441 959 1056 
Q 959 750 1161 570 
Q 1363 391 1709 391 
Q 2188 391 2477 730 
Q 2766 1069 2766 1631 
L 2766 1759 
L 2194 1759 
z
M 3341 1997 
L 3341 0 
L 2766 0 
L 2766 531 
Q 2569 213 2275 61 
Q 1981 -91 1556 -91 
Q 1019 -91 701 211 
Q 384 513 384 1019 
Q 384 1609 779 1909 
Q 1175 2209 1959 2209 
L 2766 2209 
L 2766 2266 
Q 2766 2663 2505 2880 
Q 2244 3097 1772 3097 
Q 1472 3097 1187 3025 
Q 903 2953 641 2809 
L 641 3341 
Q 956 3463 1253 3523 
Q 1550 3584 1831 3584 
Q 2591 3584 2966 3190 
Q 3341 2797 3341 1997 
z
" transform="scale(0.015625)"/>
       <path id="DejaVuSans-20" transform="scale(0.015625)"/>
       <path id="DejaVuSans-28" d="M 1984 4856 
Q 1566 4138 1362 3434 
Q 1159 2731 1159 2009 
Q 1159 1288 1364 580 
Q 1569 -128 1984 -844 
L 1484 -844 
Q 1016 -109 783 600 
Q 550 1309 550 2009 
Q 550 2706 781 3412 
Q 1013 4119 1484 4856 
L 1984 4856 
z
" transform="scale(0.015625)"/>
       <path id="DejaVuSans-6b" d="M 581 4863 
L 1159 4863 
L 1159 1991 
L 2875 3500 
L 3609 3500 
L 1753 1863 
L 3688 0 
L 2938 0 
L 1159 1709 
L 1159 0 
L 581 0 
L 581 4863 
z
" transform="scale(0.015625)"/>
       <path id="DejaVuSans-62" d="M 3116 1747 
Q 3116 2381 2855 2742 
Q 2594 3103 2138 3103 
Q 1681 3103 1420 2742 
Q 1159 2381 1159 1747 
Q 1159 1113 1420 752 
Q 1681 391 2138 391 
Q 2594 391 2855 752 
Q 3116 1113 3116 1747 
z
M 1159 2969 
Q 1341 3281 1617 3432 
Q 1894 3584 2278 3584 
Q 2916 3584 3314 3078 
Q 3713 2572 3713 1747 
Q 3713 922 3314 415 
Q 2916 -91 2278 -91 
Q 1894 -91 1617 61 
Q 1341 213 1159 525 
L 1159 0 
L 581 0 
L 581 4863 
L 1159 4863 
L 1159 2969 
z
" transform="scale(0.015625)"/>
       <path id="DejaVuSans-2f" d="M 1625 4666 
L 2156 4666 
L 531 -594 
L 0 -594 
L 1625 4666 
z
" transform="scale(0.015625)"/>
       <path id="DejaVuSans-73" d="M 2834 3397 
L 2834 2853 
Q 2591 2978 2328 3040 
Q 2066 3103 1784 3103 
Q 1356 3103 1142 2972 
Q 928 2841 928 2578 
Q 928 2378 1081 2264 
Q 1234 2150 1697 2047 
L 1894 2003 
Q 2506 1872 2764 1633 
Q 3022 1394 3022 966 
Q 3022 478 2636 193 
Q 2250 -91 1575 -91 
Q 1294 -91 989 -36 
Q 684 19 347 128 
L 347 722 
Q 666 556 975 473 
Q 1284 391 1588 391 
Q 1994 391 2212 530 
Q 2431 669 2431 922 
Q 2431 1156 2273 1281 
Q 2116 1406 1581 1522 
L 1381 1569 
Q 847 1681 609 1914 
Q 372 2147 372 2553 
Q 372 3047 722 3315 
Q 1072 3584 1716 3584 
Q 2034 3584 2315 3537 
Q 2597 3491 2834 3397 
z
" transform="scale(0.015625)"/>
       <path id="DejaVuSans-29" d="M 513 4856 
L 1013 4856 
Q 1481 4119 1714 3412 
Q 1947 2706 1947 2009 
Q 1947 1309 1714 600 
Q 1481 -109 1013 -844 
L 513 -844 
Q 928 -128 1133 580 
Q 1338 1288 1338 2009 
Q 1338 2731 1133 3434 
Q 928 4138 513 4856 
z
" transform="scale(0.015625)"/>
      </defs>
      <use xlink:href="#DejaVuSans-42"/>
      <use xlink:href="#DejaVuSans-69" x="68.603516"/>
      <use xlink:href="#DejaVuSans-74" x="96.386719"/>
      <use xlink:href="#DejaVuSans-72" x="135.595703"/>
      <use xlink:href="#DejaVuSans-61" x="176.708984"/>
      <use xlink:href="#DejaVuSans-74" x="237.988281"/>
      <use xlink:href="#DejaVuSans-65" x="277.197266"/>
      <use xlink:href="#DejaVuSans-20" x="338.720703"/>
      <use xlink:href="#DejaVuSans-28" x="370.507812"/>
      <use xlink:href="#DejaVuSans-6b" x="409.521484"/>
      <use xlink:href="#DejaVuSans-62" x="467.431641"/>
      <use xlink:href="#DejaVuSans-69" x="530.908203"/>
      <use xlink:href="#DejaVuSans-74" x="558.691406"/>
      <use xlink:href="#DejaVuSans-2f" x="597.900391"/>
      <use xlink:href="#DejaVuSans-73" x="631.591797"/>
      <use xlink:href="#DejaVuSans-29" x="683.691406"/>
     </g>
    </g>
   </g>
   <g id="PolyCollection_1">
    <defs>
     <path id="m90a755d8c2" d="M 115.363636 -44.00485 
L 115.363636 -41.76 
L 117.054545 -41.76 
L 118.745455 -41.76 
L 120.436364 -41.76 
L 122.127273 -41.76 
L 123.818182 -41.76 
L 125.509091 -41.76 
L 127.2 -41.76 
L 128.890909 -41.76 
L 130.581818 -41.76 
L 132.272727 -41.76 
L 133.963636 -41.76 
L 135.654545 -41.76 
L 137.345455 -41.76 
L 139.036364 -41.76 
L 140.727273 -41.76 
L 142.418182 -41.76 
L 144.109091 -41.76 
L 145.8 -41.76 
L 147.490909 -41.76 
L 149.181818 -41.76 
L 150.872727 -41.76 
L 152.563636 -41.76 
L 154.254545 -41.76 
L 155.945455 -41.76 
L 157.636364 -41.76 
L 159.327273 -41.76 
L 161.018182 -41.76 
L 162.709091 -41.76 
L 164.4 -41.76 
L 166.090909 -41.76 
L 167.781818 -41.76 
L 169.472727 -41.76 
L 171.163636 -41.76 
L 172.854545 -41.76 
L 174.545455 -41.76 
L 176.236364 -41.76 
L 177.927273 -41.76 
L 179.618182 -41.76 
L 181.309091 -41.76 
L 183 -41.76 
L 184.690909 -41.76 
L 186.381818 -41.76 
L 188.072727 -41.76 
L 189.763636 -41.76 
L 191.454545 -41.76 
L 193.145455 -41.76 
L 194.836364 -41.76 
L 196.527273 -41.76 
L 198.218182 -41.76 
L 199.909091 -41.76 
L 201.6 -41.76 
L 203.290909 -41.76 
L 204.981818 -41.76 
L 206.672727 -41.76 
L 208.363636 -41.76 
L 210.054545 -41.76 
L 211.745455 -41.76 
L 213.436364 -41.76 
L 215.127273 -41.76 
L 216.818182 -41.76 
L 218.509091 -41.76 
L 220.2 -41.76 
L 221.890909 -41.76 
L 223.581818 -41.76 
L 225.272727 -41.76 
L 226.963636 -41.76 
L 228.654545 -41.76 
L 230.345455 -41.76 
L 232.036364 -41.76 
L 233.727273 -41.76 
L 235.418182 -41.76 
L 237.109091 -41.76 
L 238.8 -41.76 
L 240.490909 -41.76 
L 242.181818 -41.76 
L 243.872727 -41.76 
L 245.563636 -41.76 
L 247.254545 -41.76 
L 248.945455 -41.76 
L 250.636364 -41.76 
L 252.327273 -41.76 
L 254.018182 -41.76 
L 255.709091 -41.76 
L 257.4 -41.76 
L 259.090909 -41.76 
L 260.781818 -41.76 
L 262.472727 -41.76 
L 264.163636 -41.76 
L 265.854545 -41.76 
L 267.545455 -41.76 
L 269.236364 -41.76 
L 270.927273 -41.76 
L 272.618182 -41.76 
L 274.309091 -41.76 
L 276 -41.76 
L 277.690909 -41.76 
L 279.381818 -41.76 
L 281.072727 -41.76 
L 282.763636 -41.76 
L 284.454545 -41.76 
L 286.145455 -41.76 
L 287.836364 -41.76 
L 289.527273 -41.76 
L 291.218182 -41.76 
L 292.909091 -41.76 
L 294.6 -41.76 
L 296.290909 -41.76 
L 297.981818 -41.76 
L 299.672727 -41.76 
L 301.363636 -41.76 
L 303.054545 -41.76 
L 304.745455 -41.76 
L 306.436364 -41.76 
L 308.127273 -41.76 
L 309.818182 -41.76 
L 311.509091 -41.76 
L 313.2 -41.76 
L 314.890909 -41.76 
L 316.581818 -41.76 
L 318.272727 -41.76 
L 319.963636 -41.76 
L 321.654545 -41.76 
L 323.345455 -41.76 
L 325.036364 -41.76 
L 326.727273 -41.76 
L 328.418182 -41.76 
L 330.109091 -41.76 
L 331.8 -41.76 
L 333.490909 -41.76 
L 335.181818 -41.76 
L 336.872727 -41.76 
L 338.563636 -41.76 
L 340.254545 -41.76 
L 341.945455 -41.76 
L 343.636364 -41.76 
L 345.327273 -41.76 
L 347.018182 -41.76 
L 348.709091 -41.76 
L 350.4 -41.76 
L 352.090909 -41.76 
L 353.781818 -41.76 
L 355.472727 -41.76 
L 357.163636 -41.76 
L 358.854545 -41.76 
L 360.545455 -41.76 
L 362.236364 -41.76 
L 363.927273 -41.76 
L 365.618182 -41.76 
L 367.309091 -41.76 
L 369 -41.76 
L 370.690909 -41.76 
L 372.381818 -41.76 
L 374.072727 -41.76 
L 375.763636 -41.76 
L 377.454545 -41.76 
L 379.145455 -41.76 
L 380.836364 -41.76 
L 382.527273 -41.76 
L 384.218182 -41.76 
L 385.909091 -41.76 
L 387.6 -41.76 
L 389.290909 -41.76 
L 390.981818 -41.76 
L 392.672727 -41.76 
L 394.363636 -41.76 
L 396.054545 -41.76 
L 397.745455 -41.76 
L 399.436364 -41.76 
L 401.127273 -41.76 
L 402.818182 -41.76 
L 404.509091 -41.76 
L 406.2 -41.76 
L 407.890909 -41.76 
L 409.581818 -41.76 
L 411.272727 -41.76 
L 412.963636 -41.76 
L 414.654545 -41.76 
L 416.345455 -41.76 
L 418.036364 -41.76 
L 419.727273 -41.76 
L 421.418182 -41.76 
L 423.109091 -41.76 
L 424.8 -41.76 
L 426.490909 -41.76 
L 428.181818 -41.76 
L 429.872727 -41.76 
L 431.563636 -41.76 
L 433.254545 -41.76 
L 434.945455 -41.76 
L 436.636364 -41.76 
L 438.327273 -41.76 
L 440.018182 -41.76 
L 441.709091 -41.76 
L 443.4 -41.76 
L 445.090909 -41.76 
L 446.781818 -41.76 
L 448.472727 -41.76 
L 450.163636 -41.76 
L 451.854545 -41.76 
L 453.545455 -41.76 
L 455.236364 -41.76 
L 456.927273 -41.76 
L 458.618182 -41.76 
L 460.309091 -41.76 
L 462 -41.76 
L 463.690909 -41.76 
L 465.381818 -41.76 
L 467.072727 -41.76 
L 468.763636 -41.76 
L 470.454545 -41.76 
L 472.145455 -41.76 
L 473.836364 -41.76 
L 475.527273 -41.76 
L 477.218182 -41.76 
L 478.909091 -41.76 
L 480.6 -41.76 
L 482.290909 -41.76 
L 483.981818 -41.76 
L 485.672727 -41.76 
L 487.363636 -41.76 
L 489.054545 -41.76 
L 490.745455 -41.76 
L 492.436364 -41.76 
L 494.127273 -41.76 
L 495.818182 -41.76 
L 497.509091 -41.76 
L 499.2 -41.76 
L 500.890909 -41.76 
L 502.581818 -41.76 
L 504.272727 -41.76 
L 505.963636 -41.76 
L 507.654545 -41.76 
L 509.345455 -41.76 
L 511.036364 -41.76 
L 512.727273 -41.76 
L 514.418182 -41.76 
L 516.109091 -41.76 
L 517.8 -41.76 
L 519.490909 -41.76 
L 521.181818 -41.76 
L 522.872727 -41.76 
L 524.563636 -41.76 
L 526.254545 -41.76 
L 527.945455 -41.76 
L 529.636364 -41.76 
L 531.327273 -41.76 
L 533.018182 -41.76 
L 534.709091 -41.76 
L 536.4 -41.76 
L 538.090909 -41.76 
L 539.781818 -41.76 
L 541.472727 -41.76 
L 543.163636 -41.76 
L 544.854545 -41.76 
L 546.545455 -41.76 
L 548.236364 -41.76 
L 549.927273 -41.76 
L 551.618182 -41.76 
L 553.309091 -41.76 
L 555 -41.76 
L 556.690909 -41.76 
L 558.381818 -41.76 
L 560.072727 -41.76 
L 561.763636 -41.76 
L 563.454545 -41.76 
L 565.145455 -41.76 
L 566.836364 -41.76 
L 568.527273 -41.76 
L 570.218182 -41.76 
L 571.909091 -41.76 
L 573.6 -41.76 
L 575.290909 -41.76 
L 576.981818 -41.76 
L 578.672727 -41.76 
L 580.363636 -41.76 
L 582.054545 -41.76 
L 583.745455 -41.76 
L 585.436364 -41.76 
L 587.127273 -41.76 
L 588.818182 -41.76 
L 590.509091 -41.76 
L 592.2 -41.76 
L 593.890909 -41.76 
L 595.581818 -41.76 
L 597.272727 -41.76 
L 598.963636 -41.76 
L 600.654545 -41.76 
L 602.345455 -41.76 
L 604.036364 -41.76 
L 605.727273 -41.76 
L 607.418182 -41.76 
L 609.109091 -41.76 
L 610.8 -41.76 
L 612.490909 -41.76 
L 614.181818 -41.76 
L 615.872727 -41.76 
L 617.563636 -41.76 
L 619.254545 -41.76 
L 620.945455 -41.76 
L 622.636364 -41.76 
L 622.636364 -41.76 
L 622.636364 -41.76 
L 620.945455 -62.867826 
L 619.254545 -41.76 
L 617.563636 -41.76 
L 615.872727 -62.961361 
L 614.181818 -41.76 
L 612.490909 -41.76 
L 610.8 -113.314593 
L 609.109091 -41.76 
L 607.418182 -41.76 
L 605.727273 -41.76 
L 604.036364 -121.109211 
L 602.345455 -41.76 
L 600.654545 -41.76 
L 598.963636 -41.76 
L 597.272727 -76.898138 
L 595.581818 -92.674445 
L 593.890909 -41.76 
L 592.2 -99.066032 
L 590.509091 -41.76 
L 588.818182 -57.629842 
L 587.127273 -41.76 
L 585.436364 -109.604355 
L 583.745455 -41.76 
L 582.054545 -41.76 
L 580.363636 -41.76 
L 578.672727 -109.1055 
L 576.981818 -41.76 
L 575.290909 -41.76 
L 573.6 -41.76 
L 571.909091 -75.2145 
L 570.218182 -41.76 
L 568.527273 -81.481373 
L 566.836364 -80.951339 
L 565.145455 -41.76 
L 563.454545 -58.502839 
L 561.763636 -41.76 
L 560.072727 -144.212459 
L 558.381818 -41.76 
L 556.690909 -91.988518 
L 555 -41.76 
L 553.309091 -60.872403 
L 551.618182 -102.246236 
L 549.927273 -41.76 
L 548.236364 -55.852669 
L 546.545455 -60.997117 
L 544.854545 -41.76 
L 543.163636 -41.76 
L 541.472727 -67.794024 
L 539.781818 -41.76 
L 538.090909 -41.76 
L 536.4 -41.76 
L 534.709091 -41.76 
L 533.018182 -96.665289 
L 531.327273 -134.110634 
L 529.636364 -66.45335 
L 527.945455 -41.76 
L 526.254545 -41.76 
L 524.563636 -41.76 
L 522.872727 -67.794024 
L 521.181818 -41.76 
L 519.490909 -41.76 
L 517.8 -41.76 
L 516.109091 -41.76 
L 514.418182 -62.77429 
L 512.727273 -41.76 
L 511.036364 -127.937297 
L 509.345455 -41.76 
L 507.654545 -41.76 
L 505.963636 -41.76 
L 504.272727 -60.716511 
L 502.581818 -41.76 
L 500.890909 -146.831451 
L 499.2 -41.76 
L 497.509091 -41.76 
L 495.818182 -88.184745 
L 494.127273 -56.257989 
L 492.436364 -41.76 
L 490.745455 -67.076919 
L 489.054545 -41.76 
L 487.363636 -41.76 
L 485.672727 -41.76 
L 483.981818 -59.188766 
L 482.290909 -41.76 
L 480.6 -68.573486 
L 478.909091 -41.76 
L 477.218182 -41.76 
L 475.527273 -68.043452 
L 473.836364 -41.76 
L 472.145455 -65.736245 
L 470.454545 -71.847225 
L 468.763636 -41.76 
L 467.072727 -89.026564 
L 465.381818 -41.76 
L 463.690909 -41.76 
L 462 -41.76 
L 460.309091 -70.911871 
L 458.618182 -41.76 
L 456.927273 -41.76 
L 455.236364 -57.037451 
L 453.545455 -63.273146 
L 451.854545 -57.255701 
L 450.163636 -41.76 
L 448.472727 -41.76 
L 446.781818 -57.162165 
L 445.090909 -41.76 
L 443.4 -41.76 
L 441.709091 -88.49653 
L 440.018182 -41.76 
L 438.327273 -41.76 
L 436.636364 -50.521151 
L 434.945455 -74.185611 
L 433.254545 -41.76 
L 431.563636 -41.76 
L 429.872727 -41.76 
L 428.181818 -41.76 
L 426.490909 -80.701912 
L 424.8 -41.76 
L 423.109091 -79.018274 
L 421.418182 -41.76 
L 419.727273 -85.565753 
L 418.036364 -41.76 
L 416.345455 -58.658732 
L 414.654545 -41.76 
L 412.963636 -41.76 
L 411.272727 -41.76 
L 409.581818 -41.76 
L 407.890909 -58.658732 
L 406.2 -91.115521 
L 404.509091 -41.76 
L 402.818182 -63.054896 
L 401.127273 -41.76 
L 399.436364 -41.76 
L 397.745455 -91.115521 
L 396.054545 -60.872403 
L 394.363636 -91.863805 
L 392.672727 -94.389261 
L 390.981818 -41.76 
L 389.290909 -41.76 
L 387.6 -41.76 
L 385.909091 -99.720779 
L 384.218182 -41.76 
L 382.527273 -41.76 
L 380.836364 -82.292014 
L 379.145455 -41.76 
L 377.454545 -41.76 
L 375.763636 -41.76 
L 374.072727 -88.340637 
L 372.381818 -41.76 
L 370.690909 -41.76 
L 369 -176.981033 
L 367.309091 -41.76 
L 365.618182 -41.76 
L 363.927273 -71.722512 
L 362.236364 -41.76 
L 360.545455 -41.76 
L 358.854545 -41.76 
L 357.163636 -82.385549 
L 355.472727 -41.76 
L 353.781818 -41.76 
L 352.090909 -41.76 
L 350.4 -82.479084 
L 348.709091 -41.76 
L 347.018182 -41.76 
L 345.327273 -41.76 
L 343.636364 -79.454773 
L 341.945455 -41.76 
L 340.254545 -41.76 
L 338.563636 -41.76 
L 336.872727 -84.069187 
L 335.181818 -41.76 
L 333.490909 -41.76 
L 331.8 -41.76 
L 330.109091 -79.673022 
L 328.418182 -41.76 
L 326.727273 -74.435039 
L 325.036364 -41.76 
L 323.345455 -41.76 
L 321.654545 -86.532286 
L 319.963636 -97.195323 
L 318.272727 -41.76 
L 316.581818 -41.76 
L 314.890909 -41.76 
L 313.2 -108.450752 
L 311.509091 -53.732533 
L 309.818182 -41.76 
L 308.127273 -41.76 
L 306.436364 -41.76 
L 304.745455 -58.534018 
L 303.054545 -41.76 
L 301.363636 -41.76 
L 299.672727 -41.76 
L 297.981818 -60.030585 
L 296.290909 -41.76 
L 294.6 -41.76 
L 292.909091 -41.76 
L 291.218182 -122.387529 
L 289.527273 -41.76 
L 287.836364 -41.76 
L 286.145455 -41.76 
L 284.454545 -41.76 
L 282.763636 -73.406149 
L 281.072727 -41.76 
L 279.381818 -41.76 
L 277.690909 -41.76 
L 276 -78.955917 
L 274.309091 -88.028852 
L 272.618182 -41.76 
L 270.927273 -76.960495 
L 269.236364 -41.76 
L 267.545455 -41.76 
L 265.854545 -41.76 
L 264.163636 -73.312614 
L 262.472727 -41.76 
L 260.781818 -41.76 
L 259.090909 -41.76 
L 257.4 -88.465351 
L 255.709091 -41.76 
L 254.018182 -41.76 
L 252.327273 -41.76 
L 250.636364 -41.76 
L 248.945455 -88.371816 
L 247.254545 -41.76 
L 245.563636 -61.277723 
L 243.872727 -41.76 
L 242.181818 -117.05601 
L 240.490909 -41.76 
L 238.8 -82.198478 
L 237.109091 -57.162165 
L 235.418182 -41.76 
L 233.727273 -41.76 
L 232.036364 -41.76 
L 230.345455 -98.037142 
L 228.654545 -41.76 
L 226.963636 -41.76 
L 225.272727 -64.489106 
L 223.581818 -62.930182 
L 221.890909 -41.76 
L 220.2 -41.76 
L 218.509091 -41.76 
L 216.818182 -90.211345 
L 215.127273 -41.76 
L 213.436364 -41.76 
L 211.745455 -41.76 
L 210.054545 -96.945895 
L 208.363636 -41.76 
L 206.672727 -41.76 
L 204.981818 -41.76 
L 203.290909 -114.094055 
L 201.6 -41.76 
L 199.909091 -41.76 
L 198.218182 -41.76 
L 196.527273 -80.078342 
L 194.836364 -41.76 
L 193.145455 -41.76 
L 191.454545 -41.76 
L 189.763636 -41.76 
L 188.072727 -83.009118 
L 186.381818 -41.76 
L 184.690909 -41.76 
L 183 -41.76 
L 181.309091 -97.132966 
L 179.618182 -41.76 
L 177.927273 -41.76 
L 176.236364 -41.76 
L 174.545455 -108.669001 
L 172.854545 -41.76 
L 171.163636 -41.76 
L 169.472727 -41.76 
L 167.781818 -104.958763 
L 166.090909 -41.76 
L 164.4 -41.76 
L 162.709091 -41.76 
L 161.018182 -135.045988 
L 159.327273 -41.76 
L 157.636364 -41.76 
L 155.945455 -62.77429 
L 154.254545 -41.76 
L 152.563636 -41.76 
L 150.872727 -41.76 
L 149.181818 -66.235101 
L 147.490909 -41.76 
L 145.8 -41.76 
L 144.109091 -41.76 
L 142.418182 -124.102345 
L 140.727273 -41.76 
L 139.036364 -41.76 
L 137.345455 -41.76 
L 135.654545 -99.159567 
L 133.963636 -41.76 
L 132.272727 -41.76 
L 130.581818 -41.76 
L 128.890909 -68.324058 
L 127.2 -41.76 
L 125.509091 -41.76 
L 123.818182 -41.76 
L 122.127273 -44.41017 
L 120.436364 -41.76 
L 118.745455 -41.76 
L 117.054545 -41.76 
L 115.363636 -44.00485 
z
" style="stroke: #ff0000; stroke-width: 0.5"/>
    </defs>
    <g clip-path="url(#pbd6f11c678)">
     <use xlink:href="#m90a755d8c2" x="0" y="288" style="fill: #ff0000; stroke: #ff0000; stroke-width: 0.5"/>
    </g>
   </g>
   <g id="PolyCollection_2">
    <defs>
     <path id="md26789588d" d="M 115.363636 -47.216233 
L 115.363636 -44.00485 
L 117.054545 -41.76 
L 118.745455 -41.76 
L 120.436364 -41.76 
L 122.127273 -44.41017 
L 123.818182 -41.76 
L 125.509091 -41.76 
L 127.2 -41.76 
L 128.890909 -68.324058 
L 130.581818 -41.76 
L 132.272727 -41.76 
L 133.963636 -41.76 
L 135.654545 -99.159567 
L 137.345455 -41.76 
L 139.036364 -41.76 
L 140.727273 -41.76 
L 142.418182 -124.102345 
L 144.109091 -41.76 
L 145.8 -41.76 
L 147.490909 -41.76 
L 149.181818 -66.235101 
L 150.872727 -41.76 
L 152.563636 -41.76 
L 154.254545 -41.76 
L 155.945455 -62.77429 
L 157.636364 -41.76 
L 159.327273 -41.76 
L 161.018182 -135.045988 
L 162.709091 -41.76 
L 164.4 -41.76 
L 166.090909 -41.76 
L 167.781818 -104.958763 
L 169.472727 -41.76 
L 171.163636 -41.76 
L 172.854545 -41.76 
L 174.545455 -108.669001 
L 176.236364 -41.76 
L 177.927273 -41.76 
L 179.618182 -41.76 
L 181.309091 -97.132966 
L 183 -41.76 
L 184.690909 -41.76 
L 186.381818 -41.76 
L 188.072727 -83.009118 
L 189.763636 -41.76 
L 191.454545 -41.76 
L 193.145455 -41.76 
L 194.836364 -41.76 
L 196.527273 -80.078342 
L 198.218182 -41.76 
L 199.909091 -41.76 
L 201.6 -41.76 
L 203.290909 -114.094055 
L 204.981818 -41.76 
L 206.672727 -41.76 
L 208.363636 -41.76 
L 210.054545 -96.945895 
L 211.745455 -41.76 
L 213.436364 -41.76 
L 215.127273 -41.76 
L 216.818182 -90.211345 
L 218.509091 -41.76 
L 220.2 -41.76 
L 221.890909 -41.76 
L 223.581818 -62.930182 
L 225.272727 -64.489106 
L 226.963636 -41.76 
L 228.654545 -41.76 
L 230.345455 -98.037142 
L 232.036364 -41.76 
L 233.727273 -41.76 
L 235.418182 -41.76 
L 237.109091 -57.162165 
L 238.8 -82.198478 
L 240.490909 -41.76 
L 242.181818 -117.05601 
L 243.872727 -41.76 
L 245.563636 -61.277723 
L 247.254545 -41.76 
L 248.945455 -88.371816 
L 250.636364 -41.76 
L 252.327273 -41.76 
L 254.018182 -41.76 
L 255.709091 -41.76 
L 257.4 -88.465351 
L 259.090909 -41.76 
L 260.781818 -41.76 
L 262.472727 -41.76 
L 264.163636 -73.312614 
L 265.854545 -41.76 
L 267.545455 -41.76 
L 269.236364 -41.76 
L 270.927273 -76.960495 
L 272.618182 -41.76 
L 274.309091 -88.028852 
L 276 -78.955917 
L 277.690909 -41.76 
L 279.381818 -41.76 
L 281.072727 -41.76 
L 282.763636 -73.406149 
L 284.454545 -41.76 
L 286.145455 -41.76 
L 287.836364 -41.76 
L 289.527273 -41.76 
L 291.218182 -122.387529 
L 292.909091 -41.76 
L 294.6 -41.76 
L 296.290909 -41.76 
L 297.981818 -60.030585 
L 299.672727 -41.76 
L 301.363636 -41.76 
L 303.054545 -41.76 
L 304.745455 -58.534018 
L 306.436364 -41.76 
L 308.127273 -41.76 
L 309.818182 -41.76 
L 311.509091 -53.732533 
L 313.2 -108.450752 
L 314.890909 -41.76 
L 316.581818 -41.76 
L 318.272727 -41.76 
L 319.963636 -97.195323 
L 321.654545 -86.532286 
L 323.345455 -41.76 
L 325.036364 -41.76 
L 326.727273 -74.435039 
L 328.418182 -41.76 
L 330.109091 -79.673022 
L 331.8 -41.76 
L 333.490909 -41.76 
L 335.181818 -41.76 
L 336.872727 -84.069187 
L 338.563636 -41.76 
L 340.254545 -41.76 
L 341.945455 -41.76 
L 343.636364 -79.454773 
L 345.327273 -41.76 
L 347.018182 -41.76 
L 348.709091 -41.76 
L 350.4 -82.479084 
L 352.090909 -41.76 
L 353.781818 -41.76 
L 355.472727 -41.76 
L 357.163636 -82.385549 
L 358.854545 -41.76 
L 360.545455 -41.76 
L 362.236364 -41.76 
L 363.927273 -71.722512 
L 365.618182 -41.76 
L 367.309091 -41.76 
L 369 -176.981033 
L 370.690909 -41.76 
L 372.381818 -41.76 
L 374.072727 -88.340637 
L 375.763636 -41.76 
L 377.454545 -41.76 
L 379.145455 -41.76 
L 380.836364 -82.292014 
L 382.527273 -41.76 
L 384.218182 -41.76 
L 385.909091 -99.720779 
L 387.6 -41.76 
L 389.290909 -41.76 
L 390.981818 -41.76 
L 392.672727 -94.389261 
L 394.363636 -91.863805 
L 396.054545 -60.872403 
L 397.745455 -91.115521 
L 399.436364 -41.76 
L 401.127273 -41.76 
L 402.818182 -63.054896 
L 404.509091 -41.76 
L 406.2 -91.115521 
L 407.890909 -58.658732 
L 409.581818 -41.76 
L 411.272727 -41.76 
L 412.963636 -41.76 
L 414.654545 -41.76 
L 416.345455 -58.658732 
L 418.036364 -41.76 
L 419.727273 -85.565753 
L 421.418182 -41.76 
L 423.109091 -79.018274 
L 424.8 -41.76 
L 426.490909 -80.701912 
L 428.181818 -41.76 
L 429.872727 -41.76 
L 431.563636 -41.76 
L 433.254545 -41.76 
L 434.945455 -74.185611 
L 436.636364 -50.521151 
L 438.327273 -41.76 
L 440.018182 -41.76 
L 441.709091 -88.49653 
L 443.4 -41.76 
L 445.090909 -41.76 
L 446.781818 -57.162165 
L 448.472727 -41.76 
L 450.163636 -41.76 
L 451.854545 -57.255701 
L 453.545455 -63.273146 
L 455.236364 -57.037451 
L 456.927273 -41.76 
L 458.618182 -41.76 
L 460.309091 -70.911871 
L 462 -41.76 
L 463.690909 -41.76 
L 465.381818 -41.76 
L 467.072727 -89.026564 
L 468.763636 -41.76 
L 470.454545 -71.847225 
L 472.145455 -65.736245 
L 473.836364 -41.76 
L 475.527273 -68.043452 
L 477.218182 -41.76 
L 478.909091 -41.76 
L 480.6 -68.573486 
L 482.290909 -41.76 
L 483.981818 -59.188766 
L 485.672727 -41.76 
L 487.363636 -41.76 
L 489.054545 -41.76 
L 490.745455 -67.076919 
L 492.436364 -41.76 
L 494.127273 -56.257989 
L 495.818182 -88.184745 
L 497.509091 -41.76 
L 499.2 -41.76 
L 500.890909 -146.831451 
L 502.581818 -41.76 
L 504.272727 -60.716511 
L 505.963636 -41.76 
L 507.654545 -41.76 
L 509.345455 -41.76 
L 511.036364 -127.937297 
L 512.727273 -41.76 
L 514.418182 -62.77429 
L 516.109091 -41.76 
L 517.8 -41.76 
L 519.490909 -41.76 
L 521.181818 -41.76 
L 522.872727 -67.794024 
L 524.563636 -41.76 
L 526.254545 -41.76 
L 527.945455 -41.76 
L 529.636364 -66.45335 
L 531.327273 -134.110634 
L 533.018182 -96.665289 
L 534.709091 -41.76 
L 536.4 -41.76 
L 538.090909 -41.76 
L 539.781818 -41.76 
L 541.472727 -67.794024 
L 543.163636 -41.76 
L 544.854545 -41.76 
L 546.545455 -60.997117 
L 548.236364 -55.852669 
L 549.927273 -41.76 
L 551.618182 -102.246236 
L 553.309091 -60.872403 
L 555 -41.76 
L 556.690909 -91.988518 
L 558.381818 -41.76 
L 560.072727 -144.212459 
L 561.763636 -41.76 
L 563.454545 -58.502839 
L 565.145455 -41.76 
L 566.836364 -80.951339 
L 568.527273 -81.481373 
L 570.218182 -41.76 
L 571.909091 -75.2145 
L 573.6 -41.76 
L 575.290909 -41.76 
L 576.981818 -41.76 
L 578.672727 -109.1055 
L 580.363636 -41.76 
L 582.054545 -41.76 
L 583.745455 -41.76 
L 585.436364 -109.604355 
L 587.127273 -41.76 
L 588.818182 -57.629842 
L 590.509091 -41.76 
L 592.2 -99.066032 
L 593.890909 -41.76 
L 595.581818 -92.674445 
L 597.272727 -76.898138 
L 598.963636 -41.76 
L 600.654545 -41.76 
L 602.345455 -41.76 
L 604.036364 -121.109211 
L 605.727273 -41.76 
L 607.418182 -41.76 
L 609.109091 -41.76 
L 610.8 -113.314593 
L 612.490909 -41.76 
L 614.181818 -41.76 
L 615.872727 -62.961361 
L 617.563636 -41.76 
L 619.254545 -41.76 
L 620.945455 -62.867826 
L 622.636364 -41.76 
L 622.636364 -41.76 
L 622.636364 -41.76 
L 620.945455 -81.450195 
L 619.254545 -72.252546 
L 617.563636 -59.064052 
L 615.872727 -70.506551 
L 614.181818 -45.782023 
L 612.490909 -47.403303 
L 610.8 -119.737358 
L 609.109091 -52.142431 
L 607.418182 -46.405592 
L 605.727273 -44.846669 
L 604.036364 -125.474197 
L 602.345455 -63.522573 
L 600.654545 -62.649576 
L 598.963636 -64.239678 
L 597.272727 -104.584621 
L 595.581818 -125.567733 
L 593.890909 -52.703644 
L 592.2 -111.1321 
L 590.509091 -61.308902 
L 588.818182 -75.089787 
L 587.127273 -54.730244 
L 585.436364 -117.180724 
L 583.745455 -88.777136 
L 582.054545 -99.377816 
L 580.363636 -94.451618 
L 578.672727 -127.812583 
L 576.981818 -53.763712 
L 575.290909 -50.147009 
L 573.6 -55.2291 
L 571.909091 -80.452484 
L 570.218182 -54.41846 
L 568.527273 -89.650133 
L 566.836364 -96.977074 
L 565.145455 -55.759134 
L 563.454545 -75.245679 
L 561.763636 -49.149298 
L 560.072727 -157.494488 
L 558.381818 -59.594086 
L 556.690909 -106.330616 
L 555 -50.365258 
L 553.309091 -68.667021 
L 551.618182 -116.713047 
L 549.927273 -69.945339 
L 548.236364 -76.025141 
L 546.545455 -72.720223 
L 544.854545 -48.120408 
L 543.163636 -57.224522 
L 541.472727 -114.094055 
L 539.781818 -61.15301 
L 538.090909 -68.136987 
L 536.4 -70.070053 
L 534.709091 -111.53742 
L 533.018182 -126.503087 
L 531.327273 -147.267949 
L 529.636364 -81.606087 
L 527.945455 -48.058051 
L 526.254545 -47.964516 
L 524.563636 -46.873269 
L 522.872727 -74.590931 
L 521.181818 -49.866403 
L 519.490909 -47.777445 
L 517.8 -55.135564 
L 516.109091 -66.328636 
L 514.418182 -70.475373 
L 512.727273 -44.940204 
L 511.036364 -132.458175 
L 509.345455 -64.894426 
L 507.654545 -54.169032 
L 505.963636 -68.635843 
L 504.272727 -87.031141 
L 502.581818 -49.180476 
L 500.890909 -148.07859 
L 499.2 -43.505994 
L 497.509091 -43.443637 
L 495.818182 -92.923873 
L 494.127273 -64.863248 
L 492.436364 -59.251123 
L 490.745455 -92.300303 
L 489.054545 -58.596375 
L 487.363636 -57.567485 
L 485.672727 -56.195633 
L 483.981818 -72.689044 
L 482.290909 -82.728512 
L 480.6 -117.305438 
L 478.909091 -91.95734 
L 477.218182 -97.507108 
L 475.527273 -113.938163 
L 473.836364 -54.387281 
L 472.145455 -82.884405 
L 470.454545 -91.583198 
L 468.763636 -48.401015 
L 467.072727 -95.01283 
L 465.381818 -52.485394 
L 463.690909 -51.55004 
L 462 -61.55833 
L 460.309091 -84.443328 
L 458.618182 -53.420749 
L 456.927273 -53.171321 
L 455.236364 -72.938472 
L 453.545455 -106.923006 
L 451.854545 -78.955917 
L 450.163636 -63.491395 
L 448.472727 -80.608376 
L 446.781818 -85.316325 
L 445.090909 -44.534884 
L 443.4 -43.724244 
L 441.709091 -98.348927 
L 440.018182 -77.334637 
L 438.327273 -85.971073 
L 436.636364 -72.844937 
L 434.945455 -92.736802 
L 433.254545 -80.670733 
L 431.563636 -81.263124 
L 429.872727 -82.603798 
L 428.181818 -80.015985 
L 426.490909 -96.634111 
L 424.8 -52.703644 
L 423.109091 -91.053164 
L 421.418182 -83.78858 
L 419.727273 -115.871228 
L 418.036364 -55.572063 
L 416.345455 -68.573486 
L 414.654545 -53.79489 
L 412.963636 -46.997983 
L 411.272727 -49.741689 
L 409.581818 -50.365258 
L 407.890909 -78.831203 
L 406.2 -100.687312 
L 404.509091 -49.336369 
L 402.818182 -74.653288 
L 401.127273 -52.703644 
L 399.436364 -56.819202 
L 397.745455 -102.869805 
L 396.054545 -72.15901 
L 394.363636 -100.999097 
L 392.672727 -102.589199 
L 390.981818 -51.051185 
L 389.290909 -46.467949 
L 387.6 -46.779734 
L 385.909091 -102.121522 
L 384.218182 -50.7394 
L 382.527273 -54.169032 
L 380.836364 -104.958763 
L 379.145455 -58.783446 
L 377.454545 -53.950783 
L 375.763636 -52.235967 
L 374.072727 -93.57862 
L 372.381818 -47.309768 
L 370.690909 -46.65502 
L 369 -180.410665 
L 367.309091 -48.525728 
L 365.618182 -54.854958 
L 363.927273 -105.052298 
L 362.236364 -54.20021 
L 360.545455 -50.552329 
L 358.854545 -60.155298 
L 357.163636 -99.377816 
L 355.472727 -64.489106 
L 353.781818 -47.247411 
L 352.090909 -52.610108 
L 350.4 -97.320037 
L 348.709091 -50.209366 
L 347.018182 -47.964516 
L 345.327273 -48.743978 
L 343.636364 -90.897272 
L 341.945455 -47.559196 
L 340.254545 -48.993406 
L 338.563636 -59.219944 
L 336.872727 -99.471352 
L 335.181818 -53.202499 
L 333.490909 -52.298324 
L 331.8 -53.638998 
L 330.109091 -105.052298 
L 328.418182 -65.050319 
L 326.727273 -100.157278 
L 325.036364 -66.921027 
L 323.345455 -86.594643 
L 321.654545 -104.366372 
L 319.963636 -110.757959 
L 318.272727 -65.299746 
L 316.581818 -57.037451 
L 314.890909 -54.41846 
L 313.2 -128.093189 
L 311.509091 -74.778002 
L 309.818182 -62.867826 
L 308.127273 -64.738534 
L 306.436364 -61.776579 
L 304.745455 -85.098076 
L 303.054545 -58.471661 
L 301.363636 -60.560619 
L 299.672727 -53.140142 
L 297.981818 -67.700489 
L 296.290909 -46.156165 
L 294.6 -59.937049 
L 292.909091 -49.30519 
L 291.218182 -127.157835 
L 289.527273 -48.931049 
L 287.836364 -49.086941 
L 286.145455 -47.46566 
L 284.454545 -49.741689 
L 282.763636 -78.987096 
L 281.072727 -46.000272 
L 279.381818 -46.124986 
L 277.690909 -45.407881 
L 276 -80.047164 
L 274.309091 -90.055453 
L 272.618182 -46.312057 
L 270.927273 -80.514841 
L 269.236364 -49.492261 
L 267.545455 -47.995694 
L 265.854545 -43.537173 
L 264.163636 -78.831203 
L 262.472727 -56.881559 
L 260.781818 -69.446483 
L 259.090909 -74.715645 
L 257.4 -124.757092 
L 255.709091 -100.1261 
L 254.018182 -109.1055 
L 252.327273 -100.93674 
L 250.636364 -78.176455 
L 248.945455 -115.247659 
L 247.254545 -58.440483 
L 245.563636 -67.108098 
L 243.872727 -47.496839 
L 242.181818 -120.73507 
L 240.490909 -45.84438 
L 238.8 -104.459907 
L 237.109091 -72.96965 
L 235.418182 -74.528574 
L 233.727273 -65.175032 
L 232.036364 -53.732533 
L 230.345455 -103.18159 
L 228.654545 -52.610108 
L 226.963636 -51.581219 
L 225.272727 -75.806891 
L 223.581818 -67.762846 
L 221.890909 -47.153876 
L 220.2 -50.957649 
L 218.509091 -45.376703 
L 216.818182 -99.066032 
L 215.127273 -52.98425 
L 213.436364 -43.973672 
L 211.745455 -46.062629 
L 210.054545 -101.809737 
L 208.363636 -53.420749 
L 206.672727 -69.228234 
L 204.981818 -80.577198 
L 203.290909 -138.132657 
L 201.6 -61.121831 
L 199.909091 -60.280012 
L 198.218182 -62.213078 
L 196.527273 -99.09721 
L 194.836364 -56.725667 
L 193.145455 -59.999406 
L 191.454545 -59.625264 
L 189.763636 -61.215367 
L 188.072727 -103.680445 
L 186.381818 -62.587219 
L 184.690909 -63.241967 
L 183 -63.990251 
L 181.309091 -124.445308 
L 179.618182 -70.038874 
L 177.927273 -69.945339 
L 176.236364 -70.070053 
L 174.545455 -135.669558 
L 172.854545 -69.290591 
L 171.163636 -69.789446 
L 169.472727 -69.695911 
L 167.781818 -133.362351 
L 166.090909 -69.664732 
L 164.4 -69.50884 
L 162.709091 -69.321769 
L 161.018182 -150.635224 
L 159.327273 -44.534884 
L 157.636364 -52.485394 
L 155.945455 -83.632688 
L 154.254545 -48.401015 
L 152.563636 -57.255701 
L 150.872727 -52.57893 
L 149.181818 -78.987096 
L 147.490909 -69.415305 
L 145.8 -70.225945 
L 144.109091 -68.012273 
L 142.418182 -147.112057 
L 140.727273 -60.435905 
L 139.036364 -60.217655 
L 137.345455 -67.856381 
L 135.654545 -119.30086 
L 133.963636 -66.484528 
L 132.272727 -63.17961 
L 130.581818 -67.26399 
L 128.890909 -97.195323 
L 127.2 -66.671599 
L 125.509091 -56.320346 
L 123.818182 -49.242833 
L 122.127273 -65.268568 
L 120.436364 -49.554618 
L 118.745455 -43.318924 
L 117.054545 -44.098385 
L 115.363636 -47.216233 
z
" style="stroke: #0000ff; stroke-width: 0.5"/>
    </defs>
    <g clip-path="url(#pbd6f11c678)">
     <use xlink:href="#md26789588d" x="0" y="288" style="fill: #0000ff; stroke: #0000ff; stroke-width: 0.5"/>
    </g>
   </g>
   <g id="PolyCollection_3">
    <defs>
     <path id="ma96ef11758" d="M 115.363636 -56.819202 
L 115.363636 -47.216233 
L 117.054545 -44.098385 
L 118.745455 -43.318924 
L 120.436364 -49.554618 
L 122.127273 -65.268568 
L 123.818182 -49.242833 
L 125.509091 -56.320346 
L 127.2 -66.671599 
L 128.890909 -97.195323 
L 130.581818 -67.26399 
L 132.272727 -63.17961 
L 133.963636 -66.484528 
L 135.654545 -119.30086 
L 137.345455 -67.856381 
L 139.036364 -60.217655 
L 140.727273 -60.435905 
L 142.418182 -147.112057 
L 144.109091 -68.012273 
L 145.8 -70.225945 
L 147.490909 -69.415305 
L 149.181818 -78.987096 
L 150.872727 -52.57893 
L 152.563636 -57.255701 
L 154.254545 -48.401015 
L 155.945455 -83.632688 
L 157.636364 -52.485394 
L 159.327273 -44.534884 
L 161.018182 -150.635224 
L 162.709091 -69.321769 
L 164.4 -69.50884 
L 166.090909 -69.664732 
L 167.781818 -133.362351 
L 169.472727 -69.695911 
L 171.163636 -69.789446 
L 172.854545 -69.290591 
L 174.545455 -135.669558 
L 176.236364 -70.070053 
L 177.927273 -69.945339 
L 179.618182 -70.038874 
L 181.309091 -124.445308 
L 183 -63.990251 
L 184.690909 -63.241967 
L 186.381818 -62.587219 
L 188.072727 -103.680445 
L 189.763636 -61.215367 
L 191.454545 -59.625264 
L 193.145455 -59.999406 
L 194.836364 -56.725667 
L 196.527273 -99.09721 
L 198.218182 -62.213078 
L 199.909091 -60.280012 
L 201.6 -61.121831 
L 203.290909 -138.132657 
L 204.981818 -80.577198 
L 206.672727 -69.228234 
L 208.363636 -53.420749 
L 210.054545 -101.809737 
L 211.745455 -46.062629 
L 213.436364 -43.973672 
L 215.127273 -52.98425 
L 216.818182 -99.066032 
L 218.509091 -45.376703 
L 220.2 -50.957649 
L 221.890909 -47.153876 
L 223.581818 -67.762846 
L 225.272727 -75.806891 
L 226.963636 -51.581219 
L 228.654545 -52.610108 
L 230.345455 -103.18159 
L 232.036364 -53.732533 
L 233.727273 -65.175032 
L 235.418182 -74.528574 
L 237.109091 -72.96965 
L 238.8 -104.459907 
L 240.490909 -45.84438 
L 242.181818 -120.73507 
L 243.872727 -47.496839 
L 245.563636 -67.108098 
L 247.254545 -58.440483 
L 248.945455 -115.247659 
L 250.636364 -78.176455 
L 252.327273 -100.93674 
L 254.018182 -109.1055 
L 255.709091 -100.1261 
L 257.4 -124.757092 
L 259.090909 -74.715645 
L 260.781818 -69.446483 
L 262.472727 -56.881559 
L 264.163636 -78.831203 
L 265.854545 -43.537173 
L 267.545455 -47.995694 
L 269.236364 -49.492261 
L 270.927273 -80.514841 
L 272.618182 -46.312057 
L 274.309091 -90.055453 
L 276 -80.047164 
L 277.690909 -45.407881 
L 279.381818 -46.124986 
L 281.072727 -46.000272 
L 282.763636 -78.987096 
L 284.454545 -49.741689 
L 286.145455 -47.46566 
L 287.836364 -49.086941 
L 289.527273 -48.931049 
L 291.218182 -127.157835 
L 292.909091 -49.30519 
L 294.6 -59.937049 
L 296.290909 -46.156165 
L 297.981818 -67.700489 
L 299.672727 -53.140142 
L 301.363636 -60.560619 
L 303.054545 -58.471661 
L 304.745455 -85.098076 
L 306.436364 -61.776579 
L 308.127273 -64.738534 
L 309.818182 -62.867826 
L 311.509091 -74.778002 
L 313.2 -128.093189 
L 314.890909 -54.41846 
L 316.581818 -57.037451 
L 318.272727 -65.299746 
L 319.963636 -110.757959 
L 321.654545 -104.366372 
L 323.345455 -86.594643 
L 325.036364 -66.921027 
L 326.727273 -100.157278 
L 328.418182 -65.050319 
L 330.109091 -105.052298 
L 331.8 -53.638998 
L 333.490909 -52.298324 
L 335.181818 -53.202499 
L 336.872727 -99.471352 
L 338.563636 -59.219944 
L 340.254545 -48.993406 
L 341.945455 -47.559196 
L 343.636364 -90.897272 
L 345.327273 -48.743978 
L 347.018182 -47.964516 
L 348.709091 -50.209366 
L 350.4 -97.320037 
L 352.090909 -52.610108 
L 353.781818 -47.247411 
L 355.472727 -64.489106 
L 357.163636 -99.377816 
L 358.854545 -60.155298 
L 360.545455 -50.552329 
L 362.236364 -54.20021 
L 363.927273 -105.052298 
L 365.618182 -54.854958 
L 367.309091 -48.525728 
L 369 -180.410665 
L 370.690909 -46.65502 
L 372.381818 -47.309768 
L 374.072727 -93.57862 
L 375.763636 -52.235967 
L 377.454545 -53.950783 
L 379.145455 -58.783446 
L 380.836364 -104.958763 
L 382.527273 -54.169032 
L 384.218182 -50.7394 
L 385.909091 -102.121522 
L 387.6 -46.779734 
L 389.290909 -46.467949 
L 390.981818 -51.051185 
L 392.672727 -102.589199 
L 394.363636 -100.999097 
L 396.054545 -72.15901 
L 397.745455 -102.869805 
L 399.436364 -56.819202 
L 401.127273 -52.703644 
L 402.818182 -74.653288 
L 404.509091 -49.336369 
L 406.2 -100.687312 
L 407.890909 -78.831203 
L 409.581818 -50.365258 
L 411.272727 -49.741689 
L 412.963636 -46.997983 
L 414.654545 -53.79489 
L 416.345455 -68.573486 
L 418.036364 -55.572063 
L 419.727273 -115.871228 
L 421.418182 -83.78858 
L 423.109091 -91.053164 
L 424.8 -52.703644 
L 426.490909 -96.634111 
L 428.181818 -80.015985 
L 429.872727 -82.603798 
L 431.563636 -81.263124 
L 433.254545 -80.670733 
L 434.945455 -92.736802 
L 436.636364 -72.844937 
L 438.327273 -85.971073 
L 440.018182 -77.334637 
L 441.709091 -98.348927 
L 443.4 -43.724244 
L 445.090909 -44.534884 
L 446.781818 -85.316325 
L 448.472727 -80.608376 
L 450.163636 -63.491395 
L 451.854545 -78.955917 
L 453.545455 -106.923006 
L 455.236364 -72.938472 
L 456.927273 -53.171321 
L 458.618182 -53.420749 
L 460.309091 -84.443328 
L 462 -61.55833 
L 463.690909 -51.55004 
L 465.381818 -52.485394 
L 467.072727 -95.01283 
L 468.763636 -48.401015 
L 470.454545 -91.583198 
L 472.145455 -82.884405 
L 473.836364 -54.387281 
L 475.527273 -113.938163 
L 477.218182 -97.507108 
L 478.909091 -91.95734 
L 480.6 -117.305438 
L 482.290909 -82.728512 
L 483.981818 -72.689044 
L 485.672727 -56.195633 
L 487.363636 -57.567485 
L 489.054545 -58.596375 
L 490.745455 -92.300303 
L 492.436364 -59.251123 
L 494.127273 -64.863248 
L 495.818182 -92.923873 
L 497.509091 -43.443637 
L 499.2 -43.505994 
L 500.890909 -148.07859 
L 502.581818 -49.180476 
L 504.272727 -87.031141 
L 505.963636 -68.635843 
L 507.654545 -54.169032 
L 509.345455 -64.894426 
L 511.036364 -132.458175 
L 512.727273 -44.940204 
L 514.418182 -70.475373 
L 516.109091 -66.328636 
L 517.8 -55.135564 
L 519.490909 -47.777445 
L 521.181818 -49.866403 
L 522.872727 -74.590931 
L 524.563636 -46.873269 
L 526.254545 -47.964516 
L 527.945455 -48.058051 
L 529.636364 -81.606087 
L 531.327273 -147.267949 
L 533.018182 -126.503087 
L 534.709091 -111.53742 
L 536.4 -70.070053 
L 538.090909 -68.136987 
L 539.781818 -61.15301 
L 541.472727 -114.094055 
L 543.163636 -57.224522 
L 544.854545 -48.120408 
L 546.545455 -72.720223 
L 548.236364 -76.025141 
L 549.927273 -69.945339 
L 551.618182 -116.713047 
L 553.309091 -68.667021 
L 555 -50.365258 
L 556.690909 -106.330616 
L 558.381818 -59.594086 
L 560.072727 -157.494488 
L 561.763636 -49.149298 
L 563.454545 -75.245679 
L 565.145455 -55.759134 
L 566.836364 -96.977074 
L 568.527273 -89.650133 
L 570.218182 -54.41846 
L 571.909091 -80.452484 
L 573.6 -55.2291 
L 575.290909 -50.147009 
L 576.981818 -53.763712 
L 578.672727 -127.812583 
L 580.363636 -94.451618 
L 582.054545 -99.377816 
L 583.745455 -88.777136 
L 585.436364 -117.180724 
L 587.127273 -54.730244 
L 588.818182 -75.089787 
L 590.509091 -61.308902 
L 592.2 -111.1321 
L 593.890909 -52.703644 
L 595.581818 -125.567733 
L 597.272727 -104.584621 
L 598.963636 -64.239678 
L 600.654545 -62.649576 
L 602.345455 -63.522573 
L 604.036364 -125.474197 
L 605.727273 -44.846669 
L 607.418182 -46.405592 
L 609.109091 -52.142431 
L 610.8 -119.737358 
L 612.490909 -47.403303 
L 614.181818 -45.782023 
L 615.872727 -70.506551 
L 617.563636 -59.064052 
L 619.254545 -72.252546 
L 620.945455 -81.450195 
L 622.636364 -41.76 
L 622.636364 -41.947071 
L 622.636364 -41.947071 
L 620.945455 -148.234482 
L 619.254545 -161.578868 
L 617.563636 -115.029409 
L 615.872727 -91.33377 
L 614.181818 -78.457062 
L 612.490909 -82.104943 
L 610.8 -155.873208 
L 609.109091 -122.730492 
L 607.418182 -67.139276 
L 605.727273 -101.622666 
L 604.036364 -183.840297 
L 602.345455 -123.291704 
L 600.654545 -116.370084 
L 598.963636 -111.662134 
L 597.272727 -141.219326 
L 595.581818 -165.787962 
L 593.890909 -127.563155 
L 592.2 -157.120346 
L 590.509091 -112.659845 
L 588.818182 -117.773115 
L 587.127273 -104.522264 
L 585.436364 -183.216727 
L 583.745455 -189.265351 
L 582.054545 -191.229595 
L 580.363636 -182.406087 
L 578.672727 -168.46931 
L 576.981818 -110.477352 
L 575.290909 -91.021986 
L 573.6 -101.123811 
L 571.909091 -102.620377 
L 570.218182 -76.960495 
L 568.527273 -110.040854 
L 566.836364 -136.667269 
L 565.145455 -98.28657 
L 563.454545 -117.180724 
L 561.763636 -95.854649 
L 560.072727 -197.496468 
L 558.381818 -99.939029 
L 556.690909 -130.868073 
L 555 -67.575775 
L 553.309091 -91.396127 
L 551.618182 -152.256505 
L 549.927273 -140.626935 
L 548.236364 -123.634667 
L 546.545455 -111.94274 
L 544.854545 -85.659289 
L 543.163636 -117.929007 
L 541.472727 -198.431822 
L 539.781818 -123.572311 
L 538.090909 -135.42013 
L 536.4 -145.927275 
L 534.709091 -198.712428 
L 533.018182 -196.748184 
L 531.327273 -179.724739 
L 529.636364 -132.676424 
L 527.945455 -70.257123 
L 526.254545 -63.39786 
L 524.563636 -62.680755 
L 522.872727 -97.195323 
L 521.181818 -71.005407 
L 519.490909 -68.635843 
L 517.8 -87.342926 
L 516.109091 -115.528265 
L 514.418182 -80.514841 
L 512.727273 -65.455639 
L 511.036364 -146.457309 
L 509.345455 -98.878961 
L 507.654545 -95.917006 
L 505.963636 -141.34404 
L 504.272727 -193.287374 
L 502.581818 -125.879517 
L 500.890909 -187.145215 
L 499.2 -46.436771 
L 497.509091 -46.374414 
L 495.818182 -103.555732 
L 494.127273 -86.781714 
L 492.436364 -96.072898 
L 490.745455 -138.039122 
L 489.054545 -94.451618 
L 487.363636 -96.353504 
L 485.672727 -90.710201 
L 483.981818 -132.489354 
L 482.290909 -243.36 
L 480.6 -209.001324 
L 478.909091 -178.976455 
L 477.218182 -159.552267 
L 475.527273 -159.146947 
L 473.836364 -73.624398 
L 472.145455 -117.991364 
L 470.454545 -121.265104 
L 468.763636 -58.845803 
L 467.072727 -104.646978 
L 465.381818 -79.018274 
L 463.690909 -77.334637 
L 462 -116.058299 
L 460.309091 -113.096344 
L 458.618182 -83.882116 
L 456.927273 -78.363526 
L 455.236364 -104.179301 
L 453.545455 -226.336554 
L 451.854545 -124.757092 
L 450.163636 -109.729069 
L 448.472727 -174.299685 
L 446.781818 -122.418707 
L 445.090909 -50.11583 
L 443.4 -46.717377 
L 441.709091 -121.857495 
L 440.018182 -166.910387 
L 438.327273 -175.920965 
L 436.636364 -151.071723 
L 434.945455 -148.88923 
L 433.254545 -132.208747 
L 431.563636 -123.478775 
L 429.872727 -139.90983 
L 428.181818 -127.500798 
L 426.490909 -129.558577 
L 424.8 -82.822048 
L 423.109091 -113.501664 
L 421.418182 -133.487065 
L 419.727273 -166.037389 
L 418.036364 -89.71249 
L 416.345455 -89.71249 
L 414.654545 -72.751401 
L 412.963636 -56.694488 
L 411.272727 -62.587219 
L 409.581818 -80.32777 
L 407.890909 -118.147256 
L 406.2 -116.619511 
L 404.509091 -66.390993 
L 402.818182 -98.69189 
L 401.127273 -82.946762 
L 399.436364 -104.304015 
L 397.745455 -136.542555 
L 396.054545 -99.09721 
L 394.363636 -130.712181 
L 392.672727 -120.236214 
L 390.981818 -66.85867 
L 389.290909 -54.293746 
L 387.6 -58.128698 
L 385.909091 -110.165568 
L 384.218182 -93.110943 
L 382.527273 -102.121522 
L 380.836364 -156.870919 
L 379.145455 -120.859783 
L 377.454545 -96.04172 
L 375.763636 -74.060897 
L 374.072727 -162.919542 
L 372.381818 -150.72876 
L 370.690909 -150.72876 
L 369 -199.148927 
L 367.309091 -86.875249 
L 365.618182 -105.02112 
L 363.927273 -163.792539 
L 362.236364 -106.486508 
L 360.545455 -97.475929 
L 358.854545 -120.423285 
L 357.163636 -147.735626 
L 355.472727 -115.964763 
L 353.781818 -84.630399 
L 352.090909 -108.513109 
L 350.4 -146.519666 
L 348.709091 -98.442462 
L 347.018182 -90.398416 
L 345.327273 -90.959629 
L 343.636364 -129.184436 
L 341.945455 -81.668444 
L 340.254545 -82.759691 
L 338.563636 -112.067454 
L 336.872727 -133.861206 
L 335.181818 -91.1467 
L 333.490909 -79.236523 
L 331.8 -86.906427 
L 330.109091 -138.600334 
L 328.418182 -110.882672 
L 326.727273 -151.227615 
L 325.036364 -125.255948 
L 323.345455 -167.284528 
L 321.654545 -139.972187 
L 319.963636 -158.67927 
L 318.272727 -117.274259 
L 316.581818 -79.51713 
L 314.890909 -87.218212 
L 313.2 -176.170393 
L 311.509091 -114.967052 
L 309.818182 -95.01283 
L 308.127273 -95.324615 
L 306.436364 -87.623532 
L 304.745455 -115.6218 
L 303.054545 -83.289725 
L 301.363636 -106.985363 
L 299.672727 -86.189323 
L 297.981818 -84.505685 
L 296.290909 -63.80318 
L 294.6 -137.914408 
L 292.909091 -79.860093 
L 291.218182 -141.468753 
L 289.527273 -55.135564 
L 287.836364 -59.001695 
L 286.145455 -74.871537 
L 284.454545 -87.031141 
L 282.763636 -94.576332 
L 281.072727 -54.044318 
L 279.381818 -55.603242 
L 277.690909 -55.166743 
L 276 -121.171568 
L 274.309091 -132.052855 
L 272.618182 -56.382703 
L 270.927273 -94.358082 
L 269.236364 -73.655577 
L 267.545455 -68.355237 
L 265.854545 -46.343235 
L 264.163636 -95.6364 
L 262.472727 -103.58691 
L 260.781818 -114.561732 
L 259.090909 -140.814006 
L 257.4 -189.171816 
L 255.709091 -214.17695 
L 254.018182 -205.665227 
L 252.327273 -208.596004 
L 250.636364 -148.359196 
L 248.945455 -188.735317 
L 247.254545 -111.225636 
L 245.563636 -87.779425 
L 243.872727 -64.894426 
L 242.181818 -126.534265 
L 240.490909 -51.95536 
L 238.8 -168.68756 
L 237.109091 -122.97992 
L 235.418182 -144.368351 
L 233.727273 -130.899251 
L 232.036364 -92.456195 
L 230.345455 -117.367795 
L 228.654545 -87.405283 
L 226.963636 -74.80918 
L 225.272727 -104.491086 
L 223.581818 -76.461639 
L 221.890909 -63.927894 
L 220.2 -72.283724 
L 218.509091 -52.98425 
L 216.818182 -139.753938 
L 215.127273 -160.11348 
L 213.436364 -134.017099 
L 211.745455 -124.757092 
L 210.054545 -166.006211 
L 208.363636 -122.418707 
L 206.672727 -133.861206 
L 204.981818 -163.917253 
L 203.290909 -185.025079 
L 201.6 -102.994519 
L 199.909091 -112.254525 
L 198.218182 -112.223347 
L 196.527273 -135.482487 
L 194.836364 -94.60751 
L 193.145455 -104.210479 
L 191.454545 -104.241658 
L 189.763636 -100.469063 
L 188.072727 -148.140946 
L 186.381818 -112.659845 
L 184.690909 -116.868939 
L 183 -120.672713 
L 181.309091 -180.067702 
L 179.618182 -163.356041 
L 177.927273 -164.166681 
L 176.236364 -166.567423 
L 174.545455 -221.223285 
L 172.854545 -161.95301 
L 171.163636 -162.171259 
L 169.472727 -161.142369 
L 167.781818 -220.319109 
L 166.090909 -158.803984 
L 164.4 -164.229038 
L 162.709091 -159.334018 
L 161.018182 -178.789384 
L 159.327273 -52.17361 
L 157.636364 -85.565753 
L 155.945455 -128.841472 
L 154.254545 -63.709644 
L 152.563636 -92.237946 
L 150.872727 -78.457062 
L 149.181818 -112.597488 
L 147.490909 -147.891519 
L 145.8 -154.937853 
L 144.109091 -155.374352 
L 142.418182 -224.528203 
L 140.727273 -144.898385 
L 139.036364 -160.892942 
L 137.345455 -169.997055 
L 135.654545 -227.396622 
L 133.963636 -169.529378 
L 132.272727 -170.090591 
L 130.581818 -161.73476 
L 128.890909 -187.176393 
L 127.2 -143.121212 
L 125.509091 -100.063743 
L 123.818182 -75.713356 
L 122.127273 -98.598354 
L 120.436364 -52.890715 
L 118.745455 -45.127275 
L 117.054545 -46.436771 
L 115.363636 -56.819202 
z
" style="stroke: #008000; stroke-width: 0.5"/>
    </defs>
    <g clip-path="url(#pbd6f11c678)">
     <use xlink:href="#ma96ef11758" x="0" y="288" style="fill: #008000; stroke: #008000; stroke-width: 0.5"/>
    </g>
   </g>
   <g id="line2d_26">
    <path d="M 90 44.64 
L 648 44.64 
" clip-path="url(#pbd6f11c678)" style="fill: none; stroke: #000000; stroke-width: 1.5; stroke-linecap: square"/>
   </g>
   <g id="line2d_27">
    <path d="M 90 169.291531 
L 648 169.291531 
" clip-path="url(#pbd6f11c678)" style="fill: none; stroke: #000000; stroke-width: 1.5; stroke-linecap: square"/>
   </g>
   <g id="patch_3">
    <path d="M 90 256.32 
L 90 34.56 
" style="fill: none; stroke: #000000; stroke-width: 0.8; stroke-linejoin: miter; stroke-linecap: square"/>
   </g>
   <g id="patch_4">
    <path d="M 648 256.32 
L 648 34.56 
" style="fill: none; stroke: #000000; stroke-width: 0.8; stroke-linejoin: miter; stroke-linecap: square"/>
   </g>
   <g id="patch_5">
    <path d="M 90 256.32 
L 648 256.32 
" style="fill: none; stroke: #000000; stroke-width: 0.8; stroke-linejoin: miter; stroke-linecap: square"/>
   </g>
   <g id="patch_6">
    <path d="M 90 34.56 
L 648 34.56 
" style="fill: none; stroke: #000000; stroke-width: 0.8; stroke-linejoin: miter; stroke-linecap: square"/>
   </g>
   <g id="text_21">
    <!-- peak (6,466) -->
    <g transform="translate(122.179233 41.3136) scale(0.1 -0.1)">
     <defs>
      <path id="DejaVuSans-Bold-70" d="M 1656 506 
L 1656 -1331 
L 538 -1331 
L 538 3500 
L 1656 3500 
L 1656 2988 
Q 1888 3294 2169 3439 
Q 2450 3584 2816 3584 
Q 3463 3584 3878 3070 
Q 4294 2556 4294 1747 
Q 4294 938 3878 423 
Q 3463 -91 2816 -91 
Q 2450 -91 2169 54 
Q 1888 200 1656 506 
z
M 2400 2772 
Q 2041 2772 1848 2508 
Q 1656 2244 1656 1747 
Q 1656 1250 1848 986 
Q 2041 722 2400 722 
Q 2759 722 2948 984 
Q 3138 1247 3138 1747 
Q 3138 2247 2948 2509 
Q 2759 2772 2400 2772 
z
" transform="scale(0.015625)"/>
      <path id="DejaVuSans-Bold-65" d="M 4031 1759 
L 4031 1441 
L 1416 1441 
Q 1456 1047 1700 850 
Q 1944 653 2381 653 
Q 2734 653 3104 758 
Q 3475 863 3866 1075 
L 3866 213 
Q 3469 63 3072 -14 
Q 2675 -91 2278 -91 
Q 1328 -91 801 392 
Q 275 875 275 1747 
Q 275 2603 792 3093 
Q 1309 3584 2216 3584 
Q 3041 3584 3536 3087 
Q 4031 2591 4031 1759 
z
M 2881 2131 
Q 2881 2450 2695 2645 
Q 2509 2841 2209 2841 
Q 1884 2841 1681 2658 
Q 1478 2475 1428 2131 
L 2881 2131 
z
" transform="scale(0.015625)"/>
      <path id="DejaVuSans-Bold-61" d="M 2106 1575 
Q 1756 1575 1579 1456 
Q 1403 1338 1403 1106 
Q 1403 894 1545 773 
Q 1688 653 1941 653 
Q 2256 653 2472 879 
Q 2688 1106 2688 1447 
L 2688 1575 
L 2106 1575 
z
M 3816 1997 
L 3816 0 
L 2688 0 
L 2688 519 
Q 2463 200 2181 54 
Q 1900 -91 1497 -91 
Q 953 -91 614 226 
Q 275 544 275 1050 
Q 275 1666 698 1953 
Q 1122 2241 2028 2241 
L 2688 2241 
L 2688 2328 
Q 2688 2594 2478 2717 
Q 2269 2841 1825 2841 
Q 1466 2841 1156 2769 
Q 847 2697 581 2553 
L 581 3406 
Q 941 3494 1303 3539 
Q 1666 3584 2028 3584 
Q 2975 3584 3395 3211 
Q 3816 2838 3816 1997 
z
" transform="scale(0.015625)"/>
      <path id="DejaVuSans-Bold-6b" d="M 538 4863 
L 1656 4863 
L 1656 2216 
L 2944 3500 
L 4244 3500 
L 2534 1894 
L 4378 0 
L 3022 0 
L 1656 1459 
L 1656 0 
L 538 0 
L 538 4863 
z
" transform="scale(0.015625)"/>
      <path id="DejaVuSans-Bold-20" transform="scale(0.015625)"/>
      <path id="DejaVuSans-Bold-28" d="M 2413 -844 
L 1484 -844 
Q 1006 -72 778 623 
Q 550 1319 550 2003 
Q 550 2688 779 3389 
Q 1009 4091 1484 4856 
L 2413 4856 
Q 2013 4116 1813 3408 
Q 1613 2700 1613 2009 
Q 1613 1319 1811 609 
Q 2009 -100 2413 -844 
z
" transform="scale(0.015625)"/>
      <path id="DejaVuSans-Bold-36" d="M 2316 2303 
Q 2000 2303 1842 2098 
Q 1684 1894 1684 1484 
Q 1684 1075 1842 870 
Q 2000 666 2316 666 
Q 2634 666 2792 870 
Q 2950 1075 2950 1484 
Q 2950 1894 2792 2098 
Q 2634 2303 2316 2303 
z
M 3803 4544 
L 3803 3681 
Q 3506 3822 3243 3889 
Q 2981 3956 2731 3956 
Q 2194 3956 1894 3657 
Q 1594 3359 1544 2772 
Q 1750 2925 1990 3001 
Q 2231 3078 2516 3078 
Q 3231 3078 3670 2659 
Q 4109 2241 4109 1563 
Q 4109 813 3618 361 
Q 3128 -91 2303 -91 
Q 1394 -91 895 523 
Q 397 1138 397 2266 
Q 397 3422 980 4083 
Q 1563 4744 2578 4744 
Q 2900 4744 3203 4694 
Q 3506 4644 3803 4544 
z
" transform="scale(0.015625)"/>
      <path id="DejaVuSans-Bold-2c" d="M 653 1209 
L 1778 1209 
L 1778 256 
L 1006 -909 
L 341 -909 
L 653 256 
L 653 1209 
z
" transform="scale(0.015625)"/>
      <path id="DejaVuSans-Bold-34" d="M 2356 3675 
L 1038 1722 
L 2356 1722 
L 2356 3675 
z
M 2156 4666 
L 3494 4666 
L 3494 1722 
L 4159 1722 
L 4159 850 
L 3494 850 
L 3494 0 
L 2356 0 
L 2356 850 
L 288 850 
L 288 1881 
L 2156 4666 
z
" transform="scale(0.015625)"/>
      <path id="DejaVuSans-Bold-29" d="M 513 -844 
Q 913 -100 1113 609 
Q 1313 1319 1313 2009 
Q 1313 2700 1113 3408 
Q 913 4116 513 4856 
L 1441 4856 
Q 1916 4091 2145 3389 
Q 2375 2688 2375 2003 
Q 2375 1319 2147 623 
Q 1919 -72 1441 -844 
L 513 -844 
z
" transform="scale(0.015625)"/>
     </defs>
     <use xlink:href="#DejaVuSans-Bold-70"/>
     <use xlink:href="#DejaVuSans-Bold-65" x="71.582031"/>
     <use xlink:href="#DejaVuSans-Bold-61" x="139.404297"/>
     <use xlink:href="#DejaVuSans-Bold-6b" x="206.884766"/>
     <use xlink:href="#DejaVuSans-Bold-20" x="273.388672"/>
     <use xlink:href="#DejaVuSans-Bold-28" x="308.203125"/>
     <use xlink:href="#DejaVuSans-Bold-36" x="353.90625"/>
     <use xlink:href="#DejaVuSans-Bold-2c" x="423.486328"/>
     <use xlink:href="#DejaVuSans-Bold-34" x="461.474609"/>
     <use xlink:href="#DejaVuSans-Bold-36" x="531.054688"/>
     <use xlink:href="#DejaVuSans-Bold-36" x="600.634766"/>
     <use xlink:href="#DejaVuSans-Bold-29" x="670.214844"/>
    </g>
   </g>
   <g id="text_22">
    <!-- mean (2,468) -->
    <g transform="translate(567.728153 165.965131) scale(0.1 -0.1)">
     <defs>
      <path id="DejaVuSans-Bold-6d" d="M 3781 2919 
Q 3994 3244 4286 3414 
Q 4578 3584 4928 3584 
Q 5531 3584 5847 3212 
Q 6163 2841 6163 2131 
L 6163 0 
L 5038 0 
L 5038 1825 
Q 5041 1866 5042 1909 
Q 5044 1953 5044 2034 
Q 5044 2406 4934 2573 
Q 4825 2741 4581 2741 
Q 4263 2741 4089 2478 
Q 3916 2216 3909 1719 
L 3909 0 
L 2784 0 
L 2784 1825 
Q 2784 2406 2684 2573 
Q 2584 2741 2328 2741 
Q 2006 2741 1831 2477 
Q 1656 2213 1656 1722 
L 1656 0 
L 531 0 
L 531 3500 
L 1656 3500 
L 1656 2988 
Q 1863 3284 2130 3434 
Q 2397 3584 2719 3584 
Q 3081 3584 3359 3409 
Q 3638 3234 3781 2919 
z
" transform="scale(0.015625)"/>
      <path id="DejaVuSans-Bold-6e" d="M 4056 2131 
L 4056 0 
L 2931 0 
L 2931 347 
L 2931 1631 
Q 2931 2084 2911 2256 
Q 2891 2428 2841 2509 
Q 2775 2619 2662 2680 
Q 2550 2741 2406 2741 
Q 2056 2741 1856 2470 
Q 1656 2200 1656 1722 
L 1656 0 
L 538 0 
L 538 3500 
L 1656 3500 
L 1656 2988 
Q 1909 3294 2193 3439 
Q 2478 3584 2822 3584 
Q 3428 3584 3742 3212 
Q 4056 2841 4056 2131 
z
" transform="scale(0.015625)"/>
      <path id="DejaVuSans-Bold-32" d="M 1844 884 
L 3897 884 
L 3897 0 
L 506 0 
L 506 884 
L 2209 2388 
Q 2438 2594 2547 2791 
Q 2656 2988 2656 3200 
Q 2656 3528 2436 3728 
Q 2216 3928 1850 3928 
Q 1569 3928 1234 3808 
Q 900 3688 519 3450 
L 519 4475 
Q 925 4609 1322 4679 
Q 1719 4750 2100 4750 
Q 2938 4750 3402 4381 
Q 3866 4013 3866 3353 
Q 3866 2972 3669 2642 
Q 3472 2313 2841 1759 
L 1844 884 
z
" transform="scale(0.015625)"/>
      <path id="DejaVuSans-Bold-38" d="M 2228 2088 
Q 1891 2088 1709 1903 
Q 1528 1719 1528 1375 
Q 1528 1031 1709 848 
Q 1891 666 2228 666 
Q 2563 666 2741 848 
Q 2919 1031 2919 1375 
Q 2919 1722 2741 1905 
Q 2563 2088 2228 2088 
z
M 1350 2484 
Q 925 2613 709 2878 
Q 494 3144 494 3541 
Q 494 4131 934 4440 
Q 1375 4750 2228 4750 
Q 3075 4750 3515 4442 
Q 3956 4134 3956 3541 
Q 3956 3144 3739 2878 
Q 3522 2613 3097 2484 
Q 3572 2353 3814 2058 
Q 4056 1763 4056 1313 
Q 4056 619 3595 264 
Q 3134 -91 2228 -91 
Q 1319 -91 855 264 
Q 391 619 391 1313 
Q 391 1763 633 2058 
Q 875 2353 1350 2484 
z
M 1631 3419 
Q 1631 3141 1786 2991 
Q 1941 2841 2228 2841 
Q 2509 2841 2662 2991 
Q 2816 3141 2816 3419 
Q 2816 3697 2662 3845 
Q 2509 3994 2228 3994 
Q 1941 3994 1786 3844 
Q 1631 3694 1631 3419 
z
" transform="scale(0.015625)"/>
     </defs>
     <use xlink:href="#DejaVuSans-Bold-6d"/>
     <use xlink:href="#DejaVuSans-Bold-65" x="104.199219"/>
     <use xlink:href="#DejaVuSans-Bold-61" x="172.021484"/>
     <use xlink:href="#DejaVuSans-Bold-6e" x="239.501953"/>
     <use xlink:href="#DejaVuSans-Bold-20" x="310.693359"/>
     <use xlink:href="#DejaVuSans-Bold-28" x="345.507812"/>
     <use xlink:href="#DejaVuSans-Bold-32" x="391.210938"/>
     <use xlink:href="#DejaVuSans-Bold-2c" x="460.791016"/>
     <use xlink:href="#DejaVuSans-Bold-34" x="498.779297"/>
     <use xlink:href="#DejaVuSans-Bold-36" x="568.359375"/>
     <use xlink:href="#DejaVuSans-Bold-38" x="637.939453"/>
     <use xlink:href="#DejaVuSans-Bold-29" x="707.519531"/>
    </g>
   </g>
   <g id="text_23">
    <!-- Stream Bitrate over Time -->
    <g transform="translate(293.189062 28.56) scale(0.12 -0.12)">
     <defs>
      <path id="DejaVuSans-53" d="M 3425 4513 
L 3425 3897 
Q 3066 4069 2747 4153 
Q 2428 4238 2131 4238 
Q 1616 4238 1336 4038 
Q 1056 3838 1056 3469 
Q 1056 3159 1242 3001 
Q 1428 2844 1947 2747 
L 2328 2669 
Q 3034 2534 3370 2195 
Q 3706 1856 3706 1288 
Q 3706 609 3251 259 
Q 2797 -91 1919 -91 
Q 1588 -91 1214 -16 
Q 841 59 441 206 
L 441 856 
Q 825 641 1194 531 
Q 1563 422 1919 422 
Q 2459 422 2753 634 
Q 3047 847 3047 1241 
Q 3047 1584 2836 1778 
Q 2625 1972 2144 2069 
L 1759 2144 
Q 1053 2284 737 2584 
Q 422 2884 422 3419 
Q 422 4038 858 4394 
Q 1294 4750 2059 4750 
Q 2388 4750 2728 4690 
Q 3069 4631 3425 4513 
z
" transform="scale(0.015625)"/>
      <path id="DejaVuSans-6f" d="M 1959 3097 
Q 1497 3097 1228 2736 
Q 959 2375 959 1747 
Q 959 1119 1226 758 
Q 1494 397 1959 397 
Q 2419 397 2687 759 
Q 2956 1122 2956 1747 
Q 2956 2369 2687 2733 
Q 2419 3097 1959 3097 
z
M 1959 3584 
Q 2709 3584 3137 3096 
Q 3566 2609 3566 1747 
Q 3566 888 3137 398 
Q 2709 -91 1959 -91 
Q 1206 -91 779 398 
Q 353 888 353 1747 
Q 353 2609 779 3096 
Q 1206 3584 1959 3584 
z
" transform="scale(0.015625)"/>
      <path id="DejaVuSans-76" d="M 191 3500 
L 800 3500 
L 1894 563 
L 2988 3500 
L 3597 3500 
L 2284 0 
L 1503 0 
L 191 3500 
z
" transform="scale(0.015625)"/>
     </defs>
     <use xlink:href="#DejaVuSans-53"/>
     <use xlink:href="#DejaVuSans-74" x="63.476562"/>
     <use xlink:href="#DejaVuSans-72" x="102.685547"/>
     <use xlink:href="#DejaVuSans-65" x="141.548828"/>
     <use xlink:href="#DejaVuSans-61" x="203.072266"/>
     <use xlink:href="#DejaVuSans-6d" x="264.351562"/>
     <use xlink:href="#DejaVuSans-20" x="361.763672"/>
     <use xlink:href="#DejaVuSans-42" x="393.550781"/>
     <use xlink:href="#DejaVuSans-69" x="462.154297"/>
     <use xlink:href="#DejaVuSans-74" x="489.9375"/>
     <use xlink:href="#DejaVuSans-72" x="529.146484"/>
     <use xlink:href="#DejaVuSans-61" x="570.259766"/>
     <use xlink:href="#DejaVuSans-74" x="631.539062"/>
     <use xlink:href="#DejaVuSans-65" x="670.748047"/>
     <use xlink:href="#DejaVuSans-20" x="732.271484"/>
     <use xlink:href="#DejaVuSans-6f" x="764.058594"/>
     <use xlink:href="#DejaVuSans-76" x="825.240234"/>
     <use xlink:href="#DejaVuSans-65" x="884.419922"/>
     <use xlink:href="#DejaVuSans-72" x="945.943359"/>
     <use xlink:href="#DejaVuSans-20" x="987.056641"/>
     <use xlink:href="#DejaVuSans-54" x="1018.84375"/>
     <use xlink:href="#DejaVuSans-69" x="1076.802734"/>
     <use xlink:href="#DejaVuSans-6d" x="1104.585938"/>
     <use xlink:href="#DejaVuSans-65" x="1201.998047"/>
    </g>
   </g>
   <g id="legend_1">
    <g id="patch_7">
     <path d="M 602.139063 86.594375 
L 641 86.594375 
Q 643 86.594375 643 84.594375 
L 643 41.56 
Q 643 39.56 641 39.56 
L 602.139063 39.56 
Q 600.139063 39.56 600.139063 41.56 
L 600.139063 84.594375 
Q 600.139063 86.594375 602.139063 86.594375 
z
" style="fill: #ffffff; opacity: 0.8; stroke: #cccccc; stroke-linejoin: miter"/>
    </g>
    <g id="patch_8">
     <path d="M 604.139063 51.158438 
L 624.139063 51.158438 
L 624.139063 44.158438 
L 604.139063 44.158438 
z
" style="fill: #ff0000; stroke: #ff0000; stroke-width: 0.5; stroke-linejoin: miter"/>
    </g>
    <g id="text_24">
     <!-- I -->
     <g transform="translate(632.139063 51.158438) scale(0.1 -0.1)">
      <defs>
       <path id="DejaVuSans-49" d="M 628 4666 
L 1259 4666 
L 1259 0 
L 628 0 
L 628 4666 
z
" transform="scale(0.015625)"/>
      </defs>
      <use xlink:href="#DejaVuSans-49"/>
     </g>
    </g>
    <g id="patch_9">
     <path d="M 604.139063 65.836563 
L 624.139063 65.836563 
L 624.139063 58.836563 
L 604.139063 58.836563 
z
" style="fill: #0000ff; stroke: #0000ff; stroke-width: 0.5; stroke-linejoin: miter"/>
    </g>
    <g id="text_25">
     <!-- B -->
     <g transform="translate(632.139063 65.836563) scale(0.1 -0.1)">
      <use xlink:href="#DejaVuSans-42"/>
     </g>
    </g>
    <g id="patch_10">
     <path d="M 604.139063 80.514688 
L 624.139063 80.514688 
L 624.139063 73.514688 
L 604.139063 73.514688 
z
" style="fill: #008000; stroke: #008000; stroke-width: 0.5; stroke-linejoin: miter"/>
    </g>
    <g id="text_26">
     <!-- P -->
     <g transform="translate(632.139063 80.514688) scale(0.1 -0.1)">
      <defs>
       <path id="DejaVuSans-50" d="M 1259 4147 
L 1259 2394 
L 2053 2394 
Q 2494 2394 2734 2622 
Q 2975 2850 2975 3272 
Q 2975 3691 2734 3919 
Q 2494 4147 2053 4147 
L 1259 4147 
z
M 628 4666 
L 2053 4666 
Q 2838 4666 3239 4311 
Q 3641 3956 3641 3272 
Q 3641 2581 3239 2228 
Q 2838 1875 2053 1875 
L 1259 1875 
L 1259 0 
L 628 0 
L 628 4666 
z
" transform="scale(0.015625)"/>
      </defs>
      <use xlink:href="#DejaVuSans-50"/>
     </g>
    </g>
   </g>
  </g>
 </g>
 <defs>
  <clipPath id="pbd6f11c678">
   <rect x="90" y="34.56" width="558" height="221.76"/>
  </clipPath>
 </defs>
</svg>
