<?xml version="1.0" encoding="utf-8" standalone="no"?>
<!DOCTYPE svg PUBLIC "-//W3C//DTD SVG 1.1//EN"
  "http://www.w3.org/Graphics/SVG/1.1/DTD/svg11.dtd">
<svg xmlns:xlink="http://www.w3.org/1999/xlink" width="720pt" height="288pt" viewBox="0 0 720 288" xmlns="http://www.w3.org/2000/svg" version="1.1">
 <metadata>
  <rdf:RDF xmlns:dc="http://purl.org/dc/elements/1.1/" xmlns:cc="http://creativecommons.org/ns#" xmlns:rdf="http://www.w3.org/1999/02/22-rdf-syntax-ns#">
   <cc:Work>
    <dc:type rdf:resource="http://purl.org/dc/dcmitype/StillImage"/>
    <dc:date>2023-05-07T02:10:24.546468</dc:date>
    <dc:format>image/svg+xml</dc:format>
    <dc:creator>
     <cc:Agent>
      <dc:title>Matplotlib v3.7.1, https://matplotlib.org/</dc:title>
     </cc:Agent>
    </dc:creator>
   </cc:Work>
  </rdf:RDF>
 </metadata>
 <defs>
  <style type="text/css">*{stroke-linejoin: round; stroke-linecap: butt}</style>
 </defs>
 <g id="figure_1">
  <g id="patch_1">
   <path d="M 0 288 
L 720 288 
L 720 0 
L 0 0 
z
" style="fill: #ffffff"/>
  </g>
  <g id="axes_1">
   <g id="patch_2">
    <path d="M 90 256.32 
L 648 256.32 
L 648 34.56 
L 90 34.56 
z
" style="fill: #ffffff"/>
   </g>
   <g id="matplotlib.axis_1">
    <g id="xtick_1">
     <g id="line2d_1">
      <defs>
       <path id="m2b67c80ae4" d="M 0 0 
L 0 3.5 
" style="stroke: #000000; stroke-width: 0.8"/>
      </defs>
      <g>
       <use xlink:href="#m2b67c80ae4" x="115.363636" y="256.32" style="stroke: #000000; stroke-width: 0.8"/>
      </g>
     </g>
     <g id="text_1">
      <!-- 0:00:00 -->
      <g transform="translate(96.088636 270.918437) scale(0.1 -0.1)">
       <defs>
        <path id="DejaVuSans-30" d="M 2034 4250 
Q 1547 4250 1301 3770 
Q 1056 3291 1056 2328 
Q 1056 1369 1301 889 
Q 1547 409 2034 409 
Q 2525 409 2770 889 
Q 3016 1369 3016 2328 
Q 3016 3291 2770 3770 
Q 2525 4250 2034 4250 
z
M 2034 4750 
Q 2819 4750 3233 4129 
Q 3647 3509 3647 2328 
Q 3647 1150 3233 529 
Q 2819 -91 2034 -91 
Q 1250 -91 836 529 
Q 422 1150 422 2328 
Q 422 3509 836 4129 
Q 1250 4750 2034 4750 
z
" transform="scale(0.015625)"/>
        <path id="DejaVuSans-3a" d="M 750 794 
L 1409 794 
L 1409 0 
L 750 0 
L 750 794 
z
M 750 3309 
L 1409 3309 
L 1409 2516 
L 750 2516 
L 750 3309 
z
" transform="scale(0.015625)"/>
       </defs>
       <use xlink:href="#DejaVuSans-30"/>
       <use xlink:href="#DejaVuSans-3a" x="63.623047"/>
       <use xlink:href="#DejaVuSans-30" x="97.314453"/>
       <use xlink:href="#DejaVuSans-30" x="160.9375"/>
       <use xlink:href="#DejaVuSans-3a" x="224.560547"/>
       <use xlink:href="#DejaVuSans-30" x="258.251953"/>
       <use xlink:href="#DejaVuSans-30" x="321.875"/>
      </g>
     </g>
    </g>
    <g id="xtick_2">
     <g id="line2d_2">
      <g>
       <use xlink:href="#m2b67c80ae4" x="166.090909" y="256.32" style="stroke: #000000; stroke-width: 0.8"/>
      </g>
     </g>
     <g id="text_2">
      <!-- 0:00:30 -->
      <g transform="translate(146.815909 270.918437) scale(0.1 -0.1)">
       <defs>
        <path id="DejaVuSans-33" d="M 2597 2516 
Q 3050 2419 3304 2112 
Q 3559 1806 3559 1356 
Q 3559 666 3084 287 
Q 2609 -91 1734 -91 
Q 1441 -91 1130 -33 
Q 819 25 488 141 
L 488 750 
Q 750 597 1062 519 
Q 1375 441 1716 441 
Q 2309 441 2620 675 
Q 2931 909 2931 1356 
Q 2931 1769 2642 2001 
Q 2353 2234 1838 2234 
L 1294 2234 
L 1294 2753 
L 1863 2753 
Q 2328 2753 2575 2939 
Q 2822 3125 2822 3475 
Q 2822 3834 2567 4026 
Q 2313 4219 1838 4219 
Q 1578 4219 1281 4162 
Q 984 4106 628 3988 
L 628 4550 
Q 988 4650 1302 4700 
Q 1616 4750 1894 4750 
Q 2613 4750 3031 4423 
Q 3450 4097 3450 3541 
Q 3450 3153 3228 2886 
Q 3006 2619 2597 2516 
z
" transform="scale(0.015625)"/>
       </defs>
       <use xlink:href="#DejaVuSans-30"/>
       <use xlink:href="#DejaVuSans-3a" x="63.623047"/>
       <use xlink:href="#DejaVuSans-30" x="97.314453"/>
       <use xlink:href="#DejaVuSans-30" x="160.9375"/>
       <use xlink:href="#DejaVuSans-3a" x="224.560547"/>
       <use xlink:href="#DejaVuSans-33" x="258.251953"/>
       <use xlink:href="#DejaVuSans-30" x="321.875"/>
      </g>
     </g>
    </g>
    <g id="xtick_3">
     <g id="line2d_3">
      <g>
       <use xlink:href="#m2b67c80ae4" x="216.818182" y="256.32" style="stroke: #000000; stroke-width: 0.8"/>
      </g>
     </g>
     <g id="text_3">
      <!-- 0:01:00 -->
      <g transform="translate(197.543182 270.918437) scale(0.1 -0.1)">
       <defs>
        <path id="DejaVuSans-31" d="M 794 531 
L 1825 531 
L 1825 4091 
L 703 3866 
L 703 4441 
L 1819 4666 
L 2450 4666 
L 2450 531 
L 3481 531 
L 3481 0 
L 794 0 
L 794 531 
z
" transform="scale(0.015625)"/>
       </defs>
       <use xlink:href="#DejaVuSans-30"/>
       <use xlink:href="#DejaVuSans-3a" x="63.623047"/>
       <use xlink:href="#DejaVuSans-30" x="97.314453"/>
       <use xlink:href="#DejaVuSans-31" x="160.9375"/>
       <use xlink:href="#DejaVuSans-3a" x="224.560547"/>
       <use xlink:href="#DejaVuSans-30" x="258.251953"/>
       <use xlink:href="#DejaVuSans-30" x="321.875"/>
      </g>
     </g>
    </g>
    <g id="xtick_4">
     <g id="line2d_4">
      <g>
       <use xlink:href="#m2b67c80ae4" x="267.545455" y="256.32" style="stroke: #000000; stroke-width: 0.8"/>
      </g>
     </g>
     <g id="text_4">
      <!-- 0:01:30 -->
      <g transform="translate(248.270455 270.918437) scale(0.1 -0.1)">
       <use xlink:href="#DejaVuSans-30"/>
       <use xlink:href="#DejaVuSans-3a" x="63.623047"/>
       <use xlink:href="#DejaVuSans-30" x="97.314453"/>
       <use xlink:href="#DejaVuSans-31" x="160.9375"/>
       <use xlink:href="#DejaVuSans-3a" x="224.560547"/>
       <use xlink:href="#DejaVuSans-33" x="258.251953"/>
       <use xlink:href="#DejaVuSans-30" x="321.875"/>
      </g>
     </g>
    </g>
    <g id="xtick_5">
     <g id="line2d_5">
      <g>
       <use xlink:href="#m2b67c80ae4" x="318.272727" y="256.32" style="stroke: #000000; stroke-width: 0.8"/>
      </g>
     </g>
     <g id="text_5">
      <!-- 0:02:00 -->
      <g transform="translate(298.997727 270.918437) scale(0.1 -0.1)">
       <defs>
        <path id="DejaVuSans-32" d="M 1228 531 
L 3431 531 
L 3431 0 
L 469 0 
L 469 531 
Q 828 903 1448 1529 
Q 2069 2156 2228 2338 
Q 2531 2678 2651 2914 
Q 2772 3150 2772 3378 
Q 2772 3750 2511 3984 
Q 2250 4219 1831 4219 
Q 1534 4219 1204 4116 
Q 875 4013 500 3803 
L 500 4441 
Q 881 4594 1212 4672 
Q 1544 4750 1819 4750 
Q 2544 4750 2975 4387 
Q 3406 4025 3406 3419 
Q 3406 3131 3298 2873 
Q 3191 2616 2906 2266 
Q 2828 2175 2409 1742 
Q 1991 1309 1228 531 
z
" transform="scale(0.015625)"/>
       </defs>
       <use xlink:href="#DejaVuSans-30"/>
       <use xlink:href="#DejaVuSans-3a" x="63.623047"/>
       <use xlink:href="#DejaVuSans-30" x="97.314453"/>
       <use xlink:href="#DejaVuSans-32" x="160.9375"/>
       <use xlink:href="#DejaVuSans-3a" x="224.560547"/>
       <use xlink:href="#DejaVuSans-30" x="258.251953"/>
       <use xlink:href="#DejaVuSans-30" x="321.875"/>
      </g>
     </g>
    </g>
    <g id="xtick_6">
     <g id="line2d_6">
      <g>
       <use xlink:href="#m2b67c80ae4" x="369" y="256.32" style="stroke: #000000; stroke-width: 0.8"/>
      </g>
     </g>
     <g id="text_6">
      <!-- 0:02:30 -->
      <g transform="translate(349.725 270.918437) scale(0.1 -0.1)">
       <use xlink:href="#DejaVuSans-30"/>
       <use xlink:href="#DejaVuSans-3a" x="63.623047"/>
       <use xlink:href="#DejaVuSans-30" x="97.314453"/>
       <use xlink:href="#DejaVuSans-32" x="160.9375"/>
       <use xlink:href="#DejaVuSans-3a" x="224.560547"/>
       <use xlink:href="#DejaVuSans-33" x="258.251953"/>
       <use xlink:href="#DejaVuSans-30" x="321.875"/>
      </g>
     </g>
    </g>
    <g id="xtick_7">
     <g id="line2d_7">
      <g>
       <use xlink:href="#m2b67c80ae4" x="419.727273" y="256.32" style="stroke: #000000; stroke-width: 0.8"/>
      </g>
     </g>
     <g id="text_7">
      <!-- 0:03:00 -->
      <g transform="translate(400.452273 270.918437) scale(0.1 -0.1)">
       <use xlink:href="#DejaVuSans-30"/>
       <use xlink:href="#DejaVuSans-3a" x="63.623047"/>
       <use xlink:href="#DejaVuSans-30" x="97.314453"/>
       <use xlink:href="#DejaVuSans-33" x="160.9375"/>
       <use xlink:href="#DejaVuSans-3a" x="224.560547"/>
       <use xlink:href="#DejaVuSans-30" x="258.251953"/>
       <use xlink:href="#DejaVuSans-30" x="321.875"/>
      </g>
     </g>
    </g>
    <g id="xtick_8">
     <g id="line2d_8">
      <g>
       <use xlink:href="#m2b67c80ae4" x="470.454545" y="256.32" style="stroke: #000000; stroke-width: 0.8"/>
      </g>
     </g>
     <g id="text_8">
      <!-- 0:03:30 -->
      <g transform="translate(451.179545 270.918437) scale(0.1 -0.1)">
       <use xlink:href="#DejaVuSans-30"/>
       <use xlink:href="#DejaVuSans-3a" x="63.623047"/>
       <use xlink:href="#DejaVuSans-30" x="97.314453"/>
       <use xlink:href="#DejaVuSans-33" x="160.9375"/>
       <use xlink:href="#DejaVuSans-3a" x="224.560547"/>
       <use xlink:href="#DejaVuSans-33" x="258.251953"/>
       <use xlink:href="#DejaVuSans-30" x="321.875"/>
      </g>
     </g>
    </g>
    <g id="xtick_9">
     <g id="line2d_9">
      <g>
       <use xlink:href="#m2b67c80ae4" x="521.181818" y="256.32" style="stroke: #000000; stroke-width: 0.8"/>
      </g>
     </g>
     <g id="text_9">
      <!-- 0:04:00 -->
      <g transform="translate(501.906818 270.918437) scale(0.1 -0.1)">
       <defs>
        <path id="DejaVuSans-34" d="M 2419 4116 
L 825 1625 
L 2419 1625 
L 2419 4116 
z
M 2253 4666 
L 3047 4666 
L 3047 1625 
L 3713 1625 
L 3713 1100 
L 3047 1100 
L 3047 0 
L 2419 0 
L 2419 1100 
L 313 1100 
L 313 1709 
L 2253 4666 
z
" transform="scale(0.015625)"/>
       </defs>
       <use xlink:href="#DejaVuSans-30"/>
       <use xlink:href="#DejaVuSans-3a" x="63.623047"/>
       <use xlink:href="#DejaVuSans-30" x="97.314453"/>
       <use xlink:href="#DejaVuSans-34" x="160.9375"/>
       <use xlink:href="#DejaVuSans-3a" x="224.560547"/>
       <use xlink:href="#DejaVuSans-30" x="258.251953"/>
       <use xlink:href="#DejaVuSans-30" x="321.875"/>
      </g>
     </g>
    </g>
    <g id="xtick_10">
     <g id="line2d_10">
      <g>
       <use xlink:href="#m2b67c80ae4" x="571.909091" y="256.32" style="stroke: #000000; stroke-width: 0.8"/>
      </g>
     </g>
     <g id="text_10">
      <!-- 0:04:30 -->
      <g transform="translate(552.634091 270.918437) scale(0.1 -0.1)">
       <use xlink:href="#DejaVuSans-30"/>
       <use xlink:href="#DejaVuSans-3a" x="63.623047"/>
       <use xlink:href="#DejaVuSans-30" x="97.314453"/>
       <use xlink:href="#DejaVuSans-34" x="160.9375"/>
       <use xlink:href="#DejaVuSans-3a" x="224.560547"/>
       <use xlink:href="#DejaVuSans-33" x="258.251953"/>
       <use xlink:href="#DejaVuSans-30" x="321.875"/>
      </g>
     </g>
    </g>
    <g id="xtick_11">
     <g id="line2d_11">
      <g>
       <use xlink:href="#m2b67c80ae4" x="622.636364" y="256.32" style="stroke: #000000; stroke-width: 0.8"/>
      </g>
     </g>
     <g id="text_11">
      <!-- 0:05:00 -->
      <g transform="translate(603.361364 270.918437) scale(0.1 -0.1)">
       <defs>
        <path id="DejaVuSans-35" d="M 691 4666 
L 3169 4666 
L 3169 4134 
L 1269 4134 
L 1269 2991 
Q 1406 3038 1543 3061 
Q 1681 3084 1819 3084 
Q 2600 3084 3056 2656 
Q 3513 2228 3513 1497 
Q 3513 744 3044 326 
Q 2575 -91 1722 -91 
Q 1428 -91 1123 -41 
Q 819 9 494 109 
L 494 744 
Q 775 591 1075 516 
Q 1375 441 1709 441 
Q 2250 441 2565 725 
Q 2881 1009 2881 1497 
Q 2881 1984 2565 2268 
Q 2250 2553 1709 2553 
Q 1456 2553 1204 2497 
Q 953 2441 691 2322 
L 691 4666 
z
" transform="scale(0.015625)"/>
       </defs>
       <use xlink:href="#DejaVuSans-30"/>
       <use xlink:href="#DejaVuSans-3a" x="63.623047"/>
       <use xlink:href="#DejaVuSans-30" x="97.314453"/>
       <use xlink:href="#DejaVuSans-35" x="160.9375"/>
       <use xlink:href="#DejaVuSans-3a" x="224.560547"/>
       <use xlink:href="#DejaVuSans-30" x="258.251953"/>
       <use xlink:href="#DejaVuSans-30" x="321.875"/>
      </g>
     </g>
    </g>
    <g id="text_12">
     <!-- Time -->
     <g transform="translate(356.766406 284.596563) scale(0.1 -0.1)">
      <defs>
       <path id="DejaVuSans-54" d="M -19 4666 
L 3928 4666 
L 3928 4134 
L 2272 4134 
L 2272 0 
L 1638 0 
L 1638 4134 
L -19 4134 
L -19 4666 
z
" transform="scale(0.015625)"/>
       <path id="DejaVuSans-69" d="M 603 3500 
L 1178 3500 
L 1178 0 
L 603 0 
L 603 3500 
z
M 603 4863 
L 1178 4863 
L 1178 4134 
L 603 4134 
L 603 4863 
z
" transform="scale(0.015625)"/>
       <path id="DejaVuSans-6d" d="M 3328 2828 
Q 3544 3216 3844 3400 
Q 4144 3584 4550 3584 
Q 5097 3584 5394 3201 
Q 5691 2819 5691 2113 
L 5691 0 
L 5113 0 
L 5113 2094 
Q 5113 2597 4934 2840 
Q 4756 3084 4391 3084 
Q 3944 3084 3684 2787 
Q 3425 2491 3425 1978 
L 3425 0 
L 2847 0 
L 2847 2094 
Q 2847 2600 2669 2842 
Q 2491 3084 2119 3084 
Q 1678 3084 1418 2786 
Q 1159 2488 1159 1978 
L 1159 0 
L 581 0 
L 581 3500 
L 1159 3500 
L 1159 2956 
Q 1356 3278 1631 3431 
Q 1906 3584 2284 3584 
Q 2666 3584 2933 3390 
Q 3200 3197 3328 2828 
z
" transform="scale(0.015625)"/>
       <path id="DejaVuSans-65" d="M 3597 1894 
L 3597 1613 
L 953 1613 
Q 991 1019 1311 708 
Q 1631 397 2203 397 
Q 2534 397 2845 478 
Q 3156 559 3463 722 
L 3463 178 
Q 3153 47 2828 -22 
Q 2503 -91 2169 -91 
Q 1331 -91 842 396 
Q 353 884 353 1716 
Q 353 2575 817 3079 
Q 1281 3584 2069 3584 
Q 2775 3584 3186 3129 
Q 3597 2675 3597 1894 
z
M 3022 2063 
Q 3016 2534 2758 2815 
Q 2500 3097 2075 3097 
Q 1594 3097 1305 2825 
Q 1016 2553 972 2059 
L 3022 2063 
z
" transform="scale(0.015625)"/>
      </defs>
      <use xlink:href="#DejaVuSans-54"/>
      <use xlink:href="#DejaVuSans-69" x="57.958984"/>
      <use xlink:href="#DejaVuSans-6d" x="85.742188"/>
      <use xlink:href="#DejaVuSans-65" x="183.154297"/>
     </g>
    </g>
   </g>
   <g id="matplotlib.axis_2">
    <g id="ytick_1">
     <g id="line2d_12">
      <path d="M 90 246.24 
L 648 246.24 
" clip-path="url(#p0f5b653ea8)" style="fill: none; stroke: #b0b0b0; stroke-width: 0.8; stroke-linecap: square"/>
     </g>
     <g id="line2d_13">
      <defs>
       <path id="m2d642381de" d="M 0 0 
L -3.5 0 
" style="stroke: #000000; stroke-width: 0.8"/>
      </defs>
      <g>
       <use xlink:href="#m2d642381de" x="90" y="246.24" style="stroke: #000000; stroke-width: 0.8"/>
      </g>
     </g>
     <g id="text_13">
      <!-- 0 -->
      <g transform="translate(76.6375 250.039219) scale(0.1 -0.1)">
       <use xlink:href="#DejaVuSans-30"/>
      </g>
     </g>
    </g>
    <g id="ytick_2">
     <g id="line2d_14">
      <path d="M 90 212.174437 
L 648 212.174437 
" clip-path="url(#p0f5b653ea8)" style="fill: none; stroke: #b0b0b0; stroke-width: 0.8; stroke-linecap: square"/>
     </g>
     <g id="line2d_15">
      <g>
       <use xlink:href="#m2d642381de" x="90" y="212.174437" style="stroke: #000000; stroke-width: 0.8"/>
      </g>
     </g>
     <g id="text_14">
      <!-- 500 -->
      <g transform="translate(63.9125 215.973656) scale(0.1 -0.1)">
       <use xlink:href="#DejaVuSans-35"/>
       <use xlink:href="#DejaVuSans-30" x="63.623047"/>
       <use xlink:href="#DejaVuSans-30" x="127.246094"/>
      </g>
     </g>
    </g>
    <g id="ytick_3">
     <g id="line2d_16">
      <path d="M 90 178.108875 
L 648 178.108875 
" clip-path="url(#p0f5b653ea8)" style="fill: none; stroke: #b0b0b0; stroke-width: 0.8; stroke-linecap: square"/>
     </g>
     <g id="line2d_17">
      <g>
       <use xlink:href="#m2d642381de" x="90" y="178.108875" style="stroke: #000000; stroke-width: 0.8"/>
      </g>
     </g>
     <g id="text_15">
      <!-- 1,000 -->
      <g transform="translate(54.371875 181.908093) scale(0.1 -0.1)">
       <defs>
        <path id="DejaVuSans-2c" d="M 750 794 
L 1409 794 
L 1409 256 
L 897 -744 
L 494 -744 
L 750 256 
L 750 794 
z
" transform="scale(0.015625)"/>
       </defs>
       <use xlink:href="#DejaVuSans-31"/>
       <use xlink:href="#DejaVuSans-2c" x="63.623047"/>
       <use xlink:href="#DejaVuSans-30" x="95.410156"/>
       <use xlink:href="#DejaVuSans-30" x="159.033203"/>
       <use xlink:href="#DejaVuSans-30" x="222.65625"/>
      </g>
     </g>
    </g>
    <g id="ytick_4">
     <g id="line2d_18">
      <path d="M 90 144.043312 
L 648 144.043312 
" clip-path="url(#p0f5b653ea8)" style="fill: none; stroke: #b0b0b0; stroke-width: 0.8; stroke-linecap: square"/>
     </g>
     <g id="line2d_19">
      <g>
       <use xlink:href="#m2d642381de" x="90" y="144.043312" style="stroke: #000000; stroke-width: 0.8"/>
      </g>
     </g>
     <g id="text_16">
      <!-- 1,500 -->
      <g transform="translate(54.371875 147.842531) scale(0.1 -0.1)">
       <use xlink:href="#DejaVuSans-31"/>
       <use xlink:href="#DejaVuSans-2c" x="63.623047"/>
       <use xlink:href="#DejaVuSans-35" x="95.410156"/>
       <use xlink:href="#DejaVuSans-30" x="159.033203"/>
       <use xlink:href="#DejaVuSans-30" x="222.65625"/>
      </g>
     </g>
    </g>
    <g id="ytick_5">
     <g id="line2d_20">
      <path d="M 90 109.977749 
L 648 109.977749 
" clip-path="url(#p0f5b653ea8)" style="fill: none; stroke: #b0b0b0; stroke-width: 0.8; stroke-linecap: square"/>
     </g>
     <g id="line2d_21">
      <g>
       <use xlink:href="#m2d642381de" x="90" y="109.977749" style="stroke: #000000; stroke-width: 0.8"/>
      </g>
     </g>
     <g id="text_17">
      <!-- 2,000 -->
      <g transform="translate(54.371875 113.776968) scale(0.1 -0.1)">
       <use xlink:href="#DejaVuSans-32"/>
       <use xlink:href="#DejaVuSans-2c" x="63.623047"/>
       <use xlink:href="#DejaVuSans-30" x="95.410156"/>
       <use xlink:href="#DejaVuSans-30" x="159.033203"/>
       <use xlink:href="#DejaVuSans-30" x="222.65625"/>
      </g>
     </g>
    </g>
    <g id="ytick_6">
     <g id="line2d_22">
      <path d="M 90 75.912187 
L 648 75.912187 
" clip-path="url(#p0f5b653ea8)" style="fill: none; stroke: #b0b0b0; stroke-width: 0.8; stroke-linecap: square"/>
     </g>
     <g id="line2d_23">
      <g>
       <use xlink:href="#m2d642381de" x="90" y="75.912187" style="stroke: #000000; stroke-width: 0.8"/>
      </g>
     </g>
     <g id="text_18">
      <!-- 2,500 -->
      <g transform="translate(54.371875 79.711405) scale(0.1 -0.1)">
       <use xlink:href="#DejaVuSans-32"/>
       <use xlink:href="#DejaVuSans-2c" x="63.623047"/>
       <use xlink:href="#DejaVuSans-35" x="95.410156"/>
       <use xlink:href="#DejaVuSans-30" x="159.033203"/>
       <use xlink:href="#DejaVuSans-30" x="222.65625"/>
      </g>
     </g>
    </g>
    <g id="ytick_7">
     <g id="line2d_24">
      <path d="M 90 41.846624 
L 648 41.846624 
" clip-path="url(#p0f5b653ea8)" style="fill: none; stroke: #b0b0b0; stroke-width: 0.8; stroke-linecap: square"/>
     </g>
     <g id="line2d_25">
      <g>
       <use xlink:href="#m2d642381de" x="90" y="41.846624" style="stroke: #000000; stroke-width: 0.8"/>
      </g>
     </g>
     <g id="text_19">
      <!-- 3,000 -->
      <g transform="translate(54.371875 45.645843) scale(0.1 -0.1)">
       <use xlink:href="#DejaVuSans-33"/>
       <use xlink:href="#DejaVuSans-2c" x="63.623047"/>
       <use xlink:href="#DejaVuSans-30" x="95.410156"/>
       <use xlink:href="#DejaVuSans-30" x="159.033203"/>
       <use xlink:href="#DejaVuSans-30" x="222.65625"/>
      </g>
     </g>
    </g>
    <g id="text_20">
     <!-- Bitrate (kbit/s) -->
     <g transform="translate(48.292187 181.574375) rotate(-90) scale(0.1 -0.1)">
      <defs>
       <path id="DejaVuSans-42" d="M 1259 2228 
L 1259 519 
L 2272 519 
Q 2781 519 3026 730 
Q 3272 941 3272 1375 
Q 3272 1813 3026 2020 
Q 2781 2228 2272 2228 
L 1259 2228 
z
M 1259 4147 
L 1259 2741 
L 2194 2741 
Q 2656 2741 2882 2914 
Q 3109 3088 3109 3444 
Q 3109 3797 2882 3972 
Q 2656 4147 2194 4147 
L 1259 4147 
z
M 628 4666 
L 2241 4666 
Q 2963 4666 3353 4366 
Q 3744 4066 3744 3513 
Q 3744 3084 3544 2831 
Q 3344 2578 2956 2516 
Q 3422 2416 3680 2098 
Q 3938 1781 3938 1306 
Q 3938 681 3513 340 
Q 3088 0 2303 0 
L 628 0 
L 628 4666 
z
" transform="scale(0.015625)"/>
       <path id="DejaVuSans-74" d="M 1172 4494 
L 1172 3500 
L 2356 3500 
L 2356 3053 
L 1172 3053 
L 1172 1153 
Q 1172 725 1289 603 
Q 1406 481 1766 481 
L 2356 481 
L 2356 0 
L 1766 0 
Q 1100 0 847 248 
Q 594 497 594 1153 
L 594 3053 
L 172 3053 
L 172 3500 
L 594 3500 
L 594 4494 
L 1172 4494 
z
" transform="scale(0.015625)"/>
       <path id="DejaVuSans-72" d="M 2631 2963 
Q 2534 3019 2420 3045 
Q 2306 3072 2169 3072 
Q 1681 3072 1420 2755 
Q 1159 2438 1159 1844 
L 1159 0 
L 581 0 
L 581 3500 
L 1159 3500 
L 1159 2956 
Q 1341 3275 1631 3429 
Q 1922 3584 2338 3584 
Q 2397 3584 2469 3576 
Q 2541 3569 2628 3553 
L 2631 2963 
z
" transform="scale(0.015625)"/>
       <path id="DejaVuSans-61" d="M 2194 1759 
Q 1497 1759 1228 1600 
Q 959 1441 959 1056 
Q 959 750 1161 570 
Q 1363 391 1709 391 
Q 2188 391 2477 730 
Q 2766 1069 2766 1631 
L 2766 1759 
L 2194 1759 
z
M 3341 1997 
L 3341 0 
L 2766 0 
L 2766 531 
Q 2569 213 2275 61 
Q 1981 -91 1556 -91 
Q 1019 -91 701 211 
Q 384 513 384 1019 
Q 384 1609 779 1909 
Q 1175 2209 1959 2209 
L 2766 2209 
L 2766 2266 
Q 2766 2663 2505 2880 
Q 2244 3097 1772 3097 
Q 1472 3097 1187 3025 
Q 903 2953 641 2809 
L 641 3341 
Q 956 3463 1253 3523 
Q 1550 3584 1831 3584 
Q 2591 3584 2966 3190 
Q 3341 2797 3341 1997 
z
" transform="scale(0.015625)"/>
       <path id="DejaVuSans-20" transform="scale(0.015625)"/>
       <path id="DejaVuSans-28" d="M 1984 4856 
Q 1566 4138 1362 3434 
Q 1159 2731 1159 2009 
Q 1159 1288 1364 580 
Q 1569 -128 1984 -844 
L 1484 -844 
Q 1016 -109 783 600 
Q 550 1309 550 2009 
Q 550 2706 781 3412 
Q 1013 4119 1484 4856 
L 1984 4856 
z
" transform="scale(0.015625)"/>
       <path id="DejaVuSans-6b" d="M 581 4863 
L 1159 4863 
L 1159 1991 
L 2875 3500 
L 3609 3500 
L 1753 1863 
L 3688 0 
L 2938 0 
L 1159 1709 
L 1159 0 
L 581 0 
L 581 4863 
z
" transform="scale(0.015625)"/>
       <path id="DejaVuSans-62" d="M 3116 1747 
Q 3116 2381 2855 2742 
Q 2594 3103 2138 3103 
Q 1681 3103 1420 2742 
Q 1159 2381 1159 1747 
Q 1159 1113 1420 752 
Q 1681 391 2138 391 
Q 2594 391 2855 752 
Q 3116 1113 3116 1747 
z
M 1159 2969 
Q 1341 3281 1617 3432 
Q 1894 3584 2278 3584 
Q 2916 3584 3314 3078 
Q 3713 2572 3713 1747 
Q 3713 922 3314 415 
Q 2916 -91 2278 -91 
Q 1894 -91 1617 61 
Q 1341 213 1159 525 
L 1159 0 
L 581 0 
L 581 4863 
L 1159 4863 
L 1159 2969 
z
" transform="scale(0.015625)"/>
       <path id="DejaVuSans-2f" d="M 1625 4666 
L 2156 4666 
L 531 -594 
L 0 -594 
L 1625 4666 
z
" transform="scale(0.015625)"/>
       <path id="DejaVuSans-73" d="M 2834 3397 
L 2834 2853 
Q 2591 2978 2328 3040 
Q 2066 3103 1784 3103 
Q 1356 3103 1142 2972 
Q 928 2841 928 2578 
Q 928 2378 1081 2264 
Q 1234 2150 1697 2047 
L 1894 2003 
Q 2506 1872 2764 1633 
Q 3022 1394 3022 966 
Q 3022 478 2636 193 
Q 2250 -91 1575 -91 
Q 1294 -91 989 -36 
Q 684 19 347 128 
L 347 722 
Q 666 556 975 473 
Q 1284 391 1588 391 
Q 1994 391 2212 530 
Q 2431 669 2431 922 
Q 2431 1156 2273 1281 
Q 2116 1406 1581 1522 
L 1381 1569 
Q 847 1681 609 1914 
Q 372 2147 372 2553 
Q 372 3047 722 3315 
Q 1072 3584 1716 3584 
Q 2034 3584 2315 3537 
Q 2597 3491 2834 3397 
z
" transform="scale(0.015625)"/>
       <path id="DejaVuSans-29" d="M 513 4856 
L 1013 4856 
Q 1481 4119 1714 3412 
Q 1947 2706 1947 2009 
Q 1947 1309 1714 600 
Q 1481 -109 1013 -844 
L 513 -844 
Q 928 -128 1133 580 
Q 1338 1288 1338 2009 
Q 1338 2731 1133 3434 
Q 928 4138 513 4856 
z
" transform="scale(0.015625)"/>
      </defs>
      <use xlink:href="#DejaVuSans-42"/>
      <use xlink:href="#DejaVuSans-69" x="68.603516"/>
      <use xlink:href="#DejaVuSans-74" x="96.386719"/>
      <use xlink:href="#DejaVuSans-72" x="135.595703"/>
      <use xlink:href="#DejaVuSans-61" x="176.708984"/>
      <use xlink:href="#DejaVuSans-74" x="237.988281"/>
      <use xlink:href="#DejaVuSans-65" x="277.197266"/>
      <use xlink:href="#DejaVuSans-20" x="338.720703"/>
      <use xlink:href="#DejaVuSans-28" x="370.507812"/>
      <use xlink:href="#DejaVuSans-6b" x="409.521484"/>
      <use xlink:href="#DejaVuSans-62" x="467.431641"/>
      <use xlink:href="#DejaVuSans-69" x="530.908203"/>
      <use xlink:href="#DejaVuSans-74" x="558.691406"/>
      <use xlink:href="#DejaVuSans-2f" x="597.900391"/>
      <use xlink:href="#DejaVuSans-73" x="631.591797"/>
      <use xlink:href="#DejaVuSans-29" x="683.691406"/>
     </g>
    </g>
   </g>
   <g id="PolyCollection_1">
    <defs>
     <path id="meb0a4ee55b" d="M 115.363636 -41.964393 
L 115.363636 -41.76 
L 117.054545 -41.76 
L 118.745455 -41.76 
L 120.436364 -41.76 
L 122.127273 -41.76 
L 123.818182 -41.76 
L 125.509091 -41.76 
L 127.2 -41.76 
L 128.890909 -41.76 
L 130.581818 -41.76 
L 132.272727 -41.76 
L 133.963636 -41.76 
L 135.654545 -41.76 
L 137.345455 -41.76 
L 139.036364 -41.76 
L 140.727273 -41.76 
L 142.418182 -41.76 
L 144.109091 -41.76 
L 145.8 -41.76 
L 147.490909 -41.76 
L 149.181818 -41.76 
L 150.872727 -41.76 
L 152.563636 -41.76 
L 154.254545 -41.76 
L 155.945455 -41.76 
L 157.636364 -41.76 
L 159.327273 -41.76 
L 161.018182 -41.76 
L 162.709091 -41.76 
L 164.4 -41.76 
L 166.090909 -41.76 
L 167.781818 -41.76 
L 169.472727 -41.76 
L 171.163636 -41.76 
L 172.854545 -41.76 
L 174.545455 -41.76 
L 176.236364 -41.76 
L 177.927273 -41.76 
L 179.618182 -41.76 
L 181.309091 -41.76 
L 183 -41.76 
L 184.690909 -41.76 
L 186.381818 -41.76 
L 188.072727 -41.76 
L 189.763636 -41.76 
L 191.454545 -41.76 
L 193.145455 -41.76 
L 194.836364 -41.76 
L 196.527273 -41.76 
L 198.218182 -41.76 
L 199.909091 -41.76 
L 201.6 -41.76 
L 203.290909 -41.76 
L 204.981818 -41.76 
L 206.672727 -41.76 
L 208.363636 -41.76 
L 210.054545 -41.76 
L 211.745455 -41.76 
L 213.436364 -41.76 
L 215.127273 -41.76 
L 216.818182 -41.76 
L 218.509091 -41.76 
L 220.2 -41.76 
L 221.890909 -41.76 
L 223.581818 -41.76 
L 225.272727 -41.76 
L 226.963636 -41.76 
L 228.654545 -41.76 
L 230.345455 -41.76 
L 232.036364 -41.76 
L 233.727273 -41.76 
L 235.418182 -41.76 
L 237.109091 -41.76 
L 238.8 -41.76 
L 240.490909 -41.76 
L 242.181818 -41.76 
L 243.872727 -41.76 
L 245.563636 -41.76 
L 247.254545 -41.76 
L 248.945455 -41.76 
L 250.636364 -41.76 
L 252.327273 -41.76 
L 254.018182 -41.76 
L 255.709091 -41.76 
L 257.4 -41.76 
L 259.090909 -41.76 
L 260.781818 -41.76 
L 262.472727 -41.76 
L 264.163636 -41.76 
L 265.854545 -41.76 
L 267.545455 -41.76 
L 269.236364 -41.76 
L 270.927273 -41.76 
L 272.618182 -41.76 
L 274.309091 -41.76 
L 276 -41.76 
L 277.690909 -41.76 
L 279.381818 -41.76 
L 281.072727 -41.76 
L 282.763636 -41.76 
L 284.454545 -41.76 
L 286.145455 -41.76 
L 287.836364 -41.76 
L 289.527273 -41.76 
L 291.218182 -41.76 
L 292.909091 -41.76 
L 294.6 -41.76 
L 296.290909 -41.76 
L 297.981818 -41.76 
L 299.672727 -41.76 
L 301.363636 -41.76 
L 303.054545 -41.76 
L 304.745455 -41.76 
L 306.436364 -41.76 
L 308.127273 -41.76 
L 309.818182 -41.76 
L 311.509091 -41.76 
L 313.2 -41.76 
L 314.890909 -41.76 
L 316.581818 -41.76 
L 318.272727 -41.76 
L 319.963636 -41.76 
L 321.654545 -41.76 
L 323.345455 -41.76 
L 325.036364 -41.76 
L 326.727273 -41.76 
L 328.418182 -41.76 
L 330.109091 -41.76 
L 331.8 -41.76 
L 333.490909 -41.76 
L 335.181818 -41.76 
L 336.872727 -41.76 
L 338.563636 -41.76 
L 340.254545 -41.76 
L 341.945455 -41.76 
L 343.636364 -41.76 
L 345.327273 -41.76 
L 347.018182 -41.76 
L 348.709091 -41.76 
L 350.4 -41.76 
L 352.090909 -41.76 
L 353.781818 -41.76 
L 355.472727 -41.76 
L 357.163636 -41.76 
L 358.854545 -41.76 
L 360.545455 -41.76 
L 362.236364 -41.76 
L 363.927273 -41.76 
L 365.618182 -41.76 
L 367.309091 -41.76 
L 369 -41.76 
L 370.690909 -41.76 
L 372.381818 -41.76 
L 374.072727 -41.76 
L 375.763636 -41.76 
L 377.454545 -41.76 
L 379.145455 -41.76 
L 380.836364 -41.76 
L 382.527273 -41.76 
L 384.218182 -41.76 
L 385.909091 -41.76 
L 387.6 -41.76 
L 389.290909 -41.76 
L 390.981818 -41.76 
L 392.672727 -41.76 
L 394.363636 -41.76 
L 396.054545 -41.76 
L 397.745455 -41.76 
L 399.436364 -41.76 
L 401.127273 -41.76 
L 402.818182 -41.76 
L 404.509091 -41.76 
L 406.2 -41.76 
L 407.890909 -41.76 
L 409.581818 -41.76 
L 411.272727 -41.76 
L 412.963636 -41.76 
L 414.654545 -41.76 
L 416.345455 -41.76 
L 418.036364 -41.76 
L 419.727273 -41.76 
L 421.418182 -41.76 
L 423.109091 -41.76 
L 424.8 -41.76 
L 426.490909 -41.76 
L 428.181818 -41.76 
L 429.872727 -41.76 
L 431.563636 -41.76 
L 433.254545 -41.76 
L 434.945455 -41.76 
L 436.636364 -41.76 
L 438.327273 -41.76 
L 440.018182 -41.76 
L 441.709091 -41.76 
L 443.4 -41.76 
L 445.090909 -41.76 
L 446.781818 -41.76 
L 448.472727 -41.76 
L 450.163636 -41.76 
L 451.854545 -41.76 
L 453.545455 -41.76 
L 455.236364 -41.76 
L 456.927273 -41.76 
L 458.618182 -41.76 
L 460.309091 -41.76 
L 462 -41.76 
L 463.690909 -41.76 
L 465.381818 -41.76 
L 467.072727 -41.76 
L 468.763636 -41.76 
L 470.454545 -41.76 
L 472.145455 -41.76 
L 473.836364 -41.76 
L 475.527273 -41.76 
L 477.218182 -41.76 
L 478.909091 -41.76 
L 480.6 -41.76 
L 482.290909 -41.76 
L 483.981818 -41.76 
L 485.672727 -41.76 
L 487.363636 -41.76 
L 489.054545 -41.76 
L 490.745455 -41.76 
L 492.436364 -41.76 
L 494.127273 -41.76 
L 495.818182 -41.76 
L 497.509091 -41.76 
L 499.2 -41.76 
L 500.890909 -41.76 
L 502.581818 -41.76 
L 504.272727 -41.76 
L 505.963636 -41.76 
L 507.654545 -41.76 
L 509.345455 -41.76 
L 511.036364 -41.76 
L 512.727273 -41.76 
L 514.418182 -41.76 
L 516.109091 -41.76 
L 517.8 -41.76 
L 519.490909 -41.76 
L 521.181818 -41.76 
L 522.872727 -41.76 
L 524.563636 -41.76 
L 526.254545 -41.76 
L 527.945455 -41.76 
L 529.636364 -41.76 
L 531.327273 -41.76 
L 533.018182 -41.76 
L 534.709091 -41.76 
L 536.4 -41.76 
L 538.090909 -41.76 
L 539.781818 -41.76 
L 541.472727 -41.76 
L 543.163636 -41.76 
L 544.854545 -41.76 
L 546.545455 -41.76 
L 548.236364 -41.76 
L 549.927273 -41.76 
L 551.618182 -41.76 
L 553.309091 -41.76 
L 555 -41.76 
L 556.690909 -41.76 
L 558.381818 -41.76 
L 560.072727 -41.76 
L 561.763636 -41.76 
L 563.454545 -41.76 
L 565.145455 -41.76 
L 566.836364 -41.76 
L 568.527273 -41.76 
L 570.218182 -41.76 
L 571.909091 -41.76 
L 573.6 -41.76 
L 575.290909 -41.76 
L 576.981818 -41.76 
L 578.672727 -41.76 
L 580.363636 -41.76 
L 582.054545 -41.76 
L 583.745455 -41.76 
L 585.436364 -41.76 
L 587.127273 -41.76 
L 588.818182 -41.76 
L 590.509091 -41.76 
L 592.2 -41.76 
L 593.890909 -41.76 
L 595.581818 -41.76 
L 597.272727 -41.76 
L 598.963636 -41.76 
L 600.654545 -41.76 
L 602.345455 -41.76 
L 604.036364 -41.76 
L 605.727273 -41.76 
L 607.418182 -41.76 
L 609.109091 -41.76 
L 610.8 -41.76 
L 612.490909 -41.76 
L 614.181818 -41.76 
L 615.872727 -41.76 
L 617.563636 -41.76 
L 619.254545 -41.76 
L 620.945455 -41.76 
L 622.636364 -41.76 
L 622.636364 -41.76 
L 622.636364 -41.76 
L 620.945455 -41.76 
L 619.254545 -52.729111 
L 617.563636 -41.76 
L 615.872727 -41.76 
L 614.181818 -41.76 
L 612.490909 -77.733234 
L 610.8 -41.76 
L 609.109091 -41.76 
L 607.418182 -41.76 
L 605.727273 -65.674025 
L 604.036364 -41.76 
L 602.345455 -41.76 
L 600.654545 -41.76 
L 598.963636 -41.76 
L 597.272727 -47.142359 
L 595.581818 -41.76 
L 593.890909 -41.76 
L 592.2 -41.76 
L 590.509091 -50.344522 
L 588.818182 -41.76 
L 587.127273 -41.76 
L 585.436364 -41.76 
L 583.745455 -60.972977 
L 582.054545 -41.76 
L 580.363636 -41.76 
L 578.672727 -41.76 
L 576.981818 -62.403731 
L 575.290909 -41.76 
L 573.6 -41.76 
L 571.909091 -41.76 
L 570.218182 -41.76 
L 568.527273 -83.047462 
L 566.836364 -41.76 
L 565.145455 -41.76 
L 563.454545 -41.76 
L 561.763636 -70.920122 
L 560.072727 -41.76 
L 558.381818 -41.76 
L 556.690909 -41.76 
L 555 -52.797242 
L 553.309091 -41.76 
L 551.618182 -41.76 
L 549.927273 -41.76 
L 548.236364 -51.366489 
L 546.545455 -41.76 
L 544.854545 -41.76 
L 543.163636 -41.76 
L 541.472727 -41.76 
L 539.781818 -59.95101 
L 538.090909 -41.76 
L 536.4 -41.76 
L 534.709091 -41.76 
L 533.018182 -79.30025 
L 531.327273 -41.76 
L 529.636364 -41.76 
L 527.945455 -41.76 
L 526.254545 -65.810287 
L 524.563636 -41.76 
L 522.872727 -41.76 
L 521.181818 -41.76 
L 519.490909 -41.76 
L 517.8 -59.065306 
L 516.109091 -41.76 
L 514.418182 -41.76 
L 512.727273 -41.76 
L 511.036364 -88.566083 
L 509.345455 -41.76 
L 507.654545 -41.76 
L 505.963636 -41.76 
L 504.272727 -77.596972 
L 502.581818 -41.76 
L 500.890909 -41.76 
L 499.2 -41.76 
L 497.509091 -71.737695 
L 495.818182 -41.76 
L 494.127273 -41.76 
L 492.436364 -41.76 
L 490.745455 -41.76 
L 489.054545 -60.564191 
L 487.363636 -41.76 
L 485.672727 -41.76 
L 483.981818 -41.76 
L 482.290909 -50.480784 
L 480.6 -41.76 
L 478.909091 -41.76 
L 477.218182 -41.76 
L 475.527273 -53.27416 
L 473.836364 -41.76 
L 472.145455 -41.76 
L 470.454545 -41.76 
L 468.763636 -64.78832 
L 467.072727 -41.76 
L 465.381818 -41.76 
L 463.690909 -41.76 
L 462 -41.76 
L 460.309091 -63.153173 
L 458.618182 -41.76 
L 456.927273 -41.76 
L 455.236364 -41.76 
L 453.545455 -46.392917 
L 451.854545 -41.76 
L 450.163636 -41.76 
L 448.472727 -41.76 
L 446.781818 -76.166218 
L 445.090909 -41.76 
L 443.4 -41.76 
L 441.709091 -41.76 
L 440.018182 -51.911538 
L 438.327273 -41.76 
L 436.636364 -41.76 
L 434.945455 -41.76 
L 433.254545 -41.76 
L 431.563636 -55.590618 
L 429.872727 -41.76 
L 428.181818 -41.76 
L 426.490909 -41.76 
L 424.8 -62.199338 
L 423.109091 -41.76 
L 421.418182 -41.76 
L 419.727273 -41.76 
L 418.036364 -50.753309 
L 416.345455 -41.76 
L 414.654545 -41.76 
L 412.963636 -41.76 
L 411.272727 -41.76 
L 409.581818 -57.362028 
L 407.890909 -41.76 
L 406.2 -41.76 
L 404.509091 -41.76 
L 402.818182 -49.935735 
L 401.127273 -41.76 
L 399.436364 -41.76 
L 397.745455 -41.76 
L 396.054545 -65.537763 
L 394.363636 -41.76 
L 392.672727 -41.76 
L 390.981818 -41.76 
L 389.290909 -96.537425 
L 387.6 -41.76 
L 385.909091 -41.76 
L 384.218182 -41.76 
L 382.527273 -41.76 
L 380.836364 -60.700453 
L 379.145455 -41.76 
L 377.454545 -41.76 
L 375.763636 -41.76 
L 374.072727 -62.471862 
L 372.381818 -41.76 
L 370.690909 -41.76 
L 369 -41.76 
L 367.309091 -65.128976 
L 365.618182 -41.76 
L 363.927273 -41.76 
L 362.236364 -41.76 
L 360.545455 -63.630091 
L 358.854545 -41.76 
L 357.163636 -41.76 
L 355.472727 -41.76 
L 353.781818 -41.76 
L 352.090909 -64.447665 
L 350.4 -41.76 
L 348.709091 -41.76 
L 347.018182 -41.76 
L 345.327273 -67.990483 
L 343.636364 -41.76 
L 341.945455 -41.76 
L 340.254545 -41.76 
L 338.563636 -57.702683 
L 336.872727 -41.76 
L 335.181818 -41.76 
L 333.490909 -41.76 
L 331.8 -53.001636 
L 330.109091 -41.76 
L 328.418182 -41.76 
L 326.727273 -41.76 
L 325.036364 -41.76 
L 323.345455 -55.522487 
L 321.654545 -41.76 
L 319.963636 -41.76 
L 318.272727 -41.76 
L 316.581818 -72.691531 
L 314.890909 -41.76 
L 313.2 -41.76 
L 311.509091 -41.76 
L 309.818182 -53.137898 
L 308.127273 -41.76 
L 306.436364 -41.76 
L 304.745455 -41.76 
L 303.054545 -41.76 
L 301.363636 -52.115931 
L 299.672727 -41.76 
L 297.981818 -41.76 
L 296.290909 -41.76 
L 294.6 -103.078013 
L 292.909091 -41.76 
L 291.218182 -41.76 
L 289.527273 -41.76 
L 287.836364 -77.937628 
L 286.145455 -41.76 
L 284.454545 -41.76 
L 282.763636 -41.76 
L 281.072727 -74.939858 
L 279.381818 -41.76 
L 277.690909 -41.76 
L 276 -41.76 
L 274.309091 -41.76 
L 272.618182 -78.68707 
L 270.927273 -41.76 
L 269.236364 -41.76 
L 267.545455 -41.76 
L 265.854545 -65.742156 
L 264.163636 -41.76 
L 262.472727 -41.76 
L 260.781818 -41.76 
L 259.090909 -53.342291 
L 257.4 -41.76 
L 255.709091 -41.76 
L 254.018182 -41.76 
L 252.327273 -55.590618 
L 250.636364 -41.76 
L 248.945455 -41.76 
L 247.254545 -41.76 
L 245.563636 -41.76 
L 243.872727 -94.561622 
L 242.181818 -41.76 
L 240.490909 -41.76 
L 238.8 -41.76 
L 237.109091 -52.184062 
L 235.418182 -41.76 
L 233.727273 -41.76 
L 232.036364 -41.76 
L 230.345455 -77.392579 
L 228.654545 -41.76 
L 226.963636 -41.76 
L 225.272727 -41.76 
L 223.581818 -62.131206 
L 221.890909 -41.76 
L 220.2 -41.76 
L 218.509091 -41.76 
L 216.818182 -41.76 
L 215.127273 -62.744387 
L 213.436364 -41.76 
L 211.745455 -41.76 
L 210.054545 -41.76 
L 208.363636 -61.790551 
L 206.672727 -41.76 
L 204.981818 -41.76 
L 203.290909 -41.76 
L 201.6 -64.038878 
L 199.909091 -41.76 
L 198.218182 -41.76 
L 196.527273 -41.76 
L 194.836364 -41.76 
L 193.145455 -67.445434 
L 191.454545 -41.76 
L 189.763636 -41.76 
L 188.072727 -41.76 
L 186.381818 -59.882879 
L 184.690909 -41.76 
L 183 -41.76 
L 181.309091 -41.76 
L 179.618182 -70.102548 
L 177.927273 -41.76 
L 176.236364 -41.76 
L 174.545455 -41.76 
L 172.854545 -65.128976 
L 171.163636 -41.76 
L 169.472727 -41.76 
L 167.781818 -41.76 
L 166.090909 -41.76 
L 164.4 -71.192646 
L 162.709091 -41.76 
L 161.018182 -41.76 
L 159.327273 -41.76 
L 157.636364 -53.751078 
L 155.945455 -41.76 
L 154.254545 -41.76 
L 152.563636 -41.76 
L 150.872727 -52.320324 
L 149.181818 -41.76 
L 147.490909 -41.76 
L 145.8 -41.76 
L 144.109091 -68.126746 
L 142.418182 -41.76 
L 140.727273 -41.76 
L 139.036364 -41.76 
L 137.345455 -41.76 
L 135.654545 -63.970747 
L 133.963636 -41.76 
L 132.272727 -41.76 
L 130.581818 -41.76 
L 128.890909 -54.50052 
L 127.2 -41.76 
L 125.509091 -41.76 
L 123.818182 -41.76 
L 122.127273 -41.964393 
L 120.436364 -41.76 
L 118.745455 -41.76 
L 117.054545 -41.76 
L 115.363636 -41.964393 
z
" style="stroke: #ff0000; stroke-width: 0.5"/>
    </defs>
    <g clip-path="url(#p0f5b653ea8)">
     <use xlink:href="#meb0a4ee55b" x="0" y="288" style="fill: #ff0000; stroke: #ff0000; stroke-width: 0.5"/>
    </g>
   </g>
   <g id="PolyCollection_2">
    <defs>
     <path id="m6fb3285885" d="M 115.363636 -45.234687 
L 115.363636 -41.964393 
L 117.054545 -41.76 
L 118.745455 -41.76 
L 120.436364 -41.76 
L 122.127273 -41.964393 
L 123.818182 -41.76 
L 125.509091 -41.76 
L 127.2 -41.76 
L 128.890909 -54.50052 
L 130.581818 -41.76 
L 132.272727 -41.76 
L 133.963636 -41.76 
L 135.654545 -63.970747 
L 137.345455 -41.76 
L 139.036364 -41.76 
L 140.727273 -41.76 
L 142.418182 -41.76 
L 144.109091 -68.126746 
L 145.8 -41.76 
L 147.490909 -41.76 
L 149.181818 -41.76 
L 150.872727 -52.320324 
L 152.563636 -41.76 
L 154.254545 -41.76 
L 155.945455 -41.76 
L 157.636364 -53.751078 
L 159.327273 -41.76 
L 161.018182 -41.76 
L 162.709091 -41.76 
L 164.4 -71.192646 
L 166.090909 -41.76 
L 167.781818 -41.76 
L 169.472727 -41.76 
L 171.163636 -41.76 
L 172.854545 -65.128976 
L 174.545455 -41.76 
L 176.236364 -41.76 
L 177.927273 -41.76 
L 179.618182 -70.102548 
L 181.309091 -41.76 
L 183 -41.76 
L 184.690909 -41.76 
L 186.381818 -59.882879 
L 188.072727 -41.76 
L 189.763636 -41.76 
L 191.454545 -41.76 
L 193.145455 -67.445434 
L 194.836364 -41.76 
L 196.527273 -41.76 
L 198.218182 -41.76 
L 199.909091 -41.76 
L 201.6 -64.038878 
L 203.290909 -41.76 
L 204.981818 -41.76 
L 206.672727 -41.76 
L 208.363636 -61.790551 
L 210.054545 -41.76 
L 211.745455 -41.76 
L 213.436364 -41.76 
L 215.127273 -62.744387 
L 216.818182 -41.76 
L 218.509091 -41.76 
L 220.2 -41.76 
L 221.890909 -41.76 
L 223.581818 -62.131206 
L 225.272727 -41.76 
L 226.963636 -41.76 
L 228.654545 -41.76 
L 230.345455 -77.392579 
L 232.036364 -41.76 
L 233.727273 -41.76 
L 235.418182 -41.76 
L 237.109091 -52.184062 
L 238.8 -41.76 
L 240.490909 -41.76 
L 242.181818 -41.76 
L 243.872727 -94.561622 
L 245.563636 -41.76 
L 247.254545 -41.76 
L 248.945455 -41.76 
L 250.636364 -41.76 
L 252.327273 -55.590618 
L 254.018182 -41.76 
L 255.709091 -41.76 
L 257.4 -41.76 
L 259.090909 -53.342291 
L 260.781818 -41.76 
L 262.472727 -41.76 
L 264.163636 -41.76 
L 265.854545 -65.742156 
L 267.545455 -41.76 
L 269.236364 -41.76 
L 270.927273 -41.76 
L 272.618182 -78.68707 
L 274.309091 -41.76 
L 276 -41.76 
L 277.690909 -41.76 
L 279.381818 -41.76 
L 281.072727 -74.939858 
L 282.763636 -41.76 
L 284.454545 -41.76 
L 286.145455 -41.76 
L 287.836364 -77.937628 
L 289.527273 -41.76 
L 291.218182 -41.76 
L 292.909091 -41.76 
L 294.6 -103.078013 
L 296.290909 -41.76 
L 297.981818 -41.76 
L 299.672727 -41.76 
L 301.363636 -52.115931 
L 303.054545 -41.76 
L 304.745455 -41.76 
L 306.436364 -41.76 
L 308.127273 -41.76 
L 309.818182 -53.137898 
L 311.509091 -41.76 
L 313.2 -41.76 
L 314.890909 -41.76 
L 316.581818 -72.691531 
L 318.272727 -41.76 
L 319.963636 -41.76 
L 321.654545 -41.76 
L 323.345455 -55.522487 
L 325.036364 -41.76 
L 326.727273 -41.76 
L 328.418182 -41.76 
L 330.109091 -41.76 
L 331.8 -53.001636 
L 333.490909 -41.76 
L 335.181818 -41.76 
L 336.872727 -41.76 
L 338.563636 -57.702683 
L 340.254545 -41.76 
L 341.945455 -41.76 
L 343.636364 -41.76 
L 345.327273 -67.990483 
L 347.018182 -41.76 
L 348.709091 -41.76 
L 350.4 -41.76 
L 352.090909 -64.447665 
L 353.781818 -41.76 
L 355.472727 -41.76 
L 357.163636 -41.76 
L 358.854545 -41.76 
L 360.545455 -63.630091 
L 362.236364 -41.76 
L 363.927273 -41.76 
L 365.618182 -41.76 
L 367.309091 -65.128976 
L 369 -41.76 
L 370.690909 -41.76 
L 372.381818 -41.76 
L 374.072727 -62.471862 
L 375.763636 -41.76 
L 377.454545 -41.76 
L 379.145455 -41.76 
L 380.836364 -60.700453 
L 382.527273 -41.76 
L 384.218182 -41.76 
L 385.909091 -41.76 
L 387.6 -41.76 
L 389.290909 -96.537425 
L 390.981818 -41.76 
L 392.672727 -41.76 
L 394.363636 -41.76 
L 396.054545 -65.537763 
L 397.745455 -41.76 
L 399.436364 -41.76 
L 401.127273 -41.76 
L 402.818182 -49.935735 
L 404.509091 -41.76 
L 406.2 -41.76 
L 407.890909 -41.76 
L 409.581818 -57.362028 
L 411.272727 -41.76 
L 412.963636 -41.76 
L 414.654545 -41.76 
L 416.345455 -41.76 
L 418.036364 -50.753309 
L 419.727273 -41.76 
L 421.418182 -41.76 
L 423.109091 -41.76 
L 424.8 -62.199338 
L 426.490909 -41.76 
L 428.181818 -41.76 
L 429.872727 -41.76 
L 431.563636 -55.590618 
L 433.254545 -41.76 
L 434.945455 -41.76 
L 436.636364 -41.76 
L 438.327273 -41.76 
L 440.018182 -51.911538 
L 441.709091 -41.76 
L 443.4 -41.76 
L 445.090909 -41.76 
L 446.781818 -76.166218 
L 448.472727 -41.76 
L 450.163636 -41.76 
L 451.854545 -41.76 
L 453.545455 -46.392917 
L 455.236364 -41.76 
L 456.927273 -41.76 
L 458.618182 -41.76 
L 460.309091 -63.153173 
L 462 -41.76 
L 463.690909 -41.76 
L 465.381818 -41.76 
L 467.072727 -41.76 
L 468.763636 -64.78832 
L 470.454545 -41.76 
L 472.145455 -41.76 
L 473.836364 -41.76 
L 475.527273 -53.27416 
L 477.218182 -41.76 
L 478.909091 -41.76 
L 480.6 -41.76 
L 482.290909 -50.480784 
L 483.981818 -41.76 
L 485.672727 -41.76 
L 487.363636 -41.76 
L 489.054545 -60.564191 
L 490.745455 -41.76 
L 492.436364 -41.76 
L 494.127273 -41.76 
L 495.818182 -41.76 
L 497.509091 -71.737695 
L 499.2 -41.76 
L 500.890909 -41.76 
L 502.581818 -41.76 
L 504.272727 -77.596972 
L 505.963636 -41.76 
L 507.654545 -41.76 
L 509.345455 -41.76 
L 511.036364 -88.566083 
L 512.727273 -41.76 
L 514.418182 -41.76 
L 516.109091 -41.76 
L 517.8 -59.065306 
L 519.490909 -41.76 
L 521.181818 -41.76 
L 522.872727 -41.76 
L 524.563636 -41.76 
L 526.254545 -65.810287 
L 527.945455 -41.76 
L 529.636364 -41.76 
L 531.327273 -41.76 
L 533.018182 -79.30025 
L 534.709091 -41.76 
L 536.4 -41.76 
L 538.090909 -41.76 
L 539.781818 -59.95101 
L 541.472727 -41.76 
L 543.163636 -41.76 
L 544.854545 -41.76 
L 546.545455 -41.76 
L 548.236364 -51.366489 
L 549.927273 -41.76 
L 551.618182 -41.76 
L 553.309091 -41.76 
L 555 -52.797242 
L 556.690909 -41.76 
L 558.381818 -41.76 
L 560.072727 -41.76 
L 561.763636 -70.920122 
L 563.454545 -41.76 
L 565.145455 -41.76 
L 566.836364 -41.76 
L 568.527273 -83.047462 
L 570.218182 -41.76 
L 571.909091 -41.76 
L 573.6 -41.76 
L 575.290909 -41.76 
L 576.981818 -62.403731 
L 578.672727 -41.76 
L 580.363636 -41.76 
L 582.054545 -41.76 
L 583.745455 -60.972977 
L 585.436364 -41.76 
L 587.127273 -41.76 
L 588.818182 -41.76 
L 590.509091 -50.344522 
L 592.2 -41.76 
L 593.890909 -41.76 
L 595.581818 -41.76 
L 597.272727 -47.142359 
L 598.963636 -41.76 
L 600.654545 -41.76 
L 602.345455 -41.76 
L 604.036364 -41.76 
L 605.727273 -65.674025 
L 607.418182 -41.76 
L 609.109091 -41.76 
L 610.8 -41.76 
L 612.490909 -77.733234 
L 614.181818 -41.76 
L 615.872727 -41.76 
L 617.563636 -41.76 
L 619.254545 -52.729111 
L 620.945455 -41.76 
L 622.636364 -41.76 
L 622.636364 -41.76 
L 622.636364 -41.76 
L 620.945455 -73.713498 
L 619.254545 -84.001298 
L 617.563636 -64.992714 
L 615.872727 -48.43685 
L 614.181818 -46.256654 
L 612.490909 -83.251855 
L 610.8 -48.777506 
L 609.109091 -53.27416 
L 607.418182 -45.711605 
L 605.727273 -67.78609 
L 604.036364 -45.030294 
L 602.345455 -55.726881 
L 600.654545 -51.366489 
L 598.963636 -54.50052 
L 597.272727 -62.471862 
L 595.581818 -72.487138 
L 593.890909 -58.656519 
L 592.2 -57.157634 
L 590.509091 -69.353106 
L 588.818182 -56.816979 
L 587.127273 -51.43462 
L 585.436364 -50.753309 
L 583.745455 -94.084704 
L 582.054545 -77.46071 
L 580.363636 -75.007989 
L 578.672727 -56.612585 
L 576.981818 -66.968516 
L 575.290909 -44.076458 
L 573.6 -57.49829 
L 571.909091 -47.142359 
L 570.218182 -54.296127 
L 568.527273 -89.043001 
L 566.836364 -61.313633 
L 565.145455 -49.118162 
L 563.454545 -52.865373 
L 561.763636 -75.416776 
L 560.072727 -58.11147 
L 558.381818 -56.408192 
L 556.690909 -53.751078 
L 555 -61.72242 
L 553.309091 -49.935735 
L 551.618182 -54.841176 
L 549.927273 -74.190416 
L 548.236364 -73.713498 
L 546.545455 -54.568652 
L 544.854545 -45.439081 
L 543.163636 -52.933505 
L 541.472727 -78.142021 
L 539.781818 -71.260777 
L 538.090909 -55.318094 
L 536.4 -54.296127 
L 534.709091 -74.871727 
L 533.018182 -89.179263 
L 531.327273 -50.344522 
L 529.636364 -67.717959 
L 527.945455 -45.439081 
L 526.254545 -69.557499 
L 524.563636 -43.531409 
L 522.872727 -46.733572 
L 521.181818 -44.008327 
L 519.490909 -47.619277 
L 517.8 -66.900385 
L 516.109091 -64.243271 
L 514.418182 -50.82144 
L 512.727273 -44.348983 
L 511.036364 -93.130869 
L 509.345455 -58.247732 
L 507.654545 -50.685177 
L 505.963636 -66.491599 
L 504.272727 -106.825225 
L 502.581818 -48.709375 
L 500.890909 -43.59954 
L 499.2 -43.735803 
L 497.509091 -73.781629 
L 495.818182 -47.891801 
L 494.127273 -47.755539 
L 492.436364 -56.135667 
L 490.745455 -68.126746 
L 489.054545 -71.39704 
L 487.363636 -54.296127 
L 485.672727 -51.843407 
L 483.981818 -58.11147 
L 482.290909 -97.286867 
L 480.6 -85.908969 
L 478.909091 -96.128638 
L 477.218182 -94.561622 
L 475.527273 -95.719851 
L 473.836364 -58.520257 
L 472.145455 -60.155404 
L 470.454545 -62.063075 
L 468.763636 -74.735465 
L 467.072727 -46.392917 
L 465.381818 -50.480784 
L 463.690909 -46.461048 
L 462 -67.445434 
L 460.309091 -77.733234 
L 458.618182 -52.388456 
L 456.927273 -49.867604 
L 455.236364 -45.643474 
L 453.545455 -99.330801 
L 451.854545 -64.243271 
L 450.163636 -55.522487 
L 448.472727 -69.557499 
L 446.781818 -99.535194 
L 445.090909 -43.872065 
L 443.4 -43.531409 
L 441.709091 -45.847868 
L 440.018182 -85.500182 
L 438.327273 -73.84976 
L 436.636364 -87.203461 
L 434.945455 -65.401501 
L 433.254545 -78.891463 
L 431.563636 -85.840838 
L 429.872727 -77.665103 
L 428.181818 -73.23658 
L 426.490909 -66.900385 
L 424.8 -78.959594 
L 423.109091 -55.454356 
L 421.418182 -74.871727 
L 419.727273 -79.981561 
L 418.036364 -78.210152 
L 416.345455 -54.432389 
L 414.654545 -63.698222 
L 412.963636 -52.729111 
L 411.272727 -58.452126 
L 409.581818 -78.550808 
L 407.890909 -62.676255 
L 406.2 -49.799473 
L 404.509091 -54.364258 
L 402.818182 -60.359797 
L 401.127273 -53.137898 
L 399.436364 -57.702683 
L 397.745455 -54.159865 
L 396.054545 -76.370612 
L 394.363636 -53.478554 
L 392.672727 -52.66098 
L 390.981818 -53.342291 
L 389.290909 -103.418668 
L 387.6 -47.483015 
L 385.909091 -44.417114 
L 384.218182 -51.911538 
L 382.527273 -53.069767 
L 380.836364 -80.049692 
L 379.145455 -64.17514 
L 377.454545 -60.223535 
L 375.763636 -54.704914 
L 374.072727 -67.717959 
L 372.381818 -45.166556 
L 370.690909 -45.98413 
L 369 -44.689638 
L 367.309091 -71.805826 
L 365.618182 -50.548915 
L 363.927273 -67.990483 
L 362.236364 -58.11147 
L 360.545455 -69.148712 
L 358.854545 -63.289436 
L 357.163636 -63.56196 
L 355.472727 -65.742156 
L 353.781818 -45.507212 
L 352.090909 -75.007989 
L 350.4 -60.768584 
L 348.709091 -50.82144 
L 347.018182 -49.186293 
L 345.327273 -74.326678 
L 343.636364 -52.865373 
L 341.945455 -47.414883 
L 340.254545 -48.573113 
L 338.563636 -79.163988 
L 336.872727 -61.177371 
L 335.181818 -49.867604 
L 333.490909 -49.322555 
L 331.8 -57.838946 
L 330.109091 -61.926813 
L 328.418182 -60.972977 
L 326.727273 -58.315863 
L 325.036364 -50.957702 
L 323.345455 -82.229888 
L 321.654545 -53.069767 
L 319.963636 -54.704914 
L 318.272727 -60.564191 
L 316.581818 -85.159527 
L 314.890909 -52.865373 
L 313.2 -56.88511 
L 311.509091 -76.098087 
L 309.818182 -90.337492 
L 308.127273 -72.691531 
L 306.436364 -69.557499 
L 304.745455 -79.91343 
L 303.054545 -74.803596 
L 301.363636 -84.205691 
L 299.672727 -66.764123 
L 297.981818 -55.590618 
L 296.290909 -45.507212 
L 294.6 -114.319649 
L 292.909091 -48.43685 
L 291.218182 -47.006097 
L 289.527273 -57.362028 
L 287.836364 -92.926475 
L 286.145455 -54.909307 
L 284.454545 -60.496059 
L 282.763636 -51.843407 
L 281.072727 -81.548577 
L 279.381818 -46.256654 
L 277.690909 -45.847868 
L 276 -44.553376 
L 274.309091 -44.689638 
L 272.618182 -84.001298 
L 270.927273 -46.937966 
L 269.236364 -55.65875 
L 267.545455 -53.478554 
L 265.854545 -67.717959 
L 264.163636 -48.709375 
L 262.472727 -48.913768 
L 260.781818 -56.476323 
L 259.090909 -73.917891 
L 257.4 -61.586157 
L 255.709091 -67.649828 
L 254.018182 -65.333369 
L 252.327273 -84.069429 
L 250.636364 -64.652058 
L 248.945455 -64.107009 
L 247.254545 -63.289436 
L 245.563636 -45.234687 
L 243.872727 -96.809949 
L 242.181818 -44.348983 
L 240.490909 -43.735803 
L 238.8 -68.467401 
L 237.109091 -65.401501 
L 235.418182 -59.405961 
L 233.727273 -64.78832 
L 232.036364 -58.247732 
L 230.345455 -82.706806 
L 228.654545 -55.181832 
L 226.963636 -50.82144 
L 225.272727 -51.843407 
L 223.581818 -65.060845 
L 221.890909 -46.188523 
L 220.2 -52.115931 
L 218.509091 -46.529179 
L 216.818182 -51.230226 
L 215.127273 -79.095857 
L 213.436364 -51.162095 
L 211.745455 -49.254424 
L 210.054545 -48.573113 
L 208.363636 -64.652058 
L 206.672727 -48.368719 
L 204.981818 -57.430159 
L 203.290909 -49.186293 
L 201.6 -69.761893 
L 199.909091 -47.21049 
L 198.218182 -49.322555 
L 196.527273 -46.937966 
L 194.836364 -44.076458 
L 193.145455 -70.170679 
L 191.454545 -44.621507 
L 189.763636 -46.665441 
L 188.072727 -46.937966 
L 186.381818 -64.311403 
L 184.690909 -45.37095 
L 183 -44.962163 
L 181.309091 -48.164326 
L 179.618182 -76.779398 
L 177.927273 -48.164326 
L 176.236364 -46.801703 
L 174.545455 -46.120392 
L 172.854545 -69.284975 
L 171.163636 -45.643474 
L 169.472727 -45.439081 
L 167.781818 -45.847868 
L 166.090909 -46.324785 
L 164.4 -76.506874 
L 162.709091 -47.551146 
L 161.018182 -46.461048 
L 159.327273 -45.37095 
L 157.636364 -66.764123 
L 155.945455 -67.649828 
L 154.254545 -47.755539 
L 152.563636 -55.454356 
L 150.872727 -60.768584 
L 149.181818 -48.845637 
L 147.490909 -48.504981 
L 145.8 -47.21049 
L 144.109091 -73.23658 
L 142.418182 -44.894032 
L 140.727273 -45.915999 
L 139.036364 -51.162095 
L 137.345455 -54.364258 
L 135.654545 -73.509104 
L 133.963636 -50.548915 
L 132.272727 -50.480784 
L 130.581818 -51.639013 
L 128.890909 -64.720189 
L 127.2 -50.753309 
L 125.509091 -48.368719 
L 123.818182 -45.575343 
L 122.127273 -43.735803 
L 120.436364 -43.667672 
L 118.745455 -43.872065 
L 117.054545 -44.75777 
L 115.363636 -45.234687 
z
" style="stroke: #0000ff; stroke-width: 0.5"/>
    </defs>
    <g clip-path="url(#p0f5b653ea8)">
     <use xlink:href="#m6fb3285885" x="0" y="288" style="fill: #0000ff; stroke: #0000ff; stroke-width: 0.5"/>
    </g>
   </g>
   <g id="PolyCollection_3">
    <defs>
     <path id="mfe0369861c" d="M 115.363636 -58.656519 
L 115.363636 -45.234687 
L 117.054545 -44.75777 
L 118.745455 -43.872065 
L 120.436364 -43.667672 
L 122.127273 -43.735803 
L 123.818182 -45.575343 
L 125.509091 -48.368719 
L 127.2 -50.753309 
L 128.890909 -64.720189 
L 130.581818 -51.639013 
L 132.272727 -50.480784 
L 133.963636 -50.548915 
L 135.654545 -73.509104 
L 137.345455 -54.364258 
L 139.036364 -51.162095 
L 140.727273 -45.915999 
L 142.418182 -44.894032 
L 144.109091 -73.23658 
L 145.8 -47.21049 
L 147.490909 -48.504981 
L 149.181818 -48.845637 
L 150.872727 -60.768584 
L 152.563636 -55.454356 
L 154.254545 -47.755539 
L 155.945455 -67.649828 
L 157.636364 -66.764123 
L 159.327273 -45.37095 
L 161.018182 -46.461048 
L 162.709091 -47.551146 
L 164.4 -76.506874 
L 166.090909 -46.324785 
L 167.781818 -45.847868 
L 169.472727 -45.439081 
L 171.163636 -45.643474 
L 172.854545 -69.284975 
L 174.545455 -46.120392 
L 176.236364 -46.801703 
L 177.927273 -48.164326 
L 179.618182 -76.779398 
L 181.309091 -48.164326 
L 183 -44.962163 
L 184.690909 -45.37095 
L 186.381818 -64.311403 
L 188.072727 -46.937966 
L 189.763636 -46.665441 
L 191.454545 -44.621507 
L 193.145455 -70.170679 
L 194.836364 -44.076458 
L 196.527273 -46.937966 
L 198.218182 -49.322555 
L 199.909091 -47.21049 
L 201.6 -69.761893 
L 203.290909 -49.186293 
L 204.981818 -57.430159 
L 206.672727 -48.368719 
L 208.363636 -64.652058 
L 210.054545 -48.573113 
L 211.745455 -49.254424 
L 213.436364 -51.162095 
L 215.127273 -79.095857 
L 216.818182 -51.230226 
L 218.509091 -46.529179 
L 220.2 -52.115931 
L 221.890909 -46.188523 
L 223.581818 -65.060845 
L 225.272727 -51.843407 
L 226.963636 -50.82144 
L 228.654545 -55.181832 
L 230.345455 -82.706806 
L 232.036364 -58.247732 
L 233.727273 -64.78832 
L 235.418182 -59.405961 
L 237.109091 -65.401501 
L 238.8 -68.467401 
L 240.490909 -43.735803 
L 242.181818 -44.348983 
L 243.872727 -96.809949 
L 245.563636 -45.234687 
L 247.254545 -63.289436 
L 248.945455 -64.107009 
L 250.636364 -64.652058 
L 252.327273 -84.069429 
L 254.018182 -65.333369 
L 255.709091 -67.649828 
L 257.4 -61.586157 
L 259.090909 -73.917891 
L 260.781818 -56.476323 
L 262.472727 -48.913768 
L 264.163636 -48.709375 
L 265.854545 -67.717959 
L 267.545455 -53.478554 
L 269.236364 -55.65875 
L 270.927273 -46.937966 
L 272.618182 -84.001298 
L 274.309091 -44.689638 
L 276 -44.553376 
L 277.690909 -45.847868 
L 279.381818 -46.256654 
L 281.072727 -81.548577 
L 282.763636 -51.843407 
L 284.454545 -60.496059 
L 286.145455 -54.909307 
L 287.836364 -92.926475 
L 289.527273 -57.362028 
L 291.218182 -47.006097 
L 292.909091 -48.43685 
L 294.6 -114.319649 
L 296.290909 -45.507212 
L 297.981818 -55.590618 
L 299.672727 -66.764123 
L 301.363636 -84.205691 
L 303.054545 -74.803596 
L 304.745455 -79.91343 
L 306.436364 -69.557499 
L 308.127273 -72.691531 
L 309.818182 -90.337492 
L 311.509091 -76.098087 
L 313.2 -56.88511 
L 314.890909 -52.865373 
L 316.581818 -85.159527 
L 318.272727 -60.564191 
L 319.963636 -54.704914 
L 321.654545 -53.069767 
L 323.345455 -82.229888 
L 325.036364 -50.957702 
L 326.727273 -58.315863 
L 328.418182 -60.972977 
L 330.109091 -61.926813 
L 331.8 -57.838946 
L 333.490909 -49.322555 
L 335.181818 -49.867604 
L 336.872727 -61.177371 
L 338.563636 -79.163988 
L 340.254545 -48.573113 
L 341.945455 -47.414883 
L 343.636364 -52.865373 
L 345.327273 -74.326678 
L 347.018182 -49.186293 
L 348.709091 -50.82144 
L 350.4 -60.768584 
L 352.090909 -75.007989 
L 353.781818 -45.507212 
L 355.472727 -65.742156 
L 357.163636 -63.56196 
L 358.854545 -63.289436 
L 360.545455 -69.148712 
L 362.236364 -58.11147 
L 363.927273 -67.990483 
L 365.618182 -50.548915 
L 367.309091 -71.805826 
L 369 -44.689638 
L 370.690909 -45.98413 
L 372.381818 -45.166556 
L 374.072727 -67.717959 
L 375.763636 -54.704914 
L 377.454545 -60.223535 
L 379.145455 -64.17514 
L 380.836364 -80.049692 
L 382.527273 -53.069767 
L 384.218182 -51.911538 
L 385.909091 -44.417114 
L 387.6 -47.483015 
L 389.290909 -103.418668 
L 390.981818 -53.342291 
L 392.672727 -52.66098 
L 394.363636 -53.478554 
L 396.054545 -76.370612 
L 397.745455 -54.159865 
L 399.436364 -57.702683 
L 401.127273 -53.137898 
L 402.818182 -60.359797 
L 404.509091 -54.364258 
L 406.2 -49.799473 
L 407.890909 -62.676255 
L 409.581818 -78.550808 
L 411.272727 -58.452126 
L 412.963636 -52.729111 
L 414.654545 -63.698222 
L 416.345455 -54.432389 
L 418.036364 -78.210152 
L 419.727273 -79.981561 
L 421.418182 -74.871727 
L 423.109091 -55.454356 
L 424.8 -78.959594 
L 426.490909 -66.900385 
L 428.181818 -73.23658 
L 429.872727 -77.665103 
L 431.563636 -85.840838 
L 433.254545 -78.891463 
L 434.945455 -65.401501 
L 436.636364 -87.203461 
L 438.327273 -73.84976 
L 440.018182 -85.500182 
L 441.709091 -45.847868 
L 443.4 -43.531409 
L 445.090909 -43.872065 
L 446.781818 -99.535194 
L 448.472727 -69.557499 
L 450.163636 -55.522487 
L 451.854545 -64.243271 
L 453.545455 -99.330801 
L 455.236364 -45.643474 
L 456.927273 -49.867604 
L 458.618182 -52.388456 
L 460.309091 -77.733234 
L 462 -67.445434 
L 463.690909 -46.461048 
L 465.381818 -50.480784 
L 467.072727 -46.392917 
L 468.763636 -74.735465 
L 470.454545 -62.063075 
L 472.145455 -60.155404 
L 473.836364 -58.520257 
L 475.527273 -95.719851 
L 477.218182 -94.561622 
L 478.909091 -96.128638 
L 480.6 -85.908969 
L 482.290909 -97.286867 
L 483.981818 -58.11147 
L 485.672727 -51.843407 
L 487.363636 -54.296127 
L 489.054545 -71.39704 
L 490.745455 -68.126746 
L 492.436364 -56.135667 
L 494.127273 -47.755539 
L 495.818182 -47.891801 
L 497.509091 -73.781629 
L 499.2 -43.735803 
L 500.890909 -43.59954 
L 502.581818 -48.709375 
L 504.272727 -106.825225 
L 505.963636 -66.491599 
L 507.654545 -50.685177 
L 509.345455 -58.247732 
L 511.036364 -93.130869 
L 512.727273 -44.348983 
L 514.418182 -50.82144 
L 516.109091 -64.243271 
L 517.8 -66.900385 
L 519.490909 -47.619277 
L 521.181818 -44.008327 
L 522.872727 -46.733572 
L 524.563636 -43.531409 
L 526.254545 -69.557499 
L 527.945455 -45.439081 
L 529.636364 -67.717959 
L 531.327273 -50.344522 
L 533.018182 -89.179263 
L 534.709091 -74.871727 
L 536.4 -54.296127 
L 538.090909 -55.318094 
L 539.781818 -71.260777 
L 541.472727 -78.142021 
L 543.163636 -52.933505 
L 544.854545 -45.439081 
L 546.545455 -54.568652 
L 548.236364 -73.713498 
L 549.927273 -74.190416 
L 551.618182 -54.841176 
L 553.309091 -49.935735 
L 555 -61.72242 
L 556.690909 -53.751078 
L 558.381818 -56.408192 
L 560.072727 -58.11147 
L 561.763636 -75.416776 
L 563.454545 -52.865373 
L 565.145455 -49.118162 
L 566.836364 -61.313633 
L 568.527273 -89.043001 
L 570.218182 -54.296127 
L 571.909091 -47.142359 
L 573.6 -57.49829 
L 575.290909 -44.076458 
L 576.981818 -66.968516 
L 578.672727 -56.612585 
L 580.363636 -75.007989 
L 582.054545 -77.46071 
L 583.745455 -94.084704 
L 585.436364 -50.753309 
L 587.127273 -51.43462 
L 588.818182 -56.816979 
L 590.509091 -69.353106 
L 592.2 -57.157634 
L 593.890909 -58.656519 
L 595.581818 -72.487138 
L 597.272727 -62.471862 
L 598.963636 -54.50052 
L 600.654545 -51.366489 
L 602.345455 -55.726881 
L 604.036364 -45.030294 
L 605.727273 -67.78609 
L 607.418182 -45.711605 
L 609.109091 -53.27416 
L 610.8 -48.777506 
L 612.490909 -83.251855 
L 614.181818 -46.256654 
L 615.872727 -48.43685 
L 617.563636 -64.992714 
L 619.254545 -84.001298 
L 620.945455 -73.713498 
L 622.636364 -41.76 
L 622.636364 -42.645705 
L 622.636364 -42.645705 
L 620.945455 -190.626509 
L 619.254545 -196.962704 
L 617.563636 -172.980547 
L 615.872727 -109.55047 
L 614.181818 -103.009882 
L 612.490909 -173.048679 
L 610.8 -105.190078 
L 609.109091 -129.104103 
L 607.418182 -86.590281 
L 605.727273 -151.859899 
L 604.036364 -126.038202 
L 602.345455 -155.675242 
L 600.654545 -146.068753 
L 598.963636 -165.417993 
L 597.272727 -120.519581 
L 595.581818 -223.193187 
L 593.890909 -160.921338 
L 592.2 -167.598189 
L 590.509091 -148.998391 
L 588.818182 -143.684164 
L 587.127273 -122.495384 
L 585.436364 -128.96784 
L 583.745455 -213.041649 
L 582.054545 -192.942967 
L 580.363636 -206.364799 
L 578.672727 -168.347631 
L 576.981818 -186.334248 
L 575.290909 -99.058276 
L 573.6 -146.545671 
L 571.909091 -129.308496 
L 570.218182 -118.952565 
L 568.527273 -159.422454 
L 566.836364 -178.907955 
L 565.145455 -108.528503 
L 563.454545 -129.989807 
L 561.763636 -194.986901 
L 560.072727 -190.558378 
L 558.381818 -147.09072 
L 556.690909 -165.213599 
L 555 -132.510659 
L 553.309091 -105.803258 
L 551.618182 -157.855438 
L 549.927273 -189.672673 
L 548.236364 -197.98467 
L 546.545455 -118.134992 
L 544.854545 -101.306604 
L 543.163636 -125.765678 
L 541.472727 -185.039757 
L 539.781818 -156.560946 
L 538.090909 -148.862129 
L 536.4 -150.769801 
L 534.709091 -191.648476 
L 533.018182 -237.841379 
L 531.327273 -173.457465 
L 529.636364 -161.738912 
L 527.945455 -123.653613 
L 526.254545 -145.046786 
L 524.563636 -89.519919 
L 522.872727 -108.801027 
L 521.181818 -103.282406 
L 519.490909 -96.605556 
L 517.8 -136.939182 
L 516.109091 -180.951889 
L 514.418182 -110.16365 
L 512.727273 -98.308834 
L 511.036364 -195.600081 
L 509.345455 -119.088827 
L 507.654545 -108.187847 
L 505.963636 -154.244488 
L 504.272727 -235.524921 
L 502.581818 -122.699777 
L 500.890909 -159.967503 
L 499.2 -50.480784 
L 497.509091 -121.473417 
L 495.818182 -135.099642 
L 494.127273 -118.134992 
L 492.436364 -138.02928 
L 490.745455 -166.576222 
L 489.054545 -135.849084 
L 487.363636 -107.983454 
L 485.672727 -87.612247 
L 483.981818 -121.06463 
L 482.290909 -202.345063 
L 480.6 -202.753849 
L 478.909091 -204.934045 
L 477.218182 -199.211031 
L 475.527273 -198.257195 
L 473.836364 -137.620493 
L 472.145455 -157.787307 
L 470.454545 -184.63097 
L 468.763636 -195.804474 
L 467.072727 -128.559054 
L 465.381818 -114.38778 
L 463.690909 -105.666996 
L 462 -176.250842 
L 460.309091 -182.723298 
L 458.618182 -98.445096 
L 456.927273 -92.926475 
L 455.236364 -94.42536 
L 453.545455 -189.672673 
L 451.854545 -196.826441 
L 450.163636 -141.02705 
L 448.472727 -179.18048 
L 446.781818 -203.230767 
L 445.090909 -56.680716 
L 443.4 -85.295789 
L 441.709091 -110.572437 
L 440.018182 -192.53418 
L 438.327273 -163.919108 
L 436.636364 -169.914647 
L 434.945455 -122.427252 
L 433.254545 -187.969395 
L 431.563636 -178.362906 
L 429.872727 -175.228875 
L 428.181818 -168.552024 
L 426.490909 -159.422454 
L 424.8 -164.05537 
L 423.109091 -142.117148 
L 421.418182 -170.11904 
L 419.727273 -187.356215 
L 418.036364 -188.037526 
L 416.345455 -138.097411 
L 414.654545 -173.798121 
L 412.963636 -137.075444 
L 411.272727 -147.840162 
L 409.581818 -163.714714 
L 407.890909 -164.123501 
L 406.2 -159.286191 
L 404.509091 -154.38075 
L 402.818182 -144.433606 
L 401.127273 -132.783184 
L 399.436364 -148.862129 
L 397.745455 -152.54121 
L 396.054545 -160.648814 
L 394.363636 -194.441852 
L 392.672727 -119.293221 
L 390.981818 -125.833809 
L 389.290909 -172.094843 
L 387.6 -118.611909 
L 385.909091 -133.80515 
L 384.218182 -139.187509 
L 382.527273 -131.284299 
L 380.836364 -188.173788 
L 379.145455 -169.369598 
L 377.454545 -148.657736 
L 375.763636 -121.745941 
L 374.072727 -162.897141 
L 372.381818 -150.15662 
L 370.690909 -157.242258 
L 369 -130.73925 
L 367.309091 -152.404948 
L 365.618182 -117.589943 
L 363.927273 -160.716945 
L 362.236364 -157.855438 
L 360.545455 -156.833471 
L 358.854545 -149.339047 
L 357.163636 -160.648814 
L 355.472727 -162.21583 
L 353.781818 -125.220629 
L 352.090909 -167.393795 
L 350.4 -162.352092 
L 348.709091 -142.117148 
L 347.018182 -150.701669 
L 345.327273 -155.879635 
L 343.636364 -131.761217 
L 341.945455 -115.61414 
L 340.254545 -130.262332 
L 338.563636 -189.195755 
L 336.872727 -177.272808 
L 335.181818 -125.220629 
L 333.490909 -128.35466 
L 331.8 -146.47754 
L 330.109091 -135.304035 
L 328.418182 -138.097411 
L 326.727273 -151.31485 
L 325.036364 -133.396364 
L 323.345455 -207.386766 
L 321.654545 -184.01779 
L 319.963636 -137.211707 
L 318.272727 -144.365475 
L 316.581818 -153.358783 
L 314.890909 -120.519581 
L 313.2 -158.673011 
L 311.509091 -177.136546 
L 309.818182 -179.248611 
L 308.127273 -157.651044 
L 306.436364 -138.301805 
L 304.745455 -178.022251 
L 303.054545 -168.143238 
L 301.363636 -177.681595 
L 299.672727 -174.411301 
L 297.981818 -166.985008 
L 296.290909 -118.134992 
L 294.6 -243.36 
L 292.909091 -139.936952 
L 291.218182 -166.371828 
L 289.527273 -88.770477 
L 287.836364 -174.615694 
L 286.145455 -134.213937 
L 284.454545 -169.50586 
L 282.763636 -111.798797 
L 281.072727 -147.840162 
L 279.381818 -76.779398 
L 277.690909 -103.963717 
L 276 -148.725867 
L 274.309091 -163.169665 
L 272.618182 -140.073214 
L 270.927273 -86.590281 
L 269.236364 -125.084366 
L 267.545455 -137.4161 
L 265.854545 -105.32634 
L 264.163636 -96.673687 
L 262.472727 -119.088827 
L 260.781818 -153.15439 
L 259.090909 -183.200216 
L 257.4 -163.919108 
L 255.709091 -195.327557 
L 254.018182 -187.288084 
L 252.327273 -229.529382 
L 250.636364 -210.725191 
L 248.945455 -175.978317 
L 247.254545 -198.257195 
L 245.563636 -114.319649 
L 243.872727 -179.521136 
L 242.181818 -101.510997 
L 240.490909 -83.865035 
L 238.8 -177.545333 
L 237.109091 -157.651044 
L 235.418182 -147.499507 
L 233.727273 -177.204677 
L 232.036364 -158.945536 
L 230.345455 -208.749388 
L 228.654545 -145.591835 
L 226.963636 -119.633876 
L 225.272727 -162.283961 
L 223.581818 -109.686732 
L 221.890909 -71.465171 
L 220.2 -89.451788 
L 218.509091 -70.23881 
L 216.818182 -125.90194 
L 215.127273 -211.88342 
L 213.436364 -168.211369 
L 211.745455 -152.132423 
L 210.054545 -134.486462 
L 208.363636 -159.013667 
L 206.672727 -132.238135 
L 204.981818 -166.644353 
L 203.290909 -158.877405 
L 201.6 -188.24192 
L 199.909091 -153.76757 
L 198.218182 -181.224414 
L 196.527273 -178.226644 
L 194.836364 -163.919108 
L 193.145455 -174.138777 
L 191.454545 -138.02928 
L 189.763636 -140.890787 
L 188.072727 -160.376289 
L 186.381818 -151.92803 
L 184.690909 -117.589943 
L 183 -116.22732 
L 181.309091 -174.751957 
L 179.618182 -204.661521 
L 177.927273 -174.411301 
L 176.236364 -175.092612 
L 174.545455 -166.031173 
L 172.854545 -200.914309 
L 171.163636 -176.250842 
L 169.472727 -169.982778 
L 167.781818 -166.985008 
L 166.090909 -179.589267 
L 164.4 -215.153714 
L 162.709091 -190.285853 
L 161.018182 -162.556485 
L 159.327273 -77.46071 
L 157.636364 -128.831578 
L 155.945455 -160.240027 
L 154.254545 -97.627523 
L 152.563636 -114.660304 
L 150.872727 -118.748172 
L 149.181818 -115.954796 
L 147.490909 -185.312281 
L 145.8 -182.246381 
L 144.109091 -208.544995 
L 142.418182 -178.499169 
L 140.727273 -145.728097 
L 139.036364 -158.468618 
L 137.345455 -172.026712 
L 135.654545 -201.459358 
L 133.963636 -174.888219 
L 132.272727 -165.554255 
L 130.581818 -172.639892 
L 128.890909 -231.23266 
L 127.2 -198.734113 
L 125.509091 -150.974194 
L 123.818182 -110.981223 
L 122.127273 -153.086259 
L 120.436364 -83.251855 
L 118.745455 -49.186293 
L 117.054545 -64.924583 
L 115.363636 -58.656519 
z
" style="stroke: #008000; stroke-width: 0.5"/>
    </defs>
    <g clip-path="url(#p0f5b653ea8)">
     <use xlink:href="#mfe0369861c" x="0" y="288" style="fill: #008000; stroke: #008000; stroke-width: 0.5"/>
    </g>
   </g>
   <g id="line2d_26">
    <path d="M 90 44.64 
L 648 44.64 
" clip-path="url(#p0f5b653ea8)" style="fill: none; stroke: #000000; stroke-width: 1.5; stroke-linecap: square"/>
   </g>
   <g id="line2d_27">
    <path d="M 90 137.638986 
L 648 137.638986 
" clip-path="url(#p0f5b653ea8)" style="fill: none; stroke: #000000; stroke-width: 1.5; stroke-linecap: square"/>
   </g>
   <g id="patch_3">
    <path d="M 90 256.32 
L 90 34.56 
" style="fill: none; stroke: #000000; stroke-width: 0.8; stroke-linejoin: miter; stroke-linecap: square"/>
   </g>
   <g id="patch_4">
    <path d="M 648 256.32 
L 648 34.56 
" style="fill: none; stroke: #000000; stroke-width: 0.8; stroke-linejoin: miter; stroke-linecap: square"/>
   </g>
   <g id="patch_5">
    <path d="M 90 256.32 
L 648 256.32 
" style="fill: none; stroke: #000000; stroke-width: 0.8; stroke-linejoin: miter; stroke-linecap: square"/>
   </g>
   <g id="patch_6">
    <path d="M 90 34.56 
L 648 34.56 
" style="fill: none; stroke: #000000; stroke-width: 0.8; stroke-linejoin: miter; stroke-linecap: square"/>
   </g>
   <g id="text_21">
    <!-- peak (2,959) -->
    <g transform="translate(122.179233 41.3136) scale(0.1 -0.1)">
     <defs>
      <path id="DejaVuSans-Bold-70" d="M 1656 506 
L 1656 -1331 
L 538 -1331 
L 538 3500 
L 1656 3500 
L 1656 2988 
Q 1888 3294 2169 3439 
Q 2450 3584 2816 3584 
Q 3463 3584 3878 3070 
Q 4294 2556 4294 1747 
Q 4294 938 3878 423 
Q 3463 -91 2816 -91 
Q 2450 -91 2169 54 
Q 1888 200 1656 506 
z
M 2400 2772 
Q 2041 2772 1848 2508 
Q 1656 2244 1656 1747 
Q 1656 1250 1848 986 
Q 2041 722 2400 722 
Q 2759 722 2948 984 
Q 3138 1247 3138 1747 
Q 3138 2247 2948 2509 
Q 2759 2772 2400 2772 
z
" transform="scale(0.015625)"/>
      <path id="DejaVuSans-Bold-65" d="M 4031 1759 
L 4031 1441 
L 1416 1441 
Q 1456 1047 1700 850 
Q 1944 653 2381 653 
Q 2734 653 3104 758 
Q 3475 863 3866 1075 
L 3866 213 
Q 3469 63 3072 -14 
Q 2675 -91 2278 -91 
Q 1328 -91 801 392 
Q 275 875 275 1747 
Q 275 2603 792 3093 
Q 1309 3584 2216 3584 
Q 3041 3584 3536 3087 
Q 4031 2591 4031 1759 
z
M 2881 2131 
Q 2881 2450 2695 2645 
Q 2509 2841 2209 2841 
Q 1884 2841 1681 2658 
Q 1478 2475 1428 2131 
L 2881 2131 
z
" transform="scale(0.015625)"/>
      <path id="DejaVuSans-Bold-61" d="M 2106 1575 
Q 1756 1575 1579 1456 
Q 1403 1338 1403 1106 
Q 1403 894 1545 773 
Q 1688 653 1941 653 
Q 2256 653 2472 879 
Q 2688 1106 2688 1447 
L 2688 1575 
L 2106 1575 
z
M 3816 1997 
L 3816 0 
L 2688 0 
L 2688 519 
Q 2463 200 2181 54 
Q 1900 -91 1497 -91 
Q 953 -91 614 226 
Q 275 544 275 1050 
Q 275 1666 698 1953 
Q 1122 2241 2028 2241 
L 2688 2241 
L 2688 2328 
Q 2688 2594 2478 2717 
Q 2269 2841 1825 2841 
Q 1466 2841 1156 2769 
Q 847 2697 581 2553 
L 581 3406 
Q 941 3494 1303 3539 
Q 1666 3584 2028 3584 
Q 2975 3584 3395 3211 
Q 3816 2838 3816 1997 
z
" transform="scale(0.015625)"/>
      <path id="DejaVuSans-Bold-6b" d="M 538 4863 
L 1656 4863 
L 1656 2216 
L 2944 3500 
L 4244 3500 
L 2534 1894 
L 4378 0 
L 3022 0 
L 1656 1459 
L 1656 0 
L 538 0 
L 538 4863 
z
" transform="scale(0.015625)"/>
      <path id="DejaVuSans-Bold-20" transform="scale(0.015625)"/>
      <path id="DejaVuSans-Bold-28" d="M 2413 -844 
L 1484 -844 
Q 1006 -72 778 623 
Q 550 1319 550 2003 
Q 550 2688 779 3389 
Q 1009 4091 1484 4856 
L 2413 4856 
Q 2013 4116 1813 3408 
Q 1613 2700 1613 2009 
Q 1613 1319 1811 609 
Q 2009 -100 2413 -844 
z
" transform="scale(0.015625)"/>
      <path id="DejaVuSans-Bold-32" d="M 1844 884 
L 3897 884 
L 3897 0 
L 506 0 
L 506 884 
L 2209 2388 
Q 2438 2594 2547 2791 
Q 2656 2988 2656 3200 
Q 2656 3528 2436 3728 
Q 2216 3928 1850 3928 
Q 1569 3928 1234 3808 
Q 900 3688 519 3450 
L 519 4475 
Q 925 4609 1322 4679 
Q 1719 4750 2100 4750 
Q 2938 4750 3402 4381 
Q 3866 4013 3866 3353 
Q 3866 2972 3669 2642 
Q 3472 2313 2841 1759 
L 1844 884 
z
" transform="scale(0.015625)"/>
      <path id="DejaVuSans-Bold-2c" d="M 653 1209 
L 1778 1209 
L 1778 256 
L 1006 -909 
L 341 -909 
L 653 256 
L 653 1209 
z
" transform="scale(0.015625)"/>
      <path id="DejaVuSans-Bold-39" d="M 641 103 
L 641 966 
Q 928 831 1190 764 
Q 1453 697 1709 697 
Q 2247 697 2547 995 
Q 2847 1294 2900 1881 
Q 2688 1725 2447 1647 
Q 2206 1569 1925 1569 
Q 1209 1569 770 1986 
Q 331 2403 331 3084 
Q 331 3838 820 4291 
Q 1309 4744 2131 4744 
Q 3044 4744 3544 4128 
Q 4044 3513 4044 2388 
Q 4044 1231 3459 570 
Q 2875 -91 1856 -91 
Q 1528 -91 1228 -42 
Q 928 6 641 103 
z
M 2125 2350 
Q 2441 2350 2600 2554 
Q 2759 2759 2759 3169 
Q 2759 3575 2600 3781 
Q 2441 3988 2125 3988 
Q 1809 3988 1650 3781 
Q 1491 3575 1491 3169 
Q 1491 2759 1650 2554 
Q 1809 2350 2125 2350 
z
" transform="scale(0.015625)"/>
      <path id="DejaVuSans-Bold-35" d="M 678 4666 
L 3669 4666 
L 3669 3781 
L 1638 3781 
L 1638 3059 
Q 1775 3097 1914 3117 
Q 2053 3138 2203 3138 
Q 3056 3138 3531 2711 
Q 4006 2284 4006 1522 
Q 4006 766 3489 337 
Q 2972 -91 2053 -91 
Q 1656 -91 1267 -14 
Q 878 63 494 219 
L 494 1166 
Q 875 947 1217 837 
Q 1559 728 1863 728 
Q 2300 728 2551 942 
Q 2803 1156 2803 1522 
Q 2803 1891 2551 2103 
Q 2300 2316 1863 2316 
Q 1603 2316 1309 2248 
Q 1016 2181 678 2041 
L 678 4666 
z
" transform="scale(0.015625)"/>
      <path id="DejaVuSans-Bold-29" d="M 513 -844 
Q 913 -100 1113 609 
Q 1313 1319 1313 2009 
Q 1313 2700 1113 3408 
Q 913 4116 513 4856 
L 1441 4856 
Q 1916 4091 2145 3389 
Q 2375 2688 2375 2003 
Q 2375 1319 2147 623 
Q 1919 -72 1441 -844 
L 513 -844 
z
" transform="scale(0.015625)"/>
     </defs>
     <use xlink:href="#DejaVuSans-Bold-70"/>
     <use xlink:href="#DejaVuSans-Bold-65" x="71.582031"/>
     <use xlink:href="#DejaVuSans-Bold-61" x="139.404297"/>
     <use xlink:href="#DejaVuSans-Bold-6b" x="206.884766"/>
     <use xlink:href="#DejaVuSans-Bold-20" x="273.388672"/>
     <use xlink:href="#DejaVuSans-Bold-28" x="308.203125"/>
     <use xlink:href="#DejaVuSans-Bold-32" x="353.90625"/>
     <use xlink:href="#DejaVuSans-Bold-2c" x="423.486328"/>
     <use xlink:href="#DejaVuSans-Bold-39" x="461.474609"/>
     <use xlink:href="#DejaVuSans-Bold-35" x="531.054688"/>
     <use xlink:href="#DejaVuSans-Bold-39" x="600.634766"/>
     <use xlink:href="#DejaVuSans-Bold-29" x="670.214844"/>
    </g>
   </g>
   <g id="text_22">
    <!-- mean (1,594) -->
    <g transform="translate(567.728153 134.312586) scale(0.1 -0.1)">
     <defs>
      <path id="DejaVuSans-Bold-6d" d="M 3781 2919 
Q 3994 3244 4286 3414 
Q 4578 3584 4928 3584 
Q 5531 3584 5847 3212 
Q 6163 2841 6163 2131 
L 6163 0 
L 5038 0 
L 5038 1825 
Q 5041 1866 5042 1909 
Q 5044 1953 5044 2034 
Q 5044 2406 4934 2573 
Q 4825 2741 4581 2741 
Q 4263 2741 4089 2478 
Q 3916 2216 3909 1719 
L 3909 0 
L 2784 0 
L 2784 1825 
Q 2784 2406 2684 2573 
Q 2584 2741 2328 2741 
Q 2006 2741 1831 2477 
Q 1656 2213 1656 1722 
L 1656 0 
L 531 0 
L 531 3500 
L 1656 3500 
L 1656 2988 
Q 1863 3284 2130 3434 
Q 2397 3584 2719 3584 
Q 3081 3584 3359 3409 
Q 3638 3234 3781 2919 
z
" transform="scale(0.015625)"/>
      <path id="DejaVuSans-Bold-6e" d="M 4056 2131 
L 4056 0 
L 2931 0 
L 2931 347 
L 2931 1631 
Q 2931 2084 2911 2256 
Q 2891 2428 2841 2509 
Q 2775 2619 2662 2680 
Q 2550 2741 2406 2741 
Q 2056 2741 1856 2470 
Q 1656 2200 1656 1722 
L 1656 0 
L 538 0 
L 538 3500 
L 1656 3500 
L 1656 2988 
Q 1909 3294 2193 3439 
Q 2478 3584 2822 3584 
Q 3428 3584 3742 3212 
Q 4056 2841 4056 2131 
z
" transform="scale(0.015625)"/>
      <path id="DejaVuSans-Bold-31" d="M 750 831 
L 1813 831 
L 1813 3847 
L 722 3622 
L 722 4441 
L 1806 4666 
L 2950 4666 
L 2950 831 
L 4013 831 
L 4013 0 
L 750 0 
L 750 831 
z
" transform="scale(0.015625)"/>
      <path id="DejaVuSans-Bold-34" d="M 2356 3675 
L 1038 1722 
L 2356 1722 
L 2356 3675 
z
M 2156 4666 
L 3494 4666 
L 3494 1722 
L 4159 1722 
L 4159 850 
L 3494 850 
L 3494 0 
L 2356 0 
L 2356 850 
L 288 850 
L 288 1881 
L 2156 4666 
z
" transform="scale(0.015625)"/>
     </defs>
     <use xlink:href="#DejaVuSans-Bold-6d"/>
     <use xlink:href="#DejaVuSans-Bold-65" x="104.199219"/>
     <use xlink:href="#DejaVuSans-Bold-61" x="172.021484"/>
     <use xlink:href="#DejaVuSans-Bold-6e" x="239.501953"/>
     <use xlink:href="#DejaVuSans-Bold-20" x="310.693359"/>
     <use xlink:href="#DejaVuSans-Bold-28" x="345.507812"/>
     <use xlink:href="#DejaVuSans-Bold-31" x="391.210938"/>
     <use xlink:href="#DejaVuSans-Bold-2c" x="460.791016"/>
     <use xlink:href="#DejaVuSans-Bold-35" x="498.779297"/>
     <use xlink:href="#DejaVuSans-Bold-39" x="568.359375"/>
     <use xlink:href="#DejaVuSans-Bold-34" x="637.939453"/>
     <use xlink:href="#DejaVuSans-Bold-29" x="707.519531"/>
    </g>
   </g>
   <g id="text_23">
    <!-- Stream Bitrate over Time -->
    <g transform="translate(293.189062 28.56) scale(0.12 -0.12)">
     <defs>
      <path id="DejaVuSans-53" d="M 3425 4513 
L 3425 3897 
Q 3066 4069 2747 4153 
Q 2428 4238 2131 4238 
Q 1616 4238 1336 4038 
Q 1056 3838 1056 3469 
Q 1056 3159 1242 3001 
Q 1428 2844 1947 2747 
L 2328 2669 
Q 3034 2534 3370 2195 
Q 3706 1856 3706 1288 
Q 3706 609 3251 259 
Q 2797 -91 1919 -91 
Q 1588 -91 1214 -16 
Q 841 59 441 206 
L 441 856 
Q 825 641 1194 531 
Q 1563 422 1919 422 
Q 2459 422 2753 634 
Q 3047 847 3047 1241 
Q 3047 1584 2836 1778 
Q 2625 1972 2144 2069 
L 1759 2144 
Q 1053 2284 737 2584 
Q 422 2884 422 3419 
Q 422 4038 858 4394 
Q 1294 4750 2059 4750 
Q 2388 4750 2728 4690 
Q 3069 4631 3425 4513 
z
" transform="scale(0.015625)"/>
      <path id="DejaVuSans-6f" d="M 1959 3097 
Q 1497 3097 1228 2736 
Q 959 2375 959 1747 
Q 959 1119 1226 758 
Q 1494 397 1959 397 
Q 2419 397 2687 759 
Q 2956 1122 2956 1747 
Q 2956 2369 2687 2733 
Q 2419 3097 1959 3097 
z
M 1959 3584 
Q 2709 3584 3137 3096 
Q 3566 2609 3566 1747 
Q 3566 888 3137 398 
Q 2709 -91 1959 -91 
Q 1206 -91 779 398 
Q 353 888 353 1747 
Q 353 2609 779 3096 
Q 1206 3584 1959 3584 
z
" transform="scale(0.015625)"/>
      <path id="DejaVuSans-76" d="M 191 3500 
L 800 3500 
L 1894 563 
L 2988 3500 
L 3597 3500 
L 2284 0 
L 1503 0 
L 191 3500 
z
" transform="scale(0.015625)"/>
     </defs>
     <use xlink:href="#DejaVuSans-53"/>
     <use xlink:href="#DejaVuSans-74" x="63.476562"/>
     <use xlink:href="#DejaVuSans-72" x="102.685547"/>
     <use xlink:href="#DejaVuSans-65" x="141.548828"/>
     <use xlink:href="#DejaVuSans-61" x="203.072266"/>
     <use xlink:href="#DejaVuSans-6d" x="264.351562"/>
     <use xlink:href="#DejaVuSans-20" x="361.763672"/>
     <use xlink:href="#DejaVuSans-42" x="393.550781"/>
     <use xlink:href="#DejaVuSans-69" x="462.154297"/>
     <use xlink:href="#DejaVuSans-74" x="489.9375"/>
     <use xlink:href="#DejaVuSans-72" x="529.146484"/>
     <use xlink:href="#DejaVuSans-61" x="570.259766"/>
     <use xlink:href="#DejaVuSans-74" x="631.539062"/>
     <use xlink:href="#DejaVuSans-65" x="670.748047"/>
     <use xlink:href="#DejaVuSans-20" x="732.271484"/>
     <use xlink:href="#DejaVuSans-6f" x="764.058594"/>
     <use xlink:href="#DejaVuSans-76" x="825.240234"/>
     <use xlink:href="#DejaVuSans-65" x="884.419922"/>
     <use xlink:href="#DejaVuSans-72" x="945.943359"/>
     <use xlink:href="#DejaVuSans-20" x="987.056641"/>
     <use xlink:href="#DejaVuSans-54" x="1018.84375"/>
     <use xlink:href="#DejaVuSans-69" x="1076.802734"/>
     <use xlink:href="#DejaVuSans-6d" x="1104.585938"/>
     <use xlink:href="#DejaVuSans-65" x="1201.998047"/>
    </g>
   </g>
   <g id="legend_1">
    <g id="patch_7">
     <path d="M 602.139063 86.594375 
L 641 86.594375 
Q 643 86.594375 643 84.594375 
L 643 41.56 
Q 643 39.56 641 39.56 
L 602.139063 39.56 
Q 600.139063 39.56 600.139063 41.56 
L 600.139063 84.594375 
Q 600.139063 86.594375 602.139063 86.594375 
z
" style="fill: #ffffff; opacity: 0.8; stroke: #cccccc; stroke-linejoin: miter"/>
    </g>
    <g id="patch_8">
     <path d="M 604.139063 51.158438 
L 624.139063 51.158438 
L 624.139063 44.158438 
L 604.139063 44.158438 
z
" style="fill: #ff0000; stroke: #ff0000; stroke-width: 0.5; stroke-linejoin: miter"/>
    </g>
    <g id="text_24">
     <!-- I -->
     <g transform="translate(632.139063 51.158438) scale(0.1 -0.1)">
      <defs>
       <path id="DejaVuSans-49" d="M 628 4666 
L 1259 4666 
L 1259 0 
L 628 0 
L 628 4666 
z
" transform="scale(0.015625)"/>
      </defs>
      <use xlink:href="#DejaVuSans-49"/>
     </g>
    </g>
    <g id="patch_9">
     <path d="M 604.139063 65.836563 
L 624.139063 65.836563 
L 624.139063 58.836563 
L 604.139063 58.836563 
z
" style="fill: #0000ff; stroke: #0000ff; stroke-width: 0.5; stroke-linejoin: miter"/>
    </g>
    <g id="text_25">
     <!-- B -->
     <g transform="translate(632.139063 65.836563) scale(0.1 -0.1)">
      <use xlink:href="#DejaVuSans-42"/>
     </g>
    </g>
    <g id="patch_10">
     <path d="M 604.139063 80.514688 
L 624.139063 80.514688 
L 624.139063 73.514688 
L 604.139063 73.514688 
z
" style="fill: #008000; stroke: #008000; stroke-width: 0.5; stroke-linejoin: miter"/>
    </g>
    <g id="text_26">
     <!-- P -->
     <g transform="translate(632.139063 80.514688) scale(0.1 -0.1)">
      <defs>
       <path id="DejaVuSans-50" d="M 1259 4147 
L 1259 2394 
L 2053 2394 
Q 2494 2394 2734 2622 
Q 2975 2850 2975 3272 
Q 2975 3691 2734 3919 
Q 2494 4147 2053 4147 
L 1259 4147 
z
M 628 4666 
L 2053 4666 
Q 2838 4666 3239 4311 
Q 3641 3956 3641 3272 
Q 3641 2581 3239 2228 
Q 2838 1875 2053 1875 
L 1259 1875 
L 1259 0 
L 628 0 
L 628 4666 
z
" transform="scale(0.015625)"/>
      </defs>
      <use xlink:href="#DejaVuSans-50"/>
     </g>
    </g>
   </g>
  </g>
 </g>
 <defs>
  <clipPath id="p0f5b653ea8">
   <rect x="90" y="34.56" width="558" height="221.76"/>
  </clipPath>
 </defs>
</svg>
