<?xml version="1.0" encoding="utf-8" standalone="no"?>
<!DOCTYPE svg PUBLIC "-//W3C//DTD SVG 1.1//EN"
  "http://www.w3.org/Graphics/SVG/1.1/DTD/svg11.dtd">
<svg xmlns:xlink="http://www.w3.org/1999/xlink" width="720pt" height="288pt" viewBox="0 0 720 288" xmlns="http://www.w3.org/2000/svg" version="1.1">
 <metadata>
  <rdf:RDF xmlns:dc="http://purl.org/dc/elements/1.1/" xmlns:cc="http://creativecommons.org/ns#" xmlns:rdf="http://www.w3.org/1999/02/22-rdf-syntax-ns#">
   <cc:Work>
    <dc:type rdf:resource="http://purl.org/dc/dcmitype/StillImage"/>
    <dc:date>2023-05-07T02:04:34.409061</dc:date>
    <dc:format>image/svg+xml</dc:format>
    <dc:creator>
     <cc:Agent>
      <dc:title>Matplotlib v3.7.1, https://matplotlib.org/</dc:title>
     </cc:Agent>
    </dc:creator>
   </cc:Work>
  </rdf:RDF>
 </metadata>
 <defs>
  <style type="text/css">*{stroke-linejoin: round; stroke-linecap: butt}</style>
 </defs>
 <g id="figure_1">
  <g id="patch_1">
   <path d="M 0 288 
L 720 288 
L 720 0 
L 0 0 
z
" style="fill: #ffffff"/>
  </g>
  <g id="axes_1">
   <g id="patch_2">
    <path d="M 90 256.32 
L 648 256.32 
L 648 34.56 
L 90 34.56 
z
" style="fill: #ffffff"/>
   </g>
   <g id="matplotlib.axis_1">
    <g id="xtick_1">
     <g id="line2d_1">
      <defs>
       <path id="m76f0d50633" d="M 0 0 
L 0 3.5 
" style="stroke: #000000; stroke-width: 0.8"/>
      </defs>
      <g>
       <use xlink:href="#m76f0d50633" x="115.363636" y="256.32" style="stroke: #000000; stroke-width: 0.8"/>
      </g>
     </g>
     <g id="text_1">
      <!-- 0:00:00 -->
      <g transform="translate(96.088636 270.918437) scale(0.1 -0.1)">
       <defs>
        <path id="DejaVuSans-30" d="M 2034 4250 
Q 1547 4250 1301 3770 
Q 1056 3291 1056 2328 
Q 1056 1369 1301 889 
Q 1547 409 2034 409 
Q 2525 409 2770 889 
Q 3016 1369 3016 2328 
Q 3016 3291 2770 3770 
Q 2525 4250 2034 4250 
z
M 2034 4750 
Q 2819 4750 3233 4129 
Q 3647 3509 3647 2328 
Q 3647 1150 3233 529 
Q 2819 -91 2034 -91 
Q 1250 -91 836 529 
Q 422 1150 422 2328 
Q 422 3509 836 4129 
Q 1250 4750 2034 4750 
z
" transform="scale(0.015625)"/>
        <path id="DejaVuSans-3a" d="M 750 794 
L 1409 794 
L 1409 0 
L 750 0 
L 750 794 
z
M 750 3309 
L 1409 3309 
L 1409 2516 
L 750 2516 
L 750 3309 
z
" transform="scale(0.015625)"/>
       </defs>
       <use xlink:href="#DejaVuSans-30"/>
       <use xlink:href="#DejaVuSans-3a" x="63.623047"/>
       <use xlink:href="#DejaVuSans-30" x="97.314453"/>
       <use xlink:href="#DejaVuSans-30" x="160.9375"/>
       <use xlink:href="#DejaVuSans-3a" x="224.560547"/>
       <use xlink:href="#DejaVuSans-30" x="258.251953"/>
       <use xlink:href="#DejaVuSans-30" x="321.875"/>
      </g>
     </g>
    </g>
    <g id="xtick_2">
     <g id="line2d_2">
      <g>
       <use xlink:href="#m76f0d50633" x="166.090909" y="256.32" style="stroke: #000000; stroke-width: 0.8"/>
      </g>
     </g>
     <g id="text_2">
      <!-- 0:00:30 -->
      <g transform="translate(146.815909 270.918437) scale(0.1 -0.1)">
       <defs>
        <path id="DejaVuSans-33" d="M 2597 2516 
Q 3050 2419 3304 2112 
Q 3559 1806 3559 1356 
Q 3559 666 3084 287 
Q 2609 -91 1734 -91 
Q 1441 -91 1130 -33 
Q 819 25 488 141 
L 488 750 
Q 750 597 1062 519 
Q 1375 441 1716 441 
Q 2309 441 2620 675 
Q 2931 909 2931 1356 
Q 2931 1769 2642 2001 
Q 2353 2234 1838 2234 
L 1294 2234 
L 1294 2753 
L 1863 2753 
Q 2328 2753 2575 2939 
Q 2822 3125 2822 3475 
Q 2822 3834 2567 4026 
Q 2313 4219 1838 4219 
Q 1578 4219 1281 4162 
Q 984 4106 628 3988 
L 628 4550 
Q 988 4650 1302 4700 
Q 1616 4750 1894 4750 
Q 2613 4750 3031 4423 
Q 3450 4097 3450 3541 
Q 3450 3153 3228 2886 
Q 3006 2619 2597 2516 
z
" transform="scale(0.015625)"/>
       </defs>
       <use xlink:href="#DejaVuSans-30"/>
       <use xlink:href="#DejaVuSans-3a" x="63.623047"/>
       <use xlink:href="#DejaVuSans-30" x="97.314453"/>
       <use xlink:href="#DejaVuSans-30" x="160.9375"/>
       <use xlink:href="#DejaVuSans-3a" x="224.560547"/>
       <use xlink:href="#DejaVuSans-33" x="258.251953"/>
       <use xlink:href="#DejaVuSans-30" x="321.875"/>
      </g>
     </g>
    </g>
    <g id="xtick_3">
     <g id="line2d_3">
      <g>
       <use xlink:href="#m76f0d50633" x="216.818182" y="256.32" style="stroke: #000000; stroke-width: 0.8"/>
      </g>
     </g>
     <g id="text_3">
      <!-- 0:01:00 -->
      <g transform="translate(197.543182 270.918437) scale(0.1 -0.1)">
       <defs>
        <path id="DejaVuSans-31" d="M 794 531 
L 1825 531 
L 1825 4091 
L 703 3866 
L 703 4441 
L 1819 4666 
L 2450 4666 
L 2450 531 
L 3481 531 
L 3481 0 
L 794 0 
L 794 531 
z
" transform="scale(0.015625)"/>
       </defs>
       <use xlink:href="#DejaVuSans-30"/>
       <use xlink:href="#DejaVuSans-3a" x="63.623047"/>
       <use xlink:href="#DejaVuSans-30" x="97.314453"/>
       <use xlink:href="#DejaVuSans-31" x="160.9375"/>
       <use xlink:href="#DejaVuSans-3a" x="224.560547"/>
       <use xlink:href="#DejaVuSans-30" x="258.251953"/>
       <use xlink:href="#DejaVuSans-30" x="321.875"/>
      </g>
     </g>
    </g>
    <g id="xtick_4">
     <g id="line2d_4">
      <g>
       <use xlink:href="#m76f0d50633" x="267.545455" y="256.32" style="stroke: #000000; stroke-width: 0.8"/>
      </g>
     </g>
     <g id="text_4">
      <!-- 0:01:30 -->
      <g transform="translate(248.270455 270.918437) scale(0.1 -0.1)">
       <use xlink:href="#DejaVuSans-30"/>
       <use xlink:href="#DejaVuSans-3a" x="63.623047"/>
       <use xlink:href="#DejaVuSans-30" x="97.314453"/>
       <use xlink:href="#DejaVuSans-31" x="160.9375"/>
       <use xlink:href="#DejaVuSans-3a" x="224.560547"/>
       <use xlink:href="#DejaVuSans-33" x="258.251953"/>
       <use xlink:href="#DejaVuSans-30" x="321.875"/>
      </g>
     </g>
    </g>
    <g id="xtick_5">
     <g id="line2d_5">
      <g>
       <use xlink:href="#m76f0d50633" x="318.272727" y="256.32" style="stroke: #000000; stroke-width: 0.8"/>
      </g>
     </g>
     <g id="text_5">
      <!-- 0:02:00 -->
      <g transform="translate(298.997727 270.918437) scale(0.1 -0.1)">
       <defs>
        <path id="DejaVuSans-32" d="M 1228 531 
L 3431 531 
L 3431 0 
L 469 0 
L 469 531 
Q 828 903 1448 1529 
Q 2069 2156 2228 2338 
Q 2531 2678 2651 2914 
Q 2772 3150 2772 3378 
Q 2772 3750 2511 3984 
Q 2250 4219 1831 4219 
Q 1534 4219 1204 4116 
Q 875 4013 500 3803 
L 500 4441 
Q 881 4594 1212 4672 
Q 1544 4750 1819 4750 
Q 2544 4750 2975 4387 
Q 3406 4025 3406 3419 
Q 3406 3131 3298 2873 
Q 3191 2616 2906 2266 
Q 2828 2175 2409 1742 
Q 1991 1309 1228 531 
z
" transform="scale(0.015625)"/>
       </defs>
       <use xlink:href="#DejaVuSans-30"/>
       <use xlink:href="#DejaVuSans-3a" x="63.623047"/>
       <use xlink:href="#DejaVuSans-30" x="97.314453"/>
       <use xlink:href="#DejaVuSans-32" x="160.9375"/>
       <use xlink:href="#DejaVuSans-3a" x="224.560547"/>
       <use xlink:href="#DejaVuSans-30" x="258.251953"/>
       <use xlink:href="#DejaVuSans-30" x="321.875"/>
      </g>
     </g>
    </g>
    <g id="xtick_6">
     <g id="line2d_6">
      <g>
       <use xlink:href="#m76f0d50633" x="369" y="256.32" style="stroke: #000000; stroke-width: 0.8"/>
      </g>
     </g>
     <g id="text_6">
      <!-- 0:02:30 -->
      <g transform="translate(349.725 270.918437) scale(0.1 -0.1)">
       <use xlink:href="#DejaVuSans-30"/>
       <use xlink:href="#DejaVuSans-3a" x="63.623047"/>
       <use xlink:href="#DejaVuSans-30" x="97.314453"/>
       <use xlink:href="#DejaVuSans-32" x="160.9375"/>
       <use xlink:href="#DejaVuSans-3a" x="224.560547"/>
       <use xlink:href="#DejaVuSans-33" x="258.251953"/>
       <use xlink:href="#DejaVuSans-30" x="321.875"/>
      </g>
     </g>
    </g>
    <g id="xtick_7">
     <g id="line2d_7">
      <g>
       <use xlink:href="#m76f0d50633" x="419.727273" y="256.32" style="stroke: #000000; stroke-width: 0.8"/>
      </g>
     </g>
     <g id="text_7">
      <!-- 0:03:00 -->
      <g transform="translate(400.452273 270.918437) scale(0.1 -0.1)">
       <use xlink:href="#DejaVuSans-30"/>
       <use xlink:href="#DejaVuSans-3a" x="63.623047"/>
       <use xlink:href="#DejaVuSans-30" x="97.314453"/>
       <use xlink:href="#DejaVuSans-33" x="160.9375"/>
       <use xlink:href="#DejaVuSans-3a" x="224.560547"/>
       <use xlink:href="#DejaVuSans-30" x="258.251953"/>
       <use xlink:href="#DejaVuSans-30" x="321.875"/>
      </g>
     </g>
    </g>
    <g id="xtick_8">
     <g id="line2d_8">
      <g>
       <use xlink:href="#m76f0d50633" x="470.454545" y="256.32" style="stroke: #000000; stroke-width: 0.8"/>
      </g>
     </g>
     <g id="text_8">
      <!-- 0:03:30 -->
      <g transform="translate(451.179545 270.918437) scale(0.1 -0.1)">
       <use xlink:href="#DejaVuSans-30"/>
       <use xlink:href="#DejaVuSans-3a" x="63.623047"/>
       <use xlink:href="#DejaVuSans-30" x="97.314453"/>
       <use xlink:href="#DejaVuSans-33" x="160.9375"/>
       <use xlink:href="#DejaVuSans-3a" x="224.560547"/>
       <use xlink:href="#DejaVuSans-33" x="258.251953"/>
       <use xlink:href="#DejaVuSans-30" x="321.875"/>
      </g>
     </g>
    </g>
    <g id="xtick_9">
     <g id="line2d_9">
      <g>
       <use xlink:href="#m76f0d50633" x="521.181818" y="256.32" style="stroke: #000000; stroke-width: 0.8"/>
      </g>
     </g>
     <g id="text_9">
      <!-- 0:04:00 -->
      <g transform="translate(501.906818 270.918437) scale(0.1 -0.1)">
       <defs>
        <path id="DejaVuSans-34" d="M 2419 4116 
L 825 1625 
L 2419 1625 
L 2419 4116 
z
M 2253 4666 
L 3047 4666 
L 3047 1625 
L 3713 1625 
L 3713 1100 
L 3047 1100 
L 3047 0 
L 2419 0 
L 2419 1100 
L 313 1100 
L 313 1709 
L 2253 4666 
z
" transform="scale(0.015625)"/>
       </defs>
       <use xlink:href="#DejaVuSans-30"/>
       <use xlink:href="#DejaVuSans-3a" x="63.623047"/>
       <use xlink:href="#DejaVuSans-30" x="97.314453"/>
       <use xlink:href="#DejaVuSans-34" x="160.9375"/>
       <use xlink:href="#DejaVuSans-3a" x="224.560547"/>
       <use xlink:href="#DejaVuSans-30" x="258.251953"/>
       <use xlink:href="#DejaVuSans-30" x="321.875"/>
      </g>
     </g>
    </g>
    <g id="xtick_10">
     <g id="line2d_10">
      <g>
       <use xlink:href="#m76f0d50633" x="571.909091" y="256.32" style="stroke: #000000; stroke-width: 0.8"/>
      </g>
     </g>
     <g id="text_10">
      <!-- 0:04:30 -->
      <g transform="translate(552.634091 270.918437) scale(0.1 -0.1)">
       <use xlink:href="#DejaVuSans-30"/>
       <use xlink:href="#DejaVuSans-3a" x="63.623047"/>
       <use xlink:href="#DejaVuSans-30" x="97.314453"/>
       <use xlink:href="#DejaVuSans-34" x="160.9375"/>
       <use xlink:href="#DejaVuSans-3a" x="224.560547"/>
       <use xlink:href="#DejaVuSans-33" x="258.251953"/>
       <use xlink:href="#DejaVuSans-30" x="321.875"/>
      </g>
     </g>
    </g>
    <g id="xtick_11">
     <g id="line2d_11">
      <g>
       <use xlink:href="#m76f0d50633" x="622.636364" y="256.32" style="stroke: #000000; stroke-width: 0.8"/>
      </g>
     </g>
     <g id="text_11">
      <!-- 0:05:00 -->
      <g transform="translate(603.361364 270.918437) scale(0.1 -0.1)">
       <defs>
        <path id="DejaVuSans-35" d="M 691 4666 
L 3169 4666 
L 3169 4134 
L 1269 4134 
L 1269 2991 
Q 1406 3038 1543 3061 
Q 1681 3084 1819 3084 
Q 2600 3084 3056 2656 
Q 3513 2228 3513 1497 
Q 3513 744 3044 326 
Q 2575 -91 1722 -91 
Q 1428 -91 1123 -41 
Q 819 9 494 109 
L 494 744 
Q 775 591 1075 516 
Q 1375 441 1709 441 
Q 2250 441 2565 725 
Q 2881 1009 2881 1497 
Q 2881 1984 2565 2268 
Q 2250 2553 1709 2553 
Q 1456 2553 1204 2497 
Q 953 2441 691 2322 
L 691 4666 
z
" transform="scale(0.015625)"/>
       </defs>
       <use xlink:href="#DejaVuSans-30"/>
       <use xlink:href="#DejaVuSans-3a" x="63.623047"/>
       <use xlink:href="#DejaVuSans-30" x="97.314453"/>
       <use xlink:href="#DejaVuSans-35" x="160.9375"/>
       <use xlink:href="#DejaVuSans-3a" x="224.560547"/>
       <use xlink:href="#DejaVuSans-30" x="258.251953"/>
       <use xlink:href="#DejaVuSans-30" x="321.875"/>
      </g>
     </g>
    </g>
    <g id="text_12">
     <!-- Time -->
     <g transform="translate(356.766406 284.596563) scale(0.1 -0.1)">
      <defs>
       <path id="DejaVuSans-54" d="M -19 4666 
L 3928 4666 
L 3928 4134 
L 2272 4134 
L 2272 0 
L 1638 0 
L 1638 4134 
L -19 4134 
L -19 4666 
z
" transform="scale(0.015625)"/>
       <path id="DejaVuSans-69" d="M 603 3500 
L 1178 3500 
L 1178 0 
L 603 0 
L 603 3500 
z
M 603 4863 
L 1178 4863 
L 1178 4134 
L 603 4134 
L 603 4863 
z
" transform="scale(0.015625)"/>
       <path id="DejaVuSans-6d" d="M 3328 2828 
Q 3544 3216 3844 3400 
Q 4144 3584 4550 3584 
Q 5097 3584 5394 3201 
Q 5691 2819 5691 2113 
L 5691 0 
L 5113 0 
L 5113 2094 
Q 5113 2597 4934 2840 
Q 4756 3084 4391 3084 
Q 3944 3084 3684 2787 
Q 3425 2491 3425 1978 
L 3425 0 
L 2847 0 
L 2847 2094 
Q 2847 2600 2669 2842 
Q 2491 3084 2119 3084 
Q 1678 3084 1418 2786 
Q 1159 2488 1159 1978 
L 1159 0 
L 581 0 
L 581 3500 
L 1159 3500 
L 1159 2956 
Q 1356 3278 1631 3431 
Q 1906 3584 2284 3584 
Q 2666 3584 2933 3390 
Q 3200 3197 3328 2828 
z
" transform="scale(0.015625)"/>
       <path id="DejaVuSans-65" d="M 3597 1894 
L 3597 1613 
L 953 1613 
Q 991 1019 1311 708 
Q 1631 397 2203 397 
Q 2534 397 2845 478 
Q 3156 559 3463 722 
L 3463 178 
Q 3153 47 2828 -22 
Q 2503 -91 2169 -91 
Q 1331 -91 842 396 
Q 353 884 353 1716 
Q 353 2575 817 3079 
Q 1281 3584 2069 3584 
Q 2775 3584 3186 3129 
Q 3597 2675 3597 1894 
z
M 3022 2063 
Q 3016 2534 2758 2815 
Q 2500 3097 2075 3097 
Q 1594 3097 1305 2825 
Q 1016 2553 972 2059 
L 3022 2063 
z
" transform="scale(0.015625)"/>
      </defs>
      <use xlink:href="#DejaVuSans-54"/>
      <use xlink:href="#DejaVuSans-69" x="57.958984"/>
      <use xlink:href="#DejaVuSans-6d" x="85.742188"/>
      <use xlink:href="#DejaVuSans-65" x="183.154297"/>
     </g>
    </g>
   </g>
   <g id="matplotlib.axis_2">
    <g id="ytick_1">
     <g id="line2d_12">
      <path d="M 90 246.24 
L 648 246.24 
" clip-path="url(#pa9192c05ce)" style="fill: none; stroke: #b0b0b0; stroke-width: 0.8; stroke-linecap: square"/>
     </g>
     <g id="line2d_13">
      <defs>
       <path id="m0cf5346e6b" d="M 0 0 
L -3.5 0 
" style="stroke: #000000; stroke-width: 0.8"/>
      </defs>
      <g>
       <use xlink:href="#m0cf5346e6b" x="90" y="246.24" style="stroke: #000000; stroke-width: 0.8"/>
      </g>
     </g>
     <g id="text_13">
      <!-- 0 -->
      <g transform="translate(76.6375 250.039219) scale(0.1 -0.1)">
       <use xlink:href="#DejaVuSans-30"/>
      </g>
     </g>
    </g>
    <g id="ytick_2">
     <g id="line2d_14">
      <path d="M 90 204.064268 
L 648 204.064268 
" clip-path="url(#pa9192c05ce)" style="fill: none; stroke: #b0b0b0; stroke-width: 0.8; stroke-linecap: square"/>
     </g>
     <g id="line2d_15">
      <g>
       <use xlink:href="#m0cf5346e6b" x="90" y="204.064268" style="stroke: #000000; stroke-width: 0.8"/>
      </g>
     </g>
     <g id="text_14">
      <!-- 500 -->
      <g transform="translate(63.9125 207.863487) scale(0.1 -0.1)">
       <use xlink:href="#DejaVuSans-35"/>
       <use xlink:href="#DejaVuSans-30" x="63.623047"/>
       <use xlink:href="#DejaVuSans-30" x="127.246094"/>
      </g>
     </g>
    </g>
    <g id="ytick_3">
     <g id="line2d_16">
      <path d="M 90 161.888536 
L 648 161.888536 
" clip-path="url(#pa9192c05ce)" style="fill: none; stroke: #b0b0b0; stroke-width: 0.8; stroke-linecap: square"/>
     </g>
     <g id="line2d_17">
      <g>
       <use xlink:href="#m0cf5346e6b" x="90" y="161.888536" style="stroke: #000000; stroke-width: 0.8"/>
      </g>
     </g>
     <g id="text_15">
      <!-- 1,000 -->
      <g transform="translate(54.371875 165.687754) scale(0.1 -0.1)">
       <defs>
        <path id="DejaVuSans-2c" d="M 750 794 
L 1409 794 
L 1409 256 
L 897 -744 
L 494 -744 
L 750 256 
L 750 794 
z
" transform="scale(0.015625)"/>
       </defs>
       <use xlink:href="#DejaVuSans-31"/>
       <use xlink:href="#DejaVuSans-2c" x="63.623047"/>
       <use xlink:href="#DejaVuSans-30" x="95.410156"/>
       <use xlink:href="#DejaVuSans-30" x="159.033203"/>
       <use xlink:href="#DejaVuSans-30" x="222.65625"/>
      </g>
     </g>
    </g>
    <g id="ytick_4">
     <g id="line2d_18">
      <path d="M 90 119.712803 
L 648 119.712803 
" clip-path="url(#pa9192c05ce)" style="fill: none; stroke: #b0b0b0; stroke-width: 0.8; stroke-linecap: square"/>
     </g>
     <g id="line2d_19">
      <g>
       <use xlink:href="#m0cf5346e6b" x="90" y="119.712803" style="stroke: #000000; stroke-width: 0.8"/>
      </g>
     </g>
     <g id="text_16">
      <!-- 1,500 -->
      <g transform="translate(54.371875 123.512022) scale(0.1 -0.1)">
       <use xlink:href="#DejaVuSans-31"/>
       <use xlink:href="#DejaVuSans-2c" x="63.623047"/>
       <use xlink:href="#DejaVuSans-35" x="95.410156"/>
       <use xlink:href="#DejaVuSans-30" x="159.033203"/>
       <use xlink:href="#DejaVuSans-30" x="222.65625"/>
      </g>
     </g>
    </g>
    <g id="ytick_5">
     <g id="line2d_20">
      <path d="M 90 77.537071 
L 648 77.537071 
" clip-path="url(#pa9192c05ce)" style="fill: none; stroke: #b0b0b0; stroke-width: 0.8; stroke-linecap: square"/>
     </g>
     <g id="line2d_21">
      <g>
       <use xlink:href="#m0cf5346e6b" x="90" y="77.537071" style="stroke: #000000; stroke-width: 0.8"/>
      </g>
     </g>
     <g id="text_17">
      <!-- 2,000 -->
      <g transform="translate(54.371875 81.33629) scale(0.1 -0.1)">
       <use xlink:href="#DejaVuSans-32"/>
       <use xlink:href="#DejaVuSans-2c" x="63.623047"/>
       <use xlink:href="#DejaVuSans-30" x="95.410156"/>
       <use xlink:href="#DejaVuSans-30" x="159.033203"/>
       <use xlink:href="#DejaVuSans-30" x="222.65625"/>
      </g>
     </g>
    </g>
    <g id="ytick_6">
     <g id="line2d_22">
      <path d="M 90 35.361339 
L 648 35.361339 
" clip-path="url(#pa9192c05ce)" style="fill: none; stroke: #b0b0b0; stroke-width: 0.8; stroke-linecap: square"/>
     </g>
     <g id="line2d_23">
      <g>
       <use xlink:href="#m0cf5346e6b" x="90" y="35.361339" style="stroke: #000000; stroke-width: 0.8"/>
      </g>
     </g>
     <g id="text_18">
      <!-- 2,500 -->
      <g transform="translate(54.371875 39.160558) scale(0.1 -0.1)">
       <use xlink:href="#DejaVuSans-32"/>
       <use xlink:href="#DejaVuSans-2c" x="63.623047"/>
       <use xlink:href="#DejaVuSans-35" x="95.410156"/>
       <use xlink:href="#DejaVuSans-30" x="159.033203"/>
       <use xlink:href="#DejaVuSans-30" x="222.65625"/>
      </g>
     </g>
    </g>
    <g id="text_19">
     <!-- Bitrate (kbit/s) -->
     <g transform="translate(48.292187 181.574375) rotate(-90) scale(0.1 -0.1)">
      <defs>
       <path id="DejaVuSans-42" d="M 1259 2228 
L 1259 519 
L 2272 519 
Q 2781 519 3026 730 
Q 3272 941 3272 1375 
Q 3272 1813 3026 2020 
Q 2781 2228 2272 2228 
L 1259 2228 
z
M 1259 4147 
L 1259 2741 
L 2194 2741 
Q 2656 2741 2882 2914 
Q 3109 3088 3109 3444 
Q 3109 3797 2882 3972 
Q 2656 4147 2194 4147 
L 1259 4147 
z
M 628 4666 
L 2241 4666 
Q 2963 4666 3353 4366 
Q 3744 4066 3744 3513 
Q 3744 3084 3544 2831 
Q 3344 2578 2956 2516 
Q 3422 2416 3680 2098 
Q 3938 1781 3938 1306 
Q 3938 681 3513 340 
Q 3088 0 2303 0 
L 628 0 
L 628 4666 
z
" transform="scale(0.015625)"/>
       <path id="DejaVuSans-74" d="M 1172 4494 
L 1172 3500 
L 2356 3500 
L 2356 3053 
L 1172 3053 
L 1172 1153 
Q 1172 725 1289 603 
Q 1406 481 1766 481 
L 2356 481 
L 2356 0 
L 1766 0 
Q 1100 0 847 248 
Q 594 497 594 1153 
L 594 3053 
L 172 3053 
L 172 3500 
L 594 3500 
L 594 4494 
L 1172 4494 
z
" transform="scale(0.015625)"/>
       <path id="DejaVuSans-72" d="M 2631 2963 
Q 2534 3019 2420 3045 
Q 2306 3072 2169 3072 
Q 1681 3072 1420 2755 
Q 1159 2438 1159 1844 
L 1159 0 
L 581 0 
L 581 3500 
L 1159 3500 
L 1159 2956 
Q 1341 3275 1631 3429 
Q 1922 3584 2338 3584 
Q 2397 3584 2469 3576 
Q 2541 3569 2628 3553 
L 2631 2963 
z
" transform="scale(0.015625)"/>
       <path id="DejaVuSans-61" d="M 2194 1759 
Q 1497 1759 1228 1600 
Q 959 1441 959 1056 
Q 959 750 1161 570 
Q 1363 391 1709 391 
Q 2188 391 2477 730 
Q 2766 1069 2766 1631 
L 2766 1759 
L 2194 1759 
z
M 3341 1997 
L 3341 0 
L 2766 0 
L 2766 531 
Q 2569 213 2275 61 
Q 1981 -91 1556 -91 
Q 1019 -91 701 211 
Q 384 513 384 1019 
Q 384 1609 779 1909 
Q 1175 2209 1959 2209 
L 2766 2209 
L 2766 2266 
Q 2766 2663 2505 2880 
Q 2244 3097 1772 3097 
Q 1472 3097 1187 3025 
Q 903 2953 641 2809 
L 641 3341 
Q 956 3463 1253 3523 
Q 1550 3584 1831 3584 
Q 2591 3584 2966 3190 
Q 3341 2797 3341 1997 
z
" transform="scale(0.015625)"/>
       <path id="DejaVuSans-20" transform="scale(0.015625)"/>
       <path id="DejaVuSans-28" d="M 1984 4856 
Q 1566 4138 1362 3434 
Q 1159 2731 1159 2009 
Q 1159 1288 1364 580 
Q 1569 -128 1984 -844 
L 1484 -844 
Q 1016 -109 783 600 
Q 550 1309 550 2009 
Q 550 2706 781 3412 
Q 1013 4119 1484 4856 
L 1984 4856 
z
" transform="scale(0.015625)"/>
       <path id="DejaVuSans-6b" d="M 581 4863 
L 1159 4863 
L 1159 1991 
L 2875 3500 
L 3609 3500 
L 1753 1863 
L 3688 0 
L 2938 0 
L 1159 1709 
L 1159 0 
L 581 0 
L 581 4863 
z
" transform="scale(0.015625)"/>
       <path id="DejaVuSans-62" d="M 3116 1747 
Q 3116 2381 2855 2742 
Q 2594 3103 2138 3103 
Q 1681 3103 1420 2742 
Q 1159 2381 1159 1747 
Q 1159 1113 1420 752 
Q 1681 391 2138 391 
Q 2594 391 2855 752 
Q 3116 1113 3116 1747 
z
M 1159 2969 
Q 1341 3281 1617 3432 
Q 1894 3584 2278 3584 
Q 2916 3584 3314 3078 
Q 3713 2572 3713 1747 
Q 3713 922 3314 415 
Q 2916 -91 2278 -91 
Q 1894 -91 1617 61 
Q 1341 213 1159 525 
L 1159 0 
L 581 0 
L 581 4863 
L 1159 4863 
L 1159 2969 
z
" transform="scale(0.015625)"/>
       <path id="DejaVuSans-2f" d="M 1625 4666 
L 2156 4666 
L 531 -594 
L 0 -594 
L 1625 4666 
z
" transform="scale(0.015625)"/>
       <path id="DejaVuSans-73" d="M 2834 3397 
L 2834 2853 
Q 2591 2978 2328 3040 
Q 2066 3103 1784 3103 
Q 1356 3103 1142 2972 
Q 928 2841 928 2578 
Q 928 2378 1081 2264 
Q 1234 2150 1697 2047 
L 1894 2003 
Q 2506 1872 2764 1633 
Q 3022 1394 3022 966 
Q 3022 478 2636 193 
Q 2250 -91 1575 -91 
Q 1294 -91 989 -36 
Q 684 19 347 128 
L 347 722 
Q 666 556 975 473 
Q 1284 391 1588 391 
Q 1994 391 2212 530 
Q 2431 669 2431 922 
Q 2431 1156 2273 1281 
Q 2116 1406 1581 1522 
L 1381 1569 
Q 847 1681 609 1914 
Q 372 2147 372 2553 
Q 372 3047 722 3315 
Q 1072 3584 1716 3584 
Q 2034 3584 2315 3537 
Q 2597 3491 2834 3397 
z
" transform="scale(0.015625)"/>
       <path id="DejaVuSans-29" d="M 513 4856 
L 1013 4856 
Q 1481 4119 1714 3412 
Q 1947 2706 1947 2009 
Q 1947 1309 1714 600 
Q 1481 -109 1013 -844 
L 513 -844 
Q 928 -128 1133 580 
Q 1338 1288 1338 2009 
Q 1338 2731 1133 3434 
Q 928 4138 513 4856 
z
" transform="scale(0.015625)"/>
      </defs>
      <use xlink:href="#DejaVuSans-42"/>
      <use xlink:href="#DejaVuSans-69" x="68.603516"/>
      <use xlink:href="#DejaVuSans-74" x="96.386719"/>
      <use xlink:href="#DejaVuSans-72" x="135.595703"/>
      <use xlink:href="#DejaVuSans-61" x="176.708984"/>
      <use xlink:href="#DejaVuSans-74" x="237.988281"/>
      <use xlink:href="#DejaVuSans-65" x="277.197266"/>
      <use xlink:href="#DejaVuSans-20" x="338.720703"/>
      <use xlink:href="#DejaVuSans-28" x="370.507812"/>
      <use xlink:href="#DejaVuSans-6b" x="409.521484"/>
      <use xlink:href="#DejaVuSans-62" x="467.431641"/>
      <use xlink:href="#DejaVuSans-69" x="530.908203"/>
      <use xlink:href="#DejaVuSans-74" x="558.691406"/>
      <use xlink:href="#DejaVuSans-2f" x="597.900391"/>
      <use xlink:href="#DejaVuSans-73" x="631.591797"/>
      <use xlink:href="#DejaVuSans-29" x="683.691406"/>
     </g>
    </g>
   </g>
   <g id="PolyCollection_1">
    <defs>
     <path id="m7b026deb7b" d="M 115.363636 -43.278326 
L 115.363636 -41.76 
L 117.054545 -41.76 
L 118.745455 -41.76 
L 120.436364 -41.76 
L 122.127273 -41.76 
L 123.818182 -41.76 
L 125.509091 -41.76 
L 127.2 -41.76 
L 128.890909 -41.76 
L 130.581818 -41.76 
L 132.272727 -41.76 
L 133.963636 -41.76 
L 135.654545 -41.76 
L 137.345455 -41.76 
L 139.036364 -41.76 
L 140.727273 -41.76 
L 142.418182 -41.76 
L 144.109091 -41.76 
L 145.8 -41.76 
L 147.490909 -41.76 
L 149.181818 -41.76 
L 150.872727 -41.76 
L 152.563636 -41.76 
L 154.254545 -41.76 
L 155.945455 -41.76 
L 157.636364 -41.76 
L 159.327273 -41.76 
L 161.018182 -41.76 
L 162.709091 -41.76 
L 164.4 -41.76 
L 166.090909 -41.76 
L 167.781818 -41.76 
L 169.472727 -41.76 
L 171.163636 -41.76 
L 172.854545 -41.76 
L 174.545455 -41.76 
L 176.236364 -41.76 
L 177.927273 -41.76 
L 179.618182 -41.76 
L 181.309091 -41.76 
L 183 -41.76 
L 184.690909 -41.76 
L 186.381818 -41.76 
L 188.072727 -41.76 
L 189.763636 -41.76 
L 191.454545 -41.76 
L 193.145455 -41.76 
L 194.836364 -41.76 
L 196.527273 -41.76 
L 198.218182 -41.76 
L 199.909091 -41.76 
L 201.6 -41.76 
L 203.290909 -41.76 
L 204.981818 -41.76 
L 206.672727 -41.76 
L 208.363636 -41.76 
L 210.054545 -41.76 
L 211.745455 -41.76 
L 213.436364 -41.76 
L 215.127273 -41.76 
L 216.818182 -41.76 
L 218.509091 -41.76 
L 220.2 -41.76 
L 221.890909 -41.76 
L 223.581818 -41.76 
L 225.272727 -41.76 
L 226.963636 -41.76 
L 228.654545 -41.76 
L 230.345455 -41.76 
L 232.036364 -41.76 
L 233.727273 -41.76 
L 235.418182 -41.76 
L 237.109091 -41.76 
L 238.8 -41.76 
L 240.490909 -41.76 
L 242.181818 -41.76 
L 243.872727 -41.76 
L 245.563636 -41.76 
L 247.254545 -41.76 
L 248.945455 -41.76 
L 250.636364 -41.76 
L 252.327273 -41.76 
L 254.018182 -41.76 
L 255.709091 -41.76 
L 257.4 -41.76 
L 259.090909 -41.76 
L 260.781818 -41.76 
L 262.472727 -41.76 
L 264.163636 -41.76 
L 265.854545 -41.76 
L 267.545455 -41.76 
L 269.236364 -41.76 
L 270.927273 -41.76 
L 272.618182 -41.76 
L 274.309091 -41.76 
L 276 -41.76 
L 277.690909 -41.76 
L 279.381818 -41.76 
L 281.072727 -41.76 
L 282.763636 -41.76 
L 284.454545 -41.76 
L 286.145455 -41.76 
L 287.836364 -41.76 
L 289.527273 -41.76 
L 291.218182 -41.76 
L 292.909091 -41.76 
L 294.6 -41.76 
L 296.290909 -41.76 
L 297.981818 -41.76 
L 299.672727 -41.76 
L 301.363636 -41.76 
L 303.054545 -41.76 
L 304.745455 -41.76 
L 306.436364 -41.76 
L 308.127273 -41.76 
L 309.818182 -41.76 
L 311.509091 -41.76 
L 313.2 -41.76 
L 314.890909 -41.76 
L 316.581818 -41.76 
L 318.272727 -41.76 
L 319.963636 -41.76 
L 321.654545 -41.76 
L 323.345455 -41.76 
L 325.036364 -41.76 
L 326.727273 -41.76 
L 328.418182 -41.76 
L 330.109091 -41.76 
L 331.8 -41.76 
L 333.490909 -41.76 
L 335.181818 -41.76 
L 336.872727 -41.76 
L 338.563636 -41.76 
L 340.254545 -41.76 
L 341.945455 -41.76 
L 343.636364 -41.76 
L 345.327273 -41.76 
L 347.018182 -41.76 
L 348.709091 -41.76 
L 350.4 -41.76 
L 352.090909 -41.76 
L 353.781818 -41.76 
L 355.472727 -41.76 
L 357.163636 -41.76 
L 358.854545 -41.76 
L 360.545455 -41.76 
L 362.236364 -41.76 
L 363.927273 -41.76 
L 365.618182 -41.76 
L 367.309091 -41.76 
L 369 -41.76 
L 370.690909 -41.76 
L 372.381818 -41.76 
L 374.072727 -41.76 
L 375.763636 -41.76 
L 377.454545 -41.76 
L 379.145455 -41.76 
L 380.836364 -41.76 
L 382.527273 -41.76 
L 384.218182 -41.76 
L 385.909091 -41.76 
L 387.6 -41.76 
L 389.290909 -41.76 
L 390.981818 -41.76 
L 392.672727 -41.76 
L 394.363636 -41.76 
L 396.054545 -41.76 
L 397.745455 -41.76 
L 399.436364 -41.76 
L 401.127273 -41.76 
L 402.818182 -41.76 
L 404.509091 -41.76 
L 406.2 -41.76 
L 407.890909 -41.76 
L 409.581818 -41.76 
L 411.272727 -41.76 
L 412.963636 -41.76 
L 414.654545 -41.76 
L 416.345455 -41.76 
L 418.036364 -41.76 
L 419.727273 -41.76 
L 421.418182 -41.76 
L 423.109091 -41.76 
L 424.8 -41.76 
L 426.490909 -41.76 
L 428.181818 -41.76 
L 429.872727 -41.76 
L 431.563636 -41.76 
L 433.254545 -41.76 
L 434.945455 -41.76 
L 436.636364 -41.76 
L 438.327273 -41.76 
L 440.018182 -41.76 
L 441.709091 -41.76 
L 443.4 -41.76 
L 445.090909 -41.76 
L 446.781818 -41.76 
L 448.472727 -41.76 
L 450.163636 -41.76 
L 451.854545 -41.76 
L 453.545455 -41.76 
L 455.236364 -41.76 
L 456.927273 -41.76 
L 458.618182 -41.76 
L 460.309091 -41.76 
L 462 -41.76 
L 463.690909 -41.76 
L 465.381818 -41.76 
L 467.072727 -41.76 
L 468.763636 -41.76 
L 470.454545 -41.76 
L 472.145455 -41.76 
L 473.836364 -41.76 
L 475.527273 -41.76 
L 477.218182 -41.76 
L 478.909091 -41.76 
L 480.6 -41.76 
L 482.290909 -41.76 
L 483.981818 -41.76 
L 485.672727 -41.76 
L 487.363636 -41.76 
L 489.054545 -41.76 
L 490.745455 -41.76 
L 492.436364 -41.76 
L 494.127273 -41.76 
L 495.818182 -41.76 
L 497.509091 -41.76 
L 499.2 -41.76 
L 500.890909 -41.76 
L 502.581818 -41.76 
L 504.272727 -41.76 
L 505.963636 -41.76 
L 507.654545 -41.76 
L 509.345455 -41.76 
L 511.036364 -41.76 
L 512.727273 -41.76 
L 514.418182 -41.76 
L 516.109091 -41.76 
L 517.8 -41.76 
L 519.490909 -41.76 
L 521.181818 -41.76 
L 522.872727 -41.76 
L 524.563636 -41.76 
L 526.254545 -41.76 
L 527.945455 -41.76 
L 529.636364 -41.76 
L 531.327273 -41.76 
L 533.018182 -41.76 
L 534.709091 -41.76 
L 536.4 -41.76 
L 538.090909 -41.76 
L 539.781818 -41.76 
L 541.472727 -41.76 
L 543.163636 -41.76 
L 544.854545 -41.76 
L 546.545455 -41.76 
L 548.236364 -41.76 
L 549.927273 -41.76 
L 551.618182 -41.76 
L 553.309091 -41.76 
L 555 -41.76 
L 556.690909 -41.76 
L 558.381818 -41.76 
L 560.072727 -41.76 
L 561.763636 -41.76 
L 563.454545 -41.76 
L 565.145455 -41.76 
L 566.836364 -41.76 
L 568.527273 -41.76 
L 570.218182 -41.76 
L 571.909091 -41.76 
L 573.6 -41.76 
L 575.290909 -41.76 
L 576.981818 -41.76 
L 578.672727 -41.76 
L 580.363636 -41.76 
L 582.054545 -41.76 
L 583.745455 -41.76 
L 585.436364 -41.76 
L 587.127273 -41.76 
L 588.818182 -41.76 
L 590.509091 -41.76 
L 592.2 -41.76 
L 593.890909 -41.76 
L 595.581818 -41.76 
L 597.272727 -41.76 
L 598.963636 -41.76 
L 600.654545 -41.76 
L 602.345455 -41.76 
L 604.036364 -41.76 
L 605.727273 -41.76 
L 607.418182 -41.76 
L 609.109091 -41.76 
L 610.8 -41.76 
L 612.490909 -41.76 
L 614.181818 -41.76 
L 615.872727 -41.76 
L 617.563636 -41.76 
L 619.254545 -41.76 
L 620.945455 -41.76 
L 622.636364 -41.76 
L 622.636364 -41.76 
L 622.636364 -41.76 
L 620.945455 -66.896736 
L 619.254545 -41.76 
L 617.563636 -41.76 
L 615.872727 -69.089874 
L 614.181818 -41.76 
L 612.490909 -41.76 
L 610.8 -129.569874 
L 609.109091 -41.76 
L 607.418182 -41.76 
L 605.727273 -41.76 
L 604.036364 -138.426778 
L 602.345455 -41.76 
L 600.654545 -41.76 
L 598.963636 -41.76 
L 597.272727 -72.801339 
L 595.581818 -98.950293 
L 593.890909 -41.76 
L 592.2 -108.650711 
L 590.509091 -41.76 
L 588.818182 -61.160837 
L 587.127273 -41.76 
L 585.436364 -127.123682 
L 583.745455 -41.76 
L 582.054545 -41.76 
L 580.363636 -41.76 
L 578.672727 -120.038159 
L 576.981818 -41.76 
L 575.290909 -41.76 
L 573.6 -41.76 
L 571.909091 -72.042176 
L 570.218182 -41.76 
L 568.527273 -81.405188 
L 566.836364 -83.682678 
L 565.145455 -41.76 
L 563.454545 -60.317322 
L 561.763636 -41.76 
L 560.072727 -160.611213 
L 558.381818 -41.76 
L 556.690909 -95.32318 
L 555 -41.76 
L 553.309091 -56.605858 
L 551.618182 -111.012552 
L 549.927273 -41.76 
L 548.236364 -55.762343 
L 546.545455 -57.365021 
L 544.854545 -41.76 
L 543.163636 -41.76 
L 541.472727 -72.126527 
L 539.781818 -41.76 
L 538.090909 -41.76 
L 536.4 -41.76 
L 534.709091 -41.76 
L 533.018182 -129.401172 
L 531.327273 -169.805523 
L 529.636364 -65.547113 
L 527.945455 -41.76 
L 526.254545 -41.76 
L 524.563636 -41.76 
L 522.872727 -65.294059 
L 521.181818 -41.76 
L 519.490909 -41.76 
L 517.8 -41.76 
L 516.109091 -41.76 
L 514.418182 -71.029958 
L 512.727273 -41.76 
L 511.036364 -137.498912 
L 509.345455 -41.76 
L 507.654545 -41.76 
L 505.963636 -41.76 
L 504.272727 -71.536067 
L 502.581818 -41.76 
L 500.890909 -182.120837 
L 499.2 -41.76 
L 497.509091 -41.76 
L 495.818182 -90.177741 
L 494.127273 -53.990962 
L 492.436364 -41.76 
L 490.745455 -69.258577 
L 489.054545 -41.76 
L 487.363636 -41.76 
L 485.672727 -41.76 
L 483.981818 -71.029958 
L 482.290909 -41.76 
L 480.6 -72.632636 
L 478.909091 -41.76 
L 477.218182 -41.76 
L 475.527273 -69.849038 
L 473.836364 -41.76 
L 472.145455 -62.004351 
L 470.454545 -73.813556 
L 468.763636 -41.76 
L 467.072727 -90.515146 
L 465.381818 -41.76 
L 463.690909 -41.76 
L 462 -41.76 
L 460.309091 -71.70477 
L 458.618182 -41.76 
L 456.927273 -41.76 
L 455.236364 -60.486025 
L 453.545455 -63.353975 
L 451.854545 -55.846695 
L 450.163636 -41.76 
L 448.472727 -41.76 
L 446.781818 -58.039833 
L 445.090909 -41.76 
L 443.4 -41.76 
L 441.709091 -90.177741 
L 440.018182 -41.76 
L 438.327273 -41.76 
L 436.636364 -49.182929 
L 434.945455 -78.62159 
L 433.254545 -41.76 
L 431.563636 -41.76 
L 429.872727 -41.76 
L 428.181818 -41.76 
L 426.490909 -88.575063 
L 424.8 -41.76 
L 423.109091 -80.392971 
L 421.418182 -41.76 
L 419.727273 -93.804854 
L 418.036364 -41.76 
L 416.345455 -54.918828 
L 414.654545 -41.76 
L 412.963636 -41.76 
L 411.272727 -41.76 
L 409.581818 -41.76 
L 407.890909 -55.509289 
L 406.2 -94.901423 
L 404.509091 -41.76 
L 402.818182 -58.798996 
L 401.127273 -41.76 
L 399.436364 -41.76 
L 397.745455 -93.383096 
L 396.054545 -56.774561 
L 394.363636 -95.32318 
L 392.672727 -98.444184 
L 390.981818 -41.76 
L 389.290909 -41.76 
L 387.6 -41.76 
L 385.909091 -103.083515 
L 384.218182 -41.76 
L 382.527273 -41.76 
L 380.836364 -85.454059 
L 379.145455 -41.76 
L 377.454545 -41.76 
L 375.763636 -41.76 
L 374.072727 -90.768201 
L 372.381818 -41.76 
L 370.690909 -41.76 
L 369 -191.146444 
L 367.309091 -41.76 
L 365.618182 -41.76 
L 363.927273 -74.235314 
L 362.236364 -41.76 
L 360.545455 -41.76 
L 358.854545 -41.76 
L 357.163636 -87.562845 
L 355.472727 -41.76 
L 353.781818 -41.76 
L 352.090909 -41.76 
L 350.4 -86.972385 
L 348.709091 -41.76 
L 347.018182 -41.76 
L 345.327273 -41.76 
L 343.636364 -82.501757 
L 341.945455 -41.76 
L 340.254545 -41.76 
L 338.563636 -41.76 
L 336.872727 -86.213222 
L 335.181818 -41.76 
L 333.490909 -41.76 
L 331.8 -41.76 
L 330.109091 -82.67046 
L 328.418182 -41.76 
L 326.727273 -76.175397 
L 325.036364 -41.76 
L 323.345455 -41.76 
L 321.654545 -98.022427 
L 319.963636 -106.457573 
L 318.272727 -41.76 
L 316.581818 -41.76 
L 314.890909 -41.76 
L 313.2 -123.412218 
L 311.509091 -53.063096 
L 309.818182 -41.76 
L 308.127273 -41.76 
L 306.436364 -41.76 
L 304.745455 -57.111967 
L 303.054545 -41.76 
L 301.363636 -41.76 
L 299.672727 -41.76 
L 297.981818 -57.027615 
L 296.290909 -41.76 
L 294.6 -41.76 
L 292.909091 -41.76 
L 291.218182 -145.596653 
L 289.527273 -41.76 
L 287.836364 -41.76 
L 286.145455 -41.76 
L 284.454545 -41.76 
L 282.763636 -73.644854 
L 281.072727 -41.76 
L 279.381818 -41.76 
L 277.690909 -41.76 
L 276 -81.658243 
L 274.309091 -102.83046 
L 272.618182 -41.76 
L 270.927273 -76.259749 
L 269.236364 -41.76 
L 267.545455 -41.76 
L 265.854545 -41.76 
L 264.163636 -75.16318 
L 262.472727 -41.76 
L 260.781818 -41.76 
L 259.090909 -41.76 
L 257.4 -97.431967 
L 255.709091 -41.76 
L 254.018182 -41.76 
L 252.327273 -41.76 
L 250.636364 -41.76 
L 248.945455 -99.118996 
L 247.254545 -41.76 
L 245.563636 -60.317322 
L 243.872727 -41.76 
L 242.181818 -132.269121 
L 240.490909 -41.76 
L 238.8 -83.176569 
L 237.109091 -56.774561 
L 235.418182 -41.76 
L 233.727273 -41.76 
L 232.036364 -41.76 
L 230.345455 -113.458745 
L 228.654545 -41.76 
L 226.963636 -41.76 
L 225.272727 -65.96887 
L 223.581818 -65.631464 
L 221.890909 -41.76 
L 220.2 -41.76 
L 218.509091 -41.76 
L 216.818182 -102.577406 
L 215.127273 -41.76 
L 213.436364 -41.76 
L 211.745455 -41.76 
L 210.054545 -115.145774 
L 208.363636 -41.76 
L 206.672727 -41.76 
L 204.981818 -41.76 
L 203.290909 -134.040502 
L 201.6 -41.76 
L 199.909091 -41.76 
L 198.218182 -41.76 
L 196.527273 -89.249874 
L 194.836364 -41.76 
L 193.145455 -41.76 
L 191.454545 -41.76 
L 189.763636 -41.76 
L 188.072727 -92.623933 
L 186.381818 -41.76 
L 184.690909 -41.76 
L 183 -41.76 
L 181.309091 -116.326695 
L 179.618182 -41.76 
L 177.927273 -41.76 
L 176.236364 -41.76 
L 174.545455 -131.172552 
L 172.854545 -41.76 
L 171.163636 -41.76 
L 169.472727 -41.76 
L 167.781818 -125.014895 
L 166.090909 -41.76 
L 164.4 -41.76 
L 162.709091 -41.76 
L 161.018182 -163.985272 
L 159.327273 -41.76 
L 157.636364 -41.76 
L 155.945455 -62.932218 
L 154.254545 -41.76 
L 152.563636 -41.76 
L 150.872727 -41.76 
L 149.181818 -67.908954 
L 147.490909 -41.76 
L 145.8 -41.76 
L 144.109091 -41.76 
L 142.418182 -152.260418 
L 140.727273 -41.76 
L 139.036364 -41.76 
L 137.345455 -41.76 
L 135.654545 -134.040502 
L 133.963636 -41.76 
L 132.272727 -41.76 
L 130.581818 -41.76 
L 128.890909 -82.754812 
L 127.2 -41.76 
L 125.509091 -41.76 
L 123.818182 -41.76 
L 122.127273 -44.206192 
L 120.436364 -41.76 
L 118.745455 -41.76 
L 117.054545 -41.76 
L 115.363636 -43.278326 
z
" style="stroke: #ff0000; stroke-width: 0.5"/>
    </defs>
    <g clip-path="url(#pa9192c05ce)">
     <use xlink:href="#m7b026deb7b" x="0" y="288" style="fill: #ff0000; stroke: #ff0000; stroke-width: 0.5"/>
    </g>
   </g>
   <g id="PolyCollection_2">
    <defs>
     <path id="m74f6da6cbc" d="M 115.363636 -49.604686 
L 115.363636 -43.278326 
L 117.054545 -41.76 
L 118.745455 -41.76 
L 120.436364 -41.76 
L 122.127273 -44.206192 
L 123.818182 -41.76 
L 125.509091 -41.76 
L 127.2 -41.76 
L 128.890909 -82.754812 
L 130.581818 -41.76 
L 132.272727 -41.76 
L 133.963636 -41.76 
L 135.654545 -134.040502 
L 137.345455 -41.76 
L 139.036364 -41.76 
L 140.727273 -41.76 
L 142.418182 -152.260418 
L 144.109091 -41.76 
L 145.8 -41.76 
L 147.490909 -41.76 
L 149.181818 -67.908954 
L 150.872727 -41.76 
L 152.563636 -41.76 
L 154.254545 -41.76 
L 155.945455 -62.932218 
L 157.636364 -41.76 
L 159.327273 -41.76 
L 161.018182 -163.985272 
L 162.709091 -41.76 
L 164.4 -41.76 
L 166.090909 -41.76 
L 167.781818 -125.014895 
L 169.472727 -41.76 
L 171.163636 -41.76 
L 172.854545 -41.76 
L 174.545455 -131.172552 
L 176.236364 -41.76 
L 177.927273 -41.76 
L 179.618182 -41.76 
L 181.309091 -116.326695 
L 183 -41.76 
L 184.690909 -41.76 
L 186.381818 -41.76 
L 188.072727 -92.623933 
L 189.763636 -41.76 
L 191.454545 -41.76 
L 193.145455 -41.76 
L 194.836364 -41.76 
L 196.527273 -89.249874 
L 198.218182 -41.76 
L 199.909091 -41.76 
L 201.6 -41.76 
L 203.290909 -134.040502 
L 204.981818 -41.76 
L 206.672727 -41.76 
L 208.363636 -41.76 
L 210.054545 -115.145774 
L 211.745455 -41.76 
L 213.436364 -41.76 
L 215.127273 -41.76 
L 216.818182 -102.577406 
L 218.509091 -41.76 
L 220.2 -41.76 
L 221.890909 -41.76 
L 223.581818 -65.631464 
L 225.272727 -65.96887 
L 226.963636 -41.76 
L 228.654545 -41.76 
L 230.345455 -113.458745 
L 232.036364 -41.76 
L 233.727273 -41.76 
L 235.418182 -41.76 
L 237.109091 -56.774561 
L 238.8 -83.176569 
L 240.490909 -41.76 
L 242.181818 -132.269121 
L 243.872727 -41.76 
L 245.563636 -60.317322 
L 247.254545 -41.76 
L 248.945455 -99.118996 
L 250.636364 -41.76 
L 252.327273 -41.76 
L 254.018182 -41.76 
L 255.709091 -41.76 
L 257.4 -97.431967 
L 259.090909 -41.76 
L 260.781818 -41.76 
L 262.472727 -41.76 
L 264.163636 -75.16318 
L 265.854545 -41.76 
L 267.545455 -41.76 
L 269.236364 -41.76 
L 270.927273 -76.259749 
L 272.618182 -41.76 
L 274.309091 -102.83046 
L 276 -81.658243 
L 277.690909 -41.76 
L 279.381818 -41.76 
L 281.072727 -41.76 
L 282.763636 -73.644854 
L 284.454545 -41.76 
L 286.145455 -41.76 
L 287.836364 -41.76 
L 289.527273 -41.76 
L 291.218182 -145.596653 
L 292.909091 -41.76 
L 294.6 -41.76 
L 296.290909 -41.76 
L 297.981818 -57.027615 
L 299.672727 -41.76 
L 301.363636 -41.76 
L 303.054545 -41.76 
L 304.745455 -57.111967 
L 306.436364 -41.76 
L 308.127273 -41.76 
L 309.818182 -41.76 
L 311.509091 -53.063096 
L 313.2 -123.412218 
L 314.890909 -41.76 
L 316.581818 -41.76 
L 318.272727 -41.76 
L 319.963636 -106.457573 
L 321.654545 -98.022427 
L 323.345455 -41.76 
L 325.036364 -41.76 
L 326.727273 -76.175397 
L 328.418182 -41.76 
L 330.109091 -82.67046 
L 331.8 -41.76 
L 333.490909 -41.76 
L 335.181818 -41.76 
L 336.872727 -86.213222 
L 338.563636 -41.76 
L 340.254545 -41.76 
L 341.945455 -41.76 
L 343.636364 -82.501757 
L 345.327273 -41.76 
L 347.018182 -41.76 
L 348.709091 -41.76 
L 350.4 -86.972385 
L 352.090909 -41.76 
L 353.781818 -41.76 
L 355.472727 -41.76 
L 357.163636 -87.562845 
L 358.854545 -41.76 
L 360.545455 -41.76 
L 362.236364 -41.76 
L 363.927273 -74.235314 
L 365.618182 -41.76 
L 367.309091 -41.76 
L 369 -191.146444 
L 370.690909 -41.76 
L 372.381818 -41.76 
L 374.072727 -90.768201 
L 375.763636 -41.76 
L 377.454545 -41.76 
L 379.145455 -41.76 
L 380.836364 -85.454059 
L 382.527273 -41.76 
L 384.218182 -41.76 
L 385.909091 -103.083515 
L 387.6 -41.76 
L 389.290909 -41.76 
L 390.981818 -41.76 
L 392.672727 -98.444184 
L 394.363636 -95.32318 
L 396.054545 -56.774561 
L 397.745455 -93.383096 
L 399.436364 -41.76 
L 401.127273 -41.76 
L 402.818182 -58.798996 
L 404.509091 -41.76 
L 406.2 -94.901423 
L 407.890909 -55.509289 
L 409.581818 -41.76 
L 411.272727 -41.76 
L 412.963636 -41.76 
L 414.654545 -41.76 
L 416.345455 -54.918828 
L 418.036364 -41.76 
L 419.727273 -93.804854 
L 421.418182 -41.76 
L 423.109091 -80.392971 
L 424.8 -41.76 
L 426.490909 -88.575063 
L 428.181818 -41.76 
L 429.872727 -41.76 
L 431.563636 -41.76 
L 433.254545 -41.76 
L 434.945455 -78.62159 
L 436.636364 -49.182929 
L 438.327273 -41.76 
L 440.018182 -41.76 
L 441.709091 -90.177741 
L 443.4 -41.76 
L 445.090909 -41.76 
L 446.781818 -58.039833 
L 448.472727 -41.76 
L 450.163636 -41.76 
L 451.854545 -55.846695 
L 453.545455 -63.353975 
L 455.236364 -60.486025 
L 456.927273 -41.76 
L 458.618182 -41.76 
L 460.309091 -71.70477 
L 462 -41.76 
L 463.690909 -41.76 
L 465.381818 -41.76 
L 467.072727 -90.515146 
L 468.763636 -41.76 
L 470.454545 -73.813556 
L 472.145455 -62.004351 
L 473.836364 -41.76 
L 475.527273 -69.849038 
L 477.218182 -41.76 
L 478.909091 -41.76 
L 480.6 -72.632636 
L 482.290909 -41.76 
L 483.981818 -71.029958 
L 485.672727 -41.76 
L 487.363636 -41.76 
L 489.054545 -41.76 
L 490.745455 -69.258577 
L 492.436364 -41.76 
L 494.127273 -53.990962 
L 495.818182 -90.177741 
L 497.509091 -41.76 
L 499.2 -41.76 
L 500.890909 -182.120837 
L 502.581818 -41.76 
L 504.272727 -71.536067 
L 505.963636 -41.76 
L 507.654545 -41.76 
L 509.345455 -41.76 
L 511.036364 -137.498912 
L 512.727273 -41.76 
L 514.418182 -71.029958 
L 516.109091 -41.76 
L 517.8 -41.76 
L 519.490909 -41.76 
L 521.181818 -41.76 
L 522.872727 -65.294059 
L 524.563636 -41.76 
L 526.254545 -41.76 
L 527.945455 -41.76 
L 529.636364 -65.547113 
L 531.327273 -169.805523 
L 533.018182 -129.401172 
L 534.709091 -41.76 
L 536.4 -41.76 
L 538.090909 -41.76 
L 539.781818 -41.76 
L 541.472727 -72.126527 
L 543.163636 -41.76 
L 544.854545 -41.76 
L 546.545455 -57.365021 
L 548.236364 -55.762343 
L 549.927273 -41.76 
L 551.618182 -111.012552 
L 553.309091 -56.605858 
L 555 -41.76 
L 556.690909 -95.32318 
L 558.381818 -41.76 
L 560.072727 -160.611213 
L 561.763636 -41.76 
L 563.454545 -60.317322 
L 565.145455 -41.76 
L 566.836364 -83.682678 
L 568.527273 -81.405188 
L 570.218182 -41.76 
L 571.909091 -72.042176 
L 573.6 -41.76 
L 575.290909 -41.76 
L 576.981818 -41.76 
L 578.672727 -120.038159 
L 580.363636 -41.76 
L 582.054545 -41.76 
L 583.745455 -41.76 
L 585.436364 -127.123682 
L 587.127273 -41.76 
L 588.818182 -61.160837 
L 590.509091 -41.76 
L 592.2 -108.650711 
L 593.890909 -41.76 
L 595.581818 -98.950293 
L 597.272727 -72.801339 
L 598.963636 -41.76 
L 600.654545 -41.76 
L 602.345455 -41.76 
L 604.036364 -138.426778 
L 605.727273 -41.76 
L 607.418182 -41.76 
L 609.109091 -41.76 
L 610.8 -129.569874 
L 612.490909 -41.76 
L 614.181818 -41.76 
L 615.872727 -69.089874 
L 617.563636 -41.76 
L 619.254545 -41.76 
L 620.945455 -66.896736 
L 622.636364 -41.76 
L 622.636364 -41.76 
L 622.636364 -41.76 
L 620.945455 -91.780418 
L 619.254545 -79.127699 
L 617.563636 -63.016569 
L 615.872727 -76.006695 
L 614.181818 -47.074142 
L 612.490909 -48.67682 
L 610.8 -138.595481 
L 609.109091 -55.171883 
L 607.418182 -46.905439 
L 605.727273 -44.543598 
L 604.036364 -143.487866 
L 602.345455 -54.328368 
L 600.654545 -53.906611 
L 598.963636 -55.677992 
L 597.272727 -106.204519 
L 595.581818 -141.041674 
L 593.890909 -60.064268 
L 592.2 -120.459916 
L 590.509091 -61.582594 
L 588.818182 -74.910126 
L 587.127273 -58.292887 
L 585.436364 -140.788619 
L 583.745455 -103.589623 
L 582.054545 -113.796151 
L 580.363636 -108.228954 
L 578.672727 -140.957322 
L 576.981818 -46.568033 
L 575.290909 -45.640167 
L 573.6 -55.00318 
L 571.909091 -78.452887 
L 570.218182 -54.328368 
L 568.527273 -87.141088 
L 566.836364 -100.721674 
L 565.145455 -51.797824 
L 563.454545 -76.3441 
L 561.763636 -48.255063 
L 560.072727 -169.130711 
L 558.381818 -60.739079 
L 556.690909 -108.482008 
L 555 -51.376067 
L 553.309091 -66.306276 
L 551.618182 -127.292385 
L 549.927273 -73.982259 
L 548.236364 -74.488368 
L 546.545455 -66.981088 
L 544.854545 -48.845523 
L 543.163636 -59.136402 
L 541.472727 -125.26795 
L 539.781818 -61.498243 
L 538.090909 -65.462762 
L 536.4 -65.884519 
L 534.709091 -106.626276 
L 533.018182 -148.211548 
L 531.327273 -183.048703 
L 529.636364 -85.707113 
L 527.945455 -46.483682 
L 526.254545 -46.483682 
L 524.563636 -46.061925 
L 522.872727 -70.776904 
L 521.181818 -46.821088 
L 519.490909 -47.917657 
L 517.8 -53.231799 
L 516.109091 -64.619247 
L 514.418182 -81.573891 
L 512.727273 -45.471464 
L 511.036364 -143.234812 
L 509.345455 -64.113138 
L 507.654545 -54.834477 
L 505.963636 -67.149791 
L 504.272727 -107.301088 
L 502.581818 -52.219582 
L 500.890909 -184.482678 
L 499.2 -44.62795 
L 497.509091 -45.134059 
L 495.818182 -95.070126 
L 494.127273 -62.51046 
L 492.436364 -60.148619 
L 490.745455 -97.600669 
L 489.054545 -55.762343 
L 487.363636 -58.630293 
L 485.672727 -56.605858 
L 483.981818 -85.032301 
L 482.290909 -95.660586 
L 480.6 -128.051548 
L 478.909091 -101.312134 
L 477.218182 -106.457573 
L 475.527273 -115.48318 
L 473.836364 -58.46159 
L 472.145455 -79.718159 
L 470.454545 -97.600669 
L 468.763636 -46.483682 
L 467.072727 -96.841506 
L 465.381818 -52.894393 
L 463.690909 -48.929874 
L 462 -58.798996 
L 460.309091 -83.345272 
L 458.618182 -51.966527 
L 456.927273 -52.13523 
L 455.236364 -66.474979 
L 453.545455 -89.58728 
L 451.854545 -69.511632 
L 450.163636 -51.038661 
L 448.472727 -79.718159 
L 446.781818 -85.53841 
L 445.090909 -45.80887 
L 443.4 -45.21841 
L 441.709091 -96.5041 
L 440.018182 -76.681506 
L 438.327273 -85.116653 
L 436.636364 -69.258577 
L 434.945455 -108.735063 
L 433.254545 -89.081172 
L 431.563636 -91.021255 
L 429.872727 -96.251046 
L 428.181818 -93.383096 
L 426.490909 -108.228954 
L 424.8 -58.124184 
L 423.109091 -95.660586 
L 421.418182 -94.985774 
L 419.727273 -131.425607 
L 418.036364 -55.509289 
L 416.345455 -63.353975 
L 414.654545 -53.906611 
L 412.963636 -49.435983 
L 411.272727 -52.219582 
L 409.581818 -52.978745 
L 407.890909 -81.236485 
L 406.2 -104.264435 
L 404.509091 -48.845523 
L 402.818182 -72.970042 
L 401.127273 -55.846695 
L 399.436364 -60.148619 
L 397.745455 -106.626276 
L 396.054545 -67.908954 
L 394.363636 -108.482008 
L 392.672727 -107.807197 
L 390.981818 -52.303933 
L 389.290909 -48.002008 
L 387.6 -47.833305 
L 385.909091 -106.879331 
L 384.218182 -55.677992 
L 382.527273 -58.714644 
L 380.836364 -114.470962 
L 379.145455 -68.583766 
L 377.454545 -64.619247 
L 375.763636 -56.015397 
L 374.072727 -97.178912 
L 372.381818 -45.893222 
L 370.690909 -46.821088 
L 369 -194.773556 
L 367.309091 -52.219582 
L 365.618182 -53.569205 
L 363.927273 -108.650711 
L 362.236364 -60.907782 
L 360.545455 -51.460418 
L 358.854545 -71.789121 
L 357.163636 -113.796151 
L 355.472727 -69.933389 
L 353.781818 -47.833305 
L 352.090909 -56.858912 
L 350.4 -108.988117 
L 348.709091 -53.400502 
L 347.018182 -50.363849 
L 345.327273 -49.857741 
L 343.636364 -96.251046 
L 341.945455 -48.929874 
L 340.254545 -50.616904 
L 338.563636 -68.668117 
L 336.872727 -106.963682 
L 335.181818 -51.123013 
L 333.490909 -51.207364 
L 331.8 -48.255063 
L 330.109091 -113.121339 
L 328.418182 -71.957824 
L 326.727273 -100.974728 
L 325.036364 -50.279498 
L 323.345455 -65.547113 
L 321.654545 -110.084686 
L 319.963636 -121.219079 
L 318.272727 -66.981088 
L 316.581818 -58.798996 
L 314.890909 -57.027615 
L 313.2 -143.487866 
L 311.509091 -72.716987 
L 309.818182 -71.873473 
L 308.127273 -69.005523 
L 306.436364 -64.19749 
L 304.745455 -86.12887 
L 303.054545 -63.944435 
L 301.363636 -66.643682 
L 299.672727 -55.762343 
L 297.981818 -64.872301 
L 296.290909 -47.074142 
L 294.6 -57.786778 
L 292.909091 -49.604686 
L 291.218182 -151.332552 
L 289.527273 -54.41272 
L 287.836364 -53.400502 
L 286.145455 -50.448201 
L 284.454545 -53.316151 
L 282.763636 -80.055565 
L 281.072727 -47.664603 
L 279.381818 -46.905439 
L 277.690909 -46.568033 
L 276 -84.94795 
L 274.309091 -106.204519 
L 272.618182 -46.230628 
L 270.927273 -81.826946 
L 269.236364 -51.207364 
L 267.545455 -50.363849 
L 265.854545 -44.965356 
L 264.163636 -83.345272 
L 262.472727 -51.376067 
L 260.781818 -61.666946 
L 259.090909 -62.257406 
L 257.4 -126.954979 
L 255.709091 -96.335397 
L 254.018182 -86.297573 
L 252.327273 -89.165523 
L 250.636364 -74.235314 
L 248.945455 -125.689707 
L 247.254545 -58.124184 
L 245.563636 -65.547113 
L 243.872727 -46.061925 
L 242.181818 -136.402343 
L 240.490909 -46.146276 
L 238.8 -108.735063 
L 237.109091 -68.83682 
L 235.418182 -67.487197 
L 233.727273 -70.523849 
L 232.036364 -59.895565 
L 230.345455 -120.038159 
L 228.654545 -49.351632 
L 226.963636 -48.255063 
L 225.272727 -73.054393 
L 223.581818 -70.102092 
L 221.890909 -47.327197 
L 220.2 -50.110795 
L 218.509091 -46.146276 
L 216.818182 -113.627448 
L 215.127273 -62.341757 
L 213.436364 -51.713473 
L 211.745455 -52.303933 
L 210.054545 -123.580921 
L 208.363636 -46.821088 
L 206.672727 -50.279498 
L 204.981818 -61.751297 
L 203.290909 -146.524519 
L 201.6 -51.207364 
L 199.909091 -47.327197 
L 198.218182 -47.580251 
L 196.527273 -95.91364 
L 194.836364 -46.989791 
L 193.145455 -47.158494 
L 191.454545 -47.242845 
L 189.763636 -47.748954 
L 188.072727 -98.612887 
L 186.381818 -47.833305 
L 184.690909 -47.833305 
L 183 -47.748954 
L 181.309091 -124.002678 
L 179.618182 -49.689038 
L 177.927273 -49.604686 
L 176.236364 -49.689038 
L 174.545455 -138.848536 
L 172.854545 -49.520335 
L 171.163636 -49.520335 
L 169.472727 -49.520335 
L 167.781818 -132.77523 
L 166.090909 -49.520335 
L 164.4 -49.435983 
L 162.709091 -49.351632 
L 161.018182 -170.142929 
L 159.327273 -46.568033 
L 157.636364 -53.063096 
L 155.945455 -86.719331 
L 154.254545 -47.580251 
L 152.563636 -55.00318 
L 150.872727 -50.701255 
L 149.181818 -79.549456 
L 147.490909 -57.365021 
L 145.8 -57.280669 
L 144.109091 -57.280669 
L 142.418182 -163.563515 
L 140.727273 -48.170711 
L 139.036364 -48.67682 
L 137.345455 -49.604686 
L 135.654545 -141.041674 
L 133.963636 -49.520335 
L 132.272727 -49.942092 
L 130.581818 -49.182929 
L 128.890909 -89.502929 
L 127.2 -48.170711 
L 125.509091 -47.664603 
L 123.818182 -45.893222 
L 122.127273 -48.761172 
L 120.436364 -45.977573 
L 118.745455 -45.80887 
L 117.054545 -47.580251 
L 115.363636 -49.604686 
z
" style="stroke: #0000ff; stroke-width: 0.5"/>
    </defs>
    <g clip-path="url(#pa9192c05ce)">
     <use xlink:href="#m74f6da6cbc" x="0" y="288" style="fill: #0000ff; stroke: #0000ff; stroke-width: 0.5"/>
    </g>
   </g>
   <g id="PolyCollection_3">
    <defs>
     <path id="m4409e33243" d="M 115.363636 -63.016569 
L 115.363636 -49.604686 
L 117.054545 -47.580251 
L 118.745455 -45.80887 
L 120.436364 -45.977573 
L 122.127273 -48.761172 
L 123.818182 -45.893222 
L 125.509091 -47.664603 
L 127.2 -48.170711 
L 128.890909 -89.502929 
L 130.581818 -49.182929 
L 132.272727 -49.942092 
L 133.963636 -49.520335 
L 135.654545 -141.041674 
L 137.345455 -49.604686 
L 139.036364 -48.67682 
L 140.727273 -48.170711 
L 142.418182 -163.563515 
L 144.109091 -57.280669 
L 145.8 -57.280669 
L 147.490909 -57.365021 
L 149.181818 -79.549456 
L 150.872727 -50.701255 
L 152.563636 -55.00318 
L 154.254545 -47.580251 
L 155.945455 -86.719331 
L 157.636364 -53.063096 
L 159.327273 -46.568033 
L 161.018182 -170.142929 
L 162.709091 -49.351632 
L 164.4 -49.435983 
L 166.090909 -49.520335 
L 167.781818 -132.77523 
L 169.472727 -49.520335 
L 171.163636 -49.520335 
L 172.854545 -49.520335 
L 174.545455 -138.848536 
L 176.236364 -49.689038 
L 177.927273 -49.604686 
L 179.618182 -49.689038 
L 181.309091 -124.002678 
L 183 -47.748954 
L 184.690909 -47.833305 
L 186.381818 -47.833305 
L 188.072727 -98.612887 
L 189.763636 -47.748954 
L 191.454545 -47.242845 
L 193.145455 -47.158494 
L 194.836364 -46.989791 
L 196.527273 -95.91364 
L 198.218182 -47.580251 
L 199.909091 -47.327197 
L 201.6 -51.207364 
L 203.290909 -146.524519 
L 204.981818 -61.751297 
L 206.672727 -50.279498 
L 208.363636 -46.821088 
L 210.054545 -123.580921 
L 211.745455 -52.303933 
L 213.436364 -51.713473 
L 215.127273 -62.341757 
L 216.818182 -113.627448 
L 218.509091 -46.146276 
L 220.2 -50.110795 
L 221.890909 -47.327197 
L 223.581818 -70.102092 
L 225.272727 -73.054393 
L 226.963636 -48.255063 
L 228.654545 -49.351632 
L 230.345455 -120.038159 
L 232.036364 -59.895565 
L 233.727273 -70.523849 
L 235.418182 -67.487197 
L 237.109091 -68.83682 
L 238.8 -108.735063 
L 240.490909 -46.146276 
L 242.181818 -136.402343 
L 243.872727 -46.061925 
L 245.563636 -65.547113 
L 247.254545 -58.124184 
L 248.945455 -125.689707 
L 250.636364 -74.235314 
L 252.327273 -89.165523 
L 254.018182 -86.297573 
L 255.709091 -96.335397 
L 257.4 -126.954979 
L 259.090909 -62.257406 
L 260.781818 -61.666946 
L 262.472727 -51.376067 
L 264.163636 -83.345272 
L 265.854545 -44.965356 
L 267.545455 -50.363849 
L 269.236364 -51.207364 
L 270.927273 -81.826946 
L 272.618182 -46.230628 
L 274.309091 -106.204519 
L 276 -84.94795 
L 277.690909 -46.568033 
L 279.381818 -46.905439 
L 281.072727 -47.664603 
L 282.763636 -80.055565 
L 284.454545 -53.316151 
L 286.145455 -50.448201 
L 287.836364 -53.400502 
L 289.527273 -54.41272 
L 291.218182 -151.332552 
L 292.909091 -49.604686 
L 294.6 -57.786778 
L 296.290909 -47.074142 
L 297.981818 -64.872301 
L 299.672727 -55.762343 
L 301.363636 -66.643682 
L 303.054545 -63.944435 
L 304.745455 -86.12887 
L 306.436364 -64.19749 
L 308.127273 -69.005523 
L 309.818182 -71.873473 
L 311.509091 -72.716987 
L 313.2 -143.487866 
L 314.890909 -57.027615 
L 316.581818 -58.798996 
L 318.272727 -66.981088 
L 319.963636 -121.219079 
L 321.654545 -110.084686 
L 323.345455 -65.547113 
L 325.036364 -50.279498 
L 326.727273 -100.974728 
L 328.418182 -71.957824 
L 330.109091 -113.121339 
L 331.8 -48.255063 
L 333.490909 -51.207364 
L 335.181818 -51.123013 
L 336.872727 -106.963682 
L 338.563636 -68.668117 
L 340.254545 -50.616904 
L 341.945455 -48.929874 
L 343.636364 -96.251046 
L 345.327273 -49.857741 
L 347.018182 -50.363849 
L 348.709091 -53.400502 
L 350.4 -108.988117 
L 352.090909 -56.858912 
L 353.781818 -47.833305 
L 355.472727 -69.933389 
L 357.163636 -113.796151 
L 358.854545 -71.789121 
L 360.545455 -51.460418 
L 362.236364 -60.907782 
L 363.927273 -108.650711 
L 365.618182 -53.569205 
L 367.309091 -52.219582 
L 369 -194.773556 
L 370.690909 -46.821088 
L 372.381818 -45.893222 
L 374.072727 -97.178912 
L 375.763636 -56.015397 
L 377.454545 -64.619247 
L 379.145455 -68.583766 
L 380.836364 -114.470962 
L 382.527273 -58.714644 
L 384.218182 -55.677992 
L 385.909091 -106.879331 
L 387.6 -47.833305 
L 389.290909 -48.002008 
L 390.981818 -52.303933 
L 392.672727 -107.807197 
L 394.363636 -108.482008 
L 396.054545 -67.908954 
L 397.745455 -106.626276 
L 399.436364 -60.148619 
L 401.127273 -55.846695 
L 402.818182 -72.970042 
L 404.509091 -48.845523 
L 406.2 -104.264435 
L 407.890909 -81.236485 
L 409.581818 -52.978745 
L 411.272727 -52.219582 
L 412.963636 -49.435983 
L 414.654545 -53.906611 
L 416.345455 -63.353975 
L 418.036364 -55.509289 
L 419.727273 -131.425607 
L 421.418182 -94.985774 
L 423.109091 -95.660586 
L 424.8 -58.124184 
L 426.490909 -108.228954 
L 428.181818 -93.383096 
L 429.872727 -96.251046 
L 431.563636 -91.021255 
L 433.254545 -89.081172 
L 434.945455 -108.735063 
L 436.636364 -69.258577 
L 438.327273 -85.116653 
L 440.018182 -76.681506 
L 441.709091 -96.5041 
L 443.4 -45.21841 
L 445.090909 -45.80887 
L 446.781818 -85.53841 
L 448.472727 -79.718159 
L 450.163636 -51.038661 
L 451.854545 -69.511632 
L 453.545455 -89.58728 
L 455.236364 -66.474979 
L 456.927273 -52.13523 
L 458.618182 -51.966527 
L 460.309091 -83.345272 
L 462 -58.798996 
L 463.690909 -48.929874 
L 465.381818 -52.894393 
L 467.072727 -96.841506 
L 468.763636 -46.483682 
L 470.454545 -97.600669 
L 472.145455 -79.718159 
L 473.836364 -58.46159 
L 475.527273 -115.48318 
L 477.218182 -106.457573 
L 478.909091 -101.312134 
L 480.6 -128.051548 
L 482.290909 -95.660586 
L 483.981818 -85.032301 
L 485.672727 -56.605858 
L 487.363636 -58.630293 
L 489.054545 -55.762343 
L 490.745455 -97.600669 
L 492.436364 -60.148619 
L 494.127273 -62.51046 
L 495.818182 -95.070126 
L 497.509091 -45.134059 
L 499.2 -44.62795 
L 500.890909 -184.482678 
L 502.581818 -52.219582 
L 504.272727 -107.301088 
L 505.963636 -67.149791 
L 507.654545 -54.834477 
L 509.345455 -64.113138 
L 511.036364 -143.234812 
L 512.727273 -45.471464 
L 514.418182 -81.573891 
L 516.109091 -64.619247 
L 517.8 -53.231799 
L 519.490909 -47.917657 
L 521.181818 -46.821088 
L 522.872727 -70.776904 
L 524.563636 -46.061925 
L 526.254545 -46.483682 
L 527.945455 -46.483682 
L 529.636364 -85.707113 
L 531.327273 -183.048703 
L 533.018182 -148.211548 
L 534.709091 -106.626276 
L 536.4 -65.884519 
L 538.090909 -65.462762 
L 539.781818 -61.498243 
L 541.472727 -125.26795 
L 543.163636 -59.136402 
L 544.854545 -48.845523 
L 546.545455 -66.981088 
L 548.236364 -74.488368 
L 549.927273 -73.982259 
L 551.618182 -127.292385 
L 553.309091 -66.306276 
L 555 -51.376067 
L 556.690909 -108.482008 
L 558.381818 -60.739079 
L 560.072727 -169.130711 
L 561.763636 -48.255063 
L 563.454545 -76.3441 
L 565.145455 -51.797824 
L 566.836364 -100.721674 
L 568.527273 -87.141088 
L 570.218182 -54.328368 
L 571.909091 -78.452887 
L 573.6 -55.00318 
L 575.290909 -45.640167 
L 576.981818 -46.568033 
L 578.672727 -140.957322 
L 580.363636 -108.228954 
L 582.054545 -113.796151 
L 583.745455 -103.589623 
L 585.436364 -140.788619 
L 587.127273 -58.292887 
L 588.818182 -74.910126 
L 590.509091 -61.582594 
L 592.2 -120.459916 
L 593.890909 -60.064268 
L 595.581818 -141.041674 
L 597.272727 -106.204519 
L 598.963636 -55.677992 
L 600.654545 -53.906611 
L 602.345455 -54.328368 
L 604.036364 -143.487866 
L 605.727273 -44.543598 
L 607.418182 -46.905439 
L 609.109091 -55.171883 
L 610.8 -138.595481 
L 612.490909 -48.67682 
L 614.181818 -47.074142 
L 615.872727 -76.006695 
L 617.563636 -63.016569 
L 619.254545 -79.127699 
L 620.945455 -91.780418 
L 622.636364 -41.76 
L 622.636364 -41.928703 
L 622.636364 -41.928703 
L 620.945455 -161.707782 
L 619.254545 -164.660084 
L 617.563636 -114.302259 
L 615.872727 -93.973556 
L 614.181818 -62.426109 
L 612.490909 -68.583766 
L 610.8 -154.706611 
L 609.109091 -88.99682 
L 607.418182 -58.292887 
L 605.727273 -62.594812 
L 604.036364 -165.250544 
L 602.345455 -99.37205 
L 600.654545 -91.86477 
L 598.963636 -86.381925 
L 597.272727 -156.477992 
L 595.581818 -186.085356 
L 593.890909 -152.007364 
L 592.2 -173.09523 
L 590.509091 -101.902594 
L 588.818182 -115.567531 
L 587.127273 -108.56636 
L 585.436364 -202.786946 
L 583.745455 -222.60954 
L 582.054545 -222.440837 
L 580.363636 -216.704937 
L 578.672727 -180.180753 
L 576.981818 -84.779247 
L 575.290909 -73.138745 
L 573.6 -96.588452 
L 571.909091 -99.793808 
L 570.218182 -79.043347 
L 568.527273 -105.529707 
L 566.836364 -135.558828 
L 565.145455 -78.115481 
L 563.454545 -120.797322 
L 561.763636 -79.127699 
L 560.072727 -197.894561 
L 558.381818 -101.733891 
L 556.690909 -136.402343 
L 555 -64.956653 
L 553.309091 -91.527364 
L 551.618182 -167.359331 
L 549.927273 -136.739749 
L 548.236364 -108.903766 
L 546.545455 -100.890377 
L 544.854545 -86.044519 
L 543.163636 -119.700753 
L 541.472727 -203.714812 
L 539.781818 -118.688536 
L 538.090909 -133.028285 
L 536.4 -141.379079 
L 534.709091 -215.102259 
L 533.018182 -225.983598 
L 531.327273 -214.258745 
L 529.636364 -127.123682 
L 527.945455 -65.884519 
L 526.254545 -60.907782 
L 524.563636 -57.702427 
L 522.872727 -90.768201 
L 521.181818 -64.534895 
L 519.490909 -65.884519 
L 517.8 -82.417406 
L 516.109091 -105.529707 
L 514.418182 -95.407531 
L 512.727273 -54.41272 
L 511.036364 -161.286025 
L 509.345455 -95.238828 
L 507.654545 -89.334226 
L 505.963636 -129.148117 
L 504.272727 -219.74159 
L 502.581818 -138.679833 
L 500.890909 -241.419916 
L 499.2 -48.508117 
L 497.509091 -48.508117 
L 495.818182 -103.336569 
L 494.127273 -84.35749 
L 492.436364 -100.046862 
L 490.745455 -146.524519 
L 489.054545 -100.215565 
L 487.363636 -95.407531 
L 485.672727 -88.575063 
L 483.981818 -135.221423 
L 482.290909 -243.36 
L 480.6 -241.166862 
L 478.909091 -215.69272 
L 477.218182 -185.326192 
L 475.527273 -185.494895 
L 473.836364 -74.066611 
L 472.145455 -123.496569 
L 470.454545 -132.859582 
L 468.763636 -57.87113 
L 467.072727 -105.023598 
L 465.381818 -80.308619 
L 463.690909 -77.609372 
L 462 -121.640837 
L 460.309091 -113.036987 
L 458.618182 -83.007866 
L 456.927273 -70.608201 
L 455.236364 -92.539582 
L 453.545455 -207.763682 
L 451.854545 -103.167866 
L 450.163636 -105.445356 
L 448.472727 -174.191799 
L 446.781818 -124.255732 
L 445.090909 -50.701255 
L 443.4 -48.255063 
L 441.709091 -121.640837 
L 440.018182 -164.99749 
L 438.327273 -185.410544 
L 436.636364 -167.696736 
L 434.945455 -159.767699 
L 433.254545 -162.973054 
L 431.563636 -150.910795 
L 429.872727 -170.22728 
L 428.181818 -154.031799 
L 426.490909 -150.826444 
L 424.8 -91.611715 
L 423.109091 -123.074812 
L 421.418182 -166.515816 
L 419.727273 -189.459414 
L 418.036364 -93.383096 
L 416.345455 -80.561674 
L 414.654545 -75.922343 
L 412.963636 -61.835649 
L 411.272727 -67.824603 
L 409.581818 -85.369707 
L 407.890909 -135.64318 
L 406.2 -123.918326 
L 404.509091 -62.847866 
L 402.818182 -104.51749 
L 401.127273 -98.275481 
L 399.436364 -119.278996 
L 397.745455 -138.342427 
L 396.054545 -104.686192 
L 394.363636 -142.475649 
L 392.672727 -128.220251 
L 390.981818 -73.223096 
L 389.290909 -59.473808 
L 387.6 -59.979916 
L 385.909091 -117.423264 
L 384.218182 -109.409874 
L 382.527273 -113.290042 
L 380.836364 -177.650209 
L 379.145455 -136.908452 
L 377.454545 -117.338912 
L 375.763636 -88.912469 
L 374.072727 -135.474477 
L 372.381818 -103.505272 
L 370.690909 -132.100418 
L 369 -217.4641 
L 367.309091 -87.309791 
L 365.618182 -98.19113 
L 363.927273 -168.540251 
L 362.236364 -113.20569 
L 360.545455 -99.287699 
L 358.854545 -133.618745 
L 357.163636 -163.985272 
L 355.472727 -129.569874 
L 353.781818 -87.647197 
L 352.090909 -115.651883 
L 350.4 -155.381423 
L 348.709091 -103.420921 
L 347.018182 -94.901423 
L 345.327273 -94.648368 
L 343.636364 -131.088201 
L 341.945455 -85.369707 
L 340.254545 -85.622762 
L 338.563636 -127.376736 
L 336.872727 -144.415732 
L 335.181818 -79.043347 
L 333.490909 -73.729205 
L 331.8 -71.957824 
L 330.109091 -155.128368 
L 328.418182 -120.797322 
L 326.727273 -145.596653 
L 325.036364 -106.28887 
L 323.345455 -143.066109 
L 321.654545 -143.15046 
L 319.963636 -167.443682 
L 318.272727 -119.616402 
L 316.581818 -88.575063 
L 314.890909 -91.105607 
L 313.2 -184.651381 
L 311.509091 -111.856067 
L 309.818182 -105.276653 
L 308.127273 -106.120167 
L 306.436364 -99.878159 
L 304.745455 -123.327866 
L 303.054545 -95.32318 
L 301.363636 -119.700753 
L 299.672727 -87.900251 
L 297.981818 -82.248703 
L 296.290909 -68.83682 
L 294.6 -151.163849 
L 292.909091 -76.512803 
L 291.218182 -167.865439 
L 289.527273 -63.185272 
L 287.836364 -66.390628 
L 286.145455 -76.428452 
L 284.454545 -89.165523 
L 282.763636 -95.91364 
L 281.072727 -56.774561 
L 279.381818 -57.027615 
L 277.690909 -55.846695 
L 276 -140.029456 
L 274.309091 -162.72 
L 272.618182 -58.46159 
L 270.927273 -93.636151 
L 269.236364 -76.091046 
L 267.545455 -70.776904 
L 265.854545 -48.845523 
L 264.163636 -95.407531 
L 262.472727 -87.731548 
L 260.781818 -99.878159 
L 259.090909 -125.85841 
L 257.4 -186.760167 
L 255.709091 -205.401841 
L 254.018182 -202.786946 
L 252.327273 -195.279665 
L 250.636364 -135.896234 
L 248.945455 -195.110962 
L 247.254545 -96.419749 
L 245.563636 -81.995649 
L 243.872727 -61.835649 
L 242.181818 -141.210377 
L 240.490909 -49.942092 
L 238.8 -162.12954 
L 237.109091 -102.493054 
L 235.418182 -116.07364 
L 233.727273 -131.425607 
L 232.036364 -96.166695 
L 230.345455 -135.390126 
L 228.654545 -78.62159 
L 226.963636 -66.559331 
L 225.272727 -97.685021 
L 223.581818 -76.597155 
L 221.890909 -61.582594 
L 220.2 -67.149791 
L 218.509091 -53.484854 
L 216.818182 -150.404686 
L 215.127273 -147.368033 
L 213.436364 -119.025941 
L 211.745455 -111.265607 
L 210.054545 -169.63682 
L 208.363636 -97.178912 
L 206.672727 -112.530879 
L 204.981818 -136.317992 
L 203.290909 -182.036485 
L 201.6 -83.429623 
L 199.909091 -89.081172 
L 198.218182 -86.213222 
L 196.527273 -115.314477 
L 194.836364 -65.041004 
L 193.145455 -71.620418 
L 191.454545 -78.537238 
L 189.763636 -71.620418 
L 188.072727 -124.340084 
L 186.381818 -84.526192 
L 184.690909 -87.056736 
L 183 -90.936904 
L 181.309091 -185.74795 
L 179.618182 -150.910795 
L 177.927273 -150.06728 
L 176.236364 -154.453556 
L 174.545455 -220.33205 
L 172.854545 -146.60887 
L 171.163636 -148.548954 
L 169.472727 -148.548954 
L 167.781818 -208.691548 
L 166.090909 -148.2959 
L 164.4 -145.849707 
L 162.709091 -137.836318 
L 161.018182 -198.738075 
L 159.327273 -55.677992 
L 157.636364 -92.792636 
L 155.945455 -131.509958 
L 154.254545 -67.065439 
L 152.563636 -96.925858 
L 150.872727 -81.911297 
L 149.181818 -110.928201 
L 147.490909 -139.10159 
L 145.8 -139.270293 
L 144.109091 -137.498912 
L 142.418182 -227.586276 
L 140.727273 -138.848536 
L 139.036364 -155.718828 
L 137.345455 -169.04636 
L 135.654545 -238.720669 
L 133.963636 -175.457071 
L 132.272727 -180.096402 
L 130.581818 -190.724686 
L 128.890909 -209.619414 
L 127.2 -146.355816 
L 125.509091 -106.373222 
L 123.818182 -69.258577 
L 122.127273 -80.983431 
L 120.436364 -48.845523 
L 118.745455 -50.363849 
L 117.054545 -52.894393 
L 115.363636 -63.016569 
z
" style="stroke: #008000; stroke-width: 0.5"/>
    </defs>
    <g clip-path="url(#pa9192c05ce)">
     <use xlink:href="#m4409e33243" x="0" y="288" style="fill: #008000; stroke: #008000; stroke-width: 0.5"/>
    </g>
   </g>
   <g id="line2d_24">
    <path d="M 90 44.64 
L 648 44.64 
" clip-path="url(#pa9192c05ce)" style="fill: none; stroke: #000000; stroke-width: 1.5; stroke-linecap: square"/>
   </g>
   <g id="line2d_25">
    <path d="M 90 168.721004 
L 648 168.721004 
" clip-path="url(#pa9192c05ce)" style="fill: none; stroke: #000000; stroke-width: 1.5; stroke-linecap: square"/>
   </g>
   <g id="patch_3">
    <path d="M 90 256.32 
L 90 34.56 
" style="fill: none; stroke: #000000; stroke-width: 0.8; stroke-linejoin: miter; stroke-linecap: square"/>
   </g>
   <g id="patch_4">
    <path d="M 648 256.32 
L 648 34.56 
" style="fill: none; stroke: #000000; stroke-width: 0.8; stroke-linejoin: miter; stroke-linecap: square"/>
   </g>
   <g id="patch_5">
    <path d="M 90 256.32 
L 648 256.32 
" style="fill: none; stroke: #000000; stroke-width: 0.8; stroke-linejoin: miter; stroke-linecap: square"/>
   </g>
   <g id="patch_6">
    <path d="M 90 34.56 
L 648 34.56 
" style="fill: none; stroke: #000000; stroke-width: 0.8; stroke-linejoin: miter; stroke-linecap: square"/>
   </g>
   <g id="text_20">
    <!-- peak (2,390) -->
    <g transform="translate(122.179233 41.3136) scale(0.1 -0.1)">
     <defs>
      <path id="DejaVuSans-Bold-70" d="M 1656 506 
L 1656 -1331 
L 538 -1331 
L 538 3500 
L 1656 3500 
L 1656 2988 
Q 1888 3294 2169 3439 
Q 2450 3584 2816 3584 
Q 3463 3584 3878 3070 
Q 4294 2556 4294 1747 
Q 4294 938 3878 423 
Q 3463 -91 2816 -91 
Q 2450 -91 2169 54 
Q 1888 200 1656 506 
z
M 2400 2772 
Q 2041 2772 1848 2508 
Q 1656 2244 1656 1747 
Q 1656 1250 1848 986 
Q 2041 722 2400 722 
Q 2759 722 2948 984 
Q 3138 1247 3138 1747 
Q 3138 2247 2948 2509 
Q 2759 2772 2400 2772 
z
" transform="scale(0.015625)"/>
      <path id="DejaVuSans-Bold-65" d="M 4031 1759 
L 4031 1441 
L 1416 1441 
Q 1456 1047 1700 850 
Q 1944 653 2381 653 
Q 2734 653 3104 758 
Q 3475 863 3866 1075 
L 3866 213 
Q 3469 63 3072 -14 
Q 2675 -91 2278 -91 
Q 1328 -91 801 392 
Q 275 875 275 1747 
Q 275 2603 792 3093 
Q 1309 3584 2216 3584 
Q 3041 3584 3536 3087 
Q 4031 2591 4031 1759 
z
M 2881 2131 
Q 2881 2450 2695 2645 
Q 2509 2841 2209 2841 
Q 1884 2841 1681 2658 
Q 1478 2475 1428 2131 
L 2881 2131 
z
" transform="scale(0.015625)"/>
      <path id="DejaVuSans-Bold-61" d="M 2106 1575 
Q 1756 1575 1579 1456 
Q 1403 1338 1403 1106 
Q 1403 894 1545 773 
Q 1688 653 1941 653 
Q 2256 653 2472 879 
Q 2688 1106 2688 1447 
L 2688 1575 
L 2106 1575 
z
M 3816 1997 
L 3816 0 
L 2688 0 
L 2688 519 
Q 2463 200 2181 54 
Q 1900 -91 1497 -91 
Q 953 -91 614 226 
Q 275 544 275 1050 
Q 275 1666 698 1953 
Q 1122 2241 2028 2241 
L 2688 2241 
L 2688 2328 
Q 2688 2594 2478 2717 
Q 2269 2841 1825 2841 
Q 1466 2841 1156 2769 
Q 847 2697 581 2553 
L 581 3406 
Q 941 3494 1303 3539 
Q 1666 3584 2028 3584 
Q 2975 3584 3395 3211 
Q 3816 2838 3816 1997 
z
" transform="scale(0.015625)"/>
      <path id="DejaVuSans-Bold-6b" d="M 538 4863 
L 1656 4863 
L 1656 2216 
L 2944 3500 
L 4244 3500 
L 2534 1894 
L 4378 0 
L 3022 0 
L 1656 1459 
L 1656 0 
L 538 0 
L 538 4863 
z
" transform="scale(0.015625)"/>
      <path id="DejaVuSans-Bold-20" transform="scale(0.015625)"/>
      <path id="DejaVuSans-Bold-28" d="M 2413 -844 
L 1484 -844 
Q 1006 -72 778 623 
Q 550 1319 550 2003 
Q 550 2688 779 3389 
Q 1009 4091 1484 4856 
L 2413 4856 
Q 2013 4116 1813 3408 
Q 1613 2700 1613 2009 
Q 1613 1319 1811 609 
Q 2009 -100 2413 -844 
z
" transform="scale(0.015625)"/>
      <path id="DejaVuSans-Bold-32" d="M 1844 884 
L 3897 884 
L 3897 0 
L 506 0 
L 506 884 
L 2209 2388 
Q 2438 2594 2547 2791 
Q 2656 2988 2656 3200 
Q 2656 3528 2436 3728 
Q 2216 3928 1850 3928 
Q 1569 3928 1234 3808 
Q 900 3688 519 3450 
L 519 4475 
Q 925 4609 1322 4679 
Q 1719 4750 2100 4750 
Q 2938 4750 3402 4381 
Q 3866 4013 3866 3353 
Q 3866 2972 3669 2642 
Q 3472 2313 2841 1759 
L 1844 884 
z
" transform="scale(0.015625)"/>
      <path id="DejaVuSans-Bold-2c" d="M 653 1209 
L 1778 1209 
L 1778 256 
L 1006 -909 
L 341 -909 
L 653 256 
L 653 1209 
z
" transform="scale(0.015625)"/>
      <path id="DejaVuSans-Bold-33" d="M 2981 2516 
Q 3453 2394 3698 2092 
Q 3944 1791 3944 1325 
Q 3944 631 3412 270 
Q 2881 -91 1863 -91 
Q 1503 -91 1142 -33 
Q 781 25 428 141 
L 428 1069 
Q 766 900 1098 814 
Q 1431 728 1753 728 
Q 2231 728 2486 893 
Q 2741 1059 2741 1369 
Q 2741 1688 2480 1852 
Q 2219 2016 1709 2016 
L 1228 2016 
L 1228 2791 
L 1734 2791 
Q 2188 2791 2409 2933 
Q 2631 3075 2631 3366 
Q 2631 3634 2415 3781 
Q 2200 3928 1806 3928 
Q 1516 3928 1219 3862 
Q 922 3797 628 3669 
L 628 4550 
Q 984 4650 1334 4700 
Q 1684 4750 2022 4750 
Q 2931 4750 3382 4451 
Q 3834 4153 3834 3553 
Q 3834 3144 3618 2883 
Q 3403 2622 2981 2516 
z
" transform="scale(0.015625)"/>
      <path id="DejaVuSans-Bold-39" d="M 641 103 
L 641 966 
Q 928 831 1190 764 
Q 1453 697 1709 697 
Q 2247 697 2547 995 
Q 2847 1294 2900 1881 
Q 2688 1725 2447 1647 
Q 2206 1569 1925 1569 
Q 1209 1569 770 1986 
Q 331 2403 331 3084 
Q 331 3838 820 4291 
Q 1309 4744 2131 4744 
Q 3044 4744 3544 4128 
Q 4044 3513 4044 2388 
Q 4044 1231 3459 570 
Q 2875 -91 1856 -91 
Q 1528 -91 1228 -42 
Q 928 6 641 103 
z
M 2125 2350 
Q 2441 2350 2600 2554 
Q 2759 2759 2759 3169 
Q 2759 3575 2600 3781 
Q 2441 3988 2125 3988 
Q 1809 3988 1650 3781 
Q 1491 3575 1491 3169 
Q 1491 2759 1650 2554 
Q 1809 2350 2125 2350 
z
" transform="scale(0.015625)"/>
      <path id="DejaVuSans-Bold-30" d="M 2944 2338 
Q 2944 3213 2780 3570 
Q 2616 3928 2228 3928 
Q 1841 3928 1675 3570 
Q 1509 3213 1509 2338 
Q 1509 1453 1675 1090 
Q 1841 728 2228 728 
Q 2613 728 2778 1090 
Q 2944 1453 2944 2338 
z
M 4147 2328 
Q 4147 1169 3647 539 
Q 3147 -91 2228 -91 
Q 1306 -91 806 539 
Q 306 1169 306 2328 
Q 306 3491 806 4120 
Q 1306 4750 2228 4750 
Q 3147 4750 3647 4120 
Q 4147 3491 4147 2328 
z
" transform="scale(0.015625)"/>
      <path id="DejaVuSans-Bold-29" d="M 513 -844 
Q 913 -100 1113 609 
Q 1313 1319 1313 2009 
Q 1313 2700 1113 3408 
Q 913 4116 513 4856 
L 1441 4856 
Q 1916 4091 2145 3389 
Q 2375 2688 2375 2003 
Q 2375 1319 2147 623 
Q 1919 -72 1441 -844 
L 513 -844 
z
" transform="scale(0.015625)"/>
     </defs>
     <use xlink:href="#DejaVuSans-Bold-70"/>
     <use xlink:href="#DejaVuSans-Bold-65" x="71.582031"/>
     <use xlink:href="#DejaVuSans-Bold-61" x="139.404297"/>
     <use xlink:href="#DejaVuSans-Bold-6b" x="206.884766"/>
     <use xlink:href="#DejaVuSans-Bold-20" x="273.388672"/>
     <use xlink:href="#DejaVuSans-Bold-28" x="308.203125"/>
     <use xlink:href="#DejaVuSans-Bold-32" x="353.90625"/>
     <use xlink:href="#DejaVuSans-Bold-2c" x="423.486328"/>
     <use xlink:href="#DejaVuSans-Bold-33" x="461.474609"/>
     <use xlink:href="#DejaVuSans-Bold-39" x="531.054688"/>
     <use xlink:href="#DejaVuSans-Bold-30" x="600.634766"/>
     <use xlink:href="#DejaVuSans-Bold-29" x="670.214844"/>
    </g>
   </g>
   <g id="text_21">
    <!-- mean (919) -->
    <g transform="translate(573.106278 165.394604) scale(0.1 -0.1)">
     <defs>
      <path id="DejaVuSans-Bold-6d" d="M 3781 2919 
Q 3994 3244 4286 3414 
Q 4578 3584 4928 3584 
Q 5531 3584 5847 3212 
Q 6163 2841 6163 2131 
L 6163 0 
L 5038 0 
L 5038 1825 
Q 5041 1866 5042 1909 
Q 5044 1953 5044 2034 
Q 5044 2406 4934 2573 
Q 4825 2741 4581 2741 
Q 4263 2741 4089 2478 
Q 3916 2216 3909 1719 
L 3909 0 
L 2784 0 
L 2784 1825 
Q 2784 2406 2684 2573 
Q 2584 2741 2328 2741 
Q 2006 2741 1831 2477 
Q 1656 2213 1656 1722 
L 1656 0 
L 531 0 
L 531 3500 
L 1656 3500 
L 1656 2988 
Q 1863 3284 2130 3434 
Q 2397 3584 2719 3584 
Q 3081 3584 3359 3409 
Q 3638 3234 3781 2919 
z
" transform="scale(0.015625)"/>
      <path id="DejaVuSans-Bold-6e" d="M 4056 2131 
L 4056 0 
L 2931 0 
L 2931 347 
L 2931 1631 
Q 2931 2084 2911 2256 
Q 2891 2428 2841 2509 
Q 2775 2619 2662 2680 
Q 2550 2741 2406 2741 
Q 2056 2741 1856 2470 
Q 1656 2200 1656 1722 
L 1656 0 
L 538 0 
L 538 3500 
L 1656 3500 
L 1656 2988 
Q 1909 3294 2193 3439 
Q 2478 3584 2822 3584 
Q 3428 3584 3742 3212 
Q 4056 2841 4056 2131 
z
" transform="scale(0.015625)"/>
      <path id="DejaVuSans-Bold-31" d="M 750 831 
L 1813 831 
L 1813 3847 
L 722 3622 
L 722 4441 
L 1806 4666 
L 2950 4666 
L 2950 831 
L 4013 831 
L 4013 0 
L 750 0 
L 750 831 
z
" transform="scale(0.015625)"/>
     </defs>
     <use xlink:href="#DejaVuSans-Bold-6d"/>
     <use xlink:href="#DejaVuSans-Bold-65" x="104.199219"/>
     <use xlink:href="#DejaVuSans-Bold-61" x="172.021484"/>
     <use xlink:href="#DejaVuSans-Bold-6e" x="239.501953"/>
     <use xlink:href="#DejaVuSans-Bold-20" x="310.693359"/>
     <use xlink:href="#DejaVuSans-Bold-28" x="345.507812"/>
     <use xlink:href="#DejaVuSans-Bold-39" x="391.210938"/>
     <use xlink:href="#DejaVuSans-Bold-31" x="460.791016"/>
     <use xlink:href="#DejaVuSans-Bold-39" x="530.371094"/>
     <use xlink:href="#DejaVuSans-Bold-29" x="599.951172"/>
    </g>
   </g>
   <g id="text_22">
    <!-- Stream Bitrate over Time -->
    <g transform="translate(293.189062 28.56) scale(0.12 -0.12)">
     <defs>
      <path id="DejaVuSans-53" d="M 3425 4513 
L 3425 3897 
Q 3066 4069 2747 4153 
Q 2428 4238 2131 4238 
Q 1616 4238 1336 4038 
Q 1056 3838 1056 3469 
Q 1056 3159 1242 3001 
Q 1428 2844 1947 2747 
L 2328 2669 
Q 3034 2534 3370 2195 
Q 3706 1856 3706 1288 
Q 3706 609 3251 259 
Q 2797 -91 1919 -91 
Q 1588 -91 1214 -16 
Q 841 59 441 206 
L 441 856 
Q 825 641 1194 531 
Q 1563 422 1919 422 
Q 2459 422 2753 634 
Q 3047 847 3047 1241 
Q 3047 1584 2836 1778 
Q 2625 1972 2144 2069 
L 1759 2144 
Q 1053 2284 737 2584 
Q 422 2884 422 3419 
Q 422 4038 858 4394 
Q 1294 4750 2059 4750 
Q 2388 4750 2728 4690 
Q 3069 4631 3425 4513 
z
" transform="scale(0.015625)"/>
      <path id="DejaVuSans-6f" d="M 1959 3097 
Q 1497 3097 1228 2736 
Q 959 2375 959 1747 
Q 959 1119 1226 758 
Q 1494 397 1959 397 
Q 2419 397 2687 759 
Q 2956 1122 2956 1747 
Q 2956 2369 2687 2733 
Q 2419 3097 1959 3097 
z
M 1959 3584 
Q 2709 3584 3137 3096 
Q 3566 2609 3566 1747 
Q 3566 888 3137 398 
Q 2709 -91 1959 -91 
Q 1206 -91 779 398 
Q 353 888 353 1747 
Q 353 2609 779 3096 
Q 1206 3584 1959 3584 
z
" transform="scale(0.015625)"/>
      <path id="DejaVuSans-76" d="M 191 3500 
L 800 3500 
L 1894 563 
L 2988 3500 
L 3597 3500 
L 2284 0 
L 1503 0 
L 191 3500 
z
" transform="scale(0.015625)"/>
     </defs>
     <use xlink:href="#DejaVuSans-53"/>
     <use xlink:href="#DejaVuSans-74" x="63.476562"/>
     <use xlink:href="#DejaVuSans-72" x="102.685547"/>
     <use xlink:href="#DejaVuSans-65" x="141.548828"/>
     <use xlink:href="#DejaVuSans-61" x="203.072266"/>
     <use xlink:href="#DejaVuSans-6d" x="264.351562"/>
     <use xlink:href="#DejaVuSans-20" x="361.763672"/>
     <use xlink:href="#DejaVuSans-42" x="393.550781"/>
     <use xlink:href="#DejaVuSans-69" x="462.154297"/>
     <use xlink:href="#DejaVuSans-74" x="489.9375"/>
     <use xlink:href="#DejaVuSans-72" x="529.146484"/>
     <use xlink:href="#DejaVuSans-61" x="570.259766"/>
     <use xlink:href="#DejaVuSans-74" x="631.539062"/>
     <use xlink:href="#DejaVuSans-65" x="670.748047"/>
     <use xlink:href="#DejaVuSans-20" x="732.271484"/>
     <use xlink:href="#DejaVuSans-6f" x="764.058594"/>
     <use xlink:href="#DejaVuSans-76" x="825.240234"/>
     <use xlink:href="#DejaVuSans-65" x="884.419922"/>
     <use xlink:href="#DejaVuSans-72" x="945.943359"/>
     <use xlink:href="#DejaVuSans-20" x="987.056641"/>
     <use xlink:href="#DejaVuSans-54" x="1018.84375"/>
     <use xlink:href="#DejaVuSans-69" x="1076.802734"/>
     <use xlink:href="#DejaVuSans-6d" x="1104.585938"/>
     <use xlink:href="#DejaVuSans-65" x="1201.998047"/>
    </g>
   </g>
   <g id="legend_1">
    <g id="patch_7">
     <path d="M 602.139063 86.594375 
L 641 86.594375 
Q 643 86.594375 643 84.594375 
L 643 41.56 
Q 643 39.56 641 39.56 
L 602.139063 39.56 
Q 600.139063 39.56 600.139063 41.56 
L 600.139063 84.594375 
Q 600.139063 86.594375 602.139063 86.594375 
z
" style="fill: #ffffff; opacity: 0.8; stroke: #cccccc; stroke-linejoin: miter"/>
    </g>
    <g id="patch_8">
     <path d="M 604.139063 51.158438 
L 624.139063 51.158438 
L 624.139063 44.158438 
L 604.139063 44.158438 
z
" style="fill: #ff0000; stroke: #ff0000; stroke-width: 0.5; stroke-linejoin: miter"/>
    </g>
    <g id="text_23">
     <!-- I -->
     <g transform="translate(632.139063 51.158438) scale(0.1 -0.1)">
      <defs>
       <path id="DejaVuSans-49" d="M 628 4666 
L 1259 4666 
L 1259 0 
L 628 0 
L 628 4666 
z
" transform="scale(0.015625)"/>
      </defs>
      <use xlink:href="#DejaVuSans-49"/>
     </g>
    </g>
    <g id="patch_9">
     <path d="M 604.139063 65.836563 
L 624.139063 65.836563 
L 624.139063 58.836563 
L 604.139063 58.836563 
z
" style="fill: #0000ff; stroke: #0000ff; stroke-width: 0.5; stroke-linejoin: miter"/>
    </g>
    <g id="text_24">
     <!-- B -->
     <g transform="translate(632.139063 65.836563) scale(0.1 -0.1)">
      <use xlink:href="#DejaVuSans-42"/>
     </g>
    </g>
    <g id="patch_10">
     <path d="M 604.139063 80.514688 
L 624.139063 80.514688 
L 624.139063 73.514688 
L 604.139063 73.514688 
z
" style="fill: #008000; stroke: #008000; stroke-width: 0.5; stroke-linejoin: miter"/>
    </g>
    <g id="text_25">
     <!-- P -->
     <g transform="translate(632.139063 80.514688) scale(0.1 -0.1)">
      <defs>
       <path id="DejaVuSans-50" d="M 1259 4147 
L 1259 2394 
L 2053 2394 
Q 2494 2394 2734 2622 
Q 2975 2850 2975 3272 
Q 2975 3691 2734 3919 
Q 2494 4147 2053 4147 
L 1259 4147 
z
M 628 4666 
L 2053 4666 
Q 2838 4666 3239 4311 
Q 3641 3956 3641 3272 
Q 3641 2581 3239 2228 
Q 2838 1875 2053 1875 
L 1259 1875 
L 1259 0 
L 628 0 
L 628 4666 
z
" transform="scale(0.015625)"/>
      </defs>
      <use xlink:href="#DejaVuSans-50"/>
     </g>
    </g>
   </g>
  </g>
 </g>
 <defs>
  <clipPath id="pa9192c05ce">
   <rect x="90" y="34.56" width="558" height="221.76"/>
  </clipPath>
 </defs>
</svg>
