<?xml version="1.0" encoding="utf-8" standalone="no"?>
<!DOCTYPE svg PUBLIC "-//W3C//DTD SVG 1.1//EN"
  "http://www.w3.org/Graphics/SVG/1.1/DTD/svg11.dtd">
<svg xmlns:xlink="http://www.w3.org/1999/xlink" width="720pt" height="288pt" viewBox="0 0 720 288" xmlns="http://www.w3.org/2000/svg" version="1.1">
 <metadata>
  <rdf:RDF xmlns:dc="http://purl.org/dc/elements/1.1/" xmlns:cc="http://creativecommons.org/ns#" xmlns:rdf="http://www.w3.org/1999/02/22-rdf-syntax-ns#">
   <cc:Work>
    <dc:type rdf:resource="http://purl.org/dc/dcmitype/StillImage"/>
    <dc:date>2023-05-07T02:05:39.596395</dc:date>
    <dc:format>image/svg+xml</dc:format>
    <dc:creator>
     <cc:Agent>
      <dc:title>Matplotlib v3.7.1, https://matplotlib.org/</dc:title>
     </cc:Agent>
    </dc:creator>
   </cc:Work>
  </rdf:RDF>
 </metadata>
 <defs>
  <style type="text/css">*{stroke-linejoin: round; stroke-linecap: butt}</style>
 </defs>
 <g id="figure_1">
  <g id="patch_1">
   <path d="M 0 288 
L 720 288 
L 720 0 
L 0 0 
z
" style="fill: #ffffff"/>
  </g>
  <g id="axes_1">
   <g id="patch_2">
    <path d="M 90 256.32 
L 648 256.32 
L 648 34.56 
L 90 34.56 
z
" style="fill: #ffffff"/>
   </g>
   <g id="matplotlib.axis_1">
    <g id="xtick_1">
     <g id="line2d_1">
      <defs>
       <path id="m511b22032d" d="M 0 0 
L 0 3.5 
" style="stroke: #000000; stroke-width: 0.8"/>
      </defs>
      <g>
       <use xlink:href="#m511b22032d" x="115.363636" y="256.32" style="stroke: #000000; stroke-width: 0.8"/>
      </g>
     </g>
     <g id="text_1">
      <!-- 0:00:00 -->
      <g transform="translate(96.088636 270.918437) scale(0.1 -0.1)">
       <defs>
        <path id="DejaVuSans-30" d="M 2034 4250 
Q 1547 4250 1301 3770 
Q 1056 3291 1056 2328 
Q 1056 1369 1301 889 
Q 1547 409 2034 409 
Q 2525 409 2770 889 
Q 3016 1369 3016 2328 
Q 3016 3291 2770 3770 
Q 2525 4250 2034 4250 
z
M 2034 4750 
Q 2819 4750 3233 4129 
Q 3647 3509 3647 2328 
Q 3647 1150 3233 529 
Q 2819 -91 2034 -91 
Q 1250 -91 836 529 
Q 422 1150 422 2328 
Q 422 3509 836 4129 
Q 1250 4750 2034 4750 
z
" transform="scale(0.015625)"/>
        <path id="DejaVuSans-3a" d="M 750 794 
L 1409 794 
L 1409 0 
L 750 0 
L 750 794 
z
M 750 3309 
L 1409 3309 
L 1409 2516 
L 750 2516 
L 750 3309 
z
" transform="scale(0.015625)"/>
       </defs>
       <use xlink:href="#DejaVuSans-30"/>
       <use xlink:href="#DejaVuSans-3a" x="63.623047"/>
       <use xlink:href="#DejaVuSans-30" x="97.314453"/>
       <use xlink:href="#DejaVuSans-30" x="160.9375"/>
       <use xlink:href="#DejaVuSans-3a" x="224.560547"/>
       <use xlink:href="#DejaVuSans-30" x="258.251953"/>
       <use xlink:href="#DejaVuSans-30" x="321.875"/>
      </g>
     </g>
    </g>
    <g id="xtick_2">
     <g id="line2d_2">
      <g>
       <use xlink:href="#m511b22032d" x="166.090909" y="256.32" style="stroke: #000000; stroke-width: 0.8"/>
      </g>
     </g>
     <g id="text_2">
      <!-- 0:00:30 -->
      <g transform="translate(146.815909 270.918437) scale(0.1 -0.1)">
       <defs>
        <path id="DejaVuSans-33" d="M 2597 2516 
Q 3050 2419 3304 2112 
Q 3559 1806 3559 1356 
Q 3559 666 3084 287 
Q 2609 -91 1734 -91 
Q 1441 -91 1130 -33 
Q 819 25 488 141 
L 488 750 
Q 750 597 1062 519 
Q 1375 441 1716 441 
Q 2309 441 2620 675 
Q 2931 909 2931 1356 
Q 2931 1769 2642 2001 
Q 2353 2234 1838 2234 
L 1294 2234 
L 1294 2753 
L 1863 2753 
Q 2328 2753 2575 2939 
Q 2822 3125 2822 3475 
Q 2822 3834 2567 4026 
Q 2313 4219 1838 4219 
Q 1578 4219 1281 4162 
Q 984 4106 628 3988 
L 628 4550 
Q 988 4650 1302 4700 
Q 1616 4750 1894 4750 
Q 2613 4750 3031 4423 
Q 3450 4097 3450 3541 
Q 3450 3153 3228 2886 
Q 3006 2619 2597 2516 
z
" transform="scale(0.015625)"/>
       </defs>
       <use xlink:href="#DejaVuSans-30"/>
       <use xlink:href="#DejaVuSans-3a" x="63.623047"/>
       <use xlink:href="#DejaVuSans-30" x="97.314453"/>
       <use xlink:href="#DejaVuSans-30" x="160.9375"/>
       <use xlink:href="#DejaVuSans-3a" x="224.560547"/>
       <use xlink:href="#DejaVuSans-33" x="258.251953"/>
       <use xlink:href="#DejaVuSans-30" x="321.875"/>
      </g>
     </g>
    </g>
    <g id="xtick_3">
     <g id="line2d_3">
      <g>
       <use xlink:href="#m511b22032d" x="216.818182" y="256.32" style="stroke: #000000; stroke-width: 0.8"/>
      </g>
     </g>
     <g id="text_3">
      <!-- 0:01:00 -->
      <g transform="translate(197.543182 270.918437) scale(0.1 -0.1)">
       <defs>
        <path id="DejaVuSans-31" d="M 794 531 
L 1825 531 
L 1825 4091 
L 703 3866 
L 703 4441 
L 1819 4666 
L 2450 4666 
L 2450 531 
L 3481 531 
L 3481 0 
L 794 0 
L 794 531 
z
" transform="scale(0.015625)"/>
       </defs>
       <use xlink:href="#DejaVuSans-30"/>
       <use xlink:href="#DejaVuSans-3a" x="63.623047"/>
       <use xlink:href="#DejaVuSans-30" x="97.314453"/>
       <use xlink:href="#DejaVuSans-31" x="160.9375"/>
       <use xlink:href="#DejaVuSans-3a" x="224.560547"/>
       <use xlink:href="#DejaVuSans-30" x="258.251953"/>
       <use xlink:href="#DejaVuSans-30" x="321.875"/>
      </g>
     </g>
    </g>
    <g id="xtick_4">
     <g id="line2d_4">
      <g>
       <use xlink:href="#m511b22032d" x="267.545455" y="256.32" style="stroke: #000000; stroke-width: 0.8"/>
      </g>
     </g>
     <g id="text_4">
      <!-- 0:01:30 -->
      <g transform="translate(248.270455 270.918437) scale(0.1 -0.1)">
       <use xlink:href="#DejaVuSans-30"/>
       <use xlink:href="#DejaVuSans-3a" x="63.623047"/>
       <use xlink:href="#DejaVuSans-30" x="97.314453"/>
       <use xlink:href="#DejaVuSans-31" x="160.9375"/>
       <use xlink:href="#DejaVuSans-3a" x="224.560547"/>
       <use xlink:href="#DejaVuSans-33" x="258.251953"/>
       <use xlink:href="#DejaVuSans-30" x="321.875"/>
      </g>
     </g>
    </g>
    <g id="xtick_5">
     <g id="line2d_5">
      <g>
       <use xlink:href="#m511b22032d" x="318.272727" y="256.32" style="stroke: #000000; stroke-width: 0.8"/>
      </g>
     </g>
     <g id="text_5">
      <!-- 0:02:00 -->
      <g transform="translate(298.997727 270.918437) scale(0.1 -0.1)">
       <defs>
        <path id="DejaVuSans-32" d="M 1228 531 
L 3431 531 
L 3431 0 
L 469 0 
L 469 531 
Q 828 903 1448 1529 
Q 2069 2156 2228 2338 
Q 2531 2678 2651 2914 
Q 2772 3150 2772 3378 
Q 2772 3750 2511 3984 
Q 2250 4219 1831 4219 
Q 1534 4219 1204 4116 
Q 875 4013 500 3803 
L 500 4441 
Q 881 4594 1212 4672 
Q 1544 4750 1819 4750 
Q 2544 4750 2975 4387 
Q 3406 4025 3406 3419 
Q 3406 3131 3298 2873 
Q 3191 2616 2906 2266 
Q 2828 2175 2409 1742 
Q 1991 1309 1228 531 
z
" transform="scale(0.015625)"/>
       </defs>
       <use xlink:href="#DejaVuSans-30"/>
       <use xlink:href="#DejaVuSans-3a" x="63.623047"/>
       <use xlink:href="#DejaVuSans-30" x="97.314453"/>
       <use xlink:href="#DejaVuSans-32" x="160.9375"/>
       <use xlink:href="#DejaVuSans-3a" x="224.560547"/>
       <use xlink:href="#DejaVuSans-30" x="258.251953"/>
       <use xlink:href="#DejaVuSans-30" x="321.875"/>
      </g>
     </g>
    </g>
    <g id="xtick_6">
     <g id="line2d_6">
      <g>
       <use xlink:href="#m511b22032d" x="369" y="256.32" style="stroke: #000000; stroke-width: 0.8"/>
      </g>
     </g>
     <g id="text_6">
      <!-- 0:02:30 -->
      <g transform="translate(349.725 270.918437) scale(0.1 -0.1)">
       <use xlink:href="#DejaVuSans-30"/>
       <use xlink:href="#DejaVuSans-3a" x="63.623047"/>
       <use xlink:href="#DejaVuSans-30" x="97.314453"/>
       <use xlink:href="#DejaVuSans-32" x="160.9375"/>
       <use xlink:href="#DejaVuSans-3a" x="224.560547"/>
       <use xlink:href="#DejaVuSans-33" x="258.251953"/>
       <use xlink:href="#DejaVuSans-30" x="321.875"/>
      </g>
     </g>
    </g>
    <g id="xtick_7">
     <g id="line2d_7">
      <g>
       <use xlink:href="#m511b22032d" x="419.727273" y="256.32" style="stroke: #000000; stroke-width: 0.8"/>
      </g>
     </g>
     <g id="text_7">
      <!-- 0:03:00 -->
      <g transform="translate(400.452273 270.918437) scale(0.1 -0.1)">
       <use xlink:href="#DejaVuSans-30"/>
       <use xlink:href="#DejaVuSans-3a" x="63.623047"/>
       <use xlink:href="#DejaVuSans-30" x="97.314453"/>
       <use xlink:href="#DejaVuSans-33" x="160.9375"/>
       <use xlink:href="#DejaVuSans-3a" x="224.560547"/>
       <use xlink:href="#DejaVuSans-30" x="258.251953"/>
       <use xlink:href="#DejaVuSans-30" x="321.875"/>
      </g>
     </g>
    </g>
    <g id="xtick_8">
     <g id="line2d_8">
      <g>
       <use xlink:href="#m511b22032d" x="470.454545" y="256.32" style="stroke: #000000; stroke-width: 0.8"/>
      </g>
     </g>
     <g id="text_8">
      <!-- 0:03:30 -->
      <g transform="translate(451.179545 270.918437) scale(0.1 -0.1)">
       <use xlink:href="#DejaVuSans-30"/>
       <use xlink:href="#DejaVuSans-3a" x="63.623047"/>
       <use xlink:href="#DejaVuSans-30" x="97.314453"/>
       <use xlink:href="#DejaVuSans-33" x="160.9375"/>
       <use xlink:href="#DejaVuSans-3a" x="224.560547"/>
       <use xlink:href="#DejaVuSans-33" x="258.251953"/>
       <use xlink:href="#DejaVuSans-30" x="321.875"/>
      </g>
     </g>
    </g>
    <g id="xtick_9">
     <g id="line2d_9">
      <g>
       <use xlink:href="#m511b22032d" x="521.181818" y="256.32" style="stroke: #000000; stroke-width: 0.8"/>
      </g>
     </g>
     <g id="text_9">
      <!-- 0:04:00 -->
      <g transform="translate(501.906818 270.918437) scale(0.1 -0.1)">
       <defs>
        <path id="DejaVuSans-34" d="M 2419 4116 
L 825 1625 
L 2419 1625 
L 2419 4116 
z
M 2253 4666 
L 3047 4666 
L 3047 1625 
L 3713 1625 
L 3713 1100 
L 3047 1100 
L 3047 0 
L 2419 0 
L 2419 1100 
L 313 1100 
L 313 1709 
L 2253 4666 
z
" transform="scale(0.015625)"/>
       </defs>
       <use xlink:href="#DejaVuSans-30"/>
       <use xlink:href="#DejaVuSans-3a" x="63.623047"/>
       <use xlink:href="#DejaVuSans-30" x="97.314453"/>
       <use xlink:href="#DejaVuSans-34" x="160.9375"/>
       <use xlink:href="#DejaVuSans-3a" x="224.560547"/>
       <use xlink:href="#DejaVuSans-30" x="258.251953"/>
       <use xlink:href="#DejaVuSans-30" x="321.875"/>
      </g>
     </g>
    </g>
    <g id="xtick_10">
     <g id="line2d_10">
      <g>
       <use xlink:href="#m511b22032d" x="571.909091" y="256.32" style="stroke: #000000; stroke-width: 0.8"/>
      </g>
     </g>
     <g id="text_10">
      <!-- 0:04:30 -->
      <g transform="translate(552.634091 270.918437) scale(0.1 -0.1)">
       <use xlink:href="#DejaVuSans-30"/>
       <use xlink:href="#DejaVuSans-3a" x="63.623047"/>
       <use xlink:href="#DejaVuSans-30" x="97.314453"/>
       <use xlink:href="#DejaVuSans-34" x="160.9375"/>
       <use xlink:href="#DejaVuSans-3a" x="224.560547"/>
       <use xlink:href="#DejaVuSans-33" x="258.251953"/>
       <use xlink:href="#DejaVuSans-30" x="321.875"/>
      </g>
     </g>
    </g>
    <g id="xtick_11">
     <g id="line2d_11">
      <g>
       <use xlink:href="#m511b22032d" x="622.636364" y="256.32" style="stroke: #000000; stroke-width: 0.8"/>
      </g>
     </g>
     <g id="text_11">
      <!-- 0:05:00 -->
      <g transform="translate(603.361364 270.918437) scale(0.1 -0.1)">
       <defs>
        <path id="DejaVuSans-35" d="M 691 4666 
L 3169 4666 
L 3169 4134 
L 1269 4134 
L 1269 2991 
Q 1406 3038 1543 3061 
Q 1681 3084 1819 3084 
Q 2600 3084 3056 2656 
Q 3513 2228 3513 1497 
Q 3513 744 3044 326 
Q 2575 -91 1722 -91 
Q 1428 -91 1123 -41 
Q 819 9 494 109 
L 494 744 
Q 775 591 1075 516 
Q 1375 441 1709 441 
Q 2250 441 2565 725 
Q 2881 1009 2881 1497 
Q 2881 1984 2565 2268 
Q 2250 2553 1709 2553 
Q 1456 2553 1204 2497 
Q 953 2441 691 2322 
L 691 4666 
z
" transform="scale(0.015625)"/>
       </defs>
       <use xlink:href="#DejaVuSans-30"/>
       <use xlink:href="#DejaVuSans-3a" x="63.623047"/>
       <use xlink:href="#DejaVuSans-30" x="97.314453"/>
       <use xlink:href="#DejaVuSans-35" x="160.9375"/>
       <use xlink:href="#DejaVuSans-3a" x="224.560547"/>
       <use xlink:href="#DejaVuSans-30" x="258.251953"/>
       <use xlink:href="#DejaVuSans-30" x="321.875"/>
      </g>
     </g>
    </g>
    <g id="text_12">
     <!-- Time -->
     <g transform="translate(356.766406 284.596563) scale(0.1 -0.1)">
      <defs>
       <path id="DejaVuSans-54" d="M -19 4666 
L 3928 4666 
L 3928 4134 
L 2272 4134 
L 2272 0 
L 1638 0 
L 1638 4134 
L -19 4134 
L -19 4666 
z
" transform="scale(0.015625)"/>
       <path id="DejaVuSans-69" d="M 603 3500 
L 1178 3500 
L 1178 0 
L 603 0 
L 603 3500 
z
M 603 4863 
L 1178 4863 
L 1178 4134 
L 603 4134 
L 603 4863 
z
" transform="scale(0.015625)"/>
       <path id="DejaVuSans-6d" d="M 3328 2828 
Q 3544 3216 3844 3400 
Q 4144 3584 4550 3584 
Q 5097 3584 5394 3201 
Q 5691 2819 5691 2113 
L 5691 0 
L 5113 0 
L 5113 2094 
Q 5113 2597 4934 2840 
Q 4756 3084 4391 3084 
Q 3944 3084 3684 2787 
Q 3425 2491 3425 1978 
L 3425 0 
L 2847 0 
L 2847 2094 
Q 2847 2600 2669 2842 
Q 2491 3084 2119 3084 
Q 1678 3084 1418 2786 
Q 1159 2488 1159 1978 
L 1159 0 
L 581 0 
L 581 3500 
L 1159 3500 
L 1159 2956 
Q 1356 3278 1631 3431 
Q 1906 3584 2284 3584 
Q 2666 3584 2933 3390 
Q 3200 3197 3328 2828 
z
" transform="scale(0.015625)"/>
       <path id="DejaVuSans-65" d="M 3597 1894 
L 3597 1613 
L 953 1613 
Q 991 1019 1311 708 
Q 1631 397 2203 397 
Q 2534 397 2845 478 
Q 3156 559 3463 722 
L 3463 178 
Q 3153 47 2828 -22 
Q 2503 -91 2169 -91 
Q 1331 -91 842 396 
Q 353 884 353 1716 
Q 353 2575 817 3079 
Q 1281 3584 2069 3584 
Q 2775 3584 3186 3129 
Q 3597 2675 3597 1894 
z
M 3022 2063 
Q 3016 2534 2758 2815 
Q 2500 3097 2075 3097 
Q 1594 3097 1305 2825 
Q 1016 2553 972 2059 
L 3022 2063 
z
" transform="scale(0.015625)"/>
      </defs>
      <use xlink:href="#DejaVuSans-54"/>
      <use xlink:href="#DejaVuSans-69" x="57.958984"/>
      <use xlink:href="#DejaVuSans-6d" x="85.742188"/>
      <use xlink:href="#DejaVuSans-65" x="183.154297"/>
     </g>
    </g>
   </g>
   <g id="matplotlib.axis_2">
    <g id="ytick_1">
     <g id="line2d_12">
      <path d="M 90 246.24 
L 648 246.24 
" clip-path="url(#p44bee285a4)" style="fill: none; stroke: #b0b0b0; stroke-width: 0.8; stroke-linecap: square"/>
     </g>
     <g id="line2d_13">
      <defs>
       <path id="m50a52c4236" d="M 0 0 
L -3.5 0 
" style="stroke: #000000; stroke-width: 0.8"/>
      </defs>
      <g>
       <use xlink:href="#m50a52c4236" x="90" y="246.24" style="stroke: #000000; stroke-width: 0.8"/>
      </g>
     </g>
     <g id="text_13">
      <!-- 0 -->
      <g transform="translate(76.6375 250.039219) scale(0.1 -0.1)">
       <use xlink:href="#DejaVuSans-30"/>
      </g>
     </g>
    </g>
    <g id="ytick_2">
     <g id="line2d_14">
      <path d="M 90 221.184072 
L 648 221.184072 
" clip-path="url(#p44bee285a4)" style="fill: none; stroke: #b0b0b0; stroke-width: 0.8; stroke-linecap: square"/>
     </g>
     <g id="line2d_15">
      <g>
       <use xlink:href="#m50a52c4236" x="90" y="221.184072" style="stroke: #000000; stroke-width: 0.8"/>
      </g>
     </g>
     <g id="text_14">
      <!-- 500 -->
      <g transform="translate(63.9125 224.98329) scale(0.1 -0.1)">
       <use xlink:href="#DejaVuSans-35"/>
       <use xlink:href="#DejaVuSans-30" x="63.623047"/>
       <use xlink:href="#DejaVuSans-30" x="127.246094"/>
      </g>
     </g>
    </g>
    <g id="ytick_3">
     <g id="line2d_16">
      <path d="M 90 196.128143 
L 648 196.128143 
" clip-path="url(#p44bee285a4)" style="fill: none; stroke: #b0b0b0; stroke-width: 0.8; stroke-linecap: square"/>
     </g>
     <g id="line2d_17">
      <g>
       <use xlink:href="#m50a52c4236" x="90" y="196.128143" style="stroke: #000000; stroke-width: 0.8"/>
      </g>
     </g>
     <g id="text_15">
      <!-- 1,000 -->
      <g transform="translate(54.371875 199.927362) scale(0.1 -0.1)">
       <defs>
        <path id="DejaVuSans-2c" d="M 750 794 
L 1409 794 
L 1409 256 
L 897 -744 
L 494 -744 
L 750 256 
L 750 794 
z
" transform="scale(0.015625)"/>
       </defs>
       <use xlink:href="#DejaVuSans-31"/>
       <use xlink:href="#DejaVuSans-2c" x="63.623047"/>
       <use xlink:href="#DejaVuSans-30" x="95.410156"/>
       <use xlink:href="#DejaVuSans-30" x="159.033203"/>
       <use xlink:href="#DejaVuSans-30" x="222.65625"/>
      </g>
     </g>
    </g>
    <g id="ytick_4">
     <g id="line2d_18">
      <path d="M 90 171.072215 
L 648 171.072215 
" clip-path="url(#p44bee285a4)" style="fill: none; stroke: #b0b0b0; stroke-width: 0.8; stroke-linecap: square"/>
     </g>
     <g id="line2d_19">
      <g>
       <use xlink:href="#m50a52c4236" x="90" y="171.072215" style="stroke: #000000; stroke-width: 0.8"/>
      </g>
     </g>
     <g id="text_16">
      <!-- 1,500 -->
      <g transform="translate(54.371875 174.871434) scale(0.1 -0.1)">
       <use xlink:href="#DejaVuSans-31"/>
       <use xlink:href="#DejaVuSans-2c" x="63.623047"/>
       <use xlink:href="#DejaVuSans-35" x="95.410156"/>
       <use xlink:href="#DejaVuSans-30" x="159.033203"/>
       <use xlink:href="#DejaVuSans-30" x="222.65625"/>
      </g>
     </g>
    </g>
    <g id="ytick_5">
     <g id="line2d_20">
      <path d="M 90 146.016286 
L 648 146.016286 
" clip-path="url(#p44bee285a4)" style="fill: none; stroke: #b0b0b0; stroke-width: 0.8; stroke-linecap: square"/>
     </g>
     <g id="line2d_21">
      <g>
       <use xlink:href="#m50a52c4236" x="90" y="146.016286" style="stroke: #000000; stroke-width: 0.8"/>
      </g>
     </g>
     <g id="text_17">
      <!-- 2,000 -->
      <g transform="translate(54.371875 149.815505) scale(0.1 -0.1)">
       <use xlink:href="#DejaVuSans-32"/>
       <use xlink:href="#DejaVuSans-2c" x="63.623047"/>
       <use xlink:href="#DejaVuSans-30" x="95.410156"/>
       <use xlink:href="#DejaVuSans-30" x="159.033203"/>
       <use xlink:href="#DejaVuSans-30" x="222.65625"/>
      </g>
     </g>
    </g>
    <g id="ytick_6">
     <g id="line2d_22">
      <path d="M 90 120.960358 
L 648 120.960358 
" clip-path="url(#p44bee285a4)" style="fill: none; stroke: #b0b0b0; stroke-width: 0.8; stroke-linecap: square"/>
     </g>
     <g id="line2d_23">
      <g>
       <use xlink:href="#m50a52c4236" x="90" y="120.960358" style="stroke: #000000; stroke-width: 0.8"/>
      </g>
     </g>
     <g id="text_18">
      <!-- 2,500 -->
      <g transform="translate(54.371875 124.759577) scale(0.1 -0.1)">
       <use xlink:href="#DejaVuSans-32"/>
       <use xlink:href="#DejaVuSans-2c" x="63.623047"/>
       <use xlink:href="#DejaVuSans-35" x="95.410156"/>
       <use xlink:href="#DejaVuSans-30" x="159.033203"/>
       <use xlink:href="#DejaVuSans-30" x="222.65625"/>
      </g>
     </g>
    </g>
    <g id="ytick_7">
     <g id="line2d_24">
      <path d="M 90 95.90443 
L 648 95.90443 
" clip-path="url(#p44bee285a4)" style="fill: none; stroke: #b0b0b0; stroke-width: 0.8; stroke-linecap: square"/>
     </g>
     <g id="line2d_25">
      <g>
       <use xlink:href="#m50a52c4236" x="90" y="95.90443" style="stroke: #000000; stroke-width: 0.8"/>
      </g>
     </g>
     <g id="text_19">
      <!-- 3,000 -->
      <g transform="translate(54.371875 99.703648) scale(0.1 -0.1)">
       <use xlink:href="#DejaVuSans-33"/>
       <use xlink:href="#DejaVuSans-2c" x="63.623047"/>
       <use xlink:href="#DejaVuSans-30" x="95.410156"/>
       <use xlink:href="#DejaVuSans-30" x="159.033203"/>
       <use xlink:href="#DejaVuSans-30" x="222.65625"/>
      </g>
     </g>
    </g>
    <g id="ytick_8">
     <g id="line2d_26">
      <path d="M 90 70.848501 
L 648 70.848501 
" clip-path="url(#p44bee285a4)" style="fill: none; stroke: #b0b0b0; stroke-width: 0.8; stroke-linecap: square"/>
     </g>
     <g id="line2d_27">
      <g>
       <use xlink:href="#m50a52c4236" x="90" y="70.848501" style="stroke: #000000; stroke-width: 0.8"/>
      </g>
     </g>
     <g id="text_20">
      <!-- 3,500 -->
      <g transform="translate(54.371875 74.64772) scale(0.1 -0.1)">
       <use xlink:href="#DejaVuSans-33"/>
       <use xlink:href="#DejaVuSans-2c" x="63.623047"/>
       <use xlink:href="#DejaVuSans-35" x="95.410156"/>
       <use xlink:href="#DejaVuSans-30" x="159.033203"/>
       <use xlink:href="#DejaVuSans-30" x="222.65625"/>
      </g>
     </g>
    </g>
    <g id="ytick_9">
     <g id="line2d_28">
      <path d="M 90 45.792573 
L 648 45.792573 
" clip-path="url(#p44bee285a4)" style="fill: none; stroke: #b0b0b0; stroke-width: 0.8; stroke-linecap: square"/>
     </g>
     <g id="line2d_29">
      <g>
       <use xlink:href="#m50a52c4236" x="90" y="45.792573" style="stroke: #000000; stroke-width: 0.8"/>
      </g>
     </g>
     <g id="text_21">
      <!-- 4,000 -->
      <g transform="translate(54.371875 49.591791) scale(0.1 -0.1)">
       <use xlink:href="#DejaVuSans-34"/>
       <use xlink:href="#DejaVuSans-2c" x="63.623047"/>
       <use xlink:href="#DejaVuSans-30" x="95.410156"/>
       <use xlink:href="#DejaVuSans-30" x="159.033203"/>
       <use xlink:href="#DejaVuSans-30" x="222.65625"/>
      </g>
     </g>
    </g>
    <g id="text_22">
     <!-- Bitrate (kbit/s) -->
     <g transform="translate(48.292187 181.574375) rotate(-90) scale(0.1 -0.1)">
      <defs>
       <path id="DejaVuSans-42" d="M 1259 2228 
L 1259 519 
L 2272 519 
Q 2781 519 3026 730 
Q 3272 941 3272 1375 
Q 3272 1813 3026 2020 
Q 2781 2228 2272 2228 
L 1259 2228 
z
M 1259 4147 
L 1259 2741 
L 2194 2741 
Q 2656 2741 2882 2914 
Q 3109 3088 3109 3444 
Q 3109 3797 2882 3972 
Q 2656 4147 2194 4147 
L 1259 4147 
z
M 628 4666 
L 2241 4666 
Q 2963 4666 3353 4366 
Q 3744 4066 3744 3513 
Q 3744 3084 3544 2831 
Q 3344 2578 2956 2516 
Q 3422 2416 3680 2098 
Q 3938 1781 3938 1306 
Q 3938 681 3513 340 
Q 3088 0 2303 0 
L 628 0 
L 628 4666 
z
" transform="scale(0.015625)"/>
       <path id="DejaVuSans-74" d="M 1172 4494 
L 1172 3500 
L 2356 3500 
L 2356 3053 
L 1172 3053 
L 1172 1153 
Q 1172 725 1289 603 
Q 1406 481 1766 481 
L 2356 481 
L 2356 0 
L 1766 0 
Q 1100 0 847 248 
Q 594 497 594 1153 
L 594 3053 
L 172 3053 
L 172 3500 
L 594 3500 
L 594 4494 
L 1172 4494 
z
" transform="scale(0.015625)"/>
       <path id="DejaVuSans-72" d="M 2631 2963 
Q 2534 3019 2420 3045 
Q 2306 3072 2169 3072 
Q 1681 3072 1420 2755 
Q 1159 2438 1159 1844 
L 1159 0 
L 581 0 
L 581 3500 
L 1159 3500 
L 1159 2956 
Q 1341 3275 1631 3429 
Q 1922 3584 2338 3584 
Q 2397 3584 2469 3576 
Q 2541 3569 2628 3553 
L 2631 2963 
z
" transform="scale(0.015625)"/>
       <path id="DejaVuSans-61" d="M 2194 1759 
Q 1497 1759 1228 1600 
Q 959 1441 959 1056 
Q 959 750 1161 570 
Q 1363 391 1709 391 
Q 2188 391 2477 730 
Q 2766 1069 2766 1631 
L 2766 1759 
L 2194 1759 
z
M 3341 1997 
L 3341 0 
L 2766 0 
L 2766 531 
Q 2569 213 2275 61 
Q 1981 -91 1556 -91 
Q 1019 -91 701 211 
Q 384 513 384 1019 
Q 384 1609 779 1909 
Q 1175 2209 1959 2209 
L 2766 2209 
L 2766 2266 
Q 2766 2663 2505 2880 
Q 2244 3097 1772 3097 
Q 1472 3097 1187 3025 
Q 903 2953 641 2809 
L 641 3341 
Q 956 3463 1253 3523 
Q 1550 3584 1831 3584 
Q 2591 3584 2966 3190 
Q 3341 2797 3341 1997 
z
" transform="scale(0.015625)"/>
       <path id="DejaVuSans-20" transform="scale(0.015625)"/>
       <path id="DejaVuSans-28" d="M 1984 4856 
Q 1566 4138 1362 3434 
Q 1159 2731 1159 2009 
Q 1159 1288 1364 580 
Q 1569 -128 1984 -844 
L 1484 -844 
Q 1016 -109 783 600 
Q 550 1309 550 2009 
Q 550 2706 781 3412 
Q 1013 4119 1484 4856 
L 1984 4856 
z
" transform="scale(0.015625)"/>
       <path id="DejaVuSans-6b" d="M 581 4863 
L 1159 4863 
L 1159 1991 
L 2875 3500 
L 3609 3500 
L 1753 1863 
L 3688 0 
L 2938 0 
L 1159 1709 
L 1159 0 
L 581 0 
L 581 4863 
z
" transform="scale(0.015625)"/>
       <path id="DejaVuSans-62" d="M 3116 1747 
Q 3116 2381 2855 2742 
Q 2594 3103 2138 3103 
Q 1681 3103 1420 2742 
Q 1159 2381 1159 1747 
Q 1159 1113 1420 752 
Q 1681 391 2138 391 
Q 2594 391 2855 752 
Q 3116 1113 3116 1747 
z
M 1159 2969 
Q 1341 3281 1617 3432 
Q 1894 3584 2278 3584 
Q 2916 3584 3314 3078 
Q 3713 2572 3713 1747 
Q 3713 922 3314 415 
Q 2916 -91 2278 -91 
Q 1894 -91 1617 61 
Q 1341 213 1159 525 
L 1159 0 
L 581 0 
L 581 4863 
L 1159 4863 
L 1159 2969 
z
" transform="scale(0.015625)"/>
       <path id="DejaVuSans-2f" d="M 1625 4666 
L 2156 4666 
L 531 -594 
L 0 -594 
L 1625 4666 
z
" transform="scale(0.015625)"/>
       <path id="DejaVuSans-73" d="M 2834 3397 
L 2834 2853 
Q 2591 2978 2328 3040 
Q 2066 3103 1784 3103 
Q 1356 3103 1142 2972 
Q 928 2841 928 2578 
Q 928 2378 1081 2264 
Q 1234 2150 1697 2047 
L 1894 2003 
Q 2506 1872 2764 1633 
Q 3022 1394 3022 966 
Q 3022 478 2636 193 
Q 2250 -91 1575 -91 
Q 1294 -91 989 -36 
Q 684 19 347 128 
L 347 722 
Q 666 556 975 473 
Q 1284 391 1588 391 
Q 1994 391 2212 530 
Q 2431 669 2431 922 
Q 2431 1156 2273 1281 
Q 2116 1406 1581 1522 
L 1381 1569 
Q 847 1681 609 1914 
Q 372 2147 372 2553 
Q 372 3047 722 3315 
Q 1072 3584 1716 3584 
Q 2034 3584 2315 3537 
Q 2597 3491 2834 3397 
z
" transform="scale(0.015625)"/>
       <path id="DejaVuSans-29" d="M 513 4856 
L 1013 4856 
Q 1481 4119 1714 3412 
Q 1947 2706 1947 2009 
Q 1947 1309 1714 600 
Q 1481 -109 1013 -844 
L 513 -844 
Q 928 -128 1133 580 
Q 1338 1288 1338 2009 
Q 1338 2731 1133 3434 
Q 928 4138 513 4856 
z
" transform="scale(0.015625)"/>
      </defs>
      <use xlink:href="#DejaVuSans-42"/>
      <use xlink:href="#DejaVuSans-69" x="68.603516"/>
      <use xlink:href="#DejaVuSans-74" x="96.386719"/>
      <use xlink:href="#DejaVuSans-72" x="135.595703"/>
      <use xlink:href="#DejaVuSans-61" x="176.708984"/>
      <use xlink:href="#DejaVuSans-74" x="237.988281"/>
      <use xlink:href="#DejaVuSans-65" x="277.197266"/>
      <use xlink:href="#DejaVuSans-20" x="338.720703"/>
      <use xlink:href="#DejaVuSans-28" x="370.507812"/>
      <use xlink:href="#DejaVuSans-6b" x="409.521484"/>
      <use xlink:href="#DejaVuSans-62" x="467.431641"/>
      <use xlink:href="#DejaVuSans-69" x="530.908203"/>
      <use xlink:href="#DejaVuSans-74" x="558.691406"/>
      <use xlink:href="#DejaVuSans-2f" x="597.900391"/>
      <use xlink:href="#DejaVuSans-73" x="631.591797"/>
      <use xlink:href="#DejaVuSans-29" x="683.691406"/>
     </g>
    </g>
   </g>
   <g id="PolyCollection_1">
    <defs>
     <path id="mace59d30c6" d="M 115.363636 -42.762237 
L 115.363636 -41.76 
L 117.054545 -41.76 
L 118.745455 -41.76 
L 120.436364 -41.76 
L 122.127273 -41.76 
L 123.818182 -41.76 
L 125.509091 -41.76 
L 127.2 -41.76 
L 128.890909 -41.76 
L 130.581818 -41.76 
L 132.272727 -41.76 
L 133.963636 -41.76 
L 135.654545 -41.76 
L 137.345455 -41.76 
L 139.036364 -41.76 
L 140.727273 -41.76 
L 142.418182 -41.76 
L 144.109091 -41.76 
L 145.8 -41.76 
L 147.490909 -41.76 
L 149.181818 -41.76 
L 150.872727 -41.76 
L 152.563636 -41.76 
L 154.254545 -41.76 
L 155.945455 -41.76 
L 157.636364 -41.76 
L 159.327273 -41.76 
L 161.018182 -41.76 
L 162.709091 -41.76 
L 164.4 -41.76 
L 166.090909 -41.76 
L 167.781818 -41.76 
L 169.472727 -41.76 
L 171.163636 -41.76 
L 172.854545 -41.76 
L 174.545455 -41.76 
L 176.236364 -41.76 
L 177.927273 -41.76 
L 179.618182 -41.76 
L 181.309091 -41.76 
L 183 -41.76 
L 184.690909 -41.76 
L 186.381818 -41.76 
L 188.072727 -41.76 
L 189.763636 -41.76 
L 191.454545 -41.76 
L 193.145455 -41.76 
L 194.836364 -41.76 
L 196.527273 -41.76 
L 198.218182 -41.76 
L 199.909091 -41.76 
L 201.6 -41.76 
L 203.290909 -41.76 
L 204.981818 -41.76 
L 206.672727 -41.76 
L 208.363636 -41.76 
L 210.054545 -41.76 
L 211.745455 -41.76 
L 213.436364 -41.76 
L 215.127273 -41.76 
L 216.818182 -41.76 
L 218.509091 -41.76 
L 220.2 -41.76 
L 221.890909 -41.76 
L 223.581818 -41.76 
L 225.272727 -41.76 
L 226.963636 -41.76 
L 228.654545 -41.76 
L 230.345455 -41.76 
L 232.036364 -41.76 
L 233.727273 -41.76 
L 235.418182 -41.76 
L 237.109091 -41.76 
L 238.8 -41.76 
L 240.490909 -41.76 
L 242.181818 -41.76 
L 243.872727 -41.76 
L 245.563636 -41.76 
L 247.254545 -41.76 
L 248.945455 -41.76 
L 250.636364 -41.76 
L 252.327273 -41.76 
L 254.018182 -41.76 
L 255.709091 -41.76 
L 257.4 -41.76 
L 259.090909 -41.76 
L 260.781818 -41.76 
L 262.472727 -41.76 
L 264.163636 -41.76 
L 265.854545 -41.76 
L 267.545455 -41.76 
L 269.236364 -41.76 
L 270.927273 -41.76 
L 272.618182 -41.76 
L 274.309091 -41.76 
L 276 -41.76 
L 277.690909 -41.76 
L 279.381818 -41.76 
L 281.072727 -41.76 
L 282.763636 -41.76 
L 284.454545 -41.76 
L 286.145455 -41.76 
L 287.836364 -41.76 
L 289.527273 -41.76 
L 291.218182 -41.76 
L 292.909091 -41.76 
L 294.6 -41.76 
L 296.290909 -41.76 
L 297.981818 -41.76 
L 299.672727 -41.76 
L 301.363636 -41.76 
L 303.054545 -41.76 
L 304.745455 -41.76 
L 306.436364 -41.76 
L 308.127273 -41.76 
L 309.818182 -41.76 
L 311.509091 -41.76 
L 313.2 -41.76 
L 314.890909 -41.76 
L 316.581818 -41.76 
L 318.272727 -41.76 
L 319.963636 -41.76 
L 321.654545 -41.76 
L 323.345455 -41.76 
L 325.036364 -41.76 
L 326.727273 -41.76 
L 328.418182 -41.76 
L 330.109091 -41.76 
L 331.8 -41.76 
L 333.490909 -41.76 
L 335.181818 -41.76 
L 336.872727 -41.76 
L 338.563636 -41.76 
L 340.254545 -41.76 
L 341.945455 -41.76 
L 343.636364 -41.76 
L 345.327273 -41.76 
L 347.018182 -41.76 
L 348.709091 -41.76 
L 350.4 -41.76 
L 352.090909 -41.76 
L 353.781818 -41.76 
L 355.472727 -41.76 
L 357.163636 -41.76 
L 358.854545 -41.76 
L 360.545455 -41.76 
L 362.236364 -41.76 
L 363.927273 -41.76 
L 365.618182 -41.76 
L 367.309091 -41.76 
L 369 -41.76 
L 370.690909 -41.76 
L 372.381818 -41.76 
L 374.072727 -41.76 
L 375.763636 -41.76 
L 377.454545 -41.76 
L 379.145455 -41.76 
L 380.836364 -41.76 
L 382.527273 -41.76 
L 384.218182 -41.76 
L 385.909091 -41.76 
L 387.6 -41.76 
L 389.290909 -41.76 
L 390.981818 -41.76 
L 392.672727 -41.76 
L 394.363636 -41.76 
L 396.054545 -41.76 
L 397.745455 -41.76 
L 399.436364 -41.76 
L 401.127273 -41.76 
L 402.818182 -41.76 
L 404.509091 -41.76 
L 406.2 -41.76 
L 407.890909 -41.76 
L 409.581818 -41.76 
L 411.272727 -41.76 
L 412.963636 -41.76 
L 414.654545 -41.76 
L 416.345455 -41.76 
L 418.036364 -41.76 
L 419.727273 -41.76 
L 421.418182 -41.76 
L 423.109091 -41.76 
L 424.8 -41.76 
L 426.490909 -41.76 
L 428.181818 -41.76 
L 429.872727 -41.76 
L 431.563636 -41.76 
L 433.254545 -41.76 
L 434.945455 -41.76 
L 436.636364 -41.76 
L 438.327273 -41.76 
L 440.018182 -41.76 
L 441.709091 -41.76 
L 443.4 -41.76 
L 445.090909 -41.76 
L 446.781818 -41.76 
L 448.472727 -41.76 
L 450.163636 -41.76 
L 451.854545 -41.76 
L 453.545455 -41.76 
L 455.236364 -41.76 
L 456.927273 -41.76 
L 458.618182 -41.76 
L 460.309091 -41.76 
L 462 -41.76 
L 463.690909 -41.76 
L 465.381818 -41.76 
L 467.072727 -41.76 
L 468.763636 -41.76 
L 470.454545 -41.76 
L 472.145455 -41.76 
L 473.836364 -41.76 
L 475.527273 -41.76 
L 477.218182 -41.76 
L 478.909091 -41.76 
L 480.6 -41.76 
L 482.290909 -41.76 
L 483.981818 -41.76 
L 485.672727 -41.76 
L 487.363636 -41.76 
L 489.054545 -41.76 
L 490.745455 -41.76 
L 492.436364 -41.76 
L 494.127273 -41.76 
L 495.818182 -41.76 
L 497.509091 -41.76 
L 499.2 -41.76 
L 500.890909 -41.76 
L 502.581818 -41.76 
L 504.272727 -41.76 
L 505.963636 -41.76 
L 507.654545 -41.76 
L 509.345455 -41.76 
L 511.036364 -41.76 
L 512.727273 -41.76 
L 514.418182 -41.76 
L 516.109091 -41.76 
L 517.8 -41.76 
L 519.490909 -41.76 
L 521.181818 -41.76 
L 522.872727 -41.76 
L 524.563636 -41.76 
L 526.254545 -41.76 
L 527.945455 -41.76 
L 529.636364 -41.76 
L 531.327273 -41.76 
L 533.018182 -41.76 
L 534.709091 -41.76 
L 536.4 -41.76 
L 538.090909 -41.76 
L 539.781818 -41.76 
L 541.472727 -41.76 
L 543.163636 -41.76 
L 544.854545 -41.76 
L 546.545455 -41.76 
L 548.236364 -41.76 
L 549.927273 -41.76 
L 551.618182 -41.76 
L 553.309091 -41.76 
L 555 -41.76 
L 556.690909 -41.76 
L 558.381818 -41.76 
L 560.072727 -41.76 
L 561.763636 -41.76 
L 563.454545 -41.76 
L 565.145455 -41.76 
L 566.836364 -41.76 
L 568.527273 -41.76 
L 570.218182 -41.76 
L 571.909091 -41.76 
L 573.6 -41.76 
L 575.290909 -41.76 
L 576.981818 -41.76 
L 578.672727 -41.76 
L 580.363636 -41.76 
L 582.054545 -41.76 
L 583.745455 -41.76 
L 585.436364 -41.76 
L 587.127273 -41.76 
L 588.818182 -41.76 
L 590.509091 -41.76 
L 592.2 -41.76 
L 593.890909 -41.76 
L 595.581818 -41.76 
L 597.272727 -41.76 
L 598.963636 -41.76 
L 600.654545 -41.76 
L 602.345455 -41.76 
L 604.036364 -41.76 
L 605.727273 -41.76 
L 607.418182 -41.76 
L 609.109091 -41.76 
L 610.8 -41.76 
L 612.490909 -41.76 
L 614.181818 -41.76 
L 615.872727 -41.76 
L 617.563636 -41.76 
L 619.254545 -41.76 
L 620.945455 -41.76 
L 622.636364 -41.76 
L 622.636364 -41.76 
L 622.636364 -41.76 
L 620.945455 -58.647696 
L 619.254545 -41.76 
L 617.563636 -41.76 
L 615.872727 -61.153289 
L 614.181818 -41.76 
L 612.490909 -41.76 
L 610.8 -111.365369 
L 609.109091 -41.76 
L 607.418182 -41.76 
L 605.727273 -41.76 
L 604.036364 -117.378792 
L 602.345455 -41.76 
L 600.654545 -41.76 
L 598.963636 -41.76 
L 597.272727 -64.861566 
L 595.581818 -88.113468 
L 593.890909 -41.76 
L 592.2 -93.174765 
L 590.509091 -41.76 
L 588.818182 -55.79132 
L 587.127273 -41.76 
L 585.436364 -108.40877 
L 583.745455 -41.76 
L 582.054545 -41.76 
L 580.363636 -41.76 
L 578.672727 -103.147025 
L 576.981818 -41.76 
L 575.290909 -41.76 
L 573.6 -41.76 
L 571.909091 -65.062013 
L 570.218182 -41.76 
L 568.527273 -72.52868 
L 566.836364 -73.631141 
L 565.145455 -41.76 
L 563.454545 -56.091991 
L 561.763636 -41.76 
L 560.072727 -131.560447 
L 558.381818 -41.76 
L 556.690909 -82.50094 
L 555 -41.76 
L 553.309091 -53.135391 
L 551.618182 -97.283937 
L 549.927273 -41.76 
L 548.236364 -51.982819 
L 546.545455 -53.686622 
L 544.854545 -41.76 
L 543.163636 -41.76 
L 541.472727 -63.708993 
L 539.781818 -41.76 
L 538.090909 -41.76 
L 536.4 -41.76 
L 534.709091 -41.76 
L 533.018182 -105.051275 
L 531.327273 -134.767606 
L 529.636364 -59.85038 
L 527.945455 -41.76 
L 526.254545 -41.76 
L 524.563636 -41.76 
L 522.872727 -60.65217 
L 521.181818 -41.76 
L 519.490909 -41.76 
L 517.8 -41.76 
L 516.109091 -41.76 
L 514.418182 -63.308098 
L 512.727273 -41.76 
L 511.036364 -122.690649 
L 509.345455 -41.76 
L 507.654545 -41.76 
L 505.963636 -41.76 
L 504.272727 -62.907204 
L 502.581818 -41.76 
L 500.890909 -144.338971 
L 499.2 -41.76 
L 497.509091 -41.76 
L 495.818182 -80.997584 
L 494.127273 -50.579687 
L 492.436364 -41.76 
L 490.745455 -62.205638 
L 489.054545 -41.76 
L 487.363636 -41.76 
L 485.672727 -41.76 
L 483.981818 -64.059776 
L 482.290909 -41.76 
L 480.6 -63.909441 
L 478.909091 -41.76 
L 477.218182 -41.76 
L 475.527273 -61.654407 
L 473.836364 -41.76 
L 472.145455 -57.745682 
L 470.454545 -65.462908 
L 468.763636 -41.76 
L 467.072727 -76.938523 
L 465.381818 -41.76 
L 463.690909 -41.76 
L 462 -41.76 
L 460.309091 -64.911678 
L 458.618182 -41.76 
L 456.927273 -41.76 
L 455.236364 -56.34255 
L 453.545455 -55.741208 
L 451.854545 -52.233378 
L 450.163636 -41.76 
L 448.472727 -41.76 
L 446.781818 -52.884832 
L 445.090909 -41.76 
L 443.4 -41.76 
L 441.709091 -80.89736 
L 440.018182 -41.76 
L 438.327273 -41.76 
L 436.636364 -46.821298 
L 434.945455 -68.920626 
L 433.254545 -41.76 
L 431.563636 -41.76 
L 429.872727 -41.76 
L 428.181818 -41.76 
L 426.490909 -77.990872 
L 424.8 -41.76 
L 423.109091 -72.729128 
L 421.418182 -41.76 
L 419.727273 -80.646801 
L 418.036364 -41.76 
L 416.345455 -52.28349 
L 414.654545 -41.76 
L 412.963636 -41.76 
L 411.272727 -41.76 
L 409.581818 -41.76 
L 407.890909 -52.032931 
L 406.2 -82.450828 
L 404.509091 -41.76 
L 402.818182 -55.79132 
L 401.127273 -41.76 
L 399.436364 -41.76 
L 397.745455 -82.300492 
L 396.054545 -52.985056 
L 394.363636 -82.601163 
L 392.672727 -88.915257 
L 390.981818 -41.76 
L 389.290909 -41.76 
L 387.6 -41.76 
L 385.909091 -93.274989 
L 384.218182 -41.76 
L 382.527273 -41.76 
L 380.836364 -76.637852 
L 379.145455 -41.76 
L 377.454545 -41.76 
L 375.763636 -41.76 
L 374.072727 -80.245906 
L 372.381818 -41.76 
L 370.690909 -41.76 
L 369 -175.909441 
L 367.309091 -41.76 
L 365.618182 -41.76 
L 363.927273 -66.665593 
L 362.236364 -41.76 
L 360.545455 -41.76 
L 358.854545 -41.76 
L 357.163636 -76.58774 
L 355.472727 -41.76 
L 353.781818 -41.76 
L 352.090909 -41.76 
L 350.4 -76.387293 
L 348.709091 -41.76 
L 347.018182 -41.76 
L 345.327273 -41.76 
L 343.636364 -73.029799 
L 341.945455 -41.76 
L 340.254545 -41.76 
L 338.563636 -41.76 
L 336.872727 -75.435168 
L 335.181818 -41.76 
L 333.490909 -41.76 
L 331.8 -41.76 
L 330.109091 -74.583266 
L 328.418182 -41.76 
L 326.727273 -66.815928 
L 325.036364 -41.76 
L 323.345455 -41.76 
L 321.654545 -82.651275 
L 319.963636 -94.277226 
L 318.272727 -41.76 
L 316.581818 -41.76 
L 314.890909 -41.76 
L 313.2 -106.80519 
L 311.509091 -49.878121 
L 309.818182 -41.76 
L 308.127273 -41.76 
L 306.436364 -41.76 
L 304.745455 -53.335839 
L 303.054545 -41.76 
L 301.363636 -41.76 
L 299.672727 -41.76 
L 297.981818 -53.385951 
L 296.290909 -41.76 
L 294.6 -41.76 
L 292.909091 -41.76 
L 291.218182 -128.553736 
L 289.527273 -41.76 
L 287.836364 -41.76 
L 286.145455 -41.76 
L 284.454545 -41.76 
L 282.763636 -68.068725 
L 281.072727 -41.76 
L 279.381818 -41.76 
L 277.690909 -41.76 
L 276 -74.934049 
L 274.309091 -86.409664 
L 272.618182 -41.76 
L 270.927273 -70.925101 
L 269.236364 -41.76 
L 267.545455 -41.76 
L 265.854545 -41.76 
L 264.163636 -67.768054 
L 262.472727 -41.76 
L 260.781818 -41.76 
L 259.090909 -41.76 
L 257.4 -81.498702 
L 255.709091 -41.76 
L 254.018182 -41.76 
L 252.327273 -41.76 
L 250.636364 -41.76 
L 248.945455 -85.407427 
L 247.254545 -41.76 
L 245.563636 -55.390425 
L 243.872727 -41.76 
L 242.181818 -116.827562 
L 240.490909 -41.76 
L 238.8 -76.738076 
L 237.109091 -52.483937 
L 235.418182 -41.76 
L 233.727273 -41.76 
L 232.036364 -41.76 
L 230.345455 -96.732707 
L 228.654545 -41.76 
L 226.963636 -41.76 
L 225.272727 -59.800268 
L 223.581818 -59.700045 
L 221.890909 -41.76 
L 220.2 -41.76 
L 218.509091 -41.76 
L 216.818182 -86.910783 
L 215.127273 -41.76 
L 213.436364 -41.76 
L 211.745455 -41.76 
L 210.054545 -98.937629 
L 208.363636 -41.76 
L 206.672727 -41.76 
L 204.981818 -41.76 
L 203.290909 -112.117047 
L 201.6 -41.76 
L 199.909091 -41.76 
L 198.218182 -41.76 
L 196.527273 -78.091096 
L 194.836364 -41.76 
L 193.145455 -41.76 
L 191.454545 -41.76 
L 189.763636 -41.76 
L 188.072727 -81.097808 
L 186.381818 -41.76 
L 184.690909 -41.76 
L 183 -41.76 
L 181.309091 -98.636957 
L 179.618182 -41.76 
L 177.927273 -41.76 
L 176.236364 -41.76 
L 174.545455 -110.413244 
L 172.854545 -41.76 
L 171.163636 -41.76 
L 169.472727 -41.76 
L 167.781818 -105.351946 
L 166.090909 -41.76 
L 164.4 -41.76 
L 162.709091 -41.76 
L 161.018182 -134.166264 
L 159.327273 -41.76 
L 157.636364 -41.76 
L 155.945455 -57.94613 
L 154.254545 -41.76 
L 152.563636 -41.76 
L 150.872727 -41.76 
L 149.181818 -61.704519 
L 147.490909 -41.76 
L 145.8 -41.76 
L 144.109091 -41.76 
L 142.418182 -124.945682 
L 140.727273 -41.76 
L 139.036364 -41.76 
L 137.345455 -41.76 
L 135.654545 -111.365369 
L 133.963636 -41.76 
L 132.272727 -41.76 
L 130.581818 -41.76 
L 128.890909 -71.376107 
L 127.2 -41.76 
L 125.509091 -41.76 
L 123.818182 -41.76 
L 122.127273 -43.163132 
L 120.436364 -41.76 
L 118.745455 -41.76 
L 117.054545 -41.76 
L 115.363636 -42.762237 
z
" style="stroke: #ff0000; stroke-width: 0.5"/>
    </defs>
    <g clip-path="url(#p44bee285a4)">
     <use xlink:href="#mace59d30c6" x="0" y="288" style="fill: #ff0000; stroke: #ff0000; stroke-width: 0.5"/>
    </g>
   </g>
   <g id="PolyCollection_2">
    <defs>
     <path id="ma6abb91349" d="M 115.363636 -47.873647 
L 115.363636 -42.762237 
L 117.054545 -41.76 
L 118.745455 -41.76 
L 120.436364 -41.76 
L 122.127273 -43.163132 
L 123.818182 -41.76 
L 125.509091 -41.76 
L 127.2 -41.76 
L 128.890909 -71.376107 
L 130.581818 -41.76 
L 132.272727 -41.76 
L 133.963636 -41.76 
L 135.654545 -111.365369 
L 137.345455 -41.76 
L 139.036364 -41.76 
L 140.727273 -41.76 
L 142.418182 -124.945682 
L 144.109091 -41.76 
L 145.8 -41.76 
L 147.490909 -41.76 
L 149.181818 -61.704519 
L 150.872727 -41.76 
L 152.563636 -41.76 
L 154.254545 -41.76 
L 155.945455 -57.94613 
L 157.636364 -41.76 
L 159.327273 -41.76 
L 161.018182 -134.166264 
L 162.709091 -41.76 
L 164.4 -41.76 
L 166.090909 -41.76 
L 167.781818 -105.351946 
L 169.472727 -41.76 
L 171.163636 -41.76 
L 172.854545 -41.76 
L 174.545455 -110.413244 
L 176.236364 -41.76 
L 177.927273 -41.76 
L 179.618182 -41.76 
L 181.309091 -98.636957 
L 183 -41.76 
L 184.690909 -41.76 
L 186.381818 -41.76 
L 188.072727 -81.097808 
L 189.763636 -41.76 
L 191.454545 -41.76 
L 193.145455 -41.76 
L 194.836364 -41.76 
L 196.527273 -78.091096 
L 198.218182 -41.76 
L 199.909091 -41.76 
L 201.6 -41.76 
L 203.290909 -112.117047 
L 204.981818 -41.76 
L 206.672727 -41.76 
L 208.363636 -41.76 
L 210.054545 -98.937629 
L 211.745455 -41.76 
L 213.436364 -41.76 
L 215.127273 -41.76 
L 216.818182 -86.910783 
L 218.509091 -41.76 
L 220.2 -41.76 
L 221.890909 -41.76 
L 223.581818 -59.700045 
L 225.272727 -59.800268 
L 226.963636 -41.76 
L 228.654545 -41.76 
L 230.345455 -96.732707 
L 232.036364 -41.76 
L 233.727273 -41.76 
L 235.418182 -41.76 
L 237.109091 -52.483937 
L 238.8 -76.738076 
L 240.490909 -41.76 
L 242.181818 -116.827562 
L 243.872727 -41.76 
L 245.563636 -55.390425 
L 247.254545 -41.76 
L 248.945455 -85.407427 
L 250.636364 -41.76 
L 252.327273 -41.76 
L 254.018182 -41.76 
L 255.709091 -41.76 
L 257.4 -81.498702 
L 259.090909 -41.76 
L 260.781818 -41.76 
L 262.472727 -41.76 
L 264.163636 -67.768054 
L 265.854545 -41.76 
L 267.545455 -41.76 
L 269.236364 -41.76 
L 270.927273 -70.925101 
L 272.618182 -41.76 
L 274.309091 -86.409664 
L 276 -74.934049 
L 277.690909 -41.76 
L 279.381818 -41.76 
L 281.072727 -41.76 
L 282.763636 -68.068725 
L 284.454545 -41.76 
L 286.145455 -41.76 
L 287.836364 -41.76 
L 289.527273 -41.76 
L 291.218182 -128.553736 
L 292.909091 -41.76 
L 294.6 -41.76 
L 296.290909 -41.76 
L 297.981818 -53.385951 
L 299.672727 -41.76 
L 301.363636 -41.76 
L 303.054545 -41.76 
L 304.745455 -53.335839 
L 306.436364 -41.76 
L 308.127273 -41.76 
L 309.818182 -41.76 
L 311.509091 -49.878121 
L 313.2 -106.80519 
L 314.890909 -41.76 
L 316.581818 -41.76 
L 318.272727 -41.76 
L 319.963636 -94.277226 
L 321.654545 -82.651275 
L 323.345455 -41.76 
L 325.036364 -41.76 
L 326.727273 -66.815928 
L 328.418182 -41.76 
L 330.109091 -74.583266 
L 331.8 -41.76 
L 333.490909 -41.76 
L 335.181818 -41.76 
L 336.872727 -75.435168 
L 338.563636 -41.76 
L 340.254545 -41.76 
L 341.945455 -41.76 
L 343.636364 -73.029799 
L 345.327273 -41.76 
L 347.018182 -41.76 
L 348.709091 -41.76 
L 350.4 -76.387293 
L 352.090909 -41.76 
L 353.781818 -41.76 
L 355.472727 -41.76 
L 357.163636 -76.58774 
L 358.854545 -41.76 
L 360.545455 -41.76 
L 362.236364 -41.76 
L 363.927273 -66.665593 
L 365.618182 -41.76 
L 367.309091 -41.76 
L 369 -175.909441 
L 370.690909 -41.76 
L 372.381818 -41.76 
L 374.072727 -80.245906 
L 375.763636 -41.76 
L 377.454545 -41.76 
L 379.145455 -41.76 
L 380.836364 -76.637852 
L 382.527273 -41.76 
L 384.218182 -41.76 
L 385.909091 -93.274989 
L 387.6 -41.76 
L 389.290909 -41.76 
L 390.981818 -41.76 
L 392.672727 -88.915257 
L 394.363636 -82.601163 
L 396.054545 -52.985056 
L 397.745455 -82.300492 
L 399.436364 -41.76 
L 401.127273 -41.76 
L 402.818182 -55.79132 
L 404.509091 -41.76 
L 406.2 -82.450828 
L 407.890909 -52.032931 
L 409.581818 -41.76 
L 411.272727 -41.76 
L 412.963636 -41.76 
L 414.654545 -41.76 
L 416.345455 -52.28349 
L 418.036364 -41.76 
L 419.727273 -80.646801 
L 421.418182 -41.76 
L 423.109091 -72.729128 
L 424.8 -41.76 
L 426.490909 -77.990872 
L 428.181818 -41.76 
L 429.872727 -41.76 
L 431.563636 -41.76 
L 433.254545 -41.76 
L 434.945455 -68.920626 
L 436.636364 -46.821298 
L 438.327273 -41.76 
L 440.018182 -41.76 
L 441.709091 -80.89736 
L 443.4 -41.76 
L 445.090909 -41.76 
L 446.781818 -52.884832 
L 448.472727 -41.76 
L 450.163636 -41.76 
L 451.854545 -52.233378 
L 453.545455 -55.741208 
L 455.236364 -56.34255 
L 456.927273 -41.76 
L 458.618182 -41.76 
L 460.309091 -64.911678 
L 462 -41.76 
L 463.690909 -41.76 
L 465.381818 -41.76 
L 467.072727 -76.938523 
L 468.763636 -41.76 
L 470.454545 -65.462908 
L 472.145455 -57.745682 
L 473.836364 -41.76 
L 475.527273 -61.654407 
L 477.218182 -41.76 
L 478.909091 -41.76 
L 480.6 -63.909441 
L 482.290909 -41.76 
L 483.981818 -64.059776 
L 485.672727 -41.76 
L 487.363636 -41.76 
L 489.054545 -41.76 
L 490.745455 -62.205638 
L 492.436364 -41.76 
L 494.127273 -50.579687 
L 495.818182 -80.997584 
L 497.509091 -41.76 
L 499.2 -41.76 
L 500.890909 -144.338971 
L 502.581818 -41.76 
L 504.272727 -62.907204 
L 505.963636 -41.76 
L 507.654545 -41.76 
L 509.345455 -41.76 
L 511.036364 -122.690649 
L 512.727273 -41.76 
L 514.418182 -63.308098 
L 516.109091 -41.76 
L 517.8 -41.76 
L 519.490909 -41.76 
L 521.181818 -41.76 
L 522.872727 -60.65217 
L 524.563636 -41.76 
L 526.254545 -41.76 
L 527.945455 -41.76 
L 529.636364 -59.85038 
L 531.327273 -134.767606 
L 533.018182 -105.051275 
L 534.709091 -41.76 
L 536.4 -41.76 
L 538.090909 -41.76 
L 539.781818 -41.76 
L 541.472727 -63.708993 
L 543.163636 -41.76 
L 544.854545 -41.76 
L 546.545455 -53.686622 
L 548.236364 -51.982819 
L 549.927273 -41.76 
L 551.618182 -97.283937 
L 553.309091 -53.135391 
L 555 -41.76 
L 556.690909 -82.50094 
L 558.381818 -41.76 
L 560.072727 -131.560447 
L 561.763636 -41.76 
L 563.454545 -56.091991 
L 565.145455 -41.76 
L 566.836364 -73.631141 
L 568.527273 -72.52868 
L 570.218182 -41.76 
L 571.909091 -65.062013 
L 573.6 -41.76 
L 575.290909 -41.76 
L 576.981818 -41.76 
L 578.672727 -103.147025 
L 580.363636 -41.76 
L 582.054545 -41.76 
L 583.745455 -41.76 
L 585.436364 -108.40877 
L 587.127273 -41.76 
L 588.818182 -55.79132 
L 590.509091 -41.76 
L 592.2 -93.174765 
L 593.890909 -41.76 
L 595.581818 -88.113468 
L 597.272727 -64.861566 
L 598.963636 -41.76 
L 600.654545 -41.76 
L 602.345455 -41.76 
L 604.036364 -117.378792 
L 605.727273 -41.76 
L 607.418182 -41.76 
L 609.109091 -41.76 
L 610.8 -111.365369 
L 612.490909 -41.76 
L 614.181818 -41.76 
L 615.872727 -61.153289 
L 617.563636 -41.76 
L 619.254545 -41.76 
L 620.945455 -58.647696 
L 622.636364 -41.76 
L 622.636364 -41.76 
L 622.636364 -41.76 
L 620.945455 -79.845011 
L 619.254545 -68.720179 
L 617.563636 -62.055302 
L 615.872727 -67.868277 
L 614.181818 -46.570738 
L 612.490909 -48.274541 
L 610.8 -119.232931 
L 609.109091 -53.686622 
L 607.418182 -46.570738 
L 605.727273 -44.7166 
L 604.036364 -121.6383 
L 602.345455 -56.041879 
L 600.654545 -53.135391 
L 598.963636 -55.941655 
L 597.272727 -93.425324 
L 595.581818 -123.291991 
L 593.890909 -60.501834 
L 592.2 -105.802953 
L 590.509091 -58.798031 
L 588.818182 -68.168949 
L 587.127273 -56.041879 
L 585.436364 -121.38774 
L 583.745455 -95.229351 
L 582.054545 -100.942103 
L 580.363636 -95.630246 
L 578.672727 -120.28528 
L 576.981818 -47.121969 
L 575.290909 -45.969396 
L 573.6 -54.98953 
L 571.909091 -70.824877 
L 570.218182 -52.233378 
L 568.527273 -79.193557 
L 566.836364 -89.717047 
L 565.145455 -52.183266 
L 563.454545 -71.526443 
L 561.763636 -49.527338 
L 560.072727 -142.234273 
L 558.381818 -58.397136 
L 556.690909 -95.179239 
L 555 -48.825772 
L 553.309091 -62.055302 
L 551.618182 -113.419955 
L 549.927273 -72.278121 
L 548.236364 -69.922864 
L 546.545455 -62.00519 
L 544.854545 -48.324653 
L 543.163636 -57.445011 
L 541.472727 -110.162685 
L 539.781818 -60.401611 
L 538.090909 -64.510783 
L 536.4 -65.663356 
L 534.709091 -93.325101 
L 533.018182 -126.098255 
L 531.327273 -145.441432 
L 529.636364 -77.289306 
L 527.945455 -46.470515 
L 526.254545 -46.520626 
L 524.563636 -45.468277 
L 522.872727 -67.016376 
L 521.181818 -46.119732 
L 519.490909 -47.572975 
L 517.8 -54.388188 
L 516.109091 -61.45396 
L 514.418182 -72.378345 
L 512.727273 -44.967159 
L 511.036364 -128.65396 
L 509.345455 -60.301387 
L 507.654545 -54.688859 
L 505.963636 -64.96179 
L 504.272727 -91.42085 
L 502.581818 -51.130917 
L 500.890909 -146.142998 
L 499.2 -44.46604 
L 497.509091 -44.566264 
L 495.818182 -85.056644 
L 494.127273 -57.896018 
L 492.436364 -60.151051 
L 490.745455 -88.364027 
L 489.054545 -56.34255 
L 487.363636 -55.79132 
L 485.672727 -54.588635 
L 483.981818 -76.387293 
L 482.290909 -98.085727 
L 480.6 -110.764027 
L 478.909091 -92.372975 
L 477.218182 -91.170291 
L 475.527273 -101.994452 
L 473.836364 -54.18774 
L 472.145455 -74.984161 
L 470.454545 -86.108993 
L 468.763636 -47.021745 
L 467.072727 -82.400716 
L 465.381818 -52.233378 
L 463.690909 -49.226667 
L 462 -58.246801 
L 460.309091 -75.435168 
L 458.618182 -53.08528 
L 456.927273 -50.028456 
L 455.236364 -64.059776 
L 453.545455 -81.298255 
L 451.854545 -70.273647 
L 450.163636 -55.490649 
L 448.472727 -80.245906 
L 446.781818 -76.8383 
L 445.090909 -44.967159 
L 443.4 -44.215481 
L 441.709091 -87.712573 
L 440.018182 -79.644564 
L 438.327273 -79.744787 
L 436.636364 -63.909441 
L 434.945455 -91.470962 
L 433.254545 -81.598926 
L 431.563636 -81.047696 
L 429.872727 -84.455302 
L 428.181818 -84.555526 
L 426.490909 -95.079016 
L 424.8 -54.037405 
L 423.109091 -85.908546 
L 421.418182 -84.355078 
L 419.727273 -113.620403 
L 418.036364 -53.436063 
L 416.345455 -60.602058 
L 414.654545 -52.032931 
L 412.963636 -46.62085 
L 411.272727 -48.976107 
L 409.581818 -49.978345 
L 407.890909 -74.984161 
L 406.2 -91.921969 
L 404.509091 -48.324653 
L 402.818182 -67.968501 
L 401.127273 -54.939418 
L 399.436364 -59.900492 
L 397.745455 -94.828456 
L 396.054545 -64.460671 
L 394.363636 -95.429799 
L 392.672727 -97.484385 
L 390.981818 -51.632036 
L 389.290909 -47.623087 
L 387.6 -47.472752 
L 385.909091 -96.381924 
L 384.218182 -55.640984 
L 382.527273 -56.943893 
L 380.836364 -102.645906 
L 379.145455 -65.813691 
L 377.454545 -62.055302 
L 375.763636 -54.488412 
L 374.072727 -86.56 
L 372.381818 -46.169843 
L 370.690909 -46.971633 
L 369 -179.367159 
L 367.309091 -49.377002 
L 365.618182 -51.381477 
L 363.927273 -97.08349 
L 362.236364 -57.94613 
L 360.545455 -49.627562 
L 358.854545 -65.112125 
L 357.163636 -97.88528 
L 355.472727 -65.162237 
L 353.781818 -47.071857 
L 352.090909 -54.538523 
L 350.4 -93.625772 
L 348.709091 -51.882595 
L 347.018182 -49.226667 
L 345.327273 -48.875884 
L 343.636364 -84.304966 
L 341.945455 -48.374765 
L 340.254545 -49.176555 
L 338.563636 -63.35821 
L 336.872727 -91.871857 
L 335.181818 -51.231141 
L 333.490909 -50.880358 
L 331.8 -49.777897 
L 330.109091 -99.589083 
L 328.418182 -66.114362 
L 326.727273 -88.815034 
L 325.036364 -52.734497 
L 323.345455 -72.077673 
L 321.654545 -95.73047 
L 319.963636 -110.613691 
L 318.272727 -65.964027 
L 316.581818 -58.096465 
L 314.890909 -55.79132 
L 313.2 -122.690649 
L 311.509091 -66.765817 
L 309.818182 -63.658881 
L 308.127273 -63.057539 
L 306.436364 -60.050828 
L 304.745455 -77.840537 
L 303.054545 -59.549709 
L 301.363636 -63.007427 
L 299.672727 -54.789083 
L 297.981818 -62.155526 
L 296.290909 -47.97387 
L 294.6 -57.495123 
L 292.909091 -49.878121 
L 291.218182 -134.617271 
L 289.527273 -51.632036 
L 287.836364 -51.531812 
L 286.145455 -49.477226 
L 284.454545 -52.333602 
L 282.763636 -74.583266 
L 281.072727 -46.270067 
L 279.381818 -45.869172 
L 277.690909 -46.119732 
L 276 -77.539866 
L 274.309091 -88.915257 
L 272.618182 -46.470515 
L 270.927273 -75.385056 
L 269.236364 -50.980582 
L 267.545455 -49.727785 
L 265.854545 -44.46604 
L 264.163636 -74.984161 
L 262.472727 -50.880358 
L 260.781818 -58.347025 
L 259.090909 -61.002953 
L 257.4 -113.470067 
L 255.709091 -104.449933 
L 254.018182 -98.687069 
L 252.327273 -93.725996 
L 250.636364 -72.679016 
L 248.945455 -112.417718 
L 247.254545 -59.599821 
L 245.563636 -60.000716 
L 243.872727 -45.919284 
L 242.181818 -119.934497 
L 240.490909 -45.117494 
L 238.8 -97.233826 
L 237.109091 -66.565369 
L 235.418182 -65.362685 
L 233.727273 -66.214586 
L 232.036364 -57.294676 
L 230.345455 -103.347472 
L 228.654545 -51.331365 
L 226.963636 -49.627562 
L 225.272727 -69.922864 
L 223.581818 -63.658881 
L 221.890909 -47.222192 
L 220.2 -50.329128 
L 218.509091 -45.418166 
L 216.818182 -96.883043 
L 215.127273 -62.00519 
L 213.436364 -53.235615 
L 211.745455 -52.83472 
L 210.054545 -107.155973 
L 208.363636 -47.97387 
L 206.672727 -54.939418 
L 204.981818 -64.71123 
L 203.290909 -127.802058 
L 201.6 -49.978345 
L 199.909091 -48.525101 
L 198.218182 -50.12868 
L 196.527273 -86.660224 
L 194.836364 -47.623087 
L 193.145455 -48.074094 
L 191.454545 -48.074094 
L 189.763636 -49.477226 
L 188.072727 -89.867383 
L 186.381818 -50.429351 
L 184.690909 -51.281253 
L 183 -52.032931 
L 181.309091 -113.82085 
L 179.618182 -55.139866 
L 177.927273 -55.240089 
L 176.236364 -54.237852 
L 174.545455 -125.897808 
L 172.854545 -54.98953 
L 171.163636 -54.4383 
L 169.472727 -54.98953 
L 167.781818 -118.982371 
L 166.090909 -56.041879 
L 164.4 -54.839195 
L 162.709091 -53.536286 
L 161.018182 -141.33226 
L 159.327273 -45.518389 
L 157.636364 -52.083043 
L 155.945455 -77.439642 
L 154.254545 -48.22443 
L 152.563636 -56.743445 
L 150.872727 -51.932707 
L 149.181818 -74.783714 
L 147.490909 -71.476331 
L 145.8 -65.51302 
L 144.109091 -64.611007 
L 142.418182 -143.637405 
L 140.727273 -50.429351 
L 139.036364 -51.932707 
L 137.345455 -52.183266 
L 135.654545 -119.834273 
L 133.963636 -50.479463 
L 132.272727 -50.980582 
L 130.581818 -49.727785 
L 128.890909 -79.945235 
L 127.2 -48.424877 
L 125.509091 -46.570738 
L 123.818182 -45.618613 
L 122.127273 -46.871409 
L 120.436364 -44.666488 
L 118.745455 -44.816823 
L 117.054545 -45.768949 
L 115.363636 -47.873647 
z
" style="stroke: #0000ff; stroke-width: 0.5"/>
    </defs>
    <g clip-path="url(#p44bee285a4)">
     <use xlink:href="#ma6abb91349" x="0" y="288" style="fill: #0000ff; stroke: #0000ff; stroke-width: 0.5"/>
    </g>
   </g>
   <g id="PolyCollection_3">
    <defs>
     <path id="mc8856254cd" d="M 115.363636 -60.501834 
L 115.363636 -47.873647 
L 117.054545 -45.768949 
L 118.745455 -44.816823 
L 120.436364 -44.666488 
L 122.127273 -46.871409 
L 123.818182 -45.618613 
L 125.509091 -46.570738 
L 127.2 -48.424877 
L 128.890909 -79.945235 
L 130.581818 -49.727785 
L 132.272727 -50.980582 
L 133.963636 -50.479463 
L 135.654545 -119.834273 
L 137.345455 -52.183266 
L 139.036364 -51.932707 
L 140.727273 -50.429351 
L 142.418182 -143.637405 
L 144.109091 -64.611007 
L 145.8 -65.51302 
L 147.490909 -71.476331 
L 149.181818 -74.783714 
L 150.872727 -51.932707 
L 152.563636 -56.743445 
L 154.254545 -48.22443 
L 155.945455 -77.439642 
L 157.636364 -52.083043 
L 159.327273 -45.518389 
L 161.018182 -141.33226 
L 162.709091 -53.536286 
L 164.4 -54.839195 
L 166.090909 -56.041879 
L 167.781818 -118.982371 
L 169.472727 -54.98953 
L 171.163636 -54.4383 
L 172.854545 -54.98953 
L 174.545455 -125.897808 
L 176.236364 -54.237852 
L 177.927273 -55.240089 
L 179.618182 -55.139866 
L 181.309091 -113.82085 
L 183 -52.032931 
L 184.690909 -51.281253 
L 186.381818 -50.429351 
L 188.072727 -89.867383 
L 189.763636 -49.477226 
L 191.454545 -48.074094 
L 193.145455 -48.074094 
L 194.836364 -47.623087 
L 196.527273 -86.660224 
L 198.218182 -50.12868 
L 199.909091 -48.525101 
L 201.6 -49.978345 
L 203.290909 -127.802058 
L 204.981818 -64.71123 
L 206.672727 -54.939418 
L 208.363636 -47.97387 
L 210.054545 -107.155973 
L 211.745455 -52.83472 
L 213.436364 -53.235615 
L 215.127273 -62.00519 
L 216.818182 -96.883043 
L 218.509091 -45.418166 
L 220.2 -50.329128 
L 221.890909 -47.222192 
L 223.581818 -63.658881 
L 225.272727 -69.922864 
L 226.963636 -49.627562 
L 228.654545 -51.331365 
L 230.345455 -103.347472 
L 232.036364 -57.294676 
L 233.727273 -66.214586 
L 235.418182 -65.362685 
L 237.109091 -66.565369 
L 238.8 -97.233826 
L 240.490909 -45.117494 
L 242.181818 -119.934497 
L 243.872727 -45.919284 
L 245.563636 -60.000716 
L 247.254545 -59.599821 
L 248.945455 -112.417718 
L 250.636364 -72.679016 
L 252.327273 -93.725996 
L 254.018182 -98.687069 
L 255.709091 -104.449933 
L 257.4 -113.470067 
L 259.090909 -61.002953 
L 260.781818 -58.347025 
L 262.472727 -50.880358 
L 264.163636 -74.984161 
L 265.854545 -44.46604 
L 267.545455 -49.727785 
L 269.236364 -50.980582 
L 270.927273 -75.385056 
L 272.618182 -46.470515 
L 274.309091 -88.915257 
L 276 -77.539866 
L 277.690909 -46.119732 
L 279.381818 -45.869172 
L 281.072727 -46.270067 
L 282.763636 -74.583266 
L 284.454545 -52.333602 
L 286.145455 -49.477226 
L 287.836364 -51.531812 
L 289.527273 -51.632036 
L 291.218182 -134.617271 
L 292.909091 -49.878121 
L 294.6 -57.495123 
L 296.290909 -47.97387 
L 297.981818 -62.155526 
L 299.672727 -54.789083 
L 301.363636 -63.007427 
L 303.054545 -59.549709 
L 304.745455 -77.840537 
L 306.436364 -60.050828 
L 308.127273 -63.057539 
L 309.818182 -63.658881 
L 311.509091 -66.765817 
L 313.2 -122.690649 
L 314.890909 -55.79132 
L 316.581818 -58.096465 
L 318.272727 -65.964027 
L 319.963636 -110.613691 
L 321.654545 -95.73047 
L 323.345455 -72.077673 
L 325.036364 -52.734497 
L 326.727273 -88.815034 
L 328.418182 -66.114362 
L 330.109091 -99.589083 
L 331.8 -49.777897 
L 333.490909 -50.880358 
L 335.181818 -51.231141 
L 336.872727 -91.871857 
L 338.563636 -63.35821 
L 340.254545 -49.176555 
L 341.945455 -48.374765 
L 343.636364 -84.304966 
L 345.327273 -48.875884 
L 347.018182 -49.226667 
L 348.709091 -51.882595 
L 350.4 -93.625772 
L 352.090909 -54.538523 
L 353.781818 -47.071857 
L 355.472727 -65.162237 
L 357.163636 -97.88528 
L 358.854545 -65.112125 
L 360.545455 -49.627562 
L 362.236364 -57.94613 
L 363.927273 -97.08349 
L 365.618182 -51.381477 
L 367.309091 -49.377002 
L 369 -179.367159 
L 370.690909 -46.971633 
L 372.381818 -46.169843 
L 374.072727 -86.56 
L 375.763636 -54.488412 
L 377.454545 -62.055302 
L 379.145455 -65.813691 
L 380.836364 -102.645906 
L 382.527273 -56.943893 
L 384.218182 -55.640984 
L 385.909091 -96.381924 
L 387.6 -47.472752 
L 389.290909 -47.623087 
L 390.981818 -51.632036 
L 392.672727 -97.484385 
L 394.363636 -95.429799 
L 396.054545 -64.460671 
L 397.745455 -94.828456 
L 399.436364 -59.900492 
L 401.127273 -54.939418 
L 402.818182 -67.968501 
L 404.509091 -48.324653 
L 406.2 -91.921969 
L 407.890909 -74.984161 
L 409.581818 -49.978345 
L 411.272727 -48.976107 
L 412.963636 -46.62085 
L 414.654545 -52.032931 
L 416.345455 -60.602058 
L 418.036364 -53.436063 
L 419.727273 -113.620403 
L 421.418182 -84.355078 
L 423.109091 -85.908546 
L 424.8 -54.037405 
L 426.490909 -95.079016 
L 428.181818 -84.555526 
L 429.872727 -84.455302 
L 431.563636 -81.047696 
L 433.254545 -81.598926 
L 434.945455 -91.470962 
L 436.636364 -63.909441 
L 438.327273 -79.744787 
L 440.018182 -79.644564 
L 441.709091 -87.712573 
L 443.4 -44.215481 
L 445.090909 -44.967159 
L 446.781818 -76.8383 
L 448.472727 -80.245906 
L 450.163636 -55.490649 
L 451.854545 -70.273647 
L 453.545455 -81.298255 
L 455.236364 -64.059776 
L 456.927273 -50.028456 
L 458.618182 -53.08528 
L 460.309091 -75.435168 
L 462 -58.246801 
L 463.690909 -49.226667 
L 465.381818 -52.233378 
L 467.072727 -82.400716 
L 468.763636 -47.021745 
L 470.454545 -86.108993 
L 472.145455 -74.984161 
L 473.836364 -54.18774 
L 475.527273 -101.994452 
L 477.218182 -91.170291 
L 478.909091 -92.372975 
L 480.6 -110.764027 
L 482.290909 -98.085727 
L 483.981818 -76.387293 
L 485.672727 -54.588635 
L 487.363636 -55.79132 
L 489.054545 -56.34255 
L 490.745455 -88.364027 
L 492.436364 -60.151051 
L 494.127273 -57.896018 
L 495.818182 -85.056644 
L 497.509091 -44.566264 
L 499.2 -44.46604 
L 500.890909 -146.142998 
L 502.581818 -51.130917 
L 504.272727 -91.42085 
L 505.963636 -64.96179 
L 507.654545 -54.688859 
L 509.345455 -60.301387 
L 511.036364 -128.65396 
L 512.727273 -44.967159 
L 514.418182 -72.378345 
L 516.109091 -61.45396 
L 517.8 -54.388188 
L 519.490909 -47.572975 
L 521.181818 -46.119732 
L 522.872727 -67.016376 
L 524.563636 -45.468277 
L 526.254545 -46.520626 
L 527.945455 -46.470515 
L 529.636364 -77.289306 
L 531.327273 -145.441432 
L 533.018182 -126.098255 
L 534.709091 -93.325101 
L 536.4 -65.663356 
L 538.090909 -64.510783 
L 539.781818 -60.401611 
L 541.472727 -110.162685 
L 543.163636 -57.445011 
L 544.854545 -48.324653 
L 546.545455 -62.00519 
L 548.236364 -69.922864 
L 549.927273 -72.278121 
L 551.618182 -113.419955 
L 553.309091 -62.055302 
L 555 -48.825772 
L 556.690909 -95.179239 
L 558.381818 -58.397136 
L 560.072727 -142.234273 
L 561.763636 -49.527338 
L 563.454545 -71.526443 
L 565.145455 -52.183266 
L 566.836364 -89.717047 
L 568.527273 -79.193557 
L 570.218182 -52.233378 
L 571.909091 -70.824877 
L 573.6 -54.98953 
L 575.290909 -45.969396 
L 576.981818 -47.121969 
L 578.672727 -120.28528 
L 580.363636 -95.630246 
L 582.054545 -100.942103 
L 583.745455 -95.229351 
L 585.436364 -121.38774 
L 587.127273 -56.041879 
L 588.818182 -68.168949 
L 590.509091 -58.798031 
L 592.2 -105.802953 
L 593.890909 -60.501834 
L 595.581818 -123.291991 
L 597.272727 -93.425324 
L 598.963636 -55.941655 
L 600.654545 -53.135391 
L 602.345455 -56.041879 
L 604.036364 -121.6383 
L 605.727273 -44.7166 
L 607.418182 -46.570738 
L 609.109091 -53.686622 
L 610.8 -119.232931 
L 612.490909 -48.274541 
L 614.181818 -46.570738 
L 615.872727 -67.868277 
L 617.563636 -62.055302 
L 619.254545 -68.720179 
L 620.945455 -79.845011 
L 622.636364 -41.76 
L 622.636364 -41.910336 
L 622.636364 -41.910336 
L 620.945455 -130.658434 
L 619.254545 -139.127338 
L 617.563636 -101.593557 
L 615.872727 -85.708098 
L 614.181818 -71.777002 
L 612.490909 -74.934049 
L 610.8 -143.336734 
L 609.109091 -99.037852 
L 607.418182 -61.955078 
L 605.727273 -79.895123 
L 604.036364 -187.034273 
L 602.345455 -91.370738 
L 600.654545 -84.705861 
L 598.963636 -82.701387 
L 597.272727 -136.972528 
L 595.581818 -164.884832 
L 593.890909 -137.323311 
L 592.2 -152.106309 
L 590.509091 -86.610112 
L 588.818182 -98.536734 
L 587.127273 -109.110336 
L 585.436364 -179.266935 
L 583.745455 -191.193557 
L 582.054545 -193.598926 
L 580.363636 -190.842774 
L 578.672727 -153.308993 
L 576.981818 -84.254855 
L 575.290909 -72.779239 
L 573.6 -90.368501 
L 571.909091 -85.006532 
L 570.218182 -72.829351 
L 568.527273 -93.826219 
L 566.836364 -117.028009 
L 565.145455 -73.981924 
L 563.454545 -109.912125 
L 561.763636 -87.512125 
L 560.072727 -164.985056 
L 558.381818 -94.37745 
L 556.690909 -116.927785 
L 555 -61.053065 
L 553.309091 -82.601163 
L 551.618182 -145.441432 
L 549.927273 -118.381029 
L 548.236364 -96.381924 
L 546.545455 -87.562237 
L 544.854545 -79.394004 
L 543.163636 -111.465593 
L 541.472727 -171.29915 
L 539.781818 -105.151499 
L 538.090909 -118.631588 
L 536.4 -131.460224 
L 534.709091 -202.168054 
L 533.018182 -203.070067 
L 531.327273 -182.874989 
L 529.636364 -109.310783 
L 527.945455 -62.556421 
L 526.254545 -58.096465 
L 524.563636 -56.843669 
L 522.872727 -83.202506 
L 521.181818 -61.604295 
L 519.490909 -63.107651 
L 517.8 -76.487517 
L 516.109091 -99.889754 
L 514.418182 -82.350604 
L 512.727273 -58.146577 
L 511.036364 -142.184161 
L 509.345455 -83.904072 
L 507.654545 -82.651275 
L 505.963636 -117.479016 
L 504.272727 -210.787293 
L 502.581818 -152.306756 
L 500.890909 -208.031141 
L 499.2 -47.172081 
L 497.509091 -46.921521 
L 495.818182 -92.172528 
L 494.127273 -78.341655 
L 492.436364 -88.865145 
L 490.745455 -125.998031 
L 489.054545 -90.719284 
L 487.363636 -88.113468 
L 485.672727 -87.36179 
L 483.981818 -124.645011 
L 482.290909 -217.201611 
L 480.6 -203.42085 
L 478.909091 -175.859329 
L 477.218182 -152.95821 
L 475.527273 -149.350157 
L 473.836364 -67.1166 
L 472.145455 -109.260671 
L 470.454545 -113.971186 
L 468.763636 -54.287964 
L 467.072727 -88.063356 
L 465.381818 -75.334944 
L 463.690909 -73.33047 
L 462 -107.356421 
L 460.309091 -100.741655 
L 458.618182 -72.027562 
L 456.927273 -66.214586 
L 455.236364 -92.673647 
L 453.545455 -181.321521 
L 451.854545 -88.364027 
L 450.163636 -98.887517 
L 448.472727 -159.873647 
L 446.781818 -107.306309 
L 445.090909 -49.777897 
L 443.4 -46.921521 
L 441.709091 -108.458881 
L 440.018182 -147.395794 
L 438.327273 -156.816823 
L 436.636364 -131.610559 
L 434.945455 -140.179687 
L 433.254545 -136.822192 
L 431.563636 -129.956868 
L 429.872727 -146.243221 
L 428.181818 -132.562685 
L 426.490909 -124.695123 
L 424.8 -80.496465 
L 423.109091 -106.905414 
L 421.418182 -141.733154 
L 419.727273 -153.258881 
L 418.036364 -80.09557 
L 416.345455 -73.581029 
L 414.654545 -67.066488 
L 412.963636 -56.492886 
L 411.272727 -60.902729 
L 409.581818 -74.633378 
L 407.890909 -118.832036 
L 406.2 -107.406532 
L 404.509091 -59.750157 
L 402.818182 -93.525548 
L 401.127273 -90.518837 
L 399.436364 -110.012349 
L 397.745455 -118.832036 
L 396.054545 -93.074541 
L 394.363636 -125.246353 
L 392.672727 -114.522416 
L 390.981818 -66.665593 
L 389.290909 -56.34255 
L 387.6 -58.848143 
L 385.909091 -105.351946 
L 384.218182 -103.096913 
L 382.527273 -107.957763 
L 380.836364 -153.609664 
L 379.145455 -124.194004 
L 377.454545 -106.504519 
L 375.763636 -82.951946 
L 374.072727 -175.60877 
L 372.381818 -172.501834 
L 370.690909 -146.594004 
L 369 -197.958658 
L 367.309091 -86.56 
L 365.618182 -95.981029 
L 363.927273 -141.0817 
L 362.236364 -103.096913 
L 360.545455 -95.630246 
L 358.854545 -120.986846 
L 357.163636 -140.580582 
L 355.472727 -117.629351 
L 353.781818 -85.457539 
L 352.090909 -111.565817 
L 350.4 -134.216376 
L 348.709091 -99.138076 
L 347.018182 -90.568949 
L 345.327273 -91.921969 
L 343.636364 -117.679463 
L 341.945455 -82.100045 
L 340.254545 -81.949709 
L 338.563636 -116.677226 
L 336.872727 -125.14613 
L 335.181818 -76.8383 
L 333.490909 -69.922864 
L 331.8 -70.273647 
L 330.109091 -132.662908 
L 328.418182 -106.504519 
L 326.727273 -131.109441 
L 325.036364 -109.411007 
L 323.345455 -139.327785 
L 321.654545 -122.840984 
L 319.963636 -149.751051 
L 318.272727 -108.358658 
L 316.581818 -78.141208 
L 314.890909 -82.300492 
L 313.2 -157.468277 
L 311.509091 -94.778345 
L 309.818182 -90.117942 
L 308.127273 -90.117942 
L 306.436364 -84.455302 
L 304.745455 -103.798479 
L 303.054545 -82.50094 
L 301.363636 -100.040089 
L 299.672727 -79.143445 
L 297.981818 -74.332707 
L 296.290909 -66.415034 
L 294.6 -135.870067 
L 292.909091 -76.58774 
L 291.218182 -148.598479 
L 289.527273 -56.994004 
L 287.836364 -58.647696 
L 286.145455 -70.874989 
L 284.454545 -80.396242 
L 282.763636 -86.259329 
L 281.072727 -53.335839 
L 279.381818 -54.538523 
L 277.690909 -53.63651 
L 276 -128.904519 
L 274.309091 -151.003848 
L 272.618182 -55.189978 
L 270.927273 -84.906309 
L 269.236364 -69.521969 
L 267.545455 -67.317047 
L 265.854545 -47.071857 
L 264.163636 -84.355078 
L 262.472727 -83.152394 
L 260.781818 -92.573423 
L 259.090909 -117.178345 
L 257.4 -158.320179 
L 255.709091 -187.084385 
L 254.018182 -182.925101 
L 252.327273 -179.567606 
L 250.636364 -127.802058 
L 248.945455 -162.178792 
L 247.254545 -87.261566 
L 245.563636 -75.334944 
L 243.872727 -59.649933 
L 242.181818 -123.492438 
L 240.490909 -48.074094 
L 238.8 -141.031588 
L 237.109091 -91.521074 
L 235.418182 -103.698255 
L 233.727273 -118.230694 
L 232.036364 -91.220403 
L 230.345455 -114.021298 
L 228.654545 -74.483043 
L 226.963636 -62.756868 
L 225.272727 -86.159105 
L 223.581818 -68.319284 
L 221.890909 -57.595347 
L 220.2 -62.305861 
L 218.509091 -50.228904 
L 216.818182 -127.30094 
L 215.127273 -137.423535 
L 213.436364 -116.276331 
L 211.745455 -113.570291 
L 210.054545 -157.418166 
L 208.363636 -103.898702 
L 206.672727 -114.271857 
L 204.981818 -139.828904 
L 203.290909 -165.736734 
L 201.6 -84.104519 
L 199.909091 -91.470962 
L 198.218182 -84.755973 
L 196.527273 -112.417718 
L 194.836364 -65.112125 
L 193.145455 -77.990872 
L 191.454545 -81.949709 
L 189.763636 -80.646801 
L 188.072727 -116.577002 
L 186.381818 -90.06783 
L 184.690909 -93.675884 
L 183 -103.447696 
L 181.309091 -171.750157 
L 179.618182 -171.449485 
L 177.927273 -159.673199 
L 176.236364 -176.009664 
L 174.545455 -220.759553 
L 172.854545 -153.960447 
L 171.163636 -162.028456 
L 169.472727 -164.734497 
L 167.781818 -213.292886 
L 166.090909 -169.244564 
L 164.4 -154.160895 
L 162.709091 -155.313468 
L 161.018182 -180.46962 
L 159.327273 -52.584161 
L 157.636364 -80.296018 
L 155.945455 -115.97566 
L 154.254545 -64.761342 
L 152.563636 -90.368501 
L 150.872727 -77.690201 
L 149.181818 -103.998926 
L 147.490909 -144.58953 
L 145.8 -159.923758 
L 144.109091 -163.73226 
L 142.418182 -243.36 
L 140.727273 -158.119732 
L 139.036364 -162.178792 
L 137.345455 -200.664698 
L 135.654545 -228.326443 
L 133.963636 -198.760447 
L 132.272727 -182.423982 
L 130.581818 -189.690201 
L 128.890909 -200.364027 
L 127.2 -144.389083 
L 125.509091 -105.802953 
L 123.818182 -68.419508 
L 122.127273 -74.533154 
L 120.436364 -46.520626 
L 118.745455 -47.021745 
L 117.054545 -48.825772 
L 115.363636 -60.501834 
z
" style="stroke: #008000; stroke-width: 0.5"/>
    </defs>
    <g clip-path="url(#p44bee285a4)">
     <use xlink:href="#mc8856254cd" x="0" y="288" style="fill: #008000; stroke: #008000; stroke-width: 0.5"/>
    </g>
   </g>
   <g id="line2d_30">
    <path d="M 90 44.64 
L 648 44.64 
" clip-path="url(#p44bee285a4)" style="fill: none; stroke: #000000; stroke-width: 1.5; stroke-linecap: square"/>
   </g>
   <g id="line2d_31">
    <path d="M 90 176.935302 
L 648 176.935302 
" clip-path="url(#p44bee285a4)" style="fill: none; stroke: #000000; stroke-width: 1.5; stroke-linecap: square"/>
   </g>
   <g id="patch_3">
    <path d="M 90 256.32 
L 90 34.56 
" style="fill: none; stroke: #000000; stroke-width: 0.8; stroke-linejoin: miter; stroke-linecap: square"/>
   </g>
   <g id="patch_4">
    <path d="M 648 256.32 
L 648 34.56 
" style="fill: none; stroke: #000000; stroke-width: 0.8; stroke-linejoin: miter; stroke-linecap: square"/>
   </g>
   <g id="patch_5">
    <path d="M 90 256.32 
L 648 256.32 
" style="fill: none; stroke: #000000; stroke-width: 0.8; stroke-linejoin: miter; stroke-linecap: square"/>
   </g>
   <g id="patch_6">
    <path d="M 90 34.56 
L 648 34.56 
" style="fill: none; stroke: #000000; stroke-width: 0.8; stroke-linejoin: miter; stroke-linecap: square"/>
   </g>
   <g id="text_23">
    <!-- peak (4,023) -->
    <g transform="translate(122.179233 41.3136) scale(0.1 -0.1)">
     <defs>
      <path id="DejaVuSans-Bold-70" d="M 1656 506 
L 1656 -1331 
L 538 -1331 
L 538 3500 
L 1656 3500 
L 1656 2988 
Q 1888 3294 2169 3439 
Q 2450 3584 2816 3584 
Q 3463 3584 3878 3070 
Q 4294 2556 4294 1747 
Q 4294 938 3878 423 
Q 3463 -91 2816 -91 
Q 2450 -91 2169 54 
Q 1888 200 1656 506 
z
M 2400 2772 
Q 2041 2772 1848 2508 
Q 1656 2244 1656 1747 
Q 1656 1250 1848 986 
Q 2041 722 2400 722 
Q 2759 722 2948 984 
Q 3138 1247 3138 1747 
Q 3138 2247 2948 2509 
Q 2759 2772 2400 2772 
z
" transform="scale(0.015625)"/>
      <path id="DejaVuSans-Bold-65" d="M 4031 1759 
L 4031 1441 
L 1416 1441 
Q 1456 1047 1700 850 
Q 1944 653 2381 653 
Q 2734 653 3104 758 
Q 3475 863 3866 1075 
L 3866 213 
Q 3469 63 3072 -14 
Q 2675 -91 2278 -91 
Q 1328 -91 801 392 
Q 275 875 275 1747 
Q 275 2603 792 3093 
Q 1309 3584 2216 3584 
Q 3041 3584 3536 3087 
Q 4031 2591 4031 1759 
z
M 2881 2131 
Q 2881 2450 2695 2645 
Q 2509 2841 2209 2841 
Q 1884 2841 1681 2658 
Q 1478 2475 1428 2131 
L 2881 2131 
z
" transform="scale(0.015625)"/>
      <path id="DejaVuSans-Bold-61" d="M 2106 1575 
Q 1756 1575 1579 1456 
Q 1403 1338 1403 1106 
Q 1403 894 1545 773 
Q 1688 653 1941 653 
Q 2256 653 2472 879 
Q 2688 1106 2688 1447 
L 2688 1575 
L 2106 1575 
z
M 3816 1997 
L 3816 0 
L 2688 0 
L 2688 519 
Q 2463 200 2181 54 
Q 1900 -91 1497 -91 
Q 953 -91 614 226 
Q 275 544 275 1050 
Q 275 1666 698 1953 
Q 1122 2241 2028 2241 
L 2688 2241 
L 2688 2328 
Q 2688 2594 2478 2717 
Q 2269 2841 1825 2841 
Q 1466 2841 1156 2769 
Q 847 2697 581 2553 
L 581 3406 
Q 941 3494 1303 3539 
Q 1666 3584 2028 3584 
Q 2975 3584 3395 3211 
Q 3816 2838 3816 1997 
z
" transform="scale(0.015625)"/>
      <path id="DejaVuSans-Bold-6b" d="M 538 4863 
L 1656 4863 
L 1656 2216 
L 2944 3500 
L 4244 3500 
L 2534 1894 
L 4378 0 
L 3022 0 
L 1656 1459 
L 1656 0 
L 538 0 
L 538 4863 
z
" transform="scale(0.015625)"/>
      <path id="DejaVuSans-Bold-20" transform="scale(0.015625)"/>
      <path id="DejaVuSans-Bold-28" d="M 2413 -844 
L 1484 -844 
Q 1006 -72 778 623 
Q 550 1319 550 2003 
Q 550 2688 779 3389 
Q 1009 4091 1484 4856 
L 2413 4856 
Q 2013 4116 1813 3408 
Q 1613 2700 1613 2009 
Q 1613 1319 1811 609 
Q 2009 -100 2413 -844 
z
" transform="scale(0.015625)"/>
      <path id="DejaVuSans-Bold-34" d="M 2356 3675 
L 1038 1722 
L 2356 1722 
L 2356 3675 
z
M 2156 4666 
L 3494 4666 
L 3494 1722 
L 4159 1722 
L 4159 850 
L 3494 850 
L 3494 0 
L 2356 0 
L 2356 850 
L 288 850 
L 288 1881 
L 2156 4666 
z
" transform="scale(0.015625)"/>
      <path id="DejaVuSans-Bold-2c" d="M 653 1209 
L 1778 1209 
L 1778 256 
L 1006 -909 
L 341 -909 
L 653 256 
L 653 1209 
z
" transform="scale(0.015625)"/>
      <path id="DejaVuSans-Bold-30" d="M 2944 2338 
Q 2944 3213 2780 3570 
Q 2616 3928 2228 3928 
Q 1841 3928 1675 3570 
Q 1509 3213 1509 2338 
Q 1509 1453 1675 1090 
Q 1841 728 2228 728 
Q 2613 728 2778 1090 
Q 2944 1453 2944 2338 
z
M 4147 2328 
Q 4147 1169 3647 539 
Q 3147 -91 2228 -91 
Q 1306 -91 806 539 
Q 306 1169 306 2328 
Q 306 3491 806 4120 
Q 1306 4750 2228 4750 
Q 3147 4750 3647 4120 
Q 4147 3491 4147 2328 
z
" transform="scale(0.015625)"/>
      <path id="DejaVuSans-Bold-32" d="M 1844 884 
L 3897 884 
L 3897 0 
L 506 0 
L 506 884 
L 2209 2388 
Q 2438 2594 2547 2791 
Q 2656 2988 2656 3200 
Q 2656 3528 2436 3728 
Q 2216 3928 1850 3928 
Q 1569 3928 1234 3808 
Q 900 3688 519 3450 
L 519 4475 
Q 925 4609 1322 4679 
Q 1719 4750 2100 4750 
Q 2938 4750 3402 4381 
Q 3866 4013 3866 3353 
Q 3866 2972 3669 2642 
Q 3472 2313 2841 1759 
L 1844 884 
z
" transform="scale(0.015625)"/>
      <path id="DejaVuSans-Bold-33" d="M 2981 2516 
Q 3453 2394 3698 2092 
Q 3944 1791 3944 1325 
Q 3944 631 3412 270 
Q 2881 -91 1863 -91 
Q 1503 -91 1142 -33 
Q 781 25 428 141 
L 428 1069 
Q 766 900 1098 814 
Q 1431 728 1753 728 
Q 2231 728 2486 893 
Q 2741 1059 2741 1369 
Q 2741 1688 2480 1852 
Q 2219 2016 1709 2016 
L 1228 2016 
L 1228 2791 
L 1734 2791 
Q 2188 2791 2409 2933 
Q 2631 3075 2631 3366 
Q 2631 3634 2415 3781 
Q 2200 3928 1806 3928 
Q 1516 3928 1219 3862 
Q 922 3797 628 3669 
L 628 4550 
Q 984 4650 1334 4700 
Q 1684 4750 2022 4750 
Q 2931 4750 3382 4451 
Q 3834 4153 3834 3553 
Q 3834 3144 3618 2883 
Q 3403 2622 2981 2516 
z
" transform="scale(0.015625)"/>
      <path id="DejaVuSans-Bold-29" d="M 513 -844 
Q 913 -100 1113 609 
Q 1313 1319 1313 2009 
Q 1313 2700 1113 3408 
Q 913 4116 513 4856 
L 1441 4856 
Q 1916 4091 2145 3389 
Q 2375 2688 2375 2003 
Q 2375 1319 2147 623 
Q 1919 -72 1441 -844 
L 513 -844 
z
" transform="scale(0.015625)"/>
     </defs>
     <use xlink:href="#DejaVuSans-Bold-70"/>
     <use xlink:href="#DejaVuSans-Bold-65" x="71.582031"/>
     <use xlink:href="#DejaVuSans-Bold-61" x="139.404297"/>
     <use xlink:href="#DejaVuSans-Bold-6b" x="206.884766"/>
     <use xlink:href="#DejaVuSans-Bold-20" x="273.388672"/>
     <use xlink:href="#DejaVuSans-Bold-28" x="308.203125"/>
     <use xlink:href="#DejaVuSans-Bold-34" x="353.90625"/>
     <use xlink:href="#DejaVuSans-Bold-2c" x="423.486328"/>
     <use xlink:href="#DejaVuSans-Bold-30" x="461.474609"/>
     <use xlink:href="#DejaVuSans-Bold-32" x="531.054688"/>
     <use xlink:href="#DejaVuSans-Bold-33" x="600.634766"/>
     <use xlink:href="#DejaVuSans-Bold-29" x="670.214844"/>
    </g>
   </g>
   <g id="text_24">
    <!-- mean (1,383) -->
    <g transform="translate(567.728153 173.608902) scale(0.1 -0.1)">
     <defs>
      <path id="DejaVuSans-Bold-6d" d="M 3781 2919 
Q 3994 3244 4286 3414 
Q 4578 3584 4928 3584 
Q 5531 3584 5847 3212 
Q 6163 2841 6163 2131 
L 6163 0 
L 5038 0 
L 5038 1825 
Q 5041 1866 5042 1909 
Q 5044 1953 5044 2034 
Q 5044 2406 4934 2573 
Q 4825 2741 4581 2741 
Q 4263 2741 4089 2478 
Q 3916 2216 3909 1719 
L 3909 0 
L 2784 0 
L 2784 1825 
Q 2784 2406 2684 2573 
Q 2584 2741 2328 2741 
Q 2006 2741 1831 2477 
Q 1656 2213 1656 1722 
L 1656 0 
L 531 0 
L 531 3500 
L 1656 3500 
L 1656 2988 
Q 1863 3284 2130 3434 
Q 2397 3584 2719 3584 
Q 3081 3584 3359 3409 
Q 3638 3234 3781 2919 
z
" transform="scale(0.015625)"/>
      <path id="DejaVuSans-Bold-6e" d="M 4056 2131 
L 4056 0 
L 2931 0 
L 2931 347 
L 2931 1631 
Q 2931 2084 2911 2256 
Q 2891 2428 2841 2509 
Q 2775 2619 2662 2680 
Q 2550 2741 2406 2741 
Q 2056 2741 1856 2470 
Q 1656 2200 1656 1722 
L 1656 0 
L 538 0 
L 538 3500 
L 1656 3500 
L 1656 2988 
Q 1909 3294 2193 3439 
Q 2478 3584 2822 3584 
Q 3428 3584 3742 3212 
Q 4056 2841 4056 2131 
z
" transform="scale(0.015625)"/>
      <path id="DejaVuSans-Bold-31" d="M 750 831 
L 1813 831 
L 1813 3847 
L 722 3622 
L 722 4441 
L 1806 4666 
L 2950 4666 
L 2950 831 
L 4013 831 
L 4013 0 
L 750 0 
L 750 831 
z
" transform="scale(0.015625)"/>
      <path id="DejaVuSans-Bold-38" d="M 2228 2088 
Q 1891 2088 1709 1903 
Q 1528 1719 1528 1375 
Q 1528 1031 1709 848 
Q 1891 666 2228 666 
Q 2563 666 2741 848 
Q 2919 1031 2919 1375 
Q 2919 1722 2741 1905 
Q 2563 2088 2228 2088 
z
M 1350 2484 
Q 925 2613 709 2878 
Q 494 3144 494 3541 
Q 494 4131 934 4440 
Q 1375 4750 2228 4750 
Q 3075 4750 3515 4442 
Q 3956 4134 3956 3541 
Q 3956 3144 3739 2878 
Q 3522 2613 3097 2484 
Q 3572 2353 3814 2058 
Q 4056 1763 4056 1313 
Q 4056 619 3595 264 
Q 3134 -91 2228 -91 
Q 1319 -91 855 264 
Q 391 619 391 1313 
Q 391 1763 633 2058 
Q 875 2353 1350 2484 
z
M 1631 3419 
Q 1631 3141 1786 2991 
Q 1941 2841 2228 2841 
Q 2509 2841 2662 2991 
Q 2816 3141 2816 3419 
Q 2816 3697 2662 3845 
Q 2509 3994 2228 3994 
Q 1941 3994 1786 3844 
Q 1631 3694 1631 3419 
z
" transform="scale(0.015625)"/>
     </defs>
     <use xlink:href="#DejaVuSans-Bold-6d"/>
     <use xlink:href="#DejaVuSans-Bold-65" x="104.199219"/>
     <use xlink:href="#DejaVuSans-Bold-61" x="172.021484"/>
     <use xlink:href="#DejaVuSans-Bold-6e" x="239.501953"/>
     <use xlink:href="#DejaVuSans-Bold-20" x="310.693359"/>
     <use xlink:href="#DejaVuSans-Bold-28" x="345.507812"/>
     <use xlink:href="#DejaVuSans-Bold-31" x="391.210938"/>
     <use xlink:href="#DejaVuSans-Bold-2c" x="460.791016"/>
     <use xlink:href="#DejaVuSans-Bold-33" x="498.779297"/>
     <use xlink:href="#DejaVuSans-Bold-38" x="568.359375"/>
     <use xlink:href="#DejaVuSans-Bold-33" x="637.939453"/>
     <use xlink:href="#DejaVuSans-Bold-29" x="707.519531"/>
    </g>
   </g>
   <g id="text_25">
    <!-- Stream Bitrate over Time -->
    <g transform="translate(293.189062 28.56) scale(0.12 -0.12)">
     <defs>
      <path id="DejaVuSans-53" d="M 3425 4513 
L 3425 3897 
Q 3066 4069 2747 4153 
Q 2428 4238 2131 4238 
Q 1616 4238 1336 4038 
Q 1056 3838 1056 3469 
Q 1056 3159 1242 3001 
Q 1428 2844 1947 2747 
L 2328 2669 
Q 3034 2534 3370 2195 
Q 3706 1856 3706 1288 
Q 3706 609 3251 259 
Q 2797 -91 1919 -91 
Q 1588 -91 1214 -16 
Q 841 59 441 206 
L 441 856 
Q 825 641 1194 531 
Q 1563 422 1919 422 
Q 2459 422 2753 634 
Q 3047 847 3047 1241 
Q 3047 1584 2836 1778 
Q 2625 1972 2144 2069 
L 1759 2144 
Q 1053 2284 737 2584 
Q 422 2884 422 3419 
Q 422 4038 858 4394 
Q 1294 4750 2059 4750 
Q 2388 4750 2728 4690 
Q 3069 4631 3425 4513 
z
" transform="scale(0.015625)"/>
      <path id="DejaVuSans-6f" d="M 1959 3097 
Q 1497 3097 1228 2736 
Q 959 2375 959 1747 
Q 959 1119 1226 758 
Q 1494 397 1959 397 
Q 2419 397 2687 759 
Q 2956 1122 2956 1747 
Q 2956 2369 2687 2733 
Q 2419 3097 1959 3097 
z
M 1959 3584 
Q 2709 3584 3137 3096 
Q 3566 2609 3566 1747 
Q 3566 888 3137 398 
Q 2709 -91 1959 -91 
Q 1206 -91 779 398 
Q 353 888 353 1747 
Q 353 2609 779 3096 
Q 1206 3584 1959 3584 
z
" transform="scale(0.015625)"/>
      <path id="DejaVuSans-76" d="M 191 3500 
L 800 3500 
L 1894 563 
L 2988 3500 
L 3597 3500 
L 2284 0 
L 1503 0 
L 191 3500 
z
" transform="scale(0.015625)"/>
     </defs>
     <use xlink:href="#DejaVuSans-53"/>
     <use xlink:href="#DejaVuSans-74" x="63.476562"/>
     <use xlink:href="#DejaVuSans-72" x="102.685547"/>
     <use xlink:href="#DejaVuSans-65" x="141.548828"/>
     <use xlink:href="#DejaVuSans-61" x="203.072266"/>
     <use xlink:href="#DejaVuSans-6d" x="264.351562"/>
     <use xlink:href="#DejaVuSans-20" x="361.763672"/>
     <use xlink:href="#DejaVuSans-42" x="393.550781"/>
     <use xlink:href="#DejaVuSans-69" x="462.154297"/>
     <use xlink:href="#DejaVuSans-74" x="489.9375"/>
     <use xlink:href="#DejaVuSans-72" x="529.146484"/>
     <use xlink:href="#DejaVuSans-61" x="570.259766"/>
     <use xlink:href="#DejaVuSans-74" x="631.539062"/>
     <use xlink:href="#DejaVuSans-65" x="670.748047"/>
     <use xlink:href="#DejaVuSans-20" x="732.271484"/>
     <use xlink:href="#DejaVuSans-6f" x="764.058594"/>
     <use xlink:href="#DejaVuSans-76" x="825.240234"/>
     <use xlink:href="#DejaVuSans-65" x="884.419922"/>
     <use xlink:href="#DejaVuSans-72" x="945.943359"/>
     <use xlink:href="#DejaVuSans-20" x="987.056641"/>
     <use xlink:href="#DejaVuSans-54" x="1018.84375"/>
     <use xlink:href="#DejaVuSans-69" x="1076.802734"/>
     <use xlink:href="#DejaVuSans-6d" x="1104.585938"/>
     <use xlink:href="#DejaVuSans-65" x="1201.998047"/>
    </g>
   </g>
   <g id="legend_1">
    <g id="patch_7">
     <path d="M 602.139063 86.594375 
L 641 86.594375 
Q 643 86.594375 643 84.594375 
L 643 41.56 
Q 643 39.56 641 39.56 
L 602.139063 39.56 
Q 600.139063 39.56 600.139063 41.56 
L 600.139063 84.594375 
Q 600.139063 86.594375 602.139063 86.594375 
z
" style="fill: #ffffff; opacity: 0.8; stroke: #cccccc; stroke-linejoin: miter"/>
    </g>
    <g id="patch_8">
     <path d="M 604.139063 51.158438 
L 624.139063 51.158438 
L 624.139063 44.158438 
L 604.139063 44.158438 
z
" style="fill: #ff0000; stroke: #ff0000; stroke-width: 0.5; stroke-linejoin: miter"/>
    </g>
    <g id="text_26">
     <!-- I -->
     <g transform="translate(632.139063 51.158438) scale(0.1 -0.1)">
      <defs>
       <path id="DejaVuSans-49" d="M 628 4666 
L 1259 4666 
L 1259 0 
L 628 0 
L 628 4666 
z
" transform="scale(0.015625)"/>
      </defs>
      <use xlink:href="#DejaVuSans-49"/>
     </g>
    </g>
    <g id="patch_9">
     <path d="M 604.139063 65.836563 
L 624.139063 65.836563 
L 624.139063 58.836563 
L 604.139063 58.836563 
z
" style="fill: #0000ff; stroke: #0000ff; stroke-width: 0.5; stroke-linejoin: miter"/>
    </g>
    <g id="text_27">
     <!-- B -->
     <g transform="translate(632.139063 65.836563) scale(0.1 -0.1)">
      <use xlink:href="#DejaVuSans-42"/>
     </g>
    </g>
    <g id="patch_10">
     <path d="M 604.139063 80.514688 
L 624.139063 80.514688 
L 624.139063 73.514688 
L 604.139063 73.514688 
z
" style="fill: #008000; stroke: #008000; stroke-width: 0.5; stroke-linejoin: miter"/>
    </g>
    <g id="text_28">
     <!-- P -->
     <g transform="translate(632.139063 80.514688) scale(0.1 -0.1)">
      <defs>
       <path id="DejaVuSans-50" d="M 1259 4147 
L 1259 2394 
L 2053 2394 
Q 2494 2394 2734 2622 
Q 2975 2850 2975 3272 
Q 2975 3691 2734 3919 
Q 2494 4147 2053 4147 
L 1259 4147 
z
M 628 4666 
L 2053 4666 
Q 2838 4666 3239 4311 
Q 3641 3956 3641 3272 
Q 3641 2581 3239 2228 
Q 2838 1875 2053 1875 
L 1259 1875 
L 1259 0 
L 628 0 
L 628 4666 
z
" transform="scale(0.015625)"/>
      </defs>
      <use xlink:href="#DejaVuSans-50"/>
     </g>
    </g>
   </g>
  </g>
 </g>
 <defs>
  <clipPath id="p44bee285a4">
   <rect x="90" y="34.56" width="558" height="221.76"/>
  </clipPath>
 </defs>
</svg>
