<?xml version="1.0" encoding="utf-8" standalone="no"?>
<!DOCTYPE svg PUBLIC "-//W3C//DTD SVG 1.1//EN"
  "http://www.w3.org/Graphics/SVG/1.1/DTD/svg11.dtd">
<svg xmlns:xlink="http://www.w3.org/1999/xlink" width="720pt" height="288pt" viewBox="0 0 720 288" xmlns="http://www.w3.org/2000/svg" version="1.1">
 <metadata>
  <rdf:RDF xmlns:dc="http://purl.org/dc/elements/1.1/" xmlns:cc="http://creativecommons.org/ns#" xmlns:rdf="http://www.w3.org/1999/02/22-rdf-syntax-ns#">
   <cc:Work>
    <dc:type rdf:resource="http://purl.org/dc/dcmitype/StillImage"/>
    <dc:date>2023-05-07T01:58:53.420474</dc:date>
    <dc:format>image/svg+xml</dc:format>
    <dc:creator>
     <cc:Agent>
      <dc:title>Matplotlib v3.7.1, https://matplotlib.org/</dc:title>
     </cc:Agent>
    </dc:creator>
   </cc:Work>
  </rdf:RDF>
 </metadata>
 <defs>
  <style type="text/css">*{stroke-linejoin: round; stroke-linecap: butt}</style>
 </defs>
 <g id="figure_1">
  <g id="patch_1">
   <path d="M 0 288 
L 720 288 
L 720 0 
L 0 0 
z
" style="fill: #ffffff"/>
  </g>
  <g id="axes_1">
   <g id="patch_2">
    <path d="M 90 256.32 
L 648 256.32 
L 648 34.56 
L 90 34.56 
z
" style="fill: #ffffff"/>
   </g>
   <g id="matplotlib.axis_1">
    <g id="xtick_1">
     <g id="line2d_1">
      <defs>
       <path id="m77ba17f38a" d="M 0 0 
L 0 3.5 
" style="stroke: #000000; stroke-width: 0.8"/>
      </defs>
      <g>
       <use xlink:href="#m77ba17f38a" x="115.363636" y="256.32" style="stroke: #000000; stroke-width: 0.8"/>
      </g>
     </g>
     <g id="text_1">
      <!-- 0:00:00 -->
      <g transform="translate(96.088636 270.918437) scale(0.1 -0.1)">
       <defs>
        <path id="DejaVuSans-30" d="M 2034 4250 
Q 1547 4250 1301 3770 
Q 1056 3291 1056 2328 
Q 1056 1369 1301 889 
Q 1547 409 2034 409 
Q 2525 409 2770 889 
Q 3016 1369 3016 2328 
Q 3016 3291 2770 3770 
Q 2525 4250 2034 4250 
z
M 2034 4750 
Q 2819 4750 3233 4129 
Q 3647 3509 3647 2328 
Q 3647 1150 3233 529 
Q 2819 -91 2034 -91 
Q 1250 -91 836 529 
Q 422 1150 422 2328 
Q 422 3509 836 4129 
Q 1250 4750 2034 4750 
z
" transform="scale(0.015625)"/>
        <path id="DejaVuSans-3a" d="M 750 794 
L 1409 794 
L 1409 0 
L 750 0 
L 750 794 
z
M 750 3309 
L 1409 3309 
L 1409 2516 
L 750 2516 
L 750 3309 
z
" transform="scale(0.015625)"/>
       </defs>
       <use xlink:href="#DejaVuSans-30"/>
       <use xlink:href="#DejaVuSans-3a" x="63.623047"/>
       <use xlink:href="#DejaVuSans-30" x="97.314453"/>
       <use xlink:href="#DejaVuSans-30" x="160.9375"/>
       <use xlink:href="#DejaVuSans-3a" x="224.560547"/>
       <use xlink:href="#DejaVuSans-30" x="258.251953"/>
       <use xlink:href="#DejaVuSans-30" x="321.875"/>
      </g>
     </g>
    </g>
    <g id="xtick_2">
     <g id="line2d_2">
      <g>
       <use xlink:href="#m77ba17f38a" x="166.090909" y="256.32" style="stroke: #000000; stroke-width: 0.8"/>
      </g>
     </g>
     <g id="text_2">
      <!-- 0:00:30 -->
      <g transform="translate(146.815909 270.918437) scale(0.1 -0.1)">
       <defs>
        <path id="DejaVuSans-33" d="M 2597 2516 
Q 3050 2419 3304 2112 
Q 3559 1806 3559 1356 
Q 3559 666 3084 287 
Q 2609 -91 1734 -91 
Q 1441 -91 1130 -33 
Q 819 25 488 141 
L 488 750 
Q 750 597 1062 519 
Q 1375 441 1716 441 
Q 2309 441 2620 675 
Q 2931 909 2931 1356 
Q 2931 1769 2642 2001 
Q 2353 2234 1838 2234 
L 1294 2234 
L 1294 2753 
L 1863 2753 
Q 2328 2753 2575 2939 
Q 2822 3125 2822 3475 
Q 2822 3834 2567 4026 
Q 2313 4219 1838 4219 
Q 1578 4219 1281 4162 
Q 984 4106 628 3988 
L 628 4550 
Q 988 4650 1302 4700 
Q 1616 4750 1894 4750 
Q 2613 4750 3031 4423 
Q 3450 4097 3450 3541 
Q 3450 3153 3228 2886 
Q 3006 2619 2597 2516 
z
" transform="scale(0.015625)"/>
       </defs>
       <use xlink:href="#DejaVuSans-30"/>
       <use xlink:href="#DejaVuSans-3a" x="63.623047"/>
       <use xlink:href="#DejaVuSans-30" x="97.314453"/>
       <use xlink:href="#DejaVuSans-30" x="160.9375"/>
       <use xlink:href="#DejaVuSans-3a" x="224.560547"/>
       <use xlink:href="#DejaVuSans-33" x="258.251953"/>
       <use xlink:href="#DejaVuSans-30" x="321.875"/>
      </g>
     </g>
    </g>
    <g id="xtick_3">
     <g id="line2d_3">
      <g>
       <use xlink:href="#m77ba17f38a" x="216.818182" y="256.32" style="stroke: #000000; stroke-width: 0.8"/>
      </g>
     </g>
     <g id="text_3">
      <!-- 0:01:00 -->
      <g transform="translate(197.543182 270.918437) scale(0.1 -0.1)">
       <defs>
        <path id="DejaVuSans-31" d="M 794 531 
L 1825 531 
L 1825 4091 
L 703 3866 
L 703 4441 
L 1819 4666 
L 2450 4666 
L 2450 531 
L 3481 531 
L 3481 0 
L 794 0 
L 794 531 
z
" transform="scale(0.015625)"/>
       </defs>
       <use xlink:href="#DejaVuSans-30"/>
       <use xlink:href="#DejaVuSans-3a" x="63.623047"/>
       <use xlink:href="#DejaVuSans-30" x="97.314453"/>
       <use xlink:href="#DejaVuSans-31" x="160.9375"/>
       <use xlink:href="#DejaVuSans-3a" x="224.560547"/>
       <use xlink:href="#DejaVuSans-30" x="258.251953"/>
       <use xlink:href="#DejaVuSans-30" x="321.875"/>
      </g>
     </g>
    </g>
    <g id="xtick_4">
     <g id="line2d_4">
      <g>
       <use xlink:href="#m77ba17f38a" x="267.545455" y="256.32" style="stroke: #000000; stroke-width: 0.8"/>
      </g>
     </g>
     <g id="text_4">
      <!-- 0:01:30 -->
      <g transform="translate(248.270455 270.918437) scale(0.1 -0.1)">
       <use xlink:href="#DejaVuSans-30"/>
       <use xlink:href="#DejaVuSans-3a" x="63.623047"/>
       <use xlink:href="#DejaVuSans-30" x="97.314453"/>
       <use xlink:href="#DejaVuSans-31" x="160.9375"/>
       <use xlink:href="#DejaVuSans-3a" x="224.560547"/>
       <use xlink:href="#DejaVuSans-33" x="258.251953"/>
       <use xlink:href="#DejaVuSans-30" x="321.875"/>
      </g>
     </g>
    </g>
    <g id="xtick_5">
     <g id="line2d_5">
      <g>
       <use xlink:href="#m77ba17f38a" x="318.272727" y="256.32" style="stroke: #000000; stroke-width: 0.8"/>
      </g>
     </g>
     <g id="text_5">
      <!-- 0:02:00 -->
      <g transform="translate(298.997727 270.918437) scale(0.1 -0.1)">
       <defs>
        <path id="DejaVuSans-32" d="M 1228 531 
L 3431 531 
L 3431 0 
L 469 0 
L 469 531 
Q 828 903 1448 1529 
Q 2069 2156 2228 2338 
Q 2531 2678 2651 2914 
Q 2772 3150 2772 3378 
Q 2772 3750 2511 3984 
Q 2250 4219 1831 4219 
Q 1534 4219 1204 4116 
Q 875 4013 500 3803 
L 500 4441 
Q 881 4594 1212 4672 
Q 1544 4750 1819 4750 
Q 2544 4750 2975 4387 
Q 3406 4025 3406 3419 
Q 3406 3131 3298 2873 
Q 3191 2616 2906 2266 
Q 2828 2175 2409 1742 
Q 1991 1309 1228 531 
z
" transform="scale(0.015625)"/>
       </defs>
       <use xlink:href="#DejaVuSans-30"/>
       <use xlink:href="#DejaVuSans-3a" x="63.623047"/>
       <use xlink:href="#DejaVuSans-30" x="97.314453"/>
       <use xlink:href="#DejaVuSans-32" x="160.9375"/>
       <use xlink:href="#DejaVuSans-3a" x="224.560547"/>
       <use xlink:href="#DejaVuSans-30" x="258.251953"/>
       <use xlink:href="#DejaVuSans-30" x="321.875"/>
      </g>
     </g>
    </g>
    <g id="xtick_6">
     <g id="line2d_6">
      <g>
       <use xlink:href="#m77ba17f38a" x="369" y="256.32" style="stroke: #000000; stroke-width: 0.8"/>
      </g>
     </g>
     <g id="text_6">
      <!-- 0:02:30 -->
      <g transform="translate(349.725 270.918437) scale(0.1 -0.1)">
       <use xlink:href="#DejaVuSans-30"/>
       <use xlink:href="#DejaVuSans-3a" x="63.623047"/>
       <use xlink:href="#DejaVuSans-30" x="97.314453"/>
       <use xlink:href="#DejaVuSans-32" x="160.9375"/>
       <use xlink:href="#DejaVuSans-3a" x="224.560547"/>
       <use xlink:href="#DejaVuSans-33" x="258.251953"/>
       <use xlink:href="#DejaVuSans-30" x="321.875"/>
      </g>
     </g>
    </g>
    <g id="xtick_7">
     <g id="line2d_7">
      <g>
       <use xlink:href="#m77ba17f38a" x="419.727273" y="256.32" style="stroke: #000000; stroke-width: 0.8"/>
      </g>
     </g>
     <g id="text_7">
      <!-- 0:03:00 -->
      <g transform="translate(400.452273 270.918437) scale(0.1 -0.1)">
       <use xlink:href="#DejaVuSans-30"/>
       <use xlink:href="#DejaVuSans-3a" x="63.623047"/>
       <use xlink:href="#DejaVuSans-30" x="97.314453"/>
       <use xlink:href="#DejaVuSans-33" x="160.9375"/>
       <use xlink:href="#DejaVuSans-3a" x="224.560547"/>
       <use xlink:href="#DejaVuSans-30" x="258.251953"/>
       <use xlink:href="#DejaVuSans-30" x="321.875"/>
      </g>
     </g>
    </g>
    <g id="xtick_8">
     <g id="line2d_8">
      <g>
       <use xlink:href="#m77ba17f38a" x="470.454545" y="256.32" style="stroke: #000000; stroke-width: 0.8"/>
      </g>
     </g>
     <g id="text_8">
      <!-- 0:03:30 -->
      <g transform="translate(451.179545 270.918437) scale(0.1 -0.1)">
       <use xlink:href="#DejaVuSans-30"/>
       <use xlink:href="#DejaVuSans-3a" x="63.623047"/>
       <use xlink:href="#DejaVuSans-30" x="97.314453"/>
       <use xlink:href="#DejaVuSans-33" x="160.9375"/>
       <use xlink:href="#DejaVuSans-3a" x="224.560547"/>
       <use xlink:href="#DejaVuSans-33" x="258.251953"/>
       <use xlink:href="#DejaVuSans-30" x="321.875"/>
      </g>
     </g>
    </g>
    <g id="xtick_9">
     <g id="line2d_9">
      <g>
       <use xlink:href="#m77ba17f38a" x="521.181818" y="256.32" style="stroke: #000000; stroke-width: 0.8"/>
      </g>
     </g>
     <g id="text_9">
      <!-- 0:04:00 -->
      <g transform="translate(501.906818 270.918437) scale(0.1 -0.1)">
       <defs>
        <path id="DejaVuSans-34" d="M 2419 4116 
L 825 1625 
L 2419 1625 
L 2419 4116 
z
M 2253 4666 
L 3047 4666 
L 3047 1625 
L 3713 1625 
L 3713 1100 
L 3047 1100 
L 3047 0 
L 2419 0 
L 2419 1100 
L 313 1100 
L 313 1709 
L 2253 4666 
z
" transform="scale(0.015625)"/>
       </defs>
       <use xlink:href="#DejaVuSans-30"/>
       <use xlink:href="#DejaVuSans-3a" x="63.623047"/>
       <use xlink:href="#DejaVuSans-30" x="97.314453"/>
       <use xlink:href="#DejaVuSans-34" x="160.9375"/>
       <use xlink:href="#DejaVuSans-3a" x="224.560547"/>
       <use xlink:href="#DejaVuSans-30" x="258.251953"/>
       <use xlink:href="#DejaVuSans-30" x="321.875"/>
      </g>
     </g>
    </g>
    <g id="xtick_10">
     <g id="line2d_10">
      <g>
       <use xlink:href="#m77ba17f38a" x="571.909091" y="256.32" style="stroke: #000000; stroke-width: 0.8"/>
      </g>
     </g>
     <g id="text_10">
      <!-- 0:04:30 -->
      <g transform="translate(552.634091 270.918437) scale(0.1 -0.1)">
       <use xlink:href="#DejaVuSans-30"/>
       <use xlink:href="#DejaVuSans-3a" x="63.623047"/>
       <use xlink:href="#DejaVuSans-30" x="97.314453"/>
       <use xlink:href="#DejaVuSans-34" x="160.9375"/>
       <use xlink:href="#DejaVuSans-3a" x="224.560547"/>
       <use xlink:href="#DejaVuSans-33" x="258.251953"/>
       <use xlink:href="#DejaVuSans-30" x="321.875"/>
      </g>
     </g>
    </g>
    <g id="xtick_11">
     <g id="line2d_11">
      <g>
       <use xlink:href="#m77ba17f38a" x="622.636364" y="256.32" style="stroke: #000000; stroke-width: 0.8"/>
      </g>
     </g>
     <g id="text_11">
      <!-- 0:05:00 -->
      <g transform="translate(603.361364 270.918437) scale(0.1 -0.1)">
       <defs>
        <path id="DejaVuSans-35" d="M 691 4666 
L 3169 4666 
L 3169 4134 
L 1269 4134 
L 1269 2991 
Q 1406 3038 1543 3061 
Q 1681 3084 1819 3084 
Q 2600 3084 3056 2656 
Q 3513 2228 3513 1497 
Q 3513 744 3044 326 
Q 2575 -91 1722 -91 
Q 1428 -91 1123 -41 
Q 819 9 494 109 
L 494 744 
Q 775 591 1075 516 
Q 1375 441 1709 441 
Q 2250 441 2565 725 
Q 2881 1009 2881 1497 
Q 2881 1984 2565 2268 
Q 2250 2553 1709 2553 
Q 1456 2553 1204 2497 
Q 953 2441 691 2322 
L 691 4666 
z
" transform="scale(0.015625)"/>
       </defs>
       <use xlink:href="#DejaVuSans-30"/>
       <use xlink:href="#DejaVuSans-3a" x="63.623047"/>
       <use xlink:href="#DejaVuSans-30" x="97.314453"/>
       <use xlink:href="#DejaVuSans-35" x="160.9375"/>
       <use xlink:href="#DejaVuSans-3a" x="224.560547"/>
       <use xlink:href="#DejaVuSans-30" x="258.251953"/>
       <use xlink:href="#DejaVuSans-30" x="321.875"/>
      </g>
     </g>
    </g>
    <g id="text_12">
     <!-- Time -->
     <g transform="translate(356.766406 284.596563) scale(0.1 -0.1)">
      <defs>
       <path id="DejaVuSans-54" d="M -19 4666 
L 3928 4666 
L 3928 4134 
L 2272 4134 
L 2272 0 
L 1638 0 
L 1638 4134 
L -19 4134 
L -19 4666 
z
" transform="scale(0.015625)"/>
       <path id="DejaVuSans-69" d="M 603 3500 
L 1178 3500 
L 1178 0 
L 603 0 
L 603 3500 
z
M 603 4863 
L 1178 4863 
L 1178 4134 
L 603 4134 
L 603 4863 
z
" transform="scale(0.015625)"/>
       <path id="DejaVuSans-6d" d="M 3328 2828 
Q 3544 3216 3844 3400 
Q 4144 3584 4550 3584 
Q 5097 3584 5394 3201 
Q 5691 2819 5691 2113 
L 5691 0 
L 5113 0 
L 5113 2094 
Q 5113 2597 4934 2840 
Q 4756 3084 4391 3084 
Q 3944 3084 3684 2787 
Q 3425 2491 3425 1978 
L 3425 0 
L 2847 0 
L 2847 2094 
Q 2847 2600 2669 2842 
Q 2491 3084 2119 3084 
Q 1678 3084 1418 2786 
Q 1159 2488 1159 1978 
L 1159 0 
L 581 0 
L 581 3500 
L 1159 3500 
L 1159 2956 
Q 1356 3278 1631 3431 
Q 1906 3584 2284 3584 
Q 2666 3584 2933 3390 
Q 3200 3197 3328 2828 
z
" transform="scale(0.015625)"/>
       <path id="DejaVuSans-65" d="M 3597 1894 
L 3597 1613 
L 953 1613 
Q 991 1019 1311 708 
Q 1631 397 2203 397 
Q 2534 397 2845 478 
Q 3156 559 3463 722 
L 3463 178 
Q 3153 47 2828 -22 
Q 2503 -91 2169 -91 
Q 1331 -91 842 396 
Q 353 884 353 1716 
Q 353 2575 817 3079 
Q 1281 3584 2069 3584 
Q 2775 3584 3186 3129 
Q 3597 2675 3597 1894 
z
M 3022 2063 
Q 3016 2534 2758 2815 
Q 2500 3097 2075 3097 
Q 1594 3097 1305 2825 
Q 1016 2553 972 2059 
L 3022 2063 
z
" transform="scale(0.015625)"/>
      </defs>
      <use xlink:href="#DejaVuSans-54"/>
      <use xlink:href="#DejaVuSans-69" x="57.958984"/>
      <use xlink:href="#DejaVuSans-6d" x="85.742188"/>
      <use xlink:href="#DejaVuSans-65" x="183.154297"/>
     </g>
    </g>
   </g>
   <g id="matplotlib.axis_2">
    <g id="ytick_1">
     <g id="line2d_12">
      <path d="M 90 246.24 
L 648 246.24 
" clip-path="url(#p800c1ca533)" style="fill: none; stroke: #b0b0b0; stroke-width: 0.8; stroke-linecap: square"/>
     </g>
     <g id="line2d_13">
      <defs>
       <path id="me1cb6223bc" d="M 0 0 
L -3.5 0 
" style="stroke: #000000; stroke-width: 0.8"/>
      </defs>
      <g>
       <use xlink:href="#me1cb6223bc" x="90" y="246.24" style="stroke: #000000; stroke-width: 0.8"/>
      </g>
     </g>
     <g id="text_13">
      <!-- 0 -->
      <g transform="translate(76.6375 250.039219) scale(0.1 -0.1)">
       <use xlink:href="#DejaVuSans-30"/>
      </g>
     </g>
    </g>
    <g id="ytick_2">
     <g id="line2d_14">
      <path d="M 90 220.675709 
L 648 220.675709 
" clip-path="url(#p800c1ca533)" style="fill: none; stroke: #b0b0b0; stroke-width: 0.8; stroke-linecap: square"/>
     </g>
     <g id="line2d_15">
      <g>
       <use xlink:href="#me1cb6223bc" x="90" y="220.675709" style="stroke: #000000; stroke-width: 0.8"/>
      </g>
     </g>
     <g id="text_14">
      <!-- 500 -->
      <g transform="translate(63.9125 224.474928) scale(0.1 -0.1)">
       <use xlink:href="#DejaVuSans-35"/>
       <use xlink:href="#DejaVuSans-30" x="63.623047"/>
       <use xlink:href="#DejaVuSans-30" x="127.246094"/>
      </g>
     </g>
    </g>
    <g id="ytick_3">
     <g id="line2d_16">
      <path d="M 90 195.111418 
L 648 195.111418 
" clip-path="url(#p800c1ca533)" style="fill: none; stroke: #b0b0b0; stroke-width: 0.8; stroke-linecap: square"/>
     </g>
     <g id="line2d_17">
      <g>
       <use xlink:href="#me1cb6223bc" x="90" y="195.111418" style="stroke: #000000; stroke-width: 0.8"/>
      </g>
     </g>
     <g id="text_15">
      <!-- 1,000 -->
      <g transform="translate(54.371875 198.910636) scale(0.1 -0.1)">
       <defs>
        <path id="DejaVuSans-2c" d="M 750 794 
L 1409 794 
L 1409 256 
L 897 -744 
L 494 -744 
L 750 256 
L 750 794 
z
" transform="scale(0.015625)"/>
       </defs>
       <use xlink:href="#DejaVuSans-31"/>
       <use xlink:href="#DejaVuSans-2c" x="63.623047"/>
       <use xlink:href="#DejaVuSans-30" x="95.410156"/>
       <use xlink:href="#DejaVuSans-30" x="159.033203"/>
       <use xlink:href="#DejaVuSans-30" x="222.65625"/>
      </g>
     </g>
    </g>
    <g id="ytick_4">
     <g id="line2d_18">
      <path d="M 90 169.547127 
L 648 169.547127 
" clip-path="url(#p800c1ca533)" style="fill: none; stroke: #b0b0b0; stroke-width: 0.8; stroke-linecap: square"/>
     </g>
     <g id="line2d_19">
      <g>
       <use xlink:href="#me1cb6223bc" x="90" y="169.547127" style="stroke: #000000; stroke-width: 0.8"/>
      </g>
     </g>
     <g id="text_16">
      <!-- 1,500 -->
      <g transform="translate(54.371875 173.346345) scale(0.1 -0.1)">
       <use xlink:href="#DejaVuSans-31"/>
       <use xlink:href="#DejaVuSans-2c" x="63.623047"/>
       <use xlink:href="#DejaVuSans-35" x="95.410156"/>
       <use xlink:href="#DejaVuSans-30" x="159.033203"/>
       <use xlink:href="#DejaVuSans-30" x="222.65625"/>
      </g>
     </g>
    </g>
    <g id="ytick_5">
     <g id="line2d_20">
      <path d="M 90 143.982835 
L 648 143.982835 
" clip-path="url(#p800c1ca533)" style="fill: none; stroke: #b0b0b0; stroke-width: 0.8; stroke-linecap: square"/>
     </g>
     <g id="line2d_21">
      <g>
       <use xlink:href="#me1cb6223bc" x="90" y="143.982835" style="stroke: #000000; stroke-width: 0.8"/>
      </g>
     </g>
     <g id="text_17">
      <!-- 2,000 -->
      <g transform="translate(54.371875 147.782054) scale(0.1 -0.1)">
       <use xlink:href="#DejaVuSans-32"/>
       <use xlink:href="#DejaVuSans-2c" x="63.623047"/>
       <use xlink:href="#DejaVuSans-30" x="95.410156"/>
       <use xlink:href="#DejaVuSans-30" x="159.033203"/>
       <use xlink:href="#DejaVuSans-30" x="222.65625"/>
      </g>
     </g>
    </g>
    <g id="ytick_6">
     <g id="line2d_22">
      <path d="M 90 118.418544 
L 648 118.418544 
" clip-path="url(#p800c1ca533)" style="fill: none; stroke: #b0b0b0; stroke-width: 0.8; stroke-linecap: square"/>
     </g>
     <g id="line2d_23">
      <g>
       <use xlink:href="#me1cb6223bc" x="90" y="118.418544" style="stroke: #000000; stroke-width: 0.8"/>
      </g>
     </g>
     <g id="text_18">
      <!-- 2,500 -->
      <g transform="translate(54.371875 122.217763) scale(0.1 -0.1)">
       <use xlink:href="#DejaVuSans-32"/>
       <use xlink:href="#DejaVuSans-2c" x="63.623047"/>
       <use xlink:href="#DejaVuSans-35" x="95.410156"/>
       <use xlink:href="#DejaVuSans-30" x="159.033203"/>
       <use xlink:href="#DejaVuSans-30" x="222.65625"/>
      </g>
     </g>
    </g>
    <g id="ytick_7">
     <g id="line2d_24">
      <path d="M 90 92.854253 
L 648 92.854253 
" clip-path="url(#p800c1ca533)" style="fill: none; stroke: #b0b0b0; stroke-width: 0.8; stroke-linecap: square"/>
     </g>
     <g id="line2d_25">
      <g>
       <use xlink:href="#me1cb6223bc" x="90" y="92.854253" style="stroke: #000000; stroke-width: 0.8"/>
      </g>
     </g>
     <g id="text_19">
      <!-- 3,000 -->
      <g transform="translate(54.371875 96.653472) scale(0.1 -0.1)">
       <use xlink:href="#DejaVuSans-33"/>
       <use xlink:href="#DejaVuSans-2c" x="63.623047"/>
       <use xlink:href="#DejaVuSans-30" x="95.410156"/>
       <use xlink:href="#DejaVuSans-30" x="159.033203"/>
       <use xlink:href="#DejaVuSans-30" x="222.65625"/>
      </g>
     </g>
    </g>
    <g id="ytick_8">
     <g id="line2d_26">
      <path d="M 90 67.289962 
L 648 67.289962 
" clip-path="url(#p800c1ca533)" style="fill: none; stroke: #b0b0b0; stroke-width: 0.8; stroke-linecap: square"/>
     </g>
     <g id="line2d_27">
      <g>
       <use xlink:href="#me1cb6223bc" x="90" y="67.289962" style="stroke: #000000; stroke-width: 0.8"/>
      </g>
     </g>
     <g id="text_20">
      <!-- 3,500 -->
      <g transform="translate(54.371875 71.089181) scale(0.1 -0.1)">
       <use xlink:href="#DejaVuSans-33"/>
       <use xlink:href="#DejaVuSans-2c" x="63.623047"/>
       <use xlink:href="#DejaVuSans-35" x="95.410156"/>
       <use xlink:href="#DejaVuSans-30" x="159.033203"/>
       <use xlink:href="#DejaVuSans-30" x="222.65625"/>
      </g>
     </g>
    </g>
    <g id="ytick_9">
     <g id="line2d_28">
      <path d="M 90 41.725671 
L 648 41.725671 
" clip-path="url(#p800c1ca533)" style="fill: none; stroke: #b0b0b0; stroke-width: 0.8; stroke-linecap: square"/>
     </g>
     <g id="line2d_29">
      <g>
       <use xlink:href="#me1cb6223bc" x="90" y="41.725671" style="stroke: #000000; stroke-width: 0.8"/>
      </g>
     </g>
     <g id="text_21">
      <!-- 4,000 -->
      <g transform="translate(54.371875 45.52489) scale(0.1 -0.1)">
       <use xlink:href="#DejaVuSans-34"/>
       <use xlink:href="#DejaVuSans-2c" x="63.623047"/>
       <use xlink:href="#DejaVuSans-30" x="95.410156"/>
       <use xlink:href="#DejaVuSans-30" x="159.033203"/>
       <use xlink:href="#DejaVuSans-30" x="222.65625"/>
      </g>
     </g>
    </g>
    <g id="text_22">
     <!-- Bitrate (kbit/s) -->
     <g transform="translate(48.292187 181.574375) rotate(-90) scale(0.1 -0.1)">
      <defs>
       <path id="DejaVuSans-42" d="M 1259 2228 
L 1259 519 
L 2272 519 
Q 2781 519 3026 730 
Q 3272 941 3272 1375 
Q 3272 1813 3026 2020 
Q 2781 2228 2272 2228 
L 1259 2228 
z
M 1259 4147 
L 1259 2741 
L 2194 2741 
Q 2656 2741 2882 2914 
Q 3109 3088 3109 3444 
Q 3109 3797 2882 3972 
Q 2656 4147 2194 4147 
L 1259 4147 
z
M 628 4666 
L 2241 4666 
Q 2963 4666 3353 4366 
Q 3744 4066 3744 3513 
Q 3744 3084 3544 2831 
Q 3344 2578 2956 2516 
Q 3422 2416 3680 2098 
Q 3938 1781 3938 1306 
Q 3938 681 3513 340 
Q 3088 0 2303 0 
L 628 0 
L 628 4666 
z
" transform="scale(0.015625)"/>
       <path id="DejaVuSans-74" d="M 1172 4494 
L 1172 3500 
L 2356 3500 
L 2356 3053 
L 1172 3053 
L 1172 1153 
Q 1172 725 1289 603 
Q 1406 481 1766 481 
L 2356 481 
L 2356 0 
L 1766 0 
Q 1100 0 847 248 
Q 594 497 594 1153 
L 594 3053 
L 172 3053 
L 172 3500 
L 594 3500 
L 594 4494 
L 1172 4494 
z
" transform="scale(0.015625)"/>
       <path id="DejaVuSans-72" d="M 2631 2963 
Q 2534 3019 2420 3045 
Q 2306 3072 2169 3072 
Q 1681 3072 1420 2755 
Q 1159 2438 1159 1844 
L 1159 0 
L 581 0 
L 581 3500 
L 1159 3500 
L 1159 2956 
Q 1341 3275 1631 3429 
Q 1922 3584 2338 3584 
Q 2397 3584 2469 3576 
Q 2541 3569 2628 3553 
L 2631 2963 
z
" transform="scale(0.015625)"/>
       <path id="DejaVuSans-61" d="M 2194 1759 
Q 1497 1759 1228 1600 
Q 959 1441 959 1056 
Q 959 750 1161 570 
Q 1363 391 1709 391 
Q 2188 391 2477 730 
Q 2766 1069 2766 1631 
L 2766 1759 
L 2194 1759 
z
M 3341 1997 
L 3341 0 
L 2766 0 
L 2766 531 
Q 2569 213 2275 61 
Q 1981 -91 1556 -91 
Q 1019 -91 701 211 
Q 384 513 384 1019 
Q 384 1609 779 1909 
Q 1175 2209 1959 2209 
L 2766 2209 
L 2766 2266 
Q 2766 2663 2505 2880 
Q 2244 3097 1772 3097 
Q 1472 3097 1187 3025 
Q 903 2953 641 2809 
L 641 3341 
Q 956 3463 1253 3523 
Q 1550 3584 1831 3584 
Q 2591 3584 2966 3190 
Q 3341 2797 3341 1997 
z
" transform="scale(0.015625)"/>
       <path id="DejaVuSans-20" transform="scale(0.015625)"/>
       <path id="DejaVuSans-28" d="M 1984 4856 
Q 1566 4138 1362 3434 
Q 1159 2731 1159 2009 
Q 1159 1288 1364 580 
Q 1569 -128 1984 -844 
L 1484 -844 
Q 1016 -109 783 600 
Q 550 1309 550 2009 
Q 550 2706 781 3412 
Q 1013 4119 1484 4856 
L 1984 4856 
z
" transform="scale(0.015625)"/>
       <path id="DejaVuSans-6b" d="M 581 4863 
L 1159 4863 
L 1159 1991 
L 2875 3500 
L 3609 3500 
L 1753 1863 
L 3688 0 
L 2938 0 
L 1159 1709 
L 1159 0 
L 581 0 
L 581 4863 
z
" transform="scale(0.015625)"/>
       <path id="DejaVuSans-62" d="M 3116 1747 
Q 3116 2381 2855 2742 
Q 2594 3103 2138 3103 
Q 1681 3103 1420 2742 
Q 1159 2381 1159 1747 
Q 1159 1113 1420 752 
Q 1681 391 2138 391 
Q 2594 391 2855 752 
Q 3116 1113 3116 1747 
z
M 1159 2969 
Q 1341 3281 1617 3432 
Q 1894 3584 2278 3584 
Q 2916 3584 3314 3078 
Q 3713 2572 3713 1747 
Q 3713 922 3314 415 
Q 2916 -91 2278 -91 
Q 1894 -91 1617 61 
Q 1341 213 1159 525 
L 1159 0 
L 581 0 
L 581 4863 
L 1159 4863 
L 1159 2969 
z
" transform="scale(0.015625)"/>
       <path id="DejaVuSans-2f" d="M 1625 4666 
L 2156 4666 
L 531 -594 
L 0 -594 
L 1625 4666 
z
" transform="scale(0.015625)"/>
       <path id="DejaVuSans-73" d="M 2834 3397 
L 2834 2853 
Q 2591 2978 2328 3040 
Q 2066 3103 1784 3103 
Q 1356 3103 1142 2972 
Q 928 2841 928 2578 
Q 928 2378 1081 2264 
Q 1234 2150 1697 2047 
L 1894 2003 
Q 2506 1872 2764 1633 
Q 3022 1394 3022 966 
Q 3022 478 2636 193 
Q 2250 -91 1575 -91 
Q 1294 -91 989 -36 
Q 684 19 347 128 
L 347 722 
Q 666 556 975 473 
Q 1284 391 1588 391 
Q 1994 391 2212 530 
Q 2431 669 2431 922 
Q 2431 1156 2273 1281 
Q 2116 1406 1581 1522 
L 1381 1569 
Q 847 1681 609 1914 
Q 372 2147 372 2553 
Q 372 3047 722 3315 
Q 1072 3584 1716 3584 
Q 2034 3584 2315 3537 
Q 2597 3491 2834 3397 
z
" transform="scale(0.015625)"/>
       <path id="DejaVuSans-29" d="M 513 4856 
L 1013 4856 
Q 1481 4119 1714 3412 
Q 1947 2706 1947 2009 
Q 1947 1309 1714 600 
Q 1481 -109 1013 -844 
L 513 -844 
Q 928 -128 1133 580 
Q 1338 1288 1338 2009 
Q 1338 2731 1133 3434 
Q 928 4138 513 4856 
z
" transform="scale(0.015625)"/>
      </defs>
      <use xlink:href="#DejaVuSans-42"/>
      <use xlink:href="#DejaVuSans-69" x="68.603516"/>
      <use xlink:href="#DejaVuSans-74" x="96.386719"/>
      <use xlink:href="#DejaVuSans-72" x="135.595703"/>
      <use xlink:href="#DejaVuSans-61" x="176.708984"/>
      <use xlink:href="#DejaVuSans-74" x="237.988281"/>
      <use xlink:href="#DejaVuSans-65" x="277.197266"/>
      <use xlink:href="#DejaVuSans-20" x="338.720703"/>
      <use xlink:href="#DejaVuSans-28" x="370.507812"/>
      <use xlink:href="#DejaVuSans-6b" x="409.521484"/>
      <use xlink:href="#DejaVuSans-62" x="467.431641"/>
      <use xlink:href="#DejaVuSans-69" x="530.908203"/>
      <use xlink:href="#DejaVuSans-74" x="558.691406"/>
      <use xlink:href="#DejaVuSans-2f" x="597.900391"/>
      <use xlink:href="#DejaVuSans-73" x="631.591797"/>
      <use xlink:href="#DejaVuSans-29" x="683.691406"/>
     </g>
    </g>
   </g>
   <g id="PolyCollection_1">
    <defs>
     <path id="m5d7590fd97" d="M 115.363636 -42.935957 
L 115.363636 -41.76 
L 117.054545 -41.76 
L 118.745455 -41.76 
L 120.436364 -41.76 
L 122.127273 -41.76 
L 123.818182 -41.76 
L 125.509091 -41.76 
L 127.2 -41.76 
L 128.890909 -41.76 
L 130.581818 -41.76 
L 132.272727 -41.76 
L 133.963636 -41.76 
L 135.654545 -41.76 
L 137.345455 -41.76 
L 139.036364 -41.76 
L 140.727273 -41.76 
L 142.418182 -41.76 
L 144.109091 -41.76 
L 145.8 -41.76 
L 147.490909 -41.76 
L 149.181818 -41.76 
L 150.872727 -41.76 
L 152.563636 -41.76 
L 154.254545 -41.76 
L 155.945455 -41.76 
L 157.636364 -41.76 
L 159.327273 -41.76 
L 161.018182 -41.76 
L 162.709091 -41.76 
L 164.4 -41.76 
L 166.090909 -41.76 
L 167.781818 -41.76 
L 169.472727 -41.76 
L 171.163636 -41.76 
L 172.854545 -41.76 
L 174.545455 -41.76 
L 176.236364 -41.76 
L 177.927273 -41.76 
L 179.618182 -41.76 
L 181.309091 -41.76 
L 183 -41.76 
L 184.690909 -41.76 
L 186.381818 -41.76 
L 188.072727 -41.76 
L 189.763636 -41.76 
L 191.454545 -41.76 
L 193.145455 -41.76 
L 194.836364 -41.76 
L 196.527273 -41.76 
L 198.218182 -41.76 
L 199.909091 -41.76 
L 201.6 -41.76 
L 203.290909 -41.76 
L 204.981818 -41.76 
L 206.672727 -41.76 
L 208.363636 -41.76 
L 210.054545 -41.76 
L 211.745455 -41.76 
L 213.436364 -41.76 
L 215.127273 -41.76 
L 216.818182 -41.76 
L 218.509091 -41.76 
L 220.2 -41.76 
L 221.890909 -41.76 
L 223.581818 -41.76 
L 225.272727 -41.76 
L 226.963636 -41.76 
L 228.654545 -41.76 
L 230.345455 -41.76 
L 232.036364 -41.76 
L 233.727273 -41.76 
L 235.418182 -41.76 
L 237.109091 -41.76 
L 238.8 -41.76 
L 240.490909 -41.76 
L 242.181818 -41.76 
L 243.872727 -41.76 
L 245.563636 -41.76 
L 247.254545 -41.76 
L 248.945455 -41.76 
L 250.636364 -41.76 
L 252.327273 -41.76 
L 254.018182 -41.76 
L 255.709091 -41.76 
L 257.4 -41.76 
L 259.090909 -41.76 
L 260.781818 -41.76 
L 262.472727 -41.76 
L 264.163636 -41.76 
L 265.854545 -41.76 
L 267.545455 -41.76 
L 269.236364 -41.76 
L 270.927273 -41.76 
L 272.618182 -41.76 
L 274.309091 -41.76 
L 276 -41.76 
L 277.690909 -41.76 
L 279.381818 -41.76 
L 281.072727 -41.76 
L 282.763636 -41.76 
L 284.454545 -41.76 
L 286.145455 -41.76 
L 287.836364 -41.76 
L 289.527273 -41.76 
L 291.218182 -41.76 
L 292.909091 -41.76 
L 294.6 -41.76 
L 296.290909 -41.76 
L 297.981818 -41.76 
L 299.672727 -41.76 
L 301.363636 -41.76 
L 303.054545 -41.76 
L 304.745455 -41.76 
L 306.436364 -41.76 
L 308.127273 -41.76 
L 309.818182 -41.76 
L 311.509091 -41.76 
L 313.2 -41.76 
L 314.890909 -41.76 
L 316.581818 -41.76 
L 318.272727 -41.76 
L 319.963636 -41.76 
L 321.654545 -41.76 
L 323.345455 -41.76 
L 325.036364 -41.76 
L 326.727273 -41.76 
L 328.418182 -41.76 
L 330.109091 -41.76 
L 331.8 -41.76 
L 333.490909 -41.76 
L 335.181818 -41.76 
L 336.872727 -41.76 
L 338.563636 -41.76 
L 340.254545 -41.76 
L 341.945455 -41.76 
L 343.636364 -41.76 
L 345.327273 -41.76 
L 347.018182 -41.76 
L 348.709091 -41.76 
L 350.4 -41.76 
L 352.090909 -41.76 
L 353.781818 -41.76 
L 355.472727 -41.76 
L 357.163636 -41.76 
L 358.854545 -41.76 
L 360.545455 -41.76 
L 362.236364 -41.76 
L 363.927273 -41.76 
L 365.618182 -41.76 
L 367.309091 -41.76 
L 369 -41.76 
L 370.690909 -41.76 
L 372.381818 -41.76 
L 374.072727 -41.76 
L 375.763636 -41.76 
L 377.454545 -41.76 
L 379.145455 -41.76 
L 380.836364 -41.76 
L 382.527273 -41.76 
L 384.218182 -41.76 
L 385.909091 -41.76 
L 387.6 -41.76 
L 389.290909 -41.76 
L 390.981818 -41.76 
L 392.672727 -41.76 
L 394.363636 -41.76 
L 396.054545 -41.76 
L 397.745455 -41.76 
L 399.436364 -41.76 
L 401.127273 -41.76 
L 402.818182 -41.76 
L 404.509091 -41.76 
L 406.2 -41.76 
L 407.890909 -41.76 
L 409.581818 -41.76 
L 411.272727 -41.76 
L 412.963636 -41.76 
L 414.654545 -41.76 
L 416.345455 -41.76 
L 418.036364 -41.76 
L 419.727273 -41.76 
L 421.418182 -41.76 
L 423.109091 -41.76 
L 424.8 -41.76 
L 426.490909 -41.76 
L 428.181818 -41.76 
L 429.872727 -41.76 
L 431.563636 -41.76 
L 433.254545 -41.76 
L 434.945455 -41.76 
L 436.636364 -41.76 
L 438.327273 -41.76 
L 440.018182 -41.76 
L 441.709091 -41.76 
L 443.4 -41.76 
L 445.090909 -41.76 
L 446.781818 -41.76 
L 448.472727 -41.76 
L 450.163636 -41.76 
L 451.854545 -41.76 
L 453.545455 -41.76 
L 455.236364 -41.76 
L 456.927273 -41.76 
L 458.618182 -41.76 
L 460.309091 -41.76 
L 462 -41.76 
L 463.690909 -41.76 
L 465.381818 -41.76 
L 467.072727 -41.76 
L 468.763636 -41.76 
L 470.454545 -41.76 
L 472.145455 -41.76 
L 473.836364 -41.76 
L 475.527273 -41.76 
L 477.218182 -41.76 
L 478.909091 -41.76 
L 480.6 -41.76 
L 482.290909 -41.76 
L 483.981818 -41.76 
L 485.672727 -41.76 
L 487.363636 -41.76 
L 489.054545 -41.76 
L 490.745455 -41.76 
L 492.436364 -41.76 
L 494.127273 -41.76 
L 495.818182 -41.76 
L 497.509091 -41.76 
L 499.2 -41.76 
L 500.890909 -41.76 
L 502.581818 -41.76 
L 504.272727 -41.76 
L 505.963636 -41.76 
L 507.654545 -41.76 
L 509.345455 -41.76 
L 511.036364 -41.76 
L 512.727273 -41.76 
L 514.418182 -41.76 
L 516.109091 -41.76 
L 517.8 -41.76 
L 519.490909 -41.76 
L 521.181818 -41.76 
L 522.872727 -41.76 
L 524.563636 -41.76 
L 526.254545 -41.76 
L 527.945455 -41.76 
L 529.636364 -41.76 
L 531.327273 -41.76 
L 533.018182 -41.76 
L 534.709091 -41.76 
L 536.4 -41.76 
L 538.090909 -41.76 
L 539.781818 -41.76 
L 541.472727 -41.76 
L 543.163636 -41.76 
L 544.854545 -41.76 
L 546.545455 -41.76 
L 548.236364 -41.76 
L 549.927273 -41.76 
L 551.618182 -41.76 
L 553.309091 -41.76 
L 555 -41.76 
L 556.690909 -41.76 
L 558.381818 -41.76 
L 560.072727 -41.76 
L 561.763636 -41.76 
L 563.454545 -41.76 
L 565.145455 -41.76 
L 566.836364 -41.76 
L 568.527273 -41.76 
L 570.218182 -41.76 
L 571.909091 -41.76 
L 573.6 -41.76 
L 575.290909 -41.76 
L 576.981818 -41.76 
L 578.672727 -41.76 
L 580.363636 -41.76 
L 582.054545 -41.76 
L 583.745455 -41.76 
L 585.436364 -41.76 
L 587.127273 -41.76 
L 588.818182 -41.76 
L 590.509091 -41.76 
L 592.2 -41.76 
L 593.890909 -41.76 
L 595.581818 -41.76 
L 597.272727 -41.76 
L 598.963636 -41.76 
L 600.654545 -41.76 
L 602.345455 -41.76 
L 604.036364 -41.76 
L 605.727273 -41.76 
L 607.418182 -41.76 
L 609.109091 -41.76 
L 610.8 -41.76 
L 612.490909 -41.76 
L 614.181818 -41.76 
L 615.872727 -41.76 
L 617.563636 -41.76 
L 619.254545 -41.76 
L 620.945455 -41.76 
L 622.636364 -41.76 
L 622.636364 -41.76 
L 622.636364 -41.76 
L 620.945455 -63.643033 
L 619.254545 -41.76 
L 617.563636 -41.76 
L 615.872727 -67.682191 
L 614.181818 -41.76 
L 612.490909 -41.76 
L 610.8 -112.777601 
L 609.109091 -41.76 
L 607.418182 -41.76 
L 605.727273 -41.76 
L 604.036364 -123.514603 
L 602.345455 -41.76 
L 600.654545 -41.76 
L 598.963636 -41.76 
L 597.272727 -72.232635 
L 595.581818 -91.814882 
L 593.890909 -41.76 
L 592.2 -98.308212 
L 590.509091 -41.76 
L 588.818182 -60.933218 
L 587.127273 -41.76 
L 585.436364 -107.000071 
L 583.745455 -41.76 
L 582.054545 -41.76 
L 580.363636 -41.76 
L 578.672727 -106.335399 
L 576.981818 -41.76 
L 575.290909 -41.76 
L 573.6 -41.76 
L 571.909091 -68.44912 
L 570.218182 -41.76 
L 568.527273 -75.198093 
L 566.836364 -77.754522 
L 565.145455 -41.76 
L 563.454545 -60.064032 
L 561.763636 -41.76 
L 560.072727 -143.301364 
L 558.381818 -41.76 
L 556.690909 -89.309582 
L 555 -41.76 
L 553.309091 -55.769232 
L 551.618182 -100.251098 
L 549.927273 -41.76 
L 548.236364 -54.133117 
L 546.545455 -55.155689 
L 544.854545 -41.76 
L 543.163636 -41.76 
L 541.472727 -66.250591 
L 539.781818 -41.76 
L 538.090909 -41.76 
L 536.4 -41.76 
L 534.709091 -41.76 
L 533.018182 -117.48143 
L 531.327273 -148.465351 
L 529.636364 -61.546761 
L 527.945455 -41.76 
L 526.254545 -41.76 
L 524.563636 -41.76 
L 522.872727 -62.160304 
L 521.181818 -41.76 
L 519.490909 -41.76 
L 517.8 -41.76 
L 516.109091 -41.76 
L 514.418182 -70.59652 
L 512.727273 -41.76 
L 511.036364 -123.97476 
L 509.345455 -41.76 
L 507.654545 -41.76 
L 505.963636 -41.76 
L 504.272727 -69.318306 
L 502.581818 -41.76 
L 500.890909 -154.600781 
L 499.2 -41.76 
L 497.509091 -41.76 
L 495.818182 -82.50948 
L 494.127273 -52.906031 
L 492.436364 -41.76 
L 490.745455 -63.796419 
L 489.054545 -41.76 
L 487.363636 -41.76 
L 485.672727 -41.76 
L 483.981818 -67.273163 
L 482.290909 -41.76 
L 480.6 -68.193477 
L 478.909091 -41.76 
L 477.218182 -41.76 
L 475.527273 -66.608491 
L 473.836364 -41.76 
L 472.145455 -59.143718 
L 470.454545 -70.187492 
L 468.763636 -41.76 
L 467.072727 -85.423809 
L 465.381818 -41.76 
L 463.690909 -41.76 
L 462 -41.76 
L 460.309091 -68.09122 
L 458.618182 -41.76 
L 456.927273 -41.76 
L 455.236364 -58.785818 
L 453.545455 -60.830961 
L 451.854545 -54.644403 
L 450.163636 -41.76 
L 448.472727 -41.76 
L 446.781818 -56.638417 
L 445.090909 -41.76 
L 443.4 -41.76 
L 441.709091 -82.611737 
L 440.018182 -41.76 
L 438.327273 -41.76 
L 436.636364 -48.96913 
L 434.945455 -72.692792 
L 433.254545 -41.76 
L 431.563636 -41.76 
L 429.872727 -41.76 
L 428.181818 -41.76 
L 426.490909 -80.822237 
L 424.8 -41.76 
L 423.109091 -74.58455 
L 421.418182 -41.76 
L 419.727273 -83.736566 
L 418.036364 -41.76 
L 416.345455 -52.95716 
L 414.654545 -41.76 
L 412.963636 -41.76 
L 411.272727 -41.76 
L 409.581818 -41.76 
L 407.890909 -54.491017 
L 406.2 -87.162181 
L 404.509091 -41.76 
L 402.818182 -58.018889 
L 401.127273 -41.76 
L 399.436364 -41.76 
L 397.745455 -86.804281 
L 396.054545 -56.331646 
L 394.363636 -88.184753 
L 392.672727 -87.111052 
L 390.981818 -41.76 
L 389.290909 -41.76 
L 387.6 -41.76 
L 385.909091 -94.217925 
L 384.218182 -41.76 
L 382.527273 -41.76 
L 380.836364 -77.243236 
L 379.145455 -41.76 
L 377.454545 -41.76 
L 375.763636 -41.76 
L 374.072727 -82.458352 
L 372.381818 -41.76 
L 370.690909 -41.76 
L 369 -172.342399 
L 367.309091 -41.76 
L 365.618182 -41.76 
L 363.927273 -67.784448 
L 362.236364 -41.76 
L 360.545455 -41.76 
L 358.854545 -41.76 
L 357.163636 -77.396622 
L 355.472727 -41.76 
L 353.781818 -41.76 
L 352.090909 -41.76 
L 350.4 -76.680822 
L 348.709091 -41.76 
L 347.018182 -41.76 
L 345.327273 -41.76 
L 343.636364 -73.766493 
L 341.945455 -41.76 
L 340.254545 -41.76 
L 338.563636 -41.76 
L 336.872727 -80.00418 
L 335.181818 -41.76 
L 333.490909 -41.76 
L 331.8 -41.76 
L 330.109091 -76.01615 
L 328.418182 -41.76 
L 326.727273 -72.334892 
L 325.036364 -41.76 
L 323.345455 -41.76 
L 321.654545 -93.911154 
L 319.963636 -93.757768 
L 318.272727 -41.76 
L 316.581818 -41.76 
L 314.890909 -41.76 
L 313.2 -108.533928 
L 311.509091 -50.656373 
L 309.818182 -41.76 
L 308.127273 -41.76 
L 306.436364 -41.76 
L 304.745455 -53.877474 
L 303.054545 -41.76 
L 301.363636 -41.76 
L 299.672727 -41.76 
L 297.981818 -54.337631 
L 296.290909 -41.76 
L 294.6 -41.76 
L 292.909091 -41.76 
L 291.218182 -120.75366 
L 289.527273 -41.76 
L 287.836364 -41.76 
L 286.145455 -41.76 
L 284.454545 -41.76 
L 282.763636 -67.937834 
L 281.072727 -41.76 
L 279.381818 -41.76 
L 277.690909 -41.76 
L 276 -73.919878 
L 274.309091 -93.502125 
L 272.618182 -41.76 
L 270.927273 -69.829592 
L 269.236364 -41.76 
L 267.545455 -41.76 
L 265.854545 -41.76 
L 264.163636 -67.73332 
L 262.472727 -41.76 
L 260.781818 -41.76 
L 259.090909 -41.76 
L 257.4 -90.894568 
L 255.709091 -41.76 
L 254.018182 -41.76 
L 252.327273 -41.76 
L 250.636364 -41.76 
L 248.945455 -92.479554 
L 247.254545 -41.76 
L 245.563636 -58.223403 
L 243.872727 -41.76 
L 242.181818 -117.48143 
L 240.490909 -41.76 
L 238.8 -77.907908 
L 237.109091 -54.184245 
L 235.418182 -41.76 
L 233.727273 -41.76 
L 232.036364 -41.76 
L 230.345455 -100.455612 
L 228.654545 -41.76 
L 226.963636 -41.76 
L 225.272727 -62.211433 
L 223.581818 -61.802404 
L 221.890909 -41.76 
L 220.2 -41.76 
L 218.509091 -41.76 
L 216.818182 -96.467583 
L 215.127273 -41.76 
L 213.436364 -41.76 
L 211.745455 -41.76 
L 210.054545 -97.336769 
L 208.363636 -41.76 
L 206.672727 -41.76 
L 204.981818 -41.76 
L 203.290909 -121.520588 
L 201.6 -41.76 
L 199.909091 -41.76 
L 198.218182 -41.76 
L 196.527273 -80.413208 
L 194.836364 -41.76 
L 193.145455 -41.76 
L 191.454545 -41.76 
L 189.763636 -41.76 
L 188.072727 -83.94108 
L 186.381818 -41.76 
L 184.690909 -41.76 
L 183 -41.76 
L 181.309091 -108.942957 
L 179.618182 -41.76 
L 177.927273 -41.76 
L 176.236364 -41.76 
L 174.545455 -115.947573 
L 172.854545 -41.76 
L 171.163636 -41.76 
L 169.472727 -41.76 
L 167.781818 -112.164058 
L 166.090909 -41.76 
L 164.4 -41.76 
L 162.709091 -41.76 
L 161.018182 -148.618737 
L 159.327273 -41.76 
L 157.636364 -41.76 
L 155.945455 -58.836946 
L 154.254545 -41.76 
L 152.563636 -41.76 
L 150.872727 -41.76 
L 149.181818 -66.403977 
L 147.490909 -41.76 
L 145.8 -41.76 
L 144.109091 -41.76 
L 142.418182 -138.341892 
L 140.727273 -41.76 
L 139.036364 -41.76 
L 137.345455 -41.76 
L 135.654545 -115.538544 
L 133.963636 -41.76 
L 132.272727 -41.76 
L 130.581818 -41.76 
L 128.890909 -76.118407 
L 127.2 -41.76 
L 125.509091 -41.76 
L 123.818182 -41.76 
L 122.127273 -43.5495 
L 120.436364 -41.76 
L 118.745455 -41.76 
L 117.054545 -41.76 
L 115.363636 -42.935957 
z
" style="stroke: #ff0000; stroke-width: 0.5"/>
    </defs>
    <g clip-path="url(#p800c1ca533)">
     <use xlink:href="#m5d7590fd97" x="0" y="288" style="fill: #ff0000; stroke: #ff0000; stroke-width: 0.5"/>
    </g>
   </g>
   <g id="PolyCollection_2">
    <defs>
     <path id="mbd933859d6" d="M 115.363636 -61.137733 
L 115.363636 -42.935957 
L 117.054545 -41.76 
L 118.745455 -41.76 
L 120.436364 -41.76 
L 122.127273 -43.5495 
L 123.818182 -41.76 
L 125.509091 -41.76 
L 127.2 -41.76 
L 128.890909 -76.118407 
L 130.581818 -41.76 
L 132.272727 -41.76 
L 133.963636 -41.76 
L 135.654545 -115.538544 
L 137.345455 -41.76 
L 139.036364 -41.76 
L 140.727273 -41.76 
L 142.418182 -138.341892 
L 144.109091 -41.76 
L 145.8 -41.76 
L 147.490909 -41.76 
L 149.181818 -66.403977 
L 150.872727 -41.76 
L 152.563636 -41.76 
L 154.254545 -41.76 
L 155.945455 -58.836946 
L 157.636364 -41.76 
L 159.327273 -41.76 
L 161.018182 -148.618737 
L 162.709091 -41.76 
L 164.4 -41.76 
L 166.090909 -41.76 
L 167.781818 -112.164058 
L 169.472727 -41.76 
L 171.163636 -41.76 
L 172.854545 -41.76 
L 174.545455 -115.947573 
L 176.236364 -41.76 
L 177.927273 -41.76 
L 179.618182 -41.76 
L 181.309091 -108.942957 
L 183 -41.76 
L 184.690909 -41.76 
L 186.381818 -41.76 
L 188.072727 -83.94108 
L 189.763636 -41.76 
L 191.454545 -41.76 
L 193.145455 -41.76 
L 194.836364 -41.76 
L 196.527273 -80.413208 
L 198.218182 -41.76 
L 199.909091 -41.76 
L 201.6 -41.76 
L 203.290909 -121.520588 
L 204.981818 -41.76 
L 206.672727 -41.76 
L 208.363636 -41.76 
L 210.054545 -97.336769 
L 211.745455 -41.76 
L 213.436364 -41.76 
L 215.127273 -41.76 
L 216.818182 -96.467583 
L 218.509091 -41.76 
L 220.2 -41.76 
L 221.890909 -41.76 
L 223.581818 -61.802404 
L 225.272727 -62.211433 
L 226.963636 -41.76 
L 228.654545 -41.76 
L 230.345455 -100.455612 
L 232.036364 -41.76 
L 233.727273 -41.76 
L 235.418182 -41.76 
L 237.109091 -54.184245 
L 238.8 -77.907908 
L 240.490909 -41.76 
L 242.181818 -117.48143 
L 243.872727 -41.76 
L 245.563636 -58.223403 
L 247.254545 -41.76 
L 248.945455 -92.479554 
L 250.636364 -41.76 
L 252.327273 -41.76 
L 254.018182 -41.76 
L 255.709091 -41.76 
L 257.4 -90.894568 
L 259.090909 -41.76 
L 260.781818 -41.76 
L 262.472727 -41.76 
L 264.163636 -67.73332 
L 265.854545 -41.76 
L 267.545455 -41.76 
L 269.236364 -41.76 
L 270.927273 -69.829592 
L 272.618182 -41.76 
L 274.309091 -93.502125 
L 276 -73.919878 
L 277.690909 -41.76 
L 279.381818 -41.76 
L 281.072727 -41.76 
L 282.763636 -67.937834 
L 284.454545 -41.76 
L 286.145455 -41.76 
L 287.836364 -41.76 
L 289.527273 -41.76 
L 291.218182 -120.75366 
L 292.909091 -41.76 
L 294.6 -41.76 
L 296.290909 -41.76 
L 297.981818 -54.337631 
L 299.672727 -41.76 
L 301.363636 -41.76 
L 303.054545 -41.76 
L 304.745455 -53.877474 
L 306.436364 -41.76 
L 308.127273 -41.76 
L 309.818182 -41.76 
L 311.509091 -50.656373 
L 313.2 -108.533928 
L 314.890909 -41.76 
L 316.581818 -41.76 
L 318.272727 -41.76 
L 319.963636 -93.757768 
L 321.654545 -93.911154 
L 323.345455 -41.76 
L 325.036364 -41.76 
L 326.727273 -72.334892 
L 328.418182 -41.76 
L 330.109091 -76.01615 
L 331.8 -41.76 
L 333.490909 -41.76 
L 335.181818 -41.76 
L 336.872727 -80.00418 
L 338.563636 -41.76 
L 340.254545 -41.76 
L 341.945455 -41.76 
L 343.636364 -73.766493 
L 345.327273 -41.76 
L 347.018182 -41.76 
L 348.709091 -41.76 
L 350.4 -76.680822 
L 352.090909 -41.76 
L 353.781818 -41.76 
L 355.472727 -41.76 
L 357.163636 -77.396622 
L 358.854545 -41.76 
L 360.545455 -41.76 
L 362.236364 -41.76 
L 363.927273 -67.784448 
L 365.618182 -41.76 
L 367.309091 -41.76 
L 369 -172.342399 
L 370.690909 -41.76 
L 372.381818 -41.76 
L 374.072727 -82.458352 
L 375.763636 -41.76 
L 377.454545 -41.76 
L 379.145455 -41.76 
L 380.836364 -77.243236 
L 382.527273 -41.76 
L 384.218182 -41.76 
L 385.909091 -94.217925 
L 387.6 -41.76 
L 389.290909 -41.76 
L 390.981818 -41.76 
L 392.672727 -87.111052 
L 394.363636 -88.184753 
L 396.054545 -56.331646 
L 397.745455 -86.804281 
L 399.436364 -41.76 
L 401.127273 -41.76 
L 402.818182 -58.018889 
L 404.509091 -41.76 
L 406.2 -87.162181 
L 407.890909 -54.491017 
L 409.581818 -41.76 
L 411.272727 -41.76 
L 412.963636 -41.76 
L 414.654545 -41.76 
L 416.345455 -52.95716 
L 418.036364 -41.76 
L 419.727273 -83.736566 
L 421.418182 -41.76 
L 423.109091 -74.58455 
L 424.8 -41.76 
L 426.490909 -80.822237 
L 428.181818 -41.76 
L 429.872727 -41.76 
L 431.563636 -41.76 
L 433.254545 -41.76 
L 434.945455 -72.692792 
L 436.636364 -48.96913 
L 438.327273 -41.76 
L 440.018182 -41.76 
L 441.709091 -82.611737 
L 443.4 -41.76 
L 445.090909 -41.76 
L 446.781818 -56.638417 
L 448.472727 -41.76 
L 450.163636 -41.76 
L 451.854545 -54.644403 
L 453.545455 -60.830961 
L 455.236364 -58.785818 
L 456.927273 -41.76 
L 458.618182 -41.76 
L 460.309091 -68.09122 
L 462 -41.76 
L 463.690909 -41.76 
L 465.381818 -41.76 
L 467.072727 -85.423809 
L 468.763636 -41.76 
L 470.454545 -70.187492 
L 472.145455 -59.143718 
L 473.836364 -41.76 
L 475.527273 -66.608491 
L 477.218182 -41.76 
L 478.909091 -41.76 
L 480.6 -68.193477 
L 482.290909 -41.76 
L 483.981818 -67.273163 
L 485.672727 -41.76 
L 487.363636 -41.76 
L 489.054545 -41.76 
L 490.745455 -63.796419 
L 492.436364 -41.76 
L 494.127273 -52.906031 
L 495.818182 -82.50948 
L 497.509091 -41.76 
L 499.2 -41.76 
L 500.890909 -154.600781 
L 502.581818 -41.76 
L 504.272727 -69.318306 
L 505.963636 -41.76 
L 507.654545 -41.76 
L 509.345455 -41.76 
L 511.036364 -123.97476 
L 512.727273 -41.76 
L 514.418182 -70.59652 
L 516.109091 -41.76 
L 517.8 -41.76 
L 519.490909 -41.76 
L 521.181818 -41.76 
L 522.872727 -62.160304 
L 524.563636 -41.76 
L 526.254545 -41.76 
L 527.945455 -41.76 
L 529.636364 -61.546761 
L 531.327273 -148.465351 
L 533.018182 -117.48143 
L 534.709091 -41.76 
L 536.4 -41.76 
L 538.090909 -41.76 
L 539.781818 -41.76 
L 541.472727 -66.250591 
L 543.163636 -41.76 
L 544.854545 -41.76 
L 546.545455 -55.155689 
L 548.236364 -54.133117 
L 549.927273 -41.76 
L 551.618182 -100.251098 
L 553.309091 -55.769232 
L 555 -41.76 
L 556.690909 -89.309582 
L 558.381818 -41.76 
L 560.072727 -143.301364 
L 561.763636 -41.76 
L 563.454545 -60.064032 
L 565.145455 -41.76 
L 566.836364 -77.754522 
L 568.527273 -75.198093 
L 570.218182 -41.76 
L 571.909091 -68.44912 
L 573.6 -41.76 
L 575.290909 -41.76 
L 576.981818 -41.76 
L 578.672727 -106.335399 
L 580.363636 -41.76 
L 582.054545 -41.76 
L 583.745455 -41.76 
L 585.436364 -107.000071 
L 587.127273 -41.76 
L 588.818182 -60.933218 
L 590.509091 -41.76 
L 592.2 -98.308212 
L 593.890909 -41.76 
L 595.581818 -91.814882 
L 597.272727 -72.232635 
L 598.963636 -41.76 
L 600.654545 -41.76 
L 602.345455 -41.76 
L 604.036364 -123.514603 
L 605.727273 -41.76 
L 607.418182 -41.76 
L 609.109091 -41.76 
L 610.8 -112.777601 
L 612.490909 -41.76 
L 614.181818 -41.76 
L 615.872727 -67.682191 
L 617.563636 -41.76 
L 619.254545 -41.76 
L 620.945455 -63.643033 
L 622.636364 -41.76 
L 622.636364 -41.76 
L 622.636364 -41.76 
L 620.945455 -105.772985 
L 619.254545 -88.951681 
L 617.563636 -67.528805 
L 615.872727 -74.686807 
L 614.181818 -47.53753 
L 612.490909 -49.633802 
L 610.8 -122.696546 
L 609.109091 -59.092589 
L 607.418182 -46.923987 
L 605.727273 -44.469815 
L 604.036364 -128.67859 
L 602.345455 -56.945189 
L 600.654545 -55.10456 
L 598.963636 -57.916632 
L 597.272727 -109.1986 
L 595.581818 -137.830606 
L 593.890909 -69.062663 
L 592.2 -115.794187 
L 590.509091 -66.046077 
L 588.818182 -81.844809 
L 587.127273 -59.859518 
L 585.436364 -124.741689 
L 583.745455 -117.48143 
L 582.054545 -122.747674 
L 580.363636 -119.935602 
L 578.672727 -129.496647 
L 576.981818 -45.696901 
L 575.290909 -45.134486 
L 573.6 -56.740675 
L 571.909091 -75.453736 
L 570.218182 -58.121146 
L 568.527273 -80.617723 
L 566.836364 -98.717241 
L 565.145455 -52.497002 
L 563.454545 -80.413208 
L 561.763636 -48.560101 
L 560.072727 -154.498524 
L 558.381818 -61.802404 
L 556.690909 -103.318813 
L 555 -51.269916 
L 553.309091 -67.170905 
L 551.618182 -120.702531 
L 549.927273 -83.174152 
L 548.236364 -75.811636 
L 546.545455 -75.351479 
L 544.854545 -47.690916 
L 543.163636 -61.444504 
L 541.472727 -130.46809 
L 539.781818 -61.291118 
L 538.090909 -68.040091 
L 536.4 -69.88072 
L 534.709091 -111.192615 
L 533.018182 -135.836591 
L 531.327273 -162.065554 
L 529.636364 -91.15021 
L 527.945455 -45.441258 
L 526.254545 -45.748029 
L 524.563636 -45.083358 
L 522.872727 -67.426548 
L 521.181818 -45.390129 
L 519.490909 -47.128501 
L 517.8 -53.775217 
L 516.109091 -67.886706 
L 514.418182 -81.947066 
L 512.727273 -44.981101 
L 511.036364 -129.956804 
L 509.345455 -67.01752 
L 507.654545 -56.53616 
L 505.963636 -75.862764 
L 504.272727 -117.021273 
L 502.581818 -53.570703 
L 500.890909 -157.412853 
L 499.2 -44.265301 
L 497.509091 -44.316429 
L 495.818182 -86.804281 
L 494.127273 -60.421933 
L 492.436364 -60.370804 
L 490.745455 -97.745798 
L 489.054545 -56.842932 
L 487.363636 -60.012904 
L 485.672727 -57.712118 
L 483.981818 -91.201339 
L 482.290909 -125.406361 
L 480.6 -152.913538 
L 478.909091 -131.746305 
L 477.218182 -122.338646 
L 475.527273 -127.042475 
L 473.836364 -58.325661 
L 472.145455 -78.572579 
L 470.454545 -94.678083 
L 468.763636 -46.361572 
L 467.072727 -91.201339 
L 465.381818 -53.161674 
L 463.690909 -47.742044 
L 462 -75.760507 
L 460.309091 -81.640294 
L 458.618182 -54.03086 
L 456.927273 -52.497002 
L 455.236364 -65.994948 
L 453.545455 -136.092234 
L 451.854545 -71.925864 
L 450.163636 -51.423302 
L 448.472727 -89.923125 
L 446.781818 -91.15021 
L 445.090909 -44.572072 
L 443.4 -44.367558 
L 441.709091 -87.162181 
L 440.018182 -87.059924 
L 438.327273 -104.392513 
L 436.636364 -117.83933 
L 434.945455 -111.806158 
L 433.254545 -103.012042 
L 431.563636 -98.205955 
L 429.872727 -108.636186 
L 428.181818 -103.318813 
L 426.490909 -109.5565 
L 424.8 -62.67159 
L 423.109091 -92.019396 
L 421.418182 -107.102328 
L 419.727273 -136.756906 
L 418.036364 -64.154319 
L 416.345455 -61.802404 
L 414.654545 -53.724088 
L 412.963636 -47.89543 
L 411.272727 -52.343617 
L 409.581818 -60.728704 
L 407.890909 -83.634309 
L 406.2 -96.620969 
L 404.509091 -48.304459 
L 402.818182 -72.999564 
L 401.127273 -57.712118 
L 399.436364 -63.131747 
L 397.745455 -102.756399 
L 396.054545 -68.755891 
L 394.363636 -102.091727 
L 392.672727 -97.234512 
L 390.981818 -52.343617 
L 389.290909 -48.304459 
L 387.6 -47.281887 
L 385.909091 -96.825483 
L 384.218182 -58.018889 
L 382.527273 -61.035476 
L 380.836364 -112.010672 
L 379.145455 -74.124393 
L 377.454545 -68.704763 
L 375.763636 -58.427918 
L 374.072727 -89.00281 
L 372.381818 -46.003672 
L 370.690909 -47.435273 
L 369 -176.074786 
L 367.309091 -51.781202 
L 365.618182 -53.468445 
L 363.927273 -107.153457 
L 362.236364 -63.080619 
L 360.545455 -50.502988 
L 358.854545 -77.140979 
L 357.163636 -108.4828 
L 355.472727 -73.613107 
L 353.781818 -47.128501 
L 352.090909 -58.427918 
L 350.4 -101.63157 
L 348.709091 -53.519574 
L 347.018182 -50.349602 
L 345.327273 -50.605245 
L 343.636364 -88.440396 
L 341.945455 -48.560101 
L 340.254545 -50.707502 
L 338.563636 -72.641664 
L 336.872727 -104.750413 
L 335.181818 -50.502988 
L 333.490909 -50.451859 
L 331.8 -49.582673 
L 330.109091 -111.908415 
L 328.418182 -75.913893 
L 326.727273 -103.983485 
L 325.036364 -48.713487 
L 323.345455 -71.772478 
L 321.654545 -107.460228 
L 319.963636 -112.419701 
L 318.272727 -73.357464 
L 316.581818 -63.285133 
L 314.890909 -60.575318 
L 313.2 -134.865148 
L 311.509091 -77.550008 
L 309.818182 -77.498879 
L 308.127273 -75.65825 
L 306.436364 -72.846178 
L 304.745455 -92.888582 
L 303.054545 -71.312321 
L 301.363636 -81.998194 
L 299.672727 -59.143718 
L 297.981818 -63.74529 
L 296.290909 -48.151073 
L 294.6 -62.415947 
L 292.909091 -50.860888 
L 291.218182 -127.400375 
L 289.527273 -54.235374 
L 287.836364 -53.263931 
L 286.145455 -51.627816 
L 284.454545 -55.922617 
L 282.763636 -74.533421 
L 281.072727 -47.333015 
L 279.381818 -45.850287 
L 277.690909 -45.441258 
L 276 -78.112422 
L 274.309091 -97.796926 
L 272.618182 -45.901415 
L 270.927273 -74.840193 
L 269.236364 -52.95716 
L 267.545455 -51.269916 
L 265.854545 -44.214172 
L 264.163636 -76.425179 
L 262.472727 -51.832331 
L 260.781818 -61.342247 
L 259.090909 -63.489647 
L 257.4 -130.212447 
L 255.709091 -115.385159 
L 254.018182 -104.392513 
L 252.327273 -102.245113 
L 250.636364 -79.799665 
L 248.945455 -125.048461 
L 247.254545 -60.933218 
L 245.563636 -62.876104 
L 243.872727 -45.441258 
L 242.181818 -120.75366 
L 240.490909 -45.032229 
L 238.8 -105.619599 
L 237.109091 -68.44912 
L 235.418182 -74.840193 
L 233.727273 -74.94245 
L 232.036364 -61.649019 
L 230.345455 -106.335399 
L 228.654545 -49.582673 
L 226.963636 -48.099944 
L 225.272727 -70.647649 
L 223.581818 -65.483662 
L 221.890909 -47.17963 
L 220.2 -50.298473 
L 218.509091 -45.850287 
L 216.818182 -110.170043 
L 215.127273 -68.80702 
L 213.436364 -55.871489 
L 211.745455 -54.03086 
L 210.054545 -109.045214 
L 208.363636 -45.799158 
L 206.672727 -50.04283 
L 204.981818 -63.38739 
L 203.290909 -134.762891 
L 201.6 -50.093959 
L 199.909091 -46.412701 
L 198.218182 -46.259315 
L 196.527273 -86.190738 
L 194.836364 -45.441258 
L 193.145455 -45.748029 
L 191.454545 -45.645772 
L 189.763636 -45.645772 
L 188.072727 -88.082496 
L 186.381818 -45.799158 
L 184.690909 -45.901415 
L 183 -46.054801 
L 181.309091 -113.595658 
L 179.618182 -46.770601 
L 177.927273 -46.770601 
L 176.236364 -46.770601 
L 174.545455 -121.11156 
L 172.854545 -46.975115 
L 171.163636 -47.077373 
L 169.472727 -46.975115 
L 167.781818 -117.532559 
L 166.090909 -47.026244 
L 164.4 -46.975115 
L 162.709091 -46.872858 
L 161.018182 -152.606766 
L 159.327273 -45.441258 
L 157.636364 -62.058047 
L 155.945455 -90.332153 
L 154.254545 -46.719472 
L 152.563636 -58.121146 
L 150.872727 -50.809759 
L 149.181818 -78.981608 
L 147.490909 -62.364819 
L 145.8 -61.495633 
L 144.109091 -60.52419 
L 142.418182 -151.993223 
L 140.727273 -46.054801 
L 139.036364 -46.514958 
L 137.345455 -47.230758 
L 135.654545 -121.162688 
L 133.963636 -47.077373 
L 132.272727 -47.230758 
L 130.581818 -46.923987 
L 128.890909 -80.975623 
L 127.2 -46.054801 
L 125.509091 -45.696901 
L 123.818182 -44.827715 
L 122.127273 -51.014273 
L 120.436364 -47.742044 
L 118.745455 -44.776586 
L 117.054545 -46.719472 
L 115.363636 -61.137733 
z
" style="stroke: #0000ff; stroke-width: 0.5"/>
    </defs>
    <g clip-path="url(#p800c1ca533)">
     <use xlink:href="#mbd933859d6" x="0" y="288" style="fill: #0000ff; stroke: #0000ff; stroke-width: 0.5"/>
    </g>
   </g>
   <g id="PolyCollection_3">
    <defs>
     <path id="m2e8933dc02" d="M 115.363636 -75.811636 
L 115.363636 -61.137733 
L 117.054545 -46.719472 
L 118.745455 -44.776586 
L 120.436364 -47.742044 
L 122.127273 -51.014273 
L 123.818182 -44.827715 
L 125.509091 -45.696901 
L 127.2 -46.054801 
L 128.890909 -80.975623 
L 130.581818 -46.923987 
L 132.272727 -47.230758 
L 133.963636 -47.077373 
L 135.654545 -121.162688 
L 137.345455 -47.230758 
L 139.036364 -46.514958 
L 140.727273 -46.054801 
L 142.418182 -151.993223 
L 144.109091 -60.52419 
L 145.8 -61.495633 
L 147.490909 -62.364819 
L 149.181818 -78.981608 
L 150.872727 -50.809759 
L 152.563636 -58.121146 
L 154.254545 -46.719472 
L 155.945455 -90.332153 
L 157.636364 -62.058047 
L 159.327273 -45.441258 
L 161.018182 -152.606766 
L 162.709091 -46.872858 
L 164.4 -46.975115 
L 166.090909 -47.026244 
L 167.781818 -117.532559 
L 169.472727 -46.975115 
L 171.163636 -47.077373 
L 172.854545 -46.975115 
L 174.545455 -121.11156 
L 176.236364 -46.770601 
L 177.927273 -46.770601 
L 179.618182 -46.770601 
L 181.309091 -113.595658 
L 183 -46.054801 
L 184.690909 -45.901415 
L 186.381818 -45.799158 
L 188.072727 -88.082496 
L 189.763636 -45.645772 
L 191.454545 -45.645772 
L 193.145455 -45.748029 
L 194.836364 -45.441258 
L 196.527273 -86.190738 
L 198.218182 -46.259315 
L 199.909091 -46.412701 
L 201.6 -50.093959 
L 203.290909 -134.762891 
L 204.981818 -63.38739 
L 206.672727 -50.04283 
L 208.363636 -45.799158 
L 210.054545 -109.045214 
L 211.745455 -54.03086 
L 213.436364 -55.871489 
L 215.127273 -68.80702 
L 216.818182 -110.170043 
L 218.509091 -45.850287 
L 220.2 -50.298473 
L 221.890909 -47.17963 
L 223.581818 -65.483662 
L 225.272727 -70.647649 
L 226.963636 -48.099944 
L 228.654545 -49.582673 
L 230.345455 -106.335399 
L 232.036364 -61.649019 
L 233.727273 -74.94245 
L 235.418182 -74.840193 
L 237.109091 -68.44912 
L 238.8 -105.619599 
L 240.490909 -45.032229 
L 242.181818 -120.75366 
L 243.872727 -45.441258 
L 245.563636 -62.876104 
L 247.254545 -60.933218 
L 248.945455 -125.048461 
L 250.636364 -79.799665 
L 252.327273 -102.245113 
L 254.018182 -104.392513 
L 255.709091 -115.385159 
L 257.4 -130.212447 
L 259.090909 -63.489647 
L 260.781818 -61.342247 
L 262.472727 -51.832331 
L 264.163636 -76.425179 
L 265.854545 -44.214172 
L 267.545455 -51.269916 
L 269.236364 -52.95716 
L 270.927273 -74.840193 
L 272.618182 -45.901415 
L 274.309091 -97.796926 
L 276 -78.112422 
L 277.690909 -45.441258 
L 279.381818 -45.850287 
L 281.072727 -47.333015 
L 282.763636 -74.533421 
L 284.454545 -55.922617 
L 286.145455 -51.627816 
L 287.836364 -53.263931 
L 289.527273 -54.235374 
L 291.218182 -127.400375 
L 292.909091 -50.860888 
L 294.6 -62.415947 
L 296.290909 -48.151073 
L 297.981818 -63.74529 
L 299.672727 -59.143718 
L 301.363636 -81.998194 
L 303.054545 -71.312321 
L 304.745455 -92.888582 
L 306.436364 -72.846178 
L 308.127273 -75.65825 
L 309.818182 -77.498879 
L 311.509091 -77.550008 
L 313.2 -134.865148 
L 314.890909 -60.575318 
L 316.581818 -63.285133 
L 318.272727 -73.357464 
L 319.963636 -112.419701 
L 321.654545 -107.460228 
L 323.345455 -71.772478 
L 325.036364 -48.713487 
L 326.727273 -103.983485 
L 328.418182 -75.913893 
L 330.109091 -111.908415 
L 331.8 -49.582673 
L 333.490909 -50.451859 
L 335.181818 -50.502988 
L 336.872727 -104.750413 
L 338.563636 -72.641664 
L 340.254545 -50.707502 
L 341.945455 -48.560101 
L 343.636364 -88.440396 
L 345.327273 -50.605245 
L 347.018182 -50.349602 
L 348.709091 -53.519574 
L 350.4 -101.63157 
L 352.090909 -58.427918 
L 353.781818 -47.128501 
L 355.472727 -73.613107 
L 357.163636 -108.4828 
L 358.854545 -77.140979 
L 360.545455 -50.502988 
L 362.236364 -63.080619 
L 363.927273 -107.153457 
L 365.618182 -53.468445 
L 367.309091 -51.781202 
L 369 -176.074786 
L 370.690909 -47.435273 
L 372.381818 -46.003672 
L 374.072727 -89.00281 
L 375.763636 -58.427918 
L 377.454545 -68.704763 
L 379.145455 -74.124393 
L 380.836364 -112.010672 
L 382.527273 -61.035476 
L 384.218182 -58.018889 
L 385.909091 -96.825483 
L 387.6 -47.281887 
L 389.290909 -48.304459 
L 390.981818 -52.343617 
L 392.672727 -97.234512 
L 394.363636 -102.091727 
L 396.054545 -68.755891 
L 397.745455 -102.756399 
L 399.436364 -63.131747 
L 401.127273 -57.712118 
L 402.818182 -72.999564 
L 404.509091 -48.304459 
L 406.2 -96.620969 
L 407.890909 -83.634309 
L 409.581818 -60.728704 
L 411.272727 -52.343617 
L 412.963636 -47.89543 
L 414.654545 -53.724088 
L 416.345455 -61.802404 
L 418.036364 -64.154319 
L 419.727273 -136.756906 
L 421.418182 -107.102328 
L 423.109091 -92.019396 
L 424.8 -62.67159 
L 426.490909 -109.5565 
L 428.181818 -103.318813 
L 429.872727 -108.636186 
L 431.563636 -98.205955 
L 433.254545 -103.012042 
L 434.945455 -111.806158 
L 436.636364 -117.83933 
L 438.327273 -104.392513 
L 440.018182 -87.059924 
L 441.709091 -87.162181 
L 443.4 -44.367558 
L 445.090909 -44.572072 
L 446.781818 -91.15021 
L 448.472727 -89.923125 
L 450.163636 -51.423302 
L 451.854545 -71.925864 
L 453.545455 -136.092234 
L 455.236364 -65.994948 
L 456.927273 -52.497002 
L 458.618182 -54.03086 
L 460.309091 -81.640294 
L 462 -75.760507 
L 463.690909 -47.742044 
L 465.381818 -53.161674 
L 467.072727 -91.201339 
L 468.763636 -46.361572 
L 470.454545 -94.678083 
L 472.145455 -78.572579 
L 473.836364 -58.325661 
L 475.527273 -127.042475 
L 477.218182 -122.338646 
L 478.909091 -131.746305 
L 480.6 -152.913538 
L 482.290909 -125.406361 
L 483.981818 -91.201339 
L 485.672727 -57.712118 
L 487.363636 -60.012904 
L 489.054545 -56.842932 
L 490.745455 -97.745798 
L 492.436364 -60.370804 
L 494.127273 -60.421933 
L 495.818182 -86.804281 
L 497.509091 -44.316429 
L 499.2 -44.265301 
L 500.890909 -157.412853 
L 502.581818 -53.570703 
L 504.272727 -117.021273 
L 505.963636 -75.862764 
L 507.654545 -56.53616 
L 509.345455 -67.01752 
L 511.036364 -129.956804 
L 512.727273 -44.981101 
L 514.418182 -81.947066 
L 516.109091 -67.886706 
L 517.8 -53.775217 
L 519.490909 -47.128501 
L 521.181818 -45.390129 
L 522.872727 -67.426548 
L 524.563636 -45.083358 
L 526.254545 -45.748029 
L 527.945455 -45.441258 
L 529.636364 -91.15021 
L 531.327273 -162.065554 
L 533.018182 -135.836591 
L 534.709091 -111.192615 
L 536.4 -69.88072 
L 538.090909 -68.040091 
L 539.781818 -61.291118 
L 541.472727 -130.46809 
L 543.163636 -61.444504 
L 544.854545 -47.690916 
L 546.545455 -75.351479 
L 548.236364 -75.811636 
L 549.927273 -83.174152 
L 551.618182 -120.702531 
L 553.309091 -67.170905 
L 555 -51.269916 
L 556.690909 -103.318813 
L 558.381818 -61.802404 
L 560.072727 -154.498524 
L 561.763636 -48.560101 
L 563.454545 -80.413208 
L 565.145455 -52.497002 
L 566.836364 -98.717241 
L 568.527273 -80.617723 
L 570.218182 -58.121146 
L 571.909091 -75.453736 
L 573.6 -56.740675 
L 575.290909 -45.134486 
L 576.981818 -45.696901 
L 578.672727 -129.496647 
L 580.363636 -119.935602 
L 582.054545 -122.747674 
L 583.745455 -117.48143 
L 585.436364 -124.741689 
L 587.127273 -59.859518 
L 588.818182 -81.844809 
L 590.509091 -66.046077 
L 592.2 -115.794187 
L 593.890909 -69.062663 
L 595.581818 -137.830606 
L 597.272727 -109.1986 
L 598.963636 -57.916632 
L 600.654545 -55.10456 
L 602.345455 -56.945189 
L 604.036364 -128.67859 
L 605.727273 -44.469815 
L 607.418182 -46.923987 
L 609.109091 -59.092589 
L 610.8 -122.696546 
L 612.490909 -49.633802 
L 614.181818 -47.53753 
L 615.872727 -74.686807 
L 617.563636 -67.528805 
L 619.254545 -88.951681 
L 620.945455 -105.772985 
L 622.636364 -41.76 
L 622.636364 -41.964514 
L 622.636364 -41.964514 
L 620.945455 -150.919523 
L 619.254545 -149.641309 
L 617.563636 -108.789571 
L 615.872727 -92.428425 
L 614.181818 -64.563348 
L 612.490909 -73.050692 
L 610.8 -144.732965 
L 609.109091 -102.091727 
L 607.418182 -62.415947 
L 605.727273 -75.709379 
L 604.036364 -162.883611 
L 602.345455 -96.978869 
L 600.654545 -88.849424 
L 598.963636 -85.883967 
L 597.272727 -149.027766 
L 595.581818 -173.262714 
L 593.890909 -140.335907 
L 592.2 -162.065554 
L 590.509091 -96.416454 
L 588.818182 -114.464844 
L 587.127273 -103.727842 
L 585.436364 -177.506386 
L 583.745455 -209.10385 
L 582.054545 -218.562638 
L 580.363636 -209.46175 
L 578.672727 -161.400883 
L 576.981818 -80.924494 
L 575.290909 -70.494263 
L 573.6 -91.559239 
L 571.909091 -91.814882 
L 570.218182 -75.811636 
L 568.527273 -96.160812 
L 566.836364 -125.048461 
L 565.145455 -75.249221 
L 563.454545 -121.11156 
L 561.763636 -78.112422 
L 560.072727 -177.813157 
L 558.381818 -97.336769 
L 556.690909 -127.195861 
L 555 -63.234005 
L 553.309091 -87.366695 
L 551.618182 -151.788709 
L 549.927273 -130.007933 
L 548.236364 -104.852671 
L 546.545455 -94.06454 
L 544.854545 -77.294365 
L 543.163636 -111.141486 
L 541.472727 -188.499031 
L 539.781818 -111.346001 
L 538.090909 -123.719117 
L 536.4 -132.001948 
L 534.709091 -212.069308 
L 533.018182 -227.919168 
L 531.327273 -191.566746 
L 529.636364 -116.76563 
L 527.945455 -63.694162 
L 526.254545 -58.581304 
L 524.563636 -56.89406 
L 522.872727 -84.503495 
L 521.181818 -64.000933 
L 519.490909 -63.694162 
L 517.8 -79.390637 
L 516.109091 -103.318813 
L 514.418182 -94.626954 
L 512.727273 -53.877474 
L 511.036364 -141.358478 
L 509.345455 -93.962283 
L 507.654545 -84.503495 
L 505.963636 -122.338646 
L 504.272727 -221.272452 
L 502.581818 -140.080264 
L 500.890909 -197.651047 
L 499.2 -47.026244 
L 497.509091 -46.770601 
L 495.818182 -93.655511 
L 494.127273 -83.123023 
L 492.436364 -98.154826 
L 490.745455 -135.325306 
L 489.054545 -94.984854 
L 487.363636 -90.43441 
L 485.672727 -88.184753 
L 483.981818 -130.979376 
L 482.290909 -238.860685 
L 480.6 -229.504154 
L 478.909091 -202.712777 
L 477.218182 -180.932001 
L 475.527273 -170.552899 
L 473.836364 -71.670221 
L 472.145455 -117.072402 
L 470.454545 -125.406361 
L 468.763636 -55.257946 
L 467.072727 -98.205955 
L 465.381818 -77.856779 
L 463.690909 -72.897307 
L 462 -116.509987 
L 460.309091 -105.721856 
L 458.618182 -76.37405 
L 456.927273 -68.397991 
L 455.236364 -91.252468 
L 453.545455 -205.575978 
L 451.854545 -96.518712 
L 450.163636 -100.506741 
L 448.472727 -172.853685 
L 446.781818 -124.077017 
L 445.090909 -48.918002 
L 443.4 -46.617215 
L 441.709091 -113.493401 
L 440.018182 -158.23091 
L 438.327273 -179.040243 
L 436.636364 -155.214324 
L 434.945455 -151.175166 
L 433.254545 -155.265453 
L 431.563636 -147.954065 
L 429.872727 -164.417469 
L 428.181818 -151.328552 
L 426.490909 -136.194492 
L 424.8 -86.344124 
L 423.109091 -114.771616 
L 421.418182 -163.29264 
L 419.727273 -172.955942 
L 418.036364 -85.883967 
L 416.345455 -76.425179 
L 414.654545 -70.392006 
L 412.963636 -58.683561 
L 411.272727 -66.455105 
L 409.581818 -79.441765 
L 407.890909 -129.138747 
L 406.2 -114.567101 
L 404.509091 -60.88209 
L 402.818182 -99.944327 
L 401.127273 -92.786325 
L 399.436364 -115.078387 
L 397.745455 -128.32069 
L 396.054545 -100.353355 
L 394.363636 -136.501263 
L 392.672727 -113.340015 
L 390.981818 -69.369434 
L 389.290909 -57.558732 
L 387.6 -58.427918 
L 385.909091 -108.4828 
L 384.218182 -102.807527 
L 382.527273 -107.000071 
L 380.836364 -162.014426 
L 379.145455 -131.848562 
L 377.454545 -114.61823 
L 375.763636 -84.963652 
L 374.072727 -153.93611 
L 372.381818 -129.956804 
L 370.690909 -138.699792 
L 369 -196.270576 
L 367.309091 -84.350109 
L 365.618182 -93.808897 
L 363.927273 -155.418838 
L 362.236364 -107.255714 
L 360.545455 -95.649526 
L 358.854545 -129.803419 
L 357.163636 -151.737581 
L 355.472727 -125.508618 
L 353.781818 -83.532052 
L 352.090909 -109.607629 
L 350.4 -141.614121 
L 348.709091 -100.148841 
L 347.018182 -88.849424 
L 345.327273 -89.923125 
L 343.636364 -120.446888 
L 341.945455 -81.947066 
L 340.254545 -82.253837 
L 338.563636 -121.009303 
L 336.872727 -134.916277 
L 335.181818 -75.965022 
L 333.490909 -69.062663 
L 331.8 -68.09122 
L 330.109091 -146.522465 
L 328.418182 -116.919016 
L 326.727273 -143.659265 
L 325.036364 -105.363956 
L 323.345455 -146.062308 
L 321.654545 -135.88772 
L 319.963636 -152.709024 
L 318.272727 -119.833345 
L 316.581818 -86.548638 
L 314.890909 -86.753152 
L 313.2 -166.411484 
L 311.509091 -102.756399 
L 309.818182 -102.34737 
L 308.127273 -102.398499 
L 306.436364 -95.087111 
L 304.745455 -117.83933 
L 303.054545 -91.866011 
L 301.363636 -114.720487 
L 299.672727 -85.014781 
L 297.981818 -78.674836 
L 296.290909 -65.534791 
L 294.6 -135.427563 
L 292.909091 -73.919878 
L 291.218182 -140.335907 
L 289.527273 -61.342247 
L 287.836364 -63.489647 
L 286.145455 -72.743921 
L 284.454545 -84.503495 
L 282.763636 -88.133624 
L 281.072727 -54.439888 
L 279.381818 -54.593274 
L 277.690909 -53.877474 
L 276 -122.031874 
L 274.309091 -139.671235 
L 272.618182 -56.280517 
L 270.927273 -85.628324 
L 269.236364 -74.482293 
L 267.545455 -67.37542 
L 265.854545 -47.281887 
L 264.163636 -87.008795 
L 262.472727 -83.992209 
L 260.781818 -98.614984 
L 259.090909 -123.872503 
L 257.4 -182.363601 
L 255.709091 -213.654294 
L 254.018182 -201.53682 
L 252.327273 -195.350261 
L 250.636364 -137.983992 
L 248.945455 -181.034258 
L 247.254545 -94.626954 
L 245.563636 -76.271793 
L 243.872727 -58.070018 
L 242.181818 -124.69056 
L 240.490909 -48.61123 
L 238.8 -151.788709 
L 237.109091 -97.796926 
L 235.418182 -113.391144 
L 233.727273 -127.809404 
L 232.036364 -93.553254 
L 230.345455 -117.890459 
L 228.654545 -75.044707 
L 226.963636 -64.256576 
L 225.272727 -90.741182 
L 223.581818 -70.903292 
L 221.890909 -58.581304 
L 220.2 -64.665605 
L 218.509091 -51.372173 
L 216.818182 -148.567608 
L 215.127273 -143.505879 
L 213.436364 -114.720487 
L 211.745455 -110.579072 
L 210.054545 -151.072909 
L 208.363636 -95.49614 
L 206.672727 -110.9881 
L 204.981818 -139.159949 
L 203.290909 -171.319828 
L 201.6 -83.480923 
L 199.909091 -82.713994 
L 198.218182 -81.180137 
L 196.527273 -109.1986 
L 194.836364 -66.046077 
L 193.145455 -72.130378 
L 191.454545 -76.37405 
L 189.763636 -74.328907 
L 188.072727 -118.452873 
L 186.381818 -83.071894 
L 184.690909 -87.417824 
L 183 -94.371311 
L 181.309091 -192.333675 
L 179.618182 -159.355739 
L 177.927273 -158.844453 
L 176.236364 -163.752797 
L 174.545455 -216.517494 
L 172.854545 -155.060938 
L 171.163636 -155.521096 
L 169.472727 -157.975268 
L 167.781818 -216.926523 
L 166.090909 -154.140624 
L 164.4 -157.208339 
L 162.709091 -149.743566 
L 161.018182 -185.789216 
L 159.327273 -52.599259 
L 157.636364 -84.912523 
L 155.945455 -123.97476 
L 154.254545 -65.585919 
L 152.563636 -93.246482 
L 150.872727 -79.134994 
L 149.181818 -119.168674 
L 147.490909 -150.254852 
L 145.8 -152.095481 
L 144.109091 -150.357109 
L 142.418182 -243.36 
L 140.727273 -148.772123 
L 139.036364 -161.554268 
L 137.345455 -174.336414 
L 135.654545 -222.09051 
L 133.963636 -178.273315 
L 132.272727 -175.665757 
L 130.581818 -180.522972 
L 128.890909 -187.732102 
L 127.2 -134.967406 
L 125.509091 -96.774355 
L 123.818182 -69.829592 
L 122.127273 -77.243236 
L 120.436364 -50.554116 
L 118.745455 -48.713487 
L 117.054545 -51.985716 
L 115.363636 -75.811636 
z
" style="stroke: #008000; stroke-width: 0.5"/>
    </defs>
    <g clip-path="url(#p800c1ca533)">
     <use xlink:href="#m2e8933dc02" x="0" y="288" style="fill: #008000; stroke: #008000; stroke-width: 0.5"/>
    </g>
   </g>
   <g id="line2d_30">
    <path d="M 90 44.64 
L 648 44.64 
" clip-path="url(#p800c1ca533)" style="fill: none; stroke: #000000; stroke-width: 1.5; stroke-linecap: square"/>
   </g>
   <g id="line2d_31">
    <path d="M 90 173.126127 
L 648 173.126127 
" clip-path="url(#p800c1ca533)" style="fill: none; stroke: #000000; stroke-width: 1.5; stroke-linecap: square"/>
   </g>
   <g id="patch_3">
    <path d="M 90 256.32 
L 90 34.56 
" style="fill: none; stroke: #000000; stroke-width: 0.8; stroke-linejoin: miter; stroke-linecap: square"/>
   </g>
   <g id="patch_4">
    <path d="M 648 256.32 
L 648 34.56 
" style="fill: none; stroke: #000000; stroke-width: 0.8; stroke-linejoin: miter; stroke-linecap: square"/>
   </g>
   <g id="patch_5">
    <path d="M 90 256.32 
L 648 256.32 
" style="fill: none; stroke: #000000; stroke-width: 0.8; stroke-linejoin: miter; stroke-linecap: square"/>
   </g>
   <g id="patch_6">
    <path d="M 90 34.56 
L 648 34.56 
" style="fill: none; stroke: #000000; stroke-width: 0.8; stroke-linejoin: miter; stroke-linecap: square"/>
   </g>
   <g id="text_23">
    <!-- peak (3,943) -->
    <g transform="translate(122.179233 41.3136) scale(0.1 -0.1)">
     <defs>
      <path id="DejaVuSans-Bold-70" d="M 1656 506 
L 1656 -1331 
L 538 -1331 
L 538 3500 
L 1656 3500 
L 1656 2988 
Q 1888 3294 2169 3439 
Q 2450 3584 2816 3584 
Q 3463 3584 3878 3070 
Q 4294 2556 4294 1747 
Q 4294 938 3878 423 
Q 3463 -91 2816 -91 
Q 2450 -91 2169 54 
Q 1888 200 1656 506 
z
M 2400 2772 
Q 2041 2772 1848 2508 
Q 1656 2244 1656 1747 
Q 1656 1250 1848 986 
Q 2041 722 2400 722 
Q 2759 722 2948 984 
Q 3138 1247 3138 1747 
Q 3138 2247 2948 2509 
Q 2759 2772 2400 2772 
z
" transform="scale(0.015625)"/>
      <path id="DejaVuSans-Bold-65" d="M 4031 1759 
L 4031 1441 
L 1416 1441 
Q 1456 1047 1700 850 
Q 1944 653 2381 653 
Q 2734 653 3104 758 
Q 3475 863 3866 1075 
L 3866 213 
Q 3469 63 3072 -14 
Q 2675 -91 2278 -91 
Q 1328 -91 801 392 
Q 275 875 275 1747 
Q 275 2603 792 3093 
Q 1309 3584 2216 3584 
Q 3041 3584 3536 3087 
Q 4031 2591 4031 1759 
z
M 2881 2131 
Q 2881 2450 2695 2645 
Q 2509 2841 2209 2841 
Q 1884 2841 1681 2658 
Q 1478 2475 1428 2131 
L 2881 2131 
z
" transform="scale(0.015625)"/>
      <path id="DejaVuSans-Bold-61" d="M 2106 1575 
Q 1756 1575 1579 1456 
Q 1403 1338 1403 1106 
Q 1403 894 1545 773 
Q 1688 653 1941 653 
Q 2256 653 2472 879 
Q 2688 1106 2688 1447 
L 2688 1575 
L 2106 1575 
z
M 3816 1997 
L 3816 0 
L 2688 0 
L 2688 519 
Q 2463 200 2181 54 
Q 1900 -91 1497 -91 
Q 953 -91 614 226 
Q 275 544 275 1050 
Q 275 1666 698 1953 
Q 1122 2241 2028 2241 
L 2688 2241 
L 2688 2328 
Q 2688 2594 2478 2717 
Q 2269 2841 1825 2841 
Q 1466 2841 1156 2769 
Q 847 2697 581 2553 
L 581 3406 
Q 941 3494 1303 3539 
Q 1666 3584 2028 3584 
Q 2975 3584 3395 3211 
Q 3816 2838 3816 1997 
z
" transform="scale(0.015625)"/>
      <path id="DejaVuSans-Bold-6b" d="M 538 4863 
L 1656 4863 
L 1656 2216 
L 2944 3500 
L 4244 3500 
L 2534 1894 
L 4378 0 
L 3022 0 
L 1656 1459 
L 1656 0 
L 538 0 
L 538 4863 
z
" transform="scale(0.015625)"/>
      <path id="DejaVuSans-Bold-20" transform="scale(0.015625)"/>
      <path id="DejaVuSans-Bold-28" d="M 2413 -844 
L 1484 -844 
Q 1006 -72 778 623 
Q 550 1319 550 2003 
Q 550 2688 779 3389 
Q 1009 4091 1484 4856 
L 2413 4856 
Q 2013 4116 1813 3408 
Q 1613 2700 1613 2009 
Q 1613 1319 1811 609 
Q 2009 -100 2413 -844 
z
" transform="scale(0.015625)"/>
      <path id="DejaVuSans-Bold-33" d="M 2981 2516 
Q 3453 2394 3698 2092 
Q 3944 1791 3944 1325 
Q 3944 631 3412 270 
Q 2881 -91 1863 -91 
Q 1503 -91 1142 -33 
Q 781 25 428 141 
L 428 1069 
Q 766 900 1098 814 
Q 1431 728 1753 728 
Q 2231 728 2486 893 
Q 2741 1059 2741 1369 
Q 2741 1688 2480 1852 
Q 2219 2016 1709 2016 
L 1228 2016 
L 1228 2791 
L 1734 2791 
Q 2188 2791 2409 2933 
Q 2631 3075 2631 3366 
Q 2631 3634 2415 3781 
Q 2200 3928 1806 3928 
Q 1516 3928 1219 3862 
Q 922 3797 628 3669 
L 628 4550 
Q 984 4650 1334 4700 
Q 1684 4750 2022 4750 
Q 2931 4750 3382 4451 
Q 3834 4153 3834 3553 
Q 3834 3144 3618 2883 
Q 3403 2622 2981 2516 
z
" transform="scale(0.015625)"/>
      <path id="DejaVuSans-Bold-2c" d="M 653 1209 
L 1778 1209 
L 1778 256 
L 1006 -909 
L 341 -909 
L 653 256 
L 653 1209 
z
" transform="scale(0.015625)"/>
      <path id="DejaVuSans-Bold-39" d="M 641 103 
L 641 966 
Q 928 831 1190 764 
Q 1453 697 1709 697 
Q 2247 697 2547 995 
Q 2847 1294 2900 1881 
Q 2688 1725 2447 1647 
Q 2206 1569 1925 1569 
Q 1209 1569 770 1986 
Q 331 2403 331 3084 
Q 331 3838 820 4291 
Q 1309 4744 2131 4744 
Q 3044 4744 3544 4128 
Q 4044 3513 4044 2388 
Q 4044 1231 3459 570 
Q 2875 -91 1856 -91 
Q 1528 -91 1228 -42 
Q 928 6 641 103 
z
M 2125 2350 
Q 2441 2350 2600 2554 
Q 2759 2759 2759 3169 
Q 2759 3575 2600 3781 
Q 2441 3988 2125 3988 
Q 1809 3988 1650 3781 
Q 1491 3575 1491 3169 
Q 1491 2759 1650 2554 
Q 1809 2350 2125 2350 
z
" transform="scale(0.015625)"/>
      <path id="DejaVuSans-Bold-34" d="M 2356 3675 
L 1038 1722 
L 2356 1722 
L 2356 3675 
z
M 2156 4666 
L 3494 4666 
L 3494 1722 
L 4159 1722 
L 4159 850 
L 3494 850 
L 3494 0 
L 2356 0 
L 2356 850 
L 288 850 
L 288 1881 
L 2156 4666 
z
" transform="scale(0.015625)"/>
      <path id="DejaVuSans-Bold-29" d="M 513 -844 
Q 913 -100 1113 609 
Q 1313 1319 1313 2009 
Q 1313 2700 1113 3408 
Q 913 4116 513 4856 
L 1441 4856 
Q 1916 4091 2145 3389 
Q 2375 2688 2375 2003 
Q 2375 1319 2147 623 
Q 1919 -72 1441 -844 
L 513 -844 
z
" transform="scale(0.015625)"/>
     </defs>
     <use xlink:href="#DejaVuSans-Bold-70"/>
     <use xlink:href="#DejaVuSans-Bold-65" x="71.582031"/>
     <use xlink:href="#DejaVuSans-Bold-61" x="139.404297"/>
     <use xlink:href="#DejaVuSans-Bold-6b" x="206.884766"/>
     <use xlink:href="#DejaVuSans-Bold-20" x="273.388672"/>
     <use xlink:href="#DejaVuSans-Bold-28" x="308.203125"/>
     <use xlink:href="#DejaVuSans-Bold-33" x="353.90625"/>
     <use xlink:href="#DejaVuSans-Bold-2c" x="423.486328"/>
     <use xlink:href="#DejaVuSans-Bold-39" x="461.474609"/>
     <use xlink:href="#DejaVuSans-Bold-34" x="531.054688"/>
     <use xlink:href="#DejaVuSans-Bold-33" x="600.634766"/>
     <use xlink:href="#DejaVuSans-Bold-29" x="670.214844"/>
    </g>
   </g>
   <g id="text_24">
    <!-- mean (1,430) -->
    <g transform="translate(567.728153 169.799727) scale(0.1 -0.1)">
     <defs>
      <path id="DejaVuSans-Bold-6d" d="M 3781 2919 
Q 3994 3244 4286 3414 
Q 4578 3584 4928 3584 
Q 5531 3584 5847 3212 
Q 6163 2841 6163 2131 
L 6163 0 
L 5038 0 
L 5038 1825 
Q 5041 1866 5042 1909 
Q 5044 1953 5044 2034 
Q 5044 2406 4934 2573 
Q 4825 2741 4581 2741 
Q 4263 2741 4089 2478 
Q 3916 2216 3909 1719 
L 3909 0 
L 2784 0 
L 2784 1825 
Q 2784 2406 2684 2573 
Q 2584 2741 2328 2741 
Q 2006 2741 1831 2477 
Q 1656 2213 1656 1722 
L 1656 0 
L 531 0 
L 531 3500 
L 1656 3500 
L 1656 2988 
Q 1863 3284 2130 3434 
Q 2397 3584 2719 3584 
Q 3081 3584 3359 3409 
Q 3638 3234 3781 2919 
z
" transform="scale(0.015625)"/>
      <path id="DejaVuSans-Bold-6e" d="M 4056 2131 
L 4056 0 
L 2931 0 
L 2931 347 
L 2931 1631 
Q 2931 2084 2911 2256 
Q 2891 2428 2841 2509 
Q 2775 2619 2662 2680 
Q 2550 2741 2406 2741 
Q 2056 2741 1856 2470 
Q 1656 2200 1656 1722 
L 1656 0 
L 538 0 
L 538 3500 
L 1656 3500 
L 1656 2988 
Q 1909 3294 2193 3439 
Q 2478 3584 2822 3584 
Q 3428 3584 3742 3212 
Q 4056 2841 4056 2131 
z
" transform="scale(0.015625)"/>
      <path id="DejaVuSans-Bold-31" d="M 750 831 
L 1813 831 
L 1813 3847 
L 722 3622 
L 722 4441 
L 1806 4666 
L 2950 4666 
L 2950 831 
L 4013 831 
L 4013 0 
L 750 0 
L 750 831 
z
" transform="scale(0.015625)"/>
      <path id="DejaVuSans-Bold-30" d="M 2944 2338 
Q 2944 3213 2780 3570 
Q 2616 3928 2228 3928 
Q 1841 3928 1675 3570 
Q 1509 3213 1509 2338 
Q 1509 1453 1675 1090 
Q 1841 728 2228 728 
Q 2613 728 2778 1090 
Q 2944 1453 2944 2338 
z
M 4147 2328 
Q 4147 1169 3647 539 
Q 3147 -91 2228 -91 
Q 1306 -91 806 539 
Q 306 1169 306 2328 
Q 306 3491 806 4120 
Q 1306 4750 2228 4750 
Q 3147 4750 3647 4120 
Q 4147 3491 4147 2328 
z
" transform="scale(0.015625)"/>
     </defs>
     <use xlink:href="#DejaVuSans-Bold-6d"/>
     <use xlink:href="#DejaVuSans-Bold-65" x="104.199219"/>
     <use xlink:href="#DejaVuSans-Bold-61" x="172.021484"/>
     <use xlink:href="#DejaVuSans-Bold-6e" x="239.501953"/>
     <use xlink:href="#DejaVuSans-Bold-20" x="310.693359"/>
     <use xlink:href="#DejaVuSans-Bold-28" x="345.507812"/>
     <use xlink:href="#DejaVuSans-Bold-31" x="391.210938"/>
     <use xlink:href="#DejaVuSans-Bold-2c" x="460.791016"/>
     <use xlink:href="#DejaVuSans-Bold-34" x="498.779297"/>
     <use xlink:href="#DejaVuSans-Bold-33" x="568.359375"/>
     <use xlink:href="#DejaVuSans-Bold-30" x="637.939453"/>
     <use xlink:href="#DejaVuSans-Bold-29" x="707.519531"/>
    </g>
   </g>
   <g id="text_25">
    <!-- Stream Bitrate over Time -->
    <g transform="translate(293.189062 28.56) scale(0.12 -0.12)">
     <defs>
      <path id="DejaVuSans-53" d="M 3425 4513 
L 3425 3897 
Q 3066 4069 2747 4153 
Q 2428 4238 2131 4238 
Q 1616 4238 1336 4038 
Q 1056 3838 1056 3469 
Q 1056 3159 1242 3001 
Q 1428 2844 1947 2747 
L 2328 2669 
Q 3034 2534 3370 2195 
Q 3706 1856 3706 1288 
Q 3706 609 3251 259 
Q 2797 -91 1919 -91 
Q 1588 -91 1214 -16 
Q 841 59 441 206 
L 441 856 
Q 825 641 1194 531 
Q 1563 422 1919 422 
Q 2459 422 2753 634 
Q 3047 847 3047 1241 
Q 3047 1584 2836 1778 
Q 2625 1972 2144 2069 
L 1759 2144 
Q 1053 2284 737 2584 
Q 422 2884 422 3419 
Q 422 4038 858 4394 
Q 1294 4750 2059 4750 
Q 2388 4750 2728 4690 
Q 3069 4631 3425 4513 
z
" transform="scale(0.015625)"/>
      <path id="DejaVuSans-6f" d="M 1959 3097 
Q 1497 3097 1228 2736 
Q 959 2375 959 1747 
Q 959 1119 1226 758 
Q 1494 397 1959 397 
Q 2419 397 2687 759 
Q 2956 1122 2956 1747 
Q 2956 2369 2687 2733 
Q 2419 3097 1959 3097 
z
M 1959 3584 
Q 2709 3584 3137 3096 
Q 3566 2609 3566 1747 
Q 3566 888 3137 398 
Q 2709 -91 1959 -91 
Q 1206 -91 779 398 
Q 353 888 353 1747 
Q 353 2609 779 3096 
Q 1206 3584 1959 3584 
z
" transform="scale(0.015625)"/>
      <path id="DejaVuSans-76" d="M 191 3500 
L 800 3500 
L 1894 563 
L 2988 3500 
L 3597 3500 
L 2284 0 
L 1503 0 
L 191 3500 
z
" transform="scale(0.015625)"/>
     </defs>
     <use xlink:href="#DejaVuSans-53"/>
     <use xlink:href="#DejaVuSans-74" x="63.476562"/>
     <use xlink:href="#DejaVuSans-72" x="102.685547"/>
     <use xlink:href="#DejaVuSans-65" x="141.548828"/>
     <use xlink:href="#DejaVuSans-61" x="203.072266"/>
     <use xlink:href="#DejaVuSans-6d" x="264.351562"/>
     <use xlink:href="#DejaVuSans-20" x="361.763672"/>
     <use xlink:href="#DejaVuSans-42" x="393.550781"/>
     <use xlink:href="#DejaVuSans-69" x="462.154297"/>
     <use xlink:href="#DejaVuSans-74" x="489.9375"/>
     <use xlink:href="#DejaVuSans-72" x="529.146484"/>
     <use xlink:href="#DejaVuSans-61" x="570.259766"/>
     <use xlink:href="#DejaVuSans-74" x="631.539062"/>
     <use xlink:href="#DejaVuSans-65" x="670.748047"/>
     <use xlink:href="#DejaVuSans-20" x="732.271484"/>
     <use xlink:href="#DejaVuSans-6f" x="764.058594"/>
     <use xlink:href="#DejaVuSans-76" x="825.240234"/>
     <use xlink:href="#DejaVuSans-65" x="884.419922"/>
     <use xlink:href="#DejaVuSans-72" x="945.943359"/>
     <use xlink:href="#DejaVuSans-20" x="987.056641"/>
     <use xlink:href="#DejaVuSans-54" x="1018.84375"/>
     <use xlink:href="#DejaVuSans-69" x="1076.802734"/>
     <use xlink:href="#DejaVuSans-6d" x="1104.585938"/>
     <use xlink:href="#DejaVuSans-65" x="1201.998047"/>
    </g>
   </g>
   <g id="legend_1">
    <g id="patch_7">
     <path d="M 602.139063 86.594375 
L 641 86.594375 
Q 643 86.594375 643 84.594375 
L 643 41.56 
Q 643 39.56 641 39.56 
L 602.139063 39.56 
Q 600.139063 39.56 600.139063 41.56 
L 600.139063 84.594375 
Q 600.139063 86.594375 602.139063 86.594375 
z
" style="fill: #ffffff; opacity: 0.8; stroke: #cccccc; stroke-linejoin: miter"/>
    </g>
    <g id="patch_8">
     <path d="M 604.139063 51.158438 
L 624.139063 51.158438 
L 624.139063 44.158438 
L 604.139063 44.158438 
z
" style="fill: #ff0000; stroke: #ff0000; stroke-width: 0.5; stroke-linejoin: miter"/>
    </g>
    <g id="text_26">
     <!-- I -->
     <g transform="translate(632.139063 51.158438) scale(0.1 -0.1)">
      <defs>
       <path id="DejaVuSans-49" d="M 628 4666 
L 1259 4666 
L 1259 0 
L 628 0 
L 628 4666 
z
" transform="scale(0.015625)"/>
      </defs>
      <use xlink:href="#DejaVuSans-49"/>
     </g>
    </g>
    <g id="patch_9">
     <path d="M 604.139063 65.836563 
L 624.139063 65.836563 
L 624.139063 58.836563 
L 604.139063 58.836563 
z
" style="fill: #0000ff; stroke: #0000ff; stroke-width: 0.5; stroke-linejoin: miter"/>
    </g>
    <g id="text_27">
     <!-- B -->
     <g transform="translate(632.139063 65.836563) scale(0.1 -0.1)">
      <use xlink:href="#DejaVuSans-42"/>
     </g>
    </g>
    <g id="patch_10">
     <path d="M 604.139063 80.514688 
L 624.139063 80.514688 
L 624.139063 73.514688 
L 604.139063 73.514688 
z
" style="fill: #008000; stroke: #008000; stroke-width: 0.5; stroke-linejoin: miter"/>
    </g>
    <g id="text_28">
     <!-- P -->
     <g transform="translate(632.139063 80.514688) scale(0.1 -0.1)">
      <defs>
       <path id="DejaVuSans-50" d="M 1259 4147 
L 1259 2394 
L 2053 2394 
Q 2494 2394 2734 2622 
Q 2975 2850 2975 3272 
Q 2975 3691 2734 3919 
Q 2494 4147 2053 4147 
L 1259 4147 
z
M 628 4666 
L 2053 4666 
Q 2838 4666 3239 4311 
Q 3641 3956 3641 3272 
Q 3641 2581 3239 2228 
Q 2838 1875 2053 1875 
L 1259 1875 
L 1259 0 
L 628 0 
L 628 4666 
z
" transform="scale(0.015625)"/>
      </defs>
      <use xlink:href="#DejaVuSans-50"/>
     </g>
    </g>
   </g>
  </g>
 </g>
 <defs>
  <clipPath id="p800c1ca533">
   <rect x="90" y="34.56" width="558" height="221.76"/>
  </clipPath>
 </defs>
</svg>
