<?xml version="1.0" encoding="utf-8" standalone="no"?>
<!DOCTYPE svg PUBLIC "-//W3C//DTD SVG 1.1//EN"
  "http://www.w3.org/Graphics/SVG/1.1/DTD/svg11.dtd">
<svg xmlns:xlink="http://www.w3.org/1999/xlink" width="720pt" height="288pt" viewBox="0 0 720 288" xmlns="http://www.w3.org/2000/svg" version="1.1">
 <metadata>
  <rdf:RDF xmlns:dc="http://purl.org/dc/elements/1.1/" xmlns:cc="http://creativecommons.org/ns#" xmlns:rdf="http://www.w3.org/1999/02/22-rdf-syntax-ns#">
   <cc:Work>
    <dc:type rdf:resource="http://purl.org/dc/dcmitype/StillImage"/>
    <dc:date>2023-05-07T02:09:04.919755</dc:date>
    <dc:format>image/svg+xml</dc:format>
    <dc:creator>
     <cc:Agent>
      <dc:title>Matplotlib v3.7.1, https://matplotlib.org/</dc:title>
     </cc:Agent>
    </dc:creator>
   </cc:Work>
  </rdf:RDF>
 </metadata>
 <defs>
  <style type="text/css">*{stroke-linejoin: round; stroke-linecap: butt}</style>
 </defs>
 <g id="figure_1">
  <g id="patch_1">
   <path d="M 0 288 
L 720 288 
L 720 0 
L 0 0 
z
" style="fill: #ffffff"/>
  </g>
  <g id="axes_1">
   <g id="patch_2">
    <path d="M 90 256.32 
L 648 256.32 
L 648 34.56 
L 90 34.56 
z
" style="fill: #ffffff"/>
   </g>
   <g id="matplotlib.axis_1">
    <g id="xtick_1">
     <g id="line2d_1">
      <defs>
       <path id="m929fdd0dcf" d="M 0 0 
L 0 3.5 
" style="stroke: #000000; stroke-width: 0.8"/>
      </defs>
      <g>
       <use xlink:href="#m929fdd0dcf" x="115.363636" y="256.32" style="stroke: #000000; stroke-width: 0.8"/>
      </g>
     </g>
     <g id="text_1">
      <!-- 0:00:00 -->
      <g transform="translate(96.088636 270.918437) scale(0.1 -0.1)">
       <defs>
        <path id="DejaVuSans-30" d="M 2034 4250 
Q 1547 4250 1301 3770 
Q 1056 3291 1056 2328 
Q 1056 1369 1301 889 
Q 1547 409 2034 409 
Q 2525 409 2770 889 
Q 3016 1369 3016 2328 
Q 3016 3291 2770 3770 
Q 2525 4250 2034 4250 
z
M 2034 4750 
Q 2819 4750 3233 4129 
Q 3647 3509 3647 2328 
Q 3647 1150 3233 529 
Q 2819 -91 2034 -91 
Q 1250 -91 836 529 
Q 422 1150 422 2328 
Q 422 3509 836 4129 
Q 1250 4750 2034 4750 
z
" transform="scale(0.015625)"/>
        <path id="DejaVuSans-3a" d="M 750 794 
L 1409 794 
L 1409 0 
L 750 0 
L 750 794 
z
M 750 3309 
L 1409 3309 
L 1409 2516 
L 750 2516 
L 750 3309 
z
" transform="scale(0.015625)"/>
       </defs>
       <use xlink:href="#DejaVuSans-30"/>
       <use xlink:href="#DejaVuSans-3a" x="63.623047"/>
       <use xlink:href="#DejaVuSans-30" x="97.314453"/>
       <use xlink:href="#DejaVuSans-30" x="160.9375"/>
       <use xlink:href="#DejaVuSans-3a" x="224.560547"/>
       <use xlink:href="#DejaVuSans-30" x="258.251953"/>
       <use xlink:href="#DejaVuSans-30" x="321.875"/>
      </g>
     </g>
    </g>
    <g id="xtick_2">
     <g id="line2d_2">
      <g>
       <use xlink:href="#m929fdd0dcf" x="166.090909" y="256.32" style="stroke: #000000; stroke-width: 0.8"/>
      </g>
     </g>
     <g id="text_2">
      <!-- 0:00:30 -->
      <g transform="translate(146.815909 270.918437) scale(0.1 -0.1)">
       <defs>
        <path id="DejaVuSans-33" d="M 2597 2516 
Q 3050 2419 3304 2112 
Q 3559 1806 3559 1356 
Q 3559 666 3084 287 
Q 2609 -91 1734 -91 
Q 1441 -91 1130 -33 
Q 819 25 488 141 
L 488 750 
Q 750 597 1062 519 
Q 1375 441 1716 441 
Q 2309 441 2620 675 
Q 2931 909 2931 1356 
Q 2931 1769 2642 2001 
Q 2353 2234 1838 2234 
L 1294 2234 
L 1294 2753 
L 1863 2753 
Q 2328 2753 2575 2939 
Q 2822 3125 2822 3475 
Q 2822 3834 2567 4026 
Q 2313 4219 1838 4219 
Q 1578 4219 1281 4162 
Q 984 4106 628 3988 
L 628 4550 
Q 988 4650 1302 4700 
Q 1616 4750 1894 4750 
Q 2613 4750 3031 4423 
Q 3450 4097 3450 3541 
Q 3450 3153 3228 2886 
Q 3006 2619 2597 2516 
z
" transform="scale(0.015625)"/>
       </defs>
       <use xlink:href="#DejaVuSans-30"/>
       <use xlink:href="#DejaVuSans-3a" x="63.623047"/>
       <use xlink:href="#DejaVuSans-30" x="97.314453"/>
       <use xlink:href="#DejaVuSans-30" x="160.9375"/>
       <use xlink:href="#DejaVuSans-3a" x="224.560547"/>
       <use xlink:href="#DejaVuSans-33" x="258.251953"/>
       <use xlink:href="#DejaVuSans-30" x="321.875"/>
      </g>
     </g>
    </g>
    <g id="xtick_3">
     <g id="line2d_3">
      <g>
       <use xlink:href="#m929fdd0dcf" x="216.818182" y="256.32" style="stroke: #000000; stroke-width: 0.8"/>
      </g>
     </g>
     <g id="text_3">
      <!-- 0:01:00 -->
      <g transform="translate(197.543182 270.918437) scale(0.1 -0.1)">
       <defs>
        <path id="DejaVuSans-31" d="M 794 531 
L 1825 531 
L 1825 4091 
L 703 3866 
L 703 4441 
L 1819 4666 
L 2450 4666 
L 2450 531 
L 3481 531 
L 3481 0 
L 794 0 
L 794 531 
z
" transform="scale(0.015625)"/>
       </defs>
       <use xlink:href="#DejaVuSans-30"/>
       <use xlink:href="#DejaVuSans-3a" x="63.623047"/>
       <use xlink:href="#DejaVuSans-30" x="97.314453"/>
       <use xlink:href="#DejaVuSans-31" x="160.9375"/>
       <use xlink:href="#DejaVuSans-3a" x="224.560547"/>
       <use xlink:href="#DejaVuSans-30" x="258.251953"/>
       <use xlink:href="#DejaVuSans-30" x="321.875"/>
      </g>
     </g>
    </g>
    <g id="xtick_4">
     <g id="line2d_4">
      <g>
       <use xlink:href="#m929fdd0dcf" x="267.545455" y="256.32" style="stroke: #000000; stroke-width: 0.8"/>
      </g>
     </g>
     <g id="text_4">
      <!-- 0:01:30 -->
      <g transform="translate(248.270455 270.918437) scale(0.1 -0.1)">
       <use xlink:href="#DejaVuSans-30"/>
       <use xlink:href="#DejaVuSans-3a" x="63.623047"/>
       <use xlink:href="#DejaVuSans-30" x="97.314453"/>
       <use xlink:href="#DejaVuSans-31" x="160.9375"/>
       <use xlink:href="#DejaVuSans-3a" x="224.560547"/>
       <use xlink:href="#DejaVuSans-33" x="258.251953"/>
       <use xlink:href="#DejaVuSans-30" x="321.875"/>
      </g>
     </g>
    </g>
    <g id="xtick_5">
     <g id="line2d_5">
      <g>
       <use xlink:href="#m929fdd0dcf" x="318.272727" y="256.32" style="stroke: #000000; stroke-width: 0.8"/>
      </g>
     </g>
     <g id="text_5">
      <!-- 0:02:00 -->
      <g transform="translate(298.997727 270.918437) scale(0.1 -0.1)">
       <defs>
        <path id="DejaVuSans-32" d="M 1228 531 
L 3431 531 
L 3431 0 
L 469 0 
L 469 531 
Q 828 903 1448 1529 
Q 2069 2156 2228 2338 
Q 2531 2678 2651 2914 
Q 2772 3150 2772 3378 
Q 2772 3750 2511 3984 
Q 2250 4219 1831 4219 
Q 1534 4219 1204 4116 
Q 875 4013 500 3803 
L 500 4441 
Q 881 4594 1212 4672 
Q 1544 4750 1819 4750 
Q 2544 4750 2975 4387 
Q 3406 4025 3406 3419 
Q 3406 3131 3298 2873 
Q 3191 2616 2906 2266 
Q 2828 2175 2409 1742 
Q 1991 1309 1228 531 
z
" transform="scale(0.015625)"/>
       </defs>
       <use xlink:href="#DejaVuSans-30"/>
       <use xlink:href="#DejaVuSans-3a" x="63.623047"/>
       <use xlink:href="#DejaVuSans-30" x="97.314453"/>
       <use xlink:href="#DejaVuSans-32" x="160.9375"/>
       <use xlink:href="#DejaVuSans-3a" x="224.560547"/>
       <use xlink:href="#DejaVuSans-30" x="258.251953"/>
       <use xlink:href="#DejaVuSans-30" x="321.875"/>
      </g>
     </g>
    </g>
    <g id="xtick_6">
     <g id="line2d_6">
      <g>
       <use xlink:href="#m929fdd0dcf" x="369" y="256.32" style="stroke: #000000; stroke-width: 0.8"/>
      </g>
     </g>
     <g id="text_6">
      <!-- 0:02:30 -->
      <g transform="translate(349.725 270.918437) scale(0.1 -0.1)">
       <use xlink:href="#DejaVuSans-30"/>
       <use xlink:href="#DejaVuSans-3a" x="63.623047"/>
       <use xlink:href="#DejaVuSans-30" x="97.314453"/>
       <use xlink:href="#DejaVuSans-32" x="160.9375"/>
       <use xlink:href="#DejaVuSans-3a" x="224.560547"/>
       <use xlink:href="#DejaVuSans-33" x="258.251953"/>
       <use xlink:href="#DejaVuSans-30" x="321.875"/>
      </g>
     </g>
    </g>
    <g id="xtick_7">
     <g id="line2d_7">
      <g>
       <use xlink:href="#m929fdd0dcf" x="419.727273" y="256.32" style="stroke: #000000; stroke-width: 0.8"/>
      </g>
     </g>
     <g id="text_7">
      <!-- 0:03:00 -->
      <g transform="translate(400.452273 270.918437) scale(0.1 -0.1)">
       <use xlink:href="#DejaVuSans-30"/>
       <use xlink:href="#DejaVuSans-3a" x="63.623047"/>
       <use xlink:href="#DejaVuSans-30" x="97.314453"/>
       <use xlink:href="#DejaVuSans-33" x="160.9375"/>
       <use xlink:href="#DejaVuSans-3a" x="224.560547"/>
       <use xlink:href="#DejaVuSans-30" x="258.251953"/>
       <use xlink:href="#DejaVuSans-30" x="321.875"/>
      </g>
     </g>
    </g>
    <g id="xtick_8">
     <g id="line2d_8">
      <g>
       <use xlink:href="#m929fdd0dcf" x="470.454545" y="256.32" style="stroke: #000000; stroke-width: 0.8"/>
      </g>
     </g>
     <g id="text_8">
      <!-- 0:03:30 -->
      <g transform="translate(451.179545 270.918437) scale(0.1 -0.1)">
       <use xlink:href="#DejaVuSans-30"/>
       <use xlink:href="#DejaVuSans-3a" x="63.623047"/>
       <use xlink:href="#DejaVuSans-30" x="97.314453"/>
       <use xlink:href="#DejaVuSans-33" x="160.9375"/>
       <use xlink:href="#DejaVuSans-3a" x="224.560547"/>
       <use xlink:href="#DejaVuSans-33" x="258.251953"/>
       <use xlink:href="#DejaVuSans-30" x="321.875"/>
      </g>
     </g>
    </g>
    <g id="xtick_9">
     <g id="line2d_9">
      <g>
       <use xlink:href="#m929fdd0dcf" x="521.181818" y="256.32" style="stroke: #000000; stroke-width: 0.8"/>
      </g>
     </g>
     <g id="text_9">
      <!-- 0:04:00 -->
      <g transform="translate(501.906818 270.918437) scale(0.1 -0.1)">
       <defs>
        <path id="DejaVuSans-34" d="M 2419 4116 
L 825 1625 
L 2419 1625 
L 2419 4116 
z
M 2253 4666 
L 3047 4666 
L 3047 1625 
L 3713 1625 
L 3713 1100 
L 3047 1100 
L 3047 0 
L 2419 0 
L 2419 1100 
L 313 1100 
L 313 1709 
L 2253 4666 
z
" transform="scale(0.015625)"/>
       </defs>
       <use xlink:href="#DejaVuSans-30"/>
       <use xlink:href="#DejaVuSans-3a" x="63.623047"/>
       <use xlink:href="#DejaVuSans-30" x="97.314453"/>
       <use xlink:href="#DejaVuSans-34" x="160.9375"/>
       <use xlink:href="#DejaVuSans-3a" x="224.560547"/>
       <use xlink:href="#DejaVuSans-30" x="258.251953"/>
       <use xlink:href="#DejaVuSans-30" x="321.875"/>
      </g>
     </g>
    </g>
    <g id="xtick_10">
     <g id="line2d_10">
      <g>
       <use xlink:href="#m929fdd0dcf" x="571.909091" y="256.32" style="stroke: #000000; stroke-width: 0.8"/>
      </g>
     </g>
     <g id="text_10">
      <!-- 0:04:30 -->
      <g transform="translate(552.634091 270.918437) scale(0.1 -0.1)">
       <use xlink:href="#DejaVuSans-30"/>
       <use xlink:href="#DejaVuSans-3a" x="63.623047"/>
       <use xlink:href="#DejaVuSans-30" x="97.314453"/>
       <use xlink:href="#DejaVuSans-34" x="160.9375"/>
       <use xlink:href="#DejaVuSans-3a" x="224.560547"/>
       <use xlink:href="#DejaVuSans-33" x="258.251953"/>
       <use xlink:href="#DejaVuSans-30" x="321.875"/>
      </g>
     </g>
    </g>
    <g id="xtick_11">
     <g id="line2d_11">
      <g>
       <use xlink:href="#m929fdd0dcf" x="622.636364" y="256.32" style="stroke: #000000; stroke-width: 0.8"/>
      </g>
     </g>
     <g id="text_11">
      <!-- 0:05:00 -->
      <g transform="translate(603.361364 270.918437) scale(0.1 -0.1)">
       <defs>
        <path id="DejaVuSans-35" d="M 691 4666 
L 3169 4666 
L 3169 4134 
L 1269 4134 
L 1269 2991 
Q 1406 3038 1543 3061 
Q 1681 3084 1819 3084 
Q 2600 3084 3056 2656 
Q 3513 2228 3513 1497 
Q 3513 744 3044 326 
Q 2575 -91 1722 -91 
Q 1428 -91 1123 -41 
Q 819 9 494 109 
L 494 744 
Q 775 591 1075 516 
Q 1375 441 1709 441 
Q 2250 441 2565 725 
Q 2881 1009 2881 1497 
Q 2881 1984 2565 2268 
Q 2250 2553 1709 2553 
Q 1456 2553 1204 2497 
Q 953 2441 691 2322 
L 691 4666 
z
" transform="scale(0.015625)"/>
       </defs>
       <use xlink:href="#DejaVuSans-30"/>
       <use xlink:href="#DejaVuSans-3a" x="63.623047"/>
       <use xlink:href="#DejaVuSans-30" x="97.314453"/>
       <use xlink:href="#DejaVuSans-35" x="160.9375"/>
       <use xlink:href="#DejaVuSans-3a" x="224.560547"/>
       <use xlink:href="#DejaVuSans-30" x="258.251953"/>
       <use xlink:href="#DejaVuSans-30" x="321.875"/>
      </g>
     </g>
    </g>
    <g id="text_12">
     <!-- Time -->
     <g transform="translate(356.766406 284.596563) scale(0.1 -0.1)">
      <defs>
       <path id="DejaVuSans-54" d="M -19 4666 
L 3928 4666 
L 3928 4134 
L 2272 4134 
L 2272 0 
L 1638 0 
L 1638 4134 
L -19 4134 
L -19 4666 
z
" transform="scale(0.015625)"/>
       <path id="DejaVuSans-69" d="M 603 3500 
L 1178 3500 
L 1178 0 
L 603 0 
L 603 3500 
z
M 603 4863 
L 1178 4863 
L 1178 4134 
L 603 4134 
L 603 4863 
z
" transform="scale(0.015625)"/>
       <path id="DejaVuSans-6d" d="M 3328 2828 
Q 3544 3216 3844 3400 
Q 4144 3584 4550 3584 
Q 5097 3584 5394 3201 
Q 5691 2819 5691 2113 
L 5691 0 
L 5113 0 
L 5113 2094 
Q 5113 2597 4934 2840 
Q 4756 3084 4391 3084 
Q 3944 3084 3684 2787 
Q 3425 2491 3425 1978 
L 3425 0 
L 2847 0 
L 2847 2094 
Q 2847 2600 2669 2842 
Q 2491 3084 2119 3084 
Q 1678 3084 1418 2786 
Q 1159 2488 1159 1978 
L 1159 0 
L 581 0 
L 581 3500 
L 1159 3500 
L 1159 2956 
Q 1356 3278 1631 3431 
Q 1906 3584 2284 3584 
Q 2666 3584 2933 3390 
Q 3200 3197 3328 2828 
z
" transform="scale(0.015625)"/>
       <path id="DejaVuSans-65" d="M 3597 1894 
L 3597 1613 
L 953 1613 
Q 991 1019 1311 708 
Q 1631 397 2203 397 
Q 2534 397 2845 478 
Q 3156 559 3463 722 
L 3463 178 
Q 3153 47 2828 -22 
Q 2503 -91 2169 -91 
Q 1331 -91 842 396 
Q 353 884 353 1716 
Q 353 2575 817 3079 
Q 1281 3584 2069 3584 
Q 2775 3584 3186 3129 
Q 3597 2675 3597 1894 
z
M 3022 2063 
Q 3016 2534 2758 2815 
Q 2500 3097 2075 3097 
Q 1594 3097 1305 2825 
Q 1016 2553 972 2059 
L 3022 2063 
z
" transform="scale(0.015625)"/>
      </defs>
      <use xlink:href="#DejaVuSans-54"/>
      <use xlink:href="#DejaVuSans-69" x="57.958984"/>
      <use xlink:href="#DejaVuSans-6d" x="85.742188"/>
      <use xlink:href="#DejaVuSans-65" x="183.154297"/>
     </g>
    </g>
   </g>
   <g id="matplotlib.axis_2">
    <g id="ytick_1">
     <g id="line2d_12">
      <path d="M 90 246.24 
L 648 246.24 
" clip-path="url(#p5a70a24102)" style="fill: none; stroke: #b0b0b0; stroke-width: 0.8; stroke-linecap: square"/>
     </g>
     <g id="line2d_13">
      <defs>
       <path id="ma7bede146e" d="M 0 0 
L -3.5 0 
" style="stroke: #000000; stroke-width: 0.8"/>
      </defs>
      <g>
       <use xlink:href="#ma7bede146e" x="90" y="246.24" style="stroke: #000000; stroke-width: 0.8"/>
      </g>
     </g>
     <g id="text_13">
      <!-- 0 -->
      <g transform="translate(76.6375 250.039219) scale(0.1 -0.1)">
       <use xlink:href="#DejaVuSans-30"/>
      </g>
     </g>
    </g>
    <g id="ytick_2">
     <g id="line2d_14">
      <path d="M 90 210.444545 
L 648 210.444545 
" clip-path="url(#p5a70a24102)" style="fill: none; stroke: #b0b0b0; stroke-width: 0.8; stroke-linecap: square"/>
     </g>
     <g id="line2d_15">
      <g>
       <use xlink:href="#ma7bede146e" x="90" y="210.444545" style="stroke: #000000; stroke-width: 0.8"/>
      </g>
     </g>
     <g id="text_14">
      <!-- 500 -->
      <g transform="translate(63.9125 214.243764) scale(0.1 -0.1)">
       <use xlink:href="#DejaVuSans-35"/>
       <use xlink:href="#DejaVuSans-30" x="63.623047"/>
       <use xlink:href="#DejaVuSans-30" x="127.246094"/>
      </g>
     </g>
    </g>
    <g id="ytick_3">
     <g id="line2d_16">
      <path d="M 90 174.649091 
L 648 174.649091 
" clip-path="url(#p5a70a24102)" style="fill: none; stroke: #b0b0b0; stroke-width: 0.8; stroke-linecap: square"/>
     </g>
     <g id="line2d_17">
      <g>
       <use xlink:href="#ma7bede146e" x="90" y="174.649091" style="stroke: #000000; stroke-width: 0.8"/>
      </g>
     </g>
     <g id="text_15">
      <!-- 1,000 -->
      <g transform="translate(54.371875 178.44831) scale(0.1 -0.1)">
       <defs>
        <path id="DejaVuSans-2c" d="M 750 794 
L 1409 794 
L 1409 256 
L 897 -744 
L 494 -744 
L 750 256 
L 750 794 
z
" transform="scale(0.015625)"/>
       </defs>
       <use xlink:href="#DejaVuSans-31"/>
       <use xlink:href="#DejaVuSans-2c" x="63.623047"/>
       <use xlink:href="#DejaVuSans-30" x="95.410156"/>
       <use xlink:href="#DejaVuSans-30" x="159.033203"/>
       <use xlink:href="#DejaVuSans-30" x="222.65625"/>
      </g>
     </g>
    </g>
    <g id="ytick_4">
     <g id="line2d_18">
      <path d="M 90 138.853636 
L 648 138.853636 
" clip-path="url(#p5a70a24102)" style="fill: none; stroke: #b0b0b0; stroke-width: 0.8; stroke-linecap: square"/>
     </g>
     <g id="line2d_19">
      <g>
       <use xlink:href="#ma7bede146e" x="90" y="138.853636" style="stroke: #000000; stroke-width: 0.8"/>
      </g>
     </g>
     <g id="text_16">
      <!-- 1,500 -->
      <g transform="translate(54.371875 142.652855) scale(0.1 -0.1)">
       <use xlink:href="#DejaVuSans-31"/>
       <use xlink:href="#DejaVuSans-2c" x="63.623047"/>
       <use xlink:href="#DejaVuSans-35" x="95.410156"/>
       <use xlink:href="#DejaVuSans-30" x="159.033203"/>
       <use xlink:href="#DejaVuSans-30" x="222.65625"/>
      </g>
     </g>
    </g>
    <g id="ytick_5">
     <g id="line2d_20">
      <path d="M 90 103.058182 
L 648 103.058182 
" clip-path="url(#p5a70a24102)" style="fill: none; stroke: #b0b0b0; stroke-width: 0.8; stroke-linecap: square"/>
     </g>
     <g id="line2d_21">
      <g>
       <use xlink:href="#ma7bede146e" x="90" y="103.058182" style="stroke: #000000; stroke-width: 0.8"/>
      </g>
     </g>
     <g id="text_17">
      <!-- 2,000 -->
      <g transform="translate(54.371875 106.857401) scale(0.1 -0.1)">
       <use xlink:href="#DejaVuSans-32"/>
       <use xlink:href="#DejaVuSans-2c" x="63.623047"/>
       <use xlink:href="#DejaVuSans-30" x="95.410156"/>
       <use xlink:href="#DejaVuSans-30" x="159.033203"/>
       <use xlink:href="#DejaVuSans-30" x="222.65625"/>
      </g>
     </g>
    </g>
    <g id="ytick_6">
     <g id="line2d_22">
      <path d="M 90 67.262727 
L 648 67.262727 
" clip-path="url(#p5a70a24102)" style="fill: none; stroke: #b0b0b0; stroke-width: 0.8; stroke-linecap: square"/>
     </g>
     <g id="line2d_23">
      <g>
       <use xlink:href="#ma7bede146e" x="90" y="67.262727" style="stroke: #000000; stroke-width: 0.8"/>
      </g>
     </g>
     <g id="text_18">
      <!-- 2,500 -->
      <g transform="translate(54.371875 71.061946) scale(0.1 -0.1)">
       <use xlink:href="#DejaVuSans-32"/>
       <use xlink:href="#DejaVuSans-2c" x="63.623047"/>
       <use xlink:href="#DejaVuSans-35" x="95.410156"/>
       <use xlink:href="#DejaVuSans-30" x="159.033203"/>
       <use xlink:href="#DejaVuSans-30" x="222.65625"/>
      </g>
     </g>
    </g>
    <g id="text_19">
     <!-- Bitrate (kbit/s) -->
     <g transform="translate(48.292187 181.574375) rotate(-90) scale(0.1 -0.1)">
      <defs>
       <path id="DejaVuSans-42" d="M 1259 2228 
L 1259 519 
L 2272 519 
Q 2781 519 3026 730 
Q 3272 941 3272 1375 
Q 3272 1813 3026 2020 
Q 2781 2228 2272 2228 
L 1259 2228 
z
M 1259 4147 
L 1259 2741 
L 2194 2741 
Q 2656 2741 2882 2914 
Q 3109 3088 3109 3444 
Q 3109 3797 2882 3972 
Q 2656 4147 2194 4147 
L 1259 4147 
z
M 628 4666 
L 2241 4666 
Q 2963 4666 3353 4366 
Q 3744 4066 3744 3513 
Q 3744 3084 3544 2831 
Q 3344 2578 2956 2516 
Q 3422 2416 3680 2098 
Q 3938 1781 3938 1306 
Q 3938 681 3513 340 
Q 3088 0 2303 0 
L 628 0 
L 628 4666 
z
" transform="scale(0.015625)"/>
       <path id="DejaVuSans-74" d="M 1172 4494 
L 1172 3500 
L 2356 3500 
L 2356 3053 
L 1172 3053 
L 1172 1153 
Q 1172 725 1289 603 
Q 1406 481 1766 481 
L 2356 481 
L 2356 0 
L 1766 0 
Q 1100 0 847 248 
Q 594 497 594 1153 
L 594 3053 
L 172 3053 
L 172 3500 
L 594 3500 
L 594 4494 
L 1172 4494 
z
" transform="scale(0.015625)"/>
       <path id="DejaVuSans-72" d="M 2631 2963 
Q 2534 3019 2420 3045 
Q 2306 3072 2169 3072 
Q 1681 3072 1420 2755 
Q 1159 2438 1159 1844 
L 1159 0 
L 581 0 
L 581 3500 
L 1159 3500 
L 1159 2956 
Q 1341 3275 1631 3429 
Q 1922 3584 2338 3584 
Q 2397 3584 2469 3576 
Q 2541 3569 2628 3553 
L 2631 2963 
z
" transform="scale(0.015625)"/>
       <path id="DejaVuSans-61" d="M 2194 1759 
Q 1497 1759 1228 1600 
Q 959 1441 959 1056 
Q 959 750 1161 570 
Q 1363 391 1709 391 
Q 2188 391 2477 730 
Q 2766 1069 2766 1631 
L 2766 1759 
L 2194 1759 
z
M 3341 1997 
L 3341 0 
L 2766 0 
L 2766 531 
Q 2569 213 2275 61 
Q 1981 -91 1556 -91 
Q 1019 -91 701 211 
Q 384 513 384 1019 
Q 384 1609 779 1909 
Q 1175 2209 1959 2209 
L 2766 2209 
L 2766 2266 
Q 2766 2663 2505 2880 
Q 2244 3097 1772 3097 
Q 1472 3097 1187 3025 
Q 903 2953 641 2809 
L 641 3341 
Q 956 3463 1253 3523 
Q 1550 3584 1831 3584 
Q 2591 3584 2966 3190 
Q 3341 2797 3341 1997 
z
" transform="scale(0.015625)"/>
       <path id="DejaVuSans-20" transform="scale(0.015625)"/>
       <path id="DejaVuSans-28" d="M 1984 4856 
Q 1566 4138 1362 3434 
Q 1159 2731 1159 2009 
Q 1159 1288 1364 580 
Q 1569 -128 1984 -844 
L 1484 -844 
Q 1016 -109 783 600 
Q 550 1309 550 2009 
Q 550 2706 781 3412 
Q 1013 4119 1484 4856 
L 1984 4856 
z
" transform="scale(0.015625)"/>
       <path id="DejaVuSans-6b" d="M 581 4863 
L 1159 4863 
L 1159 1991 
L 2875 3500 
L 3609 3500 
L 1753 1863 
L 3688 0 
L 2938 0 
L 1159 1709 
L 1159 0 
L 581 0 
L 581 4863 
z
" transform="scale(0.015625)"/>
       <path id="DejaVuSans-62" d="M 3116 1747 
Q 3116 2381 2855 2742 
Q 2594 3103 2138 3103 
Q 1681 3103 1420 2742 
Q 1159 2381 1159 1747 
Q 1159 1113 1420 752 
Q 1681 391 2138 391 
Q 2594 391 2855 752 
Q 3116 1113 3116 1747 
z
M 1159 2969 
Q 1341 3281 1617 3432 
Q 1894 3584 2278 3584 
Q 2916 3584 3314 3078 
Q 3713 2572 3713 1747 
Q 3713 922 3314 415 
Q 2916 -91 2278 -91 
Q 1894 -91 1617 61 
Q 1341 213 1159 525 
L 1159 0 
L 581 0 
L 581 4863 
L 1159 4863 
L 1159 2969 
z
" transform="scale(0.015625)"/>
       <path id="DejaVuSans-2f" d="M 1625 4666 
L 2156 4666 
L 531 -594 
L 0 -594 
L 1625 4666 
z
" transform="scale(0.015625)"/>
       <path id="DejaVuSans-73" d="M 2834 3397 
L 2834 2853 
Q 2591 2978 2328 3040 
Q 2066 3103 1784 3103 
Q 1356 3103 1142 2972 
Q 928 2841 928 2578 
Q 928 2378 1081 2264 
Q 1234 2150 1697 2047 
L 1894 2003 
Q 2506 1872 2764 1633 
Q 3022 1394 3022 966 
Q 3022 478 2636 193 
Q 2250 -91 1575 -91 
Q 1294 -91 989 -36 
Q 684 19 347 128 
L 347 722 
Q 666 556 975 473 
Q 1284 391 1588 391 
Q 1994 391 2212 530 
Q 2431 669 2431 922 
Q 2431 1156 2273 1281 
Q 2116 1406 1581 1522 
L 1381 1569 
Q 847 1681 609 1914 
Q 372 2147 372 2553 
Q 372 3047 722 3315 
Q 1072 3584 1716 3584 
Q 2034 3584 2315 3537 
Q 2597 3491 2834 3397 
z
" transform="scale(0.015625)"/>
       <path id="DejaVuSans-29" d="M 513 4856 
L 1013 4856 
Q 1481 4119 1714 3412 
Q 1947 2706 1947 2009 
Q 1947 1309 1714 600 
Q 1481 -109 1013 -844 
L 513 -844 
Q 928 -128 1133 580 
Q 1338 1288 1338 2009 
Q 1338 2731 1133 3434 
Q 928 4138 513 4856 
z
" transform="scale(0.015625)"/>
      </defs>
      <use xlink:href="#DejaVuSans-42"/>
      <use xlink:href="#DejaVuSans-69" x="68.603516"/>
      <use xlink:href="#DejaVuSans-74" x="96.386719"/>
      <use xlink:href="#DejaVuSans-72" x="135.595703"/>
      <use xlink:href="#DejaVuSans-61" x="176.708984"/>
      <use xlink:href="#DejaVuSans-74" x="237.988281"/>
      <use xlink:href="#DejaVuSans-65" x="277.197266"/>
      <use xlink:href="#DejaVuSans-20" x="338.720703"/>
      <use xlink:href="#DejaVuSans-28" x="370.507812"/>
      <use xlink:href="#DejaVuSans-6b" x="409.521484"/>
      <use xlink:href="#DejaVuSans-62" x="467.431641"/>
      <use xlink:href="#DejaVuSans-69" x="530.908203"/>
      <use xlink:href="#DejaVuSans-74" x="558.691406"/>
      <use xlink:href="#DejaVuSans-2f" x="597.900391"/>
      <use xlink:href="#DejaVuSans-73" x="631.591797"/>
      <use xlink:href="#DejaVuSans-29" x="683.691406"/>
     </g>
    </g>
   </g>
   <g id="PolyCollection_1">
    <defs>
     <path id="m2ebdb6d40e" d="M 115.363636 -43.048636 
L 115.363636 -41.76 
L 117.054545 -41.76 
L 118.745455 -41.76 
L 120.436364 -41.76 
L 122.127273 -41.76 
L 123.818182 -41.76 
L 125.509091 -41.76 
L 127.2 -41.76 
L 128.890909 -41.76 
L 130.581818 -41.76 
L 132.272727 -41.76 
L 133.963636 -41.76 
L 135.654545 -41.76 
L 137.345455 -41.76 
L 139.036364 -41.76 
L 140.727273 -41.76 
L 142.418182 -41.76 
L 144.109091 -41.76 
L 145.8 -41.76 
L 147.490909 -41.76 
L 149.181818 -41.76 
L 150.872727 -41.76 
L 152.563636 -41.76 
L 154.254545 -41.76 
L 155.945455 -41.76 
L 157.636364 -41.76 
L 159.327273 -41.76 
L 161.018182 -41.76 
L 162.709091 -41.76 
L 164.4 -41.76 
L 166.090909 -41.76 
L 167.781818 -41.76 
L 169.472727 -41.76 
L 171.163636 -41.76 
L 172.854545 -41.76 
L 174.545455 -41.76 
L 176.236364 -41.76 
L 177.927273 -41.76 
L 179.618182 -41.76 
L 181.309091 -41.76 
L 183 -41.76 
L 184.690909 -41.76 
L 186.381818 -41.76 
L 188.072727 -41.76 
L 189.763636 -41.76 
L 191.454545 -41.76 
L 193.145455 -41.76 
L 194.836364 -41.76 
L 196.527273 -41.76 
L 198.218182 -41.76 
L 199.909091 -41.76 
L 201.6 -41.76 
L 203.290909 -41.76 
L 204.981818 -41.76 
L 206.672727 -41.76 
L 208.363636 -41.76 
L 210.054545 -41.76 
L 211.745455 -41.76 
L 213.436364 -41.76 
L 215.127273 -41.76 
L 216.818182 -41.76 
L 218.509091 -41.76 
L 220.2 -41.76 
L 221.890909 -41.76 
L 223.581818 -41.76 
L 225.272727 -41.76 
L 226.963636 -41.76 
L 228.654545 -41.76 
L 230.345455 -41.76 
L 232.036364 -41.76 
L 233.727273 -41.76 
L 235.418182 -41.76 
L 237.109091 -41.76 
L 238.8 -41.76 
L 240.490909 -41.76 
L 242.181818 -41.76 
L 243.872727 -41.76 
L 245.563636 -41.76 
L 247.254545 -41.76 
L 248.945455 -41.76 
L 250.636364 -41.76 
L 252.327273 -41.76 
L 254.018182 -41.76 
L 255.709091 -41.76 
L 257.4 -41.76 
L 259.090909 -41.76 
L 260.781818 -41.76 
L 262.472727 -41.76 
L 264.163636 -41.76 
L 265.854545 -41.76 
L 267.545455 -41.76 
L 269.236364 -41.76 
L 270.927273 -41.76 
L 272.618182 -41.76 
L 274.309091 -41.76 
L 276 -41.76 
L 277.690909 -41.76 
L 279.381818 -41.76 
L 281.072727 -41.76 
L 282.763636 -41.76 
L 284.454545 -41.76 
L 286.145455 -41.76 
L 287.836364 -41.76 
L 289.527273 -41.76 
L 291.218182 -41.76 
L 292.909091 -41.76 
L 294.6 -41.76 
L 296.290909 -41.76 
L 297.981818 -41.76 
L 299.672727 -41.76 
L 301.363636 -41.76 
L 303.054545 -41.76 
L 304.745455 -41.76 
L 306.436364 -41.76 
L 308.127273 -41.76 
L 309.818182 -41.76 
L 311.509091 -41.76 
L 313.2 -41.76 
L 314.890909 -41.76 
L 316.581818 -41.76 
L 318.272727 -41.76 
L 319.963636 -41.76 
L 321.654545 -41.76 
L 323.345455 -41.76 
L 325.036364 -41.76 
L 326.727273 -41.76 
L 328.418182 -41.76 
L 330.109091 -41.76 
L 331.8 -41.76 
L 333.490909 -41.76 
L 335.181818 -41.76 
L 336.872727 -41.76 
L 338.563636 -41.76 
L 340.254545 -41.76 
L 341.945455 -41.76 
L 343.636364 -41.76 
L 345.327273 -41.76 
L 347.018182 -41.76 
L 348.709091 -41.76 
L 350.4 -41.76 
L 352.090909 -41.76 
L 353.781818 -41.76 
L 355.472727 -41.76 
L 357.163636 -41.76 
L 358.854545 -41.76 
L 360.545455 -41.76 
L 362.236364 -41.76 
L 363.927273 -41.76 
L 365.618182 -41.76 
L 367.309091 -41.76 
L 369 -41.76 
L 370.690909 -41.76 
L 372.381818 -41.76 
L 374.072727 -41.76 
L 375.763636 -41.76 
L 377.454545 -41.76 
L 379.145455 -41.76 
L 380.836364 -41.76 
L 382.527273 -41.76 
L 384.218182 -41.76 
L 385.909091 -41.76 
L 387.6 -41.76 
L 389.290909 -41.76 
L 390.981818 -41.76 
L 392.672727 -41.76 
L 394.363636 -41.76 
L 396.054545 -41.76 
L 397.745455 -41.76 
L 399.436364 -41.76 
L 401.127273 -41.76 
L 402.818182 -41.76 
L 404.509091 -41.76 
L 406.2 -41.76 
L 407.890909 -41.76 
L 409.581818 -41.76 
L 411.272727 -41.76 
L 412.963636 -41.76 
L 414.654545 -41.76 
L 416.345455 -41.76 
L 418.036364 -41.76 
L 419.727273 -41.76 
L 421.418182 -41.76 
L 423.109091 -41.76 
L 424.8 -41.76 
L 426.490909 -41.76 
L 428.181818 -41.76 
L 429.872727 -41.76 
L 431.563636 -41.76 
L 433.254545 -41.76 
L 434.945455 -41.76 
L 436.636364 -41.76 
L 438.327273 -41.76 
L 440.018182 -41.76 
L 441.709091 -41.76 
L 443.4 -41.76 
L 445.090909 -41.76 
L 446.781818 -41.76 
L 448.472727 -41.76 
L 450.163636 -41.76 
L 451.854545 -41.76 
L 453.545455 -41.76 
L 455.236364 -41.76 
L 456.927273 -41.76 
L 458.618182 -41.76 
L 460.309091 -41.76 
L 462 -41.76 
L 463.690909 -41.76 
L 465.381818 -41.76 
L 467.072727 -41.76 
L 468.763636 -41.76 
L 470.454545 -41.76 
L 472.145455 -41.76 
L 473.836364 -41.76 
L 475.527273 -41.76 
L 477.218182 -41.76 
L 478.909091 -41.76 
L 480.6 -41.76 
L 482.290909 -41.76 
L 483.981818 -41.76 
L 485.672727 -41.76 
L 487.363636 -41.76 
L 489.054545 -41.76 
L 490.745455 -41.76 
L 492.436364 -41.76 
L 494.127273 -41.76 
L 495.818182 -41.76 
L 497.509091 -41.76 
L 499.2 -41.76 
L 500.890909 -41.76 
L 502.581818 -41.76 
L 504.272727 -41.76 
L 505.963636 -41.76 
L 507.654545 -41.76 
L 509.345455 -41.76 
L 511.036364 -41.76 
L 512.727273 -41.76 
L 514.418182 -41.76 
L 516.109091 -41.76 
L 517.8 -41.76 
L 519.490909 -41.76 
L 521.181818 -41.76 
L 522.872727 -41.76 
L 524.563636 -41.76 
L 526.254545 -41.76 
L 527.945455 -41.76 
L 529.636364 -41.76 
L 531.327273 -41.76 
L 533.018182 -41.76 
L 534.709091 -41.76 
L 536.4 -41.76 
L 538.090909 -41.76 
L 539.781818 -41.76 
L 541.472727 -41.76 
L 543.163636 -41.76 
L 544.854545 -41.76 
L 546.545455 -41.76 
L 548.236364 -41.76 
L 549.927273 -41.76 
L 551.618182 -41.76 
L 553.309091 -41.76 
L 555 -41.76 
L 556.690909 -41.76 
L 558.381818 -41.76 
L 560.072727 -41.76 
L 561.763636 -41.76 
L 563.454545 -41.76 
L 565.145455 -41.76 
L 566.836364 -41.76 
L 568.527273 -41.76 
L 570.218182 -41.76 
L 571.909091 -41.76 
L 573.6 -41.76 
L 575.290909 -41.76 
L 576.981818 -41.76 
L 578.672727 -41.76 
L 580.363636 -41.76 
L 582.054545 -41.76 
L 583.745455 -41.76 
L 585.436364 -41.76 
L 587.127273 -41.76 
L 588.818182 -41.76 
L 590.509091 -41.76 
L 592.2 -41.76 
L 593.890909 -41.76 
L 595.581818 -41.76 
L 597.272727 -41.76 
L 598.963636 -41.76 
L 600.654545 -41.76 
L 602.345455 -41.76 
L 604.036364 -41.76 
L 605.727273 -41.76 
L 607.418182 -41.76 
L 609.109091 -41.76 
L 610.8 -41.76 
L 612.490909 -41.76 
L 614.181818 -41.76 
L 615.872727 -41.76 
L 617.563636 -41.76 
L 619.254545 -41.76 
L 620.945455 -41.76 
L 622.636364 -41.76 
L 622.636364 -41.76 
L 622.636364 -41.76 
L 620.945455 -61.304318 
L 619.254545 -41.76 
L 617.563636 -41.76 
L 615.872727 -62.736136 
L 614.181818 -41.76 
L 612.490909 -41.76 
L 610.8 -121.082727 
L 609.109091 -41.76 
L 607.418182 -41.76 
L 605.727273 -41.76 
L 604.036364 -127.525909 
L 602.345455 -41.76 
L 600.654545 -41.76 
L 598.963636 -41.76 
L 597.272727 -66.100909 
L 595.581818 -93.663409 
L 593.890909 -41.76 
L 592.2 -101.323636 
L 590.509091 -41.76 
L 588.818182 -57.080455 
L 587.127273 -41.76 
L 585.436364 -119.221364 
L 583.745455 -41.76 
L 582.054545 -41.76 
L 580.363636 -41.76 
L 578.672727 -112.348636 
L 576.981818 -41.76 
L 575.290909 -41.76 
L 573.6 -41.76 
L 571.909091 -68.463409 
L 570.218182 -41.76 
L 568.527273 -77.269091 
L 566.836364 -78.486136 
L 565.145455 -41.76 
L 563.454545 -57.223636 
L 561.763636 -41.76 
L 560.072727 -144.135 
L 558.381818 -41.76 
L 556.690909 -88.365682 
L 555 -41.76 
L 553.309091 -54.646364 
L 551.618182 -105.905455 
L 549.927273 -41.76 
L 548.236364 -53.500909 
L 546.545455 -55.505455 
L 544.854545 -41.76 
L 543.163636 -41.76 
L 541.472727 -67.7475 
L 539.781818 -41.76 
L 538.090909 -41.76 
L 536.4 -41.76 
L 534.709091 -41.76 
L 533.018182 -114.496364 
L 531.327273 -150.506591 
L 529.636364 -62.449773 
L 527.945455 -41.76 
L 526.254545 -41.76 
L 524.563636 -41.76 
L 522.872727 -63.380455 
L 521.181818 -41.76 
L 519.490909 -41.76 
L 517.8 -41.76 
L 516.109091 -41.76 
L 514.418182 -64.669091 
L 512.727273 -41.76 
L 511.036364 -133.8975 
L 509.345455 -41.76 
L 507.654545 -41.76 
L 505.963636 -41.76 
L 504.272727 -64.955455 
L 502.581818 -41.76 
L 500.890909 -160.529318 
L 499.2 -41.76 
L 497.509091 -41.76 
L 495.818182 -87.220227 
L 494.127273 -51.925909 
L 492.436364 -41.76 
L 490.745455 -65.385 
L 489.054545 -41.76 
L 487.363636 -41.76 
L 485.672727 -41.76 
L 483.981818 -67.031591 
L 482.290909 -41.76 
L 480.6 -67.532727 
L 478.909091 -41.76 
L 477.218182 -41.76 
L 475.527273 -64.525909 
L 473.836364 -41.76 
L 472.145455 -60.230455 
L 470.454545 -68.463409 
L 468.763636 -41.76 
L 467.072727 -82.352045 
L 465.381818 -41.76 
L 463.690909 -41.76 
L 462 -41.76 
L 460.309091 -68.105455 
L 458.618182 -41.76 
L 456.927273 -41.76 
L 455.236364 -58.011136 
L 453.545455 -57.796364 
L 451.854545 -53.644091 
L 450.163636 -41.76 
L 448.472727 -41.76 
L 446.781818 -54.36 
L 445.090909 -41.76 
L 443.4 -41.76 
L 441.709091 -87.005455 
L 440.018182 -41.76 
L 438.327273 -41.76 
L 436.636364 -47.702045 
L 434.945455 -73.546364 
L 433.254545 -41.76 
L 431.563636 -41.76 
L 429.872727 -41.76 
L 428.181818 -41.76 
L 426.490909 -83.139545 
L 424.8 -41.76 
L 423.109091 -77.770227 
L 421.418182 -41.76 
L 419.727273 -86.432727 
L 418.036364 -41.76 
L 416.345455 -53.715682 
L 414.654545 -41.76 
L 412.963636 -41.76 
L 411.272727 -41.76 
L 409.581818 -41.76 
L 407.890909 -53.214545 
L 406.2 -88.508864 
L 404.509091 -41.76 
L 402.818182 -56.937273 
L 401.127273 -41.76 
L 399.436364 -41.76 
L 397.745455 -88.580455 
L 396.054545 -54.145227 
L 394.363636 -88.938409 
L 392.672727 -96.527045 
L 390.981818 -41.76 
L 389.290909 -41.76 
L 387.6 -41.76 
L 385.909091 -101.61 
L 384.218182 -41.76 
L 382.527273 -41.76 
L 380.836364 -82.781591 
L 379.145455 -41.76 
L 377.454545 -41.76 
L 375.763636 -41.76 
L 374.072727 -86.504318 
L 372.381818 -41.76 
L 370.690909 -41.76 
L 369 -192.244091 
L 367.309091 -41.76 
L 365.618182 -41.76 
L 363.927273 -70.754318 
L 362.236364 -41.76 
L 360.545455 -41.76 
L 358.854545 -41.76 
L 357.163636 -82.423636 
L 355.472727 -41.76 
L 353.781818 -41.76 
L 352.090909 -41.76 
L 350.4 -82.137273 
L 348.709091 -41.76 
L 347.018182 -41.76 
L 345.327273 -41.76 
L 343.636364 -78.056591 
L 341.945455 -41.76 
L 340.254545 -41.76 
L 338.563636 -41.76 
L 336.872727 -80.777045 
L 335.181818 -41.76 
L 333.490909 -41.76 
L 331.8 -41.76 
L 330.109091 -79.917955 
L 328.418182 -41.76 
L 326.727273 -70.539545 
L 325.036364 -41.76 
L 323.345455 -41.76 
L 321.654545 -87.291818 
L 319.963636 -103.041818 
L 318.272727 -41.76 
L 316.581818 -41.76 
L 314.890909 -41.76 
L 313.2 -117.503182 
L 311.509091 -51.281591 
L 309.818182 -41.76 
L 308.127273 -41.76 
L 306.436364 -41.76 
L 304.745455 -55.362273 
L 303.054545 -41.76 
L 301.363636 -41.76 
L 299.672727 -41.76 
L 297.981818 -55.219091 
L 296.290909 -41.76 
L 294.6 -41.76 
L 292.909091 -41.76 
L 291.218182 -142.917955 
L 289.527273 -41.76 
L 287.836364 -41.76 
L 286.145455 -41.76 
L 284.454545 -41.76 
L 282.763636 -72.329318 
L 281.072727 -41.76 
L 279.381818 -41.76 
L 277.690909 -41.76 
L 276 -80.275909 
L 274.309091 -93.663409 
L 272.618182 -41.76 
L 270.927273 -75.6225 
L 269.236364 -41.76 
L 267.545455 -41.76 
L 265.854545 -41.76 
L 264.163636 -72.329318 
L 262.472727 -41.76 
L 260.781818 -41.76 
L 259.090909 -41.76 
L 257.4 -87.578182 
L 255.709091 -41.76 
L 254.018182 -41.76 
L 252.327273 -41.76 
L 250.636364 -41.76 
L 248.945455 -91.300909 
L 247.254545 -41.76 
L 245.563636 -57.438409 
L 243.872727 -41.76 
L 242.181818 -128.671364 
L 240.490909 -41.76 
L 238.8 -82.065682 
L 237.109091 -54.36 
L 235.418182 -41.76 
L 233.727273 -41.76 
L 232.036364 -41.76 
L 230.345455 -105.833864 
L 228.654545 -41.76 
L 226.963636 -41.76 
L 225.272727 -62.664545 
L 223.581818 -62.664545 
L 221.890909 -41.76 
L 220.2 -41.76 
L 218.509091 -41.76 
L 216.818182 -92.875909 
L 215.127273 -41.76 
L 213.436364 -41.76 
L 211.745455 -41.76 
L 210.054545 -108.769091 
L 208.363636 -41.76 
L 206.672727 -41.76 
L 204.981818 -41.76 
L 203.290909 -122.800909 
L 201.6 -41.76 
L 199.909091 -41.76 
L 198.218182 -41.76 
L 196.527273 -84.141818 
L 194.836364 -41.76 
L 193.145455 -41.76 
L 191.454545 -41.76 
L 189.763636 -41.76 
L 188.072727 -87.792955 
L 186.381818 -41.76 
L 184.690909 -41.76 
L 183 -41.76 
L 181.309091 -105.619091 
L 179.618182 -41.76 
L 177.927273 -41.76 
L 176.236364 -41.76 
L 174.545455 -121.583864 
L 172.854545 -41.76 
L 171.163636 -41.76 
L 169.472727 -41.76 
L 167.781818 -115.498636 
L 166.090909 -41.76 
L 164.4 -41.76 
L 162.709091 -41.76 
L 161.018182 -146.354318 
L 159.327273 -41.76 
L 157.636364 -41.76 
L 155.945455 -60.373636 
L 154.254545 -41.76 
L 152.563636 -41.76 
L 150.872727 -41.76 
L 149.181818 -63.666818 
L 147.490909 -41.76 
L 145.8 -41.76 
L 144.109091 -41.76 
L 142.418182 -137.691818 
L 140.727273 -41.76 
L 139.036364 -41.76 
L 137.345455 -41.76 
L 135.654545 -123.373636 
L 133.963636 -41.76 
L 132.272727 -41.76 
L 130.581818 -41.76 
L 128.890909 -76.839545 
L 127.2 -41.76 
L 125.509091 -41.76 
L 123.818182 -41.76 
L 122.127273 -43.478182 
L 120.436364 -41.76 
L 118.745455 -41.76 
L 117.054545 -41.76 
L 115.363636 -43.048636 
z
" style="stroke: #ff0000; stroke-width: 0.5"/>
    </defs>
    <g clip-path="url(#p5a70a24102)">
     <use xlink:href="#m2ebdb6d40e" x="0" y="288" style="fill: #ff0000; stroke: #ff0000; stroke-width: 0.5"/>
    </g>
   </g>
   <g id="PolyCollection_2">
    <defs>
     <path id="me5465d9859" d="M 115.363636 -49.491818 
L 115.363636 -43.048636 
L 117.054545 -41.76 
L 118.745455 -41.76 
L 120.436364 -41.76 
L 122.127273 -43.478182 
L 123.818182 -41.76 
L 125.509091 -41.76 
L 127.2 -41.76 
L 128.890909 -76.839545 
L 130.581818 -41.76 
L 132.272727 -41.76 
L 133.963636 -41.76 
L 135.654545 -123.373636 
L 137.345455 -41.76 
L 139.036364 -41.76 
L 140.727273 -41.76 
L 142.418182 -137.691818 
L 144.109091 -41.76 
L 145.8 -41.76 
L 147.490909 -41.76 
L 149.181818 -63.666818 
L 150.872727 -41.76 
L 152.563636 -41.76 
L 154.254545 -41.76 
L 155.945455 -60.373636 
L 157.636364 -41.76 
L 159.327273 -41.76 
L 161.018182 -146.354318 
L 162.709091 -41.76 
L 164.4 -41.76 
L 166.090909 -41.76 
L 167.781818 -115.498636 
L 169.472727 -41.76 
L 171.163636 -41.76 
L 172.854545 -41.76 
L 174.545455 -121.583864 
L 176.236364 -41.76 
L 177.927273 -41.76 
L 179.618182 -41.76 
L 181.309091 -105.619091 
L 183 -41.76 
L 184.690909 -41.76 
L 186.381818 -41.76 
L 188.072727 -87.792955 
L 189.763636 -41.76 
L 191.454545 -41.76 
L 193.145455 -41.76 
L 194.836364 -41.76 
L 196.527273 -84.141818 
L 198.218182 -41.76 
L 199.909091 -41.76 
L 201.6 -41.76 
L 203.290909 -122.800909 
L 204.981818 -41.76 
L 206.672727 -41.76 
L 208.363636 -41.76 
L 210.054545 -108.769091 
L 211.745455 -41.76 
L 213.436364 -41.76 
L 215.127273 -41.76 
L 216.818182 -92.875909 
L 218.509091 -41.76 
L 220.2 -41.76 
L 221.890909 -41.76 
L 223.581818 -62.664545 
L 225.272727 -62.664545 
L 226.963636 -41.76 
L 228.654545 -41.76 
L 230.345455 -105.833864 
L 232.036364 -41.76 
L 233.727273 -41.76 
L 235.418182 -41.76 
L 237.109091 -54.36 
L 238.8 -82.065682 
L 240.490909 -41.76 
L 242.181818 -128.671364 
L 243.872727 -41.76 
L 245.563636 -57.438409 
L 247.254545 -41.76 
L 248.945455 -91.300909 
L 250.636364 -41.76 
L 252.327273 -41.76 
L 254.018182 -41.76 
L 255.709091 -41.76 
L 257.4 -87.578182 
L 259.090909 -41.76 
L 260.781818 -41.76 
L 262.472727 -41.76 
L 264.163636 -72.329318 
L 265.854545 -41.76 
L 267.545455 -41.76 
L 269.236364 -41.76 
L 270.927273 -75.6225 
L 272.618182 -41.76 
L 274.309091 -93.663409 
L 276 -80.275909 
L 277.690909 -41.76 
L 279.381818 -41.76 
L 281.072727 -41.76 
L 282.763636 -72.329318 
L 284.454545 -41.76 
L 286.145455 -41.76 
L 287.836364 -41.76 
L 289.527273 -41.76 
L 291.218182 -142.917955 
L 292.909091 -41.76 
L 294.6 -41.76 
L 296.290909 -41.76 
L 297.981818 -55.219091 
L 299.672727 -41.76 
L 301.363636 -41.76 
L 303.054545 -41.76 
L 304.745455 -55.362273 
L 306.436364 -41.76 
L 308.127273 -41.76 
L 309.818182 -41.76 
L 311.509091 -51.281591 
L 313.2 -117.503182 
L 314.890909 -41.76 
L 316.581818 -41.76 
L 318.272727 -41.76 
L 319.963636 -103.041818 
L 321.654545 -87.291818 
L 323.345455 -41.76 
L 325.036364 -41.76 
L 326.727273 -70.539545 
L 328.418182 -41.76 
L 330.109091 -79.917955 
L 331.8 -41.76 
L 333.490909 -41.76 
L 335.181818 -41.76 
L 336.872727 -80.777045 
L 338.563636 -41.76 
L 340.254545 -41.76 
L 341.945455 -41.76 
L 343.636364 -78.056591 
L 345.327273 -41.76 
L 347.018182 -41.76 
L 348.709091 -41.76 
L 350.4 -82.137273 
L 352.090909 -41.76 
L 353.781818 -41.76 
L 355.472727 -41.76 
L 357.163636 -82.423636 
L 358.854545 -41.76 
L 360.545455 -41.76 
L 362.236364 -41.76 
L 363.927273 -70.754318 
L 365.618182 -41.76 
L 367.309091 -41.76 
L 369 -192.244091 
L 370.690909 -41.76 
L 372.381818 -41.76 
L 374.072727 -86.504318 
L 375.763636 -41.76 
L 377.454545 -41.76 
L 379.145455 -41.76 
L 380.836364 -82.781591 
L 382.527273 -41.76 
L 384.218182 -41.76 
L 385.909091 -101.61 
L 387.6 -41.76 
L 389.290909 -41.76 
L 390.981818 -41.76 
L 392.672727 -96.527045 
L 394.363636 -88.938409 
L 396.054545 -54.145227 
L 397.745455 -88.580455 
L 399.436364 -41.76 
L 401.127273 -41.76 
L 402.818182 -56.937273 
L 404.509091 -41.76 
L 406.2 -88.508864 
L 407.890909 -53.214545 
L 409.581818 -41.76 
L 411.272727 -41.76 
L 412.963636 -41.76 
L 414.654545 -41.76 
L 416.345455 -53.715682 
L 418.036364 -41.76 
L 419.727273 -86.432727 
L 421.418182 -41.76 
L 423.109091 -77.770227 
L 424.8 -41.76 
L 426.490909 -83.139545 
L 428.181818 -41.76 
L 429.872727 -41.76 
L 431.563636 -41.76 
L 433.254545 -41.76 
L 434.945455 -73.546364 
L 436.636364 -47.702045 
L 438.327273 -41.76 
L 440.018182 -41.76 
L 441.709091 -87.005455 
L 443.4 -41.76 
L 445.090909 -41.76 
L 446.781818 -54.36 
L 448.472727 -41.76 
L 450.163636 -41.76 
L 451.854545 -53.644091 
L 453.545455 -57.796364 
L 455.236364 -58.011136 
L 456.927273 -41.76 
L 458.618182 -41.76 
L 460.309091 -68.105455 
L 462 -41.76 
L 463.690909 -41.76 
L 465.381818 -41.76 
L 467.072727 -82.352045 
L 468.763636 -41.76 
L 470.454545 -68.463409 
L 472.145455 -60.230455 
L 473.836364 -41.76 
L 475.527273 -64.525909 
L 477.218182 -41.76 
L 478.909091 -41.76 
L 480.6 -67.532727 
L 482.290909 -41.76 
L 483.981818 -67.031591 
L 485.672727 -41.76 
L 487.363636 -41.76 
L 489.054545 -41.76 
L 490.745455 -65.385 
L 492.436364 -41.76 
L 494.127273 -51.925909 
L 495.818182 -87.220227 
L 497.509091 -41.76 
L 499.2 -41.76 
L 500.890909 -160.529318 
L 502.581818 -41.76 
L 504.272727 -64.955455 
L 505.963636 -41.76 
L 507.654545 -41.76 
L 509.345455 -41.76 
L 511.036364 -133.8975 
L 512.727273 -41.76 
L 514.418182 -64.669091 
L 516.109091 -41.76 
L 517.8 -41.76 
L 519.490909 -41.76 
L 521.181818 -41.76 
L 522.872727 -63.380455 
L 524.563636 -41.76 
L 526.254545 -41.76 
L 527.945455 -41.76 
L 529.636364 -62.449773 
L 531.327273 -150.506591 
L 533.018182 -114.496364 
L 534.709091 -41.76 
L 536.4 -41.76 
L 538.090909 -41.76 
L 539.781818 -41.76 
L 541.472727 -67.7475 
L 543.163636 -41.76 
L 544.854545 -41.76 
L 546.545455 -55.505455 
L 548.236364 -53.500909 
L 549.927273 -41.76 
L 551.618182 -105.905455 
L 553.309091 -54.646364 
L 555 -41.76 
L 556.690909 -88.365682 
L 558.381818 -41.76 
L 560.072727 -144.135 
L 561.763636 -41.76 
L 563.454545 -57.223636 
L 565.145455 -41.76 
L 566.836364 -78.486136 
L 568.527273 -77.269091 
L 570.218182 -41.76 
L 571.909091 -68.463409 
L 573.6 -41.76 
L 575.290909 -41.76 
L 576.981818 -41.76 
L 578.672727 -112.348636 
L 580.363636 -41.76 
L 582.054545 -41.76 
L 583.745455 -41.76 
L 585.436364 -119.221364 
L 587.127273 -41.76 
L 588.818182 -57.080455 
L 590.509091 -41.76 
L 592.2 -101.323636 
L 593.890909 -41.76 
L 595.581818 -93.663409 
L 597.272727 -66.100909 
L 598.963636 -41.76 
L 600.654545 -41.76 
L 602.345455 -41.76 
L 604.036364 -127.525909 
L 605.727273 -41.76 
L 607.418182 -41.76 
L 609.109091 -41.76 
L 610.8 -121.082727 
L 612.490909 -41.76 
L 614.181818 -41.76 
L 615.872727 -62.736136 
L 617.563636 -41.76 
L 619.254545 -41.76 
L 620.945455 -61.304318 
L 622.636364 -41.76 
L 622.636364 -41.76 
L 622.636364 -41.76 
L 620.945455 -85.788409 
L 619.254545 -72.830455 
L 617.563636 -65.241818 
L 615.872727 -70.682727 
L 614.181818 -47.845227 
L 612.490909 -49.420227 
L 610.8 -130.389545 
L 609.109091 -55.791818 
L 607.418182 -47.630455 
L 605.727273 -45.411136 
L 604.036364 -132.823636 
L 602.345455 -58.011136 
L 600.654545 -55.004318 
L 598.963636 -57.867955 
L 597.272727 -99.2475 
L 595.581818 -134.112273 
L 593.890909 -63.0225 
L 592.2 -116.214545 
L 590.509091 -61.590682 
L 588.818182 -71.541818 
L 587.127273 -58.2975 
L 585.436364 -134.255455 
L 583.745455 -102.827045 
L 582.054545 -109.270227 
L 580.363636 -103.113409 
L 578.672727 -132.179318 
L 576.981818 -48.417955 
L 575.290909 -47.129318 
L 573.6 -57.223636 
L 571.909091 -75.6225 
L 570.218182 -54.431591 
L 568.527273 -85.358864 
L 566.836364 -97.242955 
L 565.145455 -53.787273 
L 563.454545 -74.691818 
L 561.763636 -51.066818 
L 560.072727 -156.448636 
L 558.381818 -61.590682 
L 556.690909 -103.328182 
L 555 -50.4225 
L 553.309091 -65.241818 
L 551.618182 -124.232727 
L 549.927273 -76.696364 
L 548.236364 -73.689545 
L 546.545455 -65.170227 
L 544.854545 -49.849773 
L 543.163636 -59.8725 
L 541.472727 -121.870227 
L 539.781818 -63.308864 
L 538.090909 -67.962273 
L 536.4 -69.107727 
L 534.709091 -102.254318 
L 533.018182 -137.978182 
L 531.327273 -162.963409 
L 529.636364 -83.139545 
L 527.945455 -47.916818 
L 526.254545 -47.773636 
L 524.563636 -46.556591 
L 522.872727 -71.183864 
L 521.181818 -47.415682 
L 519.490909 -48.8475 
L 517.8 -56.507727 
L 516.109091 -64.669091 
L 514.418182 -75.336136 
L 512.727273 -45.769091 
L 511.036364 -141.199773 
L 509.345455 -63.165682 
L 507.654545 -56.794091 
L 505.963636 -68.248636 
L 504.272727 -97.600909 
L 502.581818 -52.856591 
L 500.890909 -163.035 
L 499.2 -45.411136 
L 497.509091 -45.482727 
L 495.818182 -92.374773 
L 494.127273 -60.803182 
L 492.436364 -63.523636 
L 490.745455 -95.954318 
L 489.054545 -59.085 
L 487.363636 -58.2975 
L 485.672727 -56.7225 
L 483.981818 -81.063409 
L 482.290909 -103.614545 
L 480.6 -119.794091 
L 478.909091 -100.8225 
L 477.218182 -99.319091 
L 475.527273 -112.062273 
L 473.836364 -56.006591 
L 472.145455 -80.705455 
L 470.454545 -92.661136 
L 468.763636 -48.203182 
L 467.072727 -89.153182 
L 465.381818 -54.288409 
L 463.690909 -50.780455 
L 462 -61.089545 
L 460.309091 -80.061136 
L 458.618182 -55.219091 
L 456.927273 -51.639545 
L 455.236364 -66.244091 
L 453.545455 -85.573636 
L 451.854545 -74.405455 
L 450.163636 -58.2975 
L 448.472727 -85.86 
L 446.781818 -81.564545 
L 445.090909 -45.983864 
L 443.4 -45.053182 
L 441.709091 -95.31 
L 440.018182 -84.428182 
L 438.327273 -85.645227 
L 436.636364 -67.532727 
L 434.945455 -99.963409 
L 433.254545 -87.721364 
L 431.563636 -87.363409 
L 429.872727 -91.157727 
L 428.181818 -91.3725 
L 426.490909 -103.041818 
L 424.8 -56.078182 
L 423.109091 -93.162273 
L 421.418182 -91.086136 
L 419.727273 -124.375909 
L 418.036364 -55.362273 
L 416.345455 -63.881591 
L 414.654545 -54.002045 
L 412.963636 -47.845227 
L 411.272727 -50.279318 
L 409.581818 -51.353182 
L 407.890909 -79.703182 
L 406.2 -99.533864 
L 404.509091 -49.778182 
L 402.818182 -71.327045 
L 401.127273 -57.295227 
L 399.436364 -62.521364 
L 397.745455 -102.827045 
L 396.054545 -67.461136 
L 394.363636 -103.9725 
L 392.672727 -106.764545 
L 390.981818 -53.715682 
L 389.290909 -48.990682 
L 387.6 -48.919091 
L 385.909091 -105.762273 
L 384.218182 -57.581591 
L 382.527273 -59.156591 
L 380.836364 -112.133864 
L 379.145455 -69.3225 
L 377.454545 -65.170227 
L 375.763636 -56.7225 
L 374.072727 -94.164545 
L 372.381818 -47.200909 
L 370.690909 -48.06 
L 369 -196.682727 
L 367.309091 -50.923636 
L 365.618182 -53.286136 
L 363.927273 -105.619091 
L 362.236364 -60.803182 
L 360.545455 -51.353182 
L 358.854545 -69.3225 
L 357.163636 -107.337273 
L 355.472727 -69.537273 
L 353.781818 -48.417955 
L 352.090909 -56.865682 
L 350.4 -102.254318 
L 348.709091 -53.930455 
L 347.018182 -51.066818 
L 345.327273 -50.207727 
L 343.636364 -91.444091 
L 341.945455 -49.778182 
L 340.254545 -50.780455 
L 338.563636 -67.031591 
L 336.872727 -100.249773 
L 335.181818 -52.570227 
L 333.490909 -52.427045 
L 331.8 -50.708864 
L 330.109091 -108.840682 
L 328.418182 -69.966818 
L 326.727273 -95.882727 
L 325.036364 -54.073636 
L 323.345455 -75.264545 
L 321.654545 -102.182727 
L 319.963636 -121.583864 
L 318.272727 -68.535 
L 316.581818 -60.874773 
L 314.890909 -58.154318 
L 313.2 -135.615682 
L 311.509091 -70.8975 
L 309.818182 -67.532727 
L 308.127273 -67.031591 
L 306.436364 -63.452045 
L 304.745455 -84.141818 
L 303.054545 -62.879318 
L 301.363636 -67.103182 
L 299.672727 -57.008864 
L 297.981818 -65.599773 
L 296.290909 -49.133864 
L 294.6 -60.015682 
L 292.909091 -51.353182 
L 291.218182 -150.148636 
L 289.527273 -53.715682 
L 287.836364 -53.644091 
L 286.145455 -50.995227 
L 284.454545 -54.288409 
L 282.763636 -80.3475 
L 281.072727 -47.415682 
L 279.381818 -47.057727 
L 277.690909 -47.415682 
L 276 -83.569091 
L 274.309091 -96.885 
L 272.618182 -47.845227 
L 270.927273 -81.349773 
L 269.236364 -52.785 
L 267.545455 -51.424773 
L 265.854545 -45.411136 
L 264.163636 -81.206591 
L 262.472727 -52.570227 
L 260.781818 -60.803182 
L 259.090909 -63.881591 
L 257.4 -122.800909 
L 255.709091 -110.057727 
L 254.018182 -104.402045 
L 252.327273 -98.102045 
L 250.636364 -75.694091 
L 248.945455 -122.800909 
L 247.254545 -62.306591 
L 245.563636 -63.308864 
L 243.872727 -47.129318 
L 242.181818 -132.680455 
L 240.490909 -46.055455 
L 238.8 -105.690682 
L 237.109091 -70.181591 
L 235.418182 -67.7475 
L 233.727273 -70.038409 
L 232.036364 -59.8725 
L 230.345455 -113.995227 
L 228.654545 -53.071364 
L 226.963636 -51.138409 
L 225.272727 -74.548636 
L 223.581818 -67.675909 
L 221.890909 -48.489545 
L 220.2 -52.212273 
L 218.509091 -46.628182 
L 216.818182 -104.545227 
L 215.127273 -64.311136 
L 213.436364 -54.932727 
L 211.745455 -54.861136 
L 210.054545 -118.505455 
L 208.363636 -49.133864 
L 206.672727 -56.507727 
L 204.981818 -67.031591 
L 203.290909 -140.483864 
L 201.6 -51.496364 
L 199.909091 -49.778182 
L 198.218182 -51.353182 
L 196.527273 -93.949773 
L 194.836364 -48.704318 
L 193.145455 -49.348636 
L 191.454545 -49.205455 
L 189.763636 -50.995227 
L 188.072727 -97.815682 
L 186.381818 -51.782727 
L 184.690909 -52.713409 
L 183 -53.644091 
L 181.309091 -122.085 
L 179.618182 -57.008864 
L 177.927273 -57.152045 
L 176.236364 -55.863409 
L 174.545455 -138.479318 
L 172.854545 -56.650909 
L 171.163636 -56.292955 
L 169.472727 -56.579318 
L 167.781818 -130.962273 
L 166.090909 -57.653182 
L 164.4 -56.865682 
L 162.709091 -55.577045 
L 161.018182 -155.16 
L 159.327273 -46.628182 
L 157.636364 -54.002045 
L 155.945455 -83.139545 
L 154.254545 -49.778182 
L 152.563636 -59.299773 
L 150.872727 -53.787273 
L 149.181818 -78.557727 
L 147.490909 -72.973636 
L 145.8 -66.1725 
L 144.109091 -65.456591 
L 142.418182 -156.305455 
L 140.727273 -50.708864 
L 139.036364 -52.713409 
L 137.345455 -52.999773 
L 135.654545 -132.465682 
L 133.963636 -51.21 
L 132.272727 -51.567955 
L 130.581818 -50.637273 
L 128.890909 -86.003182 
L 127.2 -49.348636 
L 125.509091 -47.344091 
L 123.818182 -46.413409 
L 122.127273 -47.558864 
L 120.436364 -45.339545 
L 118.745455 -45.769091 
L 117.054545 -46.914545 
L 115.363636 -49.491818 
z
" style="stroke: #0000ff; stroke-width: 0.5"/>
    </defs>
    <g clip-path="url(#p5a70a24102)">
     <use xlink:href="#me5465d9859" x="0" y="288" style="fill: #0000ff; stroke: #0000ff; stroke-width: 0.5"/>
    </g>
   </g>
   <g id="PolyCollection_3">
    <defs>
     <path id="m8f5f46ef39" d="M 115.363636 -63.237273 
L 115.363636 -49.491818 
L 117.054545 -46.914545 
L 118.745455 -45.769091 
L 120.436364 -45.339545 
L 122.127273 -47.558864 
L 123.818182 -46.413409 
L 125.509091 -47.344091 
L 127.2 -49.348636 
L 128.890909 -86.003182 
L 130.581818 -50.637273 
L 132.272727 -51.567955 
L 133.963636 -51.21 
L 135.654545 -132.465682 
L 137.345455 -52.999773 
L 139.036364 -52.713409 
L 140.727273 -50.708864 
L 142.418182 -156.305455 
L 144.109091 -65.456591 
L 145.8 -66.1725 
L 147.490909 -72.973636 
L 149.181818 -78.557727 
L 150.872727 -53.787273 
L 152.563636 -59.299773 
L 154.254545 -49.778182 
L 155.945455 -83.139545 
L 157.636364 -54.002045 
L 159.327273 -46.628182 
L 161.018182 -155.16 
L 162.709091 -55.577045 
L 164.4 -56.865682 
L 166.090909 -57.653182 
L 167.781818 -130.962273 
L 169.472727 -56.579318 
L 171.163636 -56.292955 
L 172.854545 -56.650909 
L 174.545455 -138.479318 
L 176.236364 -55.863409 
L 177.927273 -57.152045 
L 179.618182 -57.008864 
L 181.309091 -122.085 
L 183 -53.644091 
L 184.690909 -52.713409 
L 186.381818 -51.782727 
L 188.072727 -97.815682 
L 189.763636 -50.995227 
L 191.454545 -49.205455 
L 193.145455 -49.348636 
L 194.836364 -48.704318 
L 196.527273 -93.949773 
L 198.218182 -51.353182 
L 199.909091 -49.778182 
L 201.6 -51.496364 
L 203.290909 -140.483864 
L 204.981818 -67.031591 
L 206.672727 -56.507727 
L 208.363636 -49.133864 
L 210.054545 -118.505455 
L 211.745455 -54.861136 
L 213.436364 -54.932727 
L 215.127273 -64.311136 
L 216.818182 -104.545227 
L 218.509091 -46.628182 
L 220.2 -52.212273 
L 221.890909 -48.489545 
L 223.581818 -67.675909 
L 225.272727 -74.548636 
L 226.963636 -51.138409 
L 228.654545 -53.071364 
L 230.345455 -113.995227 
L 232.036364 -59.8725 
L 233.727273 -70.038409 
L 235.418182 -67.7475 
L 237.109091 -70.181591 
L 238.8 -105.690682 
L 240.490909 -46.055455 
L 242.181818 -132.680455 
L 243.872727 -47.129318 
L 245.563636 -63.308864 
L 247.254545 -62.306591 
L 248.945455 -122.800909 
L 250.636364 -75.694091 
L 252.327273 -98.102045 
L 254.018182 -104.402045 
L 255.709091 -110.057727 
L 257.4 -122.800909 
L 259.090909 -63.881591 
L 260.781818 -60.803182 
L 262.472727 -52.570227 
L 264.163636 -81.206591 
L 265.854545 -45.411136 
L 267.545455 -51.424773 
L 269.236364 -52.785 
L 270.927273 -81.349773 
L 272.618182 -47.845227 
L 274.309091 -96.885 
L 276 -83.569091 
L 277.690909 -47.415682 
L 279.381818 -47.057727 
L 281.072727 -47.415682 
L 282.763636 -80.3475 
L 284.454545 -54.288409 
L 286.145455 -50.995227 
L 287.836364 -53.644091 
L 289.527273 -53.715682 
L 291.218182 -150.148636 
L 292.909091 -51.353182 
L 294.6 -60.015682 
L 296.290909 -49.133864 
L 297.981818 -65.599773 
L 299.672727 -57.008864 
L 301.363636 -67.103182 
L 303.054545 -62.879318 
L 304.745455 -84.141818 
L 306.436364 -63.452045 
L 308.127273 -67.031591 
L 309.818182 -67.532727 
L 311.509091 -70.8975 
L 313.2 -135.615682 
L 314.890909 -58.154318 
L 316.581818 -60.874773 
L 318.272727 -68.535 
L 319.963636 -121.583864 
L 321.654545 -102.182727 
L 323.345455 -75.264545 
L 325.036364 -54.073636 
L 326.727273 -95.882727 
L 328.418182 -69.966818 
L 330.109091 -108.840682 
L 331.8 -50.708864 
L 333.490909 -52.427045 
L 335.181818 -52.570227 
L 336.872727 -100.249773 
L 338.563636 -67.031591 
L 340.254545 -50.780455 
L 341.945455 -49.778182 
L 343.636364 -91.444091 
L 345.327273 -50.207727 
L 347.018182 -51.066818 
L 348.709091 -53.930455 
L 350.4 -102.254318 
L 352.090909 -56.865682 
L 353.781818 -48.417955 
L 355.472727 -69.537273 
L 357.163636 -107.337273 
L 358.854545 -69.3225 
L 360.545455 -51.353182 
L 362.236364 -60.803182 
L 363.927273 -105.619091 
L 365.618182 -53.286136 
L 367.309091 -50.923636 
L 369 -196.682727 
L 370.690909 -48.06 
L 372.381818 -47.200909 
L 374.072727 -94.164545 
L 375.763636 -56.7225 
L 377.454545 -65.170227 
L 379.145455 -69.3225 
L 380.836364 -112.133864 
L 382.527273 -59.156591 
L 384.218182 -57.581591 
L 385.909091 -105.762273 
L 387.6 -48.919091 
L 389.290909 -48.990682 
L 390.981818 -53.715682 
L 392.672727 -106.764545 
L 394.363636 -103.9725 
L 396.054545 -67.461136 
L 397.745455 -102.827045 
L 399.436364 -62.521364 
L 401.127273 -57.295227 
L 402.818182 -71.327045 
L 404.509091 -49.778182 
L 406.2 -99.533864 
L 407.890909 -79.703182 
L 409.581818 -51.353182 
L 411.272727 -50.279318 
L 412.963636 -47.845227 
L 414.654545 -54.002045 
L 416.345455 -63.881591 
L 418.036364 -55.362273 
L 419.727273 -124.375909 
L 421.418182 -91.086136 
L 423.109091 -93.162273 
L 424.8 -56.078182 
L 426.490909 -103.041818 
L 428.181818 -91.3725 
L 429.872727 -91.157727 
L 431.563636 -87.363409 
L 433.254545 -87.721364 
L 434.945455 -99.963409 
L 436.636364 -67.532727 
L 438.327273 -85.645227 
L 440.018182 -84.428182 
L 441.709091 -95.31 
L 443.4 -45.053182 
L 445.090909 -45.983864 
L 446.781818 -81.564545 
L 448.472727 -85.86 
L 450.163636 -58.2975 
L 451.854545 -74.405455 
L 453.545455 -85.573636 
L 455.236364 -66.244091 
L 456.927273 -51.639545 
L 458.618182 -55.219091 
L 460.309091 -80.061136 
L 462 -61.089545 
L 463.690909 -50.780455 
L 465.381818 -54.288409 
L 467.072727 -89.153182 
L 468.763636 -48.203182 
L 470.454545 -92.661136 
L 472.145455 -80.705455 
L 473.836364 -56.006591 
L 475.527273 -112.062273 
L 477.218182 -99.319091 
L 478.909091 -100.8225 
L 480.6 -119.794091 
L 482.290909 -103.614545 
L 483.981818 -81.063409 
L 485.672727 -56.7225 
L 487.363636 -58.2975 
L 489.054545 -59.085 
L 490.745455 -95.954318 
L 492.436364 -63.523636 
L 494.127273 -60.803182 
L 495.818182 -92.374773 
L 497.509091 -45.482727 
L 499.2 -45.411136 
L 500.890909 -163.035 
L 502.581818 -52.856591 
L 504.272727 -97.600909 
L 505.963636 -68.248636 
L 507.654545 -56.794091 
L 509.345455 -63.165682 
L 511.036364 -141.199773 
L 512.727273 -45.769091 
L 514.418182 -75.336136 
L 516.109091 -64.669091 
L 517.8 -56.507727 
L 519.490909 -48.8475 
L 521.181818 -47.415682 
L 522.872727 -71.183864 
L 524.563636 -46.556591 
L 526.254545 -47.773636 
L 527.945455 -47.916818 
L 529.636364 -83.139545 
L 531.327273 -162.963409 
L 533.018182 -137.978182 
L 534.709091 -102.254318 
L 536.4 -69.107727 
L 538.090909 -67.962273 
L 539.781818 -63.308864 
L 541.472727 -121.870227 
L 543.163636 -59.8725 
L 544.854545 -49.849773 
L 546.545455 -65.170227 
L 548.236364 -73.689545 
L 549.927273 -76.696364 
L 551.618182 -124.232727 
L 553.309091 -65.241818 
L 555 -50.4225 
L 556.690909 -103.328182 
L 558.381818 -61.590682 
L 560.072727 -156.448636 
L 561.763636 -51.066818 
L 563.454545 -74.691818 
L 565.145455 -53.787273 
L 566.836364 -97.242955 
L 568.527273 -85.358864 
L 570.218182 -54.431591 
L 571.909091 -75.6225 
L 573.6 -57.223636 
L 575.290909 -47.129318 
L 576.981818 -48.417955 
L 578.672727 -132.179318 
L 580.363636 -103.113409 
L 582.054545 -109.270227 
L 583.745455 -102.827045 
L 585.436364 -134.255455 
L 587.127273 -58.2975 
L 588.818182 -71.541818 
L 590.509091 -61.590682 
L 592.2 -116.214545 
L 593.890909 -63.0225 
L 595.581818 -134.112273 
L 597.272727 -99.2475 
L 598.963636 -57.867955 
L 600.654545 -55.004318 
L 602.345455 -58.011136 
L 604.036364 -132.823636 
L 605.727273 -45.411136 
L 607.418182 -47.630455 
L 609.109091 -55.791818 
L 610.8 -130.389545 
L 612.490909 -49.420227 
L 614.181818 -47.845227 
L 615.872727 -70.682727 
L 617.563636 -65.241818 
L 619.254545 -72.830455 
L 620.945455 -85.788409 
L 622.636364 -41.76 
L 622.636364 -41.903182 
L 622.636364 -41.903182 
L 620.945455 -144.707727 
L 619.254545 -153.799773 
L 617.563636 -109.055455 
L 615.872727 -87.077045 
L 614.181818 -66.745227 
L 612.490909 -71.685 
L 610.8 -149.504318 
L 609.109091 -86.003182 
L 607.418182 -61.017955 
L 605.727273 -68.892955 
L 604.036364 -181.004318 
L 602.345455 -94.236136 
L 600.654545 -87.792955 
L 598.963636 -85.86 
L 597.272727 -146.927045 
L 595.581818 -179.644091 
L 593.890909 -146.712273 
L 592.2 -167.545227 
L 590.509091 -93.377045 
L 588.818182 -103.113409 
L 587.127273 -113.780455 
L 585.436364 -195.3225 
L 583.745455 -205.774773 
L 582.054545 -208.781591 
L 580.363636 -205.273636 
L 578.672727 -168.475909 
L 576.981818 -87.291818 
L 575.290909 -75.121364 
L 573.6 -95.596364 
L 571.909091 -90.799773 
L 570.218182 -77.913409 
L 568.527273 -100.8225 
L 566.836364 -127.740682 
L 565.145455 -77.269091 
L 563.454545 -115.785 
L 561.763636 -85.000909 
L 560.072727 -181.505455 
L 558.381818 -101.108864 
L 556.690909 -127.5975 
L 555 -64.239545 
L 553.309091 -88.437273 
L 551.618182 -160.171364 
L 549.927273 -129.673636 
L 548.236364 -103.614545 
L 546.545455 -93.806591 
L 544.854545 -83.783864 
L 543.163636 -119.579318 
L 541.472727 -190.096364 
L 539.781818 -112.635 
L 538.090909 -127.525909 
L 536.4 -141.486136 
L 534.709091 -215.511136 
L 533.018182 -209.640682 
L 531.327273 -198.687273 
L 529.636364 -120.295227 
L 527.945455 -65.170227 
L 526.254545 -60.158864 
L 524.563636 -58.512273 
L 522.872727 -88.723636 
L 521.181818 -63.738409 
L 519.490909 -65.814545 
L 517.8 -80.705455 
L 516.109091 -105.404318 
L 514.418182 -86.074773 
L 512.727273 -55.648636 
L 511.036364 -156.305455 
L 509.345455 -89.940682 
L 507.654545 -87.148636 
L 505.963636 -124.590682 
L 504.272727 -208.065682 
L 502.581818 -152.224773 
L 500.890909 -226.321364 
L 499.2 -48.274773 
L 497.509091 -48.131591 
L 495.818182 -100.178182 
L 494.127273 -82.781591 
L 492.436364 -95.095227 
L 490.745455 -138.049773 
L 489.054545 -97.314545 
L 487.363636 -93.233864 
L 485.672727 -89.582727 
L 483.981818 -132.752045 
L 482.290909 -230.688409 
L 480.6 -222.813409 
L 478.909091 -196.181591 
L 477.218182 -170.91 
L 475.527273 -167.115682 
L 473.836364 -70.969091 
L 472.145455 -119.436136 
L 470.454545 -124.017955 
L 468.763636 -56.149773 
L 467.072727 -95.095227 
L 465.381818 -79.202045 
L 463.690909 -76.266818 
L 462 -116.429318 
L 460.309091 -108.267955 
L 458.618182 -76.553182 
L 456.927273 -69.250909 
L 455.236364 -93.233864 
L 453.545455 -195.250909 
L 451.854545 -94.665682 
L 450.163636 -105.046364 
L 448.472727 -173.415682 
L 446.781818 -115.785 
L 445.090909 -50.995227 
L 443.4 -47.988409 
L 441.709091 -116.930455 
L 440.018182 -160.529318 
L 438.327273 -171.625909 
L 436.636364 -145.996364 
L 434.945455 -154.300909 
L 433.254545 -150.220227 
L 431.563636 -142.130455 
L 429.872727 -161.030455 
L 428.181818 -144.707727 
L 426.490909 -137.0475 
L 424.8 -86.504318 
L 423.109091 -117.431591 
L 421.418182 -155.875909 
L 419.727273 -170.1225 
L 418.036364 -85.716818 
L 416.345455 -78.271364 
L 414.654545 -71.112273 
L 412.963636 -59.013409 
L 411.272727 -64.167955 
L 409.581818 -80.275909 
L 407.890909 -127.883864 
L 406.2 -116.858864 
L 404.509091 -62.163409 
L 402.818182 -99.390682 
L 401.127273 -96.383864 
L 399.436364 -116.787273 
L 397.745455 -130.174773 
L 396.054545 -97.958864 
L 394.363636 -136.116818 
L 392.672727 -126.308864 
L 390.981818 -70.682727 
L 389.290909 -58.655455 
L 387.6 -61.662273 
L 385.909091 -114.424773 
L 384.218182 -109.771364 
L 382.527273 -114.925909 
L 380.836364 -168.475909 
L 379.145455 -134.899773 
L 377.454545 -114.567955 
L 375.763636 -88.508864 
L 374.072727 -155.446364 
L 372.381818 -162.748636 
L 370.690909 -121.870227 
L 369 -215.224773 
L 367.309091 -90.513409 
L 365.618182 -100.8225 
L 363.927273 -154.658864 
L 362.236364 -109.628182 
L 360.545455 -99.390682 
L 358.854545 -130.604318 
L 357.163636 -153.083864 
L 355.472727 -126.738409 
L 353.781818 -88.437273 
L 352.090909 -117.717955 
L 350.4 -146.211136 
L 348.709091 -104.76 
L 347.018182 -95.095227 
L 345.327273 -95.811136 
L 343.636364 -126.523636 
L 341.945455 -85.358864 
L 340.254545 -85.000909 
L 338.563636 -125.378182 
L 336.872727 -136.689545 
L 335.181818 -80.132727 
L 333.490909 -73.116818 
L 331.8 -73.045227 
L 330.109091 -147.213409 
L 328.418182 -115.928182 
L 326.727273 -137.262273 
L 325.036364 -108.625909 
L 323.345455 -143.991818 
L 321.654545 -128.957727 
L 319.963636 -164.180455 
L 318.272727 -115.212273 
L 316.581818 -83.783864 
L 314.890909 -87.864545 
L 313.2 -175.420227 
L 311.509091 -104.402045 
L 309.818182 -98.030455 
L 308.127273 -97.958864 
L 306.436364 -91.587273 
L 304.745455 -114.567955 
L 303.054545 -89.582727 
L 301.363636 -110.415682 
L 299.672727 -85.215682 
L 297.981818 -79.488409 
L 296.290909 -69.107727 
L 294.6 -149.6475 
L 292.909091 -80.633864 
L 291.218182 -165.827045 
L 289.527273 -60.158864 
L 287.836364 -61.948636 
L 286.145455 -75.336136 
L 284.454545 -85.931591 
L 282.763636 -93.806591 
L 281.072727 -55.577045 
L 279.381818 -56.794091 
L 277.690909 -55.863409 
L 276 -135.902045 
L 274.309091 -161.817955 
L 272.618182 -57.939545 
L 270.927273 -92.16 
L 269.236364 -74.119091 
L 267.545455 -70.181591 
L 265.854545 -48.274773 
L 264.163636 -91.587273 
L 262.472727 -85.358864 
L 260.781818 -96.383864 
L 259.090909 -124.232727 
L 257.4 -172.270227 
L 255.709091 -201.121364 
L 254.018182 -195.895227 
L 252.327273 -190.024773 
L 250.636364 -132.752045 
L 248.945455 -180.073636 
L 247.254545 -93.448636 
L 245.563636 -80.275909 
L 243.872727 -62.091818 
L 242.181818 -136.617955 
L 240.490909 -49.420227 
L 238.8 -156.448636 
L 237.109091 -98.030455 
L 235.418182 -111.561136 
L 233.727273 -126.380455 
L 232.036364 -96.383864 
L 230.345455 -125.950909 
L 228.654545 -78.557727 
L 226.963636 -65.241818 
L 225.272727 -92.303182 
L 223.581818 -72.830455 
L 221.890909 -60.373636 
L 220.2 -66.100909 
L 218.509091 -52.283864 
L 216.818182 -136.045227 
L 215.127273 -145.495227 
L 213.436364 -117.861136 
L 211.745455 -114.925909 
L 210.054545 -167.76 
L 208.363636 -101.753182 
L 206.672727 -114.281591 
L 204.981818 -140.555455 
L 203.290909 -176.923636 
L 201.6 -85.0725 
L 199.909091 -90.871364 
L 198.218182 -85.573636 
L 196.527273 -116.930455 
L 194.836364 -64.5975 
L 193.145455 -76.911136 
L 191.454545 -79.273636 
L 189.763636 -78.915682 
L 188.072727 -122.013409 
L 186.381818 -88.2225 
L 184.690909 -92.16 
L 183 -98.746364 
L 181.309091 -175.062273 
L 179.618182 -165.469091 
L 177.927273 -154.444091 
L 176.236364 -168.117955 
L 174.545455 -225.963409 
L 172.854545 -147.571364 
L 171.163636 -156.735 
L 169.472727 -158.31 
L 167.781818 -215.367955 
L 166.090909 -164.466818 
L 164.4 -148.000909 
L 162.709091 -147.428182 
L 161.018182 -190.955455 
L 159.327273 -54.717955 
L 157.636364 -85.931591 
L 155.945455 -126.81 
L 154.254545 -67.890682 
L 152.563636 -97.099773 
L 150.872727 -82.280455 
L 149.181818 -110.129318 
L 147.490909 -143.705455 
L 145.8 -153.942955 
L 144.109091 -157.665682 
L 142.418182 -243.36 
L 140.727273 -152.01 
L 139.036364 -158.31 
L 137.345455 -194.821364 
L 135.654545 -230.974773 
L 133.963636 -195.966818 
L 132.272727 -186.158864 
L 130.581818 -190.812273 
L 128.890909 -207.564545 
L 127.2 -147.642955 
L 125.509091 -106.764545 
L 123.818182 -67.675909 
L 122.127273 -78.987273 
L 120.436364 -47.487273 
L 118.745455 -48.346364 
L 117.054545 -50.637273 
L 115.363636 -63.237273 
z
" style="stroke: #008000; stroke-width: 0.5"/>
    </defs>
    <g clip-path="url(#p5a70a24102)">
     <use xlink:href="#m8f5f46ef39" x="0" y="288" style="fill: #008000; stroke: #008000; stroke-width: 0.5"/>
    </g>
   </g>
   <g id="line2d_24">
    <path d="M 90 44.64 
L 648 44.64 
" clip-path="url(#p5a70a24102)" style="fill: none; stroke: #000000; stroke-width: 1.5; stroke-linecap: square"/>
   </g>
   <g id="line2d_25">
    <path d="M 90 171.355909 
L 648 171.355909 
" clip-path="url(#p5a70a24102)" style="fill: none; stroke: #000000; stroke-width: 1.5; stroke-linecap: square"/>
   </g>
   <g id="patch_3">
    <path d="M 90 256.32 
L 90 34.56 
" style="fill: none; stroke: #000000; stroke-width: 0.8; stroke-linejoin: miter; stroke-linecap: square"/>
   </g>
   <g id="patch_4">
    <path d="M 648 256.32 
L 648 34.56 
" style="fill: none; stroke: #000000; stroke-width: 0.8; stroke-linejoin: miter; stroke-linecap: square"/>
   </g>
   <g id="patch_5">
    <path d="M 90 256.32 
L 648 256.32 
" style="fill: none; stroke: #000000; stroke-width: 0.8; stroke-linejoin: miter; stroke-linecap: square"/>
   </g>
   <g id="patch_6">
    <path d="M 90 34.56 
L 648 34.56 
" style="fill: none; stroke: #000000; stroke-width: 0.8; stroke-linejoin: miter; stroke-linecap: square"/>
   </g>
   <g id="text_20">
    <!-- peak (2,816) -->
    <g transform="translate(122.179233 41.3136) scale(0.1 -0.1)">
     <defs>
      <path id="DejaVuSans-Bold-70" d="M 1656 506 
L 1656 -1331 
L 538 -1331 
L 538 3500 
L 1656 3500 
L 1656 2988 
Q 1888 3294 2169 3439 
Q 2450 3584 2816 3584 
Q 3463 3584 3878 3070 
Q 4294 2556 4294 1747 
Q 4294 938 3878 423 
Q 3463 -91 2816 -91 
Q 2450 -91 2169 54 
Q 1888 200 1656 506 
z
M 2400 2772 
Q 2041 2772 1848 2508 
Q 1656 2244 1656 1747 
Q 1656 1250 1848 986 
Q 2041 722 2400 722 
Q 2759 722 2948 984 
Q 3138 1247 3138 1747 
Q 3138 2247 2948 2509 
Q 2759 2772 2400 2772 
z
" transform="scale(0.015625)"/>
      <path id="DejaVuSans-Bold-65" d="M 4031 1759 
L 4031 1441 
L 1416 1441 
Q 1456 1047 1700 850 
Q 1944 653 2381 653 
Q 2734 653 3104 758 
Q 3475 863 3866 1075 
L 3866 213 
Q 3469 63 3072 -14 
Q 2675 -91 2278 -91 
Q 1328 -91 801 392 
Q 275 875 275 1747 
Q 275 2603 792 3093 
Q 1309 3584 2216 3584 
Q 3041 3584 3536 3087 
Q 4031 2591 4031 1759 
z
M 2881 2131 
Q 2881 2450 2695 2645 
Q 2509 2841 2209 2841 
Q 1884 2841 1681 2658 
Q 1478 2475 1428 2131 
L 2881 2131 
z
" transform="scale(0.015625)"/>
      <path id="DejaVuSans-Bold-61" d="M 2106 1575 
Q 1756 1575 1579 1456 
Q 1403 1338 1403 1106 
Q 1403 894 1545 773 
Q 1688 653 1941 653 
Q 2256 653 2472 879 
Q 2688 1106 2688 1447 
L 2688 1575 
L 2106 1575 
z
M 3816 1997 
L 3816 0 
L 2688 0 
L 2688 519 
Q 2463 200 2181 54 
Q 1900 -91 1497 -91 
Q 953 -91 614 226 
Q 275 544 275 1050 
Q 275 1666 698 1953 
Q 1122 2241 2028 2241 
L 2688 2241 
L 2688 2328 
Q 2688 2594 2478 2717 
Q 2269 2841 1825 2841 
Q 1466 2841 1156 2769 
Q 847 2697 581 2553 
L 581 3406 
Q 941 3494 1303 3539 
Q 1666 3584 2028 3584 
Q 2975 3584 3395 3211 
Q 3816 2838 3816 1997 
z
" transform="scale(0.015625)"/>
      <path id="DejaVuSans-Bold-6b" d="M 538 4863 
L 1656 4863 
L 1656 2216 
L 2944 3500 
L 4244 3500 
L 2534 1894 
L 4378 0 
L 3022 0 
L 1656 1459 
L 1656 0 
L 538 0 
L 538 4863 
z
" transform="scale(0.015625)"/>
      <path id="DejaVuSans-Bold-20" transform="scale(0.015625)"/>
      <path id="DejaVuSans-Bold-28" d="M 2413 -844 
L 1484 -844 
Q 1006 -72 778 623 
Q 550 1319 550 2003 
Q 550 2688 779 3389 
Q 1009 4091 1484 4856 
L 2413 4856 
Q 2013 4116 1813 3408 
Q 1613 2700 1613 2009 
Q 1613 1319 1811 609 
Q 2009 -100 2413 -844 
z
" transform="scale(0.015625)"/>
      <path id="DejaVuSans-Bold-32" d="M 1844 884 
L 3897 884 
L 3897 0 
L 506 0 
L 506 884 
L 2209 2388 
Q 2438 2594 2547 2791 
Q 2656 2988 2656 3200 
Q 2656 3528 2436 3728 
Q 2216 3928 1850 3928 
Q 1569 3928 1234 3808 
Q 900 3688 519 3450 
L 519 4475 
Q 925 4609 1322 4679 
Q 1719 4750 2100 4750 
Q 2938 4750 3402 4381 
Q 3866 4013 3866 3353 
Q 3866 2972 3669 2642 
Q 3472 2313 2841 1759 
L 1844 884 
z
" transform="scale(0.015625)"/>
      <path id="DejaVuSans-Bold-2c" d="M 653 1209 
L 1778 1209 
L 1778 256 
L 1006 -909 
L 341 -909 
L 653 256 
L 653 1209 
z
" transform="scale(0.015625)"/>
      <path id="DejaVuSans-Bold-38" d="M 2228 2088 
Q 1891 2088 1709 1903 
Q 1528 1719 1528 1375 
Q 1528 1031 1709 848 
Q 1891 666 2228 666 
Q 2563 666 2741 848 
Q 2919 1031 2919 1375 
Q 2919 1722 2741 1905 
Q 2563 2088 2228 2088 
z
M 1350 2484 
Q 925 2613 709 2878 
Q 494 3144 494 3541 
Q 494 4131 934 4440 
Q 1375 4750 2228 4750 
Q 3075 4750 3515 4442 
Q 3956 4134 3956 3541 
Q 3956 3144 3739 2878 
Q 3522 2613 3097 2484 
Q 3572 2353 3814 2058 
Q 4056 1763 4056 1313 
Q 4056 619 3595 264 
Q 3134 -91 2228 -91 
Q 1319 -91 855 264 
Q 391 619 391 1313 
Q 391 1763 633 2058 
Q 875 2353 1350 2484 
z
M 1631 3419 
Q 1631 3141 1786 2991 
Q 1941 2841 2228 2841 
Q 2509 2841 2662 2991 
Q 2816 3141 2816 3419 
Q 2816 3697 2662 3845 
Q 2509 3994 2228 3994 
Q 1941 3994 1786 3844 
Q 1631 3694 1631 3419 
z
" transform="scale(0.015625)"/>
      <path id="DejaVuSans-Bold-31" d="M 750 831 
L 1813 831 
L 1813 3847 
L 722 3622 
L 722 4441 
L 1806 4666 
L 2950 4666 
L 2950 831 
L 4013 831 
L 4013 0 
L 750 0 
L 750 831 
z
" transform="scale(0.015625)"/>
      <path id="DejaVuSans-Bold-36" d="M 2316 2303 
Q 2000 2303 1842 2098 
Q 1684 1894 1684 1484 
Q 1684 1075 1842 870 
Q 2000 666 2316 666 
Q 2634 666 2792 870 
Q 2950 1075 2950 1484 
Q 2950 1894 2792 2098 
Q 2634 2303 2316 2303 
z
M 3803 4544 
L 3803 3681 
Q 3506 3822 3243 3889 
Q 2981 3956 2731 3956 
Q 2194 3956 1894 3657 
Q 1594 3359 1544 2772 
Q 1750 2925 1990 3001 
Q 2231 3078 2516 3078 
Q 3231 3078 3670 2659 
Q 4109 2241 4109 1563 
Q 4109 813 3618 361 
Q 3128 -91 2303 -91 
Q 1394 -91 895 523 
Q 397 1138 397 2266 
Q 397 3422 980 4083 
Q 1563 4744 2578 4744 
Q 2900 4744 3203 4694 
Q 3506 4644 3803 4544 
z
" transform="scale(0.015625)"/>
      <path id="DejaVuSans-Bold-29" d="M 513 -844 
Q 913 -100 1113 609 
Q 1313 1319 1313 2009 
Q 1313 2700 1113 3408 
Q 913 4116 513 4856 
L 1441 4856 
Q 1916 4091 2145 3389 
Q 2375 2688 2375 2003 
Q 2375 1319 2147 623 
Q 1919 -72 1441 -844 
L 513 -844 
z
" transform="scale(0.015625)"/>
     </defs>
     <use xlink:href="#DejaVuSans-Bold-70"/>
     <use xlink:href="#DejaVuSans-Bold-65" x="71.582031"/>
     <use xlink:href="#DejaVuSans-Bold-61" x="139.404297"/>
     <use xlink:href="#DejaVuSans-Bold-6b" x="206.884766"/>
     <use xlink:href="#DejaVuSans-Bold-20" x="273.388672"/>
     <use xlink:href="#DejaVuSans-Bold-28" x="308.203125"/>
     <use xlink:href="#DejaVuSans-Bold-32" x="353.90625"/>
     <use xlink:href="#DejaVuSans-Bold-2c" x="423.486328"/>
     <use xlink:href="#DejaVuSans-Bold-38" x="461.474609"/>
     <use xlink:href="#DejaVuSans-Bold-31" x="531.054688"/>
     <use xlink:href="#DejaVuSans-Bold-36" x="600.634766"/>
     <use xlink:href="#DejaVuSans-Bold-29" x="670.214844"/>
    </g>
   </g>
   <g id="text_21">
    <!-- mean (1,046) -->
    <g transform="translate(567.728153 168.029509) scale(0.1 -0.1)">
     <defs>
      <path id="DejaVuSans-Bold-6d" d="M 3781 2919 
Q 3994 3244 4286 3414 
Q 4578 3584 4928 3584 
Q 5531 3584 5847 3212 
Q 6163 2841 6163 2131 
L 6163 0 
L 5038 0 
L 5038 1825 
Q 5041 1866 5042 1909 
Q 5044 1953 5044 2034 
Q 5044 2406 4934 2573 
Q 4825 2741 4581 2741 
Q 4263 2741 4089 2478 
Q 3916 2216 3909 1719 
L 3909 0 
L 2784 0 
L 2784 1825 
Q 2784 2406 2684 2573 
Q 2584 2741 2328 2741 
Q 2006 2741 1831 2477 
Q 1656 2213 1656 1722 
L 1656 0 
L 531 0 
L 531 3500 
L 1656 3500 
L 1656 2988 
Q 1863 3284 2130 3434 
Q 2397 3584 2719 3584 
Q 3081 3584 3359 3409 
Q 3638 3234 3781 2919 
z
" transform="scale(0.015625)"/>
      <path id="DejaVuSans-Bold-6e" d="M 4056 2131 
L 4056 0 
L 2931 0 
L 2931 347 
L 2931 1631 
Q 2931 2084 2911 2256 
Q 2891 2428 2841 2509 
Q 2775 2619 2662 2680 
Q 2550 2741 2406 2741 
Q 2056 2741 1856 2470 
Q 1656 2200 1656 1722 
L 1656 0 
L 538 0 
L 538 3500 
L 1656 3500 
L 1656 2988 
Q 1909 3294 2193 3439 
Q 2478 3584 2822 3584 
Q 3428 3584 3742 3212 
Q 4056 2841 4056 2131 
z
" transform="scale(0.015625)"/>
      <path id="DejaVuSans-Bold-30" d="M 2944 2338 
Q 2944 3213 2780 3570 
Q 2616 3928 2228 3928 
Q 1841 3928 1675 3570 
Q 1509 3213 1509 2338 
Q 1509 1453 1675 1090 
Q 1841 728 2228 728 
Q 2613 728 2778 1090 
Q 2944 1453 2944 2338 
z
M 4147 2328 
Q 4147 1169 3647 539 
Q 3147 -91 2228 -91 
Q 1306 -91 806 539 
Q 306 1169 306 2328 
Q 306 3491 806 4120 
Q 1306 4750 2228 4750 
Q 3147 4750 3647 4120 
Q 4147 3491 4147 2328 
z
" transform="scale(0.015625)"/>
      <path id="DejaVuSans-Bold-34" d="M 2356 3675 
L 1038 1722 
L 2356 1722 
L 2356 3675 
z
M 2156 4666 
L 3494 4666 
L 3494 1722 
L 4159 1722 
L 4159 850 
L 3494 850 
L 3494 0 
L 2356 0 
L 2356 850 
L 288 850 
L 288 1881 
L 2156 4666 
z
" transform="scale(0.015625)"/>
     </defs>
     <use xlink:href="#DejaVuSans-Bold-6d"/>
     <use xlink:href="#DejaVuSans-Bold-65" x="104.199219"/>
     <use xlink:href="#DejaVuSans-Bold-61" x="172.021484"/>
     <use xlink:href="#DejaVuSans-Bold-6e" x="239.501953"/>
     <use xlink:href="#DejaVuSans-Bold-20" x="310.693359"/>
     <use xlink:href="#DejaVuSans-Bold-28" x="345.507812"/>
     <use xlink:href="#DejaVuSans-Bold-31" x="391.210938"/>
     <use xlink:href="#DejaVuSans-Bold-2c" x="460.791016"/>
     <use xlink:href="#DejaVuSans-Bold-30" x="498.779297"/>
     <use xlink:href="#DejaVuSans-Bold-34" x="568.359375"/>
     <use xlink:href="#DejaVuSans-Bold-36" x="637.939453"/>
     <use xlink:href="#DejaVuSans-Bold-29" x="707.519531"/>
    </g>
   </g>
   <g id="text_22">
    <!-- Stream Bitrate over Time -->
    <g transform="translate(293.189062 28.56) scale(0.12 -0.12)">
     <defs>
      <path id="DejaVuSans-53" d="M 3425 4513 
L 3425 3897 
Q 3066 4069 2747 4153 
Q 2428 4238 2131 4238 
Q 1616 4238 1336 4038 
Q 1056 3838 1056 3469 
Q 1056 3159 1242 3001 
Q 1428 2844 1947 2747 
L 2328 2669 
Q 3034 2534 3370 2195 
Q 3706 1856 3706 1288 
Q 3706 609 3251 259 
Q 2797 -91 1919 -91 
Q 1588 -91 1214 -16 
Q 841 59 441 206 
L 441 856 
Q 825 641 1194 531 
Q 1563 422 1919 422 
Q 2459 422 2753 634 
Q 3047 847 3047 1241 
Q 3047 1584 2836 1778 
Q 2625 1972 2144 2069 
L 1759 2144 
Q 1053 2284 737 2584 
Q 422 2884 422 3419 
Q 422 4038 858 4394 
Q 1294 4750 2059 4750 
Q 2388 4750 2728 4690 
Q 3069 4631 3425 4513 
z
" transform="scale(0.015625)"/>
      <path id="DejaVuSans-6f" d="M 1959 3097 
Q 1497 3097 1228 2736 
Q 959 2375 959 1747 
Q 959 1119 1226 758 
Q 1494 397 1959 397 
Q 2419 397 2687 759 
Q 2956 1122 2956 1747 
Q 2956 2369 2687 2733 
Q 2419 3097 1959 3097 
z
M 1959 3584 
Q 2709 3584 3137 3096 
Q 3566 2609 3566 1747 
Q 3566 888 3137 398 
Q 2709 -91 1959 -91 
Q 1206 -91 779 398 
Q 353 888 353 1747 
Q 353 2609 779 3096 
Q 1206 3584 1959 3584 
z
" transform="scale(0.015625)"/>
      <path id="DejaVuSans-76" d="M 191 3500 
L 800 3500 
L 1894 563 
L 2988 3500 
L 3597 3500 
L 2284 0 
L 1503 0 
L 191 3500 
z
" transform="scale(0.015625)"/>
     </defs>
     <use xlink:href="#DejaVuSans-53"/>
     <use xlink:href="#DejaVuSans-74" x="63.476562"/>
     <use xlink:href="#DejaVuSans-72" x="102.685547"/>
     <use xlink:href="#DejaVuSans-65" x="141.548828"/>
     <use xlink:href="#DejaVuSans-61" x="203.072266"/>
     <use xlink:href="#DejaVuSans-6d" x="264.351562"/>
     <use xlink:href="#DejaVuSans-20" x="361.763672"/>
     <use xlink:href="#DejaVuSans-42" x="393.550781"/>
     <use xlink:href="#DejaVuSans-69" x="462.154297"/>
     <use xlink:href="#DejaVuSans-74" x="489.9375"/>
     <use xlink:href="#DejaVuSans-72" x="529.146484"/>
     <use xlink:href="#DejaVuSans-61" x="570.259766"/>
     <use xlink:href="#DejaVuSans-74" x="631.539062"/>
     <use xlink:href="#DejaVuSans-65" x="670.748047"/>
     <use xlink:href="#DejaVuSans-20" x="732.271484"/>
     <use xlink:href="#DejaVuSans-6f" x="764.058594"/>
     <use xlink:href="#DejaVuSans-76" x="825.240234"/>
     <use xlink:href="#DejaVuSans-65" x="884.419922"/>
     <use xlink:href="#DejaVuSans-72" x="945.943359"/>
     <use xlink:href="#DejaVuSans-20" x="987.056641"/>
     <use xlink:href="#DejaVuSans-54" x="1018.84375"/>
     <use xlink:href="#DejaVuSans-69" x="1076.802734"/>
     <use xlink:href="#DejaVuSans-6d" x="1104.585938"/>
     <use xlink:href="#DejaVuSans-65" x="1201.998047"/>
    </g>
   </g>
   <g id="legend_1">
    <g id="patch_7">
     <path d="M 602.139063 86.594375 
L 641 86.594375 
Q 643 86.594375 643 84.594375 
L 643 41.56 
Q 643 39.56 641 39.56 
L 602.139063 39.56 
Q 600.139063 39.56 600.139063 41.56 
L 600.139063 84.594375 
Q 600.139063 86.594375 602.139063 86.594375 
z
" style="fill: #ffffff; opacity: 0.8; stroke: #cccccc; stroke-linejoin: miter"/>
    </g>
    <g id="patch_8">
     <path d="M 604.139063 51.158438 
L 624.139063 51.158438 
L 624.139063 44.158438 
L 604.139063 44.158438 
z
" style="fill: #ff0000; stroke: #ff0000; stroke-width: 0.5; stroke-linejoin: miter"/>
    </g>
    <g id="text_23">
     <!-- I -->
     <g transform="translate(632.139063 51.158438) scale(0.1 -0.1)">
      <defs>
       <path id="DejaVuSans-49" d="M 628 4666 
L 1259 4666 
L 1259 0 
L 628 0 
L 628 4666 
z
" transform="scale(0.015625)"/>
      </defs>
      <use xlink:href="#DejaVuSans-49"/>
     </g>
    </g>
    <g id="patch_9">
     <path d="M 604.139063 65.836563 
L 624.139063 65.836563 
L 624.139063 58.836563 
L 604.139063 58.836563 
z
" style="fill: #0000ff; stroke: #0000ff; stroke-width: 0.5; stroke-linejoin: miter"/>
    </g>
    <g id="text_24">
     <!-- B -->
     <g transform="translate(632.139063 65.836563) scale(0.1 -0.1)">
      <use xlink:href="#DejaVuSans-42"/>
     </g>
    </g>
    <g id="patch_10">
     <path d="M 604.139063 80.514688 
L 624.139063 80.514688 
L 624.139063 73.514688 
L 604.139063 73.514688 
z
" style="fill: #008000; stroke: #008000; stroke-width: 0.5; stroke-linejoin: miter"/>
    </g>
    <g id="text_25">
     <!-- P -->
     <g transform="translate(632.139063 80.514688) scale(0.1 -0.1)">
      <defs>
       <path id="DejaVuSans-50" d="M 1259 4147 
L 1259 2394 
L 2053 2394 
Q 2494 2394 2734 2622 
Q 2975 2850 2975 3272 
Q 2975 3691 2734 3919 
Q 2494 4147 2053 4147 
L 1259 4147 
z
M 628 4666 
L 2053 4666 
Q 2838 4666 3239 4311 
Q 3641 3956 3641 3272 
Q 3641 2581 3239 2228 
Q 2838 1875 2053 1875 
L 1259 1875 
L 1259 0 
L 628 0 
L 628 4666 
z
" transform="scale(0.015625)"/>
      </defs>
      <use xlink:href="#DejaVuSans-50"/>
     </g>
    </g>
   </g>
  </g>
 </g>
 <defs>
  <clipPath id="p5a70a24102">
   <rect x="90" y="34.56" width="558" height="221.76"/>
  </clipPath>
 </defs>
</svg>
