<?xml version="1.0" encoding="utf-8" standalone="no"?>
<!DOCTYPE svg PUBLIC "-//W3C//DTD SVG 1.1//EN"
  "http://www.w3.org/Graphics/SVG/1.1/DTD/svg11.dtd">
<svg xmlns:xlink="http://www.w3.org/1999/xlink" width="720pt" height="288pt" viewBox="0 0 720 288" xmlns="http://www.w3.org/2000/svg" version="1.1">
 <metadata>
  <rdf:RDF xmlns:dc="http://purl.org/dc/elements/1.1/" xmlns:cc="http://creativecommons.org/ns#" xmlns:rdf="http://www.w3.org/1999/02/22-rdf-syntax-ns#">
   <cc:Work>
    <dc:type rdf:resource="http://purl.org/dc/dcmitype/StillImage"/>
    <dc:date>2023-05-07T02:01:09.063502</dc:date>
    <dc:format>image/svg+xml</dc:format>
    <dc:creator>
     <cc:Agent>
      <dc:title>Matplotlib v3.7.1, https://matplotlib.org/</dc:title>
     </cc:Agent>
    </dc:creator>
   </cc:Work>
  </rdf:RDF>
 </metadata>
 <defs>
  <style type="text/css">*{stroke-linejoin: round; stroke-linecap: butt}</style>
 </defs>
 <g id="figure_1">
  <g id="patch_1">
   <path d="M 0 288 
L 720 288 
L 720 0 
L 0 0 
z
" style="fill: #ffffff"/>
  </g>
  <g id="axes_1">
   <g id="patch_2">
    <path d="M 90 256.32 
L 648 256.32 
L 648 34.56 
L 90 34.56 
z
" style="fill: #ffffff"/>
   </g>
   <g id="matplotlib.axis_1">
    <g id="xtick_1">
     <g id="line2d_1">
      <defs>
       <path id="m167a59e721" d="M 0 0 
L 0 3.5 
" style="stroke: #000000; stroke-width: 0.8"/>
      </defs>
      <g>
       <use xlink:href="#m167a59e721" x="115.363636" y="256.32" style="stroke: #000000; stroke-width: 0.8"/>
      </g>
     </g>
     <g id="text_1">
      <!-- 0:00:00 -->
      <g transform="translate(96.088636 270.918437) scale(0.1 -0.1)">
       <defs>
        <path id="DejaVuSans-30" d="M 2034 4250 
Q 1547 4250 1301 3770 
Q 1056 3291 1056 2328 
Q 1056 1369 1301 889 
Q 1547 409 2034 409 
Q 2525 409 2770 889 
Q 3016 1369 3016 2328 
Q 3016 3291 2770 3770 
Q 2525 4250 2034 4250 
z
M 2034 4750 
Q 2819 4750 3233 4129 
Q 3647 3509 3647 2328 
Q 3647 1150 3233 529 
Q 2819 -91 2034 -91 
Q 1250 -91 836 529 
Q 422 1150 422 2328 
Q 422 3509 836 4129 
Q 1250 4750 2034 4750 
z
" transform="scale(0.015625)"/>
        <path id="DejaVuSans-3a" d="M 750 794 
L 1409 794 
L 1409 0 
L 750 0 
L 750 794 
z
M 750 3309 
L 1409 3309 
L 1409 2516 
L 750 2516 
L 750 3309 
z
" transform="scale(0.015625)"/>
       </defs>
       <use xlink:href="#DejaVuSans-30"/>
       <use xlink:href="#DejaVuSans-3a" x="63.623047"/>
       <use xlink:href="#DejaVuSans-30" x="97.314453"/>
       <use xlink:href="#DejaVuSans-30" x="160.9375"/>
       <use xlink:href="#DejaVuSans-3a" x="224.560547"/>
       <use xlink:href="#DejaVuSans-30" x="258.251953"/>
       <use xlink:href="#DejaVuSans-30" x="321.875"/>
      </g>
     </g>
    </g>
    <g id="xtick_2">
     <g id="line2d_2">
      <g>
       <use xlink:href="#m167a59e721" x="166.090909" y="256.32" style="stroke: #000000; stroke-width: 0.8"/>
      </g>
     </g>
     <g id="text_2">
      <!-- 0:00:30 -->
      <g transform="translate(146.815909 270.918437) scale(0.1 -0.1)">
       <defs>
        <path id="DejaVuSans-33" d="M 2597 2516 
Q 3050 2419 3304 2112 
Q 3559 1806 3559 1356 
Q 3559 666 3084 287 
Q 2609 -91 1734 -91 
Q 1441 -91 1130 -33 
Q 819 25 488 141 
L 488 750 
Q 750 597 1062 519 
Q 1375 441 1716 441 
Q 2309 441 2620 675 
Q 2931 909 2931 1356 
Q 2931 1769 2642 2001 
Q 2353 2234 1838 2234 
L 1294 2234 
L 1294 2753 
L 1863 2753 
Q 2328 2753 2575 2939 
Q 2822 3125 2822 3475 
Q 2822 3834 2567 4026 
Q 2313 4219 1838 4219 
Q 1578 4219 1281 4162 
Q 984 4106 628 3988 
L 628 4550 
Q 988 4650 1302 4700 
Q 1616 4750 1894 4750 
Q 2613 4750 3031 4423 
Q 3450 4097 3450 3541 
Q 3450 3153 3228 2886 
Q 3006 2619 2597 2516 
z
" transform="scale(0.015625)"/>
       </defs>
       <use xlink:href="#DejaVuSans-30"/>
       <use xlink:href="#DejaVuSans-3a" x="63.623047"/>
       <use xlink:href="#DejaVuSans-30" x="97.314453"/>
       <use xlink:href="#DejaVuSans-30" x="160.9375"/>
       <use xlink:href="#DejaVuSans-3a" x="224.560547"/>
       <use xlink:href="#DejaVuSans-33" x="258.251953"/>
       <use xlink:href="#DejaVuSans-30" x="321.875"/>
      </g>
     </g>
    </g>
    <g id="xtick_3">
     <g id="line2d_3">
      <g>
       <use xlink:href="#m167a59e721" x="216.818182" y="256.32" style="stroke: #000000; stroke-width: 0.8"/>
      </g>
     </g>
     <g id="text_3">
      <!-- 0:01:00 -->
      <g transform="translate(197.543182 270.918437) scale(0.1 -0.1)">
       <defs>
        <path id="DejaVuSans-31" d="M 794 531 
L 1825 531 
L 1825 4091 
L 703 3866 
L 703 4441 
L 1819 4666 
L 2450 4666 
L 2450 531 
L 3481 531 
L 3481 0 
L 794 0 
L 794 531 
z
" transform="scale(0.015625)"/>
       </defs>
       <use xlink:href="#DejaVuSans-30"/>
       <use xlink:href="#DejaVuSans-3a" x="63.623047"/>
       <use xlink:href="#DejaVuSans-30" x="97.314453"/>
       <use xlink:href="#DejaVuSans-31" x="160.9375"/>
       <use xlink:href="#DejaVuSans-3a" x="224.560547"/>
       <use xlink:href="#DejaVuSans-30" x="258.251953"/>
       <use xlink:href="#DejaVuSans-30" x="321.875"/>
      </g>
     </g>
    </g>
    <g id="xtick_4">
     <g id="line2d_4">
      <g>
       <use xlink:href="#m167a59e721" x="267.545455" y="256.32" style="stroke: #000000; stroke-width: 0.8"/>
      </g>
     </g>
     <g id="text_4">
      <!-- 0:01:30 -->
      <g transform="translate(248.270455 270.918437) scale(0.1 -0.1)">
       <use xlink:href="#DejaVuSans-30"/>
       <use xlink:href="#DejaVuSans-3a" x="63.623047"/>
       <use xlink:href="#DejaVuSans-30" x="97.314453"/>
       <use xlink:href="#DejaVuSans-31" x="160.9375"/>
       <use xlink:href="#DejaVuSans-3a" x="224.560547"/>
       <use xlink:href="#DejaVuSans-33" x="258.251953"/>
       <use xlink:href="#DejaVuSans-30" x="321.875"/>
      </g>
     </g>
    </g>
    <g id="xtick_5">
     <g id="line2d_5">
      <g>
       <use xlink:href="#m167a59e721" x="318.272727" y="256.32" style="stroke: #000000; stroke-width: 0.8"/>
      </g>
     </g>
     <g id="text_5">
      <!-- 0:02:00 -->
      <g transform="translate(298.997727 270.918437) scale(0.1 -0.1)">
       <defs>
        <path id="DejaVuSans-32" d="M 1228 531 
L 3431 531 
L 3431 0 
L 469 0 
L 469 531 
Q 828 903 1448 1529 
Q 2069 2156 2228 2338 
Q 2531 2678 2651 2914 
Q 2772 3150 2772 3378 
Q 2772 3750 2511 3984 
Q 2250 4219 1831 4219 
Q 1534 4219 1204 4116 
Q 875 4013 500 3803 
L 500 4441 
Q 881 4594 1212 4672 
Q 1544 4750 1819 4750 
Q 2544 4750 2975 4387 
Q 3406 4025 3406 3419 
Q 3406 3131 3298 2873 
Q 3191 2616 2906 2266 
Q 2828 2175 2409 1742 
Q 1991 1309 1228 531 
z
" transform="scale(0.015625)"/>
       </defs>
       <use xlink:href="#DejaVuSans-30"/>
       <use xlink:href="#DejaVuSans-3a" x="63.623047"/>
       <use xlink:href="#DejaVuSans-30" x="97.314453"/>
       <use xlink:href="#DejaVuSans-32" x="160.9375"/>
       <use xlink:href="#DejaVuSans-3a" x="224.560547"/>
       <use xlink:href="#DejaVuSans-30" x="258.251953"/>
       <use xlink:href="#DejaVuSans-30" x="321.875"/>
      </g>
     </g>
    </g>
    <g id="xtick_6">
     <g id="line2d_6">
      <g>
       <use xlink:href="#m167a59e721" x="369" y="256.32" style="stroke: #000000; stroke-width: 0.8"/>
      </g>
     </g>
     <g id="text_6">
      <!-- 0:02:30 -->
      <g transform="translate(349.725 270.918437) scale(0.1 -0.1)">
       <use xlink:href="#DejaVuSans-30"/>
       <use xlink:href="#DejaVuSans-3a" x="63.623047"/>
       <use xlink:href="#DejaVuSans-30" x="97.314453"/>
       <use xlink:href="#DejaVuSans-32" x="160.9375"/>
       <use xlink:href="#DejaVuSans-3a" x="224.560547"/>
       <use xlink:href="#DejaVuSans-33" x="258.251953"/>
       <use xlink:href="#DejaVuSans-30" x="321.875"/>
      </g>
     </g>
    </g>
    <g id="xtick_7">
     <g id="line2d_7">
      <g>
       <use xlink:href="#m167a59e721" x="419.727273" y="256.32" style="stroke: #000000; stroke-width: 0.8"/>
      </g>
     </g>
     <g id="text_7">
      <!-- 0:03:00 -->
      <g transform="translate(400.452273 270.918437) scale(0.1 -0.1)">
       <use xlink:href="#DejaVuSans-30"/>
       <use xlink:href="#DejaVuSans-3a" x="63.623047"/>
       <use xlink:href="#DejaVuSans-30" x="97.314453"/>
       <use xlink:href="#DejaVuSans-33" x="160.9375"/>
       <use xlink:href="#DejaVuSans-3a" x="224.560547"/>
       <use xlink:href="#DejaVuSans-30" x="258.251953"/>
       <use xlink:href="#DejaVuSans-30" x="321.875"/>
      </g>
     </g>
    </g>
    <g id="xtick_8">
     <g id="line2d_8">
      <g>
       <use xlink:href="#m167a59e721" x="470.454545" y="256.32" style="stroke: #000000; stroke-width: 0.8"/>
      </g>
     </g>
     <g id="text_8">
      <!-- 0:03:30 -->
      <g transform="translate(451.179545 270.918437) scale(0.1 -0.1)">
       <use xlink:href="#DejaVuSans-30"/>
       <use xlink:href="#DejaVuSans-3a" x="63.623047"/>
       <use xlink:href="#DejaVuSans-30" x="97.314453"/>
       <use xlink:href="#DejaVuSans-33" x="160.9375"/>
       <use xlink:href="#DejaVuSans-3a" x="224.560547"/>
       <use xlink:href="#DejaVuSans-33" x="258.251953"/>
       <use xlink:href="#DejaVuSans-30" x="321.875"/>
      </g>
     </g>
    </g>
    <g id="xtick_9">
     <g id="line2d_9">
      <g>
       <use xlink:href="#m167a59e721" x="521.181818" y="256.32" style="stroke: #000000; stroke-width: 0.8"/>
      </g>
     </g>
     <g id="text_9">
      <!-- 0:04:00 -->
      <g transform="translate(501.906818 270.918437) scale(0.1 -0.1)">
       <defs>
        <path id="DejaVuSans-34" d="M 2419 4116 
L 825 1625 
L 2419 1625 
L 2419 4116 
z
M 2253 4666 
L 3047 4666 
L 3047 1625 
L 3713 1625 
L 3713 1100 
L 3047 1100 
L 3047 0 
L 2419 0 
L 2419 1100 
L 313 1100 
L 313 1709 
L 2253 4666 
z
" transform="scale(0.015625)"/>
       </defs>
       <use xlink:href="#DejaVuSans-30"/>
       <use xlink:href="#DejaVuSans-3a" x="63.623047"/>
       <use xlink:href="#DejaVuSans-30" x="97.314453"/>
       <use xlink:href="#DejaVuSans-34" x="160.9375"/>
       <use xlink:href="#DejaVuSans-3a" x="224.560547"/>
       <use xlink:href="#DejaVuSans-30" x="258.251953"/>
       <use xlink:href="#DejaVuSans-30" x="321.875"/>
      </g>
     </g>
    </g>
    <g id="xtick_10">
     <g id="line2d_10">
      <g>
       <use xlink:href="#m167a59e721" x="571.909091" y="256.32" style="stroke: #000000; stroke-width: 0.8"/>
      </g>
     </g>
     <g id="text_10">
      <!-- 0:04:30 -->
      <g transform="translate(552.634091 270.918437) scale(0.1 -0.1)">
       <use xlink:href="#DejaVuSans-30"/>
       <use xlink:href="#DejaVuSans-3a" x="63.623047"/>
       <use xlink:href="#DejaVuSans-30" x="97.314453"/>
       <use xlink:href="#DejaVuSans-34" x="160.9375"/>
       <use xlink:href="#DejaVuSans-3a" x="224.560547"/>
       <use xlink:href="#DejaVuSans-33" x="258.251953"/>
       <use xlink:href="#DejaVuSans-30" x="321.875"/>
      </g>
     </g>
    </g>
    <g id="xtick_11">
     <g id="line2d_11">
      <g>
       <use xlink:href="#m167a59e721" x="622.636364" y="256.32" style="stroke: #000000; stroke-width: 0.8"/>
      </g>
     </g>
     <g id="text_11">
      <!-- 0:05:00 -->
      <g transform="translate(603.361364 270.918437) scale(0.1 -0.1)">
       <defs>
        <path id="DejaVuSans-35" d="M 691 4666 
L 3169 4666 
L 3169 4134 
L 1269 4134 
L 1269 2991 
Q 1406 3038 1543 3061 
Q 1681 3084 1819 3084 
Q 2600 3084 3056 2656 
Q 3513 2228 3513 1497 
Q 3513 744 3044 326 
Q 2575 -91 1722 -91 
Q 1428 -91 1123 -41 
Q 819 9 494 109 
L 494 744 
Q 775 591 1075 516 
Q 1375 441 1709 441 
Q 2250 441 2565 725 
Q 2881 1009 2881 1497 
Q 2881 1984 2565 2268 
Q 2250 2553 1709 2553 
Q 1456 2553 1204 2497 
Q 953 2441 691 2322 
L 691 4666 
z
" transform="scale(0.015625)"/>
       </defs>
       <use xlink:href="#DejaVuSans-30"/>
       <use xlink:href="#DejaVuSans-3a" x="63.623047"/>
       <use xlink:href="#DejaVuSans-30" x="97.314453"/>
       <use xlink:href="#DejaVuSans-35" x="160.9375"/>
       <use xlink:href="#DejaVuSans-3a" x="224.560547"/>
       <use xlink:href="#DejaVuSans-30" x="258.251953"/>
       <use xlink:href="#DejaVuSans-30" x="321.875"/>
      </g>
     </g>
    </g>
    <g id="text_12">
     <!-- Time -->
     <g transform="translate(356.766406 284.596563) scale(0.1 -0.1)">
      <defs>
       <path id="DejaVuSans-54" d="M -19 4666 
L 3928 4666 
L 3928 4134 
L 2272 4134 
L 2272 0 
L 1638 0 
L 1638 4134 
L -19 4134 
L -19 4666 
z
" transform="scale(0.015625)"/>
       <path id="DejaVuSans-69" d="M 603 3500 
L 1178 3500 
L 1178 0 
L 603 0 
L 603 3500 
z
M 603 4863 
L 1178 4863 
L 1178 4134 
L 603 4134 
L 603 4863 
z
" transform="scale(0.015625)"/>
       <path id="DejaVuSans-6d" d="M 3328 2828 
Q 3544 3216 3844 3400 
Q 4144 3584 4550 3584 
Q 5097 3584 5394 3201 
Q 5691 2819 5691 2113 
L 5691 0 
L 5113 0 
L 5113 2094 
Q 5113 2597 4934 2840 
Q 4756 3084 4391 3084 
Q 3944 3084 3684 2787 
Q 3425 2491 3425 1978 
L 3425 0 
L 2847 0 
L 2847 2094 
Q 2847 2600 2669 2842 
Q 2491 3084 2119 3084 
Q 1678 3084 1418 2786 
Q 1159 2488 1159 1978 
L 1159 0 
L 581 0 
L 581 3500 
L 1159 3500 
L 1159 2956 
Q 1356 3278 1631 3431 
Q 1906 3584 2284 3584 
Q 2666 3584 2933 3390 
Q 3200 3197 3328 2828 
z
" transform="scale(0.015625)"/>
       <path id="DejaVuSans-65" d="M 3597 1894 
L 3597 1613 
L 953 1613 
Q 991 1019 1311 708 
Q 1631 397 2203 397 
Q 2534 397 2845 478 
Q 3156 559 3463 722 
L 3463 178 
Q 3153 47 2828 -22 
Q 2503 -91 2169 -91 
Q 1331 -91 842 396 
Q 353 884 353 1716 
Q 353 2575 817 3079 
Q 1281 3584 2069 3584 
Q 2775 3584 3186 3129 
Q 3597 2675 3597 1894 
z
M 3022 2063 
Q 3016 2534 2758 2815 
Q 2500 3097 2075 3097 
Q 1594 3097 1305 2825 
Q 1016 2553 972 2059 
L 3022 2063 
z
" transform="scale(0.015625)"/>
      </defs>
      <use xlink:href="#DejaVuSans-54"/>
      <use xlink:href="#DejaVuSans-69" x="57.958984"/>
      <use xlink:href="#DejaVuSans-6d" x="85.742188"/>
      <use xlink:href="#DejaVuSans-65" x="183.154297"/>
     </g>
    </g>
   </g>
   <g id="matplotlib.axis_2">
    <g id="ytick_1">
     <g id="line2d_12">
      <path d="M 90 246.24 
L 648 246.24 
" clip-path="url(#pdde64d8636)" style="fill: none; stroke: #b0b0b0; stroke-width: 0.8; stroke-linecap: square"/>
     </g>
     <g id="line2d_13">
      <defs>
       <path id="m0ecc474095" d="M 0 0 
L -3.5 0 
" style="stroke: #000000; stroke-width: 0.8"/>
      </defs>
      <g>
       <use xlink:href="#m0ecc474095" x="90" y="246.24" style="stroke: #000000; stroke-width: 0.8"/>
      </g>
     </g>
     <g id="text_13">
      <!-- 0 -->
      <g transform="translate(76.6375 250.039219) scale(0.1 -0.1)">
       <use xlink:href="#DejaVuSans-30"/>
      </g>
     </g>
    </g>
    <g id="ytick_2">
     <g id="line2d_14">
      <path d="M 90 210.162691 
L 648 210.162691 
" clip-path="url(#pdde64d8636)" style="fill: none; stroke: #b0b0b0; stroke-width: 0.8; stroke-linecap: square"/>
     </g>
     <g id="line2d_15">
      <g>
       <use xlink:href="#m0ecc474095" x="90" y="210.162691" style="stroke: #000000; stroke-width: 0.8"/>
      </g>
     </g>
     <g id="text_14">
      <!-- 1,000 -->
      <g transform="translate(54.371875 213.96191) scale(0.1 -0.1)">
       <defs>
        <path id="DejaVuSans-2c" d="M 750 794 
L 1409 794 
L 1409 256 
L 897 -744 
L 494 -744 
L 750 256 
L 750 794 
z
" transform="scale(0.015625)"/>
       </defs>
       <use xlink:href="#DejaVuSans-31"/>
       <use xlink:href="#DejaVuSans-2c" x="63.623047"/>
       <use xlink:href="#DejaVuSans-30" x="95.410156"/>
       <use xlink:href="#DejaVuSans-30" x="159.033203"/>
       <use xlink:href="#DejaVuSans-30" x="222.65625"/>
      </g>
     </g>
    </g>
    <g id="ytick_3">
     <g id="line2d_16">
      <path d="M 90 174.085383 
L 648 174.085383 
" clip-path="url(#pdde64d8636)" style="fill: none; stroke: #b0b0b0; stroke-width: 0.8; stroke-linecap: square"/>
     </g>
     <g id="line2d_17">
      <g>
       <use xlink:href="#m0ecc474095" x="90" y="174.085383" style="stroke: #000000; stroke-width: 0.8"/>
      </g>
     </g>
     <g id="text_15">
      <!-- 2,000 -->
      <g transform="translate(54.371875 177.884602) scale(0.1 -0.1)">
       <use xlink:href="#DejaVuSans-32"/>
       <use xlink:href="#DejaVuSans-2c" x="63.623047"/>
       <use xlink:href="#DejaVuSans-30" x="95.410156"/>
       <use xlink:href="#DejaVuSans-30" x="159.033203"/>
       <use xlink:href="#DejaVuSans-30" x="222.65625"/>
      </g>
     </g>
    </g>
    <g id="ytick_4">
     <g id="line2d_18">
      <path d="M 90 138.008074 
L 648 138.008074 
" clip-path="url(#pdde64d8636)" style="fill: none; stroke: #b0b0b0; stroke-width: 0.8; stroke-linecap: square"/>
     </g>
     <g id="line2d_19">
      <g>
       <use xlink:href="#m0ecc474095" x="90" y="138.008074" style="stroke: #000000; stroke-width: 0.8"/>
      </g>
     </g>
     <g id="text_16">
      <!-- 3,000 -->
      <g transform="translate(54.371875 141.807293) scale(0.1 -0.1)">
       <use xlink:href="#DejaVuSans-33"/>
       <use xlink:href="#DejaVuSans-2c" x="63.623047"/>
       <use xlink:href="#DejaVuSans-30" x="95.410156"/>
       <use xlink:href="#DejaVuSans-30" x="159.033203"/>
       <use xlink:href="#DejaVuSans-30" x="222.65625"/>
      </g>
     </g>
    </g>
    <g id="ytick_5">
     <g id="line2d_20">
      <path d="M 90 101.930766 
L 648 101.930766 
" clip-path="url(#pdde64d8636)" style="fill: none; stroke: #b0b0b0; stroke-width: 0.8; stroke-linecap: square"/>
     </g>
     <g id="line2d_21">
      <g>
       <use xlink:href="#m0ecc474095" x="90" y="101.930766" style="stroke: #000000; stroke-width: 0.8"/>
      </g>
     </g>
     <g id="text_17">
      <!-- 4,000 -->
      <g transform="translate(54.371875 105.729985) scale(0.1 -0.1)">
       <use xlink:href="#DejaVuSans-34"/>
       <use xlink:href="#DejaVuSans-2c" x="63.623047"/>
       <use xlink:href="#DejaVuSans-30" x="95.410156"/>
       <use xlink:href="#DejaVuSans-30" x="159.033203"/>
       <use xlink:href="#DejaVuSans-30" x="222.65625"/>
      </g>
     </g>
    </g>
    <g id="ytick_6">
     <g id="line2d_22">
      <path d="M 90 65.853457 
L 648 65.853457 
" clip-path="url(#pdde64d8636)" style="fill: none; stroke: #b0b0b0; stroke-width: 0.8; stroke-linecap: square"/>
     </g>
     <g id="line2d_23">
      <g>
       <use xlink:href="#m0ecc474095" x="90" y="65.853457" style="stroke: #000000; stroke-width: 0.8"/>
      </g>
     </g>
     <g id="text_18">
      <!-- 5,000 -->
      <g transform="translate(54.371875 69.652676) scale(0.1 -0.1)">
       <use xlink:href="#DejaVuSans-35"/>
       <use xlink:href="#DejaVuSans-2c" x="63.623047"/>
       <use xlink:href="#DejaVuSans-30" x="95.410156"/>
       <use xlink:href="#DejaVuSans-30" x="159.033203"/>
       <use xlink:href="#DejaVuSans-30" x="222.65625"/>
      </g>
     </g>
    </g>
    <g id="text_19">
     <!-- Bitrate (kbit/s) -->
     <g transform="translate(48.292187 181.574375) rotate(-90) scale(0.1 -0.1)">
      <defs>
       <path id="DejaVuSans-42" d="M 1259 2228 
L 1259 519 
L 2272 519 
Q 2781 519 3026 730 
Q 3272 941 3272 1375 
Q 3272 1813 3026 2020 
Q 2781 2228 2272 2228 
L 1259 2228 
z
M 1259 4147 
L 1259 2741 
L 2194 2741 
Q 2656 2741 2882 2914 
Q 3109 3088 3109 3444 
Q 3109 3797 2882 3972 
Q 2656 4147 2194 4147 
L 1259 4147 
z
M 628 4666 
L 2241 4666 
Q 2963 4666 3353 4366 
Q 3744 4066 3744 3513 
Q 3744 3084 3544 2831 
Q 3344 2578 2956 2516 
Q 3422 2416 3680 2098 
Q 3938 1781 3938 1306 
Q 3938 681 3513 340 
Q 3088 0 2303 0 
L 628 0 
L 628 4666 
z
" transform="scale(0.015625)"/>
       <path id="DejaVuSans-74" d="M 1172 4494 
L 1172 3500 
L 2356 3500 
L 2356 3053 
L 1172 3053 
L 1172 1153 
Q 1172 725 1289 603 
Q 1406 481 1766 481 
L 2356 481 
L 2356 0 
L 1766 0 
Q 1100 0 847 248 
Q 594 497 594 1153 
L 594 3053 
L 172 3053 
L 172 3500 
L 594 3500 
L 594 4494 
L 1172 4494 
z
" transform="scale(0.015625)"/>
       <path id="DejaVuSans-72" d="M 2631 2963 
Q 2534 3019 2420 3045 
Q 2306 3072 2169 3072 
Q 1681 3072 1420 2755 
Q 1159 2438 1159 1844 
L 1159 0 
L 581 0 
L 581 3500 
L 1159 3500 
L 1159 2956 
Q 1341 3275 1631 3429 
Q 1922 3584 2338 3584 
Q 2397 3584 2469 3576 
Q 2541 3569 2628 3553 
L 2631 2963 
z
" transform="scale(0.015625)"/>
       <path id="DejaVuSans-61" d="M 2194 1759 
Q 1497 1759 1228 1600 
Q 959 1441 959 1056 
Q 959 750 1161 570 
Q 1363 391 1709 391 
Q 2188 391 2477 730 
Q 2766 1069 2766 1631 
L 2766 1759 
L 2194 1759 
z
M 3341 1997 
L 3341 0 
L 2766 0 
L 2766 531 
Q 2569 213 2275 61 
Q 1981 -91 1556 -91 
Q 1019 -91 701 211 
Q 384 513 384 1019 
Q 384 1609 779 1909 
Q 1175 2209 1959 2209 
L 2766 2209 
L 2766 2266 
Q 2766 2663 2505 2880 
Q 2244 3097 1772 3097 
Q 1472 3097 1187 3025 
Q 903 2953 641 2809 
L 641 3341 
Q 956 3463 1253 3523 
Q 1550 3584 1831 3584 
Q 2591 3584 2966 3190 
Q 3341 2797 3341 1997 
z
" transform="scale(0.015625)"/>
       <path id="DejaVuSans-20" transform="scale(0.015625)"/>
       <path id="DejaVuSans-28" d="M 1984 4856 
Q 1566 4138 1362 3434 
Q 1159 2731 1159 2009 
Q 1159 1288 1364 580 
Q 1569 -128 1984 -844 
L 1484 -844 
Q 1016 -109 783 600 
Q 550 1309 550 2009 
Q 550 2706 781 3412 
Q 1013 4119 1484 4856 
L 1984 4856 
z
" transform="scale(0.015625)"/>
       <path id="DejaVuSans-6b" d="M 581 4863 
L 1159 4863 
L 1159 1991 
L 2875 3500 
L 3609 3500 
L 1753 1863 
L 3688 0 
L 2938 0 
L 1159 1709 
L 1159 0 
L 581 0 
L 581 4863 
z
" transform="scale(0.015625)"/>
       <path id="DejaVuSans-62" d="M 3116 1747 
Q 3116 2381 2855 2742 
Q 2594 3103 2138 3103 
Q 1681 3103 1420 2742 
Q 1159 2381 1159 1747 
Q 1159 1113 1420 752 
Q 1681 391 2138 391 
Q 2594 391 2855 752 
Q 3116 1113 3116 1747 
z
M 1159 2969 
Q 1341 3281 1617 3432 
Q 1894 3584 2278 3584 
Q 2916 3584 3314 3078 
Q 3713 2572 3713 1747 
Q 3713 922 3314 415 
Q 2916 -91 2278 -91 
Q 1894 -91 1617 61 
Q 1341 213 1159 525 
L 1159 0 
L 581 0 
L 581 4863 
L 1159 4863 
L 1159 2969 
z
" transform="scale(0.015625)"/>
       <path id="DejaVuSans-2f" d="M 1625 4666 
L 2156 4666 
L 531 -594 
L 0 -594 
L 1625 4666 
z
" transform="scale(0.015625)"/>
       <path id="DejaVuSans-73" d="M 2834 3397 
L 2834 2853 
Q 2591 2978 2328 3040 
Q 2066 3103 1784 3103 
Q 1356 3103 1142 2972 
Q 928 2841 928 2578 
Q 928 2378 1081 2264 
Q 1234 2150 1697 2047 
L 1894 2003 
Q 2506 1872 2764 1633 
Q 3022 1394 3022 966 
Q 3022 478 2636 193 
Q 2250 -91 1575 -91 
Q 1294 -91 989 -36 
Q 684 19 347 128 
L 347 722 
Q 666 556 975 473 
Q 1284 391 1588 391 
Q 1994 391 2212 530 
Q 2431 669 2431 922 
Q 2431 1156 2273 1281 
Q 2116 1406 1581 1522 
L 1381 1569 
Q 847 1681 609 1914 
Q 372 2147 372 2553 
Q 372 3047 722 3315 
Q 1072 3584 1716 3584 
Q 2034 3584 2315 3537 
Q 2597 3491 2834 3397 
z
" transform="scale(0.015625)"/>
       <path id="DejaVuSans-29" d="M 513 4856 
L 1013 4856 
Q 1481 4119 1714 3412 
Q 1947 2706 1947 2009 
Q 1947 1309 1714 600 
Q 1481 -109 1013 -844 
L 513 -844 
Q 928 -128 1133 580 
Q 1338 1288 1338 2009 
Q 1338 2731 1133 3434 
Q 928 4138 513 4856 
z
" transform="scale(0.015625)"/>
      </defs>
      <use xlink:href="#DejaVuSans-42"/>
      <use xlink:href="#DejaVuSans-69" x="68.603516"/>
      <use xlink:href="#DejaVuSans-74" x="96.386719"/>
      <use xlink:href="#DejaVuSans-72" x="135.595703"/>
      <use xlink:href="#DejaVuSans-61" x="176.708984"/>
      <use xlink:href="#DejaVuSans-74" x="237.988281"/>
      <use xlink:href="#DejaVuSans-65" x="277.197266"/>
      <use xlink:href="#DejaVuSans-20" x="338.720703"/>
      <use xlink:href="#DejaVuSans-28" x="370.507812"/>
      <use xlink:href="#DejaVuSans-6b" x="409.521484"/>
      <use xlink:href="#DejaVuSans-62" x="467.431641"/>
      <use xlink:href="#DejaVuSans-69" x="530.908203"/>
      <use xlink:href="#DejaVuSans-74" x="558.691406"/>
      <use xlink:href="#DejaVuSans-2f" x="597.900391"/>
      <use xlink:href="#DejaVuSans-73" x="631.591797"/>
      <use xlink:href="#DejaVuSans-29" x="683.691406"/>
     </g>
    </g>
   </g>
   <g id="PolyCollection_1">
    <defs>
     <path id="m071f1ff7a8" d="M 115.363636 -42.517623 
L 115.363636 -41.76 
L 117.054545 -41.76 
L 118.745455 -41.76 
L 120.436364 -41.76 
L 122.127273 -41.76 
L 123.818182 -41.76 
L 125.509091 -41.76 
L 127.2 -41.76 
L 128.890909 -41.76 
L 130.581818 -41.76 
L 132.272727 -41.76 
L 133.963636 -41.76 
L 135.654545 -41.76 
L 137.345455 -41.76 
L 139.036364 -41.76 
L 140.727273 -41.76 
L 142.418182 -41.76 
L 144.109091 -41.76 
L 145.8 -41.76 
L 147.490909 -41.76 
L 149.181818 -41.76 
L 150.872727 -41.76 
L 152.563636 -41.76 
L 154.254545 -41.76 
L 155.945455 -41.76 
L 157.636364 -41.76 
L 159.327273 -41.76 
L 161.018182 -41.76 
L 162.709091 -41.76 
L 164.4 -41.76 
L 166.090909 -41.76 
L 167.781818 -41.76 
L 169.472727 -41.76 
L 171.163636 -41.76 
L 172.854545 -41.76 
L 174.545455 -41.76 
L 176.236364 -41.76 
L 177.927273 -41.76 
L 179.618182 -41.76 
L 181.309091 -41.76 
L 183 -41.76 
L 184.690909 -41.76 
L 186.381818 -41.76 
L 188.072727 -41.76 
L 189.763636 -41.76 
L 191.454545 -41.76 
L 193.145455 -41.76 
L 194.836364 -41.76 
L 196.527273 -41.76 
L 198.218182 -41.76 
L 199.909091 -41.76 
L 201.6 -41.76 
L 203.290909 -41.76 
L 204.981818 -41.76 
L 206.672727 -41.76 
L 208.363636 -41.76 
L 210.054545 -41.76 
L 211.745455 -41.76 
L 213.436364 -41.76 
L 215.127273 -41.76 
L 216.818182 -41.76 
L 218.509091 -41.76 
L 220.2 -41.76 
L 221.890909 -41.76 
L 223.581818 -41.76 
L 225.272727 -41.76 
L 226.963636 -41.76 
L 228.654545 -41.76 
L 230.345455 -41.76 
L 232.036364 -41.76 
L 233.727273 -41.76 
L 235.418182 -41.76 
L 237.109091 -41.76 
L 238.8 -41.76 
L 240.490909 -41.76 
L 242.181818 -41.76 
L 243.872727 -41.76 
L 245.563636 -41.76 
L 247.254545 -41.76 
L 248.945455 -41.76 
L 250.636364 -41.76 
L 252.327273 -41.76 
L 254.018182 -41.76 
L 255.709091 -41.76 
L 257.4 -41.76 
L 259.090909 -41.76 
L 260.781818 -41.76 
L 262.472727 -41.76 
L 264.163636 -41.76 
L 265.854545 -41.76 
L 267.545455 -41.76 
L 269.236364 -41.76 
L 270.927273 -41.76 
L 272.618182 -41.76 
L 274.309091 -41.76 
L 276 -41.76 
L 277.690909 -41.76 
L 279.381818 -41.76 
L 281.072727 -41.76 
L 282.763636 -41.76 
L 284.454545 -41.76 
L 286.145455 -41.76 
L 287.836364 -41.76 
L 289.527273 -41.76 
L 291.218182 -41.76 
L 292.909091 -41.76 
L 294.6 -41.76 
L 296.290909 -41.76 
L 297.981818 -41.76 
L 299.672727 -41.76 
L 301.363636 -41.76 
L 303.054545 -41.76 
L 304.745455 -41.76 
L 306.436364 -41.76 
L 308.127273 -41.76 
L 309.818182 -41.76 
L 311.509091 -41.76 
L 313.2 -41.76 
L 314.890909 -41.76 
L 316.581818 -41.76 
L 318.272727 -41.76 
L 319.963636 -41.76 
L 321.654545 -41.76 
L 323.345455 -41.76 
L 325.036364 -41.76 
L 326.727273 -41.76 
L 328.418182 -41.76 
L 330.109091 -41.76 
L 331.8 -41.76 
L 333.490909 -41.76 
L 335.181818 -41.76 
L 336.872727 -41.76 
L 338.563636 -41.76 
L 340.254545 -41.76 
L 341.945455 -41.76 
L 343.636364 -41.76 
L 345.327273 -41.76 
L 347.018182 -41.76 
L 348.709091 -41.76 
L 350.4 -41.76 
L 352.090909 -41.76 
L 353.781818 -41.76 
L 355.472727 -41.76 
L 357.163636 -41.76 
L 358.854545 -41.76 
L 360.545455 -41.76 
L 362.236364 -41.76 
L 363.927273 -41.76 
L 365.618182 -41.76 
L 367.309091 -41.76 
L 369 -41.76 
L 370.690909 -41.76 
L 372.381818 -41.76 
L 374.072727 -41.76 
L 375.763636 -41.76 
L 377.454545 -41.76 
L 379.145455 -41.76 
L 380.836364 -41.76 
L 382.527273 -41.76 
L 384.218182 -41.76 
L 385.909091 -41.76 
L 387.6 -41.76 
L 389.290909 -41.76 
L 390.981818 -41.76 
L 392.672727 -41.76 
L 394.363636 -41.76 
L 396.054545 -41.76 
L 397.745455 -41.76 
L 399.436364 -41.76 
L 401.127273 -41.76 
L 402.818182 -41.76 
L 404.509091 -41.76 
L 406.2 -41.76 
L 407.890909 -41.76 
L 409.581818 -41.76 
L 411.272727 -41.76 
L 412.963636 -41.76 
L 414.654545 -41.76 
L 416.345455 -41.76 
L 418.036364 -41.76 
L 419.727273 -41.76 
L 421.418182 -41.76 
L 423.109091 -41.76 
L 424.8 -41.76 
L 426.490909 -41.76 
L 428.181818 -41.76 
L 429.872727 -41.76 
L 431.563636 -41.76 
L 433.254545 -41.76 
L 434.945455 -41.76 
L 436.636364 -41.76 
L 438.327273 -41.76 
L 440.018182 -41.76 
L 441.709091 -41.76 
L 443.4 -41.76 
L 445.090909 -41.76 
L 446.781818 -41.76 
L 448.472727 -41.76 
L 450.163636 -41.76 
L 451.854545 -41.76 
L 453.545455 -41.76 
L 455.236364 -41.76 
L 456.927273 -41.76 
L 458.618182 -41.76 
L 460.309091 -41.76 
L 462 -41.76 
L 463.690909 -41.76 
L 465.381818 -41.76 
L 467.072727 -41.76 
L 468.763636 -41.76 
L 470.454545 -41.76 
L 472.145455 -41.76 
L 473.836364 -41.76 
L 475.527273 -41.76 
L 477.218182 -41.76 
L 478.909091 -41.76 
L 480.6 -41.76 
L 482.290909 -41.76 
L 483.981818 -41.76 
L 485.672727 -41.76 
L 487.363636 -41.76 
L 489.054545 -41.76 
L 490.745455 -41.76 
L 492.436364 -41.76 
L 494.127273 -41.76 
L 495.818182 -41.76 
L 497.509091 -41.76 
L 499.2 -41.76 
L 500.890909 -41.76 
L 502.581818 -41.76 
L 504.272727 -41.76 
L 505.963636 -41.76 
L 507.654545 -41.76 
L 509.345455 -41.76 
L 511.036364 -41.76 
L 512.727273 -41.76 
L 514.418182 -41.76 
L 516.109091 -41.76 
L 517.8 -41.76 
L 519.490909 -41.76 
L 521.181818 -41.76 
L 522.872727 -41.76 
L 524.563636 -41.76 
L 526.254545 -41.76 
L 527.945455 -41.76 
L 529.636364 -41.76 
L 531.327273 -41.76 
L 533.018182 -41.76 
L 534.709091 -41.76 
L 536.4 -41.76 
L 538.090909 -41.76 
L 539.781818 -41.76 
L 541.472727 -41.76 
L 543.163636 -41.76 
L 544.854545 -41.76 
L 546.545455 -41.76 
L 548.236364 -41.76 
L 549.927273 -41.76 
L 551.618182 -41.76 
L 553.309091 -41.76 
L 555 -41.76 
L 556.690909 -41.76 
L 558.381818 -41.76 
L 560.072727 -41.76 
L 561.763636 -41.76 
L 563.454545 -41.76 
L 565.145455 -41.76 
L 566.836364 -41.76 
L 568.527273 -41.76 
L 570.218182 -41.76 
L 571.909091 -41.76 
L 573.6 -41.76 
L 575.290909 -41.76 
L 576.981818 -41.76 
L 578.672727 -41.76 
L 580.363636 -41.76 
L 582.054545 -41.76 
L 583.745455 -41.76 
L 585.436364 -41.76 
L 587.127273 -41.76 
L 588.818182 -41.76 
L 590.509091 -41.76 
L 592.2 -41.76 
L 593.890909 -41.76 
L 595.581818 -41.76 
L 597.272727 -41.76 
L 598.963636 -41.76 
L 600.654545 -41.76 
L 602.345455 -41.76 
L 604.036364 -41.76 
L 605.727273 -41.76 
L 607.418182 -41.76 
L 609.109091 -41.76 
L 610.8 -41.76 
L 612.490909 -41.76 
L 614.181818 -41.76 
L 615.872727 -41.76 
L 617.563636 -41.76 
L 619.254545 -41.76 
L 620.945455 -41.76 
L 622.636364 -41.76 
L 622.636364 -41.76 
L 622.636364 -41.76 
L 620.945455 -56.659928 
L 619.254545 -41.76 
L 617.563636 -41.76 
L 615.872727 -59.942963 
L 614.181818 -41.76 
L 612.490909 -41.76 
L 610.8 -103.199656 
L 609.109091 -41.76 
L 607.418182 -41.76 
L 605.727273 -41.76 
L 604.036364 -108.863794 
L 602.345455 -41.76 
L 600.654545 -41.76 
L 598.963636 -41.76 
L 597.272727 -63.87539 
L 595.581818 -84.403379 
L 593.890909 -41.76 
L 592.2 -87.506027 
L 590.509091 -41.76 
L 588.818182 -55.072527 
L 587.127273 -41.76 
L 585.436364 -99.844467 
L 583.745455 -41.76 
L 582.054545 -41.76 
L 580.363636 -41.76 
L 578.672727 -96.705741 
L 576.981818 -41.76 
L 575.290909 -41.76 
L 573.6 -41.76 
L 571.909091 -62.720916 
L 570.218182 -41.76 
L 568.527273 -68.998368 
L 566.836364 -70.188919 
L 565.145455 -41.76 
L 563.454545 -55.108604 
L 561.763636 -41.76 
L 560.072727 -122.71748 
L 558.381818 -41.76 
L 556.690909 -78.378468 
L 555 -41.76 
L 553.309091 -52.294574 
L 551.618182 -91.294145 
L 549.927273 -41.76 
L 548.236364 -50.887559 
L 546.545455 -52.438883 
L 544.854545 -41.76 
L 543.163636 -41.76 
L 541.472727 -60.736664 
L 539.781818 -41.76 
L 538.090909 -41.76 
L 536.4 -41.76 
L 534.709091 -41.76 
L 533.018182 -97.355132 
L 531.327273 -123.691568 
L 529.636364 -58.103021 
L 527.945455 -41.76 
L 526.254545 -41.76 
L 524.563636 -41.76 
L 522.872727 -58.752412 
L 521.181818 -41.76 
L 519.490909 -41.76 
L 517.8 -41.76 
L 516.109091 -41.76 
L 514.418182 -61.60252 
L 512.727273 -41.76 
L 511.036364 -114.058926 
L 509.345455 -41.76 
L 507.654545 -41.76 
L 505.963636 -41.76 
L 504.272727 -61.097437 
L 502.581818 -41.76 
L 500.890909 -131.808962 
L 499.2 -41.76 
L 497.509091 -41.76 
L 495.818182 -76.358139 
L 494.127273 -49.80524 
L 492.436364 -41.76 
L 490.745455 -59.870809 
L 489.054545 -41.76 
L 487.363636 -41.76 
L 485.672727 -41.76 
L 483.981818 -61.891138 
L 482.290909 -41.76 
L 480.6 -61.45821 
L 478.909091 -41.76 
L 477.218182 -41.76 
L 475.527273 -59.654345 
L 473.836364 -41.76 
L 472.145455 -56.082691 
L 470.454545 -63.189921 
L 468.763636 -41.76 
L 467.072727 -73.219413 
L 465.381818 -41.76 
L 463.690909 -41.76 
L 462 -41.76 
L 460.309091 -62.612684 
L 458.618182 -41.76 
L 456.927273 -41.76 
L 455.236364 -55.108604 
L 453.545455 -54.350981 
L 451.854545 -51.320487 
L 450.163636 -41.76 
L 448.472727 -41.76 
L 446.781818 -51.897724 
L 445.090909 -41.76 
L 443.4 -41.76 
L 441.709091 -76.358139 
L 440.018182 -41.76 
L 438.327273 -41.76 
L 436.636364 -46.305741 
L 434.945455 -65.607101 
L 433.254545 -41.76 
L 431.563636 -41.76 
L 429.872727 -41.76 
L 428.181818 -41.76 
L 426.490909 -74.33781 
L 424.8 -41.76 
L 423.109091 -68.998368 
L 421.418182 -41.76 
L 419.727273 -76.430293 
L 418.036364 -41.76 
L 416.345455 -51.428719 
L 414.654545 -41.76 
L 412.963636 -41.76 
L 411.272727 -41.76 
L 409.581818 -41.76 
L 407.890909 -51.212255 
L 406.2 -78.234159 
L 404.509091 -41.76 
L 402.818182 -55.072527 
L 401.127273 -41.76 
L 399.436364 -41.76 
L 397.745455 -78.198082 
L 396.054545 -52.438883 
L 394.363636 -78.162004 
L 392.672727 -82.815977 
L 390.981818 -41.76 
L 389.290909 -41.76 
L 387.6 -41.76 
L 385.909091 -87.109177 
L 384.218182 -41.76 
L 382.527273 -41.76 
L 380.836364 -72.389635 
L 379.145455 -41.76 
L 377.454545 -41.76 
L 375.763636 -41.76 
L 374.072727 -75.744825 
L 372.381818 -41.76 
L 370.690909 -41.76 
L 369 -162.943679 
L 367.309091 -41.76 
L 365.618182 -41.76 
L 363.927273 -63.550694 
L 362.236364 -41.76 
L 360.545455 -41.76 
L 358.854545 -41.76 
L 357.163636 -72.137094 
L 355.472727 -41.76 
L 353.781818 -41.76 
L 352.090909 -41.76 
L 350.4 -72.064939 
L 348.709091 -41.76 
L 347.018182 -41.76 
L 345.327273 -41.76 
L 343.636364 -69.178754 
L 341.945455 -41.76 
L 340.254545 -41.76 
L 338.563636 -41.76 
L 336.872727 -71.52378 
L 335.181818 -41.76 
L 333.490909 -41.76 
L 331.8 -41.76 
L 330.109091 -70.946543 
L 328.418182 -41.76 
L 326.727273 -63.983622 
L 325.036364 -41.76 
L 323.345455 -41.76 
L 321.654545 -79.641174 
L 319.963636 -87.686414 
L 318.272727 -41.76 
L 316.581818 -41.76 
L 314.890909 -41.76 
L 313.2 -98.798225 
L 311.509091 -48.86723 
L 309.818182 -41.76 
L 308.127273 -41.76 
L 306.436364 -41.76 
L 304.745455 -52.042033 
L 303.054545 -41.76 
L 301.363636 -41.76 
L 299.672727 -41.76 
L 297.981818 -52.150265 
L 296.290909 -41.76 
L 294.6 -41.76 
L 292.909091 -41.76 
L 291.218182 -116.295719 
L 289.527273 -41.76 
L 287.836364 -41.76 
L 286.145455 -41.76 
L 284.454545 -41.76 
L 282.763636 -64.777323 
L 281.072727 -41.76 
L 279.381818 -41.76 
L 277.690909 -41.76 
L 276 -70.98262 
L 274.309091 -81.084266 
L 272.618182 -41.76 
L 270.927273 -67.374889 
L 269.236364 -41.76 
L 267.545455 -41.76 
L 265.854545 -41.76 
L 264.163636 -64.452627 
L 262.472727 -41.76 
L 260.781818 -41.76 
L 259.090909 -41.76 
L 257.4 -77.332226 
L 255.709091 -41.76 
L 254.018182 -41.76 
L 252.327273 -41.76 
L 250.636364 -41.76 
L 248.945455 -81.30073 
L 247.254545 -41.76 
L 245.563636 -54.062362 
L 243.872727 -41.76 
L 242.181818 -107.096006 
L 240.490909 -41.76 
L 238.8 -72.966872 
L 237.109091 -51.248332 
L 235.418182 -41.76 
L 233.727273 -41.76 
L 232.036364 -41.76 
L 230.345455 -89.670666 
L 228.654545 -41.76 
L 226.963636 -41.76 
L 225.272727 -57.670093 
L 223.581818 -57.453629 
L 221.890909 -41.76 
L 220.2 -41.76 
L 218.509091 -41.76 
L 216.818182 -82.094431 
L 215.127273 -41.76 
L 213.436364 -41.76 
L 211.745455 -41.76 
L 210.054545 -91.077681 
L 208.363636 -41.76 
L 206.672727 -41.76 
L 204.981818 -41.76 
L 203.290909 -104.173744 
L 201.6 -41.76 
L 199.909091 -41.76 
L 198.218182 -41.76 
L 196.527273 -73.508031 
L 194.836364 -41.76 
L 193.145455 -41.76 
L 191.454545 -41.76 
L 189.763636 -41.76 
L 188.072727 -76.177752 
L 186.381818 -41.76 
L 184.690909 -41.76 
L 183 -41.76 
L 181.309091 -93.422706 
L 179.618182 -41.76 
L 177.927273 -41.76 
L 176.236364 -41.76 
L 174.545455 -102.009105 
L 172.854545 -41.76 
L 171.163636 -41.76 
L 169.472727 -41.76 
L 167.781818 -97.643751 
L 166.090909 -41.76 
L 164.4 -41.76 
L 162.709091 -41.76 
L 161.018182 -124.882119 
L 159.327273 -41.76 
L 157.636364 -41.76 
L 155.945455 -56.154846 
L 154.254545 -41.76 
L 152.563636 -41.76 
L 150.872727 -41.76 
L 149.181818 -60.411969 
L 147.490909 -41.76 
L 145.8 -41.76 
L 144.109091 -41.76 
L 142.418182 -117.017266 
L 140.727273 -41.76 
L 139.036364 -41.76 
L 137.345455 -41.76 
L 135.654545 -102.297724 
L 133.963636 -41.76 
L 132.272727 -41.76 
L 130.581818 -41.76 
L 128.890909 -67.374889 
L 127.2 -41.76 
L 125.509091 -41.76 
L 123.818182 -41.76 
L 122.127273 -42.950551 
L 120.436364 -41.76 
L 118.745455 -41.76 
L 117.054545 -41.76 
L 115.363636 -42.517623 
z
" style="stroke: #ff0000; stroke-width: 0.5"/>
    </defs>
    <g clip-path="url(#pdde64d8636)">
     <use xlink:href="#m071f1ff7a8" x="0" y="288" style="fill: #ff0000; stroke: #ff0000; stroke-width: 0.5"/>
    </g>
   </g>
   <g id="PolyCollection_2">
    <defs>
     <path id="m1189526a3a" d="M 115.363636 -46.774746 
L 115.363636 -42.517623 
L 117.054545 -41.76 
L 118.745455 -41.76 
L 120.436364 -41.76 
L 122.127273 -42.950551 
L 123.818182 -41.76 
L 125.509091 -41.76 
L 127.2 -41.76 
L 128.890909 -67.374889 
L 130.581818 -41.76 
L 132.272727 -41.76 
L 133.963636 -41.76 
L 135.654545 -102.297724 
L 137.345455 -41.76 
L 139.036364 -41.76 
L 140.727273 -41.76 
L 142.418182 -117.017266 
L 144.109091 -41.76 
L 145.8 -41.76 
L 147.490909 -41.76 
L 149.181818 -60.411969 
L 150.872727 -41.76 
L 152.563636 -41.76 
L 154.254545 -41.76 
L 155.945455 -56.154846 
L 157.636364 -41.76 
L 159.327273 -41.76 
L 161.018182 -124.882119 
L 162.709091 -41.76 
L 164.4 -41.76 
L 166.090909 -41.76 
L 167.781818 -97.643751 
L 169.472727 -41.76 
L 171.163636 -41.76 
L 172.854545 -41.76 
L 174.545455 -102.009105 
L 176.236364 -41.76 
L 177.927273 -41.76 
L 179.618182 -41.76 
L 181.309091 -93.422706 
L 183 -41.76 
L 184.690909 -41.76 
L 186.381818 -41.76 
L 188.072727 -76.177752 
L 189.763636 -41.76 
L 191.454545 -41.76 
L 193.145455 -41.76 
L 194.836364 -41.76 
L 196.527273 -73.508031 
L 198.218182 -41.76 
L 199.909091 -41.76 
L 201.6 -41.76 
L 203.290909 -104.173744 
L 204.981818 -41.76 
L 206.672727 -41.76 
L 208.363636 -41.76 
L 210.054545 -91.077681 
L 211.745455 -41.76 
L 213.436364 -41.76 
L 215.127273 -41.76 
L 216.818182 -82.094431 
L 218.509091 -41.76 
L 220.2 -41.76 
L 221.890909 -41.76 
L 223.581818 -57.453629 
L 225.272727 -57.670093 
L 226.963636 -41.76 
L 228.654545 -41.76 
L 230.345455 -89.670666 
L 232.036364 -41.76 
L 233.727273 -41.76 
L 235.418182 -41.76 
L 237.109091 -51.248332 
L 238.8 -72.966872 
L 240.490909 -41.76 
L 242.181818 -107.096006 
L 243.872727 -41.76 
L 245.563636 -54.062362 
L 247.254545 -41.76 
L 248.945455 -81.30073 
L 250.636364 -41.76 
L 252.327273 -41.76 
L 254.018182 -41.76 
L 255.709091 -41.76 
L 257.4 -77.332226 
L 259.090909 -41.76 
L 260.781818 -41.76 
L 262.472727 -41.76 
L 264.163636 -64.452627 
L 265.854545 -41.76 
L 267.545455 -41.76 
L 269.236364 -41.76 
L 270.927273 -67.374889 
L 272.618182 -41.76 
L 274.309091 -81.084266 
L 276 -70.98262 
L 277.690909 -41.76 
L 279.381818 -41.76 
L 281.072727 -41.76 
L 282.763636 -64.777323 
L 284.454545 -41.76 
L 286.145455 -41.76 
L 287.836364 -41.76 
L 289.527273 -41.76 
L 291.218182 -116.295719 
L 292.909091 -41.76 
L 294.6 -41.76 
L 296.290909 -41.76 
L 297.981818 -52.150265 
L 299.672727 -41.76 
L 301.363636 -41.76 
L 303.054545 -41.76 
L 304.745455 -52.042033 
L 306.436364 -41.76 
L 308.127273 -41.76 
L 309.818182 -41.76 
L 311.509091 -48.86723 
L 313.2 -98.798225 
L 314.890909 -41.76 
L 316.581818 -41.76 
L 318.272727 -41.76 
L 319.963636 -87.686414 
L 321.654545 -79.641174 
L 323.345455 -41.76 
L 325.036364 -41.76 
L 326.727273 -63.983622 
L 328.418182 -41.76 
L 330.109091 -70.946543 
L 331.8 -41.76 
L 333.490909 -41.76 
L 335.181818 -41.76 
L 336.872727 -71.52378 
L 338.563636 -41.76 
L 340.254545 -41.76 
L 341.945455 -41.76 
L 343.636364 -69.178754 
L 345.327273 -41.76 
L 347.018182 -41.76 
L 348.709091 -41.76 
L 350.4 -72.064939 
L 352.090909 -41.76 
L 353.781818 -41.76 
L 355.472727 -41.76 
L 357.163636 -72.137094 
L 358.854545 -41.76 
L 360.545455 -41.76 
L 362.236364 -41.76 
L 363.927273 -63.550694 
L 365.618182 -41.76 
L 367.309091 -41.76 
L 369 -162.943679 
L 370.690909 -41.76 
L 372.381818 -41.76 
L 374.072727 -75.744825 
L 375.763636 -41.76 
L 377.454545 -41.76 
L 379.145455 -41.76 
L 380.836364 -72.389635 
L 382.527273 -41.76 
L 384.218182 -41.76 
L 385.909091 -87.109177 
L 387.6 -41.76 
L 389.290909 -41.76 
L 390.981818 -41.76 
L 392.672727 -82.815977 
L 394.363636 -78.162004 
L 396.054545 -52.438883 
L 397.745455 -78.198082 
L 399.436364 -41.76 
L 401.127273 -41.76 
L 402.818182 -55.072527 
L 404.509091 -41.76 
L 406.2 -78.234159 
L 407.890909 -51.212255 
L 409.581818 -41.76 
L 411.272727 -41.76 
L 412.963636 -41.76 
L 414.654545 -41.76 
L 416.345455 -51.428719 
L 418.036364 -41.76 
L 419.727273 -76.430293 
L 421.418182 -41.76 
L 423.109091 -68.998368 
L 424.8 -41.76 
L 426.490909 -74.33781 
L 428.181818 -41.76 
L 429.872727 -41.76 
L 431.563636 -41.76 
L 433.254545 -41.76 
L 434.945455 -65.607101 
L 436.636364 -46.305741 
L 438.327273 -41.76 
L 440.018182 -41.76 
L 441.709091 -76.358139 
L 443.4 -41.76 
L 445.090909 -41.76 
L 446.781818 -51.897724 
L 448.472727 -41.76 
L 450.163636 -41.76 
L 451.854545 -51.320487 
L 453.545455 -54.350981 
L 455.236364 -55.108604 
L 456.927273 -41.76 
L 458.618182 -41.76 
L 460.309091 -62.612684 
L 462 -41.76 
L 463.690909 -41.76 
L 465.381818 -41.76 
L 467.072727 -73.219413 
L 468.763636 -41.76 
L 470.454545 -63.189921 
L 472.145455 -56.082691 
L 473.836364 -41.76 
L 475.527273 -59.654345 
L 477.218182 -41.76 
L 478.909091 -41.76 
L 480.6 -61.45821 
L 482.290909 -41.76 
L 483.981818 -61.891138 
L 485.672727 -41.76 
L 487.363636 -41.76 
L 489.054545 -41.76 
L 490.745455 -59.870809 
L 492.436364 -41.76 
L 494.127273 -49.80524 
L 495.818182 -76.358139 
L 497.509091 -41.76 
L 499.2 -41.76 
L 500.890909 -131.808962 
L 502.581818 -41.76 
L 504.272727 -61.097437 
L 505.963636 -41.76 
L 507.654545 -41.76 
L 509.345455 -41.76 
L 511.036364 -114.058926 
L 512.727273 -41.76 
L 514.418182 -61.60252 
L 516.109091 -41.76 
L 517.8 -41.76 
L 519.490909 -41.76 
L 521.181818 -41.76 
L 522.872727 -58.752412 
L 524.563636 -41.76 
L 526.254545 -41.76 
L 527.945455 -41.76 
L 529.636364 -58.103021 
L 531.327273 -123.691568 
L 533.018182 -97.355132 
L 534.709091 -41.76 
L 536.4 -41.76 
L 538.090909 -41.76 
L 539.781818 -41.76 
L 541.472727 -60.736664 
L 543.163636 -41.76 
L 544.854545 -41.76 
L 546.545455 -52.438883 
L 548.236364 -50.887559 
L 549.927273 -41.76 
L 551.618182 -91.294145 
L 553.309091 -52.294574 
L 555 -41.76 
L 556.690909 -78.378468 
L 558.381818 -41.76 
L 560.072727 -122.71748 
L 561.763636 -41.76 
L 563.454545 -55.108604 
L 565.145455 -41.76 
L 566.836364 -70.188919 
L 568.527273 -68.998368 
L 570.218182 -41.76 
L 571.909091 -62.720916 
L 573.6 -41.76 
L 575.290909 -41.76 
L 576.981818 -41.76 
L 578.672727 -96.705741 
L 580.363636 -41.76 
L 582.054545 -41.76 
L 583.745455 -41.76 
L 585.436364 -99.844467 
L 587.127273 -41.76 
L 588.818182 -55.072527 
L 590.509091 -41.76 
L 592.2 -87.506027 
L 593.890909 -41.76 
L 595.581818 -84.403379 
L 597.272727 -63.87539 
L 598.963636 -41.76 
L 600.654545 -41.76 
L 602.345455 -41.76 
L 604.036364 -108.863794 
L 605.727273 -41.76 
L 607.418182 -41.76 
L 609.109091 -41.76 
L 610.8 -103.199656 
L 612.490909 -41.76 
L 614.181818 -41.76 
L 615.872727 -59.942963 
L 617.563636 -41.76 
L 619.254545 -41.76 
L 620.945455 -56.659928 
L 622.636364 -41.76 
L 622.636364 -41.76 
L 622.636364 -41.76 
L 620.945455 -75.528361 
L 619.254545 -66.040029 
L 617.563636 -60.051195 
L 615.872727 -65.859642 
L 614.181818 -45.728504 
L 612.490909 -47.496292 
L 610.8 -110.054345 
L 609.109091 -52.366729 
L 607.418182 -45.800659 
L 605.727273 -44.213257 
L 604.036364 -112.363293 
L 602.345455 -55.072527 
L 600.654545 -51.933801 
L 598.963636 -55.000372 
L 597.272727 -88.876965 
L 595.581818 -115.538096 
L 593.890909 -58.860644 
L 592.2 -98.834302 
L 590.509091 -57.092856 
L 588.818182 -66.112183 
L 587.127273 -54.459213 
L 585.436364 -111.569592 
L 583.745455 -89.670666 
L 582.054545 -94.937953 
L 580.363636 -90.247903 
L 578.672727 -111.85821 
L 576.981818 -46.377895 
L 575.290909 -45.331654 
L 573.6 -53.449048 
L 571.909091 -67.447044 
L 570.218182 -50.74325 
L 568.527273 -74.590351 
L 566.836364 -84.475533 
L 565.145455 -51.212255 
L 563.454545 -69.575605 
L 561.763636 -48.578611 
L 560.072727 -132.494431 
L 558.381818 -56.515619 
L 556.690909 -89.418125 
L 555 -47.712756 
L 553.309091 -60.195505 
L 551.618182 -105.797223 
L 549.927273 -69.286986 
L 548.236364 -67.338812 
L 546.545455 -59.798654 
L 544.854545 -47.38806 
L 543.163636 -55.866228 
L 541.472727 -102.117337 
L 539.781818 -58.391639 
L 538.090909 -62.071525 
L 536.4 -63.33423 
L 534.709091 -87.506027 
L 533.018182 -117.053343 
L 531.327273 -133.107745 
L 529.636364 -73.327645 
L 527.945455 -45.584195 
L 526.254545 -45.656349 
L 524.563636 -44.610107 
L 522.872727 -64.236163 
L 521.181818 -45.331654 
L 519.490909 -46.774746 
L 517.8 -52.907888 
L 516.109091 -59.437881 
L 514.418182 -69.539528 
L 512.727273 -44.357566 
L 511.036364 -119.181904 
L 509.345455 -58.535948 
L 507.654545 -53.268661 
L 505.963636 -63.009535 
L 504.272727 -86.748404 
L 502.581818 -50.021704 
L 500.890909 -133.107745 
L 499.2 -43.888561 
L 497.509091 -43.924639 
L 495.818182 -79.82156 
L 494.127273 -56.046614 
L 492.436364 -57.814402 
L 490.745455 -83.104596 
L 489.054545 -54.350981 
L 487.363636 -54.206671 
L 485.672727 -53.232584 
L 483.981818 -73.508031 
L 482.290909 -95.623422 
L 480.6 -104.931367 
L 478.909091 -86.53194 
L 477.218182 -85.161002 
L 475.527273 -95.226571 
L 473.836364 -52.871811 
L 472.145455 -71.343393 
L 470.454545 -81.445039 
L 468.763636 -46.197509 
L 467.072727 -77.801231 
L 465.381818 -50.779327 
L 463.690909 -48.073529 
L 462 -56.407387 
L 460.309091 -72.173171 
L 458.618182 -51.68126 
L 456.927273 -49.047616 
L 455.236364 -62.973457 
L 453.545455 -79.569019 
L 451.854545 -67.879971 
L 450.163636 -53.629435 
L 448.472727 -76.61068 
L 446.781818 -73.508031 
L 445.090909 -44.285412 
L 443.4 -43.63602 
L 441.709091 -82.094431 
L 440.018182 -76.21383 
L 438.327273 -76.21383 
L 436.636364 -61.566442 
L 434.945455 -85.377466 
L 433.254545 -77.187917 
L 431.563636 -76.538525 
L 429.872727 -79.713329 
L 428.181818 -79.605097 
L 426.490909 -89.526356 
L 424.8 -52.511038 
L 423.109091 -80.687416 
L 421.418182 -79.605097 
L 419.727273 -105.797223 
L 418.036364 -52.07811 
L 416.345455 -58.608103 
L 414.654545 -50.74325 
L 412.963636 -45.836736 
L 411.272727 -48.109606 
L 409.581818 -49.011539 
L 407.890909 -71.776321 
L 406.2 -86.53194 
L 404.509091 -47.38806 
L 402.818182 -65.823565 
L 401.127273 -53.449048 
L 399.436364 -58.175175 
L 397.745455 -89.490279 
L 396.054545 -62.684839 
L 394.363636 -89.814975 
L 392.672727 -90.247903 
L 390.981818 -50.382477 
L 389.290909 -46.702591 
L 387.6 -46.558282 
L 385.909091 -89.490279 
L 384.218182 -54.242749 
L 382.527273 -55.469377 
L 380.836364 -96.056349 
L 379.145455 -63.33423 
L 377.454545 -60.159427 
L 375.763636 -52.907888 
L 374.072727 -81.264653 
L 372.381818 -45.51204 
L 370.690909 -46.233586 
L 369 -165.757709 
L 367.309091 -48.32607 
L 365.618182 -50.238168 
L 363.927273 -91.149835 
L 362.236364 -56.154846 
L 360.545455 -48.398225 
L 358.854545 -62.071525 
L 357.163636 -90.716908 
L 355.472727 -62.143679 
L 353.781818 -46.233586 
L 352.090909 -53.088275 
L 350.4 -87.325641 
L 348.709091 -50.562863 
L 347.018182 -48.073529 
L 345.327273 -47.965297 
L 343.636364 -79.02786 
L 341.945455 -47.532369 
L 340.254545 -48.037452 
L 338.563636 -60.556278 
L 336.872727 -85.702162 
L 335.181818 -50.346399 
L 333.490909 -49.697008 
L 331.8 -48.939384 
L 330.109091 -93.170165 
L 328.418182 -63.33423 
L 326.727273 -84.150838 
L 325.036364 -52.042033 
L 323.345455 -70.477538 
L 321.654545 -91.474531 
L 319.963636 -102.622419 
L 318.272727 -64.488704 
L 316.581818 -56.299155 
L 314.890909 -54.062362 
L 313.2 -113.265225 
L 311.509091 -64.091854 
L 309.818182 -60.808819 
L 308.127273 -60.411969 
L 306.436364 -57.489707 
L 304.745455 -73.724495 
L 303.054545 -57.092856 
L 301.363636 -60.375891 
L 299.672727 -53.449048 
L 297.981818 -59.906886 
L 296.290909 -47.135519 
L 294.6 -55.97446 
L 292.909091 -49.119771 
L 291.218182 -121.526929 
L 289.527273 -50.166013 
L 287.836364 -50.093858 
L 286.145455 -48.434302 
L 284.454545 -51.176178 
L 282.763636 -70.297151 
L 281.072727 -45.403808 
L 279.381818 -45.079112 
L 277.690909 -45.223422 
L 276 -73.039026 
L 274.309091 -83.140673 
L 272.618182 -45.656349 
L 270.927273 -71.090852 
L 269.236364 -49.80524 
L 267.545455 -48.578611 
L 265.854545 -43.780329 
L 264.163636 -70.513615 
L 262.472727 -49.769162 
L 260.781818 -56.587774 
L 259.090909 -59.365727 
L 257.4 -107.420702 
L 255.709091 -100.060931 
L 254.018182 -95.010107 
L 252.327273 -90.82514 
L 250.636364 -70.802233 
L 248.945455 -105.725068 
L 247.254545 -57.85048 
L 245.563636 -57.958712 
L 243.872727 -45.187344 
L 242.181818 -109.513185 
L 240.490909 -44.393644 
L 238.8 -91.402377 
L 237.109091 -64.200086 
L 235.418182 -64.236163 
L 233.727273 -63.695004 
L 232.036364 -55.505455 
L 230.345455 -95.226571 
L 228.654545 -50.418554 
L 226.963636 -48.686843 
L 225.272727 -66.761575 
L 223.581818 -60.736664 
L 221.890909 -46.413973 
L 220.2 -49.26408 
L 218.509091 -44.790494 
L 216.818182 -91.366299 
L 215.127273 -60.628432 
L 213.436364 -52.402806 
L 211.745455 -51.753414 
L 210.054545 -98.437452 
L 208.363636 -47.243751 
L 206.672727 -54.423135 
L 204.981818 -63.586772 
L 203.290909 -118.712899 
L 201.6 -49.155848 
L 199.909091 -47.92922 
L 198.218182 -49.444467 
L 196.527273 -81.192498 
L 194.836364 -46.919055 
L 193.145455 -47.424137 
L 191.454545 -47.604524 
L 189.763636 -48.758998 
L 188.072727 -83.826142 
L 186.381818 -49.516621 
L 184.690909 -50.454631 
L 183 -51.067946 
L 181.309091 -107.889707 
L 179.618182 -54.747831 
L 177.927273 -54.819986 
L 176.236364 -53.629435 
L 174.545455 -116.872956 
L 172.854545 -54.531367 
L 171.163636 -53.665512 
L 169.472727 -54.387058 
L 167.781818 -110.631582 
L 166.090909 -55.577609 
L 164.4 -53.990208 
L 162.709091 -52.583193 
L 161.018182 -131.087416 
L 159.327273 -44.682262 
L 157.636364 -50.707173 
L 155.945455 -73.435877 
L 154.254545 -47.279828 
L 152.563636 -55.144681 
L 150.872727 -50.526786 
L 149.181818 -72.606099 
L 147.490909 -70.549692 
L 145.8 -65.679256 
L 144.109091 -64.705168 
L 142.418182 -136.354703 
L 140.727273 -50.382477 
L 139.036364 -51.573028 
L 137.345455 -51.825569 
L 135.654545 -110.559427 
L 133.963636 -50.274245 
L 132.272727 -50.923636 
L 130.581818 -49.624853 
L 128.890909 -75.744825 
L 127.2 -48.253916 
L 125.509091 -46.125354 
L 123.818182 -45.259499 
L 122.127273 -46.630437 
L 120.436364 -44.141102 
L 118.745455 -44.141102 
L 117.054545 -44.97088 
L 115.363636 -46.774746 
z
" style="stroke: #0000ff; stroke-width: 0.5"/>
    </defs>
    <g clip-path="url(#pdde64d8636)">
     <use xlink:href="#m1189526a3a" x="0" y="288" style="fill: #0000ff; stroke: #0000ff; stroke-width: 0.5"/>
    </g>
   </g>
   <g id="PolyCollection_3">
    <defs>
     <path id="m2d110d1107" d="M 115.363636 -58.572026 
L 115.363636 -46.774746 
L 117.054545 -44.97088 
L 118.745455 -44.141102 
L 120.436364 -44.141102 
L 122.127273 -46.630437 
L 123.818182 -45.259499 
L 125.509091 -46.125354 
L 127.2 -48.253916 
L 128.890909 -75.744825 
L 130.581818 -49.624853 
L 132.272727 -50.923636 
L 133.963636 -50.274245 
L 135.654545 -110.559427 
L 137.345455 -51.825569 
L 139.036364 -51.573028 
L 140.727273 -50.382477 
L 142.418182 -136.354703 
L 144.109091 -64.705168 
L 145.8 -65.679256 
L 147.490909 -70.549692 
L 149.181818 -72.606099 
L 150.872727 -50.526786 
L 152.563636 -55.144681 
L 154.254545 -47.279828 
L 155.945455 -73.435877 
L 157.636364 -50.707173 
L 159.327273 -44.682262 
L 161.018182 -131.087416 
L 162.709091 -52.583193 
L 164.4 -53.990208 
L 166.090909 -55.577609 
L 167.781818 -110.631582 
L 169.472727 -54.387058 
L 171.163636 -53.665512 
L 172.854545 -54.531367 
L 174.545455 -116.872956 
L 176.236364 -53.629435 
L 177.927273 -54.819986 
L 179.618182 -54.747831 
L 181.309091 -107.889707 
L 183 -51.067946 
L 184.690909 -50.454631 
L 186.381818 -49.516621 
L 188.072727 -83.826142 
L 189.763636 -48.758998 
L 191.454545 -47.604524 
L 193.145455 -47.424137 
L 194.836364 -46.919055 
L 196.527273 -81.192498 
L 198.218182 -49.444467 
L 199.909091 -47.92922 
L 201.6 -49.155848 
L 203.290909 -118.712899 
L 204.981818 -63.586772 
L 206.672727 -54.423135 
L 208.363636 -47.243751 
L 210.054545 -98.437452 
L 211.745455 -51.753414 
L 213.436364 -52.402806 
L 215.127273 -60.628432 
L 216.818182 -91.366299 
L 218.509091 -44.790494 
L 220.2 -49.26408 
L 221.890909 -46.413973 
L 223.581818 -60.736664 
L 225.272727 -66.761575 
L 226.963636 -48.686843 
L 228.654545 -50.418554 
L 230.345455 -95.226571 
L 232.036364 -55.505455 
L 233.727273 -63.695004 
L 235.418182 -64.236163 
L 237.109091 -64.200086 
L 238.8 -91.402377 
L 240.490909 -44.393644 
L 242.181818 -109.513185 
L 243.872727 -45.187344 
L 245.563636 -57.958712 
L 247.254545 -57.85048 
L 248.945455 -105.725068 
L 250.636364 -70.802233 
L 252.327273 -90.82514 
L 254.018182 -95.010107 
L 255.709091 -100.060931 
L 257.4 -107.420702 
L 259.090909 -59.365727 
L 260.781818 -56.587774 
L 262.472727 -49.769162 
L 264.163636 -70.513615 
L 265.854545 -43.780329 
L 267.545455 -48.578611 
L 269.236364 -49.80524 
L 270.927273 -71.090852 
L 272.618182 -45.656349 
L 274.309091 -83.140673 
L 276 -73.039026 
L 277.690909 -45.223422 
L 279.381818 -45.079112 
L 281.072727 -45.403808 
L 282.763636 -70.297151 
L 284.454545 -51.176178 
L 286.145455 -48.434302 
L 287.836364 -50.093858 
L 289.527273 -50.166013 
L 291.218182 -121.526929 
L 292.909091 -49.119771 
L 294.6 -55.97446 
L 296.290909 -47.135519 
L 297.981818 -59.906886 
L 299.672727 -53.449048 
L 301.363636 -60.375891 
L 303.054545 -57.092856 
L 304.745455 -73.724495 
L 306.436364 -57.489707 
L 308.127273 -60.411969 
L 309.818182 -60.808819 
L 311.509091 -64.091854 
L 313.2 -113.265225 
L 314.890909 -54.062362 
L 316.581818 -56.299155 
L 318.272727 -64.488704 
L 319.963636 -102.622419 
L 321.654545 -91.474531 
L 323.345455 -70.477538 
L 325.036364 -52.042033 
L 326.727273 -84.150838 
L 328.418182 -63.33423 
L 330.109091 -93.170165 
L 331.8 -48.939384 
L 333.490909 -49.697008 
L 335.181818 -50.346399 
L 336.872727 -85.702162 
L 338.563636 -60.556278 
L 340.254545 -48.037452 
L 341.945455 -47.532369 
L 343.636364 -79.02786 
L 345.327273 -47.965297 
L 347.018182 -48.073529 
L 348.709091 -50.562863 
L 350.4 -87.325641 
L 352.090909 -53.088275 
L 353.781818 -46.233586 
L 355.472727 -62.143679 
L 357.163636 -90.716908 
L 358.854545 -62.071525 
L 360.545455 -48.398225 
L 362.236364 -56.154846 
L 363.927273 -91.149835 
L 365.618182 -50.238168 
L 367.309091 -48.32607 
L 369 -165.757709 
L 370.690909 -46.233586 
L 372.381818 -45.51204 
L 374.072727 -81.264653 
L 375.763636 -52.907888 
L 377.454545 -60.159427 
L 379.145455 -63.33423 
L 380.836364 -96.056349 
L 382.527273 -55.469377 
L 384.218182 -54.242749 
L 385.909091 -89.490279 
L 387.6 -46.558282 
L 389.290909 -46.702591 
L 390.981818 -50.382477 
L 392.672727 -90.247903 
L 394.363636 -89.814975 
L 396.054545 -62.684839 
L 397.745455 -89.490279 
L 399.436364 -58.175175 
L 401.127273 -53.449048 
L 402.818182 -65.823565 
L 404.509091 -47.38806 
L 406.2 -86.53194 
L 407.890909 -71.776321 
L 409.581818 -49.011539 
L 411.272727 -48.109606 
L 412.963636 -45.836736 
L 414.654545 -50.74325 
L 416.345455 -58.608103 
L 418.036364 -52.07811 
L 419.727273 -105.797223 
L 421.418182 -79.605097 
L 423.109091 -80.687416 
L 424.8 -52.511038 
L 426.490909 -89.526356 
L 428.181818 -79.605097 
L 429.872727 -79.713329 
L 431.563636 -76.538525 
L 433.254545 -77.187917 
L 434.945455 -85.377466 
L 436.636364 -61.566442 
L 438.327273 -76.21383 
L 440.018182 -76.21383 
L 441.709091 -82.094431 
L 443.4 -43.63602 
L 445.090909 -44.285412 
L 446.781818 -73.508031 
L 448.472727 -76.61068 
L 450.163636 -53.629435 
L 451.854545 -67.879971 
L 453.545455 -79.569019 
L 455.236364 -62.973457 
L 456.927273 -49.047616 
L 458.618182 -51.68126 
L 460.309091 -72.173171 
L 462 -56.407387 
L 463.690909 -48.073529 
L 465.381818 -50.779327 
L 467.072727 -77.801231 
L 468.763636 -46.197509 
L 470.454545 -81.445039 
L 472.145455 -71.343393 
L 473.836364 -52.871811 
L 475.527273 -95.226571 
L 477.218182 -85.161002 
L 478.909091 -86.53194 
L 480.6 -104.931367 
L 482.290909 -95.623422 
L 483.981818 -73.508031 
L 485.672727 -53.232584 
L 487.363636 -54.206671 
L 489.054545 -54.350981 
L 490.745455 -83.104596 
L 492.436364 -57.814402 
L 494.127273 -56.046614 
L 495.818182 -79.82156 
L 497.509091 -43.924639 
L 499.2 -43.888561 
L 500.890909 -133.107745 
L 502.581818 -50.021704 
L 504.272727 -86.748404 
L 505.963636 -63.009535 
L 507.654545 -53.268661 
L 509.345455 -58.535948 
L 511.036364 -119.181904 
L 512.727273 -44.357566 
L 514.418182 -69.539528 
L 516.109091 -59.437881 
L 517.8 -52.907888 
L 519.490909 -46.774746 
L 521.181818 -45.331654 
L 522.872727 -64.236163 
L 524.563636 -44.610107 
L 526.254545 -45.656349 
L 527.945455 -45.584195 
L 529.636364 -73.327645 
L 531.327273 -133.107745 
L 533.018182 -117.053343 
L 534.709091 -87.506027 
L 536.4 -63.33423 
L 538.090909 -62.071525 
L 539.781818 -58.391639 
L 541.472727 -102.117337 
L 543.163636 -55.866228 
L 544.854545 -47.38806 
L 546.545455 -59.798654 
L 548.236364 -67.338812 
L 549.927273 -69.286986 
L 551.618182 -105.797223 
L 553.309091 -60.195505 
L 555 -47.712756 
L 556.690909 -89.418125 
L 558.381818 -56.515619 
L 560.072727 -132.494431 
L 561.763636 -48.578611 
L 563.454545 -69.575605 
L 565.145455 -51.212255 
L 566.836364 -84.475533 
L 568.527273 -74.590351 
L 570.218182 -50.74325 
L 571.909091 -67.447044 
L 573.6 -53.449048 
L 575.290909 -45.331654 
L 576.981818 -46.377895 
L 578.672727 -111.85821 
L 580.363636 -90.247903 
L 582.054545 -94.937953 
L 583.745455 -89.670666 
L 585.436364 -111.569592 
L 587.127273 -54.459213 
L 588.818182 -66.112183 
L 590.509091 -57.092856 
L 592.2 -98.834302 
L 593.890909 -58.860644 
L 595.581818 -115.538096 
L 597.272727 -88.876965 
L 598.963636 -55.000372 
L 600.654545 -51.933801 
L 602.345455 -55.072527 
L 604.036364 -112.363293 
L 605.727273 -44.213257 
L 607.418182 -45.800659 
L 609.109091 -52.366729 
L 610.8 -110.054345 
L 612.490909 -47.496292 
L 614.181818 -45.728504 
L 615.872727 -65.859642 
L 617.563636 -60.051195 
L 619.254545 -66.040029 
L 620.945455 -75.528361 
L 622.636364 -41.76 
L 622.636364 -41.940387 
L 622.636364 -41.940387 
L 620.945455 -121.166156 
L 619.254545 -129.680401 
L 617.563636 -96.994359 
L 615.872727 -86.135089 
L 614.181818 -81.012112 
L 612.490909 -81.084266 
L 610.8 -142.379613 
L 609.109091 -119.578754 
L 607.418182 -65.210251 
L 605.727273 -95.948117 
L 604.036364 -188.017409 
L 602.345455 -90.716908 
L 600.654545 -83.790064 
L 598.963636 -81.84189 
L 597.272727 -130.22156 
L 595.581818 -154.75413 
L 593.890909 -130.870952 
L 592.2 -142.127072 
L 590.509091 -82.419127 
L 588.818182 -97.571596 
L 587.127273 -107.132083 
L 585.436364 -168.752126 
L 583.745455 -180.657638 
L 582.054545 -184.373601 
L 580.363636 -181.812112 
L 578.672727 -143.10116 
L 576.981818 -83.321059 
L 575.290909 -72.31748 
L 573.6 -87.253486 
L 571.909091 -81.372885 
L 570.218182 -69.539528 
L 568.527273 -88.768733 
L 566.836364 -109.621417 
L 565.145455 -72.353558 
L 563.454545 -109.224567 
L 561.763636 -98.509606 
L 560.072727 -154.176893 
L 558.381818 -90.716908 
L 556.690909 -109.765727 
L 555 -59.293572 
L 553.309091 -79.100014 
L 551.618182 -135.05592 
L 549.927273 -111.100587 
L 548.236364 -91.727072 
L 546.545455 -83.465369 
L 544.854545 -76.754989 
L 543.163636 -106.77131 
L 541.472727 -159.768876 
L 539.781818 -100.566013 
L 538.090909 -113.193071 
L 536.4 -125.026428 
L 534.709091 -194.908175 
L 533.018182 -200.103307 
L 531.327273 -173.189635 
L 529.636364 -102.442033 
L 527.945455 -61.025283 
L 526.254545 -57.056779 
L 524.563636 -55.938382 
L 522.872727 -79.785483 
L 521.181818 -61.241747 
L 519.490909 -61.386056 
L 517.8 -74.049191 
L 516.109091 -97.715906 
L 514.418182 -79.42471 
L 512.727273 -67.483121 
L 511.036364 -131.664653 
L 509.345455 -80.36272 
L 507.654545 -80.001947 
L 505.963636 -113.806385 
L 504.272727 -212.369592 
L 502.581818 -149.847616 
L 500.890909 -194.475247 
L 499.2 -46.558282 
L 497.509091 -46.305741 
L 495.818182 -86.604094 
L 494.127273 -75.780902 
L 492.436364 -84.800229 
L 490.745455 -118.243894 
L 489.054545 -86.495863 
L 487.363636 -85.05277 
L 485.672727 -85.197079 
L 483.981818 -119.109749 
L 482.290909 -209.05048 
L 480.6 -190.434588 
L 478.909091 -161.536664 
L 477.218182 -140.539671 
L 475.527273 -137.509177 
L 473.836364 -64.41655 
L 472.145455 -102.766729 
L 470.454545 -107.240315 
L 468.763636 -53.268661 
L 467.072727 -83.429291 
L 465.381818 -73.111181 
L 463.690909 -71.848475 
L 462 -101.792641 
L 460.309091 -95.443035 
L 458.618182 -69.142677 
L 456.927273 -64.596936 
L 455.236364 -93.134087 
L 453.545455 -173.478253 
L 451.854545 -84.619843 
L 450.163636 -95.046185 
L 448.472727 -151.615404 
L 446.781818 -101.467946 
L 445.090909 -49.119771 
L 443.4 -46.125354 
L 441.709091 -102.442033 
L 440.018182 -138.844037 
L 438.327273 -147.719055 
L 436.636364 -122.609248 
L 434.945455 -130.870952 
L 433.254545 -127.515762 
L 431.563636 -121.887702 
L 429.872727 -136.318626 
L 428.181818 -125.026428 
L 426.490909 -115.862792 
L 424.8 -76.033443 
L 423.109091 -99.447616 
L 421.418182 -132.386199 
L 419.727273 -141.441603 
L 418.036364 -76.21383 
L 416.345455 -70.802233 
L 414.654545 -64.380472 
L 412.963636 -54.964295 
L 411.272727 -58.860644 
L 409.581818 -70.874388 
L 407.890909 -112.832298 
L 406.2 -100.962863 
L 404.509091 -58.24733 
L 402.818182 -90.428289 
L 401.127273 -87.037022 
L 399.436364 -105.472527 
L 397.745455 -111.425283 
L 396.054545 -89.959284 
L 394.363636 -118.063508 
L 392.672727 -105.761145 
L 390.981818 -64.127931 
L 389.290909 -54.423135 
L 387.6 -57.020702 
L 385.909091 -98.942534 
L 384.218182 -98.581761 
L 382.527273 -103.704739 
L 380.836364 -143.750551 
L 379.145455 -117.738812 
L 377.454545 -101.576178 
L 375.763636 -78.847473 
L 374.072727 -182.605812 
L 372.381818 -179.178468 
L 370.690909 -170.123064 
L 369 -185.347688 
L 367.309091 -84.11476 
L 365.618182 -93.963865 
L 363.927273 -132.169735 
L 362.236364 -99.231152 
L 360.545455 -93.63917 
L 358.854545 -114.708318 
L 357.163636 -132.133658 
L 355.472727 -112.146829 
L 353.781818 -83.681832 
L 352.090909 -108.25048 
L 350.4 -126.289134 
L 348.709091 -96.344968 
L 347.018182 -88.119341 
L 345.327273 -89.706743 
L 343.636364 -112.327215 
L 341.945455 -80.074102 
L 340.254545 -80.146256 
L 338.563636 -110.9202 
L 336.872727 -117.125497 
L 335.181818 -75.420129 
L 333.490909 -67.591353 
L 331.8 -68.457208 
L 330.109091 -123.042176 
L 328.418182 -100.782477 
L 326.727273 -130.185483 
L 325.036364 -113.914617 
L 323.345455 -138.663651 
L 321.654545 -120.011682 
L 319.963636 -140.14282 
L 318.272727 -105.183908 
L 316.581818 -74.373887 
L 314.890909 -78.198082 
L 313.2 -144.83287 
L 311.509091 -89.237738 
L 309.818182 -84.691997 
L 308.127273 -84.872384 
L 306.436364 -79.785483 
L 304.745455 -96.958282 
L 303.054545 -77.620845 
L 301.363636 -93.458783 
L 299.672727 -75.27582 
L 297.981818 -70.910465 
L 296.290909 -64.596936 
L 294.6 -126.541675 
L 292.909091 -74.482119 
L 291.218182 -134.406528 
L 289.527273 -54.856063 
L 287.836364 -56.696006 
L 286.145455 -68.096435 
L 284.454545 -77.00753 
L 282.763636 -80.939957 
L 281.072727 -51.753414 
L 279.381818 -53.052198 
L 277.690909 -52.330651 
L 276 -124.521346 
L 274.309091 -143.606242 
L 272.618182 -53.665512 
L 270.927273 -79.893715 
L 269.236364 -66.436879 
L 267.545455 -65.643178 
L 265.854545 -46.45005 
L 264.163636 -79.785483 
L 262.472727 -83.501446 
L 260.781818 -90.68083 
L 259.090909 -113.73423 
L 257.4 -149.378611 
L 255.709091 -178.168304 
L 254.018182 -175.101732 
L 252.327273 -174.091568 
L 250.636364 -127.515762 
L 248.945455 -150.388776 
L 247.254545 -83.537523 
L 245.563636 -72.606099 
L 243.872727 -58.103021 
L 242.181818 -113.589921 
L 240.490909 -47.279828 
L 238.8 -130.618411 
L 237.109091 -87.542105 
L 235.418182 -99.303307 
L 233.727273 -114.419699 
L 232.036364 -88.660501 
L 230.345455 -104.931367 
L 228.654545 -72.281403 
L 226.963636 -61.566442 
L 225.272727 -82.23874 
L 223.581818 -65.029864 
L 221.890909 -56.010537 
L 220.2 -59.906886 
L 218.509091 -49.083694 
L 216.818182 -122.464939 
L 215.127273 -134.262219 
L 213.436364 -117.774889 
L 211.745455 -115.790637 
L 210.054545 -151.759714 
L 208.363636 -109.368876 
L 206.672727 -117.883121 
L 204.981818 -144.003092 
L 203.290909 -160.92335 
L 201.6 -85.341389 
L 199.909091 -94.757566 
L 198.218182 -86.171167 
L 196.527273 -110.415118 
L 194.836364 -67.663508 
L 193.145455 -81.950122 
L 191.454545 -85.846471 
L 189.763636 -83.970451 
L 188.072727 -114.239313 
L 186.381818 -94.144252 
L 184.690909 -98.509606 
L 183 -109.296722 
L 181.309091 -171.205383 
L 179.618182 -178.384767 
L 177.927273 -166.118482 
L 176.236364 -184.084982 
L 174.545455 -216.265941 
L 172.854545 -160.201804 
L 171.163636 -169.293286 
L 169.472727 -171.710465 
L 167.781818 -214.425999 
L 166.090909 -173.730795 
L 164.4 -162.79937 
L 162.709091 -167.128647 
L 161.018182 -174.668805 
L 159.327273 -50.995791 
L 157.636364 -77.043608 
L 155.945455 -108.358712 
L 154.254545 -63.009535 
L 152.563636 -86.026858 
L 150.872727 -74.698583 
L 149.181818 -101.720487 
L 147.490909 -146.817122 
L 145.8 -165.396936 
L 144.109091 -168.752126 
L 142.418182 -243.36 
L 140.727273 -161.46451 
L 139.036364 -165.288704 
L 137.345455 -203.458497 
L 135.654545 -226.728361 
L 133.963636 -199.165297 
L 132.272727 -179.358855 
L 130.581818 -188.630723 
L 128.890909 -195.341102 
L 127.2 -142.090995 
L 125.509091 -105.544681 
L 123.818182 -69.900301 
L 122.127273 -71.415548 
L 120.436364 -45.800659 
L 118.745455 -46.161432 
L 117.054545 -47.784911 
L 115.363636 -58.572026 
z
" style="stroke: #008000; stroke-width: 0.5"/>
    </defs>
    <g clip-path="url(#pdde64d8636)">
     <use xlink:href="#m2d110d1107" x="0" y="288" style="fill: #008000; stroke: #008000; stroke-width: 0.5"/>
    </g>
   </g>
   <g id="line2d_24">
    <path d="M 90 44.64 
L 648 44.64 
" clip-path="url(#pdde64d8636)" style="fill: none; stroke: #000000; stroke-width: 1.5; stroke-linecap: square"/>
   </g>
   <g id="line2d_25">
    <path d="M 90 180.002062 
L 648 180.002062 
" clip-path="url(#pdde64d8636)" style="fill: none; stroke: #000000; stroke-width: 1.5; stroke-linecap: square"/>
   </g>
   <g id="patch_3">
    <path d="M 90 256.32 
L 90 34.56 
" style="fill: none; stroke: #000000; stroke-width: 0.8; stroke-linejoin: miter; stroke-linecap: square"/>
   </g>
   <g id="patch_4">
    <path d="M 648 256.32 
L 648 34.56 
" style="fill: none; stroke: #000000; stroke-width: 0.8; stroke-linejoin: miter; stroke-linecap: square"/>
   </g>
   <g id="patch_5">
    <path d="M 90 256.32 
L 648 256.32 
" style="fill: none; stroke: #000000; stroke-width: 0.8; stroke-linejoin: miter; stroke-linecap: square"/>
   </g>
   <g id="patch_6">
    <path d="M 90 34.56 
L 648 34.56 
" style="fill: none; stroke: #000000; stroke-width: 0.8; stroke-linejoin: miter; stroke-linecap: square"/>
   </g>
   <g id="text_20">
    <!-- peak (5,588) -->
    <g transform="translate(122.179233 41.3136) scale(0.1 -0.1)">
     <defs>
      <path id="DejaVuSans-Bold-70" d="M 1656 506 
L 1656 -1331 
L 538 -1331 
L 538 3500 
L 1656 3500 
L 1656 2988 
Q 1888 3294 2169 3439 
Q 2450 3584 2816 3584 
Q 3463 3584 3878 3070 
Q 4294 2556 4294 1747 
Q 4294 938 3878 423 
Q 3463 -91 2816 -91 
Q 2450 -91 2169 54 
Q 1888 200 1656 506 
z
M 2400 2772 
Q 2041 2772 1848 2508 
Q 1656 2244 1656 1747 
Q 1656 1250 1848 986 
Q 2041 722 2400 722 
Q 2759 722 2948 984 
Q 3138 1247 3138 1747 
Q 3138 2247 2948 2509 
Q 2759 2772 2400 2772 
z
" transform="scale(0.015625)"/>
      <path id="DejaVuSans-Bold-65" d="M 4031 1759 
L 4031 1441 
L 1416 1441 
Q 1456 1047 1700 850 
Q 1944 653 2381 653 
Q 2734 653 3104 758 
Q 3475 863 3866 1075 
L 3866 213 
Q 3469 63 3072 -14 
Q 2675 -91 2278 -91 
Q 1328 -91 801 392 
Q 275 875 275 1747 
Q 275 2603 792 3093 
Q 1309 3584 2216 3584 
Q 3041 3584 3536 3087 
Q 4031 2591 4031 1759 
z
M 2881 2131 
Q 2881 2450 2695 2645 
Q 2509 2841 2209 2841 
Q 1884 2841 1681 2658 
Q 1478 2475 1428 2131 
L 2881 2131 
z
" transform="scale(0.015625)"/>
      <path id="DejaVuSans-Bold-61" d="M 2106 1575 
Q 1756 1575 1579 1456 
Q 1403 1338 1403 1106 
Q 1403 894 1545 773 
Q 1688 653 1941 653 
Q 2256 653 2472 879 
Q 2688 1106 2688 1447 
L 2688 1575 
L 2106 1575 
z
M 3816 1997 
L 3816 0 
L 2688 0 
L 2688 519 
Q 2463 200 2181 54 
Q 1900 -91 1497 -91 
Q 953 -91 614 226 
Q 275 544 275 1050 
Q 275 1666 698 1953 
Q 1122 2241 2028 2241 
L 2688 2241 
L 2688 2328 
Q 2688 2594 2478 2717 
Q 2269 2841 1825 2841 
Q 1466 2841 1156 2769 
Q 847 2697 581 2553 
L 581 3406 
Q 941 3494 1303 3539 
Q 1666 3584 2028 3584 
Q 2975 3584 3395 3211 
Q 3816 2838 3816 1997 
z
" transform="scale(0.015625)"/>
      <path id="DejaVuSans-Bold-6b" d="M 538 4863 
L 1656 4863 
L 1656 2216 
L 2944 3500 
L 4244 3500 
L 2534 1894 
L 4378 0 
L 3022 0 
L 1656 1459 
L 1656 0 
L 538 0 
L 538 4863 
z
" transform="scale(0.015625)"/>
      <path id="DejaVuSans-Bold-20" transform="scale(0.015625)"/>
      <path id="DejaVuSans-Bold-28" d="M 2413 -844 
L 1484 -844 
Q 1006 -72 778 623 
Q 550 1319 550 2003 
Q 550 2688 779 3389 
Q 1009 4091 1484 4856 
L 2413 4856 
Q 2013 4116 1813 3408 
Q 1613 2700 1613 2009 
Q 1613 1319 1811 609 
Q 2009 -100 2413 -844 
z
" transform="scale(0.015625)"/>
      <path id="DejaVuSans-Bold-35" d="M 678 4666 
L 3669 4666 
L 3669 3781 
L 1638 3781 
L 1638 3059 
Q 1775 3097 1914 3117 
Q 2053 3138 2203 3138 
Q 3056 3138 3531 2711 
Q 4006 2284 4006 1522 
Q 4006 766 3489 337 
Q 2972 -91 2053 -91 
Q 1656 -91 1267 -14 
Q 878 63 494 219 
L 494 1166 
Q 875 947 1217 837 
Q 1559 728 1863 728 
Q 2300 728 2551 942 
Q 2803 1156 2803 1522 
Q 2803 1891 2551 2103 
Q 2300 2316 1863 2316 
Q 1603 2316 1309 2248 
Q 1016 2181 678 2041 
L 678 4666 
z
" transform="scale(0.015625)"/>
      <path id="DejaVuSans-Bold-2c" d="M 653 1209 
L 1778 1209 
L 1778 256 
L 1006 -909 
L 341 -909 
L 653 256 
L 653 1209 
z
" transform="scale(0.015625)"/>
      <path id="DejaVuSans-Bold-38" d="M 2228 2088 
Q 1891 2088 1709 1903 
Q 1528 1719 1528 1375 
Q 1528 1031 1709 848 
Q 1891 666 2228 666 
Q 2563 666 2741 848 
Q 2919 1031 2919 1375 
Q 2919 1722 2741 1905 
Q 2563 2088 2228 2088 
z
M 1350 2484 
Q 925 2613 709 2878 
Q 494 3144 494 3541 
Q 494 4131 934 4440 
Q 1375 4750 2228 4750 
Q 3075 4750 3515 4442 
Q 3956 4134 3956 3541 
Q 3956 3144 3739 2878 
Q 3522 2613 3097 2484 
Q 3572 2353 3814 2058 
Q 4056 1763 4056 1313 
Q 4056 619 3595 264 
Q 3134 -91 2228 -91 
Q 1319 -91 855 264 
Q 391 619 391 1313 
Q 391 1763 633 2058 
Q 875 2353 1350 2484 
z
M 1631 3419 
Q 1631 3141 1786 2991 
Q 1941 2841 2228 2841 
Q 2509 2841 2662 2991 
Q 2816 3141 2816 3419 
Q 2816 3697 2662 3845 
Q 2509 3994 2228 3994 
Q 1941 3994 1786 3844 
Q 1631 3694 1631 3419 
z
" transform="scale(0.015625)"/>
      <path id="DejaVuSans-Bold-29" d="M 513 -844 
Q 913 -100 1113 609 
Q 1313 1319 1313 2009 
Q 1313 2700 1113 3408 
Q 913 4116 513 4856 
L 1441 4856 
Q 1916 4091 2145 3389 
Q 2375 2688 2375 2003 
Q 2375 1319 2147 623 
Q 1919 -72 1441 -844 
L 513 -844 
z
" transform="scale(0.015625)"/>
     </defs>
     <use xlink:href="#DejaVuSans-Bold-70"/>
     <use xlink:href="#DejaVuSans-Bold-65" x="71.582031"/>
     <use xlink:href="#DejaVuSans-Bold-61" x="139.404297"/>
     <use xlink:href="#DejaVuSans-Bold-6b" x="206.884766"/>
     <use xlink:href="#DejaVuSans-Bold-20" x="273.388672"/>
     <use xlink:href="#DejaVuSans-Bold-28" x="308.203125"/>
     <use xlink:href="#DejaVuSans-Bold-35" x="353.90625"/>
     <use xlink:href="#DejaVuSans-Bold-2c" x="423.486328"/>
     <use xlink:href="#DejaVuSans-Bold-35" x="461.474609"/>
     <use xlink:href="#DejaVuSans-Bold-38" x="531.054688"/>
     <use xlink:href="#DejaVuSans-Bold-38" x="600.634766"/>
     <use xlink:href="#DejaVuSans-Bold-29" x="670.214844"/>
    </g>
   </g>
   <g id="text_21">
    <!-- mean (1,836) -->
    <g transform="translate(567.728153 176.675662) scale(0.1 -0.1)">
     <defs>
      <path id="DejaVuSans-Bold-6d" d="M 3781 2919 
Q 3994 3244 4286 3414 
Q 4578 3584 4928 3584 
Q 5531 3584 5847 3212 
Q 6163 2841 6163 2131 
L 6163 0 
L 5038 0 
L 5038 1825 
Q 5041 1866 5042 1909 
Q 5044 1953 5044 2034 
Q 5044 2406 4934 2573 
Q 4825 2741 4581 2741 
Q 4263 2741 4089 2478 
Q 3916 2216 3909 1719 
L 3909 0 
L 2784 0 
L 2784 1825 
Q 2784 2406 2684 2573 
Q 2584 2741 2328 2741 
Q 2006 2741 1831 2477 
Q 1656 2213 1656 1722 
L 1656 0 
L 531 0 
L 531 3500 
L 1656 3500 
L 1656 2988 
Q 1863 3284 2130 3434 
Q 2397 3584 2719 3584 
Q 3081 3584 3359 3409 
Q 3638 3234 3781 2919 
z
" transform="scale(0.015625)"/>
      <path id="DejaVuSans-Bold-6e" d="M 4056 2131 
L 4056 0 
L 2931 0 
L 2931 347 
L 2931 1631 
Q 2931 2084 2911 2256 
Q 2891 2428 2841 2509 
Q 2775 2619 2662 2680 
Q 2550 2741 2406 2741 
Q 2056 2741 1856 2470 
Q 1656 2200 1656 1722 
L 1656 0 
L 538 0 
L 538 3500 
L 1656 3500 
L 1656 2988 
Q 1909 3294 2193 3439 
Q 2478 3584 2822 3584 
Q 3428 3584 3742 3212 
Q 4056 2841 4056 2131 
z
" transform="scale(0.015625)"/>
      <path id="DejaVuSans-Bold-31" d="M 750 831 
L 1813 831 
L 1813 3847 
L 722 3622 
L 722 4441 
L 1806 4666 
L 2950 4666 
L 2950 831 
L 4013 831 
L 4013 0 
L 750 0 
L 750 831 
z
" transform="scale(0.015625)"/>
      <path id="DejaVuSans-Bold-33" d="M 2981 2516 
Q 3453 2394 3698 2092 
Q 3944 1791 3944 1325 
Q 3944 631 3412 270 
Q 2881 -91 1863 -91 
Q 1503 -91 1142 -33 
Q 781 25 428 141 
L 428 1069 
Q 766 900 1098 814 
Q 1431 728 1753 728 
Q 2231 728 2486 893 
Q 2741 1059 2741 1369 
Q 2741 1688 2480 1852 
Q 2219 2016 1709 2016 
L 1228 2016 
L 1228 2791 
L 1734 2791 
Q 2188 2791 2409 2933 
Q 2631 3075 2631 3366 
Q 2631 3634 2415 3781 
Q 2200 3928 1806 3928 
Q 1516 3928 1219 3862 
Q 922 3797 628 3669 
L 628 4550 
Q 984 4650 1334 4700 
Q 1684 4750 2022 4750 
Q 2931 4750 3382 4451 
Q 3834 4153 3834 3553 
Q 3834 3144 3618 2883 
Q 3403 2622 2981 2516 
z
" transform="scale(0.015625)"/>
      <path id="DejaVuSans-Bold-36" d="M 2316 2303 
Q 2000 2303 1842 2098 
Q 1684 1894 1684 1484 
Q 1684 1075 1842 870 
Q 2000 666 2316 666 
Q 2634 666 2792 870 
Q 2950 1075 2950 1484 
Q 2950 1894 2792 2098 
Q 2634 2303 2316 2303 
z
M 3803 4544 
L 3803 3681 
Q 3506 3822 3243 3889 
Q 2981 3956 2731 3956 
Q 2194 3956 1894 3657 
Q 1594 3359 1544 2772 
Q 1750 2925 1990 3001 
Q 2231 3078 2516 3078 
Q 3231 3078 3670 2659 
Q 4109 2241 4109 1563 
Q 4109 813 3618 361 
Q 3128 -91 2303 -91 
Q 1394 -91 895 523 
Q 397 1138 397 2266 
Q 397 3422 980 4083 
Q 1563 4744 2578 4744 
Q 2900 4744 3203 4694 
Q 3506 4644 3803 4544 
z
" transform="scale(0.015625)"/>
     </defs>
     <use xlink:href="#DejaVuSans-Bold-6d"/>
     <use xlink:href="#DejaVuSans-Bold-65" x="104.199219"/>
     <use xlink:href="#DejaVuSans-Bold-61" x="172.021484"/>
     <use xlink:href="#DejaVuSans-Bold-6e" x="239.501953"/>
     <use xlink:href="#DejaVuSans-Bold-20" x="310.693359"/>
     <use xlink:href="#DejaVuSans-Bold-28" x="345.507812"/>
     <use xlink:href="#DejaVuSans-Bold-31" x="391.210938"/>
     <use xlink:href="#DejaVuSans-Bold-2c" x="460.791016"/>
     <use xlink:href="#DejaVuSans-Bold-38" x="498.779297"/>
     <use xlink:href="#DejaVuSans-Bold-33" x="568.359375"/>
     <use xlink:href="#DejaVuSans-Bold-36" x="637.939453"/>
     <use xlink:href="#DejaVuSans-Bold-29" x="707.519531"/>
    </g>
   </g>
   <g id="text_22">
    <!-- Stream Bitrate over Time -->
    <g transform="translate(293.189062 28.56) scale(0.12 -0.12)">
     <defs>
      <path id="DejaVuSans-53" d="M 3425 4513 
L 3425 3897 
Q 3066 4069 2747 4153 
Q 2428 4238 2131 4238 
Q 1616 4238 1336 4038 
Q 1056 3838 1056 3469 
Q 1056 3159 1242 3001 
Q 1428 2844 1947 2747 
L 2328 2669 
Q 3034 2534 3370 2195 
Q 3706 1856 3706 1288 
Q 3706 609 3251 259 
Q 2797 -91 1919 -91 
Q 1588 -91 1214 -16 
Q 841 59 441 206 
L 441 856 
Q 825 641 1194 531 
Q 1563 422 1919 422 
Q 2459 422 2753 634 
Q 3047 847 3047 1241 
Q 3047 1584 2836 1778 
Q 2625 1972 2144 2069 
L 1759 2144 
Q 1053 2284 737 2584 
Q 422 2884 422 3419 
Q 422 4038 858 4394 
Q 1294 4750 2059 4750 
Q 2388 4750 2728 4690 
Q 3069 4631 3425 4513 
z
" transform="scale(0.015625)"/>
      <path id="DejaVuSans-6f" d="M 1959 3097 
Q 1497 3097 1228 2736 
Q 959 2375 959 1747 
Q 959 1119 1226 758 
Q 1494 397 1959 397 
Q 2419 397 2687 759 
Q 2956 1122 2956 1747 
Q 2956 2369 2687 2733 
Q 2419 3097 1959 3097 
z
M 1959 3584 
Q 2709 3584 3137 3096 
Q 3566 2609 3566 1747 
Q 3566 888 3137 398 
Q 2709 -91 1959 -91 
Q 1206 -91 779 398 
Q 353 888 353 1747 
Q 353 2609 779 3096 
Q 1206 3584 1959 3584 
z
" transform="scale(0.015625)"/>
      <path id="DejaVuSans-76" d="M 191 3500 
L 800 3500 
L 1894 563 
L 2988 3500 
L 3597 3500 
L 2284 0 
L 1503 0 
L 191 3500 
z
" transform="scale(0.015625)"/>
     </defs>
     <use xlink:href="#DejaVuSans-53"/>
     <use xlink:href="#DejaVuSans-74" x="63.476562"/>
     <use xlink:href="#DejaVuSans-72" x="102.685547"/>
     <use xlink:href="#DejaVuSans-65" x="141.548828"/>
     <use xlink:href="#DejaVuSans-61" x="203.072266"/>
     <use xlink:href="#DejaVuSans-6d" x="264.351562"/>
     <use xlink:href="#DejaVuSans-20" x="361.763672"/>
     <use xlink:href="#DejaVuSans-42" x="393.550781"/>
     <use xlink:href="#DejaVuSans-69" x="462.154297"/>
     <use xlink:href="#DejaVuSans-74" x="489.9375"/>
     <use xlink:href="#DejaVuSans-72" x="529.146484"/>
     <use xlink:href="#DejaVuSans-61" x="570.259766"/>
     <use xlink:href="#DejaVuSans-74" x="631.539062"/>
     <use xlink:href="#DejaVuSans-65" x="670.748047"/>
     <use xlink:href="#DejaVuSans-20" x="732.271484"/>
     <use xlink:href="#DejaVuSans-6f" x="764.058594"/>
     <use xlink:href="#DejaVuSans-76" x="825.240234"/>
     <use xlink:href="#DejaVuSans-65" x="884.419922"/>
     <use xlink:href="#DejaVuSans-72" x="945.943359"/>
     <use xlink:href="#DejaVuSans-20" x="987.056641"/>
     <use xlink:href="#DejaVuSans-54" x="1018.84375"/>
     <use xlink:href="#DejaVuSans-69" x="1076.802734"/>
     <use xlink:href="#DejaVuSans-6d" x="1104.585938"/>
     <use xlink:href="#DejaVuSans-65" x="1201.998047"/>
    </g>
   </g>
   <g id="legend_1">
    <g id="patch_7">
     <path d="M 602.139063 86.594375 
L 641 86.594375 
Q 643 86.594375 643 84.594375 
L 643 41.56 
Q 643 39.56 641 39.56 
L 602.139063 39.56 
Q 600.139063 39.56 600.139063 41.56 
L 600.139063 84.594375 
Q 600.139063 86.594375 602.139063 86.594375 
z
" style="fill: #ffffff; opacity: 0.8; stroke: #cccccc; stroke-linejoin: miter"/>
    </g>
    <g id="patch_8">
     <path d="M 604.139063 51.158438 
L 624.139063 51.158438 
L 624.139063 44.158438 
L 604.139063 44.158438 
z
" style="fill: #ff0000; stroke: #ff0000; stroke-width: 0.5; stroke-linejoin: miter"/>
    </g>
    <g id="text_23">
     <!-- I -->
     <g transform="translate(632.139063 51.158438) scale(0.1 -0.1)">
      <defs>
       <path id="DejaVuSans-49" d="M 628 4666 
L 1259 4666 
L 1259 0 
L 628 0 
L 628 4666 
z
" transform="scale(0.015625)"/>
      </defs>
      <use xlink:href="#DejaVuSans-49"/>
     </g>
    </g>
    <g id="patch_9">
     <path d="M 604.139063 65.836563 
L 624.139063 65.836563 
L 624.139063 58.836563 
L 604.139063 58.836563 
z
" style="fill: #0000ff; stroke: #0000ff; stroke-width: 0.5; stroke-linejoin: miter"/>
    </g>
    <g id="text_24">
     <!-- B -->
     <g transform="translate(632.139063 65.836563) scale(0.1 -0.1)">
      <use xlink:href="#DejaVuSans-42"/>
     </g>
    </g>
    <g id="patch_10">
     <path d="M 604.139063 80.514688 
L 624.139063 80.514688 
L 624.139063 73.514688 
L 604.139063 73.514688 
z
" style="fill: #008000; stroke: #008000; stroke-width: 0.5; stroke-linejoin: miter"/>
    </g>
    <g id="text_25">
     <!-- P -->
     <g transform="translate(632.139063 80.514688) scale(0.1 -0.1)">
      <defs>
       <path id="DejaVuSans-50" d="M 1259 4147 
L 1259 2394 
L 2053 2394 
Q 2494 2394 2734 2622 
Q 2975 2850 2975 3272 
Q 2975 3691 2734 3919 
Q 2494 4147 2053 4147 
L 1259 4147 
z
M 628 4666 
L 2053 4666 
Q 2838 4666 3239 4311 
Q 3641 3956 3641 3272 
Q 3641 2581 3239 2228 
Q 2838 1875 2053 1875 
L 1259 1875 
L 1259 0 
L 628 0 
L 628 4666 
z
" transform="scale(0.015625)"/>
      </defs>
      <use xlink:href="#DejaVuSans-50"/>
     </g>
    </g>
   </g>
  </g>
 </g>
 <defs>
  <clipPath id="pdde64d8636">
   <rect x="90" y="34.56" width="558" height="221.76"/>
  </clipPath>
 </defs>
</svg>
