<?xml version="1.0" encoding="utf-8" standalone="no"?>
<!DOCTYPE svg PUBLIC "-//W3C//DTD SVG 1.1//EN"
  "http://www.w3.org/Graphics/SVG/1.1/DTD/svg11.dtd">
<svg xmlns:xlink="http://www.w3.org/1999/xlink" width="720pt" height="288pt" viewBox="0 0 720 288" xmlns="http://www.w3.org/2000/svg" version="1.1">
 <metadata>
  <rdf:RDF xmlns:dc="http://purl.org/dc/elements/1.1/" xmlns:cc="http://creativecommons.org/ns#" xmlns:rdf="http://www.w3.org/1999/02/22-rdf-syntax-ns#">
   <cc:Work>
    <dc:type rdf:resource="http://purl.org/dc/dcmitype/StillImage"/>
    <dc:date>2023-05-07T02:02:16.217693</dc:date>
    <dc:format>image/svg+xml</dc:format>
    <dc:creator>
     <cc:Agent>
      <dc:title>Matplotlib v3.7.1, https://matplotlib.org/</dc:title>
     </cc:Agent>
    </dc:creator>
   </cc:Work>
  </rdf:RDF>
 </metadata>
 <defs>
  <style type="text/css">*{stroke-linejoin: round; stroke-linecap: butt}</style>
 </defs>
 <g id="figure_1">
  <g id="patch_1">
   <path d="M 0 288 
L 720 288 
L 720 0 
L 0 0 
z
" style="fill: #ffffff"/>
  </g>
  <g id="axes_1">
   <g id="patch_2">
    <path d="M 90 256.32 
L 648 256.32 
L 648 34.56 
L 90 34.56 
z
" style="fill: #ffffff"/>
   </g>
   <g id="matplotlib.axis_1">
    <g id="xtick_1">
     <g id="line2d_1">
      <defs>
       <path id="mf8dae62638" d="M 0 0 
L 0 3.5 
" style="stroke: #000000; stroke-width: 0.8"/>
      </defs>
      <g>
       <use xlink:href="#mf8dae62638" x="115.363636" y="256.32" style="stroke: #000000; stroke-width: 0.8"/>
      </g>
     </g>
     <g id="text_1">
      <!-- 0:00:00 -->
      <g transform="translate(96.088636 270.918437) scale(0.1 -0.1)">
       <defs>
        <path id="DejaVuSans-30" d="M 2034 4250 
Q 1547 4250 1301 3770 
Q 1056 3291 1056 2328 
Q 1056 1369 1301 889 
Q 1547 409 2034 409 
Q 2525 409 2770 889 
Q 3016 1369 3016 2328 
Q 3016 3291 2770 3770 
Q 2525 4250 2034 4250 
z
M 2034 4750 
Q 2819 4750 3233 4129 
Q 3647 3509 3647 2328 
Q 3647 1150 3233 529 
Q 2819 -91 2034 -91 
Q 1250 -91 836 529 
Q 422 1150 422 2328 
Q 422 3509 836 4129 
Q 1250 4750 2034 4750 
z
" transform="scale(0.015625)"/>
        <path id="DejaVuSans-3a" d="M 750 794 
L 1409 794 
L 1409 0 
L 750 0 
L 750 794 
z
M 750 3309 
L 1409 3309 
L 1409 2516 
L 750 2516 
L 750 3309 
z
" transform="scale(0.015625)"/>
       </defs>
       <use xlink:href="#DejaVuSans-30"/>
       <use xlink:href="#DejaVuSans-3a" x="63.623047"/>
       <use xlink:href="#DejaVuSans-30" x="97.314453"/>
       <use xlink:href="#DejaVuSans-30" x="160.9375"/>
       <use xlink:href="#DejaVuSans-3a" x="224.560547"/>
       <use xlink:href="#DejaVuSans-30" x="258.251953"/>
       <use xlink:href="#DejaVuSans-30" x="321.875"/>
      </g>
     </g>
    </g>
    <g id="xtick_2">
     <g id="line2d_2">
      <g>
       <use xlink:href="#mf8dae62638" x="166.090909" y="256.32" style="stroke: #000000; stroke-width: 0.8"/>
      </g>
     </g>
     <g id="text_2">
      <!-- 0:00:30 -->
      <g transform="translate(146.815909 270.918437) scale(0.1 -0.1)">
       <defs>
        <path id="DejaVuSans-33" d="M 2597 2516 
Q 3050 2419 3304 2112 
Q 3559 1806 3559 1356 
Q 3559 666 3084 287 
Q 2609 -91 1734 -91 
Q 1441 -91 1130 -33 
Q 819 25 488 141 
L 488 750 
Q 750 597 1062 519 
Q 1375 441 1716 441 
Q 2309 441 2620 675 
Q 2931 909 2931 1356 
Q 2931 1769 2642 2001 
Q 2353 2234 1838 2234 
L 1294 2234 
L 1294 2753 
L 1863 2753 
Q 2328 2753 2575 2939 
Q 2822 3125 2822 3475 
Q 2822 3834 2567 4026 
Q 2313 4219 1838 4219 
Q 1578 4219 1281 4162 
Q 984 4106 628 3988 
L 628 4550 
Q 988 4650 1302 4700 
Q 1616 4750 1894 4750 
Q 2613 4750 3031 4423 
Q 3450 4097 3450 3541 
Q 3450 3153 3228 2886 
Q 3006 2619 2597 2516 
z
" transform="scale(0.015625)"/>
       </defs>
       <use xlink:href="#DejaVuSans-30"/>
       <use xlink:href="#DejaVuSans-3a" x="63.623047"/>
       <use xlink:href="#DejaVuSans-30" x="97.314453"/>
       <use xlink:href="#DejaVuSans-30" x="160.9375"/>
       <use xlink:href="#DejaVuSans-3a" x="224.560547"/>
       <use xlink:href="#DejaVuSans-33" x="258.251953"/>
       <use xlink:href="#DejaVuSans-30" x="321.875"/>
      </g>
     </g>
    </g>
    <g id="xtick_3">
     <g id="line2d_3">
      <g>
       <use xlink:href="#mf8dae62638" x="216.818182" y="256.32" style="stroke: #000000; stroke-width: 0.8"/>
      </g>
     </g>
     <g id="text_3">
      <!-- 0:01:00 -->
      <g transform="translate(197.543182 270.918437) scale(0.1 -0.1)">
       <defs>
        <path id="DejaVuSans-31" d="M 794 531 
L 1825 531 
L 1825 4091 
L 703 3866 
L 703 4441 
L 1819 4666 
L 2450 4666 
L 2450 531 
L 3481 531 
L 3481 0 
L 794 0 
L 794 531 
z
" transform="scale(0.015625)"/>
       </defs>
       <use xlink:href="#DejaVuSans-30"/>
       <use xlink:href="#DejaVuSans-3a" x="63.623047"/>
       <use xlink:href="#DejaVuSans-30" x="97.314453"/>
       <use xlink:href="#DejaVuSans-31" x="160.9375"/>
       <use xlink:href="#DejaVuSans-3a" x="224.560547"/>
       <use xlink:href="#DejaVuSans-30" x="258.251953"/>
       <use xlink:href="#DejaVuSans-30" x="321.875"/>
      </g>
     </g>
    </g>
    <g id="xtick_4">
     <g id="line2d_4">
      <g>
       <use xlink:href="#mf8dae62638" x="267.545455" y="256.32" style="stroke: #000000; stroke-width: 0.8"/>
      </g>
     </g>
     <g id="text_4">
      <!-- 0:01:30 -->
      <g transform="translate(248.270455 270.918437) scale(0.1 -0.1)">
       <use xlink:href="#DejaVuSans-30"/>
       <use xlink:href="#DejaVuSans-3a" x="63.623047"/>
       <use xlink:href="#DejaVuSans-30" x="97.314453"/>
       <use xlink:href="#DejaVuSans-31" x="160.9375"/>
       <use xlink:href="#DejaVuSans-3a" x="224.560547"/>
       <use xlink:href="#DejaVuSans-33" x="258.251953"/>
       <use xlink:href="#DejaVuSans-30" x="321.875"/>
      </g>
     </g>
    </g>
    <g id="xtick_5">
     <g id="line2d_5">
      <g>
       <use xlink:href="#mf8dae62638" x="318.272727" y="256.32" style="stroke: #000000; stroke-width: 0.8"/>
      </g>
     </g>
     <g id="text_5">
      <!-- 0:02:00 -->
      <g transform="translate(298.997727 270.918437) scale(0.1 -0.1)">
       <defs>
        <path id="DejaVuSans-32" d="M 1228 531 
L 3431 531 
L 3431 0 
L 469 0 
L 469 531 
Q 828 903 1448 1529 
Q 2069 2156 2228 2338 
Q 2531 2678 2651 2914 
Q 2772 3150 2772 3378 
Q 2772 3750 2511 3984 
Q 2250 4219 1831 4219 
Q 1534 4219 1204 4116 
Q 875 4013 500 3803 
L 500 4441 
Q 881 4594 1212 4672 
Q 1544 4750 1819 4750 
Q 2544 4750 2975 4387 
Q 3406 4025 3406 3419 
Q 3406 3131 3298 2873 
Q 3191 2616 2906 2266 
Q 2828 2175 2409 1742 
Q 1991 1309 1228 531 
z
" transform="scale(0.015625)"/>
       </defs>
       <use xlink:href="#DejaVuSans-30"/>
       <use xlink:href="#DejaVuSans-3a" x="63.623047"/>
       <use xlink:href="#DejaVuSans-30" x="97.314453"/>
       <use xlink:href="#DejaVuSans-32" x="160.9375"/>
       <use xlink:href="#DejaVuSans-3a" x="224.560547"/>
       <use xlink:href="#DejaVuSans-30" x="258.251953"/>
       <use xlink:href="#DejaVuSans-30" x="321.875"/>
      </g>
     </g>
    </g>
    <g id="xtick_6">
     <g id="line2d_6">
      <g>
       <use xlink:href="#mf8dae62638" x="369" y="256.32" style="stroke: #000000; stroke-width: 0.8"/>
      </g>
     </g>
     <g id="text_6">
      <!-- 0:02:30 -->
      <g transform="translate(349.725 270.918437) scale(0.1 -0.1)">
       <use xlink:href="#DejaVuSans-30"/>
       <use xlink:href="#DejaVuSans-3a" x="63.623047"/>
       <use xlink:href="#DejaVuSans-30" x="97.314453"/>
       <use xlink:href="#DejaVuSans-32" x="160.9375"/>
       <use xlink:href="#DejaVuSans-3a" x="224.560547"/>
       <use xlink:href="#DejaVuSans-33" x="258.251953"/>
       <use xlink:href="#DejaVuSans-30" x="321.875"/>
      </g>
     </g>
    </g>
    <g id="xtick_7">
     <g id="line2d_7">
      <g>
       <use xlink:href="#mf8dae62638" x="419.727273" y="256.32" style="stroke: #000000; stroke-width: 0.8"/>
      </g>
     </g>
     <g id="text_7">
      <!-- 0:03:00 -->
      <g transform="translate(400.452273 270.918437) scale(0.1 -0.1)">
       <use xlink:href="#DejaVuSans-30"/>
       <use xlink:href="#DejaVuSans-3a" x="63.623047"/>
       <use xlink:href="#DejaVuSans-30" x="97.314453"/>
       <use xlink:href="#DejaVuSans-33" x="160.9375"/>
       <use xlink:href="#DejaVuSans-3a" x="224.560547"/>
       <use xlink:href="#DejaVuSans-30" x="258.251953"/>
       <use xlink:href="#DejaVuSans-30" x="321.875"/>
      </g>
     </g>
    </g>
    <g id="xtick_8">
     <g id="line2d_8">
      <g>
       <use xlink:href="#mf8dae62638" x="470.454545" y="256.32" style="stroke: #000000; stroke-width: 0.8"/>
      </g>
     </g>
     <g id="text_8">
      <!-- 0:03:30 -->
      <g transform="translate(451.179545 270.918437) scale(0.1 -0.1)">
       <use xlink:href="#DejaVuSans-30"/>
       <use xlink:href="#DejaVuSans-3a" x="63.623047"/>
       <use xlink:href="#DejaVuSans-30" x="97.314453"/>
       <use xlink:href="#DejaVuSans-33" x="160.9375"/>
       <use xlink:href="#DejaVuSans-3a" x="224.560547"/>
       <use xlink:href="#DejaVuSans-33" x="258.251953"/>
       <use xlink:href="#DejaVuSans-30" x="321.875"/>
      </g>
     </g>
    </g>
    <g id="xtick_9">
     <g id="line2d_9">
      <g>
       <use xlink:href="#mf8dae62638" x="521.181818" y="256.32" style="stroke: #000000; stroke-width: 0.8"/>
      </g>
     </g>
     <g id="text_9">
      <!-- 0:04:00 -->
      <g transform="translate(501.906818 270.918437) scale(0.1 -0.1)">
       <defs>
        <path id="DejaVuSans-34" d="M 2419 4116 
L 825 1625 
L 2419 1625 
L 2419 4116 
z
M 2253 4666 
L 3047 4666 
L 3047 1625 
L 3713 1625 
L 3713 1100 
L 3047 1100 
L 3047 0 
L 2419 0 
L 2419 1100 
L 313 1100 
L 313 1709 
L 2253 4666 
z
" transform="scale(0.015625)"/>
       </defs>
       <use xlink:href="#DejaVuSans-30"/>
       <use xlink:href="#DejaVuSans-3a" x="63.623047"/>
       <use xlink:href="#DejaVuSans-30" x="97.314453"/>
       <use xlink:href="#DejaVuSans-34" x="160.9375"/>
       <use xlink:href="#DejaVuSans-3a" x="224.560547"/>
       <use xlink:href="#DejaVuSans-30" x="258.251953"/>
       <use xlink:href="#DejaVuSans-30" x="321.875"/>
      </g>
     </g>
    </g>
    <g id="xtick_10">
     <g id="line2d_10">
      <g>
       <use xlink:href="#mf8dae62638" x="571.909091" y="256.32" style="stroke: #000000; stroke-width: 0.8"/>
      </g>
     </g>
     <g id="text_10">
      <!-- 0:04:30 -->
      <g transform="translate(552.634091 270.918437) scale(0.1 -0.1)">
       <use xlink:href="#DejaVuSans-30"/>
       <use xlink:href="#DejaVuSans-3a" x="63.623047"/>
       <use xlink:href="#DejaVuSans-30" x="97.314453"/>
       <use xlink:href="#DejaVuSans-34" x="160.9375"/>
       <use xlink:href="#DejaVuSans-3a" x="224.560547"/>
       <use xlink:href="#DejaVuSans-33" x="258.251953"/>
       <use xlink:href="#DejaVuSans-30" x="321.875"/>
      </g>
     </g>
    </g>
    <g id="xtick_11">
     <g id="line2d_11">
      <g>
       <use xlink:href="#mf8dae62638" x="622.636364" y="256.32" style="stroke: #000000; stroke-width: 0.8"/>
      </g>
     </g>
     <g id="text_11">
      <!-- 0:05:00 -->
      <g transform="translate(603.361364 270.918437) scale(0.1 -0.1)">
       <defs>
        <path id="DejaVuSans-35" d="M 691 4666 
L 3169 4666 
L 3169 4134 
L 1269 4134 
L 1269 2991 
Q 1406 3038 1543 3061 
Q 1681 3084 1819 3084 
Q 2600 3084 3056 2656 
Q 3513 2228 3513 1497 
Q 3513 744 3044 326 
Q 2575 -91 1722 -91 
Q 1428 -91 1123 -41 
Q 819 9 494 109 
L 494 744 
Q 775 591 1075 516 
Q 1375 441 1709 441 
Q 2250 441 2565 725 
Q 2881 1009 2881 1497 
Q 2881 1984 2565 2268 
Q 2250 2553 1709 2553 
Q 1456 2553 1204 2497 
Q 953 2441 691 2322 
L 691 4666 
z
" transform="scale(0.015625)"/>
       </defs>
       <use xlink:href="#DejaVuSans-30"/>
       <use xlink:href="#DejaVuSans-3a" x="63.623047"/>
       <use xlink:href="#DejaVuSans-30" x="97.314453"/>
       <use xlink:href="#DejaVuSans-35" x="160.9375"/>
       <use xlink:href="#DejaVuSans-3a" x="224.560547"/>
       <use xlink:href="#DejaVuSans-30" x="258.251953"/>
       <use xlink:href="#DejaVuSans-30" x="321.875"/>
      </g>
     </g>
    </g>
    <g id="text_12">
     <!-- Time -->
     <g transform="translate(356.766406 284.596563) scale(0.1 -0.1)">
      <defs>
       <path id="DejaVuSans-54" d="M -19 4666 
L 3928 4666 
L 3928 4134 
L 2272 4134 
L 2272 0 
L 1638 0 
L 1638 4134 
L -19 4134 
L -19 4666 
z
" transform="scale(0.015625)"/>
       <path id="DejaVuSans-69" d="M 603 3500 
L 1178 3500 
L 1178 0 
L 603 0 
L 603 3500 
z
M 603 4863 
L 1178 4863 
L 1178 4134 
L 603 4134 
L 603 4863 
z
" transform="scale(0.015625)"/>
       <path id="DejaVuSans-6d" d="M 3328 2828 
Q 3544 3216 3844 3400 
Q 4144 3584 4550 3584 
Q 5097 3584 5394 3201 
Q 5691 2819 5691 2113 
L 5691 0 
L 5113 0 
L 5113 2094 
Q 5113 2597 4934 2840 
Q 4756 3084 4391 3084 
Q 3944 3084 3684 2787 
Q 3425 2491 3425 1978 
L 3425 0 
L 2847 0 
L 2847 2094 
Q 2847 2600 2669 2842 
Q 2491 3084 2119 3084 
Q 1678 3084 1418 2786 
Q 1159 2488 1159 1978 
L 1159 0 
L 581 0 
L 581 3500 
L 1159 3500 
L 1159 2956 
Q 1356 3278 1631 3431 
Q 1906 3584 2284 3584 
Q 2666 3584 2933 3390 
Q 3200 3197 3328 2828 
z
" transform="scale(0.015625)"/>
       <path id="DejaVuSans-65" d="M 3597 1894 
L 3597 1613 
L 953 1613 
Q 991 1019 1311 708 
Q 1631 397 2203 397 
Q 2534 397 2845 478 
Q 3156 559 3463 722 
L 3463 178 
Q 3153 47 2828 -22 
Q 2503 -91 2169 -91 
Q 1331 -91 842 396 
Q 353 884 353 1716 
Q 353 2575 817 3079 
Q 1281 3584 2069 3584 
Q 2775 3584 3186 3129 
Q 3597 2675 3597 1894 
z
M 3022 2063 
Q 3016 2534 2758 2815 
Q 2500 3097 2075 3097 
Q 1594 3097 1305 2825 
Q 1016 2553 972 2059 
L 3022 2063 
z
" transform="scale(0.015625)"/>
      </defs>
      <use xlink:href="#DejaVuSans-54"/>
      <use xlink:href="#DejaVuSans-69" x="57.958984"/>
      <use xlink:href="#DejaVuSans-6d" x="85.742188"/>
      <use xlink:href="#DejaVuSans-65" x="183.154297"/>
     </g>
    </g>
   </g>
   <g id="matplotlib.axis_2">
    <g id="ytick_1">
     <g id="line2d_12">
      <path d="M 90 246.24 
L 648 246.24 
" clip-path="url(#pe17f7a722c)" style="fill: none; stroke: #b0b0b0; stroke-width: 0.8; stroke-linecap: square"/>
     </g>
     <g id="line2d_13">
      <defs>
       <path id="m850131b747" d="M 0 0 
L -3.5 0 
" style="stroke: #000000; stroke-width: 0.8"/>
      </defs>
      <g>
       <use xlink:href="#m850131b747" x="90" y="246.24" style="stroke: #000000; stroke-width: 0.8"/>
      </g>
     </g>
     <g id="text_13">
      <!-- 0 -->
      <g transform="translate(76.6375 250.039219) scale(0.1 -0.1)">
       <use xlink:href="#DejaVuSans-30"/>
      </g>
     </g>
    </g>
    <g id="ytick_2">
     <g id="line2d_14">
      <path d="M 90 211.197414 
L 648 211.197414 
" clip-path="url(#pe17f7a722c)" style="fill: none; stroke: #b0b0b0; stroke-width: 0.8; stroke-linecap: square"/>
     </g>
     <g id="line2d_15">
      <g>
       <use xlink:href="#m850131b747" x="90" y="211.197414" style="stroke: #000000; stroke-width: 0.8"/>
      </g>
     </g>
     <g id="text_14">
      <!-- 1,000 -->
      <g transform="translate(54.371875 214.996632) scale(0.1 -0.1)">
       <defs>
        <path id="DejaVuSans-2c" d="M 750 794 
L 1409 794 
L 1409 256 
L 897 -744 
L 494 -744 
L 750 256 
L 750 794 
z
" transform="scale(0.015625)"/>
       </defs>
       <use xlink:href="#DejaVuSans-31"/>
       <use xlink:href="#DejaVuSans-2c" x="63.623047"/>
       <use xlink:href="#DejaVuSans-30" x="95.410156"/>
       <use xlink:href="#DejaVuSans-30" x="159.033203"/>
       <use xlink:href="#DejaVuSans-30" x="222.65625"/>
      </g>
     </g>
    </g>
    <g id="ytick_3">
     <g id="line2d_16">
      <path d="M 90 176.154827 
L 648 176.154827 
" clip-path="url(#pe17f7a722c)" style="fill: none; stroke: #b0b0b0; stroke-width: 0.8; stroke-linecap: square"/>
     </g>
     <g id="line2d_17">
      <g>
       <use xlink:href="#m850131b747" x="90" y="176.154827" style="stroke: #000000; stroke-width: 0.8"/>
      </g>
     </g>
     <g id="text_15">
      <!-- 2,000 -->
      <g transform="translate(54.371875 179.954046) scale(0.1 -0.1)">
       <use xlink:href="#DejaVuSans-32"/>
       <use xlink:href="#DejaVuSans-2c" x="63.623047"/>
       <use xlink:href="#DejaVuSans-30" x="95.410156"/>
       <use xlink:href="#DejaVuSans-30" x="159.033203"/>
       <use xlink:href="#DejaVuSans-30" x="222.65625"/>
      </g>
     </g>
    </g>
    <g id="ytick_4">
     <g id="line2d_18">
      <path d="M 90 141.112241 
L 648 141.112241 
" clip-path="url(#pe17f7a722c)" style="fill: none; stroke: #b0b0b0; stroke-width: 0.8; stroke-linecap: square"/>
     </g>
     <g id="line2d_19">
      <g>
       <use xlink:href="#m850131b747" x="90" y="141.112241" style="stroke: #000000; stroke-width: 0.8"/>
      </g>
     </g>
     <g id="text_16">
      <!-- 3,000 -->
      <g transform="translate(54.371875 144.911459) scale(0.1 -0.1)">
       <use xlink:href="#DejaVuSans-33"/>
       <use xlink:href="#DejaVuSans-2c" x="63.623047"/>
       <use xlink:href="#DejaVuSans-30" x="95.410156"/>
       <use xlink:href="#DejaVuSans-30" x="159.033203"/>
       <use xlink:href="#DejaVuSans-30" x="222.65625"/>
      </g>
     </g>
    </g>
    <g id="ytick_5">
     <g id="line2d_20">
      <path d="M 90 106.069654 
L 648 106.069654 
" clip-path="url(#pe17f7a722c)" style="fill: none; stroke: #b0b0b0; stroke-width: 0.8; stroke-linecap: square"/>
     </g>
     <g id="line2d_21">
      <g>
       <use xlink:href="#m850131b747" x="90" y="106.069654" style="stroke: #000000; stroke-width: 0.8"/>
      </g>
     </g>
     <g id="text_17">
      <!-- 4,000 -->
      <g transform="translate(54.371875 109.868873) scale(0.1 -0.1)">
       <use xlink:href="#DejaVuSans-34"/>
       <use xlink:href="#DejaVuSans-2c" x="63.623047"/>
       <use xlink:href="#DejaVuSans-30" x="95.410156"/>
       <use xlink:href="#DejaVuSans-30" x="159.033203"/>
       <use xlink:href="#DejaVuSans-30" x="222.65625"/>
      </g>
     </g>
    </g>
    <g id="ytick_6">
     <g id="line2d_22">
      <path d="M 90 71.027068 
L 648 71.027068 
" clip-path="url(#pe17f7a722c)" style="fill: none; stroke: #b0b0b0; stroke-width: 0.8; stroke-linecap: square"/>
     </g>
     <g id="line2d_23">
      <g>
       <use xlink:href="#m850131b747" x="90" y="71.027068" style="stroke: #000000; stroke-width: 0.8"/>
      </g>
     </g>
     <g id="text_18">
      <!-- 5,000 -->
      <g transform="translate(54.371875 74.826286) scale(0.1 -0.1)">
       <use xlink:href="#DejaVuSans-35"/>
       <use xlink:href="#DejaVuSans-2c" x="63.623047"/>
       <use xlink:href="#DejaVuSans-30" x="95.410156"/>
       <use xlink:href="#DejaVuSans-30" x="159.033203"/>
       <use xlink:href="#DejaVuSans-30" x="222.65625"/>
      </g>
     </g>
    </g>
    <g id="ytick_7">
     <g id="line2d_24">
      <path d="M 90 35.984481 
L 648 35.984481 
" clip-path="url(#pe17f7a722c)" style="fill: none; stroke: #b0b0b0; stroke-width: 0.8; stroke-linecap: square"/>
     </g>
     <g id="line2d_25">
      <g>
       <use xlink:href="#m850131b747" x="90" y="35.984481" style="stroke: #000000; stroke-width: 0.8"/>
      </g>
     </g>
     <g id="text_19">
      <!-- 6,000 -->
      <g transform="translate(54.371875 39.7837) scale(0.1 -0.1)">
       <defs>
        <path id="DejaVuSans-36" d="M 2113 2584 
Q 1688 2584 1439 2293 
Q 1191 2003 1191 1497 
Q 1191 994 1439 701 
Q 1688 409 2113 409 
Q 2538 409 2786 701 
Q 3034 994 3034 1497 
Q 3034 2003 2786 2293 
Q 2538 2584 2113 2584 
z
M 3366 4563 
L 3366 3988 
Q 3128 4100 2886 4159 
Q 2644 4219 2406 4219 
Q 1781 4219 1451 3797 
Q 1122 3375 1075 2522 
Q 1259 2794 1537 2939 
Q 1816 3084 2150 3084 
Q 2853 3084 3261 2657 
Q 3669 2231 3669 1497 
Q 3669 778 3244 343 
Q 2819 -91 2113 -91 
Q 1303 -91 875 529 
Q 447 1150 447 2328 
Q 447 3434 972 4092 
Q 1497 4750 2381 4750 
Q 2619 4750 2861 4703 
Q 3103 4656 3366 4563 
z
" transform="scale(0.015625)"/>
       </defs>
       <use xlink:href="#DejaVuSans-36"/>
       <use xlink:href="#DejaVuSans-2c" x="63.623047"/>
       <use xlink:href="#DejaVuSans-30" x="95.410156"/>
       <use xlink:href="#DejaVuSans-30" x="159.033203"/>
       <use xlink:href="#DejaVuSans-30" x="222.65625"/>
      </g>
     </g>
    </g>
    <g id="text_20">
     <!-- Bitrate (kbit/s) -->
     <g transform="translate(48.292187 181.574375) rotate(-90) scale(0.1 -0.1)">
      <defs>
       <path id="DejaVuSans-42" d="M 1259 2228 
L 1259 519 
L 2272 519 
Q 2781 519 3026 730 
Q 3272 941 3272 1375 
Q 3272 1813 3026 2020 
Q 2781 2228 2272 2228 
L 1259 2228 
z
M 1259 4147 
L 1259 2741 
L 2194 2741 
Q 2656 2741 2882 2914 
Q 3109 3088 3109 3444 
Q 3109 3797 2882 3972 
Q 2656 4147 2194 4147 
L 1259 4147 
z
M 628 4666 
L 2241 4666 
Q 2963 4666 3353 4366 
Q 3744 4066 3744 3513 
Q 3744 3084 3544 2831 
Q 3344 2578 2956 2516 
Q 3422 2416 3680 2098 
Q 3938 1781 3938 1306 
Q 3938 681 3513 340 
Q 3088 0 2303 0 
L 628 0 
L 628 4666 
z
" transform="scale(0.015625)"/>
       <path id="DejaVuSans-74" d="M 1172 4494 
L 1172 3500 
L 2356 3500 
L 2356 3053 
L 1172 3053 
L 1172 1153 
Q 1172 725 1289 603 
Q 1406 481 1766 481 
L 2356 481 
L 2356 0 
L 1766 0 
Q 1100 0 847 248 
Q 594 497 594 1153 
L 594 3053 
L 172 3053 
L 172 3500 
L 594 3500 
L 594 4494 
L 1172 4494 
z
" transform="scale(0.015625)"/>
       <path id="DejaVuSans-72" d="M 2631 2963 
Q 2534 3019 2420 3045 
Q 2306 3072 2169 3072 
Q 1681 3072 1420 2755 
Q 1159 2438 1159 1844 
L 1159 0 
L 581 0 
L 581 3500 
L 1159 3500 
L 1159 2956 
Q 1341 3275 1631 3429 
Q 1922 3584 2338 3584 
Q 2397 3584 2469 3576 
Q 2541 3569 2628 3553 
L 2631 2963 
z
" transform="scale(0.015625)"/>
       <path id="DejaVuSans-61" d="M 2194 1759 
Q 1497 1759 1228 1600 
Q 959 1441 959 1056 
Q 959 750 1161 570 
Q 1363 391 1709 391 
Q 2188 391 2477 730 
Q 2766 1069 2766 1631 
L 2766 1759 
L 2194 1759 
z
M 3341 1997 
L 3341 0 
L 2766 0 
L 2766 531 
Q 2569 213 2275 61 
Q 1981 -91 1556 -91 
Q 1019 -91 701 211 
Q 384 513 384 1019 
Q 384 1609 779 1909 
Q 1175 2209 1959 2209 
L 2766 2209 
L 2766 2266 
Q 2766 2663 2505 2880 
Q 2244 3097 1772 3097 
Q 1472 3097 1187 3025 
Q 903 2953 641 2809 
L 641 3341 
Q 956 3463 1253 3523 
Q 1550 3584 1831 3584 
Q 2591 3584 2966 3190 
Q 3341 2797 3341 1997 
z
" transform="scale(0.015625)"/>
       <path id="DejaVuSans-20" transform="scale(0.015625)"/>
       <path id="DejaVuSans-28" d="M 1984 4856 
Q 1566 4138 1362 3434 
Q 1159 2731 1159 2009 
Q 1159 1288 1364 580 
Q 1569 -128 1984 -844 
L 1484 -844 
Q 1016 -109 783 600 
Q 550 1309 550 2009 
Q 550 2706 781 3412 
Q 1013 4119 1484 4856 
L 1984 4856 
z
" transform="scale(0.015625)"/>
       <path id="DejaVuSans-6b" d="M 581 4863 
L 1159 4863 
L 1159 1991 
L 2875 3500 
L 3609 3500 
L 1753 1863 
L 3688 0 
L 2938 0 
L 1159 1709 
L 1159 0 
L 581 0 
L 581 4863 
z
" transform="scale(0.015625)"/>
       <path id="DejaVuSans-62" d="M 3116 1747 
Q 3116 2381 2855 2742 
Q 2594 3103 2138 3103 
Q 1681 3103 1420 2742 
Q 1159 2381 1159 1747 
Q 1159 1113 1420 752 
Q 1681 391 2138 391 
Q 2594 391 2855 752 
Q 3116 1113 3116 1747 
z
M 1159 2969 
Q 1341 3281 1617 3432 
Q 1894 3584 2278 3584 
Q 2916 3584 3314 3078 
Q 3713 2572 3713 1747 
Q 3713 922 3314 415 
Q 2916 -91 2278 -91 
Q 1894 -91 1617 61 
Q 1341 213 1159 525 
L 1159 0 
L 581 0 
L 581 4863 
L 1159 4863 
L 1159 2969 
z
" transform="scale(0.015625)"/>
       <path id="DejaVuSans-2f" d="M 1625 4666 
L 2156 4666 
L 531 -594 
L 0 -594 
L 1625 4666 
z
" transform="scale(0.015625)"/>
       <path id="DejaVuSans-73" d="M 2834 3397 
L 2834 2853 
Q 2591 2978 2328 3040 
Q 2066 3103 1784 3103 
Q 1356 3103 1142 2972 
Q 928 2841 928 2578 
Q 928 2378 1081 2264 
Q 1234 2150 1697 2047 
L 1894 2003 
Q 2506 1872 2764 1633 
Q 3022 1394 3022 966 
Q 3022 478 2636 193 
Q 2250 -91 1575 -91 
Q 1294 -91 989 -36 
Q 684 19 347 128 
L 347 722 
Q 666 556 975 473 
Q 1284 391 1588 391 
Q 1994 391 2212 530 
Q 2431 669 2431 922 
Q 2431 1156 2273 1281 
Q 2116 1406 1581 1522 
L 1381 1569 
Q 847 1681 609 1914 
Q 372 2147 372 2553 
Q 372 3047 722 3315 
Q 1072 3584 1716 3584 
Q 2034 3584 2315 3537 
Q 2597 3491 2834 3397 
z
" transform="scale(0.015625)"/>
       <path id="DejaVuSans-29" d="M 513 4856 
L 1013 4856 
Q 1481 4119 1714 3412 
Q 1947 2706 1947 2009 
Q 1947 1309 1714 600 
Q 1481 -109 1013 -844 
L 513 -844 
Q 928 -128 1133 580 
Q 1338 1288 1338 2009 
Q 1338 2731 1133 3434 
Q 928 4138 513 4856 
z
" transform="scale(0.015625)"/>
      </defs>
      <use xlink:href="#DejaVuSans-42"/>
      <use xlink:href="#DejaVuSans-69" x="68.603516"/>
      <use xlink:href="#DejaVuSans-74" x="96.386719"/>
      <use xlink:href="#DejaVuSans-72" x="135.595703"/>
      <use xlink:href="#DejaVuSans-61" x="176.708984"/>
      <use xlink:href="#DejaVuSans-74" x="237.988281"/>
      <use xlink:href="#DejaVuSans-65" x="277.197266"/>
      <use xlink:href="#DejaVuSans-20" x="338.720703"/>
      <use xlink:href="#DejaVuSans-28" x="370.507812"/>
      <use xlink:href="#DejaVuSans-6b" x="409.521484"/>
      <use xlink:href="#DejaVuSans-62" x="467.431641"/>
      <use xlink:href="#DejaVuSans-69" x="530.908203"/>
      <use xlink:href="#DejaVuSans-74" x="558.691406"/>
      <use xlink:href="#DejaVuSans-2f" x="597.900391"/>
      <use xlink:href="#DejaVuSans-73" x="631.591797"/>
      <use xlink:href="#DejaVuSans-29" x="683.691406"/>
     </g>
    </g>
   </g>
   <g id="PolyCollection_1">
    <defs>
     <path id="mbd18ce91f3" d="M 115.363636 -41.90017 
L 115.363636 -41.76 
L 117.054545 -41.76 
L 118.745455 -41.76 
L 120.436364 -41.76 
L 122.127273 -41.76 
L 123.818182 -41.76 
L 125.509091 -41.76 
L 127.2 -41.76 
L 128.890909 -41.76 
L 130.581818 -41.76 
L 132.272727 -41.76 
L 133.963636 -41.76 
L 135.654545 -41.76 
L 137.345455 -41.76 
L 139.036364 -41.76 
L 140.727273 -41.76 
L 142.418182 -41.76 
L 144.109091 -41.76 
L 145.8 -41.76 
L 147.490909 -41.76 
L 149.181818 -41.76 
L 150.872727 -41.76 
L 152.563636 -41.76 
L 154.254545 -41.76 
L 155.945455 -41.76 
L 157.636364 -41.76 
L 159.327273 -41.76 
L 161.018182 -41.76 
L 162.709091 -41.76 
L 164.4 -41.76 
L 166.090909 -41.76 
L 167.781818 -41.76 
L 169.472727 -41.76 
L 171.163636 -41.76 
L 172.854545 -41.76 
L 174.545455 -41.76 
L 176.236364 -41.76 
L 177.927273 -41.76 
L 179.618182 -41.76 
L 181.309091 -41.76 
L 183 -41.76 
L 184.690909 -41.76 
L 186.381818 -41.76 
L 188.072727 -41.76 
L 189.763636 -41.76 
L 191.454545 -41.76 
L 193.145455 -41.76 
L 194.836364 -41.76 
L 196.527273 -41.76 
L 198.218182 -41.76 
L 199.909091 -41.76 
L 201.6 -41.76 
L 203.290909 -41.76 
L 204.981818 -41.76 
L 206.672727 -41.76 
L 208.363636 -41.76 
L 210.054545 -41.76 
L 211.745455 -41.76 
L 213.436364 -41.76 
L 215.127273 -41.76 
L 216.818182 -41.76 
L 218.509091 -41.76 
L 220.2 -41.76 
L 221.890909 -41.76 
L 223.581818 -41.76 
L 225.272727 -41.76 
L 226.963636 -41.76 
L 228.654545 -41.76 
L 230.345455 -41.76 
L 232.036364 -41.76 
L 233.727273 -41.76 
L 235.418182 -41.76 
L 237.109091 -41.76 
L 238.8 -41.76 
L 240.490909 -41.76 
L 242.181818 -41.76 
L 243.872727 -41.76 
L 245.563636 -41.76 
L 247.254545 -41.76 
L 248.945455 -41.76 
L 250.636364 -41.76 
L 252.327273 -41.76 
L 254.018182 -41.76 
L 255.709091 -41.76 
L 257.4 -41.76 
L 259.090909 -41.76 
L 260.781818 -41.76 
L 262.472727 -41.76 
L 264.163636 -41.76 
L 265.854545 -41.76 
L 267.545455 -41.76 
L 269.236364 -41.76 
L 270.927273 -41.76 
L 272.618182 -41.76 
L 274.309091 -41.76 
L 276 -41.76 
L 277.690909 -41.76 
L 279.381818 -41.76 
L 281.072727 -41.76 
L 282.763636 -41.76 
L 284.454545 -41.76 
L 286.145455 -41.76 
L 287.836364 -41.76 
L 289.527273 -41.76 
L 291.218182 -41.76 
L 292.909091 -41.76 
L 294.6 -41.76 
L 296.290909 -41.76 
L 297.981818 -41.76 
L 299.672727 -41.76 
L 301.363636 -41.76 
L 303.054545 -41.76 
L 304.745455 -41.76 
L 306.436364 -41.76 
L 308.127273 -41.76 
L 309.818182 -41.76 
L 311.509091 -41.76 
L 313.2 -41.76 
L 314.890909 -41.76 
L 316.581818 -41.76 
L 318.272727 -41.76 
L 319.963636 -41.76 
L 321.654545 -41.76 
L 323.345455 -41.76 
L 325.036364 -41.76 
L 326.727273 -41.76 
L 328.418182 -41.76 
L 330.109091 -41.76 
L 331.8 -41.76 
L 333.490909 -41.76 
L 335.181818 -41.76 
L 336.872727 -41.76 
L 338.563636 -41.76 
L 340.254545 -41.76 
L 341.945455 -41.76 
L 343.636364 -41.76 
L 345.327273 -41.76 
L 347.018182 -41.76 
L 348.709091 -41.76 
L 350.4 -41.76 
L 352.090909 -41.76 
L 353.781818 -41.76 
L 355.472727 -41.76 
L 357.163636 -41.76 
L 358.854545 -41.76 
L 360.545455 -41.76 
L 362.236364 -41.76 
L 363.927273 -41.76 
L 365.618182 -41.76 
L 367.309091 -41.76 
L 369 -41.76 
L 370.690909 -41.76 
L 372.381818 -41.76 
L 374.072727 -41.76 
L 375.763636 -41.76 
L 377.454545 -41.76 
L 379.145455 -41.76 
L 380.836364 -41.76 
L 382.527273 -41.76 
L 384.218182 -41.76 
L 385.909091 -41.76 
L 387.6 -41.76 
L 389.290909 -41.76 
L 390.981818 -41.76 
L 392.672727 -41.76 
L 394.363636 -41.76 
L 396.054545 -41.76 
L 397.745455 -41.76 
L 399.436364 -41.76 
L 401.127273 -41.76 
L 402.818182 -41.76 
L 404.509091 -41.76 
L 406.2 -41.76 
L 407.890909 -41.76 
L 409.581818 -41.76 
L 411.272727 -41.76 
L 412.963636 -41.76 
L 414.654545 -41.76 
L 416.345455 -41.76 
L 418.036364 -41.76 
L 419.727273 -41.76 
L 421.418182 -41.76 
L 423.109091 -41.76 
L 424.8 -41.76 
L 426.490909 -41.76 
L 428.181818 -41.76 
L 429.872727 -41.76 
L 431.563636 -41.76 
L 433.254545 -41.76 
L 434.945455 -41.76 
L 436.636364 -41.76 
L 438.327273 -41.76 
L 440.018182 -41.76 
L 441.709091 -41.76 
L 443.4 -41.76 
L 445.090909 -41.76 
L 446.781818 -41.76 
L 448.472727 -41.76 
L 450.163636 -41.76 
L 451.854545 -41.76 
L 453.545455 -41.76 
L 455.236364 -41.76 
L 456.927273 -41.76 
L 458.618182 -41.76 
L 460.309091 -41.76 
L 462 -41.76 
L 463.690909 -41.76 
L 465.381818 -41.76 
L 467.072727 -41.76 
L 468.763636 -41.76 
L 470.454545 -41.76 
L 472.145455 -41.76 
L 473.836364 -41.76 
L 475.527273 -41.76 
L 477.218182 -41.76 
L 478.909091 -41.76 
L 480.6 -41.76 
L 482.290909 -41.76 
L 483.981818 -41.76 
L 485.672727 -41.76 
L 487.363636 -41.76 
L 489.054545 -41.76 
L 490.745455 -41.76 
L 492.436364 -41.76 
L 494.127273 -41.76 
L 495.818182 -41.76 
L 497.509091 -41.76 
L 499.2 -41.76 
L 500.890909 -41.76 
L 502.581818 -41.76 
L 504.272727 -41.76 
L 505.963636 -41.76 
L 507.654545 -41.76 
L 509.345455 -41.76 
L 511.036364 -41.76 
L 512.727273 -41.76 
L 514.418182 -41.76 
L 516.109091 -41.76 
L 517.8 -41.76 
L 519.490909 -41.76 
L 521.181818 -41.76 
L 522.872727 -41.76 
L 524.563636 -41.76 
L 526.254545 -41.76 
L 527.945455 -41.76 
L 529.636364 -41.76 
L 531.327273 -41.76 
L 533.018182 -41.76 
L 534.709091 -41.76 
L 536.4 -41.76 
L 538.090909 -41.76 
L 539.781818 -41.76 
L 541.472727 -41.76 
L 543.163636 -41.76 
L 544.854545 -41.76 
L 546.545455 -41.76 
L 548.236364 -41.76 
L 549.927273 -41.76 
L 551.618182 -41.76 
L 553.309091 -41.76 
L 555 -41.76 
L 556.690909 -41.76 
L 558.381818 -41.76 
L 560.072727 -41.76 
L 561.763636 -41.76 
L 563.454545 -41.76 
L 565.145455 -41.76 
L 566.836364 -41.76 
L 568.527273 -41.76 
L 570.218182 -41.76 
L 571.909091 -41.76 
L 573.6 -41.76 
L 575.290909 -41.76 
L 576.981818 -41.76 
L 578.672727 -41.76 
L 580.363636 -41.76 
L 582.054545 -41.76 
L 583.745455 -41.76 
L 585.436364 -41.76 
L 587.127273 -41.76 
L 588.818182 -41.76 
L 590.509091 -41.76 
L 592.2 -41.76 
L 593.890909 -41.76 
L 595.581818 -41.76 
L 597.272727 -41.76 
L 598.963636 -41.76 
L 600.654545 -41.76 
L 602.345455 -41.76 
L 604.036364 -41.76 
L 605.727273 -41.76 
L 607.418182 -41.76 
L 609.109091 -41.76 
L 610.8 -41.76 
L 612.490909 -41.76 
L 614.181818 -41.76 
L 615.872727 -41.76 
L 617.563636 -41.76 
L 619.254545 -41.76 
L 620.945455 -41.76 
L 622.636364 -41.76 
L 622.636364 -62.645382 
L 622.636364 -62.645382 
L 620.945455 -41.76 
L 619.254545 -41.76 
L 617.563636 -41.76 
L 615.872727 -41.76 
L 614.181818 -105.327252 
L 612.490909 -41.76 
L 610.8 -41.76 
L 609.109091 -41.76 
L 607.418182 -104.661443 
L 605.727273 -41.76 
L 604.036364 -41.76 
L 602.345455 -41.76 
L 600.654545 -58.089845 
L 598.963636 -41.76 
L 597.272727 -41.76 
L 595.581818 -41.76 
L 593.890909 -80.447015 
L 592.2 -41.76 
L 590.509091 -41.76 
L 588.818182 -41.76 
L 587.127273 -98.283692 
L 585.436364 -41.76 
L 583.745455 -41.76 
L 582.054545 -41.76 
L 580.363636 -100.666588 
L 578.672727 -41.76 
L 576.981818 -41.76 
L 575.290909 -41.76 
L 573.6 -41.76 
L 571.909091 -66.535109 
L 570.218182 -41.76 
L 568.527273 -41.76 
L 566.836364 -41.76 
L 565.145455 -53.043713 
L 563.454545 -41.76 
L 561.763636 -41.76 
L 560.072727 -41.76 
L 558.381818 -82.4094 
L 556.690909 -41.76 
L 555 -41.76 
L 553.309091 -41.76 
L 551.618182 -86.123914 
L 549.927273 -41.76 
L 548.236364 -41.76 
L 546.545455 -41.76 
L 544.854545 -64.818022 
L 543.163636 -41.76 
L 541.472727 -41.76 
L 539.781818 -41.76 
L 538.090909 -68.672706 
L 536.4 -41.76 
L 534.709091 -41.76 
L 533.018182 -41.76 
L 531.327273 -41.76 
L 529.636364 -63.696659 
L 527.945455 -41.76 
L 526.254545 -41.76 
L 524.563636 -41.76 
L 522.872727 -64.11717 
L 521.181818 -41.76 
L 519.490909 -41.76 
L 517.8 -41.76 
L 516.109091 -56.723184 
L 514.418182 -41.76 
L 512.727273 -41.76 
L 511.036364 -41.76 
L 509.345455 -61.13855 
L 507.654545 -41.76 
L 505.963636 -41.76 
L 504.272727 -41.76 
L 502.581818 -123.163928 
L 500.890909 -41.76 
L 499.2 -41.76 
L 497.509091 -41.76 
L 495.818182 -51.396711 
L 494.127273 -41.76 
L 492.436364 -41.76 
L 490.745455 -41.76 
L 489.054545 -41.76 
L 487.363636 -57.844547 
L 485.672727 -41.76 
L 483.981818 -41.76 
L 482.290909 -41.76 
L 480.6 -58.054803 
L 478.909091 -41.76 
L 477.218182 -41.76 
L 475.527273 -41.76 
L 473.836364 -57.844547 
L 472.145455 -41.76 
L 470.454545 -41.76 
L 468.763636 -41.76 
L 467.072727 -69.12826 
L 465.381818 -41.76 
L 463.690909 -41.76 
L 462 -41.76 
L 460.309091 -53.429181 
L 458.618182 -41.76 
L 456.927273 -41.76 
L 455.236364 -41.76 
L 453.545455 -50.205263 
L 451.854545 -41.76 
L 450.163636 -41.76 
L 448.472727 -41.76 
L 446.781818 -41.76 
L 445.090909 -76.101735 
L 443.4 -41.76 
L 441.709091 -41.76 
L 440.018182 -41.76 
L 438.327273 -53.849692 
L 436.636364 -41.76 
L 434.945455 -41.76 
L 433.254545 -41.76 
L 431.563636 -73.859009 
L 429.872727 -41.76 
L 428.181818 -41.76 
L 426.490909 -41.76 
L 424.8 -72.352178 
L 423.109091 -41.76 
L 421.418182 -41.76 
L 419.727273 -41.76 
L 418.036364 -55.111225 
L 416.345455 -41.76 
L 414.654545 -41.76 
L 412.963636 -41.76 
L 411.272727 -54.235161 
L 409.581818 -41.76 
L 407.890909 -41.76 
L 406.2 -41.76 
L 404.509091 -41.76 
L 402.818182 -57.07361 
L 401.127273 -41.76 
L 399.436364 -41.76 
L 397.745455 -41.76 
L 396.054545 -85.703403 
L 394.363636 -41.76 
L 392.672727 -41.76 
L 390.981818 -41.76 
L 389.290909 -92.641836 
L 387.6 -41.76 
L 385.909091 -41.76 
L 384.218182 -41.76 
L 382.527273 -77.573523 
L 380.836364 -41.76 
L 379.145455 -41.76 
L 377.454545 -41.76 
L 375.763636 -78.449588 
L 374.072727 -41.76 
L 372.381818 -41.76 
L 370.690909 -41.76 
L 369 -82.584613 
L 367.309091 -41.76 
L 365.618182 -41.76 
L 363.927273 -41.76 
L 362.236364 -41.76 
L 360.545455 -80.797441 
L 358.854545 -41.76 
L 357.163636 -41.76 
L 355.472727 -41.76 
L 353.781818 -82.023932 
L 352.090909 -41.76 
L 350.4 -41.76 
L 348.709091 -41.76 
L 347.018182 -79.851292 
L 345.327273 -41.76 
L 343.636364 -41.76 
L 341.945455 -41.76 
L 340.254545 -78.729929 
L 338.563636 -41.76 
L 336.872727 -41.76 
L 335.181818 -41.76 
L 333.490909 -75.576096 
L 331.8 -41.76 
L 330.109091 -41.76 
L 328.418182 -41.76 
L 326.727273 -94.078582 
L 325.036364 -41.76 
L 323.345455 -41.76 
L 321.654545 -41.76 
L 319.963636 -41.76 
L 318.272727 -102.7341 
L 316.581818 -41.76 
L 314.890909 -41.76 
L 313.2 -41.76 
L 311.509091 -52.798415 
L 309.818182 -41.76 
L 308.127273 -41.76 
L 306.436364 -41.76 
L 304.745455 -57.003525 
L 303.054545 -41.76 
L 301.363636 -41.76 
L 299.672727 -41.76 
L 297.981818 -56.863355 
L 296.290909 -41.76 
L 294.6 -41.76 
L 292.909091 -41.76 
L 291.218182 -100.035821 
L 289.527273 -41.76 
L 287.836364 -41.76 
L 286.145455 -41.76 
L 284.454545 -71.616284 
L 282.763636 -41.76 
L 281.072727 -41.76 
L 279.381818 -41.76 
L 277.690909 -41.76 
L 276 -66.850492 
L 274.309091 -41.76 
L 272.618182 -41.76 
L 270.927273 -41.76 
L 269.236364 -67.691514 
L 267.545455 -41.76 
L 265.854545 -41.76 
L 264.163636 -41.76 
L 262.472727 -62.014615 
L 260.781818 -41.76 
L 259.090909 -41.76 
L 257.4 -41.76 
L 255.709091 -61.488976 
L 254.018182 -41.76 
L 252.327273 -41.76 
L 250.636364 -41.76 
L 248.945455 -55.952248 
L 247.254545 -41.76 
L 245.563636 -41.76 
L 243.872727 -41.76 
L 242.181818 -74.700031 
L 240.490909 -41.76 
L 238.8 -41.76 
L 237.109091 -41.76 
L 235.418182 -41.76 
L 233.727273 -67.025705 
L 232.036364 -41.76 
L 230.345455 -41.76 
L 228.654545 -41.76 
L 226.963636 -63.801787 
L 225.272727 -41.76 
L 223.581818 -41.76 
L 221.890909 -41.76 
L 220.2 -62.0847 
L 218.509091 -41.76 
L 216.818182 -41.76 
L 215.127273 -41.76 
L 213.436364 -100.456332 
L 211.745455 -41.76 
L 210.054545 -41.76 
L 208.363636 -41.76 
L 206.672727 -85.142722 
L 204.981818 -41.76 
L 203.290909 -41.76 
L 201.6 -41.76 
L 199.909091 -86.053829 
L 198.218182 -41.76 
L 196.527273 -41.76 
L 194.836364 -41.76 
L 193.145455 -41.76 
L 191.454545 -82.234187 
L 189.763636 -41.76 
L 188.072727 -41.76 
L 186.381818 -41.76 
L 184.690909 -83.846146 
L 183 -41.76 
L 181.309091 -41.76 
L 179.618182 -41.76 
L 177.927273 -100.981971 
L 176.236364 -41.76 
L 174.545455 -41.76 
L 172.854545 -41.76 
L 171.163636 -98.073436 
L 169.472727 -41.76 
L 167.781818 -41.76 
L 166.090909 -41.76 
L 164.4 -110.478512 
L 162.709091 -41.76 
L 161.018182 -41.76 
L 159.327273 -41.76 
L 157.636364 -60.437699 
L 155.945455 -41.76 
L 154.254545 -41.76 
L 152.563636 -41.76 
L 150.872727 -41.76 
L 149.181818 -56.407801 
L 147.490909 -41.76 
L 145.8 -41.76 
L 144.109091 -41.76 
L 142.418182 -84.266657 
L 140.727273 -41.76 
L 139.036364 -41.76 
L 137.345455 -41.76 
L 135.654545 -83.881189 
L 133.963636 -41.76 
L 132.272727 -41.76 
L 130.581818 -41.76 
L 128.890909 -65.378703 
L 127.2 -41.76 
L 125.509091 -41.76 
L 123.818182 -41.76 
L 122.127273 -42.70615 
L 120.436364 -41.76 
L 118.745455 -41.76 
L 117.054545 -41.76 
L 115.363636 -41.90017 
z
" style="stroke: #ff0000; stroke-width: 0.5"/>
    </defs>
    <g clip-path="url(#pe17f7a722c)">
     <use xlink:href="#mbd18ce91f3" x="0" y="288" style="fill: #ff0000; stroke: #ff0000; stroke-width: 0.5"/>
    </g>
   </g>
   <g id="PolyCollection_2">
    <defs>
     <path id="ma5bfbf99c4" d="M 115.363636 -53.324054 
L 115.363636 -41.90017 
L 117.054545 -41.76 
L 118.745455 -41.76 
L 120.436364 -41.76 
L 122.127273 -42.70615 
L 123.818182 -41.76 
L 125.509091 -41.76 
L 127.2 -41.76 
L 128.890909 -65.378703 
L 130.581818 -41.76 
L 132.272727 -41.76 
L 133.963636 -41.76 
L 135.654545 -83.881189 
L 137.345455 -41.76 
L 139.036364 -41.76 
L 140.727273 -41.76 
L 142.418182 -84.266657 
L 144.109091 -41.76 
L 145.8 -41.76 
L 147.490909 -41.76 
L 149.181818 -56.407801 
L 150.872727 -41.76 
L 152.563636 -41.76 
L 154.254545 -41.76 
L 155.945455 -41.76 
L 157.636364 -60.437699 
L 159.327273 -41.76 
L 161.018182 -41.76 
L 162.709091 -41.76 
L 164.4 -110.478512 
L 166.090909 -41.76 
L 167.781818 -41.76 
L 169.472727 -41.76 
L 171.163636 -98.073436 
L 172.854545 -41.76 
L 174.545455 -41.76 
L 176.236364 -41.76 
L 177.927273 -100.981971 
L 179.618182 -41.76 
L 181.309091 -41.76 
L 183 -41.76 
L 184.690909 -83.846146 
L 186.381818 -41.76 
L 188.072727 -41.76 
L 189.763636 -41.76 
L 191.454545 -82.234187 
L 193.145455 -41.76 
L 194.836364 -41.76 
L 196.527273 -41.76 
L 198.218182 -41.76 
L 199.909091 -86.053829 
L 201.6 -41.76 
L 203.290909 -41.76 
L 204.981818 -41.76 
L 206.672727 -85.142722 
L 208.363636 -41.76 
L 210.054545 -41.76 
L 211.745455 -41.76 
L 213.436364 -100.456332 
L 215.127273 -41.76 
L 216.818182 -41.76 
L 218.509091 -41.76 
L 220.2 -62.0847 
L 221.890909 -41.76 
L 223.581818 -41.76 
L 225.272727 -41.76 
L 226.963636 -63.801787 
L 228.654545 -41.76 
L 230.345455 -41.76 
L 232.036364 -41.76 
L 233.727273 -67.025705 
L 235.418182 -41.76 
L 237.109091 -41.76 
L 238.8 -41.76 
L 240.490909 -41.76 
L 242.181818 -74.700031 
L 243.872727 -41.76 
L 245.563636 -41.76 
L 247.254545 -41.76 
L 248.945455 -55.952248 
L 250.636364 -41.76 
L 252.327273 -41.76 
L 254.018182 -41.76 
L 255.709091 -61.488976 
L 257.4 -41.76 
L 259.090909 -41.76 
L 260.781818 -41.76 
L 262.472727 -62.014615 
L 264.163636 -41.76 
L 265.854545 -41.76 
L 267.545455 -41.76 
L 269.236364 -67.691514 
L 270.927273 -41.76 
L 272.618182 -41.76 
L 274.309091 -41.76 
L 276 -66.850492 
L 277.690909 -41.76 
L 279.381818 -41.76 
L 281.072727 -41.76 
L 282.763636 -41.76 
L 284.454545 -71.616284 
L 286.145455 -41.76 
L 287.836364 -41.76 
L 289.527273 -41.76 
L 291.218182 -100.035821 
L 292.909091 -41.76 
L 294.6 -41.76 
L 296.290909 -41.76 
L 297.981818 -56.863355 
L 299.672727 -41.76 
L 301.363636 -41.76 
L 303.054545 -41.76 
L 304.745455 -57.003525 
L 306.436364 -41.76 
L 308.127273 -41.76 
L 309.818182 -41.76 
L 311.509091 -52.798415 
L 313.2 -41.76 
L 314.890909 -41.76 
L 316.581818 -41.76 
L 318.272727 -102.7341 
L 319.963636 -41.76 
L 321.654545 -41.76 
L 323.345455 -41.76 
L 325.036364 -41.76 
L 326.727273 -94.078582 
L 328.418182 -41.76 
L 330.109091 -41.76 
L 331.8 -41.76 
L 333.490909 -75.576096 
L 335.181818 -41.76 
L 336.872727 -41.76 
L 338.563636 -41.76 
L 340.254545 -78.729929 
L 341.945455 -41.76 
L 343.636364 -41.76 
L 345.327273 -41.76 
L 347.018182 -79.851292 
L 348.709091 -41.76 
L 350.4 -41.76 
L 352.090909 -41.76 
L 353.781818 -82.023932 
L 355.472727 -41.76 
L 357.163636 -41.76 
L 358.854545 -41.76 
L 360.545455 -80.797441 
L 362.236364 -41.76 
L 363.927273 -41.76 
L 365.618182 -41.76 
L 367.309091 -41.76 
L 369 -82.584613 
L 370.690909 -41.76 
L 372.381818 -41.76 
L 374.072727 -41.76 
L 375.763636 -78.449588 
L 377.454545 -41.76 
L 379.145455 -41.76 
L 380.836364 -41.76 
L 382.527273 -77.573523 
L 384.218182 -41.76 
L 385.909091 -41.76 
L 387.6 -41.76 
L 389.290909 -92.641836 
L 390.981818 -41.76 
L 392.672727 -41.76 
L 394.363636 -41.76 
L 396.054545 -85.703403 
L 397.745455 -41.76 
L 399.436364 -41.76 
L 401.127273 -41.76 
L 402.818182 -57.07361 
L 404.509091 -41.76 
L 406.2 -41.76 
L 407.890909 -41.76 
L 409.581818 -41.76 
L 411.272727 -54.235161 
L 412.963636 -41.76 
L 414.654545 -41.76 
L 416.345455 -41.76 
L 418.036364 -55.111225 
L 419.727273 -41.76 
L 421.418182 -41.76 
L 423.109091 -41.76 
L 424.8 -72.352178 
L 426.490909 -41.76 
L 428.181818 -41.76 
L 429.872727 -41.76 
L 431.563636 -73.859009 
L 433.254545 -41.76 
L 434.945455 -41.76 
L 436.636364 -41.76 
L 438.327273 -53.849692 
L 440.018182 -41.76 
L 441.709091 -41.76 
L 443.4 -41.76 
L 445.090909 -76.101735 
L 446.781818 -41.76 
L 448.472727 -41.76 
L 450.163636 -41.76 
L 451.854545 -41.76 
L 453.545455 -50.205263 
L 455.236364 -41.76 
L 456.927273 -41.76 
L 458.618182 -41.76 
L 460.309091 -53.429181 
L 462 -41.76 
L 463.690909 -41.76 
L 465.381818 -41.76 
L 467.072727 -69.12826 
L 468.763636 -41.76 
L 470.454545 -41.76 
L 472.145455 -41.76 
L 473.836364 -57.844547 
L 475.527273 -41.76 
L 477.218182 -41.76 
L 478.909091 -41.76 
L 480.6 -58.054803 
L 482.290909 -41.76 
L 483.981818 -41.76 
L 485.672727 -41.76 
L 487.363636 -57.844547 
L 489.054545 -41.76 
L 490.745455 -41.76 
L 492.436364 -41.76 
L 494.127273 -41.76 
L 495.818182 -51.396711 
L 497.509091 -41.76 
L 499.2 -41.76 
L 500.890909 -41.76 
L 502.581818 -123.163928 
L 504.272727 -41.76 
L 505.963636 -41.76 
L 507.654545 -41.76 
L 509.345455 -61.13855 
L 511.036364 -41.76 
L 512.727273 -41.76 
L 514.418182 -41.76 
L 516.109091 -56.723184 
L 517.8 -41.76 
L 519.490909 -41.76 
L 521.181818 -41.76 
L 522.872727 -64.11717 
L 524.563636 -41.76 
L 526.254545 -41.76 
L 527.945455 -41.76 
L 529.636364 -63.696659 
L 531.327273 -41.76 
L 533.018182 -41.76 
L 534.709091 -41.76 
L 536.4 -41.76 
L 538.090909 -68.672706 
L 539.781818 -41.76 
L 541.472727 -41.76 
L 543.163636 -41.76 
L 544.854545 -64.818022 
L 546.545455 -41.76 
L 548.236364 -41.76 
L 549.927273 -41.76 
L 551.618182 -86.123914 
L 553.309091 -41.76 
L 555 -41.76 
L 556.690909 -41.76 
L 558.381818 -82.4094 
L 560.072727 -41.76 
L 561.763636 -41.76 
L 563.454545 -41.76 
L 565.145455 -53.043713 
L 566.836364 -41.76 
L 568.527273 -41.76 
L 570.218182 -41.76 
L 571.909091 -66.535109 
L 573.6 -41.76 
L 575.290909 -41.76 
L 576.981818 -41.76 
L 578.672727 -41.76 
L 580.363636 -100.666588 
L 582.054545 -41.76 
L 583.745455 -41.76 
L 585.436364 -41.76 
L 587.127273 -98.283692 
L 588.818182 -41.76 
L 590.509091 -41.76 
L 592.2 -41.76 
L 593.890909 -80.447015 
L 595.581818 -41.76 
L 597.272727 -41.76 
L 598.963636 -41.76 
L 600.654545 -58.089845 
L 602.345455 -41.76 
L 604.036364 -41.76 
L 605.727273 -41.76 
L 607.418182 -104.661443 
L 609.109091 -41.76 
L 610.8 -41.76 
L 612.490909 -41.76 
L 614.181818 -105.327252 
L 615.872727 -41.76 
L 617.563636 -41.76 
L 619.254545 -41.76 
L 620.945455 -41.76 
L 622.636364 -62.645382 
L 622.636364 -62.645382 
L 622.636364 -62.645382 
L 620.945455 -81.533336 
L 619.254545 -90.434153 
L 617.563636 -68.847919 
L 615.872727 -51.046285 
L 614.181818 -110.969108 
L 612.490909 -50.871072 
L 610.8 -52.72833 
L 609.109091 -59.561634 
L 607.418182 -110.373384 
L 605.727273 -45.82494 
L 604.036364 -47.752282 
L 602.345455 -62.680424 
L 600.654545 -74.13935 
L 598.963636 -63.241106 
L 597.272727 -70.740219 
L 595.581818 -83.425635 
L 593.890909 -110.338342 
L 592.2 -61.874445 
L 590.509091 -65.273576 
L 588.818182 -61.909487 
L 587.127273 -115.840028 
L 585.436364 -59.281293 
L 583.745455 -101.262312 
L 582.054545 -109.952873 
L 580.363636 -171.662868 
L 578.672727 -64.888107 
L 576.981818 -56.12746 
L 575.290909 -49.819795 
L 573.6 -62.995807 
L 571.909091 -73.578669 
L 570.218182 -58.194973 
L 568.527273 -50.380476 
L 566.836364 -64.327426 
L 565.145455 -68.847919 
L 563.454545 -69.408601 
L 561.763636 -52.412946 
L 560.072727 -59.456506 
L 558.381818 -104.065719 
L 556.690909 -58.405229 
L 555 -50.765945 
L 553.309091 -57.353951 
L 551.618182 -108.025531 
L 549.927273 -90.469195 
L 548.236364 -72.422263 
L 546.545455 -60.612912 
L 544.854545 -73.438498 
L 543.163636 -67.09579 
L 541.472727 -96.426435 
L 539.781818 -67.411173 
L 538.090909 -100.841801 
L 536.4 -71.581241 
L 534.709091 -91.34526 
L 533.018182 -66.14964 
L 531.327273 -54.971055 
L 529.636364 -88.927321 
L 527.945455 -49.294156 
L 526.254545 -48.383049 
L 524.563636 -45.96511 
L 522.872727 -72.317135 
L 521.181818 -47.962538 
L 519.490909 -50.275349 
L 517.8 -55.777035 
L 516.109091 -80.201717 
L 514.418182 -53.849692 
L 512.727273 -46.560834 
L 511.036364 -48.067666 
L 509.345455 -83.951274 
L 507.654545 -57.213781 
L 505.963636 -73.1932 
L 504.272727 -78.274375 
L 502.581818 -133.536534 
L 500.890909 -44.703577 
L 499.2 -43.967683 
L 497.509091 -43.757427 
L 495.818182 -56.337716 
L 494.127273 -50.380476 
L 492.436364 -59.877017 
L 490.745455 -72.737646 
L 489.054545 -58.475314 
L 487.363636 -72.912859 
L 485.672727 -55.98729 
L 483.981818 -60.682997 
L 482.290909 -109.567405 
L 480.6 -128.210061 
L 478.909091 -121.83231 
L 477.218182 -113.56226 
L 475.527273 -96.987116 
L 473.836364 -74.805159 
L 472.145455 -65.308618 
L 470.454545 -68.98809 
L 468.763636 -48.172793 
L 467.072727 -76.417118 
L 465.381818 -55.251396 
L 463.690909 -50.03005 
L 462 -72.24705 
L 460.309091 -69.653899 
L 458.618182 -54.90097 
L 456.927273 -52.027478 
L 455.236364 -51.852265 
L 453.545455 -128.700657 
L 451.854545 -66.640236 
L 450.163636 -57.809505 
L 448.472727 -96.671733 
L 446.781818 -77.713694 
L 445.090909 -78.905142 
L 443.4 -44.037768 
L 441.709091 -49.644582 
L 440.018182 -89.102534 
L 438.327273 -127.474167 
L 436.636364 -118.082753 
L 434.945455 -77.678651 
L 433.254545 -101.122141 
L 431.563636 -127.298954 
L 429.872727 -110.163129 
L 428.181818 -102.033249 
L 426.490909 -76.767544 
L 424.8 -97.863181 
L 423.109091 -64.222298 
L 421.418182 -112.195599 
L 419.727273 -104.976826 
L 418.036364 -82.829911 
L 416.345455 -56.863355 
L 414.654545 -59.736847 
L 412.963636 -49.399284 
L 411.272727 -64.888107 
L 409.581818 -61.839402 
L 407.890909 -79.29061 
L 406.2 -56.092418 
L 404.509091 -51.431754 
L 402.818182 -74.594904 
L 401.127273 -61.313763 
L 399.436364 -70.915432 
L 397.745455 -63.591531 
L 396.054545 -105.958018 
L 394.363636 -61.418891 
L 392.672727 -54.480459 
L 390.981818 -53.81465 
L 389.290909 -99.825566 
L 387.6 -48.488177 
L 385.909091 -44.983918 
L 384.218182 -62.715467 
L 382.527273 -98.458905 
L 380.836364 -83.881189 
L 379.145455 -77.643609 
L 377.454545 -75.506011 
L 375.763636 -97.407627 
L 374.072727 -50.941158 
L 372.381818 -47.892453 
L 370.690909 -49.399284 
L 369 -86.439298 
L 367.309091 -54.515501 
L 365.618182 -56.232588 
L 363.927273 -84.757254 
L 362.236364 -67.586386 
L 360.545455 -91.905941 
L 358.854545 -77.713694 
L 357.163636 -75.155585 
L 355.472727 -78.694886 
L 353.781818 -91.064919 
L 352.090909 -65.518874 
L 350.4 -74.489776 
L 348.709091 -58.545399 
L 347.018182 -91.660643 
L 345.327273 -55.531736 
L 343.636364 -60.017188 
L 341.945455 -51.151413 
L 340.254545 -89.593131 
L 338.563636 -74.805159 
L 336.872727 -68.076982 
L 335.181818 -57.143695 
L 333.490909 -87.035022 
L 331.8 -55.216353 
L 330.109091 -79.956419 
L 328.418182 -77.223098 
L 326.727273 -127.193826 
L 325.036364 -61.839402 
L 323.345455 -90.609366 
L 321.654545 -65.098363 
L 319.963636 -72.947902 
L 318.272727 -145.310843 
L 316.581818 -71.230815 
L 314.890909 -66.605194 
L 313.2 -69.723984 
L 311.509091 -88.121342 
L 309.818182 -85.878616 
L 308.127273 -85.38802 
L 306.436364 -77.923949 
L 304.745455 -105.537507 
L 303.054545 -80.131632 
L 301.363636 -93.447815 
L 299.672727 -70.775262 
L 297.981818 -73.753881 
L 296.290909 -54.480459 
L 294.6 -73.473541 
L 292.909091 -61.488976 
L 291.218182 -111.705003 
L 289.527273 -57.984718 
L 287.836364 -57.003525 
L 286.145455 -55.952248 
L 284.454545 -92.221325 
L 282.763636 -52.342861 
L 281.072727 -48.102708 
L 279.381818 -47.226643 
L 277.690909 -46.210408 
L 276 -73.648754 
L 274.309091 -49.048858 
L 272.618182 -46.91126 
L 270.927273 -47.191601 
L 269.236364 -81.288038 
L 267.545455 -52.763372 
L 265.854545 -43.827513 
L 264.163636 -49.329199 
L 262.472727 -72.492348 
L 260.781818 -62.995807 
L 259.090909 -64.11717 
L 257.4 -74.594904 
L 255.709091 -121.69214 
L 254.018182 -100.806758 
L 252.327273 -109.742618 
L 250.636364 -86.47434 
L 248.945455 -104.941783 
L 247.254545 -77.503438 
L 245.563636 -51.151413 
L 243.872727 -48.628347 
L 242.181818 -78.624801 
L 240.490909 -45.930068 
L 238.8 -80.517101 
L 237.109091 -67.376131 
L 235.418182 -83.776061 
L 233.727273 -105.852891 
L 232.036364 -72.282093 
L 230.345455 -51.817222 
L 228.654545 -61.208635 
L 226.963636 -78.099162 
L 225.272727 -62.154785 
L 223.581818 -47.612112 
L 221.890909 -50.100136 
L 220.2 -73.298328 
L 218.509091 -45.649727 
L 216.818182 -57.739419 
L 215.127273 -71.616284 
L 213.436364 -120.640862 
L 211.745455 -61.243678 
L 210.054545 -58.545399 
L 208.363636 -54.200118 
L 206.672727 -104.976826 
L 204.981818 -76.557288 
L 203.290909 -64.047085 
L 201.6 -56.863355 
L 199.909091 -101.402482 
L 198.218182 -57.248823 
L 196.527273 -56.863355 
L 194.836364 -51.606967 
L 193.145455 -52.973628 
L 191.454545 -93.658071 
L 189.763636 -55.496694 
L 188.072727 -54.515501 
L 186.381818 -52.8685 
L 184.690909 -96.391392 
L 183 -52.833457 
L 181.309091 -56.092418 
L 179.618182 -56.758227 
L 177.927273 -114.157984 
L 176.236364 -55.601822 
L 174.545455 -56.442844 
L 172.854545 -55.706949 
L 171.163636 -112.335769 
L 169.472727 -58.054803 
L 167.781818 -58.054803 
L 166.090909 -57.353951 
L 164.4 -125.126313 
L 162.709091 -57.564207 
L 161.018182 -49.574497 
L 159.327273 -45.579642 
L 157.636364 -75.260713 
L 155.945455 -72.492348 
L 154.254545 -48.523219 
L 152.563636 -57.353951 
L 150.872727 -51.92235 
L 149.181818 -68.98809 
L 147.490909 -59.947102 
L 145.8 -58.615484 
L 144.109091 -57.774462 
L 142.418182 -96.251222 
L 140.727273 -50.625774 
L 139.036364 -52.342861 
L 137.345455 -53.464224 
L 135.654545 -94.253795 
L 133.963636 -51.887307 
L 132.272727 -52.202691 
L 130.581818 -52.518074 
L 128.890909 -80.727356 
L 127.2 -62.680424 
L 125.509091 -58.895825 
L 123.818182 -52.833457 
L 122.127273 -54.90097 
L 120.436364 -67.060747 
L 118.745455 -57.038568 
L 117.054545 -60.788124 
L 115.363636 -53.324054 
z
" style="stroke: #0000ff; stroke-width: 0.5"/>
    </defs>
    <g clip-path="url(#pe17f7a722c)">
     <use xlink:href="#ma5bfbf99c4" x="0" y="288" style="fill: #0000ff; stroke: #0000ff; stroke-width: 0.5"/>
    </g>
   </g>
   <g id="PolyCollection_3">
    <defs>
     <path id="mae4c0afad1" d="M 115.363636 -69.899197 
L 115.363636 -53.324054 
L 117.054545 -60.788124 
L 118.745455 -57.038568 
L 120.436364 -67.060747 
L 122.127273 -54.90097 
L 123.818182 -52.833457 
L 125.509091 -58.895825 
L 127.2 -62.680424 
L 128.890909 -80.727356 
L 130.581818 -52.518074 
L 132.272727 -52.202691 
L 133.963636 -51.887307 
L 135.654545 -94.253795 
L 137.345455 -53.464224 
L 139.036364 -52.342861 
L 140.727273 -50.625774 
L 142.418182 -96.251222 
L 144.109091 -57.774462 
L 145.8 -58.615484 
L 147.490909 -59.947102 
L 149.181818 -68.98809 
L 150.872727 -51.92235 
L 152.563636 -57.353951 
L 154.254545 -48.523219 
L 155.945455 -72.492348 
L 157.636364 -75.260713 
L 159.327273 -45.579642 
L 161.018182 -49.574497 
L 162.709091 -57.564207 
L 164.4 -125.126313 
L 166.090909 -57.353951 
L 167.781818 -58.054803 
L 169.472727 -58.054803 
L 171.163636 -112.335769 
L 172.854545 -55.706949 
L 174.545455 -56.442844 
L 176.236364 -55.601822 
L 177.927273 -114.157984 
L 179.618182 -56.758227 
L 181.309091 -56.092418 
L 183 -52.833457 
L 184.690909 -96.391392 
L 186.381818 -52.8685 
L 188.072727 -54.515501 
L 189.763636 -55.496694 
L 191.454545 -93.658071 
L 193.145455 -52.973628 
L 194.836364 -51.606967 
L 196.527273 -56.863355 
L 198.218182 -57.248823 
L 199.909091 -101.402482 
L 201.6 -56.863355 
L 203.290909 -64.047085 
L 204.981818 -76.557288 
L 206.672727 -104.976826 
L 208.363636 -54.200118 
L 210.054545 -58.545399 
L 211.745455 -61.243678 
L 213.436364 -120.640862 
L 215.127273 -71.616284 
L 216.818182 -57.739419 
L 218.509091 -45.649727 
L 220.2 -73.298328 
L 221.890909 -50.100136 
L 223.581818 -47.612112 
L 225.272727 -62.154785 
L 226.963636 -78.099162 
L 228.654545 -61.208635 
L 230.345455 -51.817222 
L 232.036364 -72.282093 
L 233.727273 -105.852891 
L 235.418182 -83.776061 
L 237.109091 -67.376131 
L 238.8 -80.517101 
L 240.490909 -45.930068 
L 242.181818 -78.624801 
L 243.872727 -48.628347 
L 245.563636 -51.151413 
L 247.254545 -77.503438 
L 248.945455 -104.941783 
L 250.636364 -86.47434 
L 252.327273 -109.742618 
L 254.018182 -100.806758 
L 255.709091 -121.69214 
L 257.4 -74.594904 
L 259.090909 -64.11717 
L 260.781818 -62.995807 
L 262.472727 -72.492348 
L 264.163636 -49.329199 
L 265.854545 -43.827513 
L 267.545455 -52.763372 
L 269.236364 -81.288038 
L 270.927273 -47.191601 
L 272.618182 -46.91126 
L 274.309091 -49.048858 
L 276 -73.648754 
L 277.690909 -46.210408 
L 279.381818 -47.226643 
L 281.072727 -48.102708 
L 282.763636 -52.342861 
L 284.454545 -92.221325 
L 286.145455 -55.952248 
L 287.836364 -57.003525 
L 289.527273 -57.984718 
L 291.218182 -111.705003 
L 292.909091 -61.488976 
L 294.6 -73.473541 
L 296.290909 -54.480459 
L 297.981818 -73.753881 
L 299.672727 -70.775262 
L 301.363636 -93.447815 
L 303.054545 -80.131632 
L 304.745455 -105.537507 
L 306.436364 -77.923949 
L 308.127273 -85.38802 
L 309.818182 -85.878616 
L 311.509091 -88.121342 
L 313.2 -69.723984 
L 314.890909 -66.605194 
L 316.581818 -71.230815 
L 318.272727 -145.310843 
L 319.963636 -72.947902 
L 321.654545 -65.098363 
L 323.345455 -90.609366 
L 325.036364 -61.839402 
L 326.727273 -127.193826 
L 328.418182 -77.223098 
L 330.109091 -79.956419 
L 331.8 -55.216353 
L 333.490909 -87.035022 
L 335.181818 -57.143695 
L 336.872727 -68.076982 
L 338.563636 -74.805159 
L 340.254545 -89.593131 
L 341.945455 -51.151413 
L 343.636364 -60.017188 
L 345.327273 -55.531736 
L 347.018182 -91.660643 
L 348.709091 -58.545399 
L 350.4 -74.489776 
L 352.090909 -65.518874 
L 353.781818 -91.064919 
L 355.472727 -78.694886 
L 357.163636 -75.155585 
L 358.854545 -77.713694 
L 360.545455 -91.905941 
L 362.236364 -67.586386 
L 363.927273 -84.757254 
L 365.618182 -56.232588 
L 367.309091 -54.515501 
L 369 -86.439298 
L 370.690909 -49.399284 
L 372.381818 -47.892453 
L 374.072727 -50.941158 
L 375.763636 -97.407627 
L 377.454545 -75.506011 
L 379.145455 -77.643609 
L 380.836364 -83.881189 
L 382.527273 -98.458905 
L 384.218182 -62.715467 
L 385.909091 -44.983918 
L 387.6 -48.488177 
L 389.290909 -99.825566 
L 390.981818 -53.81465 
L 392.672727 -54.480459 
L 394.363636 -61.418891 
L 396.054545 -105.958018 
L 397.745455 -63.591531 
L 399.436364 -70.915432 
L 401.127273 -61.313763 
L 402.818182 -74.594904 
L 404.509091 -51.431754 
L 406.2 -56.092418 
L 407.890909 -79.29061 
L 409.581818 -61.839402 
L 411.272727 -64.888107 
L 412.963636 -49.399284 
L 414.654545 -59.736847 
L 416.345455 -56.863355 
L 418.036364 -82.829911 
L 419.727273 -104.976826 
L 421.418182 -112.195599 
L 423.109091 -64.222298 
L 424.8 -97.863181 
L 426.490909 -76.767544 
L 428.181818 -102.033249 
L 429.872727 -110.163129 
L 431.563636 -127.298954 
L 433.254545 -101.122141 
L 434.945455 -77.678651 
L 436.636364 -118.082753 
L 438.327273 -127.474167 
L 440.018182 -89.102534 
L 441.709091 -49.644582 
L 443.4 -44.037768 
L 445.090909 -78.905142 
L 446.781818 -77.713694 
L 448.472727 -96.671733 
L 450.163636 -57.809505 
L 451.854545 -66.640236 
L 453.545455 -128.700657 
L 455.236364 -51.852265 
L 456.927273 -52.027478 
L 458.618182 -54.90097 
L 460.309091 -69.653899 
L 462 -72.24705 
L 463.690909 -50.03005 
L 465.381818 -55.251396 
L 467.072727 -76.417118 
L 468.763636 -48.172793 
L 470.454545 -68.98809 
L 472.145455 -65.308618 
L 473.836364 -74.805159 
L 475.527273 -96.987116 
L 477.218182 -113.56226 
L 478.909091 -121.83231 
L 480.6 -128.210061 
L 482.290909 -109.567405 
L 483.981818 -60.682997 
L 485.672727 -55.98729 
L 487.363636 -72.912859 
L 489.054545 -58.475314 
L 490.745455 -72.737646 
L 492.436364 -59.877017 
L 494.127273 -50.380476 
L 495.818182 -56.337716 
L 497.509091 -43.757427 
L 499.2 -43.967683 
L 500.890909 -44.703577 
L 502.581818 -133.536534 
L 504.272727 -78.274375 
L 505.963636 -73.1932 
L 507.654545 -57.213781 
L 509.345455 -83.951274 
L 511.036364 -48.067666 
L 512.727273 -46.560834 
L 514.418182 -53.849692 
L 516.109091 -80.201717 
L 517.8 -55.777035 
L 519.490909 -50.275349 
L 521.181818 -47.962538 
L 522.872727 -72.317135 
L 524.563636 -45.96511 
L 526.254545 -48.383049 
L 527.945455 -49.294156 
L 529.636364 -88.927321 
L 531.327273 -54.971055 
L 533.018182 -66.14964 
L 534.709091 -91.34526 
L 536.4 -71.581241 
L 538.090909 -100.841801 
L 539.781818 -67.411173 
L 541.472727 -96.426435 
L 543.163636 -67.09579 
L 544.854545 -73.438498 
L 546.545455 -60.612912 
L 548.236364 -72.422263 
L 549.927273 -90.469195 
L 551.618182 -108.025531 
L 553.309091 -57.353951 
L 555 -50.765945 
L 556.690909 -58.405229 
L 558.381818 -104.065719 
L 560.072727 -59.456506 
L 561.763636 -52.412946 
L 563.454545 -69.408601 
L 565.145455 -68.847919 
L 566.836364 -64.327426 
L 568.527273 -50.380476 
L 570.218182 -58.194973 
L 571.909091 -73.578669 
L 573.6 -62.995807 
L 575.290909 -49.819795 
L 576.981818 -56.12746 
L 578.672727 -64.888107 
L 580.363636 -171.662868 
L 582.054545 -109.952873 
L 583.745455 -101.262312 
L 585.436364 -59.281293 
L 587.127273 -115.840028 
L 588.818182 -61.909487 
L 590.509091 -65.273576 
L 592.2 -61.874445 
L 593.890909 -110.338342 
L 595.581818 -83.425635 
L 597.272727 -70.740219 
L 598.963636 -63.241106 
L 600.654545 -74.13935 
L 602.345455 -62.680424 
L 604.036364 -47.752282 
L 605.727273 -45.82494 
L 607.418182 -110.373384 
L 609.109091 -59.561634 
L 610.8 -52.72833 
L 612.490909 -50.871072 
L 614.181818 -110.969108 
L 615.872727 -51.046285 
L 617.563636 -68.847919 
L 619.254545 -90.434153 
L 620.945455 -81.533336 
L 622.636364 -62.645382 
L 622.636364 -62.645382 
L 622.636364 -62.645382 
L 620.945455 -146.572376 
L 619.254545 -156.664641 
L 617.563636 -115.489602 
L 615.872727 -93.903369 
L 614.181818 -150.076635 
L 612.490909 -93.938411 
L 610.8 -88.401683 
L 609.109091 -119.764797 
L 607.418182 -128.280146 
L 605.727273 -93.027304 
L 604.036364 -110.58364 
L 602.345455 -107.920403 
L 600.654545 -111.144321 
L 598.963636 -102.839228 
L 597.272727 -119.975053 
L 595.581818 -150.14672 
L 593.890909 -166.441523 
L 592.2 -132.485256 
L 590.509091 -97.828138 
L 588.818182 -114.78875 
L 587.127273 -157.750961 
L 585.436364 -108.55117 
L 583.745455 -183.402135 
L 582.054545 -194.685847 
L 580.363636 -243.36 
L 578.672727 -141.245903 
L 576.981818 -102.418717 
L 575.290909 -78.414545 
L 573.6 -101.542653 
L 571.909091 -111.845173 
L 570.218182 -81.638463 
L 568.527273 -82.26923 
L 566.836364 -112.090471 
L 565.145455 -100.631545 
L 563.454545 -133.676704 
L 561.763636 -91.450388 
L 560.072727 -149.866379 
L 558.381818 -143.90914 
L 556.690909 -109.672533 
L 555 -64.537681 
L 553.309091 -90.25894 
L 551.618182 -175.132084 
L 549.927273 -157.926174 
L 548.236364 -122.848545 
L 546.545455 -93.062347 
L 544.854545 -102.699058 
L 543.163636 -115.804985 
L 541.472727 -168.544078 
L 539.781818 -120.816075 
L 538.090909 -147.238185 
L 536.4 -126.598102 
L 534.709091 -172.468848 
L 533.018182 -184.628625 
L 531.327273 -147.343313 
L 529.636364 -125.336569 
L 527.945455 -70.950475 
L 526.254545 -62.925722 
L 524.563636 -56.898397 
L 522.872727 -92.116197 
L 521.181818 -63.836829 
L 519.490909 -66.570151 
L 517.8 -80.937612 
L 516.109091 -120.956245 
L 514.418182 -91.170047 
L 512.727273 -76.557288 
L 511.036364 -99.159757 
L 509.345455 -105.71272 
L 507.654545 -82.444443 
L 505.963636 -122.953673 
L 504.272727 -175.237212 
L 502.581818 -218.444721 
L 500.890909 -128.665614 
L 499.2 -49.048858 
L 497.509091 -46.77109 
L 495.818182 -84.126487 
L 494.127273 -74.384648 
L 492.436364 -92.922176 
L 490.745455 -115.454559 
L 489.054545 -86.123914 
L 487.363636 -97.617883 
L 485.672727 -79.325653 
L 483.981818 -111.915258 
L 482.290909 -213.994313 
L 480.6 -234.354055 
L 478.909091 -205.338794 
L 477.218182 -180.63377 
L 475.527273 -170.261165 
L 473.836364 -95.234987 
L 472.145455 -122.63829 
L 470.454545 -123.549397 
L 468.763636 -58.124888 
L 467.072727 -97.898224 
L 465.381818 -80.306845 
L 463.690909 -74.27952 
L 462 -111.144321 
L 460.309091 -110.934066 
L 458.618182 -78.134205 
L 456.927273 -65.238533 
L 455.236364 -102.278547 
L 453.545455 -217.919082 
L 451.854545 -111.845173 
L 450.163636 -109.602447 
L 448.472727 -197.314041 
L 446.781818 -129.681849 
L 445.090909 -86.754681 
L 443.4 -48.94373 
L 441.709091 -96.181137 
L 440.018182 -171.067144 
L 438.327273 -220.582319 
L 436.636364 -178.320959 
L 434.945455 -123.479312 
L 433.254545 -159.643261 
L 431.563636 -189.429459 
L 429.872727 -179.091896 
L 428.181818 -170.541505 
L 426.490909 -129.541679 
L 424.8 -123.584439 
L 423.109091 -115.664815 
L 421.418182 -184.488455 
L 419.727273 -194.265336 
L 418.036364 -119.764797 
L 416.345455 -84.792296 
L 414.654545 -82.619656 
L 412.963636 -62.224871 
L 411.272727 -79.255568 
L 409.581818 -92.992261 
L 407.890909 -141.561286 
L 406.2 -108.621255 
L 404.509091 -66.289811 
L 402.818182 -121.69214 
L 401.127273 -99.965736 
L 399.436364 -127.474167 
L 397.745455 -126.282719 
L 396.054545 -155.858662 
L 394.363636 -133.922002 
L 392.672727 -75.260713 
L 390.981818 -72.24705 
L 389.290909 -109.742618 
L 387.6 -63.17102 
L 385.909091 -88.541853 
L 384.218182 -105.993061 
L 382.527273 -140.264711 
L 380.836364 -146.22195 
L 379.145455 -137.391218 
L 377.454545 -124.530589 
L 375.763636 -123.514354 
L 374.072727 -133.88696 
L 372.381818 -114.052856 
L 370.690909 -129.086125 
L 369 -145.556141 
L 367.309091 -87.595703 
L 365.618182 -97.232414 
L 363.927273 -144.154438 
L 362.236364 -114.893878 
L 360.545455 -137.916857 
L 358.854545 -136.024558 
L 357.163636 -131.99466 
L 355.472727 -132.730554 
L 353.781818 -122.848545 
L 352.090909 -126.142548 
L 350.4 -129.786977 
L 348.709091 -104.76657 
L 347.018182 -128.87587 
L 345.327273 -97.793096 
L 343.636364 -103.014441 
L 341.945455 -84.091444 
L 340.254545 -115.384474 
L 338.563636 -126.387846 
L 336.872727 -130.557914 
L 335.181818 -85.282892 
L 333.490909 -106.413572 
L 331.8 -79.395738 
L 330.109091 -140.895477 
L 328.418182 -121.762225 
L 326.727273 -191.426887 
L 325.036364 -124.635717 
L 323.345455 -185.399562 
L 321.654545 -146.677504 
L 319.963636 -122.953673 
L 318.272727 -213.048163 
L 316.581818 -106.5187 
L 314.890909 -112.686195 
L 313.2 -155.473193 
L 311.509091 -130.943383 
L 309.818182 -125.651952 
L 308.127273 -125.441697 
L 306.436364 -112.090471 
L 304.745455 -154.176617 
L 303.054545 -111.740045 
L 301.363636 -151.723636 
L 299.672727 -110.934066 
L 297.981818 -119.169074 
L 296.290909 -105.257167 
L 294.6 -174.185934 
L 292.909091 -131.04851 
L 291.218182 -192.82859 
L 289.527273 -69.12826 
L 287.836364 -71.896624 
L 286.145455 -87.490575 
L 284.454545 -125.616909 
L 282.763636 -72.912859 
L 281.072727 -57.318908 
L 279.381818 -57.599249 
L 277.690909 -55.496694 
L 276 -140.615136 
L 274.309091 -126.598102 
L 272.618182 -57.844547 
L 270.927273 -58.265058 
L 269.236364 -102.45376 
L 267.545455 -70.740219 
L 265.854545 -47.962538 
L 264.163636 -60.612912 
L 262.472727 -98.809331 
L 260.781818 -98.143522 
L 259.090909 -116.926348 
L 257.4 -146.08178 
L 255.709091 -212.347311 
L 254.018182 -191.391844 
L 252.327273 -207.406306 
L 250.636364 -157.085152 
L 248.945455 -230.569456 
L 247.254545 -135.989515 
L 245.563636 -96.321307 
L 243.872727 -83.250422 
L 242.181818 -126.107506 
L 240.490909 -57.108653 
L 238.8 -163.217605 
L 237.109091 -114.963963 
L 235.418182 -137.321133 
L 233.727273 -179.056854 
L 232.036364 -127.824592 
L 230.345455 -117.732327 
L 228.654545 -101.017014 
L 226.963636 -100.56146 
L 225.272727 -112.791323 
L 223.581818 -57.564207 
L 221.890909 -63.241106 
L 220.2 -90.434153 
L 218.509091 -50.730902 
L 216.818182 -104.311017 
L 215.127273 -130.347659 
L 213.436364 -170.050909 
L 211.745455 -117.066518 
L 210.054545 -112.721238 
L 208.363636 -100.806758 
L 206.672727 -159.327878 
L 204.981818 -150.392018 
L 203.290909 -154.597128 
L 201.6 -94.569178 
L 199.909091 -129.541679 
L 198.218182 -106.483657 
L 196.527273 -92.081154 
L 194.836364 -78.554716 
L 193.145455 -82.619656 
L 191.454545 -129.261338 
L 189.763636 -85.563233 
L 188.072727 -89.382875 
L 186.381818 -81.147867 
L 184.690909 -125.231441 
L 183 -87.490575 
L 181.309091 -124.705802 
L 179.618182 -105.817848 
L 177.927273 -172.328677 
L 176.236364 -119.869925 
L 174.545455 -121.411799 
L 172.854545 -115.87507 
L 171.163636 -165.425288 
L 169.472727 -122.743417 
L 167.781818 -126.633144 
L 166.090909 -125.056228 
L 164.4 -194.755933 
L 162.709091 -134.517726 
L 161.018182 -128.385274 
L 159.327273 -51.817222 
L 157.636364 -95.199944 
L 155.945455 -115.454559 
L 154.254545 -62.925722 
L 152.563636 -83.705976 
L 150.872727 -70.635091 
L 149.181818 -109.287064 
L 147.490909 -105.747763 
L 145.8 -105.467422 
L 144.109091 -100.456332 
L 142.418182 -175.307297 
L 140.727273 -99.895651 
L 139.036364 -100.386247 
L 137.345455 -103.505037 
L 135.654545 -148.324505 
L 133.963636 -132.555342 
L 132.272727 -140.12454 
L 130.581818 -151.688594 
L 128.890909 -193.108931 
L 127.2 -184.873923 
L 125.509091 -149.866379 
L 123.818182 -99.685395 
L 122.127273 -110.72381 
L 120.436364 -113.281919 
L 118.745455 -76.452161 
L 117.054545 -85.913659 
L 115.363636 -69.899197 
z
" style="stroke: #008000; stroke-width: 0.5"/>
    </defs>
    <g clip-path="url(#pe17f7a722c)">
     <use xlink:href="#mae4c0afad1" x="0" y="288" style="fill: #008000; stroke: #008000; stroke-width: 0.5"/>
    </g>
   </g>
   <g id="line2d_26">
    <path d="M 90 44.64 
L 648 44.64 
" clip-path="url(#pe17f7a722c)" style="fill: none; stroke: #000000; stroke-width: 1.5; stroke-linecap: square"/>
   </g>
   <g id="line2d_27">
    <path d="M 90 168.971097 
L 648 168.971097 
" clip-path="url(#pe17f7a722c)" style="fill: none; stroke: #000000; stroke-width: 1.5; stroke-linecap: square"/>
   </g>
   <g id="patch_3">
    <path d="M 90 256.32 
L 90 34.56 
" style="fill: none; stroke: #000000; stroke-width: 0.8; stroke-linejoin: miter; stroke-linecap: square"/>
   </g>
   <g id="patch_4">
    <path d="M 648 256.32 
L 648 34.56 
" style="fill: none; stroke: #000000; stroke-width: 0.8; stroke-linejoin: miter; stroke-linecap: square"/>
   </g>
   <g id="patch_5">
    <path d="M 90 256.32 
L 648 256.32 
" style="fill: none; stroke: #000000; stroke-width: 0.8; stroke-linejoin: miter; stroke-linecap: square"/>
   </g>
   <g id="patch_6">
    <path d="M 90 34.56 
L 648 34.56 
" style="fill: none; stroke: #000000; stroke-width: 0.8; stroke-linejoin: miter; stroke-linecap: square"/>
   </g>
   <g id="text_21">
    <!-- peak (5,753) -->
    <g transform="translate(122.179233 41.3136) scale(0.1 -0.1)">
     <defs>
      <path id="DejaVuSans-Bold-70" d="M 1656 506 
L 1656 -1331 
L 538 -1331 
L 538 3500 
L 1656 3500 
L 1656 2988 
Q 1888 3294 2169 3439 
Q 2450 3584 2816 3584 
Q 3463 3584 3878 3070 
Q 4294 2556 4294 1747 
Q 4294 938 3878 423 
Q 3463 -91 2816 -91 
Q 2450 -91 2169 54 
Q 1888 200 1656 506 
z
M 2400 2772 
Q 2041 2772 1848 2508 
Q 1656 2244 1656 1747 
Q 1656 1250 1848 986 
Q 2041 722 2400 722 
Q 2759 722 2948 984 
Q 3138 1247 3138 1747 
Q 3138 2247 2948 2509 
Q 2759 2772 2400 2772 
z
" transform="scale(0.015625)"/>
      <path id="DejaVuSans-Bold-65" d="M 4031 1759 
L 4031 1441 
L 1416 1441 
Q 1456 1047 1700 850 
Q 1944 653 2381 653 
Q 2734 653 3104 758 
Q 3475 863 3866 1075 
L 3866 213 
Q 3469 63 3072 -14 
Q 2675 -91 2278 -91 
Q 1328 -91 801 392 
Q 275 875 275 1747 
Q 275 2603 792 3093 
Q 1309 3584 2216 3584 
Q 3041 3584 3536 3087 
Q 4031 2591 4031 1759 
z
M 2881 2131 
Q 2881 2450 2695 2645 
Q 2509 2841 2209 2841 
Q 1884 2841 1681 2658 
Q 1478 2475 1428 2131 
L 2881 2131 
z
" transform="scale(0.015625)"/>
      <path id="DejaVuSans-Bold-61" d="M 2106 1575 
Q 1756 1575 1579 1456 
Q 1403 1338 1403 1106 
Q 1403 894 1545 773 
Q 1688 653 1941 653 
Q 2256 653 2472 879 
Q 2688 1106 2688 1447 
L 2688 1575 
L 2106 1575 
z
M 3816 1997 
L 3816 0 
L 2688 0 
L 2688 519 
Q 2463 200 2181 54 
Q 1900 -91 1497 -91 
Q 953 -91 614 226 
Q 275 544 275 1050 
Q 275 1666 698 1953 
Q 1122 2241 2028 2241 
L 2688 2241 
L 2688 2328 
Q 2688 2594 2478 2717 
Q 2269 2841 1825 2841 
Q 1466 2841 1156 2769 
Q 847 2697 581 2553 
L 581 3406 
Q 941 3494 1303 3539 
Q 1666 3584 2028 3584 
Q 2975 3584 3395 3211 
Q 3816 2838 3816 1997 
z
" transform="scale(0.015625)"/>
      <path id="DejaVuSans-Bold-6b" d="M 538 4863 
L 1656 4863 
L 1656 2216 
L 2944 3500 
L 4244 3500 
L 2534 1894 
L 4378 0 
L 3022 0 
L 1656 1459 
L 1656 0 
L 538 0 
L 538 4863 
z
" transform="scale(0.015625)"/>
      <path id="DejaVuSans-Bold-20" transform="scale(0.015625)"/>
      <path id="DejaVuSans-Bold-28" d="M 2413 -844 
L 1484 -844 
Q 1006 -72 778 623 
Q 550 1319 550 2003 
Q 550 2688 779 3389 
Q 1009 4091 1484 4856 
L 2413 4856 
Q 2013 4116 1813 3408 
Q 1613 2700 1613 2009 
Q 1613 1319 1811 609 
Q 2009 -100 2413 -844 
z
" transform="scale(0.015625)"/>
      <path id="DejaVuSans-Bold-35" d="M 678 4666 
L 3669 4666 
L 3669 3781 
L 1638 3781 
L 1638 3059 
Q 1775 3097 1914 3117 
Q 2053 3138 2203 3138 
Q 3056 3138 3531 2711 
Q 4006 2284 4006 1522 
Q 4006 766 3489 337 
Q 2972 -91 2053 -91 
Q 1656 -91 1267 -14 
Q 878 63 494 219 
L 494 1166 
Q 875 947 1217 837 
Q 1559 728 1863 728 
Q 2300 728 2551 942 
Q 2803 1156 2803 1522 
Q 2803 1891 2551 2103 
Q 2300 2316 1863 2316 
Q 1603 2316 1309 2248 
Q 1016 2181 678 2041 
L 678 4666 
z
" transform="scale(0.015625)"/>
      <path id="DejaVuSans-Bold-2c" d="M 653 1209 
L 1778 1209 
L 1778 256 
L 1006 -909 
L 341 -909 
L 653 256 
L 653 1209 
z
" transform="scale(0.015625)"/>
      <path id="DejaVuSans-Bold-37" d="M 428 4666 
L 3944 4666 
L 3944 3988 
L 2125 0 
L 953 0 
L 2675 3781 
L 428 3781 
L 428 4666 
z
" transform="scale(0.015625)"/>
      <path id="DejaVuSans-Bold-33" d="M 2981 2516 
Q 3453 2394 3698 2092 
Q 3944 1791 3944 1325 
Q 3944 631 3412 270 
Q 2881 -91 1863 -91 
Q 1503 -91 1142 -33 
Q 781 25 428 141 
L 428 1069 
Q 766 900 1098 814 
Q 1431 728 1753 728 
Q 2231 728 2486 893 
Q 2741 1059 2741 1369 
Q 2741 1688 2480 1852 
Q 2219 2016 1709 2016 
L 1228 2016 
L 1228 2791 
L 1734 2791 
Q 2188 2791 2409 2933 
Q 2631 3075 2631 3366 
Q 2631 3634 2415 3781 
Q 2200 3928 1806 3928 
Q 1516 3928 1219 3862 
Q 922 3797 628 3669 
L 628 4550 
Q 984 4650 1334 4700 
Q 1684 4750 2022 4750 
Q 2931 4750 3382 4451 
Q 3834 4153 3834 3553 
Q 3834 3144 3618 2883 
Q 3403 2622 2981 2516 
z
" transform="scale(0.015625)"/>
      <path id="DejaVuSans-Bold-29" d="M 513 -844 
Q 913 -100 1113 609 
Q 1313 1319 1313 2009 
Q 1313 2700 1113 3408 
Q 913 4116 513 4856 
L 1441 4856 
Q 1916 4091 2145 3389 
Q 2375 2688 2375 2003 
Q 2375 1319 2147 623 
Q 1919 -72 1441 -844 
L 513 -844 
z
" transform="scale(0.015625)"/>
     </defs>
     <use xlink:href="#DejaVuSans-Bold-70"/>
     <use xlink:href="#DejaVuSans-Bold-65" x="71.582031"/>
     <use xlink:href="#DejaVuSans-Bold-61" x="139.404297"/>
     <use xlink:href="#DejaVuSans-Bold-6b" x="206.884766"/>
     <use xlink:href="#DejaVuSans-Bold-20" x="273.388672"/>
     <use xlink:href="#DejaVuSans-Bold-28" x="308.203125"/>
     <use xlink:href="#DejaVuSans-Bold-35" x="353.90625"/>
     <use xlink:href="#DejaVuSans-Bold-2c" x="423.486328"/>
     <use xlink:href="#DejaVuSans-Bold-37" x="461.474609"/>
     <use xlink:href="#DejaVuSans-Bold-35" x="531.054688"/>
     <use xlink:href="#DejaVuSans-Bold-33" x="600.634766"/>
     <use xlink:href="#DejaVuSans-Bold-29" x="670.214844"/>
    </g>
   </g>
   <g id="text_22">
    <!-- mean (2,205) -->
    <g transform="translate(567.728153 165.644697) scale(0.1 -0.1)">
     <defs>
      <path id="DejaVuSans-Bold-6d" d="M 3781 2919 
Q 3994 3244 4286 3414 
Q 4578 3584 4928 3584 
Q 5531 3584 5847 3212 
Q 6163 2841 6163 2131 
L 6163 0 
L 5038 0 
L 5038 1825 
Q 5041 1866 5042 1909 
Q 5044 1953 5044 2034 
Q 5044 2406 4934 2573 
Q 4825 2741 4581 2741 
Q 4263 2741 4089 2478 
Q 3916 2216 3909 1719 
L 3909 0 
L 2784 0 
L 2784 1825 
Q 2784 2406 2684 2573 
Q 2584 2741 2328 2741 
Q 2006 2741 1831 2477 
Q 1656 2213 1656 1722 
L 1656 0 
L 531 0 
L 531 3500 
L 1656 3500 
L 1656 2988 
Q 1863 3284 2130 3434 
Q 2397 3584 2719 3584 
Q 3081 3584 3359 3409 
Q 3638 3234 3781 2919 
z
" transform="scale(0.015625)"/>
      <path id="DejaVuSans-Bold-6e" d="M 4056 2131 
L 4056 0 
L 2931 0 
L 2931 347 
L 2931 1631 
Q 2931 2084 2911 2256 
Q 2891 2428 2841 2509 
Q 2775 2619 2662 2680 
Q 2550 2741 2406 2741 
Q 2056 2741 1856 2470 
Q 1656 2200 1656 1722 
L 1656 0 
L 538 0 
L 538 3500 
L 1656 3500 
L 1656 2988 
Q 1909 3294 2193 3439 
Q 2478 3584 2822 3584 
Q 3428 3584 3742 3212 
Q 4056 2841 4056 2131 
z
" transform="scale(0.015625)"/>
      <path id="DejaVuSans-Bold-32" d="M 1844 884 
L 3897 884 
L 3897 0 
L 506 0 
L 506 884 
L 2209 2388 
Q 2438 2594 2547 2791 
Q 2656 2988 2656 3200 
Q 2656 3528 2436 3728 
Q 2216 3928 1850 3928 
Q 1569 3928 1234 3808 
Q 900 3688 519 3450 
L 519 4475 
Q 925 4609 1322 4679 
Q 1719 4750 2100 4750 
Q 2938 4750 3402 4381 
Q 3866 4013 3866 3353 
Q 3866 2972 3669 2642 
Q 3472 2313 2841 1759 
L 1844 884 
z
" transform="scale(0.015625)"/>
      <path id="DejaVuSans-Bold-30" d="M 2944 2338 
Q 2944 3213 2780 3570 
Q 2616 3928 2228 3928 
Q 1841 3928 1675 3570 
Q 1509 3213 1509 2338 
Q 1509 1453 1675 1090 
Q 1841 728 2228 728 
Q 2613 728 2778 1090 
Q 2944 1453 2944 2338 
z
M 4147 2328 
Q 4147 1169 3647 539 
Q 3147 -91 2228 -91 
Q 1306 -91 806 539 
Q 306 1169 306 2328 
Q 306 3491 806 4120 
Q 1306 4750 2228 4750 
Q 3147 4750 3647 4120 
Q 4147 3491 4147 2328 
z
" transform="scale(0.015625)"/>
     </defs>
     <use xlink:href="#DejaVuSans-Bold-6d"/>
     <use xlink:href="#DejaVuSans-Bold-65" x="104.199219"/>
     <use xlink:href="#DejaVuSans-Bold-61" x="172.021484"/>
     <use xlink:href="#DejaVuSans-Bold-6e" x="239.501953"/>
     <use xlink:href="#DejaVuSans-Bold-20" x="310.693359"/>
     <use xlink:href="#DejaVuSans-Bold-28" x="345.507812"/>
     <use xlink:href="#DejaVuSans-Bold-32" x="391.210938"/>
     <use xlink:href="#DejaVuSans-Bold-2c" x="460.791016"/>
     <use xlink:href="#DejaVuSans-Bold-32" x="498.779297"/>
     <use xlink:href="#DejaVuSans-Bold-30" x="568.359375"/>
     <use xlink:href="#DejaVuSans-Bold-35" x="637.939453"/>
     <use xlink:href="#DejaVuSans-Bold-29" x="707.519531"/>
    </g>
   </g>
   <g id="text_23">
    <!-- Stream Bitrate over Time -->
    <g transform="translate(293.189062 28.56) scale(0.12 -0.12)">
     <defs>
      <path id="DejaVuSans-53" d="M 3425 4513 
L 3425 3897 
Q 3066 4069 2747 4153 
Q 2428 4238 2131 4238 
Q 1616 4238 1336 4038 
Q 1056 3838 1056 3469 
Q 1056 3159 1242 3001 
Q 1428 2844 1947 2747 
L 2328 2669 
Q 3034 2534 3370 2195 
Q 3706 1856 3706 1288 
Q 3706 609 3251 259 
Q 2797 -91 1919 -91 
Q 1588 -91 1214 -16 
Q 841 59 441 206 
L 441 856 
Q 825 641 1194 531 
Q 1563 422 1919 422 
Q 2459 422 2753 634 
Q 3047 847 3047 1241 
Q 3047 1584 2836 1778 
Q 2625 1972 2144 2069 
L 1759 2144 
Q 1053 2284 737 2584 
Q 422 2884 422 3419 
Q 422 4038 858 4394 
Q 1294 4750 2059 4750 
Q 2388 4750 2728 4690 
Q 3069 4631 3425 4513 
z
" transform="scale(0.015625)"/>
      <path id="DejaVuSans-6f" d="M 1959 3097 
Q 1497 3097 1228 2736 
Q 959 2375 959 1747 
Q 959 1119 1226 758 
Q 1494 397 1959 397 
Q 2419 397 2687 759 
Q 2956 1122 2956 1747 
Q 2956 2369 2687 2733 
Q 2419 3097 1959 3097 
z
M 1959 3584 
Q 2709 3584 3137 3096 
Q 3566 2609 3566 1747 
Q 3566 888 3137 398 
Q 2709 -91 1959 -91 
Q 1206 -91 779 398 
Q 353 888 353 1747 
Q 353 2609 779 3096 
Q 1206 3584 1959 3584 
z
" transform="scale(0.015625)"/>
      <path id="DejaVuSans-76" d="M 191 3500 
L 800 3500 
L 1894 563 
L 2988 3500 
L 3597 3500 
L 2284 0 
L 1503 0 
L 191 3500 
z
" transform="scale(0.015625)"/>
     </defs>
     <use xlink:href="#DejaVuSans-53"/>
     <use xlink:href="#DejaVuSans-74" x="63.476562"/>
     <use xlink:href="#DejaVuSans-72" x="102.685547"/>
     <use xlink:href="#DejaVuSans-65" x="141.548828"/>
     <use xlink:href="#DejaVuSans-61" x="203.072266"/>
     <use xlink:href="#DejaVuSans-6d" x="264.351562"/>
     <use xlink:href="#DejaVuSans-20" x="361.763672"/>
     <use xlink:href="#DejaVuSans-42" x="393.550781"/>
     <use xlink:href="#DejaVuSans-69" x="462.154297"/>
     <use xlink:href="#DejaVuSans-74" x="489.9375"/>
     <use xlink:href="#DejaVuSans-72" x="529.146484"/>
     <use xlink:href="#DejaVuSans-61" x="570.259766"/>
     <use xlink:href="#DejaVuSans-74" x="631.539062"/>
     <use xlink:href="#DejaVuSans-65" x="670.748047"/>
     <use xlink:href="#DejaVuSans-20" x="732.271484"/>
     <use xlink:href="#DejaVuSans-6f" x="764.058594"/>
     <use xlink:href="#DejaVuSans-76" x="825.240234"/>
     <use xlink:href="#DejaVuSans-65" x="884.419922"/>
     <use xlink:href="#DejaVuSans-72" x="945.943359"/>
     <use xlink:href="#DejaVuSans-20" x="987.056641"/>
     <use xlink:href="#DejaVuSans-54" x="1018.84375"/>
     <use xlink:href="#DejaVuSans-69" x="1076.802734"/>
     <use xlink:href="#DejaVuSans-6d" x="1104.585938"/>
     <use xlink:href="#DejaVuSans-65" x="1201.998047"/>
    </g>
   </g>
   <g id="legend_1">
    <g id="patch_7">
     <path d="M 602.139063 86.594375 
L 641 86.594375 
Q 643 86.594375 643 84.594375 
L 643 41.56 
Q 643 39.56 641 39.56 
L 602.139063 39.56 
Q 600.139063 39.56 600.139063 41.56 
L 600.139063 84.594375 
Q 600.139063 86.594375 602.139063 86.594375 
z
" style="fill: #ffffff; opacity: 0.8; stroke: #cccccc; stroke-linejoin: miter"/>
    </g>
    <g id="patch_8">
     <path d="M 604.139063 51.158438 
L 624.139063 51.158438 
L 624.139063 44.158438 
L 604.139063 44.158438 
z
" style="fill: #ff0000; stroke: #ff0000; stroke-width: 0.5; stroke-linejoin: miter"/>
    </g>
    <g id="text_24">
     <!-- I -->
     <g transform="translate(632.139063 51.158438) scale(0.1 -0.1)">
      <defs>
       <path id="DejaVuSans-49" d="M 628 4666 
L 1259 4666 
L 1259 0 
L 628 0 
L 628 4666 
z
" transform="scale(0.015625)"/>
      </defs>
      <use xlink:href="#DejaVuSans-49"/>
     </g>
    </g>
    <g id="patch_9">
     <path d="M 604.139063 65.836563 
L 624.139063 65.836563 
L 624.139063 58.836563 
L 604.139063 58.836563 
z
" style="fill: #0000ff; stroke: #0000ff; stroke-width: 0.5; stroke-linejoin: miter"/>
    </g>
    <g id="text_25">
     <!-- B -->
     <g transform="translate(632.139063 65.836563) scale(0.1 -0.1)">
      <use xlink:href="#DejaVuSans-42"/>
     </g>
    </g>
    <g id="patch_10">
     <path d="M 604.139063 80.514688 
L 624.139063 80.514688 
L 624.139063 73.514688 
L 604.139063 73.514688 
z
" style="fill: #008000; stroke: #008000; stroke-width: 0.5; stroke-linejoin: miter"/>
    </g>
    <g id="text_26">
     <!-- P -->
     <g transform="translate(632.139063 80.514688) scale(0.1 -0.1)">
      <defs>
       <path id="DejaVuSans-50" d="M 1259 4147 
L 1259 2394 
L 2053 2394 
Q 2494 2394 2734 2622 
Q 2975 2850 2975 3272 
Q 2975 3691 2734 3919 
Q 2494 4147 2053 4147 
L 1259 4147 
z
M 628 4666 
L 2053 4666 
Q 2838 4666 3239 4311 
Q 3641 3956 3641 3272 
Q 3641 2581 3239 2228 
Q 2838 1875 2053 1875 
L 1259 1875 
L 1259 0 
L 628 0 
L 628 4666 
z
" transform="scale(0.015625)"/>
      </defs>
      <use xlink:href="#DejaVuSans-50"/>
     </g>
    </g>
   </g>
  </g>
 </g>
 <defs>
  <clipPath id="pe17f7a722c">
   <rect x="90" y="34.56" width="558" height="221.76"/>
  </clipPath>
 </defs>
</svg>
