<?xml version="1.0" encoding="utf-8" standalone="no"?>
<!DOCTYPE svg PUBLIC "-//W3C//DTD SVG 1.1//EN"
  "http://www.w3.org/Graphics/SVG/1.1/DTD/svg11.dtd">
<svg xmlns:xlink="http://www.w3.org/1999/xlink" width="720pt" height="288pt" viewBox="0 0 720 288" xmlns="http://www.w3.org/2000/svg" version="1.1">
 <metadata>
  <rdf:RDF xmlns:dc="http://purl.org/dc/elements/1.1/" xmlns:cc="http://creativecommons.org/ns#" xmlns:rdf="http://www.w3.org/1999/02/22-rdf-syntax-ns#">
   <cc:Work>
    <dc:type rdf:resource="http://purl.org/dc/dcmitype/StillImage"/>
    <dc:date>2023-05-07T02:03:31.782963</dc:date>
    <dc:format>image/svg+xml</dc:format>
    <dc:creator>
     <cc:Agent>
      <dc:title>Matplotlib v3.7.1, https://matplotlib.org/</dc:title>
     </cc:Agent>
    </dc:creator>
   </cc:Work>
  </rdf:RDF>
 </metadata>
 <defs>
  <style type="text/css">*{stroke-linejoin: round; stroke-linecap: butt}</style>
 </defs>
 <g id="figure_1">
  <g id="patch_1">
   <path d="M 0 288 
L 720 288 
L 720 0 
L 0 0 
z
" style="fill: #ffffff"/>
  </g>
  <g id="axes_1">
   <g id="patch_2">
    <path d="M 90 256.32 
L 648 256.32 
L 648 34.56 
L 90 34.56 
z
" style="fill: #ffffff"/>
   </g>
   <g id="matplotlib.axis_1">
    <g id="xtick_1">
     <g id="line2d_1">
      <defs>
       <path id="mcdf88b183a" d="M 0 0 
L 0 3.5 
" style="stroke: #000000; stroke-width: 0.8"/>
      </defs>
      <g>
       <use xlink:href="#mcdf88b183a" x="115.363636" y="256.32" style="stroke: #000000; stroke-width: 0.8"/>
      </g>
     </g>
     <g id="text_1">
      <!-- 0:00:00 -->
      <g transform="translate(96.088636 270.918437) scale(0.1 -0.1)">
       <defs>
        <path id="DejaVuSans-30" d="M 2034 4250 
Q 1547 4250 1301 3770 
Q 1056 3291 1056 2328 
Q 1056 1369 1301 889 
Q 1547 409 2034 409 
Q 2525 409 2770 889 
Q 3016 1369 3016 2328 
Q 3016 3291 2770 3770 
Q 2525 4250 2034 4250 
z
M 2034 4750 
Q 2819 4750 3233 4129 
Q 3647 3509 3647 2328 
Q 3647 1150 3233 529 
Q 2819 -91 2034 -91 
Q 1250 -91 836 529 
Q 422 1150 422 2328 
Q 422 3509 836 4129 
Q 1250 4750 2034 4750 
z
" transform="scale(0.015625)"/>
        <path id="DejaVuSans-3a" d="M 750 794 
L 1409 794 
L 1409 0 
L 750 0 
L 750 794 
z
M 750 3309 
L 1409 3309 
L 1409 2516 
L 750 2516 
L 750 3309 
z
" transform="scale(0.015625)"/>
       </defs>
       <use xlink:href="#DejaVuSans-30"/>
       <use xlink:href="#DejaVuSans-3a" x="63.623047"/>
       <use xlink:href="#DejaVuSans-30" x="97.314453"/>
       <use xlink:href="#DejaVuSans-30" x="160.9375"/>
       <use xlink:href="#DejaVuSans-3a" x="224.560547"/>
       <use xlink:href="#DejaVuSans-30" x="258.251953"/>
       <use xlink:href="#DejaVuSans-30" x="321.875"/>
      </g>
     </g>
    </g>
    <g id="xtick_2">
     <g id="line2d_2">
      <g>
       <use xlink:href="#mcdf88b183a" x="166.090909" y="256.32" style="stroke: #000000; stroke-width: 0.8"/>
      </g>
     </g>
     <g id="text_2">
      <!-- 0:00:30 -->
      <g transform="translate(146.815909 270.918437) scale(0.1 -0.1)">
       <defs>
        <path id="DejaVuSans-33" d="M 2597 2516 
Q 3050 2419 3304 2112 
Q 3559 1806 3559 1356 
Q 3559 666 3084 287 
Q 2609 -91 1734 -91 
Q 1441 -91 1130 -33 
Q 819 25 488 141 
L 488 750 
Q 750 597 1062 519 
Q 1375 441 1716 441 
Q 2309 441 2620 675 
Q 2931 909 2931 1356 
Q 2931 1769 2642 2001 
Q 2353 2234 1838 2234 
L 1294 2234 
L 1294 2753 
L 1863 2753 
Q 2328 2753 2575 2939 
Q 2822 3125 2822 3475 
Q 2822 3834 2567 4026 
Q 2313 4219 1838 4219 
Q 1578 4219 1281 4162 
Q 984 4106 628 3988 
L 628 4550 
Q 988 4650 1302 4700 
Q 1616 4750 1894 4750 
Q 2613 4750 3031 4423 
Q 3450 4097 3450 3541 
Q 3450 3153 3228 2886 
Q 3006 2619 2597 2516 
z
" transform="scale(0.015625)"/>
       </defs>
       <use xlink:href="#DejaVuSans-30"/>
       <use xlink:href="#DejaVuSans-3a" x="63.623047"/>
       <use xlink:href="#DejaVuSans-30" x="97.314453"/>
       <use xlink:href="#DejaVuSans-30" x="160.9375"/>
       <use xlink:href="#DejaVuSans-3a" x="224.560547"/>
       <use xlink:href="#DejaVuSans-33" x="258.251953"/>
       <use xlink:href="#DejaVuSans-30" x="321.875"/>
      </g>
     </g>
    </g>
    <g id="xtick_3">
     <g id="line2d_3">
      <g>
       <use xlink:href="#mcdf88b183a" x="216.818182" y="256.32" style="stroke: #000000; stroke-width: 0.8"/>
      </g>
     </g>
     <g id="text_3">
      <!-- 0:01:00 -->
      <g transform="translate(197.543182 270.918437) scale(0.1 -0.1)">
       <defs>
        <path id="DejaVuSans-31" d="M 794 531 
L 1825 531 
L 1825 4091 
L 703 3866 
L 703 4441 
L 1819 4666 
L 2450 4666 
L 2450 531 
L 3481 531 
L 3481 0 
L 794 0 
L 794 531 
z
" transform="scale(0.015625)"/>
       </defs>
       <use xlink:href="#DejaVuSans-30"/>
       <use xlink:href="#DejaVuSans-3a" x="63.623047"/>
       <use xlink:href="#DejaVuSans-30" x="97.314453"/>
       <use xlink:href="#DejaVuSans-31" x="160.9375"/>
       <use xlink:href="#DejaVuSans-3a" x="224.560547"/>
       <use xlink:href="#DejaVuSans-30" x="258.251953"/>
       <use xlink:href="#DejaVuSans-30" x="321.875"/>
      </g>
     </g>
    </g>
    <g id="xtick_4">
     <g id="line2d_4">
      <g>
       <use xlink:href="#mcdf88b183a" x="267.545455" y="256.32" style="stroke: #000000; stroke-width: 0.8"/>
      </g>
     </g>
     <g id="text_4">
      <!-- 0:01:30 -->
      <g transform="translate(248.270455 270.918437) scale(0.1 -0.1)">
       <use xlink:href="#DejaVuSans-30"/>
       <use xlink:href="#DejaVuSans-3a" x="63.623047"/>
       <use xlink:href="#DejaVuSans-30" x="97.314453"/>
       <use xlink:href="#DejaVuSans-31" x="160.9375"/>
       <use xlink:href="#DejaVuSans-3a" x="224.560547"/>
       <use xlink:href="#DejaVuSans-33" x="258.251953"/>
       <use xlink:href="#DejaVuSans-30" x="321.875"/>
      </g>
     </g>
    </g>
    <g id="xtick_5">
     <g id="line2d_5">
      <g>
       <use xlink:href="#mcdf88b183a" x="318.272727" y="256.32" style="stroke: #000000; stroke-width: 0.8"/>
      </g>
     </g>
     <g id="text_5">
      <!-- 0:02:00 -->
      <g transform="translate(298.997727 270.918437) scale(0.1 -0.1)">
       <defs>
        <path id="DejaVuSans-32" d="M 1228 531 
L 3431 531 
L 3431 0 
L 469 0 
L 469 531 
Q 828 903 1448 1529 
Q 2069 2156 2228 2338 
Q 2531 2678 2651 2914 
Q 2772 3150 2772 3378 
Q 2772 3750 2511 3984 
Q 2250 4219 1831 4219 
Q 1534 4219 1204 4116 
Q 875 4013 500 3803 
L 500 4441 
Q 881 4594 1212 4672 
Q 1544 4750 1819 4750 
Q 2544 4750 2975 4387 
Q 3406 4025 3406 3419 
Q 3406 3131 3298 2873 
Q 3191 2616 2906 2266 
Q 2828 2175 2409 1742 
Q 1991 1309 1228 531 
z
" transform="scale(0.015625)"/>
       </defs>
       <use xlink:href="#DejaVuSans-30"/>
       <use xlink:href="#DejaVuSans-3a" x="63.623047"/>
       <use xlink:href="#DejaVuSans-30" x="97.314453"/>
       <use xlink:href="#DejaVuSans-32" x="160.9375"/>
       <use xlink:href="#DejaVuSans-3a" x="224.560547"/>
       <use xlink:href="#DejaVuSans-30" x="258.251953"/>
       <use xlink:href="#DejaVuSans-30" x="321.875"/>
      </g>
     </g>
    </g>
    <g id="xtick_6">
     <g id="line2d_6">
      <g>
       <use xlink:href="#mcdf88b183a" x="369" y="256.32" style="stroke: #000000; stroke-width: 0.8"/>
      </g>
     </g>
     <g id="text_6">
      <!-- 0:02:30 -->
      <g transform="translate(349.725 270.918437) scale(0.1 -0.1)">
       <use xlink:href="#DejaVuSans-30"/>
       <use xlink:href="#DejaVuSans-3a" x="63.623047"/>
       <use xlink:href="#DejaVuSans-30" x="97.314453"/>
       <use xlink:href="#DejaVuSans-32" x="160.9375"/>
       <use xlink:href="#DejaVuSans-3a" x="224.560547"/>
       <use xlink:href="#DejaVuSans-33" x="258.251953"/>
       <use xlink:href="#DejaVuSans-30" x="321.875"/>
      </g>
     </g>
    </g>
    <g id="xtick_7">
     <g id="line2d_7">
      <g>
       <use xlink:href="#mcdf88b183a" x="419.727273" y="256.32" style="stroke: #000000; stroke-width: 0.8"/>
      </g>
     </g>
     <g id="text_7">
      <!-- 0:03:00 -->
      <g transform="translate(400.452273 270.918437) scale(0.1 -0.1)">
       <use xlink:href="#DejaVuSans-30"/>
       <use xlink:href="#DejaVuSans-3a" x="63.623047"/>
       <use xlink:href="#DejaVuSans-30" x="97.314453"/>
       <use xlink:href="#DejaVuSans-33" x="160.9375"/>
       <use xlink:href="#DejaVuSans-3a" x="224.560547"/>
       <use xlink:href="#DejaVuSans-30" x="258.251953"/>
       <use xlink:href="#DejaVuSans-30" x="321.875"/>
      </g>
     </g>
    </g>
    <g id="xtick_8">
     <g id="line2d_8">
      <g>
       <use xlink:href="#mcdf88b183a" x="470.454545" y="256.32" style="stroke: #000000; stroke-width: 0.8"/>
      </g>
     </g>
     <g id="text_8">
      <!-- 0:03:30 -->
      <g transform="translate(451.179545 270.918437) scale(0.1 -0.1)">
       <use xlink:href="#DejaVuSans-30"/>
       <use xlink:href="#DejaVuSans-3a" x="63.623047"/>
       <use xlink:href="#DejaVuSans-30" x="97.314453"/>
       <use xlink:href="#DejaVuSans-33" x="160.9375"/>
       <use xlink:href="#DejaVuSans-3a" x="224.560547"/>
       <use xlink:href="#DejaVuSans-33" x="258.251953"/>
       <use xlink:href="#DejaVuSans-30" x="321.875"/>
      </g>
     </g>
    </g>
    <g id="xtick_9">
     <g id="line2d_9">
      <g>
       <use xlink:href="#mcdf88b183a" x="521.181818" y="256.32" style="stroke: #000000; stroke-width: 0.8"/>
      </g>
     </g>
     <g id="text_9">
      <!-- 0:04:00 -->
      <g transform="translate(501.906818 270.918437) scale(0.1 -0.1)">
       <defs>
        <path id="DejaVuSans-34" d="M 2419 4116 
L 825 1625 
L 2419 1625 
L 2419 4116 
z
M 2253 4666 
L 3047 4666 
L 3047 1625 
L 3713 1625 
L 3713 1100 
L 3047 1100 
L 3047 0 
L 2419 0 
L 2419 1100 
L 313 1100 
L 313 1709 
L 2253 4666 
z
" transform="scale(0.015625)"/>
       </defs>
       <use xlink:href="#DejaVuSans-30"/>
       <use xlink:href="#DejaVuSans-3a" x="63.623047"/>
       <use xlink:href="#DejaVuSans-30" x="97.314453"/>
       <use xlink:href="#DejaVuSans-34" x="160.9375"/>
       <use xlink:href="#DejaVuSans-3a" x="224.560547"/>
       <use xlink:href="#DejaVuSans-30" x="258.251953"/>
       <use xlink:href="#DejaVuSans-30" x="321.875"/>
      </g>
     </g>
    </g>
    <g id="xtick_10">
     <g id="line2d_10">
      <g>
       <use xlink:href="#mcdf88b183a" x="571.909091" y="256.32" style="stroke: #000000; stroke-width: 0.8"/>
      </g>
     </g>
     <g id="text_10">
      <!-- 0:04:30 -->
      <g transform="translate(552.634091 270.918437) scale(0.1 -0.1)">
       <use xlink:href="#DejaVuSans-30"/>
       <use xlink:href="#DejaVuSans-3a" x="63.623047"/>
       <use xlink:href="#DejaVuSans-30" x="97.314453"/>
       <use xlink:href="#DejaVuSans-34" x="160.9375"/>
       <use xlink:href="#DejaVuSans-3a" x="224.560547"/>
       <use xlink:href="#DejaVuSans-33" x="258.251953"/>
       <use xlink:href="#DejaVuSans-30" x="321.875"/>
      </g>
     </g>
    </g>
    <g id="xtick_11">
     <g id="line2d_11">
      <g>
       <use xlink:href="#mcdf88b183a" x="622.636364" y="256.32" style="stroke: #000000; stroke-width: 0.8"/>
      </g>
     </g>
     <g id="text_11">
      <!-- 0:05:00 -->
      <g transform="translate(603.361364 270.918437) scale(0.1 -0.1)">
       <defs>
        <path id="DejaVuSans-35" d="M 691 4666 
L 3169 4666 
L 3169 4134 
L 1269 4134 
L 1269 2991 
Q 1406 3038 1543 3061 
Q 1681 3084 1819 3084 
Q 2600 3084 3056 2656 
Q 3513 2228 3513 1497 
Q 3513 744 3044 326 
Q 2575 -91 1722 -91 
Q 1428 -91 1123 -41 
Q 819 9 494 109 
L 494 744 
Q 775 591 1075 516 
Q 1375 441 1709 441 
Q 2250 441 2565 725 
Q 2881 1009 2881 1497 
Q 2881 1984 2565 2268 
Q 2250 2553 1709 2553 
Q 1456 2553 1204 2497 
Q 953 2441 691 2322 
L 691 4666 
z
" transform="scale(0.015625)"/>
       </defs>
       <use xlink:href="#DejaVuSans-30"/>
       <use xlink:href="#DejaVuSans-3a" x="63.623047"/>
       <use xlink:href="#DejaVuSans-30" x="97.314453"/>
       <use xlink:href="#DejaVuSans-35" x="160.9375"/>
       <use xlink:href="#DejaVuSans-3a" x="224.560547"/>
       <use xlink:href="#DejaVuSans-30" x="258.251953"/>
       <use xlink:href="#DejaVuSans-30" x="321.875"/>
      </g>
     </g>
    </g>
    <g id="text_12">
     <!-- Time -->
     <g transform="translate(356.766406 284.596563) scale(0.1 -0.1)">
      <defs>
       <path id="DejaVuSans-54" d="M -19 4666 
L 3928 4666 
L 3928 4134 
L 2272 4134 
L 2272 0 
L 1638 0 
L 1638 4134 
L -19 4134 
L -19 4666 
z
" transform="scale(0.015625)"/>
       <path id="DejaVuSans-69" d="M 603 3500 
L 1178 3500 
L 1178 0 
L 603 0 
L 603 3500 
z
M 603 4863 
L 1178 4863 
L 1178 4134 
L 603 4134 
L 603 4863 
z
" transform="scale(0.015625)"/>
       <path id="DejaVuSans-6d" d="M 3328 2828 
Q 3544 3216 3844 3400 
Q 4144 3584 4550 3584 
Q 5097 3584 5394 3201 
Q 5691 2819 5691 2113 
L 5691 0 
L 5113 0 
L 5113 2094 
Q 5113 2597 4934 2840 
Q 4756 3084 4391 3084 
Q 3944 3084 3684 2787 
Q 3425 2491 3425 1978 
L 3425 0 
L 2847 0 
L 2847 2094 
Q 2847 2600 2669 2842 
Q 2491 3084 2119 3084 
Q 1678 3084 1418 2786 
Q 1159 2488 1159 1978 
L 1159 0 
L 581 0 
L 581 3500 
L 1159 3500 
L 1159 2956 
Q 1356 3278 1631 3431 
Q 1906 3584 2284 3584 
Q 2666 3584 2933 3390 
Q 3200 3197 3328 2828 
z
" transform="scale(0.015625)"/>
       <path id="DejaVuSans-65" d="M 3597 1894 
L 3597 1613 
L 953 1613 
Q 991 1019 1311 708 
Q 1631 397 2203 397 
Q 2534 397 2845 478 
Q 3156 559 3463 722 
L 3463 178 
Q 3153 47 2828 -22 
Q 2503 -91 2169 -91 
Q 1331 -91 842 396 
Q 353 884 353 1716 
Q 353 2575 817 3079 
Q 1281 3584 2069 3584 
Q 2775 3584 3186 3129 
Q 3597 2675 3597 1894 
z
M 3022 2063 
Q 3016 2534 2758 2815 
Q 2500 3097 2075 3097 
Q 1594 3097 1305 2825 
Q 1016 2553 972 2059 
L 3022 2063 
z
" transform="scale(0.015625)"/>
      </defs>
      <use xlink:href="#DejaVuSans-54"/>
      <use xlink:href="#DejaVuSans-69" x="57.958984"/>
      <use xlink:href="#DejaVuSans-6d" x="85.742188"/>
      <use xlink:href="#DejaVuSans-65" x="183.154297"/>
     </g>
    </g>
   </g>
   <g id="matplotlib.axis_2">
    <g id="ytick_1">
     <g id="line2d_12">
      <path d="M 90 246.24 
L 648 246.24 
" clip-path="url(#p1703635d53)" style="fill: none; stroke: #b0b0b0; stroke-width: 0.8; stroke-linecap: square"/>
     </g>
     <g id="line2d_13">
      <defs>
       <path id="mbc255b26e8" d="M 0 0 
L -3.5 0 
" style="stroke: #000000; stroke-width: 0.8"/>
      </defs>
      <g>
       <use xlink:href="#mbc255b26e8" x="90" y="246.24" style="stroke: #000000; stroke-width: 0.8"/>
      </g>
     </g>
     <g id="text_13">
      <!-- 0 -->
      <g transform="translate(76.6375 250.039219) scale(0.1 -0.1)">
       <use xlink:href="#DejaVuSans-30"/>
      </g>
     </g>
    </g>
    <g id="ytick_2">
     <g id="line2d_14">
      <path d="M 90 211.74308 
L 648 211.74308 
" clip-path="url(#p1703635d53)" style="fill: none; stroke: #b0b0b0; stroke-width: 0.8; stroke-linecap: square"/>
     </g>
     <g id="line2d_15">
      <g>
       <use xlink:href="#mbc255b26e8" x="90" y="211.74308" style="stroke: #000000; stroke-width: 0.8"/>
      </g>
     </g>
     <g id="text_14">
      <!-- 1,000 -->
      <g transform="translate(54.371875 215.542299) scale(0.1 -0.1)">
       <defs>
        <path id="DejaVuSans-2c" d="M 750 794 
L 1409 794 
L 1409 256 
L 897 -744 
L 494 -744 
L 750 256 
L 750 794 
z
" transform="scale(0.015625)"/>
       </defs>
       <use xlink:href="#DejaVuSans-31"/>
       <use xlink:href="#DejaVuSans-2c" x="63.623047"/>
       <use xlink:href="#DejaVuSans-30" x="95.410156"/>
       <use xlink:href="#DejaVuSans-30" x="159.033203"/>
       <use xlink:href="#DejaVuSans-30" x="222.65625"/>
      </g>
     </g>
    </g>
    <g id="ytick_3">
     <g id="line2d_16">
      <path d="M 90 177.24616 
L 648 177.24616 
" clip-path="url(#p1703635d53)" style="fill: none; stroke: #b0b0b0; stroke-width: 0.8; stroke-linecap: square"/>
     </g>
     <g id="line2d_17">
      <g>
       <use xlink:href="#mbc255b26e8" x="90" y="177.24616" style="stroke: #000000; stroke-width: 0.8"/>
      </g>
     </g>
     <g id="text_15">
      <!-- 2,000 -->
      <g transform="translate(54.371875 181.045379) scale(0.1 -0.1)">
       <use xlink:href="#DejaVuSans-32"/>
       <use xlink:href="#DejaVuSans-2c" x="63.623047"/>
       <use xlink:href="#DejaVuSans-30" x="95.410156"/>
       <use xlink:href="#DejaVuSans-30" x="159.033203"/>
       <use xlink:href="#DejaVuSans-30" x="222.65625"/>
      </g>
     </g>
    </g>
    <g id="ytick_4">
     <g id="line2d_18">
      <path d="M 90 142.74924 
L 648 142.74924 
" clip-path="url(#p1703635d53)" style="fill: none; stroke: #b0b0b0; stroke-width: 0.8; stroke-linecap: square"/>
     </g>
     <g id="line2d_19">
      <g>
       <use xlink:href="#mbc255b26e8" x="90" y="142.74924" style="stroke: #000000; stroke-width: 0.8"/>
      </g>
     </g>
     <g id="text_16">
      <!-- 3,000 -->
      <g transform="translate(54.371875 146.548459) scale(0.1 -0.1)">
       <use xlink:href="#DejaVuSans-33"/>
       <use xlink:href="#DejaVuSans-2c" x="63.623047"/>
       <use xlink:href="#DejaVuSans-30" x="95.410156"/>
       <use xlink:href="#DejaVuSans-30" x="159.033203"/>
       <use xlink:href="#DejaVuSans-30" x="222.65625"/>
      </g>
     </g>
    </g>
    <g id="ytick_5">
     <g id="line2d_20">
      <path d="M 90 108.25232 
L 648 108.25232 
" clip-path="url(#p1703635d53)" style="fill: none; stroke: #b0b0b0; stroke-width: 0.8; stroke-linecap: square"/>
     </g>
     <g id="line2d_21">
      <g>
       <use xlink:href="#mbc255b26e8" x="90" y="108.25232" style="stroke: #000000; stroke-width: 0.8"/>
      </g>
     </g>
     <g id="text_17">
      <!-- 4,000 -->
      <g transform="translate(54.371875 112.051539) scale(0.1 -0.1)">
       <use xlink:href="#DejaVuSans-34"/>
       <use xlink:href="#DejaVuSans-2c" x="63.623047"/>
       <use xlink:href="#DejaVuSans-30" x="95.410156"/>
       <use xlink:href="#DejaVuSans-30" x="159.033203"/>
       <use xlink:href="#DejaVuSans-30" x="222.65625"/>
      </g>
     </g>
    </g>
    <g id="ytick_6">
     <g id="line2d_22">
      <path d="M 90 73.7554 
L 648 73.7554 
" clip-path="url(#p1703635d53)" style="fill: none; stroke: #b0b0b0; stroke-width: 0.8; stroke-linecap: square"/>
     </g>
     <g id="line2d_23">
      <g>
       <use xlink:href="#mbc255b26e8" x="90" y="73.7554" style="stroke: #000000; stroke-width: 0.8"/>
      </g>
     </g>
     <g id="text_18">
      <!-- 5,000 -->
      <g transform="translate(54.371875 77.554619) scale(0.1 -0.1)">
       <use xlink:href="#DejaVuSans-35"/>
       <use xlink:href="#DejaVuSans-2c" x="63.623047"/>
       <use xlink:href="#DejaVuSans-30" x="95.410156"/>
       <use xlink:href="#DejaVuSans-30" x="159.033203"/>
       <use xlink:href="#DejaVuSans-30" x="222.65625"/>
      </g>
     </g>
    </g>
    <g id="ytick_7">
     <g id="line2d_24">
      <path d="M 90 39.25848 
L 648 39.25848 
" clip-path="url(#p1703635d53)" style="fill: none; stroke: #b0b0b0; stroke-width: 0.8; stroke-linecap: square"/>
     </g>
     <g id="line2d_25">
      <g>
       <use xlink:href="#mbc255b26e8" x="90" y="39.25848" style="stroke: #000000; stroke-width: 0.8"/>
      </g>
     </g>
     <g id="text_19">
      <!-- 6,000 -->
      <g transform="translate(54.371875 43.057699) scale(0.1 -0.1)">
       <defs>
        <path id="DejaVuSans-36" d="M 2113 2584 
Q 1688 2584 1439 2293 
Q 1191 2003 1191 1497 
Q 1191 994 1439 701 
Q 1688 409 2113 409 
Q 2538 409 2786 701 
Q 3034 994 3034 1497 
Q 3034 2003 2786 2293 
Q 2538 2584 2113 2584 
z
M 3366 4563 
L 3366 3988 
Q 3128 4100 2886 4159 
Q 2644 4219 2406 4219 
Q 1781 4219 1451 3797 
Q 1122 3375 1075 2522 
Q 1259 2794 1537 2939 
Q 1816 3084 2150 3084 
Q 2853 3084 3261 2657 
Q 3669 2231 3669 1497 
Q 3669 778 3244 343 
Q 2819 -91 2113 -91 
Q 1303 -91 875 529 
Q 447 1150 447 2328 
Q 447 3434 972 4092 
Q 1497 4750 2381 4750 
Q 2619 4750 2861 4703 
Q 3103 4656 3366 4563 
z
" transform="scale(0.015625)"/>
       </defs>
       <use xlink:href="#DejaVuSans-36"/>
       <use xlink:href="#DejaVuSans-2c" x="63.623047"/>
       <use xlink:href="#DejaVuSans-30" x="95.410156"/>
       <use xlink:href="#DejaVuSans-30" x="159.033203"/>
       <use xlink:href="#DejaVuSans-30" x="222.65625"/>
      </g>
     </g>
    </g>
    <g id="text_20">
     <!-- Bitrate (kbit/s) -->
     <g transform="translate(48.292187 181.574375) rotate(-90) scale(0.1 -0.1)">
      <defs>
       <path id="DejaVuSans-42" d="M 1259 2228 
L 1259 519 
L 2272 519 
Q 2781 519 3026 730 
Q 3272 941 3272 1375 
Q 3272 1813 3026 2020 
Q 2781 2228 2272 2228 
L 1259 2228 
z
M 1259 4147 
L 1259 2741 
L 2194 2741 
Q 2656 2741 2882 2914 
Q 3109 3088 3109 3444 
Q 3109 3797 2882 3972 
Q 2656 4147 2194 4147 
L 1259 4147 
z
M 628 4666 
L 2241 4666 
Q 2963 4666 3353 4366 
Q 3744 4066 3744 3513 
Q 3744 3084 3544 2831 
Q 3344 2578 2956 2516 
Q 3422 2416 3680 2098 
Q 3938 1781 3938 1306 
Q 3938 681 3513 340 
Q 3088 0 2303 0 
L 628 0 
L 628 4666 
z
" transform="scale(0.015625)"/>
       <path id="DejaVuSans-74" d="M 1172 4494 
L 1172 3500 
L 2356 3500 
L 2356 3053 
L 1172 3053 
L 1172 1153 
Q 1172 725 1289 603 
Q 1406 481 1766 481 
L 2356 481 
L 2356 0 
L 1766 0 
Q 1100 0 847 248 
Q 594 497 594 1153 
L 594 3053 
L 172 3053 
L 172 3500 
L 594 3500 
L 594 4494 
L 1172 4494 
z
" transform="scale(0.015625)"/>
       <path id="DejaVuSans-72" d="M 2631 2963 
Q 2534 3019 2420 3045 
Q 2306 3072 2169 3072 
Q 1681 3072 1420 2755 
Q 1159 2438 1159 1844 
L 1159 0 
L 581 0 
L 581 3500 
L 1159 3500 
L 1159 2956 
Q 1341 3275 1631 3429 
Q 1922 3584 2338 3584 
Q 2397 3584 2469 3576 
Q 2541 3569 2628 3553 
L 2631 2963 
z
" transform="scale(0.015625)"/>
       <path id="DejaVuSans-61" d="M 2194 1759 
Q 1497 1759 1228 1600 
Q 959 1441 959 1056 
Q 959 750 1161 570 
Q 1363 391 1709 391 
Q 2188 391 2477 730 
Q 2766 1069 2766 1631 
L 2766 1759 
L 2194 1759 
z
M 3341 1997 
L 3341 0 
L 2766 0 
L 2766 531 
Q 2569 213 2275 61 
Q 1981 -91 1556 -91 
Q 1019 -91 701 211 
Q 384 513 384 1019 
Q 384 1609 779 1909 
Q 1175 2209 1959 2209 
L 2766 2209 
L 2766 2266 
Q 2766 2663 2505 2880 
Q 2244 3097 1772 3097 
Q 1472 3097 1187 3025 
Q 903 2953 641 2809 
L 641 3341 
Q 956 3463 1253 3523 
Q 1550 3584 1831 3584 
Q 2591 3584 2966 3190 
Q 3341 2797 3341 1997 
z
" transform="scale(0.015625)"/>
       <path id="DejaVuSans-20" transform="scale(0.015625)"/>
       <path id="DejaVuSans-28" d="M 1984 4856 
Q 1566 4138 1362 3434 
Q 1159 2731 1159 2009 
Q 1159 1288 1364 580 
Q 1569 -128 1984 -844 
L 1484 -844 
Q 1016 -109 783 600 
Q 550 1309 550 2009 
Q 550 2706 781 3412 
Q 1013 4119 1484 4856 
L 1984 4856 
z
" transform="scale(0.015625)"/>
       <path id="DejaVuSans-6b" d="M 581 4863 
L 1159 4863 
L 1159 1991 
L 2875 3500 
L 3609 3500 
L 1753 1863 
L 3688 0 
L 2938 0 
L 1159 1709 
L 1159 0 
L 581 0 
L 581 4863 
z
" transform="scale(0.015625)"/>
       <path id="DejaVuSans-62" d="M 3116 1747 
Q 3116 2381 2855 2742 
Q 2594 3103 2138 3103 
Q 1681 3103 1420 2742 
Q 1159 2381 1159 1747 
Q 1159 1113 1420 752 
Q 1681 391 2138 391 
Q 2594 391 2855 752 
Q 3116 1113 3116 1747 
z
M 1159 2969 
Q 1341 3281 1617 3432 
Q 1894 3584 2278 3584 
Q 2916 3584 3314 3078 
Q 3713 2572 3713 1747 
Q 3713 922 3314 415 
Q 2916 -91 2278 -91 
Q 1894 -91 1617 61 
Q 1341 213 1159 525 
L 1159 0 
L 581 0 
L 581 4863 
L 1159 4863 
L 1159 2969 
z
" transform="scale(0.015625)"/>
       <path id="DejaVuSans-2f" d="M 1625 4666 
L 2156 4666 
L 531 -594 
L 0 -594 
L 1625 4666 
z
" transform="scale(0.015625)"/>
       <path id="DejaVuSans-73" d="M 2834 3397 
L 2834 2853 
Q 2591 2978 2328 3040 
Q 2066 3103 1784 3103 
Q 1356 3103 1142 2972 
Q 928 2841 928 2578 
Q 928 2378 1081 2264 
Q 1234 2150 1697 2047 
L 1894 2003 
Q 2506 1872 2764 1633 
Q 3022 1394 3022 966 
Q 3022 478 2636 193 
Q 2250 -91 1575 -91 
Q 1294 -91 989 -36 
Q 684 19 347 128 
L 347 722 
Q 666 556 975 473 
Q 1284 391 1588 391 
Q 1994 391 2212 530 
Q 2431 669 2431 922 
Q 2431 1156 2273 1281 
Q 2116 1406 1581 1522 
L 1381 1569 
Q 847 1681 609 1914 
Q 372 2147 372 2553 
Q 372 3047 722 3315 
Q 1072 3584 1716 3584 
Q 2034 3584 2315 3537 
Q 2597 3491 2834 3397 
z
" transform="scale(0.015625)"/>
       <path id="DejaVuSans-29" d="M 513 4856 
L 1013 4856 
Q 1481 4119 1714 3412 
Q 1947 2706 1947 2009 
Q 1947 1309 1714 600 
Q 1481 -109 1013 -844 
L 513 -844 
Q 928 -128 1133 580 
Q 1338 1288 1338 2009 
Q 1338 2731 1133 3434 
Q 928 4138 513 4856 
z
" transform="scale(0.015625)"/>
      </defs>
      <use xlink:href="#DejaVuSans-42"/>
      <use xlink:href="#DejaVuSans-69" x="68.603516"/>
      <use xlink:href="#DejaVuSans-74" x="96.386719"/>
      <use xlink:href="#DejaVuSans-72" x="135.595703"/>
      <use xlink:href="#DejaVuSans-61" x="176.708984"/>
      <use xlink:href="#DejaVuSans-74" x="237.988281"/>
      <use xlink:href="#DejaVuSans-65" x="277.197266"/>
      <use xlink:href="#DejaVuSans-20" x="338.720703"/>
      <use xlink:href="#DejaVuSans-28" x="370.507812"/>
      <use xlink:href="#DejaVuSans-6b" x="409.521484"/>
      <use xlink:href="#DejaVuSans-62" x="467.431641"/>
      <use xlink:href="#DejaVuSans-69" x="530.908203"/>
      <use xlink:href="#DejaVuSans-74" x="558.691406"/>
      <use xlink:href="#DejaVuSans-2f" x="597.900391"/>
      <use xlink:href="#DejaVuSans-73" x="631.591797"/>
      <use xlink:href="#DejaVuSans-29" x="683.691406"/>
     </g>
    </g>
   </g>
   <g id="PolyCollection_1">
    <defs>
     <path id="m4105d83b5f" d="M 115.363636 -41.897988 
L 115.363636 -41.76 
L 117.054545 -41.76 
L 118.745455 -41.76 
L 120.436364 -41.76 
L 122.127273 -41.76 
L 123.818182 -41.76 
L 125.509091 -41.76 
L 127.2 -41.76 
L 128.890909 -41.76 
L 130.581818 -41.76 
L 132.272727 -41.76 
L 133.963636 -41.76 
L 135.654545 -41.76 
L 137.345455 -41.76 
L 139.036364 -41.76 
L 140.727273 -41.76 
L 142.418182 -41.76 
L 144.109091 -41.76 
L 145.8 -41.76 
L 147.490909 -41.76 
L 149.181818 -41.76 
L 150.872727 -41.76 
L 152.563636 -41.76 
L 154.254545 -41.76 
L 155.945455 -41.76 
L 157.636364 -41.76 
L 159.327273 -41.76 
L 161.018182 -41.76 
L 162.709091 -41.76 
L 164.4 -41.76 
L 166.090909 -41.76 
L 167.781818 -41.76 
L 169.472727 -41.76 
L 171.163636 -41.76 
L 172.854545 -41.76 
L 174.545455 -41.76 
L 176.236364 -41.76 
L 177.927273 -41.76 
L 179.618182 -41.76 
L 181.309091 -41.76 
L 183 -41.76 
L 184.690909 -41.76 
L 186.381818 -41.76 
L 188.072727 -41.76 
L 189.763636 -41.76 
L 191.454545 -41.76 
L 193.145455 -41.76 
L 194.836364 -41.76 
L 196.527273 -41.76 
L 198.218182 -41.76 
L 199.909091 -41.76 
L 201.6 -41.76 
L 203.290909 -41.76 
L 204.981818 -41.76 
L 206.672727 -41.76 
L 208.363636 -41.76 
L 210.054545 -41.76 
L 211.745455 -41.76 
L 213.436364 -41.76 
L 215.127273 -41.76 
L 216.818182 -41.76 
L 218.509091 -41.76 
L 220.2 -41.76 
L 221.890909 -41.76 
L 223.581818 -41.76 
L 225.272727 -41.76 
L 226.963636 -41.76 
L 228.654545 -41.76 
L 230.345455 -41.76 
L 232.036364 -41.76 
L 233.727273 -41.76 
L 235.418182 -41.76 
L 237.109091 -41.76 
L 238.8 -41.76 
L 240.490909 -41.76 
L 242.181818 -41.76 
L 243.872727 -41.76 
L 245.563636 -41.76 
L 247.254545 -41.76 
L 248.945455 -41.76 
L 250.636364 -41.76 
L 252.327273 -41.76 
L 254.018182 -41.76 
L 255.709091 -41.76 
L 257.4 -41.76 
L 259.090909 -41.76 
L 260.781818 -41.76 
L 262.472727 -41.76 
L 264.163636 -41.76 
L 265.854545 -41.76 
L 267.545455 -41.76 
L 269.236364 -41.76 
L 270.927273 -41.76 
L 272.618182 -41.76 
L 274.309091 -41.76 
L 276 -41.76 
L 277.690909 -41.76 
L 279.381818 -41.76 
L 281.072727 -41.76 
L 282.763636 -41.76 
L 284.454545 -41.76 
L 286.145455 -41.76 
L 287.836364 -41.76 
L 289.527273 -41.76 
L 291.218182 -41.76 
L 292.909091 -41.76 
L 294.6 -41.76 
L 296.290909 -41.76 
L 297.981818 -41.76 
L 299.672727 -41.76 
L 301.363636 -41.76 
L 303.054545 -41.76 
L 304.745455 -41.76 
L 306.436364 -41.76 
L 308.127273 -41.76 
L 309.818182 -41.76 
L 311.509091 -41.76 
L 313.2 -41.76 
L 314.890909 -41.76 
L 316.581818 -41.76 
L 318.272727 -41.76 
L 319.963636 -41.76 
L 321.654545 -41.76 
L 323.345455 -41.76 
L 325.036364 -41.76 
L 326.727273 -41.76 
L 328.418182 -41.76 
L 330.109091 -41.76 
L 331.8 -41.76 
L 333.490909 -41.76 
L 335.181818 -41.76 
L 336.872727 -41.76 
L 338.563636 -41.76 
L 340.254545 -41.76 
L 341.945455 -41.76 
L 343.636364 -41.76 
L 345.327273 -41.76 
L 347.018182 -41.76 
L 348.709091 -41.76 
L 350.4 -41.76 
L 352.090909 -41.76 
L 353.781818 -41.76 
L 355.472727 -41.76 
L 357.163636 -41.76 
L 358.854545 -41.76 
L 360.545455 -41.76 
L 362.236364 -41.76 
L 363.927273 -41.76 
L 365.618182 -41.76 
L 367.309091 -41.76 
L 369 -41.76 
L 370.690909 -41.76 
L 372.381818 -41.76 
L 374.072727 -41.76 
L 375.763636 -41.76 
L 377.454545 -41.76 
L 379.145455 -41.76 
L 380.836364 -41.76 
L 382.527273 -41.76 
L 384.218182 -41.76 
L 385.909091 -41.76 
L 387.6 -41.76 
L 389.290909 -41.76 
L 390.981818 -41.76 
L 392.672727 -41.76 
L 394.363636 -41.76 
L 396.054545 -41.76 
L 397.745455 -41.76 
L 399.436364 -41.76 
L 401.127273 -41.76 
L 402.818182 -41.76 
L 404.509091 -41.76 
L 406.2 -41.76 
L 407.890909 -41.76 
L 409.581818 -41.76 
L 411.272727 -41.76 
L 412.963636 -41.76 
L 414.654545 -41.76 
L 416.345455 -41.76 
L 418.036364 -41.76 
L 419.727273 -41.76 
L 421.418182 -41.76 
L 423.109091 -41.76 
L 424.8 -41.76 
L 426.490909 -41.76 
L 428.181818 -41.76 
L 429.872727 -41.76 
L 431.563636 -41.76 
L 433.254545 -41.76 
L 434.945455 -41.76 
L 436.636364 -41.76 
L 438.327273 -41.76 
L 440.018182 -41.76 
L 441.709091 -41.76 
L 443.4 -41.76 
L 445.090909 -41.76 
L 446.781818 -41.76 
L 448.472727 -41.76 
L 450.163636 -41.76 
L 451.854545 -41.76 
L 453.545455 -41.76 
L 455.236364 -41.76 
L 456.927273 -41.76 
L 458.618182 -41.76 
L 460.309091 -41.76 
L 462 -41.76 
L 463.690909 -41.76 
L 465.381818 -41.76 
L 467.072727 -41.76 
L 468.763636 -41.76 
L 470.454545 -41.76 
L 472.145455 -41.76 
L 473.836364 -41.76 
L 475.527273 -41.76 
L 477.218182 -41.76 
L 478.909091 -41.76 
L 480.6 -41.76 
L 482.290909 -41.76 
L 483.981818 -41.76 
L 485.672727 -41.76 
L 487.363636 -41.76 
L 489.054545 -41.76 
L 490.745455 -41.76 
L 492.436364 -41.76 
L 494.127273 -41.76 
L 495.818182 -41.76 
L 497.509091 -41.76 
L 499.2 -41.76 
L 500.890909 -41.76 
L 502.581818 -41.76 
L 504.272727 -41.76 
L 505.963636 -41.76 
L 507.654545 -41.76 
L 509.345455 -41.76 
L 511.036364 -41.76 
L 512.727273 -41.76 
L 514.418182 -41.76 
L 516.109091 -41.76 
L 517.8 -41.76 
L 519.490909 -41.76 
L 521.181818 -41.76 
L 522.872727 -41.76 
L 524.563636 -41.76 
L 526.254545 -41.76 
L 527.945455 -41.76 
L 529.636364 -41.76 
L 531.327273 -41.76 
L 533.018182 -41.76 
L 534.709091 -41.76 
L 536.4 -41.76 
L 538.090909 -41.76 
L 539.781818 -41.76 
L 541.472727 -41.76 
L 543.163636 -41.76 
L 544.854545 -41.76 
L 546.545455 -41.76 
L 548.236364 -41.76 
L 549.927273 -41.76 
L 551.618182 -41.76 
L 553.309091 -41.76 
L 555 -41.76 
L 556.690909 -41.76 
L 558.381818 -41.76 
L 560.072727 -41.76 
L 561.763636 -41.76 
L 563.454545 -41.76 
L 565.145455 -41.76 
L 566.836364 -41.76 
L 568.527273 -41.76 
L 570.218182 -41.76 
L 571.909091 -41.76 
L 573.6 -41.76 
L 575.290909 -41.76 
L 576.981818 -41.76 
L 578.672727 -41.76 
L 580.363636 -41.76 
L 582.054545 -41.76 
L 583.745455 -41.76 
L 585.436364 -41.76 
L 587.127273 -41.76 
L 588.818182 -41.76 
L 590.509091 -41.76 
L 592.2 -41.76 
L 593.890909 -41.76 
L 595.581818 -41.76 
L 597.272727 -41.76 
L 598.963636 -41.76 
L 600.654545 -41.76 
L 602.345455 -41.76 
L 604.036364 -41.76 
L 605.727273 -41.76 
L 607.418182 -41.76 
L 609.109091 -41.76 
L 610.8 -41.76 
L 612.490909 -41.76 
L 614.181818 -41.76 
L 615.872727 -41.76 
L 617.563636 -41.76 
L 619.254545 -41.76 
L 620.945455 -41.76 
L 622.636364 -41.76 
L 622.636364 -62.113183 
L 622.636364 -62.113183 
L 620.945455 -41.76 
L 619.254545 -41.76 
L 617.563636 -41.76 
L 615.872727 -41.76 
L 614.181818 -104.233922 
L 612.490909 -41.76 
L 610.8 -41.76 
L 609.109091 -41.76 
L 607.418182 -103.681971 
L 605.727273 -41.76 
L 604.036364 -41.76 
L 602.345455 -41.76 
L 600.654545 -57.801068 
L 598.963636 -41.76 
L 597.272727 -41.76 
L 595.581818 -41.76 
L 593.890909 -83.53577 
L 592.2 -41.76 
L 590.509091 -41.76 
L 588.818182 -41.76 
L 587.127273 -96.679097 
L 585.436364 -41.76 
L 583.745455 -41.76 
L 582.054545 -41.76 
L 580.363636 -98.783409 
L 578.672727 -41.76 
L 576.981818 -41.76 
L 575.290909 -41.76 
L 573.6 -41.76 
L 571.909091 -65.769856 
L 570.218182 -41.76 
L 568.527273 -41.76 
L 566.836364 -41.76 
L 565.145455 -52.661027 
L 563.454545 -41.76 
L 561.763636 -41.76 
L 560.072727 -41.76 
L 558.381818 -81.534949 
L 556.690909 -41.76 
L 555 -41.76 
L 553.309091 -41.76 
L 551.618182 -84.674168 
L 549.927273 -41.76 
L 548.236364 -41.76 
L 546.545455 -41.76 
L 544.854545 -66.356304 
L 543.163636 -41.76 
L 541.472727 -41.76 
L 539.781818 -41.76 
L 538.090909 -67.770678 
L 536.4 -41.76 
L 534.709091 -41.76 
L 533.018182 -41.76 
L 531.327273 -41.76 
L 529.636364 -62.975606 
L 527.945455 -41.76 
L 526.254545 -41.76 
L 524.563636 -41.76 
L 522.872727 -63.389569 
L 521.181818 -41.76 
L 519.490909 -41.76 
L 517.8 -41.76 
L 516.109091 -56.3177 
L 514.418182 -41.76 
L 512.727273 -41.76 
L 511.036364 -41.76 
L 509.345455 -60.595318 
L 507.654545 -41.76 
L 505.963636 -41.76 
L 504.272727 -41.76 
L 502.581818 -128.209281 
L 500.890909 -41.76 
L 499.2 -41.76 
L 497.509091 -41.76 
L 495.818182 -51.074168 
L 494.127273 -41.76 
L 492.436364 -41.76 
L 490.745455 -41.76 
L 489.054545 -41.76 
L 487.363636 -57.421602 
L 485.672727 -41.76 
L 483.981818 -41.76 
L 482.290909 -41.76 
L 480.6 -59.525914 
L 478.909091 -41.76 
L 477.218182 -41.76 
L 475.527273 -41.76 
L 473.836364 -57.387105 
L 472.145455 -41.76 
L 470.454545 -41.76 
L 468.763636 -41.76 
L 467.072727 -68.495113 
L 465.381818 -41.76 
L 463.690909 -41.76 
L 462 -41.76 
L 460.309091 -53.07499 
L 458.618182 -41.76 
L 456.927273 -41.76 
L 455.236364 -41.76 
L 453.545455 -49.93577 
L 451.854545 -41.76 
L 450.163636 -41.76 
L 448.472727 -41.76 
L 446.781818 -41.76 
L 445.090909 -75.601478 
L 443.4 -41.76 
L 441.709091 -41.76 
L 440.018182 -41.76 
L 438.327273 -54.97232 
L 436.636364 -41.76 
L 434.945455 -41.76 
L 433.254545 -41.76 
L 431.563636 -76.222423 
L 429.872727 -41.76 
L 428.181818 -41.76 
L 426.490909 -41.76 
L 424.8 -71.944805 
L 423.109091 -41.76 
L 421.418182 -41.76 
L 419.727273 -41.76 
L 418.036364 -54.730842 
L 416.345455 -41.76 
L 414.654545 -41.76 
L 412.963636 -41.76 
L 411.272727 -53.868419 
L 409.581818 -41.76 
L 407.890909 -41.76 
L 406.2 -41.76 
L 404.509091 -41.76 
L 402.818182 -56.628172 
L 401.127273 -41.76 
L 399.436364 -41.76 
L 397.745455 -41.76 
L 396.054545 -84.570678 
L 394.363636 -41.76 
L 392.672727 -41.76 
L 390.981818 -41.76 
L 389.290909 -92.022012 
L 387.6 -41.76 
L 385.909091 -41.76 
L 384.218182 -41.76 
L 382.527273 -76.739877 
L 380.836364 -41.76 
L 379.145455 -41.76 
L 377.454545 -41.76 
L 375.763636 -77.429815 
L 374.072727 -41.76 
L 372.381818 -41.76 
L 370.690909 -41.76 
L 369 -81.603943 
L 367.309091 -41.76 
L 365.618182 -41.76 
L 363.927273 -41.76 
L 362.236364 -41.76 
L 360.545455 -79.810103 
L 358.854545 -41.76 
L 357.163636 -41.76 
L 355.472727 -41.76 
L 353.781818 -80.84501 
L 352.090909 -41.76 
L 350.4 -41.76 
L 348.709091 -41.76 
L 347.018182 -78.740698 
L 345.327273 -41.76 
L 343.636364 -41.76 
L 341.945455 -41.76 
L 340.254545 -77.774784 
L 338.563636 -41.76 
L 336.872727 -41.76 
L 335.181818 -41.76 
L 333.490909 -74.946037 
L 331.8 -41.76 
L 330.109091 -41.76 
L 328.418182 -41.76 
L 326.727273 -92.780945 
L 325.036364 -41.76 
L 323.345455 -41.76 
L 321.654545 -41.76 
L 319.963636 -41.76 
L 318.272727 -101.508665 
L 316.581818 -41.76 
L 314.890909 -41.76 
L 313.2 -41.76 
L 311.509091 -52.523039 
L 309.818182 -41.76 
L 308.127273 -41.76 
L 306.436364 -41.76 
L 304.745455 -56.490185 
L 303.054545 -41.76 
L 301.363636 -41.76 
L 299.672727 -41.76 
L 297.981818 -56.421191 
L 296.290909 -41.76 
L 294.6 -41.76 
L 292.909091 -41.76 
L 291.218182 -94.781766 
L 289.527273 -41.76 
L 287.836364 -41.76 
L 286.145455 -41.76 
L 284.454545 -73.497166 
L 282.763636 -41.76 
L 281.072727 -41.76 
L 279.381818 -41.76 
L 277.690909 -41.76 
L 276 -66.045832 
L 274.309091 -41.76 
L 272.618182 -41.76 
L 270.927273 -41.76 
L 269.236364 -66.942752 
L 267.545455 -41.76 
L 265.854545 -41.76 
L 264.163636 -41.76 
L 262.472727 -61.457741 
L 260.781818 -41.76 
L 259.090909 -41.76 
L 257.4 -41.76 
L 255.709091 -61.147269 
L 254.018182 -41.76 
L 252.327273 -41.76 
L 250.636364 -41.76 
L 248.945455 -55.489774 
L 247.254545 -41.76 
L 245.563636 -41.76 
L 243.872727 -41.76 
L 242.181818 -74.152608 
L 240.490909 -41.76 
L 238.8 -41.76 
L 237.109091 -41.76 
L 235.418182 -41.76 
L 233.727273 -66.563285 
L 232.036364 -41.76 
L 230.345455 -41.76 
L 228.654545 -41.76 
L 226.963636 -63.182587 
L 225.272727 -41.76 
L 223.581818 -41.76 
L 221.890909 -41.76 
L 220.2 -61.457741 
L 218.509091 -41.76 
L 216.818182 -41.76 
L 215.127273 -41.76 
L 213.436364 -99.714825 
L 211.745455 -41.76 
L 210.054545 -41.76 
L 208.363636 -41.76 
L 206.672727 -84.743162 
L 204.981818 -41.76 
L 203.290909 -41.76 
L 201.6 -41.76 
L 199.909091 -84.846653 
L 198.218182 -41.76 
L 196.527273 -41.76 
L 194.836364 -41.76 
L 193.145455 -41.76 
L 191.454545 -81.465955 
L 189.763636 -41.76 
L 188.072727 -41.76 
L 186.381818 -41.76 
L 184.690909 -86.847474 
L 183 -41.76 
L 181.309091 -41.76 
L 179.618182 -41.76 
L 177.927273 -100.577248 
L 176.236364 -41.76 
L 174.545455 -41.76 
L 172.854545 -41.76 
L 171.163636 -97.576016 
L 169.472727 -41.76 
L 167.781818 -41.76 
L 166.090909 -41.76 
L 164.4 -109.235975 
L 162.709091 -41.76 
L 161.018182 -41.76 
L 159.327273 -41.76 
L 157.636364 -59.698398 
L 155.945455 -41.76 
L 154.254545 -41.76 
L 152.563636 -41.76 
L 150.872727 -41.76 
L 149.181818 -55.972731 
L 147.490909 -41.76 
L 145.8 -41.76 
L 144.109091 -41.76 
L 142.418182 -79.706612 
L 140.727273 -41.76 
L 139.036364 -41.76 
L 137.345455 -41.76 
L 135.654545 -87.640903 
L 133.963636 -41.76 
L 132.272727 -41.76 
L 130.581818 -41.76 
L 128.890909 -65.286899 
L 127.2 -41.76 
L 125.509091 -41.76 
L 123.818182 -41.76 
L 122.127273 -42.898398 
L 120.436364 -41.76 
L 118.745455 -41.76 
L 117.054545 -41.76 
L 115.363636 -41.897988 
z
" style="stroke: #ff0000; stroke-width: 0.5"/>
    </defs>
    <g clip-path="url(#p1703635d53)">
     <use xlink:href="#m4105d83b5f" x="0" y="288" style="fill: #ff0000; stroke: #ff0000; stroke-width: 0.5"/>
    </g>
   </g>
   <g id="PolyCollection_2">
    <defs>
     <path id="mced3dcc442" d="M 115.363636 -53.730431 
L 115.363636 -41.897988 
L 117.054545 -41.76 
L 118.745455 -41.76 
L 120.436364 -41.76 
L 122.127273 -42.898398 
L 123.818182 -41.76 
L 125.509091 -41.76 
L 127.2 -41.76 
L 128.890909 -65.286899 
L 130.581818 -41.76 
L 132.272727 -41.76 
L 133.963636 -41.76 
L 135.654545 -87.640903 
L 137.345455 -41.76 
L 139.036364 -41.76 
L 140.727273 -41.76 
L 142.418182 -79.706612 
L 144.109091 -41.76 
L 145.8 -41.76 
L 147.490909 -41.76 
L 149.181818 -55.972731 
L 150.872727 -41.76 
L 152.563636 -41.76 
L 154.254545 -41.76 
L 155.945455 -41.76 
L 157.636364 -59.698398 
L 159.327273 -41.76 
L 161.018182 -41.76 
L 162.709091 -41.76 
L 164.4 -109.235975 
L 166.090909 -41.76 
L 167.781818 -41.76 
L 169.472727 -41.76 
L 171.163636 -97.576016 
L 172.854545 -41.76 
L 174.545455 -41.76 
L 176.236364 -41.76 
L 177.927273 -100.577248 
L 179.618182 -41.76 
L 181.309091 -41.76 
L 183 -41.76 
L 184.690909 -86.847474 
L 186.381818 -41.76 
L 188.072727 -41.76 
L 189.763636 -41.76 
L 191.454545 -81.465955 
L 193.145455 -41.76 
L 194.836364 -41.76 
L 196.527273 -41.76 
L 198.218182 -41.76 
L 199.909091 -84.846653 
L 201.6 -41.76 
L 203.290909 -41.76 
L 204.981818 -41.76 
L 206.672727 -84.743162 
L 208.363636 -41.76 
L 210.054545 -41.76 
L 211.745455 -41.76 
L 213.436364 -99.714825 
L 215.127273 -41.76 
L 216.818182 -41.76 
L 218.509091 -41.76 
L 220.2 -61.457741 
L 221.890909 -41.76 
L 223.581818 -41.76 
L 225.272727 -41.76 
L 226.963636 -63.182587 
L 228.654545 -41.76 
L 230.345455 -41.76 
L 232.036364 -41.76 
L 233.727273 -66.563285 
L 235.418182 -41.76 
L 237.109091 -41.76 
L 238.8 -41.76 
L 240.490909 -41.76 
L 242.181818 -74.152608 
L 243.872727 -41.76 
L 245.563636 -41.76 
L 247.254545 -41.76 
L 248.945455 -55.489774 
L 250.636364 -41.76 
L 252.327273 -41.76 
L 254.018182 -41.76 
L 255.709091 -61.147269 
L 257.4 -41.76 
L 259.090909 -41.76 
L 260.781818 -41.76 
L 262.472727 -61.457741 
L 264.163636 -41.76 
L 265.854545 -41.76 
L 267.545455 -41.76 
L 269.236364 -66.942752 
L 270.927273 -41.76 
L 272.618182 -41.76 
L 274.309091 -41.76 
L 276 -66.045832 
L 277.690909 -41.76 
L 279.381818 -41.76 
L 281.072727 -41.76 
L 282.763636 -41.76 
L 284.454545 -73.497166 
L 286.145455 -41.76 
L 287.836364 -41.76 
L 289.527273 -41.76 
L 291.218182 -94.781766 
L 292.909091 -41.76 
L 294.6 -41.76 
L 296.290909 -41.76 
L 297.981818 -56.421191 
L 299.672727 -41.76 
L 301.363636 -41.76 
L 303.054545 -41.76 
L 304.745455 -56.490185 
L 306.436364 -41.76 
L 308.127273 -41.76 
L 309.818182 -41.76 
L 311.509091 -52.523039 
L 313.2 -41.76 
L 314.890909 -41.76 
L 316.581818 -41.76 
L 318.272727 -101.508665 
L 319.963636 -41.76 
L 321.654545 -41.76 
L 323.345455 -41.76 
L 325.036364 -41.76 
L 326.727273 -92.780945 
L 328.418182 -41.76 
L 330.109091 -41.76 
L 331.8 -41.76 
L 333.490909 -74.946037 
L 335.181818 -41.76 
L 336.872727 -41.76 
L 338.563636 -41.76 
L 340.254545 -77.774784 
L 341.945455 -41.76 
L 343.636364 -41.76 
L 345.327273 -41.76 
L 347.018182 -78.740698 
L 348.709091 -41.76 
L 350.4 -41.76 
L 352.090909 -41.76 
L 353.781818 -80.84501 
L 355.472727 -41.76 
L 357.163636 -41.76 
L 358.854545 -41.76 
L 360.545455 -79.810103 
L 362.236364 -41.76 
L 363.927273 -41.76 
L 365.618182 -41.76 
L 367.309091 -41.76 
L 369 -81.603943 
L 370.690909 -41.76 
L 372.381818 -41.76 
L 374.072727 -41.76 
L 375.763636 -77.429815 
L 377.454545 -41.76 
L 379.145455 -41.76 
L 380.836364 -41.76 
L 382.527273 -76.739877 
L 384.218182 -41.76 
L 385.909091 -41.76 
L 387.6 -41.76 
L 389.290909 -92.022012 
L 390.981818 -41.76 
L 392.672727 -41.76 
L 394.363636 -41.76 
L 396.054545 -84.570678 
L 397.745455 -41.76 
L 399.436364 -41.76 
L 401.127273 -41.76 
L 402.818182 -56.628172 
L 404.509091 -41.76 
L 406.2 -41.76 
L 407.890909 -41.76 
L 409.581818 -41.76 
L 411.272727 -53.868419 
L 412.963636 -41.76 
L 414.654545 -41.76 
L 416.345455 -41.76 
L 418.036364 -54.730842 
L 419.727273 -41.76 
L 421.418182 -41.76 
L 423.109091 -41.76 
L 424.8 -71.944805 
L 426.490909 -41.76 
L 428.181818 -41.76 
L 429.872727 -41.76 
L 431.563636 -76.222423 
L 433.254545 -41.76 
L 434.945455 -41.76 
L 436.636364 -41.76 
L 438.327273 -54.97232 
L 440.018182 -41.76 
L 441.709091 -41.76 
L 443.4 -41.76 
L 445.090909 -75.601478 
L 446.781818 -41.76 
L 448.472727 -41.76 
L 450.163636 -41.76 
L 451.854545 -41.76 
L 453.545455 -49.93577 
L 455.236364 -41.76 
L 456.927273 -41.76 
L 458.618182 -41.76 
L 460.309091 -53.07499 
L 462 -41.76 
L 463.690909 -41.76 
L 465.381818 -41.76 
L 467.072727 -68.495113 
L 468.763636 -41.76 
L 470.454545 -41.76 
L 472.145455 -41.76 
L 473.836364 -57.387105 
L 475.527273 -41.76 
L 477.218182 -41.76 
L 478.909091 -41.76 
L 480.6 -59.525914 
L 482.290909 -41.76 
L 483.981818 -41.76 
L 485.672727 -41.76 
L 487.363636 -57.421602 
L 489.054545 -41.76 
L 490.745455 -41.76 
L 492.436364 -41.76 
L 494.127273 -41.76 
L 495.818182 -51.074168 
L 497.509091 -41.76 
L 499.2 -41.76 
L 500.890909 -41.76 
L 502.581818 -128.209281 
L 504.272727 -41.76 
L 505.963636 -41.76 
L 507.654545 -41.76 
L 509.345455 -60.595318 
L 511.036364 -41.76 
L 512.727273 -41.76 
L 514.418182 -41.76 
L 516.109091 -56.3177 
L 517.8 -41.76 
L 519.490909 -41.76 
L 521.181818 -41.76 
L 522.872727 -63.389569 
L 524.563636 -41.76 
L 526.254545 -41.76 
L 527.945455 -41.76 
L 529.636364 -62.975606 
L 531.327273 -41.76 
L 533.018182 -41.76 
L 534.709091 -41.76 
L 536.4 -41.76 
L 538.090909 -67.770678 
L 539.781818 -41.76 
L 541.472727 -41.76 
L 543.163636 -41.76 
L 544.854545 -66.356304 
L 546.545455 -41.76 
L 548.236364 -41.76 
L 549.927273 -41.76 
L 551.618182 -84.674168 
L 553.309091 -41.76 
L 555 -41.76 
L 556.690909 -41.76 
L 558.381818 -81.534949 
L 560.072727 -41.76 
L 561.763636 -41.76 
L 563.454545 -41.76 
L 565.145455 -52.661027 
L 566.836364 -41.76 
L 568.527273 -41.76 
L 570.218182 -41.76 
L 571.909091 -65.769856 
L 573.6 -41.76 
L 575.290909 -41.76 
L 576.981818 -41.76 
L 578.672727 -41.76 
L 580.363636 -98.783409 
L 582.054545 -41.76 
L 583.745455 -41.76 
L 585.436364 -41.76 
L 587.127273 -96.679097 
L 588.818182 -41.76 
L 590.509091 -41.76 
L 592.2 -41.76 
L 593.890909 -83.53577 
L 595.581818 -41.76 
L 597.272727 -41.76 
L 598.963636 -41.76 
L 600.654545 -57.801068 
L 602.345455 -41.76 
L 604.036364 -41.76 
L 605.727273 -41.76 
L 607.418182 -103.681971 
L 609.109091 -41.76 
L 610.8 -41.76 
L 612.490909 -41.76 
L 614.181818 -104.233922 
L 615.872727 -41.76 
L 617.563636 -41.76 
L 619.254545 -41.76 
L 620.945455 -41.76 
L 622.636364 -62.113183 
L 622.636364 -62.113183 
L 622.636364 -62.113183 
L 620.945455 -80.810513 
L 619.254545 -90.228172 
L 617.563636 -69.564517 
L 615.872727 -51.005175 
L 614.181818 -109.718932 
L 612.490909 -51.350144 
L 610.8 -52.868008 
L 609.109091 -58.870472 
L 607.418182 -109.235975 
L 605.727273 -45.761643 
L 604.036364 -47.762464 
L 602.345455 -62.216674 
L 600.654545 -73.531663 
L 598.963636 -62.975606 
L 597.272727 -69.840493 
L 595.581818 -81.845421 
L 593.890909 -113.237618 
L 592.2 -60.664312 
L 590.509091 -65.148912 
L 588.818182 -61.837207 
L 587.127273 -114.065544 
L 585.436364 -58.973963 
L 583.745455 -99.611335 
L 582.054545 -110.201889 
L 580.363636 -168.329199 
L 578.672727 -64.976427 
L 576.981818 -55.834743 
L 575.290909 -51.005175 
L 573.6 -62.872115 
L 571.909091 -72.427762 
L 570.218182 -57.732074 
L 568.527273 -50.936181 
L 566.836364 -64.665955 
L 565.145455 -68.391622 
L 563.454545 -67.494702 
L 561.763636 -52.350554 
L 560.072727 -59.180945 
L 558.381818 -102.57807 
L 556.690909 -58.456509 
L 555 -50.729199 
L 553.309091 -57.007639 
L 551.618182 -105.958768 
L 549.927273 -89.365749 
L 548.236364 -71.599836 
L 546.545455 -60.526324 
L 544.854545 -74.773552 
L 543.163636 -67.356715 
L 541.472727 -97.369035 
L 539.781818 -66.908255 
L 538.090909 -99.093881 
L 536.4 -72.22078 
L 534.709091 -90.469651 
L 533.018182 -66.459795 
L 531.327273 -55.041314 
L 529.636364 -88.02037 
L 527.945455 -49.073347 
L 526.254545 -48.452402 
L 524.563636 -45.968624 
L 522.872727 -72.082793 
L 521.181818 -47.865955 
L 519.490909 -50.108255 
L 517.8 -55.351786 
L 516.109091 -79.741109 
L 514.418182 -53.247474 
L 512.727273 -46.417084 
L 511.036364 -47.831458 
L 509.345455 -82.604353 
L 507.654545 -55.593265 
L 505.963636 -72.393265 
L 504.272727 -77.188337 
L 502.581818 -138.592854 
L 500.890909 -45.00271 
L 499.2 -44.140287 
L 497.509091 -43.967803 
L 495.818182 -56.352197 
L 494.127273 -50.453224 
L 492.436364 -59.491417 
L 490.745455 -71.875811 
L 489.054545 -58.11154 
L 487.363636 -72.358768 
L 485.672727 -55.765749 
L 483.981818 -60.664312 
L 482.290909 -108.787515 
L 480.6 -127.829815 
L 478.909091 -119.619548 
L 477.218182 -111.754251 
L 475.527273 -95.678686 
L 473.836364 -74.187105 
L 472.145455 -65.010924 
L 470.454545 -68.253634 
L 468.763636 -48.245421 
L 467.072727 -75.704969 
L 465.381818 -54.834333 
L 463.690909 -50.142752 
L 462 -71.565339 
L 460.309091 -69.185051 
L 458.618182 -54.592854 
L 456.927273 -53.109487 
L 455.236364 -52.005585 
L 453.545455 -128.278275 
L 451.854545 -66.218316 
L 450.163636 -57.628583 
L 448.472727 -95.85117 
L 446.781818 -77.395318 
L 445.090909 -78.464723 
L 443.4 -44.071294 
L 441.709091 -49.521807 
L 440.018182 -88.054867 
L 438.327273 -127.55384 
L 436.636364 -117.308255 
L 434.945455 -76.601889 
L 433.254545 -101.336181 
L 431.563636 -128.071294 
L 429.872727 -108.373552 
L 428.181818 -100.232279 
L 426.490909 -75.635975 
L 424.8 -96.782587 
L 423.109091 -64.010513 
L 421.418182 -112.720164 
L 419.727273 -103.164517 
L 418.036364 -81.776427 
L 416.345455 -56.559179 
L 414.654545 -59.249938 
L 412.963636 -49.383819 
L 411.272727 -64.286489 
L 409.581818 -62.009692 
L 407.890909 -77.809281 
L 406.2 -55.834743 
L 404.509091 -51.246653 
L 402.818182 -73.807639 
L 401.127273 -60.767803 
L 399.436364 -70.254456 
L 397.745455 -63.700041 
L 396.054545 -103.888953 
L 394.363636 -61.147269 
L 392.672727 -54.109897 
L 390.981818 -53.592444 
L 389.290909 -99.266366 
L 387.6 -48.555893 
L 385.909091 -45.140698 
L 384.218182 -62.182177 
L 382.527273 -97.09306 
L 380.836364 -82.569856 
L 379.145455 -77.15384 
L 377.454545 -74.532074 
L 375.763636 -95.678686 
L 374.072727 -50.591211 
L 372.381818 -47.382998 
L 370.690909 -49.107844 
L 369 -85.467598 
L 367.309091 -54.247885 
L 365.618182 -55.938234 
L 363.927273 -84.570678 
L 362.236364 -67.115236 
L 360.545455 -91.504559 
L 358.854545 -78.05076 
L 357.163636 -74.083614 
L 355.472727 -79.016674 
L 353.781818 -89.745216 
L 352.090909 -64.838439 
L 350.4 -72.945216 
L 348.709091 -59.732895 
L 347.018182 -90.297166 
L 345.327273 -55.282793 
L 343.636364 -59.836386 
L 341.945455 -50.970678 
L 340.254545 -88.365339 
L 338.563636 -75.118522 
L 336.872727 -67.563696 
L 335.181818 -56.835154 
L 333.490909 -86.261027 
L 331.8 -55.282793 
L 330.109091 -78.637207 
L 328.418182 -76.291417 
L 326.727273 -125.346037 
L 325.036364 -61.837207 
L 323.345455 -89.538234 
L 321.654545 -64.527967 
L 319.963636 -72.048296 
L 318.272727 -143.00846 
L 316.581818 -70.116468 
L 314.890909 -66.459795 
L 313.2 -69.771499 
L 311.509091 -90.538645 
L 309.818182 -85.502094 
L 308.127273 -85.605585 
L 306.436364 -78.326735 
L 304.745455 -103.681971 
L 303.054545 -78.982177 
L 301.363636 -91.159589 
L 299.672727 -70.185462 
L 297.981818 -72.910719 
L 296.290909 -54.316879 
L 294.6 -71.530842 
L 292.909091 -60.250349 
L 291.218182 -105.71729 
L 289.527273 -56.869651 
L 287.836364 -55.972731 
L 286.145455 -55.42078 
L 284.454545 -94.471294 
L 282.763636 -52.074579 
L 281.072727 -47.934949 
L 279.381818 -47.210513 
L 277.690909 -46.175606 
L 276 -72.634743 
L 274.309091 -49.03885 
L 272.618182 -46.900041 
L 270.927273 -46.969035 
L 269.236364 -80.155072 
L 267.545455 -52.488542 
L 265.854545 -43.829815 
L 264.163636 -49.142341 
L 262.472727 -72.151786 
L 260.781818 -62.803121 
L 259.090909 -63.838029 
L 257.4 -76.325914 
L 255.709091 -120.102505 
L 254.018182 -101.198193 
L 252.327273 -107.925092 
L 250.636364 -85.502094 
L 248.945455 -103.509487 
L 247.254545 -76.946858 
L 245.563636 -50.729199 
L 243.872727 -48.245421 
L 242.181818 -77.981766 
L 240.490909 -45.79614 
L 238.8 -79.913593 
L 237.109091 -66.908255 
L 235.418182 -82.742341 
L 233.727273 -103.888953 
L 232.036364 -71.289363 
L 230.345455 -51.867598 
L 228.654545 -60.871294 
L 226.963636 -77.326324 
L 225.272727 -61.664723 
L 223.581818 -47.451992 
L 221.890909 -49.970267 
L 220.2 -72.600246 
L 218.509091 -45.830637 
L 216.818182 -57.421602 
L 215.127273 -70.909897 
L 213.436364 -120.171499 
L 211.745455 -60.940287 
L 210.054545 -59.077454 
L 208.363636 -53.488953 
L 206.672727 -104.406407 
L 204.981818 -75.222012 
L 203.290909 -63.424066 
L 201.6 -57.180123 
L 199.909091 -99.783819 
L 198.218182 -57.145626 
L 196.527273 -56.76616 
L 194.836364 -51.453634 
L 193.145455 -52.902505 
L 191.454545 -92.677454 
L 189.763636 -55.006817 
L 188.072727 -53.730431 
L 186.381818 -53.764928 
L 184.690909 -99.093881 
L 183 -52.764517 
L 181.309091 -55.696756 
L 179.618182 -56.283203 
L 177.927273 -114.031047 
L 176.236364 -55.938234 
L 174.545455 -57.180123 
L 172.854545 -56.041725 
L 171.163636 -112.582177 
L 169.472727 -57.66308 
L 167.781818 -57.66308 
L 166.090909 -57.180123 
L 164.4 -123.621191 
L 162.709091 -58.318522 
L 161.018182 -49.48731 
L 159.327273 -45.45117 
L 157.636364 -74.566571 
L 155.945455 -71.944805 
L 154.254545 -48.107433 
L 152.563636 -57.352608 
L 150.872727 -51.833101 
L 149.181818 -67.977659 
L 147.490909 -58.835975 
L 145.8 -58.077043 
L 144.109091 -58.215031 
L 142.418182 -91.297577 
L 140.727273 -51.522628 
L 139.036364 -52.005585 
L 137.345455 -52.902505 
L 135.654545 -97.679507 
L 133.963636 -51.626119 
L 132.272727 -52.143573 
L 130.581818 -52.143573 
L 128.890909 -79.913593 
L 127.2 -61.906201 
L 125.509091 -58.318522 
L 123.818182 -52.350554 
L 122.127273 -54.903326 
L 120.436364 -66.011335 
L 118.745455 -56.3177 
L 117.054545 -59.560411 
L 115.363636 -53.730431 
z
" style="stroke: #0000ff; stroke-width: 0.5"/>
    </defs>
    <g clip-path="url(#p1703635d53)">
     <use xlink:href="#mced3dcc442" x="0" y="288" style="fill: #0000ff; stroke: #0000ff; stroke-width: 0.5"/>
    </g>
   </g>
   <g id="PolyCollection_3">
    <defs>
     <path id="maaefadc2da" d="M 115.363636 -69.116057 
L 115.363636 -53.730431 
L 117.054545 -59.560411 
L 118.745455 -56.3177 
L 120.436364 -66.011335 
L 122.127273 -54.903326 
L 123.818182 -52.350554 
L 125.509091 -58.318522 
L 127.2 -61.906201 
L 128.890909 -79.913593 
L 130.581818 -52.143573 
L 132.272727 -52.143573 
L 133.963636 -51.626119 
L 135.654545 -97.679507 
L 137.345455 -52.902505 
L 139.036364 -52.005585 
L 140.727273 -51.522628 
L 142.418182 -91.297577 
L 144.109091 -58.215031 
L 145.8 -58.077043 
L 147.490909 -58.835975 
L 149.181818 -67.977659 
L 150.872727 -51.833101 
L 152.563636 -57.352608 
L 154.254545 -48.107433 
L 155.945455 -71.944805 
L 157.636364 -74.566571 
L 159.327273 -45.45117 
L 161.018182 -49.48731 
L 162.709091 -58.318522 
L 164.4 -123.621191 
L 166.090909 -57.180123 
L 167.781818 -57.66308 
L 169.472727 -57.66308 
L 171.163636 -112.582177 
L 172.854545 -56.041725 
L 174.545455 -57.180123 
L 176.236364 -55.938234 
L 177.927273 -114.031047 
L 179.618182 -56.283203 
L 181.309091 -55.696756 
L 183 -52.764517 
L 184.690909 -99.093881 
L 186.381818 -53.764928 
L 188.072727 -53.730431 
L 189.763636 -55.006817 
L 191.454545 -92.677454 
L 193.145455 -52.902505 
L 194.836364 -51.453634 
L 196.527273 -56.76616 
L 198.218182 -57.145626 
L 199.909091 -99.783819 
L 201.6 -57.180123 
L 203.290909 -63.424066 
L 204.981818 -75.222012 
L 206.672727 -104.406407 
L 208.363636 -53.488953 
L 210.054545 -59.077454 
L 211.745455 -60.940287 
L 213.436364 -120.171499 
L 215.127273 -70.909897 
L 216.818182 -57.421602 
L 218.509091 -45.830637 
L 220.2 -72.600246 
L 221.890909 -49.970267 
L 223.581818 -47.451992 
L 225.272727 -61.664723 
L 226.963636 -77.326324 
L 228.654545 -60.871294 
L 230.345455 -51.867598 
L 232.036364 -71.289363 
L 233.727273 -103.888953 
L 235.418182 -82.742341 
L 237.109091 -66.908255 
L 238.8 -79.913593 
L 240.490909 -45.79614 
L 242.181818 -77.981766 
L 243.872727 -48.245421 
L 245.563636 -50.729199 
L 247.254545 -76.946858 
L 248.945455 -103.509487 
L 250.636364 -85.502094 
L 252.327273 -107.925092 
L 254.018182 -101.198193 
L 255.709091 -120.102505 
L 257.4 -76.325914 
L 259.090909 -63.838029 
L 260.781818 -62.803121 
L 262.472727 -72.151786 
L 264.163636 -49.142341 
L 265.854545 -43.829815 
L 267.545455 -52.488542 
L 269.236364 -80.155072 
L 270.927273 -46.969035 
L 272.618182 -46.900041 
L 274.309091 -49.03885 
L 276 -72.634743 
L 277.690909 -46.175606 
L 279.381818 -47.210513 
L 281.072727 -47.934949 
L 282.763636 -52.074579 
L 284.454545 -94.471294 
L 286.145455 -55.42078 
L 287.836364 -55.972731 
L 289.527273 -56.869651 
L 291.218182 -105.71729 
L 292.909091 -60.250349 
L 294.6 -71.530842 
L 296.290909 -54.316879 
L 297.981818 -72.910719 
L 299.672727 -70.185462 
L 301.363636 -91.159589 
L 303.054545 -78.982177 
L 304.745455 -103.681971 
L 306.436364 -78.326735 
L 308.127273 -85.605585 
L 309.818182 -85.502094 
L 311.509091 -90.538645 
L 313.2 -69.771499 
L 314.890909 -66.459795 
L 316.581818 -70.116468 
L 318.272727 -143.00846 
L 319.963636 -72.048296 
L 321.654545 -64.527967 
L 323.345455 -89.538234 
L 325.036364 -61.837207 
L 326.727273 -125.346037 
L 328.418182 -76.291417 
L 330.109091 -78.637207 
L 331.8 -55.282793 
L 333.490909 -86.261027 
L 335.181818 -56.835154 
L 336.872727 -67.563696 
L 338.563636 -75.118522 
L 340.254545 -88.365339 
L 341.945455 -50.970678 
L 343.636364 -59.836386 
L 345.327273 -55.282793 
L 347.018182 -90.297166 
L 348.709091 -59.732895 
L 350.4 -72.945216 
L 352.090909 -64.838439 
L 353.781818 -89.745216 
L 355.472727 -79.016674 
L 357.163636 -74.083614 
L 358.854545 -78.05076 
L 360.545455 -91.504559 
L 362.236364 -67.115236 
L 363.927273 -84.570678 
L 365.618182 -55.938234 
L 367.309091 -54.247885 
L 369 -85.467598 
L 370.690909 -49.107844 
L 372.381818 -47.382998 
L 374.072727 -50.591211 
L 375.763636 -95.678686 
L 377.454545 -74.532074 
L 379.145455 -77.15384 
L 380.836364 -82.569856 
L 382.527273 -97.09306 
L 384.218182 -62.182177 
L 385.909091 -45.140698 
L 387.6 -48.555893 
L 389.290909 -99.266366 
L 390.981818 -53.592444 
L 392.672727 -54.109897 
L 394.363636 -61.147269 
L 396.054545 -103.888953 
L 397.745455 -63.700041 
L 399.436364 -70.254456 
L 401.127273 -60.767803 
L 402.818182 -73.807639 
L 404.509091 -51.246653 
L 406.2 -55.834743 
L 407.890909 -77.809281 
L 409.581818 -62.009692 
L 411.272727 -64.286489 
L 412.963636 -49.383819 
L 414.654545 -59.249938 
L 416.345455 -56.559179 
L 418.036364 -81.776427 
L 419.727273 -103.164517 
L 421.418182 -112.720164 
L 423.109091 -64.010513 
L 424.8 -96.782587 
L 426.490909 -75.635975 
L 428.181818 -100.232279 
L 429.872727 -108.373552 
L 431.563636 -128.071294 
L 433.254545 -101.336181 
L 434.945455 -76.601889 
L 436.636364 -117.308255 
L 438.327273 -127.55384 
L 440.018182 -88.054867 
L 441.709091 -49.521807 
L 443.4 -44.071294 
L 445.090909 -78.464723 
L 446.781818 -77.395318 
L 448.472727 -95.85117 
L 450.163636 -57.628583 
L 451.854545 -66.218316 
L 453.545455 -128.278275 
L 455.236364 -52.005585 
L 456.927273 -53.109487 
L 458.618182 -54.592854 
L 460.309091 -69.185051 
L 462 -71.565339 
L 463.690909 -50.142752 
L 465.381818 -54.834333 
L 467.072727 -75.704969 
L 468.763636 -48.245421 
L 470.454545 -68.253634 
L 472.145455 -65.010924 
L 473.836364 -74.187105 
L 475.527273 -95.678686 
L 477.218182 -111.754251 
L 478.909091 -119.619548 
L 480.6 -127.829815 
L 482.290909 -108.787515 
L 483.981818 -60.664312 
L 485.672727 -55.765749 
L 487.363636 -72.358768 
L 489.054545 -58.11154 
L 490.745455 -71.875811 
L 492.436364 -59.491417 
L 494.127273 -50.453224 
L 495.818182 -56.352197 
L 497.509091 -43.967803 
L 499.2 -44.140287 
L 500.890909 -45.00271 
L 502.581818 -138.592854 
L 504.272727 -77.188337 
L 505.963636 -72.393265 
L 507.654545 -55.593265 
L 509.345455 -82.604353 
L 511.036364 -47.831458 
L 512.727273 -46.417084 
L 514.418182 -53.247474 
L 516.109091 -79.741109 
L 517.8 -55.351786 
L 519.490909 -50.108255 
L 521.181818 -47.865955 
L 522.872727 -72.082793 
L 524.563636 -45.968624 
L 526.254545 -48.452402 
L 527.945455 -49.073347 
L 529.636364 -88.02037 
L 531.327273 -55.041314 
L 533.018182 -66.459795 
L 534.709091 -90.469651 
L 536.4 -72.22078 
L 538.090909 -99.093881 
L 539.781818 -66.908255 
L 541.472727 -97.369035 
L 543.163636 -67.356715 
L 544.854545 -74.773552 
L 546.545455 -60.526324 
L 548.236364 -71.599836 
L 549.927273 -89.365749 
L 551.618182 -105.958768 
L 553.309091 -57.007639 
L 555 -50.729199 
L 556.690909 -58.456509 
L 558.381818 -102.57807 
L 560.072727 -59.180945 
L 561.763636 -52.350554 
L 563.454545 -67.494702 
L 565.145455 -68.391622 
L 566.836364 -64.665955 
L 568.527273 -50.936181 
L 570.218182 -57.732074 
L 571.909091 -72.427762 
L 573.6 -62.872115 
L 575.290909 -51.005175 
L 576.981818 -55.834743 
L 578.672727 -64.976427 
L 580.363636 -168.329199 
L 582.054545 -110.201889 
L 583.745455 -99.611335 
L 585.436364 -58.973963 
L 587.127273 -114.065544 
L 588.818182 -61.837207 
L 590.509091 -65.148912 
L 592.2 -60.664312 
L 593.890909 -113.237618 
L 595.581818 -81.845421 
L 597.272727 -69.840493 
L 598.963636 -62.975606 
L 600.654545 -73.531663 
L 602.345455 -62.216674 
L 604.036364 -47.762464 
L 605.727273 -45.761643 
L 607.418182 -109.235975 
L 609.109091 -58.870472 
L 610.8 -52.868008 
L 612.490909 -51.350144 
L 614.181818 -109.718932 
L 615.872727 -51.005175 
L 617.563636 -69.564517 
L 619.254545 -90.228172 
L 620.945455 -80.810513 
L 622.636364 -62.113183 
L 622.636364 -62.113183 
L 622.636364 -62.113183 
L 620.945455 -146.527146 
L 619.254545 -157.048706 
L 617.563636 -116.445832 
L 615.872727 -95.195729 
L 614.181818 -145.526735 
L 612.490909 -94.885257 
L 610.8 -90.883614 
L 609.109091 -118.757125 
L 607.418182 -126.967392 
L 605.727273 -86.399014 
L 604.036364 -108.132074 
L 602.345455 -107.61462 
L 600.654545 -110.201889 
L 598.963636 -100.473758 
L 597.272727 -119.654045 
L 595.581818 -147.14809 
L 593.890909 -168.156715 
L 592.2 -128.105791 
L 590.509091 -98.024476 
L 588.818182 -113.927556 
L 587.127273 -153.737002 
L 585.436364 -106.234743 
L 583.745455 -177.712361 
L 582.054545 -194.443368 
L 580.363636 -243.36 
L 578.672727 -140.214209 
L 576.981818 -101.612156 
L 575.290909 -79.292649 
L 573.6 -100.715236 
L 571.909091 -109.063491 
L 570.218182 -82.811335 
L 568.527273 -82.569856 
L 566.836364 -113.09963 
L 565.145455 -100.922218 
L 563.454545 -130.003121 
L 561.763636 -88.91729 
L 560.072727 -148.182998 
L 558.381818 -141.490595 
L 556.690909 -108.891006 
L 555 -65.252402 
L 553.309091 -87.364928 
L 551.618182 -171.813388 
L 549.927273 -154.8754 
L 548.236364 -120.654456 
L 546.545455 -92.435975 
L 544.854545 -103.371499 
L 543.163636 -114.582998 
L 541.472727 -166.224887 
L 539.781818 -119.033101 
L 538.090909 -144.35384 
L 536.4 -126.760411 
L 534.709091 -169.950554 
L 533.018182 -177.194908 
L 531.327273 -142.249528 
L 529.636364 -123.897166 
L 527.945455 -71.634333 
L 526.254545 -62.768624 
L 524.563636 -58.008049 
L 522.872727 -92.228994 
L 521.181818 -63.665544 
L 519.490909 -66.218316 
L 517.8 -79.49963 
L 516.109091 -119.654045 
L 514.418182 -86.640493 
L 512.727273 -77.912772 
L 511.036364 -97.334538 
L 509.345455 -103.888953 
L 507.654545 -80.224066 
L 505.963636 -119.033101 
L 504.272727 -178.540287 
L 502.581818 -223.524271 
L 500.890909 -123.862669 
L 499.2 -49.901273 
L 497.509091 -47.038029 
L 495.818182 -83.708255 
L 494.127273 -74.980534 
L 492.436364 -91.608049 
L 490.745455 -112.409692 
L 489.054545 -84.743162 
L 487.363636 -96.851581 
L 485.672727 -78.464723 
L 483.981818 -113.134127 
L 482.290909 -213.313183 
L 480.6 -231.803532 
L 478.909091 -199.652402 
L 477.218182 -175.815031 
L 475.527273 -166.052402 
L 473.836364 -94.367803 
L 472.145455 -120.37848 
L 470.454545 -120.895934 
L 468.763636 -57.835565 
L 467.072727 -96.403121 
L 465.381818 -78.257741 
L 463.690909 -73.531663 
L 462 -108.891006 
L 460.309091 -109.511951 
L 458.618182 -79.39614 
L 456.927273 -66.28731 
L 455.236364 -101.715647 
L 453.545455 -217.142341 
L 451.854545 -110.029405 
L 450.163636 -108.718522 
L 448.472727 -197.375606 
L 446.781818 -128.209281 
L 445.090909 -85.847064 
L 443.4 -49.728789 
L 441.709091 -96.713593 
L 440.018182 -168.294702 
L 438.327273 -219.28115 
L 436.636364 -173.986694 
L 434.945455 -119.274579 
L 433.254545 -159.946448 
L 431.563636 -188.268419 
L 429.872727 -174.676632 
L 428.181818 -165.638439 
L 426.490909 -128.381766 
L 424.8 -121.654867 
L 423.109091 -115.721396 
L 421.418182 -184.611745 
L 419.727273 -189.579302 
L 418.036364 -117.998193 
L 416.345455 -84.43269 
L 414.654545 -82.155893 
L 412.963636 -61.871704 
L 411.272727 -78.257741 
L 409.581818 -93.091417 
L 407.890909 -139.248296 
L 406.2 -107.028172 
L 404.509091 -65.942341 
L 402.818182 -119.930021 
L 401.127273 -98.127967 
L 399.436364 -125.208049 
L 397.745455 -125.139055 
L 396.054545 -151.736181 
L 394.363636 -131.314004 
L 392.672727 -74.187105 
L 390.981818 -71.496345 
L 389.290909 -109.235975 
L 387.6 -62.941109 
L 385.909091 -87.951376 
L 384.218182 -104.233922 
L 382.527273 -137.868419 
L 380.836364 -142.663491 
L 379.145455 -134.556715 
L 377.454545 -121.516879 
L 375.763636 -120.999425 
L 374.072727 -136.488542 
L 372.381818 -123.828172 
L 370.690909 -137.212977 
L 369 -142.594497 
L 367.309091 -86.709487 
L 365.618182 -95.195729 
L 363.927273 -142.594497 
L 362.236364 -113.962053 
L 360.545455 -136.143573 
L 358.854545 -134.729199 
L 357.163636 -126.794908 
L 355.472727 -132.245421 
L 353.781818 -121.068419 
L 352.090909 -124.035154 
L 350.4 -128.519754 
L 348.709091 -104.92386 
L 347.018182 -126.691417 
L 345.327273 -96.6446 
L 343.636364 -103.095524 
L 341.945455 -82.845832 
L 340.254545 -114.789979 
L 338.563636 -127.381355 
L 336.872727 -128.45076 
L 335.181818 -84.812156 
L 333.490909 -107.028172 
L 331.8 -78.706201 
L 330.109091 -139.006817 
L 328.418182 -120.72345 
L 326.727273 -185.957125 
L 325.036364 -120.895934 
L 323.345455 -183.576838 
L 321.654545 -145.630226 
L 319.963636 -120.688953 
L 318.272727 -209.76 
L 316.581818 -102.854045 
L 314.890909 -107.235154 
L 313.2 -156.048296 
L 311.509091 -134.280739 
L 309.818182 -125.104559 
L 308.127273 -126.035975 
L 306.436364 -113.030637 
L 304.745455 -150.597782 
L 303.054545 -109.684435 
L 301.363636 -146.975606 
L 299.672727 -109.615441 
L 297.981818 -108.201068 
L 296.290909 -118.722628 
L 294.6 -167.846242 
L 292.909091 -130.865544 
L 291.218182 -187.337002 
L 289.527273 -66.597782 
L 287.836364 -69.150554 
L 286.145455 -85.709076 
L 284.454545 -128.243778 
L 282.763636 -74.152608 
L 281.072727 -57.042136 
L 279.381818 -57.421602 
L 277.690909 -55.386283 
L 276 -139.282793 
L 274.309091 -125.035565 
L 272.618182 -57.594086 
L 270.927273 -57.697577 
L 269.236364 -100.749733 
L 267.545455 -70.047474 
L 265.854545 -47.831458 
L 264.163636 -60.146858 
L 262.472727 -97.817495 
L 260.781818 -97.09306 
L 259.090909 -115.617906 
L 257.4 -148.734949 
L 255.709091 -208.656099 
L 254.018182 -189.406817 
L 252.327273 -202.722628 
L 250.636364 -154.392444 
L 248.945455 -226.353018 
L 247.254545 -133.521807 
L 245.563636 -99.059384 
L 243.872727 -83.052813 
L 242.181818 -124.449117 
L 240.490909 -56.835154 
L 238.8 -160.601889 
L 237.109091 -113.789569 
L 235.418182 -135.108665 
L 233.727273 -177.298398 
L 232.036364 -125.484025 
L 230.345455 -114.44501 
L 228.654545 -100.094292 
L 226.963636 -99.404353 
L 225.272727 -110.891828 
L 223.581818 -57.490595 
L 221.890909 -62.69963 
L 220.2 -90.055688 
L 218.509091 -51.350144 
L 216.818182 -102.57807 
L 215.127273 -127.933306 
L 213.436364 -167.98423 
L 211.745455 -116.68731 
L 210.054545 -113.134127 
L 208.363636 -99.749322 
L 206.672727 -157.497166 
L 204.981818 -148.010513 
L 203.290909 -153.357536 
L 201.6 -97.851992 
L 199.909091 -127.001889 
L 198.218182 -104.785873 
L 196.527273 -90.607639 
L 194.836364 -77.188337 
L 193.145455 -80.810513 
L 191.454545 -126.622423 
L 189.763636 -84.225708 
L 188.072727 -87.019959 
L 186.381818 -81.396961 
L 184.690909 -125.863491 
L 183 -86.605996 
L 181.309091 -122.379302 
L 179.618182 -103.47499 
L 177.927273 -170.571499 
L 176.236364 -118.550144 
L 174.545455 -120.137002 
L 172.854545 -114.410513 
L 171.163636 -167.639261 
L 169.472727 -121.102916 
L 167.781818 -123.414209 
L 166.090909 -123.552197 
L 164.4 -187.785462 
L 162.709091 -133.452813 
L 161.018182 -126.242957 
L 159.327273 -51.522628 
L 157.636364 -93.50538 
L 155.945455 -111.995729 
L 154.254545 -62.009692 
L 152.563636 -84.018727 
L 150.872727 -70.150965 
L 149.181818 -107.269651 
L 147.490909 -105.648296 
L 145.8 -106.441725 
L 144.109091 -101.646653 
L 142.418182 -162.775195 
L 140.727273 -100.542752 
L 139.036364 -99.818316 
L 137.345455 -104.337413 
L 135.654545 -153.357536 
L 133.963636 -131.279507 
L 132.272727 -136.557536 
L 130.581818 -155.496345 
L 128.890909 -190.614209 
L 127.2 -181.231047 
L 125.509091 -146.630637 
L 123.818182 -99.024887 
L 122.127273 -110.132895 
L 120.436364 -109.235975 
L 118.745455 -76.912361 
L 117.054545 -84.605175 
L 115.363636 -69.116057 
z
" style="stroke: #008000; stroke-width: 0.5"/>
    </defs>
    <g clip-path="url(#p1703635d53)">
     <use xlink:href="#maaefadc2da" x="0" y="288" style="fill: #008000; stroke: #008000; stroke-width: 0.5"/>
    </g>
   </g>
   <g id="line2d_26">
    <path d="M 90 44.64 
L 648 44.64 
" clip-path="url(#p1703635d53)" style="fill: none; stroke: #000000; stroke-width: 1.5; stroke-linecap: square"/>
   </g>
   <g id="line2d_27">
    <path d="M 90 170.243285 
L 648 170.243285 
" clip-path="url(#p1703635d53)" style="fill: none; stroke: #000000; stroke-width: 1.5; stroke-linecap: square"/>
   </g>
   <g id="patch_3">
    <path d="M 90 256.32 
L 90 34.56 
" style="fill: none; stroke: #000000; stroke-width: 0.8; stroke-linejoin: miter; stroke-linecap: square"/>
   </g>
   <g id="patch_4">
    <path d="M 648 256.32 
L 648 34.56 
" style="fill: none; stroke: #000000; stroke-width: 0.8; stroke-linejoin: miter; stroke-linecap: square"/>
   </g>
   <g id="patch_5">
    <path d="M 90 256.32 
L 648 256.32 
" style="fill: none; stroke: #000000; stroke-width: 0.8; stroke-linejoin: miter; stroke-linecap: square"/>
   </g>
   <g id="patch_6">
    <path d="M 90 34.56 
L 648 34.56 
" style="fill: none; stroke: #000000; stroke-width: 0.8; stroke-linejoin: miter; stroke-linecap: square"/>
   </g>
   <g id="text_21">
    <!-- peak (5,844) -->
    <g transform="translate(122.179233 41.3136) scale(0.1 -0.1)">
     <defs>
      <path id="DejaVuSans-Bold-70" d="M 1656 506 
L 1656 -1331 
L 538 -1331 
L 538 3500 
L 1656 3500 
L 1656 2988 
Q 1888 3294 2169 3439 
Q 2450 3584 2816 3584 
Q 3463 3584 3878 3070 
Q 4294 2556 4294 1747 
Q 4294 938 3878 423 
Q 3463 -91 2816 -91 
Q 2450 -91 2169 54 
Q 1888 200 1656 506 
z
M 2400 2772 
Q 2041 2772 1848 2508 
Q 1656 2244 1656 1747 
Q 1656 1250 1848 986 
Q 2041 722 2400 722 
Q 2759 722 2948 984 
Q 3138 1247 3138 1747 
Q 3138 2247 2948 2509 
Q 2759 2772 2400 2772 
z
" transform="scale(0.015625)"/>
      <path id="DejaVuSans-Bold-65" d="M 4031 1759 
L 4031 1441 
L 1416 1441 
Q 1456 1047 1700 850 
Q 1944 653 2381 653 
Q 2734 653 3104 758 
Q 3475 863 3866 1075 
L 3866 213 
Q 3469 63 3072 -14 
Q 2675 -91 2278 -91 
Q 1328 -91 801 392 
Q 275 875 275 1747 
Q 275 2603 792 3093 
Q 1309 3584 2216 3584 
Q 3041 3584 3536 3087 
Q 4031 2591 4031 1759 
z
M 2881 2131 
Q 2881 2450 2695 2645 
Q 2509 2841 2209 2841 
Q 1884 2841 1681 2658 
Q 1478 2475 1428 2131 
L 2881 2131 
z
" transform="scale(0.015625)"/>
      <path id="DejaVuSans-Bold-61" d="M 2106 1575 
Q 1756 1575 1579 1456 
Q 1403 1338 1403 1106 
Q 1403 894 1545 773 
Q 1688 653 1941 653 
Q 2256 653 2472 879 
Q 2688 1106 2688 1447 
L 2688 1575 
L 2106 1575 
z
M 3816 1997 
L 3816 0 
L 2688 0 
L 2688 519 
Q 2463 200 2181 54 
Q 1900 -91 1497 -91 
Q 953 -91 614 226 
Q 275 544 275 1050 
Q 275 1666 698 1953 
Q 1122 2241 2028 2241 
L 2688 2241 
L 2688 2328 
Q 2688 2594 2478 2717 
Q 2269 2841 1825 2841 
Q 1466 2841 1156 2769 
Q 847 2697 581 2553 
L 581 3406 
Q 941 3494 1303 3539 
Q 1666 3584 2028 3584 
Q 2975 3584 3395 3211 
Q 3816 2838 3816 1997 
z
" transform="scale(0.015625)"/>
      <path id="DejaVuSans-Bold-6b" d="M 538 4863 
L 1656 4863 
L 1656 2216 
L 2944 3500 
L 4244 3500 
L 2534 1894 
L 4378 0 
L 3022 0 
L 1656 1459 
L 1656 0 
L 538 0 
L 538 4863 
z
" transform="scale(0.015625)"/>
      <path id="DejaVuSans-Bold-20" transform="scale(0.015625)"/>
      <path id="DejaVuSans-Bold-28" d="M 2413 -844 
L 1484 -844 
Q 1006 -72 778 623 
Q 550 1319 550 2003 
Q 550 2688 779 3389 
Q 1009 4091 1484 4856 
L 2413 4856 
Q 2013 4116 1813 3408 
Q 1613 2700 1613 2009 
Q 1613 1319 1811 609 
Q 2009 -100 2413 -844 
z
" transform="scale(0.015625)"/>
      <path id="DejaVuSans-Bold-35" d="M 678 4666 
L 3669 4666 
L 3669 3781 
L 1638 3781 
L 1638 3059 
Q 1775 3097 1914 3117 
Q 2053 3138 2203 3138 
Q 3056 3138 3531 2711 
Q 4006 2284 4006 1522 
Q 4006 766 3489 337 
Q 2972 -91 2053 -91 
Q 1656 -91 1267 -14 
Q 878 63 494 219 
L 494 1166 
Q 875 947 1217 837 
Q 1559 728 1863 728 
Q 2300 728 2551 942 
Q 2803 1156 2803 1522 
Q 2803 1891 2551 2103 
Q 2300 2316 1863 2316 
Q 1603 2316 1309 2248 
Q 1016 2181 678 2041 
L 678 4666 
z
" transform="scale(0.015625)"/>
      <path id="DejaVuSans-Bold-2c" d="M 653 1209 
L 1778 1209 
L 1778 256 
L 1006 -909 
L 341 -909 
L 653 256 
L 653 1209 
z
" transform="scale(0.015625)"/>
      <path id="DejaVuSans-Bold-38" d="M 2228 2088 
Q 1891 2088 1709 1903 
Q 1528 1719 1528 1375 
Q 1528 1031 1709 848 
Q 1891 666 2228 666 
Q 2563 666 2741 848 
Q 2919 1031 2919 1375 
Q 2919 1722 2741 1905 
Q 2563 2088 2228 2088 
z
M 1350 2484 
Q 925 2613 709 2878 
Q 494 3144 494 3541 
Q 494 4131 934 4440 
Q 1375 4750 2228 4750 
Q 3075 4750 3515 4442 
Q 3956 4134 3956 3541 
Q 3956 3144 3739 2878 
Q 3522 2613 3097 2484 
Q 3572 2353 3814 2058 
Q 4056 1763 4056 1313 
Q 4056 619 3595 264 
Q 3134 -91 2228 -91 
Q 1319 -91 855 264 
Q 391 619 391 1313 
Q 391 1763 633 2058 
Q 875 2353 1350 2484 
z
M 1631 3419 
Q 1631 3141 1786 2991 
Q 1941 2841 2228 2841 
Q 2509 2841 2662 2991 
Q 2816 3141 2816 3419 
Q 2816 3697 2662 3845 
Q 2509 3994 2228 3994 
Q 1941 3994 1786 3844 
Q 1631 3694 1631 3419 
z
" transform="scale(0.015625)"/>
      <path id="DejaVuSans-Bold-34" d="M 2356 3675 
L 1038 1722 
L 2356 1722 
L 2356 3675 
z
M 2156 4666 
L 3494 4666 
L 3494 1722 
L 4159 1722 
L 4159 850 
L 3494 850 
L 3494 0 
L 2356 0 
L 2356 850 
L 288 850 
L 288 1881 
L 2156 4666 
z
" transform="scale(0.015625)"/>
      <path id="DejaVuSans-Bold-29" d="M 513 -844 
Q 913 -100 1113 609 
Q 1313 1319 1313 2009 
Q 1313 2700 1113 3408 
Q 913 4116 513 4856 
L 1441 4856 
Q 1916 4091 2145 3389 
Q 2375 2688 2375 2003 
Q 2375 1319 2147 623 
Q 1919 -72 1441 -844 
L 513 -844 
z
" transform="scale(0.015625)"/>
     </defs>
     <use xlink:href="#DejaVuSans-Bold-70"/>
     <use xlink:href="#DejaVuSans-Bold-65" x="71.582031"/>
     <use xlink:href="#DejaVuSans-Bold-61" x="139.404297"/>
     <use xlink:href="#DejaVuSans-Bold-6b" x="206.884766"/>
     <use xlink:href="#DejaVuSans-Bold-20" x="273.388672"/>
     <use xlink:href="#DejaVuSans-Bold-28" x="308.203125"/>
     <use xlink:href="#DejaVuSans-Bold-35" x="353.90625"/>
     <use xlink:href="#DejaVuSans-Bold-2c" x="423.486328"/>
     <use xlink:href="#DejaVuSans-Bold-38" x="461.474609"/>
     <use xlink:href="#DejaVuSans-Bold-34" x="531.054688"/>
     <use xlink:href="#DejaVuSans-Bold-34" x="600.634766"/>
     <use xlink:href="#DejaVuSans-Bold-29" x="670.214844"/>
    </g>
   </g>
   <g id="text_22">
    <!-- mean (2,203) -->
    <g transform="translate(567.728153 166.916885) scale(0.1 -0.1)">
     <defs>
      <path id="DejaVuSans-Bold-6d" d="M 3781 2919 
Q 3994 3244 4286 3414 
Q 4578 3584 4928 3584 
Q 5531 3584 5847 3212 
Q 6163 2841 6163 2131 
L 6163 0 
L 5038 0 
L 5038 1825 
Q 5041 1866 5042 1909 
Q 5044 1953 5044 2034 
Q 5044 2406 4934 2573 
Q 4825 2741 4581 2741 
Q 4263 2741 4089 2478 
Q 3916 2216 3909 1719 
L 3909 0 
L 2784 0 
L 2784 1825 
Q 2784 2406 2684 2573 
Q 2584 2741 2328 2741 
Q 2006 2741 1831 2477 
Q 1656 2213 1656 1722 
L 1656 0 
L 531 0 
L 531 3500 
L 1656 3500 
L 1656 2988 
Q 1863 3284 2130 3434 
Q 2397 3584 2719 3584 
Q 3081 3584 3359 3409 
Q 3638 3234 3781 2919 
z
" transform="scale(0.015625)"/>
      <path id="DejaVuSans-Bold-6e" d="M 4056 2131 
L 4056 0 
L 2931 0 
L 2931 347 
L 2931 1631 
Q 2931 2084 2911 2256 
Q 2891 2428 2841 2509 
Q 2775 2619 2662 2680 
Q 2550 2741 2406 2741 
Q 2056 2741 1856 2470 
Q 1656 2200 1656 1722 
L 1656 0 
L 538 0 
L 538 3500 
L 1656 3500 
L 1656 2988 
Q 1909 3294 2193 3439 
Q 2478 3584 2822 3584 
Q 3428 3584 3742 3212 
Q 4056 2841 4056 2131 
z
" transform="scale(0.015625)"/>
      <path id="DejaVuSans-Bold-32" d="M 1844 884 
L 3897 884 
L 3897 0 
L 506 0 
L 506 884 
L 2209 2388 
Q 2438 2594 2547 2791 
Q 2656 2988 2656 3200 
Q 2656 3528 2436 3728 
Q 2216 3928 1850 3928 
Q 1569 3928 1234 3808 
Q 900 3688 519 3450 
L 519 4475 
Q 925 4609 1322 4679 
Q 1719 4750 2100 4750 
Q 2938 4750 3402 4381 
Q 3866 4013 3866 3353 
Q 3866 2972 3669 2642 
Q 3472 2313 2841 1759 
L 1844 884 
z
" transform="scale(0.015625)"/>
      <path id="DejaVuSans-Bold-30" d="M 2944 2338 
Q 2944 3213 2780 3570 
Q 2616 3928 2228 3928 
Q 1841 3928 1675 3570 
Q 1509 3213 1509 2338 
Q 1509 1453 1675 1090 
Q 1841 728 2228 728 
Q 2613 728 2778 1090 
Q 2944 1453 2944 2338 
z
M 4147 2328 
Q 4147 1169 3647 539 
Q 3147 -91 2228 -91 
Q 1306 -91 806 539 
Q 306 1169 306 2328 
Q 306 3491 806 4120 
Q 1306 4750 2228 4750 
Q 3147 4750 3647 4120 
Q 4147 3491 4147 2328 
z
" transform="scale(0.015625)"/>
      <path id="DejaVuSans-Bold-33" d="M 2981 2516 
Q 3453 2394 3698 2092 
Q 3944 1791 3944 1325 
Q 3944 631 3412 270 
Q 2881 -91 1863 -91 
Q 1503 -91 1142 -33 
Q 781 25 428 141 
L 428 1069 
Q 766 900 1098 814 
Q 1431 728 1753 728 
Q 2231 728 2486 893 
Q 2741 1059 2741 1369 
Q 2741 1688 2480 1852 
Q 2219 2016 1709 2016 
L 1228 2016 
L 1228 2791 
L 1734 2791 
Q 2188 2791 2409 2933 
Q 2631 3075 2631 3366 
Q 2631 3634 2415 3781 
Q 2200 3928 1806 3928 
Q 1516 3928 1219 3862 
Q 922 3797 628 3669 
L 628 4550 
Q 984 4650 1334 4700 
Q 1684 4750 2022 4750 
Q 2931 4750 3382 4451 
Q 3834 4153 3834 3553 
Q 3834 3144 3618 2883 
Q 3403 2622 2981 2516 
z
" transform="scale(0.015625)"/>
     </defs>
     <use xlink:href="#DejaVuSans-Bold-6d"/>
     <use xlink:href="#DejaVuSans-Bold-65" x="104.199219"/>
     <use xlink:href="#DejaVuSans-Bold-61" x="172.021484"/>
     <use xlink:href="#DejaVuSans-Bold-6e" x="239.501953"/>
     <use xlink:href="#DejaVuSans-Bold-20" x="310.693359"/>
     <use xlink:href="#DejaVuSans-Bold-28" x="345.507812"/>
     <use xlink:href="#DejaVuSans-Bold-32" x="391.210938"/>
     <use xlink:href="#DejaVuSans-Bold-2c" x="460.791016"/>
     <use xlink:href="#DejaVuSans-Bold-32" x="498.779297"/>
     <use xlink:href="#DejaVuSans-Bold-30" x="568.359375"/>
     <use xlink:href="#DejaVuSans-Bold-33" x="637.939453"/>
     <use xlink:href="#DejaVuSans-Bold-29" x="707.519531"/>
    </g>
   </g>
   <g id="text_23">
    <!-- Stream Bitrate over Time -->
    <g transform="translate(293.189062 28.56) scale(0.12 -0.12)">
     <defs>
      <path id="DejaVuSans-53" d="M 3425 4513 
L 3425 3897 
Q 3066 4069 2747 4153 
Q 2428 4238 2131 4238 
Q 1616 4238 1336 4038 
Q 1056 3838 1056 3469 
Q 1056 3159 1242 3001 
Q 1428 2844 1947 2747 
L 2328 2669 
Q 3034 2534 3370 2195 
Q 3706 1856 3706 1288 
Q 3706 609 3251 259 
Q 2797 -91 1919 -91 
Q 1588 -91 1214 -16 
Q 841 59 441 206 
L 441 856 
Q 825 641 1194 531 
Q 1563 422 1919 422 
Q 2459 422 2753 634 
Q 3047 847 3047 1241 
Q 3047 1584 2836 1778 
Q 2625 1972 2144 2069 
L 1759 2144 
Q 1053 2284 737 2584 
Q 422 2884 422 3419 
Q 422 4038 858 4394 
Q 1294 4750 2059 4750 
Q 2388 4750 2728 4690 
Q 3069 4631 3425 4513 
z
" transform="scale(0.015625)"/>
      <path id="DejaVuSans-6f" d="M 1959 3097 
Q 1497 3097 1228 2736 
Q 959 2375 959 1747 
Q 959 1119 1226 758 
Q 1494 397 1959 397 
Q 2419 397 2687 759 
Q 2956 1122 2956 1747 
Q 2956 2369 2687 2733 
Q 2419 3097 1959 3097 
z
M 1959 3584 
Q 2709 3584 3137 3096 
Q 3566 2609 3566 1747 
Q 3566 888 3137 398 
Q 2709 -91 1959 -91 
Q 1206 -91 779 398 
Q 353 888 353 1747 
Q 353 2609 779 3096 
Q 1206 3584 1959 3584 
z
" transform="scale(0.015625)"/>
      <path id="DejaVuSans-76" d="M 191 3500 
L 800 3500 
L 1894 563 
L 2988 3500 
L 3597 3500 
L 2284 0 
L 1503 0 
L 191 3500 
z
" transform="scale(0.015625)"/>
     </defs>
     <use xlink:href="#DejaVuSans-53"/>
     <use xlink:href="#DejaVuSans-74" x="63.476562"/>
     <use xlink:href="#DejaVuSans-72" x="102.685547"/>
     <use xlink:href="#DejaVuSans-65" x="141.548828"/>
     <use xlink:href="#DejaVuSans-61" x="203.072266"/>
     <use xlink:href="#DejaVuSans-6d" x="264.351562"/>
     <use xlink:href="#DejaVuSans-20" x="361.763672"/>
     <use xlink:href="#DejaVuSans-42" x="393.550781"/>
     <use xlink:href="#DejaVuSans-69" x="462.154297"/>
     <use xlink:href="#DejaVuSans-74" x="489.9375"/>
     <use xlink:href="#DejaVuSans-72" x="529.146484"/>
     <use xlink:href="#DejaVuSans-61" x="570.259766"/>
     <use xlink:href="#DejaVuSans-74" x="631.539062"/>
     <use xlink:href="#DejaVuSans-65" x="670.748047"/>
     <use xlink:href="#DejaVuSans-20" x="732.271484"/>
     <use xlink:href="#DejaVuSans-6f" x="764.058594"/>
     <use xlink:href="#DejaVuSans-76" x="825.240234"/>
     <use xlink:href="#DejaVuSans-65" x="884.419922"/>
     <use xlink:href="#DejaVuSans-72" x="945.943359"/>
     <use xlink:href="#DejaVuSans-20" x="987.056641"/>
     <use xlink:href="#DejaVuSans-54" x="1018.84375"/>
     <use xlink:href="#DejaVuSans-69" x="1076.802734"/>
     <use xlink:href="#DejaVuSans-6d" x="1104.585938"/>
     <use xlink:href="#DejaVuSans-65" x="1201.998047"/>
    </g>
   </g>
   <g id="legend_1">
    <g id="patch_7">
     <path d="M 602.139063 86.594375 
L 641 86.594375 
Q 643 86.594375 643 84.594375 
L 643 41.56 
Q 643 39.56 641 39.56 
L 602.139063 39.56 
Q 600.139063 39.56 600.139063 41.56 
L 600.139063 84.594375 
Q 600.139063 86.594375 602.139063 86.594375 
z
" style="fill: #ffffff; opacity: 0.8; stroke: #cccccc; stroke-linejoin: miter"/>
    </g>
    <g id="patch_8">
     <path d="M 604.139063 51.158438 
L 624.139063 51.158438 
L 624.139063 44.158438 
L 604.139063 44.158438 
z
" style="fill: #ff0000; stroke: #ff0000; stroke-width: 0.5; stroke-linejoin: miter"/>
    </g>
    <g id="text_24">
     <!-- I -->
     <g transform="translate(632.139063 51.158438) scale(0.1 -0.1)">
      <defs>
       <path id="DejaVuSans-49" d="M 628 4666 
L 1259 4666 
L 1259 0 
L 628 0 
L 628 4666 
z
" transform="scale(0.015625)"/>
      </defs>
      <use xlink:href="#DejaVuSans-49"/>
     </g>
    </g>
    <g id="patch_9">
     <path d="M 604.139063 65.836563 
L 624.139063 65.836563 
L 624.139063 58.836563 
L 604.139063 58.836563 
z
" style="fill: #0000ff; stroke: #0000ff; stroke-width: 0.5; stroke-linejoin: miter"/>
    </g>
    <g id="text_25">
     <!-- B -->
     <g transform="translate(632.139063 65.836563) scale(0.1 -0.1)">
      <use xlink:href="#DejaVuSans-42"/>
     </g>
    </g>
    <g id="patch_10">
     <path d="M 604.139063 80.514688 
L 624.139063 80.514688 
L 624.139063 73.514688 
L 604.139063 73.514688 
z
" style="fill: #008000; stroke: #008000; stroke-width: 0.5; stroke-linejoin: miter"/>
    </g>
    <g id="text_26">
     <!-- P -->
     <g transform="translate(632.139063 80.514688) scale(0.1 -0.1)">
      <defs>
       <path id="DejaVuSans-50" d="M 1259 4147 
L 1259 2394 
L 2053 2394 
Q 2494 2394 2734 2622 
Q 2975 2850 2975 3272 
Q 2975 3691 2734 3919 
Q 2494 4147 2053 4147 
L 1259 4147 
z
M 628 4666 
L 2053 4666 
Q 2838 4666 3239 4311 
Q 3641 3956 3641 3272 
Q 3641 2581 3239 2228 
Q 2838 1875 2053 1875 
L 1259 1875 
L 1259 0 
L 628 0 
L 628 4666 
z
" transform="scale(0.015625)"/>
      </defs>
      <use xlink:href="#DejaVuSans-50"/>
     </g>
    </g>
   </g>
  </g>
 </g>
 <defs>
  <clipPath id="p1703635d53">
   <rect x="90" y="34.56" width="558" height="221.76"/>
  </clipPath>
 </defs>
</svg>
