<?xml version="1.0" encoding="utf-8" standalone="no"?>
<!DOCTYPE svg PUBLIC "-//W3C//DTD SVG 1.1//EN"
  "http://www.w3.org/Graphics/SVG/1.1/DTD/svg11.dtd">
<svg xmlns:xlink="http://www.w3.org/1999/xlink" width="720pt" height="288pt" viewBox="0 0 720 288" xmlns="http://www.w3.org/2000/svg" version="1.1">
 <metadata>
  <rdf:RDF xmlns:dc="http://purl.org/dc/elements/1.1/" xmlns:cc="http://creativecommons.org/ns#" xmlns:rdf="http://www.w3.org/1999/02/22-rdf-syntax-ns#">
   <cc:Work>
    <dc:type rdf:resource="http://purl.org/dc/dcmitype/StillImage"/>
    <dc:date>2023-05-07T02:12:06.108510</dc:date>
    <dc:format>image/svg+xml</dc:format>
    <dc:creator>
     <cc:Agent>
      <dc:title>Matplotlib v3.7.1, https://matplotlib.org/</dc:title>
     </cc:Agent>
    </dc:creator>
   </cc:Work>
  </rdf:RDF>
 </metadata>
 <defs>
  <style type="text/css">*{stroke-linejoin: round; stroke-linecap: butt}</style>
 </defs>
 <g id="figure_1">
  <g id="patch_1">
   <path d="M 0 288 
L 720 288 
L 720 0 
L 0 0 
z
" style="fill: #ffffff"/>
  </g>
  <g id="axes_1">
   <g id="patch_2">
    <path d="M 90 256.32 
L 648 256.32 
L 648 34.56 
L 90 34.56 
z
" style="fill: #ffffff"/>
   </g>
   <g id="matplotlib.axis_1">
    <g id="xtick_1">
     <g id="line2d_1">
      <defs>
       <path id="m16247df489" d="M 0 0 
L 0 3.5 
" style="stroke: #000000; stroke-width: 0.8"/>
      </defs>
      <g>
       <use xlink:href="#m16247df489" x="115.363636" y="256.32" style="stroke: #000000; stroke-width: 0.8"/>
      </g>
     </g>
     <g id="text_1">
      <!-- 0:00:00 -->
      <g transform="translate(96.088636 270.918437) scale(0.1 -0.1)">
       <defs>
        <path id="DejaVuSans-30" d="M 2034 4250 
Q 1547 4250 1301 3770 
Q 1056 3291 1056 2328 
Q 1056 1369 1301 889 
Q 1547 409 2034 409 
Q 2525 409 2770 889 
Q 3016 1369 3016 2328 
Q 3016 3291 2770 3770 
Q 2525 4250 2034 4250 
z
M 2034 4750 
Q 2819 4750 3233 4129 
Q 3647 3509 3647 2328 
Q 3647 1150 3233 529 
Q 2819 -91 2034 -91 
Q 1250 -91 836 529 
Q 422 1150 422 2328 
Q 422 3509 836 4129 
Q 1250 4750 2034 4750 
z
" transform="scale(0.015625)"/>
        <path id="DejaVuSans-3a" d="M 750 794 
L 1409 794 
L 1409 0 
L 750 0 
L 750 794 
z
M 750 3309 
L 1409 3309 
L 1409 2516 
L 750 2516 
L 750 3309 
z
" transform="scale(0.015625)"/>
       </defs>
       <use xlink:href="#DejaVuSans-30"/>
       <use xlink:href="#DejaVuSans-3a" x="63.623047"/>
       <use xlink:href="#DejaVuSans-30" x="97.314453"/>
       <use xlink:href="#DejaVuSans-30" x="160.9375"/>
       <use xlink:href="#DejaVuSans-3a" x="224.560547"/>
       <use xlink:href="#DejaVuSans-30" x="258.251953"/>
       <use xlink:href="#DejaVuSans-30" x="321.875"/>
      </g>
     </g>
    </g>
    <g id="xtick_2">
     <g id="line2d_2">
      <g>
       <use xlink:href="#m16247df489" x="166.090909" y="256.32" style="stroke: #000000; stroke-width: 0.8"/>
      </g>
     </g>
     <g id="text_2">
      <!-- 0:00:30 -->
      <g transform="translate(146.815909 270.918437) scale(0.1 -0.1)">
       <defs>
        <path id="DejaVuSans-33" d="M 2597 2516 
Q 3050 2419 3304 2112 
Q 3559 1806 3559 1356 
Q 3559 666 3084 287 
Q 2609 -91 1734 -91 
Q 1441 -91 1130 -33 
Q 819 25 488 141 
L 488 750 
Q 750 597 1062 519 
Q 1375 441 1716 441 
Q 2309 441 2620 675 
Q 2931 909 2931 1356 
Q 2931 1769 2642 2001 
Q 2353 2234 1838 2234 
L 1294 2234 
L 1294 2753 
L 1863 2753 
Q 2328 2753 2575 2939 
Q 2822 3125 2822 3475 
Q 2822 3834 2567 4026 
Q 2313 4219 1838 4219 
Q 1578 4219 1281 4162 
Q 984 4106 628 3988 
L 628 4550 
Q 988 4650 1302 4700 
Q 1616 4750 1894 4750 
Q 2613 4750 3031 4423 
Q 3450 4097 3450 3541 
Q 3450 3153 3228 2886 
Q 3006 2619 2597 2516 
z
" transform="scale(0.015625)"/>
       </defs>
       <use xlink:href="#DejaVuSans-30"/>
       <use xlink:href="#DejaVuSans-3a" x="63.623047"/>
       <use xlink:href="#DejaVuSans-30" x="97.314453"/>
       <use xlink:href="#DejaVuSans-30" x="160.9375"/>
       <use xlink:href="#DejaVuSans-3a" x="224.560547"/>
       <use xlink:href="#DejaVuSans-33" x="258.251953"/>
       <use xlink:href="#DejaVuSans-30" x="321.875"/>
      </g>
     </g>
    </g>
    <g id="xtick_3">
     <g id="line2d_3">
      <g>
       <use xlink:href="#m16247df489" x="216.818182" y="256.32" style="stroke: #000000; stroke-width: 0.8"/>
      </g>
     </g>
     <g id="text_3">
      <!-- 0:01:00 -->
      <g transform="translate(197.543182 270.918437) scale(0.1 -0.1)">
       <defs>
        <path id="DejaVuSans-31" d="M 794 531 
L 1825 531 
L 1825 4091 
L 703 3866 
L 703 4441 
L 1819 4666 
L 2450 4666 
L 2450 531 
L 3481 531 
L 3481 0 
L 794 0 
L 794 531 
z
" transform="scale(0.015625)"/>
       </defs>
       <use xlink:href="#DejaVuSans-30"/>
       <use xlink:href="#DejaVuSans-3a" x="63.623047"/>
       <use xlink:href="#DejaVuSans-30" x="97.314453"/>
       <use xlink:href="#DejaVuSans-31" x="160.9375"/>
       <use xlink:href="#DejaVuSans-3a" x="224.560547"/>
       <use xlink:href="#DejaVuSans-30" x="258.251953"/>
       <use xlink:href="#DejaVuSans-30" x="321.875"/>
      </g>
     </g>
    </g>
    <g id="xtick_4">
     <g id="line2d_4">
      <g>
       <use xlink:href="#m16247df489" x="267.545455" y="256.32" style="stroke: #000000; stroke-width: 0.8"/>
      </g>
     </g>
     <g id="text_4">
      <!-- 0:01:30 -->
      <g transform="translate(248.270455 270.918437) scale(0.1 -0.1)">
       <use xlink:href="#DejaVuSans-30"/>
       <use xlink:href="#DejaVuSans-3a" x="63.623047"/>
       <use xlink:href="#DejaVuSans-30" x="97.314453"/>
       <use xlink:href="#DejaVuSans-31" x="160.9375"/>
       <use xlink:href="#DejaVuSans-3a" x="224.560547"/>
       <use xlink:href="#DejaVuSans-33" x="258.251953"/>
       <use xlink:href="#DejaVuSans-30" x="321.875"/>
      </g>
     </g>
    </g>
    <g id="xtick_5">
     <g id="line2d_5">
      <g>
       <use xlink:href="#m16247df489" x="318.272727" y="256.32" style="stroke: #000000; stroke-width: 0.8"/>
      </g>
     </g>
     <g id="text_5">
      <!-- 0:02:00 -->
      <g transform="translate(298.997727 270.918437) scale(0.1 -0.1)">
       <defs>
        <path id="DejaVuSans-32" d="M 1228 531 
L 3431 531 
L 3431 0 
L 469 0 
L 469 531 
Q 828 903 1448 1529 
Q 2069 2156 2228 2338 
Q 2531 2678 2651 2914 
Q 2772 3150 2772 3378 
Q 2772 3750 2511 3984 
Q 2250 4219 1831 4219 
Q 1534 4219 1204 4116 
Q 875 4013 500 3803 
L 500 4441 
Q 881 4594 1212 4672 
Q 1544 4750 1819 4750 
Q 2544 4750 2975 4387 
Q 3406 4025 3406 3419 
Q 3406 3131 3298 2873 
Q 3191 2616 2906 2266 
Q 2828 2175 2409 1742 
Q 1991 1309 1228 531 
z
" transform="scale(0.015625)"/>
       </defs>
       <use xlink:href="#DejaVuSans-30"/>
       <use xlink:href="#DejaVuSans-3a" x="63.623047"/>
       <use xlink:href="#DejaVuSans-30" x="97.314453"/>
       <use xlink:href="#DejaVuSans-32" x="160.9375"/>
       <use xlink:href="#DejaVuSans-3a" x="224.560547"/>
       <use xlink:href="#DejaVuSans-30" x="258.251953"/>
       <use xlink:href="#DejaVuSans-30" x="321.875"/>
      </g>
     </g>
    </g>
    <g id="xtick_6">
     <g id="line2d_6">
      <g>
       <use xlink:href="#m16247df489" x="369" y="256.32" style="stroke: #000000; stroke-width: 0.8"/>
      </g>
     </g>
     <g id="text_6">
      <!-- 0:02:30 -->
      <g transform="translate(349.725 270.918437) scale(0.1 -0.1)">
       <use xlink:href="#DejaVuSans-30"/>
       <use xlink:href="#DejaVuSans-3a" x="63.623047"/>
       <use xlink:href="#DejaVuSans-30" x="97.314453"/>
       <use xlink:href="#DejaVuSans-32" x="160.9375"/>
       <use xlink:href="#DejaVuSans-3a" x="224.560547"/>
       <use xlink:href="#DejaVuSans-33" x="258.251953"/>
       <use xlink:href="#DejaVuSans-30" x="321.875"/>
      </g>
     </g>
    </g>
    <g id="xtick_7">
     <g id="line2d_7">
      <g>
       <use xlink:href="#m16247df489" x="419.727273" y="256.32" style="stroke: #000000; stroke-width: 0.8"/>
      </g>
     </g>
     <g id="text_7">
      <!-- 0:03:00 -->
      <g transform="translate(400.452273 270.918437) scale(0.1 -0.1)">
       <use xlink:href="#DejaVuSans-30"/>
       <use xlink:href="#DejaVuSans-3a" x="63.623047"/>
       <use xlink:href="#DejaVuSans-30" x="97.314453"/>
       <use xlink:href="#DejaVuSans-33" x="160.9375"/>
       <use xlink:href="#DejaVuSans-3a" x="224.560547"/>
       <use xlink:href="#DejaVuSans-30" x="258.251953"/>
       <use xlink:href="#DejaVuSans-30" x="321.875"/>
      </g>
     </g>
    </g>
    <g id="xtick_8">
     <g id="line2d_8">
      <g>
       <use xlink:href="#m16247df489" x="470.454545" y="256.32" style="stroke: #000000; stroke-width: 0.8"/>
      </g>
     </g>
     <g id="text_8">
      <!-- 0:03:30 -->
      <g transform="translate(451.179545 270.918437) scale(0.1 -0.1)">
       <use xlink:href="#DejaVuSans-30"/>
       <use xlink:href="#DejaVuSans-3a" x="63.623047"/>
       <use xlink:href="#DejaVuSans-30" x="97.314453"/>
       <use xlink:href="#DejaVuSans-33" x="160.9375"/>
       <use xlink:href="#DejaVuSans-3a" x="224.560547"/>
       <use xlink:href="#DejaVuSans-33" x="258.251953"/>
       <use xlink:href="#DejaVuSans-30" x="321.875"/>
      </g>
     </g>
    </g>
    <g id="xtick_9">
     <g id="line2d_9">
      <g>
       <use xlink:href="#m16247df489" x="521.181818" y="256.32" style="stroke: #000000; stroke-width: 0.8"/>
      </g>
     </g>
     <g id="text_9">
      <!-- 0:04:00 -->
      <g transform="translate(501.906818 270.918437) scale(0.1 -0.1)">
       <defs>
        <path id="DejaVuSans-34" d="M 2419 4116 
L 825 1625 
L 2419 1625 
L 2419 4116 
z
M 2253 4666 
L 3047 4666 
L 3047 1625 
L 3713 1625 
L 3713 1100 
L 3047 1100 
L 3047 0 
L 2419 0 
L 2419 1100 
L 313 1100 
L 313 1709 
L 2253 4666 
z
" transform="scale(0.015625)"/>
       </defs>
       <use xlink:href="#DejaVuSans-30"/>
       <use xlink:href="#DejaVuSans-3a" x="63.623047"/>
       <use xlink:href="#DejaVuSans-30" x="97.314453"/>
       <use xlink:href="#DejaVuSans-34" x="160.9375"/>
       <use xlink:href="#DejaVuSans-3a" x="224.560547"/>
       <use xlink:href="#DejaVuSans-30" x="258.251953"/>
       <use xlink:href="#DejaVuSans-30" x="321.875"/>
      </g>
     </g>
    </g>
    <g id="xtick_10">
     <g id="line2d_10">
      <g>
       <use xlink:href="#m16247df489" x="571.909091" y="256.32" style="stroke: #000000; stroke-width: 0.8"/>
      </g>
     </g>
     <g id="text_10">
      <!-- 0:04:30 -->
      <g transform="translate(552.634091 270.918437) scale(0.1 -0.1)">
       <use xlink:href="#DejaVuSans-30"/>
       <use xlink:href="#DejaVuSans-3a" x="63.623047"/>
       <use xlink:href="#DejaVuSans-30" x="97.314453"/>
       <use xlink:href="#DejaVuSans-34" x="160.9375"/>
       <use xlink:href="#DejaVuSans-3a" x="224.560547"/>
       <use xlink:href="#DejaVuSans-33" x="258.251953"/>
       <use xlink:href="#DejaVuSans-30" x="321.875"/>
      </g>
     </g>
    </g>
    <g id="xtick_11">
     <g id="line2d_11">
      <g>
       <use xlink:href="#m16247df489" x="622.636364" y="256.32" style="stroke: #000000; stroke-width: 0.8"/>
      </g>
     </g>
     <g id="text_11">
      <!-- 0:05:00 -->
      <g transform="translate(603.361364 270.918437) scale(0.1 -0.1)">
       <defs>
        <path id="DejaVuSans-35" d="M 691 4666 
L 3169 4666 
L 3169 4134 
L 1269 4134 
L 1269 2991 
Q 1406 3038 1543 3061 
Q 1681 3084 1819 3084 
Q 2600 3084 3056 2656 
Q 3513 2228 3513 1497 
Q 3513 744 3044 326 
Q 2575 -91 1722 -91 
Q 1428 -91 1123 -41 
Q 819 9 494 109 
L 494 744 
Q 775 591 1075 516 
Q 1375 441 1709 441 
Q 2250 441 2565 725 
Q 2881 1009 2881 1497 
Q 2881 1984 2565 2268 
Q 2250 2553 1709 2553 
Q 1456 2553 1204 2497 
Q 953 2441 691 2322 
L 691 4666 
z
" transform="scale(0.015625)"/>
       </defs>
       <use xlink:href="#DejaVuSans-30"/>
       <use xlink:href="#DejaVuSans-3a" x="63.623047"/>
       <use xlink:href="#DejaVuSans-30" x="97.314453"/>
       <use xlink:href="#DejaVuSans-35" x="160.9375"/>
       <use xlink:href="#DejaVuSans-3a" x="224.560547"/>
       <use xlink:href="#DejaVuSans-30" x="258.251953"/>
       <use xlink:href="#DejaVuSans-30" x="321.875"/>
      </g>
     </g>
    </g>
    <g id="text_12">
     <!-- Time -->
     <g transform="translate(356.766406 284.596563) scale(0.1 -0.1)">
      <defs>
       <path id="DejaVuSans-54" d="M -19 4666 
L 3928 4666 
L 3928 4134 
L 2272 4134 
L 2272 0 
L 1638 0 
L 1638 4134 
L -19 4134 
L -19 4666 
z
" transform="scale(0.015625)"/>
       <path id="DejaVuSans-69" d="M 603 3500 
L 1178 3500 
L 1178 0 
L 603 0 
L 603 3500 
z
M 603 4863 
L 1178 4863 
L 1178 4134 
L 603 4134 
L 603 4863 
z
" transform="scale(0.015625)"/>
       <path id="DejaVuSans-6d" d="M 3328 2828 
Q 3544 3216 3844 3400 
Q 4144 3584 4550 3584 
Q 5097 3584 5394 3201 
Q 5691 2819 5691 2113 
L 5691 0 
L 5113 0 
L 5113 2094 
Q 5113 2597 4934 2840 
Q 4756 3084 4391 3084 
Q 3944 3084 3684 2787 
Q 3425 2491 3425 1978 
L 3425 0 
L 2847 0 
L 2847 2094 
Q 2847 2600 2669 2842 
Q 2491 3084 2119 3084 
Q 1678 3084 1418 2786 
Q 1159 2488 1159 1978 
L 1159 0 
L 581 0 
L 581 3500 
L 1159 3500 
L 1159 2956 
Q 1356 3278 1631 3431 
Q 1906 3584 2284 3584 
Q 2666 3584 2933 3390 
Q 3200 3197 3328 2828 
z
" transform="scale(0.015625)"/>
       <path id="DejaVuSans-65" d="M 3597 1894 
L 3597 1613 
L 953 1613 
Q 991 1019 1311 708 
Q 1631 397 2203 397 
Q 2534 397 2845 478 
Q 3156 559 3463 722 
L 3463 178 
Q 3153 47 2828 -22 
Q 2503 -91 2169 -91 
Q 1331 -91 842 396 
Q 353 884 353 1716 
Q 353 2575 817 3079 
Q 1281 3584 2069 3584 
Q 2775 3584 3186 3129 
Q 3597 2675 3597 1894 
z
M 3022 2063 
Q 3016 2534 2758 2815 
Q 2500 3097 2075 3097 
Q 1594 3097 1305 2825 
Q 1016 2553 972 2059 
L 3022 2063 
z
" transform="scale(0.015625)"/>
      </defs>
      <use xlink:href="#DejaVuSans-54"/>
      <use xlink:href="#DejaVuSans-69" x="57.958984"/>
      <use xlink:href="#DejaVuSans-6d" x="85.742188"/>
      <use xlink:href="#DejaVuSans-65" x="183.154297"/>
     </g>
    </g>
   </g>
   <g id="matplotlib.axis_2">
    <g id="ytick_1">
     <g id="line2d_12">
      <path d="M 90 246.24 
L 648 246.24 
" clip-path="url(#pada6486b82)" style="fill: none; stroke: #b0b0b0; stroke-width: 0.8; stroke-linecap: square"/>
     </g>
     <g id="line2d_13">
      <defs>
       <path id="md3468040e8" d="M 0 0 
L -3.5 0 
" style="stroke: #000000; stroke-width: 0.8"/>
      </defs>
      <g>
       <use xlink:href="#md3468040e8" x="90" y="246.24" style="stroke: #000000; stroke-width: 0.8"/>
      </g>
     </g>
     <g id="text_13">
      <!-- 0 -->
      <g transform="translate(76.6375 250.039219) scale(0.1 -0.1)">
       <use xlink:href="#DejaVuSans-30"/>
      </g>
     </g>
    </g>
    <g id="ytick_2">
     <g id="line2d_14">
      <path d="M 90 203.797895 
L 648 203.797895 
" clip-path="url(#pada6486b82)" style="fill: none; stroke: #b0b0b0; stroke-width: 0.8; stroke-linecap: square"/>
     </g>
     <g id="line2d_15">
      <g>
       <use xlink:href="#md3468040e8" x="90" y="203.797895" style="stroke: #000000; stroke-width: 0.8"/>
      </g>
     </g>
     <g id="text_14">
      <!-- 500 -->
      <g transform="translate(63.9125 207.597113) scale(0.1 -0.1)">
       <use xlink:href="#DejaVuSans-35"/>
       <use xlink:href="#DejaVuSans-30" x="63.623047"/>
       <use xlink:href="#DejaVuSans-30" x="127.246094"/>
      </g>
     </g>
    </g>
    <g id="ytick_3">
     <g id="line2d_16">
      <path d="M 90 161.355789 
L 648 161.355789 
" clip-path="url(#pada6486b82)" style="fill: none; stroke: #b0b0b0; stroke-width: 0.8; stroke-linecap: square"/>
     </g>
     <g id="line2d_17">
      <g>
       <use xlink:href="#md3468040e8" x="90" y="161.355789" style="stroke: #000000; stroke-width: 0.8"/>
      </g>
     </g>
     <g id="text_15">
      <!-- 1,000 -->
      <g transform="translate(54.371875 165.155008) scale(0.1 -0.1)">
       <defs>
        <path id="DejaVuSans-2c" d="M 750 794 
L 1409 794 
L 1409 256 
L 897 -744 
L 494 -744 
L 750 256 
L 750 794 
z
" transform="scale(0.015625)"/>
       </defs>
       <use xlink:href="#DejaVuSans-31"/>
       <use xlink:href="#DejaVuSans-2c" x="63.623047"/>
       <use xlink:href="#DejaVuSans-30" x="95.410156"/>
       <use xlink:href="#DejaVuSans-30" x="159.033203"/>
       <use xlink:href="#DejaVuSans-30" x="222.65625"/>
      </g>
     </g>
    </g>
    <g id="ytick_4">
     <g id="line2d_18">
      <path d="M 90 118.913684 
L 648 118.913684 
" clip-path="url(#pada6486b82)" style="fill: none; stroke: #b0b0b0; stroke-width: 0.8; stroke-linecap: square"/>
     </g>
     <g id="line2d_19">
      <g>
       <use xlink:href="#md3468040e8" x="90" y="118.913684" style="stroke: #000000; stroke-width: 0.8"/>
      </g>
     </g>
     <g id="text_16">
      <!-- 1,500 -->
      <g transform="translate(54.371875 122.712903) scale(0.1 -0.1)">
       <use xlink:href="#DejaVuSans-31"/>
       <use xlink:href="#DejaVuSans-2c" x="63.623047"/>
       <use xlink:href="#DejaVuSans-35" x="95.410156"/>
       <use xlink:href="#DejaVuSans-30" x="159.033203"/>
       <use xlink:href="#DejaVuSans-30" x="222.65625"/>
      </g>
     </g>
    </g>
    <g id="ytick_5">
     <g id="line2d_20">
      <path d="M 90 76.471579 
L 648 76.471579 
" clip-path="url(#pada6486b82)" style="fill: none; stroke: #b0b0b0; stroke-width: 0.8; stroke-linecap: square"/>
     </g>
     <g id="line2d_21">
      <g>
       <use xlink:href="#md3468040e8" x="90" y="76.471579" style="stroke: #000000; stroke-width: 0.8"/>
      </g>
     </g>
     <g id="text_17">
      <!-- 2,000 -->
      <g transform="translate(54.371875 80.270798) scale(0.1 -0.1)">
       <use xlink:href="#DejaVuSans-32"/>
       <use xlink:href="#DejaVuSans-2c" x="63.623047"/>
       <use xlink:href="#DejaVuSans-30" x="95.410156"/>
       <use xlink:href="#DejaVuSans-30" x="159.033203"/>
       <use xlink:href="#DejaVuSans-30" x="222.65625"/>
      </g>
     </g>
    </g>
    <g id="text_18">
     <!-- Bitrate (kbit/s) -->
     <g transform="translate(48.292187 181.574375) rotate(-90) scale(0.1 -0.1)">
      <defs>
       <path id="DejaVuSans-42" d="M 1259 2228 
L 1259 519 
L 2272 519 
Q 2781 519 3026 730 
Q 3272 941 3272 1375 
Q 3272 1813 3026 2020 
Q 2781 2228 2272 2228 
L 1259 2228 
z
M 1259 4147 
L 1259 2741 
L 2194 2741 
Q 2656 2741 2882 2914 
Q 3109 3088 3109 3444 
Q 3109 3797 2882 3972 
Q 2656 4147 2194 4147 
L 1259 4147 
z
M 628 4666 
L 2241 4666 
Q 2963 4666 3353 4366 
Q 3744 4066 3744 3513 
Q 3744 3084 3544 2831 
Q 3344 2578 2956 2516 
Q 3422 2416 3680 2098 
Q 3938 1781 3938 1306 
Q 3938 681 3513 340 
Q 3088 0 2303 0 
L 628 0 
L 628 4666 
z
" transform="scale(0.015625)"/>
       <path id="DejaVuSans-74" d="M 1172 4494 
L 1172 3500 
L 2356 3500 
L 2356 3053 
L 1172 3053 
L 1172 1153 
Q 1172 725 1289 603 
Q 1406 481 1766 481 
L 2356 481 
L 2356 0 
L 1766 0 
Q 1100 0 847 248 
Q 594 497 594 1153 
L 594 3053 
L 172 3053 
L 172 3500 
L 594 3500 
L 594 4494 
L 1172 4494 
z
" transform="scale(0.015625)"/>
       <path id="DejaVuSans-72" d="M 2631 2963 
Q 2534 3019 2420 3045 
Q 2306 3072 2169 3072 
Q 1681 3072 1420 2755 
Q 1159 2438 1159 1844 
L 1159 0 
L 581 0 
L 581 3500 
L 1159 3500 
L 1159 2956 
Q 1341 3275 1631 3429 
Q 1922 3584 2338 3584 
Q 2397 3584 2469 3576 
Q 2541 3569 2628 3553 
L 2631 2963 
z
" transform="scale(0.015625)"/>
       <path id="DejaVuSans-61" d="M 2194 1759 
Q 1497 1759 1228 1600 
Q 959 1441 959 1056 
Q 959 750 1161 570 
Q 1363 391 1709 391 
Q 2188 391 2477 730 
Q 2766 1069 2766 1631 
L 2766 1759 
L 2194 1759 
z
M 3341 1997 
L 3341 0 
L 2766 0 
L 2766 531 
Q 2569 213 2275 61 
Q 1981 -91 1556 -91 
Q 1019 -91 701 211 
Q 384 513 384 1019 
Q 384 1609 779 1909 
Q 1175 2209 1959 2209 
L 2766 2209 
L 2766 2266 
Q 2766 2663 2505 2880 
Q 2244 3097 1772 3097 
Q 1472 3097 1187 3025 
Q 903 2953 641 2809 
L 641 3341 
Q 956 3463 1253 3523 
Q 1550 3584 1831 3584 
Q 2591 3584 2966 3190 
Q 3341 2797 3341 1997 
z
" transform="scale(0.015625)"/>
       <path id="DejaVuSans-20" transform="scale(0.015625)"/>
       <path id="DejaVuSans-28" d="M 1984 4856 
Q 1566 4138 1362 3434 
Q 1159 2731 1159 2009 
Q 1159 1288 1364 580 
Q 1569 -128 1984 -844 
L 1484 -844 
Q 1016 -109 783 600 
Q 550 1309 550 2009 
Q 550 2706 781 3412 
Q 1013 4119 1484 4856 
L 1984 4856 
z
" transform="scale(0.015625)"/>
       <path id="DejaVuSans-6b" d="M 581 4863 
L 1159 4863 
L 1159 1991 
L 2875 3500 
L 3609 3500 
L 1753 1863 
L 3688 0 
L 2938 0 
L 1159 1709 
L 1159 0 
L 581 0 
L 581 4863 
z
" transform="scale(0.015625)"/>
       <path id="DejaVuSans-62" d="M 3116 1747 
Q 3116 2381 2855 2742 
Q 2594 3103 2138 3103 
Q 1681 3103 1420 2742 
Q 1159 2381 1159 1747 
Q 1159 1113 1420 752 
Q 1681 391 2138 391 
Q 2594 391 2855 752 
Q 3116 1113 3116 1747 
z
M 1159 2969 
Q 1341 3281 1617 3432 
Q 1894 3584 2278 3584 
Q 2916 3584 3314 3078 
Q 3713 2572 3713 1747 
Q 3713 922 3314 415 
Q 2916 -91 2278 -91 
Q 1894 -91 1617 61 
Q 1341 213 1159 525 
L 1159 0 
L 581 0 
L 581 4863 
L 1159 4863 
L 1159 2969 
z
" transform="scale(0.015625)"/>
       <path id="DejaVuSans-2f" d="M 1625 4666 
L 2156 4666 
L 531 -594 
L 0 -594 
L 1625 4666 
z
" transform="scale(0.015625)"/>
       <path id="DejaVuSans-73" d="M 2834 3397 
L 2834 2853 
Q 2591 2978 2328 3040 
Q 2066 3103 1784 3103 
Q 1356 3103 1142 2972 
Q 928 2841 928 2578 
Q 928 2378 1081 2264 
Q 1234 2150 1697 2047 
L 1894 2003 
Q 2506 1872 2764 1633 
Q 3022 1394 3022 966 
Q 3022 478 2636 193 
Q 2250 -91 1575 -91 
Q 1294 -91 989 -36 
Q 684 19 347 128 
L 347 722 
Q 666 556 975 473 
Q 1284 391 1588 391 
Q 1994 391 2212 530 
Q 2431 669 2431 922 
Q 2431 1156 2273 1281 
Q 2116 1406 1581 1522 
L 1381 1569 
Q 847 1681 609 1914 
Q 372 2147 372 2553 
Q 372 3047 722 3315 
Q 1072 3584 1716 3584 
Q 2034 3584 2315 3537 
Q 2597 3491 2834 3397 
z
" transform="scale(0.015625)"/>
       <path id="DejaVuSans-29" d="M 513 4856 
L 1013 4856 
Q 1481 4119 1714 3412 
Q 1947 2706 1947 2009 
Q 1947 1309 1714 600 
Q 1481 -109 1013 -844 
L 513 -844 
Q 928 -128 1133 580 
Q 1338 1288 1338 2009 
Q 1338 2731 1133 3434 
Q 928 4138 513 4856 
z
" transform="scale(0.015625)"/>
      </defs>
      <use xlink:href="#DejaVuSans-42"/>
      <use xlink:href="#DejaVuSans-69" x="68.603516"/>
      <use xlink:href="#DejaVuSans-74" x="96.386719"/>
      <use xlink:href="#DejaVuSans-72" x="135.595703"/>
      <use xlink:href="#DejaVuSans-61" x="176.708984"/>
      <use xlink:href="#DejaVuSans-74" x="237.988281"/>
      <use xlink:href="#DejaVuSans-65" x="277.197266"/>
      <use xlink:href="#DejaVuSans-20" x="338.720703"/>
      <use xlink:href="#DejaVuSans-28" x="370.507812"/>
      <use xlink:href="#DejaVuSans-6b" x="409.521484"/>
      <use xlink:href="#DejaVuSans-62" x="467.431641"/>
      <use xlink:href="#DejaVuSans-69" x="530.908203"/>
      <use xlink:href="#DejaVuSans-74" x="558.691406"/>
      <use xlink:href="#DejaVuSans-2f" x="597.900391"/>
      <use xlink:href="#DejaVuSans-73" x="631.591797"/>
      <use xlink:href="#DejaVuSans-29" x="683.691406"/>
     </g>
    </g>
   </g>
   <g id="PolyCollection_1">
    <defs>
     <path id="mfadad6c86e" d="M 115.363636 -43.3728 
L 115.363636 -41.76 
L 117.054545 -41.76 
L 118.745455 -41.76 
L 120.436364 -41.76 
L 122.127273 -41.76 
L 123.818182 -41.76 
L 125.509091 -41.76 
L 127.2 -41.76 
L 128.890909 -41.76 
L 130.581818 -41.76 
L 132.272727 -41.76 
L 133.963636 -41.76 
L 135.654545 -41.76 
L 137.345455 -41.76 
L 139.036364 -41.76 
L 140.727273 -41.76 
L 142.418182 -41.76 
L 144.109091 -41.76 
L 145.8 -41.76 
L 147.490909 -41.76 
L 149.181818 -41.76 
L 150.872727 -41.76 
L 152.563636 -41.76 
L 154.254545 -41.76 
L 155.945455 -41.76 
L 157.636364 -41.76 
L 159.327273 -41.76 
L 161.018182 -41.76 
L 162.709091 -41.76 
L 164.4 -41.76 
L 166.090909 -41.76 
L 167.781818 -41.76 
L 169.472727 -41.76 
L 171.163636 -41.76 
L 172.854545 -41.76 
L 174.545455 -41.76 
L 176.236364 -41.76 
L 177.927273 -41.76 
L 179.618182 -41.76 
L 181.309091 -41.76 
L 183 -41.76 
L 184.690909 -41.76 
L 186.381818 -41.76 
L 188.072727 -41.76 
L 189.763636 -41.76 
L 191.454545 -41.76 
L 193.145455 -41.76 
L 194.836364 -41.76 
L 196.527273 -41.76 
L 198.218182 -41.76 
L 199.909091 -41.76 
L 201.6 -41.76 
L 203.290909 -41.76 
L 204.981818 -41.76 
L 206.672727 -41.76 
L 208.363636 -41.76 
L 210.054545 -41.76 
L 211.745455 -41.76 
L 213.436364 -41.76 
L 215.127273 -41.76 
L 216.818182 -41.76 
L 218.509091 -41.76 
L 220.2 -41.76 
L 221.890909 -41.76 
L 223.581818 -41.76 
L 225.272727 -41.76 
L 226.963636 -41.76 
L 228.654545 -41.76 
L 230.345455 -41.76 
L 232.036364 -41.76 
L 233.727273 -41.76 
L 235.418182 -41.76 
L 237.109091 -41.76 
L 238.8 -41.76 
L 240.490909 -41.76 
L 242.181818 -41.76 
L 243.872727 -41.76 
L 245.563636 -41.76 
L 247.254545 -41.76 
L 248.945455 -41.76 
L 250.636364 -41.76 
L 252.327273 -41.76 
L 254.018182 -41.76 
L 255.709091 -41.76 
L 257.4 -41.76 
L 259.090909 -41.76 
L 260.781818 -41.76 
L 262.472727 -41.76 
L 264.163636 -41.76 
L 265.854545 -41.76 
L 267.545455 -41.76 
L 269.236364 -41.76 
L 270.927273 -41.76 
L 272.618182 -41.76 
L 274.309091 -41.76 
L 276 -41.76 
L 277.690909 -41.76 
L 279.381818 -41.76 
L 281.072727 -41.76 
L 282.763636 -41.76 
L 284.454545 -41.76 
L 286.145455 -41.76 
L 287.836364 -41.76 
L 289.527273 -41.76 
L 291.218182 -41.76 
L 292.909091 -41.76 
L 294.6 -41.76 
L 296.290909 -41.76 
L 297.981818 -41.76 
L 299.672727 -41.76 
L 301.363636 -41.76 
L 303.054545 -41.76 
L 304.745455 -41.76 
L 306.436364 -41.76 
L 308.127273 -41.76 
L 309.818182 -41.76 
L 311.509091 -41.76 
L 313.2 -41.76 
L 314.890909 -41.76 
L 316.581818 -41.76 
L 318.272727 -41.76 
L 319.963636 -41.76 
L 321.654545 -41.76 
L 323.345455 -41.76 
L 325.036364 -41.76 
L 326.727273 -41.76 
L 328.418182 -41.76 
L 330.109091 -41.76 
L 331.8 -41.76 
L 333.490909 -41.76 
L 335.181818 -41.76 
L 336.872727 -41.76 
L 338.563636 -41.76 
L 340.254545 -41.76 
L 341.945455 -41.76 
L 343.636364 -41.76 
L 345.327273 -41.76 
L 347.018182 -41.76 
L 348.709091 -41.76 
L 350.4 -41.76 
L 352.090909 -41.76 
L 353.781818 -41.76 
L 355.472727 -41.76 
L 357.163636 -41.76 
L 358.854545 -41.76 
L 360.545455 -41.76 
L 362.236364 -41.76 
L 363.927273 -41.76 
L 365.618182 -41.76 
L 367.309091 -41.76 
L 369 -41.76 
L 370.690909 -41.76 
L 372.381818 -41.76 
L 374.072727 -41.76 
L 375.763636 -41.76 
L 377.454545 -41.76 
L 379.145455 -41.76 
L 380.836364 -41.76 
L 382.527273 -41.76 
L 384.218182 -41.76 
L 385.909091 -41.76 
L 387.6 -41.76 
L 389.290909 -41.76 
L 390.981818 -41.76 
L 392.672727 -41.76 
L 394.363636 -41.76 
L 396.054545 -41.76 
L 397.745455 -41.76 
L 399.436364 -41.76 
L 401.127273 -41.76 
L 402.818182 -41.76 
L 404.509091 -41.76 
L 406.2 -41.76 
L 407.890909 -41.76 
L 409.581818 -41.76 
L 411.272727 -41.76 
L 412.963636 -41.76 
L 414.654545 -41.76 
L 416.345455 -41.76 
L 418.036364 -41.76 
L 419.727273 -41.76 
L 421.418182 -41.76 
L 423.109091 -41.76 
L 424.8 -41.76 
L 426.490909 -41.76 
L 428.181818 -41.76 
L 429.872727 -41.76 
L 431.563636 -41.76 
L 433.254545 -41.76 
L 434.945455 -41.76 
L 436.636364 -41.76 
L 438.327273 -41.76 
L 440.018182 -41.76 
L 441.709091 -41.76 
L 443.4 -41.76 
L 445.090909 -41.76 
L 446.781818 -41.76 
L 448.472727 -41.76 
L 450.163636 -41.76 
L 451.854545 -41.76 
L 453.545455 -41.76 
L 455.236364 -41.76 
L 456.927273 -41.76 
L 458.618182 -41.76 
L 460.309091 -41.76 
L 462 -41.76 
L 463.690909 -41.76 
L 465.381818 -41.76 
L 467.072727 -41.76 
L 468.763636 -41.76 
L 470.454545 -41.76 
L 472.145455 -41.76 
L 473.836364 -41.76 
L 475.527273 -41.76 
L 477.218182 -41.76 
L 478.909091 -41.76 
L 480.6 -41.76 
L 482.290909 -41.76 
L 483.981818 -41.76 
L 485.672727 -41.76 
L 487.363636 -41.76 
L 489.054545 -41.76 
L 490.745455 -41.76 
L 492.436364 -41.76 
L 494.127273 -41.76 
L 495.818182 -41.76 
L 497.509091 -41.76 
L 499.2 -41.76 
L 500.890909 -41.76 
L 502.581818 -41.76 
L 504.272727 -41.76 
L 505.963636 -41.76 
L 507.654545 -41.76 
L 509.345455 -41.76 
L 511.036364 -41.76 
L 512.727273 -41.76 
L 514.418182 -41.76 
L 516.109091 -41.76 
L 517.8 -41.76 
L 519.490909 -41.76 
L 521.181818 -41.76 
L 522.872727 -41.76 
L 524.563636 -41.76 
L 526.254545 -41.76 
L 527.945455 -41.76 
L 529.636364 -41.76 
L 531.327273 -41.76 
L 533.018182 -41.76 
L 534.709091 -41.76 
L 536.4 -41.76 
L 538.090909 -41.76 
L 539.781818 -41.76 
L 541.472727 -41.76 
L 543.163636 -41.76 
L 544.854545 -41.76 
L 546.545455 -41.76 
L 548.236364 -41.76 
L 549.927273 -41.76 
L 551.618182 -41.76 
L 553.309091 -41.76 
L 555 -41.76 
L 556.690909 -41.76 
L 558.381818 -41.76 
L 560.072727 -41.76 
L 561.763636 -41.76 
L 563.454545 -41.76 
L 565.145455 -41.76 
L 566.836364 -41.76 
L 568.527273 -41.76 
L 570.218182 -41.76 
L 571.909091 -41.76 
L 573.6 -41.76 
L 575.290909 -41.76 
L 576.981818 -41.76 
L 578.672727 -41.76 
L 580.363636 -41.76 
L 582.054545 -41.76 
L 583.745455 -41.76 
L 585.436364 -41.76 
L 587.127273 -41.76 
L 588.818182 -41.76 
L 590.509091 -41.76 
L 592.2 -41.76 
L 593.890909 -41.76 
L 595.581818 -41.76 
L 597.272727 -41.76 
L 598.963636 -41.76 
L 600.654545 -41.76 
L 602.345455 -41.76 
L 604.036364 -41.76 
L 605.727273 -41.76 
L 607.418182 -41.76 
L 609.109091 -41.76 
L 610.8 -41.76 
L 612.490909 -41.76 
L 614.181818 -41.76 
L 615.872727 -41.76 
L 617.563636 -41.76 
L 619.254545 -41.76 
L 620.945455 -41.76 
L 622.636364 -41.76 
L 622.636364 -41.76 
L 622.636364 -41.76 
L 620.945455 -66.036884 
L 619.254545 -41.76 
L 617.563636 -41.76 
L 615.872727 -66.800842 
L 614.181818 -41.76 
L 612.490909 -41.76 
L 610.8 -116.542989 
L 609.109091 -41.76 
L 607.418182 -41.76 
L 605.727273 -41.76 
L 604.036364 -127.323284 
L 602.345455 -41.76 
L 600.654545 -41.76 
L 598.963636 -41.76 
L 597.272727 -70.196211 
L 595.581818 -93.199832 
L 593.890909 -41.76 
L 592.2 -103.385937 
L 590.509091 -41.76 
L 588.818182 -60.519411 
L 587.127273 -41.76 
L 585.436364 -113.996463 
L 583.745455 -41.76 
L 582.054545 -41.76 
L 580.363636 -41.76 
L 578.672727 -112.129011 
L 576.981818 -41.76 
L 575.290909 -41.76 
L 573.6 -41.76 
L 571.909091 -69.856674 
L 570.218182 -41.76 
L 568.527273 -78.005558 
L 566.836364 -80.127663 
L 565.145455 -41.76 
L 563.454545 -59.331032 
L 561.763636 -41.76 
L 560.072727 -148.883874 
L 558.381818 -41.76 
L 556.690909 -91.671916 
L 555 -41.76 
L 553.309091 -56.020547 
L 551.618182 -105.338274 
L 549.927273 -41.76 
L 548.236364 -55.086821 
L 546.545455 -56.2752 
L 544.854545 -41.76 
L 543.163636 -41.76 
L 541.472727 -69.941558 
L 539.781818 -41.76 
L 538.090909 -41.76 
L 536.4 -41.76 
L 534.709091 -41.76 
L 533.018182 -125.540716 
L 531.327273 -161.701389 
L 529.636364 -62.641516 
L 527.945455 -41.76 
L 526.254545 -41.76 
L 524.563636 -41.76 
L 522.872727 -63.320589 
L 521.181818 -41.76 
L 519.490909 -41.76 
L 517.8 -41.76 
L 516.109091 -41.76 
L 514.418182 -69.941558 
L 512.727273 -41.76 
L 511.036364 -127.408168 
L 509.345455 -41.76 
L 507.654545 -41.76 
L 505.963636 -41.76 
L 504.272727 -70.026442 
L 502.581818 -41.76 
L 500.890909 -165.351411 
L 499.2 -41.76 
L 497.509091 -41.76 
L 495.818182 -85.645137 
L 494.127273 -53.474021 
L 492.436364 -41.76 
L 490.745455 -65.697347 
L 489.054545 -41.76 
L 487.363636 -41.76 
L 485.672727 -41.76 
L 483.981818 -68.498526 
L 482.290909 -41.76 
L 480.6 -70.535747 
L 478.909091 -41.76 
L 477.218182 -41.76 
L 475.527273 -68.074105 
L 473.836364 -41.76 
L 472.145455 -60.349642 
L 470.454545 -71.384589 
L 468.763636 -41.76 
L 467.072727 -88.785853 
L 465.381818 -41.76 
L 463.690909 -41.76 
L 462 -41.76 
L 460.309091 -69.347368 
L 458.618182 -41.76 
L 456.927273 -41.76 
L 455.236364 -58.991495 
L 453.545455 -62.301979 
L 451.854545 -55.341474 
L 450.163636 -41.76 
L 448.472727 -41.76 
L 446.781818 -57.463579 
L 445.090909 -41.76 
L 443.4 -41.76 
L 441.709091 -85.730021 
L 440.018182 -41.76 
L 438.327273 -41.76 
L 436.636364 -49.569347 
L 434.945455 -75.883453 
L 433.254545 -41.76 
L 431.563636 -41.76 
L 429.872727 -41.76 
L 428.181818 -41.76 
L 426.490909 -83.268379 
L 424.8 -41.76 
L 423.109091 -77.156716 
L 421.418182 -41.76 
L 419.727273 -86.493979 
L 418.036364 -41.76 
L 416.345455 -53.304253 
L 414.654545 -41.76 
L 412.963636 -41.76 
L 411.272727 -41.76 
L 409.581818 -41.76 
L 407.890909 -54.6624 
L 406.2 -89.974232 
L 404.509091 -41.76 
L 402.818182 -57.378695 
L 401.127273 -41.76 
L 399.436364 -41.76 
L 397.745455 -89.549811 
L 396.054545 -55.850779 
L 394.363636 -91.671916 
L 392.672727 -91.417263 
L 390.981818 -41.76 
L 389.290909 -41.76 
L 387.6 -41.76 
L 385.909091 -98.123116 
L 384.218182 -41.76 
L 382.527273 -41.76 
L 380.836364 -81.146274 
L 379.145455 -41.76 
L 377.454545 -41.76 
L 375.763636 -41.76 
L 374.072727 -86.069558 
L 372.381818 -41.76 
L 370.690909 -41.76 
L 369 -170.784 
L 367.309091 -41.76 
L 365.618182 -41.76 
L 363.927273 -70.7904 
L 362.236364 -41.76 
L 360.545455 -41.76 
L 358.854545 -41.76 
L 357.163636 -81.570695 
L 355.472727 -41.76 
L 353.781818 -41.76 
L 352.090909 -41.76 
L 350.4 -80.552084 
L 348.709091 -41.76 
L 347.018182 -41.76 
L 345.327273 -41.76 
L 343.636364 -77.326484 
L 341.945455 -41.76 
L 340.254545 -41.76 
L 338.563636 -41.76 
L 336.872727 -83.268379 
L 335.181818 -41.76 
L 333.490909 -41.76 
L 331.8 -41.76 
L 330.109091 -78.599747 
L 328.418182 -41.76 
L 326.727273 -74.864842 
L 325.036364 -41.76 
L 323.345455 -41.76 
L 321.654545 -94.642863 
L 319.963636 -98.887074 
L 318.272727 -41.76 
L 316.581818 -41.76 
L 314.890909 -41.76 
L 313.2 -114.420884 
L 311.509091 -51.691453 
L 309.818182 -41.76 
L 308.127273 -41.76 
L 306.436364 -41.76 
L 304.745455 -55.256589 
L 303.054545 -41.76 
L 301.363636 -41.76 
L 299.672727 -41.76 
L 297.981818 -55.171705 
L 296.290909 -41.76 
L 294.6 -41.76 
L 292.909091 -41.76 
L 291.218182 -126.729095 
L 289.527273 -41.76 
L 287.836364 -41.76 
L 286.145455 -41.76 
L 284.454545 -41.76 
L 282.763636 -70.7904 
L 281.072727 -41.76 
L 279.381818 -41.76 
L 277.690909 -41.76 
L 276 -76.562526 
L 274.309091 -99.141726 
L 272.618182 -41.76 
L 270.927273 -72.657853 
L 269.236364 -41.76 
L 267.545455 -41.76 
L 265.854545 -41.76 
L 264.163636 -70.705516 
L 262.472727 -41.76 
L 260.781818 -41.76 
L 259.090909 -41.76 
L 257.4 -95.067284 
L 255.709091 -41.76 
L 254.018182 -41.76 
L 252.327273 -41.76 
L 250.636364 -41.76 
L 248.945455 -95.406821 
L 247.254545 -41.76 
L 245.563636 -59.331032 
L 243.872727 -41.76 
L 242.181818 -123.418611 
L 240.490909 -41.76 
L 238.8 -79.873011 
L 237.109091 -55.681011 
L 235.418182 -41.76 
L 233.727273 -41.76 
L 232.036364 -41.76 
L 230.345455 -106.781305 
L 228.654545 -41.76 
L 226.963636 -41.76 
L 225.272727 -64.084547 
L 223.581818 -64.084547 
L 221.890909 -41.76 
L 220.2 -41.76 
L 218.509091 -41.76 
L 216.818182 -99.481263 
L 215.127273 -41.76 
L 213.436364 -41.76 
L 211.745455 -41.76 
L 210.054545 -104.149895 
L 208.363636 -41.76 
L 206.672727 -41.76 
L 204.981818 -41.76 
L 203.290909 -128.257011 
L 201.6 -41.76 
L 199.909091 -41.76 
L 198.218182 -41.76 
L 196.527273 -84.966063 
L 194.836364 -41.76 
L 193.145455 -41.76 
L 191.454545 -41.76 
L 189.763636 -41.76 
L 188.072727 -89.210274 
L 186.381818 -41.76 
L 184.690909 -41.76 
L 183 -41.76 
L 181.309091 -112.468547 
L 179.618182 -41.76 
L 177.927273 -41.76 
L 176.236364 -41.76 
L 174.545455 -123.588379 
L 172.854545 -41.76 
L 171.163636 -41.76 
L 169.472727 -41.76 
L 167.781818 -119.344168 
L 166.090909 -41.76 
L 164.4 -41.76 
L 162.709091 -41.76 
L 161.018182 -155.080421 
L 159.327273 -41.76 
L 157.636364 -41.76 
L 155.945455 -60.349642 
L 154.254545 -41.76 
L 152.563636 -41.76 
L 150.872727 -41.76 
L 149.181818 -66.376421 
L 147.490909 -41.76 
L 145.8 -41.76 
L 144.109091 -41.76 
L 142.418182 -147.016421 
L 140.727273 -41.76 
L 139.036364 -41.76 
L 137.345455 -41.76 
L 135.654545 -124.352337 
L 133.963636 -41.76 
L 132.272727 -41.76 
L 130.581818 -41.76 
L 128.890909 -81.400926 
L 127.2 -41.76 
L 125.509091 -41.76 
L 123.818182 -41.76 
L 122.127273 -43.966989 
L 120.436364 -41.76 
L 118.745455 -41.76 
L 117.054545 -41.76 
L 115.363636 -43.3728 
z
" style="stroke: #ff0000; stroke-width: 0.5"/>
    </defs>
    <g clip-path="url(#pada6486b82)">
     <use xlink:href="#mfadad6c86e" x="0" y="288" style="fill: #ff0000; stroke: #ff0000; stroke-width: 0.5"/>
    </g>
   </g>
   <g id="PolyCollection_2">
    <defs>
     <path id="m66b61fdcc7" d="M 115.363636 -65.103158 
L 115.363636 -43.3728 
L 117.054545 -41.76 
L 118.745455 -41.76 
L 120.436364 -41.76 
L 122.127273 -43.966989 
L 123.818182 -41.76 
L 125.509091 -41.76 
L 127.2 -41.76 
L 128.890909 -81.400926 
L 130.581818 -41.76 
L 132.272727 -41.76 
L 133.963636 -41.76 
L 135.654545 -124.352337 
L 137.345455 -41.76 
L 139.036364 -41.76 
L 140.727273 -41.76 
L 142.418182 -147.016421 
L 144.109091 -41.76 
L 145.8 -41.76 
L 147.490909 -41.76 
L 149.181818 -66.376421 
L 150.872727 -41.76 
L 152.563636 -41.76 
L 154.254545 -41.76 
L 155.945455 -60.349642 
L 157.636364 -41.76 
L 159.327273 -41.76 
L 161.018182 -155.080421 
L 162.709091 -41.76 
L 164.4 -41.76 
L 166.090909 -41.76 
L 167.781818 -119.344168 
L 169.472727 -41.76 
L 171.163636 -41.76 
L 172.854545 -41.76 
L 174.545455 -123.588379 
L 176.236364 -41.76 
L 177.927273 -41.76 
L 179.618182 -41.76 
L 181.309091 -112.468547 
L 183 -41.76 
L 184.690909 -41.76 
L 186.381818 -41.76 
L 188.072727 -89.210274 
L 189.763636 -41.76 
L 191.454545 -41.76 
L 193.145455 -41.76 
L 194.836364 -41.76 
L 196.527273 -84.966063 
L 198.218182 -41.76 
L 199.909091 -41.76 
L 201.6 -41.76 
L 203.290909 -128.257011 
L 204.981818 -41.76 
L 206.672727 -41.76 
L 208.363636 -41.76 
L 210.054545 -104.149895 
L 211.745455 -41.76 
L 213.436364 -41.76 
L 215.127273 -41.76 
L 216.818182 -99.481263 
L 218.509091 -41.76 
L 220.2 -41.76 
L 221.890909 -41.76 
L 223.581818 -64.084547 
L 225.272727 -64.084547 
L 226.963636 -41.76 
L 228.654545 -41.76 
L 230.345455 -106.781305 
L 232.036364 -41.76 
L 233.727273 -41.76 
L 235.418182 -41.76 
L 237.109091 -55.681011 
L 238.8 -79.873011 
L 240.490909 -41.76 
L 242.181818 -123.418611 
L 243.872727 -41.76 
L 245.563636 -59.331032 
L 247.254545 -41.76 
L 248.945455 -95.406821 
L 250.636364 -41.76 
L 252.327273 -41.76 
L 254.018182 -41.76 
L 255.709091 -41.76 
L 257.4 -95.067284 
L 259.090909 -41.76 
L 260.781818 -41.76 
L 262.472727 -41.76 
L 264.163636 -70.705516 
L 265.854545 -41.76 
L 267.545455 -41.76 
L 269.236364 -41.76 
L 270.927273 -72.657853 
L 272.618182 -41.76 
L 274.309091 -99.141726 
L 276 -76.562526 
L 277.690909 -41.76 
L 279.381818 -41.76 
L 281.072727 -41.76 
L 282.763636 -70.7904 
L 284.454545 -41.76 
L 286.145455 -41.76 
L 287.836364 -41.76 
L 289.527273 -41.76 
L 291.218182 -126.729095 
L 292.909091 -41.76 
L 294.6 -41.76 
L 296.290909 -41.76 
L 297.981818 -55.171705 
L 299.672727 -41.76 
L 301.363636 -41.76 
L 303.054545 -41.76 
L 304.745455 -55.256589 
L 306.436364 -41.76 
L 308.127273 -41.76 
L 309.818182 -41.76 
L 311.509091 -51.691453 
L 313.2 -114.420884 
L 314.890909 -41.76 
L 316.581818 -41.76 
L 318.272727 -41.76 
L 319.963636 -98.887074 
L 321.654545 -94.642863 
L 323.345455 -41.76 
L 325.036364 -41.76 
L 326.727273 -74.864842 
L 328.418182 -41.76 
L 330.109091 -78.599747 
L 331.8 -41.76 
L 333.490909 -41.76 
L 335.181818 -41.76 
L 336.872727 -83.268379 
L 338.563636 -41.76 
L 340.254545 -41.76 
L 341.945455 -41.76 
L 343.636364 -77.326484 
L 345.327273 -41.76 
L 347.018182 -41.76 
L 348.709091 -41.76 
L 350.4 -80.552084 
L 352.090909 -41.76 
L 353.781818 -41.76 
L 355.472727 -41.76 
L 357.163636 -81.570695 
L 358.854545 -41.76 
L 360.545455 -41.76 
L 362.236364 -41.76 
L 363.927273 -70.7904 
L 365.618182 -41.76 
L 367.309091 -41.76 
L 369 -170.784 
L 370.690909 -41.76 
L 372.381818 -41.76 
L 374.072727 -86.069558 
L 375.763636 -41.76 
L 377.454545 -41.76 
L 379.145455 -41.76 
L 380.836364 -81.146274 
L 382.527273 -41.76 
L 384.218182 -41.76 
L 385.909091 -98.123116 
L 387.6 -41.76 
L 389.290909 -41.76 
L 390.981818 -41.76 
L 392.672727 -91.417263 
L 394.363636 -91.671916 
L 396.054545 -55.850779 
L 397.745455 -89.549811 
L 399.436364 -41.76 
L 401.127273 -41.76 
L 402.818182 -57.378695 
L 404.509091 -41.76 
L 406.2 -89.974232 
L 407.890909 -54.6624 
L 409.581818 -41.76 
L 411.272727 -41.76 
L 412.963636 -41.76 
L 414.654545 -41.76 
L 416.345455 -53.304253 
L 418.036364 -41.76 
L 419.727273 -86.493979 
L 421.418182 -41.76 
L 423.109091 -77.156716 
L 424.8 -41.76 
L 426.490909 -83.268379 
L 428.181818 -41.76 
L 429.872727 -41.76 
L 431.563636 -41.76 
L 433.254545 -41.76 
L 434.945455 -75.883453 
L 436.636364 -49.569347 
L 438.327273 -41.76 
L 440.018182 -41.76 
L 441.709091 -85.730021 
L 443.4 -41.76 
L 445.090909 -41.76 
L 446.781818 -57.463579 
L 448.472727 -41.76 
L 450.163636 -41.76 
L 451.854545 -55.341474 
L 453.545455 -62.301979 
L 455.236364 -58.991495 
L 456.927273 -41.76 
L 458.618182 -41.76 
L 460.309091 -69.347368 
L 462 -41.76 
L 463.690909 -41.76 
L 465.381818 -41.76 
L 467.072727 -88.785853 
L 468.763636 -41.76 
L 470.454545 -71.384589 
L 472.145455 -60.349642 
L 473.836364 -41.76 
L 475.527273 -68.074105 
L 477.218182 -41.76 
L 478.909091 -41.76 
L 480.6 -70.535747 
L 482.290909 -41.76 
L 483.981818 -68.498526 
L 485.672727 -41.76 
L 487.363636 -41.76 
L 489.054545 -41.76 
L 490.745455 -65.697347 
L 492.436364 -41.76 
L 494.127273 -53.474021 
L 495.818182 -85.645137 
L 497.509091 -41.76 
L 499.2 -41.76 
L 500.890909 -165.351411 
L 502.581818 -41.76 
L 504.272727 -70.026442 
L 505.963636 -41.76 
L 507.654545 -41.76 
L 509.345455 -41.76 
L 511.036364 -127.408168 
L 512.727273 -41.76 
L 514.418182 -69.941558 
L 516.109091 -41.76 
L 517.8 -41.76 
L 519.490909 -41.76 
L 521.181818 -41.76 
L 522.872727 -63.320589 
L 524.563636 -41.76 
L 526.254545 -41.76 
L 527.945455 -41.76 
L 529.636364 -62.641516 
L 531.327273 -161.701389 
L 533.018182 -125.540716 
L 534.709091 -41.76 
L 536.4 -41.76 
L 538.090909 -41.76 
L 539.781818 -41.76 
L 541.472727 -69.941558 
L 543.163636 -41.76 
L 544.854545 -41.76 
L 546.545455 -56.2752 
L 548.236364 -55.086821 
L 549.927273 -41.76 
L 551.618182 -105.338274 
L 553.309091 -56.020547 
L 555 -41.76 
L 556.690909 -91.671916 
L 558.381818 -41.76 
L 560.072727 -148.883874 
L 561.763636 -41.76 
L 563.454545 -59.331032 
L 565.145455 -41.76 
L 566.836364 -80.127663 
L 568.527273 -78.005558 
L 570.218182 -41.76 
L 571.909091 -69.856674 
L 573.6 -41.76 
L 575.290909 -41.76 
L 576.981818 -41.76 
L 578.672727 -112.129011 
L 580.363636 -41.76 
L 582.054545 -41.76 
L 583.745455 -41.76 
L 585.436364 -113.996463 
L 587.127273 -41.76 
L 588.818182 -60.519411 
L 590.509091 -41.76 
L 592.2 -103.385937 
L 593.890909 -41.76 
L 595.581818 -93.199832 
L 597.272727 -70.196211 
L 598.963636 -41.76 
L 600.654545 -41.76 
L 602.345455 -41.76 
L 604.036364 -127.323284 
L 605.727273 -41.76 
L 607.418182 -41.76 
L 609.109091 -41.76 
L 610.8 -116.542989 
L 612.490909 -41.76 
L 614.181818 -41.76 
L 615.872727 -66.800842 
L 617.563636 -41.76 
L 619.254545 -41.76 
L 620.945455 -66.036884 
L 622.636364 -41.76 
L 622.636364 -41.76 
L 622.636364 -41.76 
L 620.945455 -113.996463 
L 619.254545 -93.624253 
L 617.563636 -69.262484 
L 615.872727 -74.949726 
L 614.181818 -48.890274 
L 612.490909 -50.418189 
L 610.8 -127.577937 
L 609.109091 -60.519411 
L 607.418182 -47.871663 
L 605.727273 -45.240253 
L 604.036364 -133.519832 
L 602.345455 -57.633347 
L 600.654545 -56.869389 
L 598.963636 -58.312421 
L 597.272727 -108.818526 
L 595.581818 -141.414063 
L 593.890909 -69.007832 
L 592.2 -121.720926 
L 590.509091 -69.262484 
L 588.818182 -83.777684 
L 587.127273 -61.198484 
L 585.436364 -133.010526 
L 583.745455 -122.994189 
L 582.054545 -128.002358 
L 580.363636 -124.437221 
L 578.672727 -137.848926 
L 576.981818 -47.107705 
L 575.290909 -46.5984 
L 573.6 -57.972884 
L 571.909091 -78.8544 
L 570.218182 -60.858947 
L 568.527273 -84.796295 
L 566.836364 -103.895242 
L 565.145455 -53.643789 
L 563.454545 -79.703242 
L 561.763636 -48.975158 
L 560.072727 -160.597895 
L 558.381818 -63.999663 
L 556.690909 -107.799916 
L 555 -53.304253 
L 553.309091 -68.243874 
L 551.618182 -126.219789 
L 549.927273 -86.069558 
L 548.236364 -78.090442 
L 546.545455 -79.109053 
L 544.854545 -49.569347 
L 543.163636 -62.981053 
L 541.472727 -140.395453 
L 539.781818 -63.745011 
L 538.090909 -70.7904 
L 536.4 -72.148547 
L 534.709091 -120.023242 
L 533.018182 -146.676884 
L 531.327273 -177.489853 
L 529.636364 -97.528926 
L 527.945455 -47.447242 
L 526.254545 -47.701895 
L 524.563636 -47.022821 
L 522.872727 -70.281095 
L 521.181818 -47.362358 
L 519.490909 -48.550737 
L 517.8 -55.256589 
L 516.109091 -70.450863 
L 514.418182 -82.759074 
L 512.727273 -46.089095 
L 511.036364 -134.283789 
L 509.345455 -69.602021 
L 507.654545 -58.821726 
L 505.963636 -78.684632 
L 504.272727 -123.503495 
L 502.581818 -55.256589 
L 500.890909 -169.510737 
L 499.2 -45.494905 
L 497.509091 -46.004211 
L 495.818182 -91.162611 
L 494.127273 -62.7264 
L 492.436364 -62.471747 
L 490.745455 -102.876632 
L 489.054545 -58.906611 
L 487.363636 -62.641516 
L 485.672727 -60.094989 
L 483.981818 -96.340547 
L 482.290909 -128.087242 
L 480.6 -156.947874 
L 478.909091 -140.989642 
L 477.218182 -132.0768 
L 475.527273 -135.557053 
L 473.836364 -60.010105 
L 472.145455 -81.231158 
L 470.454545 -98.292884 
L 468.763636 -47.786779 
L 467.072727 -96.255663 
L 465.381818 -54.6624 
L 463.690909 -49.229811 
L 462 -80.636968 
L 460.309091 -83.947453 
L 458.618182 -56.105432 
L 456.927273 -54.832168 
L 455.236364 -66.800842 
L 453.545455 -140.650105 
L 451.854545 -74.864842 
L 450.163636 -52.794947 
L 448.472727 -91.332379 
L 446.781818 -93.963789 
L 445.090909 -46.089095 
L 443.4 -46.004211 
L 441.709091 -91.926568 
L 440.018182 -88.5312 
L 438.327273 -109.752253 
L 436.636364 -127.662821 
L 434.945455 -119.598821 
L 433.254545 -108.394105 
L 431.563636 -103.725474 
L 429.872727 -114.590653 
L 428.181818 -109.4976 
L 426.490909 -114.166232 
L 424.8 -64.848505 
L 423.109091 -95.916126 
L 421.418182 -112.383663 
L 419.727273 -144.724547 
L 418.036364 -67.140379 
L 416.345455 -64.084547 
L 414.654545 -55.256589 
L 412.963636 -48.975158 
L 411.272727 -53.219368 
L 409.581818 -63.575242 
L 407.890909 -85.390484 
L 406.2 -101.094063 
L 404.509091 -49.824 
L 402.818182 -74.100884 
L 401.127273 -59.161263 
L 399.436364 -63.405474 
L 397.745455 -106.526653 
L 396.054545 -68.583411 
L 394.363636 -105.932463 
L 392.672727 -102.282442 
L 390.981818 -53.474021 
L 389.290909 -49.908884 
L 387.6 -48.296084 
L 385.909091 -102.197558 
L 384.218182 -58.397305 
L 382.527273 -62.047326 
L 380.836364 -116.627874 
L 379.145455 -75.374147 
L 377.454545 -69.686905 
L 375.763636 -60.604295 
L 374.072727 -93.539368 
L 372.381818 -46.683284 
L 370.690909 -48.041432 
L 369 -175.961937 
L 367.309091 -53.558905 
L 365.618182 -55.256589 
L 363.927273 -113.487158 
L 362.236364 -65.018274 
L 360.545455 -52.625179 
L 358.854545 -81.400926 
L 357.163636 -115.524379 
L 355.472727 -77.326484 
L 353.781818 -48.805389 
L 352.090909 -60.010105 
L 350.4 -108.139453 
L 348.709091 -55.341474 
L 347.018182 -52.370526 
L 345.327273 -51.776337 
L 343.636364 -94.133558 
L 341.945455 -50.078653 
L 340.254545 -52.625179 
L 338.563636 -76.053221 
L 336.872727 -111.1104 
L 335.181818 -51.267032 
L 333.490909 -52.455411 
L 331.8 -49.908884 
L 330.109091 -117.646484 
L 328.418182 -78.345095 
L 326.727273 -108.818526 
L 325.036364 -50.418189 
L 323.345455 -71.978779 
L 321.654545 -109.752253 
L 319.963636 -117.222063 
L 318.272727 -72.063663 
L 316.581818 -63.660126 
L 314.890909 -61.028716 
L 313.2 -141.7536 
L 311.509091 -81.316042 
L 309.818182 -81.485811 
L 308.127273 -79.363705 
L 306.436364 -76.902063 
L 304.745455 -97.868463 
L 303.054545 -75.119495 
L 301.363636 -86.9184 
L 299.672727 -60.179874 
L 297.981818 -65.357811 
L 296.290909 -48.380968 
L 294.6 -63.150821 
L 292.909091 -50.842611 
L 291.218182 -133.6896 
L 289.527273 -56.020547 
L 287.836364 -55.341474 
L 286.145455 -52.710063 
L 284.454545 -56.784505 
L 282.763636 -78.175326 
L 281.072727 -48.890274 
L 279.381818 -47.022821 
L 277.690909 -46.513516 
L 276 -82.419537 
L 274.309091 -105.083621 
L 272.618182 -47.107705 
L 270.927273 -79.024168 
L 269.236364 -53.389137 
L 267.545455 -52.285642 
L 265.854545 -45.325137 
L 264.163636 -81.316042 
L 262.472727 -53.813558 
L 260.781818 -64.593853 
L 259.090909 -65.527579 
L 257.4 -132.246568 
L 255.709091 -107.715032 
L 254.018182 -99.396379 
L 252.327273 -98.802189 
L 250.636364 -80.806737 
L 248.945455 -129.615158 
L 247.254545 -61.877558 
L 245.563636 -65.527579 
L 243.872727 -47.022821 
L 242.181818 -128.002358 
L 240.490909 -46.428632 
L 238.8 -109.922021 
L 237.109091 -70.535747 
L 235.418182 -75.6288 
L 233.727273 -78.175326 
L 232.036364 -63.999663 
L 230.345455 -114.420884 
L 228.654545 -50.333305 
L 226.963636 -49.314695 
L 225.272727 -73.167158 
L 223.581818 -69.1776 
L 221.890909 -48.635621 
L 220.2 -51.182147 
L 218.509091 -46.5984 
L 216.818182 -113.741811 
L 215.127273 -69.602021 
L 213.436364 -56.529853 
L 211.745455 -55.850779 
L 210.054545 -117.222063 
L 208.363636 -47.617011 
L 206.672727 -51.4368 
L 204.981818 -64.593853 
L 203.290909 -143.026863 
L 201.6 -52.030989 
L 199.909091 -48.296084 
L 198.218182 -48.126316 
L 196.527273 -92.435874 
L 194.836364 -47.617011 
L 193.145455 -47.786779 
L 191.454545 -47.701895 
L 189.763636 -47.786779 
L 188.072727 -95.321937 
L 186.381818 -47.956547 
L 184.690909 -47.871663 
L 183 -47.871663 
L 181.309091 -119.004632 
L 179.618182 -48.635621 
L 177.927273 -48.550737 
L 176.236364 -48.550737 
L 174.545455 -130.548884 
L 172.854545 -48.805389 
L 171.163636 -48.805389 
L 169.472727 -48.805389 
L 167.781818 -126.474442 
L 166.090909 -48.805389 
L 164.4 -48.805389 
L 162.709091 -48.635621 
L 161.018182 -160.937432 
L 159.327273 -47.362358 
L 157.636364 -64.508968 
L 155.945455 -94.133558 
L 154.254545 -47.956547 
L 152.563636 -59.161263 
L 150.872727 -52.200758 
L 149.181818 -79.363705 
L 147.490909 -59.415916 
L 145.8 -58.567074 
L 144.109091 -58.057768 
L 142.418182 -159.239747 
L 140.727273 -47.956547 
L 139.036364 -48.465853 
L 137.345455 -49.229811 
L 135.654545 -131.907032 
L 133.963636 -49.229811 
L 132.272727 -49.569347 
L 130.581818 -49.484463 
L 128.890909 -87.937011 
L 127.2 -47.786779 
L 125.509091 -47.871663 
L 123.818182 -46.513516 
L 122.127273 -48.805389 
L 120.436364 -47.107705 
L 118.745455 -46.343747 
L 117.054545 -48.2112 
L 115.363636 -65.103158 
z
" style="stroke: #0000ff; stroke-width: 0.5"/>
    </defs>
    <g clip-path="url(#pada6486b82)">
     <use xlink:href="#m66b61fdcc7" x="0" y="288" style="fill: #0000ff; stroke: #0000ff; stroke-width: 0.5"/>
    </g>
   </g>
   <g id="PolyCollection_3">
    <defs>
     <path id="mdc3ac1a0fe" d="M 115.363636 -80.721853 
L 115.363636 -65.103158 
L 117.054545 -48.2112 
L 118.745455 -46.343747 
L 120.436364 -47.107705 
L 122.127273 -48.805389 
L 123.818182 -46.513516 
L 125.509091 -47.871663 
L 127.2 -47.786779 
L 128.890909 -87.937011 
L 130.581818 -49.484463 
L 132.272727 -49.569347 
L 133.963636 -49.229811 
L 135.654545 -131.907032 
L 137.345455 -49.229811 
L 139.036364 -48.465853 
L 140.727273 -47.956547 
L 142.418182 -159.239747 
L 144.109091 -58.057768 
L 145.8 -58.567074 
L 147.490909 -59.415916 
L 149.181818 -79.363705 
L 150.872727 -52.200758 
L 152.563636 -59.161263 
L 154.254545 -47.956547 
L 155.945455 -94.133558 
L 157.636364 -64.508968 
L 159.327273 -47.362358 
L 161.018182 -160.937432 
L 162.709091 -48.635621 
L 164.4 -48.805389 
L 166.090909 -48.805389 
L 167.781818 -126.474442 
L 169.472727 -48.805389 
L 171.163636 -48.805389 
L 172.854545 -48.805389 
L 174.545455 -130.548884 
L 176.236364 -48.550737 
L 177.927273 -48.550737 
L 179.618182 -48.635621 
L 181.309091 -119.004632 
L 183 -47.871663 
L 184.690909 -47.871663 
L 186.381818 -47.956547 
L 188.072727 -95.321937 
L 189.763636 -47.786779 
L 191.454545 -47.701895 
L 193.145455 -47.786779 
L 194.836364 -47.617011 
L 196.527273 -92.435874 
L 198.218182 -48.126316 
L 199.909091 -48.296084 
L 201.6 -52.030989 
L 203.290909 -143.026863 
L 204.981818 -64.593853 
L 206.672727 -51.4368 
L 208.363636 -47.617011 
L 210.054545 -117.222063 
L 211.745455 -55.850779 
L 213.436364 -56.529853 
L 215.127273 -69.602021 
L 216.818182 -113.741811 
L 218.509091 -46.5984 
L 220.2 -51.182147 
L 221.890909 -48.635621 
L 223.581818 -69.1776 
L 225.272727 -73.167158 
L 226.963636 -49.314695 
L 228.654545 -50.333305 
L 230.345455 -114.420884 
L 232.036364 -63.999663 
L 233.727273 -78.175326 
L 235.418182 -75.6288 
L 237.109091 -70.535747 
L 238.8 -109.922021 
L 240.490909 -46.428632 
L 242.181818 -128.002358 
L 243.872727 -47.022821 
L 245.563636 -65.527579 
L 247.254545 -61.877558 
L 248.945455 -129.615158 
L 250.636364 -80.806737 
L 252.327273 -98.802189 
L 254.018182 -99.396379 
L 255.709091 -107.715032 
L 257.4 -132.246568 
L 259.090909 -65.527579 
L 260.781818 -64.593853 
L 262.472727 -53.813558 
L 264.163636 -81.316042 
L 265.854545 -45.325137 
L 267.545455 -52.285642 
L 269.236364 -53.389137 
L 270.927273 -79.024168 
L 272.618182 -47.107705 
L 274.309091 -105.083621 
L 276 -82.419537 
L 277.690909 -46.513516 
L 279.381818 -47.022821 
L 281.072727 -48.890274 
L 282.763636 -78.175326 
L 284.454545 -56.784505 
L 286.145455 -52.710063 
L 287.836364 -55.341474 
L 289.527273 -56.020547 
L 291.218182 -133.6896 
L 292.909091 -50.842611 
L 294.6 -63.150821 
L 296.290909 -48.380968 
L 297.981818 -65.357811 
L 299.672727 -60.179874 
L 301.363636 -86.9184 
L 303.054545 -75.119495 
L 304.745455 -97.868463 
L 306.436364 -76.902063 
L 308.127273 -79.363705 
L 309.818182 -81.485811 
L 311.509091 -81.316042 
L 313.2 -141.7536 
L 314.890909 -61.028716 
L 316.581818 -63.660126 
L 318.272727 -72.063663 
L 319.963636 -117.222063 
L 321.654545 -109.752253 
L 323.345455 -71.978779 
L 325.036364 -50.418189 
L 326.727273 -108.818526 
L 328.418182 -78.345095 
L 330.109091 -117.646484 
L 331.8 -49.908884 
L 333.490909 -52.455411 
L 335.181818 -51.267032 
L 336.872727 -111.1104 
L 338.563636 -76.053221 
L 340.254545 -52.625179 
L 341.945455 -50.078653 
L 343.636364 -94.133558 
L 345.327273 -51.776337 
L 347.018182 -52.370526 
L 348.709091 -55.341474 
L 350.4 -108.139453 
L 352.090909 -60.010105 
L 353.781818 -48.805389 
L 355.472727 -77.326484 
L 357.163636 -115.524379 
L 358.854545 -81.400926 
L 360.545455 -52.625179 
L 362.236364 -65.018274 
L 363.927273 -113.487158 
L 365.618182 -55.256589 
L 367.309091 -53.558905 
L 369 -175.961937 
L 370.690909 -48.041432 
L 372.381818 -46.683284 
L 374.072727 -93.539368 
L 375.763636 -60.604295 
L 377.454545 -69.686905 
L 379.145455 -75.374147 
L 380.836364 -116.627874 
L 382.527273 -62.047326 
L 384.218182 -58.397305 
L 385.909091 -102.197558 
L 387.6 -48.296084 
L 389.290909 -49.908884 
L 390.981818 -53.474021 
L 392.672727 -102.282442 
L 394.363636 -105.932463 
L 396.054545 -68.583411 
L 397.745455 -106.526653 
L 399.436364 -63.405474 
L 401.127273 -59.161263 
L 402.818182 -74.100884 
L 404.509091 -49.824 
L 406.2 -101.094063 
L 407.890909 -85.390484 
L 409.581818 -63.575242 
L 411.272727 -53.219368 
L 412.963636 -48.975158 
L 414.654545 -55.256589 
L 416.345455 -64.084547 
L 418.036364 -67.140379 
L 419.727273 -144.724547 
L 421.418182 -112.383663 
L 423.109091 -95.916126 
L 424.8 -64.848505 
L 426.490909 -114.166232 
L 428.181818 -109.4976 
L 429.872727 -114.590653 
L 431.563636 -103.725474 
L 433.254545 -108.394105 
L 434.945455 -119.598821 
L 436.636364 -127.662821 
L 438.327273 -109.752253 
L 440.018182 -88.5312 
L 441.709091 -91.926568 
L 443.4 -46.004211 
L 445.090909 -46.089095 
L 446.781818 -93.963789 
L 448.472727 -91.332379 
L 450.163636 -52.794947 
L 451.854545 -74.864842 
L 453.545455 -140.650105 
L 455.236364 -66.800842 
L 456.927273 -54.832168 
L 458.618182 -56.105432 
L 460.309091 -83.947453 
L 462 -80.636968 
L 463.690909 -49.229811 
L 465.381818 -54.6624 
L 467.072727 -96.255663 
L 468.763636 -47.786779 
L 470.454545 -98.292884 
L 472.145455 -81.231158 
L 473.836364 -60.010105 
L 475.527273 -135.557053 
L 477.218182 -132.0768 
L 478.909091 -140.989642 
L 480.6 -156.947874 
L 482.290909 -128.087242 
L 483.981818 -96.340547 
L 485.672727 -60.094989 
L 487.363636 -62.641516 
L 489.054545 -58.906611 
L 490.745455 -102.876632 
L 492.436364 -62.471747 
L 494.127273 -62.7264 
L 495.818182 -91.162611 
L 497.509091 -46.004211 
L 499.2 -45.494905 
L 500.890909 -169.510737 
L 502.581818 -55.256589 
L 504.272727 -123.503495 
L 505.963636 -78.684632 
L 507.654545 -58.821726 
L 509.345455 -69.602021 
L 511.036364 -134.283789 
L 512.727273 -46.089095 
L 514.418182 -82.759074 
L 516.109091 -70.450863 
L 517.8 -55.256589 
L 519.490909 -48.550737 
L 521.181818 -47.362358 
L 522.872727 -70.281095 
L 524.563636 -47.022821 
L 526.254545 -47.701895 
L 527.945455 -47.447242 
L 529.636364 -97.528926 
L 531.327273 -177.489853 
L 533.018182 -146.676884 
L 534.709091 -120.023242 
L 536.4 -72.148547 
L 538.090909 -70.7904 
L 539.781818 -63.745011 
L 541.472727 -140.395453 
L 543.163636 -62.981053 
L 544.854545 -49.569347 
L 546.545455 -79.109053 
L 548.236364 -78.090442 
L 549.927273 -86.069558 
L 551.618182 -126.219789 
L 553.309091 -68.243874 
L 555 -53.304253 
L 556.690909 -107.799916 
L 558.381818 -63.999663 
L 560.072727 -160.597895 
L 561.763636 -48.975158 
L 563.454545 -79.703242 
L 565.145455 -53.643789 
L 566.836364 -103.895242 
L 568.527273 -84.796295 
L 570.218182 -60.858947 
L 571.909091 -78.8544 
L 573.6 -57.972884 
L 575.290909 -46.5984 
L 576.981818 -47.107705 
L 578.672727 -137.848926 
L 580.363636 -124.437221 
L 582.054545 -128.002358 
L 583.745455 -122.994189 
L 585.436364 -133.010526 
L 587.127273 -61.198484 
L 588.818182 -83.777684 
L 590.509091 -69.262484 
L 592.2 -121.720926 
L 593.890909 -69.007832 
L 595.581818 -141.414063 
L 597.272727 -108.818526 
L 598.963636 -58.312421 
L 600.654545 -56.869389 
L 602.345455 -57.633347 
L 604.036364 -133.519832 
L 605.727273 -45.240253 
L 607.418182 -47.871663 
L 609.109091 -60.519411 
L 610.8 -127.577937 
L 612.490909 -50.418189 
L 614.181818 -48.890274 
L 615.872727 -74.949726 
L 617.563636 -69.262484 
L 619.254545 -93.624253 
L 620.945455 -113.996463 
L 622.636364 -41.76 
L 622.636364 -41.929768 
L 622.636364 -41.929768 
L 620.945455 -163.653726 
L 619.254545 -160.258358 
L 617.563636 -111.619705 
L 615.872727 -89.804463 
L 614.181818 -59.415916 
L 612.490909 -66.376421 
L 610.8 -143.3664 
L 609.109091 -83.438147 
L 607.418182 -57.718232 
L 605.727273 -57.124042 
L 604.036364 -148.798989 
L 602.345455 -94.048674 
L 600.654545 -87.937011 
L 598.963636 -84.541642 
L 597.272727 -148.459453 
L 595.581818 -176.301474 
L 593.890909 -140.225684 
L 592.2 -168.577011 
L 590.509091 -102.367326 
L 588.818182 -112.977853 
L 587.127273 -101.518484 
L 585.436364 -182.0736 
L 583.745455 -213.056337 
L 582.054545 -221.629642 
L 580.363636 -212.207495 
L 578.672727 -169.935158 
L 576.981818 -80.891621 
L 575.290909 -70.365979 
L 573.6 -93.199832 
L 571.909091 -95.321937 
L 570.218182 -79.703242 
L 568.527273 -99.8208 
L 566.836364 -130.888421 
L 565.145455 -76.477642 
L 563.454545 -118.410442 
L 561.763636 -75.883453 
L 560.072727 -184.025937 
L 558.381818 -99.311495 
L 556.690909 -132.416337 
L 555 -65.867116 
L 553.309091 -89.125389 
L 551.618182 -159.154863 
L 549.927273 -137.254737 
L 548.236364 -109.073179 
L 546.545455 -98.377768 
L 544.854545 -79.278821 
L 543.163636 -114.166232 
L 541.472727 -201.936505 
L 539.781818 -115.524379 
L 538.090909 -128.087242 
L 536.4 -135.726821 
L 534.709091 -210.170274 
L 533.018182 -219.083116 
L 531.327273 -202.870232 
L 529.636364 -124.691874 
L 527.945455 -64.593853 
L 526.254545 -59.755453 
L 524.563636 -57.718232 
L 522.872727 -86.9184 
L 521.181818 -64.3392 
L 519.490909 -65.018274 
L 517.8 -80.891621 
L 516.109091 -104.234779 
L 514.418182 -95.321937 
L 512.727273 -53.728674 
L 511.036364 -145.743158 
L 509.345455 -98.123116 
L 507.654545 -86.748632 
L 505.963636 -124.946526 
L 504.272727 -209.066779 
L 502.581818 -123.758147 
L 500.890909 -202.870232 
L 499.2 -48.296084 
L 497.509091 -48.465853 
L 495.818182 -98.377768 
L 494.127273 -84.796295 
L 492.436364 -101.603368 
L 490.745455 -141.074526 
L 489.054545 -98.377768 
L 487.363636 -92.860295 
L 485.672727 -87.512589 
L 483.981818 -131.143074 
L 482.290909 -243.36 
L 480.6 -236.823916 
L 478.909091 -217.809853 
L 477.218182 -195.824842 
L 475.527273 -183.261979 
L 473.836364 -74.779958 
L 472.145455 -121.466274 
L 470.454545 -130.379116 
L 468.763636 -56.614737 
L 467.072727 -102.961516 
L 465.381818 -78.599747 
L 463.690909 -73.336926 
L 462 -121.720926 
L 460.309091 -108.309221 
L 458.618182 -80.042779 
L 456.927273 -70.535747 
L 455.236364 -86.154442 
L 453.545455 -210.679579 
L 451.854545 -100.924295 
L 450.163636 -99.651032 
L 448.472727 -174.518905 
L 446.781818 -128.511663 
L 445.090909 -50.418189 
L 443.4 -48.380968 
L 441.709091 -116.712758 
L 440.018182 -163.314189 
L 438.327273 -187.760842 
L 436.636364 -168.237474 
L 434.945455 -160.597895 
L 433.254545 -163.229305 
L 431.563636 -155.335074 
L 429.872727 -173.075874 
L 428.181818 -159.664168 
L 426.490909 -143.281516 
L 424.8 -90.738189 
L 423.109091 -120.362779 
L 421.418182 -170.953768 
L 419.727273 -184.110821 
L 418.036364 -90.568421 
L 416.345455 -78.939284 
L 414.654545 -72.827621 
L 412.963636 -60.179874 
L 411.272727 -68.583411 
L 409.581818 -84.202105 
L 407.890909 -131.482611 
L 406.2 -119.1744 
L 404.509091 -62.556632 
L 402.818182 -100.669642 
L 401.127273 -94.218442 
L 399.436364 -115.9488 
L 397.745455 -133.519832 
L 396.054545 -99.651032 
L 394.363636 -140.055916 
L 392.672727 -119.089516 
L 390.981818 -71.299705 
L 389.290909 -59.925221 
L 387.6 -59.670568 
L 385.909091 -112.044126 
L 384.218182 -103.385937 
L 382.527273 -107.290611 
L 380.836364 -167.5584 
L 379.145455 -134.623326 
L 377.454545 -117.306947 
L 375.763636 -87.937011 
L 374.072727 -122.060463 
L 372.381818 -80.636968 
L 370.690909 -97.698695 
L 369 -193.787621 
L 367.309091 -83.862568 
L 365.618182 -94.303326 
L 363.927273 -163.908379 
L 362.236364 -107.969684 
L 360.545455 -94.557979 
L 358.854545 -133.434947 
L 357.163636 -157.626947 
L 355.472727 -127.747705 
L 353.781818 -81.740463 
L 352.090909 -109.158063 
L 350.4 -146.761768 
L 348.709091 -100.075453 
L 347.018182 -88.361432 
L 345.327273 -88.785853 
L 343.636364 -123.333726 
L 341.945455 -81.061389 
L 340.254545 -81.740463 
L 338.563636 -124.0128 
L 336.872727 -140.904758 
L 335.181818 -76.817179 
L 333.490909 -71.469474 
L 331.8 -68.668295 
L 330.109091 -155.589726 
L 328.418182 -121.636042 
L 326.727273 -143.705937 
L 325.036364 -96.680084 
L 323.345455 -140.819874 
L 321.654545 -135.217516 
L 319.963636 -156.099032 
L 318.272727 -119.004632 
L 316.581818 -88.700968 
L 314.890909 -88.785853 
L 313.2 -176.216589 
L 311.509091 -110.006905 
L 309.818182 -108.733642 
L 308.127273 -108.648758 
L 306.436364 -101.178947 
L 304.745455 -125.540716 
L 303.054545 -97.613811 
L 301.363636 -123.503495 
L 299.672727 -88.616084 
L 297.981818 -81.231158 
L 296.290909 -65.612463 
L 294.6 -138.018695 
L 292.909091 -73.252042 
L 291.218182 -146.592 
L 289.527273 -64.084547 
L 287.836364 -66.970611 
L 286.145455 -75.119495 
L 284.454545 -87.088168 
L 282.763636 -92.860295 
L 281.072727 -56.444968 
L 279.381818 -56.190316 
L 277.690909 -55.511242 
L 276 -118.834863 
L 274.309091 -140.225684 
L 272.618182 -57.972884 
L 270.927273 -90.483537 
L 269.236364 -76.477642 
L 267.545455 -68.668295 
L 265.854545 -48.380968 
L 264.163636 -92.266105 
L 262.472727 -83.6928 
L 260.781818 -99.735916 
L 259.090909 -123.927916 
L 257.4 -182.752674 
L 255.709091 -205.162105 
L 254.018182 -194.636463 
L 252.327273 -188.609684 
L 250.636364 -134.538442 
L 248.945455 -191.410863 
L 247.254545 -97.528926 
L 245.563636 -78.8544 
L 243.872727 -59.840337 
L 242.181818 -131.907032 
L 240.490909 -50.078653 
L 238.8 -161.276968 
L 237.109091 -100.754526 
L 235.418182 -117.731368 
L 233.727273 -128.936084 
L 232.036364 -95.576589 
L 230.345455 -126.644211 
L 228.654545 -75.798568 
L 226.963636 -64.933389 
L 225.272727 -93.3696 
L 223.581818 -74.779958 
L 221.890909 -60.858947 
L 220.2 -67.055495 
L 218.509091 -52.710063 
L 216.818182 -150.242021 
L 215.127273 -142.262905 
L 213.436364 -108.054568 
L 211.745455 -103.0464 
L 210.054545 -152.024589 
L 208.363636 -85.730021 
L 206.672727 -103.0464 
L 204.981818 -130.124463 
L 203.290909 -172.736337 
L 201.6 -80.636968 
L 199.909091 -78.090442 
L 198.218182 -77.326484 
L 196.527273 -109.582484 
L 194.836364 -62.811284 
L 193.145455 -68.158989 
L 191.454545 -70.365979 
L 189.763636 -67.479916 
L 188.072727 -118.665095 
L 186.381818 -76.986947 
L 184.690909 -79.024168 
L 183 -80.127663 
L 181.309091 -179.017768 
L 179.618182 -135.217516 
L 177.927273 -134.793095 
L 176.236364 -134.114021 
L 174.545455 -200.493474 
L 172.854545 -132.246568 
L 171.163636 -131.822147 
L 169.472727 -131.567495 
L 167.781818 -195.485305 
L 166.090909 -129.020968 
L 164.4 -130.888421 
L 162.709091 -123.333726 
L 161.018182 -183.6864 
L 159.327273 -55.341474 
L 157.636364 -88.700968 
L 155.945455 -129.360505 
L 154.254545 -66.121768 
L 152.563636 -94.048674 
L 150.872727 -79.703242 
L 149.181818 -114.166232 
L 147.490909 -131.822147 
L 145.8 -128.936084 
L 144.109091 -124.946526 
L 142.418182 -218.828463 
L 140.727273 -121.126737 
L 139.036364 -135.3024 
L 137.345455 -144.9792 
L 135.654545 -201.936505 
L 133.963636 -151.769937 
L 132.272727 -155.674611 
L 130.581818 -163.059537 
L 128.890909 -179.611958 
L 127.2 -128.087242 
L 125.509091 -93.284716 
L 123.818182 -66.036884 
L 122.127273 -77.156716 
L 120.436364 -49.908884 
L 118.745455 -50.587958 
L 117.054545 -53.983326 
L 115.363636 -80.721853 
z
" style="stroke: #008000; stroke-width: 0.5"/>
    </defs>
    <g clip-path="url(#pada6486b82)">
     <use xlink:href="#mdc3ac1a0fe" x="0" y="288" style="fill: #008000; stroke: #008000; stroke-width: 0.5"/>
    </g>
   </g>
   <g id="line2d_22">
    <path d="M 90 44.64 
L 648 44.64 
" clip-path="url(#pada6486b82)" style="fill: none; stroke: #000000; stroke-width: 1.5; stroke-linecap: square"/>
   </g>
   <g id="line2d_23">
    <path d="M 90 173.748884 
L 648 173.748884 
" clip-path="url(#pada6486b82)" style="fill: none; stroke: #000000; stroke-width: 1.5; stroke-linecap: square"/>
   </g>
   <g id="patch_3">
    <path d="M 90 256.32 
L 90 34.56 
" style="fill: none; stroke: #000000; stroke-width: 0.8; stroke-linejoin: miter; stroke-linecap: square"/>
   </g>
   <g id="patch_4">
    <path d="M 648 256.32 
L 648 34.56 
" style="fill: none; stroke: #000000; stroke-width: 0.8; stroke-linejoin: miter; stroke-linecap: square"/>
   </g>
   <g id="patch_5">
    <path d="M 90 256.32 
L 648 256.32 
" style="fill: none; stroke: #000000; stroke-width: 0.8; stroke-linejoin: miter; stroke-linecap: square"/>
   </g>
   <g id="patch_6">
    <path d="M 90 34.56 
L 648 34.56 
" style="fill: none; stroke: #000000; stroke-width: 0.8; stroke-linejoin: miter; stroke-linecap: square"/>
   </g>
   <g id="text_19">
    <!-- peak (2,375) -->
    <g transform="translate(122.179233 41.3136) scale(0.1 -0.1)">
     <defs>
      <path id="DejaVuSans-Bold-70" d="M 1656 506 
L 1656 -1331 
L 538 -1331 
L 538 3500 
L 1656 3500 
L 1656 2988 
Q 1888 3294 2169 3439 
Q 2450 3584 2816 3584 
Q 3463 3584 3878 3070 
Q 4294 2556 4294 1747 
Q 4294 938 3878 423 
Q 3463 -91 2816 -91 
Q 2450 -91 2169 54 
Q 1888 200 1656 506 
z
M 2400 2772 
Q 2041 2772 1848 2508 
Q 1656 2244 1656 1747 
Q 1656 1250 1848 986 
Q 2041 722 2400 722 
Q 2759 722 2948 984 
Q 3138 1247 3138 1747 
Q 3138 2247 2948 2509 
Q 2759 2772 2400 2772 
z
" transform="scale(0.015625)"/>
      <path id="DejaVuSans-Bold-65" d="M 4031 1759 
L 4031 1441 
L 1416 1441 
Q 1456 1047 1700 850 
Q 1944 653 2381 653 
Q 2734 653 3104 758 
Q 3475 863 3866 1075 
L 3866 213 
Q 3469 63 3072 -14 
Q 2675 -91 2278 -91 
Q 1328 -91 801 392 
Q 275 875 275 1747 
Q 275 2603 792 3093 
Q 1309 3584 2216 3584 
Q 3041 3584 3536 3087 
Q 4031 2591 4031 1759 
z
M 2881 2131 
Q 2881 2450 2695 2645 
Q 2509 2841 2209 2841 
Q 1884 2841 1681 2658 
Q 1478 2475 1428 2131 
L 2881 2131 
z
" transform="scale(0.015625)"/>
      <path id="DejaVuSans-Bold-61" d="M 2106 1575 
Q 1756 1575 1579 1456 
Q 1403 1338 1403 1106 
Q 1403 894 1545 773 
Q 1688 653 1941 653 
Q 2256 653 2472 879 
Q 2688 1106 2688 1447 
L 2688 1575 
L 2106 1575 
z
M 3816 1997 
L 3816 0 
L 2688 0 
L 2688 519 
Q 2463 200 2181 54 
Q 1900 -91 1497 -91 
Q 953 -91 614 226 
Q 275 544 275 1050 
Q 275 1666 698 1953 
Q 1122 2241 2028 2241 
L 2688 2241 
L 2688 2328 
Q 2688 2594 2478 2717 
Q 2269 2841 1825 2841 
Q 1466 2841 1156 2769 
Q 847 2697 581 2553 
L 581 3406 
Q 941 3494 1303 3539 
Q 1666 3584 2028 3584 
Q 2975 3584 3395 3211 
Q 3816 2838 3816 1997 
z
" transform="scale(0.015625)"/>
      <path id="DejaVuSans-Bold-6b" d="M 538 4863 
L 1656 4863 
L 1656 2216 
L 2944 3500 
L 4244 3500 
L 2534 1894 
L 4378 0 
L 3022 0 
L 1656 1459 
L 1656 0 
L 538 0 
L 538 4863 
z
" transform="scale(0.015625)"/>
      <path id="DejaVuSans-Bold-20" transform="scale(0.015625)"/>
      <path id="DejaVuSans-Bold-28" d="M 2413 -844 
L 1484 -844 
Q 1006 -72 778 623 
Q 550 1319 550 2003 
Q 550 2688 779 3389 
Q 1009 4091 1484 4856 
L 2413 4856 
Q 2013 4116 1813 3408 
Q 1613 2700 1613 2009 
Q 1613 1319 1811 609 
Q 2009 -100 2413 -844 
z
" transform="scale(0.015625)"/>
      <path id="DejaVuSans-Bold-32" d="M 1844 884 
L 3897 884 
L 3897 0 
L 506 0 
L 506 884 
L 2209 2388 
Q 2438 2594 2547 2791 
Q 2656 2988 2656 3200 
Q 2656 3528 2436 3728 
Q 2216 3928 1850 3928 
Q 1569 3928 1234 3808 
Q 900 3688 519 3450 
L 519 4475 
Q 925 4609 1322 4679 
Q 1719 4750 2100 4750 
Q 2938 4750 3402 4381 
Q 3866 4013 3866 3353 
Q 3866 2972 3669 2642 
Q 3472 2313 2841 1759 
L 1844 884 
z
" transform="scale(0.015625)"/>
      <path id="DejaVuSans-Bold-2c" d="M 653 1209 
L 1778 1209 
L 1778 256 
L 1006 -909 
L 341 -909 
L 653 256 
L 653 1209 
z
" transform="scale(0.015625)"/>
      <path id="DejaVuSans-Bold-33" d="M 2981 2516 
Q 3453 2394 3698 2092 
Q 3944 1791 3944 1325 
Q 3944 631 3412 270 
Q 2881 -91 1863 -91 
Q 1503 -91 1142 -33 
Q 781 25 428 141 
L 428 1069 
Q 766 900 1098 814 
Q 1431 728 1753 728 
Q 2231 728 2486 893 
Q 2741 1059 2741 1369 
Q 2741 1688 2480 1852 
Q 2219 2016 1709 2016 
L 1228 2016 
L 1228 2791 
L 1734 2791 
Q 2188 2791 2409 2933 
Q 2631 3075 2631 3366 
Q 2631 3634 2415 3781 
Q 2200 3928 1806 3928 
Q 1516 3928 1219 3862 
Q 922 3797 628 3669 
L 628 4550 
Q 984 4650 1334 4700 
Q 1684 4750 2022 4750 
Q 2931 4750 3382 4451 
Q 3834 4153 3834 3553 
Q 3834 3144 3618 2883 
Q 3403 2622 2981 2516 
z
" transform="scale(0.015625)"/>
      <path id="DejaVuSans-Bold-37" d="M 428 4666 
L 3944 4666 
L 3944 3988 
L 2125 0 
L 953 0 
L 2675 3781 
L 428 3781 
L 428 4666 
z
" transform="scale(0.015625)"/>
      <path id="DejaVuSans-Bold-35" d="M 678 4666 
L 3669 4666 
L 3669 3781 
L 1638 3781 
L 1638 3059 
Q 1775 3097 1914 3117 
Q 2053 3138 2203 3138 
Q 3056 3138 3531 2711 
Q 4006 2284 4006 1522 
Q 4006 766 3489 337 
Q 2972 -91 2053 -91 
Q 1656 -91 1267 -14 
Q 878 63 494 219 
L 494 1166 
Q 875 947 1217 837 
Q 1559 728 1863 728 
Q 2300 728 2551 942 
Q 2803 1156 2803 1522 
Q 2803 1891 2551 2103 
Q 2300 2316 1863 2316 
Q 1603 2316 1309 2248 
Q 1016 2181 678 2041 
L 678 4666 
z
" transform="scale(0.015625)"/>
      <path id="DejaVuSans-Bold-29" d="M 513 -844 
Q 913 -100 1113 609 
Q 1313 1319 1313 2009 
Q 1313 2700 1113 3408 
Q 913 4116 513 4856 
L 1441 4856 
Q 1916 4091 2145 3389 
Q 2375 2688 2375 2003 
Q 2375 1319 2147 623 
Q 1919 -72 1441 -844 
L 513 -844 
z
" transform="scale(0.015625)"/>
     </defs>
     <use xlink:href="#DejaVuSans-Bold-70"/>
     <use xlink:href="#DejaVuSans-Bold-65" x="71.582031"/>
     <use xlink:href="#DejaVuSans-Bold-61" x="139.404297"/>
     <use xlink:href="#DejaVuSans-Bold-6b" x="206.884766"/>
     <use xlink:href="#DejaVuSans-Bold-20" x="273.388672"/>
     <use xlink:href="#DejaVuSans-Bold-28" x="308.203125"/>
     <use xlink:href="#DejaVuSans-Bold-32" x="353.90625"/>
     <use xlink:href="#DejaVuSans-Bold-2c" x="423.486328"/>
     <use xlink:href="#DejaVuSans-Bold-33" x="461.474609"/>
     <use xlink:href="#DejaVuSans-Bold-37" x="531.054688"/>
     <use xlink:href="#DejaVuSans-Bold-35" x="600.634766"/>
     <use xlink:href="#DejaVuSans-Bold-29" x="670.214844"/>
    </g>
   </g>
   <g id="text_20">
    <!-- mean (854) -->
    <g transform="translate(573.106278 170.422484) scale(0.1 -0.1)">
     <defs>
      <path id="DejaVuSans-Bold-6d" d="M 3781 2919 
Q 3994 3244 4286 3414 
Q 4578 3584 4928 3584 
Q 5531 3584 5847 3212 
Q 6163 2841 6163 2131 
L 6163 0 
L 5038 0 
L 5038 1825 
Q 5041 1866 5042 1909 
Q 5044 1953 5044 2034 
Q 5044 2406 4934 2573 
Q 4825 2741 4581 2741 
Q 4263 2741 4089 2478 
Q 3916 2216 3909 1719 
L 3909 0 
L 2784 0 
L 2784 1825 
Q 2784 2406 2684 2573 
Q 2584 2741 2328 2741 
Q 2006 2741 1831 2477 
Q 1656 2213 1656 1722 
L 1656 0 
L 531 0 
L 531 3500 
L 1656 3500 
L 1656 2988 
Q 1863 3284 2130 3434 
Q 2397 3584 2719 3584 
Q 3081 3584 3359 3409 
Q 3638 3234 3781 2919 
z
" transform="scale(0.015625)"/>
      <path id="DejaVuSans-Bold-6e" d="M 4056 2131 
L 4056 0 
L 2931 0 
L 2931 347 
L 2931 1631 
Q 2931 2084 2911 2256 
Q 2891 2428 2841 2509 
Q 2775 2619 2662 2680 
Q 2550 2741 2406 2741 
Q 2056 2741 1856 2470 
Q 1656 2200 1656 1722 
L 1656 0 
L 538 0 
L 538 3500 
L 1656 3500 
L 1656 2988 
Q 1909 3294 2193 3439 
Q 2478 3584 2822 3584 
Q 3428 3584 3742 3212 
Q 4056 2841 4056 2131 
z
" transform="scale(0.015625)"/>
      <path id="DejaVuSans-Bold-38" d="M 2228 2088 
Q 1891 2088 1709 1903 
Q 1528 1719 1528 1375 
Q 1528 1031 1709 848 
Q 1891 666 2228 666 
Q 2563 666 2741 848 
Q 2919 1031 2919 1375 
Q 2919 1722 2741 1905 
Q 2563 2088 2228 2088 
z
M 1350 2484 
Q 925 2613 709 2878 
Q 494 3144 494 3541 
Q 494 4131 934 4440 
Q 1375 4750 2228 4750 
Q 3075 4750 3515 4442 
Q 3956 4134 3956 3541 
Q 3956 3144 3739 2878 
Q 3522 2613 3097 2484 
Q 3572 2353 3814 2058 
Q 4056 1763 4056 1313 
Q 4056 619 3595 264 
Q 3134 -91 2228 -91 
Q 1319 -91 855 264 
Q 391 619 391 1313 
Q 391 1763 633 2058 
Q 875 2353 1350 2484 
z
M 1631 3419 
Q 1631 3141 1786 2991 
Q 1941 2841 2228 2841 
Q 2509 2841 2662 2991 
Q 2816 3141 2816 3419 
Q 2816 3697 2662 3845 
Q 2509 3994 2228 3994 
Q 1941 3994 1786 3844 
Q 1631 3694 1631 3419 
z
" transform="scale(0.015625)"/>
      <path id="DejaVuSans-Bold-34" d="M 2356 3675 
L 1038 1722 
L 2356 1722 
L 2356 3675 
z
M 2156 4666 
L 3494 4666 
L 3494 1722 
L 4159 1722 
L 4159 850 
L 3494 850 
L 3494 0 
L 2356 0 
L 2356 850 
L 288 850 
L 288 1881 
L 2156 4666 
z
" transform="scale(0.015625)"/>
     </defs>
     <use xlink:href="#DejaVuSans-Bold-6d"/>
     <use xlink:href="#DejaVuSans-Bold-65" x="104.199219"/>
     <use xlink:href="#DejaVuSans-Bold-61" x="172.021484"/>
     <use xlink:href="#DejaVuSans-Bold-6e" x="239.501953"/>
     <use xlink:href="#DejaVuSans-Bold-20" x="310.693359"/>
     <use xlink:href="#DejaVuSans-Bold-28" x="345.507812"/>
     <use xlink:href="#DejaVuSans-Bold-38" x="391.210938"/>
     <use xlink:href="#DejaVuSans-Bold-35" x="460.791016"/>
     <use xlink:href="#DejaVuSans-Bold-34" x="530.371094"/>
     <use xlink:href="#DejaVuSans-Bold-29" x="599.951172"/>
    </g>
   </g>
   <g id="text_21">
    <!-- Stream Bitrate over Time -->
    <g transform="translate(293.189062 28.56) scale(0.12 -0.12)">
     <defs>
      <path id="DejaVuSans-53" d="M 3425 4513 
L 3425 3897 
Q 3066 4069 2747 4153 
Q 2428 4238 2131 4238 
Q 1616 4238 1336 4038 
Q 1056 3838 1056 3469 
Q 1056 3159 1242 3001 
Q 1428 2844 1947 2747 
L 2328 2669 
Q 3034 2534 3370 2195 
Q 3706 1856 3706 1288 
Q 3706 609 3251 259 
Q 2797 -91 1919 -91 
Q 1588 -91 1214 -16 
Q 841 59 441 206 
L 441 856 
Q 825 641 1194 531 
Q 1563 422 1919 422 
Q 2459 422 2753 634 
Q 3047 847 3047 1241 
Q 3047 1584 2836 1778 
Q 2625 1972 2144 2069 
L 1759 2144 
Q 1053 2284 737 2584 
Q 422 2884 422 3419 
Q 422 4038 858 4394 
Q 1294 4750 2059 4750 
Q 2388 4750 2728 4690 
Q 3069 4631 3425 4513 
z
" transform="scale(0.015625)"/>
      <path id="DejaVuSans-6f" d="M 1959 3097 
Q 1497 3097 1228 2736 
Q 959 2375 959 1747 
Q 959 1119 1226 758 
Q 1494 397 1959 397 
Q 2419 397 2687 759 
Q 2956 1122 2956 1747 
Q 2956 2369 2687 2733 
Q 2419 3097 1959 3097 
z
M 1959 3584 
Q 2709 3584 3137 3096 
Q 3566 2609 3566 1747 
Q 3566 888 3137 398 
Q 2709 -91 1959 -91 
Q 1206 -91 779 398 
Q 353 888 353 1747 
Q 353 2609 779 3096 
Q 1206 3584 1959 3584 
z
" transform="scale(0.015625)"/>
      <path id="DejaVuSans-76" d="M 191 3500 
L 800 3500 
L 1894 563 
L 2988 3500 
L 3597 3500 
L 2284 0 
L 1503 0 
L 191 3500 
z
" transform="scale(0.015625)"/>
     </defs>
     <use xlink:href="#DejaVuSans-53"/>
     <use xlink:href="#DejaVuSans-74" x="63.476562"/>
     <use xlink:href="#DejaVuSans-72" x="102.685547"/>
     <use xlink:href="#DejaVuSans-65" x="141.548828"/>
     <use xlink:href="#DejaVuSans-61" x="203.072266"/>
     <use xlink:href="#DejaVuSans-6d" x="264.351562"/>
     <use xlink:href="#DejaVuSans-20" x="361.763672"/>
     <use xlink:href="#DejaVuSans-42" x="393.550781"/>
     <use xlink:href="#DejaVuSans-69" x="462.154297"/>
     <use xlink:href="#DejaVuSans-74" x="489.9375"/>
     <use xlink:href="#DejaVuSans-72" x="529.146484"/>
     <use xlink:href="#DejaVuSans-61" x="570.259766"/>
     <use xlink:href="#DejaVuSans-74" x="631.539062"/>
     <use xlink:href="#DejaVuSans-65" x="670.748047"/>
     <use xlink:href="#DejaVuSans-20" x="732.271484"/>
     <use xlink:href="#DejaVuSans-6f" x="764.058594"/>
     <use xlink:href="#DejaVuSans-76" x="825.240234"/>
     <use xlink:href="#DejaVuSans-65" x="884.419922"/>
     <use xlink:href="#DejaVuSans-72" x="945.943359"/>
     <use xlink:href="#DejaVuSans-20" x="987.056641"/>
     <use xlink:href="#DejaVuSans-54" x="1018.84375"/>
     <use xlink:href="#DejaVuSans-69" x="1076.802734"/>
     <use xlink:href="#DejaVuSans-6d" x="1104.585938"/>
     <use xlink:href="#DejaVuSans-65" x="1201.998047"/>
    </g>
   </g>
   <g id="legend_1">
    <g id="patch_7">
     <path d="M 602.139063 86.594375 
L 641 86.594375 
Q 643 86.594375 643 84.594375 
L 643 41.56 
Q 643 39.56 641 39.56 
L 602.139063 39.56 
Q 600.139063 39.56 600.139063 41.56 
L 600.139063 84.594375 
Q 600.139063 86.594375 602.139063 86.594375 
z
" style="fill: #ffffff; opacity: 0.8; stroke: #cccccc; stroke-linejoin: miter"/>
    </g>
    <g id="patch_8">
     <path d="M 604.139063 51.158438 
L 624.139063 51.158438 
L 624.139063 44.158438 
L 604.139063 44.158438 
z
" style="fill: #ff0000; stroke: #ff0000; stroke-width: 0.5; stroke-linejoin: miter"/>
    </g>
    <g id="text_22">
     <!-- I -->
     <g transform="translate(632.139063 51.158438) scale(0.1 -0.1)">
      <defs>
       <path id="DejaVuSans-49" d="M 628 4666 
L 1259 4666 
L 1259 0 
L 628 0 
L 628 4666 
z
" transform="scale(0.015625)"/>
      </defs>
      <use xlink:href="#DejaVuSans-49"/>
     </g>
    </g>
    <g id="patch_9">
     <path d="M 604.139063 65.836563 
L 624.139063 65.836563 
L 624.139063 58.836563 
L 604.139063 58.836563 
z
" style="fill: #0000ff; stroke: #0000ff; stroke-width: 0.5; stroke-linejoin: miter"/>
    </g>
    <g id="text_23">
     <!-- B -->
     <g transform="translate(632.139063 65.836563) scale(0.1 -0.1)">
      <use xlink:href="#DejaVuSans-42"/>
     </g>
    </g>
    <g id="patch_10">
     <path d="M 604.139063 80.514688 
L 624.139063 80.514688 
L 624.139063 73.514688 
L 604.139063 73.514688 
z
" style="fill: #008000; stroke: #008000; stroke-width: 0.5; stroke-linejoin: miter"/>
    </g>
    <g id="text_24">
     <!-- P -->
     <g transform="translate(632.139063 80.514688) scale(0.1 -0.1)">
      <defs>
       <path id="DejaVuSans-50" d="M 1259 4147 
L 1259 2394 
L 2053 2394 
Q 2494 2394 2734 2622 
Q 2975 2850 2975 3272 
Q 2975 3691 2734 3919 
Q 2494 4147 2053 4147 
L 1259 4147 
z
M 628 4666 
L 2053 4666 
Q 2838 4666 3239 4311 
Q 3641 3956 3641 3272 
Q 3641 2581 3239 2228 
Q 2838 1875 2053 1875 
L 1259 1875 
L 1259 0 
L 628 0 
L 628 4666 
z
" transform="scale(0.015625)"/>
      </defs>
      <use xlink:href="#DejaVuSans-50"/>
     </g>
    </g>
   </g>
  </g>
 </g>
 <defs>
  <clipPath id="pada6486b82">
   <rect x="90" y="34.56" width="558" height="221.76"/>
  </clipPath>
 </defs>
</svg>
