<?xml version="1.0" encoding="utf-8" standalone="no"?>
<!DOCTYPE svg PUBLIC "-//W3C//DTD SVG 1.1//EN"
  "http://www.w3.org/Graphics/SVG/1.1/DTD/svg11.dtd">
<svg xmlns:xlink="http://www.w3.org/1999/xlink" width="720pt" height="288pt" viewBox="0 0 720 288" xmlns="http://www.w3.org/2000/svg" version="1.1">
 <metadata>
  <rdf:RDF xmlns:dc="http://purl.org/dc/elements/1.1/" xmlns:cc="http://creativecommons.org/ns#" xmlns:rdf="http://www.w3.org/1999/02/22-rdf-syntax-ns#">
   <cc:Work>
    <dc:type rdf:resource="http://purl.org/dc/dcmitype/StillImage"/>
    <dc:date>2023-05-07T02:12:40.887922</dc:date>
    <dc:format>image/svg+xml</dc:format>
    <dc:creator>
     <cc:Agent>
      <dc:title>Matplotlib v3.7.1, https://matplotlib.org/</dc:title>
     </cc:Agent>
    </dc:creator>
   </cc:Work>
  </rdf:RDF>
 </metadata>
 <defs>
  <style type="text/css">*{stroke-linejoin: round; stroke-linecap: butt}</style>
 </defs>
 <g id="figure_1">
  <g id="patch_1">
   <path d="M 0 288 
L 720 288 
L 720 0 
L 0 0 
z
" style="fill: #ffffff"/>
  </g>
  <g id="axes_1">
   <g id="patch_2">
    <path d="M 90 256.32 
L 648 256.32 
L 648 34.56 
L 90 34.56 
z
" style="fill: #ffffff"/>
   </g>
   <g id="matplotlib.axis_1">
    <g id="xtick_1">
     <g id="line2d_1">
      <defs>
       <path id="m3ebd8758fd" d="M 0 0 
L 0 3.5 
" style="stroke: #000000; stroke-width: 0.8"/>
      </defs>
      <g>
       <use xlink:href="#m3ebd8758fd" x="115.363636" y="256.32" style="stroke: #000000; stroke-width: 0.8"/>
      </g>
     </g>
     <g id="text_1">
      <!-- 0:00:00 -->
      <g transform="translate(96.088636 270.918437) scale(0.1 -0.1)">
       <defs>
        <path id="DejaVuSans-30" d="M 2034 4250 
Q 1547 4250 1301 3770 
Q 1056 3291 1056 2328 
Q 1056 1369 1301 889 
Q 1547 409 2034 409 
Q 2525 409 2770 889 
Q 3016 1369 3016 2328 
Q 3016 3291 2770 3770 
Q 2525 4250 2034 4250 
z
M 2034 4750 
Q 2819 4750 3233 4129 
Q 3647 3509 3647 2328 
Q 3647 1150 3233 529 
Q 2819 -91 2034 -91 
Q 1250 -91 836 529 
Q 422 1150 422 2328 
Q 422 3509 836 4129 
Q 1250 4750 2034 4750 
z
" transform="scale(0.015625)"/>
        <path id="DejaVuSans-3a" d="M 750 794 
L 1409 794 
L 1409 0 
L 750 0 
L 750 794 
z
M 750 3309 
L 1409 3309 
L 1409 2516 
L 750 2516 
L 750 3309 
z
" transform="scale(0.015625)"/>
       </defs>
       <use xlink:href="#DejaVuSans-30"/>
       <use xlink:href="#DejaVuSans-3a" x="63.623047"/>
       <use xlink:href="#DejaVuSans-30" x="97.314453"/>
       <use xlink:href="#DejaVuSans-30" x="160.9375"/>
       <use xlink:href="#DejaVuSans-3a" x="224.560547"/>
       <use xlink:href="#DejaVuSans-30" x="258.251953"/>
       <use xlink:href="#DejaVuSans-30" x="321.875"/>
      </g>
     </g>
    </g>
    <g id="xtick_2">
     <g id="line2d_2">
      <g>
       <use xlink:href="#m3ebd8758fd" x="166.090909" y="256.32" style="stroke: #000000; stroke-width: 0.8"/>
      </g>
     </g>
     <g id="text_2">
      <!-- 0:00:30 -->
      <g transform="translate(146.815909 270.918437) scale(0.1 -0.1)">
       <defs>
        <path id="DejaVuSans-33" d="M 2597 2516 
Q 3050 2419 3304 2112 
Q 3559 1806 3559 1356 
Q 3559 666 3084 287 
Q 2609 -91 1734 -91 
Q 1441 -91 1130 -33 
Q 819 25 488 141 
L 488 750 
Q 750 597 1062 519 
Q 1375 441 1716 441 
Q 2309 441 2620 675 
Q 2931 909 2931 1356 
Q 2931 1769 2642 2001 
Q 2353 2234 1838 2234 
L 1294 2234 
L 1294 2753 
L 1863 2753 
Q 2328 2753 2575 2939 
Q 2822 3125 2822 3475 
Q 2822 3834 2567 4026 
Q 2313 4219 1838 4219 
Q 1578 4219 1281 4162 
Q 984 4106 628 3988 
L 628 4550 
Q 988 4650 1302 4700 
Q 1616 4750 1894 4750 
Q 2613 4750 3031 4423 
Q 3450 4097 3450 3541 
Q 3450 3153 3228 2886 
Q 3006 2619 2597 2516 
z
" transform="scale(0.015625)"/>
       </defs>
       <use xlink:href="#DejaVuSans-30"/>
       <use xlink:href="#DejaVuSans-3a" x="63.623047"/>
       <use xlink:href="#DejaVuSans-30" x="97.314453"/>
       <use xlink:href="#DejaVuSans-30" x="160.9375"/>
       <use xlink:href="#DejaVuSans-3a" x="224.560547"/>
       <use xlink:href="#DejaVuSans-33" x="258.251953"/>
       <use xlink:href="#DejaVuSans-30" x="321.875"/>
      </g>
     </g>
    </g>
    <g id="xtick_3">
     <g id="line2d_3">
      <g>
       <use xlink:href="#m3ebd8758fd" x="216.818182" y="256.32" style="stroke: #000000; stroke-width: 0.8"/>
      </g>
     </g>
     <g id="text_3">
      <!-- 0:01:00 -->
      <g transform="translate(197.543182 270.918437) scale(0.1 -0.1)">
       <defs>
        <path id="DejaVuSans-31" d="M 794 531 
L 1825 531 
L 1825 4091 
L 703 3866 
L 703 4441 
L 1819 4666 
L 2450 4666 
L 2450 531 
L 3481 531 
L 3481 0 
L 794 0 
L 794 531 
z
" transform="scale(0.015625)"/>
       </defs>
       <use xlink:href="#DejaVuSans-30"/>
       <use xlink:href="#DejaVuSans-3a" x="63.623047"/>
       <use xlink:href="#DejaVuSans-30" x="97.314453"/>
       <use xlink:href="#DejaVuSans-31" x="160.9375"/>
       <use xlink:href="#DejaVuSans-3a" x="224.560547"/>
       <use xlink:href="#DejaVuSans-30" x="258.251953"/>
       <use xlink:href="#DejaVuSans-30" x="321.875"/>
      </g>
     </g>
    </g>
    <g id="xtick_4">
     <g id="line2d_4">
      <g>
       <use xlink:href="#m3ebd8758fd" x="267.545455" y="256.32" style="stroke: #000000; stroke-width: 0.8"/>
      </g>
     </g>
     <g id="text_4">
      <!-- 0:01:30 -->
      <g transform="translate(248.270455 270.918437) scale(0.1 -0.1)">
       <use xlink:href="#DejaVuSans-30"/>
       <use xlink:href="#DejaVuSans-3a" x="63.623047"/>
       <use xlink:href="#DejaVuSans-30" x="97.314453"/>
       <use xlink:href="#DejaVuSans-31" x="160.9375"/>
       <use xlink:href="#DejaVuSans-3a" x="224.560547"/>
       <use xlink:href="#DejaVuSans-33" x="258.251953"/>
       <use xlink:href="#DejaVuSans-30" x="321.875"/>
      </g>
     </g>
    </g>
    <g id="xtick_5">
     <g id="line2d_5">
      <g>
       <use xlink:href="#m3ebd8758fd" x="318.272727" y="256.32" style="stroke: #000000; stroke-width: 0.8"/>
      </g>
     </g>
     <g id="text_5">
      <!-- 0:02:00 -->
      <g transform="translate(298.997727 270.918437) scale(0.1 -0.1)">
       <defs>
        <path id="DejaVuSans-32" d="M 1228 531 
L 3431 531 
L 3431 0 
L 469 0 
L 469 531 
Q 828 903 1448 1529 
Q 2069 2156 2228 2338 
Q 2531 2678 2651 2914 
Q 2772 3150 2772 3378 
Q 2772 3750 2511 3984 
Q 2250 4219 1831 4219 
Q 1534 4219 1204 4116 
Q 875 4013 500 3803 
L 500 4441 
Q 881 4594 1212 4672 
Q 1544 4750 1819 4750 
Q 2544 4750 2975 4387 
Q 3406 4025 3406 3419 
Q 3406 3131 3298 2873 
Q 3191 2616 2906 2266 
Q 2828 2175 2409 1742 
Q 1991 1309 1228 531 
z
" transform="scale(0.015625)"/>
       </defs>
       <use xlink:href="#DejaVuSans-30"/>
       <use xlink:href="#DejaVuSans-3a" x="63.623047"/>
       <use xlink:href="#DejaVuSans-30" x="97.314453"/>
       <use xlink:href="#DejaVuSans-32" x="160.9375"/>
       <use xlink:href="#DejaVuSans-3a" x="224.560547"/>
       <use xlink:href="#DejaVuSans-30" x="258.251953"/>
       <use xlink:href="#DejaVuSans-30" x="321.875"/>
      </g>
     </g>
    </g>
    <g id="xtick_6">
     <g id="line2d_6">
      <g>
       <use xlink:href="#m3ebd8758fd" x="369" y="256.32" style="stroke: #000000; stroke-width: 0.8"/>
      </g>
     </g>
     <g id="text_6">
      <!-- 0:02:30 -->
      <g transform="translate(349.725 270.918437) scale(0.1 -0.1)">
       <use xlink:href="#DejaVuSans-30"/>
       <use xlink:href="#DejaVuSans-3a" x="63.623047"/>
       <use xlink:href="#DejaVuSans-30" x="97.314453"/>
       <use xlink:href="#DejaVuSans-32" x="160.9375"/>
       <use xlink:href="#DejaVuSans-3a" x="224.560547"/>
       <use xlink:href="#DejaVuSans-33" x="258.251953"/>
       <use xlink:href="#DejaVuSans-30" x="321.875"/>
      </g>
     </g>
    </g>
    <g id="xtick_7">
     <g id="line2d_7">
      <g>
       <use xlink:href="#m3ebd8758fd" x="419.727273" y="256.32" style="stroke: #000000; stroke-width: 0.8"/>
      </g>
     </g>
     <g id="text_7">
      <!-- 0:03:00 -->
      <g transform="translate(400.452273 270.918437) scale(0.1 -0.1)">
       <use xlink:href="#DejaVuSans-30"/>
       <use xlink:href="#DejaVuSans-3a" x="63.623047"/>
       <use xlink:href="#DejaVuSans-30" x="97.314453"/>
       <use xlink:href="#DejaVuSans-33" x="160.9375"/>
       <use xlink:href="#DejaVuSans-3a" x="224.560547"/>
       <use xlink:href="#DejaVuSans-30" x="258.251953"/>
       <use xlink:href="#DejaVuSans-30" x="321.875"/>
      </g>
     </g>
    </g>
    <g id="xtick_8">
     <g id="line2d_8">
      <g>
       <use xlink:href="#m3ebd8758fd" x="470.454545" y="256.32" style="stroke: #000000; stroke-width: 0.8"/>
      </g>
     </g>
     <g id="text_8">
      <!-- 0:03:30 -->
      <g transform="translate(451.179545 270.918437) scale(0.1 -0.1)">
       <use xlink:href="#DejaVuSans-30"/>
       <use xlink:href="#DejaVuSans-3a" x="63.623047"/>
       <use xlink:href="#DejaVuSans-30" x="97.314453"/>
       <use xlink:href="#DejaVuSans-33" x="160.9375"/>
       <use xlink:href="#DejaVuSans-3a" x="224.560547"/>
       <use xlink:href="#DejaVuSans-33" x="258.251953"/>
       <use xlink:href="#DejaVuSans-30" x="321.875"/>
      </g>
     </g>
    </g>
    <g id="xtick_9">
     <g id="line2d_9">
      <g>
       <use xlink:href="#m3ebd8758fd" x="521.181818" y="256.32" style="stroke: #000000; stroke-width: 0.8"/>
      </g>
     </g>
     <g id="text_9">
      <!-- 0:04:00 -->
      <g transform="translate(501.906818 270.918437) scale(0.1 -0.1)">
       <defs>
        <path id="DejaVuSans-34" d="M 2419 4116 
L 825 1625 
L 2419 1625 
L 2419 4116 
z
M 2253 4666 
L 3047 4666 
L 3047 1625 
L 3713 1625 
L 3713 1100 
L 3047 1100 
L 3047 0 
L 2419 0 
L 2419 1100 
L 313 1100 
L 313 1709 
L 2253 4666 
z
" transform="scale(0.015625)"/>
       </defs>
       <use xlink:href="#DejaVuSans-30"/>
       <use xlink:href="#DejaVuSans-3a" x="63.623047"/>
       <use xlink:href="#DejaVuSans-30" x="97.314453"/>
       <use xlink:href="#DejaVuSans-34" x="160.9375"/>
       <use xlink:href="#DejaVuSans-3a" x="224.560547"/>
       <use xlink:href="#DejaVuSans-30" x="258.251953"/>
       <use xlink:href="#DejaVuSans-30" x="321.875"/>
      </g>
     </g>
    </g>
    <g id="xtick_10">
     <g id="line2d_10">
      <g>
       <use xlink:href="#m3ebd8758fd" x="571.909091" y="256.32" style="stroke: #000000; stroke-width: 0.8"/>
      </g>
     </g>
     <g id="text_10">
      <!-- 0:04:30 -->
      <g transform="translate(552.634091 270.918437) scale(0.1 -0.1)">
       <use xlink:href="#DejaVuSans-30"/>
       <use xlink:href="#DejaVuSans-3a" x="63.623047"/>
       <use xlink:href="#DejaVuSans-30" x="97.314453"/>
       <use xlink:href="#DejaVuSans-34" x="160.9375"/>
       <use xlink:href="#DejaVuSans-3a" x="224.560547"/>
       <use xlink:href="#DejaVuSans-33" x="258.251953"/>
       <use xlink:href="#DejaVuSans-30" x="321.875"/>
      </g>
     </g>
    </g>
    <g id="xtick_11">
     <g id="line2d_11">
      <g>
       <use xlink:href="#m3ebd8758fd" x="622.636364" y="256.32" style="stroke: #000000; stroke-width: 0.8"/>
      </g>
     </g>
     <g id="text_11">
      <!-- 0:05:00 -->
      <g transform="translate(603.361364 270.918437) scale(0.1 -0.1)">
       <defs>
        <path id="DejaVuSans-35" d="M 691 4666 
L 3169 4666 
L 3169 4134 
L 1269 4134 
L 1269 2991 
Q 1406 3038 1543 3061 
Q 1681 3084 1819 3084 
Q 2600 3084 3056 2656 
Q 3513 2228 3513 1497 
Q 3513 744 3044 326 
Q 2575 -91 1722 -91 
Q 1428 -91 1123 -41 
Q 819 9 494 109 
L 494 744 
Q 775 591 1075 516 
Q 1375 441 1709 441 
Q 2250 441 2565 725 
Q 2881 1009 2881 1497 
Q 2881 1984 2565 2268 
Q 2250 2553 1709 2553 
Q 1456 2553 1204 2497 
Q 953 2441 691 2322 
L 691 4666 
z
" transform="scale(0.015625)"/>
       </defs>
       <use xlink:href="#DejaVuSans-30"/>
       <use xlink:href="#DejaVuSans-3a" x="63.623047"/>
       <use xlink:href="#DejaVuSans-30" x="97.314453"/>
       <use xlink:href="#DejaVuSans-35" x="160.9375"/>
       <use xlink:href="#DejaVuSans-3a" x="224.560547"/>
       <use xlink:href="#DejaVuSans-30" x="258.251953"/>
       <use xlink:href="#DejaVuSans-30" x="321.875"/>
      </g>
     </g>
    </g>
    <g id="text_12">
     <!-- Time -->
     <g transform="translate(356.766406 284.596563) scale(0.1 -0.1)">
      <defs>
       <path id="DejaVuSans-54" d="M -19 4666 
L 3928 4666 
L 3928 4134 
L 2272 4134 
L 2272 0 
L 1638 0 
L 1638 4134 
L -19 4134 
L -19 4666 
z
" transform="scale(0.015625)"/>
       <path id="DejaVuSans-69" d="M 603 3500 
L 1178 3500 
L 1178 0 
L 603 0 
L 603 3500 
z
M 603 4863 
L 1178 4863 
L 1178 4134 
L 603 4134 
L 603 4863 
z
" transform="scale(0.015625)"/>
       <path id="DejaVuSans-6d" d="M 3328 2828 
Q 3544 3216 3844 3400 
Q 4144 3584 4550 3584 
Q 5097 3584 5394 3201 
Q 5691 2819 5691 2113 
L 5691 0 
L 5113 0 
L 5113 2094 
Q 5113 2597 4934 2840 
Q 4756 3084 4391 3084 
Q 3944 3084 3684 2787 
Q 3425 2491 3425 1978 
L 3425 0 
L 2847 0 
L 2847 2094 
Q 2847 2600 2669 2842 
Q 2491 3084 2119 3084 
Q 1678 3084 1418 2786 
Q 1159 2488 1159 1978 
L 1159 0 
L 581 0 
L 581 3500 
L 1159 3500 
L 1159 2956 
Q 1356 3278 1631 3431 
Q 1906 3584 2284 3584 
Q 2666 3584 2933 3390 
Q 3200 3197 3328 2828 
z
" transform="scale(0.015625)"/>
       <path id="DejaVuSans-65" d="M 3597 1894 
L 3597 1613 
L 953 1613 
Q 991 1019 1311 708 
Q 1631 397 2203 397 
Q 2534 397 2845 478 
Q 3156 559 3463 722 
L 3463 178 
Q 3153 47 2828 -22 
Q 2503 -91 2169 -91 
Q 1331 -91 842 396 
Q 353 884 353 1716 
Q 353 2575 817 3079 
Q 1281 3584 2069 3584 
Q 2775 3584 3186 3129 
Q 3597 2675 3597 1894 
z
M 3022 2063 
Q 3016 2534 2758 2815 
Q 2500 3097 2075 3097 
Q 1594 3097 1305 2825 
Q 1016 2553 972 2059 
L 3022 2063 
z
" transform="scale(0.015625)"/>
      </defs>
      <use xlink:href="#DejaVuSans-54"/>
      <use xlink:href="#DejaVuSans-69" x="57.958984"/>
      <use xlink:href="#DejaVuSans-6d" x="85.742188"/>
      <use xlink:href="#DejaVuSans-65" x="183.154297"/>
     </g>
    </g>
   </g>
   <g id="matplotlib.axis_2">
    <g id="ytick_1">
     <g id="line2d_12">
      <path d="M 90 246.24 
L 648 246.24 
" clip-path="url(#p30d072c275)" style="fill: none; stroke: #b0b0b0; stroke-width: 0.8; stroke-linecap: square"/>
     </g>
     <g id="line2d_13">
      <defs>
       <path id="mb0ae697059" d="M 0 0 
L -3.5 0 
" style="stroke: #000000; stroke-width: 0.8"/>
      </defs>
      <g>
       <use xlink:href="#mb0ae697059" x="90" y="246.24" style="stroke: #000000; stroke-width: 0.8"/>
      </g>
     </g>
     <g id="text_13">
      <!-- 0 -->
      <g transform="translate(76.6375 250.039219) scale(0.1 -0.1)">
       <use xlink:href="#DejaVuSans-30"/>
      </g>
     </g>
    </g>
    <g id="ytick_2">
     <g id="line2d_14">
      <path d="M 90 212.740499 
L 648 212.740499 
" clip-path="url(#p30d072c275)" style="fill: none; stroke: #b0b0b0; stroke-width: 0.8; stroke-linecap: square"/>
     </g>
     <g id="line2d_15">
      <g>
       <use xlink:href="#mb0ae697059" x="90" y="212.740499" style="stroke: #000000; stroke-width: 0.8"/>
      </g>
     </g>
     <g id="text_14">
      <!-- 500 -->
      <g transform="translate(63.9125 216.539717) scale(0.1 -0.1)">
       <use xlink:href="#DejaVuSans-35"/>
       <use xlink:href="#DejaVuSans-30" x="63.623047"/>
       <use xlink:href="#DejaVuSans-30" x="127.246094"/>
      </g>
     </g>
    </g>
    <g id="ytick_3">
     <g id="line2d_16">
      <path d="M 90 179.240997 
L 648 179.240997 
" clip-path="url(#p30d072c275)" style="fill: none; stroke: #b0b0b0; stroke-width: 0.8; stroke-linecap: square"/>
     </g>
     <g id="line2d_17">
      <g>
       <use xlink:href="#mb0ae697059" x="90" y="179.240997" style="stroke: #000000; stroke-width: 0.8"/>
      </g>
     </g>
     <g id="text_15">
      <!-- 1,000 -->
      <g transform="translate(54.371875 183.040216) scale(0.1 -0.1)">
       <defs>
        <path id="DejaVuSans-2c" d="M 750 794 
L 1409 794 
L 1409 256 
L 897 -744 
L 494 -744 
L 750 256 
L 750 794 
z
" transform="scale(0.015625)"/>
       </defs>
       <use xlink:href="#DejaVuSans-31"/>
       <use xlink:href="#DejaVuSans-2c" x="63.623047"/>
       <use xlink:href="#DejaVuSans-30" x="95.410156"/>
       <use xlink:href="#DejaVuSans-30" x="159.033203"/>
       <use xlink:href="#DejaVuSans-30" x="222.65625"/>
      </g>
     </g>
    </g>
    <g id="ytick_4">
     <g id="line2d_18">
      <path d="M 90 145.741496 
L 648 145.741496 
" clip-path="url(#p30d072c275)" style="fill: none; stroke: #b0b0b0; stroke-width: 0.8; stroke-linecap: square"/>
     </g>
     <g id="line2d_19">
      <g>
       <use xlink:href="#mb0ae697059" x="90" y="145.741496" style="stroke: #000000; stroke-width: 0.8"/>
      </g>
     </g>
     <g id="text_16">
      <!-- 1,500 -->
      <g transform="translate(54.371875 149.540714) scale(0.1 -0.1)">
       <use xlink:href="#DejaVuSans-31"/>
       <use xlink:href="#DejaVuSans-2c" x="63.623047"/>
       <use xlink:href="#DejaVuSans-35" x="95.410156"/>
       <use xlink:href="#DejaVuSans-30" x="159.033203"/>
       <use xlink:href="#DejaVuSans-30" x="222.65625"/>
      </g>
     </g>
    </g>
    <g id="ytick_5">
     <g id="line2d_20">
      <path d="M 90 112.241994 
L 648 112.241994 
" clip-path="url(#p30d072c275)" style="fill: none; stroke: #b0b0b0; stroke-width: 0.8; stroke-linecap: square"/>
     </g>
     <g id="line2d_21">
      <g>
       <use xlink:href="#mb0ae697059" x="90" y="112.241994" style="stroke: #000000; stroke-width: 0.8"/>
      </g>
     </g>
     <g id="text_17">
      <!-- 2,000 -->
      <g transform="translate(54.371875 116.041213) scale(0.1 -0.1)">
       <use xlink:href="#DejaVuSans-32"/>
       <use xlink:href="#DejaVuSans-2c" x="63.623047"/>
       <use xlink:href="#DejaVuSans-30" x="95.410156"/>
       <use xlink:href="#DejaVuSans-30" x="159.033203"/>
       <use xlink:href="#DejaVuSans-30" x="222.65625"/>
      </g>
     </g>
    </g>
    <g id="ytick_6">
     <g id="line2d_22">
      <path d="M 90 78.742493 
L 648 78.742493 
" clip-path="url(#p30d072c275)" style="fill: none; stroke: #b0b0b0; stroke-width: 0.8; stroke-linecap: square"/>
     </g>
     <g id="line2d_23">
      <g>
       <use xlink:href="#mb0ae697059" x="90" y="78.742493" style="stroke: #000000; stroke-width: 0.8"/>
      </g>
     </g>
     <g id="text_18">
      <!-- 2,500 -->
      <g transform="translate(54.371875 82.541711) scale(0.1 -0.1)">
       <use xlink:href="#DejaVuSans-32"/>
       <use xlink:href="#DejaVuSans-2c" x="63.623047"/>
       <use xlink:href="#DejaVuSans-35" x="95.410156"/>
       <use xlink:href="#DejaVuSans-30" x="159.033203"/>
       <use xlink:href="#DejaVuSans-30" x="222.65625"/>
      </g>
     </g>
    </g>
    <g id="ytick_7">
     <g id="line2d_24">
      <path d="M 90 45.242991 
L 648 45.242991 
" clip-path="url(#p30d072c275)" style="fill: none; stroke: #b0b0b0; stroke-width: 0.8; stroke-linecap: square"/>
     </g>
     <g id="line2d_25">
      <g>
       <use xlink:href="#mb0ae697059" x="90" y="45.242991" style="stroke: #000000; stroke-width: 0.8"/>
      </g>
     </g>
     <g id="text_19">
      <!-- 3,000 -->
      <g transform="translate(54.371875 49.04221) scale(0.1 -0.1)">
       <use xlink:href="#DejaVuSans-33"/>
       <use xlink:href="#DejaVuSans-2c" x="63.623047"/>
       <use xlink:href="#DejaVuSans-30" x="95.410156"/>
       <use xlink:href="#DejaVuSans-30" x="159.033203"/>
       <use xlink:href="#DejaVuSans-30" x="222.65625"/>
      </g>
     </g>
    </g>
    <g id="text_20">
     <!-- Bitrate (kbit/s) -->
     <g transform="translate(48.292187 181.574375) rotate(-90) scale(0.1 -0.1)">
      <defs>
       <path id="DejaVuSans-42" d="M 1259 2228 
L 1259 519 
L 2272 519 
Q 2781 519 3026 730 
Q 3272 941 3272 1375 
Q 3272 1813 3026 2020 
Q 2781 2228 2272 2228 
L 1259 2228 
z
M 1259 4147 
L 1259 2741 
L 2194 2741 
Q 2656 2741 2882 2914 
Q 3109 3088 3109 3444 
Q 3109 3797 2882 3972 
Q 2656 4147 2194 4147 
L 1259 4147 
z
M 628 4666 
L 2241 4666 
Q 2963 4666 3353 4366 
Q 3744 4066 3744 3513 
Q 3744 3084 3544 2831 
Q 3344 2578 2956 2516 
Q 3422 2416 3680 2098 
Q 3938 1781 3938 1306 
Q 3938 681 3513 340 
Q 3088 0 2303 0 
L 628 0 
L 628 4666 
z
" transform="scale(0.015625)"/>
       <path id="DejaVuSans-74" d="M 1172 4494 
L 1172 3500 
L 2356 3500 
L 2356 3053 
L 1172 3053 
L 1172 1153 
Q 1172 725 1289 603 
Q 1406 481 1766 481 
L 2356 481 
L 2356 0 
L 1766 0 
Q 1100 0 847 248 
Q 594 497 594 1153 
L 594 3053 
L 172 3053 
L 172 3500 
L 594 3500 
L 594 4494 
L 1172 4494 
z
" transform="scale(0.015625)"/>
       <path id="DejaVuSans-72" d="M 2631 2963 
Q 2534 3019 2420 3045 
Q 2306 3072 2169 3072 
Q 1681 3072 1420 2755 
Q 1159 2438 1159 1844 
L 1159 0 
L 581 0 
L 581 3500 
L 1159 3500 
L 1159 2956 
Q 1341 3275 1631 3429 
Q 1922 3584 2338 3584 
Q 2397 3584 2469 3576 
Q 2541 3569 2628 3553 
L 2631 2963 
z
" transform="scale(0.015625)"/>
       <path id="DejaVuSans-61" d="M 2194 1759 
Q 1497 1759 1228 1600 
Q 959 1441 959 1056 
Q 959 750 1161 570 
Q 1363 391 1709 391 
Q 2188 391 2477 730 
Q 2766 1069 2766 1631 
L 2766 1759 
L 2194 1759 
z
M 3341 1997 
L 3341 0 
L 2766 0 
L 2766 531 
Q 2569 213 2275 61 
Q 1981 -91 1556 -91 
Q 1019 -91 701 211 
Q 384 513 384 1019 
Q 384 1609 779 1909 
Q 1175 2209 1959 2209 
L 2766 2209 
L 2766 2266 
Q 2766 2663 2505 2880 
Q 2244 3097 1772 3097 
Q 1472 3097 1187 3025 
Q 903 2953 641 2809 
L 641 3341 
Q 956 3463 1253 3523 
Q 1550 3584 1831 3584 
Q 2591 3584 2966 3190 
Q 3341 2797 3341 1997 
z
" transform="scale(0.015625)"/>
       <path id="DejaVuSans-20" transform="scale(0.015625)"/>
       <path id="DejaVuSans-28" d="M 1984 4856 
Q 1566 4138 1362 3434 
Q 1159 2731 1159 2009 
Q 1159 1288 1364 580 
Q 1569 -128 1984 -844 
L 1484 -844 
Q 1016 -109 783 600 
Q 550 1309 550 2009 
Q 550 2706 781 3412 
Q 1013 4119 1484 4856 
L 1984 4856 
z
" transform="scale(0.015625)"/>
       <path id="DejaVuSans-6b" d="M 581 4863 
L 1159 4863 
L 1159 1991 
L 2875 3500 
L 3609 3500 
L 1753 1863 
L 3688 0 
L 2938 0 
L 1159 1709 
L 1159 0 
L 581 0 
L 581 4863 
z
" transform="scale(0.015625)"/>
       <path id="DejaVuSans-62" d="M 3116 1747 
Q 3116 2381 2855 2742 
Q 2594 3103 2138 3103 
Q 1681 3103 1420 2742 
Q 1159 2381 1159 1747 
Q 1159 1113 1420 752 
Q 1681 391 2138 391 
Q 2594 391 2855 752 
Q 3116 1113 3116 1747 
z
M 1159 2969 
Q 1341 3281 1617 3432 
Q 1894 3584 2278 3584 
Q 2916 3584 3314 3078 
Q 3713 2572 3713 1747 
Q 3713 922 3314 415 
Q 2916 -91 2278 -91 
Q 1894 -91 1617 61 
Q 1341 213 1159 525 
L 1159 0 
L 581 0 
L 581 4863 
L 1159 4863 
L 1159 2969 
z
" transform="scale(0.015625)"/>
       <path id="DejaVuSans-2f" d="M 1625 4666 
L 2156 4666 
L 531 -594 
L 0 -594 
L 1625 4666 
z
" transform="scale(0.015625)"/>
       <path id="DejaVuSans-73" d="M 2834 3397 
L 2834 2853 
Q 2591 2978 2328 3040 
Q 2066 3103 1784 3103 
Q 1356 3103 1142 2972 
Q 928 2841 928 2578 
Q 928 2378 1081 2264 
Q 1234 2150 1697 2047 
L 1894 2003 
Q 2506 1872 2764 1633 
Q 3022 1394 3022 966 
Q 3022 478 2636 193 
Q 2250 -91 1575 -91 
Q 1294 -91 989 -36 
Q 684 19 347 128 
L 347 722 
Q 666 556 975 473 
Q 1284 391 1588 391 
Q 1994 391 2212 530 
Q 2431 669 2431 922 
Q 2431 1156 2273 1281 
Q 2116 1406 1581 1522 
L 1381 1569 
Q 847 1681 609 1914 
Q 372 2147 372 2553 
Q 372 3047 722 3315 
Q 1072 3584 1716 3584 
Q 2034 3584 2315 3537 
Q 2597 3491 2834 3397 
z
" transform="scale(0.015625)"/>
       <path id="DejaVuSans-29" d="M 513 4856 
L 1013 4856 
Q 1481 4119 1714 3412 
Q 1947 2706 1947 2009 
Q 1947 1309 1714 600 
Q 1481 -109 1013 -844 
L 513 -844 
Q 928 -128 1133 580 
Q 1338 1288 1338 2009 
Q 1338 2731 1133 3434 
Q 928 4138 513 4856 
z
" transform="scale(0.015625)"/>
      </defs>
      <use xlink:href="#DejaVuSans-42"/>
      <use xlink:href="#DejaVuSans-69" x="68.603516"/>
      <use xlink:href="#DejaVuSans-74" x="96.386719"/>
      <use xlink:href="#DejaVuSans-72" x="135.595703"/>
      <use xlink:href="#DejaVuSans-61" x="176.708984"/>
      <use xlink:href="#DejaVuSans-74" x="237.988281"/>
      <use xlink:href="#DejaVuSans-65" x="277.197266"/>
      <use xlink:href="#DejaVuSans-20" x="338.720703"/>
      <use xlink:href="#DejaVuSans-28" x="370.507812"/>
      <use xlink:href="#DejaVuSans-6b" x="409.521484"/>
      <use xlink:href="#DejaVuSans-62" x="467.431641"/>
      <use xlink:href="#DejaVuSans-69" x="530.908203"/>
      <use xlink:href="#DejaVuSans-74" x="558.691406"/>
      <use xlink:href="#DejaVuSans-2f" x="597.900391"/>
      <use xlink:href="#DejaVuSans-73" x="631.591797"/>
      <use xlink:href="#DejaVuSans-29" x="683.691406"/>
     </g>
    </g>
   </g>
   <g id="PolyCollection_1">
    <defs>
     <path id="ma62aacd6ca" d="M 115.363636 -43.166979 
L 115.363636 -41.76 
L 117.054545 -41.76 
L 118.745455 -41.76 
L 120.436364 -41.76 
L 122.127273 -41.76 
L 123.818182 -41.76 
L 125.509091 -41.76 
L 127.2 -41.76 
L 128.890909 -41.76 
L 130.581818 -41.76 
L 132.272727 -41.76 
L 133.963636 -41.76 
L 135.654545 -41.76 
L 137.345455 -41.76 
L 139.036364 -41.76 
L 140.727273 -41.76 
L 142.418182 -41.76 
L 144.109091 -41.76 
L 145.8 -41.76 
L 147.490909 -41.76 
L 149.181818 -41.76 
L 150.872727 -41.76 
L 152.563636 -41.76 
L 154.254545 -41.76 
L 155.945455 -41.76 
L 157.636364 -41.76 
L 159.327273 -41.76 
L 161.018182 -41.76 
L 162.709091 -41.76 
L 164.4 -41.76 
L 166.090909 -41.76 
L 167.781818 -41.76 
L 169.472727 -41.76 
L 171.163636 -41.76 
L 172.854545 -41.76 
L 174.545455 -41.76 
L 176.236364 -41.76 
L 177.927273 -41.76 
L 179.618182 -41.76 
L 181.309091 -41.76 
L 183 -41.76 
L 184.690909 -41.76 
L 186.381818 -41.76 
L 188.072727 -41.76 
L 189.763636 -41.76 
L 191.454545 -41.76 
L 193.145455 -41.76 
L 194.836364 -41.76 
L 196.527273 -41.76 
L 198.218182 -41.76 
L 199.909091 -41.76 
L 201.6 -41.76 
L 203.290909 -41.76 
L 204.981818 -41.76 
L 206.672727 -41.76 
L 208.363636 -41.76 
L 210.054545 -41.76 
L 211.745455 -41.76 
L 213.436364 -41.76 
L 215.127273 -41.76 
L 216.818182 -41.76 
L 218.509091 -41.76 
L 220.2 -41.76 
L 221.890909 -41.76 
L 223.581818 -41.76 
L 225.272727 -41.76 
L 226.963636 -41.76 
L 228.654545 -41.76 
L 230.345455 -41.76 
L 232.036364 -41.76 
L 233.727273 -41.76 
L 235.418182 -41.76 
L 237.109091 -41.76 
L 238.8 -41.76 
L 240.490909 -41.76 
L 242.181818 -41.76 
L 243.872727 -41.76 
L 245.563636 -41.76 
L 247.254545 -41.76 
L 248.945455 -41.76 
L 250.636364 -41.76 
L 252.327273 -41.76 
L 254.018182 -41.76 
L 255.709091 -41.76 
L 257.4 -41.76 
L 259.090909 -41.76 
L 260.781818 -41.76 
L 262.472727 -41.76 
L 264.163636 -41.76 
L 265.854545 -41.76 
L 267.545455 -41.76 
L 269.236364 -41.76 
L 270.927273 -41.76 
L 272.618182 -41.76 
L 274.309091 -41.76 
L 276 -41.76 
L 277.690909 -41.76 
L 279.381818 -41.76 
L 281.072727 -41.76 
L 282.763636 -41.76 
L 284.454545 -41.76 
L 286.145455 -41.76 
L 287.836364 -41.76 
L 289.527273 -41.76 
L 291.218182 -41.76 
L 292.909091 -41.76 
L 294.6 -41.76 
L 296.290909 -41.76 
L 297.981818 -41.76 
L 299.672727 -41.76 
L 301.363636 -41.76 
L 303.054545 -41.76 
L 304.745455 -41.76 
L 306.436364 -41.76 
L 308.127273 -41.76 
L 309.818182 -41.76 
L 311.509091 -41.76 
L 313.2 -41.76 
L 314.890909 -41.76 
L 316.581818 -41.76 
L 318.272727 -41.76 
L 319.963636 -41.76 
L 321.654545 -41.76 
L 323.345455 -41.76 
L 325.036364 -41.76 
L 326.727273 -41.76 
L 328.418182 -41.76 
L 330.109091 -41.76 
L 331.8 -41.76 
L 333.490909 -41.76 
L 335.181818 -41.76 
L 336.872727 -41.76 
L 338.563636 -41.76 
L 340.254545 -41.76 
L 341.945455 -41.76 
L 343.636364 -41.76 
L 345.327273 -41.76 
L 347.018182 -41.76 
L 348.709091 -41.76 
L 350.4 -41.76 
L 352.090909 -41.76 
L 353.781818 -41.76 
L 355.472727 -41.76 
L 357.163636 -41.76 
L 358.854545 -41.76 
L 360.545455 -41.76 
L 362.236364 -41.76 
L 363.927273 -41.76 
L 365.618182 -41.76 
L 367.309091 -41.76 
L 369 -41.76 
L 370.690909 -41.76 
L 372.381818 -41.76 
L 374.072727 -41.76 
L 375.763636 -41.76 
L 377.454545 -41.76 
L 379.145455 -41.76 
L 380.836364 -41.76 
L 382.527273 -41.76 
L 384.218182 -41.76 
L 385.909091 -41.76 
L 387.6 -41.76 
L 389.290909 -41.76 
L 390.981818 -41.76 
L 392.672727 -41.76 
L 394.363636 -41.76 
L 396.054545 -41.76 
L 397.745455 -41.76 
L 399.436364 -41.76 
L 401.127273 -41.76 
L 402.818182 -41.76 
L 404.509091 -41.76 
L 406.2 -41.76 
L 407.890909 -41.76 
L 409.581818 -41.76 
L 411.272727 -41.76 
L 412.963636 -41.76 
L 414.654545 -41.76 
L 416.345455 -41.76 
L 418.036364 -41.76 
L 419.727273 -41.76 
L 421.418182 -41.76 
L 423.109091 -41.76 
L 424.8 -41.76 
L 426.490909 -41.76 
L 428.181818 -41.76 
L 429.872727 -41.76 
L 431.563636 -41.76 
L 433.254545 -41.76 
L 434.945455 -41.76 
L 436.636364 -41.76 
L 438.327273 -41.76 
L 440.018182 -41.76 
L 441.709091 -41.76 
L 443.4 -41.76 
L 445.090909 -41.76 
L 446.781818 -41.76 
L 448.472727 -41.76 
L 450.163636 -41.76 
L 451.854545 -41.76 
L 453.545455 -41.76 
L 455.236364 -41.76 
L 456.927273 -41.76 
L 458.618182 -41.76 
L 460.309091 -41.76 
L 462 -41.76 
L 463.690909 -41.76 
L 465.381818 -41.76 
L 467.072727 -41.76 
L 468.763636 -41.76 
L 470.454545 -41.76 
L 472.145455 -41.76 
L 473.836364 -41.76 
L 475.527273 -41.76 
L 477.218182 -41.76 
L 478.909091 -41.76 
L 480.6 -41.76 
L 482.290909 -41.76 
L 483.981818 -41.76 
L 485.672727 -41.76 
L 487.363636 -41.76 
L 489.054545 -41.76 
L 490.745455 -41.76 
L 492.436364 -41.76 
L 494.127273 -41.76 
L 495.818182 -41.76 
L 497.509091 -41.76 
L 499.2 -41.76 
L 500.890909 -41.76 
L 502.581818 -41.76 
L 504.272727 -41.76 
L 505.963636 -41.76 
L 507.654545 -41.76 
L 509.345455 -41.76 
L 511.036364 -41.76 
L 512.727273 -41.76 
L 514.418182 -41.76 
L 516.109091 -41.76 
L 517.8 -41.76 
L 519.490909 -41.76 
L 521.181818 -41.76 
L 522.872727 -41.76 
L 524.563636 -41.76 
L 526.254545 -41.76 
L 527.945455 -41.76 
L 529.636364 -41.76 
L 531.327273 -41.76 
L 533.018182 -41.76 
L 534.709091 -41.76 
L 536.4 -41.76 
L 538.090909 -41.76 
L 539.781818 -41.76 
L 541.472727 -41.76 
L 543.163636 -41.76 
L 544.854545 -41.76 
L 546.545455 -41.76 
L 548.236364 -41.76 
L 549.927273 -41.76 
L 551.618182 -41.76 
L 553.309091 -41.76 
L 555 -41.76 
L 556.690909 -41.76 
L 558.381818 -41.76 
L 560.072727 -41.76 
L 561.763636 -41.76 
L 563.454545 -41.76 
L 565.145455 -41.76 
L 566.836364 -41.76 
L 568.527273 -41.76 
L 570.218182 -41.76 
L 571.909091 -41.76 
L 573.6 -41.76 
L 575.290909 -41.76 
L 576.981818 -41.76 
L 578.672727 -41.76 
L 580.363636 -41.76 
L 582.054545 -41.76 
L 583.745455 -41.76 
L 585.436364 -41.76 
L 587.127273 -41.76 
L 588.818182 -41.76 
L 590.509091 -41.76 
L 592.2 -41.76 
L 593.890909 -41.76 
L 595.581818 -41.76 
L 597.272727 -41.76 
L 598.963636 -41.76 
L 600.654545 -41.76 
L 602.345455 -41.76 
L 604.036364 -41.76 
L 605.727273 -41.76 
L 607.418182 -41.76 
L 609.109091 -41.76 
L 610.8 -41.76 
L 612.490909 -41.76 
L 614.181818 -41.76 
L 615.872727 -41.76 
L 617.563636 -41.76 
L 619.254545 -41.76 
L 620.945455 -41.76 
L 622.636364 -41.76 
L 622.636364 -41.76 
L 622.636364 -41.76 
L 620.945455 -65.209651 
L 619.254545 -41.76 
L 617.563636 -41.76 
L 615.872727 -67.95661 
L 614.181818 -41.76 
L 612.490909 -41.76 
L 610.8 -116.061894 
L 609.109091 -41.76 
L 607.418182 -41.76 
L 605.727273 -41.76 
L 604.036364 -127.451725 
L 602.345455 -41.76 
L 600.654545 -41.76 
L 598.963636 -41.76 
L 597.272727 -71.775553 
L 595.581818 -92.947238 
L 593.890909 -41.76 
L 592.2 -101.791107 
L 590.509091 -41.76 
L 588.818182 -61.122712 
L 587.127273 -41.76 
L 585.436364 -111.304965 
L 583.745455 -41.76 
L 582.054545 -41.76 
L 580.363636 -41.76 
L 578.672727 -110.031984 
L 576.981818 -41.76 
L 575.290909 -41.76 
L 573.6 -41.76 
L 571.909091 -69.631585 
L 570.218182 -41.76 
L 568.527273 -77.269472 
L 566.836364 -79.547438 
L 565.145455 -41.76 
L 563.454545 -60.184726 
L 561.763636 -41.76 
L 560.072727 -147.752423 
L 558.381818 -41.76 
L 556.690909 -91.205264 
L 555 -41.76 
L 553.309091 -55.963789 
L 551.618182 -103.60008 
L 549.927273 -41.76 
L 548.236364 -54.757807 
L 546.545455 -55.89679 
L 544.854545 -41.76 
L 543.163636 -41.76 
L 541.472727 -68.358604 
L 539.781818 -41.76 
L 538.090909 -41.76 
L 536.4 -41.76 
L 534.709091 -41.76 
L 533.018182 -122.962792 
L 531.327273 -156.395294 
L 529.636364 -62.261695 
L 527.945455 -41.76 
L 526.254545 -41.76 
L 524.563636 -41.76 
L 522.872727 -62.998684 
L 521.181818 -41.76 
L 519.490909 -41.76 
L 517.8 -41.76 
L 516.109091 -41.76 
L 514.418182 -71.105563 
L 512.727273 -41.76 
L 511.036364 -127.451725 
L 509.345455 -41.76 
L 507.654545 -41.76 
L 505.963636 -41.76 
L 504.272727 -70.435573 
L 502.581818 -41.76 
L 500.890909 -162.425204 
L 499.2 -41.76 
L 497.509091 -41.76 
L 495.818182 -84.840359 
L 494.127273 -53.283829 
L 492.436364 -41.76 
L 490.745455 -65.075653 
L 489.054545 -41.76 
L 487.363636 -41.76 
L 485.672727 -41.76 
L 483.981818 -68.291605 
L 482.290909 -41.76 
L 480.6 -69.698584 
L 478.909091 -41.76 
L 477.218182 -41.76 
L 475.527273 -67.755613 
L 473.836364 -41.76 
L 472.145455 -60.050728 
L 470.454545 -71.172562 
L 468.763636 -41.76 
L 467.072727 -87.654317 
L 465.381818 -41.76 
L 463.690909 -41.76 
L 462 -41.76 
L 460.309091 -69.229591 
L 458.618182 -41.76 
L 456.927273 -41.76 
L 455.236364 -59.112742 
L 453.545455 -61.792702 
L 451.854545 -55.092802 
L 450.163636 -41.76 
L 448.472727 -41.76 
L 446.781818 -57.303769 
L 445.090909 -41.76 
L 443.4 -41.76 
L 441.709091 -84.974357 
L 440.018182 -41.76 
L 438.327273 -41.76 
L 436.636364 -49.330887 
L 434.945455 -74.65651 
L 433.254545 -41.76 
L 431.563636 -41.76 
L 429.872727 -41.76 
L 428.181818 -41.76 
L 426.490909 -82.629392 
L 424.8 -41.76 
L 423.109091 -76.532483 
L 421.418182 -41.76 
L 419.727273 -85.912343 
L 418.036364 -41.76 
L 416.345455 -53.350828 
L 414.654545 -41.76 
L 412.963636 -41.76 
L 411.272727 -41.76 
L 409.581818 -41.76 
L 407.890909 -54.757807 
L 406.2 -89.46329 
L 404.509091 -41.76 
L 402.818182 -57.839761 
L 401.127273 -41.76 
L 399.436364 -41.76 
L 397.745455 -88.860299 
L 396.054545 -56.298784 
L 394.363636 -90.602273 
L 392.672727 -89.932283 
L 390.981818 -41.76 
L 389.290909 -41.76 
L 387.6 -41.76 
L 385.909091 -97.302173 
L 384.218182 -41.76 
L 382.527273 -41.76 
L 380.836364 -79.614437 
L 379.145455 -41.76 
L 377.454545 -41.76 
L 375.763636 -41.76 
L 374.072727 -84.907358 
L 372.381818 -41.76 
L 370.690909 -41.76 
L 369 -175.356012 
L 367.309091 -41.76 
L 365.618182 -41.76 
L 363.927273 -69.564586 
L 362.236364 -41.76 
L 360.545455 -41.76 
L 358.854545 -41.76 
L 357.163636 -79.949432 
L 355.472727 -41.76 
L 353.781818 -41.76 
L 352.090909 -41.76 
L 350.4 -79.011446 
L 348.709091 -41.76 
L 347.018182 -41.76 
L 345.327273 -41.76 
L 343.636364 -75.929492 
L 341.945455 -41.76 
L 340.254545 -41.76 
L 338.563636 -41.76 
L 336.872727 -82.361396 
L 335.181818 -41.76 
L 333.490909 -41.76 
L 331.8 -41.76 
L 330.109091 -78.006461 
L 328.418182 -41.76 
L 326.727273 -74.053519 
L 325.036364 -41.76 
L 323.345455 -41.76 
L 321.654545 -94.756211 
L 319.963636 -97.235174 
L 318.272727 -41.76 
L 316.581818 -41.76 
L 314.890909 -41.76 
L 313.2 -112.912941 
L 311.509091 -51.273858 
L 309.818182 -41.76 
L 308.127273 -41.76 
L 306.436364 -41.76 
L 304.745455 -54.690808 
L 303.054545 -41.76 
L 301.363636 -41.76 
L 299.672727 -41.76 
L 297.981818 -54.891805 
L 296.290909 -41.76 
L 294.6 -41.76 
L 292.909091 -41.76 
L 291.218182 -125.77675 
L 289.527273 -41.76 
L 287.836364 -41.76 
L 286.145455 -41.76 
L 284.454545 -41.76 
L 282.763636 -69.631585 
L 281.072727 -41.76 
L 279.381818 -41.76 
L 277.690909 -41.76 
L 276 -75.862493 
L 274.309091 -97.168175 
L 272.618182 -41.76 
L 270.927273 -71.574556 
L 269.236364 -41.76 
L 267.545455 -41.76 
L 265.854545 -41.76 
L 264.163636 -69.698584 
L 262.472727 -41.76 
L 260.781818 -41.76 
L 259.090909 -41.76 
L 257.4 -93.818225 
L 255.709091 -41.76 
L 254.018182 -41.76 
L 252.327273 -41.76 
L 250.636364 -41.76 
L 248.945455 -94.689212 
L 247.254545 -41.76 
L 245.563636 -58.911745 
L 243.872727 -41.76 
L 242.181818 -122.225803 
L 240.490909 -41.76 
L 238.8 -79.614437 
L 237.109091 -55.025803 
L 235.418182 -41.76 
L 233.727273 -41.76 
L 232.036364 -41.76 
L 230.345455 -104.471067 
L 228.654545 -41.76 
L 226.963636 -41.76 
L 225.272727 -63.467677 
L 223.581818 -63.132682 
L 221.890909 -41.76 
L 220.2 -41.76 
L 218.509091 -41.76 
L 216.818182 -98.91015 
L 215.127273 -41.76 
L 213.436364 -41.76 
L 211.745455 -41.76 
L 210.054545 -101.523111 
L 208.363636 -41.76 
L 206.672727 -41.76 
L 204.981818 -41.76 
L 203.290909 -126.379741 
L 201.6 -41.76 
L 199.909091 -41.76 
L 198.218182 -41.76 
L 196.527273 -83.299382 
L 194.836364 -41.76 
L 193.145455 -41.76 
L 191.454545 -41.76 
L 189.763636 -41.76 
L 188.072727 -87.118325 
L 186.381818 -41.76 
L 184.690909 -41.76 
L 183 -41.76 
L 181.309091 -111.706959 
L 179.618182 -41.76 
L 177.927273 -41.76 
L 176.236364 -41.76 
L 174.545455 -121.019821 
L 172.854545 -41.76 
L 171.163636 -41.76 
L 169.472727 -41.76 
L 167.781818 -116.865882 
L 166.090909 -41.76 
L 164.4 -41.76 
L 162.709091 -41.76 
L 161.018182 -153.849332 
L 159.327273 -41.76 
L 157.636364 -41.76 
L 155.945455 -59.849731 
L 154.254545 -41.76 
L 152.563636 -41.76 
L 150.872727 -41.76 
L 149.181818 -66.683629 
L 147.490909 -41.76 
L 145.8 -41.76 
L 144.109091 -41.76 
L 142.418182 -143.598485 
L 140.727273 -41.76 
L 139.036364 -41.76 
L 137.345455 -41.76 
L 135.654545 -121.488814 
L 133.963636 -41.76 
L 132.272727 -41.76 
L 130.581818 -41.76 
L 128.890909 -79.346441 
L 127.2 -41.76 
L 125.509091 -41.76 
L 123.818182 -41.76 
L 122.127273 -43.836969 
L 120.436364 -41.76 
L 118.745455 -41.76 
L 117.054545 -41.76 
L 115.363636 -43.166979 
z
" style="stroke: #ff0000; stroke-width: 0.5"/>
    </defs>
    <g clip-path="url(#p30d072c275)">
     <use xlink:href="#ma62aacd6ca" x="0" y="288" style="fill: #ff0000; stroke: #ff0000; stroke-width: 0.5"/>
    </g>
   </g>
   <g id="PolyCollection_2">
    <defs>
     <path id="m7e9d01b963" d="M 115.363636 -64.204666 
L 115.363636 -43.166979 
L 117.054545 -41.76 
L 118.745455 -41.76 
L 120.436364 -41.76 
L 122.127273 -43.836969 
L 123.818182 -41.76 
L 125.509091 -41.76 
L 127.2 -41.76 
L 128.890909 -79.346441 
L 130.581818 -41.76 
L 132.272727 -41.76 
L 133.963636 -41.76 
L 135.654545 -121.488814 
L 137.345455 -41.76 
L 139.036364 -41.76 
L 140.727273 -41.76 
L 142.418182 -143.598485 
L 144.109091 -41.76 
L 145.8 -41.76 
L 147.490909 -41.76 
L 149.181818 -66.683629 
L 150.872727 -41.76 
L 152.563636 -41.76 
L 154.254545 -41.76 
L 155.945455 -59.849731 
L 157.636364 -41.76 
L 159.327273 -41.76 
L 161.018182 -153.849332 
L 162.709091 -41.76 
L 164.4 -41.76 
L 166.090909 -41.76 
L 167.781818 -116.865882 
L 169.472727 -41.76 
L 171.163636 -41.76 
L 172.854545 -41.76 
L 174.545455 -121.019821 
L 176.236364 -41.76 
L 177.927273 -41.76 
L 179.618182 -41.76 
L 181.309091 -111.706959 
L 183 -41.76 
L 184.690909 -41.76 
L 186.381818 -41.76 
L 188.072727 -87.118325 
L 189.763636 -41.76 
L 191.454545 -41.76 
L 193.145455 -41.76 
L 194.836364 -41.76 
L 196.527273 -83.299382 
L 198.218182 -41.76 
L 199.909091 -41.76 
L 201.6 -41.76 
L 203.290909 -126.379741 
L 204.981818 -41.76 
L 206.672727 -41.76 
L 208.363636 -41.76 
L 210.054545 -101.523111 
L 211.745455 -41.76 
L 213.436364 -41.76 
L 215.127273 -41.76 
L 216.818182 -98.91015 
L 218.509091 -41.76 
L 220.2 -41.76 
L 221.890909 -41.76 
L 223.581818 -63.132682 
L 225.272727 -63.467677 
L 226.963636 -41.76 
L 228.654545 -41.76 
L 230.345455 -104.471067 
L 232.036364 -41.76 
L 233.727273 -41.76 
L 235.418182 -41.76 
L 237.109091 -55.025803 
L 238.8 -79.614437 
L 240.490909 -41.76 
L 242.181818 -122.225803 
L 243.872727 -41.76 
L 245.563636 -58.911745 
L 247.254545 -41.76 
L 248.945455 -94.689212 
L 250.636364 -41.76 
L 252.327273 -41.76 
L 254.018182 -41.76 
L 255.709091 -41.76 
L 257.4 -93.818225 
L 259.090909 -41.76 
L 260.781818 -41.76 
L 262.472727 -41.76 
L 264.163636 -69.698584 
L 265.854545 -41.76 
L 267.545455 -41.76 
L 269.236364 -41.76 
L 270.927273 -71.574556 
L 272.618182 -41.76 
L 274.309091 -97.168175 
L 276 -75.862493 
L 277.690909 -41.76 
L 279.381818 -41.76 
L 281.072727 -41.76 
L 282.763636 -69.631585 
L 284.454545 -41.76 
L 286.145455 -41.76 
L 287.836364 -41.76 
L 289.527273 -41.76 
L 291.218182 -125.77675 
L 292.909091 -41.76 
L 294.6 -41.76 
L 296.290909 -41.76 
L 297.981818 -54.891805 
L 299.672727 -41.76 
L 301.363636 -41.76 
L 303.054545 -41.76 
L 304.745455 -54.690808 
L 306.436364 -41.76 
L 308.127273 -41.76 
L 309.818182 -41.76 
L 311.509091 -51.273858 
L 313.2 -112.912941 
L 314.890909 -41.76 
L 316.581818 -41.76 
L 318.272727 -41.76 
L 319.963636 -97.235174 
L 321.654545 -94.756211 
L 323.345455 -41.76 
L 325.036364 -41.76 
L 326.727273 -74.053519 
L 328.418182 -41.76 
L 330.109091 -78.006461 
L 331.8 -41.76 
L 333.490909 -41.76 
L 335.181818 -41.76 
L 336.872727 -82.361396 
L 338.563636 -41.76 
L 340.254545 -41.76 
L 341.945455 -41.76 
L 343.636364 -75.929492 
L 345.327273 -41.76 
L 347.018182 -41.76 
L 348.709091 -41.76 
L 350.4 -79.011446 
L 352.090909 -41.76 
L 353.781818 -41.76 
L 355.472727 -41.76 
L 357.163636 -79.949432 
L 358.854545 -41.76 
L 360.545455 -41.76 
L 362.236364 -41.76 
L 363.927273 -69.564586 
L 365.618182 -41.76 
L 367.309091 -41.76 
L 369 -175.356012 
L 370.690909 -41.76 
L 372.381818 -41.76 
L 374.072727 -84.907358 
L 375.763636 -41.76 
L 377.454545 -41.76 
L 379.145455 -41.76 
L 380.836364 -79.614437 
L 382.527273 -41.76 
L 384.218182 -41.76 
L 385.909091 -97.302173 
L 387.6 -41.76 
L 389.290909 -41.76 
L 390.981818 -41.76 
L 392.672727 -89.932283 
L 394.363636 -90.602273 
L 396.054545 -56.298784 
L 397.745455 -88.860299 
L 399.436364 -41.76 
L 401.127273 -41.76 
L 402.818182 -57.839761 
L 404.509091 -41.76 
L 406.2 -89.46329 
L 407.890909 -54.757807 
L 409.581818 -41.76 
L 411.272727 -41.76 
L 412.963636 -41.76 
L 414.654545 -41.76 
L 416.345455 -53.350828 
L 418.036364 -41.76 
L 419.727273 -85.912343 
L 421.418182 -41.76 
L 423.109091 -76.532483 
L 424.8 -41.76 
L 426.490909 -82.629392 
L 428.181818 -41.76 
L 429.872727 -41.76 
L 431.563636 -41.76 
L 433.254545 -41.76 
L 434.945455 -74.65651 
L 436.636364 -49.330887 
L 438.327273 -41.76 
L 440.018182 -41.76 
L 441.709091 -84.974357 
L 443.4 -41.76 
L 445.090909 -41.76 
L 446.781818 -57.303769 
L 448.472727 -41.76 
L 450.163636 -41.76 
L 451.854545 -55.092802 
L 453.545455 -61.792702 
L 455.236364 -59.112742 
L 456.927273 -41.76 
L 458.618182 -41.76 
L 460.309091 -69.229591 
L 462 -41.76 
L 463.690909 -41.76 
L 465.381818 -41.76 
L 467.072727 -87.654317 
L 468.763636 -41.76 
L 470.454545 -71.172562 
L 472.145455 -60.050728 
L 473.836364 -41.76 
L 475.527273 -67.755613 
L 477.218182 -41.76 
L 478.909091 -41.76 
L 480.6 -69.698584 
L 482.290909 -41.76 
L 483.981818 -68.291605 
L 485.672727 -41.76 
L 487.363636 -41.76 
L 489.054545 -41.76 
L 490.745455 -65.075653 
L 492.436364 -41.76 
L 494.127273 -53.283829 
L 495.818182 -84.840359 
L 497.509091 -41.76 
L 499.2 -41.76 
L 500.890909 -162.425204 
L 502.581818 -41.76 
L 504.272727 -70.435573 
L 505.963636 -41.76 
L 507.654545 -41.76 
L 509.345455 -41.76 
L 511.036364 -127.451725 
L 512.727273 -41.76 
L 514.418182 -71.105563 
L 516.109091 -41.76 
L 517.8 -41.76 
L 519.490909 -41.76 
L 521.181818 -41.76 
L 522.872727 -62.998684 
L 524.563636 -41.76 
L 526.254545 -41.76 
L 527.945455 -41.76 
L 529.636364 -62.261695 
L 531.327273 -156.395294 
L 533.018182 -122.962792 
L 534.709091 -41.76 
L 536.4 -41.76 
L 538.090909 -41.76 
L 539.781818 -41.76 
L 541.472727 -68.358604 
L 543.163636 -41.76 
L 544.854545 -41.76 
L 546.545455 -55.89679 
L 548.236364 -54.757807 
L 549.927273 -41.76 
L 551.618182 -103.60008 
L 553.309091 -55.963789 
L 555 -41.76 
L 556.690909 -91.205264 
L 558.381818 -41.76 
L 560.072727 -147.752423 
L 561.763636 -41.76 
L 563.454545 -60.184726 
L 565.145455 -41.76 
L 566.836364 -79.547438 
L 568.527273 -77.269472 
L 570.218182 -41.76 
L 571.909091 -69.631585 
L 573.6 -41.76 
L 575.290909 -41.76 
L 576.981818 -41.76 
L 578.672727 -110.031984 
L 580.363636 -41.76 
L 582.054545 -41.76 
L 583.745455 -41.76 
L 585.436364 -111.304965 
L 587.127273 -41.76 
L 588.818182 -61.122712 
L 590.509091 -41.76 
L 592.2 -101.791107 
L 593.890909 -41.76 
L 595.581818 -92.947238 
L 597.272727 -71.775553 
L 598.963636 -41.76 
L 600.654545 -41.76 
L 602.345455 -41.76 
L 604.036364 -127.451725 
L 605.727273 -41.76 
L 607.418182 -41.76 
L 609.109091 -41.76 
L 610.8 -116.061894 
L 612.490909 -41.76 
L 614.181818 -41.76 
L 615.872727 -67.95661 
L 617.563636 -41.76 
L 619.254545 -41.76 
L 620.945455 -65.209651 
L 622.636364 -41.76 
L 622.636364 -41.76 
L 622.636364 -41.76 
L 620.945455 -110.500977 
L 619.254545 -91.674257 
L 617.563636 -68.894596 
L 615.872727 -75.3265 
L 614.181818 -48.325902 
L 612.490909 -50.134875 
L 610.8 -126.647737 
L 609.109091 -59.849731 
L 607.418182 -47.320917 
L 605.727273 -44.908953 
L 604.036364 -133.14664 
L 602.345455 -57.303769 
L 600.654545 -56.030788 
L 598.963636 -58.442752 
L 597.272727 -110.232981 
L 595.581818 -141.052522 
L 593.890909 -69.363589 
L 592.2 -119.947836 
L 590.509091 -68.023609 
L 588.818182 -83.165384 
L 587.127273 -60.720718 
L 585.436364 -129.79669 
L 583.745455 -121.689811 
L 582.054545 -127.250728 
L 580.363636 -123.833779 
L 578.672727 -134.888614 
L 576.981818 -46.44993 
L 575.290909 -45.77994 
L 573.6 -57.437767 
L 571.909091 -77.738465 
L 570.218182 -59.782732 
L 568.527273 -83.366381 
L 566.836364 -102.193101 
L 565.145455 -53.417827 
L 563.454545 -81.021416 
L 561.763636 -48.727896 
L 560.072727 -159.008255 
L 558.381818 -63.199681 
L 556.690909 -106.414038 
L 555 -52.211844 
L 553.309091 -67.889611 
L 551.618182 -124.570768 
L 549.927273 -85.510349 
L 548.236364 -77.202473 
L 546.545455 -77.537468 
L 544.854545 -48.660897 
L 543.163636 -62.194696 
L 541.472727 -136.764586 
L 539.781818 -62.797687 
L 538.090909 -69.899581 
L 536.4 -71.440558 
L 534.709091 -116.798883 
L 533.018182 -142.794497 
L 531.327273 -171.068076 
L 529.636364 -94.287218 
L 527.945455 -46.315932 
L 526.254545 -46.583928 
L 524.563636 -45.913938 
L 522.872727 -69.028594 
L 521.181818 -46.315932 
L 519.490909 -47.923908 
L 517.8 -54.824806 
L 516.109091 -69.631585 
L 514.418182 -83.098385 
L 512.727273 -45.578943 
L 511.036364 -133.883629 
L 509.345455 -68.559601 
L 507.654545 -57.638764 
L 505.963636 -77.805464 
L 504.272727 -121.220818 
L 502.581818 -54.55681 
L 500.890909 -165.842154 
L 499.2 -44.841954 
L 497.509091 -44.908953 
L 495.818182 -89.530289 
L 494.127273 -61.591705 
L 492.436364 -61.591705 
L 490.745455 -101.322114 
L 489.054545 -58.040758 
L 487.363636 -61.457707 
L 485.672727 -59.179741 
L 483.981818 -94.421216 
L 482.290909 -127.853719 
L 480.6 -156.596291 
L 478.909091 -138.104566 
L 477.218182 -129.260698 
L 475.527273 -132.878644 
L 473.836364 -59.24674 
L 472.145455 -80.552423 
L 470.454545 -97.302173 
L 468.763636 -46.851924 
L 467.072727 -94.287218 
L 465.381818 -54.087817 
L 463.690909 -48.593898 
L 462 -78.609452 
L 460.309091 -83.366381 
L 458.618182 -55.159801 
L 456.927273 -53.618824 
L 455.236364 -66.482632 
L 453.545455 -138.573559 
L 451.854545 -73.718524 
L 450.163636 -52.010847 
L 448.472727 -91.540259 
L 446.781818 -93.282233 
L 445.090909 -45.377946 
L 443.4 -45.176949 
L 441.709091 -90.334277 
L 440.018182 -88.391306 
L 438.327273 -108.089013 
L 436.636364 -124.101775 
L 434.945455 -116.664885 
L 433.254545 -106.816032 
L 431.563636 -101.724108 
L 429.872727 -112.644945 
L 428.181818 -107.62002 
L 426.490909 -112.711944 
L 424.8 -64.070668 
L 423.109091 -94.890209 
L 421.418182 -110.634975 
L 419.727273 -142.124506 
L 418.036364 -65.94664 
L 416.345455 -63.26668 
L 414.654545 -54.690808 
L 412.963636 -48.4599 
L 411.272727 -52.881834 
L 409.581818 -62.395693 
L 407.890909 -85.175354 
L 406.2 -99.781137 
L 404.509091 -48.928893 
L 402.818182 -73.919521 
L 401.127273 -58.777747 
L 399.436364 -63.735673 
L 397.745455 -105.476052 
L 396.054545 -69.028594 
L 394.363636 -104.739063 
L 392.672727 -100.518126 
L 390.981818 -53.082832 
L 389.290909 -49.12989 
L 387.6 -47.78991 
L 385.909091 -100.451127 
L 384.218182 -58.57675 
L 382.527273 -61.792702 
L 380.836364 -115.458903 
L 379.145455 -75.259501 
L 377.454545 -69.899581 
L 375.763636 -59.514736 
L 374.072727 -91.741256 
L 372.381818 -46.315932 
L 370.690909 -47.78991 
L 369 -179.777946 
L 367.309091 -52.613838 
L 365.618182 -54.422812 
L 363.927273 -111.304965 
L 362.236364 -64.271665 
L 360.545455 -51.474855 
L 358.854545 -79.815434 
L 357.163636 -112.97994 
L 355.472727 -76.130489 
L 353.781818 -47.990907 
L 352.090909 -59.380738 
L 350.4 -105.409053 
L 348.709091 -54.55681 
L 347.018182 -51.407856 
L 345.327273 -51.206859 
L 343.636364 -92.076251 
L 341.945455 -49.464885 
L 340.254545 -51.876849 
L 338.563636 -74.790508 
L 336.872727 -108.96 
L 335.181818 -50.871864 
L 333.490909 -51.407856 
L 331.8 -49.598883 
L 330.109091 -116.32989 
L 328.418182 -77.872463 
L 326.727273 -107.151027 
L 325.036364 -49.531884 
L 323.345455 -72.512542 
L 321.654545 -109.160997 
L 319.963636 -115.927896 
L 318.272727 -73.31653 
L 316.581818 -63.802672 
L 314.890909 -61.189711 
L 313.2 -140.51653 
L 311.509091 -80.150429 
L 309.818182 -79.949432 
L 308.127273 -78.341456 
L 306.436364 -75.3935 
L 304.745455 -96.230189 
L 303.054545 -73.517527 
L 301.363636 -85.309352 
L 299.672727 -59.91673 
L 297.981818 -64.673659 
L 296.290909 -48.258903 
L 294.6 -62.998684 
L 292.909091 -50.938863 
L 291.218182 -132.677647 
L 289.527273 -55.293799 
L 287.836364 -54.55681 
L 286.145455 -52.412841 
L 284.454545 -56.56678 
L 282.763636 -76.532483 
L 281.072727 -47.78991 
L 279.381818 -46.248933 
L 277.690909 -45.645942 
L 276 -80.887418 
L 274.309091 -102.2601 
L 272.618182 -46.583928 
L 270.927273 -77.269472 
L 269.236364 -53.283829 
L 267.545455 -51.876849 
L 265.854545 -44.640957 
L 264.163636 -79.480439 
L 262.472727 -53.015833 
L 260.781818 -63.26668 
L 259.090909 -64.807657 
L 257.4 -132.878644 
L 255.709091 -113.180937 
L 254.018182 -103.198086 
L 252.327273 -101.858106 
L 250.636364 -80.954417 
L 248.945455 -128.590708 
L 247.254545 -61.524706 
L 245.563636 -64.472662 
L 243.872727 -46.114935 
L 242.181818 -126.044746 
L 240.490909 -45.578943 
L 238.8 -108.759003 
L 237.109091 -69.564586 
L 235.418182 -75.929492 
L 233.727273 -77.269472 
L 232.036364 -63.065683 
L 230.345455 -111.170967 
L 228.654545 -49.79988 
L 226.963636 -48.593898 
L 225.272727 -72.177547 
L 223.581818 -67.420618 
L 221.890909 -47.78991 
L 220.2 -50.536869 
L 218.509091 -46.181934 
L 216.818182 -113.113938 
L 215.127273 -69.497587 
L 213.436364 -56.231785 
L 211.745455 -54.958804 
L 210.054545 -113.917926 
L 208.363636 -46.717926 
L 206.672727 -50.670867 
L 204.981818 -64.271665 
L 203.290909 -140.382532 
L 201.6 -51.13986 
L 199.909091 -47.320917 
L 198.218182 -47.052921 
L 196.527273 -89.865284 
L 194.836364 -46.516929 
L 193.145455 -46.717926 
L 191.454545 -46.650927 
L 189.763636 -46.583928 
L 188.072727 -92.14325 
L 186.381818 -46.784925 
L 184.690909 -46.851924 
L 183 -46.918923 
L 181.309091 -117.267876 
L 179.618182 -47.722911 
L 177.927273 -47.655912 
L 176.236364 -47.655912 
L 174.545455 -127.049731 
L 172.854545 -47.856909 
L 171.163636 -47.923908 
L 169.472727 -47.856909 
L 167.781818 -123.163789 
L 166.090909 -47.856909 
L 164.4 -47.856909 
L 162.709091 -47.78991 
L 161.018182 -158.807258 
L 159.327273 -46.382931 
L 157.636364 -63.467677 
L 155.945455 -93.081236 
L 154.254545 -47.320917 
L 152.563636 -58.844746 
L 150.872727 -51.80985 
L 149.181818 -79.748435 
L 147.490909 -61.25671 
L 145.8 -60.318724 
L 144.109091 -59.447737 
L 142.418182 -156.66329 
L 140.727273 -46.985922 
L 139.036364 -47.521914 
L 137.345455 -48.325902 
L 135.654545 -128.188714 
L 133.963636 -48.124905 
L 132.272727 -48.258903 
L 130.581818 -48.124905 
L 128.890909 -84.907358 
L 127.2 -46.784925 
L 125.509091 -46.985922 
L 123.818182 -45.77994 
L 122.127273 -50.536869 
L 120.436364 -47.923908 
L 118.745455 -45.578943 
L 117.054545 -47.655912 
L 115.363636 -64.204666 
z
" style="stroke: #0000ff; stroke-width: 0.5"/>
    </defs>
    <g clip-path="url(#p30d072c275)">
     <use xlink:href="#m7e9d01b963" x="0" y="288" style="fill: #0000ff; stroke: #0000ff; stroke-width: 0.5"/>
    </g>
   </g>
   <g id="PolyCollection_3">
    <defs>
     <path id="m4c9f7c02bd" d="M 115.363636 -79.346441 
L 115.363636 -64.204666 
L 117.054545 -47.655912 
L 118.745455 -45.578943 
L 120.436364 -47.923908 
L 122.127273 -50.536869 
L 123.818182 -45.77994 
L 125.509091 -46.985922 
L 127.2 -46.784925 
L 128.890909 -84.907358 
L 130.581818 -48.124905 
L 132.272727 -48.258903 
L 133.963636 -48.124905 
L 135.654545 -128.188714 
L 137.345455 -48.325902 
L 139.036364 -47.521914 
L 140.727273 -46.985922 
L 142.418182 -156.66329 
L 144.109091 -59.447737 
L 145.8 -60.318724 
L 147.490909 -61.25671 
L 149.181818 -79.748435 
L 150.872727 -51.80985 
L 152.563636 -58.844746 
L 154.254545 -47.320917 
L 155.945455 -93.081236 
L 157.636364 -63.467677 
L 159.327273 -46.382931 
L 161.018182 -158.807258 
L 162.709091 -47.78991 
L 164.4 -47.856909 
L 166.090909 -47.856909 
L 167.781818 -123.163789 
L 169.472727 -47.856909 
L 171.163636 -47.923908 
L 172.854545 -47.856909 
L 174.545455 -127.049731 
L 176.236364 -47.655912 
L 177.927273 -47.655912 
L 179.618182 -47.722911 
L 181.309091 -117.267876 
L 183 -46.918923 
L 184.690909 -46.851924 
L 186.381818 -46.784925 
L 188.072727 -92.14325 
L 189.763636 -46.583928 
L 191.454545 -46.650927 
L 193.145455 -46.717926 
L 194.836364 -46.516929 
L 196.527273 -89.865284 
L 198.218182 -47.052921 
L 199.909091 -47.320917 
L 201.6 -51.13986 
L 203.290909 -140.382532 
L 204.981818 -64.271665 
L 206.672727 -50.670867 
L 208.363636 -46.717926 
L 210.054545 -113.917926 
L 211.745455 -54.958804 
L 213.436364 -56.231785 
L 215.127273 -69.497587 
L 216.818182 -113.113938 
L 218.509091 -46.181934 
L 220.2 -50.536869 
L 221.890909 -47.78991 
L 223.581818 -67.420618 
L 225.272727 -72.177547 
L 226.963636 -48.593898 
L 228.654545 -49.79988 
L 230.345455 -111.170967 
L 232.036364 -63.065683 
L 233.727273 -77.269472 
L 235.418182 -75.929492 
L 237.109091 -69.564586 
L 238.8 -108.759003 
L 240.490909 -45.578943 
L 242.181818 -126.044746 
L 243.872727 -46.114935 
L 245.563636 -64.472662 
L 247.254545 -61.524706 
L 248.945455 -128.590708 
L 250.636364 -80.954417 
L 252.327273 -101.858106 
L 254.018182 -103.198086 
L 255.709091 -113.180937 
L 257.4 -132.878644 
L 259.090909 -64.807657 
L 260.781818 -63.26668 
L 262.472727 -53.015833 
L 264.163636 -79.480439 
L 265.854545 -44.640957 
L 267.545455 -51.876849 
L 269.236364 -53.283829 
L 270.927273 -77.269472 
L 272.618182 -46.583928 
L 274.309091 -102.2601 
L 276 -80.887418 
L 277.690909 -45.645942 
L 279.381818 -46.248933 
L 281.072727 -47.78991 
L 282.763636 -76.532483 
L 284.454545 -56.56678 
L 286.145455 -52.412841 
L 287.836364 -54.55681 
L 289.527273 -55.293799 
L 291.218182 -132.677647 
L 292.909091 -50.938863 
L 294.6 -62.998684 
L 296.290909 -48.258903 
L 297.981818 -64.673659 
L 299.672727 -59.91673 
L 301.363636 -85.309352 
L 303.054545 -73.517527 
L 304.745455 -96.230189 
L 306.436364 -75.3935 
L 308.127273 -78.341456 
L 309.818182 -79.949432 
L 311.509091 -80.150429 
L 313.2 -140.51653 
L 314.890909 -61.189711 
L 316.581818 -63.802672 
L 318.272727 -73.31653 
L 319.963636 -115.927896 
L 321.654545 -109.160997 
L 323.345455 -72.512542 
L 325.036364 -49.531884 
L 326.727273 -107.151027 
L 328.418182 -77.872463 
L 330.109091 -116.32989 
L 331.8 -49.598883 
L 333.490909 -51.407856 
L 335.181818 -50.871864 
L 336.872727 -108.96 
L 338.563636 -74.790508 
L 340.254545 -51.876849 
L 341.945455 -49.464885 
L 343.636364 -92.076251 
L 345.327273 -51.206859 
L 347.018182 -51.407856 
L 348.709091 -54.55681 
L 350.4 -105.409053 
L 352.090909 -59.380738 
L 353.781818 -47.990907 
L 355.472727 -76.130489 
L 357.163636 -112.97994 
L 358.854545 -79.815434 
L 360.545455 -51.474855 
L 362.236364 -64.271665 
L 363.927273 -111.304965 
L 365.618182 -54.422812 
L 367.309091 -52.613838 
L 369 -179.777946 
L 370.690909 -47.78991 
L 372.381818 -46.315932 
L 374.072727 -91.741256 
L 375.763636 -59.514736 
L 377.454545 -69.899581 
L 379.145455 -75.259501 
L 380.836364 -115.458903 
L 382.527273 -61.792702 
L 384.218182 -58.57675 
L 385.909091 -100.451127 
L 387.6 -47.78991 
L 389.290909 -49.12989 
L 390.981818 -53.082832 
L 392.672727 -100.518126 
L 394.363636 -104.739063 
L 396.054545 -69.028594 
L 397.745455 -105.476052 
L 399.436364 -63.735673 
L 401.127273 -58.777747 
L 402.818182 -73.919521 
L 404.509091 -48.928893 
L 406.2 -99.781137 
L 407.890909 -85.175354 
L 409.581818 -62.395693 
L 411.272727 -52.881834 
L 412.963636 -48.4599 
L 414.654545 -54.690808 
L 416.345455 -63.26668 
L 418.036364 -65.94664 
L 419.727273 -142.124506 
L 421.418182 -110.634975 
L 423.109091 -94.890209 
L 424.8 -64.070668 
L 426.490909 -112.711944 
L 428.181818 -107.62002 
L 429.872727 -112.644945 
L 431.563636 -101.724108 
L 433.254545 -106.816032 
L 434.945455 -116.664885 
L 436.636364 -124.101775 
L 438.327273 -108.089013 
L 440.018182 -88.391306 
L 441.709091 -90.334277 
L 443.4 -45.176949 
L 445.090909 -45.377946 
L 446.781818 -93.282233 
L 448.472727 -91.540259 
L 450.163636 -52.010847 
L 451.854545 -73.718524 
L 453.545455 -138.573559 
L 455.236364 -66.482632 
L 456.927273 -53.618824 
L 458.618182 -55.159801 
L 460.309091 -83.366381 
L 462 -78.609452 
L 463.690909 -48.593898 
L 465.381818 -54.087817 
L 467.072727 -94.287218 
L 468.763636 -46.851924 
L 470.454545 -97.302173 
L 472.145455 -80.552423 
L 473.836364 -59.24674 
L 475.527273 -132.878644 
L 477.218182 -129.260698 
L 478.909091 -138.104566 
L 480.6 -156.596291 
L 482.290909 -127.853719 
L 483.981818 -94.421216 
L 485.672727 -59.179741 
L 487.363636 -61.457707 
L 489.054545 -58.040758 
L 490.745455 -101.322114 
L 492.436364 -61.591705 
L 494.127273 -61.591705 
L 495.818182 -89.530289 
L 497.509091 -44.908953 
L 499.2 -44.841954 
L 500.890909 -165.842154 
L 502.581818 -54.55681 
L 504.272727 -121.220818 
L 505.963636 -77.805464 
L 507.654545 -57.638764 
L 509.345455 -68.559601 
L 511.036364 -133.883629 
L 512.727273 -45.578943 
L 514.418182 -83.098385 
L 516.109091 -69.631585 
L 517.8 -54.824806 
L 519.490909 -47.923908 
L 521.181818 -46.315932 
L 522.872727 -69.028594 
L 524.563636 -45.913938 
L 526.254545 -46.583928 
L 527.945455 -46.315932 
L 529.636364 -94.287218 
L 531.327273 -171.068076 
L 533.018182 -142.794497 
L 534.709091 -116.798883 
L 536.4 -71.440558 
L 538.090909 -69.899581 
L 539.781818 -62.797687 
L 541.472727 -136.764586 
L 543.163636 -62.194696 
L 544.854545 -48.660897 
L 546.545455 -77.537468 
L 548.236364 -77.202473 
L 549.927273 -85.510349 
L 551.618182 -124.570768 
L 553.309091 -67.889611 
L 555 -52.211844 
L 556.690909 -106.414038 
L 558.381818 -63.199681 
L 560.072727 -159.008255 
L 561.763636 -48.727896 
L 563.454545 -81.021416 
L 565.145455 -53.417827 
L 566.836364 -102.193101 
L 568.527273 -83.366381 
L 570.218182 -59.782732 
L 571.909091 -77.738465 
L 573.6 -57.437767 
L 575.290909 -45.77994 
L 576.981818 -46.44993 
L 578.672727 -134.888614 
L 580.363636 -123.833779 
L 582.054545 -127.250728 
L 583.745455 -121.689811 
L 585.436364 -129.79669 
L 587.127273 -60.720718 
L 588.818182 -83.165384 
L 590.509091 -68.023609 
L 592.2 -119.947836 
L 593.890909 -69.363589 
L 595.581818 -141.052522 
L 597.272727 -110.232981 
L 598.963636 -58.442752 
L 600.654545 -56.030788 
L 602.345455 -57.303769 
L 604.036364 -133.14664 
L 605.727273 -44.908953 
L 607.418182 -47.320917 
L 609.109091 -59.849731 
L 610.8 -126.647737 
L 612.490909 -50.134875 
L 614.181818 -48.325902 
L 615.872727 -75.3265 
L 617.563636 -68.894596 
L 619.254545 -91.674257 
L 620.945455 -110.500977 
L 622.636364 -41.76 
L 622.636364 -41.960997 
L 622.636364 -41.960997 
L 620.945455 -158.874257 
L 619.254545 -156.194297 
L 617.563636 -111.505962 
L 615.872727 -91.607258 
L 614.181818 -61.591705 
L 612.490909 -68.894596 
L 610.8 -144.268475 
L 609.109091 -91.205264 
L 607.418182 -59.447737 
L 605.727273 -63.802672 
L 604.036364 -157.534277 
L 602.345455 -95.828195 
L 600.654545 -88.525304 
L 598.963636 -85.912343 
L 597.272727 -150.566381 
L 595.581818 -176.628993 
L 593.890909 -141.990508 
L 592.2 -167.115135 
L 590.509091 -100.116132 
L 588.818182 -113.917926 
L 587.127273 -103.60008 
L 585.436364 -181.385922 
L 583.745455 -213.478445 
L 582.054545 -223.729292 
L 580.363636 -213.880439 
L 578.672727 -167.517129 
L 576.981818 -81.289412 
L 575.290909 -70.435573 
L 573.6 -93.081236 
L 571.909091 -94.354217 
L 570.218182 -78.274457 
L 568.527273 -98.843151 
L 566.836364 -129.193699 
L 565.145455 -76.599482 
L 563.454545 -120.885823 
L 561.763636 -76.934477 
L 560.072727 -182.457906 
L 558.381818 -98.843151 
L 556.690909 -131.002672 
L 555 -64.338664 
L 553.309091 -88.659302 
L 551.618182 -157.065284 
L 549.927273 -134.888614 
L 548.236364 -107.62002 
L 546.545455 -96.565184 
L 544.854545 -78.877448 
L 543.163636 -113.314935 
L 541.472727 -197.063689 
L 539.781818 -114.654915 
L 538.090909 -126.714736 
L 536.4 -135.022612 
L 534.709091 -213.344447 
L 533.018182 -226.208255 
L 531.327273 -199.00666 
L 529.636364 -120.818824 
L 527.945455 -64.137667 
L 526.254545 -59.179741 
L 524.563636 -57.303769 
L 522.872727 -86.180339 
L 521.181818 -64.070668 
L 519.490909 -64.740658 
L 517.8 -80.954417 
L 516.109091 -104.404068 
L 514.418182 -95.761196 
L 512.727273 -53.752822 
L 511.036364 -145.541456 
L 509.345455 -96.498185 
L 507.654545 -85.778345 
L 505.963636 -124.972762 
L 504.272727 -216.158405 
L 502.581818 -132.878644 
L 500.890909 -203.897587 
L 499.2 -47.655912 
L 497.509091 -47.454915 
L 495.818182 -96.632183 
L 494.127273 -84.170369 
L 492.436364 -100.585125 
L 490.745455 -139.84654 
L 489.054545 -97.168175 
L 487.363636 -92.14325 
L 485.672727 -88.190309 
L 483.981818 -132.141655 
L 482.290909 -243.36 
L 480.6 -235.856112 
L 478.909091 -212.942453 
L 477.218182 -191.033779 
L 475.527273 -179.040957 
L 473.836364 -73.450528 
L 472.145455 -120.550828 
L 470.454545 -128.858704 
L 468.763636 -55.829791 
L 467.072727 -101.188116 
L 465.381818 -78.676451 
L 463.690909 -73.249531 
L 462 -119.813838 
L 460.309091 -107.955015 
L 458.618182 -78.475454 
L 456.927273 -69.631585 
L 455.236364 -88.7933 
L 453.545455 -209.190508 
L 451.854545 -99.58014 
L 450.163636 -100.786122 
L 448.472727 -176.226999 
L 446.781818 -127.518724 
L 445.090909 -49.732881 
L 443.4 -47.454915 
L 441.709091 -116.262891 
L 440.018182 -162.02321 
L 438.327273 -185.405862 
L 436.636364 -163.430189 
L 434.945455 -157.065284 
L 433.254545 -160.750229 
L 431.563636 -152.911346 
L 429.872727 -170.398086 
L 428.181818 -156.797288 
L 426.490909 -141.052522 
L 424.8 -89.329292 
L 423.109091 -118.942851 
L 421.418182 -168.656112 
L 419.727273 -180.447936 
L 418.036364 -88.7933 
L 416.345455 -78.140459 
L 414.654545 -71.97655 
L 412.963636 -59.514736 
L 411.272727 -67.95661 
L 409.581818 -82.294397 
L 407.890909 -131.940658 
L 406.2 -118.004865 
L 404.509091 -61.725703 
L 402.818182 -100.987119 
L 401.127273 -94.421216 
L 399.436364 -116.932881 
L 397.745455 -132.007657 
L 396.054545 -100.853121 
L 394.363636 -139.645543 
L 392.672727 -117.200877 
L 390.981818 -70.837567 
L 389.290909 -58.844746 
L 387.6 -59.313739 
L 385.909091 -111.237966 
L 384.218182 -104.136072 
L 382.527273 -108.357009 
L 380.836364 -167.048136 
L 379.145455 -134.553619 
L 377.454545 -117.602871 
L 375.763636 -86.78333 
L 374.072727 -138.037567 
L 372.381818 -106.012044 
L 370.690909 -119.612841 
L 369 -199.073659 
L 367.309091 -84.371366 
L 365.618182 -94.421216 
L 363.927273 -161.35322 
L 362.236364 -108.491007 
L 360.545455 -95.292203 
L 358.854545 -132.543649 
L 357.163636 -156.194297 
L 355.472727 -127.78672 
L 353.781818 -83.366381 
L 352.090909 -110.098983 
L 350.4 -145.675454 
L 348.709091 -100.786122 
L 347.018182 -88.994297 
L 345.327273 -89.932283 
L 343.636364 -123.09679 
L 341.945455 -82.428395 
L 340.254545 -82.76339 
L 338.563636 -123.431785 
L 336.872727 -139.377547 
L 335.181818 -76.73348 
L 333.490909 -70.301575 
L 331.8 -68.425603 
L 330.109091 -153.246341 
L 328.418182 -120.818824 
L 326.727273 -144.268475 
L 325.036364 -101.322114 
L 323.345455 -144.938465 
L 321.654545 -136.228594 
L 319.963636 -156.060299 
L 318.272727 -120.617827 
L 316.581818 -88.458305 
L 314.890909 -88.525304 
L 313.2 -173.748036 
L 311.509091 -107.419023 
L 309.818182 -106.481037 
L 308.127273 -106.682034 
L 306.436364 -98.709153 
L 304.745455 -122.962792 
L 303.054545 -95.292203 
L 301.363636 -120.41683 
L 299.672727 -87.386321 
L 297.981818 -80.217428 
L 296.290909 -65.94664 
L 294.6 -138.305563 
L 292.909091 -74.053519 
L 291.218182 -145.608455 
L 289.527273 -62.797687 
L 287.836364 -65.410648 
L 286.145455 -74.455513 
L 284.454545 -86.314337 
L 282.763636 -91.004267 
L 281.072727 -55.092802 
L 279.381818 -55.360798 
L 277.690909 -54.288814 
L 276 -121.555813 
L 274.309091 -141.789511 
L 272.618182 -57.370768 
L 270.927273 -88.391306 
L 269.236364 -75.795494 
L 267.545455 -68.291605 
L 265.854545 -47.655912 
L 264.163636 -90.401276 
L 262.472727 -84.036371 
L 260.781818 -99.58014 
L 259.090909 -125.508754 
L 257.4 -185.204865 
L 255.709091 -212.138465 
L 254.018182 -200.413639 
L 252.327273 -194.182732 
L 250.636364 -136.965583 
L 248.945455 -188.219821 
L 247.254545 -96.83318 
L 245.563636 -77.872463 
L 243.872727 -58.777747 
L 242.181818 -129.997687 
L 240.490909 -49.062891 
L 238.8 -158.204267 
L 237.109091 -99.915135 
L 235.418182 -116.463888 
L 233.727273 -129.997687 
L 232.036364 -94.756211 
L 230.345455 -123.09679 
L 228.654545 -75.728495 
L 226.963636 -64.673659 
L 225.272727 -92.478245 
L 223.581818 -73.048534 
L 221.890909 -59.782732 
L 220.2 -65.812642 
L 218.509091 -52.077846 
L 216.818182 -150.834377 
L 215.127273 -144.067478 
L 213.436364 -112.577946 
L 211.745455 -107.017029 
L 210.054545 -152.241356 
L 208.363636 -90.066281 
L 206.672727 -107.084028 
L 204.981818 -135.223609 
L 203.290909 -173.346042 
L 201.6 -82.227398 
L 199.909091 -80.552423 
L 198.218182 -79.279442 
L 196.527273 -109.964985 
L 194.836364 -64.271665 
L 193.145455 -69.698584 
L 191.454545 -73.249531 
L 189.763636 -70.703569 
L 188.072727 -118.607856 
L 186.381818 -79.815434 
L 184.690909 -83.366381 
L 183 -87.051326 
L 181.309091 -187.281834 
L 179.618182 -147.618425 
L 177.927273 -147.015434 
L 176.236364 -149.628395 
L 174.545455 -209.257507 
L 172.854545 -144.469472 
L 171.163636 -144.000479 
L 169.472727 -145.742453 
L 167.781818 -208.721515 
L 166.090909 -141.18652 
L 164.4 -144.402473 
L 162.709091 -136.965583 
L 161.018182 -187.013838 
L 159.327273 -53.819821 
L 157.636364 -87.252323 
L 155.945455 -127.987717 
L 154.254545 -66.281635 
L 152.563636 -94.287218 
L 150.872727 -80.217428 
L 149.181818 -117.602871 
L 147.490909 -141.387517 
L 145.8 -141.119521 
L 144.109091 -137.83657 
L 142.418182 -231.970169 
L 140.727273 -136.228594 
L 139.036364 -150.097388 
L 137.345455 -162.559202 
L 135.654545 -214.885424 
L 133.963636 -167.651127 
L 132.272727 -169.058106 
L 130.581818 -175.557009 
L 128.890909 -187.683829 
L 127.2 -133.615633 
L 125.509091 -96.364187 
L 123.818182 -68.090608 
L 122.127273 -78.07346 
L 120.436364 -50.670867 
L 118.745455 -49.665882 
L 117.054545 -53.417827 
L 115.363636 -79.346441 
z
" style="stroke: #008000; stroke-width: 0.5"/>
    </defs>
    <g clip-path="url(#p30d072c275)">
     <use xlink:href="#m4c9f7c02bd" x="0" y="288" style="fill: #008000; stroke: #008000; stroke-width: 0.5"/>
    </g>
   </g>
   <g id="line2d_26">
    <path d="M 90 44.64 
L 648 44.64 
" clip-path="url(#p30d072c275)" style="fill: none; stroke: #000000; stroke-width: 1.5; stroke-linecap: square"/>
   </g>
   <g id="line2d_27">
    <path d="M 90 172.541097 
L 648 172.541097 
" clip-path="url(#p30d072c275)" style="fill: none; stroke: #000000; stroke-width: 1.5; stroke-linecap: square"/>
   </g>
   <g id="patch_3">
    <path d="M 90 256.32 
L 90 34.56 
" style="fill: none; stroke: #000000; stroke-width: 0.8; stroke-linejoin: miter; stroke-linecap: square"/>
   </g>
   <g id="patch_4">
    <path d="M 648 256.32 
L 648 34.56 
" style="fill: none; stroke: #000000; stroke-width: 0.8; stroke-linejoin: miter; stroke-linecap: square"/>
   </g>
   <g id="patch_5">
    <path d="M 90 256.32 
L 648 256.32 
" style="fill: none; stroke: #000000; stroke-width: 0.8; stroke-linejoin: miter; stroke-linecap: square"/>
   </g>
   <g id="patch_6">
    <path d="M 90 34.56 
L 648 34.56 
" style="fill: none; stroke: #000000; stroke-width: 0.8; stroke-linejoin: miter; stroke-linecap: square"/>
   </g>
   <g id="text_21">
    <!-- peak (3,009) -->
    <g transform="translate(122.179233 41.3136) scale(0.1 -0.1)">
     <defs>
      <path id="DejaVuSans-Bold-70" d="M 1656 506 
L 1656 -1331 
L 538 -1331 
L 538 3500 
L 1656 3500 
L 1656 2988 
Q 1888 3294 2169 3439 
Q 2450 3584 2816 3584 
Q 3463 3584 3878 3070 
Q 4294 2556 4294 1747 
Q 4294 938 3878 423 
Q 3463 -91 2816 -91 
Q 2450 -91 2169 54 
Q 1888 200 1656 506 
z
M 2400 2772 
Q 2041 2772 1848 2508 
Q 1656 2244 1656 1747 
Q 1656 1250 1848 986 
Q 2041 722 2400 722 
Q 2759 722 2948 984 
Q 3138 1247 3138 1747 
Q 3138 2247 2948 2509 
Q 2759 2772 2400 2772 
z
" transform="scale(0.015625)"/>
      <path id="DejaVuSans-Bold-65" d="M 4031 1759 
L 4031 1441 
L 1416 1441 
Q 1456 1047 1700 850 
Q 1944 653 2381 653 
Q 2734 653 3104 758 
Q 3475 863 3866 1075 
L 3866 213 
Q 3469 63 3072 -14 
Q 2675 -91 2278 -91 
Q 1328 -91 801 392 
Q 275 875 275 1747 
Q 275 2603 792 3093 
Q 1309 3584 2216 3584 
Q 3041 3584 3536 3087 
Q 4031 2591 4031 1759 
z
M 2881 2131 
Q 2881 2450 2695 2645 
Q 2509 2841 2209 2841 
Q 1884 2841 1681 2658 
Q 1478 2475 1428 2131 
L 2881 2131 
z
" transform="scale(0.015625)"/>
      <path id="DejaVuSans-Bold-61" d="M 2106 1575 
Q 1756 1575 1579 1456 
Q 1403 1338 1403 1106 
Q 1403 894 1545 773 
Q 1688 653 1941 653 
Q 2256 653 2472 879 
Q 2688 1106 2688 1447 
L 2688 1575 
L 2106 1575 
z
M 3816 1997 
L 3816 0 
L 2688 0 
L 2688 519 
Q 2463 200 2181 54 
Q 1900 -91 1497 -91 
Q 953 -91 614 226 
Q 275 544 275 1050 
Q 275 1666 698 1953 
Q 1122 2241 2028 2241 
L 2688 2241 
L 2688 2328 
Q 2688 2594 2478 2717 
Q 2269 2841 1825 2841 
Q 1466 2841 1156 2769 
Q 847 2697 581 2553 
L 581 3406 
Q 941 3494 1303 3539 
Q 1666 3584 2028 3584 
Q 2975 3584 3395 3211 
Q 3816 2838 3816 1997 
z
" transform="scale(0.015625)"/>
      <path id="DejaVuSans-Bold-6b" d="M 538 4863 
L 1656 4863 
L 1656 2216 
L 2944 3500 
L 4244 3500 
L 2534 1894 
L 4378 0 
L 3022 0 
L 1656 1459 
L 1656 0 
L 538 0 
L 538 4863 
z
" transform="scale(0.015625)"/>
      <path id="DejaVuSans-Bold-20" transform="scale(0.015625)"/>
      <path id="DejaVuSans-Bold-28" d="M 2413 -844 
L 1484 -844 
Q 1006 -72 778 623 
Q 550 1319 550 2003 
Q 550 2688 779 3389 
Q 1009 4091 1484 4856 
L 2413 4856 
Q 2013 4116 1813 3408 
Q 1613 2700 1613 2009 
Q 1613 1319 1811 609 
Q 2009 -100 2413 -844 
z
" transform="scale(0.015625)"/>
      <path id="DejaVuSans-Bold-33" d="M 2981 2516 
Q 3453 2394 3698 2092 
Q 3944 1791 3944 1325 
Q 3944 631 3412 270 
Q 2881 -91 1863 -91 
Q 1503 -91 1142 -33 
Q 781 25 428 141 
L 428 1069 
Q 766 900 1098 814 
Q 1431 728 1753 728 
Q 2231 728 2486 893 
Q 2741 1059 2741 1369 
Q 2741 1688 2480 1852 
Q 2219 2016 1709 2016 
L 1228 2016 
L 1228 2791 
L 1734 2791 
Q 2188 2791 2409 2933 
Q 2631 3075 2631 3366 
Q 2631 3634 2415 3781 
Q 2200 3928 1806 3928 
Q 1516 3928 1219 3862 
Q 922 3797 628 3669 
L 628 4550 
Q 984 4650 1334 4700 
Q 1684 4750 2022 4750 
Q 2931 4750 3382 4451 
Q 3834 4153 3834 3553 
Q 3834 3144 3618 2883 
Q 3403 2622 2981 2516 
z
" transform="scale(0.015625)"/>
      <path id="DejaVuSans-Bold-2c" d="M 653 1209 
L 1778 1209 
L 1778 256 
L 1006 -909 
L 341 -909 
L 653 256 
L 653 1209 
z
" transform="scale(0.015625)"/>
      <path id="DejaVuSans-Bold-30" d="M 2944 2338 
Q 2944 3213 2780 3570 
Q 2616 3928 2228 3928 
Q 1841 3928 1675 3570 
Q 1509 3213 1509 2338 
Q 1509 1453 1675 1090 
Q 1841 728 2228 728 
Q 2613 728 2778 1090 
Q 2944 1453 2944 2338 
z
M 4147 2328 
Q 4147 1169 3647 539 
Q 3147 -91 2228 -91 
Q 1306 -91 806 539 
Q 306 1169 306 2328 
Q 306 3491 806 4120 
Q 1306 4750 2228 4750 
Q 3147 4750 3647 4120 
Q 4147 3491 4147 2328 
z
" transform="scale(0.015625)"/>
      <path id="DejaVuSans-Bold-39" d="M 641 103 
L 641 966 
Q 928 831 1190 764 
Q 1453 697 1709 697 
Q 2247 697 2547 995 
Q 2847 1294 2900 1881 
Q 2688 1725 2447 1647 
Q 2206 1569 1925 1569 
Q 1209 1569 770 1986 
Q 331 2403 331 3084 
Q 331 3838 820 4291 
Q 1309 4744 2131 4744 
Q 3044 4744 3544 4128 
Q 4044 3513 4044 2388 
Q 4044 1231 3459 570 
Q 2875 -91 1856 -91 
Q 1528 -91 1228 -42 
Q 928 6 641 103 
z
M 2125 2350 
Q 2441 2350 2600 2554 
Q 2759 2759 2759 3169 
Q 2759 3575 2600 3781 
Q 2441 3988 2125 3988 
Q 1809 3988 1650 3781 
Q 1491 3575 1491 3169 
Q 1491 2759 1650 2554 
Q 1809 2350 2125 2350 
z
" transform="scale(0.015625)"/>
      <path id="DejaVuSans-Bold-29" d="M 513 -844 
Q 913 -100 1113 609 
Q 1313 1319 1313 2009 
Q 1313 2700 1113 3408 
Q 913 4116 513 4856 
L 1441 4856 
Q 1916 4091 2145 3389 
Q 2375 2688 2375 2003 
Q 2375 1319 2147 623 
Q 1919 -72 1441 -844 
L 513 -844 
z
" transform="scale(0.015625)"/>
     </defs>
     <use xlink:href="#DejaVuSans-Bold-70"/>
     <use xlink:href="#DejaVuSans-Bold-65" x="71.582031"/>
     <use xlink:href="#DejaVuSans-Bold-61" x="139.404297"/>
     <use xlink:href="#DejaVuSans-Bold-6b" x="206.884766"/>
     <use xlink:href="#DejaVuSans-Bold-20" x="273.388672"/>
     <use xlink:href="#DejaVuSans-Bold-28" x="308.203125"/>
     <use xlink:href="#DejaVuSans-Bold-33" x="353.90625"/>
     <use xlink:href="#DejaVuSans-Bold-2c" x="423.486328"/>
     <use xlink:href="#DejaVuSans-Bold-30" x="461.474609"/>
     <use xlink:href="#DejaVuSans-Bold-30" x="531.054688"/>
     <use xlink:href="#DejaVuSans-Bold-39" x="600.634766"/>
     <use xlink:href="#DejaVuSans-Bold-29" x="670.214844"/>
    </g>
   </g>
   <g id="text_22">
    <!-- mean (1,100) -->
    <g transform="translate(567.728153 169.214697) scale(0.1 -0.1)">
     <defs>
      <path id="DejaVuSans-Bold-6d" d="M 3781 2919 
Q 3994 3244 4286 3414 
Q 4578 3584 4928 3584 
Q 5531 3584 5847 3212 
Q 6163 2841 6163 2131 
L 6163 0 
L 5038 0 
L 5038 1825 
Q 5041 1866 5042 1909 
Q 5044 1953 5044 2034 
Q 5044 2406 4934 2573 
Q 4825 2741 4581 2741 
Q 4263 2741 4089 2478 
Q 3916 2216 3909 1719 
L 3909 0 
L 2784 0 
L 2784 1825 
Q 2784 2406 2684 2573 
Q 2584 2741 2328 2741 
Q 2006 2741 1831 2477 
Q 1656 2213 1656 1722 
L 1656 0 
L 531 0 
L 531 3500 
L 1656 3500 
L 1656 2988 
Q 1863 3284 2130 3434 
Q 2397 3584 2719 3584 
Q 3081 3584 3359 3409 
Q 3638 3234 3781 2919 
z
" transform="scale(0.015625)"/>
      <path id="DejaVuSans-Bold-6e" d="M 4056 2131 
L 4056 0 
L 2931 0 
L 2931 347 
L 2931 1631 
Q 2931 2084 2911 2256 
Q 2891 2428 2841 2509 
Q 2775 2619 2662 2680 
Q 2550 2741 2406 2741 
Q 2056 2741 1856 2470 
Q 1656 2200 1656 1722 
L 1656 0 
L 538 0 
L 538 3500 
L 1656 3500 
L 1656 2988 
Q 1909 3294 2193 3439 
Q 2478 3584 2822 3584 
Q 3428 3584 3742 3212 
Q 4056 2841 4056 2131 
z
" transform="scale(0.015625)"/>
      <path id="DejaVuSans-Bold-31" d="M 750 831 
L 1813 831 
L 1813 3847 
L 722 3622 
L 722 4441 
L 1806 4666 
L 2950 4666 
L 2950 831 
L 4013 831 
L 4013 0 
L 750 0 
L 750 831 
z
" transform="scale(0.015625)"/>
     </defs>
     <use xlink:href="#DejaVuSans-Bold-6d"/>
     <use xlink:href="#DejaVuSans-Bold-65" x="104.199219"/>
     <use xlink:href="#DejaVuSans-Bold-61" x="172.021484"/>
     <use xlink:href="#DejaVuSans-Bold-6e" x="239.501953"/>
     <use xlink:href="#DejaVuSans-Bold-20" x="310.693359"/>
     <use xlink:href="#DejaVuSans-Bold-28" x="345.507812"/>
     <use xlink:href="#DejaVuSans-Bold-31" x="391.210938"/>
     <use xlink:href="#DejaVuSans-Bold-2c" x="460.791016"/>
     <use xlink:href="#DejaVuSans-Bold-31" x="498.779297"/>
     <use xlink:href="#DejaVuSans-Bold-30" x="568.359375"/>
     <use xlink:href="#DejaVuSans-Bold-30" x="637.939453"/>
     <use xlink:href="#DejaVuSans-Bold-29" x="707.519531"/>
    </g>
   </g>
   <g id="text_23">
    <!-- Stream Bitrate over Time -->
    <g transform="translate(293.189062 28.56) scale(0.12 -0.12)">
     <defs>
      <path id="DejaVuSans-53" d="M 3425 4513 
L 3425 3897 
Q 3066 4069 2747 4153 
Q 2428 4238 2131 4238 
Q 1616 4238 1336 4038 
Q 1056 3838 1056 3469 
Q 1056 3159 1242 3001 
Q 1428 2844 1947 2747 
L 2328 2669 
Q 3034 2534 3370 2195 
Q 3706 1856 3706 1288 
Q 3706 609 3251 259 
Q 2797 -91 1919 -91 
Q 1588 -91 1214 -16 
Q 841 59 441 206 
L 441 856 
Q 825 641 1194 531 
Q 1563 422 1919 422 
Q 2459 422 2753 634 
Q 3047 847 3047 1241 
Q 3047 1584 2836 1778 
Q 2625 1972 2144 2069 
L 1759 2144 
Q 1053 2284 737 2584 
Q 422 2884 422 3419 
Q 422 4038 858 4394 
Q 1294 4750 2059 4750 
Q 2388 4750 2728 4690 
Q 3069 4631 3425 4513 
z
" transform="scale(0.015625)"/>
      <path id="DejaVuSans-6f" d="M 1959 3097 
Q 1497 3097 1228 2736 
Q 959 2375 959 1747 
Q 959 1119 1226 758 
Q 1494 397 1959 397 
Q 2419 397 2687 759 
Q 2956 1122 2956 1747 
Q 2956 2369 2687 2733 
Q 2419 3097 1959 3097 
z
M 1959 3584 
Q 2709 3584 3137 3096 
Q 3566 2609 3566 1747 
Q 3566 888 3137 398 
Q 2709 -91 1959 -91 
Q 1206 -91 779 398 
Q 353 888 353 1747 
Q 353 2609 779 3096 
Q 1206 3584 1959 3584 
z
" transform="scale(0.015625)"/>
      <path id="DejaVuSans-76" d="M 191 3500 
L 800 3500 
L 1894 563 
L 2988 3500 
L 3597 3500 
L 2284 0 
L 1503 0 
L 191 3500 
z
" transform="scale(0.015625)"/>
     </defs>
     <use xlink:href="#DejaVuSans-53"/>
     <use xlink:href="#DejaVuSans-74" x="63.476562"/>
     <use xlink:href="#DejaVuSans-72" x="102.685547"/>
     <use xlink:href="#DejaVuSans-65" x="141.548828"/>
     <use xlink:href="#DejaVuSans-61" x="203.072266"/>
     <use xlink:href="#DejaVuSans-6d" x="264.351562"/>
     <use xlink:href="#DejaVuSans-20" x="361.763672"/>
     <use xlink:href="#DejaVuSans-42" x="393.550781"/>
     <use xlink:href="#DejaVuSans-69" x="462.154297"/>
     <use xlink:href="#DejaVuSans-74" x="489.9375"/>
     <use xlink:href="#DejaVuSans-72" x="529.146484"/>
     <use xlink:href="#DejaVuSans-61" x="570.259766"/>
     <use xlink:href="#DejaVuSans-74" x="631.539062"/>
     <use xlink:href="#DejaVuSans-65" x="670.748047"/>
     <use xlink:href="#DejaVuSans-20" x="732.271484"/>
     <use xlink:href="#DejaVuSans-6f" x="764.058594"/>
     <use xlink:href="#DejaVuSans-76" x="825.240234"/>
     <use xlink:href="#DejaVuSans-65" x="884.419922"/>
     <use xlink:href="#DejaVuSans-72" x="945.943359"/>
     <use xlink:href="#DejaVuSans-20" x="987.056641"/>
     <use xlink:href="#DejaVuSans-54" x="1018.84375"/>
     <use xlink:href="#DejaVuSans-69" x="1076.802734"/>
     <use xlink:href="#DejaVuSans-6d" x="1104.585938"/>
     <use xlink:href="#DejaVuSans-65" x="1201.998047"/>
    </g>
   </g>
   <g id="legend_1">
    <g id="patch_7">
     <path d="M 602.139063 86.594375 
L 641 86.594375 
Q 643 86.594375 643 84.594375 
L 643 41.56 
Q 643 39.56 641 39.56 
L 602.139063 39.56 
Q 600.139063 39.56 600.139063 41.56 
L 600.139063 84.594375 
Q 600.139063 86.594375 602.139063 86.594375 
z
" style="fill: #ffffff; opacity: 0.8; stroke: #cccccc; stroke-linejoin: miter"/>
    </g>
    <g id="patch_8">
     <path d="M 604.139063 51.158438 
L 624.139063 51.158438 
L 624.139063 44.158438 
L 604.139063 44.158438 
z
" style="fill: #ff0000; stroke: #ff0000; stroke-width: 0.5; stroke-linejoin: miter"/>
    </g>
    <g id="text_24">
     <!-- I -->
     <g transform="translate(632.139063 51.158438) scale(0.1 -0.1)">
      <defs>
       <path id="DejaVuSans-49" d="M 628 4666 
L 1259 4666 
L 1259 0 
L 628 0 
L 628 4666 
z
" transform="scale(0.015625)"/>
      </defs>
      <use xlink:href="#DejaVuSans-49"/>
     </g>
    </g>
    <g id="patch_9">
     <path d="M 604.139063 65.836563 
L 624.139063 65.836563 
L 624.139063 58.836563 
L 604.139063 58.836563 
z
" style="fill: #0000ff; stroke: #0000ff; stroke-width: 0.5; stroke-linejoin: miter"/>
    </g>
    <g id="text_25">
     <!-- B -->
     <g transform="translate(632.139063 65.836563) scale(0.1 -0.1)">
      <use xlink:href="#DejaVuSans-42"/>
     </g>
    </g>
    <g id="patch_10">
     <path d="M 604.139063 80.514688 
L 624.139063 80.514688 
L 624.139063 73.514688 
L 604.139063 73.514688 
z
" style="fill: #008000; stroke: #008000; stroke-width: 0.5; stroke-linejoin: miter"/>
    </g>
    <g id="text_26">
     <!-- P -->
     <g transform="translate(632.139063 80.514688) scale(0.1 -0.1)">
      <defs>
       <path id="DejaVuSans-50" d="M 1259 4147 
L 1259 2394 
L 2053 2394 
Q 2494 2394 2734 2622 
Q 2975 2850 2975 3272 
Q 2975 3691 2734 3919 
Q 2494 4147 2053 4147 
L 1259 4147 
z
M 628 4666 
L 2053 4666 
Q 2838 4666 3239 4311 
Q 3641 3956 3641 3272 
Q 3641 2581 3239 2228 
Q 2838 1875 2053 1875 
L 1259 1875 
L 1259 0 
L 628 0 
L 628 4666 
z
" transform="scale(0.015625)"/>
      </defs>
      <use xlink:href="#DejaVuSans-50"/>
     </g>
    </g>
   </g>
  </g>
 </g>
 <defs>
  <clipPath id="p30d072c275">
   <rect x="90" y="34.56" width="558" height="221.76"/>
  </clipPath>
 </defs>
</svg>
