<?xml version="1.0" encoding="utf-8" standalone="no"?>
<!DOCTYPE svg PUBLIC "-//W3C//DTD SVG 1.1//EN"
  "http://www.w3.org/Graphics/SVG/1.1/DTD/svg11.dtd">
<svg xmlns:xlink="http://www.w3.org/1999/xlink" width="720pt" height="288pt" viewBox="0 0 720 288" xmlns="http://www.w3.org/2000/svg" version="1.1">
 <metadata>
  <rdf:RDF xmlns:dc="http://purl.org/dc/elements/1.1/" xmlns:cc="http://creativecommons.org/ns#" xmlns:rdf="http://www.w3.org/1999/02/22-rdf-syntax-ns#">
   <cc:Work>
    <dc:type rdf:resource="http://purl.org/dc/dcmitype/StillImage"/>
    <dc:date>2023-05-07T02:01:40.435619</dc:date>
    <dc:format>image/svg+xml</dc:format>
    <dc:creator>
     <cc:Agent>
      <dc:title>Matplotlib v3.7.1, https://matplotlib.org/</dc:title>
     </cc:Agent>
    </dc:creator>
   </cc:Work>
  </rdf:RDF>
 </metadata>
 <defs>
  <style type="text/css">*{stroke-linejoin: round; stroke-linecap: butt}</style>
 </defs>
 <g id="figure_1">
  <g id="patch_1">
   <path d="M 0 288 
L 720 288 
L 720 0 
L 0 0 
z
" style="fill: #ffffff"/>
  </g>
  <g id="axes_1">
   <g id="patch_2">
    <path d="M 90 256.32 
L 648 256.32 
L 648 34.56 
L 90 34.56 
z
" style="fill: #ffffff"/>
   </g>
   <g id="matplotlib.axis_1">
    <g id="xtick_1">
     <g id="line2d_1">
      <defs>
       <path id="me32d78e168" d="M 0 0 
L 0 3.5 
" style="stroke: #000000; stroke-width: 0.8"/>
      </defs>
      <g>
       <use xlink:href="#me32d78e168" x="115.363636" y="256.32" style="stroke: #000000; stroke-width: 0.8"/>
      </g>
     </g>
     <g id="text_1">
      <!-- 0:00:00 -->
      <g transform="translate(96.088636 270.918437) scale(0.1 -0.1)">
       <defs>
        <path id="DejaVuSans-30" d="M 2034 4250 
Q 1547 4250 1301 3770 
Q 1056 3291 1056 2328 
Q 1056 1369 1301 889 
Q 1547 409 2034 409 
Q 2525 409 2770 889 
Q 3016 1369 3016 2328 
Q 3016 3291 2770 3770 
Q 2525 4250 2034 4250 
z
M 2034 4750 
Q 2819 4750 3233 4129 
Q 3647 3509 3647 2328 
Q 3647 1150 3233 529 
Q 2819 -91 2034 -91 
Q 1250 -91 836 529 
Q 422 1150 422 2328 
Q 422 3509 836 4129 
Q 1250 4750 2034 4750 
z
" transform="scale(0.015625)"/>
        <path id="DejaVuSans-3a" d="M 750 794 
L 1409 794 
L 1409 0 
L 750 0 
L 750 794 
z
M 750 3309 
L 1409 3309 
L 1409 2516 
L 750 2516 
L 750 3309 
z
" transform="scale(0.015625)"/>
       </defs>
       <use xlink:href="#DejaVuSans-30"/>
       <use xlink:href="#DejaVuSans-3a" x="63.623047"/>
       <use xlink:href="#DejaVuSans-30" x="97.314453"/>
       <use xlink:href="#DejaVuSans-30" x="160.9375"/>
       <use xlink:href="#DejaVuSans-3a" x="224.560547"/>
       <use xlink:href="#DejaVuSans-30" x="258.251953"/>
       <use xlink:href="#DejaVuSans-30" x="321.875"/>
      </g>
     </g>
    </g>
    <g id="xtick_2">
     <g id="line2d_2">
      <g>
       <use xlink:href="#me32d78e168" x="166.090909" y="256.32" style="stroke: #000000; stroke-width: 0.8"/>
      </g>
     </g>
     <g id="text_2">
      <!-- 0:00:30 -->
      <g transform="translate(146.815909 270.918437) scale(0.1 -0.1)">
       <defs>
        <path id="DejaVuSans-33" d="M 2597 2516 
Q 3050 2419 3304 2112 
Q 3559 1806 3559 1356 
Q 3559 666 3084 287 
Q 2609 -91 1734 -91 
Q 1441 -91 1130 -33 
Q 819 25 488 141 
L 488 750 
Q 750 597 1062 519 
Q 1375 441 1716 441 
Q 2309 441 2620 675 
Q 2931 909 2931 1356 
Q 2931 1769 2642 2001 
Q 2353 2234 1838 2234 
L 1294 2234 
L 1294 2753 
L 1863 2753 
Q 2328 2753 2575 2939 
Q 2822 3125 2822 3475 
Q 2822 3834 2567 4026 
Q 2313 4219 1838 4219 
Q 1578 4219 1281 4162 
Q 984 4106 628 3988 
L 628 4550 
Q 988 4650 1302 4700 
Q 1616 4750 1894 4750 
Q 2613 4750 3031 4423 
Q 3450 4097 3450 3541 
Q 3450 3153 3228 2886 
Q 3006 2619 2597 2516 
z
" transform="scale(0.015625)"/>
       </defs>
       <use xlink:href="#DejaVuSans-30"/>
       <use xlink:href="#DejaVuSans-3a" x="63.623047"/>
       <use xlink:href="#DejaVuSans-30" x="97.314453"/>
       <use xlink:href="#DejaVuSans-30" x="160.9375"/>
       <use xlink:href="#DejaVuSans-3a" x="224.560547"/>
       <use xlink:href="#DejaVuSans-33" x="258.251953"/>
       <use xlink:href="#DejaVuSans-30" x="321.875"/>
      </g>
     </g>
    </g>
    <g id="xtick_3">
     <g id="line2d_3">
      <g>
       <use xlink:href="#me32d78e168" x="216.818182" y="256.32" style="stroke: #000000; stroke-width: 0.8"/>
      </g>
     </g>
     <g id="text_3">
      <!-- 0:01:00 -->
      <g transform="translate(197.543182 270.918437) scale(0.1 -0.1)">
       <defs>
        <path id="DejaVuSans-31" d="M 794 531 
L 1825 531 
L 1825 4091 
L 703 3866 
L 703 4441 
L 1819 4666 
L 2450 4666 
L 2450 531 
L 3481 531 
L 3481 0 
L 794 0 
L 794 531 
z
" transform="scale(0.015625)"/>
       </defs>
       <use xlink:href="#DejaVuSans-30"/>
       <use xlink:href="#DejaVuSans-3a" x="63.623047"/>
       <use xlink:href="#DejaVuSans-30" x="97.314453"/>
       <use xlink:href="#DejaVuSans-31" x="160.9375"/>
       <use xlink:href="#DejaVuSans-3a" x="224.560547"/>
       <use xlink:href="#DejaVuSans-30" x="258.251953"/>
       <use xlink:href="#DejaVuSans-30" x="321.875"/>
      </g>
     </g>
    </g>
    <g id="xtick_4">
     <g id="line2d_4">
      <g>
       <use xlink:href="#me32d78e168" x="267.545455" y="256.32" style="stroke: #000000; stroke-width: 0.8"/>
      </g>
     </g>
     <g id="text_4">
      <!-- 0:01:30 -->
      <g transform="translate(248.270455 270.918437) scale(0.1 -0.1)">
       <use xlink:href="#DejaVuSans-30"/>
       <use xlink:href="#DejaVuSans-3a" x="63.623047"/>
       <use xlink:href="#DejaVuSans-30" x="97.314453"/>
       <use xlink:href="#DejaVuSans-31" x="160.9375"/>
       <use xlink:href="#DejaVuSans-3a" x="224.560547"/>
       <use xlink:href="#DejaVuSans-33" x="258.251953"/>
       <use xlink:href="#DejaVuSans-30" x="321.875"/>
      </g>
     </g>
    </g>
    <g id="xtick_5">
     <g id="line2d_5">
      <g>
       <use xlink:href="#me32d78e168" x="318.272727" y="256.32" style="stroke: #000000; stroke-width: 0.8"/>
      </g>
     </g>
     <g id="text_5">
      <!-- 0:02:00 -->
      <g transform="translate(298.997727 270.918437) scale(0.1 -0.1)">
       <defs>
        <path id="DejaVuSans-32" d="M 1228 531 
L 3431 531 
L 3431 0 
L 469 0 
L 469 531 
Q 828 903 1448 1529 
Q 2069 2156 2228 2338 
Q 2531 2678 2651 2914 
Q 2772 3150 2772 3378 
Q 2772 3750 2511 3984 
Q 2250 4219 1831 4219 
Q 1534 4219 1204 4116 
Q 875 4013 500 3803 
L 500 4441 
Q 881 4594 1212 4672 
Q 1544 4750 1819 4750 
Q 2544 4750 2975 4387 
Q 3406 4025 3406 3419 
Q 3406 3131 3298 2873 
Q 3191 2616 2906 2266 
Q 2828 2175 2409 1742 
Q 1991 1309 1228 531 
z
" transform="scale(0.015625)"/>
       </defs>
       <use xlink:href="#DejaVuSans-30"/>
       <use xlink:href="#DejaVuSans-3a" x="63.623047"/>
       <use xlink:href="#DejaVuSans-30" x="97.314453"/>
       <use xlink:href="#DejaVuSans-32" x="160.9375"/>
       <use xlink:href="#DejaVuSans-3a" x="224.560547"/>
       <use xlink:href="#DejaVuSans-30" x="258.251953"/>
       <use xlink:href="#DejaVuSans-30" x="321.875"/>
      </g>
     </g>
    </g>
    <g id="xtick_6">
     <g id="line2d_6">
      <g>
       <use xlink:href="#me32d78e168" x="369" y="256.32" style="stroke: #000000; stroke-width: 0.8"/>
      </g>
     </g>
     <g id="text_6">
      <!-- 0:02:30 -->
      <g transform="translate(349.725 270.918437) scale(0.1 -0.1)">
       <use xlink:href="#DejaVuSans-30"/>
       <use xlink:href="#DejaVuSans-3a" x="63.623047"/>
       <use xlink:href="#DejaVuSans-30" x="97.314453"/>
       <use xlink:href="#DejaVuSans-32" x="160.9375"/>
       <use xlink:href="#DejaVuSans-3a" x="224.560547"/>
       <use xlink:href="#DejaVuSans-33" x="258.251953"/>
       <use xlink:href="#DejaVuSans-30" x="321.875"/>
      </g>
     </g>
    </g>
    <g id="xtick_7">
     <g id="line2d_7">
      <g>
       <use xlink:href="#me32d78e168" x="419.727273" y="256.32" style="stroke: #000000; stroke-width: 0.8"/>
      </g>
     </g>
     <g id="text_7">
      <!-- 0:03:00 -->
      <g transform="translate(400.452273 270.918437) scale(0.1 -0.1)">
       <use xlink:href="#DejaVuSans-30"/>
       <use xlink:href="#DejaVuSans-3a" x="63.623047"/>
       <use xlink:href="#DejaVuSans-30" x="97.314453"/>
       <use xlink:href="#DejaVuSans-33" x="160.9375"/>
       <use xlink:href="#DejaVuSans-3a" x="224.560547"/>
       <use xlink:href="#DejaVuSans-30" x="258.251953"/>
       <use xlink:href="#DejaVuSans-30" x="321.875"/>
      </g>
     </g>
    </g>
    <g id="xtick_8">
     <g id="line2d_8">
      <g>
       <use xlink:href="#me32d78e168" x="470.454545" y="256.32" style="stroke: #000000; stroke-width: 0.8"/>
      </g>
     </g>
     <g id="text_8">
      <!-- 0:03:30 -->
      <g transform="translate(451.179545 270.918437) scale(0.1 -0.1)">
       <use xlink:href="#DejaVuSans-30"/>
       <use xlink:href="#DejaVuSans-3a" x="63.623047"/>
       <use xlink:href="#DejaVuSans-30" x="97.314453"/>
       <use xlink:href="#DejaVuSans-33" x="160.9375"/>
       <use xlink:href="#DejaVuSans-3a" x="224.560547"/>
       <use xlink:href="#DejaVuSans-33" x="258.251953"/>
       <use xlink:href="#DejaVuSans-30" x="321.875"/>
      </g>
     </g>
    </g>
    <g id="xtick_9">
     <g id="line2d_9">
      <g>
       <use xlink:href="#me32d78e168" x="521.181818" y="256.32" style="stroke: #000000; stroke-width: 0.8"/>
      </g>
     </g>
     <g id="text_9">
      <!-- 0:04:00 -->
      <g transform="translate(501.906818 270.918437) scale(0.1 -0.1)">
       <defs>
        <path id="DejaVuSans-34" d="M 2419 4116 
L 825 1625 
L 2419 1625 
L 2419 4116 
z
M 2253 4666 
L 3047 4666 
L 3047 1625 
L 3713 1625 
L 3713 1100 
L 3047 1100 
L 3047 0 
L 2419 0 
L 2419 1100 
L 313 1100 
L 313 1709 
L 2253 4666 
z
" transform="scale(0.015625)"/>
       </defs>
       <use xlink:href="#DejaVuSans-30"/>
       <use xlink:href="#DejaVuSans-3a" x="63.623047"/>
       <use xlink:href="#DejaVuSans-30" x="97.314453"/>
       <use xlink:href="#DejaVuSans-34" x="160.9375"/>
       <use xlink:href="#DejaVuSans-3a" x="224.560547"/>
       <use xlink:href="#DejaVuSans-30" x="258.251953"/>
       <use xlink:href="#DejaVuSans-30" x="321.875"/>
      </g>
     </g>
    </g>
    <g id="xtick_10">
     <g id="line2d_10">
      <g>
       <use xlink:href="#me32d78e168" x="571.909091" y="256.32" style="stroke: #000000; stroke-width: 0.8"/>
      </g>
     </g>
     <g id="text_10">
      <!-- 0:04:30 -->
      <g transform="translate(552.634091 270.918437) scale(0.1 -0.1)">
       <use xlink:href="#DejaVuSans-30"/>
       <use xlink:href="#DejaVuSans-3a" x="63.623047"/>
       <use xlink:href="#DejaVuSans-30" x="97.314453"/>
       <use xlink:href="#DejaVuSans-34" x="160.9375"/>
       <use xlink:href="#DejaVuSans-3a" x="224.560547"/>
       <use xlink:href="#DejaVuSans-33" x="258.251953"/>
       <use xlink:href="#DejaVuSans-30" x="321.875"/>
      </g>
     </g>
    </g>
    <g id="xtick_11">
     <g id="line2d_11">
      <g>
       <use xlink:href="#me32d78e168" x="622.636364" y="256.32" style="stroke: #000000; stroke-width: 0.8"/>
      </g>
     </g>
     <g id="text_11">
      <!-- 0:05:00 -->
      <g transform="translate(603.361364 270.918437) scale(0.1 -0.1)">
       <defs>
        <path id="DejaVuSans-35" d="M 691 4666 
L 3169 4666 
L 3169 4134 
L 1269 4134 
L 1269 2991 
Q 1406 3038 1543 3061 
Q 1681 3084 1819 3084 
Q 2600 3084 3056 2656 
Q 3513 2228 3513 1497 
Q 3513 744 3044 326 
Q 2575 -91 1722 -91 
Q 1428 -91 1123 -41 
Q 819 9 494 109 
L 494 744 
Q 775 591 1075 516 
Q 1375 441 1709 441 
Q 2250 441 2565 725 
Q 2881 1009 2881 1497 
Q 2881 1984 2565 2268 
Q 2250 2553 1709 2553 
Q 1456 2553 1204 2497 
Q 953 2441 691 2322 
L 691 4666 
z
" transform="scale(0.015625)"/>
       </defs>
       <use xlink:href="#DejaVuSans-30"/>
       <use xlink:href="#DejaVuSans-3a" x="63.623047"/>
       <use xlink:href="#DejaVuSans-30" x="97.314453"/>
       <use xlink:href="#DejaVuSans-35" x="160.9375"/>
       <use xlink:href="#DejaVuSans-3a" x="224.560547"/>
       <use xlink:href="#DejaVuSans-30" x="258.251953"/>
       <use xlink:href="#DejaVuSans-30" x="321.875"/>
      </g>
     </g>
    </g>
    <g id="text_12">
     <!-- Time -->
     <g transform="translate(356.766406 284.596563) scale(0.1 -0.1)">
      <defs>
       <path id="DejaVuSans-54" d="M -19 4666 
L 3928 4666 
L 3928 4134 
L 2272 4134 
L 2272 0 
L 1638 0 
L 1638 4134 
L -19 4134 
L -19 4666 
z
" transform="scale(0.015625)"/>
       <path id="DejaVuSans-69" d="M 603 3500 
L 1178 3500 
L 1178 0 
L 603 0 
L 603 3500 
z
M 603 4863 
L 1178 4863 
L 1178 4134 
L 603 4134 
L 603 4863 
z
" transform="scale(0.015625)"/>
       <path id="DejaVuSans-6d" d="M 3328 2828 
Q 3544 3216 3844 3400 
Q 4144 3584 4550 3584 
Q 5097 3584 5394 3201 
Q 5691 2819 5691 2113 
L 5691 0 
L 5113 0 
L 5113 2094 
Q 5113 2597 4934 2840 
Q 4756 3084 4391 3084 
Q 3944 3084 3684 2787 
Q 3425 2491 3425 1978 
L 3425 0 
L 2847 0 
L 2847 2094 
Q 2847 2600 2669 2842 
Q 2491 3084 2119 3084 
Q 1678 3084 1418 2786 
Q 1159 2488 1159 1978 
L 1159 0 
L 581 0 
L 581 3500 
L 1159 3500 
L 1159 2956 
Q 1356 3278 1631 3431 
Q 1906 3584 2284 3584 
Q 2666 3584 2933 3390 
Q 3200 3197 3328 2828 
z
" transform="scale(0.015625)"/>
       <path id="DejaVuSans-65" d="M 3597 1894 
L 3597 1613 
L 953 1613 
Q 991 1019 1311 708 
Q 1631 397 2203 397 
Q 2534 397 2845 478 
Q 3156 559 3463 722 
L 3463 178 
Q 3153 47 2828 -22 
Q 2503 -91 2169 -91 
Q 1331 -91 842 396 
Q 353 884 353 1716 
Q 353 2575 817 3079 
Q 1281 3584 2069 3584 
Q 2775 3584 3186 3129 
Q 3597 2675 3597 1894 
z
M 3022 2063 
Q 3016 2534 2758 2815 
Q 2500 3097 2075 3097 
Q 1594 3097 1305 2825 
Q 1016 2553 972 2059 
L 3022 2063 
z
" transform="scale(0.015625)"/>
      </defs>
      <use xlink:href="#DejaVuSans-54"/>
      <use xlink:href="#DejaVuSans-69" x="57.958984"/>
      <use xlink:href="#DejaVuSans-6d" x="85.742188"/>
      <use xlink:href="#DejaVuSans-65" x="183.154297"/>
     </g>
    </g>
   </g>
   <g id="matplotlib.axis_2">
    <g id="ytick_1">
     <g id="line2d_12">
      <path d="M 90 246.24 
L 648 246.24 
" clip-path="url(#p8d58020e5d)" style="fill: none; stroke: #b0b0b0; stroke-width: 0.8; stroke-linecap: square"/>
     </g>
     <g id="line2d_13">
      <defs>
       <path id="me7d5e30adf" d="M 0 0 
L -3.5 0 
" style="stroke: #000000; stroke-width: 0.8"/>
      </defs>
      <g>
       <use xlink:href="#me7d5e30adf" x="90" y="246.24" style="stroke: #000000; stroke-width: 0.8"/>
      </g>
     </g>
     <g id="text_13">
      <!-- 0 -->
      <g transform="translate(76.6375 250.039219) scale(0.1 -0.1)">
       <use xlink:href="#DejaVuSans-30"/>
      </g>
     </g>
    </g>
    <g id="ytick_2">
     <g id="line2d_14">
      <path d="M 90 218.083575 
L 648 218.083575 
" clip-path="url(#p8d58020e5d)" style="fill: none; stroke: #b0b0b0; stroke-width: 0.8; stroke-linecap: square"/>
     </g>
     <g id="line2d_15">
      <g>
       <use xlink:href="#me7d5e30adf" x="90" y="218.083575" style="stroke: #000000; stroke-width: 0.8"/>
      </g>
     </g>
     <g id="text_14">
      <!-- 200 -->
      <g transform="translate(63.9125 221.882794) scale(0.1 -0.1)">
       <use xlink:href="#DejaVuSans-32"/>
       <use xlink:href="#DejaVuSans-30" x="63.623047"/>
       <use xlink:href="#DejaVuSans-30" x="127.246094"/>
      </g>
     </g>
    </g>
    <g id="ytick_3">
     <g id="line2d_16">
      <path d="M 90 189.927151 
L 648 189.927151 
" clip-path="url(#p8d58020e5d)" style="fill: none; stroke: #b0b0b0; stroke-width: 0.8; stroke-linecap: square"/>
     </g>
     <g id="line2d_17">
      <g>
       <use xlink:href="#me7d5e30adf" x="90" y="189.927151" style="stroke: #000000; stroke-width: 0.8"/>
      </g>
     </g>
     <g id="text_15">
      <!-- 400 -->
      <g transform="translate(63.9125 193.72637) scale(0.1 -0.1)">
       <use xlink:href="#DejaVuSans-34"/>
       <use xlink:href="#DejaVuSans-30" x="63.623047"/>
       <use xlink:href="#DejaVuSans-30" x="127.246094"/>
      </g>
     </g>
    </g>
    <g id="ytick_4">
     <g id="line2d_18">
      <path d="M 90 161.770726 
L 648 161.770726 
" clip-path="url(#p8d58020e5d)" style="fill: none; stroke: #b0b0b0; stroke-width: 0.8; stroke-linecap: square"/>
     </g>
     <g id="line2d_19">
      <g>
       <use xlink:href="#me7d5e30adf" x="90" y="161.770726" style="stroke: #000000; stroke-width: 0.8"/>
      </g>
     </g>
     <g id="text_16">
      <!-- 600 -->
      <g transform="translate(63.9125 165.569945) scale(0.1 -0.1)">
       <defs>
        <path id="DejaVuSans-36" d="M 2113 2584 
Q 1688 2584 1439 2293 
Q 1191 2003 1191 1497 
Q 1191 994 1439 701 
Q 1688 409 2113 409 
Q 2538 409 2786 701 
Q 3034 994 3034 1497 
Q 3034 2003 2786 2293 
Q 2538 2584 2113 2584 
z
M 3366 4563 
L 3366 3988 
Q 3128 4100 2886 4159 
Q 2644 4219 2406 4219 
Q 1781 4219 1451 3797 
Q 1122 3375 1075 2522 
Q 1259 2794 1537 2939 
Q 1816 3084 2150 3084 
Q 2853 3084 3261 2657 
Q 3669 2231 3669 1497 
Q 3669 778 3244 343 
Q 2819 -91 2113 -91 
Q 1303 -91 875 529 
Q 447 1150 447 2328 
Q 447 3434 972 4092 
Q 1497 4750 2381 4750 
Q 2619 4750 2861 4703 
Q 3103 4656 3366 4563 
z
" transform="scale(0.015625)"/>
       </defs>
       <use xlink:href="#DejaVuSans-36"/>
       <use xlink:href="#DejaVuSans-30" x="63.623047"/>
       <use xlink:href="#DejaVuSans-30" x="127.246094"/>
      </g>
     </g>
    </g>
    <g id="ytick_5">
     <g id="line2d_20">
      <path d="M 90 133.614302 
L 648 133.614302 
" clip-path="url(#p8d58020e5d)" style="fill: none; stroke: #b0b0b0; stroke-width: 0.8; stroke-linecap: square"/>
     </g>
     <g id="line2d_21">
      <g>
       <use xlink:href="#me7d5e30adf" x="90" y="133.614302" style="stroke: #000000; stroke-width: 0.8"/>
      </g>
     </g>
     <g id="text_17">
      <!-- 800 -->
      <g transform="translate(63.9125 137.41352) scale(0.1 -0.1)">
       <defs>
        <path id="DejaVuSans-38" d="M 2034 2216 
Q 1584 2216 1326 1975 
Q 1069 1734 1069 1313 
Q 1069 891 1326 650 
Q 1584 409 2034 409 
Q 2484 409 2743 651 
Q 3003 894 3003 1313 
Q 3003 1734 2745 1975 
Q 2488 2216 2034 2216 
z
M 1403 2484 
Q 997 2584 770 2862 
Q 544 3141 544 3541 
Q 544 4100 942 4425 
Q 1341 4750 2034 4750 
Q 2731 4750 3128 4425 
Q 3525 4100 3525 3541 
Q 3525 3141 3298 2862 
Q 3072 2584 2669 2484 
Q 3125 2378 3379 2068 
Q 3634 1759 3634 1313 
Q 3634 634 3220 271 
Q 2806 -91 2034 -91 
Q 1263 -91 848 271 
Q 434 634 434 1313 
Q 434 1759 690 2068 
Q 947 2378 1403 2484 
z
M 1172 3481 
Q 1172 3119 1398 2916 
Q 1625 2713 2034 2713 
Q 2441 2713 2670 2916 
Q 2900 3119 2900 3481 
Q 2900 3844 2670 4047 
Q 2441 4250 2034 4250 
Q 1625 4250 1398 4047 
Q 1172 3844 1172 3481 
z
" transform="scale(0.015625)"/>
       </defs>
       <use xlink:href="#DejaVuSans-38"/>
       <use xlink:href="#DejaVuSans-30" x="63.623047"/>
       <use xlink:href="#DejaVuSans-30" x="127.246094"/>
      </g>
     </g>
    </g>
    <g id="ytick_6">
     <g id="line2d_22">
      <path d="M 90 105.457877 
L 648 105.457877 
" clip-path="url(#p8d58020e5d)" style="fill: none; stroke: #b0b0b0; stroke-width: 0.8; stroke-linecap: square"/>
     </g>
     <g id="line2d_23">
      <g>
       <use xlink:href="#me7d5e30adf" x="90" y="105.457877" style="stroke: #000000; stroke-width: 0.8"/>
      </g>
     </g>
     <g id="text_18">
      <!-- 1,000 -->
      <g transform="translate(54.371875 109.257096) scale(0.1 -0.1)">
       <defs>
        <path id="DejaVuSans-2c" d="M 750 794 
L 1409 794 
L 1409 256 
L 897 -744 
L 494 -744 
L 750 256 
L 750 794 
z
" transform="scale(0.015625)"/>
       </defs>
       <use xlink:href="#DejaVuSans-31"/>
       <use xlink:href="#DejaVuSans-2c" x="63.623047"/>
       <use xlink:href="#DejaVuSans-30" x="95.410156"/>
       <use xlink:href="#DejaVuSans-30" x="159.033203"/>
       <use xlink:href="#DejaVuSans-30" x="222.65625"/>
      </g>
     </g>
    </g>
    <g id="ytick_7">
     <g id="line2d_24">
      <path d="M 90 77.301453 
L 648 77.301453 
" clip-path="url(#p8d58020e5d)" style="fill: none; stroke: #b0b0b0; stroke-width: 0.8; stroke-linecap: square"/>
     </g>
     <g id="line2d_25">
      <g>
       <use xlink:href="#me7d5e30adf" x="90" y="77.301453" style="stroke: #000000; stroke-width: 0.8"/>
      </g>
     </g>
     <g id="text_19">
      <!-- 1,200 -->
      <g transform="translate(54.371875 81.100671) scale(0.1 -0.1)">
       <use xlink:href="#DejaVuSans-31"/>
       <use xlink:href="#DejaVuSans-2c" x="63.623047"/>
       <use xlink:href="#DejaVuSans-32" x="95.410156"/>
       <use xlink:href="#DejaVuSans-30" x="159.033203"/>
       <use xlink:href="#DejaVuSans-30" x="222.65625"/>
      </g>
     </g>
    </g>
    <g id="ytick_8">
     <g id="line2d_26">
      <path d="M 90 49.145028 
L 648 49.145028 
" clip-path="url(#p8d58020e5d)" style="fill: none; stroke: #b0b0b0; stroke-width: 0.8; stroke-linecap: square"/>
     </g>
     <g id="line2d_27">
      <g>
       <use xlink:href="#me7d5e30adf" x="90" y="49.145028" style="stroke: #000000; stroke-width: 0.8"/>
      </g>
     </g>
     <g id="text_20">
      <!-- 1,400 -->
      <g transform="translate(54.371875 52.944247) scale(0.1 -0.1)">
       <use xlink:href="#DejaVuSans-31"/>
       <use xlink:href="#DejaVuSans-2c" x="63.623047"/>
       <use xlink:href="#DejaVuSans-34" x="95.410156"/>
       <use xlink:href="#DejaVuSans-30" x="159.033203"/>
       <use xlink:href="#DejaVuSans-30" x="222.65625"/>
      </g>
     </g>
    </g>
    <g id="text_21">
     <!-- Bitrate (kbit/s) -->
     <g transform="translate(48.292187 181.574375) rotate(-90) scale(0.1 -0.1)">
      <defs>
       <path id="DejaVuSans-42" d="M 1259 2228 
L 1259 519 
L 2272 519 
Q 2781 519 3026 730 
Q 3272 941 3272 1375 
Q 3272 1813 3026 2020 
Q 2781 2228 2272 2228 
L 1259 2228 
z
M 1259 4147 
L 1259 2741 
L 2194 2741 
Q 2656 2741 2882 2914 
Q 3109 3088 3109 3444 
Q 3109 3797 2882 3972 
Q 2656 4147 2194 4147 
L 1259 4147 
z
M 628 4666 
L 2241 4666 
Q 2963 4666 3353 4366 
Q 3744 4066 3744 3513 
Q 3744 3084 3544 2831 
Q 3344 2578 2956 2516 
Q 3422 2416 3680 2098 
Q 3938 1781 3938 1306 
Q 3938 681 3513 340 
Q 3088 0 2303 0 
L 628 0 
L 628 4666 
z
" transform="scale(0.015625)"/>
       <path id="DejaVuSans-74" d="M 1172 4494 
L 1172 3500 
L 2356 3500 
L 2356 3053 
L 1172 3053 
L 1172 1153 
Q 1172 725 1289 603 
Q 1406 481 1766 481 
L 2356 481 
L 2356 0 
L 1766 0 
Q 1100 0 847 248 
Q 594 497 594 1153 
L 594 3053 
L 172 3053 
L 172 3500 
L 594 3500 
L 594 4494 
L 1172 4494 
z
" transform="scale(0.015625)"/>
       <path id="DejaVuSans-72" d="M 2631 2963 
Q 2534 3019 2420 3045 
Q 2306 3072 2169 3072 
Q 1681 3072 1420 2755 
Q 1159 2438 1159 1844 
L 1159 0 
L 581 0 
L 581 3500 
L 1159 3500 
L 1159 2956 
Q 1341 3275 1631 3429 
Q 1922 3584 2338 3584 
Q 2397 3584 2469 3576 
Q 2541 3569 2628 3553 
L 2631 2963 
z
" transform="scale(0.015625)"/>
       <path id="DejaVuSans-61" d="M 2194 1759 
Q 1497 1759 1228 1600 
Q 959 1441 959 1056 
Q 959 750 1161 570 
Q 1363 391 1709 391 
Q 2188 391 2477 730 
Q 2766 1069 2766 1631 
L 2766 1759 
L 2194 1759 
z
M 3341 1997 
L 3341 0 
L 2766 0 
L 2766 531 
Q 2569 213 2275 61 
Q 1981 -91 1556 -91 
Q 1019 -91 701 211 
Q 384 513 384 1019 
Q 384 1609 779 1909 
Q 1175 2209 1959 2209 
L 2766 2209 
L 2766 2266 
Q 2766 2663 2505 2880 
Q 2244 3097 1772 3097 
Q 1472 3097 1187 3025 
Q 903 2953 641 2809 
L 641 3341 
Q 956 3463 1253 3523 
Q 1550 3584 1831 3584 
Q 2591 3584 2966 3190 
Q 3341 2797 3341 1997 
z
" transform="scale(0.015625)"/>
       <path id="DejaVuSans-20" transform="scale(0.015625)"/>
       <path id="DejaVuSans-28" d="M 1984 4856 
Q 1566 4138 1362 3434 
Q 1159 2731 1159 2009 
Q 1159 1288 1364 580 
Q 1569 -128 1984 -844 
L 1484 -844 
Q 1016 -109 783 600 
Q 550 1309 550 2009 
Q 550 2706 781 3412 
Q 1013 4119 1484 4856 
L 1984 4856 
z
" transform="scale(0.015625)"/>
       <path id="DejaVuSans-6b" d="M 581 4863 
L 1159 4863 
L 1159 1991 
L 2875 3500 
L 3609 3500 
L 1753 1863 
L 3688 0 
L 2938 0 
L 1159 1709 
L 1159 0 
L 581 0 
L 581 4863 
z
" transform="scale(0.015625)"/>
       <path id="DejaVuSans-62" d="M 3116 1747 
Q 3116 2381 2855 2742 
Q 2594 3103 2138 3103 
Q 1681 3103 1420 2742 
Q 1159 2381 1159 1747 
Q 1159 1113 1420 752 
Q 1681 391 2138 391 
Q 2594 391 2855 752 
Q 3116 1113 3116 1747 
z
M 1159 2969 
Q 1341 3281 1617 3432 
Q 1894 3584 2278 3584 
Q 2916 3584 3314 3078 
Q 3713 2572 3713 1747 
Q 3713 922 3314 415 
Q 2916 -91 2278 -91 
Q 1894 -91 1617 61 
Q 1341 213 1159 525 
L 1159 0 
L 581 0 
L 581 4863 
L 1159 4863 
L 1159 2969 
z
" transform="scale(0.015625)"/>
       <path id="DejaVuSans-2f" d="M 1625 4666 
L 2156 4666 
L 531 -594 
L 0 -594 
L 1625 4666 
z
" transform="scale(0.015625)"/>
       <path id="DejaVuSans-73" d="M 2834 3397 
L 2834 2853 
Q 2591 2978 2328 3040 
Q 2066 3103 1784 3103 
Q 1356 3103 1142 2972 
Q 928 2841 928 2578 
Q 928 2378 1081 2264 
Q 1234 2150 1697 2047 
L 1894 2003 
Q 2506 1872 2764 1633 
Q 3022 1394 3022 966 
Q 3022 478 2636 193 
Q 2250 -91 1575 -91 
Q 1294 -91 989 -36 
Q 684 19 347 128 
L 347 722 
Q 666 556 975 473 
Q 1284 391 1588 391 
Q 1994 391 2212 530 
Q 2431 669 2431 922 
Q 2431 1156 2273 1281 
Q 2116 1406 1581 1522 
L 1381 1569 
Q 847 1681 609 1914 
Q 372 2147 372 2553 
Q 372 3047 722 3315 
Q 1072 3584 1716 3584 
Q 2034 3584 2315 3537 
Q 2597 3491 2834 3397 
z
" transform="scale(0.015625)"/>
       <path id="DejaVuSans-29" d="M 513 4856 
L 1013 4856 
Q 1481 4119 1714 3412 
Q 1947 2706 1947 2009 
Q 1947 1309 1714 600 
Q 1481 -109 1013 -844 
L 513 -844 
Q 928 -128 1133 580 
Q 1338 1288 1338 2009 
Q 1338 2731 1133 3434 
Q 928 4138 513 4856 
z
" transform="scale(0.015625)"/>
      </defs>
      <use xlink:href="#DejaVuSans-42"/>
      <use xlink:href="#DejaVuSans-69" x="68.603516"/>
      <use xlink:href="#DejaVuSans-74" x="96.386719"/>
      <use xlink:href="#DejaVuSans-72" x="135.595703"/>
      <use xlink:href="#DejaVuSans-61" x="176.708984"/>
      <use xlink:href="#DejaVuSans-74" x="237.988281"/>
      <use xlink:href="#DejaVuSans-65" x="277.197266"/>
      <use xlink:href="#DejaVuSans-20" x="338.720703"/>
      <use xlink:href="#DejaVuSans-28" x="370.507812"/>
      <use xlink:href="#DejaVuSans-6b" x="409.521484"/>
      <use xlink:href="#DejaVuSans-62" x="467.431641"/>
      <use xlink:href="#DejaVuSans-69" x="530.908203"/>
      <use xlink:href="#DejaVuSans-74" x="558.691406"/>
      <use xlink:href="#DejaVuSans-2f" x="597.900391"/>
      <use xlink:href="#DejaVuSans-73" x="631.591797"/>
      <use xlink:href="#DejaVuSans-29" x="683.691406"/>
     </g>
    </g>
   </g>
   <g id="PolyCollection_1">
    <defs>
     <path id="m8eb18bc411" d="M 115.363636 -42.463911 
L 115.363636 -41.76 
L 117.054545 -41.76 
L 118.745455 -41.76 
L 120.436364 -41.76 
L 122.127273 -41.76 
L 123.818182 -41.76 
L 125.509091 -41.76 
L 127.2 -41.76 
L 128.890909 -41.76 
L 130.581818 -41.76 
L 132.272727 -41.76 
L 133.963636 -41.76 
L 135.654545 -41.76 
L 137.345455 -41.76 
L 139.036364 -41.76 
L 140.727273 -41.76 
L 142.418182 -41.76 
L 144.109091 -41.76 
L 145.8 -41.76 
L 147.490909 -41.76 
L 149.181818 -41.76 
L 150.872727 -41.76 
L 152.563636 -41.76 
L 154.254545 -41.76 
L 155.945455 -41.76 
L 157.636364 -41.76 
L 159.327273 -41.76 
L 161.018182 -41.76 
L 162.709091 -41.76 
L 164.4 -41.76 
L 166.090909 -41.76 
L 167.781818 -41.76 
L 169.472727 -41.76 
L 171.163636 -41.76 
L 172.854545 -41.76 
L 174.545455 -41.76 
L 176.236364 -41.76 
L 177.927273 -41.76 
L 179.618182 -41.76 
L 181.309091 -41.76 
L 183 -41.76 
L 184.690909 -41.76 
L 186.381818 -41.76 
L 188.072727 -41.76 
L 189.763636 -41.76 
L 191.454545 -41.76 
L 193.145455 -41.76 
L 194.836364 -41.76 
L 196.527273 -41.76 
L 198.218182 -41.76 
L 199.909091 -41.76 
L 201.6 -41.76 
L 203.290909 -41.76 
L 204.981818 -41.76 
L 206.672727 -41.76 
L 208.363636 -41.76 
L 210.054545 -41.76 
L 211.745455 -41.76 
L 213.436364 -41.76 
L 215.127273 -41.76 
L 216.818182 -41.76 
L 218.509091 -41.76 
L 220.2 -41.76 
L 221.890909 -41.76 
L 223.581818 -41.76 
L 225.272727 -41.76 
L 226.963636 -41.76 
L 228.654545 -41.76 
L 230.345455 -41.76 
L 232.036364 -41.76 
L 233.727273 -41.76 
L 235.418182 -41.76 
L 237.109091 -41.76 
L 238.8 -41.76 
L 240.490909 -41.76 
L 242.181818 -41.76 
L 243.872727 -41.76 
L 245.563636 -41.76 
L 247.254545 -41.76 
L 248.945455 -41.76 
L 250.636364 -41.76 
L 252.327273 -41.76 
L 254.018182 -41.76 
L 255.709091 -41.76 
L 257.4 -41.76 
L 259.090909 -41.76 
L 260.781818 -41.76 
L 262.472727 -41.76 
L 264.163636 -41.76 
L 265.854545 -41.76 
L 267.545455 -41.76 
L 269.236364 -41.76 
L 270.927273 -41.76 
L 272.618182 -41.76 
L 274.309091 -41.76 
L 276 -41.76 
L 277.690909 -41.76 
L 279.381818 -41.76 
L 281.072727 -41.76 
L 282.763636 -41.76 
L 284.454545 -41.76 
L 286.145455 -41.76 
L 287.836364 -41.76 
L 289.527273 -41.76 
L 291.218182 -41.76 
L 292.909091 -41.76 
L 294.6 -41.76 
L 296.290909 -41.76 
L 297.981818 -41.76 
L 299.672727 -41.76 
L 301.363636 -41.76 
L 303.054545 -41.76 
L 304.745455 -41.76 
L 306.436364 -41.76 
L 308.127273 -41.76 
L 309.818182 -41.76 
L 311.509091 -41.76 
L 313.2 -41.76 
L 314.890909 -41.76 
L 316.581818 -41.76 
L 318.272727 -41.76 
L 319.963636 -41.76 
L 321.654545 -41.76 
L 323.345455 -41.76 
L 325.036364 -41.76 
L 326.727273 -41.76 
L 328.418182 -41.76 
L 330.109091 -41.76 
L 331.8 -41.76 
L 333.490909 -41.76 
L 335.181818 -41.76 
L 336.872727 -41.76 
L 338.563636 -41.76 
L 340.254545 -41.76 
L 341.945455 -41.76 
L 343.636364 -41.76 
L 345.327273 -41.76 
L 347.018182 -41.76 
L 348.709091 -41.76 
L 350.4 -41.76 
L 352.090909 -41.76 
L 353.781818 -41.76 
L 355.472727 -41.76 
L 357.163636 -41.76 
L 358.854545 -41.76 
L 360.545455 -41.76 
L 362.236364 -41.76 
L 363.927273 -41.76 
L 365.618182 -41.76 
L 367.309091 -41.76 
L 369 -41.76 
L 370.690909 -41.76 
L 372.381818 -41.76 
L 374.072727 -41.76 
L 375.763636 -41.76 
L 377.454545 -41.76 
L 379.145455 -41.76 
L 380.836364 -41.76 
L 382.527273 -41.76 
L 384.218182 -41.76 
L 385.909091 -41.76 
L 387.6 -41.76 
L 389.290909 -41.76 
L 390.981818 -41.76 
L 392.672727 -41.76 
L 394.363636 -41.76 
L 396.054545 -41.76 
L 397.745455 -41.76 
L 399.436364 -41.76 
L 401.127273 -41.76 
L 402.818182 -41.76 
L 404.509091 -41.76 
L 406.2 -41.76 
L 407.890909 -41.76 
L 409.581818 -41.76 
L 411.272727 -41.76 
L 412.963636 -41.76 
L 414.654545 -41.76 
L 416.345455 -41.76 
L 418.036364 -41.76 
L 419.727273 -41.76 
L 421.418182 -41.76 
L 423.109091 -41.76 
L 424.8 -41.76 
L 426.490909 -41.76 
L 428.181818 -41.76 
L 429.872727 -41.76 
L 431.563636 -41.76 
L 433.254545 -41.76 
L 434.945455 -41.76 
L 436.636364 -41.76 
L 438.327273 -41.76 
L 440.018182 -41.76 
L 441.709091 -41.76 
L 443.4 -41.76 
L 445.090909 -41.76 
L 446.781818 -41.76 
L 448.472727 -41.76 
L 450.163636 -41.76 
L 451.854545 -41.76 
L 453.545455 -41.76 
L 455.236364 -41.76 
L 456.927273 -41.76 
L 458.618182 -41.76 
L 460.309091 -41.76 
L 462 -41.76 
L 463.690909 -41.76 
L 465.381818 -41.76 
L 467.072727 -41.76 
L 468.763636 -41.76 
L 470.454545 -41.76 
L 472.145455 -41.76 
L 473.836364 -41.76 
L 475.527273 -41.76 
L 477.218182 -41.76 
L 478.909091 -41.76 
L 480.6 -41.76 
L 482.290909 -41.76 
L 483.981818 -41.76 
L 485.672727 -41.76 
L 487.363636 -41.76 
L 489.054545 -41.76 
L 490.745455 -41.76 
L 492.436364 -41.76 
L 494.127273 -41.76 
L 495.818182 -41.76 
L 497.509091 -41.76 
L 499.2 -41.76 
L 500.890909 -41.76 
L 502.581818 -41.76 
L 504.272727 -41.76 
L 505.963636 -41.76 
L 507.654545 -41.76 
L 509.345455 -41.76 
L 511.036364 -41.76 
L 512.727273 -41.76 
L 514.418182 -41.76 
L 516.109091 -41.76 
L 517.8 -41.76 
L 519.490909 -41.76 
L 521.181818 -41.76 
L 522.872727 -41.76 
L 524.563636 -41.76 
L 526.254545 -41.76 
L 527.945455 -41.76 
L 529.636364 -41.76 
L 531.327273 -41.76 
L 533.018182 -41.76 
L 534.709091 -41.76 
L 536.4 -41.76 
L 538.090909 -41.76 
L 539.781818 -41.76 
L 541.472727 -41.76 
L 543.163636 -41.76 
L 544.854545 -41.76 
L 546.545455 -41.76 
L 548.236364 -41.76 
L 549.927273 -41.76 
L 551.618182 -41.76 
L 553.309091 -41.76 
L 555 -41.76 
L 556.690909 -41.76 
L 558.381818 -41.76 
L 560.072727 -41.76 
L 561.763636 -41.76 
L 563.454545 -41.76 
L 565.145455 -41.76 
L 566.836364 -41.76 
L 568.527273 -41.76 
L 570.218182 -41.76 
L 571.909091 -41.76 
L 573.6 -41.76 
L 575.290909 -41.76 
L 576.981818 -41.76 
L 578.672727 -41.76 
L 580.363636 -41.76 
L 582.054545 -41.76 
L 583.745455 -41.76 
L 585.436364 -41.76 
L 587.127273 -41.76 
L 588.818182 -41.76 
L 590.509091 -41.76 
L 592.2 -41.76 
L 593.890909 -41.76 
L 595.581818 -41.76 
L 597.272727 -41.76 
L 598.963636 -41.76 
L 600.654545 -41.76 
L 602.345455 -41.76 
L 604.036364 -41.76 
L 605.727273 -41.76 
L 607.418182 -41.76 
L 609.109091 -41.76 
L 610.8 -41.76 
L 612.490909 -41.76 
L 614.181818 -41.76 
L 615.872727 -41.76 
L 617.563636 -41.76 
L 619.254545 -41.76 
L 620.945455 -41.76 
L 622.636364 -41.76 
L 622.636364 -41.76 
L 622.636364 -41.76 
L 620.945455 -41.76 
L 619.254545 -41.76 
L 617.563636 -41.76 
L 615.872727 -41.76 
L 614.181818 -41.76 
L 612.490909 -41.76 
L 610.8 -41.76 
L 609.109091 -41.76 
L 607.418182 -41.76 
L 605.727273 -41.76 
L 604.036364 -41.76 
L 602.345455 -41.76 
L 600.654545 -41.76 
L 598.963636 -41.76 
L 597.272727 -41.76 
L 595.581818 -41.76 
L 593.890909 -41.76 
L 592.2 -41.76 
L 590.509091 -41.76 
L 588.818182 -41.76 
L 587.127273 -41.76 
L 585.436364 -41.76 
L 583.745455 -41.76 
L 582.054545 -41.76 
L 580.363636 -41.76 
L 578.672727 -41.76 
L 576.981818 -41.76 
L 575.290909 -41.76 
L 573.6 -41.76 
L 571.909091 -41.76 
L 570.218182 -41.76 
L 568.527273 -41.76 
L 566.836364 -41.76 
L 565.145455 -41.76 
L 563.454545 -41.76 
L 561.763636 -41.76 
L 560.072727 -41.76 
L 558.381818 -41.76 
L 556.690909 -41.76 
L 555 -41.76 
L 553.309091 -41.76 
L 551.618182 -41.76 
L 549.927273 -41.76 
L 548.236364 -41.76 
L 546.545455 -41.76 
L 544.854545 -41.76 
L 543.163636 -41.76 
L 541.472727 -41.76 
L 539.781818 -41.76 
L 538.090909 -41.76 
L 536.4 -41.76 
L 534.709091 -41.76 
L 533.018182 -41.76 
L 531.327273 -41.76 
L 529.636364 -41.76 
L 527.945455 -41.76 
L 526.254545 -41.76 
L 524.563636 -41.76 
L 522.872727 -41.76 
L 521.181818 -41.76 
L 519.490909 -41.76 
L 517.8 -41.76 
L 516.109091 -41.76 
L 514.418182 -41.76 
L 512.727273 -41.76 
L 511.036364 -41.76 
L 509.345455 -41.76 
L 507.654545 -41.76 
L 505.963636 -41.76 
L 504.272727 -41.76 
L 502.581818 -41.76 
L 500.890909 -41.76 
L 499.2 -41.76 
L 497.509091 -41.76 
L 495.818182 -41.76 
L 494.127273 -41.76 
L 492.436364 -41.76 
L 490.745455 -41.76 
L 489.054545 -41.76 
L 487.363636 -41.76 
L 485.672727 -41.76 
L 483.981818 -41.76 
L 482.290909 -41.76 
L 480.6 -41.76 
L 478.909091 -41.76 
L 477.218182 -41.76 
L 475.527273 -41.76 
L 473.836364 -41.76 
L 472.145455 -41.76 
L 470.454545 -41.76 
L 468.763636 -41.76 
L 467.072727 -41.76 
L 465.381818 -41.76 
L 463.690909 -41.76 
L 462 -41.76 
L 460.309091 -41.76 
L 458.618182 -41.76 
L 456.927273 -41.76 
L 455.236364 -41.76 
L 453.545455 -41.76 
L 451.854545 -41.76 
L 450.163636 -41.76 
L 448.472727 -41.76 
L 446.781818 -41.76 
L 445.090909 -41.76 
L 443.4 -41.76 
L 441.709091 -41.76 
L 440.018182 -41.76 
L 438.327273 -41.76 
L 436.636364 -41.76 
L 434.945455 -41.76 
L 433.254545 -41.76 
L 431.563636 -41.76 
L 429.872727 -41.76 
L 428.181818 -41.76 
L 426.490909 -41.76 
L 424.8 -41.76 
L 423.109091 -41.76 
L 421.418182 -41.76 
L 419.727273 -41.76 
L 418.036364 -41.76 
L 416.345455 -41.76 
L 414.654545 -41.76 
L 412.963636 -41.76 
L 411.272727 -41.76 
L 409.581818 -41.76 
L 407.890909 -41.76 
L 406.2 -41.76 
L 404.509091 -41.76 
L 402.818182 -41.76 
L 401.127273 -41.76 
L 399.436364 -41.76 
L 397.745455 -41.76 
L 396.054545 -41.76 
L 394.363636 -41.76 
L 392.672727 -41.76 
L 390.981818 -41.76 
L 389.290909 -41.76 
L 387.6 -41.76 
L 385.909091 -41.76 
L 384.218182 -41.76 
L 382.527273 -41.76 
L 380.836364 -41.76 
L 379.145455 -41.76 
L 377.454545 -41.76 
L 375.763636 -41.76 
L 374.072727 -41.76 
L 372.381818 -41.76 
L 370.690909 -41.76 
L 369 -41.76 
L 367.309091 -41.76 
L 365.618182 -41.76 
L 363.927273 -41.76 
L 362.236364 -41.76 
L 360.545455 -41.76 
L 358.854545 -41.76 
L 357.163636 -41.76 
L 355.472727 -41.76 
L 353.781818 -41.76 
L 352.090909 -41.76 
L 350.4 -41.76 
L 348.709091 -41.76 
L 347.018182 -41.76 
L 345.327273 -41.76 
L 343.636364 -41.76 
L 341.945455 -41.76 
L 340.254545 -41.76 
L 338.563636 -41.76 
L 336.872727 -41.76 
L 335.181818 -41.76 
L 333.490909 -41.76 
L 331.8 -41.76 
L 330.109091 -41.76 
L 328.418182 -41.76 
L 326.727273 -41.76 
L 325.036364 -41.76 
L 323.345455 -41.76 
L 321.654545 -41.76 
L 319.963636 -41.76 
L 318.272727 -41.76 
L 316.581818 -41.76 
L 314.890909 -41.76 
L 313.2 -41.76 
L 311.509091 -41.76 
L 309.818182 -41.76 
L 308.127273 -41.76 
L 306.436364 -41.76 
L 304.745455 -41.76 
L 303.054545 -41.76 
L 301.363636 -41.76 
L 299.672727 -41.76 
L 297.981818 -41.76 
L 296.290909 -41.76 
L 294.6 -41.76 
L 292.909091 -41.76 
L 291.218182 -41.76 
L 289.527273 -41.76 
L 287.836364 -41.76 
L 286.145455 -41.76 
L 284.454545 -41.76 
L 282.763636 -41.76 
L 281.072727 -41.76 
L 279.381818 -41.76 
L 277.690909 -41.76 
L 276 -41.76 
L 274.309091 -41.76 
L 272.618182 -41.76 
L 270.927273 -41.76 
L 269.236364 -41.76 
L 267.545455 -41.76 
L 265.854545 -41.76 
L 264.163636 -41.76 
L 262.472727 -41.76 
L 260.781818 -41.76 
L 259.090909 -41.76 
L 257.4 -41.76 
L 255.709091 -41.76 
L 254.018182 -41.76 
L 252.327273 -41.76 
L 250.636364 -41.76 
L 248.945455 -41.76 
L 247.254545 -41.76 
L 245.563636 -41.76 
L 243.872727 -41.76 
L 242.181818 -41.76 
L 240.490909 -41.76 
L 238.8 -41.76 
L 237.109091 -41.76 
L 235.418182 -41.76 
L 233.727273 -41.76 
L 232.036364 -41.76 
L 230.345455 -41.76 
L 228.654545 -41.76 
L 226.963636 -41.76 
L 225.272727 -41.76 
L 223.581818 -41.76 
L 221.890909 -41.76 
L 220.2 -41.76 
L 218.509091 -41.76 
L 216.818182 -41.76 
L 215.127273 -41.76 
L 213.436364 -41.76 
L 211.745455 -41.76 
L 210.054545 -41.76 
L 208.363636 -41.76 
L 206.672727 -41.76 
L 204.981818 -41.76 
L 203.290909 -41.76 
L 201.6 -41.76 
L 199.909091 -41.76 
L 198.218182 -41.76 
L 196.527273 -41.76 
L 194.836364 -41.76 
L 193.145455 -41.76 
L 191.454545 -41.76 
L 189.763636 -41.76 
L 188.072727 -41.76 
L 186.381818 -41.76 
L 184.690909 -41.76 
L 183 -41.76 
L 181.309091 -41.76 
L 179.618182 -41.76 
L 177.927273 -41.76 
L 176.236364 -41.76 
L 174.545455 -41.76 
L 172.854545 -41.76 
L 171.163636 -41.76 
L 169.472727 -41.76 
L 167.781818 -41.76 
L 166.090909 -41.76 
L 164.4 -41.76 
L 162.709091 -41.76 
L 161.018182 -41.76 
L 159.327273 -41.76 
L 157.636364 -41.76 
L 155.945455 -41.76 
L 154.254545 -41.76 
L 152.563636 -41.76 
L 150.872727 -41.76 
L 149.181818 -41.76 
L 147.490909 -41.76 
L 145.8 -41.76 
L 144.109091 -41.76 
L 142.418182 -41.76 
L 140.727273 -41.76 
L 139.036364 -41.76 
L 137.345455 -41.76 
L 135.654545 -41.76 
L 133.963636 -41.76 
L 132.272727 -41.76 
L 130.581818 -41.76 
L 128.890909 -41.76 
L 127.2 -41.76 
L 125.509091 -41.76 
L 123.818182 -41.76 
L 122.127273 -41.76 
L 120.436364 -41.76 
L 118.745455 -41.76 
L 117.054545 -41.76 
L 115.363636 -42.463911 
z
" style="stroke: #ff0000; stroke-width: 0.5"/>
    </defs>
    <g clip-path="url(#p8d58020e5d)">
     <use xlink:href="#m8eb18bc411" x="0" y="288" style="fill: #ff0000; stroke: #ff0000; stroke-width: 0.5"/>
    </g>
   </g>
   <g id="PolyCollection_2">
    <defs>
     <path id="m62ab064f2c" d="M 115.363636 -88.077318 
L 115.363636 -42.463911 
L 117.054545 -41.76 
L 118.745455 -41.76 
L 120.436364 -41.76 
L 122.127273 -41.76 
L 123.818182 -41.76 
L 125.509091 -41.76 
L 127.2 -41.76 
L 128.890909 -41.76 
L 130.581818 -41.76 
L 132.272727 -41.76 
L 133.963636 -41.76 
L 135.654545 -41.76 
L 137.345455 -41.76 
L 139.036364 -41.76 
L 140.727273 -41.76 
L 142.418182 -41.76 
L 144.109091 -41.76 
L 145.8 -41.76 
L 147.490909 -41.76 
L 149.181818 -41.76 
L 150.872727 -41.76 
L 152.563636 -41.76 
L 154.254545 -41.76 
L 155.945455 -41.76 
L 157.636364 -41.76 
L 159.327273 -41.76 
L 161.018182 -41.76 
L 162.709091 -41.76 
L 164.4 -41.76 
L 166.090909 -41.76 
L 167.781818 -41.76 
L 169.472727 -41.76 
L 171.163636 -41.76 
L 172.854545 -41.76 
L 174.545455 -41.76 
L 176.236364 -41.76 
L 177.927273 -41.76 
L 179.618182 -41.76 
L 181.309091 -41.76 
L 183 -41.76 
L 184.690909 -41.76 
L 186.381818 -41.76 
L 188.072727 -41.76 
L 189.763636 -41.76 
L 191.454545 -41.76 
L 193.145455 -41.76 
L 194.836364 -41.76 
L 196.527273 -41.76 
L 198.218182 -41.76 
L 199.909091 -41.76 
L 201.6 -41.76 
L 203.290909 -41.76 
L 204.981818 -41.76 
L 206.672727 -41.76 
L 208.363636 -41.76 
L 210.054545 -41.76 
L 211.745455 -41.76 
L 213.436364 -41.76 
L 215.127273 -41.76 
L 216.818182 -41.76 
L 218.509091 -41.76 
L 220.2 -41.76 
L 221.890909 -41.76 
L 223.581818 -41.76 
L 225.272727 -41.76 
L 226.963636 -41.76 
L 228.654545 -41.76 
L 230.345455 -41.76 
L 232.036364 -41.76 
L 233.727273 -41.76 
L 235.418182 -41.76 
L 237.109091 -41.76 
L 238.8 -41.76 
L 240.490909 -41.76 
L 242.181818 -41.76 
L 243.872727 -41.76 
L 245.563636 -41.76 
L 247.254545 -41.76 
L 248.945455 -41.76 
L 250.636364 -41.76 
L 252.327273 -41.76 
L 254.018182 -41.76 
L 255.709091 -41.76 
L 257.4 -41.76 
L 259.090909 -41.76 
L 260.781818 -41.76 
L 262.472727 -41.76 
L 264.163636 -41.76 
L 265.854545 -41.76 
L 267.545455 -41.76 
L 269.236364 -41.76 
L 270.927273 -41.76 
L 272.618182 -41.76 
L 274.309091 -41.76 
L 276 -41.76 
L 277.690909 -41.76 
L 279.381818 -41.76 
L 281.072727 -41.76 
L 282.763636 -41.76 
L 284.454545 -41.76 
L 286.145455 -41.76 
L 287.836364 -41.76 
L 289.527273 -41.76 
L 291.218182 -41.76 
L 292.909091 -41.76 
L 294.6 -41.76 
L 296.290909 -41.76 
L 297.981818 -41.76 
L 299.672727 -41.76 
L 301.363636 -41.76 
L 303.054545 -41.76 
L 304.745455 -41.76 
L 306.436364 -41.76 
L 308.127273 -41.76 
L 309.818182 -41.76 
L 311.509091 -41.76 
L 313.2 -41.76 
L 314.890909 -41.76 
L 316.581818 -41.76 
L 318.272727 -41.76 
L 319.963636 -41.76 
L 321.654545 -41.76 
L 323.345455 -41.76 
L 325.036364 -41.76 
L 326.727273 -41.76 
L 328.418182 -41.76 
L 330.109091 -41.76 
L 331.8 -41.76 
L 333.490909 -41.76 
L 335.181818 -41.76 
L 336.872727 -41.76 
L 338.563636 -41.76 
L 340.254545 -41.76 
L 341.945455 -41.76 
L 343.636364 -41.76 
L 345.327273 -41.76 
L 347.018182 -41.76 
L 348.709091 -41.76 
L 350.4 -41.76 
L 352.090909 -41.76 
L 353.781818 -41.76 
L 355.472727 -41.76 
L 357.163636 -41.76 
L 358.854545 -41.76 
L 360.545455 -41.76 
L 362.236364 -41.76 
L 363.927273 -41.76 
L 365.618182 -41.76 
L 367.309091 -41.76 
L 369 -41.76 
L 370.690909 -41.76 
L 372.381818 -41.76 
L 374.072727 -41.76 
L 375.763636 -41.76 
L 377.454545 -41.76 
L 379.145455 -41.76 
L 380.836364 -41.76 
L 382.527273 -41.76 
L 384.218182 -41.76 
L 385.909091 -41.76 
L 387.6 -41.76 
L 389.290909 -41.76 
L 390.981818 -41.76 
L 392.672727 -41.76 
L 394.363636 -41.76 
L 396.054545 -41.76 
L 397.745455 -41.76 
L 399.436364 -41.76 
L 401.127273 -41.76 
L 402.818182 -41.76 
L 404.509091 -41.76 
L 406.2 -41.76 
L 407.890909 -41.76 
L 409.581818 -41.76 
L 411.272727 -41.76 
L 412.963636 -41.76 
L 414.654545 -41.76 
L 416.345455 -41.76 
L 418.036364 -41.76 
L 419.727273 -41.76 
L 421.418182 -41.76 
L 423.109091 -41.76 
L 424.8 -41.76 
L 426.490909 -41.76 
L 428.181818 -41.76 
L 429.872727 -41.76 
L 431.563636 -41.76 
L 433.254545 -41.76 
L 434.945455 -41.76 
L 436.636364 -41.76 
L 438.327273 -41.76 
L 440.018182 -41.76 
L 441.709091 -41.76 
L 443.4 -41.76 
L 445.090909 -41.76 
L 446.781818 -41.76 
L 448.472727 -41.76 
L 450.163636 -41.76 
L 451.854545 -41.76 
L 453.545455 -41.76 
L 455.236364 -41.76 
L 456.927273 -41.76 
L 458.618182 -41.76 
L 460.309091 -41.76 
L 462 -41.76 
L 463.690909 -41.76 
L 465.381818 -41.76 
L 467.072727 -41.76 
L 468.763636 -41.76 
L 470.454545 -41.76 
L 472.145455 -41.76 
L 473.836364 -41.76 
L 475.527273 -41.76 
L 477.218182 -41.76 
L 478.909091 -41.76 
L 480.6 -41.76 
L 482.290909 -41.76 
L 483.981818 -41.76 
L 485.672727 -41.76 
L 487.363636 -41.76 
L 489.054545 -41.76 
L 490.745455 -41.76 
L 492.436364 -41.76 
L 494.127273 -41.76 
L 495.818182 -41.76 
L 497.509091 -41.76 
L 499.2 -41.76 
L 500.890909 -41.76 
L 502.581818 -41.76 
L 504.272727 -41.76 
L 505.963636 -41.76 
L 507.654545 -41.76 
L 509.345455 -41.76 
L 511.036364 -41.76 
L 512.727273 -41.76 
L 514.418182 -41.76 
L 516.109091 -41.76 
L 517.8 -41.76 
L 519.490909 -41.76 
L 521.181818 -41.76 
L 522.872727 -41.76 
L 524.563636 -41.76 
L 526.254545 -41.76 
L 527.945455 -41.76 
L 529.636364 -41.76 
L 531.327273 -41.76 
L 533.018182 -41.76 
L 534.709091 -41.76 
L 536.4 -41.76 
L 538.090909 -41.76 
L 539.781818 -41.76 
L 541.472727 -41.76 
L 543.163636 -41.76 
L 544.854545 -41.76 
L 546.545455 -41.76 
L 548.236364 -41.76 
L 549.927273 -41.76 
L 551.618182 -41.76 
L 553.309091 -41.76 
L 555 -41.76 
L 556.690909 -41.76 
L 558.381818 -41.76 
L 560.072727 -41.76 
L 561.763636 -41.76 
L 563.454545 -41.76 
L 565.145455 -41.76 
L 566.836364 -41.76 
L 568.527273 -41.76 
L 570.218182 -41.76 
L 571.909091 -41.76 
L 573.6 -41.76 
L 575.290909 -41.76 
L 576.981818 -41.76 
L 578.672727 -41.76 
L 580.363636 -41.76 
L 582.054545 -41.76 
L 583.745455 -41.76 
L 585.436364 -41.76 
L 587.127273 -41.76 
L 588.818182 -41.76 
L 590.509091 -41.76 
L 592.2 -41.76 
L 593.890909 -41.76 
L 595.581818 -41.76 
L 597.272727 -41.76 
L 598.963636 -41.76 
L 600.654545 -41.76 
L 602.345455 -41.76 
L 604.036364 -41.76 
L 605.727273 -41.76 
L 607.418182 -41.76 
L 609.109091 -41.76 
L 610.8 -41.76 
L 612.490909 -41.76 
L 614.181818 -41.76 
L 615.872727 -41.76 
L 617.563636 -41.76 
L 619.254545 -41.76 
L 620.945455 -41.76 
L 622.636364 -41.76 
L 622.636364 -44.716425 
L 622.636364 -44.716425 
L 620.945455 -215.062793 
L 619.254545 -194.508603 
L 617.563636 -227.733184 
L 615.872727 -145.23486 
L 614.181818 -126.510838 
L 612.490909 -108.490726 
L 610.8 -115.107486 
L 609.109091 -117.782346 
L 607.418182 -77.800223 
L 605.727273 -92.441564 
L 604.036364 -142.982346 
L 602.345455 -183.949944 
L 600.654545 -177.614749 
L 598.963636 -189.440447 
L 597.272727 -145.938771 
L 595.581818 -181.978994 
L 593.890909 -188.173408 
L 592.2 -201.829274 
L 590.509091 -183.246034 
L 588.818182 -151.006927 
L 587.127273 -168.041564 
L 585.436364 -151.710838 
L 583.745455 -176.629274 
L 582.054545 -178.177877 
L 580.363636 -184.935419 
L 578.672727 -194.93095 
L 576.981818 -184.794637 
L 575.290909 -181.134302 
L 573.6 -214.640447 
L 571.909091 -158.327598 
L 570.218182 -151.85162 
L 568.527273 -157.764469 
L 566.836364 -178.037095 
L 565.145455 -182.964469 
L 563.454545 -172.265028 
L 561.763636 -143.123128 
L 560.072727 -200.703017 
L 558.381818 -184.935419 
L 556.690909 -187.047151 
L 555 -186.765587 
L 553.309091 -145.657207 
L 551.618182 -187.328715 
L 549.927273 -183.246034 
L 548.236364 -190.003575 
L 546.545455 -165.225922 
L 544.854545 -163.958883 
L 543.163636 -177.614749 
L 541.472727 -182.542123 
L 539.781818 -177.755531 
L 538.090909 -191.270615 
L 536.4 -171.983464 
L 534.709091 -193.523128 
L 533.018182 -187.047151 
L 531.327273 -189.581229 
L 529.636364 -202.110838 
L 527.945455 -195.494078 
L 526.254545 -152.555531 
L 524.563636 -140.448268 
L 522.872727 -173.954413 
L 521.181818 -151.429274 
L 519.490909 -151.710838 
L 517.8 -195.353296 
L 516.109091 -203.659441 
L 514.418182 -109.335419 
L 512.727273 -99.903017 
L 511.036364 -139.181229 
L 509.345455 -204.081788 
L 507.654545 -178.177877 
L 505.963636 -227.45162 
L 504.272727 -209.009162 
L 502.581818 -119.471732 
L 500.890909 -152.837095 
L 499.2 -82.86838 
L 497.509091 -75.125363 
L 495.818182 -177.473966 
L 494.127273 -165.225922 
L 492.436364 -174.37676 
L 490.745455 -199.57676 
L 489.054545 -164.944358 
L 487.363636 -168.182346 
L 485.672727 -187.751061 
L 483.981818 -145.657207 
L 482.290909 -191.129832 
L 480.6 -178.741006 
L 478.909091 -189.722011 
L 477.218182 -178.600223 
L 475.527273 -188.454972 
L 473.836364 -179.304134 
L 472.145455 -174.235978 
L 470.454545 -187.610279 
L 468.763636 -173.250503 
L 467.072727 -164.240447 
L 465.381818 -183.66838 
L 463.690909 -159.031508 
L 462 -191.974525 
L 460.309091 -178.741006 
L 458.618182 -149.035978 
L 456.927273 -194.227039 
L 455.236364 -147.20581 
L 453.545455 -196.761117 
L 451.854545 -221.820335 
L 450.163636 -199.013631 
L 448.472727 -204.504134 
L 446.781818 -165.648268 
L 445.090909 -82.586816 
L 443.4 -110.884022 
L 441.709091 -175.503017 
L 440.018182 -192.678436 
L 438.327273 -169.308603 
L 436.636364 -189.722011 
L 434.945455 -151.147709 
L 433.254545 -183.527598 
L 431.563636 -178.177877 
L 429.872727 -179.02257 
L 428.181818 -170.153296 
L 426.490909 -191.270615 
L 424.8 -184.372291 
L 423.109091 -169.590168 
L 421.418182 -179.163352 
L 419.727273 -191.411397 
L 418.036364 -177.614749 
L 416.345455 -163.395754 
L 414.654545 -194.227039 
L 412.963636 -171.983464 
L 411.272727 -192.96 
L 409.581818 -160.298547 
L 407.890909 -185.63933 
L 406.2 -175.503017 
L 404.509091 -190.28514 
L 402.818182 -171.561117 
L 401.127273 -174.235978 
L 399.436364 -198.732067 
L 397.745455 -227.733184 
L 396.054545 -168.604693 
L 394.363636 -187.751061 
L 392.672727 -144.53095 
L 390.981818 -132.423687 
L 389.290909 -119.33095 
L 387.6 -119.049385 
L 385.909091 -147.346592 
L 384.218182 -187.610279 
L 382.527273 -177.614749 
L 380.836364 -200.984581 
L 379.145455 -214.640447 
L 377.454545 -202.392402 
L 375.763636 -161.002458 
L 374.072727 -152.133184 
L 372.381818 -110.74324 
L 370.690909 -100.606927 
L 369 -120.457207 
L 367.309091 -145.797989 
L 365.618182 -167.478436 
L 363.927273 -170.997989 
L 362.236364 -193.100782 
L 360.545455 -174.095196 
L 358.854545 -175.503017 
L 357.163636 -175.925363 
L 355.472727 -190.144358 
L 353.781818 -170.716425 
L 352.090909 -178.037095 
L 350.4 -194.649385 
L 348.709091 -194.227039 
L 347.018182 -184.090726 
L 345.327273 -170.43486 
L 343.636364 -196.620335 
L 341.945455 -143.404693 
L 340.254545 -161.987933 
L 338.563636 -193.945475 
L 336.872727 -193.663911 
L 335.181818 -162.973408 
L 333.490909 -149.599106 
L 331.8 -148.332067 
L 330.109091 -189.581229 
L 328.418182 -190.566704 
L 326.727273 -192.678436 
L 325.036364 -169.73095 
L 323.345455 -189.299665 
L 321.654545 -155.371173 
L 319.963636 -174.095196 
L 318.272727 -204.92648 
L 316.581818 -138.899665 
L 314.890909 -149.458324 
L 313.2 -177.333184 
L 311.509091 -175.362235 
L 309.818182 -181.415866 
L 308.127273 -172.687374 
L 306.436364 -177.333184 
L 304.745455 -199.57676 
L 303.054545 -216.752179 
L 301.363636 -209.149944 
L 299.672727 -228.577877 
L 297.981818 -195.494078 
L 296.290909 -110.74324 
L 294.6 -154.808045 
L 292.909091 -106.519777 
L 291.218182 -156.638212 
L 289.527273 -129.044916 
L 287.836364 -146.642682 
L 286.145455 -187.047151 
L 284.454545 -228.577877 
L 282.763636 -144.671732 
L 281.072727 -130.030391 
L 279.381818 -144.953296 
L 277.690909 -123.272849 
L 276 -143.123128 
L 274.309091 -168.041564 
L 272.618182 -144.53095 
L 270.927273 -131.578994 
L 269.236364 -224.635978 
L 267.545455 -184.372291 
L 265.854545 -79.489609 
L 264.163636 -155.089609 
L 262.472727 -164.381229 
L 260.781818 -174.235978 
L 259.090909 -173.532067 
L 257.4 -171.842682 
L 255.709091 -190.707486 
L 254.018182 -192.256089 
L 252.327273 -199.57676 
L 250.636364 -177.333184 
L 248.945455 -185.780112 
L 247.254545 -243.36 
L 245.563636 -118.908603 
L 243.872727 -106.942123 
L 242.181818 -132.001341 
L 240.490909 -108.06838 
L 238.8 -175.221453 
L 237.109091 -175.925363 
L 235.418182 -174.235978 
L 233.727273 -208.86838 
L 232.036364 -184.372291 
L 230.345455 -165.366704 
L 228.654545 -221.820335 
L 226.963636 -185.63933 
L 225.272727 -194.790168 
L 223.581818 -116.796872 
L 221.890909 -157.342123 
L 220.2 -192.537654 
L 218.509091 -138.899665 
L 216.818182 -173.532067 
L 215.127273 -206.615866 
L 213.436364 -210.557765 
L 211.745455 -169.449385 
L 210.054545 -170.43486 
L 208.363636 -147.065028 
L 206.672727 -141.292961 
L 204.981818 -160.43933 
L 203.290909 -176.066145 
L 201.6 -175.925363 
L 199.909091 -173.954413 
L 198.218182 -175.221453 
L 196.527273 -173.813631 
L 194.836364 -176.770056 
L 193.145455 -179.585698 
L 191.454545 -173.954413 
L 189.763636 -182.964469 
L 188.072727 -188.454972 
L 186.381818 -197.887374 
L 184.690909 -176.629274 
L 183 -159.594637 
L 181.309091 -170.857207 
L 179.618182 -147.065028 
L 177.927273 -171.701899 
L 176.236364 -167.056089 
L 174.545455 -139.462793 
L 172.854545 -146.783464 
L 171.163636 -163.536536 
L 169.472727 -173.532067 
L 167.781818 -170.43486 
L 166.090909 -189.722011 
L 164.4 -167.619218 
L 162.709091 -195.212514 
L 161.018182 -177.333184 
L 159.327273 -137.351061 
L 157.636364 -161.424804 
L 155.945455 -206.334302 
L 154.254545 -159.876201 
L 152.563636 -202.110838 
L 150.872727 -164.099665 
L 149.181818 -201.688492 
L 147.490909 -154.244916 
L 145.8 -154.948827 
L 144.109091 -157.623687 
L 142.418182 -184.372291 
L 140.727273 -183.386816 
L 139.036364 -151.570056 
L 137.345455 -167.900782 
L 135.654545 -180.430391 
L 133.963636 -162.269497 
L 132.272727 -173.954413 
L 130.581818 -182.401341 
L 128.890909 -189.862793 
L 127.2 -230.830391 
L 125.509091 -226.466145 
L 123.818182 -169.871732 
L 122.127273 -195.071732 
L 120.436364 -129.608045 
L 118.745455 -93.567821 
L 117.054545 -147.065028 
L 115.363636 -88.077318 
z
" style="stroke: #0000ff; stroke-width: 0.5"/>
    </defs>
    <g clip-path="url(#p8d58020e5d)">
     <use xlink:href="#m62ab064f2c" x="0" y="288" style="fill: #0000ff; stroke: #0000ff; stroke-width: 0.5"/>
    </g>
   </g>
   <g id="line2d_28">
    <path d="M 90 44.64 
L 648 44.64 
" clip-path="url(#p8d58020e5d)" style="fill: none; stroke: #000000; stroke-width: 1.5; stroke-linecap: square"/>
   </g>
   <g id="line2d_29">
    <path d="M 90 118.26905 
L 648 118.26905 
" clip-path="url(#p8d58020e5d)" style="fill: none; stroke: #000000; stroke-width: 1.5; stroke-linecap: square"/>
   </g>
   <g id="patch_3">
    <path d="M 90 256.32 
L 90 34.56 
" style="fill: none; stroke: #000000; stroke-width: 0.8; stroke-linejoin: miter; stroke-linecap: square"/>
   </g>
   <g id="patch_4">
    <path d="M 648 256.32 
L 648 34.56 
" style="fill: none; stroke: #000000; stroke-width: 0.8; stroke-linejoin: miter; stroke-linecap: square"/>
   </g>
   <g id="patch_5">
    <path d="M 90 256.32 
L 648 256.32 
" style="fill: none; stroke: #000000; stroke-width: 0.8; stroke-linejoin: miter; stroke-linecap: square"/>
   </g>
   <g id="patch_6">
    <path d="M 90 34.56 
L 648 34.56 
" style="fill: none; stroke: #000000; stroke-width: 0.8; stroke-linejoin: miter; stroke-linecap: square"/>
   </g>
   <g id="text_22">
    <!-- peak (1,432) -->
    <g transform="translate(122.179233 41.3136) scale(0.1 -0.1)">
     <defs>
      <path id="DejaVuSans-Bold-70" d="M 1656 506 
L 1656 -1331 
L 538 -1331 
L 538 3500 
L 1656 3500 
L 1656 2988 
Q 1888 3294 2169 3439 
Q 2450 3584 2816 3584 
Q 3463 3584 3878 3070 
Q 4294 2556 4294 1747 
Q 4294 938 3878 423 
Q 3463 -91 2816 -91 
Q 2450 -91 2169 54 
Q 1888 200 1656 506 
z
M 2400 2772 
Q 2041 2772 1848 2508 
Q 1656 2244 1656 1747 
Q 1656 1250 1848 986 
Q 2041 722 2400 722 
Q 2759 722 2948 984 
Q 3138 1247 3138 1747 
Q 3138 2247 2948 2509 
Q 2759 2772 2400 2772 
z
" transform="scale(0.015625)"/>
      <path id="DejaVuSans-Bold-65" d="M 4031 1759 
L 4031 1441 
L 1416 1441 
Q 1456 1047 1700 850 
Q 1944 653 2381 653 
Q 2734 653 3104 758 
Q 3475 863 3866 1075 
L 3866 213 
Q 3469 63 3072 -14 
Q 2675 -91 2278 -91 
Q 1328 -91 801 392 
Q 275 875 275 1747 
Q 275 2603 792 3093 
Q 1309 3584 2216 3584 
Q 3041 3584 3536 3087 
Q 4031 2591 4031 1759 
z
M 2881 2131 
Q 2881 2450 2695 2645 
Q 2509 2841 2209 2841 
Q 1884 2841 1681 2658 
Q 1478 2475 1428 2131 
L 2881 2131 
z
" transform="scale(0.015625)"/>
      <path id="DejaVuSans-Bold-61" d="M 2106 1575 
Q 1756 1575 1579 1456 
Q 1403 1338 1403 1106 
Q 1403 894 1545 773 
Q 1688 653 1941 653 
Q 2256 653 2472 879 
Q 2688 1106 2688 1447 
L 2688 1575 
L 2106 1575 
z
M 3816 1997 
L 3816 0 
L 2688 0 
L 2688 519 
Q 2463 200 2181 54 
Q 1900 -91 1497 -91 
Q 953 -91 614 226 
Q 275 544 275 1050 
Q 275 1666 698 1953 
Q 1122 2241 2028 2241 
L 2688 2241 
L 2688 2328 
Q 2688 2594 2478 2717 
Q 2269 2841 1825 2841 
Q 1466 2841 1156 2769 
Q 847 2697 581 2553 
L 581 3406 
Q 941 3494 1303 3539 
Q 1666 3584 2028 3584 
Q 2975 3584 3395 3211 
Q 3816 2838 3816 1997 
z
" transform="scale(0.015625)"/>
      <path id="DejaVuSans-Bold-6b" d="M 538 4863 
L 1656 4863 
L 1656 2216 
L 2944 3500 
L 4244 3500 
L 2534 1894 
L 4378 0 
L 3022 0 
L 1656 1459 
L 1656 0 
L 538 0 
L 538 4863 
z
" transform="scale(0.015625)"/>
      <path id="DejaVuSans-Bold-20" transform="scale(0.015625)"/>
      <path id="DejaVuSans-Bold-28" d="M 2413 -844 
L 1484 -844 
Q 1006 -72 778 623 
Q 550 1319 550 2003 
Q 550 2688 779 3389 
Q 1009 4091 1484 4856 
L 2413 4856 
Q 2013 4116 1813 3408 
Q 1613 2700 1613 2009 
Q 1613 1319 1811 609 
Q 2009 -100 2413 -844 
z
" transform="scale(0.015625)"/>
      <path id="DejaVuSans-Bold-31" d="M 750 831 
L 1813 831 
L 1813 3847 
L 722 3622 
L 722 4441 
L 1806 4666 
L 2950 4666 
L 2950 831 
L 4013 831 
L 4013 0 
L 750 0 
L 750 831 
z
" transform="scale(0.015625)"/>
      <path id="DejaVuSans-Bold-2c" d="M 653 1209 
L 1778 1209 
L 1778 256 
L 1006 -909 
L 341 -909 
L 653 256 
L 653 1209 
z
" transform="scale(0.015625)"/>
      <path id="DejaVuSans-Bold-34" d="M 2356 3675 
L 1038 1722 
L 2356 1722 
L 2356 3675 
z
M 2156 4666 
L 3494 4666 
L 3494 1722 
L 4159 1722 
L 4159 850 
L 3494 850 
L 3494 0 
L 2356 0 
L 2356 850 
L 288 850 
L 288 1881 
L 2156 4666 
z
" transform="scale(0.015625)"/>
      <path id="DejaVuSans-Bold-33" d="M 2981 2516 
Q 3453 2394 3698 2092 
Q 3944 1791 3944 1325 
Q 3944 631 3412 270 
Q 2881 -91 1863 -91 
Q 1503 -91 1142 -33 
Q 781 25 428 141 
L 428 1069 
Q 766 900 1098 814 
Q 1431 728 1753 728 
Q 2231 728 2486 893 
Q 2741 1059 2741 1369 
Q 2741 1688 2480 1852 
Q 2219 2016 1709 2016 
L 1228 2016 
L 1228 2791 
L 1734 2791 
Q 2188 2791 2409 2933 
Q 2631 3075 2631 3366 
Q 2631 3634 2415 3781 
Q 2200 3928 1806 3928 
Q 1516 3928 1219 3862 
Q 922 3797 628 3669 
L 628 4550 
Q 984 4650 1334 4700 
Q 1684 4750 2022 4750 
Q 2931 4750 3382 4451 
Q 3834 4153 3834 3553 
Q 3834 3144 3618 2883 
Q 3403 2622 2981 2516 
z
" transform="scale(0.015625)"/>
      <path id="DejaVuSans-Bold-32" d="M 1844 884 
L 3897 884 
L 3897 0 
L 506 0 
L 506 884 
L 2209 2388 
Q 2438 2594 2547 2791 
Q 2656 2988 2656 3200 
Q 2656 3528 2436 3728 
Q 2216 3928 1850 3928 
Q 1569 3928 1234 3808 
Q 900 3688 519 3450 
L 519 4475 
Q 925 4609 1322 4679 
Q 1719 4750 2100 4750 
Q 2938 4750 3402 4381 
Q 3866 4013 3866 3353 
Q 3866 2972 3669 2642 
Q 3472 2313 2841 1759 
L 1844 884 
z
" transform="scale(0.015625)"/>
      <path id="DejaVuSans-Bold-29" d="M 513 -844 
Q 913 -100 1113 609 
Q 1313 1319 1313 2009 
Q 1313 2700 1113 3408 
Q 913 4116 513 4856 
L 1441 4856 
Q 1916 4091 2145 3389 
Q 2375 2688 2375 2003 
Q 2375 1319 2147 623 
Q 1919 -72 1441 -844 
L 513 -844 
z
" transform="scale(0.015625)"/>
     </defs>
     <use xlink:href="#DejaVuSans-Bold-70"/>
     <use xlink:href="#DejaVuSans-Bold-65" x="71.582031"/>
     <use xlink:href="#DejaVuSans-Bold-61" x="139.404297"/>
     <use xlink:href="#DejaVuSans-Bold-6b" x="206.884766"/>
     <use xlink:href="#DejaVuSans-Bold-20" x="273.388672"/>
     <use xlink:href="#DejaVuSans-Bold-28" x="308.203125"/>
     <use xlink:href="#DejaVuSans-Bold-31" x="353.90625"/>
     <use xlink:href="#DejaVuSans-Bold-2c" x="423.486328"/>
     <use xlink:href="#DejaVuSans-Bold-34" x="461.474609"/>
     <use xlink:href="#DejaVuSans-Bold-33" x="531.054688"/>
     <use xlink:href="#DejaVuSans-Bold-32" x="600.634766"/>
     <use xlink:href="#DejaVuSans-Bold-29" x="670.214844"/>
    </g>
   </g>
   <g id="text_23">
    <!-- mean (909) -->
    <g transform="translate(573.106278 114.94265) scale(0.1 -0.1)">
     <defs>
      <path id="DejaVuSans-Bold-6d" d="M 3781 2919 
Q 3994 3244 4286 3414 
Q 4578 3584 4928 3584 
Q 5531 3584 5847 3212 
Q 6163 2841 6163 2131 
L 6163 0 
L 5038 0 
L 5038 1825 
Q 5041 1866 5042 1909 
Q 5044 1953 5044 2034 
Q 5044 2406 4934 2573 
Q 4825 2741 4581 2741 
Q 4263 2741 4089 2478 
Q 3916 2216 3909 1719 
L 3909 0 
L 2784 0 
L 2784 1825 
Q 2784 2406 2684 2573 
Q 2584 2741 2328 2741 
Q 2006 2741 1831 2477 
Q 1656 2213 1656 1722 
L 1656 0 
L 531 0 
L 531 3500 
L 1656 3500 
L 1656 2988 
Q 1863 3284 2130 3434 
Q 2397 3584 2719 3584 
Q 3081 3584 3359 3409 
Q 3638 3234 3781 2919 
z
" transform="scale(0.015625)"/>
      <path id="DejaVuSans-Bold-6e" d="M 4056 2131 
L 4056 0 
L 2931 0 
L 2931 347 
L 2931 1631 
Q 2931 2084 2911 2256 
Q 2891 2428 2841 2509 
Q 2775 2619 2662 2680 
Q 2550 2741 2406 2741 
Q 2056 2741 1856 2470 
Q 1656 2200 1656 1722 
L 1656 0 
L 538 0 
L 538 3500 
L 1656 3500 
L 1656 2988 
Q 1909 3294 2193 3439 
Q 2478 3584 2822 3584 
Q 3428 3584 3742 3212 
Q 4056 2841 4056 2131 
z
" transform="scale(0.015625)"/>
      <path id="DejaVuSans-Bold-39" d="M 641 103 
L 641 966 
Q 928 831 1190 764 
Q 1453 697 1709 697 
Q 2247 697 2547 995 
Q 2847 1294 2900 1881 
Q 2688 1725 2447 1647 
Q 2206 1569 1925 1569 
Q 1209 1569 770 1986 
Q 331 2403 331 3084 
Q 331 3838 820 4291 
Q 1309 4744 2131 4744 
Q 3044 4744 3544 4128 
Q 4044 3513 4044 2388 
Q 4044 1231 3459 570 
Q 2875 -91 1856 -91 
Q 1528 -91 1228 -42 
Q 928 6 641 103 
z
M 2125 2350 
Q 2441 2350 2600 2554 
Q 2759 2759 2759 3169 
Q 2759 3575 2600 3781 
Q 2441 3988 2125 3988 
Q 1809 3988 1650 3781 
Q 1491 3575 1491 3169 
Q 1491 2759 1650 2554 
Q 1809 2350 2125 2350 
z
" transform="scale(0.015625)"/>
      <path id="DejaVuSans-Bold-30" d="M 2944 2338 
Q 2944 3213 2780 3570 
Q 2616 3928 2228 3928 
Q 1841 3928 1675 3570 
Q 1509 3213 1509 2338 
Q 1509 1453 1675 1090 
Q 1841 728 2228 728 
Q 2613 728 2778 1090 
Q 2944 1453 2944 2338 
z
M 4147 2328 
Q 4147 1169 3647 539 
Q 3147 -91 2228 -91 
Q 1306 -91 806 539 
Q 306 1169 306 2328 
Q 306 3491 806 4120 
Q 1306 4750 2228 4750 
Q 3147 4750 3647 4120 
Q 4147 3491 4147 2328 
z
" transform="scale(0.015625)"/>
     </defs>
     <use xlink:href="#DejaVuSans-Bold-6d"/>
     <use xlink:href="#DejaVuSans-Bold-65" x="104.199219"/>
     <use xlink:href="#DejaVuSans-Bold-61" x="172.021484"/>
     <use xlink:href="#DejaVuSans-Bold-6e" x="239.501953"/>
     <use xlink:href="#DejaVuSans-Bold-20" x="310.693359"/>
     <use xlink:href="#DejaVuSans-Bold-28" x="345.507812"/>
     <use xlink:href="#DejaVuSans-Bold-39" x="391.210938"/>
     <use xlink:href="#DejaVuSans-Bold-30" x="460.791016"/>
     <use xlink:href="#DejaVuSans-Bold-39" x="530.371094"/>
     <use xlink:href="#DejaVuSans-Bold-29" x="599.951172"/>
    </g>
   </g>
   <g id="text_24">
    <!-- Stream Bitrate over Time -->
    <g transform="translate(293.189062 28.56) scale(0.12 -0.12)">
     <defs>
      <path id="DejaVuSans-53" d="M 3425 4513 
L 3425 3897 
Q 3066 4069 2747 4153 
Q 2428 4238 2131 4238 
Q 1616 4238 1336 4038 
Q 1056 3838 1056 3469 
Q 1056 3159 1242 3001 
Q 1428 2844 1947 2747 
L 2328 2669 
Q 3034 2534 3370 2195 
Q 3706 1856 3706 1288 
Q 3706 609 3251 259 
Q 2797 -91 1919 -91 
Q 1588 -91 1214 -16 
Q 841 59 441 206 
L 441 856 
Q 825 641 1194 531 
Q 1563 422 1919 422 
Q 2459 422 2753 634 
Q 3047 847 3047 1241 
Q 3047 1584 2836 1778 
Q 2625 1972 2144 2069 
L 1759 2144 
Q 1053 2284 737 2584 
Q 422 2884 422 3419 
Q 422 4038 858 4394 
Q 1294 4750 2059 4750 
Q 2388 4750 2728 4690 
Q 3069 4631 3425 4513 
z
" transform="scale(0.015625)"/>
      <path id="DejaVuSans-6f" d="M 1959 3097 
Q 1497 3097 1228 2736 
Q 959 2375 959 1747 
Q 959 1119 1226 758 
Q 1494 397 1959 397 
Q 2419 397 2687 759 
Q 2956 1122 2956 1747 
Q 2956 2369 2687 2733 
Q 2419 3097 1959 3097 
z
M 1959 3584 
Q 2709 3584 3137 3096 
Q 3566 2609 3566 1747 
Q 3566 888 3137 398 
Q 2709 -91 1959 -91 
Q 1206 -91 779 398 
Q 353 888 353 1747 
Q 353 2609 779 3096 
Q 1206 3584 1959 3584 
z
" transform="scale(0.015625)"/>
      <path id="DejaVuSans-76" d="M 191 3500 
L 800 3500 
L 1894 563 
L 2988 3500 
L 3597 3500 
L 2284 0 
L 1503 0 
L 191 3500 
z
" transform="scale(0.015625)"/>
     </defs>
     <use xlink:href="#DejaVuSans-53"/>
     <use xlink:href="#DejaVuSans-74" x="63.476562"/>
     <use xlink:href="#DejaVuSans-72" x="102.685547"/>
     <use xlink:href="#DejaVuSans-65" x="141.548828"/>
     <use xlink:href="#DejaVuSans-61" x="203.072266"/>
     <use xlink:href="#DejaVuSans-6d" x="264.351562"/>
     <use xlink:href="#DejaVuSans-20" x="361.763672"/>
     <use xlink:href="#DejaVuSans-42" x="393.550781"/>
     <use xlink:href="#DejaVuSans-69" x="462.154297"/>
     <use xlink:href="#DejaVuSans-74" x="489.9375"/>
     <use xlink:href="#DejaVuSans-72" x="529.146484"/>
     <use xlink:href="#DejaVuSans-61" x="570.259766"/>
     <use xlink:href="#DejaVuSans-74" x="631.539062"/>
     <use xlink:href="#DejaVuSans-65" x="670.748047"/>
     <use xlink:href="#DejaVuSans-20" x="732.271484"/>
     <use xlink:href="#DejaVuSans-6f" x="764.058594"/>
     <use xlink:href="#DejaVuSans-76" x="825.240234"/>
     <use xlink:href="#DejaVuSans-65" x="884.419922"/>
     <use xlink:href="#DejaVuSans-72" x="945.943359"/>
     <use xlink:href="#DejaVuSans-20" x="987.056641"/>
     <use xlink:href="#DejaVuSans-54" x="1018.84375"/>
     <use xlink:href="#DejaVuSans-69" x="1076.802734"/>
     <use xlink:href="#DejaVuSans-6d" x="1104.585938"/>
     <use xlink:href="#DejaVuSans-65" x="1201.998047"/>
    </g>
   </g>
   <g id="legend_1">
    <g id="patch_7">
     <path d="M 602.139063 71.91625 
L 641 71.91625 
Q 643 71.91625 643 69.91625 
L 643 41.56 
Q 643 39.56 641 39.56 
L 602.139063 39.56 
Q 600.139063 39.56 600.139063 41.56 
L 600.139063 69.91625 
Q 600.139063 71.91625 602.139063 71.91625 
z
" style="fill: #ffffff; opacity: 0.8; stroke: #cccccc; stroke-linejoin: miter"/>
    </g>
    <g id="patch_8">
     <path d="M 604.139063 51.158437 
L 624.139063 51.158437 
L 624.139063 44.158437 
L 604.139063 44.158437 
z
" style="fill: #ff0000; stroke: #ff0000; stroke-width: 0.5; stroke-linejoin: miter"/>
    </g>
    <g id="text_25">
     <!-- I -->
     <g transform="translate(632.139063 51.158437) scale(0.1 -0.1)">
      <defs>
       <path id="DejaVuSans-49" d="M 628 4666 
L 1259 4666 
L 1259 0 
L 628 0 
L 628 4666 
z
" transform="scale(0.015625)"/>
      </defs>
      <use xlink:href="#DejaVuSans-49"/>
     </g>
    </g>
    <g id="patch_9">
     <path d="M 604.139063 65.836562 
L 624.139063 65.836562 
L 624.139063 58.836562 
L 604.139063 58.836562 
z
" style="fill: #0000ff; stroke: #0000ff; stroke-width: 0.5; stroke-linejoin: miter"/>
    </g>
    <g id="text_26">
     <!-- B -->
     <g transform="translate(632.139063 65.836562) scale(0.1 -0.1)">
      <use xlink:href="#DejaVuSans-42"/>
     </g>
    </g>
   </g>
  </g>
 </g>
 <defs>
  <clipPath id="p8d58020e5d">
   <rect x="90" y="34.56" width="558" height="221.76"/>
  </clipPath>
 </defs>
</svg>
