<?xml version="1.0" encoding="utf-8" standalone="no"?>
<!DOCTYPE svg PUBLIC "-//W3C//DTD SVG 1.1//EN"
  "http://www.w3.org/Graphics/SVG/1.1/DTD/svg11.dtd">
<svg xmlns:xlink="http://www.w3.org/1999/xlink" width="720pt" height="288pt" viewBox="0 0 720 288" xmlns="http://www.w3.org/2000/svg" version="1.1">
 <metadata>
  <rdf:RDF xmlns:dc="http://purl.org/dc/elements/1.1/" xmlns:cc="http://creativecommons.org/ns#" xmlns:rdf="http://www.w3.org/1999/02/22-rdf-syntax-ns#">
   <cc:Work>
    <dc:type rdf:resource="http://purl.org/dc/dcmitype/StillImage"/>
    <dc:date>2023-05-07T02:11:33.154073</dc:date>
    <dc:format>image/svg+xml</dc:format>
    <dc:creator>
     <cc:Agent>
      <dc:title>Matplotlib v3.7.1, https://matplotlib.org/</dc:title>
     </cc:Agent>
    </dc:creator>
   </cc:Work>
  </rdf:RDF>
 </metadata>
 <defs>
  <style type="text/css">*{stroke-linejoin: round; stroke-linecap: butt}</style>
 </defs>
 <g id="figure_1">
  <g id="patch_1">
   <path d="M 0 288 
L 720 288 
L 720 0 
L 0 0 
z
" style="fill: #ffffff"/>
  </g>
  <g id="axes_1">
   <g id="patch_2">
    <path d="M 90 256.32 
L 648 256.32 
L 648 34.56 
L 90 34.56 
z
" style="fill: #ffffff"/>
   </g>
   <g id="matplotlib.axis_1">
    <g id="xtick_1">
     <g id="line2d_1">
      <defs>
       <path id="m1047fb7eed" d="M 0 0 
L 0 3.5 
" style="stroke: #000000; stroke-width: 0.8"/>
      </defs>
      <g>
       <use xlink:href="#m1047fb7eed" x="115.363636" y="256.32" style="stroke: #000000; stroke-width: 0.8"/>
      </g>
     </g>
     <g id="text_1">
      <!-- 0:00:00 -->
      <g transform="translate(96.088636 270.918437) scale(0.1 -0.1)">
       <defs>
        <path id="DejaVuSans-30" d="M 2034 4250 
Q 1547 4250 1301 3770 
Q 1056 3291 1056 2328 
Q 1056 1369 1301 889 
Q 1547 409 2034 409 
Q 2525 409 2770 889 
Q 3016 1369 3016 2328 
Q 3016 3291 2770 3770 
Q 2525 4250 2034 4250 
z
M 2034 4750 
Q 2819 4750 3233 4129 
Q 3647 3509 3647 2328 
Q 3647 1150 3233 529 
Q 2819 -91 2034 -91 
Q 1250 -91 836 529 
Q 422 1150 422 2328 
Q 422 3509 836 4129 
Q 1250 4750 2034 4750 
z
" transform="scale(0.015625)"/>
        <path id="DejaVuSans-3a" d="M 750 794 
L 1409 794 
L 1409 0 
L 750 0 
L 750 794 
z
M 750 3309 
L 1409 3309 
L 1409 2516 
L 750 2516 
L 750 3309 
z
" transform="scale(0.015625)"/>
       </defs>
       <use xlink:href="#DejaVuSans-30"/>
       <use xlink:href="#DejaVuSans-3a" x="63.623047"/>
       <use xlink:href="#DejaVuSans-30" x="97.314453"/>
       <use xlink:href="#DejaVuSans-30" x="160.9375"/>
       <use xlink:href="#DejaVuSans-3a" x="224.560547"/>
       <use xlink:href="#DejaVuSans-30" x="258.251953"/>
       <use xlink:href="#DejaVuSans-30" x="321.875"/>
      </g>
     </g>
    </g>
    <g id="xtick_2">
     <g id="line2d_2">
      <g>
       <use xlink:href="#m1047fb7eed" x="166.090909" y="256.32" style="stroke: #000000; stroke-width: 0.8"/>
      </g>
     </g>
     <g id="text_2">
      <!-- 0:00:30 -->
      <g transform="translate(146.815909 270.918437) scale(0.1 -0.1)">
       <defs>
        <path id="DejaVuSans-33" d="M 2597 2516 
Q 3050 2419 3304 2112 
Q 3559 1806 3559 1356 
Q 3559 666 3084 287 
Q 2609 -91 1734 -91 
Q 1441 -91 1130 -33 
Q 819 25 488 141 
L 488 750 
Q 750 597 1062 519 
Q 1375 441 1716 441 
Q 2309 441 2620 675 
Q 2931 909 2931 1356 
Q 2931 1769 2642 2001 
Q 2353 2234 1838 2234 
L 1294 2234 
L 1294 2753 
L 1863 2753 
Q 2328 2753 2575 2939 
Q 2822 3125 2822 3475 
Q 2822 3834 2567 4026 
Q 2313 4219 1838 4219 
Q 1578 4219 1281 4162 
Q 984 4106 628 3988 
L 628 4550 
Q 988 4650 1302 4700 
Q 1616 4750 1894 4750 
Q 2613 4750 3031 4423 
Q 3450 4097 3450 3541 
Q 3450 3153 3228 2886 
Q 3006 2619 2597 2516 
z
" transform="scale(0.015625)"/>
       </defs>
       <use xlink:href="#DejaVuSans-30"/>
       <use xlink:href="#DejaVuSans-3a" x="63.623047"/>
       <use xlink:href="#DejaVuSans-30" x="97.314453"/>
       <use xlink:href="#DejaVuSans-30" x="160.9375"/>
       <use xlink:href="#DejaVuSans-3a" x="224.560547"/>
       <use xlink:href="#DejaVuSans-33" x="258.251953"/>
       <use xlink:href="#DejaVuSans-30" x="321.875"/>
      </g>
     </g>
    </g>
    <g id="xtick_3">
     <g id="line2d_3">
      <g>
       <use xlink:href="#m1047fb7eed" x="216.818182" y="256.32" style="stroke: #000000; stroke-width: 0.8"/>
      </g>
     </g>
     <g id="text_3">
      <!-- 0:01:00 -->
      <g transform="translate(197.543182 270.918437) scale(0.1 -0.1)">
       <defs>
        <path id="DejaVuSans-31" d="M 794 531 
L 1825 531 
L 1825 4091 
L 703 3866 
L 703 4441 
L 1819 4666 
L 2450 4666 
L 2450 531 
L 3481 531 
L 3481 0 
L 794 0 
L 794 531 
z
" transform="scale(0.015625)"/>
       </defs>
       <use xlink:href="#DejaVuSans-30"/>
       <use xlink:href="#DejaVuSans-3a" x="63.623047"/>
       <use xlink:href="#DejaVuSans-30" x="97.314453"/>
       <use xlink:href="#DejaVuSans-31" x="160.9375"/>
       <use xlink:href="#DejaVuSans-3a" x="224.560547"/>
       <use xlink:href="#DejaVuSans-30" x="258.251953"/>
       <use xlink:href="#DejaVuSans-30" x="321.875"/>
      </g>
     </g>
    </g>
    <g id="xtick_4">
     <g id="line2d_4">
      <g>
       <use xlink:href="#m1047fb7eed" x="267.545455" y="256.32" style="stroke: #000000; stroke-width: 0.8"/>
      </g>
     </g>
     <g id="text_4">
      <!-- 0:01:30 -->
      <g transform="translate(248.270455 270.918437) scale(0.1 -0.1)">
       <use xlink:href="#DejaVuSans-30"/>
       <use xlink:href="#DejaVuSans-3a" x="63.623047"/>
       <use xlink:href="#DejaVuSans-30" x="97.314453"/>
       <use xlink:href="#DejaVuSans-31" x="160.9375"/>
       <use xlink:href="#DejaVuSans-3a" x="224.560547"/>
       <use xlink:href="#DejaVuSans-33" x="258.251953"/>
       <use xlink:href="#DejaVuSans-30" x="321.875"/>
      </g>
     </g>
    </g>
    <g id="xtick_5">
     <g id="line2d_5">
      <g>
       <use xlink:href="#m1047fb7eed" x="318.272727" y="256.32" style="stroke: #000000; stroke-width: 0.8"/>
      </g>
     </g>
     <g id="text_5">
      <!-- 0:02:00 -->
      <g transform="translate(298.997727 270.918437) scale(0.1 -0.1)">
       <defs>
        <path id="DejaVuSans-32" d="M 1228 531 
L 3431 531 
L 3431 0 
L 469 0 
L 469 531 
Q 828 903 1448 1529 
Q 2069 2156 2228 2338 
Q 2531 2678 2651 2914 
Q 2772 3150 2772 3378 
Q 2772 3750 2511 3984 
Q 2250 4219 1831 4219 
Q 1534 4219 1204 4116 
Q 875 4013 500 3803 
L 500 4441 
Q 881 4594 1212 4672 
Q 1544 4750 1819 4750 
Q 2544 4750 2975 4387 
Q 3406 4025 3406 3419 
Q 3406 3131 3298 2873 
Q 3191 2616 2906 2266 
Q 2828 2175 2409 1742 
Q 1991 1309 1228 531 
z
" transform="scale(0.015625)"/>
       </defs>
       <use xlink:href="#DejaVuSans-30"/>
       <use xlink:href="#DejaVuSans-3a" x="63.623047"/>
       <use xlink:href="#DejaVuSans-30" x="97.314453"/>
       <use xlink:href="#DejaVuSans-32" x="160.9375"/>
       <use xlink:href="#DejaVuSans-3a" x="224.560547"/>
       <use xlink:href="#DejaVuSans-30" x="258.251953"/>
       <use xlink:href="#DejaVuSans-30" x="321.875"/>
      </g>
     </g>
    </g>
    <g id="xtick_6">
     <g id="line2d_6">
      <g>
       <use xlink:href="#m1047fb7eed" x="369" y="256.32" style="stroke: #000000; stroke-width: 0.8"/>
      </g>
     </g>
     <g id="text_6">
      <!-- 0:02:30 -->
      <g transform="translate(349.725 270.918437) scale(0.1 -0.1)">
       <use xlink:href="#DejaVuSans-30"/>
       <use xlink:href="#DejaVuSans-3a" x="63.623047"/>
       <use xlink:href="#DejaVuSans-30" x="97.314453"/>
       <use xlink:href="#DejaVuSans-32" x="160.9375"/>
       <use xlink:href="#DejaVuSans-3a" x="224.560547"/>
       <use xlink:href="#DejaVuSans-33" x="258.251953"/>
       <use xlink:href="#DejaVuSans-30" x="321.875"/>
      </g>
     </g>
    </g>
    <g id="xtick_7">
     <g id="line2d_7">
      <g>
       <use xlink:href="#m1047fb7eed" x="419.727273" y="256.32" style="stroke: #000000; stroke-width: 0.8"/>
      </g>
     </g>
     <g id="text_7">
      <!-- 0:03:00 -->
      <g transform="translate(400.452273 270.918437) scale(0.1 -0.1)">
       <use xlink:href="#DejaVuSans-30"/>
       <use xlink:href="#DejaVuSans-3a" x="63.623047"/>
       <use xlink:href="#DejaVuSans-30" x="97.314453"/>
       <use xlink:href="#DejaVuSans-33" x="160.9375"/>
       <use xlink:href="#DejaVuSans-3a" x="224.560547"/>
       <use xlink:href="#DejaVuSans-30" x="258.251953"/>
       <use xlink:href="#DejaVuSans-30" x="321.875"/>
      </g>
     </g>
    </g>
    <g id="xtick_8">
     <g id="line2d_8">
      <g>
       <use xlink:href="#m1047fb7eed" x="470.454545" y="256.32" style="stroke: #000000; stroke-width: 0.8"/>
      </g>
     </g>
     <g id="text_8">
      <!-- 0:03:30 -->
      <g transform="translate(451.179545 270.918437) scale(0.1 -0.1)">
       <use xlink:href="#DejaVuSans-30"/>
       <use xlink:href="#DejaVuSans-3a" x="63.623047"/>
       <use xlink:href="#DejaVuSans-30" x="97.314453"/>
       <use xlink:href="#DejaVuSans-33" x="160.9375"/>
       <use xlink:href="#DejaVuSans-3a" x="224.560547"/>
       <use xlink:href="#DejaVuSans-33" x="258.251953"/>
       <use xlink:href="#DejaVuSans-30" x="321.875"/>
      </g>
     </g>
    </g>
    <g id="xtick_9">
     <g id="line2d_9">
      <g>
       <use xlink:href="#m1047fb7eed" x="521.181818" y="256.32" style="stroke: #000000; stroke-width: 0.8"/>
      </g>
     </g>
     <g id="text_9">
      <!-- 0:04:00 -->
      <g transform="translate(501.906818 270.918437) scale(0.1 -0.1)">
       <defs>
        <path id="DejaVuSans-34" d="M 2419 4116 
L 825 1625 
L 2419 1625 
L 2419 4116 
z
M 2253 4666 
L 3047 4666 
L 3047 1625 
L 3713 1625 
L 3713 1100 
L 3047 1100 
L 3047 0 
L 2419 0 
L 2419 1100 
L 313 1100 
L 313 1709 
L 2253 4666 
z
" transform="scale(0.015625)"/>
       </defs>
       <use xlink:href="#DejaVuSans-30"/>
       <use xlink:href="#DejaVuSans-3a" x="63.623047"/>
       <use xlink:href="#DejaVuSans-30" x="97.314453"/>
       <use xlink:href="#DejaVuSans-34" x="160.9375"/>
       <use xlink:href="#DejaVuSans-3a" x="224.560547"/>
       <use xlink:href="#DejaVuSans-30" x="258.251953"/>
       <use xlink:href="#DejaVuSans-30" x="321.875"/>
      </g>
     </g>
    </g>
    <g id="xtick_10">
     <g id="line2d_10">
      <g>
       <use xlink:href="#m1047fb7eed" x="571.909091" y="256.32" style="stroke: #000000; stroke-width: 0.8"/>
      </g>
     </g>
     <g id="text_10">
      <!-- 0:04:30 -->
      <g transform="translate(552.634091 270.918437) scale(0.1 -0.1)">
       <use xlink:href="#DejaVuSans-30"/>
       <use xlink:href="#DejaVuSans-3a" x="63.623047"/>
       <use xlink:href="#DejaVuSans-30" x="97.314453"/>
       <use xlink:href="#DejaVuSans-34" x="160.9375"/>
       <use xlink:href="#DejaVuSans-3a" x="224.560547"/>
       <use xlink:href="#DejaVuSans-33" x="258.251953"/>
       <use xlink:href="#DejaVuSans-30" x="321.875"/>
      </g>
     </g>
    </g>
    <g id="xtick_11">
     <g id="line2d_11">
      <g>
       <use xlink:href="#m1047fb7eed" x="622.636364" y="256.32" style="stroke: #000000; stroke-width: 0.8"/>
      </g>
     </g>
     <g id="text_11">
      <!-- 0:05:00 -->
      <g transform="translate(603.361364 270.918437) scale(0.1 -0.1)">
       <defs>
        <path id="DejaVuSans-35" d="M 691 4666 
L 3169 4666 
L 3169 4134 
L 1269 4134 
L 1269 2991 
Q 1406 3038 1543 3061 
Q 1681 3084 1819 3084 
Q 2600 3084 3056 2656 
Q 3513 2228 3513 1497 
Q 3513 744 3044 326 
Q 2575 -91 1722 -91 
Q 1428 -91 1123 -41 
Q 819 9 494 109 
L 494 744 
Q 775 591 1075 516 
Q 1375 441 1709 441 
Q 2250 441 2565 725 
Q 2881 1009 2881 1497 
Q 2881 1984 2565 2268 
Q 2250 2553 1709 2553 
Q 1456 2553 1204 2497 
Q 953 2441 691 2322 
L 691 4666 
z
" transform="scale(0.015625)"/>
       </defs>
       <use xlink:href="#DejaVuSans-30"/>
       <use xlink:href="#DejaVuSans-3a" x="63.623047"/>
       <use xlink:href="#DejaVuSans-30" x="97.314453"/>
       <use xlink:href="#DejaVuSans-35" x="160.9375"/>
       <use xlink:href="#DejaVuSans-3a" x="224.560547"/>
       <use xlink:href="#DejaVuSans-30" x="258.251953"/>
       <use xlink:href="#DejaVuSans-30" x="321.875"/>
      </g>
     </g>
    </g>
    <g id="text_12">
     <!-- Time -->
     <g transform="translate(356.766406 284.596563) scale(0.1 -0.1)">
      <defs>
       <path id="DejaVuSans-54" d="M -19 4666 
L 3928 4666 
L 3928 4134 
L 2272 4134 
L 2272 0 
L 1638 0 
L 1638 4134 
L -19 4134 
L -19 4666 
z
" transform="scale(0.015625)"/>
       <path id="DejaVuSans-69" d="M 603 3500 
L 1178 3500 
L 1178 0 
L 603 0 
L 603 3500 
z
M 603 4863 
L 1178 4863 
L 1178 4134 
L 603 4134 
L 603 4863 
z
" transform="scale(0.015625)"/>
       <path id="DejaVuSans-6d" d="M 3328 2828 
Q 3544 3216 3844 3400 
Q 4144 3584 4550 3584 
Q 5097 3584 5394 3201 
Q 5691 2819 5691 2113 
L 5691 0 
L 5113 0 
L 5113 2094 
Q 5113 2597 4934 2840 
Q 4756 3084 4391 3084 
Q 3944 3084 3684 2787 
Q 3425 2491 3425 1978 
L 3425 0 
L 2847 0 
L 2847 2094 
Q 2847 2600 2669 2842 
Q 2491 3084 2119 3084 
Q 1678 3084 1418 2786 
Q 1159 2488 1159 1978 
L 1159 0 
L 581 0 
L 581 3500 
L 1159 3500 
L 1159 2956 
Q 1356 3278 1631 3431 
Q 1906 3584 2284 3584 
Q 2666 3584 2933 3390 
Q 3200 3197 3328 2828 
z
" transform="scale(0.015625)"/>
       <path id="DejaVuSans-65" d="M 3597 1894 
L 3597 1613 
L 953 1613 
Q 991 1019 1311 708 
Q 1631 397 2203 397 
Q 2534 397 2845 478 
Q 3156 559 3463 722 
L 3463 178 
Q 3153 47 2828 -22 
Q 2503 -91 2169 -91 
Q 1331 -91 842 396 
Q 353 884 353 1716 
Q 353 2575 817 3079 
Q 1281 3584 2069 3584 
Q 2775 3584 3186 3129 
Q 3597 2675 3597 1894 
z
M 3022 2063 
Q 3016 2534 2758 2815 
Q 2500 3097 2075 3097 
Q 1594 3097 1305 2825 
Q 1016 2553 972 2059 
L 3022 2063 
z
" transform="scale(0.015625)"/>
      </defs>
      <use xlink:href="#DejaVuSans-54"/>
      <use xlink:href="#DejaVuSans-69" x="57.958984"/>
      <use xlink:href="#DejaVuSans-6d" x="85.742188"/>
      <use xlink:href="#DejaVuSans-65" x="183.154297"/>
     </g>
    </g>
   </g>
   <g id="matplotlib.axis_2">
    <g id="ytick_1">
     <g id="line2d_12">
      <path d="M 90 246.24 
L 648 246.24 
" clip-path="url(#pc2da562cba)" style="fill: none; stroke: #b0b0b0; stroke-width: 0.8; stroke-linecap: square"/>
     </g>
     <g id="line2d_13">
      <defs>
       <path id="m734ba856ea" d="M 0 0 
L -3.5 0 
" style="stroke: #000000; stroke-width: 0.8"/>
      </defs>
      <g>
       <use xlink:href="#m734ba856ea" x="90" y="246.24" style="stroke: #000000; stroke-width: 0.8"/>
      </g>
     </g>
     <g id="text_13">
      <!-- 0 -->
      <g transform="translate(76.6375 250.039219) scale(0.1 -0.1)">
       <use xlink:href="#DejaVuSans-30"/>
      </g>
     </g>
    </g>
    <g id="ytick_2">
     <g id="line2d_14">
      <path d="M 90 200.916259 
L 648 200.916259 
" clip-path="url(#pc2da562cba)" style="fill: none; stroke: #b0b0b0; stroke-width: 0.8; stroke-linecap: square"/>
     </g>
     <g id="line2d_15">
      <g>
       <use xlink:href="#m734ba856ea" x="90" y="200.916259" style="stroke: #000000; stroke-width: 0.8"/>
      </g>
     </g>
     <g id="text_14">
      <!-- 1,000 -->
      <g transform="translate(54.371875 204.715478) scale(0.1 -0.1)">
       <defs>
        <path id="DejaVuSans-2c" d="M 750 794 
L 1409 794 
L 1409 256 
L 897 -744 
L 494 -744 
L 750 256 
L 750 794 
z
" transform="scale(0.015625)"/>
       </defs>
       <use xlink:href="#DejaVuSans-31"/>
       <use xlink:href="#DejaVuSans-2c" x="63.623047"/>
       <use xlink:href="#DejaVuSans-30" x="95.410156"/>
       <use xlink:href="#DejaVuSans-30" x="159.033203"/>
       <use xlink:href="#DejaVuSans-30" x="222.65625"/>
      </g>
     </g>
    </g>
    <g id="ytick_3">
     <g id="line2d_16">
      <path d="M 90 155.592518 
L 648 155.592518 
" clip-path="url(#pc2da562cba)" style="fill: none; stroke: #b0b0b0; stroke-width: 0.8; stroke-linecap: square"/>
     </g>
     <g id="line2d_17">
      <g>
       <use xlink:href="#m734ba856ea" x="90" y="155.592518" style="stroke: #000000; stroke-width: 0.8"/>
      </g>
     </g>
     <g id="text_15">
      <!-- 2,000 -->
      <g transform="translate(54.371875 159.391737) scale(0.1 -0.1)">
       <use xlink:href="#DejaVuSans-32"/>
       <use xlink:href="#DejaVuSans-2c" x="63.623047"/>
       <use xlink:href="#DejaVuSans-30" x="95.410156"/>
       <use xlink:href="#DejaVuSans-30" x="159.033203"/>
       <use xlink:href="#DejaVuSans-30" x="222.65625"/>
      </g>
     </g>
    </g>
    <g id="ytick_4">
     <g id="line2d_18">
      <path d="M 90 110.268777 
L 648 110.268777 
" clip-path="url(#pc2da562cba)" style="fill: none; stroke: #b0b0b0; stroke-width: 0.8; stroke-linecap: square"/>
     </g>
     <g id="line2d_19">
      <g>
       <use xlink:href="#m734ba856ea" x="90" y="110.268777" style="stroke: #000000; stroke-width: 0.8"/>
      </g>
     </g>
     <g id="text_16">
      <!-- 3,000 -->
      <g transform="translate(54.371875 114.067996) scale(0.1 -0.1)">
       <use xlink:href="#DejaVuSans-33"/>
       <use xlink:href="#DejaVuSans-2c" x="63.623047"/>
       <use xlink:href="#DejaVuSans-30" x="95.410156"/>
       <use xlink:href="#DejaVuSans-30" x="159.033203"/>
       <use xlink:href="#DejaVuSans-30" x="222.65625"/>
      </g>
     </g>
    </g>
    <g id="ytick_5">
     <g id="line2d_20">
      <path d="M 90 64.945036 
L 648 64.945036 
" clip-path="url(#pc2da562cba)" style="fill: none; stroke: #b0b0b0; stroke-width: 0.8; stroke-linecap: square"/>
     </g>
     <g id="line2d_21">
      <g>
       <use xlink:href="#m734ba856ea" x="90" y="64.945036" style="stroke: #000000; stroke-width: 0.8"/>
      </g>
     </g>
     <g id="text_17">
      <!-- 4,000 -->
      <g transform="translate(54.371875 68.744255) scale(0.1 -0.1)">
       <use xlink:href="#DejaVuSans-34"/>
       <use xlink:href="#DejaVuSans-2c" x="63.623047"/>
       <use xlink:href="#DejaVuSans-30" x="95.410156"/>
       <use xlink:href="#DejaVuSans-30" x="159.033203"/>
       <use xlink:href="#DejaVuSans-30" x="222.65625"/>
      </g>
     </g>
    </g>
    <g id="text_18">
     <!-- Bitrate (kbit/s) -->
     <g transform="translate(48.292187 181.574375) rotate(-90) scale(0.1 -0.1)">
      <defs>
       <path id="DejaVuSans-42" d="M 1259 2228 
L 1259 519 
L 2272 519 
Q 2781 519 3026 730 
Q 3272 941 3272 1375 
Q 3272 1813 3026 2020 
Q 2781 2228 2272 2228 
L 1259 2228 
z
M 1259 4147 
L 1259 2741 
L 2194 2741 
Q 2656 2741 2882 2914 
Q 3109 3088 3109 3444 
Q 3109 3797 2882 3972 
Q 2656 4147 2194 4147 
L 1259 4147 
z
M 628 4666 
L 2241 4666 
Q 2963 4666 3353 4366 
Q 3744 4066 3744 3513 
Q 3744 3084 3544 2831 
Q 3344 2578 2956 2516 
Q 3422 2416 3680 2098 
Q 3938 1781 3938 1306 
Q 3938 681 3513 340 
Q 3088 0 2303 0 
L 628 0 
L 628 4666 
z
" transform="scale(0.015625)"/>
       <path id="DejaVuSans-74" d="M 1172 4494 
L 1172 3500 
L 2356 3500 
L 2356 3053 
L 1172 3053 
L 1172 1153 
Q 1172 725 1289 603 
Q 1406 481 1766 481 
L 2356 481 
L 2356 0 
L 1766 0 
Q 1100 0 847 248 
Q 594 497 594 1153 
L 594 3053 
L 172 3053 
L 172 3500 
L 594 3500 
L 594 4494 
L 1172 4494 
z
" transform="scale(0.015625)"/>
       <path id="DejaVuSans-72" d="M 2631 2963 
Q 2534 3019 2420 3045 
Q 2306 3072 2169 3072 
Q 1681 3072 1420 2755 
Q 1159 2438 1159 1844 
L 1159 0 
L 581 0 
L 581 3500 
L 1159 3500 
L 1159 2956 
Q 1341 3275 1631 3429 
Q 1922 3584 2338 3584 
Q 2397 3584 2469 3576 
Q 2541 3569 2628 3553 
L 2631 2963 
z
" transform="scale(0.015625)"/>
       <path id="DejaVuSans-61" d="M 2194 1759 
Q 1497 1759 1228 1600 
Q 959 1441 959 1056 
Q 959 750 1161 570 
Q 1363 391 1709 391 
Q 2188 391 2477 730 
Q 2766 1069 2766 1631 
L 2766 1759 
L 2194 1759 
z
M 3341 1997 
L 3341 0 
L 2766 0 
L 2766 531 
Q 2569 213 2275 61 
Q 1981 -91 1556 -91 
Q 1019 -91 701 211 
Q 384 513 384 1019 
Q 384 1609 779 1909 
Q 1175 2209 1959 2209 
L 2766 2209 
L 2766 2266 
Q 2766 2663 2505 2880 
Q 2244 3097 1772 3097 
Q 1472 3097 1187 3025 
Q 903 2953 641 2809 
L 641 3341 
Q 956 3463 1253 3523 
Q 1550 3584 1831 3584 
Q 2591 3584 2966 3190 
Q 3341 2797 3341 1997 
z
" transform="scale(0.015625)"/>
       <path id="DejaVuSans-20" transform="scale(0.015625)"/>
       <path id="DejaVuSans-28" d="M 1984 4856 
Q 1566 4138 1362 3434 
Q 1159 2731 1159 2009 
Q 1159 1288 1364 580 
Q 1569 -128 1984 -844 
L 1484 -844 
Q 1016 -109 783 600 
Q 550 1309 550 2009 
Q 550 2706 781 3412 
Q 1013 4119 1484 4856 
L 1984 4856 
z
" transform="scale(0.015625)"/>
       <path id="DejaVuSans-6b" d="M 581 4863 
L 1159 4863 
L 1159 1991 
L 2875 3500 
L 3609 3500 
L 1753 1863 
L 3688 0 
L 2938 0 
L 1159 1709 
L 1159 0 
L 581 0 
L 581 4863 
z
" transform="scale(0.015625)"/>
       <path id="DejaVuSans-62" d="M 3116 1747 
Q 3116 2381 2855 2742 
Q 2594 3103 2138 3103 
Q 1681 3103 1420 2742 
Q 1159 2381 1159 1747 
Q 1159 1113 1420 752 
Q 1681 391 2138 391 
Q 2594 391 2855 752 
Q 3116 1113 3116 1747 
z
M 1159 2969 
Q 1341 3281 1617 3432 
Q 1894 3584 2278 3584 
Q 2916 3584 3314 3078 
Q 3713 2572 3713 1747 
Q 3713 922 3314 415 
Q 2916 -91 2278 -91 
Q 1894 -91 1617 61 
Q 1341 213 1159 525 
L 1159 0 
L 581 0 
L 581 4863 
L 1159 4863 
L 1159 2969 
z
" transform="scale(0.015625)"/>
       <path id="DejaVuSans-2f" d="M 1625 4666 
L 2156 4666 
L 531 -594 
L 0 -594 
L 1625 4666 
z
" transform="scale(0.015625)"/>
       <path id="DejaVuSans-73" d="M 2834 3397 
L 2834 2853 
Q 2591 2978 2328 3040 
Q 2066 3103 1784 3103 
Q 1356 3103 1142 2972 
Q 928 2841 928 2578 
Q 928 2378 1081 2264 
Q 1234 2150 1697 2047 
L 1894 2003 
Q 2506 1872 2764 1633 
Q 3022 1394 3022 966 
Q 3022 478 2636 193 
Q 2250 -91 1575 -91 
Q 1294 -91 989 -36 
Q 684 19 347 128 
L 347 722 
Q 666 556 975 473 
Q 1284 391 1588 391 
Q 1994 391 2212 530 
Q 2431 669 2431 922 
Q 2431 1156 2273 1281 
Q 2116 1406 1581 1522 
L 1381 1569 
Q 847 1681 609 1914 
Q 372 2147 372 2553 
Q 372 3047 722 3315 
Q 1072 3584 1716 3584 
Q 2034 3584 2315 3537 
Q 2597 3491 2834 3397 
z
" transform="scale(0.015625)"/>
       <path id="DejaVuSans-29" d="M 513 4856 
L 1013 4856 
Q 1481 4119 1714 3412 
Q 1947 2706 1947 2009 
Q 1947 1309 1714 600 
Q 1481 -109 1013 -844 
L 513 -844 
Q 928 -128 1133 580 
Q 1338 1288 1338 2009 
Q 1338 2731 1133 3434 
Q 928 4138 513 4856 
z
" transform="scale(0.015625)"/>
      </defs>
      <use xlink:href="#DejaVuSans-42"/>
      <use xlink:href="#DejaVuSans-69" x="68.603516"/>
      <use xlink:href="#DejaVuSans-74" x="96.386719"/>
      <use xlink:href="#DejaVuSans-72" x="135.595703"/>
      <use xlink:href="#DejaVuSans-61" x="176.708984"/>
      <use xlink:href="#DejaVuSans-74" x="237.988281"/>
      <use xlink:href="#DejaVuSans-65" x="277.197266"/>
      <use xlink:href="#DejaVuSans-20" x="338.720703"/>
      <use xlink:href="#DejaVuSans-28" x="370.507812"/>
      <use xlink:href="#DejaVuSans-6b" x="409.521484"/>
      <use xlink:href="#DejaVuSans-62" x="467.431641"/>
      <use xlink:href="#DejaVuSans-69" x="530.908203"/>
      <use xlink:href="#DejaVuSans-74" x="558.691406"/>
      <use xlink:href="#DejaVuSans-2f" x="597.900391"/>
      <use xlink:href="#DejaVuSans-73" x="631.591797"/>
      <use xlink:href="#DejaVuSans-29" x="683.691406"/>
     </g>
    </g>
   </g>
   <g id="PolyCollection_1">
    <defs>
     <path id="me9f1d2169b" d="M 115.363636 -42.757122 
L 115.363636 -41.76 
L 117.054545 -41.76 
L 118.745455 -41.76 
L 120.436364 -41.76 
L 122.127273 -41.76 
L 123.818182 -41.76 
L 125.509091 -41.76 
L 127.2 -41.76 
L 128.890909 -41.76 
L 130.581818 -41.76 
L 132.272727 -41.76 
L 133.963636 -41.76 
L 135.654545 -41.76 
L 137.345455 -41.76 
L 139.036364 -41.76 
L 140.727273 -41.76 
L 142.418182 -41.76 
L 144.109091 -41.76 
L 145.8 -41.76 
L 147.490909 -41.76 
L 149.181818 -41.76 
L 150.872727 -41.76 
L 152.563636 -41.76 
L 154.254545 -41.76 
L 155.945455 -41.76 
L 157.636364 -41.76 
L 159.327273 -41.76 
L 161.018182 -41.76 
L 162.709091 -41.76 
L 164.4 -41.76 
L 166.090909 -41.76 
L 167.781818 -41.76 
L 169.472727 -41.76 
L 171.163636 -41.76 
L 172.854545 -41.76 
L 174.545455 -41.76 
L 176.236364 -41.76 
L 177.927273 -41.76 
L 179.618182 -41.76 
L 181.309091 -41.76 
L 183 -41.76 
L 184.690909 -41.76 
L 186.381818 -41.76 
L 188.072727 -41.76 
L 189.763636 -41.76 
L 191.454545 -41.76 
L 193.145455 -41.76 
L 194.836364 -41.76 
L 196.527273 -41.76 
L 198.218182 -41.76 
L 199.909091 -41.76 
L 201.6 -41.76 
L 203.290909 -41.76 
L 204.981818 -41.76 
L 206.672727 -41.76 
L 208.363636 -41.76 
L 210.054545 -41.76 
L 211.745455 -41.76 
L 213.436364 -41.76 
L 215.127273 -41.76 
L 216.818182 -41.76 
L 218.509091 -41.76 
L 220.2 -41.76 
L 221.890909 -41.76 
L 223.581818 -41.76 
L 225.272727 -41.76 
L 226.963636 -41.76 
L 228.654545 -41.76 
L 230.345455 -41.76 
L 232.036364 -41.76 
L 233.727273 -41.76 
L 235.418182 -41.76 
L 237.109091 -41.76 
L 238.8 -41.76 
L 240.490909 -41.76 
L 242.181818 -41.76 
L 243.872727 -41.76 
L 245.563636 -41.76 
L 247.254545 -41.76 
L 248.945455 -41.76 
L 250.636364 -41.76 
L 252.327273 -41.76 
L 254.018182 -41.76 
L 255.709091 -41.76 
L 257.4 -41.76 
L 259.090909 -41.76 
L 260.781818 -41.76 
L 262.472727 -41.76 
L 264.163636 -41.76 
L 265.854545 -41.76 
L 267.545455 -41.76 
L 269.236364 -41.76 
L 270.927273 -41.76 
L 272.618182 -41.76 
L 274.309091 -41.76 
L 276 -41.76 
L 277.690909 -41.76 
L 279.381818 -41.76 
L 281.072727 -41.76 
L 282.763636 -41.76 
L 284.454545 -41.76 
L 286.145455 -41.76 
L 287.836364 -41.76 
L 289.527273 -41.76 
L 291.218182 -41.76 
L 292.909091 -41.76 
L 294.6 -41.76 
L 296.290909 -41.76 
L 297.981818 -41.76 
L 299.672727 -41.76 
L 301.363636 -41.76 
L 303.054545 -41.76 
L 304.745455 -41.76 
L 306.436364 -41.76 
L 308.127273 -41.76 
L 309.818182 -41.76 
L 311.509091 -41.76 
L 313.2 -41.76 
L 314.890909 -41.76 
L 316.581818 -41.76 
L 318.272727 -41.76 
L 319.963636 -41.76 
L 321.654545 -41.76 
L 323.345455 -41.76 
L 325.036364 -41.76 
L 326.727273 -41.76 
L 328.418182 -41.76 
L 330.109091 -41.76 
L 331.8 -41.76 
L 333.490909 -41.76 
L 335.181818 -41.76 
L 336.872727 -41.76 
L 338.563636 -41.76 
L 340.254545 -41.76 
L 341.945455 -41.76 
L 343.636364 -41.76 
L 345.327273 -41.76 
L 347.018182 -41.76 
L 348.709091 -41.76 
L 350.4 -41.76 
L 352.090909 -41.76 
L 353.781818 -41.76 
L 355.472727 -41.76 
L 357.163636 -41.76 
L 358.854545 -41.76 
L 360.545455 -41.76 
L 362.236364 -41.76 
L 363.927273 -41.76 
L 365.618182 -41.76 
L 367.309091 -41.76 
L 369 -41.76 
L 370.690909 -41.76 
L 372.381818 -41.76 
L 374.072727 -41.76 
L 375.763636 -41.76 
L 377.454545 -41.76 
L 379.145455 -41.76 
L 380.836364 -41.76 
L 382.527273 -41.76 
L 384.218182 -41.76 
L 385.909091 -41.76 
L 387.6 -41.76 
L 389.290909 -41.76 
L 390.981818 -41.76 
L 392.672727 -41.76 
L 394.363636 -41.76 
L 396.054545 -41.76 
L 397.745455 -41.76 
L 399.436364 -41.76 
L 401.127273 -41.76 
L 402.818182 -41.76 
L 404.509091 -41.76 
L 406.2 -41.76 
L 407.890909 -41.76 
L 409.581818 -41.76 
L 411.272727 -41.76 
L 412.963636 -41.76 
L 414.654545 -41.76 
L 416.345455 -41.76 
L 418.036364 -41.76 
L 419.727273 -41.76 
L 421.418182 -41.76 
L 423.109091 -41.76 
L 424.8 -41.76 
L 426.490909 -41.76 
L 428.181818 -41.76 
L 429.872727 -41.76 
L 431.563636 -41.76 
L 433.254545 -41.76 
L 434.945455 -41.76 
L 436.636364 -41.76 
L 438.327273 -41.76 
L 440.018182 -41.76 
L 441.709091 -41.76 
L 443.4 -41.76 
L 445.090909 -41.76 
L 446.781818 -41.76 
L 448.472727 -41.76 
L 450.163636 -41.76 
L 451.854545 -41.76 
L 453.545455 -41.76 
L 455.236364 -41.76 
L 456.927273 -41.76 
L 458.618182 -41.76 
L 460.309091 -41.76 
L 462 -41.76 
L 463.690909 -41.76 
L 465.381818 -41.76 
L 467.072727 -41.76 
L 468.763636 -41.76 
L 470.454545 -41.76 
L 472.145455 -41.76 
L 473.836364 -41.76 
L 475.527273 -41.76 
L 477.218182 -41.76 
L 478.909091 -41.76 
L 480.6 -41.76 
L 482.290909 -41.76 
L 483.981818 -41.76 
L 485.672727 -41.76 
L 487.363636 -41.76 
L 489.054545 -41.76 
L 490.745455 -41.76 
L 492.436364 -41.76 
L 494.127273 -41.76 
L 495.818182 -41.76 
L 497.509091 -41.76 
L 499.2 -41.76 
L 500.890909 -41.76 
L 502.581818 -41.76 
L 504.272727 -41.76 
L 505.963636 -41.76 
L 507.654545 -41.76 
L 509.345455 -41.76 
L 511.036364 -41.76 
L 512.727273 -41.76 
L 514.418182 -41.76 
L 516.109091 -41.76 
L 517.8 -41.76 
L 519.490909 -41.76 
L 521.181818 -41.76 
L 522.872727 -41.76 
L 524.563636 -41.76 
L 526.254545 -41.76 
L 527.945455 -41.76 
L 529.636364 -41.76 
L 531.327273 -41.76 
L 533.018182 -41.76 
L 534.709091 -41.76 
L 536.4 -41.76 
L 538.090909 -41.76 
L 539.781818 -41.76 
L 541.472727 -41.76 
L 543.163636 -41.76 
L 544.854545 -41.76 
L 546.545455 -41.76 
L 548.236364 -41.76 
L 549.927273 -41.76 
L 551.618182 -41.76 
L 553.309091 -41.76 
L 555 -41.76 
L 556.690909 -41.76 
L 558.381818 -41.76 
L 560.072727 -41.76 
L 561.763636 -41.76 
L 563.454545 -41.76 
L 565.145455 -41.76 
L 566.836364 -41.76 
L 568.527273 -41.76 
L 570.218182 -41.76 
L 571.909091 -41.76 
L 573.6 -41.76 
L 575.290909 -41.76 
L 576.981818 -41.76 
L 578.672727 -41.76 
L 580.363636 -41.76 
L 582.054545 -41.76 
L 583.745455 -41.76 
L 585.436364 -41.76 
L 587.127273 -41.76 
L 588.818182 -41.76 
L 590.509091 -41.76 
L 592.2 -41.76 
L 593.890909 -41.76 
L 595.581818 -41.76 
L 597.272727 -41.76 
L 598.963636 -41.76 
L 600.654545 -41.76 
L 602.345455 -41.76 
L 604.036364 -41.76 
L 605.727273 -41.76 
L 607.418182 -41.76 
L 609.109091 -41.76 
L 610.8 -41.76 
L 612.490909 -41.76 
L 614.181818 -41.76 
L 615.872727 -41.76 
L 617.563636 -41.76 
L 619.254545 -41.76 
L 620.945455 -41.76 
L 622.636364 -41.76 
L 622.636364 -41.76 
L 622.636364 -41.76 
L 620.945455 -61.929065 
L 619.254545 -41.76 
L 617.563636 -41.76 
L 615.872727 -66.461439 
L 614.181818 -41.76 
L 612.490909 -41.76 
L 610.8 -115.048489 
L 609.109091 -41.76 
L 607.418182 -41.76 
L 605.727273 -41.76 
L 604.036364 -122.798849 
L 602.345455 -41.76 
L 600.654545 -41.76 
L 598.963636 -41.76 
L 597.272727 -71.129784 
L 595.581818 -91.888058 
L 593.890909 -41.76 
L 592.2 -96.64705 
L 590.509091 -41.76 
L 588.818182 -59.662878 
L 587.127273 -41.76 
L 585.436364 -110.516115 
L 583.745455 -41.76 
L 582.054545 -41.76 
L 580.363636 -41.76 
L 578.672727 -106.029065 
L 576.981818 -41.76 
L 575.290909 -41.76 
L 573.6 -41.76 
L 571.909091 -67.413237 
L 570.218182 -41.76 
L 568.527273 -74.211799 
L 566.836364 -76.749928 
L 565.145455 -41.76 
L 563.454545 -58.756403 
L 561.763636 -41.76 
L 560.072727 -141.970791 
L 558.381818 -41.76 
L 556.690909 -87.038417 
L 555 -41.76 
L 553.309091 -54.72259 
L 551.618182 -98.731942 
L 549.927273 -41.76 
L 548.236364 -53.453525 
L 546.545455 -54.541295 
L 544.854545 -41.76 
L 543.163636 -41.76 
L 541.472727 -65.50964 
L 539.781818 -41.76 
L 538.090909 -41.76 
L 536.4 -41.76 
L 534.709091 -41.76 
L 533.018182 -112.011799 
L 531.327273 -143.64777 
L 529.636364 -61.838417 
L 527.945455 -41.76 
L 526.254545 -41.76 
L 524.563636 -41.76 
L 522.872727 -61.702446 
L 521.181818 -41.76 
L 519.490909 -41.76 
L 517.8 -41.76 
L 516.109091 -41.76 
L 514.418182 -68.319712 
L 512.727273 -41.76 
L 511.036364 -122.436259 
L 509.345455 -41.76 
L 507.654545 -41.76 
L 505.963636 -41.76 
L 504.272727 -67.458561 
L 502.581818 -41.76 
L 500.890909 -154.706763 
L 499.2 -41.76 
L 497.509091 -41.76 
L 495.818182 -81.282302 
L 494.127273 -52.139137 
L 492.436364 -41.76 
L 490.745455 -64.195252 
L 489.054545 -41.76 
L 487.363636 -41.76 
L 485.672727 -41.76 
L 483.981818 -66.506763 
L 482.290909 -41.76 
L 480.6 -67.050647 
L 478.909091 -41.76 
L 477.218182 -41.76 
L 475.527273 -65.328345 
L 473.836364 -41.76 
L 472.145455 -58.575108 
L 470.454545 -69.044892 
L 468.763636 -41.76 
L 467.072727 -82.279424 
L 465.381818 -41.76 
L 463.690909 -41.76 
L 462 -41.76 
L 460.309091 -66.96 
L 458.618182 -41.76 
L 456.927273 -41.76 
L 455.236364 -58.076547 
L 453.545455 -59.753525 
L 451.854545 -53.725468 
L 450.163636 -41.76 
L 448.472727 -41.76 
L 446.781818 -55.629065 
L 445.090909 -41.76 
L 443.4 -41.76 
L 441.709091 -81.554245 
L 440.018182 -41.76 
L 438.327273 -41.76 
L 436.636364 -47.788058 
L 434.945455 -71.401727 
L 433.254545 -41.76 
L 431.563636 -41.76 
L 429.872727 -41.76 
L 428.181818 -41.76 
L 426.490909 -80.919712 
L 424.8 -41.76 
L 423.109091 -73.26 
L 421.418182 -41.76 
L 419.727273 -84.726906 
L 418.036364 -41.76 
L 416.345455 -53.136259 
L 414.654545 -41.76 
L 412.963636 -41.76 
L 411.272727 -41.76 
L 409.581818 -41.76 
L 407.890909 -53.816115 
L 406.2 -86.131942 
L 404.509091 -41.76 
L 402.818182 -57.623309 
L 401.127273 -41.76 
L 399.436364 -41.76 
L 397.745455 -84.862878 
L 396.054545 -55.493094 
L 394.363636 -86.086619 
L 392.672727 -87.854245 
L 390.981818 -41.76 
L 389.290909 -41.76 
L 387.6 -41.76 
L 385.909091 -92.069353 
L 384.218182 -41.76 
L 382.527273 -41.76 
L 380.836364 -77.021871 
L 379.145455 -41.76 
L 377.454545 -41.76 
L 375.763636 -41.76 
L 374.072727 -81.826187 
L 372.381818 -41.76 
L 370.690909 -41.76 
L 369 -172.020432 
L 367.309091 -41.76 
L 365.618182 -41.76 
L 363.927273 -67.911799 
L 362.236364 -41.76 
L 360.545455 -41.76 
L 358.854545 -41.76 
L 357.163636 -78.426906 
L 355.472727 -41.76 
L 353.781818 -41.76 
L 352.090909 -41.76 
L 350.4 -78.018993 
L 348.709091 -41.76 
L 347.018182 -41.76 
L 345.327273 -41.76 
L 343.636364 -74.574388 
L 341.945455 -41.76 
L 340.254545 -41.76 
L 338.563636 -41.76 
L 336.872727 -77.973669 
L 335.181818 -41.76 
L 333.490909 -41.76 
L 331.8 -41.76 
L 330.109091 -75.390216 
L 328.418182 -41.76 
L 326.727273 -70.042014 
L 325.036364 -41.76 
L 323.345455 -41.76 
L 321.654545 -91.661439 
L 319.963636 -94.290216 
L 318.272727 -41.76 
L 316.581818 -41.76 
L 314.890909 -41.76 
L 313.2 -107.932662 
L 311.509091 -50.915396 
L 309.818182 -41.76 
L 308.127273 -41.76 
L 306.436364 -41.76 
L 304.745455 -54.314676 
L 303.054545 -41.76 
L 301.363636 -41.76 
L 299.672727 -41.76 
L 297.981818 -54.631942 
L 296.290909 -41.76 
L 294.6 -41.76 
L 292.909091 -41.76 
L 291.218182 -125.427626 
L 289.527273 -41.76 
L 287.836364 -41.76 
L 286.145455 -41.76 
L 284.454545 -41.76 
L 282.763636 -67.639856 
L 281.072727 -41.76 
L 279.381818 -41.76 
L 277.690909 -41.76 
L 276 -74.211799 
L 274.309091 -90.890935 
L 272.618182 -41.76 
L 270.927273 -69.815396 
L 269.236364 -41.76 
L 267.545455 -41.76 
L 265.854545 -41.76 
L 264.163636 -68.274388 
L 262.472727 -41.76 
L 260.781818 -41.76 
L 259.090909 -41.76 
L 257.4 -87.536978 
L 255.709091 -41.76 
L 254.018182 -41.76 
L 252.327273 -41.76 
L 250.636364 -41.76 
L 248.945455 -90.256403 
L 247.254545 -41.76 
L 245.563636 -57.260719 
L 243.872727 -41.76 
L 242.181818 -115.320432 
L 240.490909 -41.76 
L 238.8 -76.432662 
L 237.109091 -53.861439 
L 235.418182 -41.76 
L 233.727273 -41.76 
L 232.036364 -41.76 
L 230.345455 -99.321151 
L 228.654545 -41.76 
L 226.963636 -41.76 
L 225.272727 -61.430504 
L 223.581818 -61.02259 
L 221.890909 -41.76 
L 220.2 -41.76 
L 218.509091 -41.76 
L 216.818182 -93.066475 
L 215.127273 -41.76 
L 213.436364 -41.76 
L 211.745455 -41.76 
L 210.054545 -99.955683 
L 208.363636 -41.76 
L 206.672727 -41.76 
L 204.981818 -41.76 
L 203.290909 -117.405324 
L 201.6 -41.76 
L 199.909091 -41.76 
L 198.218182 -41.76 
L 196.527273 -79.741295 
L 194.836364 -41.76 
L 193.145455 -41.76 
L 191.454545 -41.76 
L 189.763636 -41.76 
L 188.072727 -82.234101 
L 186.381818 -41.76 
L 184.690909 -41.76 
L 183 -41.76 
L 181.309091 -105.031942 
L 179.618182 -41.76 
L 177.927273 -41.76 
L 176.236364 -41.76 
L 174.545455 -113.960719 
L 172.854545 -41.76 
L 171.163636 -41.76 
L 169.472727 -41.76 
L 167.781818 -109.111079 
L 166.090909 -41.76 
L 164.4 -41.76 
L 162.709091 -41.76 
L 161.018182 -144.508921 
L 159.327273 -41.76 
L 157.636364 -41.76 
L 155.945455 -59.300288 
L 154.254545 -41.76 
L 152.563636 -41.76 
L 150.872727 -41.76 
L 149.181818 -65.237698 
L 147.490909 -41.76 
L 145.8 -41.76 
L 144.109091 -41.76 
L 142.418182 -133.313957 
L 140.727273 -41.76 
L 139.036364 -41.76 
L 137.345455 -41.76 
L 135.654545 -114.187338 
L 133.963636 -41.76 
L 132.272727 -41.76 
L 130.581818 -41.76 
L 128.890909 -73.395971 
L 127.2 -41.76 
L 125.509091 -41.76 
L 123.818182 -41.76 
L 122.127273 -43.391655 
L 120.436364 -41.76 
L 118.745455 -41.76 
L 117.054545 -41.76 
L 115.363636 -42.757122 
z
" style="stroke: #ff0000; stroke-width: 0.5"/>
    </defs>
    <g clip-path="url(#pc2da562cba)">
     <use xlink:href="#me9f1d2169b" x="0" y="288" style="fill: #ff0000; stroke: #ff0000; stroke-width: 0.5"/>
    </g>
   </g>
   <g id="PolyCollection_2">
    <defs>
     <path id="mabb41d567e" d="M 115.363636 -48.467914 
L 115.363636 -42.757122 
L 117.054545 -41.76 
L 118.745455 -41.76 
L 120.436364 -41.76 
L 122.127273 -43.391655 
L 123.818182 -41.76 
L 125.509091 -41.76 
L 127.2 -41.76 
L 128.890909 -73.395971 
L 130.581818 -41.76 
L 132.272727 -41.76 
L 133.963636 -41.76 
L 135.654545 -114.187338 
L 137.345455 -41.76 
L 139.036364 -41.76 
L 140.727273 -41.76 
L 142.418182 -133.313957 
L 144.109091 -41.76 
L 145.8 -41.76 
L 147.490909 -41.76 
L 149.181818 -65.237698 
L 150.872727 -41.76 
L 152.563636 -41.76 
L 154.254545 -41.76 
L 155.945455 -59.300288 
L 157.636364 -41.76 
L 159.327273 -41.76 
L 161.018182 -144.508921 
L 162.709091 -41.76 
L 164.4 -41.76 
L 166.090909 -41.76 
L 167.781818 -109.111079 
L 169.472727 -41.76 
L 171.163636 -41.76 
L 172.854545 -41.76 
L 174.545455 -113.960719 
L 176.236364 -41.76 
L 177.927273 -41.76 
L 179.618182 -41.76 
L 181.309091 -105.031942 
L 183 -41.76 
L 184.690909 -41.76 
L 186.381818 -41.76 
L 188.072727 -82.234101 
L 189.763636 -41.76 
L 191.454545 -41.76 
L 193.145455 -41.76 
L 194.836364 -41.76 
L 196.527273 -79.741295 
L 198.218182 -41.76 
L 199.909091 -41.76 
L 201.6 -41.76 
L 203.290909 -117.405324 
L 204.981818 -41.76 
L 206.672727 -41.76 
L 208.363636 -41.76 
L 210.054545 -99.955683 
L 211.745455 -41.76 
L 213.436364 -41.76 
L 215.127273 -41.76 
L 216.818182 -93.066475 
L 218.509091 -41.76 
L 220.2 -41.76 
L 221.890909 -41.76 
L 223.581818 -61.02259 
L 225.272727 -61.430504 
L 226.963636 -41.76 
L 228.654545 -41.76 
L 230.345455 -99.321151 
L 232.036364 -41.76 
L 233.727273 -41.76 
L 235.418182 -41.76 
L 237.109091 -53.861439 
L 238.8 -76.432662 
L 240.490909 -41.76 
L 242.181818 -115.320432 
L 243.872727 -41.76 
L 245.563636 -57.260719 
L 247.254545 -41.76 
L 248.945455 -90.256403 
L 250.636364 -41.76 
L 252.327273 -41.76 
L 254.018182 -41.76 
L 255.709091 -41.76 
L 257.4 -87.536978 
L 259.090909 -41.76 
L 260.781818 -41.76 
L 262.472727 -41.76 
L 264.163636 -68.274388 
L 265.854545 -41.76 
L 267.545455 -41.76 
L 269.236364 -41.76 
L 270.927273 -69.815396 
L 272.618182 -41.76 
L 274.309091 -90.890935 
L 276 -74.211799 
L 277.690909 -41.76 
L 279.381818 -41.76 
L 281.072727 -41.76 
L 282.763636 -67.639856 
L 284.454545 -41.76 
L 286.145455 -41.76 
L 287.836364 -41.76 
L 289.527273 -41.76 
L 291.218182 -125.427626 
L 292.909091 -41.76 
L 294.6 -41.76 
L 296.290909 -41.76 
L 297.981818 -54.631942 
L 299.672727 -41.76 
L 301.363636 -41.76 
L 303.054545 -41.76 
L 304.745455 -54.314676 
L 306.436364 -41.76 
L 308.127273 -41.76 
L 309.818182 -41.76 
L 311.509091 -50.915396 
L 313.2 -107.932662 
L 314.890909 -41.76 
L 316.581818 -41.76 
L 318.272727 -41.76 
L 319.963636 -94.290216 
L 321.654545 -91.661439 
L 323.345455 -41.76 
L 325.036364 -41.76 
L 326.727273 -70.042014 
L 328.418182 -41.76 
L 330.109091 -75.390216 
L 331.8 -41.76 
L 333.490909 -41.76 
L 335.181818 -41.76 
L 336.872727 -77.973669 
L 338.563636 -41.76 
L 340.254545 -41.76 
L 341.945455 -41.76 
L 343.636364 -74.574388 
L 345.327273 -41.76 
L 347.018182 -41.76 
L 348.709091 -41.76 
L 350.4 -78.018993 
L 352.090909 -41.76 
L 353.781818 -41.76 
L 355.472727 -41.76 
L 357.163636 -78.426906 
L 358.854545 -41.76 
L 360.545455 -41.76 
L 362.236364 -41.76 
L 363.927273 -67.911799 
L 365.618182 -41.76 
L 367.309091 -41.76 
L 369 -172.020432 
L 370.690909 -41.76 
L 372.381818 -41.76 
L 374.072727 -81.826187 
L 375.763636 -41.76 
L 377.454545 -41.76 
L 379.145455 -41.76 
L 380.836364 -77.021871 
L 382.527273 -41.76 
L 384.218182 -41.76 
L 385.909091 -92.069353 
L 387.6 -41.76 
L 389.290909 -41.76 
L 390.981818 -41.76 
L 392.672727 -87.854245 
L 394.363636 -86.086619 
L 396.054545 -55.493094 
L 397.745455 -84.862878 
L 399.436364 -41.76 
L 401.127273 -41.76 
L 402.818182 -57.623309 
L 404.509091 -41.76 
L 406.2 -86.131942 
L 407.890909 -53.816115 
L 409.581818 -41.76 
L 411.272727 -41.76 
L 412.963636 -41.76 
L 414.654545 -41.76 
L 416.345455 -53.136259 
L 418.036364 -41.76 
L 419.727273 -84.726906 
L 421.418182 -41.76 
L 423.109091 -73.26 
L 424.8 -41.76 
L 426.490909 -80.919712 
L 428.181818 -41.76 
L 429.872727 -41.76 
L 431.563636 -41.76 
L 433.254545 -41.76 
L 434.945455 -71.401727 
L 436.636364 -47.788058 
L 438.327273 -41.76 
L 440.018182 -41.76 
L 441.709091 -81.554245 
L 443.4 -41.76 
L 445.090909 -41.76 
L 446.781818 -55.629065 
L 448.472727 -41.76 
L 450.163636 -41.76 
L 451.854545 -53.725468 
L 453.545455 -59.753525 
L 455.236364 -58.076547 
L 456.927273 -41.76 
L 458.618182 -41.76 
L 460.309091 -66.96 
L 462 -41.76 
L 463.690909 -41.76 
L 465.381818 -41.76 
L 467.072727 -82.279424 
L 468.763636 -41.76 
L 470.454545 -69.044892 
L 472.145455 -58.575108 
L 473.836364 -41.76 
L 475.527273 -65.328345 
L 477.218182 -41.76 
L 478.909091 -41.76 
L 480.6 -67.050647 
L 482.290909 -41.76 
L 483.981818 -66.506763 
L 485.672727 -41.76 
L 487.363636 -41.76 
L 489.054545 -41.76 
L 490.745455 -64.195252 
L 492.436364 -41.76 
L 494.127273 -52.139137 
L 495.818182 -81.282302 
L 497.509091 -41.76 
L 499.2 -41.76 
L 500.890909 -154.706763 
L 502.581818 -41.76 
L 504.272727 -67.458561 
L 505.963636 -41.76 
L 507.654545 -41.76 
L 509.345455 -41.76 
L 511.036364 -122.436259 
L 512.727273 -41.76 
L 514.418182 -68.319712 
L 516.109091 -41.76 
L 517.8 -41.76 
L 519.490909 -41.76 
L 521.181818 -41.76 
L 522.872727 -61.702446 
L 524.563636 -41.76 
L 526.254545 -41.76 
L 527.945455 -41.76 
L 529.636364 -61.838417 
L 531.327273 -143.64777 
L 533.018182 -112.011799 
L 534.709091 -41.76 
L 536.4 -41.76 
L 538.090909 -41.76 
L 539.781818 -41.76 
L 541.472727 -65.50964 
L 543.163636 -41.76 
L 544.854545 -41.76 
L 546.545455 -54.541295 
L 548.236364 -53.453525 
L 549.927273 -41.76 
L 551.618182 -98.731942 
L 553.309091 -54.72259 
L 555 -41.76 
L 556.690909 -87.038417 
L 558.381818 -41.76 
L 560.072727 -141.970791 
L 561.763636 -41.76 
L 563.454545 -58.756403 
L 565.145455 -41.76 
L 566.836364 -76.749928 
L 568.527273 -74.211799 
L 570.218182 -41.76 
L 571.909091 -67.413237 
L 573.6 -41.76 
L 575.290909 -41.76 
L 576.981818 -41.76 
L 578.672727 -106.029065 
L 580.363636 -41.76 
L 582.054545 -41.76 
L 583.745455 -41.76 
L 585.436364 -110.516115 
L 587.127273 -41.76 
L 588.818182 -59.662878 
L 590.509091 -41.76 
L 592.2 -96.64705 
L 593.890909 -41.76 
L 595.581818 -91.888058 
L 597.272727 -71.129784 
L 598.963636 -41.76 
L 600.654545 -41.76 
L 602.345455 -41.76 
L 604.036364 -122.798849 
L 605.727273 -41.76 
L 607.418182 -41.76 
L 609.109091 -41.76 
L 610.8 -115.048489 
L 612.490909 -41.76 
L 614.181818 -41.76 
L 615.872727 -66.461439 
L 617.563636 -41.76 
L 619.254545 -41.76 
L 620.945455 -61.929065 
L 622.636364 -41.76 
L 622.636364 -41.76 
L 622.636364 -41.76 
L 620.945455 -81.826187 
L 619.254545 -72.489496 
L 617.563636 -59.164317 
L 615.872727 -71.854964 
L 614.181818 -45.567194 
L 612.490909 -47.244173 
L 610.8 -122.345612 
L 609.109091 -52.592374 
L 607.418182 -45.476547 
L 605.727273 -43.527626 
L 604.036364 -126.560719 
L 602.345455 -52.456403 
L 600.654545 -51.413957 
L 598.963636 -53.453525 
L 597.272727 -98.958561 
L 595.581818 -127.195252 
L 593.890909 -58.121871 
L 592.2 -106.708921 
L 590.509091 -57.759281 
L 588.818182 -70.857842 
L 587.127273 -55.402446 
L 585.436364 -122.073669 
L 583.745455 -93.474388 
L 582.054545 -101.813957 
L 580.363636 -97.598849 
L 578.672727 -122.980144 
L 576.981818 -45.023309 
L 575.290909 -44.388777 
L 573.6 -52.592374 
L 571.909091 -71.764317 
L 570.218182 -51.459281 
L 568.527273 -78.426906 
L 566.836364 -89.939137 
L 565.145455 -49.782302 
L 563.454545 -73.124029 
L 561.763636 -46.700288 
L 560.072727 -148.814676 
L 558.381818 -56.626187 
L 556.690909 -97.326906 
L 555 -49.102446 
L 553.309091 -62.654245 
L 551.618182 -112.782302 
L 549.927273 -69.498129 
L 548.236364 -69.452806 
L 546.545455 -62.382302 
L 544.854545 -46.60964 
L 543.163636 -56.082302 
L 541.472727 -108.748489 
L 539.781818 -57.306043 
L 538.090909 -61.067914 
L 536.4 -61.793094 
L 534.709091 -92.930504 
L 533.018182 -126.877986 
L 531.327273 -153.890935 
L 529.636364 -77.701727 
L 527.945455 -44.796691 
L 526.254545 -44.751367 
L 524.563636 -44.524748 
L 522.872727 -65.600288 
L 521.181818 -45.068633 
L 519.490909 -46.292374 
L 517.8 -51.142014 
L 516.109091 -60.66 
L 514.418182 -76.477986 
L 512.727273 -44.298129 
L 511.036364 -126.787338 
L 509.345455 -59.844173 
L 507.654545 -52.229784 
L 505.963636 -62.926187 
L 504.272727 -95.967194 
L 502.581818 -50.371511 
L 500.890909 -156.293094 
L 499.2 -43.527626 
L 497.509091 -43.754245 
L 495.818182 -84.681583 
L 494.127273 -58.529784 
L 492.436364 -56.308921 
L 490.745455 -87.174388 
L 489.054545 -52.592374 
L 487.363636 -54.994532 
L 485.672727 -53.725468 
L 483.981818 -77.520432 
L 482.290909 -89.032662 
L 480.6 -114.867194 
L 478.909091 -89.531223 
L 477.218182 -93.157122 
L 475.527273 -101.542014 
L 473.836364 -55.221151 
L 472.145455 -72.988058 
L 470.454545 -87.990216 
L 468.763636 -45.023309 
L 467.072727 -86.58518 
L 465.381818 -50.416835 
L 463.690909 -47.062878 
L 462 -55.493094 
L 460.309091 -76.931223 
L 458.618182 -49.646331 
L 456.927273 -49.601007 
L 455.236364 -62.518273 
L 453.545455 -84.228345 
L 451.854545 -64.512518 
L 450.163636 -48.78518 
L 448.472727 -74.71036 
L 446.781818 -79.333381 
L 445.090909 -44.071511 
L 443.4 -43.799568 
L 441.709091 -85.724029 
L 440.018182 -72.262878 
L 438.327273 -77.565755 
L 436.636364 -63.968633 
L 434.945455 -95.468633 
L 433.254545 -80.738417 
L 431.563636 -81.644892 
L 429.872727 -86.449209 
L 428.181818 -83.503165 
L 426.490909 -97.054964 
L 424.8 -54.450647 
L 423.109091 -85.769353 
L 421.418182 -85.452086 
L 419.727273 -115.320432 
L 418.036364 -52.229784 
L 416.345455 -59.436259 
L 414.654545 -51.096691 
L 412.963636 -46.97223 
L 411.272727 -49.827626 
L 409.581818 -50.688777 
L 407.890909 -75.07295 
L 406.2 -93.24777 
L 404.509091 -47.108201 
L 402.818182 -68.818273 
L 401.127273 -53.362878 
L 399.436364 -57.351367 
L 397.745455 -96.148489 
L 396.054545 -64.965755 
L 394.363636 -97.190935 
L 392.672727 -95.287338 
L 390.981818 -49.963597 
L 389.290909 -46.383022 
L 387.6 -46.24705 
L 385.909091 -94.244892 
L 384.218182 -53.680144 
L 382.527273 -56.127626 
L 380.836364 -101.904604 
L 379.145455 -64.512518 
L 377.454545 -61.475827 
L 375.763636 -52.954964 
L 374.072727 -87.174388 
L 372.381818 -45.068633 
L 370.690909 -45.839137 
L 369 -174.42259 
L 367.309091 -49.918273 
L 365.618182 -51.051367 
L 363.927273 -96.375108 
L 362.236364 -57.079424 
L 360.545455 -48.875827 
L 358.854545 -65.056403 
L 357.163636 -99.502446 
L 355.472727 -63.877986 
L 353.781818 -45.929784 
L 352.090909 -53.816115 
L 350.4 -95.604604 
L 348.709091 -50.688777 
L 347.018182 -48.014676 
L 345.327273 -48.195971 
L 343.636364 -85.406763 
L 341.945455 -47.380144 
L 340.254545 -48.286619 
L 338.563636 -62.971511 
L 336.872727 -94.154245 
L 335.181818 -49.102446 
L 333.490909 -48.694532 
L 331.8 -46.926906 
L 330.109091 -100.182302 
L 328.418182 -66.506763 
L 326.727273 -91.162878 
L 325.036364 -48.150647 
L 323.345455 -63.288777 
L 321.654545 -101.406043 
L 319.963636 -106.93554 
L 318.272727 -65.011079 
L 316.581818 -56.036978 
L 314.890909 -54.495971 
L 313.2 -125.427626 
L 311.509091 -66.688058 
L 309.818182 -65.192374 
L 308.127273 -63.243453 
L 306.436364 -58.983022 
L 304.745455 -77.429784 
L 303.054545 -58.892374 
L 301.363636 -61.158561 
L 299.672727 -53.544173 
L 297.981818 -60.977266 
L 296.290909 -46.201727 
L 294.6 -55.357122 
L 292.909091 -48.649209 
L 291.218182 -130.231942 
L 289.527273 -51.187338 
L 287.836364 -50.507482 
L 286.145455 -48.603885 
L 284.454545 -51.368633 
L 282.763636 -72.53482 
L 281.072727 -45.929784 
L 279.381818 -45.113957 
L 277.690909 -44.887338 
L 276 -76.568633 
L 274.309091 -93.202446 
L 272.618182 -44.796691 
L 270.927273 -73.803885 
L 269.236364 -49.51036 
L 267.545455 -48.513237 
L 265.854545 -43.754245 
L 264.163636 -74.34777 
L 262.472727 -48.921151 
L 260.781818 -56.988777 
L 259.090909 -58.348489 
L 257.4 -115.048489 
L 255.709091 -94.970072 
L 254.018182 -84.183022 
L 252.327273 -86.993094 
L 250.636364 -70.268633 
L 248.945455 -112.51036 
L 247.254545 -55.674388 
L 245.563636 -60.795971 
L 243.872727 -44.660719 
L 242.181818 -118.039856 
L 240.490909 -44.660719 
L 238.8 -97.870791 
L 237.109091 -64.104604 
L 235.418182 -65.056403 
L 233.727273 -65.328345 
L 232.036364 -56.308921 
L 230.345455 -103.853525 
L 228.654545 -47.561439 
L 226.963636 -46.564317 
L 225.272727 -67.095971 
L 223.581818 -63.923309 
L 221.890909 -45.567194 
L 220.2 -48.105324 
L 218.509091 -44.706043 
L 216.818182 -102.765755 
L 215.127273 -60.252086 
L 213.436364 -50.870072 
L 211.745455 -50.326187 
L 210.054545 -106.844892 
L 208.363636 -45.249928 
L 206.672727 -48.694532 
L 204.981818 -59.254964 
L 203.290909 -127.875108 
L 201.6 -48.694532 
L 199.909091 -45.521871 
L 198.218182 -45.703165 
L 196.527273 -84.273669 
L 194.836364 -44.932662 
L 193.145455 -45.340576 
L 191.454545 -45.204604 
L 189.763636 -45.567194 
L 188.072727 -86.131942 
L 186.381818 -45.748489 
L 184.690909 -45.839137 
L 183 -45.88446 
L 181.309091 -110.606763 
L 179.618182 -47.606763 
L 177.927273 -47.69741 
L 176.236364 -47.69741 
L 174.545455 -119.762158 
L 172.854545 -47.742734 
L 171.163636 -47.69741 
L 169.472727 -47.561439 
L 167.781818 -114.957842 
L 166.090909 -47.652086 
L 164.4 -47.470791 
L 162.709091 -47.425468 
L 161.018182 -148.49741 
L 159.327273 -44.842014 
L 157.636364 -50.507482 
L 155.945455 -79.061439 
L 154.254545 -45.88446 
L 152.563636 -52.818993 
L 150.872727 -48.649209 
L 149.181818 -75.752806 
L 147.490909 -57.623309 
L 145.8 -57.895252 
L 144.109091 -57.532662 
L 142.418182 -144.690216 
L 140.727273 -46.383022 
L 139.036364 -46.700288 
L 137.345455 -47.380144 
L 135.654545 -119.036978 
L 133.963636 -47.017554 
L 132.272727 -47.244173 
L 130.581818 -46.790935 
L 128.890909 -78.064317 
L 127.2 -46.065755 
L 125.509091 -45.521871 
L 123.818182 -44.706043 
L 122.127273 -48.966475 
L 120.436364 -46.428345 
L 118.745455 -45.657842 
L 117.054545 -47.108201 
L 115.363636 -48.467914 
z
" style="stroke: #0000ff; stroke-width: 0.5"/>
    </defs>
    <g clip-path="url(#pc2da562cba)">
     <use xlink:href="#mabb41d567e" x="0" y="288" style="fill: #0000ff; stroke: #0000ff; stroke-width: 0.5"/>
    </g>
   </g>
   <g id="PolyCollection_3">
    <defs>
     <path id="m02ee85bd29" d="M 115.363636 -60.795971 
L 115.363636 -48.467914 
L 117.054545 -47.108201 
L 118.745455 -45.657842 
L 120.436364 -46.428345 
L 122.127273 -48.966475 
L 123.818182 -44.706043 
L 125.509091 -45.521871 
L 127.2 -46.065755 
L 128.890909 -78.064317 
L 130.581818 -46.790935 
L 132.272727 -47.244173 
L 133.963636 -47.017554 
L 135.654545 -119.036978 
L 137.345455 -47.380144 
L 139.036364 -46.700288 
L 140.727273 -46.383022 
L 142.418182 -144.690216 
L 144.109091 -57.532662 
L 145.8 -57.895252 
L 147.490909 -57.623309 
L 149.181818 -75.752806 
L 150.872727 -48.649209 
L 152.563636 -52.818993 
L 154.254545 -45.88446 
L 155.945455 -79.061439 
L 157.636364 -50.507482 
L 159.327273 -44.842014 
L 161.018182 -148.49741 
L 162.709091 -47.425468 
L 164.4 -47.470791 
L 166.090909 -47.652086 
L 167.781818 -114.957842 
L 169.472727 -47.561439 
L 171.163636 -47.69741 
L 172.854545 -47.742734 
L 174.545455 -119.762158 
L 176.236364 -47.69741 
L 177.927273 -47.69741 
L 179.618182 -47.606763 
L 181.309091 -110.606763 
L 183 -45.88446 
L 184.690909 -45.839137 
L 186.381818 -45.748489 
L 188.072727 -86.131942 
L 189.763636 -45.567194 
L 191.454545 -45.204604 
L 193.145455 -45.340576 
L 194.836364 -44.932662 
L 196.527273 -84.273669 
L 198.218182 -45.703165 
L 199.909091 -45.521871 
L 201.6 -48.694532 
L 203.290909 -127.875108 
L 204.981818 -59.254964 
L 206.672727 -48.694532 
L 208.363636 -45.249928 
L 210.054545 -106.844892 
L 211.745455 -50.326187 
L 213.436364 -50.870072 
L 215.127273 -60.252086 
L 216.818182 -102.765755 
L 218.509091 -44.706043 
L 220.2 -48.105324 
L 221.890909 -45.567194 
L 223.581818 -63.923309 
L 225.272727 -67.095971 
L 226.963636 -46.564317 
L 228.654545 -47.561439 
L 230.345455 -103.853525 
L 232.036364 -56.308921 
L 233.727273 -65.328345 
L 235.418182 -65.056403 
L 237.109091 -64.104604 
L 238.8 -97.870791 
L 240.490909 -44.660719 
L 242.181818 -118.039856 
L 243.872727 -44.660719 
L 245.563636 -60.795971 
L 247.254545 -55.674388 
L 248.945455 -112.51036 
L 250.636364 -70.268633 
L 252.327273 -86.993094 
L 254.018182 -84.183022 
L 255.709091 -94.970072 
L 257.4 -115.048489 
L 259.090909 -58.348489 
L 260.781818 -56.988777 
L 262.472727 -48.921151 
L 264.163636 -74.34777 
L 265.854545 -43.754245 
L 267.545455 -48.513237 
L 269.236364 -49.51036 
L 270.927273 -73.803885 
L 272.618182 -44.796691 
L 274.309091 -93.202446 
L 276 -76.568633 
L 277.690909 -44.887338 
L 279.381818 -45.113957 
L 281.072727 -45.929784 
L 282.763636 -72.53482 
L 284.454545 -51.368633 
L 286.145455 -48.603885 
L 287.836364 -50.507482 
L 289.527273 -51.187338 
L 291.218182 -130.231942 
L 292.909091 -48.649209 
L 294.6 -55.357122 
L 296.290909 -46.201727 
L 297.981818 -60.977266 
L 299.672727 -53.544173 
L 301.363636 -61.158561 
L 303.054545 -58.892374 
L 304.745455 -77.429784 
L 306.436364 -58.983022 
L 308.127273 -63.243453 
L 309.818182 -65.192374 
L 311.509091 -66.688058 
L 313.2 -125.427626 
L 314.890909 -54.495971 
L 316.581818 -56.036978 
L 318.272727 -65.011079 
L 319.963636 -106.93554 
L 321.654545 -101.406043 
L 323.345455 -63.288777 
L 325.036364 -48.150647 
L 326.727273 -91.162878 
L 328.418182 -66.506763 
L 330.109091 -100.182302 
L 331.8 -46.926906 
L 333.490909 -48.694532 
L 335.181818 -49.102446 
L 336.872727 -94.154245 
L 338.563636 -62.971511 
L 340.254545 -48.286619 
L 341.945455 -47.380144 
L 343.636364 -85.406763 
L 345.327273 -48.195971 
L 347.018182 -48.014676 
L 348.709091 -50.688777 
L 350.4 -95.604604 
L 352.090909 -53.816115 
L 353.781818 -45.929784 
L 355.472727 -63.877986 
L 357.163636 -99.502446 
L 358.854545 -65.056403 
L 360.545455 -48.875827 
L 362.236364 -57.079424 
L 363.927273 -96.375108 
L 365.618182 -51.051367 
L 367.309091 -49.918273 
L 369 -174.42259 
L 370.690909 -45.839137 
L 372.381818 -45.068633 
L 374.072727 -87.174388 
L 375.763636 -52.954964 
L 377.454545 -61.475827 
L 379.145455 -64.512518 
L 380.836364 -101.904604 
L 382.527273 -56.127626 
L 384.218182 -53.680144 
L 385.909091 -94.244892 
L 387.6 -46.24705 
L 389.290909 -46.383022 
L 390.981818 -49.963597 
L 392.672727 -95.287338 
L 394.363636 -97.190935 
L 396.054545 -64.965755 
L 397.745455 -96.148489 
L 399.436364 -57.351367 
L 401.127273 -53.362878 
L 402.818182 -68.818273 
L 404.509091 -47.108201 
L 406.2 -93.24777 
L 407.890909 -75.07295 
L 409.581818 -50.688777 
L 411.272727 -49.827626 
L 412.963636 -46.97223 
L 414.654545 -51.096691 
L 416.345455 -59.436259 
L 418.036364 -52.229784 
L 419.727273 -115.320432 
L 421.418182 -85.452086 
L 423.109091 -85.769353 
L 424.8 -54.450647 
L 426.490909 -97.054964 
L 428.181818 -83.503165 
L 429.872727 -86.449209 
L 431.563636 -81.644892 
L 433.254545 -80.738417 
L 434.945455 -95.468633 
L 436.636364 -63.968633 
L 438.327273 -77.565755 
L 440.018182 -72.262878 
L 441.709091 -85.724029 
L 443.4 -43.799568 
L 445.090909 -44.071511 
L 446.781818 -79.333381 
L 448.472727 -74.71036 
L 450.163636 -48.78518 
L 451.854545 -64.512518 
L 453.545455 -84.228345 
L 455.236364 -62.518273 
L 456.927273 -49.601007 
L 458.618182 -49.646331 
L 460.309091 -76.931223 
L 462 -55.493094 
L 463.690909 -47.062878 
L 465.381818 -50.416835 
L 467.072727 -86.58518 
L 468.763636 -45.023309 
L 470.454545 -87.990216 
L 472.145455 -72.988058 
L 473.836364 -55.221151 
L 475.527273 -101.542014 
L 477.218182 -93.157122 
L 478.909091 -89.531223 
L 480.6 -114.867194 
L 482.290909 -89.032662 
L 483.981818 -77.520432 
L 485.672727 -53.725468 
L 487.363636 -54.994532 
L 489.054545 -52.592374 
L 490.745455 -87.174388 
L 492.436364 -56.308921 
L 494.127273 -58.529784 
L 495.818182 -84.681583 
L 497.509091 -43.754245 
L 499.2 -43.527626 
L 500.890909 -156.293094 
L 502.581818 -50.371511 
L 504.272727 -95.967194 
L 505.963636 -62.926187 
L 507.654545 -52.229784 
L 509.345455 -59.844173 
L 511.036364 -126.787338 
L 512.727273 -44.298129 
L 514.418182 -76.477986 
L 516.109091 -60.66 
L 517.8 -51.142014 
L 519.490909 -46.292374 
L 521.181818 -45.068633 
L 522.872727 -65.600288 
L 524.563636 -44.524748 
L 526.254545 -44.751367 
L 527.945455 -44.796691 
L 529.636364 -77.701727 
L 531.327273 -153.890935 
L 533.018182 -126.877986 
L 534.709091 -92.930504 
L 536.4 -61.793094 
L 538.090909 -61.067914 
L 539.781818 -57.306043 
L 541.472727 -108.748489 
L 543.163636 -56.082302 
L 544.854545 -46.60964 
L 546.545455 -62.382302 
L 548.236364 -69.452806 
L 549.927273 -69.498129 
L 551.618182 -112.782302 
L 553.309091 -62.654245 
L 555 -49.102446 
L 556.690909 -97.326906 
L 558.381818 -56.626187 
L 560.072727 -148.814676 
L 561.763636 -46.700288 
L 563.454545 -73.124029 
L 565.145455 -49.782302 
L 566.836364 -89.939137 
L 568.527273 -78.426906 
L 570.218182 -51.459281 
L 571.909091 -71.764317 
L 573.6 -52.592374 
L 575.290909 -44.388777 
L 576.981818 -45.023309 
L 578.672727 -122.980144 
L 580.363636 -97.598849 
L 582.054545 -101.813957 
L 583.745455 -93.474388 
L 585.436364 -122.073669 
L 587.127273 -55.402446 
L 588.818182 -70.857842 
L 590.509091 -57.759281 
L 592.2 -106.708921 
L 593.890909 -58.121871 
L 595.581818 -127.195252 
L 597.272727 -98.958561 
L 598.963636 -53.453525 
L 600.654545 -51.413957 
L 602.345455 -52.456403 
L 604.036364 -126.560719 
L 605.727273 -43.527626 
L 607.418182 -45.476547 
L 609.109091 -52.592374 
L 610.8 -122.345612 
L 612.490909 -47.244173 
L 614.181818 -45.567194 
L 615.872727 -71.854964 
L 617.563636 -59.164317 
L 619.254545 -72.489496 
L 620.945455 -81.826187 
L 622.636364 -41.76 
L 622.636364 -41.941295 
L 622.636364 -41.941295 
L 620.945455 -138.163597 
L 619.254545 -141.880144 
L 617.563636 -103.989496 
L 615.872727 -92.295971 
L 614.181818 -70.223309 
L 612.490909 -75.798129 
L 610.8 -144.463597 
L 609.109091 -116.362878 
L 607.418182 -60.977266 
L 605.727273 -88.851367 
L 604.036364 -180.133381 
L 602.345455 -97.689496 
L 600.654545 -88.307482 
L 598.963636 -83.729784 
L 597.272727 -144.101007 
L 595.581818 -167.669353 
L 593.890909 -139.568633 
L 592.2 -152.98446 
L 590.509091 -90.890935 
L 588.818182 -110.969353 
L 587.127273 -105.394532 
L 585.436364 -181.402446 
L 583.745455 -201.707482 
L 582.054545 -201.208921 
L 580.363636 -197.401727 
L 578.672727 -157.970072 
L 576.981818 -82.188777 
L 575.290909 -71.990935 
L 573.6 -89.712518 
L 571.909091 -90.936259 
L 570.218182 -71.900288 
L 568.527273 -95.649928 
L 566.836364 -119.943453 
L 565.145455 -73.713237 
L 563.454545 -115.365755 
L 561.763636 -80.466475 
L 560.072727 -175.011799 
L 558.381818 -93.429065 
L 556.690909 -121.620432 
L 555 -60.841295 
L 553.309091 -84.40964 
L 551.618182 -146.639137 
L 549.927273 -121.348489 
L 548.236364 -98.82259 
L 546.545455 -91.344173 
L 544.854545 -79.061439 
L 543.163636 -109.700288 
L 541.472727 -176.008921 
L 539.781818 -108.159281 
L 538.090909 -120.804604 
L 536.4 -129.144173 
L 534.709091 -200.982302 
L 533.018182 -215.531223 
L 531.327273 -186.614676 
L 529.636364 -111.875827 
L 527.945455 -63.107482 
L 526.254545 -58.665755 
L 524.563636 -55.81036 
L 522.872727 -84.273669 
L 521.181818 -62.654245 
L 519.490909 -62.336978 
L 517.8 -77.293813 
L 516.109091 -99.366475 
L 514.418182 -88.987338 
L 512.727273 -55.855683 
L 511.036364 -142.469353 
L 509.345455 -86.177266 
L 507.654545 -83.68446 
L 505.963636 -118.266475 
L 504.272727 -224.595971 
L 502.581818 -147.817554 
L 500.890909 -215.803165 
L 499.2 -46.926906 
L 497.509091 -46.60964 
L 495.818182 -91.888058 
L 494.127273 -78.653525 
L 492.436364 -91.162878 
L 490.745455 -130.095971 
L 489.054545 -90.573669 
L 487.363636 -88.171511 
L 485.672727 -85.86 
L 483.981818 -126.560719 
L 482.290909 -225.729065 
L 480.6 -213.944892 
L 478.909091 -183.532662 
L 477.218182 -157.290216 
L 475.527273 -157.698129 
L 473.836364 -67.911799 
L 472.145455 -109.97223 
L 470.454545 -117.586619 
L 468.763636 -55.266475 
L 467.072727 -94.290216 
L 465.381818 -75.254245 
L 463.690909 -74.257122 
L 462 -109.337698 
L 460.309091 -103.083022 
L 458.618182 -75.752806 
L 456.927273 -66.914676 
L 455.236364 -92.794532 
L 453.545455 -190.013957 
L 451.854545 -93.021151 
L 450.163636 -99.003885 
L 448.472727 -158.559281 
L 446.781818 -112.238417 
L 445.090909 -48.603885 
L 443.4 -46.337698 
L 441.709091 -109.700288 
L 440.018182 -147.590935 
L 438.327273 -163.680863 
L 436.636364 -143.103885 
L 434.945455 -139.795252 
L 433.254545 -143.013237 
L 431.563636 -132.724748 
L 429.872727 -149.086619 
L 428.181818 -135.580144 
L 426.490909 -131.093094 
L 424.8 -81.508921 
L 423.109091 -107.842014 
L 421.418182 -146.140576 
L 419.727273 -162.094532 
L 418.036364 -83.185899 
L 416.345455 -75.07295 
L 414.654545 -69.362158 
L 412.963636 -57.442014 
L 411.272727 -62.291655 
L 409.581818 -76.342014 
L 407.890909 -123.206763 
L 406.2 -110.561439 
L 404.509091 -59.889496 
L 402.818182 -96.918993 
L 401.127273 -91.117554 
L 399.436364 -110.062878 
L 397.745455 -122.57223 
L 396.054545 -98.324029 
L 394.363636 -128.328345 
L 392.672727 -112.51036 
L 390.981818 -67.503885 
L 389.290909 -55.719712 
L 387.6 -57.034101 
L 385.909091 -105.530504 
L 384.218182 -101.677986 
L 382.527273 -105.439856 
L 380.836364 -157.652806 
L 379.145455 -123.66 
L 377.454545 -106.482302 
L 375.763636 -81.191655 
L 374.072727 -183.577986 
L 372.381818 -172.926906 
L 370.690909 -181.991655 
L 369 -197.673669 
L 367.309091 -83.321871 
L 365.618182 -93.927626 
L 363.927273 -147.500288 
L 362.236364 -104.216115 
L 360.545455 -94.834101 
L 358.854545 -120.487338 
L 357.163636 -146.049928 
L 355.472727 -117.631942 
L 353.781818 -84.726906 
L 352.090909 -108.431223 
L 350.4 -138.027626 
L 348.709091 -97.054964 
L 347.018182 -90.301727 
L 345.327273 -90.483022 
L 343.636364 -119.444892 
L 341.945455 -82.052806 
L 340.254545 -81.644892 
L 338.563636 -115.54705 
L 336.872727 -127.920432 
L 335.181818 -74.302446 
L 333.490909 -68.682302 
L 331.8 -68.319712 
L 330.109091 -134.492374 
L 328.418182 -107.751367 
L 326.727273 -138.027626 
L 325.036364 -111.150647 
L 323.345455 -140.928345 
L 321.654545 -134.854964 
L 319.963636 -149.041295 
L 318.272727 -111.513237 
L 316.581818 -79.967914 
L 314.890909 -82.370072 
L 313.2 -159.465755 
L 311.509091 -97.644173 
L 309.818182 -92.295971 
L 308.127273 -93.066475 
L 306.436364 -87.401007 
L 304.745455 -106.980863 
L 303.054545 -83.956403 
L 301.363636 -103.400288 
L 299.672727 -80.058561 
L 297.981818 -75.43554 
L 296.290909 -65.690935 
L 294.6 -134.900288 
L 292.909091 -73.033381 
L 291.218182 -144.73554 
L 289.527273 -57.849928 
L 287.836364 -60.841295 
L 286.145455 -70.540576 
L 284.454545 -81.418273 
L 282.763636 -85.678705 
L 281.072727 -53.181583 
L 279.381818 -53.725468 
L 277.690909 -52.728345 
L 276 -135.89741 
L 274.309091 -152.032662 
L 272.618182 -54.994532 
L 270.927273 -83.775108 
L 269.236364 -70.132662 
L 267.545455 -66.416115 
L 265.854545 -47.244173 
L 264.163636 -84.862878 
L 262.472727 -85.044173 
L 260.781818 -93.338417 
L 259.090909 -116.63482 
L 257.4 -168.666475 
L 255.709091 -191.917554 
L 254.018182 -189.696691 
L 252.327273 -185.844173 
L 250.636364 -131.138417 
L 248.945455 -167.941295 
L 247.254545 -88.216835 
L 245.563636 -75.571511 
L 243.872727 -58.84705 
L 242.181818 -122.390935 
L 240.490909 -48.105324 
L 238.8 -140.611079 
L 237.109091 -93.61036 
L 235.418182 -105.711799 
L 233.727273 -121.393813 
L 232.036364 -89.395252 
L 230.345455 -116.99741 
L 228.654545 -73.939856 
L 226.963636 -63.696691 
L 225.272727 -89.349928 
L 223.581818 -69.407482 
L 221.890909 -57.260719 
L 220.2 -61.793094 
L 218.509091 -50.416835 
L 216.818182 -139.885899 
L 215.127273 -139.296691 
L 213.436364 -120.759281 
L 211.745455 -113.870072 
L 210.054545 -158.831223 
L 208.363636 -105.394532 
L 206.672727 -116.181583 
L 204.981818 -138.480863 
L 203.290909 -168.711799 
L 201.6 -83.321871 
L 199.909091 -92.749209 
L 198.218182 -88.352806 
L 196.527273 -108.88446 
L 194.836364 -67.186619 
L 193.145455 -75.752806 
L 191.454545 -83.140576 
L 189.763636 -77.429784 
L 188.072727 -117.541295 
L 186.381818 -88.488777 
L 184.690909 -93.157122 
L 183 -102.811079 
L 181.309091 -184.575108 
L 179.618182 -166.581583 
L 177.927273 -166.717554 
L 176.236364 -173.425468 
L 174.545455 -219.655683 
L 172.854545 -161.324029 
L 171.163636 -163.590216 
L 169.472727 -165.629784 
L 167.781818 -213.446331 
L 166.090909 -164.949928 
L 164.4 -164.360719 
L 162.709091 -159.28446 
L 161.018182 -184.620432 
L 159.327273 -51.867194 
L 157.636364 -83.593813 
L 155.945455 -116.952086 
L 154.254545 -63.651367 
L 152.563636 -89.168633 
L 150.872727 -76.749928 
L 149.181818 -107.298129 
L 147.490909 -148.361439 
L 145.8 -152.576547 
L 144.109091 -154.07223 
L 142.418182 -234.793813 
L 140.727273 -159.64705 
L 139.036364 -171.340576 
L 137.345455 -189.379424 
L 135.654545 -243.36 
L 133.963636 -190.240576 
L 132.272727 -185.526906 
L 130.581818 -195.226187 
L 128.890909 -203.293813 
L 127.2 -143.557122 
L 125.509091 -105.530504 
L 123.818182 -71.718993 
L 122.127273 -75.43554 
L 120.436364 -49.329065 
L 118.745455 -49.646331 
L 117.054545 -51.821871 
L 115.363636 -60.795971 
z
" style="stroke: #008000; stroke-width: 0.5"/>
    </defs>
    <g clip-path="url(#pc2da562cba)">
     <use xlink:href="#m02ee85bd29" x="0" y="288" style="fill: #008000; stroke: #008000; stroke-width: 0.5"/>
    </g>
   </g>
   <g id="line2d_22">
    <path d="M 90 44.64 
L 648 44.64 
" clip-path="url(#pc2da562cba)" style="fill: none; stroke: #000000; stroke-width: 1.5; stroke-linecap: square"/>
   </g>
   <g id="line2d_23">
    <path d="M 90 175.036403 
L 648 175.036403 
" clip-path="url(#pc2da562cba)" style="fill: none; stroke: #000000; stroke-width: 1.5; stroke-linecap: square"/>
   </g>
   <g id="patch_3">
    <path d="M 90 256.32 
L 90 34.56 
" style="fill: none; stroke: #000000; stroke-width: 0.8; stroke-linejoin: miter; stroke-linecap: square"/>
   </g>
   <g id="patch_4">
    <path d="M 648 256.32 
L 648 34.56 
" style="fill: none; stroke: #000000; stroke-width: 0.8; stroke-linejoin: miter; stroke-linecap: square"/>
   </g>
   <g id="patch_5">
    <path d="M 90 256.32 
L 648 256.32 
" style="fill: none; stroke: #000000; stroke-width: 0.8; stroke-linejoin: miter; stroke-linecap: square"/>
   </g>
   <g id="patch_6">
    <path d="M 90 34.56 
L 648 34.56 
" style="fill: none; stroke: #000000; stroke-width: 0.8; stroke-linejoin: miter; stroke-linecap: square"/>
   </g>
   <g id="text_19">
    <!-- peak (4,448) -->
    <g transform="translate(122.179233 41.3136) scale(0.1 -0.1)">
     <defs>
      <path id="DejaVuSans-Bold-70" d="M 1656 506 
L 1656 -1331 
L 538 -1331 
L 538 3500 
L 1656 3500 
L 1656 2988 
Q 1888 3294 2169 3439 
Q 2450 3584 2816 3584 
Q 3463 3584 3878 3070 
Q 4294 2556 4294 1747 
Q 4294 938 3878 423 
Q 3463 -91 2816 -91 
Q 2450 -91 2169 54 
Q 1888 200 1656 506 
z
M 2400 2772 
Q 2041 2772 1848 2508 
Q 1656 2244 1656 1747 
Q 1656 1250 1848 986 
Q 2041 722 2400 722 
Q 2759 722 2948 984 
Q 3138 1247 3138 1747 
Q 3138 2247 2948 2509 
Q 2759 2772 2400 2772 
z
" transform="scale(0.015625)"/>
      <path id="DejaVuSans-Bold-65" d="M 4031 1759 
L 4031 1441 
L 1416 1441 
Q 1456 1047 1700 850 
Q 1944 653 2381 653 
Q 2734 653 3104 758 
Q 3475 863 3866 1075 
L 3866 213 
Q 3469 63 3072 -14 
Q 2675 -91 2278 -91 
Q 1328 -91 801 392 
Q 275 875 275 1747 
Q 275 2603 792 3093 
Q 1309 3584 2216 3584 
Q 3041 3584 3536 3087 
Q 4031 2591 4031 1759 
z
M 2881 2131 
Q 2881 2450 2695 2645 
Q 2509 2841 2209 2841 
Q 1884 2841 1681 2658 
Q 1478 2475 1428 2131 
L 2881 2131 
z
" transform="scale(0.015625)"/>
      <path id="DejaVuSans-Bold-61" d="M 2106 1575 
Q 1756 1575 1579 1456 
Q 1403 1338 1403 1106 
Q 1403 894 1545 773 
Q 1688 653 1941 653 
Q 2256 653 2472 879 
Q 2688 1106 2688 1447 
L 2688 1575 
L 2106 1575 
z
M 3816 1997 
L 3816 0 
L 2688 0 
L 2688 519 
Q 2463 200 2181 54 
Q 1900 -91 1497 -91 
Q 953 -91 614 226 
Q 275 544 275 1050 
Q 275 1666 698 1953 
Q 1122 2241 2028 2241 
L 2688 2241 
L 2688 2328 
Q 2688 2594 2478 2717 
Q 2269 2841 1825 2841 
Q 1466 2841 1156 2769 
Q 847 2697 581 2553 
L 581 3406 
Q 941 3494 1303 3539 
Q 1666 3584 2028 3584 
Q 2975 3584 3395 3211 
Q 3816 2838 3816 1997 
z
" transform="scale(0.015625)"/>
      <path id="DejaVuSans-Bold-6b" d="M 538 4863 
L 1656 4863 
L 1656 2216 
L 2944 3500 
L 4244 3500 
L 2534 1894 
L 4378 0 
L 3022 0 
L 1656 1459 
L 1656 0 
L 538 0 
L 538 4863 
z
" transform="scale(0.015625)"/>
      <path id="DejaVuSans-Bold-20" transform="scale(0.015625)"/>
      <path id="DejaVuSans-Bold-28" d="M 2413 -844 
L 1484 -844 
Q 1006 -72 778 623 
Q 550 1319 550 2003 
Q 550 2688 779 3389 
Q 1009 4091 1484 4856 
L 2413 4856 
Q 2013 4116 1813 3408 
Q 1613 2700 1613 2009 
Q 1613 1319 1811 609 
Q 2009 -100 2413 -844 
z
" transform="scale(0.015625)"/>
      <path id="DejaVuSans-Bold-34" d="M 2356 3675 
L 1038 1722 
L 2356 1722 
L 2356 3675 
z
M 2156 4666 
L 3494 4666 
L 3494 1722 
L 4159 1722 
L 4159 850 
L 3494 850 
L 3494 0 
L 2356 0 
L 2356 850 
L 288 850 
L 288 1881 
L 2156 4666 
z
" transform="scale(0.015625)"/>
      <path id="DejaVuSans-Bold-2c" d="M 653 1209 
L 1778 1209 
L 1778 256 
L 1006 -909 
L 341 -909 
L 653 256 
L 653 1209 
z
" transform="scale(0.015625)"/>
      <path id="DejaVuSans-Bold-38" d="M 2228 2088 
Q 1891 2088 1709 1903 
Q 1528 1719 1528 1375 
Q 1528 1031 1709 848 
Q 1891 666 2228 666 
Q 2563 666 2741 848 
Q 2919 1031 2919 1375 
Q 2919 1722 2741 1905 
Q 2563 2088 2228 2088 
z
M 1350 2484 
Q 925 2613 709 2878 
Q 494 3144 494 3541 
Q 494 4131 934 4440 
Q 1375 4750 2228 4750 
Q 3075 4750 3515 4442 
Q 3956 4134 3956 3541 
Q 3956 3144 3739 2878 
Q 3522 2613 3097 2484 
Q 3572 2353 3814 2058 
Q 4056 1763 4056 1313 
Q 4056 619 3595 264 
Q 3134 -91 2228 -91 
Q 1319 -91 855 264 
Q 391 619 391 1313 
Q 391 1763 633 2058 
Q 875 2353 1350 2484 
z
M 1631 3419 
Q 1631 3141 1786 2991 
Q 1941 2841 2228 2841 
Q 2509 2841 2662 2991 
Q 2816 3141 2816 3419 
Q 2816 3697 2662 3845 
Q 2509 3994 2228 3994 
Q 1941 3994 1786 3844 
Q 1631 3694 1631 3419 
z
" transform="scale(0.015625)"/>
      <path id="DejaVuSans-Bold-29" d="M 513 -844 
Q 913 -100 1113 609 
Q 1313 1319 1313 2009 
Q 1313 2700 1113 3408 
Q 913 4116 513 4856 
L 1441 4856 
Q 1916 4091 2145 3389 
Q 2375 2688 2375 2003 
Q 2375 1319 2147 623 
Q 1919 -72 1441 -844 
L 513 -844 
z
" transform="scale(0.015625)"/>
     </defs>
     <use xlink:href="#DejaVuSans-Bold-70"/>
     <use xlink:href="#DejaVuSans-Bold-65" x="71.582031"/>
     <use xlink:href="#DejaVuSans-Bold-61" x="139.404297"/>
     <use xlink:href="#DejaVuSans-Bold-6b" x="206.884766"/>
     <use xlink:href="#DejaVuSans-Bold-20" x="273.388672"/>
     <use xlink:href="#DejaVuSans-Bold-28" x="308.203125"/>
     <use xlink:href="#DejaVuSans-Bold-34" x="353.90625"/>
     <use xlink:href="#DejaVuSans-Bold-2c" x="423.486328"/>
     <use xlink:href="#DejaVuSans-Bold-34" x="461.474609"/>
     <use xlink:href="#DejaVuSans-Bold-34" x="531.054688"/>
     <use xlink:href="#DejaVuSans-Bold-38" x="600.634766"/>
     <use xlink:href="#DejaVuSans-Bold-29" x="670.214844"/>
    </g>
   </g>
   <g id="text_20">
    <!-- mean (1,571) -->
    <g transform="translate(567.728153 171.710003) scale(0.1 -0.1)">
     <defs>
      <path id="DejaVuSans-Bold-6d" d="M 3781 2919 
Q 3994 3244 4286 3414 
Q 4578 3584 4928 3584 
Q 5531 3584 5847 3212 
Q 6163 2841 6163 2131 
L 6163 0 
L 5038 0 
L 5038 1825 
Q 5041 1866 5042 1909 
Q 5044 1953 5044 2034 
Q 5044 2406 4934 2573 
Q 4825 2741 4581 2741 
Q 4263 2741 4089 2478 
Q 3916 2216 3909 1719 
L 3909 0 
L 2784 0 
L 2784 1825 
Q 2784 2406 2684 2573 
Q 2584 2741 2328 2741 
Q 2006 2741 1831 2477 
Q 1656 2213 1656 1722 
L 1656 0 
L 531 0 
L 531 3500 
L 1656 3500 
L 1656 2988 
Q 1863 3284 2130 3434 
Q 2397 3584 2719 3584 
Q 3081 3584 3359 3409 
Q 3638 3234 3781 2919 
z
" transform="scale(0.015625)"/>
      <path id="DejaVuSans-Bold-6e" d="M 4056 2131 
L 4056 0 
L 2931 0 
L 2931 347 
L 2931 1631 
Q 2931 2084 2911 2256 
Q 2891 2428 2841 2509 
Q 2775 2619 2662 2680 
Q 2550 2741 2406 2741 
Q 2056 2741 1856 2470 
Q 1656 2200 1656 1722 
L 1656 0 
L 538 0 
L 538 3500 
L 1656 3500 
L 1656 2988 
Q 1909 3294 2193 3439 
Q 2478 3584 2822 3584 
Q 3428 3584 3742 3212 
Q 4056 2841 4056 2131 
z
" transform="scale(0.015625)"/>
      <path id="DejaVuSans-Bold-31" d="M 750 831 
L 1813 831 
L 1813 3847 
L 722 3622 
L 722 4441 
L 1806 4666 
L 2950 4666 
L 2950 831 
L 4013 831 
L 4013 0 
L 750 0 
L 750 831 
z
" transform="scale(0.015625)"/>
      <path id="DejaVuSans-Bold-35" d="M 678 4666 
L 3669 4666 
L 3669 3781 
L 1638 3781 
L 1638 3059 
Q 1775 3097 1914 3117 
Q 2053 3138 2203 3138 
Q 3056 3138 3531 2711 
Q 4006 2284 4006 1522 
Q 4006 766 3489 337 
Q 2972 -91 2053 -91 
Q 1656 -91 1267 -14 
Q 878 63 494 219 
L 494 1166 
Q 875 947 1217 837 
Q 1559 728 1863 728 
Q 2300 728 2551 942 
Q 2803 1156 2803 1522 
Q 2803 1891 2551 2103 
Q 2300 2316 1863 2316 
Q 1603 2316 1309 2248 
Q 1016 2181 678 2041 
L 678 4666 
z
" transform="scale(0.015625)"/>
      <path id="DejaVuSans-Bold-37" d="M 428 4666 
L 3944 4666 
L 3944 3988 
L 2125 0 
L 953 0 
L 2675 3781 
L 428 3781 
L 428 4666 
z
" transform="scale(0.015625)"/>
     </defs>
     <use xlink:href="#DejaVuSans-Bold-6d"/>
     <use xlink:href="#DejaVuSans-Bold-65" x="104.199219"/>
     <use xlink:href="#DejaVuSans-Bold-61" x="172.021484"/>
     <use xlink:href="#DejaVuSans-Bold-6e" x="239.501953"/>
     <use xlink:href="#DejaVuSans-Bold-20" x="310.693359"/>
     <use xlink:href="#DejaVuSans-Bold-28" x="345.507812"/>
     <use xlink:href="#DejaVuSans-Bold-31" x="391.210938"/>
     <use xlink:href="#DejaVuSans-Bold-2c" x="460.791016"/>
     <use xlink:href="#DejaVuSans-Bold-35" x="498.779297"/>
     <use xlink:href="#DejaVuSans-Bold-37" x="568.359375"/>
     <use xlink:href="#DejaVuSans-Bold-31" x="637.939453"/>
     <use xlink:href="#DejaVuSans-Bold-29" x="707.519531"/>
    </g>
   </g>
   <g id="text_21">
    <!-- Stream Bitrate over Time -->
    <g transform="translate(293.189062 28.56) scale(0.12 -0.12)">
     <defs>
      <path id="DejaVuSans-53" d="M 3425 4513 
L 3425 3897 
Q 3066 4069 2747 4153 
Q 2428 4238 2131 4238 
Q 1616 4238 1336 4038 
Q 1056 3838 1056 3469 
Q 1056 3159 1242 3001 
Q 1428 2844 1947 2747 
L 2328 2669 
Q 3034 2534 3370 2195 
Q 3706 1856 3706 1288 
Q 3706 609 3251 259 
Q 2797 -91 1919 -91 
Q 1588 -91 1214 -16 
Q 841 59 441 206 
L 441 856 
Q 825 641 1194 531 
Q 1563 422 1919 422 
Q 2459 422 2753 634 
Q 3047 847 3047 1241 
Q 3047 1584 2836 1778 
Q 2625 1972 2144 2069 
L 1759 2144 
Q 1053 2284 737 2584 
Q 422 2884 422 3419 
Q 422 4038 858 4394 
Q 1294 4750 2059 4750 
Q 2388 4750 2728 4690 
Q 3069 4631 3425 4513 
z
" transform="scale(0.015625)"/>
      <path id="DejaVuSans-6f" d="M 1959 3097 
Q 1497 3097 1228 2736 
Q 959 2375 959 1747 
Q 959 1119 1226 758 
Q 1494 397 1959 397 
Q 2419 397 2687 759 
Q 2956 1122 2956 1747 
Q 2956 2369 2687 2733 
Q 2419 3097 1959 3097 
z
M 1959 3584 
Q 2709 3584 3137 3096 
Q 3566 2609 3566 1747 
Q 3566 888 3137 398 
Q 2709 -91 1959 -91 
Q 1206 -91 779 398 
Q 353 888 353 1747 
Q 353 2609 779 3096 
Q 1206 3584 1959 3584 
z
" transform="scale(0.015625)"/>
      <path id="DejaVuSans-76" d="M 191 3500 
L 800 3500 
L 1894 563 
L 2988 3500 
L 3597 3500 
L 2284 0 
L 1503 0 
L 191 3500 
z
" transform="scale(0.015625)"/>
     </defs>
     <use xlink:href="#DejaVuSans-53"/>
     <use xlink:href="#DejaVuSans-74" x="63.476562"/>
     <use xlink:href="#DejaVuSans-72" x="102.685547"/>
     <use xlink:href="#DejaVuSans-65" x="141.548828"/>
     <use xlink:href="#DejaVuSans-61" x="203.072266"/>
     <use xlink:href="#DejaVuSans-6d" x="264.351562"/>
     <use xlink:href="#DejaVuSans-20" x="361.763672"/>
     <use xlink:href="#DejaVuSans-42" x="393.550781"/>
     <use xlink:href="#DejaVuSans-69" x="462.154297"/>
     <use xlink:href="#DejaVuSans-74" x="489.9375"/>
     <use xlink:href="#DejaVuSans-72" x="529.146484"/>
     <use xlink:href="#DejaVuSans-61" x="570.259766"/>
     <use xlink:href="#DejaVuSans-74" x="631.539062"/>
     <use xlink:href="#DejaVuSans-65" x="670.748047"/>
     <use xlink:href="#DejaVuSans-20" x="732.271484"/>
     <use xlink:href="#DejaVuSans-6f" x="764.058594"/>
     <use xlink:href="#DejaVuSans-76" x="825.240234"/>
     <use xlink:href="#DejaVuSans-65" x="884.419922"/>
     <use xlink:href="#DejaVuSans-72" x="945.943359"/>
     <use xlink:href="#DejaVuSans-20" x="987.056641"/>
     <use xlink:href="#DejaVuSans-54" x="1018.84375"/>
     <use xlink:href="#DejaVuSans-69" x="1076.802734"/>
     <use xlink:href="#DejaVuSans-6d" x="1104.585938"/>
     <use xlink:href="#DejaVuSans-65" x="1201.998047"/>
    </g>
   </g>
   <g id="legend_1">
    <g id="patch_7">
     <path d="M 602.139063 86.594375 
L 641 86.594375 
Q 643 86.594375 643 84.594375 
L 643 41.56 
Q 643 39.56 641 39.56 
L 602.139063 39.56 
Q 600.139063 39.56 600.139063 41.56 
L 600.139063 84.594375 
Q 600.139063 86.594375 602.139063 86.594375 
z
" style="fill: #ffffff; opacity: 0.8; stroke: #cccccc; stroke-linejoin: miter"/>
    </g>
    <g id="patch_8">
     <path d="M 604.139063 51.158438 
L 624.139063 51.158438 
L 624.139063 44.158438 
L 604.139063 44.158438 
z
" style="fill: #ff0000; stroke: #ff0000; stroke-width: 0.5; stroke-linejoin: miter"/>
    </g>
    <g id="text_22">
     <!-- I -->
     <g transform="translate(632.139063 51.158438) scale(0.1 -0.1)">
      <defs>
       <path id="DejaVuSans-49" d="M 628 4666 
L 1259 4666 
L 1259 0 
L 628 0 
L 628 4666 
z
" transform="scale(0.015625)"/>
      </defs>
      <use xlink:href="#DejaVuSans-49"/>
     </g>
    </g>
    <g id="patch_9">
     <path d="M 604.139063 65.836563 
L 624.139063 65.836563 
L 624.139063 58.836563 
L 604.139063 58.836563 
z
" style="fill: #0000ff; stroke: #0000ff; stroke-width: 0.5; stroke-linejoin: miter"/>
    </g>
    <g id="text_23">
     <!-- B -->
     <g transform="translate(632.139063 65.836563) scale(0.1 -0.1)">
      <use xlink:href="#DejaVuSans-42"/>
     </g>
    </g>
    <g id="patch_10">
     <path d="M 604.139063 80.514688 
L 624.139063 80.514688 
L 624.139063 73.514688 
L 604.139063 73.514688 
z
" style="fill: #008000; stroke: #008000; stroke-width: 0.5; stroke-linejoin: miter"/>
    </g>
    <g id="text_24">
     <!-- P -->
     <g transform="translate(632.139063 80.514688) scale(0.1 -0.1)">
      <defs>
       <path id="DejaVuSans-50" d="M 1259 4147 
L 1259 2394 
L 2053 2394 
Q 2494 2394 2734 2622 
Q 2975 2850 2975 3272 
Q 2975 3691 2734 3919 
Q 2494 4147 2053 4147 
L 1259 4147 
z
M 628 4666 
L 2053 4666 
Q 2838 4666 3239 4311 
Q 3641 3956 3641 3272 
Q 3641 2581 3239 2228 
Q 2838 1875 2053 1875 
L 1259 1875 
L 1259 0 
L 628 0 
L 628 4666 
z
" transform="scale(0.015625)"/>
      </defs>
      <use xlink:href="#DejaVuSans-50"/>
     </g>
    </g>
   </g>
  </g>
 </g>
 <defs>
  <clipPath id="pc2da562cba">
   <rect x="90" y="34.56" width="558" height="221.76"/>
  </clipPath>
 </defs>
</svg>
