<?xml version="1.0" encoding="utf-8" standalone="no"?>
<!DOCTYPE svg PUBLIC "-//W3C//DTD SVG 1.1//EN"
  "http://www.w3.org/Graphics/SVG/1.1/DTD/svg11.dtd">
<svg xmlns:xlink="http://www.w3.org/1999/xlink" width="720pt" height="288pt" viewBox="0 0 720 288" xmlns="http://www.w3.org/2000/svg" version="1.1">
 <metadata>
  <rdf:RDF xmlns:dc="http://purl.org/dc/elements/1.1/" xmlns:cc="http://creativecommons.org/ns#" xmlns:rdf="http://www.w3.org/1999/02/22-rdf-syntax-ns#">
   <cc:Work>
    <dc:type rdf:resource="http://purl.org/dc/dcmitype/StillImage"/>
    <dc:date>2023-05-07T02:06:43.000218</dc:date>
    <dc:format>image/svg+xml</dc:format>
    <dc:creator>
     <cc:Agent>
      <dc:title>Matplotlib v3.7.1, https://matplotlib.org/</dc:title>
     </cc:Agent>
    </dc:creator>
   </cc:Work>
  </rdf:RDF>
 </metadata>
 <defs>
  <style type="text/css">*{stroke-linejoin: round; stroke-linecap: butt}</style>
 </defs>
 <g id="figure_1">
  <g id="patch_1">
   <path d="M 0 288 
L 720 288 
L 720 0 
L 0 0 
z
" style="fill: #ffffff"/>
  </g>
  <g id="axes_1">
   <g id="patch_2">
    <path d="M 90 256.32 
L 648 256.32 
L 648 34.56 
L 90 34.56 
z
" style="fill: #ffffff"/>
   </g>
   <g id="matplotlib.axis_1">
    <g id="xtick_1">
     <g id="line2d_1">
      <defs>
       <path id="mbfa94746fd" d="M 0 0 
L 0 3.5 
" style="stroke: #000000; stroke-width: 0.8"/>
      </defs>
      <g>
       <use xlink:href="#mbfa94746fd" x="115.363636" y="256.32" style="stroke: #000000; stroke-width: 0.8"/>
      </g>
     </g>
     <g id="text_1">
      <!-- 0:00:00 -->
      <g transform="translate(96.088636 270.918437) scale(0.1 -0.1)">
       <defs>
        <path id="DejaVuSans-30" d="M 2034 4250 
Q 1547 4250 1301 3770 
Q 1056 3291 1056 2328 
Q 1056 1369 1301 889 
Q 1547 409 2034 409 
Q 2525 409 2770 889 
Q 3016 1369 3016 2328 
Q 3016 3291 2770 3770 
Q 2525 4250 2034 4250 
z
M 2034 4750 
Q 2819 4750 3233 4129 
Q 3647 3509 3647 2328 
Q 3647 1150 3233 529 
Q 2819 -91 2034 -91 
Q 1250 -91 836 529 
Q 422 1150 422 2328 
Q 422 3509 836 4129 
Q 1250 4750 2034 4750 
z
" transform="scale(0.015625)"/>
        <path id="DejaVuSans-3a" d="M 750 794 
L 1409 794 
L 1409 0 
L 750 0 
L 750 794 
z
M 750 3309 
L 1409 3309 
L 1409 2516 
L 750 2516 
L 750 3309 
z
" transform="scale(0.015625)"/>
       </defs>
       <use xlink:href="#DejaVuSans-30"/>
       <use xlink:href="#DejaVuSans-3a" x="63.623047"/>
       <use xlink:href="#DejaVuSans-30" x="97.314453"/>
       <use xlink:href="#DejaVuSans-30" x="160.9375"/>
       <use xlink:href="#DejaVuSans-3a" x="224.560547"/>
       <use xlink:href="#DejaVuSans-30" x="258.251953"/>
       <use xlink:href="#DejaVuSans-30" x="321.875"/>
      </g>
     </g>
    </g>
    <g id="xtick_2">
     <g id="line2d_2">
      <g>
       <use xlink:href="#mbfa94746fd" x="166.090909" y="256.32" style="stroke: #000000; stroke-width: 0.8"/>
      </g>
     </g>
     <g id="text_2">
      <!-- 0:00:30 -->
      <g transform="translate(146.815909 270.918437) scale(0.1 -0.1)">
       <defs>
        <path id="DejaVuSans-33" d="M 2597 2516 
Q 3050 2419 3304 2112 
Q 3559 1806 3559 1356 
Q 3559 666 3084 287 
Q 2609 -91 1734 -91 
Q 1441 -91 1130 -33 
Q 819 25 488 141 
L 488 750 
Q 750 597 1062 519 
Q 1375 441 1716 441 
Q 2309 441 2620 675 
Q 2931 909 2931 1356 
Q 2931 1769 2642 2001 
Q 2353 2234 1838 2234 
L 1294 2234 
L 1294 2753 
L 1863 2753 
Q 2328 2753 2575 2939 
Q 2822 3125 2822 3475 
Q 2822 3834 2567 4026 
Q 2313 4219 1838 4219 
Q 1578 4219 1281 4162 
Q 984 4106 628 3988 
L 628 4550 
Q 988 4650 1302 4700 
Q 1616 4750 1894 4750 
Q 2613 4750 3031 4423 
Q 3450 4097 3450 3541 
Q 3450 3153 3228 2886 
Q 3006 2619 2597 2516 
z
" transform="scale(0.015625)"/>
       </defs>
       <use xlink:href="#DejaVuSans-30"/>
       <use xlink:href="#DejaVuSans-3a" x="63.623047"/>
       <use xlink:href="#DejaVuSans-30" x="97.314453"/>
       <use xlink:href="#DejaVuSans-30" x="160.9375"/>
       <use xlink:href="#DejaVuSans-3a" x="224.560547"/>
       <use xlink:href="#DejaVuSans-33" x="258.251953"/>
       <use xlink:href="#DejaVuSans-30" x="321.875"/>
      </g>
     </g>
    </g>
    <g id="xtick_3">
     <g id="line2d_3">
      <g>
       <use xlink:href="#mbfa94746fd" x="216.818182" y="256.32" style="stroke: #000000; stroke-width: 0.8"/>
      </g>
     </g>
     <g id="text_3">
      <!-- 0:01:00 -->
      <g transform="translate(197.543182 270.918437) scale(0.1 -0.1)">
       <defs>
        <path id="DejaVuSans-31" d="M 794 531 
L 1825 531 
L 1825 4091 
L 703 3866 
L 703 4441 
L 1819 4666 
L 2450 4666 
L 2450 531 
L 3481 531 
L 3481 0 
L 794 0 
L 794 531 
z
" transform="scale(0.015625)"/>
       </defs>
       <use xlink:href="#DejaVuSans-30"/>
       <use xlink:href="#DejaVuSans-3a" x="63.623047"/>
       <use xlink:href="#DejaVuSans-30" x="97.314453"/>
       <use xlink:href="#DejaVuSans-31" x="160.9375"/>
       <use xlink:href="#DejaVuSans-3a" x="224.560547"/>
       <use xlink:href="#DejaVuSans-30" x="258.251953"/>
       <use xlink:href="#DejaVuSans-30" x="321.875"/>
      </g>
     </g>
    </g>
    <g id="xtick_4">
     <g id="line2d_4">
      <g>
       <use xlink:href="#mbfa94746fd" x="267.545455" y="256.32" style="stroke: #000000; stroke-width: 0.8"/>
      </g>
     </g>
     <g id="text_4">
      <!-- 0:01:30 -->
      <g transform="translate(248.270455 270.918437) scale(0.1 -0.1)">
       <use xlink:href="#DejaVuSans-30"/>
       <use xlink:href="#DejaVuSans-3a" x="63.623047"/>
       <use xlink:href="#DejaVuSans-30" x="97.314453"/>
       <use xlink:href="#DejaVuSans-31" x="160.9375"/>
       <use xlink:href="#DejaVuSans-3a" x="224.560547"/>
       <use xlink:href="#DejaVuSans-33" x="258.251953"/>
       <use xlink:href="#DejaVuSans-30" x="321.875"/>
      </g>
     </g>
    </g>
    <g id="xtick_5">
     <g id="line2d_5">
      <g>
       <use xlink:href="#mbfa94746fd" x="318.272727" y="256.32" style="stroke: #000000; stroke-width: 0.8"/>
      </g>
     </g>
     <g id="text_5">
      <!-- 0:02:00 -->
      <g transform="translate(298.997727 270.918437) scale(0.1 -0.1)">
       <defs>
        <path id="DejaVuSans-32" d="M 1228 531 
L 3431 531 
L 3431 0 
L 469 0 
L 469 531 
Q 828 903 1448 1529 
Q 2069 2156 2228 2338 
Q 2531 2678 2651 2914 
Q 2772 3150 2772 3378 
Q 2772 3750 2511 3984 
Q 2250 4219 1831 4219 
Q 1534 4219 1204 4116 
Q 875 4013 500 3803 
L 500 4441 
Q 881 4594 1212 4672 
Q 1544 4750 1819 4750 
Q 2544 4750 2975 4387 
Q 3406 4025 3406 3419 
Q 3406 3131 3298 2873 
Q 3191 2616 2906 2266 
Q 2828 2175 2409 1742 
Q 1991 1309 1228 531 
z
" transform="scale(0.015625)"/>
       </defs>
       <use xlink:href="#DejaVuSans-30"/>
       <use xlink:href="#DejaVuSans-3a" x="63.623047"/>
       <use xlink:href="#DejaVuSans-30" x="97.314453"/>
       <use xlink:href="#DejaVuSans-32" x="160.9375"/>
       <use xlink:href="#DejaVuSans-3a" x="224.560547"/>
       <use xlink:href="#DejaVuSans-30" x="258.251953"/>
       <use xlink:href="#DejaVuSans-30" x="321.875"/>
      </g>
     </g>
    </g>
    <g id="xtick_6">
     <g id="line2d_6">
      <g>
       <use xlink:href="#mbfa94746fd" x="369" y="256.32" style="stroke: #000000; stroke-width: 0.8"/>
      </g>
     </g>
     <g id="text_6">
      <!-- 0:02:30 -->
      <g transform="translate(349.725 270.918437) scale(0.1 -0.1)">
       <use xlink:href="#DejaVuSans-30"/>
       <use xlink:href="#DejaVuSans-3a" x="63.623047"/>
       <use xlink:href="#DejaVuSans-30" x="97.314453"/>
       <use xlink:href="#DejaVuSans-32" x="160.9375"/>
       <use xlink:href="#DejaVuSans-3a" x="224.560547"/>
       <use xlink:href="#DejaVuSans-33" x="258.251953"/>
       <use xlink:href="#DejaVuSans-30" x="321.875"/>
      </g>
     </g>
    </g>
    <g id="xtick_7">
     <g id="line2d_7">
      <g>
       <use xlink:href="#mbfa94746fd" x="419.727273" y="256.32" style="stroke: #000000; stroke-width: 0.8"/>
      </g>
     </g>
     <g id="text_7">
      <!-- 0:03:00 -->
      <g transform="translate(400.452273 270.918437) scale(0.1 -0.1)">
       <use xlink:href="#DejaVuSans-30"/>
       <use xlink:href="#DejaVuSans-3a" x="63.623047"/>
       <use xlink:href="#DejaVuSans-30" x="97.314453"/>
       <use xlink:href="#DejaVuSans-33" x="160.9375"/>
       <use xlink:href="#DejaVuSans-3a" x="224.560547"/>
       <use xlink:href="#DejaVuSans-30" x="258.251953"/>
       <use xlink:href="#DejaVuSans-30" x="321.875"/>
      </g>
     </g>
    </g>
    <g id="xtick_8">
     <g id="line2d_8">
      <g>
       <use xlink:href="#mbfa94746fd" x="470.454545" y="256.32" style="stroke: #000000; stroke-width: 0.8"/>
      </g>
     </g>
     <g id="text_8">
      <!-- 0:03:30 -->
      <g transform="translate(451.179545 270.918437) scale(0.1 -0.1)">
       <use xlink:href="#DejaVuSans-30"/>
       <use xlink:href="#DejaVuSans-3a" x="63.623047"/>
       <use xlink:href="#DejaVuSans-30" x="97.314453"/>
       <use xlink:href="#DejaVuSans-33" x="160.9375"/>
       <use xlink:href="#DejaVuSans-3a" x="224.560547"/>
       <use xlink:href="#DejaVuSans-33" x="258.251953"/>
       <use xlink:href="#DejaVuSans-30" x="321.875"/>
      </g>
     </g>
    </g>
    <g id="xtick_9">
     <g id="line2d_9">
      <g>
       <use xlink:href="#mbfa94746fd" x="521.181818" y="256.32" style="stroke: #000000; stroke-width: 0.8"/>
      </g>
     </g>
     <g id="text_9">
      <!-- 0:04:00 -->
      <g transform="translate(501.906818 270.918437) scale(0.1 -0.1)">
       <defs>
        <path id="DejaVuSans-34" d="M 2419 4116 
L 825 1625 
L 2419 1625 
L 2419 4116 
z
M 2253 4666 
L 3047 4666 
L 3047 1625 
L 3713 1625 
L 3713 1100 
L 3047 1100 
L 3047 0 
L 2419 0 
L 2419 1100 
L 313 1100 
L 313 1709 
L 2253 4666 
z
" transform="scale(0.015625)"/>
       </defs>
       <use xlink:href="#DejaVuSans-30"/>
       <use xlink:href="#DejaVuSans-3a" x="63.623047"/>
       <use xlink:href="#DejaVuSans-30" x="97.314453"/>
       <use xlink:href="#DejaVuSans-34" x="160.9375"/>
       <use xlink:href="#DejaVuSans-3a" x="224.560547"/>
       <use xlink:href="#DejaVuSans-30" x="258.251953"/>
       <use xlink:href="#DejaVuSans-30" x="321.875"/>
      </g>
     </g>
    </g>
    <g id="xtick_10">
     <g id="line2d_10">
      <g>
       <use xlink:href="#mbfa94746fd" x="571.909091" y="256.32" style="stroke: #000000; stroke-width: 0.8"/>
      </g>
     </g>
     <g id="text_10">
      <!-- 0:04:30 -->
      <g transform="translate(552.634091 270.918437) scale(0.1 -0.1)">
       <use xlink:href="#DejaVuSans-30"/>
       <use xlink:href="#DejaVuSans-3a" x="63.623047"/>
       <use xlink:href="#DejaVuSans-30" x="97.314453"/>
       <use xlink:href="#DejaVuSans-34" x="160.9375"/>
       <use xlink:href="#DejaVuSans-3a" x="224.560547"/>
       <use xlink:href="#DejaVuSans-33" x="258.251953"/>
       <use xlink:href="#DejaVuSans-30" x="321.875"/>
      </g>
     </g>
    </g>
    <g id="xtick_11">
     <g id="line2d_11">
      <g>
       <use xlink:href="#mbfa94746fd" x="622.636364" y="256.32" style="stroke: #000000; stroke-width: 0.8"/>
      </g>
     </g>
     <g id="text_11">
      <!-- 0:05:00 -->
      <g transform="translate(603.361364 270.918437) scale(0.1 -0.1)">
       <defs>
        <path id="DejaVuSans-35" d="M 691 4666 
L 3169 4666 
L 3169 4134 
L 1269 4134 
L 1269 2991 
Q 1406 3038 1543 3061 
Q 1681 3084 1819 3084 
Q 2600 3084 3056 2656 
Q 3513 2228 3513 1497 
Q 3513 744 3044 326 
Q 2575 -91 1722 -91 
Q 1428 -91 1123 -41 
Q 819 9 494 109 
L 494 744 
Q 775 591 1075 516 
Q 1375 441 1709 441 
Q 2250 441 2565 725 
Q 2881 1009 2881 1497 
Q 2881 1984 2565 2268 
Q 2250 2553 1709 2553 
Q 1456 2553 1204 2497 
Q 953 2441 691 2322 
L 691 4666 
z
" transform="scale(0.015625)"/>
       </defs>
       <use xlink:href="#DejaVuSans-30"/>
       <use xlink:href="#DejaVuSans-3a" x="63.623047"/>
       <use xlink:href="#DejaVuSans-30" x="97.314453"/>
       <use xlink:href="#DejaVuSans-35" x="160.9375"/>
       <use xlink:href="#DejaVuSans-3a" x="224.560547"/>
       <use xlink:href="#DejaVuSans-30" x="258.251953"/>
       <use xlink:href="#DejaVuSans-30" x="321.875"/>
      </g>
     </g>
    </g>
    <g id="text_12">
     <!-- Time -->
     <g transform="translate(356.766406 284.596563) scale(0.1 -0.1)">
      <defs>
       <path id="DejaVuSans-54" d="M -19 4666 
L 3928 4666 
L 3928 4134 
L 2272 4134 
L 2272 0 
L 1638 0 
L 1638 4134 
L -19 4134 
L -19 4666 
z
" transform="scale(0.015625)"/>
       <path id="DejaVuSans-69" d="M 603 3500 
L 1178 3500 
L 1178 0 
L 603 0 
L 603 3500 
z
M 603 4863 
L 1178 4863 
L 1178 4134 
L 603 4134 
L 603 4863 
z
" transform="scale(0.015625)"/>
       <path id="DejaVuSans-6d" d="M 3328 2828 
Q 3544 3216 3844 3400 
Q 4144 3584 4550 3584 
Q 5097 3584 5394 3201 
Q 5691 2819 5691 2113 
L 5691 0 
L 5113 0 
L 5113 2094 
Q 5113 2597 4934 2840 
Q 4756 3084 4391 3084 
Q 3944 3084 3684 2787 
Q 3425 2491 3425 1978 
L 3425 0 
L 2847 0 
L 2847 2094 
Q 2847 2600 2669 2842 
Q 2491 3084 2119 3084 
Q 1678 3084 1418 2786 
Q 1159 2488 1159 1978 
L 1159 0 
L 581 0 
L 581 3500 
L 1159 3500 
L 1159 2956 
Q 1356 3278 1631 3431 
Q 1906 3584 2284 3584 
Q 2666 3584 2933 3390 
Q 3200 3197 3328 2828 
z
" transform="scale(0.015625)"/>
       <path id="DejaVuSans-65" d="M 3597 1894 
L 3597 1613 
L 953 1613 
Q 991 1019 1311 708 
Q 1631 397 2203 397 
Q 2534 397 2845 478 
Q 3156 559 3463 722 
L 3463 178 
Q 3153 47 2828 -22 
Q 2503 -91 2169 -91 
Q 1331 -91 842 396 
Q 353 884 353 1716 
Q 353 2575 817 3079 
Q 1281 3584 2069 3584 
Q 2775 3584 3186 3129 
Q 3597 2675 3597 1894 
z
M 3022 2063 
Q 3016 2534 2758 2815 
Q 2500 3097 2075 3097 
Q 1594 3097 1305 2825 
Q 1016 2553 972 2059 
L 3022 2063 
z
" transform="scale(0.015625)"/>
      </defs>
      <use xlink:href="#DejaVuSans-54"/>
      <use xlink:href="#DejaVuSans-69" x="57.958984"/>
      <use xlink:href="#DejaVuSans-6d" x="85.742188"/>
      <use xlink:href="#DejaVuSans-65" x="183.154297"/>
     </g>
    </g>
   </g>
   <g id="matplotlib.axis_2">
    <g id="ytick_1">
     <g id="line2d_12">
      <path d="M 90 246.24 
L 648 246.24 
" clip-path="url(#p590089e257)" style="fill: none; stroke: #b0b0b0; stroke-width: 0.8; stroke-linecap: square"/>
     </g>
     <g id="line2d_13">
      <defs>
       <path id="m9e038a86f9" d="M 0 0 
L -3.5 0 
" style="stroke: #000000; stroke-width: 0.8"/>
      </defs>
      <g>
       <use xlink:href="#m9e038a86f9" x="90" y="246.24" style="stroke: #000000; stroke-width: 0.8"/>
      </g>
     </g>
     <g id="text_13">
      <!-- 0 -->
      <g transform="translate(76.6375 250.039219) scale(0.1 -0.1)">
       <use xlink:href="#DejaVuSans-30"/>
      </g>
     </g>
    </g>
    <g id="ytick_2">
     <g id="line2d_14">
      <path d="M 90 214.993875 
L 648 214.993875 
" clip-path="url(#p590089e257)" style="fill: none; stroke: #b0b0b0; stroke-width: 0.8; stroke-linecap: square"/>
     </g>
     <g id="line2d_15">
      <g>
       <use xlink:href="#m9e038a86f9" x="90" y="214.993875" style="stroke: #000000; stroke-width: 0.8"/>
      </g>
     </g>
     <g id="text_14">
      <!-- 500 -->
      <g transform="translate(63.9125 218.793094) scale(0.1 -0.1)">
       <use xlink:href="#DejaVuSans-35"/>
       <use xlink:href="#DejaVuSans-30" x="63.623047"/>
       <use xlink:href="#DejaVuSans-30" x="127.246094"/>
      </g>
     </g>
    </g>
    <g id="ytick_3">
     <g id="line2d_16">
      <path d="M 90 183.74775 
L 648 183.74775 
" clip-path="url(#p590089e257)" style="fill: none; stroke: #b0b0b0; stroke-width: 0.8; stroke-linecap: square"/>
     </g>
     <g id="line2d_17">
      <g>
       <use xlink:href="#m9e038a86f9" x="90" y="183.74775" style="stroke: #000000; stroke-width: 0.8"/>
      </g>
     </g>
     <g id="text_15">
      <!-- 1,000 -->
      <g transform="translate(54.371875 187.546968) scale(0.1 -0.1)">
       <defs>
        <path id="DejaVuSans-2c" d="M 750 794 
L 1409 794 
L 1409 256 
L 897 -744 
L 494 -744 
L 750 256 
L 750 794 
z
" transform="scale(0.015625)"/>
       </defs>
       <use xlink:href="#DejaVuSans-31"/>
       <use xlink:href="#DejaVuSans-2c" x="63.623047"/>
       <use xlink:href="#DejaVuSans-30" x="95.410156"/>
       <use xlink:href="#DejaVuSans-30" x="159.033203"/>
       <use xlink:href="#DejaVuSans-30" x="222.65625"/>
      </g>
     </g>
    </g>
    <g id="ytick_4">
     <g id="line2d_18">
      <path d="M 90 152.501624 
L 648 152.501624 
" clip-path="url(#p590089e257)" style="fill: none; stroke: #b0b0b0; stroke-width: 0.8; stroke-linecap: square"/>
     </g>
     <g id="line2d_19">
      <g>
       <use xlink:href="#m9e038a86f9" x="90" y="152.501624" style="stroke: #000000; stroke-width: 0.8"/>
      </g>
     </g>
     <g id="text_16">
      <!-- 1,500 -->
      <g transform="translate(54.371875 156.300843) scale(0.1 -0.1)">
       <use xlink:href="#DejaVuSans-31"/>
       <use xlink:href="#DejaVuSans-2c" x="63.623047"/>
       <use xlink:href="#DejaVuSans-35" x="95.410156"/>
       <use xlink:href="#DejaVuSans-30" x="159.033203"/>
       <use xlink:href="#DejaVuSans-30" x="222.65625"/>
      </g>
     </g>
    </g>
    <g id="ytick_5">
     <g id="line2d_20">
      <path d="M 90 121.255499 
L 648 121.255499 
" clip-path="url(#p590089e257)" style="fill: none; stroke: #b0b0b0; stroke-width: 0.8; stroke-linecap: square"/>
     </g>
     <g id="line2d_21">
      <g>
       <use xlink:href="#m9e038a86f9" x="90" y="121.255499" style="stroke: #000000; stroke-width: 0.8"/>
      </g>
     </g>
     <g id="text_17">
      <!-- 2,000 -->
      <g transform="translate(54.371875 125.054718) scale(0.1 -0.1)">
       <use xlink:href="#DejaVuSans-32"/>
       <use xlink:href="#DejaVuSans-2c" x="63.623047"/>
       <use xlink:href="#DejaVuSans-30" x="95.410156"/>
       <use xlink:href="#DejaVuSans-30" x="159.033203"/>
       <use xlink:href="#DejaVuSans-30" x="222.65625"/>
      </g>
     </g>
    </g>
    <g id="ytick_6">
     <g id="line2d_22">
      <path d="M 90 90.009374 
L 648 90.009374 
" clip-path="url(#p590089e257)" style="fill: none; stroke: #b0b0b0; stroke-width: 0.8; stroke-linecap: square"/>
     </g>
     <g id="line2d_23">
      <g>
       <use xlink:href="#m9e038a86f9" x="90" y="90.009374" style="stroke: #000000; stroke-width: 0.8"/>
      </g>
     </g>
     <g id="text_18">
      <!-- 2,500 -->
      <g transform="translate(54.371875 93.808593) scale(0.1 -0.1)">
       <use xlink:href="#DejaVuSans-32"/>
       <use xlink:href="#DejaVuSans-2c" x="63.623047"/>
       <use xlink:href="#DejaVuSans-35" x="95.410156"/>
       <use xlink:href="#DejaVuSans-30" x="159.033203"/>
       <use xlink:href="#DejaVuSans-30" x="222.65625"/>
      </g>
     </g>
    </g>
    <g id="ytick_7">
     <g id="line2d_24">
      <path d="M 90 58.763249 
L 648 58.763249 
" clip-path="url(#p590089e257)" style="fill: none; stroke: #b0b0b0; stroke-width: 0.8; stroke-linecap: square"/>
     </g>
     <g id="line2d_25">
      <g>
       <use xlink:href="#m9e038a86f9" x="90" y="58.763249" style="stroke: #000000; stroke-width: 0.8"/>
      </g>
     </g>
     <g id="text_19">
      <!-- 3,000 -->
      <g transform="translate(54.371875 62.562467) scale(0.1 -0.1)">
       <use xlink:href="#DejaVuSans-33"/>
       <use xlink:href="#DejaVuSans-2c" x="63.623047"/>
       <use xlink:href="#DejaVuSans-30" x="95.410156"/>
       <use xlink:href="#DejaVuSans-30" x="159.033203"/>
       <use xlink:href="#DejaVuSans-30" x="222.65625"/>
      </g>
     </g>
    </g>
    <g id="text_20">
     <!-- Bitrate (kbit/s) -->
     <g transform="translate(48.292187 181.574375) rotate(-90) scale(0.1 -0.1)">
      <defs>
       <path id="DejaVuSans-42" d="M 1259 2228 
L 1259 519 
L 2272 519 
Q 2781 519 3026 730 
Q 3272 941 3272 1375 
Q 3272 1813 3026 2020 
Q 2781 2228 2272 2228 
L 1259 2228 
z
M 1259 4147 
L 1259 2741 
L 2194 2741 
Q 2656 2741 2882 2914 
Q 3109 3088 3109 3444 
Q 3109 3797 2882 3972 
Q 2656 4147 2194 4147 
L 1259 4147 
z
M 628 4666 
L 2241 4666 
Q 2963 4666 3353 4366 
Q 3744 4066 3744 3513 
Q 3744 3084 3544 2831 
Q 3344 2578 2956 2516 
Q 3422 2416 3680 2098 
Q 3938 1781 3938 1306 
Q 3938 681 3513 340 
Q 3088 0 2303 0 
L 628 0 
L 628 4666 
z
" transform="scale(0.015625)"/>
       <path id="DejaVuSans-74" d="M 1172 4494 
L 1172 3500 
L 2356 3500 
L 2356 3053 
L 1172 3053 
L 1172 1153 
Q 1172 725 1289 603 
Q 1406 481 1766 481 
L 2356 481 
L 2356 0 
L 1766 0 
Q 1100 0 847 248 
Q 594 497 594 1153 
L 594 3053 
L 172 3053 
L 172 3500 
L 594 3500 
L 594 4494 
L 1172 4494 
z
" transform="scale(0.015625)"/>
       <path id="DejaVuSans-72" d="M 2631 2963 
Q 2534 3019 2420 3045 
Q 2306 3072 2169 3072 
Q 1681 3072 1420 2755 
Q 1159 2438 1159 1844 
L 1159 0 
L 581 0 
L 581 3500 
L 1159 3500 
L 1159 2956 
Q 1341 3275 1631 3429 
Q 1922 3584 2338 3584 
Q 2397 3584 2469 3576 
Q 2541 3569 2628 3553 
L 2631 2963 
z
" transform="scale(0.015625)"/>
       <path id="DejaVuSans-61" d="M 2194 1759 
Q 1497 1759 1228 1600 
Q 959 1441 959 1056 
Q 959 750 1161 570 
Q 1363 391 1709 391 
Q 2188 391 2477 730 
Q 2766 1069 2766 1631 
L 2766 1759 
L 2194 1759 
z
M 3341 1997 
L 3341 0 
L 2766 0 
L 2766 531 
Q 2569 213 2275 61 
Q 1981 -91 1556 -91 
Q 1019 -91 701 211 
Q 384 513 384 1019 
Q 384 1609 779 1909 
Q 1175 2209 1959 2209 
L 2766 2209 
L 2766 2266 
Q 2766 2663 2505 2880 
Q 2244 3097 1772 3097 
Q 1472 3097 1187 3025 
Q 903 2953 641 2809 
L 641 3341 
Q 956 3463 1253 3523 
Q 1550 3584 1831 3584 
Q 2591 3584 2966 3190 
Q 3341 2797 3341 1997 
z
" transform="scale(0.015625)"/>
       <path id="DejaVuSans-20" transform="scale(0.015625)"/>
       <path id="DejaVuSans-28" d="M 1984 4856 
Q 1566 4138 1362 3434 
Q 1159 2731 1159 2009 
Q 1159 1288 1364 580 
Q 1569 -128 1984 -844 
L 1484 -844 
Q 1016 -109 783 600 
Q 550 1309 550 2009 
Q 550 2706 781 3412 
Q 1013 4119 1484 4856 
L 1984 4856 
z
" transform="scale(0.015625)"/>
       <path id="DejaVuSans-6b" d="M 581 4863 
L 1159 4863 
L 1159 1991 
L 2875 3500 
L 3609 3500 
L 1753 1863 
L 3688 0 
L 2938 0 
L 1159 1709 
L 1159 0 
L 581 0 
L 581 4863 
z
" transform="scale(0.015625)"/>
       <path id="DejaVuSans-62" d="M 3116 1747 
Q 3116 2381 2855 2742 
Q 2594 3103 2138 3103 
Q 1681 3103 1420 2742 
Q 1159 2381 1159 1747 
Q 1159 1113 1420 752 
Q 1681 391 2138 391 
Q 2594 391 2855 752 
Q 3116 1113 3116 1747 
z
M 1159 2969 
Q 1341 3281 1617 3432 
Q 1894 3584 2278 3584 
Q 2916 3584 3314 3078 
Q 3713 2572 3713 1747 
Q 3713 922 3314 415 
Q 2916 -91 2278 -91 
Q 1894 -91 1617 61 
Q 1341 213 1159 525 
L 1159 0 
L 581 0 
L 581 4863 
L 1159 4863 
L 1159 2969 
z
" transform="scale(0.015625)"/>
       <path id="DejaVuSans-2f" d="M 1625 4666 
L 2156 4666 
L 531 -594 
L 0 -594 
L 1625 4666 
z
" transform="scale(0.015625)"/>
       <path id="DejaVuSans-73" d="M 2834 3397 
L 2834 2853 
Q 2591 2978 2328 3040 
Q 2066 3103 1784 3103 
Q 1356 3103 1142 2972 
Q 928 2841 928 2578 
Q 928 2378 1081 2264 
Q 1234 2150 1697 2047 
L 1894 2003 
Q 2506 1872 2764 1633 
Q 3022 1394 3022 966 
Q 3022 478 2636 193 
Q 2250 -91 1575 -91 
Q 1294 -91 989 -36 
Q 684 19 347 128 
L 347 722 
Q 666 556 975 473 
Q 1284 391 1588 391 
Q 1994 391 2212 530 
Q 2431 669 2431 922 
Q 2431 1156 2273 1281 
Q 2116 1406 1581 1522 
L 1381 1569 
Q 847 1681 609 1914 
Q 372 2147 372 2553 
Q 372 3047 722 3315 
Q 1072 3584 1716 3584 
Q 2034 3584 2315 3537 
Q 2597 3491 2834 3397 
z
" transform="scale(0.015625)"/>
       <path id="DejaVuSans-29" d="M 513 4856 
L 1013 4856 
Q 1481 4119 1714 3412 
Q 1947 2706 1947 2009 
Q 1947 1309 1714 600 
Q 1481 -109 1013 -844 
L 513 -844 
Q 928 -128 1133 580 
Q 1338 1288 1338 2009 
Q 1338 2731 1133 3434 
Q 928 4138 513 4856 
z
" transform="scale(0.015625)"/>
      </defs>
      <use xlink:href="#DejaVuSans-42"/>
      <use xlink:href="#DejaVuSans-69" x="68.603516"/>
      <use xlink:href="#DejaVuSans-74" x="96.386719"/>
      <use xlink:href="#DejaVuSans-72" x="135.595703"/>
      <use xlink:href="#DejaVuSans-61" x="176.708984"/>
      <use xlink:href="#DejaVuSans-74" x="237.988281"/>
      <use xlink:href="#DejaVuSans-65" x="277.197266"/>
      <use xlink:href="#DejaVuSans-20" x="338.720703"/>
      <use xlink:href="#DejaVuSans-28" x="370.507812"/>
      <use xlink:href="#DejaVuSans-6b" x="409.521484"/>
      <use xlink:href="#DejaVuSans-62" x="467.431641"/>
      <use xlink:href="#DejaVuSans-69" x="530.908203"/>
      <use xlink:href="#DejaVuSans-74" x="558.691406"/>
      <use xlink:href="#DejaVuSans-2f" x="597.900391"/>
      <use xlink:href="#DejaVuSans-73" x="631.591797"/>
      <use xlink:href="#DejaVuSans-29" x="683.691406"/>
     </g>
    </g>
   </g>
   <g id="PolyCollection_1">
    <defs>
     <path id="mde990bed22" d="M 115.363636 -43.009845 
L 115.363636 -41.76 
L 117.054545 -41.76 
L 118.745455 -41.76 
L 120.436364 -41.76 
L 122.127273 -41.76 
L 123.818182 -41.76 
L 125.509091 -41.76 
L 127.2 -41.76 
L 128.890909 -41.76 
L 130.581818 -41.76 
L 132.272727 -41.76 
L 133.963636 -41.76 
L 135.654545 -41.76 
L 137.345455 -41.76 
L 139.036364 -41.76 
L 140.727273 -41.76 
L 142.418182 -41.76 
L 144.109091 -41.76 
L 145.8 -41.76 
L 147.490909 -41.76 
L 149.181818 -41.76 
L 150.872727 -41.76 
L 152.563636 -41.76 
L 154.254545 -41.76 
L 155.945455 -41.76 
L 157.636364 -41.76 
L 159.327273 -41.76 
L 161.018182 -41.76 
L 162.709091 -41.76 
L 164.4 -41.76 
L 166.090909 -41.76 
L 167.781818 -41.76 
L 169.472727 -41.76 
L 171.163636 -41.76 
L 172.854545 -41.76 
L 174.545455 -41.76 
L 176.236364 -41.76 
L 177.927273 -41.76 
L 179.618182 -41.76 
L 181.309091 -41.76 
L 183 -41.76 
L 184.690909 -41.76 
L 186.381818 -41.76 
L 188.072727 -41.76 
L 189.763636 -41.76 
L 191.454545 -41.76 
L 193.145455 -41.76 
L 194.836364 -41.76 
L 196.527273 -41.76 
L 198.218182 -41.76 
L 199.909091 -41.76 
L 201.6 -41.76 
L 203.290909 -41.76 
L 204.981818 -41.76 
L 206.672727 -41.76 
L 208.363636 -41.76 
L 210.054545 -41.76 
L 211.745455 -41.76 
L 213.436364 -41.76 
L 215.127273 -41.76 
L 216.818182 -41.76 
L 218.509091 -41.76 
L 220.2 -41.76 
L 221.890909 -41.76 
L 223.581818 -41.76 
L 225.272727 -41.76 
L 226.963636 -41.76 
L 228.654545 -41.76 
L 230.345455 -41.76 
L 232.036364 -41.76 
L 233.727273 -41.76 
L 235.418182 -41.76 
L 237.109091 -41.76 
L 238.8 -41.76 
L 240.490909 -41.76 
L 242.181818 -41.76 
L 243.872727 -41.76 
L 245.563636 -41.76 
L 247.254545 -41.76 
L 248.945455 -41.76 
L 250.636364 -41.76 
L 252.327273 -41.76 
L 254.018182 -41.76 
L 255.709091 -41.76 
L 257.4 -41.76 
L 259.090909 -41.76 
L 260.781818 -41.76 
L 262.472727 -41.76 
L 264.163636 -41.76 
L 265.854545 -41.76 
L 267.545455 -41.76 
L 269.236364 -41.76 
L 270.927273 -41.76 
L 272.618182 -41.76 
L 274.309091 -41.76 
L 276 -41.76 
L 277.690909 -41.76 
L 279.381818 -41.76 
L 281.072727 -41.76 
L 282.763636 -41.76 
L 284.454545 -41.76 
L 286.145455 -41.76 
L 287.836364 -41.76 
L 289.527273 -41.76 
L 291.218182 -41.76 
L 292.909091 -41.76 
L 294.6 -41.76 
L 296.290909 -41.76 
L 297.981818 -41.76 
L 299.672727 -41.76 
L 301.363636 -41.76 
L 303.054545 -41.76 
L 304.745455 -41.76 
L 306.436364 -41.76 
L 308.127273 -41.76 
L 309.818182 -41.76 
L 311.509091 -41.76 
L 313.2 -41.76 
L 314.890909 -41.76 
L 316.581818 -41.76 
L 318.272727 -41.76 
L 319.963636 -41.76 
L 321.654545 -41.76 
L 323.345455 -41.76 
L 325.036364 -41.76 
L 326.727273 -41.76 
L 328.418182 -41.76 
L 330.109091 -41.76 
L 331.8 -41.76 
L 333.490909 -41.76 
L 335.181818 -41.76 
L 336.872727 -41.76 
L 338.563636 -41.76 
L 340.254545 -41.76 
L 341.945455 -41.76 
L 343.636364 -41.76 
L 345.327273 -41.76 
L 347.018182 -41.76 
L 348.709091 -41.76 
L 350.4 -41.76 
L 352.090909 -41.76 
L 353.781818 -41.76 
L 355.472727 -41.76 
L 357.163636 -41.76 
L 358.854545 -41.76 
L 360.545455 -41.76 
L 362.236364 -41.76 
L 363.927273 -41.76 
L 365.618182 -41.76 
L 367.309091 -41.76 
L 369 -41.76 
L 370.690909 -41.76 
L 372.381818 -41.76 
L 374.072727 -41.76 
L 375.763636 -41.76 
L 377.454545 -41.76 
L 379.145455 -41.76 
L 380.836364 -41.76 
L 382.527273 -41.76 
L 384.218182 -41.76 
L 385.909091 -41.76 
L 387.6 -41.76 
L 389.290909 -41.76 
L 390.981818 -41.76 
L 392.672727 -41.76 
L 394.363636 -41.76 
L 396.054545 -41.76 
L 397.745455 -41.76 
L 399.436364 -41.76 
L 401.127273 -41.76 
L 402.818182 -41.76 
L 404.509091 -41.76 
L 406.2 -41.76 
L 407.890909 -41.76 
L 409.581818 -41.76 
L 411.272727 -41.76 
L 412.963636 -41.76 
L 414.654545 -41.76 
L 416.345455 -41.76 
L 418.036364 -41.76 
L 419.727273 -41.76 
L 421.418182 -41.76 
L 423.109091 -41.76 
L 424.8 -41.76 
L 426.490909 -41.76 
L 428.181818 -41.76 
L 429.872727 -41.76 
L 431.563636 -41.76 
L 433.254545 -41.76 
L 434.945455 -41.76 
L 436.636364 -41.76 
L 438.327273 -41.76 
L 440.018182 -41.76 
L 441.709091 -41.76 
L 443.4 -41.76 
L 445.090909 -41.76 
L 446.781818 -41.76 
L 448.472727 -41.76 
L 450.163636 -41.76 
L 451.854545 -41.76 
L 453.545455 -41.76 
L 455.236364 -41.76 
L 456.927273 -41.76 
L 458.618182 -41.76 
L 460.309091 -41.76 
L 462 -41.76 
L 463.690909 -41.76 
L 465.381818 -41.76 
L 467.072727 -41.76 
L 468.763636 -41.76 
L 470.454545 -41.76 
L 472.145455 -41.76 
L 473.836364 -41.76 
L 475.527273 -41.76 
L 477.218182 -41.76 
L 478.909091 -41.76 
L 480.6 -41.76 
L 482.290909 -41.76 
L 483.981818 -41.76 
L 485.672727 -41.76 
L 487.363636 -41.76 
L 489.054545 -41.76 
L 490.745455 -41.76 
L 492.436364 -41.76 
L 494.127273 -41.76 
L 495.818182 -41.76 
L 497.509091 -41.76 
L 499.2 -41.76 
L 500.890909 -41.76 
L 502.581818 -41.76 
L 504.272727 -41.76 
L 505.963636 -41.76 
L 507.654545 -41.76 
L 509.345455 -41.76 
L 511.036364 -41.76 
L 512.727273 -41.76 
L 514.418182 -41.76 
L 516.109091 -41.76 
L 517.8 -41.76 
L 519.490909 -41.76 
L 521.181818 -41.76 
L 522.872727 -41.76 
L 524.563636 -41.76 
L 526.254545 -41.76 
L 527.945455 -41.76 
L 529.636364 -41.76 
L 531.327273 -41.76 
L 533.018182 -41.76 
L 534.709091 -41.76 
L 536.4 -41.76 
L 538.090909 -41.76 
L 539.781818 -41.76 
L 541.472727 -41.76 
L 543.163636 -41.76 
L 544.854545 -41.76 
L 546.545455 -41.76 
L 548.236364 -41.76 
L 549.927273 -41.76 
L 551.618182 -41.76 
L 553.309091 -41.76 
L 555 -41.76 
L 556.690909 -41.76 
L 558.381818 -41.76 
L 560.072727 -41.76 
L 561.763636 -41.76 
L 563.454545 -41.76 
L 565.145455 -41.76 
L 566.836364 -41.76 
L 568.527273 -41.76 
L 570.218182 -41.76 
L 571.909091 -41.76 
L 573.6 -41.76 
L 575.290909 -41.76 
L 576.981818 -41.76 
L 578.672727 -41.76 
L 580.363636 -41.76 
L 582.054545 -41.76 
L 583.745455 -41.76 
L 585.436364 -41.76 
L 587.127273 -41.76 
L 588.818182 -41.76 
L 590.509091 -41.76 
L 592.2 -41.76 
L 593.890909 -41.76 
L 595.581818 -41.76 
L 597.272727 -41.76 
L 598.963636 -41.76 
L 600.654545 -41.76 
L 602.345455 -41.76 
L 604.036364 -41.76 
L 605.727273 -41.76 
L 607.418182 -41.76 
L 609.109091 -41.76 
L 610.8 -41.76 
L 612.490909 -41.76 
L 614.181818 -41.76 
L 615.872727 -41.76 
L 617.563636 -41.76 
L 619.254545 -41.76 
L 620.945455 -41.76 
L 622.636364 -41.76 
L 622.636364 -41.76 
L 622.636364 -41.76 
L 620.945455 -64.507179 
L 619.254545 -41.76 
L 617.563636 -41.76 
L 615.872727 -68.319206 
L 614.181818 -41.76 
L 612.490909 -41.76 
L 610.8 -123.249895 
L 609.109091 -41.76 
L 607.418182 -41.76 
L 605.727273 -41.76 
L 604.036364 -132.123794 
L 602.345455 -41.76 
L 600.654545 -41.76 
L 598.963636 -41.76 
L 597.272727 -72.568679 
L 595.581818 -95.815797 
L 593.890909 -41.76 
L 592.2 -103.002405 
L 590.509091 -41.76 
L 588.818182 -60.757644 
L 587.127273 -41.76 
L 585.436364 -119.437867 
L 583.745455 -41.76 
L 582.054545 -41.76 
L 580.363636 -41.76 
L 578.672727 -113.188642 
L 576.981818 -41.76 
L 575.290909 -41.76 
L 573.6 -41.76 
L 571.909091 -70.006497 
L 570.218182 -41.76 
L 568.527273 -78.192982 
L 566.836364 -80.505195 
L 565.145455 -41.76 
L 563.454545 -59.945245 
L 561.763636 -41.76 
L 560.072727 -152.183807 
L 558.381818 -41.76 
L 556.690909 -91.7538 
L 555 -41.76 
L 553.309091 -55.695772 
L 551.618182 -105.189634 
L 549.927273 -41.76 
L 548.236364 -54.695896 
L 546.545455 -56.070725 
L 544.854545 -41.76 
L 543.163636 -41.76 
L 541.472727 -68.881637 
L 539.781818 -41.76 
L 538.090909 -41.76 
L 536.4 -41.76 
L 534.709091 -41.76 
L 533.018182 -121.562604 
L 531.327273 -157.058202 
L 529.636364 -63.819764 
L 527.945455 -41.76 
L 526.254545 -41.76 
L 524.563636 -41.76 
L 522.872727 -63.69478 
L 521.181818 -41.76 
L 519.490909 -41.76 
L 517.8 -41.76 
L 516.109091 -41.76 
L 514.418182 -70.568927 
L 512.727273 -41.76 
L 511.036364 -131.498872 
L 509.345455 -41.76 
L 507.654545 -41.76 
L 505.963636 -41.76 
L 504.272727 -70.006497 
L 502.581818 -41.76 
L 500.890909 -169.556652 
L 499.2 -41.76 
L 497.509091 -41.76 
L 495.818182 -86.19199 
L 494.127273 -53.071097 
L 492.436364 -41.76 
L 490.745455 -66.819392 
L 489.054545 -41.76 
L 487.363636 -41.76 
L 485.672727 -41.76 
L 483.981818 -69.194098 
L 482.290909 -41.76 
L 480.6 -70.006497 
L 478.909091 -41.76 
L 477.218182 -41.76 
L 475.527273 -67.694284 
L 473.836364 -41.76 
L 472.145455 -60.445183 
L 470.454545 -71.693788 
L 468.763636 -41.76 
L 467.072727 -86.379467 
L 465.381818 -41.76 
L 463.690909 -41.76 
L 462 -41.76 
L 460.309091 -69.631544 
L 458.618182 -41.76 
L 456.927273 -41.76 
L 455.236364 -59.445307 
L 453.545455 -61.695028 
L 451.854545 -54.695896 
L 450.163636 -41.76 
L 448.472727 -41.76 
L 446.781818 -57.008109 
L 445.090909 -41.76 
L 443.4 -41.76 
L 441.709091 -86.316975 
L 440.018182 -41.76 
L 438.327273 -41.76 
L 436.636364 -48.509163 
L 434.945455 -75.130862 
L 433.254545 -41.76 
L 431.563636 -41.76 
L 429.872727 -41.76 
L 428.181818 -41.76 
L 426.490909 -85.192114 
L 424.8 -41.76 
L 423.109091 -77.193106 
L 421.418182 -41.76 
L 419.727273 -89.816541 
L 418.036364 -41.76 
L 416.345455 -54.133466 
L 414.654545 -41.76 
L 412.963636 -41.76 
L 411.272727 -41.76 
L 409.581818 -41.76 
L 407.890909 -54.695896 
L 406.2 -91.128878 
L 404.509091 -41.76 
L 402.818182 -58.382939 
L 401.127273 -41.76 
L 399.436364 -41.76 
L 397.745455 -89.504079 
L 396.054545 -56.258202 
L 394.363636 -91.128878 
L 392.672727 -93.69106 
L 390.981818 -41.76 
L 389.290909 -41.76 
L 387.6 -41.76 
L 385.909091 -98.190502 
L 384.218182 -41.76 
L 382.527273 -41.76 
L 380.836364 -81.380087 
L 379.145455 -41.76 
L 377.454545 -41.76 
L 375.763636 -41.76 
L 374.072727 -86.566944 
L 372.381818 -41.76 
L 370.690909 -41.76 
L 369 -185.492176 
L 367.309091 -41.76 
L 365.618182 -41.76 
L 363.927273 -71.256342 
L 362.236364 -41.76 
L 360.545455 -41.76 
L 358.854545 -41.76 
L 357.163636 -83.192362 
L 355.472727 -41.76 
L 353.781818 -41.76 
L 352.090909 -41.76 
L 350.4 -82.817409 
L 348.709091 -41.76 
L 347.018182 -41.76 
L 345.327273 -41.76 
L 343.636364 -78.817905 
L 341.945455 -41.76 
L 340.254545 -41.76 
L 338.563636 -41.76 
L 336.872727 -82.442455 
L 335.181818 -41.76 
L 333.490909 -41.76 
L 331.8 -41.76 
L 330.109091 -79.380335 
L 328.418182 -41.76 
L 326.727273 -73.13111 
L 325.036364 -41.76 
L 323.345455 -41.76 
L 321.654545 -95.315859 
L 319.963636 -100.877669 
L 318.272727 -41.76 
L 316.581818 -41.76 
L 314.890909 -41.76 
L 313.2 -116.500732 
L 311.509091 -52.008729 
L 309.818182 -41.76 
L 308.127273 -41.76 
L 306.436364 -41.76 
L 304.745455 -55.820756 
L 303.054545 -41.76 
L 301.363636 -41.76 
L 299.672727 -41.76 
L 297.981818 -55.883249 
L 296.290909 -41.76 
L 294.6 -41.76 
L 292.909091 -41.76 
L 291.218182 -136.623236 
L 289.527273 -41.76 
L 287.836364 -41.76 
L 286.145455 -41.76 
L 284.454545 -41.76 
L 282.763636 -70.881389 
L 281.072727 -41.76 
L 279.381818 -41.76 
L 277.690909 -41.76 
L 276 -78.317967 
L 274.309091 -97.253118 
L 272.618182 -41.76 
L 270.927273 -73.256094 
L 269.236364 -41.76 
L 267.545455 -41.76 
L 265.854545 -41.76 
L 264.163636 -71.943757 
L 262.472727 -41.76 
L 260.781818 -41.76 
L 259.090909 -41.76 
L 257.4 -92.691184 
L 255.709091 -41.76 
L 254.018182 -41.76 
L 252.327273 -41.76 
L 250.636364 -41.76 
L 248.945455 -94.940905 
L 247.254545 -41.76 
L 245.563636 -58.882877 
L 243.872727 -41.76 
L 242.181818 -124.874693 
L 240.490909 -41.76 
L 238.8 -80.380211 
L 237.109091 -55.383311 
L 235.418182 -41.76 
L 233.727273 -41.76 
L 232.036364 -41.76 
L 230.345455 -106.939417 
L 228.654545 -41.76 
L 226.963636 -41.76 
L 225.272727 -63.69478 
L 223.581818 -63.319826 
L 221.890909 -41.76 
L 220.2 -41.76 
L 218.509091 -41.76 
L 216.818182 -98.315487 
L 215.127273 -41.76 
L 213.436364 -41.76 
L 211.745455 -41.76 
L 210.054545 -108.12677 
L 208.363636 -41.76 
L 206.672727 -41.76 
L 204.981818 -41.76 
L 203.290909 -126.374507 
L 201.6 -41.76 
L 199.909091 -41.76 
L 198.218182 -41.76 
L 196.527273 -84.754668 
L 194.836364 -41.76 
L 193.145455 -41.76 
L 191.454545 -41.76 
L 189.763636 -41.76 
L 188.072727 -87.56682 
L 186.381818 -41.76 
L 184.690909 -41.76 
L 183 -41.76 
L 181.309091 -111.313875 
L 179.618182 -41.76 
L 177.927273 -41.76 
L 176.236364 -41.76 
L 174.545455 -123.187402 
L 172.854545 -41.76 
L 171.163636 -41.76 
L 169.472727 -41.76 
L 167.781818 -117.5631 
L 166.090909 -41.76 
L 164.4 -41.76 
L 162.709091 -41.76 
L 161.018182 -155.120942 
L 159.327273 -41.76 
L 157.636364 -41.76 
L 155.945455 -61.257582 
L 154.254545 -41.76 
L 152.563636 -41.76 
L 150.872727 -41.76 
L 149.181818 -66.7569 
L 147.490909 -41.76 
L 145.8 -41.76 
L 144.109091 -41.76 
L 142.418182 -142.997446 
L 140.727273 -41.76 
L 139.036364 -41.76 
L 137.345455 -41.76 
L 135.654545 -124.562232 
L 133.963636 -41.76 
L 132.272727 -41.76 
L 130.581818 -41.76 
L 128.890909 -78.255474 
L 127.2 -41.76 
L 125.509091 -41.76 
L 123.818182 -41.76 
L 122.127273 -43.822244 
L 120.436364 -41.76 
L 118.745455 -41.76 
L 117.054545 -41.76 
L 115.363636 -43.009845 
z
" style="stroke: #ff0000; stroke-width: 0.5"/>
    </defs>
    <g clip-path="url(#p590089e257)">
     <use xlink:href="#mde990bed22" x="0" y="288" style="fill: #ff0000; stroke: #ff0000; stroke-width: 0.5"/>
    </g>
   </g>
   <g id="PolyCollection_2">
    <defs>
     <path id="mdc5d00e6ed" d="M 115.363636 -48.69664 
L 115.363636 -43.009845 
L 117.054545 -41.76 
L 118.745455 -41.76 
L 120.436364 -41.76 
L 122.127273 -43.822244 
L 123.818182 -41.76 
L 125.509091 -41.76 
L 127.2 -41.76 
L 128.890909 -78.255474 
L 130.581818 -41.76 
L 132.272727 -41.76 
L 133.963636 -41.76 
L 135.654545 -124.562232 
L 137.345455 -41.76 
L 139.036364 -41.76 
L 140.727273 -41.76 
L 142.418182 -142.997446 
L 144.109091 -41.76 
L 145.8 -41.76 
L 147.490909 -41.76 
L 149.181818 -66.7569 
L 150.872727 -41.76 
L 152.563636 -41.76 
L 154.254545 -41.76 
L 155.945455 -61.257582 
L 157.636364 -41.76 
L 159.327273 -41.76 
L 161.018182 -155.120942 
L 162.709091 -41.76 
L 164.4 -41.76 
L 166.090909 -41.76 
L 167.781818 -117.5631 
L 169.472727 -41.76 
L 171.163636 -41.76 
L 172.854545 -41.76 
L 174.545455 -123.187402 
L 176.236364 -41.76 
L 177.927273 -41.76 
L 179.618182 -41.76 
L 181.309091 -111.313875 
L 183 -41.76 
L 184.690909 -41.76 
L 186.381818 -41.76 
L 188.072727 -87.56682 
L 189.763636 -41.76 
L 191.454545 -41.76 
L 193.145455 -41.76 
L 194.836364 -41.76 
L 196.527273 -84.754668 
L 198.218182 -41.76 
L 199.909091 -41.76 
L 201.6 -41.76 
L 203.290909 -126.374507 
L 204.981818 -41.76 
L 206.672727 -41.76 
L 208.363636 -41.76 
L 210.054545 -108.12677 
L 211.745455 -41.76 
L 213.436364 -41.76 
L 215.127273 -41.76 
L 216.818182 -98.315487 
L 218.509091 -41.76 
L 220.2 -41.76 
L 221.890909 -41.76 
L 223.581818 -63.319826 
L 225.272727 -63.69478 
L 226.963636 -41.76 
L 228.654545 -41.76 
L 230.345455 -106.939417 
L 232.036364 -41.76 
L 233.727273 -41.76 
L 235.418182 -41.76 
L 237.109091 -55.383311 
L 238.8 -80.380211 
L 240.490909 -41.76 
L 242.181818 -124.874693 
L 243.872727 -41.76 
L 245.563636 -58.882877 
L 247.254545 -41.76 
L 248.945455 -94.940905 
L 250.636364 -41.76 
L 252.327273 -41.76 
L 254.018182 -41.76 
L 255.709091 -41.76 
L 257.4 -92.691184 
L 259.090909 -41.76 
L 260.781818 -41.76 
L 262.472727 -41.76 
L 264.163636 -71.943757 
L 265.854545 -41.76 
L 267.545455 -41.76 
L 269.236364 -41.76 
L 270.927273 -73.256094 
L 272.618182 -41.76 
L 274.309091 -97.253118 
L 276 -78.317967 
L 277.690909 -41.76 
L 279.381818 -41.76 
L 281.072727 -41.76 
L 282.763636 -70.881389 
L 284.454545 -41.76 
L 286.145455 -41.76 
L 287.836364 -41.76 
L 289.527273 -41.76 
L 291.218182 -136.623236 
L 292.909091 -41.76 
L 294.6 -41.76 
L 296.290909 -41.76 
L 297.981818 -55.883249 
L 299.672727 -41.76 
L 301.363636 -41.76 
L 303.054545 -41.76 
L 304.745455 -55.820756 
L 306.436364 -41.76 
L 308.127273 -41.76 
L 309.818182 -41.76 
L 311.509091 -52.008729 
L 313.2 -116.500732 
L 314.890909 -41.76 
L 316.581818 -41.76 
L 318.272727 -41.76 
L 319.963636 -100.877669 
L 321.654545 -95.315859 
L 323.345455 -41.76 
L 325.036364 -41.76 
L 326.727273 -73.13111 
L 328.418182 -41.76 
L 330.109091 -79.380335 
L 331.8 -41.76 
L 333.490909 -41.76 
L 335.181818 -41.76 
L 336.872727 -82.442455 
L 338.563636 -41.76 
L 340.254545 -41.76 
L 341.945455 -41.76 
L 343.636364 -78.817905 
L 345.327273 -41.76 
L 347.018182 -41.76 
L 348.709091 -41.76 
L 350.4 -82.817409 
L 352.090909 -41.76 
L 353.781818 -41.76 
L 355.472727 -41.76 
L 357.163636 -83.192362 
L 358.854545 -41.76 
L 360.545455 -41.76 
L 362.236364 -41.76 
L 363.927273 -71.256342 
L 365.618182 -41.76 
L 367.309091 -41.76 
L 369 -185.492176 
L 370.690909 -41.76 
L 372.381818 -41.76 
L 374.072727 -86.566944 
L 375.763636 -41.76 
L 377.454545 -41.76 
L 379.145455 -41.76 
L 380.836364 -81.380087 
L 382.527273 -41.76 
L 384.218182 -41.76 
L 385.909091 -98.190502 
L 387.6 -41.76 
L 389.290909 -41.76 
L 390.981818 -41.76 
L 392.672727 -93.69106 
L 394.363636 -91.128878 
L 396.054545 -56.258202 
L 397.745455 -89.504079 
L 399.436364 -41.76 
L 401.127273 -41.76 
L 402.818182 -58.382939 
L 404.509091 -41.76 
L 406.2 -91.128878 
L 407.890909 -54.695896 
L 409.581818 -41.76 
L 411.272727 -41.76 
L 412.963636 -41.76 
L 414.654545 -41.76 
L 416.345455 -54.133466 
L 418.036364 -41.76 
L 419.727273 -89.816541 
L 421.418182 -41.76 
L 423.109091 -77.193106 
L 424.8 -41.76 
L 426.490909 -85.192114 
L 428.181818 -41.76 
L 429.872727 -41.76 
L 431.563636 -41.76 
L 433.254545 -41.76 
L 434.945455 -75.130862 
L 436.636364 -48.509163 
L 438.327273 -41.76 
L 440.018182 -41.76 
L 441.709091 -86.316975 
L 443.4 -41.76 
L 445.090909 -41.76 
L 446.781818 -57.008109 
L 448.472727 -41.76 
L 450.163636 -41.76 
L 451.854545 -54.695896 
L 453.545455 -61.695028 
L 455.236364 -59.445307 
L 456.927273 -41.76 
L 458.618182 -41.76 
L 460.309091 -69.631544 
L 462 -41.76 
L 463.690909 -41.76 
L 465.381818 -41.76 
L 467.072727 -86.379467 
L 468.763636 -41.76 
L 470.454545 -71.693788 
L 472.145455 -60.445183 
L 473.836364 -41.76 
L 475.527273 -67.694284 
L 477.218182 -41.76 
L 478.909091 -41.76 
L 480.6 -70.006497 
L 482.290909 -41.76 
L 483.981818 -69.194098 
L 485.672727 -41.76 
L 487.363636 -41.76 
L 489.054545 -41.76 
L 490.745455 -66.819392 
L 492.436364 -41.76 
L 494.127273 -53.071097 
L 495.818182 -86.19199 
L 497.509091 -41.76 
L 499.2 -41.76 
L 500.890909 -169.556652 
L 502.581818 -41.76 
L 504.272727 -70.006497 
L 505.963636 -41.76 
L 507.654545 -41.76 
L 509.345455 -41.76 
L 511.036364 -131.498872 
L 512.727273 -41.76 
L 514.418182 -70.568927 
L 516.109091 -41.76 
L 517.8 -41.76 
L 519.490909 -41.76 
L 521.181818 -41.76 
L 522.872727 -63.69478 
L 524.563636 -41.76 
L 526.254545 -41.76 
L 527.945455 -41.76 
L 529.636364 -63.819764 
L 531.327273 -157.058202 
L 533.018182 -121.562604 
L 534.709091 -41.76 
L 536.4 -41.76 
L 538.090909 -41.76 
L 539.781818 -41.76 
L 541.472727 -68.881637 
L 543.163636 -41.76 
L 544.854545 -41.76 
L 546.545455 -56.070725 
L 548.236364 -54.695896 
L 549.927273 -41.76 
L 551.618182 -105.189634 
L 553.309091 -55.695772 
L 555 -41.76 
L 556.690909 -91.7538 
L 558.381818 -41.76 
L 560.072727 -152.183807 
L 561.763636 -41.76 
L 563.454545 -59.945245 
L 565.145455 -41.76 
L 566.836364 -80.505195 
L 568.527273 -78.192982 
L 570.218182 -41.76 
L 571.909091 -70.006497 
L 573.6 -41.76 
L 575.290909 -41.76 
L 576.981818 -41.76 
L 578.672727 -113.188642 
L 580.363636 -41.76 
L 582.054545 -41.76 
L 583.745455 -41.76 
L 585.436364 -119.437867 
L 587.127273 -41.76 
L 588.818182 -60.757644 
L 590.509091 -41.76 
L 592.2 -103.002405 
L 593.890909 -41.76 
L 595.581818 -95.815797 
L 597.272727 -72.568679 
L 598.963636 -41.76 
L 600.654545 -41.76 
L 602.345455 -41.76 
L 604.036364 -132.123794 
L 605.727273 -41.76 
L 607.418182 -41.76 
L 609.109091 -41.76 
L 610.8 -123.249895 
L 612.490909 -41.76 
L 614.181818 -41.76 
L 615.872727 -68.319206 
L 617.563636 -41.76 
L 619.254545 -41.76 
L 620.945455 -64.507179 
L 622.636364 -41.76 
L 622.636364 -41.76 
L 622.636364 -41.76 
L 620.945455 -86.75442 
L 619.254545 -75.880769 
L 617.563636 -61.132598 
L 615.872727 -74.318462 
L 614.181818 -46.259442 
L 612.490909 -47.946733 
L 610.8 -131.436379 
L 609.109091 -53.758512 
L 607.418182 -46.071965 
L 605.727273 -43.947229 
L 604.036364 -136.560744 
L 602.345455 -53.383559 
L 600.654545 -52.383683 
L 598.963636 -54.508419 
L 597.272727 -103.252374 
L 595.581818 -134.873453 
L 593.890909 -59.070353 
L 592.2 -113.876057 
L 590.509091 -59.695276 
L 588.818182 -73.193602 
L 587.127273 -57.008109 
L 585.436364 -131.936317 
L 583.745455 -99.25287 
L 582.054545 -108.439231 
L 580.363636 -103.439851 
L 578.672727 -132.311271 
L 576.981818 -45.572027 
L 575.290909 -44.947105 
L 573.6 -53.633528 
L 571.909091 -75.318338 
L 570.218182 -52.946113 
L 568.527273 -83.12987 
L 566.836364 -95.503335 
L 565.145455 -50.696392 
L 563.454545 -75.193354 
L 561.763636 -47.32181 
L 560.072727 -159.807861 
L 558.381818 -58.6954 
L 556.690909 -103.314867 
L 555 -50.133962 
L 553.309091 -64.569671 
L 551.618182 -120.562728 
L 549.927273 -71.693788 
L 548.236364 -72.193726 
L 546.545455 -64.757148 
L 544.854545 -47.446795 
L 543.163636 -57.383063 
L 541.472727 -117.063162 
L 539.781818 -59.570291 
L 538.090909 -63.319826 
L 536.4 -63.944749 
L 534.709091 -100.127762 
L 533.018182 -138.498004 
L 531.327273 -168.744253 
L 529.636364 -82.067502 
L 527.945455 -45.572027 
L 526.254545 -45.447043 
L 524.563636 -45.072089 
L 522.872727 -68.194222 
L 521.181818 -45.821996 
L 519.490909 -46.946857 
L 517.8 -52.133714 
L 516.109091 -62.507427 
L 514.418182 -79.880273 
L 512.727273 -44.82212 
L 511.036364 -136.560744 
L 509.345455 -62.194966 
L 507.654545 -53.633528 
L 505.963636 -65.194594 
L 504.272727 -102.127514 
L 502.581818 -51.321314 
L 500.890909 -171.493912 
L 499.2 -44.009721 
L 497.509091 -44.25969 
L 495.818182 -90.191494 
L 494.127273 -60.570167 
L 492.436364 -58.13297 
L 490.745455 -92.503707 
L 489.054545 -54.133466 
L 487.363636 -56.633156 
L 485.672727 -55.070849 
L 483.981818 -81.630056 
L 482.290909 -92.191246 
L 480.6 -121.875065 
L 478.909091 -95.503335 
L 477.218182 -99.877793 
L 475.527273 -108.814185 
L 473.836364 -56.75814 
L 472.145455 -76.568184 
L 470.454545 -93.003645 
L 468.763636 -45.697012 
L 467.072727 -91.628816 
L 465.381818 -51.633776 
L 463.690909 -48.009225 
L 462 -57.195586 
L 460.309091 -80.380211 
L 458.618182 -50.571407 
L 456.927273 -50.571407 
L 455.236364 -64.382195 
L 453.545455 -86.75442 
L 451.854545 -67.006869 
L 450.163636 -49.759008 
L 448.472727 -77.380583 
L 446.781818 -82.692424 
L 445.090909 -44.82212 
L 443.4 -44.447167 
L 441.709091 -91.441339 
L 440.018182 -74.443447 
L 438.327273 -81.380087 
L 436.636364 -66.631916 
L 434.945455 -102.252498 
L 433.254545 -85.317099 
L 431.563636 -86.629436 
L 429.872727 -91.628816 
L 428.181818 -88.941649 
L 426.490909 -103.189882 
L 424.8 -56.19571 
L 423.109091 -91.066386 
L 421.418182 -90.566448 
L 419.727273 -124.124786 
L 418.036364 -54.008481 
L 416.345455 -61.507551 
L 414.654545 -52.508667 
L 412.963636 -47.884241 
L 411.272727 -50.6339 
L 409.581818 -51.633776 
L 407.890909 -78.192982 
L 406.2 -99.25287 
L 404.509091 -47.946733 
L 402.818182 -71.006373 
L 401.127273 -54.695896 
L 399.436364 -58.6954 
L 397.745455 -101.502591 
L 396.054545 -66.569423 
L 394.363636 -103.252374 
L 392.672727 -101.877545 
L 390.981818 -51.071345 
L 389.290909 -47.134334 
L 387.6 -46.884365 
L 385.909091 -101.127638 
L 384.218182 -54.695896 
L 382.527273 -57.508047 
L 380.836364 -108.314247 
L 379.145455 -66.694408 
L 377.454545 -63.319826 
L 375.763636 -54.508419 
L 374.072727 -92.441215 
L 372.381818 -45.572027 
L 370.690909 -46.259442 
L 369 -188.429312 
L 367.309091 -50.883869 
L 365.618182 -52.258698 
L 363.927273 -102.877421 
L 362.236364 -58.757892 
L 360.545455 -49.946485 
L 358.854545 -68.444191 
L 357.163636 -107.001909 
L 355.472727 -66.881885 
L 353.781818 -46.75938 
L 352.090909 -55.320818 
L 350.4 -102.56496 
L 348.709091 -51.821252 
L 347.018182 -49.009101 
L 345.327273 -49.134086 
L 343.636364 -90.878909 
L 341.945455 -48.071717 
L 340.254545 -49.446547 
L 338.563636 -66.006993 
L 336.872727 -101.065146 
L 335.181818 -50.008977 
L 333.490909 -49.883993 
L 331.8 -47.571779 
L 330.109091 -107.064402 
L 328.418182 -69.069113 
L 326.727273 -96.128258 
L 325.036364 -49.009101 
L 323.345455 -64.507179 
L 321.654545 -106.252002 
L 319.963636 -114.50098 
L 318.272727 -66.131978 
L 316.581818 -57.633032 
L 314.890909 -55.63328 
L 313.2 -135.435883 
L 311.509091 -69.756528 
L 309.818182 -68.506683 
L 308.127273 -66.131978 
L 306.436364 -61.570043 
L 304.745455 -82.005009 
L 303.054545 -61.257582 
L 301.363636 -63.882257 
L 299.672727 -54.508419 
L 297.981818 -62.882381 
L 296.290909 -46.696888 
L 294.6 -56.570663 
L 292.909091 -49.071593 
L 291.218182 -141.810093 
L 289.527273 -52.821128 
L 287.836364 -52.071221 
L 286.145455 -49.446547 
L 284.454545 -52.196206 
L 282.763636 -76.505691 
L 281.072727 -46.75938 
L 279.381818 -45.884489 
L 277.690909 -45.63452 
L 276 -81.130118 
L 274.309091 -100.002777 
L 272.618182 -45.384551 
L 270.927273 -77.880521 
L 269.236364 -50.446423 
L 267.545455 -49.321562 
L 265.854545 -44.25969 
L 264.163636 -79.067874 
L 262.472727 -50.133962 
L 260.781818 -59.25783 
L 259.090909 -60.63266 
L 257.4 -121.312635 
L 255.709091 -96.878165 
L 254.018182 -85.754544 
L 252.327273 -88.629188 
L 250.636364 -72.443695 
L 248.945455 -119.375375 
L 247.254545 -56.945617 
L 245.563636 -63.069857 
L 243.872727 -45.197074 
L 242.181818 -128.186782 
L 240.490909 -45.384551 
L 238.8 -103.814805 
L 237.109091 -66.444439 
L 235.418182 -66.256962 
L 233.727273 -68.069237 
L 232.036364 -58.007985 
L 230.345455 -112.438735 
L 228.654545 -48.321686 
L 226.963636 -47.259318 
L 225.272727 -69.944005 
L 223.581818 -67.006869 
L 221.890909 -46.634396 
L 220.2 -49.25907 
L 218.509091 -45.572027 
L 216.818182 -108.814185 
L 215.127273 -61.382567 
L 213.436364 -51.321314 
L 211.745455 -51.321314 
L 210.054545 -115.750825 
L 208.363636 -45.884489 
L 206.672727 -49.446547 
L 204.981818 -60.507675 
L 203.290909 -137.810589 
L 201.6 -49.759008 
L 199.909091 -46.259442 
L 198.218182 -46.571903 
L 196.527273 -90.191494 
L 194.836364 -45.63452 
L 193.145455 -46.071965 
L 191.454545 -46.071965 
L 189.763636 -46.446919 
L 188.072727 -92.316231 
L 186.381818 -46.634396 
L 184.690909 -46.696888 
L 183 -46.75938 
L 181.309091 -117.875561 
L 179.618182 -48.69664 
L 177.927273 -48.759132 
L 176.236364 -48.69664 
L 174.545455 -129.936565 
L 172.854545 -48.571655 
L 171.163636 -48.571655 
L 169.472727 -48.509163 
L 167.781818 -124.312263 
L 166.090909 -48.634148 
L 164.4 -48.509163 
L 162.709091 -48.321686 
L 161.018182 -160.120322 
L 159.327273 -45.697012 
L 157.636364 -51.633776 
L 155.945455 -83.004885 
L 154.254545 -46.571903 
L 152.563636 -53.883497 
L 150.872727 -49.8215 
L 149.181818 -77.943013 
L 147.490909 -57.508047 
L 145.8 -57.758016 
L 144.109091 -57.445555 
L 142.418182 -154.308543 
L 140.727273 -47.259318 
L 139.036364 -47.696764 
L 137.345455 -48.321686 
L 135.654545 -130.561488 
L 133.963636 -48.259194 
L 132.272727 -48.384179 
L 130.581818 -48.009225 
L 128.890909 -83.942269 
L 127.2 -47.009349 
L 125.509091 -46.446919 
L 123.818182 -45.322058 
L 122.127273 -49.134086 
L 120.436364 -45.697012 
L 118.745455 -45.384551 
L 117.054545 -46.946857 
L 115.363636 -48.69664 
z
" style="stroke: #0000ff; stroke-width: 0.5"/>
    </defs>
    <g clip-path="url(#p590089e257)">
     <use xlink:href="#mdc5d00e6ed" x="0" y="288" style="fill: #0000ff; stroke: #0000ff; stroke-width: 0.5"/>
    </g>
   </g>
   <g id="PolyCollection_3">
    <defs>
     <path id="m587cce1e67" d="M 115.363636 -61.445059 
L 115.363636 -48.69664 
L 117.054545 -46.946857 
L 118.745455 -45.384551 
L 120.436364 -45.697012 
L 122.127273 -49.134086 
L 123.818182 -45.322058 
L 125.509091 -46.446919 
L 127.2 -47.009349 
L 128.890909 -83.942269 
L 130.581818 -48.009225 
L 132.272727 -48.384179 
L 133.963636 -48.259194 
L 135.654545 -130.561488 
L 137.345455 -48.321686 
L 139.036364 -47.696764 
L 140.727273 -47.259318 
L 142.418182 -154.308543 
L 144.109091 -57.445555 
L 145.8 -57.758016 
L 147.490909 -57.508047 
L 149.181818 -77.943013 
L 150.872727 -49.8215 
L 152.563636 -53.883497 
L 154.254545 -46.571903 
L 155.945455 -83.004885 
L 157.636364 -51.633776 
L 159.327273 -45.697012 
L 161.018182 -160.120322 
L 162.709091 -48.321686 
L 164.4 -48.509163 
L 166.090909 -48.634148 
L 167.781818 -124.312263 
L 169.472727 -48.509163 
L 171.163636 -48.571655 
L 172.854545 -48.571655 
L 174.545455 -129.936565 
L 176.236364 -48.69664 
L 177.927273 -48.759132 
L 179.618182 -48.69664 
L 181.309091 -117.875561 
L 183 -46.75938 
L 184.690909 -46.696888 
L 186.381818 -46.634396 
L 188.072727 -92.316231 
L 189.763636 -46.446919 
L 191.454545 -46.071965 
L 193.145455 -46.071965 
L 194.836364 -45.63452 
L 196.527273 -90.191494 
L 198.218182 -46.571903 
L 199.909091 -46.259442 
L 201.6 -49.759008 
L 203.290909 -137.810589 
L 204.981818 -60.507675 
L 206.672727 -49.446547 
L 208.363636 -45.884489 
L 210.054545 -115.750825 
L 211.745455 -51.321314 
L 213.436364 -51.321314 
L 215.127273 -61.382567 
L 216.818182 -108.814185 
L 218.509091 -45.572027 
L 220.2 -49.25907 
L 221.890909 -46.634396 
L 223.581818 -67.006869 
L 225.272727 -69.944005 
L 226.963636 -47.259318 
L 228.654545 -48.321686 
L 230.345455 -112.438735 
L 232.036364 -58.007985 
L 233.727273 -68.069237 
L 235.418182 -66.256962 
L 237.109091 -66.444439 
L 238.8 -103.814805 
L 240.490909 -45.384551 
L 242.181818 -128.186782 
L 243.872727 -45.197074 
L 245.563636 -63.069857 
L 247.254545 -56.945617 
L 248.945455 -119.375375 
L 250.636364 -72.443695 
L 252.327273 -88.629188 
L 254.018182 -85.754544 
L 255.709091 -96.878165 
L 257.4 -121.312635 
L 259.090909 -60.63266 
L 260.781818 -59.25783 
L 262.472727 -50.133962 
L 264.163636 -79.067874 
L 265.854545 -44.25969 
L 267.545455 -49.321562 
L 269.236364 -50.446423 
L 270.927273 -77.880521 
L 272.618182 -45.384551 
L 274.309091 -100.002777 
L 276 -81.130118 
L 277.690909 -45.63452 
L 279.381818 -45.884489 
L 281.072727 -46.75938 
L 282.763636 -76.505691 
L 284.454545 -52.196206 
L 286.145455 -49.446547 
L 287.836364 -52.071221 
L 289.527273 -52.821128 
L 291.218182 -141.810093 
L 292.909091 -49.071593 
L 294.6 -56.570663 
L 296.290909 -46.696888 
L 297.981818 -62.882381 
L 299.672727 -54.508419 
L 301.363636 -63.882257 
L 303.054545 -61.257582 
L 304.745455 -82.005009 
L 306.436364 -61.570043 
L 308.127273 -66.131978 
L 309.818182 -68.506683 
L 311.509091 -69.756528 
L 313.2 -135.435883 
L 314.890909 -55.63328 
L 316.581818 -57.633032 
L 318.272727 -66.131978 
L 319.963636 -114.50098 
L 321.654545 -106.252002 
L 323.345455 -64.507179 
L 325.036364 -49.009101 
L 326.727273 -96.128258 
L 328.418182 -69.069113 
L 330.109091 -107.064402 
L 331.8 -47.571779 
L 333.490909 -49.883993 
L 335.181818 -50.008977 
L 336.872727 -101.065146 
L 338.563636 -66.006993 
L 340.254545 -49.446547 
L 341.945455 -48.071717 
L 343.636364 -90.878909 
L 345.327273 -49.134086 
L 347.018182 -49.009101 
L 348.709091 -51.821252 
L 350.4 -102.56496 
L 352.090909 -55.320818 
L 353.781818 -46.75938 
L 355.472727 -66.881885 
L 357.163636 -107.001909 
L 358.854545 -68.444191 
L 360.545455 -49.946485 
L 362.236364 -58.757892 
L 363.927273 -102.877421 
L 365.618182 -52.258698 
L 367.309091 -50.883869 
L 369 -188.429312 
L 370.690909 -46.259442 
L 372.381818 -45.572027 
L 374.072727 -92.441215 
L 375.763636 -54.508419 
L 377.454545 -63.319826 
L 379.145455 -66.694408 
L 380.836364 -108.314247 
L 382.527273 -57.508047 
L 384.218182 -54.695896 
L 385.909091 -101.127638 
L 387.6 -46.884365 
L 389.290909 -47.134334 
L 390.981818 -51.071345 
L 392.672727 -101.877545 
L 394.363636 -103.252374 
L 396.054545 -66.569423 
L 397.745455 -101.502591 
L 399.436364 -58.6954 
L 401.127273 -54.695896 
L 402.818182 -71.006373 
L 404.509091 -47.946733 
L 406.2 -99.25287 
L 407.890909 -78.192982 
L 409.581818 -51.633776 
L 411.272727 -50.6339 
L 412.963636 -47.884241 
L 414.654545 -52.508667 
L 416.345455 -61.507551 
L 418.036364 -54.008481 
L 419.727273 -124.124786 
L 421.418182 -90.566448 
L 423.109091 -91.066386 
L 424.8 -56.19571 
L 426.490909 -103.189882 
L 428.181818 -88.941649 
L 429.872727 -91.628816 
L 431.563636 -86.629436 
L 433.254545 -85.317099 
L 434.945455 -102.252498 
L 436.636364 -66.631916 
L 438.327273 -81.380087 
L 440.018182 -74.443447 
L 441.709091 -91.441339 
L 443.4 -44.447167 
L 445.090909 -44.82212 
L 446.781818 -82.692424 
L 448.472727 -77.380583 
L 450.163636 -49.759008 
L 451.854545 -67.006869 
L 453.545455 -86.75442 
L 455.236364 -64.382195 
L 456.927273 -50.571407 
L 458.618182 -50.571407 
L 460.309091 -80.380211 
L 462 -57.195586 
L 463.690909 -48.009225 
L 465.381818 -51.633776 
L 467.072727 -91.628816 
L 468.763636 -45.697012 
L 470.454545 -93.003645 
L 472.145455 -76.568184 
L 473.836364 -56.75814 
L 475.527273 -108.814185 
L 477.218182 -99.877793 
L 478.909091 -95.503335 
L 480.6 -121.875065 
L 482.290909 -92.191246 
L 483.981818 -81.630056 
L 485.672727 -55.070849 
L 487.363636 -56.633156 
L 489.054545 -54.133466 
L 490.745455 -92.503707 
L 492.436364 -58.13297 
L 494.127273 -60.570167 
L 495.818182 -90.191494 
L 497.509091 -44.25969 
L 499.2 -44.009721 
L 500.890909 -171.493912 
L 502.581818 -51.321314 
L 504.272727 -102.127514 
L 505.963636 -65.194594 
L 507.654545 -53.633528 
L 509.345455 -62.194966 
L 511.036364 -136.560744 
L 512.727273 -44.82212 
L 514.418182 -79.880273 
L 516.109091 -62.507427 
L 517.8 -52.133714 
L 519.490909 -46.946857 
L 521.181818 -45.821996 
L 522.872727 -68.194222 
L 524.563636 -45.072089 
L 526.254545 -45.447043 
L 527.945455 -45.572027 
L 529.636364 -82.067502 
L 531.327273 -168.744253 
L 533.018182 -138.498004 
L 534.709091 -100.127762 
L 536.4 -63.944749 
L 538.090909 -63.319826 
L 539.781818 -59.570291 
L 541.472727 -117.063162 
L 543.163636 -57.383063 
L 544.854545 -47.446795 
L 546.545455 -64.757148 
L 548.236364 -72.193726 
L 549.927273 -71.693788 
L 551.618182 -120.562728 
L 553.309091 -64.569671 
L 555 -50.133962 
L 556.690909 -103.314867 
L 558.381818 -58.6954 
L 560.072727 -159.807861 
L 561.763636 -47.32181 
L 563.454545 -75.193354 
L 565.145455 -50.696392 
L 566.836364 -95.503335 
L 568.527273 -83.12987 
L 570.218182 -52.946113 
L 571.909091 -75.318338 
L 573.6 -53.633528 
L 575.290909 -44.947105 
L 576.981818 -45.572027 
L 578.672727 -132.311271 
L 580.363636 -103.439851 
L 582.054545 -108.439231 
L 583.745455 -99.25287 
L 585.436364 -131.936317 
L 587.127273 -57.008109 
L 588.818182 -73.193602 
L 590.509091 -59.695276 
L 592.2 -113.876057 
L 593.890909 -59.070353 
L 595.581818 -134.873453 
L 597.272727 -103.252374 
L 598.963636 -54.508419 
L 600.654545 -52.383683 
L 602.345455 -53.383559 
L 604.036364 -136.560744 
L 605.727273 -43.947229 
L 607.418182 -46.071965 
L 609.109091 -53.758512 
L 610.8 -131.436379 
L 612.490909 -47.946733 
L 614.181818 -46.259442 
L 615.872727 -74.318462 
L 617.563636 -61.132598 
L 619.254545 -75.880769 
L 620.945455 -86.75442 
L 622.636364 -41.76 
L 622.636364 -41.947477 
L 622.636364 -41.947477 
L 620.945455 -150.121562 
L 619.254545 -153.558636 
L 617.563636 -109.439107 
L 615.872727 -93.066138 
L 614.181818 -66.131978 
L 612.490909 -70.881389 
L 610.8 -149.434148 
L 609.109091 -99.940285 
L 607.418182 -59.007861 
L 605.727273 -73.631048 
L 604.036364 -175.805877 
L 602.345455 -98.877917 
L 600.654545 -89.816541 
L 598.963636 -85.06713 
L 597.272727 -151.371407 
L 595.581818 -177.55566 
L 593.890909 -146.871965 
L 592.2 -163.744873 
L 590.509091 -96.378227 
L 588.818182 -112.938673 
L 587.127273 -107.56434 
L 585.436364 -193.303707 
L 583.745455 -213.613689 
L 582.054545 -212.988766 
L 580.363636 -208.36434 
L 578.672727 -169.806621 
L 576.981818 -83.254854 
L 575.290909 -72.881141 
L 573.6 -93.253614 
L 571.909091 -95.503335 
L 570.218182 -75.443323 
L 568.527273 -101.19013 
L 566.836364 -128.249275 
L 565.145455 -75.880769 
L 563.454545 -118.437991 
L 561.763636 -78.755412 
L 560.072727 -187.116975 
L 558.381818 -97.815549 
L 556.690909 -129.49912 
L 555 -62.757396 
L 553.309091 -88.316727 
L 551.618182 -157.495648 
L 549.927273 -129.124166 
L 548.236364 -104.439727 
L 546.545455 -96.128258 
L 544.854545 -82.005009 
L 543.163636 -114.750949 
L 541.472727 -189.804141 
L 539.781818 -113.376119 
L 538.090909 -127.374383 
L 536.4 -136.18579 
L 534.709091 -209.364216 
L 533.018182 -222.675065 
L 531.327273 -200.05287 
L 529.636364 -119.812821 
L 527.945455 -64.632164 
L 526.254545 -59.695276 
L 524.563636 -56.570663 
L 522.872727 -87.691804 
L 521.181818 -63.444811 
L 519.490909 -64.007241 
L 517.8 -80.005257 
L 516.109091 -102.065022 
L 514.418182 -93.003645 
L 512.727273 -53.945989 
L 511.036364 -153.433652 
L 509.345455 -91.066386 
L 507.654545 -86.879405 
L 505.963636 -123.999802 
L 504.272727 -221.550205 
L 502.581818 -145.559628 
L 500.890909 -230.424104 
L 499.2 -47.571779 
L 497.509091 -47.259318 
L 495.818182 -97.940533 
L 494.127273 -81.505071 
L 492.436364 -95.440843 
L 490.745455 -138.622988 
L 489.054545 -95.378351 
L 487.363636 -91.316355 
L 485.672727 -87.379343 
L 483.981818 -131.99881 
L 482.290909 -234.923546 
L 480.6 -228.174383 
L 478.909091 -199.990378 
L 477.218182 -171.306435 
L 475.527273 -171.868865 
L 473.836364 -71.006373 
L 472.145455 -116.938177 
L 470.454545 -125.6246 
L 468.763636 -56.633156 
L 467.072727 -99.627824 
L 465.381818 -77.818029 
L 463.690909 -76.255722 
L 462 -115.938301 
L 460.309091 -108.501723 
L 458.618182 -79.192858 
L 456.927273 -68.631668 
L 455.236364 -92.753676 
L 453.545455 -198.678041 
L 451.854545 -98.065518 
L 450.163636 -102.439975 
L 448.472727 -167.244439 
L 446.781818 -118.437991 
L 445.090909 -49.509039 
L 443.4 -47.196826 
L 441.709091 -115.938301 
L 440.018182 -156.245803 
L 438.327273 -174.930986 
L 436.636364 -155.120942 
L 434.945455 -149.871593 
L 433.254545 -153.683621 
L 431.563636 -142.310031 
L 429.872727 -159.995338 
L 428.181818 -145.05969 
L 426.490909 -141.622616 
L 424.8 -86.629436 
L 423.109091 -115.938301 
L 421.418182 -157.183187 
L 419.727273 -176.4308 
L 418.036364 -88.316727 
L 416.345455 -78.005505 
L 414.654545 -72.631172 
L 412.963636 -59.195338 
L 411.272727 -64.507179 
L 409.581818 -80.505195 
L 407.890909 -129.561612 
L 406.2 -117.875561 
L 404.509091 -61.320074 
L 402.818182 -100.877669 
L 401.127273 -95.128382 
L 399.436364 -115.313379 
L 397.745455 -130.686472 
L 396.054545 -101.940037 
L 394.363636 -136.123298 
L 392.672727 -120.875189 
L 390.981818 -70.506435 
L 389.290909 -57.633032 
L 387.6 -58.257954 
L 385.909091 -112.063782 
L 384.218182 -105.502095 
L 382.527273 -109.814061 
L 380.836364 -167.619392 
L 379.145455 -130.498996 
L 377.454545 -112.501228 
L 375.763636 -85.254606 
L 374.072727 -162.057582 
L 372.381818 -144.372275 
L 370.690909 -164.182319 
L 369 -211.801414 
L 367.309091 -85.254606 
L 365.618182 -96.315735 
L 363.927273 -158.620508 
L 362.236364 -108.564216 
L 360.545455 -97.065642 
L 358.854545 -127.311891 
L 357.163636 -156.120818 
L 355.472727 -123.937309 
L 353.781818 -86.691928 
L 352.090909 -112.126274 
L 350.4 -147.496888 
L 348.709091 -100.502715 
L 347.018182 -92.691184 
L 345.327273 -93.003645 
L 343.636364 -125.812077 
L 341.945455 -83.879777 
L 340.254545 -84.004761 
L 338.563636 -122.437495 
L 336.872727 -136.748221 
L 335.181818 -76.630676 
L 333.490909 -71.443819 
L 331.8 -70.068989 
L 330.109091 -145.122182 
L 328.418182 -114.375995 
L 326.727273 -141.310155 
L 325.036364 -108.626708 
L 323.345455 -141.99757 
L 321.654545 -139.560372 
L 319.963636 -159.120446 
L 318.272727 -115.62584 
L 316.581818 -84.442207 
L 314.890909 -86.816913 
L 313.2 -173.056218 
L 311.509091 -104.627204 
L 309.818182 -98.815425 
L 308.127273 -99.627824 
L 306.436364 -93.378599 
L 304.745455 -115.438363 
L 303.054545 -89.316603 
L 301.363636 -111.688828 
L 299.672727 -83.817285 
L 297.981818 -78.942889 
L 296.290909 -67.506807 
L 294.6 -143.997322 
L 292.909091 -74.630924 
L 291.218182 -157.433156 
L 289.527273 -60.382691 
L 287.836364 -63.944749 
L 286.145455 -73.568555 
L 284.454545 -85.06713 
L 282.763636 -91.19137 
L 281.072727 -54.883373 
L 279.381818 -55.133342 
L 277.690909 -54.133466 
L 276 -139.060434 
L 274.309091 -158.495524 
L 272.618182 -56.695648 
L 270.927273 -88.754172 
L 269.236364 -73.256094 
L 267.545455 -68.256714 
L 265.854545 -47.884241 
L 264.163636 -90.06651 
L 262.472727 -86.629436 
L 260.781818 -96.503211 
L 259.090909 -122.375003 
L 257.4 -178.680521 
L 255.709091 -200.365332 
L 254.018182 -196.678289 
L 252.327273 -190.991494 
L 250.636364 -133.186162 
L 248.945455 -182.055102 
L 247.254545 -92.691184 
L 245.563636 -78.567936 
L 243.872727 -60.195214 
L 242.181818 -132.623732 
L 240.490909 -48.884117 
L 238.8 -151.871345 
L 237.109091 -98.12801 
L 235.418182 -110.876429 
L 233.727273 -126.249523 
L 232.036364 -92.441215 
L 230.345455 -126.561984 
L 228.654545 -76.443199 
L 226.963636 -65.132102 
L 225.272727 -93.503583 
L 223.581818 -73.068617 
L 221.890909 -59.632784 
L 220.2 -64.757148 
L 218.509091 -52.196206 
L 216.818182 -146.184551 
L 215.127273 -143.497384 
L 213.436364 -119.687836 
L 211.745455 -112.876181 
L 210.054545 -164.557272 
L 208.363636 -101.502591 
L 206.672727 -114.188518 
L 204.981818 -137.373143 
L 203.290909 -175.993354 
L 201.6 -83.254854 
L 199.909091 -90.62894 
L 198.218182 -87.191866 
L 196.527273 -111.501352 
L 194.836364 -65.694532 
L 193.145455 -73.818524 
L 191.454545 -80.880149 
L 189.763636 -74.193478 
L 188.072727 -120.437743 
L 186.381818 -86.067006 
L 184.690909 -89.816541 
L 183 -96.315735 
L 181.309091 -186.179591 
L 179.618182 -159.120446 
L 177.927273 -158.683001 
L 176.236364 -164.49478 
L 174.545455 -220.675313 
L 172.854545 -153.496144 
L 171.163636 -156.058326 
L 169.472727 -157.683125 
L 167.781818 -211.738921 
L 166.090909 -157.55814 
L 164.4 -154.371035 
L 162.709091 -148.621748 
L 161.018182 -192.053862 
L 159.327273 -53.69602 
L 157.636364 -87.691804 
L 155.945455 -124.49974 
L 154.254545 -65.382071 
L 152.563636 -93.441091 
L 150.872727 -79.630304 
L 149.181818 -109.189138 
L 147.490909 -143.872337 
L 145.8 -145.62212 
L 144.109091 -145.809597 
L 142.418182 -231.486472 
L 140.727273 -150.121562 
L 139.036364 -164.557272 
L 137.345455 -180.805257 
L 135.654545 -243.36 
L 133.963636 -185.117223 
L 132.272727 -185.117223 
L 130.581818 -195.05349 
L 128.890909 -208.676801 
L 127.2 -146.059566 
L 125.509091 -106.564464 
L 123.818182 -71.006373 
L 122.127273 -78.817905 
L 120.436364 -48.384179 
L 118.745455 -49.571531 
L 117.054545 -51.821252 
L 115.363636 -61.445059 
z
" style="stroke: #008000; stroke-width: 0.5"/>
    </defs>
    <g clip-path="url(#p590089e257)">
     <use xlink:href="#m587cce1e67" x="0" y="288" style="fill: #008000; stroke: #008000; stroke-width: 0.5"/>
    </g>
   </g>
   <g id="line2d_26">
    <path d="M 90 44.64 
L 648 44.64 
" clip-path="url(#p590089e257)" style="fill: none; stroke: #000000; stroke-width: 1.5; stroke-linecap: square"/>
   </g>
   <g id="line2d_27">
    <path d="M 90 171.561761 
L 648 171.561761 
" clip-path="url(#p590089e257)" style="fill: none; stroke: #000000; stroke-width: 1.5; stroke-linecap: square"/>
   </g>
   <g id="patch_3">
    <path d="M 90 256.32 
L 90 34.56 
" style="fill: none; stroke: #000000; stroke-width: 0.8; stroke-linejoin: miter; stroke-linecap: square"/>
   </g>
   <g id="patch_4">
    <path d="M 648 256.32 
L 648 34.56 
" style="fill: none; stroke: #000000; stroke-width: 0.8; stroke-linejoin: miter; stroke-linecap: square"/>
   </g>
   <g id="patch_5">
    <path d="M 90 256.32 
L 648 256.32 
" style="fill: none; stroke: #000000; stroke-width: 0.8; stroke-linejoin: miter; stroke-linecap: square"/>
   </g>
   <g id="patch_6">
    <path d="M 90 34.56 
L 648 34.56 
" style="fill: none; stroke: #000000; stroke-width: 0.8; stroke-linejoin: miter; stroke-linecap: square"/>
   </g>
   <g id="text_21">
    <!-- peak (3,226) -->
    <g transform="translate(122.179233 41.3136) scale(0.1 -0.1)">
     <defs>
      <path id="DejaVuSans-Bold-70" d="M 1656 506 
L 1656 -1331 
L 538 -1331 
L 538 3500 
L 1656 3500 
L 1656 2988 
Q 1888 3294 2169 3439 
Q 2450 3584 2816 3584 
Q 3463 3584 3878 3070 
Q 4294 2556 4294 1747 
Q 4294 938 3878 423 
Q 3463 -91 2816 -91 
Q 2450 -91 2169 54 
Q 1888 200 1656 506 
z
M 2400 2772 
Q 2041 2772 1848 2508 
Q 1656 2244 1656 1747 
Q 1656 1250 1848 986 
Q 2041 722 2400 722 
Q 2759 722 2948 984 
Q 3138 1247 3138 1747 
Q 3138 2247 2948 2509 
Q 2759 2772 2400 2772 
z
" transform="scale(0.015625)"/>
      <path id="DejaVuSans-Bold-65" d="M 4031 1759 
L 4031 1441 
L 1416 1441 
Q 1456 1047 1700 850 
Q 1944 653 2381 653 
Q 2734 653 3104 758 
Q 3475 863 3866 1075 
L 3866 213 
Q 3469 63 3072 -14 
Q 2675 -91 2278 -91 
Q 1328 -91 801 392 
Q 275 875 275 1747 
Q 275 2603 792 3093 
Q 1309 3584 2216 3584 
Q 3041 3584 3536 3087 
Q 4031 2591 4031 1759 
z
M 2881 2131 
Q 2881 2450 2695 2645 
Q 2509 2841 2209 2841 
Q 1884 2841 1681 2658 
Q 1478 2475 1428 2131 
L 2881 2131 
z
" transform="scale(0.015625)"/>
      <path id="DejaVuSans-Bold-61" d="M 2106 1575 
Q 1756 1575 1579 1456 
Q 1403 1338 1403 1106 
Q 1403 894 1545 773 
Q 1688 653 1941 653 
Q 2256 653 2472 879 
Q 2688 1106 2688 1447 
L 2688 1575 
L 2106 1575 
z
M 3816 1997 
L 3816 0 
L 2688 0 
L 2688 519 
Q 2463 200 2181 54 
Q 1900 -91 1497 -91 
Q 953 -91 614 226 
Q 275 544 275 1050 
Q 275 1666 698 1953 
Q 1122 2241 2028 2241 
L 2688 2241 
L 2688 2328 
Q 2688 2594 2478 2717 
Q 2269 2841 1825 2841 
Q 1466 2841 1156 2769 
Q 847 2697 581 2553 
L 581 3406 
Q 941 3494 1303 3539 
Q 1666 3584 2028 3584 
Q 2975 3584 3395 3211 
Q 3816 2838 3816 1997 
z
" transform="scale(0.015625)"/>
      <path id="DejaVuSans-Bold-6b" d="M 538 4863 
L 1656 4863 
L 1656 2216 
L 2944 3500 
L 4244 3500 
L 2534 1894 
L 4378 0 
L 3022 0 
L 1656 1459 
L 1656 0 
L 538 0 
L 538 4863 
z
" transform="scale(0.015625)"/>
      <path id="DejaVuSans-Bold-20" transform="scale(0.015625)"/>
      <path id="DejaVuSans-Bold-28" d="M 2413 -844 
L 1484 -844 
Q 1006 -72 778 623 
Q 550 1319 550 2003 
Q 550 2688 779 3389 
Q 1009 4091 1484 4856 
L 2413 4856 
Q 2013 4116 1813 3408 
Q 1613 2700 1613 2009 
Q 1613 1319 1811 609 
Q 2009 -100 2413 -844 
z
" transform="scale(0.015625)"/>
      <path id="DejaVuSans-Bold-33" d="M 2981 2516 
Q 3453 2394 3698 2092 
Q 3944 1791 3944 1325 
Q 3944 631 3412 270 
Q 2881 -91 1863 -91 
Q 1503 -91 1142 -33 
Q 781 25 428 141 
L 428 1069 
Q 766 900 1098 814 
Q 1431 728 1753 728 
Q 2231 728 2486 893 
Q 2741 1059 2741 1369 
Q 2741 1688 2480 1852 
Q 2219 2016 1709 2016 
L 1228 2016 
L 1228 2791 
L 1734 2791 
Q 2188 2791 2409 2933 
Q 2631 3075 2631 3366 
Q 2631 3634 2415 3781 
Q 2200 3928 1806 3928 
Q 1516 3928 1219 3862 
Q 922 3797 628 3669 
L 628 4550 
Q 984 4650 1334 4700 
Q 1684 4750 2022 4750 
Q 2931 4750 3382 4451 
Q 3834 4153 3834 3553 
Q 3834 3144 3618 2883 
Q 3403 2622 2981 2516 
z
" transform="scale(0.015625)"/>
      <path id="DejaVuSans-Bold-2c" d="M 653 1209 
L 1778 1209 
L 1778 256 
L 1006 -909 
L 341 -909 
L 653 256 
L 653 1209 
z
" transform="scale(0.015625)"/>
      <path id="DejaVuSans-Bold-32" d="M 1844 884 
L 3897 884 
L 3897 0 
L 506 0 
L 506 884 
L 2209 2388 
Q 2438 2594 2547 2791 
Q 2656 2988 2656 3200 
Q 2656 3528 2436 3728 
Q 2216 3928 1850 3928 
Q 1569 3928 1234 3808 
Q 900 3688 519 3450 
L 519 4475 
Q 925 4609 1322 4679 
Q 1719 4750 2100 4750 
Q 2938 4750 3402 4381 
Q 3866 4013 3866 3353 
Q 3866 2972 3669 2642 
Q 3472 2313 2841 1759 
L 1844 884 
z
" transform="scale(0.015625)"/>
      <path id="DejaVuSans-Bold-36" d="M 2316 2303 
Q 2000 2303 1842 2098 
Q 1684 1894 1684 1484 
Q 1684 1075 1842 870 
Q 2000 666 2316 666 
Q 2634 666 2792 870 
Q 2950 1075 2950 1484 
Q 2950 1894 2792 2098 
Q 2634 2303 2316 2303 
z
M 3803 4544 
L 3803 3681 
Q 3506 3822 3243 3889 
Q 2981 3956 2731 3956 
Q 2194 3956 1894 3657 
Q 1594 3359 1544 2772 
Q 1750 2925 1990 3001 
Q 2231 3078 2516 3078 
Q 3231 3078 3670 2659 
Q 4109 2241 4109 1563 
Q 4109 813 3618 361 
Q 3128 -91 2303 -91 
Q 1394 -91 895 523 
Q 397 1138 397 2266 
Q 397 3422 980 4083 
Q 1563 4744 2578 4744 
Q 2900 4744 3203 4694 
Q 3506 4644 3803 4544 
z
" transform="scale(0.015625)"/>
      <path id="DejaVuSans-Bold-29" d="M 513 -844 
Q 913 -100 1113 609 
Q 1313 1319 1313 2009 
Q 1313 2700 1113 3408 
Q 913 4116 513 4856 
L 1441 4856 
Q 1916 4091 2145 3389 
Q 2375 2688 2375 2003 
Q 2375 1319 2147 623 
Q 1919 -72 1441 -844 
L 513 -844 
z
" transform="scale(0.015625)"/>
     </defs>
     <use xlink:href="#DejaVuSans-Bold-70"/>
     <use xlink:href="#DejaVuSans-Bold-65" x="71.582031"/>
     <use xlink:href="#DejaVuSans-Bold-61" x="139.404297"/>
     <use xlink:href="#DejaVuSans-Bold-6b" x="206.884766"/>
     <use xlink:href="#DejaVuSans-Bold-20" x="273.388672"/>
     <use xlink:href="#DejaVuSans-Bold-28" x="308.203125"/>
     <use xlink:href="#DejaVuSans-Bold-33" x="353.90625"/>
     <use xlink:href="#DejaVuSans-Bold-2c" x="423.486328"/>
     <use xlink:href="#DejaVuSans-Bold-32" x="461.474609"/>
     <use xlink:href="#DejaVuSans-Bold-32" x="531.054688"/>
     <use xlink:href="#DejaVuSans-Bold-36" x="600.634766"/>
     <use xlink:href="#DejaVuSans-Bold-29" x="670.214844"/>
    </g>
   </g>
   <g id="text_22">
    <!-- mean (1,195) -->
    <g transform="translate(567.728153 168.235361) scale(0.1 -0.1)">
     <defs>
      <path id="DejaVuSans-Bold-6d" d="M 3781 2919 
Q 3994 3244 4286 3414 
Q 4578 3584 4928 3584 
Q 5531 3584 5847 3212 
Q 6163 2841 6163 2131 
L 6163 0 
L 5038 0 
L 5038 1825 
Q 5041 1866 5042 1909 
Q 5044 1953 5044 2034 
Q 5044 2406 4934 2573 
Q 4825 2741 4581 2741 
Q 4263 2741 4089 2478 
Q 3916 2216 3909 1719 
L 3909 0 
L 2784 0 
L 2784 1825 
Q 2784 2406 2684 2573 
Q 2584 2741 2328 2741 
Q 2006 2741 1831 2477 
Q 1656 2213 1656 1722 
L 1656 0 
L 531 0 
L 531 3500 
L 1656 3500 
L 1656 2988 
Q 1863 3284 2130 3434 
Q 2397 3584 2719 3584 
Q 3081 3584 3359 3409 
Q 3638 3234 3781 2919 
z
" transform="scale(0.015625)"/>
      <path id="DejaVuSans-Bold-6e" d="M 4056 2131 
L 4056 0 
L 2931 0 
L 2931 347 
L 2931 1631 
Q 2931 2084 2911 2256 
Q 2891 2428 2841 2509 
Q 2775 2619 2662 2680 
Q 2550 2741 2406 2741 
Q 2056 2741 1856 2470 
Q 1656 2200 1656 1722 
L 1656 0 
L 538 0 
L 538 3500 
L 1656 3500 
L 1656 2988 
Q 1909 3294 2193 3439 
Q 2478 3584 2822 3584 
Q 3428 3584 3742 3212 
Q 4056 2841 4056 2131 
z
" transform="scale(0.015625)"/>
      <path id="DejaVuSans-Bold-31" d="M 750 831 
L 1813 831 
L 1813 3847 
L 722 3622 
L 722 4441 
L 1806 4666 
L 2950 4666 
L 2950 831 
L 4013 831 
L 4013 0 
L 750 0 
L 750 831 
z
" transform="scale(0.015625)"/>
      <path id="DejaVuSans-Bold-39" d="M 641 103 
L 641 966 
Q 928 831 1190 764 
Q 1453 697 1709 697 
Q 2247 697 2547 995 
Q 2847 1294 2900 1881 
Q 2688 1725 2447 1647 
Q 2206 1569 1925 1569 
Q 1209 1569 770 1986 
Q 331 2403 331 3084 
Q 331 3838 820 4291 
Q 1309 4744 2131 4744 
Q 3044 4744 3544 4128 
Q 4044 3513 4044 2388 
Q 4044 1231 3459 570 
Q 2875 -91 1856 -91 
Q 1528 -91 1228 -42 
Q 928 6 641 103 
z
M 2125 2350 
Q 2441 2350 2600 2554 
Q 2759 2759 2759 3169 
Q 2759 3575 2600 3781 
Q 2441 3988 2125 3988 
Q 1809 3988 1650 3781 
Q 1491 3575 1491 3169 
Q 1491 2759 1650 2554 
Q 1809 2350 2125 2350 
z
" transform="scale(0.015625)"/>
      <path id="DejaVuSans-Bold-35" d="M 678 4666 
L 3669 4666 
L 3669 3781 
L 1638 3781 
L 1638 3059 
Q 1775 3097 1914 3117 
Q 2053 3138 2203 3138 
Q 3056 3138 3531 2711 
Q 4006 2284 4006 1522 
Q 4006 766 3489 337 
Q 2972 -91 2053 -91 
Q 1656 -91 1267 -14 
Q 878 63 494 219 
L 494 1166 
Q 875 947 1217 837 
Q 1559 728 1863 728 
Q 2300 728 2551 942 
Q 2803 1156 2803 1522 
Q 2803 1891 2551 2103 
Q 2300 2316 1863 2316 
Q 1603 2316 1309 2248 
Q 1016 2181 678 2041 
L 678 4666 
z
" transform="scale(0.015625)"/>
     </defs>
     <use xlink:href="#DejaVuSans-Bold-6d"/>
     <use xlink:href="#DejaVuSans-Bold-65" x="104.199219"/>
     <use xlink:href="#DejaVuSans-Bold-61" x="172.021484"/>
     <use xlink:href="#DejaVuSans-Bold-6e" x="239.501953"/>
     <use xlink:href="#DejaVuSans-Bold-20" x="310.693359"/>
     <use xlink:href="#DejaVuSans-Bold-28" x="345.507812"/>
     <use xlink:href="#DejaVuSans-Bold-31" x="391.210938"/>
     <use xlink:href="#DejaVuSans-Bold-2c" x="460.791016"/>
     <use xlink:href="#DejaVuSans-Bold-31" x="498.779297"/>
     <use xlink:href="#DejaVuSans-Bold-39" x="568.359375"/>
     <use xlink:href="#DejaVuSans-Bold-35" x="637.939453"/>
     <use xlink:href="#DejaVuSans-Bold-29" x="707.519531"/>
    </g>
   </g>
   <g id="text_23">
    <!-- Stream Bitrate over Time -->
    <g transform="translate(293.189062 28.56) scale(0.12 -0.12)">
     <defs>
      <path id="DejaVuSans-53" d="M 3425 4513 
L 3425 3897 
Q 3066 4069 2747 4153 
Q 2428 4238 2131 4238 
Q 1616 4238 1336 4038 
Q 1056 3838 1056 3469 
Q 1056 3159 1242 3001 
Q 1428 2844 1947 2747 
L 2328 2669 
Q 3034 2534 3370 2195 
Q 3706 1856 3706 1288 
Q 3706 609 3251 259 
Q 2797 -91 1919 -91 
Q 1588 -91 1214 -16 
Q 841 59 441 206 
L 441 856 
Q 825 641 1194 531 
Q 1563 422 1919 422 
Q 2459 422 2753 634 
Q 3047 847 3047 1241 
Q 3047 1584 2836 1778 
Q 2625 1972 2144 2069 
L 1759 2144 
Q 1053 2284 737 2584 
Q 422 2884 422 3419 
Q 422 4038 858 4394 
Q 1294 4750 2059 4750 
Q 2388 4750 2728 4690 
Q 3069 4631 3425 4513 
z
" transform="scale(0.015625)"/>
      <path id="DejaVuSans-6f" d="M 1959 3097 
Q 1497 3097 1228 2736 
Q 959 2375 959 1747 
Q 959 1119 1226 758 
Q 1494 397 1959 397 
Q 2419 397 2687 759 
Q 2956 1122 2956 1747 
Q 2956 2369 2687 2733 
Q 2419 3097 1959 3097 
z
M 1959 3584 
Q 2709 3584 3137 3096 
Q 3566 2609 3566 1747 
Q 3566 888 3137 398 
Q 2709 -91 1959 -91 
Q 1206 -91 779 398 
Q 353 888 353 1747 
Q 353 2609 779 3096 
Q 1206 3584 1959 3584 
z
" transform="scale(0.015625)"/>
      <path id="DejaVuSans-76" d="M 191 3500 
L 800 3500 
L 1894 563 
L 2988 3500 
L 3597 3500 
L 2284 0 
L 1503 0 
L 191 3500 
z
" transform="scale(0.015625)"/>
     </defs>
     <use xlink:href="#DejaVuSans-53"/>
     <use xlink:href="#DejaVuSans-74" x="63.476562"/>
     <use xlink:href="#DejaVuSans-72" x="102.685547"/>
     <use xlink:href="#DejaVuSans-65" x="141.548828"/>
     <use xlink:href="#DejaVuSans-61" x="203.072266"/>
     <use xlink:href="#DejaVuSans-6d" x="264.351562"/>
     <use xlink:href="#DejaVuSans-20" x="361.763672"/>
     <use xlink:href="#DejaVuSans-42" x="393.550781"/>
     <use xlink:href="#DejaVuSans-69" x="462.154297"/>
     <use xlink:href="#DejaVuSans-74" x="489.9375"/>
     <use xlink:href="#DejaVuSans-72" x="529.146484"/>
     <use xlink:href="#DejaVuSans-61" x="570.259766"/>
     <use xlink:href="#DejaVuSans-74" x="631.539062"/>
     <use xlink:href="#DejaVuSans-65" x="670.748047"/>
     <use xlink:href="#DejaVuSans-20" x="732.271484"/>
     <use xlink:href="#DejaVuSans-6f" x="764.058594"/>
     <use xlink:href="#DejaVuSans-76" x="825.240234"/>
     <use xlink:href="#DejaVuSans-65" x="884.419922"/>
     <use xlink:href="#DejaVuSans-72" x="945.943359"/>
     <use xlink:href="#DejaVuSans-20" x="987.056641"/>
     <use xlink:href="#DejaVuSans-54" x="1018.84375"/>
     <use xlink:href="#DejaVuSans-69" x="1076.802734"/>
     <use xlink:href="#DejaVuSans-6d" x="1104.585938"/>
     <use xlink:href="#DejaVuSans-65" x="1201.998047"/>
    </g>
   </g>
   <g id="legend_1">
    <g id="patch_7">
     <path d="M 602.139063 86.594375 
L 641 86.594375 
Q 643 86.594375 643 84.594375 
L 643 41.56 
Q 643 39.56 641 39.56 
L 602.139063 39.56 
Q 600.139063 39.56 600.139063 41.56 
L 600.139063 84.594375 
Q 600.139063 86.594375 602.139063 86.594375 
z
" style="fill: #ffffff; opacity: 0.8; stroke: #cccccc; stroke-linejoin: miter"/>
    </g>
    <g id="patch_8">
     <path d="M 604.139063 51.158438 
L 624.139063 51.158438 
L 624.139063 44.158438 
L 604.139063 44.158438 
z
" style="fill: #ff0000; stroke: #ff0000; stroke-width: 0.5; stroke-linejoin: miter"/>
    </g>
    <g id="text_24">
     <!-- I -->
     <g transform="translate(632.139063 51.158438) scale(0.1 -0.1)">
      <defs>
       <path id="DejaVuSans-49" d="M 628 4666 
L 1259 4666 
L 1259 0 
L 628 0 
L 628 4666 
z
" transform="scale(0.015625)"/>
      </defs>
      <use xlink:href="#DejaVuSans-49"/>
     </g>
    </g>
    <g id="patch_9">
     <path d="M 604.139063 65.836563 
L 624.139063 65.836563 
L 624.139063 58.836563 
L 604.139063 58.836563 
z
" style="fill: #0000ff; stroke: #0000ff; stroke-width: 0.5; stroke-linejoin: miter"/>
    </g>
    <g id="text_25">
     <!-- B -->
     <g transform="translate(632.139063 65.836563) scale(0.1 -0.1)">
      <use xlink:href="#DejaVuSans-42"/>
     </g>
    </g>
    <g id="patch_10">
     <path d="M 604.139063 80.514688 
L 624.139063 80.514688 
L 624.139063 73.514688 
L 604.139063 73.514688 
z
" style="fill: #008000; stroke: #008000; stroke-width: 0.5; stroke-linejoin: miter"/>
    </g>
    <g id="text_26">
     <!-- P -->
     <g transform="translate(632.139063 80.514688) scale(0.1 -0.1)">
      <defs>
       <path id="DejaVuSans-50" d="M 1259 4147 
L 1259 2394 
L 2053 2394 
Q 2494 2394 2734 2622 
Q 2975 2850 2975 3272 
Q 2975 3691 2734 3919 
Q 2494 4147 2053 4147 
L 1259 4147 
z
M 628 4666 
L 2053 4666 
Q 2838 4666 3239 4311 
Q 3641 3956 3641 3272 
Q 3641 2581 3239 2228 
Q 2838 1875 2053 1875 
L 1259 1875 
L 1259 0 
L 628 0 
L 628 4666 
z
" transform="scale(0.015625)"/>
      </defs>
      <use xlink:href="#DejaVuSans-50"/>
     </g>
    </g>
   </g>
  </g>
 </g>
 <defs>
  <clipPath id="p590089e257">
   <rect x="90" y="34.56" width="558" height="221.76"/>
  </clipPath>
 </defs>
</svg>
