<?xml version="1.0" encoding="utf-8" standalone="no"?>
<!DOCTYPE svg PUBLIC "-//W3C//DTD SVG 1.1//EN"
  "http://www.w3.org/Graphics/SVG/1.1/DTD/svg11.dtd">
<svg xmlns:xlink="http://www.w3.org/1999/xlink" width="720pt" height="288pt" viewBox="0 0 720 288" xmlns="http://www.w3.org/2000/svg" version="1.1">
 <metadata>
  <rdf:RDF xmlns:dc="http://purl.org/dc/elements/1.1/" xmlns:cc="http://creativecommons.org/ns#" xmlns:rdf="http://www.w3.org/1999/02/22-rdf-syntax-ns#">
   <cc:Work>
    <dc:type rdf:resource="http://purl.org/dc/dcmitype/StillImage"/>
    <dc:date>2023-05-07T14:07:13.177667</dc:date>
    <dc:format>image/svg+xml</dc:format>
    <dc:creator>
     <cc:Agent>
      <dc:title>Matplotlib v3.7.1, https://matplotlib.org/</dc:title>
     </cc:Agent>
    </dc:creator>
   </cc:Work>
  </rdf:RDF>
 </metadata>
 <defs>
  <style type="text/css">*{stroke-linejoin: round; stroke-linecap: butt}</style>
 </defs>
 <g id="figure_1">
  <g id="patch_1">
   <path d="M 0 288 
L 720 288 
L 720 0 
L 0 0 
z
" style="fill: #ffffff"/>
  </g>
  <g id="axes_1">
   <g id="patch_2">
    <path d="M 90 256.32 
L 648 256.32 
L 648 34.56 
L 90 34.56 
z
" style="fill: #ffffff"/>
   </g>
   <g id="matplotlib.axis_1">
    <g id="xtick_1">
     <g id="line2d_1">
      <defs>
       <path id="m44208d190c" d="M 0 0 
L 0 3.5 
" style="stroke: #000000; stroke-width: 0.8"/>
      </defs>
      <g>
       <use xlink:href="#m44208d190c" x="115.363636" y="256.32" style="stroke: #000000; stroke-width: 0.8"/>
      </g>
     </g>
     <g id="text_1">
      <!-- 0:00:00 -->
      <g transform="translate(96.088636 270.918437) scale(0.1 -0.1)">
       <defs>
        <path id="DejaVuSans-30" d="M 2034 4250 
Q 1547 4250 1301 3770 
Q 1056 3291 1056 2328 
Q 1056 1369 1301 889 
Q 1547 409 2034 409 
Q 2525 409 2770 889 
Q 3016 1369 3016 2328 
Q 3016 3291 2770 3770 
Q 2525 4250 2034 4250 
z
M 2034 4750 
Q 2819 4750 3233 4129 
Q 3647 3509 3647 2328 
Q 3647 1150 3233 529 
Q 2819 -91 2034 -91 
Q 1250 -91 836 529 
Q 422 1150 422 2328 
Q 422 3509 836 4129 
Q 1250 4750 2034 4750 
z
" transform="scale(0.015625)"/>
        <path id="DejaVuSans-3a" d="M 750 794 
L 1409 794 
L 1409 0 
L 750 0 
L 750 794 
z
M 750 3309 
L 1409 3309 
L 1409 2516 
L 750 2516 
L 750 3309 
z
" transform="scale(0.015625)"/>
       </defs>
       <use xlink:href="#DejaVuSans-30"/>
       <use xlink:href="#DejaVuSans-3a" x="63.623047"/>
       <use xlink:href="#DejaVuSans-30" x="97.314453"/>
       <use xlink:href="#DejaVuSans-30" x="160.9375"/>
       <use xlink:href="#DejaVuSans-3a" x="224.560547"/>
       <use xlink:href="#DejaVuSans-30" x="258.251953"/>
       <use xlink:href="#DejaVuSans-30" x="321.875"/>
      </g>
     </g>
    </g>
    <g id="xtick_2">
     <g id="line2d_2">
      <g>
       <use xlink:href="#m44208d190c" x="164.814751" y="256.32" style="stroke: #000000; stroke-width: 0.8"/>
      </g>
     </g>
     <g id="text_2">
      <!-- 0:00:31 -->
      <g transform="translate(145.539751 270.918437) scale(0.1 -0.1)">
       <defs>
        <path id="DejaVuSans-33" d="M 2597 2516 
Q 3050 2419 3304 2112 
Q 3559 1806 3559 1356 
Q 3559 666 3084 287 
Q 2609 -91 1734 -91 
Q 1441 -91 1130 -33 
Q 819 25 488 141 
L 488 750 
Q 750 597 1062 519 
Q 1375 441 1716 441 
Q 2309 441 2620 675 
Q 2931 909 2931 1356 
Q 2931 1769 2642 2001 
Q 2353 2234 1838 2234 
L 1294 2234 
L 1294 2753 
L 1863 2753 
Q 2328 2753 2575 2939 
Q 2822 3125 2822 3475 
Q 2822 3834 2567 4026 
Q 2313 4219 1838 4219 
Q 1578 4219 1281 4162 
Q 984 4106 628 3988 
L 628 4550 
Q 988 4650 1302 4700 
Q 1616 4750 1894 4750 
Q 2613 4750 3031 4423 
Q 3450 4097 3450 3541 
Q 3450 3153 3228 2886 
Q 3006 2619 2597 2516 
z
" transform="scale(0.015625)"/>
        <path id="DejaVuSans-31" d="M 794 531 
L 1825 531 
L 1825 4091 
L 703 3866 
L 703 4441 
L 1819 4666 
L 2450 4666 
L 2450 531 
L 3481 531 
L 3481 0 
L 794 0 
L 794 531 
z
" transform="scale(0.015625)"/>
       </defs>
       <use xlink:href="#DejaVuSans-30"/>
       <use xlink:href="#DejaVuSans-3a" x="63.623047"/>
       <use xlink:href="#DejaVuSans-30" x="97.314453"/>
       <use xlink:href="#DejaVuSans-30" x="160.9375"/>
       <use xlink:href="#DejaVuSans-3a" x="224.560547"/>
       <use xlink:href="#DejaVuSans-33" x="258.251953"/>
       <use xlink:href="#DejaVuSans-31" x="321.875"/>
      </g>
     </g>
    </g>
    <g id="xtick_3">
     <g id="line2d_3">
      <g>
       <use xlink:href="#m44208d190c" x="214.265866" y="256.32" style="stroke: #000000; stroke-width: 0.8"/>
      </g>
     </g>
     <g id="text_3">
      <!-- 0:01:02 -->
      <g transform="translate(194.990866 270.918437) scale(0.1 -0.1)">
       <defs>
        <path id="DejaVuSans-32" d="M 1228 531 
L 3431 531 
L 3431 0 
L 469 0 
L 469 531 
Q 828 903 1448 1529 
Q 2069 2156 2228 2338 
Q 2531 2678 2651 2914 
Q 2772 3150 2772 3378 
Q 2772 3750 2511 3984 
Q 2250 4219 1831 4219 
Q 1534 4219 1204 4116 
Q 875 4013 500 3803 
L 500 4441 
Q 881 4594 1212 4672 
Q 1544 4750 1819 4750 
Q 2544 4750 2975 4387 
Q 3406 4025 3406 3419 
Q 3406 3131 3298 2873 
Q 3191 2616 2906 2266 
Q 2828 2175 2409 1742 
Q 1991 1309 1228 531 
z
" transform="scale(0.015625)"/>
       </defs>
       <use xlink:href="#DejaVuSans-30"/>
       <use xlink:href="#DejaVuSans-3a" x="63.623047"/>
       <use xlink:href="#DejaVuSans-30" x="97.314453"/>
       <use xlink:href="#DejaVuSans-31" x="160.9375"/>
       <use xlink:href="#DejaVuSans-3a" x="224.560547"/>
       <use xlink:href="#DejaVuSans-30" x="258.251953"/>
       <use xlink:href="#DejaVuSans-32" x="321.875"/>
      </g>
     </g>
    </g>
    <g id="xtick_4">
     <g id="line2d_4">
      <g>
       <use xlink:href="#m44208d190c" x="263.716981" y="256.32" style="stroke: #000000; stroke-width: 0.8"/>
      </g>
     </g>
     <g id="text_4">
      <!-- 0:01:33 -->
      <g transform="translate(244.441981 270.918437) scale(0.1 -0.1)">
       <use xlink:href="#DejaVuSans-30"/>
       <use xlink:href="#DejaVuSans-3a" x="63.623047"/>
       <use xlink:href="#DejaVuSans-30" x="97.314453"/>
       <use xlink:href="#DejaVuSans-31" x="160.9375"/>
       <use xlink:href="#DejaVuSans-3a" x="224.560547"/>
       <use xlink:href="#DejaVuSans-33" x="258.251953"/>
       <use xlink:href="#DejaVuSans-33" x="321.875"/>
      </g>
     </g>
    </g>
    <g id="xtick_5">
     <g id="line2d_5">
      <g>
       <use xlink:href="#m44208d190c" x="313.168096" y="256.32" style="stroke: #000000; stroke-width: 0.8"/>
      </g>
     </g>
     <g id="text_5">
      <!-- 0:02:04 -->
      <g transform="translate(293.893096 270.918437) scale(0.1 -0.1)">
       <defs>
        <path id="DejaVuSans-34" d="M 2419 4116 
L 825 1625 
L 2419 1625 
L 2419 4116 
z
M 2253 4666 
L 3047 4666 
L 3047 1625 
L 3713 1625 
L 3713 1100 
L 3047 1100 
L 3047 0 
L 2419 0 
L 2419 1100 
L 313 1100 
L 313 1709 
L 2253 4666 
z
" transform="scale(0.015625)"/>
       </defs>
       <use xlink:href="#DejaVuSans-30"/>
       <use xlink:href="#DejaVuSans-3a" x="63.623047"/>
       <use xlink:href="#DejaVuSans-30" x="97.314453"/>
       <use xlink:href="#DejaVuSans-32" x="160.9375"/>
       <use xlink:href="#DejaVuSans-3a" x="224.560547"/>
       <use xlink:href="#DejaVuSans-30" x="258.251953"/>
       <use xlink:href="#DejaVuSans-34" x="321.875"/>
      </g>
     </g>
    </g>
    <g id="xtick_6">
     <g id="line2d_6">
      <g>
       <use xlink:href="#m44208d190c" x="362.619211" y="256.32" style="stroke: #000000; stroke-width: 0.8"/>
      </g>
     </g>
     <g id="text_6">
      <!-- 0:02:35 -->
      <g transform="translate(343.344211 270.918437) scale(0.1 -0.1)">
       <defs>
        <path id="DejaVuSans-35" d="M 691 4666 
L 3169 4666 
L 3169 4134 
L 1269 4134 
L 1269 2991 
Q 1406 3038 1543 3061 
Q 1681 3084 1819 3084 
Q 2600 3084 3056 2656 
Q 3513 2228 3513 1497 
Q 3513 744 3044 326 
Q 2575 -91 1722 -91 
Q 1428 -91 1123 -41 
Q 819 9 494 109 
L 494 744 
Q 775 591 1075 516 
Q 1375 441 1709 441 
Q 2250 441 2565 725 
Q 2881 1009 2881 1497 
Q 2881 1984 2565 2268 
Q 2250 2553 1709 2553 
Q 1456 2553 1204 2497 
Q 953 2441 691 2322 
L 691 4666 
z
" transform="scale(0.015625)"/>
       </defs>
       <use xlink:href="#DejaVuSans-30"/>
       <use xlink:href="#DejaVuSans-3a" x="63.623047"/>
       <use xlink:href="#DejaVuSans-30" x="97.314453"/>
       <use xlink:href="#DejaVuSans-32" x="160.9375"/>
       <use xlink:href="#DejaVuSans-3a" x="224.560547"/>
       <use xlink:href="#DejaVuSans-33" x="258.251953"/>
       <use xlink:href="#DejaVuSans-35" x="321.875"/>
      </g>
     </g>
    </g>
    <g id="xtick_7">
     <g id="line2d_7">
      <g>
       <use xlink:href="#m44208d190c" x="412.070326" y="256.32" style="stroke: #000000; stroke-width: 0.8"/>
      </g>
     </g>
     <g id="text_7">
      <!-- 0:03:06 -->
      <g transform="translate(392.795326 270.918437) scale(0.1 -0.1)">
       <defs>
        <path id="DejaVuSans-36" d="M 2113 2584 
Q 1688 2584 1439 2293 
Q 1191 2003 1191 1497 
Q 1191 994 1439 701 
Q 1688 409 2113 409 
Q 2538 409 2786 701 
Q 3034 994 3034 1497 
Q 3034 2003 2786 2293 
Q 2538 2584 2113 2584 
z
M 3366 4563 
L 3366 3988 
Q 3128 4100 2886 4159 
Q 2644 4219 2406 4219 
Q 1781 4219 1451 3797 
Q 1122 3375 1075 2522 
Q 1259 2794 1537 2939 
Q 1816 3084 2150 3084 
Q 2853 3084 3261 2657 
Q 3669 2231 3669 1497 
Q 3669 778 3244 343 
Q 2819 -91 2113 -91 
Q 1303 -91 875 529 
Q 447 1150 447 2328 
Q 447 3434 972 4092 
Q 1497 4750 2381 4750 
Q 2619 4750 2861 4703 
Q 3103 4656 3366 4563 
z
" transform="scale(0.015625)"/>
       </defs>
       <use xlink:href="#DejaVuSans-30"/>
       <use xlink:href="#DejaVuSans-3a" x="63.623047"/>
       <use xlink:href="#DejaVuSans-30" x="97.314453"/>
       <use xlink:href="#DejaVuSans-33" x="160.9375"/>
       <use xlink:href="#DejaVuSans-3a" x="224.560547"/>
       <use xlink:href="#DejaVuSans-30" x="258.251953"/>
       <use xlink:href="#DejaVuSans-36" x="321.875"/>
      </g>
     </g>
    </g>
    <g id="xtick_8">
     <g id="line2d_8">
      <g>
       <use xlink:href="#m44208d190c" x="461.521441" y="256.32" style="stroke: #000000; stroke-width: 0.8"/>
      </g>
     </g>
     <g id="text_8">
      <!-- 0:03:37 -->
      <g transform="translate(442.246441 270.918437) scale(0.1 -0.1)">
       <defs>
        <path id="DejaVuSans-37" d="M 525 4666 
L 3525 4666 
L 3525 4397 
L 1831 0 
L 1172 0 
L 2766 4134 
L 525 4134 
L 525 4666 
z
" transform="scale(0.015625)"/>
       </defs>
       <use xlink:href="#DejaVuSans-30"/>
       <use xlink:href="#DejaVuSans-3a" x="63.623047"/>
       <use xlink:href="#DejaVuSans-30" x="97.314453"/>
       <use xlink:href="#DejaVuSans-33" x="160.9375"/>
       <use xlink:href="#DejaVuSans-3a" x="224.560547"/>
       <use xlink:href="#DejaVuSans-33" x="258.251953"/>
       <use xlink:href="#DejaVuSans-37" x="321.875"/>
      </g>
     </g>
    </g>
    <g id="xtick_9">
     <g id="line2d_9">
      <g>
       <use xlink:href="#m44208d190c" x="510.972556" y="256.32" style="stroke: #000000; stroke-width: 0.8"/>
      </g>
     </g>
     <g id="text_9">
      <!-- 0:04:08 -->
      <g transform="translate(491.697556 270.918437) scale(0.1 -0.1)">
       <defs>
        <path id="DejaVuSans-38" d="M 2034 2216 
Q 1584 2216 1326 1975 
Q 1069 1734 1069 1313 
Q 1069 891 1326 650 
Q 1584 409 2034 409 
Q 2484 409 2743 651 
Q 3003 894 3003 1313 
Q 3003 1734 2745 1975 
Q 2488 2216 2034 2216 
z
M 1403 2484 
Q 997 2584 770 2862 
Q 544 3141 544 3541 
Q 544 4100 942 4425 
Q 1341 4750 2034 4750 
Q 2731 4750 3128 4425 
Q 3525 4100 3525 3541 
Q 3525 3141 3298 2862 
Q 3072 2584 2669 2484 
Q 3125 2378 3379 2068 
Q 3634 1759 3634 1313 
Q 3634 634 3220 271 
Q 2806 -91 2034 -91 
Q 1263 -91 848 271 
Q 434 634 434 1313 
Q 434 1759 690 2068 
Q 947 2378 1403 2484 
z
M 1172 3481 
Q 1172 3119 1398 2916 
Q 1625 2713 2034 2713 
Q 2441 2713 2670 2916 
Q 2900 3119 2900 3481 
Q 2900 3844 2670 4047 
Q 2441 4250 2034 4250 
Q 1625 4250 1398 4047 
Q 1172 3844 1172 3481 
z
" transform="scale(0.015625)"/>
       </defs>
       <use xlink:href="#DejaVuSans-30"/>
       <use xlink:href="#DejaVuSans-3a" x="63.623047"/>
       <use xlink:href="#DejaVuSans-30" x="97.314453"/>
       <use xlink:href="#DejaVuSans-34" x="160.9375"/>
       <use xlink:href="#DejaVuSans-3a" x="224.560547"/>
       <use xlink:href="#DejaVuSans-30" x="258.251953"/>
       <use xlink:href="#DejaVuSans-38" x="321.875"/>
      </g>
     </g>
    </g>
    <g id="xtick_10">
     <g id="line2d_10">
      <g>
       <use xlink:href="#m44208d190c" x="560.423671" y="256.32" style="stroke: #000000; stroke-width: 0.8"/>
      </g>
     </g>
     <g id="text_10">
      <!-- 0:04:39 -->
      <g transform="translate(541.148671 270.918437) scale(0.1 -0.1)">
       <defs>
        <path id="DejaVuSans-39" d="M 703 97 
L 703 672 
Q 941 559 1184 500 
Q 1428 441 1663 441 
Q 2288 441 2617 861 
Q 2947 1281 2994 2138 
Q 2813 1869 2534 1725 
Q 2256 1581 1919 1581 
Q 1219 1581 811 2004 
Q 403 2428 403 3163 
Q 403 3881 828 4315 
Q 1253 4750 1959 4750 
Q 2769 4750 3195 4129 
Q 3622 3509 3622 2328 
Q 3622 1225 3098 567 
Q 2575 -91 1691 -91 
Q 1453 -91 1209 -44 
Q 966 3 703 97 
z
M 1959 2075 
Q 2384 2075 2632 2365 
Q 2881 2656 2881 3163 
Q 2881 3666 2632 3958 
Q 2384 4250 1959 4250 
Q 1534 4250 1286 3958 
Q 1038 3666 1038 3163 
Q 1038 2656 1286 2365 
Q 1534 2075 1959 2075 
z
" transform="scale(0.015625)"/>
       </defs>
       <use xlink:href="#DejaVuSans-30"/>
       <use xlink:href="#DejaVuSans-3a" x="63.623047"/>
       <use xlink:href="#DejaVuSans-30" x="97.314453"/>
       <use xlink:href="#DejaVuSans-34" x="160.9375"/>
       <use xlink:href="#DejaVuSans-3a" x="224.560547"/>
       <use xlink:href="#DejaVuSans-33" x="258.251953"/>
       <use xlink:href="#DejaVuSans-39" x="321.875"/>
      </g>
     </g>
    </g>
    <g id="xtick_11">
     <g id="line2d_11">
      <g>
       <use xlink:href="#m44208d190c" x="609.874786" y="256.32" style="stroke: #000000; stroke-width: 0.8"/>
      </g>
     </g>
     <g id="text_11">
      <!-- 0:05:10 -->
      <g transform="translate(590.599786 270.918437) scale(0.1 -0.1)">
       <use xlink:href="#DejaVuSans-30"/>
       <use xlink:href="#DejaVuSans-3a" x="63.623047"/>
       <use xlink:href="#DejaVuSans-30" x="97.314453"/>
       <use xlink:href="#DejaVuSans-35" x="160.9375"/>
       <use xlink:href="#DejaVuSans-3a" x="224.560547"/>
       <use xlink:href="#DejaVuSans-31" x="258.251953"/>
       <use xlink:href="#DejaVuSans-30" x="321.875"/>
      </g>
     </g>
    </g>
    <g id="text_12">
     <!-- Time -->
     <g transform="translate(356.766406 284.596563) scale(0.1 -0.1)">
      <defs>
       <path id="DejaVuSans-54" d="M -19 4666 
L 3928 4666 
L 3928 4134 
L 2272 4134 
L 2272 0 
L 1638 0 
L 1638 4134 
L -19 4134 
L -19 4666 
z
" transform="scale(0.015625)"/>
       <path id="DejaVuSans-69" d="M 603 3500 
L 1178 3500 
L 1178 0 
L 603 0 
L 603 3500 
z
M 603 4863 
L 1178 4863 
L 1178 4134 
L 603 4134 
L 603 4863 
z
" transform="scale(0.015625)"/>
       <path id="DejaVuSans-6d" d="M 3328 2828 
Q 3544 3216 3844 3400 
Q 4144 3584 4550 3584 
Q 5097 3584 5394 3201 
Q 5691 2819 5691 2113 
L 5691 0 
L 5113 0 
L 5113 2094 
Q 5113 2597 4934 2840 
Q 4756 3084 4391 3084 
Q 3944 3084 3684 2787 
Q 3425 2491 3425 1978 
L 3425 0 
L 2847 0 
L 2847 2094 
Q 2847 2600 2669 2842 
Q 2491 3084 2119 3084 
Q 1678 3084 1418 2786 
Q 1159 2488 1159 1978 
L 1159 0 
L 581 0 
L 581 3500 
L 1159 3500 
L 1159 2956 
Q 1356 3278 1631 3431 
Q 1906 3584 2284 3584 
Q 2666 3584 2933 3390 
Q 3200 3197 3328 2828 
z
" transform="scale(0.015625)"/>
       <path id="DejaVuSans-65" d="M 3597 1894 
L 3597 1613 
L 953 1613 
Q 991 1019 1311 708 
Q 1631 397 2203 397 
Q 2534 397 2845 478 
Q 3156 559 3463 722 
L 3463 178 
Q 3153 47 2828 -22 
Q 2503 -91 2169 -91 
Q 1331 -91 842 396 
Q 353 884 353 1716 
Q 353 2575 817 3079 
Q 1281 3584 2069 3584 
Q 2775 3584 3186 3129 
Q 3597 2675 3597 1894 
z
M 3022 2063 
Q 3016 2534 2758 2815 
Q 2500 3097 2075 3097 
Q 1594 3097 1305 2825 
Q 1016 2553 972 2059 
L 3022 2063 
z
" transform="scale(0.015625)"/>
      </defs>
      <use xlink:href="#DejaVuSans-54"/>
      <use xlink:href="#DejaVuSans-69" x="57.958984"/>
      <use xlink:href="#DejaVuSans-6d" x="85.742188"/>
      <use xlink:href="#DejaVuSans-65" x="183.154297"/>
     </g>
    </g>
   </g>
   <g id="matplotlib.axis_2">
    <g id="ytick_1">
     <g id="line2d_12">
      <path d="M 90 246.24 
L 648 246.24 
" clip-path="url(#pebd86a7252)" style="fill: none; stroke: #b0b0b0; stroke-width: 0.8; stroke-linecap: square"/>
     </g>
     <g id="line2d_13">
      <defs>
       <path id="m05465193c3" d="M 0 0 
L -3.5 0 
" style="stroke: #000000; stroke-width: 0.8"/>
      </defs>
      <g>
       <use xlink:href="#m05465193c3" x="90" y="246.24" style="stroke: #000000; stroke-width: 0.8"/>
      </g>
     </g>
     <g id="text_13">
      <!-- 0 -->
      <g transform="translate(76.6375 250.039219) scale(0.1 -0.1)">
       <use xlink:href="#DejaVuSans-30"/>
      </g>
     </g>
    </g>
    <g id="ytick_2">
     <g id="line2d_14">
      <path d="M 90 205.226044 
L 648 205.226044 
" clip-path="url(#pebd86a7252)" style="fill: none; stroke: #b0b0b0; stroke-width: 0.8; stroke-linecap: square"/>
     </g>
     <g id="line2d_15">
      <g>
       <use xlink:href="#m05465193c3" x="90" y="205.226044" style="stroke: #000000; stroke-width: 0.8"/>
      </g>
     </g>
     <g id="text_14">
      <!-- 5,000 -->
      <g transform="translate(54.371875 209.025263) scale(0.1 -0.1)">
       <defs>
        <path id="DejaVuSans-2c" d="M 750 794 
L 1409 794 
L 1409 256 
L 897 -744 
L 494 -744 
L 750 256 
L 750 794 
z
" transform="scale(0.015625)"/>
       </defs>
       <use xlink:href="#DejaVuSans-35"/>
       <use xlink:href="#DejaVuSans-2c" x="63.623047"/>
       <use xlink:href="#DejaVuSans-30" x="95.410156"/>
       <use xlink:href="#DejaVuSans-30" x="159.033203"/>
       <use xlink:href="#DejaVuSans-30" x="222.65625"/>
      </g>
     </g>
    </g>
    <g id="ytick_3">
     <g id="line2d_16">
      <path d="M 90 164.212088 
L 648 164.212088 
" clip-path="url(#pebd86a7252)" style="fill: none; stroke: #b0b0b0; stroke-width: 0.8; stroke-linecap: square"/>
     </g>
     <g id="line2d_17">
      <g>
       <use xlink:href="#m05465193c3" x="90" y="164.212088" style="stroke: #000000; stroke-width: 0.8"/>
      </g>
     </g>
     <g id="text_15">
      <!-- 10,000 -->
      <g transform="translate(48.009375 168.011306) scale(0.1 -0.1)">
       <use xlink:href="#DejaVuSans-31"/>
       <use xlink:href="#DejaVuSans-30" x="63.623047"/>
       <use xlink:href="#DejaVuSans-2c" x="127.246094"/>
       <use xlink:href="#DejaVuSans-30" x="159.033203"/>
       <use xlink:href="#DejaVuSans-30" x="222.65625"/>
       <use xlink:href="#DejaVuSans-30" x="286.279297"/>
      </g>
     </g>
    </g>
    <g id="ytick_4">
     <g id="line2d_18">
      <path d="M 90 123.198132 
L 648 123.198132 
" clip-path="url(#pebd86a7252)" style="fill: none; stroke: #b0b0b0; stroke-width: 0.8; stroke-linecap: square"/>
     </g>
     <g id="line2d_19">
      <g>
       <use xlink:href="#m05465193c3" x="90" y="123.198132" style="stroke: #000000; stroke-width: 0.8"/>
      </g>
     </g>
     <g id="text_16">
      <!-- 15,000 -->
      <g transform="translate(48.009375 126.99735) scale(0.1 -0.1)">
       <use xlink:href="#DejaVuSans-31"/>
       <use xlink:href="#DejaVuSans-35" x="63.623047"/>
       <use xlink:href="#DejaVuSans-2c" x="127.246094"/>
       <use xlink:href="#DejaVuSans-30" x="159.033203"/>
       <use xlink:href="#DejaVuSans-30" x="222.65625"/>
       <use xlink:href="#DejaVuSans-30" x="286.279297"/>
      </g>
     </g>
    </g>
    <g id="ytick_5">
     <g id="line2d_20">
      <path d="M 90 82.184175 
L 648 82.184175 
" clip-path="url(#pebd86a7252)" style="fill: none; stroke: #b0b0b0; stroke-width: 0.8; stroke-linecap: square"/>
     </g>
     <g id="line2d_21">
      <g>
       <use xlink:href="#m05465193c3" x="90" y="82.184175" style="stroke: #000000; stroke-width: 0.8"/>
      </g>
     </g>
     <g id="text_17">
      <!-- 20,000 -->
      <g transform="translate(48.009375 85.983394) scale(0.1 -0.1)">
       <use xlink:href="#DejaVuSans-32"/>
       <use xlink:href="#DejaVuSans-30" x="63.623047"/>
       <use xlink:href="#DejaVuSans-2c" x="127.246094"/>
       <use xlink:href="#DejaVuSans-30" x="159.033203"/>
       <use xlink:href="#DejaVuSans-30" x="222.65625"/>
       <use xlink:href="#DejaVuSans-30" x="286.279297"/>
      </g>
     </g>
    </g>
    <g id="ytick_6">
     <g id="line2d_22">
      <path d="M 90 41.170219 
L 648 41.170219 
" clip-path="url(#pebd86a7252)" style="fill: none; stroke: #b0b0b0; stroke-width: 0.8; stroke-linecap: square"/>
     </g>
     <g id="line2d_23">
      <g>
       <use xlink:href="#m05465193c3" x="90" y="41.170219" style="stroke: #000000; stroke-width: 0.8"/>
      </g>
     </g>
     <g id="text_18">
      <!-- 25,000 -->
      <g transform="translate(48.009375 44.969438) scale(0.1 -0.1)">
       <use xlink:href="#DejaVuSans-32"/>
       <use xlink:href="#DejaVuSans-35" x="63.623047"/>
       <use xlink:href="#DejaVuSans-2c" x="127.246094"/>
       <use xlink:href="#DejaVuSans-30" x="159.033203"/>
       <use xlink:href="#DejaVuSans-30" x="222.65625"/>
       <use xlink:href="#DejaVuSans-30" x="286.279297"/>
      </g>
     </g>
    </g>
    <g id="text_19">
     <!-- Bitrate (kbit/s) -->
     <g transform="translate(41.929688 181.574375) rotate(-90) scale(0.1 -0.1)">
      <defs>
       <path id="DejaVuSans-42" d="M 1259 2228 
L 1259 519 
L 2272 519 
Q 2781 519 3026 730 
Q 3272 941 3272 1375 
Q 3272 1813 3026 2020 
Q 2781 2228 2272 2228 
L 1259 2228 
z
M 1259 4147 
L 1259 2741 
L 2194 2741 
Q 2656 2741 2882 2914 
Q 3109 3088 3109 3444 
Q 3109 3797 2882 3972 
Q 2656 4147 2194 4147 
L 1259 4147 
z
M 628 4666 
L 2241 4666 
Q 2963 4666 3353 4366 
Q 3744 4066 3744 3513 
Q 3744 3084 3544 2831 
Q 3344 2578 2956 2516 
Q 3422 2416 3680 2098 
Q 3938 1781 3938 1306 
Q 3938 681 3513 340 
Q 3088 0 2303 0 
L 628 0 
L 628 4666 
z
" transform="scale(0.015625)"/>
       <path id="DejaVuSans-74" d="M 1172 4494 
L 1172 3500 
L 2356 3500 
L 2356 3053 
L 1172 3053 
L 1172 1153 
Q 1172 725 1289 603 
Q 1406 481 1766 481 
L 2356 481 
L 2356 0 
L 1766 0 
Q 1100 0 847 248 
Q 594 497 594 1153 
L 594 3053 
L 172 3053 
L 172 3500 
L 594 3500 
L 594 4494 
L 1172 4494 
z
" transform="scale(0.015625)"/>
       <path id="DejaVuSans-72" d="M 2631 2963 
Q 2534 3019 2420 3045 
Q 2306 3072 2169 3072 
Q 1681 3072 1420 2755 
Q 1159 2438 1159 1844 
L 1159 0 
L 581 0 
L 581 3500 
L 1159 3500 
L 1159 2956 
Q 1341 3275 1631 3429 
Q 1922 3584 2338 3584 
Q 2397 3584 2469 3576 
Q 2541 3569 2628 3553 
L 2631 2963 
z
" transform="scale(0.015625)"/>
       <path id="DejaVuSans-61" d="M 2194 1759 
Q 1497 1759 1228 1600 
Q 959 1441 959 1056 
Q 959 750 1161 570 
Q 1363 391 1709 391 
Q 2188 391 2477 730 
Q 2766 1069 2766 1631 
L 2766 1759 
L 2194 1759 
z
M 3341 1997 
L 3341 0 
L 2766 0 
L 2766 531 
Q 2569 213 2275 61 
Q 1981 -91 1556 -91 
Q 1019 -91 701 211 
Q 384 513 384 1019 
Q 384 1609 779 1909 
Q 1175 2209 1959 2209 
L 2766 2209 
L 2766 2266 
Q 2766 2663 2505 2880 
Q 2244 3097 1772 3097 
Q 1472 3097 1187 3025 
Q 903 2953 641 2809 
L 641 3341 
Q 956 3463 1253 3523 
Q 1550 3584 1831 3584 
Q 2591 3584 2966 3190 
Q 3341 2797 3341 1997 
z
" transform="scale(0.015625)"/>
       <path id="DejaVuSans-20" transform="scale(0.015625)"/>
       <path id="DejaVuSans-28" d="M 1984 4856 
Q 1566 4138 1362 3434 
Q 1159 2731 1159 2009 
Q 1159 1288 1364 580 
Q 1569 -128 1984 -844 
L 1484 -844 
Q 1016 -109 783 600 
Q 550 1309 550 2009 
Q 550 2706 781 3412 
Q 1013 4119 1484 4856 
L 1984 4856 
z
" transform="scale(0.015625)"/>
       <path id="DejaVuSans-6b" d="M 581 4863 
L 1159 4863 
L 1159 1991 
L 2875 3500 
L 3609 3500 
L 1753 1863 
L 3688 0 
L 2938 0 
L 1159 1709 
L 1159 0 
L 581 0 
L 581 4863 
z
" transform="scale(0.015625)"/>
       <path id="DejaVuSans-62" d="M 3116 1747 
Q 3116 2381 2855 2742 
Q 2594 3103 2138 3103 
Q 1681 3103 1420 2742 
Q 1159 2381 1159 1747 
Q 1159 1113 1420 752 
Q 1681 391 2138 391 
Q 2594 391 2855 752 
Q 3116 1113 3116 1747 
z
M 1159 2969 
Q 1341 3281 1617 3432 
Q 1894 3584 2278 3584 
Q 2916 3584 3314 3078 
Q 3713 2572 3713 1747 
Q 3713 922 3314 415 
Q 2916 -91 2278 -91 
Q 1894 -91 1617 61 
Q 1341 213 1159 525 
L 1159 0 
L 581 0 
L 581 4863 
L 1159 4863 
L 1159 2969 
z
" transform="scale(0.015625)"/>
       <path id="DejaVuSans-2f" d="M 1625 4666 
L 2156 4666 
L 531 -594 
L 0 -594 
L 1625 4666 
z
" transform="scale(0.015625)"/>
       <path id="DejaVuSans-73" d="M 2834 3397 
L 2834 2853 
Q 2591 2978 2328 3040 
Q 2066 3103 1784 3103 
Q 1356 3103 1142 2972 
Q 928 2841 928 2578 
Q 928 2378 1081 2264 
Q 1234 2150 1697 2047 
L 1894 2003 
Q 2506 1872 2764 1633 
Q 3022 1394 3022 966 
Q 3022 478 2636 193 
Q 2250 -91 1575 -91 
Q 1294 -91 989 -36 
Q 684 19 347 128 
L 347 722 
Q 666 556 975 473 
Q 1284 391 1588 391 
Q 1994 391 2212 530 
Q 2431 669 2431 922 
Q 2431 1156 2273 1281 
Q 2116 1406 1581 1522 
L 1381 1569 
Q 847 1681 609 1914 
Q 372 2147 372 2553 
Q 372 3047 722 3315 
Q 1072 3584 1716 3584 
Q 2034 3584 2315 3537 
Q 2597 3491 2834 3397 
z
" transform="scale(0.015625)"/>
       <path id="DejaVuSans-29" d="M 513 4856 
L 1013 4856 
Q 1481 4119 1714 3412 
Q 1947 2706 1947 2009 
Q 1947 1309 1714 600 
Q 1481 -109 1013 -844 
L 513 -844 
Q 928 -128 1133 580 
Q 1338 1288 1338 2009 
Q 1338 2731 1133 3434 
Q 928 4138 513 4856 
z
" transform="scale(0.015625)"/>
      </defs>
      <use xlink:href="#DejaVuSans-42"/>
      <use xlink:href="#DejaVuSans-69" x="68.603516"/>
      <use xlink:href="#DejaVuSans-74" x="96.386719"/>
      <use xlink:href="#DejaVuSans-72" x="135.595703"/>
      <use xlink:href="#DejaVuSans-61" x="176.708984"/>
      <use xlink:href="#DejaVuSans-74" x="237.988281"/>
      <use xlink:href="#DejaVuSans-65" x="277.197266"/>
      <use xlink:href="#DejaVuSans-20" x="338.720703"/>
      <use xlink:href="#DejaVuSans-28" x="370.507812"/>
      <use xlink:href="#DejaVuSans-6b" x="409.521484"/>
      <use xlink:href="#DejaVuSans-62" x="467.431641"/>
      <use xlink:href="#DejaVuSans-69" x="530.908203"/>
      <use xlink:href="#DejaVuSans-74" x="558.691406"/>
      <use xlink:href="#DejaVuSans-2f" x="597.900391"/>
      <use xlink:href="#DejaVuSans-73" x="631.591797"/>
      <use xlink:href="#DejaVuSans-29" x="683.691406"/>
     </g>
    </g>
   </g>
   <g id="PolyCollection_1">
    <defs>
     <path id="mde48aa5d76" d="M 115.363636 -48.8144 
L 115.363636 -41.76 
L 116.958834 -41.76 
L 118.554031 -41.76 
L 120.149228 -41.76 
L 121.744425 -41.76 
L 123.339623 -41.76 
L 124.93482 -41.76 
L 126.530017 -41.76 
L 128.125214 -41.76 
L 129.720412 -41.76 
L 131.315609 -41.76 
L 132.910806 -41.76 
L 134.506003 -41.76 
L 136.101201 -41.76 
L 137.696398 -41.76 
L 139.291595 -41.76 
L 140.886792 -41.76 
L 142.48199 -41.76 
L 144.077187 -41.76 
L 145.672384 -41.76 
L 147.267581 -41.76 
L 148.862779 -41.76 
L 150.457976 -41.76 
L 152.053173 -41.76 
L 153.64837 -41.76 
L 155.243568 -41.76 
L 156.838765 -41.76 
L 158.433962 -41.76 
L 160.02916 -41.76 
L 161.624357 -41.76 
L 163.219554 -41.76 
L 164.814751 -41.76 
L 166.409949 -41.76 
L 168.005146 -41.76 
L 169.600343 -41.76 
L 171.19554 -41.76 
L 172.790738 -41.76 
L 174.385935 -41.76 
L 175.981132 -41.76 
L 177.576329 -41.76 
L 179.171527 -41.76 
L 180.766724 -41.76 
L 182.361921 -41.76 
L 183.957118 -41.76 
L 185.552316 -41.76 
L 187.147513 -41.76 
L 188.74271 -41.76 
L 190.337907 -41.76 
L 191.933105 -41.76 
L 193.528302 -41.76 
L 195.123499 -41.76 
L 196.718696 -41.76 
L 198.313894 -41.76 
L 199.909091 -41.76 
L 201.504288 -41.76 
L 203.099485 -41.76 
L 204.694683 -41.76 
L 206.28988 -41.76 
L 207.885077 -41.76 
L 209.480274 -41.76 
L 211.075472 -41.76 
L 212.670669 -41.76 
L 214.265866 -41.76 
L 215.861063 -41.76 
L 217.456261 -41.76 
L 219.051458 -41.76 
L 220.646655 -41.76 
L 222.241852 -41.76 
L 223.83705 -41.76 
L 225.432247 -41.76 
L 227.027444 -41.76 
L 228.622642 -41.76 
L 230.217839 -41.76 
L 231.813036 -41.76 
L 233.408233 -41.76 
L 235.003431 -41.76 
L 236.598628 -41.76 
L 238.193825 -41.76 
L 239.789022 -41.76 
L 241.38422 -41.76 
L 242.979417 -41.76 
L 244.574614 -41.76 
L 246.169811 -41.76 
L 247.765009 -41.76 
L 249.360206 -41.76 
L 250.955403 -41.76 
L 252.5506 -41.76 
L 254.145798 -41.76 
L 255.740995 -41.76 
L 257.336192 -41.76 
L 258.931389 -41.76 
L 260.526587 -41.76 
L 262.121784 -41.76 
L 263.716981 -41.76 
L 265.312178 -41.76 
L 266.907376 -41.76 
L 268.502573 -41.76 
L 270.09777 -41.76 
L 271.692967 -41.76 
L 273.288165 -41.76 
L 274.883362 -41.76 
L 276.478559 -41.76 
L 278.073756 -41.76 
L 279.668954 -41.76 
L 281.264151 -41.76 
L 282.859348 -41.76 
L 284.454545 -41.76 
L 286.049743 -41.76 
L 287.64494 -41.76 
L 289.240137 -41.76 
L 290.835334 -41.76 
L 292.430532 -41.76 
L 294.025729 -41.76 
L 295.620926 -41.76 
L 297.216123 -41.76 
L 298.811321 -41.76 
L 300.406518 -41.76 
L 302.001715 -41.76 
L 303.596913 -41.76 
L 305.19211 -41.76 
L 306.787307 -41.76 
L 308.382504 -41.76 
L 309.977702 -41.76 
L 311.572899 -41.76 
L 313.168096 -41.76 
L 314.763293 -41.76 
L 316.358491 -41.76 
L 317.953688 -41.76 
L 319.548885 -41.76 
L 321.144082 -41.76 
L 322.73928 -41.76 
L 324.334477 -41.76 
L 325.929674 -41.76 
L 327.524871 -41.76 
L 329.120069 -41.76 
L 330.715266 -41.76 
L 332.310463 -41.76 
L 333.90566 -41.76 
L 335.500858 -41.76 
L 337.096055 -41.76 
L 338.691252 -41.76 
L 340.286449 -41.76 
L 341.881647 -41.76 
L 343.476844 -41.76 
L 345.072041 -41.76 
L 346.667238 -41.76 
L 348.262436 -41.76 
L 349.857633 -41.76 
L 351.45283 -41.76 
L 353.048027 -41.76 
L 354.643225 -41.76 
L 356.238422 -41.76 
L 357.833619 -41.76 
L 359.428816 -41.76 
L 361.024014 -41.76 
L 362.619211 -41.76 
L 364.214408 -41.76 
L 365.809605 -41.76 
L 367.404803 -41.76 
L 369 -41.76 
L 370.595197 -41.76 
L 372.190395 -41.76 
L 373.785592 -41.76 
L 375.380789 -41.76 
L 376.975986 -41.76 
L 378.571184 -41.76 
L 380.166381 -41.76 
L 381.761578 -41.76 
L 383.356775 -41.76 
L 384.951973 -41.76 
L 386.54717 -41.76 
L 388.142367 -41.76 
L 389.737564 -41.76 
L 391.332762 -41.76 
L 392.927959 -41.76 
L 394.523156 -41.76 
L 396.118353 -41.76 
L 397.713551 -41.76 
L 399.308748 -41.76 
L 400.903945 -41.76 
L 402.499142 -41.76 
L 404.09434 -41.76 
L 405.689537 -41.76 
L 407.284734 -41.76 
L 408.879931 -41.76 
L 410.475129 -41.76 
L 412.070326 -41.76 
L 413.665523 -41.76 
L 415.26072 -41.76 
L 416.855918 -41.76 
L 418.451115 -41.76 
L 420.046312 -41.76 
L 421.641509 -41.76 
L 423.236707 -41.76 
L 424.831904 -41.76 
L 426.427101 -41.76 
L 428.022298 -41.76 
L 429.617496 -41.76 
L 431.212693 -41.76 
L 432.80789 -41.76 
L 434.403087 -41.76 
L 435.998285 -41.76 
L 437.593482 -41.76 
L 439.188679 -41.76 
L 440.783877 -41.76 
L 442.379074 -41.76 
L 443.974271 -41.76 
L 445.569468 -41.76 
L 447.164666 -41.76 
L 448.759863 -41.76 
L 450.35506 -41.76 
L 451.950257 -41.76 
L 453.545455 -41.76 
L 455.140652 -41.76 
L 456.735849 -41.76 
L 458.331046 -41.76 
L 459.926244 -41.76 
L 461.521441 -41.76 
L 463.116638 -41.76 
L 464.711835 -41.76 
L 466.307033 -41.76 
L 467.90223 -41.76 
L 469.497427 -41.76 
L 471.092624 -41.76 
L 472.687822 -41.76 
L 474.283019 -41.76 
L 475.878216 -41.76 
L 477.473413 -41.76 
L 479.068611 -41.76 
L 480.663808 -41.76 
L 482.259005 -41.76 
L 483.854202 -41.76 
L 485.4494 -41.76 
L 487.044597 -41.76 
L 488.639794 -41.76 
L 490.234991 -41.76 
L 491.830189 -41.76 
L 493.425386 -41.76 
L 495.020583 -41.76 
L 496.61578 -41.76 
L 498.210978 -41.76 
L 499.806175 -41.76 
L 501.401372 -41.76 
L 502.996569 -41.76 
L 504.591767 -41.76 
L 506.186964 -41.76 
L 507.782161 -41.76 
L 509.377358 -41.76 
L 510.972556 -41.76 
L 512.567753 -41.76 
L 514.16295 -41.76 
L 515.758148 -41.76 
L 517.353345 -41.76 
L 518.948542 -41.76 
L 520.543739 -41.76 
L 522.138937 -41.76 
L 523.734134 -41.76 
L 525.329331 -41.76 
L 526.924528 -41.76 
L 528.519726 -41.76 
L 530.114923 -41.76 
L 531.71012 -41.76 
L 533.305317 -41.76 
L 534.900515 -41.76 
L 536.495712 -41.76 
L 538.090909 -41.76 
L 539.686106 -41.76 
L 541.281304 -41.76 
L 542.876501 -41.76 
L 544.471698 -41.76 
L 546.066895 -41.76 
L 547.662093 -41.76 
L 549.25729 -41.76 
L 550.852487 -41.76 
L 552.447684 -41.76 
L 554.042882 -41.76 
L 555.638079 -41.76 
L 557.233276 -41.76 
L 558.828473 -41.76 
L 560.423671 -41.76 
L 562.018868 -41.76 
L 563.614065 -41.76 
L 565.209262 -41.76 
L 566.80446 -41.76 
L 568.399657 -41.76 
L 569.994854 -41.76 
L 571.590051 -41.76 
L 573.185249 -41.76 
L 574.780446 -41.76 
L 576.375643 -41.76 
L 577.97084 -41.76 
L 579.566038 -41.76 
L 581.161235 -41.76 
L 582.756432 -41.76 
L 584.35163 -41.76 
L 585.946827 -41.76 
L 587.542024 -41.76 
L 589.137221 -41.76 
L 590.732419 -41.76 
L 592.327616 -41.76 
L 593.922813 -41.76 
L 595.51801 -41.76 
L 597.113208 -41.76 
L 598.708405 -41.76 
L 600.303602 -41.76 
L 601.898799 -41.76 
L 603.493997 -41.76 
L 605.089194 -41.76 
L 606.684391 -41.76 
L 608.279588 -41.76 
L 609.874786 -41.76 
L 611.469983 -41.76 
L 613.06518 -41.76 
L 614.660377 -41.76 
L 616.255575 -41.76 
L 617.850772 -41.76 
L 619.445969 -41.76 
L 621.041166 -41.76 
L 622.636364 -41.76 
L 622.636364 -41.76 
L 622.636364 -41.76 
L 621.041166 -50.151455 
L 619.445969 -41.76 
L 617.850772 -41.76 
L 616.255575 -41.76 
L 614.660377 -59.396001 
L 613.06518 -41.76 
L 611.469983 -41.76 
L 609.874786 -41.76 
L 608.279588 -41.76 
L 606.684391 -41.76 
L 605.089194 -42.834566 
L 603.493997 -41.76 
L 601.898799 -41.76 
L 600.303602 -41.76 
L 598.708405 -41.76 
L 597.113208 -50.422148 
L 595.51801 -41.76 
L 593.922813 -41.76 
L 592.327616 -41.76 
L 590.732419 -41.76 
L 589.137221 -41.76 
L 587.542024 -41.76 
L 585.946827 -41.76 
L 584.35163 -53.088055 
L 582.756432 -41.76 
L 581.161235 -41.76 
L 579.566038 -41.76 
L 577.97084 -41.76 
L 576.375643 -41.76 
L 574.780446 -59.970197 
L 573.185249 -57.845674 
L 571.590051 -41.76 
L 569.994854 -41.76 
L 568.399657 -41.76 
L 566.80446 -41.76 
L 565.209262 -41.76 
L 563.614065 -41.76 
L 562.018868 -41.76 
L 560.423671 -41.76 
L 558.828473 -41.76 
L 557.233276 -51.094776 
L 555.638079 -41.76 
L 554.042882 -59.084295 
L 552.447684 -56.33636 
L 550.852487 -60.42135 
L 549.25729 -41.76 
L 547.662093 -41.76 
L 546.066895 -41.76 
L 544.471698 -41.76 
L 542.876501 -41.76 
L 541.281304 -63.628641 
L 539.686106 -41.76 
L 538.090909 -41.76 
L 536.495712 -41.76 
L 534.900515 -41.76 
L 533.305317 -56.049262 
L 531.71012 -41.76 
L 530.114923 -52.325195 
L 528.519726 -41.76 
L 526.924528 -41.76 
L 525.329331 -58.296827 
L 523.734134 -41.76 
L 522.138937 -41.76 
L 520.543739 -66.844136 
L 518.948542 -41.76 
L 517.353345 -64.703207 
L 515.758148 -41.76 
L 514.16295 -41.76 
L 512.567753 -65.62192 
L 510.972556 -41.76 
L 509.377358 -66.581646 
L 507.782161 -41.76 
L 506.186964 -41.76 
L 504.591767 -62.68532 
L 502.996569 -41.76 
L 501.401372 -41.76 
L 499.806175 -63.940347 
L 498.210978 -41.76 
L 496.61578 -41.76 
L 495.020583 -41.76 
L 493.425386 -41.76 
L 491.830189 -45.123144 
L 490.234991 -41.76 
L 488.639794 -41.76 
L 487.044597 -41.76 
L 485.4494 -41.76 
L 483.854202 -41.76 
L 482.259005 -41.76 
L 480.663808 -41.76 
L 479.068611 -41.76 
L 477.473413 -42.957608 
L 475.878216 -41.76 
L 474.283019 -41.76 
L 472.687822 -41.76 
L 471.092624 -41.76 
L 469.497427 -56.500416 
L 467.90223 -41.76 
L 466.307033 -41.76 
L 464.711835 -41.76 
L 463.116638 -41.76 
L 461.521441 -41.76 
L 459.926244 -41.76 
L 458.331046 -55.097739 
L 456.735849 -41.76 
L 455.140652 -41.76 
L 453.545455 -41.76 
L 451.950257 -48.674953 
L 450.35506 -41.76 
L 448.759863 -41.76 
L 447.164666 -41.76 
L 445.569468 -41.76 
L 443.974271 -60.437756 
L 442.379074 -41.76 
L 440.783877 -41.76 
L 439.188679 -45.385634 
L 437.593482 -41.76 
L 435.998285 -41.76 
L 434.403087 -64.473529 
L 432.80789 -41.76 
L 431.212693 -41.76 
L 429.617496 -54.966494 
L 428.022298 -41.76 
L 426.427101 -48.133569 
L 424.831904 -41.76 
L 423.236707 -41.76 
L 421.641509 -51.39828 
L 420.046312 -41.76 
L 418.451115 -41.76 
L 416.855918 -41.76 
L 415.26072 -41.76 
L 413.665523 -52.120125 
L 412.070326 -41.76 
L 410.475129 -41.76 
L 408.879931 -41.76 
L 407.284734 -41.76 
L 405.689537 -41.76 
L 404.09434 -41.76 
L 402.499142 -50.258092 
L 400.903945 -41.76 
L 399.308748 -41.76 
L 397.713551 -55.918018 
L 396.118353 -41.76 
L 394.523156 -41.76 
L 392.927959 -41.76 
L 391.332762 -41.76 
L 389.737564 -41.76 
L 388.142367 -41.76 
L 386.54717 -64.85906 
L 384.951973 -41.76 
L 383.356775 -41.76 
L 381.761578 -41.76 
L 380.166381 -53.498194 
L 378.571184 -41.76 
L 376.975986 -41.76 
L 375.380789 -48.748778 
L 373.785592 -41.76 
L 372.190395 -41.76 
L 370.595197 -41.76 
L 369 -41.76 
L 367.404803 -41.76 
L 365.809605 -41.76 
L 364.214408 -49.847952 
L 362.619211 -41.76 
L 361.024014 -41.76 
L 359.428816 -41.76 
L 357.833619 -41.76 
L 356.238422 -41.76 
L 354.643225 -51.168602 
L 353.048027 -41.76 
L 351.45283 -41.76 
L 349.857633 -70.896314 
L 348.262436 -41.76 
L 346.667238 -41.76 
L 345.072041 -41.76 
L 343.476844 -41.76 
L 341.881647 -41.76 
L 340.286449 -41.76 
L 338.691252 -50.586203 
L 337.096055 -41.76 
L 335.500858 -41.76 
L 333.90566 -41.76 
L 332.310463 -41.76 
L 330.715266 -41.76 
L 329.120069 -41.76 
L 327.524871 -41.76 
L 325.929674 -47.772646 
L 324.334477 -41.76 
L 322.73928 -41.76 
L 321.144082 -41.76 
L 319.548885 -41.76 
L 317.953688 -41.76 
L 316.358491 -48.551911 
L 314.763293 -41.76 
L 313.168096 -54.441515 
L 311.572899 -41.76 
L 309.977702 -41.76 
L 308.382504 -52.595887 
L 306.787307 -59.231945 
L 305.19211 -41.76 
L 303.596913 -41.76 
L 302.001715 -41.76 
L 300.406518 -41.76 
L 298.811321 -41.76 
L 297.216123 -41.76 
L 295.620926 -41.76 
L 294.025729 -41.76 
L 292.430532 -41.76 
L 290.835334 -62.086517 
L 289.240137 -41.76 
L 287.64494 -41.76 
L 286.049743 -41.76 
L 284.454545 -41.76 
L 282.859348 -41.76 
L 281.264151 -52.981418 
L 279.668954 -41.76 
L 278.073756 -41.76 
L 276.478559 -41.76 
L 274.883362 -73.570424 
L 273.288165 -41.76 
L 271.692967 -41.76 
L 270.09777 -55.83599 
L 268.502573 -41.76 
L 266.907376 -41.76 
L 265.312178 -41.76 
L 263.716981 -44.745816 
L 262.121784 -46.69808 
L 260.526587 -41.76 
L 258.931389 -52.054503 
L 257.336192 -41.76 
L 255.740995 -41.76 
L 254.145798 -41.76 
L 252.5506 -63.932145 
L 250.955403 -41.76 
L 249.360206 -41.76 
L 247.765009 -41.76 
L 246.169811 -41.76 
L 244.574614 -41.76 
L 242.979417 -52.620496 
L 241.38422 -50.561595 
L 239.789022 -41.76 
L 238.193825 -41.76 
L 236.598628 -41.76 
L 235.003431 -41.76 
L 233.408233 -41.76 
L 231.813036 -41.76 
L 230.217839 -41.76 
L 228.622642 -41.76 
L 227.027444 -41.76 
L 225.432247 -49.16712 
L 223.83705 -41.76 
L 222.241852 -41.76 
L 220.646655 -41.76 
L 219.051458 -56.607052 
L 217.456261 -41.76 
L 215.861063 -41.76 
L 214.265866 -41.76 
L 212.670669 -52.39902 
L 211.075472 -41.76 
L 209.480274 -41.76 
L 207.885077 -41.76 
L 206.28988 -41.76 
L 204.694683 -41.76 
L 203.099485 -41.76 
L 201.504288 -41.76 
L 199.909091 -41.76 
L 198.313894 -49.044079 
L 196.718696 -41.76 
L 195.123499 -41.76 
L 193.528302 -41.76 
L 191.933105 -41.76 
L 190.337907 -64.522746 
L 188.74271 -41.76 
L 187.147513 -41.76 
L 185.552316 -64.014173 
L 183.957118 -41.76 
L 182.361921 -41.76 
L 180.766724 -49.659288 
L 179.171527 -41.76 
L 177.576329 -41.76 
L 175.981132 -62.734537 
L 174.385935 -41.76 
L 172.790738 -41.76 
L 171.19554 -41.76 
L 169.600343 -41.76 
L 168.005146 -41.76 
L 166.409949 -58.30503 
L 164.814751 -41.76 
L 163.219554 -41.76 
L 161.624357 -44.204432 
L 160.02916 -44.294662 
L 158.433962 -44.335676 
L 156.838765 -51.554133 
L 155.243568 -50.651826 
L 153.64837 -41.76 
L 152.053173 -41.76 
L 150.457976 -41.76 
L 148.862779 -53.965753 
L 147.267581 -41.76 
L 145.672384 -41.76 
L 144.077187 -41.76 
L 142.48199 -41.76 
L 140.886792 -41.76 
L 139.291595 -41.76 
L 137.696398 -41.76 
L 136.101201 -41.76 
L 134.506003 -41.76 
L 132.910806 -47.0508 
L 131.315609 -41.76 
L 129.720412 -41.76 
L 128.125214 -41.76 
L 126.530017 -41.76 
L 124.93482 -43.261111 
L 123.339623 -45.484067 
L 121.744425 -47.928499 
L 120.149228 -41.76 
L 118.554031 -41.76 
L 116.958834 -41.76 
L 115.363636 -48.8144 
z
" style="stroke: #ff0000; stroke-width: 0.5"/>
    </defs>
    <g clip-path="url(#pebd86a7252)">
     <use xlink:href="#mde48aa5d76" x="0" y="288" style="fill: #ff0000; stroke: #ff0000; stroke-width: 0.5"/>
    </g>
   </g>
   <g id="PolyCollection_2">
    <defs>
     <path id="m398a35bdc1" d="M 115.363636 -50.258092 
L 115.363636 -48.8144 
L 116.958834 -41.76 
L 118.554031 -41.76 
L 120.149228 -41.76 
L 121.744425 -47.928499 
L 123.339623 -45.484067 
L 124.93482 -43.261111 
L 126.530017 -41.76 
L 128.125214 -41.76 
L 129.720412 -41.76 
L 131.315609 -41.76 
L 132.910806 -47.0508 
L 134.506003 -41.76 
L 136.101201 -41.76 
L 137.696398 -41.76 
L 139.291595 -41.76 
L 140.886792 -41.76 
L 142.48199 -41.76 
L 144.077187 -41.76 
L 145.672384 -41.76 
L 147.267581 -41.76 
L 148.862779 -53.965753 
L 150.457976 -41.76 
L 152.053173 -41.76 
L 153.64837 -41.76 
L 155.243568 -50.651826 
L 156.838765 -51.554133 
L 158.433962 -44.335676 
L 160.02916 -44.294662 
L 161.624357 -44.204432 
L 163.219554 -41.76 
L 164.814751 -41.76 
L 166.409949 -58.30503 
L 168.005146 -41.76 
L 169.600343 -41.76 
L 171.19554 -41.76 
L 172.790738 -41.76 
L 174.385935 -41.76 
L 175.981132 -62.734537 
L 177.576329 -41.76 
L 179.171527 -41.76 
L 180.766724 -49.659288 
L 182.361921 -41.76 
L 183.957118 -41.76 
L 185.552316 -64.014173 
L 187.147513 -41.76 
L 188.74271 -41.76 
L 190.337907 -64.522746 
L 191.933105 -41.76 
L 193.528302 -41.76 
L 195.123499 -41.76 
L 196.718696 -41.76 
L 198.313894 -49.044079 
L 199.909091 -41.76 
L 201.504288 -41.76 
L 203.099485 -41.76 
L 204.694683 -41.76 
L 206.28988 -41.76 
L 207.885077 -41.76 
L 209.480274 -41.76 
L 211.075472 -41.76 
L 212.670669 -52.39902 
L 214.265866 -41.76 
L 215.861063 -41.76 
L 217.456261 -41.76 
L 219.051458 -56.607052 
L 220.646655 -41.76 
L 222.241852 -41.76 
L 223.83705 -41.76 
L 225.432247 -49.16712 
L 227.027444 -41.76 
L 228.622642 -41.76 
L 230.217839 -41.76 
L 231.813036 -41.76 
L 233.408233 -41.76 
L 235.003431 -41.76 
L 236.598628 -41.76 
L 238.193825 -41.76 
L 239.789022 -41.76 
L 241.38422 -50.561595 
L 242.979417 -52.620496 
L 244.574614 -41.76 
L 246.169811 -41.76 
L 247.765009 -41.76 
L 249.360206 -41.76 
L 250.955403 -41.76 
L 252.5506 -63.932145 
L 254.145798 -41.76 
L 255.740995 -41.76 
L 257.336192 -41.76 
L 258.931389 -52.054503 
L 260.526587 -41.76 
L 262.121784 -46.69808 
L 263.716981 -44.745816 
L 265.312178 -41.76 
L 266.907376 -41.76 
L 268.502573 -41.76 
L 270.09777 -55.83599 
L 271.692967 -41.76 
L 273.288165 -41.76 
L 274.883362 -73.570424 
L 276.478559 -41.76 
L 278.073756 -41.76 
L 279.668954 -41.76 
L 281.264151 -52.981418 
L 282.859348 -41.76 
L 284.454545 -41.76 
L 286.049743 -41.76 
L 287.64494 -41.76 
L 289.240137 -41.76 
L 290.835334 -62.086517 
L 292.430532 -41.76 
L 294.025729 -41.76 
L 295.620926 -41.76 
L 297.216123 -41.76 
L 298.811321 -41.76 
L 300.406518 -41.76 
L 302.001715 -41.76 
L 303.596913 -41.76 
L 305.19211 -41.76 
L 306.787307 -59.231945 
L 308.382504 -52.595887 
L 309.977702 -41.76 
L 311.572899 -41.76 
L 313.168096 -54.441515 
L 314.763293 -41.76 
L 316.358491 -48.551911 
L 317.953688 -41.76 
L 319.548885 -41.76 
L 321.144082 -41.76 
L 322.73928 -41.76 
L 324.334477 -41.76 
L 325.929674 -47.772646 
L 327.524871 -41.76 
L 329.120069 -41.76 
L 330.715266 -41.76 
L 332.310463 -41.76 
L 333.90566 -41.76 
L 335.500858 -41.76 
L 337.096055 -41.76 
L 338.691252 -50.586203 
L 340.286449 -41.76 
L 341.881647 -41.76 
L 343.476844 -41.76 
L 345.072041 -41.76 
L 346.667238 -41.76 
L 348.262436 -41.76 
L 349.857633 -70.896314 
L 351.45283 -41.76 
L 353.048027 -41.76 
L 354.643225 -51.168602 
L 356.238422 -41.76 
L 357.833619 -41.76 
L 359.428816 -41.76 
L 361.024014 -41.76 
L 362.619211 -41.76 
L 364.214408 -49.847952 
L 365.809605 -41.76 
L 367.404803 -41.76 
L 369 -41.76 
L 370.595197 -41.76 
L 372.190395 -41.76 
L 373.785592 -41.76 
L 375.380789 -48.748778 
L 376.975986 -41.76 
L 378.571184 -41.76 
L 380.166381 -53.498194 
L 381.761578 -41.76 
L 383.356775 -41.76 
L 384.951973 -41.76 
L 386.54717 -64.85906 
L 388.142367 -41.76 
L 389.737564 -41.76 
L 391.332762 -41.76 
L 392.927959 -41.76 
L 394.523156 -41.76 
L 396.118353 -41.76 
L 397.713551 -55.918018 
L 399.308748 -41.76 
L 400.903945 -41.76 
L 402.499142 -50.258092 
L 404.09434 -41.76 
L 405.689537 -41.76 
L 407.284734 -41.76 
L 408.879931 -41.76 
L 410.475129 -41.76 
L 412.070326 -41.76 
L 413.665523 -52.120125 
L 415.26072 -41.76 
L 416.855918 -41.76 
L 418.451115 -41.76 
L 420.046312 -41.76 
L 421.641509 -51.39828 
L 423.236707 -41.76 
L 424.831904 -41.76 
L 426.427101 -48.133569 
L 428.022298 -41.76 
L 429.617496 -54.966494 
L 431.212693 -41.76 
L 432.80789 -41.76 
L 434.403087 -64.473529 
L 435.998285 -41.76 
L 437.593482 -41.76 
L 439.188679 -45.385634 
L 440.783877 -41.76 
L 442.379074 -41.76 
L 443.974271 -60.437756 
L 445.569468 -41.76 
L 447.164666 -41.76 
L 448.759863 -41.76 
L 450.35506 -41.76 
L 451.950257 -48.674953 
L 453.545455 -41.76 
L 455.140652 -41.76 
L 456.735849 -41.76 
L 458.331046 -55.097739 
L 459.926244 -41.76 
L 461.521441 -41.76 
L 463.116638 -41.76 
L 464.711835 -41.76 
L 466.307033 -41.76 
L 467.90223 -41.76 
L 469.497427 -56.500416 
L 471.092624 -41.76 
L 472.687822 -41.76 
L 474.283019 -41.76 
L 475.878216 -41.76 
L 477.473413 -42.957608 
L 479.068611 -41.76 
L 480.663808 -41.76 
L 482.259005 -41.76 
L 483.854202 -41.76 
L 485.4494 -41.76 
L 487.044597 -41.76 
L 488.639794 -41.76 
L 490.234991 -41.76 
L 491.830189 -45.123144 
L 493.425386 -41.76 
L 495.020583 -41.76 
L 496.61578 -41.76 
L 498.210978 -41.76 
L 499.806175 -63.940347 
L 501.401372 -41.76 
L 502.996569 -41.76 
L 504.591767 -62.68532 
L 506.186964 -41.76 
L 507.782161 -41.76 
L 509.377358 -66.581646 
L 510.972556 -41.76 
L 512.567753 -65.62192 
L 514.16295 -41.76 
L 515.758148 -41.76 
L 517.353345 -64.703207 
L 518.948542 -41.76 
L 520.543739 -66.844136 
L 522.138937 -41.76 
L 523.734134 -41.76 
L 525.329331 -58.296827 
L 526.924528 -41.76 
L 528.519726 -41.76 
L 530.114923 -52.325195 
L 531.71012 -41.76 
L 533.305317 -56.049262 
L 534.900515 -41.76 
L 536.495712 -41.76 
L 538.090909 -41.76 
L 539.686106 -41.76 
L 541.281304 -63.628641 
L 542.876501 -41.76 
L 544.471698 -41.76 
L 546.066895 -41.76 
L 547.662093 -41.76 
L 549.25729 -41.76 
L 550.852487 -60.42135 
L 552.447684 -56.33636 
L 554.042882 -59.084295 
L 555.638079 -41.76 
L 557.233276 -51.094776 
L 558.828473 -41.76 
L 560.423671 -41.76 
L 562.018868 -41.76 
L 563.614065 -41.76 
L 565.209262 -41.76 
L 566.80446 -41.76 
L 568.399657 -41.76 
L 569.994854 -41.76 
L 571.590051 -41.76 
L 573.185249 -57.845674 
L 574.780446 -59.970197 
L 576.375643 -41.76 
L 577.97084 -41.76 
L 579.566038 -41.76 
L 581.161235 -41.76 
L 582.756432 -41.76 
L 584.35163 -53.088055 
L 585.946827 -41.76 
L 587.542024 -41.76 
L 589.137221 -41.76 
L 590.732419 -41.76 
L 592.327616 -41.76 
L 593.922813 -41.76 
L 595.51801 -41.76 
L 597.113208 -50.422148 
L 598.708405 -41.76 
L 600.303602 -41.76 
L 601.898799 -41.76 
L 603.493997 -41.76 
L 605.089194 -42.834566 
L 606.684391 -41.76 
L 608.279588 -41.76 
L 609.874786 -41.76 
L 611.469983 -41.76 
L 613.06518 -41.76 
L 614.660377 -59.396001 
L 616.255575 -41.76 
L 617.850772 -41.76 
L 619.445969 -41.76 
L 621.041166 -50.151455 
L 622.636364 -41.76 
L 622.636364 -41.784608 
L 622.636364 -41.784608 
L 621.041166 -50.274497 
L 619.445969 -41.899447 
L 617.850772 -41.915853 
L 616.255575 -41.915853 
L 614.660377 -59.551854 
L 613.06518 -45.918815 
L 611.469983 -55.885206 
L 609.874786 -63.251313 
L 608.279588 -52.735335 
L 606.684391 -51.636161 
L 605.089194 -50.791273 
L 603.493997 -56.869541 
L 601.898799 -58.15738 
L 600.303602 -44.573557 
L 598.708405 -46.706283 
L 597.113208 -53.793495 
L 595.51801 -64.612976 
L 593.922813 -66.803122 
L 592.327616 -65.236388 
L 590.732419 -73.414571 
L 589.137221 -77.655414 
L 587.542024 -73.455585 
L 585.946827 -69.239351 
L 584.35163 -87.40033 
L 582.756432 -107.849889 
L 581.161235 -102.632914 
L 579.566038 -100.221293 
L 577.97084 -97.735847 
L 576.375643 -83.733683 
L 574.780446 -119.522461 
L 573.185249 -111.360684 
L 571.590051 -98.662763 
L 569.994854 -116.872959 
L 568.399657 -111.729809 
L 566.80446 -111.360684 
L 565.209262 -109.285377 
L 563.614065 -88.425679 
L 562.018868 -71.462307 
L 560.423671 -78.87763 
L 558.828473 -53.391558 
L 557.233276 -58.255813 
L 555.638079 -52.489251 
L 554.042882 -68.222205 
L 552.447684 -67.861282 
L 550.852487 -70.543594 
L 549.25729 -67.147639 
L 547.662093 -68.148379 
L 546.066895 -79.041686 
L 544.471698 -63.546614 
L 542.876501 -66.704688 
L 541.281304 -103.305543 
L 539.686106 -85.743367 
L 538.090909 -95.644136 
L 536.495712 -95.504688 
L 534.900515 -89.188539 
L 533.305317 -86.981988 
L 531.71012 -45.254389 
L 530.114923 -63.029838 
L 528.519726 -75.391444 
L 526.924528 -73.307935 
L 525.329331 -96.300359 
L 523.734134 -105.274212 
L 522.138937 -120.072048 
L 520.543739 -110.90953 
L 518.948542 -98.072162 
L 517.353345 -106.758918 
L 515.758148 -115.34724 
L 514.16295 -139.734138 
L 512.567753 -143.039863 
L 510.972556 -122.631319 
L 509.377358 -115.946044 
L 507.782161 -143.966779 
L 506.186964 -126.076491 
L 504.591767 -109.966209 
L 502.996569 -90.63223 
L 501.401372 -74.456326 
L 499.806175 -77.532373 
L 498.210978 -54.252851 
L 496.61578 -50.930721 
L 495.020583 -54.343082 
L 493.425386 -47.214856 
L 491.830189 -50.085833 
L 490.234991 -46.886745 
L 488.639794 -52.464643 
L 487.044597 -57.410926 
L 485.4494 -50.742056 
L 483.854202 -50.651826 
L 482.259005 -50.824084 
L 480.663808 -56.508619 
L 479.068611 -54.359487 
L 477.473413 -65.556297 
L 475.878216 -80.723258 
L 474.283019 -73.99697 
L 472.687822 -68.845617 
L 471.092624 -67.057408 
L 469.497427 -67.057408 
L 467.90223 -53.957551 
L 466.307033 -53.736075 
L 464.711835 -62.841173 
L 463.116638 -57.771848 
L 461.521441 -51.882244 
L 459.926244 -50.34012 
L 458.331046 -57.197653 
L 456.735849 -47.518359 
L 455.140652 -48.535506 
L 453.545455 -50.48777 
L 451.950257 -54.36769 
L 450.35506 -46.640661 
L 448.759863 -43.449775 
L 447.164666 -44.43411 
L 445.569468 -47.206653 
L 443.974271 -64.50634 
L 442.379074 -52.595887 
L 440.783877 -54.138012 
L 439.188679 -53.375152 
L 437.593482 -43.679453 
L 435.998285 -46.985178 
L 434.403087 -66.12229 
L 432.80789 -49.601868 
L 431.212693 -51.152196 
L 429.617496 -60.888909 
L 428.022298 -56.902353 
L 426.427101 -61.561538 
L 424.831904 -57.238667 
L 423.236707 -56.139493 
L 421.641509 -59.043281 
L 420.046312 -51.431091 
L 418.451115 -51.127588 
L 416.855918 -50.389336 
L 415.26072 -47.862877 
L 413.665523 -57.033597 
L 412.070326 -49.905372 
L 410.475129 -50.053022 
L 408.879931 -49.085093 
L 407.284734 -49.995602 
L 405.689537 -54.745019 
L 404.09434 -51.04556 
L 402.499142 -52.19395 
L 400.903945 -45.08213 
L 399.308748 -47.452737 
L 397.713551 -57.328898 
L 396.118353 -44.475124 
L 394.523156 -46.156696 
L 392.927959 -44.204432 
L 391.332762 -45.328214 
L 389.737564 -47.707024 
L 388.142367 -45.098536 
L 386.54717 -73.094662 
L 384.951973 -51.431091 
L 383.356775 -55.171564 
L 381.761578 -52.144734 
L 380.166381 -62.39002 
L 378.571184 -51.947867 
L 376.975986 -50.512378 
L 375.380789 -56.147696 
L 373.785592 -50.192469 
L 372.190395 -51.34086 
L 370.595197 -51.070168 
L 369 -52.718929 
L 367.404803 -50.881504 
L 365.809605 -47.198451 
L 364.214408 -55.934423 
L 362.619211 -49.667491 
L 361.024014 -48.289422 
L 359.428816 -48.847212 
L 357.833619 -45.582501 
L 356.238422 -49.126107 
L 354.643225 -54.113404 
L 353.048027 -47.0508 
L 351.45283 -45.984437 
L 349.857633 -73.430977 
L 348.262436 -48.625736 
L 346.667238 -52.185748 
L 345.072041 -52.407223 
L 343.476844 -51.529524 
L 341.881647 -50.996343 
L 340.286449 -49.208134 
L 338.691252 -61.422091 
L 337.096055 -61.118587 
L 335.500858 -57.296087 
L 333.90566 -58.239408 
L 332.310463 -58.124568 
L 330.715266 -58.075352 
L 329.120069 -54.745019 
L 327.524871 -50.84049 
L 325.929674 -54.269257 
L 324.334477 -54.113404 
L 322.73928 -49.651085 
L 321.144082 -56.869541 
L 319.548885 -61.733797 
L 317.953688 -50.012008 
L 316.358491 -53.030635 
L 314.763293 -48.797995 
L 313.168096 -56.812122 
L 311.572899 -48.264813 
L 309.977702 -47.772646 
L 308.382504 -58.419869 
L 306.787307 -69.132714 
L 305.19211 -51.586944 
L 303.596913 -50.176064 
L 302.001715 -44.713005 
L 300.406518 -44.557152 
L 298.811321 -46.747297 
L 297.216123 -48.847212 
L 295.620926 -50.085833 
L 294.025729 -48.72417 
L 292.430532 -51.258832 
L 290.835334 -65.187172 
L 289.240137 -47.698821 
L 287.64494 -48.412464 
L 286.049743 -49.413204 
L 284.454545 -49.815141 
L 282.859348 -48.962051 
L 281.264151 -55.794976 
L 279.668954 -47.198451 
L 278.073756 -47.846471 
L 276.478559 -44.179823 
L 274.883362 -81.830635 
L 273.288165 -51.226021 
L 271.692967 -53.120866 
L 270.09777 -62.74274 
L 268.502573 -47.411723 
L 266.907376 -47.936702 
L 265.312178 -45.738354 
L 263.716981 -54.105201 
L 262.121784 -67.910498 
L 260.526587 -63.439977 
L 258.931389 -70.223686 
L 257.336192 -47.895688 
L 255.740995 -48.141772 
L 254.145798 -46.968772 
L 252.5506 -66.565241 
L 250.955403 -44.926277 
L 249.360206 -48.387855 
L 247.765009 -44.680194 
L 246.169811 -44.655585 
L 244.574614 -48.87182 
L 242.979417 -59.051484 
L 241.38422 -53.416166 
L 239.789022 -46.583241 
L 238.193825 -48.978456 
L 236.598628 -44.483327 
L 235.003431 -44.007565 
L 233.408233 -44.466921 
L 231.813036 -48.37145 
L 230.217839 -44.680194 
L 228.622642 -46.263332 
L 227.027444 -49.528043 
L 225.432247 -56.910555 
L 223.83705 -48.486289 
L 222.241852 -49.380393 
L 220.646655 -49.093295 
L 219.051458 -59.289365 
L 217.456261 -47.223059 
L 215.861063 -51.04556 
L 214.265866 -48.199191 
L 212.670669 -62.340803 
L 211.075472 -52.070909 
L 209.480274 -53.243908 
L 207.885077 -52.792754 
L 206.28988 -53.096257 
L 204.694683 -52.620496 
L 203.099485 -53.071649 
L 201.504288 -53.637642 
L 199.909091 -51.094776 
L 198.313894 -51.562336 
L 196.718696 -44.270054 
L 195.123499 -43.769684 
L 193.528302 -44.483327 
L 191.933105 -44.401299 
L 190.337907 -65.662934 
L 188.74271 -44.762222 
L 187.147513 -43.909131 
L 185.552316 -65.425053 
L 183.957118 -46.788311 
L 182.361921 -49.536246 
L 180.766724 -51.677175 
L 179.171527 -46.000843 
L 177.576329 -47.748038 
L 175.981132 -64.21104 
L 174.385935 -44.335676 
L 172.790738 -45.533284 
L 171.19554 -45.525081 
L 169.600343 -46.821122 
L 168.005146 -47.034395 
L 166.409949 -61.553335 
L 164.814751 -50.873301 
L 163.219554 -53.145474 
L 161.624357 -55.327417 
L 160.02916 -44.294662 
L 158.433962 -44.335676 
L 156.838765 -61.897852 
L 155.243568 -61.750202 
L 153.64837 -60.593609 
L 152.053173 -61.143196 
L 150.457976 -63.308733 
L 148.862779 -81.510726 
L 147.267581 -60.109644 
L 145.672384 -61.824027 
L 144.077187 -60.12605 
L 142.48199 -55.417647 
L 140.886792 -59.691302 
L 139.291595 -63.431774 
L 137.696398 -65.523486 
L 136.101201 -63.226705 
L 134.506003 -56.164101 
L 132.910806 -57.0418 
L 131.315609 -53.973956 
L 129.720412 -53.243908 
L 128.125214 -56.664472 
L 126.530017 -58.469086 
L 124.93482 -51.127588 
L 123.339623 -57.681618 
L 121.744425 -49.363987 
L 120.149228 -43.31853 
L 118.554031 -43.310328 
L 116.958834 -43.334936 
L 115.363636 -50.258092 
z
" style="stroke: #0000ff; stroke-width: 0.5"/>
    </defs>
    <g clip-path="url(#pebd86a7252)">
     <use xlink:href="#m398a35bdc1" x="0" y="288" style="fill: #0000ff; stroke: #0000ff; stroke-width: 0.5"/>
    </g>
   </g>
   <g id="PolyCollection_3">
    <defs>
     <path id="mff96fa5908" d="M 115.363636 -57.960513 
L 115.363636 -50.258092 
L 116.958834 -43.334936 
L 118.554031 -43.310328 
L 120.149228 -43.31853 
L 121.744425 -49.363987 
L 123.339623 -57.681618 
L 124.93482 -51.127588 
L 126.530017 -58.469086 
L 128.125214 -56.664472 
L 129.720412 -53.243908 
L 131.315609 -53.973956 
L 132.910806 -57.0418 
L 134.506003 -56.164101 
L 136.101201 -63.226705 
L 137.696398 -65.523486 
L 139.291595 -63.431774 
L 140.886792 -59.691302 
L 142.48199 -55.417647 
L 144.077187 -60.12605 
L 145.672384 -61.824027 
L 147.267581 -60.109644 
L 148.862779 -81.510726 
L 150.457976 -63.308733 
L 152.053173 -61.143196 
L 153.64837 -60.593609 
L 155.243568 -61.750202 
L 156.838765 -61.897852 
L 158.433962 -44.335676 
L 160.02916 -44.294662 
L 161.624357 -55.327417 
L 163.219554 -53.145474 
L 164.814751 -50.873301 
L 166.409949 -61.553335 
L 168.005146 -47.034395 
L 169.600343 -46.821122 
L 171.19554 -45.525081 
L 172.790738 -45.533284 
L 174.385935 -44.335676 
L 175.981132 -64.21104 
L 177.576329 -47.748038 
L 179.171527 -46.000843 
L 180.766724 -51.677175 
L 182.361921 -49.536246 
L 183.957118 -46.788311 
L 185.552316 -65.425053 
L 187.147513 -43.909131 
L 188.74271 -44.762222 
L 190.337907 -65.662934 
L 191.933105 -44.401299 
L 193.528302 -44.483327 
L 195.123499 -43.769684 
L 196.718696 -44.270054 
L 198.313894 -51.562336 
L 199.909091 -51.094776 
L 201.504288 -53.637642 
L 203.099485 -53.071649 
L 204.694683 -52.620496 
L 206.28988 -53.096257 
L 207.885077 -52.792754 
L 209.480274 -53.243908 
L 211.075472 -52.070909 
L 212.670669 -62.340803 
L 214.265866 -48.199191 
L 215.861063 -51.04556 
L 217.456261 -47.223059 
L 219.051458 -59.289365 
L 220.646655 -49.093295 
L 222.241852 -49.380393 
L 223.83705 -48.486289 
L 225.432247 -56.910555 
L 227.027444 -49.528043 
L 228.622642 -46.263332 
L 230.217839 -44.680194 
L 231.813036 -48.37145 
L 233.408233 -44.466921 
L 235.003431 -44.007565 
L 236.598628 -44.483327 
L 238.193825 -48.978456 
L 239.789022 -46.583241 
L 241.38422 -53.416166 
L 242.979417 -59.051484 
L 244.574614 -48.87182 
L 246.169811 -44.655585 
L 247.765009 -44.680194 
L 249.360206 -48.387855 
L 250.955403 -44.926277 
L 252.5506 -66.565241 
L 254.145798 -46.968772 
L 255.740995 -48.141772 
L 257.336192 -47.895688 
L 258.931389 -70.223686 
L 260.526587 -63.439977 
L 262.121784 -67.910498 
L 263.716981 -54.105201 
L 265.312178 -45.738354 
L 266.907376 -47.936702 
L 268.502573 -47.411723 
L 270.09777 -62.74274 
L 271.692967 -53.120866 
L 273.288165 -51.226021 
L 274.883362 -81.830635 
L 276.478559 -44.179823 
L 278.073756 -47.846471 
L 279.668954 -47.198451 
L 281.264151 -55.794976 
L 282.859348 -48.962051 
L 284.454545 -49.815141 
L 286.049743 -49.413204 
L 287.64494 -48.412464 
L 289.240137 -47.698821 
L 290.835334 -65.187172 
L 292.430532 -51.258832 
L 294.025729 -48.72417 
L 295.620926 -50.085833 
L 297.216123 -48.847212 
L 298.811321 -46.747297 
L 300.406518 -44.557152 
L 302.001715 -44.713005 
L 303.596913 -50.176064 
L 305.19211 -51.586944 
L 306.787307 -69.132714 
L 308.382504 -58.419869 
L 309.977702 -47.772646 
L 311.572899 -48.264813 
L 313.168096 -56.812122 
L 314.763293 -48.797995 
L 316.358491 -53.030635 
L 317.953688 -50.012008 
L 319.548885 -61.733797 
L 321.144082 -56.869541 
L 322.73928 -49.651085 
L 324.334477 -54.113404 
L 325.929674 -54.269257 
L 327.524871 -50.84049 
L 329.120069 -54.745019 
L 330.715266 -58.075352 
L 332.310463 -58.124568 
L 333.90566 -58.239408 
L 335.500858 -57.296087 
L 337.096055 -61.118587 
L 338.691252 -61.422091 
L 340.286449 -49.208134 
L 341.881647 -50.996343 
L 343.476844 -51.529524 
L 345.072041 -52.407223 
L 346.667238 -52.185748 
L 348.262436 -48.625736 
L 349.857633 -73.430977 
L 351.45283 -45.984437 
L 353.048027 -47.0508 
L 354.643225 -54.113404 
L 356.238422 -49.126107 
L 357.833619 -45.582501 
L 359.428816 -48.847212 
L 361.024014 -48.289422 
L 362.619211 -49.667491 
L 364.214408 -55.934423 
L 365.809605 -47.198451 
L 367.404803 -50.881504 
L 369 -52.718929 
L 370.595197 -51.070168 
L 372.190395 -51.34086 
L 373.785592 -50.192469 
L 375.380789 -56.147696 
L 376.975986 -50.512378 
L 378.571184 -51.947867 
L 380.166381 -62.39002 
L 381.761578 -52.144734 
L 383.356775 -55.171564 
L 384.951973 -51.431091 
L 386.54717 -73.094662 
L 388.142367 -45.098536 
L 389.737564 -47.707024 
L 391.332762 -45.328214 
L 392.927959 -44.204432 
L 394.523156 -46.156696 
L 396.118353 -44.475124 
L 397.713551 -57.328898 
L 399.308748 -47.452737 
L 400.903945 -45.08213 
L 402.499142 -52.19395 
L 404.09434 -51.04556 
L 405.689537 -54.745019 
L 407.284734 -49.995602 
L 408.879931 -49.085093 
L 410.475129 -50.053022 
L 412.070326 -49.905372 
L 413.665523 -57.033597 
L 415.26072 -47.862877 
L 416.855918 -50.389336 
L 418.451115 -51.127588 
L 420.046312 -51.431091 
L 421.641509 -59.043281 
L 423.236707 -56.139493 
L 424.831904 -57.238667 
L 426.427101 -61.561538 
L 428.022298 -56.902353 
L 429.617496 -60.888909 
L 431.212693 -51.152196 
L 432.80789 -49.601868 
L 434.403087 -66.12229 
L 435.998285 -46.985178 
L 437.593482 -43.679453 
L 439.188679 -53.375152 
L 440.783877 -54.138012 
L 442.379074 -52.595887 
L 443.974271 -64.50634 
L 445.569468 -47.206653 
L 447.164666 -44.43411 
L 448.759863 -43.449775 
L 450.35506 -46.640661 
L 451.950257 -54.36769 
L 453.545455 -50.48777 
L 455.140652 -48.535506 
L 456.735849 -47.518359 
L 458.331046 -57.197653 
L 459.926244 -50.34012 
L 461.521441 -51.882244 
L 463.116638 -57.771848 
L 464.711835 -62.841173 
L 466.307033 -53.736075 
L 467.90223 -53.957551 
L 469.497427 -67.057408 
L 471.092624 -67.057408 
L 472.687822 -68.845617 
L 474.283019 -73.99697 
L 475.878216 -80.723258 
L 477.473413 -65.556297 
L 479.068611 -54.359487 
L 480.663808 -56.508619 
L 482.259005 -50.824084 
L 483.854202 -50.651826 
L 485.4494 -50.742056 
L 487.044597 -57.410926 
L 488.639794 -52.464643 
L 490.234991 -46.886745 
L 491.830189 -50.085833 
L 493.425386 -47.214856 
L 495.020583 -54.343082 
L 496.61578 -50.930721 
L 498.210978 -54.252851 
L 499.806175 -77.532373 
L 501.401372 -74.456326 
L 502.996569 -90.63223 
L 504.591767 -109.966209 
L 506.186964 -126.076491 
L 507.782161 -143.966779 
L 509.377358 -115.946044 
L 510.972556 -122.631319 
L 512.567753 -143.039863 
L 514.16295 -139.734138 
L 515.758148 -115.34724 
L 517.353345 -106.758918 
L 518.948542 -98.072162 
L 520.543739 -110.90953 
L 522.138937 -120.072048 
L 523.734134 -105.274212 
L 525.329331 -96.300359 
L 526.924528 -73.307935 
L 528.519726 -75.391444 
L 530.114923 -63.029838 
L 531.71012 -45.254389 
L 533.305317 -86.981988 
L 534.900515 -89.188539 
L 536.495712 -95.504688 
L 538.090909 -95.644136 
L 539.686106 -85.743367 
L 541.281304 -103.305543 
L 542.876501 -66.704688 
L 544.471698 -63.546614 
L 546.066895 -79.041686 
L 547.662093 -68.148379 
L 549.25729 -67.147639 
L 550.852487 -70.543594 
L 552.447684 -67.861282 
L 554.042882 -68.222205 
L 555.638079 -52.489251 
L 557.233276 -58.255813 
L 558.828473 -53.391558 
L 560.423671 -78.87763 
L 562.018868 -71.462307 
L 563.614065 -88.425679 
L 565.209262 -109.285377 
L 566.80446 -111.360684 
L 568.399657 -111.729809 
L 569.994854 -116.872959 
L 571.590051 -98.662763 
L 573.185249 -111.360684 
L 574.780446 -119.522461 
L 576.375643 -83.733683 
L 577.97084 -97.735847 
L 579.566038 -100.221293 
L 581.161235 -102.632914 
L 582.756432 -107.849889 
L 584.35163 -87.40033 
L 585.946827 -69.239351 
L 587.542024 -73.455585 
L 589.137221 -77.655414 
L 590.732419 -73.414571 
L 592.327616 -65.236388 
L 593.922813 -66.803122 
L 595.51801 -64.612976 
L 597.113208 -53.793495 
L 598.708405 -46.706283 
L 600.303602 -44.573557 
L 601.898799 -58.15738 
L 603.493997 -56.869541 
L 605.089194 -50.791273 
L 606.684391 -51.636161 
L 608.279588 -52.735335 
L 609.874786 -63.251313 
L 611.469983 -55.885206 
L 613.06518 -45.918815 
L 614.660377 -59.551854 
L 616.255575 -41.915853 
L 617.850772 -41.915853 
L 619.445969 -41.899447 
L 621.041166 -50.274497 
L 622.636364 -41.784608 
L 622.636364 -41.842028 
L 622.636364 -41.842028 
L 621.041166 -50.34012 
L 619.445969 -41.96507 
L 617.850772 -41.973273 
L 616.255575 -41.973273 
L 614.660377 -59.642085 
L 613.06518 -53.768886 
L 611.469983 -66.319157 
L 609.874786 -85.981248 
L 608.279588 -72.741942 
L 606.684391 -72.52867 
L 605.089194 -65.703948 
L 603.493997 -82.134138 
L 601.898799 -167.123258 
L 600.303602 -172.438667 
L 598.708405 -149.503663 
L 597.113208 -128.086175 
L 595.51801 -99.335392 
L 593.922813 -110.532202 
L 592.327616 -110.770083 
L 590.732419 -120.597026 
L 589.137221 -121.482928 
L 587.542024 -125.600729 
L 585.946827 -109.859573 
L 584.35163 -126.658889 
L 582.756432 -171.610185 
L 581.161235 -183.733911 
L 579.566038 -185.358063 
L 577.97084 -175.112777 
L 576.375643 -165.33505 
L 574.780446 -180.61685 
L 573.185249 -162.267206 
L 571.590051 -153.547639 
L 569.994854 -169.936816 
L 568.399657 -164.957721 
L 566.80446 -165.98307 
L 565.209262 -166.458832 
L 563.614065 -143.605856 
L 562.018868 -113.837927 
L 560.423671 -118.144392 
L 558.828473 -139.545474 
L 557.233276 -102.878997 
L 555.638079 -85.398849 
L 554.042882 -104.888681 
L 552.447684 -106.47182 
L 550.852487 -108.563532 
L 549.25729 -103.44499 
L 547.662093 -109.309986 
L 546.066895 -139.110726 
L 544.471698 -123.92736 
L 542.876501 -106.521037 
L 541.281304 -141.399305 
L 539.686106 -143.704289 
L 538.090909 -149.839977 
L 536.495712 -157.222489 
L 534.900515 -157.263503 
L 533.305317 -146.895175 
L 531.71012 -108.530721 
L 530.114923 -106.685093 
L 528.519726 -119.358405 
L 526.924528 -128.594748 
L 525.329331 -179.755557 
L 523.734134 -191.81366 
L 522.138937 -223.28777 
L 520.543739 -196.563076 
L 518.948542 -204.77407 
L 517.353345 -199.22078 
L 515.758148 -242.80221 
L 514.16295 -228.037186 
L 512.567753 -243.36 
L 510.972556 -227.282529 
L 509.377358 -234.402552 
L 507.782161 -232.901441 
L 506.186964 -226.191558 
L 504.591767 -219.243794 
L 502.996569 -176.67951 
L 501.401372 -185.374469 
L 499.806175 -108.44049 
L 498.210978 -81.494321 
L 496.61578 -98.990874 
L 495.020583 -83.963361 
L 493.425386 -79.706112 
L 491.830189 -76.572646 
L 490.234991 -86.325765 
L 488.639794 -82.150544 
L 487.044597 -83.028243 
L 485.4494 -73.053649 
L 483.854202 -70.658433 
L 482.259005 -77.351911 
L 480.663808 -71.67558 
L 479.068611 -68.583127 
L 477.473413 -89.976007 
L 475.878216 -111.746215 
L 474.283019 -106.82454 
L 472.687822 -102.780564 
L 471.092624 -91.632971 
L 469.497427 -81.141601 
L 467.90223 -72.438439 
L 466.307033 -72.249775 
L 464.711835 -96.201925 
L 463.116638 -87.966323 
L 461.521441 -65.728556 
L 459.926244 -63.489194 
L 458.331046 -64.695004 
L 456.735849 -62.68532 
L 455.140652 -66.753905 
L 453.545455 -66.737499 
L 451.950257 -66.114087 
L 450.35506 -56.48401 
L 448.759863 -53.883725 
L 447.164666 -64.227445 
L 445.569468 -64.161823 
L 443.974271 -72.340006 
L 442.379074 -67.106625 
L 440.783877 -67.779254 
L 439.188679 -64.65399 
L 437.593482 -54.228243 
L 435.998285 -61.692783 
L 434.403087 -71.757608 
L 432.80789 -66.950772 
L 431.212693 -69.559259 
L 429.617496 -82.81497 
L 428.022298 -73.7919 
L 426.427101 -92.887998 
L 424.831904 -81.395887 
L 423.236707 -81.092384 
L 421.641509 -74.054389 
L 420.046312 -72.586089 
L 418.451115 -72.766551 
L 416.855918 -62.668915 
L 415.26072 -66.950772 
L 413.665523 -69.387001 
L 412.070326 -62.307992 
L 410.475129 -64.178228 
L 408.879931 -69.485434 
L 407.284734 -73.258718 
L 405.689537 -72.003691 
L 404.09434 -67.295289 
L 402.499142 -57.008989 
L 400.903945 -57.632401 
L 399.308748 -54.556354 
L 397.713551 -61.906055 
L 396.118353 -56.549633 
L 394.523156 -54.786032 
L 392.927959 -53.686858 
L 391.332762 -64.932885 
L 389.737564 -61.487713 
L 388.142367 -52.54667 
L 386.54717 -94.208647 
L 384.951973 -74.43992 
L 383.356775 -77.606198 
L 381.761578 -80.378741 
L 380.166381 -85.595716 
L 378.571184 -74.128214 
L 376.975986 -69.387001 
L 375.380789 -69.099903 
L 373.785592 -66.778513 
L 372.190395 -63.128271 
L 370.595197 -65.646528 
L 369 -64.793438 
L 367.404803 -64.202837 
L 365.809605 -55.794976 
L 364.214408 -65.761367 
L 362.619211 -67.631604 
L 361.024014 -71.208021 
L 359.428816 -57.501156 
L 357.833619 -72.077516 
L 356.238422 -68.131974 
L 354.643225 -62.455642 
L 353.048027 -54.958291 
L 351.45283 -50.118644 
L 349.857633 -82.002894 
L 348.262436 -62.956013 
L 346.667238 -64.522746 
L 345.072041 -67.303492 
L 343.476844 -65.933626 
L 341.881647 -62.677118 
L 340.286449 -66.286346 
L 338.691252 -76.949974 
L 337.096055 -82.864187 
L 335.500858 -81.133398 
L 333.90566 -80.723258 
L 332.310463 -84.02078 
L 330.715266 -83.815711 
L 329.120069 -84.340689 
L 327.524871 -68.189393 
L 325.929674 -70.371336 
L 324.334477 -80.706853 
L 322.73928 -67.730037 
L 321.144082 -90.353335 
L 319.548885 -86.645674 
L 317.953688 -71.281846 
L 316.358491 -62.447439 
L 314.763293 -56.057465 
L 313.168096 -62.783754 
L 311.572899 -61.717391 
L 309.977702 -59.674896 
L 308.382504 -77.392925 
L 306.787307 -93.544221 
L 305.19211 -74.530151 
L 303.596913 -64.202837 
L 302.001715 -53.194691 
L 300.406518 -57.706226 
L 298.811321 -61.381077 
L 297.216123 -64.686801 
L 295.620926 -65.662934 
L 294.025729 -72.011894 
L 292.430532 -66.261737 
L 290.835334 -77.064813 
L 289.240137 -57.927702 
L 287.64494 -64.85906 
L 286.049743 -63.472788 
L 284.454545 -63.546614 
L 282.859348 -59.445218 
L 281.264151 -64.317676 
L 279.668954 -61.643566 
L 278.073756 -69.116309 
L 276.478559 -60.257294 
L 274.883362 -94.930493 
L 273.288165 -69.887371 
L 271.692967 -73.906739 
L 270.09777 -75.612919 
L 268.502573 -58.190191 
L 266.907376 -60.872504 
L 265.312178 -54.982899 
L 263.716981 -82.011097 
L 262.121784 -104.544164 
L 260.526587 -94.914087 
L 258.931389 -96.784324 
L 257.336192 -62.299789 
L 255.740995 -66.228926 
L 254.145798 -60.437756 
L 252.5506 -74.193837 
L 250.955403 -53.268516 
L 249.360206 -57.944107 
L 247.765009 -53.36695 
L 246.169811 -57.320695 
L 244.574614 -63.85832 
L 242.979417 -69.526448 
L 241.38422 -62.061908 
L 239.789022 -58.903834 
L 238.193825 -59.961994 
L 236.598628 -52.382615 
L 235.003431 -52.636901 
L 233.408233 -58.140974 
L 231.813036 -58.764386 
L 230.217839 -53.391558 
L 228.622642 -59.322176 
L 227.027444 -60.683839 
L 225.432247 -73.890333 
L 223.83705 -61.791216 
L 222.241852 -62.463845 
L 220.646655 -60.708448 
L 219.051458 -64.276662 
L 217.456261 -58.017932 
L 215.861063 -66.852338 
L 214.265866 -56.935164 
L 212.670669 -76.671079 
L 211.075472 -68.025338 
L 209.480274 -69.551057 
L 207.885077 -69.29677 
L 206.28988 -69.403406 
L 204.694683 -68.886631 
L 203.099485 -69.058889 
L 201.504288 -70.518986 
L 199.909091 -66.835933 
L 198.313894 -58.370652 
L 196.718696 -55.138752 
L 195.123499 -56.311752 
L 193.528302 -55.885206 
L 191.933105 -51.767405 
L 190.337907 -70.953734 
L 188.74271 -52.243167 
L 187.147513 -47.280478 
L 185.552316 -70.937328 
L 183.957118 -57.18945 
L 182.361921 -56.623458 
L 180.766724 -61.413888 
L 179.171527 -59.313973 
L 177.576329 -59.740518 
L 175.981132 -70.346727 
L 174.385935 -52.423629 
L 172.790738 -54.211837 
L 171.19554 -55.548892 
L 169.600343 -57.296087 
L 168.005146 -54.474326 
L 166.409949 -66.630863 
L 164.814751 -60.183469 
L 163.219554 -65.293808 
L 161.624357 -74.973102 
L 160.02916 -82.495061 
L 158.433962 -89.344392 
L 156.838765 -94.987912 
L 155.243568 -111.918473 
L 153.64837 -101.279453 
L 152.053173 -102.075124 
L 150.457976 -104.281675 
L 148.862779 -110.679852 
L 147.267581 -84.685206 
L 145.672384 -81.174412 
L 144.077187 -79.115511 
L 142.48199 -77.122233 
L 140.886792 -77.048408 
L 139.291595 -82.388425 
L 137.696398 -87.269086 
L 136.101201 -82.404831 
L 134.506003 -74.300473 
L 132.910806 -94.257864 
L 131.315609 -85.48908 
L 129.720412 -89.336189 
L 128.125214 -90.181077 
L 126.530017 -100.483782 
L 124.93482 -80.821692 
L 123.339623 -68.656952 
L 121.744425 -60.716651 
L 120.149228 -50.446756 
L 118.554031 -54.416907 
L 116.958834 -57.066408 
L 115.363636 -57.960513 
z
" style="stroke: #008000; stroke-width: 0.5"/>
    </defs>
    <g clip-path="url(#pebd86a7252)">
     <use xlink:href="#mff96fa5908" x="0" y="288" style="fill: #008000; stroke: #008000; stroke-width: 0.5"/>
    </g>
   </g>
   <g id="line2d_24">
    <path d="M 90 44.64 
L 648 44.64 
" clip-path="url(#pebd86a7252)" style="fill: none; stroke: #000000; stroke-width: 1.5; stroke-linecap: square"/>
   </g>
   <g id="line2d_25">
    <path d="M 90 200.911376 
L 648 200.911376 
" clip-path="url(#pebd86a7252)" style="fill: none; stroke: #000000; stroke-width: 1.5; stroke-linecap: square"/>
   </g>
   <g id="patch_3">
    <path d="M 90 256.32 
L 90 34.56 
" style="fill: none; stroke: #000000; stroke-width: 0.8; stroke-linejoin: miter; stroke-linecap: square"/>
   </g>
   <g id="patch_4">
    <path d="M 648 256.32 
L 648 34.56 
" style="fill: none; stroke: #000000; stroke-width: 0.8; stroke-linejoin: miter; stroke-linecap: square"/>
   </g>
   <g id="patch_5">
    <path d="M 90 256.32 
L 648 256.32 
" style="fill: none; stroke: #000000; stroke-width: 0.8; stroke-linejoin: miter; stroke-linecap: square"/>
   </g>
   <g id="patch_6">
    <path d="M 90 34.56 
L 648 34.56 
" style="fill: none; stroke: #000000; stroke-width: 0.8; stroke-linejoin: miter; stroke-linecap: square"/>
   </g>
   <g id="text_20">
    <!-- peak (24,577) -->
    <g transform="translate(118.700327 41.3136) scale(0.1 -0.1)">
     <defs>
      <path id="DejaVuSans-Bold-70" d="M 1656 506 
L 1656 -1331 
L 538 -1331 
L 538 3500 
L 1656 3500 
L 1656 2988 
Q 1888 3294 2169 3439 
Q 2450 3584 2816 3584 
Q 3463 3584 3878 3070 
Q 4294 2556 4294 1747 
Q 4294 938 3878 423 
Q 3463 -91 2816 -91 
Q 2450 -91 2169 54 
Q 1888 200 1656 506 
z
M 2400 2772 
Q 2041 2772 1848 2508 
Q 1656 2244 1656 1747 
Q 1656 1250 1848 986 
Q 2041 722 2400 722 
Q 2759 722 2948 984 
Q 3138 1247 3138 1747 
Q 3138 2247 2948 2509 
Q 2759 2772 2400 2772 
z
" transform="scale(0.015625)"/>
      <path id="DejaVuSans-Bold-65" d="M 4031 1759 
L 4031 1441 
L 1416 1441 
Q 1456 1047 1700 850 
Q 1944 653 2381 653 
Q 2734 653 3104 758 
Q 3475 863 3866 1075 
L 3866 213 
Q 3469 63 3072 -14 
Q 2675 -91 2278 -91 
Q 1328 -91 801 392 
Q 275 875 275 1747 
Q 275 2603 792 3093 
Q 1309 3584 2216 3584 
Q 3041 3584 3536 3087 
Q 4031 2591 4031 1759 
z
M 2881 2131 
Q 2881 2450 2695 2645 
Q 2509 2841 2209 2841 
Q 1884 2841 1681 2658 
Q 1478 2475 1428 2131 
L 2881 2131 
z
" transform="scale(0.015625)"/>
      <path id="DejaVuSans-Bold-61" d="M 2106 1575 
Q 1756 1575 1579 1456 
Q 1403 1338 1403 1106 
Q 1403 894 1545 773 
Q 1688 653 1941 653 
Q 2256 653 2472 879 
Q 2688 1106 2688 1447 
L 2688 1575 
L 2106 1575 
z
M 3816 1997 
L 3816 0 
L 2688 0 
L 2688 519 
Q 2463 200 2181 54 
Q 1900 -91 1497 -91 
Q 953 -91 614 226 
Q 275 544 275 1050 
Q 275 1666 698 1953 
Q 1122 2241 2028 2241 
L 2688 2241 
L 2688 2328 
Q 2688 2594 2478 2717 
Q 2269 2841 1825 2841 
Q 1466 2841 1156 2769 
Q 847 2697 581 2553 
L 581 3406 
Q 941 3494 1303 3539 
Q 1666 3584 2028 3584 
Q 2975 3584 3395 3211 
Q 3816 2838 3816 1997 
z
" transform="scale(0.015625)"/>
      <path id="DejaVuSans-Bold-6b" d="M 538 4863 
L 1656 4863 
L 1656 2216 
L 2944 3500 
L 4244 3500 
L 2534 1894 
L 4378 0 
L 3022 0 
L 1656 1459 
L 1656 0 
L 538 0 
L 538 4863 
z
" transform="scale(0.015625)"/>
      <path id="DejaVuSans-Bold-20" transform="scale(0.015625)"/>
      <path id="DejaVuSans-Bold-28" d="M 2413 -844 
L 1484 -844 
Q 1006 -72 778 623 
Q 550 1319 550 2003 
Q 550 2688 779 3389 
Q 1009 4091 1484 4856 
L 2413 4856 
Q 2013 4116 1813 3408 
Q 1613 2700 1613 2009 
Q 1613 1319 1811 609 
Q 2009 -100 2413 -844 
z
" transform="scale(0.015625)"/>
      <path id="DejaVuSans-Bold-32" d="M 1844 884 
L 3897 884 
L 3897 0 
L 506 0 
L 506 884 
L 2209 2388 
Q 2438 2594 2547 2791 
Q 2656 2988 2656 3200 
Q 2656 3528 2436 3728 
Q 2216 3928 1850 3928 
Q 1569 3928 1234 3808 
Q 900 3688 519 3450 
L 519 4475 
Q 925 4609 1322 4679 
Q 1719 4750 2100 4750 
Q 2938 4750 3402 4381 
Q 3866 4013 3866 3353 
Q 3866 2972 3669 2642 
Q 3472 2313 2841 1759 
L 1844 884 
z
" transform="scale(0.015625)"/>
      <path id="DejaVuSans-Bold-34" d="M 2356 3675 
L 1038 1722 
L 2356 1722 
L 2356 3675 
z
M 2156 4666 
L 3494 4666 
L 3494 1722 
L 4159 1722 
L 4159 850 
L 3494 850 
L 3494 0 
L 2356 0 
L 2356 850 
L 288 850 
L 288 1881 
L 2156 4666 
z
" transform="scale(0.015625)"/>
      <path id="DejaVuSans-Bold-2c" d="M 653 1209 
L 1778 1209 
L 1778 256 
L 1006 -909 
L 341 -909 
L 653 256 
L 653 1209 
z
" transform="scale(0.015625)"/>
      <path id="DejaVuSans-Bold-35" d="M 678 4666 
L 3669 4666 
L 3669 3781 
L 1638 3781 
L 1638 3059 
Q 1775 3097 1914 3117 
Q 2053 3138 2203 3138 
Q 3056 3138 3531 2711 
Q 4006 2284 4006 1522 
Q 4006 766 3489 337 
Q 2972 -91 2053 -91 
Q 1656 -91 1267 -14 
Q 878 63 494 219 
L 494 1166 
Q 875 947 1217 837 
Q 1559 728 1863 728 
Q 2300 728 2551 942 
Q 2803 1156 2803 1522 
Q 2803 1891 2551 2103 
Q 2300 2316 1863 2316 
Q 1603 2316 1309 2248 
Q 1016 2181 678 2041 
L 678 4666 
z
" transform="scale(0.015625)"/>
      <path id="DejaVuSans-Bold-37" d="M 428 4666 
L 3944 4666 
L 3944 3988 
L 2125 0 
L 953 0 
L 2675 3781 
L 428 3781 
L 428 4666 
z
" transform="scale(0.015625)"/>
      <path id="DejaVuSans-Bold-29" d="M 513 -844 
Q 913 -100 1113 609 
Q 1313 1319 1313 2009 
Q 1313 2700 1113 3408 
Q 913 4116 513 4856 
L 1441 4856 
Q 1916 4091 2145 3389 
Q 2375 2688 2375 2003 
Q 2375 1319 2147 623 
Q 1919 -72 1441 -844 
L 513 -844 
z
" transform="scale(0.015625)"/>
     </defs>
     <use xlink:href="#DejaVuSans-Bold-70"/>
     <use xlink:href="#DejaVuSans-Bold-65" x="71.582031"/>
     <use xlink:href="#DejaVuSans-Bold-61" x="139.404297"/>
     <use xlink:href="#DejaVuSans-Bold-6b" x="206.884766"/>
     <use xlink:href="#DejaVuSans-Bold-20" x="273.388672"/>
     <use xlink:href="#DejaVuSans-Bold-28" x="308.203125"/>
     <use xlink:href="#DejaVuSans-Bold-32" x="353.90625"/>
     <use xlink:href="#DejaVuSans-Bold-34" x="423.486328"/>
     <use xlink:href="#DejaVuSans-Bold-2c" x="493.066406"/>
     <use xlink:href="#DejaVuSans-Bold-35" x="531.054688"/>
     <use xlink:href="#DejaVuSans-Bold-37" x="600.634766"/>
     <use xlink:href="#DejaVuSans-Bold-37" x="670.214844"/>
     <use xlink:href="#DejaVuSans-Bold-29" x="739.794922"/>
    </g>
   </g>
   <g id="text_21">
    <!-- mean (5,526) -->
    <g transform="translate(567.728153 197.584976) scale(0.1 -0.1)">
     <defs>
      <path id="DejaVuSans-Bold-6d" d="M 3781 2919 
Q 3994 3244 4286 3414 
Q 4578 3584 4928 3584 
Q 5531 3584 5847 3212 
Q 6163 2841 6163 2131 
L 6163 0 
L 5038 0 
L 5038 1825 
Q 5041 1866 5042 1909 
Q 5044 1953 5044 2034 
Q 5044 2406 4934 2573 
Q 4825 2741 4581 2741 
Q 4263 2741 4089 2478 
Q 3916 2216 3909 1719 
L 3909 0 
L 2784 0 
L 2784 1825 
Q 2784 2406 2684 2573 
Q 2584 2741 2328 2741 
Q 2006 2741 1831 2477 
Q 1656 2213 1656 1722 
L 1656 0 
L 531 0 
L 531 3500 
L 1656 3500 
L 1656 2988 
Q 1863 3284 2130 3434 
Q 2397 3584 2719 3584 
Q 3081 3584 3359 3409 
Q 3638 3234 3781 2919 
z
" transform="scale(0.015625)"/>
      <path id="DejaVuSans-Bold-6e" d="M 4056 2131 
L 4056 0 
L 2931 0 
L 2931 347 
L 2931 1631 
Q 2931 2084 2911 2256 
Q 2891 2428 2841 2509 
Q 2775 2619 2662 2680 
Q 2550 2741 2406 2741 
Q 2056 2741 1856 2470 
Q 1656 2200 1656 1722 
L 1656 0 
L 538 0 
L 538 3500 
L 1656 3500 
L 1656 2988 
Q 1909 3294 2193 3439 
Q 2478 3584 2822 3584 
Q 3428 3584 3742 3212 
Q 4056 2841 4056 2131 
z
" transform="scale(0.015625)"/>
      <path id="DejaVuSans-Bold-36" d="M 2316 2303 
Q 2000 2303 1842 2098 
Q 1684 1894 1684 1484 
Q 1684 1075 1842 870 
Q 2000 666 2316 666 
Q 2634 666 2792 870 
Q 2950 1075 2950 1484 
Q 2950 1894 2792 2098 
Q 2634 2303 2316 2303 
z
M 3803 4544 
L 3803 3681 
Q 3506 3822 3243 3889 
Q 2981 3956 2731 3956 
Q 2194 3956 1894 3657 
Q 1594 3359 1544 2772 
Q 1750 2925 1990 3001 
Q 2231 3078 2516 3078 
Q 3231 3078 3670 2659 
Q 4109 2241 4109 1563 
Q 4109 813 3618 361 
Q 3128 -91 2303 -91 
Q 1394 -91 895 523 
Q 397 1138 397 2266 
Q 397 3422 980 4083 
Q 1563 4744 2578 4744 
Q 2900 4744 3203 4694 
Q 3506 4644 3803 4544 
z
" transform="scale(0.015625)"/>
     </defs>
     <use xlink:href="#DejaVuSans-Bold-6d"/>
     <use xlink:href="#DejaVuSans-Bold-65" x="104.199219"/>
     <use xlink:href="#DejaVuSans-Bold-61" x="172.021484"/>
     <use xlink:href="#DejaVuSans-Bold-6e" x="239.501953"/>
     <use xlink:href="#DejaVuSans-Bold-20" x="310.693359"/>
     <use xlink:href="#DejaVuSans-Bold-28" x="345.507812"/>
     <use xlink:href="#DejaVuSans-Bold-35" x="391.210938"/>
     <use xlink:href="#DejaVuSans-Bold-2c" x="460.791016"/>
     <use xlink:href="#DejaVuSans-Bold-35" x="498.779297"/>
     <use xlink:href="#DejaVuSans-Bold-32" x="568.359375"/>
     <use xlink:href="#DejaVuSans-Bold-36" x="637.939453"/>
     <use xlink:href="#DejaVuSans-Bold-29" x="707.519531"/>
    </g>
   </g>
   <g id="text_22">
    <!-- Stream Bitrate over Time -->
    <g transform="translate(293.189062 28.56) scale(0.12 -0.12)">
     <defs>
      <path id="DejaVuSans-53" d="M 3425 4513 
L 3425 3897 
Q 3066 4069 2747 4153 
Q 2428 4238 2131 4238 
Q 1616 4238 1336 4038 
Q 1056 3838 1056 3469 
Q 1056 3159 1242 3001 
Q 1428 2844 1947 2747 
L 2328 2669 
Q 3034 2534 3370 2195 
Q 3706 1856 3706 1288 
Q 3706 609 3251 259 
Q 2797 -91 1919 -91 
Q 1588 -91 1214 -16 
Q 841 59 441 206 
L 441 856 
Q 825 641 1194 531 
Q 1563 422 1919 422 
Q 2459 422 2753 634 
Q 3047 847 3047 1241 
Q 3047 1584 2836 1778 
Q 2625 1972 2144 2069 
L 1759 2144 
Q 1053 2284 737 2584 
Q 422 2884 422 3419 
Q 422 4038 858 4394 
Q 1294 4750 2059 4750 
Q 2388 4750 2728 4690 
Q 3069 4631 3425 4513 
z
" transform="scale(0.015625)"/>
      <path id="DejaVuSans-6f" d="M 1959 3097 
Q 1497 3097 1228 2736 
Q 959 2375 959 1747 
Q 959 1119 1226 758 
Q 1494 397 1959 397 
Q 2419 397 2687 759 
Q 2956 1122 2956 1747 
Q 2956 2369 2687 2733 
Q 2419 3097 1959 3097 
z
M 1959 3584 
Q 2709 3584 3137 3096 
Q 3566 2609 3566 1747 
Q 3566 888 3137 398 
Q 2709 -91 1959 -91 
Q 1206 -91 779 398 
Q 353 888 353 1747 
Q 353 2609 779 3096 
Q 1206 3584 1959 3584 
z
" transform="scale(0.015625)"/>
      <path id="DejaVuSans-76" d="M 191 3500 
L 800 3500 
L 1894 563 
L 2988 3500 
L 3597 3500 
L 2284 0 
L 1503 0 
L 191 3500 
z
" transform="scale(0.015625)"/>
     </defs>
     <use xlink:href="#DejaVuSans-53"/>
     <use xlink:href="#DejaVuSans-74" x="63.476562"/>
     <use xlink:href="#DejaVuSans-72" x="102.685547"/>
     <use xlink:href="#DejaVuSans-65" x="141.548828"/>
     <use xlink:href="#DejaVuSans-61" x="203.072266"/>
     <use xlink:href="#DejaVuSans-6d" x="264.351562"/>
     <use xlink:href="#DejaVuSans-20" x="361.763672"/>
     <use xlink:href="#DejaVuSans-42" x="393.550781"/>
     <use xlink:href="#DejaVuSans-69" x="462.154297"/>
     <use xlink:href="#DejaVuSans-74" x="489.9375"/>
     <use xlink:href="#DejaVuSans-72" x="529.146484"/>
     <use xlink:href="#DejaVuSans-61" x="570.259766"/>
     <use xlink:href="#DejaVuSans-74" x="631.539062"/>
     <use xlink:href="#DejaVuSans-65" x="670.748047"/>
     <use xlink:href="#DejaVuSans-20" x="732.271484"/>
     <use xlink:href="#DejaVuSans-6f" x="764.058594"/>
     <use xlink:href="#DejaVuSans-76" x="825.240234"/>
     <use xlink:href="#DejaVuSans-65" x="884.419922"/>
     <use xlink:href="#DejaVuSans-72" x="945.943359"/>
     <use xlink:href="#DejaVuSans-20" x="987.056641"/>
     <use xlink:href="#DejaVuSans-54" x="1018.84375"/>
     <use xlink:href="#DejaVuSans-69" x="1076.802734"/>
     <use xlink:href="#DejaVuSans-6d" x="1104.585938"/>
     <use xlink:href="#DejaVuSans-65" x="1201.998047"/>
    </g>
   </g>
   <g id="legend_1">
    <g id="patch_7">
     <path d="M 602.139063 86.594375 
L 641 86.594375 
Q 643 86.594375 643 84.594375 
L 643 41.56 
Q 643 39.56 641 39.56 
L 602.139063 39.56 
Q 600.139063 39.56 600.139063 41.56 
L 600.139063 84.594375 
Q 600.139063 86.594375 602.139063 86.594375 
z
" style="fill: #ffffff; opacity: 0.8; stroke: #cccccc; stroke-linejoin: miter"/>
    </g>
    <g id="patch_8">
     <path d="M 604.139063 51.158438 
L 624.139063 51.158438 
L 624.139063 44.158438 
L 604.139063 44.158438 
z
" style="fill: #ff0000; stroke: #ff0000; stroke-width: 0.5; stroke-linejoin: miter"/>
    </g>
    <g id="text_23">
     <!-- I -->
     <g transform="translate(632.139063 51.158438) scale(0.1 -0.1)">
      <defs>
       <path id="DejaVuSans-49" d="M 628 4666 
L 1259 4666 
L 1259 0 
L 628 0 
L 628 4666 
z
" transform="scale(0.015625)"/>
      </defs>
      <use xlink:href="#DejaVuSans-49"/>
     </g>
    </g>
    <g id="patch_9">
     <path d="M 604.139063 65.836563 
L 624.139063 65.836563 
L 624.139063 58.836563 
L 604.139063 58.836563 
z
" style="fill: #0000ff; stroke: #0000ff; stroke-width: 0.5; stroke-linejoin: miter"/>
    </g>
    <g id="text_24">
     <!-- B -->
     <g transform="translate(632.139063 65.836563) scale(0.1 -0.1)">
      <use xlink:href="#DejaVuSans-42"/>
     </g>
    </g>
    <g id="patch_10">
     <path d="M 604.139063 80.514688 
L 624.139063 80.514688 
L 624.139063 73.514688 
L 604.139063 73.514688 
z
" style="fill: #008000; stroke: #008000; stroke-width: 0.5; stroke-linejoin: miter"/>
    </g>
    <g id="text_25">
     <!-- P -->
     <g transform="translate(632.139063 80.514688) scale(0.1 -0.1)">
      <defs>
       <path id="DejaVuSans-50" d="M 1259 4147 
L 1259 2394 
L 2053 2394 
Q 2494 2394 2734 2622 
Q 2975 2850 2975 3272 
Q 2975 3691 2734 3919 
Q 2494 4147 2053 4147 
L 1259 4147 
z
M 628 4666 
L 2053 4666 
Q 2838 4666 3239 4311 
Q 3641 3956 3641 3272 
Q 3641 2581 3239 2228 
Q 2838 1875 2053 1875 
L 1259 1875 
L 1259 0 
L 628 0 
L 628 4666 
z
" transform="scale(0.015625)"/>
      </defs>
      <use xlink:href="#DejaVuSans-50"/>
     </g>
    </g>
   </g>
  </g>
 </g>
 <defs>
  <clipPath id="pebd86a7252">
   <rect x="90" y="34.56" width="558" height="221.76"/>
  </clipPath>
 </defs>
</svg>
