<?xml version="1.0" encoding="utf-8" standalone="no"?>
<!DOCTYPE svg PUBLIC "-//W3C//DTD SVG 1.1//EN"
  "http://www.w3.org/Graphics/SVG/1.1/DTD/svg11.dtd">
<svg xmlns:xlink="http://www.w3.org/1999/xlink" width="720pt" height="288pt" viewBox="0 0 720 288" xmlns="http://www.w3.org/2000/svg" version="1.1">
 <metadata>
  <rdf:RDF xmlns:dc="http://purl.org/dc/elements/1.1/" xmlns:cc="http://creativecommons.org/ns#" xmlns:rdf="http://www.w3.org/1999/02/22-rdf-syntax-ns#">
   <cc:Work>
    <dc:type rdf:resource="http://purl.org/dc/dcmitype/StillImage"/>
    <dc:date>2023-05-07T14:03:08.108656</dc:date>
    <dc:format>image/svg+xml</dc:format>
    <dc:creator>
     <cc:Agent>
      <dc:title>Matplotlib v3.7.1, https://matplotlib.org/</dc:title>
     </cc:Agent>
    </dc:creator>
   </cc:Work>
  </rdf:RDF>
 </metadata>
 <defs>
  <style type="text/css">*{stroke-linejoin: round; stroke-linecap: butt}</style>
 </defs>
 <g id="figure_1">
  <g id="patch_1">
   <path d="M 0 288 
L 720 288 
L 720 0 
L 0 0 
z
" style="fill: #ffffff"/>
  </g>
  <g id="axes_1">
   <g id="patch_2">
    <path d="M 90 256.32 
L 648 256.32 
L 648 34.56 
L 90 34.56 
z
" style="fill: #ffffff"/>
   </g>
   <g id="matplotlib.axis_1">
    <g id="xtick_1">
     <g id="line2d_1">
      <defs>
       <path id="m39b4690a8c" d="M 0 0 
L 0 3.5 
" style="stroke: #000000; stroke-width: 0.8"/>
      </defs>
      <g>
       <use xlink:href="#m39b4690a8c" x="115.363636" y="256.32" style="stroke: #000000; stroke-width: 0.8"/>
      </g>
     </g>
     <g id="text_1">
      <!-- 0:00:00 -->
      <g transform="translate(96.088636 270.918437) scale(0.1 -0.1)">
       <defs>
        <path id="DejaVuSans-30" d="M 2034 4250 
Q 1547 4250 1301 3770 
Q 1056 3291 1056 2328 
Q 1056 1369 1301 889 
Q 1547 409 2034 409 
Q 2525 409 2770 889 
Q 3016 1369 3016 2328 
Q 3016 3291 2770 3770 
Q 2525 4250 2034 4250 
z
M 2034 4750 
Q 2819 4750 3233 4129 
Q 3647 3509 3647 2328 
Q 3647 1150 3233 529 
Q 2819 -91 2034 -91 
Q 1250 -91 836 529 
Q 422 1150 422 2328 
Q 422 3509 836 4129 
Q 1250 4750 2034 4750 
z
" transform="scale(0.015625)"/>
        <path id="DejaVuSans-3a" d="M 750 794 
L 1409 794 
L 1409 0 
L 750 0 
L 750 794 
z
M 750 3309 
L 1409 3309 
L 1409 2516 
L 750 2516 
L 750 3309 
z
" transform="scale(0.015625)"/>
       </defs>
       <use xlink:href="#DejaVuSans-30"/>
       <use xlink:href="#DejaVuSans-3a" x="63.623047"/>
       <use xlink:href="#DejaVuSans-30" x="97.314453"/>
       <use xlink:href="#DejaVuSans-30" x="160.9375"/>
       <use xlink:href="#DejaVuSans-3a" x="224.560547"/>
       <use xlink:href="#DejaVuSans-30" x="258.251953"/>
       <use xlink:href="#DejaVuSans-30" x="321.875"/>
      </g>
     </g>
    </g>
    <g id="xtick_2">
     <g id="line2d_2">
      <g>
       <use xlink:href="#m39b4690a8c" x="164.814751" y="256.32" style="stroke: #000000; stroke-width: 0.8"/>
      </g>
     </g>
     <g id="text_2">
      <!-- 0:00:31 -->
      <g transform="translate(145.539751 270.918437) scale(0.1 -0.1)">
       <defs>
        <path id="DejaVuSans-33" d="M 2597 2516 
Q 3050 2419 3304 2112 
Q 3559 1806 3559 1356 
Q 3559 666 3084 287 
Q 2609 -91 1734 -91 
Q 1441 -91 1130 -33 
Q 819 25 488 141 
L 488 750 
Q 750 597 1062 519 
Q 1375 441 1716 441 
Q 2309 441 2620 675 
Q 2931 909 2931 1356 
Q 2931 1769 2642 2001 
Q 2353 2234 1838 2234 
L 1294 2234 
L 1294 2753 
L 1863 2753 
Q 2328 2753 2575 2939 
Q 2822 3125 2822 3475 
Q 2822 3834 2567 4026 
Q 2313 4219 1838 4219 
Q 1578 4219 1281 4162 
Q 984 4106 628 3988 
L 628 4550 
Q 988 4650 1302 4700 
Q 1616 4750 1894 4750 
Q 2613 4750 3031 4423 
Q 3450 4097 3450 3541 
Q 3450 3153 3228 2886 
Q 3006 2619 2597 2516 
z
" transform="scale(0.015625)"/>
        <path id="DejaVuSans-31" d="M 794 531 
L 1825 531 
L 1825 4091 
L 703 3866 
L 703 4441 
L 1819 4666 
L 2450 4666 
L 2450 531 
L 3481 531 
L 3481 0 
L 794 0 
L 794 531 
z
" transform="scale(0.015625)"/>
       </defs>
       <use xlink:href="#DejaVuSans-30"/>
       <use xlink:href="#DejaVuSans-3a" x="63.623047"/>
       <use xlink:href="#DejaVuSans-30" x="97.314453"/>
       <use xlink:href="#DejaVuSans-30" x="160.9375"/>
       <use xlink:href="#DejaVuSans-3a" x="224.560547"/>
       <use xlink:href="#DejaVuSans-33" x="258.251953"/>
       <use xlink:href="#DejaVuSans-31" x="321.875"/>
      </g>
     </g>
    </g>
    <g id="xtick_3">
     <g id="line2d_3">
      <g>
       <use xlink:href="#m39b4690a8c" x="214.265866" y="256.32" style="stroke: #000000; stroke-width: 0.8"/>
      </g>
     </g>
     <g id="text_3">
      <!-- 0:01:02 -->
      <g transform="translate(194.990866 270.918437) scale(0.1 -0.1)">
       <defs>
        <path id="DejaVuSans-32" d="M 1228 531 
L 3431 531 
L 3431 0 
L 469 0 
L 469 531 
Q 828 903 1448 1529 
Q 2069 2156 2228 2338 
Q 2531 2678 2651 2914 
Q 2772 3150 2772 3378 
Q 2772 3750 2511 3984 
Q 2250 4219 1831 4219 
Q 1534 4219 1204 4116 
Q 875 4013 500 3803 
L 500 4441 
Q 881 4594 1212 4672 
Q 1544 4750 1819 4750 
Q 2544 4750 2975 4387 
Q 3406 4025 3406 3419 
Q 3406 3131 3298 2873 
Q 3191 2616 2906 2266 
Q 2828 2175 2409 1742 
Q 1991 1309 1228 531 
z
" transform="scale(0.015625)"/>
       </defs>
       <use xlink:href="#DejaVuSans-30"/>
       <use xlink:href="#DejaVuSans-3a" x="63.623047"/>
       <use xlink:href="#DejaVuSans-30" x="97.314453"/>
       <use xlink:href="#DejaVuSans-31" x="160.9375"/>
       <use xlink:href="#DejaVuSans-3a" x="224.560547"/>
       <use xlink:href="#DejaVuSans-30" x="258.251953"/>
       <use xlink:href="#DejaVuSans-32" x="321.875"/>
      </g>
     </g>
    </g>
    <g id="xtick_4">
     <g id="line2d_4">
      <g>
       <use xlink:href="#m39b4690a8c" x="263.716981" y="256.32" style="stroke: #000000; stroke-width: 0.8"/>
      </g>
     </g>
     <g id="text_4">
      <!-- 0:01:33 -->
      <g transform="translate(244.441981 270.918437) scale(0.1 -0.1)">
       <use xlink:href="#DejaVuSans-30"/>
       <use xlink:href="#DejaVuSans-3a" x="63.623047"/>
       <use xlink:href="#DejaVuSans-30" x="97.314453"/>
       <use xlink:href="#DejaVuSans-31" x="160.9375"/>
       <use xlink:href="#DejaVuSans-3a" x="224.560547"/>
       <use xlink:href="#DejaVuSans-33" x="258.251953"/>
       <use xlink:href="#DejaVuSans-33" x="321.875"/>
      </g>
     </g>
    </g>
    <g id="xtick_5">
     <g id="line2d_5">
      <g>
       <use xlink:href="#m39b4690a8c" x="313.168096" y="256.32" style="stroke: #000000; stroke-width: 0.8"/>
      </g>
     </g>
     <g id="text_5">
      <!-- 0:02:04 -->
      <g transform="translate(293.893096 270.918437) scale(0.1 -0.1)">
       <defs>
        <path id="DejaVuSans-34" d="M 2419 4116 
L 825 1625 
L 2419 1625 
L 2419 4116 
z
M 2253 4666 
L 3047 4666 
L 3047 1625 
L 3713 1625 
L 3713 1100 
L 3047 1100 
L 3047 0 
L 2419 0 
L 2419 1100 
L 313 1100 
L 313 1709 
L 2253 4666 
z
" transform="scale(0.015625)"/>
       </defs>
       <use xlink:href="#DejaVuSans-30"/>
       <use xlink:href="#DejaVuSans-3a" x="63.623047"/>
       <use xlink:href="#DejaVuSans-30" x="97.314453"/>
       <use xlink:href="#DejaVuSans-32" x="160.9375"/>
       <use xlink:href="#DejaVuSans-3a" x="224.560547"/>
       <use xlink:href="#DejaVuSans-30" x="258.251953"/>
       <use xlink:href="#DejaVuSans-34" x="321.875"/>
      </g>
     </g>
    </g>
    <g id="xtick_6">
     <g id="line2d_6">
      <g>
       <use xlink:href="#m39b4690a8c" x="362.619211" y="256.32" style="stroke: #000000; stroke-width: 0.8"/>
      </g>
     </g>
     <g id="text_6">
      <!-- 0:02:35 -->
      <g transform="translate(343.344211 270.918437) scale(0.1 -0.1)">
       <defs>
        <path id="DejaVuSans-35" d="M 691 4666 
L 3169 4666 
L 3169 4134 
L 1269 4134 
L 1269 2991 
Q 1406 3038 1543 3061 
Q 1681 3084 1819 3084 
Q 2600 3084 3056 2656 
Q 3513 2228 3513 1497 
Q 3513 744 3044 326 
Q 2575 -91 1722 -91 
Q 1428 -91 1123 -41 
Q 819 9 494 109 
L 494 744 
Q 775 591 1075 516 
Q 1375 441 1709 441 
Q 2250 441 2565 725 
Q 2881 1009 2881 1497 
Q 2881 1984 2565 2268 
Q 2250 2553 1709 2553 
Q 1456 2553 1204 2497 
Q 953 2441 691 2322 
L 691 4666 
z
" transform="scale(0.015625)"/>
       </defs>
       <use xlink:href="#DejaVuSans-30"/>
       <use xlink:href="#DejaVuSans-3a" x="63.623047"/>
       <use xlink:href="#DejaVuSans-30" x="97.314453"/>
       <use xlink:href="#DejaVuSans-32" x="160.9375"/>
       <use xlink:href="#DejaVuSans-3a" x="224.560547"/>
       <use xlink:href="#DejaVuSans-33" x="258.251953"/>
       <use xlink:href="#DejaVuSans-35" x="321.875"/>
      </g>
     </g>
    </g>
    <g id="xtick_7">
     <g id="line2d_7">
      <g>
       <use xlink:href="#m39b4690a8c" x="412.070326" y="256.32" style="stroke: #000000; stroke-width: 0.8"/>
      </g>
     </g>
     <g id="text_7">
      <!-- 0:03:06 -->
      <g transform="translate(392.795326 270.918437) scale(0.1 -0.1)">
       <defs>
        <path id="DejaVuSans-36" d="M 2113 2584 
Q 1688 2584 1439 2293 
Q 1191 2003 1191 1497 
Q 1191 994 1439 701 
Q 1688 409 2113 409 
Q 2538 409 2786 701 
Q 3034 994 3034 1497 
Q 3034 2003 2786 2293 
Q 2538 2584 2113 2584 
z
M 3366 4563 
L 3366 3988 
Q 3128 4100 2886 4159 
Q 2644 4219 2406 4219 
Q 1781 4219 1451 3797 
Q 1122 3375 1075 2522 
Q 1259 2794 1537 2939 
Q 1816 3084 2150 3084 
Q 2853 3084 3261 2657 
Q 3669 2231 3669 1497 
Q 3669 778 3244 343 
Q 2819 -91 2113 -91 
Q 1303 -91 875 529 
Q 447 1150 447 2328 
Q 447 3434 972 4092 
Q 1497 4750 2381 4750 
Q 2619 4750 2861 4703 
Q 3103 4656 3366 4563 
z
" transform="scale(0.015625)"/>
       </defs>
       <use xlink:href="#DejaVuSans-30"/>
       <use xlink:href="#DejaVuSans-3a" x="63.623047"/>
       <use xlink:href="#DejaVuSans-30" x="97.314453"/>
       <use xlink:href="#DejaVuSans-33" x="160.9375"/>
       <use xlink:href="#DejaVuSans-3a" x="224.560547"/>
       <use xlink:href="#DejaVuSans-30" x="258.251953"/>
       <use xlink:href="#DejaVuSans-36" x="321.875"/>
      </g>
     </g>
    </g>
    <g id="xtick_8">
     <g id="line2d_8">
      <g>
       <use xlink:href="#m39b4690a8c" x="461.521441" y="256.32" style="stroke: #000000; stroke-width: 0.8"/>
      </g>
     </g>
     <g id="text_8">
      <!-- 0:03:37 -->
      <g transform="translate(442.246441 270.918437) scale(0.1 -0.1)">
       <defs>
        <path id="DejaVuSans-37" d="M 525 4666 
L 3525 4666 
L 3525 4397 
L 1831 0 
L 1172 0 
L 2766 4134 
L 525 4134 
L 525 4666 
z
" transform="scale(0.015625)"/>
       </defs>
       <use xlink:href="#DejaVuSans-30"/>
       <use xlink:href="#DejaVuSans-3a" x="63.623047"/>
       <use xlink:href="#DejaVuSans-30" x="97.314453"/>
       <use xlink:href="#DejaVuSans-33" x="160.9375"/>
       <use xlink:href="#DejaVuSans-3a" x="224.560547"/>
       <use xlink:href="#DejaVuSans-33" x="258.251953"/>
       <use xlink:href="#DejaVuSans-37" x="321.875"/>
      </g>
     </g>
    </g>
    <g id="xtick_9">
     <g id="line2d_9">
      <g>
       <use xlink:href="#m39b4690a8c" x="510.972556" y="256.32" style="stroke: #000000; stroke-width: 0.8"/>
      </g>
     </g>
     <g id="text_9">
      <!-- 0:04:08 -->
      <g transform="translate(491.697556 270.918437) scale(0.1 -0.1)">
       <defs>
        <path id="DejaVuSans-38" d="M 2034 2216 
Q 1584 2216 1326 1975 
Q 1069 1734 1069 1313 
Q 1069 891 1326 650 
Q 1584 409 2034 409 
Q 2484 409 2743 651 
Q 3003 894 3003 1313 
Q 3003 1734 2745 1975 
Q 2488 2216 2034 2216 
z
M 1403 2484 
Q 997 2584 770 2862 
Q 544 3141 544 3541 
Q 544 4100 942 4425 
Q 1341 4750 2034 4750 
Q 2731 4750 3128 4425 
Q 3525 4100 3525 3541 
Q 3525 3141 3298 2862 
Q 3072 2584 2669 2484 
Q 3125 2378 3379 2068 
Q 3634 1759 3634 1313 
Q 3634 634 3220 271 
Q 2806 -91 2034 -91 
Q 1263 -91 848 271 
Q 434 634 434 1313 
Q 434 1759 690 2068 
Q 947 2378 1403 2484 
z
M 1172 3481 
Q 1172 3119 1398 2916 
Q 1625 2713 2034 2713 
Q 2441 2713 2670 2916 
Q 2900 3119 2900 3481 
Q 2900 3844 2670 4047 
Q 2441 4250 2034 4250 
Q 1625 4250 1398 4047 
Q 1172 3844 1172 3481 
z
" transform="scale(0.015625)"/>
       </defs>
       <use xlink:href="#DejaVuSans-30"/>
       <use xlink:href="#DejaVuSans-3a" x="63.623047"/>
       <use xlink:href="#DejaVuSans-30" x="97.314453"/>
       <use xlink:href="#DejaVuSans-34" x="160.9375"/>
       <use xlink:href="#DejaVuSans-3a" x="224.560547"/>
       <use xlink:href="#DejaVuSans-30" x="258.251953"/>
       <use xlink:href="#DejaVuSans-38" x="321.875"/>
      </g>
     </g>
    </g>
    <g id="xtick_10">
     <g id="line2d_10">
      <g>
       <use xlink:href="#m39b4690a8c" x="560.423671" y="256.32" style="stroke: #000000; stroke-width: 0.8"/>
      </g>
     </g>
     <g id="text_10">
      <!-- 0:04:39 -->
      <g transform="translate(541.148671 270.918437) scale(0.1 -0.1)">
       <defs>
        <path id="DejaVuSans-39" d="M 703 97 
L 703 672 
Q 941 559 1184 500 
Q 1428 441 1663 441 
Q 2288 441 2617 861 
Q 2947 1281 2994 2138 
Q 2813 1869 2534 1725 
Q 2256 1581 1919 1581 
Q 1219 1581 811 2004 
Q 403 2428 403 3163 
Q 403 3881 828 4315 
Q 1253 4750 1959 4750 
Q 2769 4750 3195 4129 
Q 3622 3509 3622 2328 
Q 3622 1225 3098 567 
Q 2575 -91 1691 -91 
Q 1453 -91 1209 -44 
Q 966 3 703 97 
z
M 1959 2075 
Q 2384 2075 2632 2365 
Q 2881 2656 2881 3163 
Q 2881 3666 2632 3958 
Q 2384 4250 1959 4250 
Q 1534 4250 1286 3958 
Q 1038 3666 1038 3163 
Q 1038 2656 1286 2365 
Q 1534 2075 1959 2075 
z
" transform="scale(0.015625)"/>
       </defs>
       <use xlink:href="#DejaVuSans-30"/>
       <use xlink:href="#DejaVuSans-3a" x="63.623047"/>
       <use xlink:href="#DejaVuSans-30" x="97.314453"/>
       <use xlink:href="#DejaVuSans-34" x="160.9375"/>
       <use xlink:href="#DejaVuSans-3a" x="224.560547"/>
       <use xlink:href="#DejaVuSans-33" x="258.251953"/>
       <use xlink:href="#DejaVuSans-39" x="321.875"/>
      </g>
     </g>
    </g>
    <g id="xtick_11">
     <g id="line2d_11">
      <g>
       <use xlink:href="#m39b4690a8c" x="609.874786" y="256.32" style="stroke: #000000; stroke-width: 0.8"/>
      </g>
     </g>
     <g id="text_11">
      <!-- 0:05:10 -->
      <g transform="translate(590.599786 270.918437) scale(0.1 -0.1)">
       <use xlink:href="#DejaVuSans-30"/>
       <use xlink:href="#DejaVuSans-3a" x="63.623047"/>
       <use xlink:href="#DejaVuSans-30" x="97.314453"/>
       <use xlink:href="#DejaVuSans-35" x="160.9375"/>
       <use xlink:href="#DejaVuSans-3a" x="224.560547"/>
       <use xlink:href="#DejaVuSans-31" x="258.251953"/>
       <use xlink:href="#DejaVuSans-30" x="321.875"/>
      </g>
     </g>
    </g>
    <g id="text_12">
     <!-- Time -->
     <g transform="translate(356.766406 284.596563) scale(0.1 -0.1)">
      <defs>
       <path id="DejaVuSans-54" d="M -19 4666 
L 3928 4666 
L 3928 4134 
L 2272 4134 
L 2272 0 
L 1638 0 
L 1638 4134 
L -19 4134 
L -19 4666 
z
" transform="scale(0.015625)"/>
       <path id="DejaVuSans-69" d="M 603 3500 
L 1178 3500 
L 1178 0 
L 603 0 
L 603 3500 
z
M 603 4863 
L 1178 4863 
L 1178 4134 
L 603 4134 
L 603 4863 
z
" transform="scale(0.015625)"/>
       <path id="DejaVuSans-6d" d="M 3328 2828 
Q 3544 3216 3844 3400 
Q 4144 3584 4550 3584 
Q 5097 3584 5394 3201 
Q 5691 2819 5691 2113 
L 5691 0 
L 5113 0 
L 5113 2094 
Q 5113 2597 4934 2840 
Q 4756 3084 4391 3084 
Q 3944 3084 3684 2787 
Q 3425 2491 3425 1978 
L 3425 0 
L 2847 0 
L 2847 2094 
Q 2847 2600 2669 2842 
Q 2491 3084 2119 3084 
Q 1678 3084 1418 2786 
Q 1159 2488 1159 1978 
L 1159 0 
L 581 0 
L 581 3500 
L 1159 3500 
L 1159 2956 
Q 1356 3278 1631 3431 
Q 1906 3584 2284 3584 
Q 2666 3584 2933 3390 
Q 3200 3197 3328 2828 
z
" transform="scale(0.015625)"/>
       <path id="DejaVuSans-65" d="M 3597 1894 
L 3597 1613 
L 953 1613 
Q 991 1019 1311 708 
Q 1631 397 2203 397 
Q 2534 397 2845 478 
Q 3156 559 3463 722 
L 3463 178 
Q 3153 47 2828 -22 
Q 2503 -91 2169 -91 
Q 1331 -91 842 396 
Q 353 884 353 1716 
Q 353 2575 817 3079 
Q 1281 3584 2069 3584 
Q 2775 3584 3186 3129 
Q 3597 2675 3597 1894 
z
M 3022 2063 
Q 3016 2534 2758 2815 
Q 2500 3097 2075 3097 
Q 1594 3097 1305 2825 
Q 1016 2553 972 2059 
L 3022 2063 
z
" transform="scale(0.015625)"/>
      </defs>
      <use xlink:href="#DejaVuSans-54"/>
      <use xlink:href="#DejaVuSans-69" x="57.958984"/>
      <use xlink:href="#DejaVuSans-6d" x="85.742188"/>
      <use xlink:href="#DejaVuSans-65" x="183.154297"/>
     </g>
    </g>
   </g>
   <g id="matplotlib.axis_2">
    <g id="ytick_1">
     <g id="line2d_12">
      <path d="M 90 246.24 
L 648 246.24 
" clip-path="url(#pf5d744965e)" style="fill: none; stroke: #b0b0b0; stroke-width: 0.8; stroke-linecap: square"/>
     </g>
     <g id="line2d_13">
      <defs>
       <path id="mc75536b7af" d="M 0 0 
L -3.5 0 
" style="stroke: #000000; stroke-width: 0.8"/>
      </defs>
      <g>
       <use xlink:href="#mc75536b7af" x="90" y="246.24" style="stroke: #000000; stroke-width: 0.8"/>
      </g>
     </g>
     <g id="text_13">
      <!-- 0 -->
      <g transform="translate(76.6375 250.039219) scale(0.1 -0.1)">
       <use xlink:href="#DejaVuSans-30"/>
      </g>
     </g>
    </g>
    <g id="ytick_2">
     <g id="line2d_14">
      <path d="M 90 206.433504 
L 648 206.433504 
" clip-path="url(#pf5d744965e)" style="fill: none; stroke: #b0b0b0; stroke-width: 0.8; stroke-linecap: square"/>
     </g>
     <g id="line2d_15">
      <g>
       <use xlink:href="#mc75536b7af" x="90" y="206.433504" style="stroke: #000000; stroke-width: 0.8"/>
      </g>
     </g>
     <g id="text_14">
      <!-- 2,000 -->
      <g transform="translate(54.371875 210.232723) scale(0.1 -0.1)">
       <defs>
        <path id="DejaVuSans-2c" d="M 750 794 
L 1409 794 
L 1409 256 
L 897 -744 
L 494 -744 
L 750 256 
L 750 794 
z
" transform="scale(0.015625)"/>
       </defs>
       <use xlink:href="#DejaVuSans-32"/>
       <use xlink:href="#DejaVuSans-2c" x="63.623047"/>
       <use xlink:href="#DejaVuSans-30" x="95.410156"/>
       <use xlink:href="#DejaVuSans-30" x="159.033203"/>
       <use xlink:href="#DejaVuSans-30" x="222.65625"/>
      </g>
     </g>
    </g>
    <g id="ytick_3">
     <g id="line2d_16">
      <path d="M 90 166.627008 
L 648 166.627008 
" clip-path="url(#pf5d744965e)" style="fill: none; stroke: #b0b0b0; stroke-width: 0.8; stroke-linecap: square"/>
     </g>
     <g id="line2d_17">
      <g>
       <use xlink:href="#mc75536b7af" x="90" y="166.627008" style="stroke: #000000; stroke-width: 0.8"/>
      </g>
     </g>
     <g id="text_15">
      <!-- 4,000 -->
      <g transform="translate(54.371875 170.426226) scale(0.1 -0.1)">
       <use xlink:href="#DejaVuSans-34"/>
       <use xlink:href="#DejaVuSans-2c" x="63.623047"/>
       <use xlink:href="#DejaVuSans-30" x="95.410156"/>
       <use xlink:href="#DejaVuSans-30" x="159.033203"/>
       <use xlink:href="#DejaVuSans-30" x="222.65625"/>
      </g>
     </g>
    </g>
    <g id="ytick_4">
     <g id="line2d_18">
      <path d="M 90 126.820511 
L 648 126.820511 
" clip-path="url(#pf5d744965e)" style="fill: none; stroke: #b0b0b0; stroke-width: 0.8; stroke-linecap: square"/>
     </g>
     <g id="line2d_19">
      <g>
       <use xlink:href="#mc75536b7af" x="90" y="126.820511" style="stroke: #000000; stroke-width: 0.8"/>
      </g>
     </g>
     <g id="text_16">
      <!-- 6,000 -->
      <g transform="translate(54.371875 130.61973) scale(0.1 -0.1)">
       <use xlink:href="#DejaVuSans-36"/>
       <use xlink:href="#DejaVuSans-2c" x="63.623047"/>
       <use xlink:href="#DejaVuSans-30" x="95.410156"/>
       <use xlink:href="#DejaVuSans-30" x="159.033203"/>
       <use xlink:href="#DejaVuSans-30" x="222.65625"/>
      </g>
     </g>
    </g>
    <g id="ytick_5">
     <g id="line2d_20">
      <path d="M 90 87.014015 
L 648 87.014015 
" clip-path="url(#pf5d744965e)" style="fill: none; stroke: #b0b0b0; stroke-width: 0.8; stroke-linecap: square"/>
     </g>
     <g id="line2d_21">
      <g>
       <use xlink:href="#mc75536b7af" x="90" y="87.014015" style="stroke: #000000; stroke-width: 0.8"/>
      </g>
     </g>
     <g id="text_17">
      <!-- 8,000 -->
      <g transform="translate(54.371875 90.813234) scale(0.1 -0.1)">
       <use xlink:href="#DejaVuSans-38"/>
       <use xlink:href="#DejaVuSans-2c" x="63.623047"/>
       <use xlink:href="#DejaVuSans-30" x="95.410156"/>
       <use xlink:href="#DejaVuSans-30" x="159.033203"/>
       <use xlink:href="#DejaVuSans-30" x="222.65625"/>
      </g>
     </g>
    </g>
    <g id="ytick_6">
     <g id="line2d_22">
      <path d="M 90 47.207519 
L 648 47.207519 
" clip-path="url(#pf5d744965e)" style="fill: none; stroke: #b0b0b0; stroke-width: 0.8; stroke-linecap: square"/>
     </g>
     <g id="line2d_23">
      <g>
       <use xlink:href="#mc75536b7af" x="90" y="47.207519" style="stroke: #000000; stroke-width: 0.8"/>
      </g>
     </g>
     <g id="text_18">
      <!-- 10,000 -->
      <g transform="translate(48.009375 51.006738) scale(0.1 -0.1)">
       <use xlink:href="#DejaVuSans-31"/>
       <use xlink:href="#DejaVuSans-30" x="63.623047"/>
       <use xlink:href="#DejaVuSans-2c" x="127.246094"/>
       <use xlink:href="#DejaVuSans-30" x="159.033203"/>
       <use xlink:href="#DejaVuSans-30" x="222.65625"/>
       <use xlink:href="#DejaVuSans-30" x="286.279297"/>
      </g>
     </g>
    </g>
    <g id="text_19">
     <!-- Bitrate (kbit/s) -->
     <g transform="translate(41.929688 181.574375) rotate(-90) scale(0.1 -0.1)">
      <defs>
       <path id="DejaVuSans-42" d="M 1259 2228 
L 1259 519 
L 2272 519 
Q 2781 519 3026 730 
Q 3272 941 3272 1375 
Q 3272 1813 3026 2020 
Q 2781 2228 2272 2228 
L 1259 2228 
z
M 1259 4147 
L 1259 2741 
L 2194 2741 
Q 2656 2741 2882 2914 
Q 3109 3088 3109 3444 
Q 3109 3797 2882 3972 
Q 2656 4147 2194 4147 
L 1259 4147 
z
M 628 4666 
L 2241 4666 
Q 2963 4666 3353 4366 
Q 3744 4066 3744 3513 
Q 3744 3084 3544 2831 
Q 3344 2578 2956 2516 
Q 3422 2416 3680 2098 
Q 3938 1781 3938 1306 
Q 3938 681 3513 340 
Q 3088 0 2303 0 
L 628 0 
L 628 4666 
z
" transform="scale(0.015625)"/>
       <path id="DejaVuSans-74" d="M 1172 4494 
L 1172 3500 
L 2356 3500 
L 2356 3053 
L 1172 3053 
L 1172 1153 
Q 1172 725 1289 603 
Q 1406 481 1766 481 
L 2356 481 
L 2356 0 
L 1766 0 
Q 1100 0 847 248 
Q 594 497 594 1153 
L 594 3053 
L 172 3053 
L 172 3500 
L 594 3500 
L 594 4494 
L 1172 4494 
z
" transform="scale(0.015625)"/>
       <path id="DejaVuSans-72" d="M 2631 2963 
Q 2534 3019 2420 3045 
Q 2306 3072 2169 3072 
Q 1681 3072 1420 2755 
Q 1159 2438 1159 1844 
L 1159 0 
L 581 0 
L 581 3500 
L 1159 3500 
L 1159 2956 
Q 1341 3275 1631 3429 
Q 1922 3584 2338 3584 
Q 2397 3584 2469 3576 
Q 2541 3569 2628 3553 
L 2631 2963 
z
" transform="scale(0.015625)"/>
       <path id="DejaVuSans-61" d="M 2194 1759 
Q 1497 1759 1228 1600 
Q 959 1441 959 1056 
Q 959 750 1161 570 
Q 1363 391 1709 391 
Q 2188 391 2477 730 
Q 2766 1069 2766 1631 
L 2766 1759 
L 2194 1759 
z
M 3341 1997 
L 3341 0 
L 2766 0 
L 2766 531 
Q 2569 213 2275 61 
Q 1981 -91 1556 -91 
Q 1019 -91 701 211 
Q 384 513 384 1019 
Q 384 1609 779 1909 
Q 1175 2209 1959 2209 
L 2766 2209 
L 2766 2266 
Q 2766 2663 2505 2880 
Q 2244 3097 1772 3097 
Q 1472 3097 1187 3025 
Q 903 2953 641 2809 
L 641 3341 
Q 956 3463 1253 3523 
Q 1550 3584 1831 3584 
Q 2591 3584 2966 3190 
Q 3341 2797 3341 1997 
z
" transform="scale(0.015625)"/>
       <path id="DejaVuSans-20" transform="scale(0.015625)"/>
       <path id="DejaVuSans-28" d="M 1984 4856 
Q 1566 4138 1362 3434 
Q 1159 2731 1159 2009 
Q 1159 1288 1364 580 
Q 1569 -128 1984 -844 
L 1484 -844 
Q 1016 -109 783 600 
Q 550 1309 550 2009 
Q 550 2706 781 3412 
Q 1013 4119 1484 4856 
L 1984 4856 
z
" transform="scale(0.015625)"/>
       <path id="DejaVuSans-6b" d="M 581 4863 
L 1159 4863 
L 1159 1991 
L 2875 3500 
L 3609 3500 
L 1753 1863 
L 3688 0 
L 2938 0 
L 1159 1709 
L 1159 0 
L 581 0 
L 581 4863 
z
" transform="scale(0.015625)"/>
       <path id="DejaVuSans-62" d="M 3116 1747 
Q 3116 2381 2855 2742 
Q 2594 3103 2138 3103 
Q 1681 3103 1420 2742 
Q 1159 2381 1159 1747 
Q 1159 1113 1420 752 
Q 1681 391 2138 391 
Q 2594 391 2855 752 
Q 3116 1113 3116 1747 
z
M 1159 2969 
Q 1341 3281 1617 3432 
Q 1894 3584 2278 3584 
Q 2916 3584 3314 3078 
Q 3713 2572 3713 1747 
Q 3713 922 3314 415 
Q 2916 -91 2278 -91 
Q 1894 -91 1617 61 
Q 1341 213 1159 525 
L 1159 0 
L 581 0 
L 581 4863 
L 1159 4863 
L 1159 2969 
z
" transform="scale(0.015625)"/>
       <path id="DejaVuSans-2f" d="M 1625 4666 
L 2156 4666 
L 531 -594 
L 0 -594 
L 1625 4666 
z
" transform="scale(0.015625)"/>
       <path id="DejaVuSans-73" d="M 2834 3397 
L 2834 2853 
Q 2591 2978 2328 3040 
Q 2066 3103 1784 3103 
Q 1356 3103 1142 2972 
Q 928 2841 928 2578 
Q 928 2378 1081 2264 
Q 1234 2150 1697 2047 
L 1894 2003 
Q 2506 1872 2764 1633 
Q 3022 1394 3022 966 
Q 3022 478 2636 193 
Q 2250 -91 1575 -91 
Q 1294 -91 989 -36 
Q 684 19 347 128 
L 347 722 
Q 666 556 975 473 
Q 1284 391 1588 391 
Q 1994 391 2212 530 
Q 2431 669 2431 922 
Q 2431 1156 2273 1281 
Q 2116 1406 1581 1522 
L 1381 1569 
Q 847 1681 609 1914 
Q 372 2147 372 2553 
Q 372 3047 722 3315 
Q 1072 3584 1716 3584 
Q 2034 3584 2315 3537 
Q 2597 3491 2834 3397 
z
" transform="scale(0.015625)"/>
       <path id="DejaVuSans-29" d="M 513 4856 
L 1013 4856 
Q 1481 4119 1714 3412 
Q 1947 2706 1947 2009 
Q 1947 1309 1714 600 
Q 1481 -109 1013 -844 
L 513 -844 
Q 928 -128 1133 580 
Q 1338 1288 1338 2009 
Q 1338 2731 1133 3434 
Q 928 4138 513 4856 
z
" transform="scale(0.015625)"/>
      </defs>
      <use xlink:href="#DejaVuSans-42"/>
      <use xlink:href="#DejaVuSans-69" x="68.603516"/>
      <use xlink:href="#DejaVuSans-74" x="96.386719"/>
      <use xlink:href="#DejaVuSans-72" x="135.595703"/>
      <use xlink:href="#DejaVuSans-61" x="176.708984"/>
      <use xlink:href="#DejaVuSans-74" x="237.988281"/>
      <use xlink:href="#DejaVuSans-65" x="277.197266"/>
      <use xlink:href="#DejaVuSans-20" x="338.720703"/>
      <use xlink:href="#DejaVuSans-28" x="370.507812"/>
      <use xlink:href="#DejaVuSans-6b" x="409.521484"/>
      <use xlink:href="#DejaVuSans-62" x="467.431641"/>
      <use xlink:href="#DejaVuSans-69" x="530.908203"/>
      <use xlink:href="#DejaVuSans-74" x="558.691406"/>
      <use xlink:href="#DejaVuSans-2f" x="597.900391"/>
      <use xlink:href="#DejaVuSans-73" x="631.591797"/>
      <use xlink:href="#DejaVuSans-29" x="683.691406"/>
     </g>
    </g>
   </g>
   <g id="PolyCollection_1">
    <defs>
     <path id="m1505e187b8" d="M 115.363636 -49.382944 
L 115.363636 -41.76 
L 116.958834 -41.76 
L 118.554031 -41.76 
L 120.149228 -41.76 
L 121.744425 -41.76 
L 123.339623 -41.76 
L 124.93482 -41.76 
L 126.530017 -41.76 
L 128.125214 -41.76 
L 129.720412 -41.76 
L 131.315609 -41.76 
L 132.910806 -41.76 
L 134.506003 -41.76 
L 136.101201 -41.76 
L 137.696398 -41.76 
L 139.291595 -41.76 
L 140.886792 -41.76 
L 142.48199 -41.76 
L 144.077187 -41.76 
L 145.672384 -41.76 
L 147.267581 -41.76 
L 148.862779 -41.76 
L 150.457976 -41.76 
L 152.053173 -41.76 
L 153.64837 -41.76 
L 155.243568 -41.76 
L 156.838765 -41.76 
L 158.433962 -41.76 
L 160.02916 -41.76 
L 161.624357 -41.76 
L 163.219554 -41.76 
L 164.814751 -41.76 
L 166.409949 -41.76 
L 168.005146 -41.76 
L 169.600343 -41.76 
L 171.19554 -41.76 
L 172.790738 -41.76 
L 174.385935 -41.76 
L 175.981132 -41.76 
L 177.576329 -41.76 
L 179.171527 -41.76 
L 180.766724 -41.76 
L 182.361921 -41.76 
L 183.957118 -41.76 
L 185.552316 -41.76 
L 187.147513 -41.76 
L 188.74271 -41.76 
L 190.337907 -41.76 
L 191.933105 -41.76 
L 193.528302 -41.76 
L 195.123499 -41.76 
L 196.718696 -41.76 
L 198.313894 -41.76 
L 199.909091 -41.76 
L 201.504288 -41.76 
L 203.099485 -41.76 
L 204.694683 -41.76 
L 206.28988 -41.76 
L 207.885077 -41.76 
L 209.480274 -41.76 
L 211.075472 -41.76 
L 212.670669 -41.76 
L 214.265866 -41.76 
L 215.861063 -41.76 
L 217.456261 -41.76 
L 219.051458 -41.76 
L 220.646655 -41.76 
L 222.241852 -41.76 
L 223.83705 -41.76 
L 225.432247 -41.76 
L 227.027444 -41.76 
L 228.622642 -41.76 
L 230.217839 -41.76 
L 231.813036 -41.76 
L 233.408233 -41.76 
L 235.003431 -41.76 
L 236.598628 -41.76 
L 238.193825 -41.76 
L 239.789022 -41.76 
L 241.38422 -41.76 
L 242.979417 -41.76 
L 244.574614 -41.76 
L 246.169811 -41.76 
L 247.765009 -41.76 
L 249.360206 -41.76 
L 250.955403 -41.76 
L 252.5506 -41.76 
L 254.145798 -41.76 
L 255.740995 -41.76 
L 257.336192 -41.76 
L 258.931389 -41.76 
L 260.526587 -41.76 
L 262.121784 -41.76 
L 263.716981 -41.76 
L 265.312178 -41.76 
L 266.907376 -41.76 
L 268.502573 -41.76 
L 270.09777 -41.76 
L 271.692967 -41.76 
L 273.288165 -41.76 
L 274.883362 -41.76 
L 276.478559 -41.76 
L 278.073756 -41.76 
L 279.668954 -41.76 
L 281.264151 -41.76 
L 282.859348 -41.76 
L 284.454545 -41.76 
L 286.049743 -41.76 
L 287.64494 -41.76 
L 289.240137 -41.76 
L 290.835334 -41.76 
L 292.430532 -41.76 
L 294.025729 -41.76 
L 295.620926 -41.76 
L 297.216123 -41.76 
L 298.811321 -41.76 
L 300.406518 -41.76 
L 302.001715 -41.76 
L 303.596913 -41.76 
L 305.19211 -41.76 
L 306.787307 -41.76 
L 308.382504 -41.76 
L 309.977702 -41.76 
L 311.572899 -41.76 
L 313.168096 -41.76 
L 314.763293 -41.76 
L 316.358491 -41.76 
L 317.953688 -41.76 
L 319.548885 -41.76 
L 321.144082 -41.76 
L 322.73928 -41.76 
L 324.334477 -41.76 
L 325.929674 -41.76 
L 327.524871 -41.76 
L 329.120069 -41.76 
L 330.715266 -41.76 
L 332.310463 -41.76 
L 333.90566 -41.76 
L 335.500858 -41.76 
L 337.096055 -41.76 
L 338.691252 -41.76 
L 340.286449 -41.76 
L 341.881647 -41.76 
L 343.476844 -41.76 
L 345.072041 -41.76 
L 346.667238 -41.76 
L 348.262436 -41.76 
L 349.857633 -41.76 
L 351.45283 -41.76 
L 353.048027 -41.76 
L 354.643225 -41.76 
L 356.238422 -41.76 
L 357.833619 -41.76 
L 359.428816 -41.76 
L 361.024014 -41.76 
L 362.619211 -41.76 
L 364.214408 -41.76 
L 365.809605 -41.76 
L 367.404803 -41.76 
L 369 -41.76 
L 370.595197 -41.76 
L 372.190395 -41.76 
L 373.785592 -41.76 
L 375.380789 -41.76 
L 376.975986 -41.76 
L 378.571184 -41.76 
L 380.166381 -41.76 
L 381.761578 -41.76 
L 383.356775 -41.76 
L 384.951973 -41.76 
L 386.54717 -41.76 
L 388.142367 -41.76 
L 389.737564 -41.76 
L 391.332762 -41.76 
L 392.927959 -41.76 
L 394.523156 -41.76 
L 396.118353 -41.76 
L 397.713551 -41.76 
L 399.308748 -41.76 
L 400.903945 -41.76 
L 402.499142 -41.76 
L 404.09434 -41.76 
L 405.689537 -41.76 
L 407.284734 -41.76 
L 408.879931 -41.76 
L 410.475129 -41.76 
L 412.070326 -41.76 
L 413.665523 -41.76 
L 415.26072 -41.76 
L 416.855918 -41.76 
L 418.451115 -41.76 
L 420.046312 -41.76 
L 421.641509 -41.76 
L 423.236707 -41.76 
L 424.831904 -41.76 
L 426.427101 -41.76 
L 428.022298 -41.76 
L 429.617496 -41.76 
L 431.212693 -41.76 
L 432.80789 -41.76 
L 434.403087 -41.76 
L 435.998285 -41.76 
L 437.593482 -41.76 
L 439.188679 -41.76 
L 440.783877 -41.76 
L 442.379074 -41.76 
L 443.974271 -41.76 
L 445.569468 -41.76 
L 447.164666 -41.76 
L 448.759863 -41.76 
L 450.35506 -41.76 
L 451.950257 -41.76 
L 453.545455 -41.76 
L 455.140652 -41.76 
L 456.735849 -41.76 
L 458.331046 -41.76 
L 459.926244 -41.76 
L 461.521441 -41.76 
L 463.116638 -41.76 
L 464.711835 -41.76 
L 466.307033 -41.76 
L 467.90223 -41.76 
L 469.497427 -41.76 
L 471.092624 -41.76 
L 472.687822 -41.76 
L 474.283019 -41.76 
L 475.878216 -41.76 
L 477.473413 -41.76 
L 479.068611 -41.76 
L 480.663808 -41.76 
L 482.259005 -41.76 
L 483.854202 -41.76 
L 485.4494 -41.76 
L 487.044597 -41.76 
L 488.639794 -41.76 
L 490.234991 -41.76 
L 491.830189 -41.76 
L 493.425386 -41.76 
L 495.020583 -41.76 
L 496.61578 -41.76 
L 498.210978 -41.76 
L 499.806175 -41.76 
L 501.401372 -41.76 
L 502.996569 -41.76 
L 504.591767 -41.76 
L 506.186964 -41.76 
L 507.782161 -41.76 
L 509.377358 -41.76 
L 510.972556 -41.76 
L 512.567753 -41.76 
L 514.16295 -41.76 
L 515.758148 -41.76 
L 517.353345 -41.76 
L 518.948542 -41.76 
L 520.543739 -41.76 
L 522.138937 -41.76 
L 523.734134 -41.76 
L 525.329331 -41.76 
L 526.924528 -41.76 
L 528.519726 -41.76 
L 530.114923 -41.76 
L 531.71012 -41.76 
L 533.305317 -41.76 
L 534.900515 -41.76 
L 536.495712 -41.76 
L 538.090909 -41.76 
L 539.686106 -41.76 
L 541.281304 -41.76 
L 542.876501 -41.76 
L 544.471698 -41.76 
L 546.066895 -41.76 
L 547.662093 -41.76 
L 549.25729 -41.76 
L 550.852487 -41.76 
L 552.447684 -41.76 
L 554.042882 -41.76 
L 555.638079 -41.76 
L 557.233276 -41.76 
L 558.828473 -41.76 
L 560.423671 -41.76 
L 562.018868 -41.76 
L 563.614065 -41.76 
L 565.209262 -41.76 
L 566.80446 -41.76 
L 568.399657 -41.76 
L 569.994854 -41.76 
L 571.590051 -41.76 
L 573.185249 -41.76 
L 574.780446 -41.76 
L 576.375643 -41.76 
L 577.97084 -41.76 
L 579.566038 -41.76 
L 581.161235 -41.76 
L 582.756432 -41.76 
L 584.35163 -41.76 
L 585.946827 -41.76 
L 587.542024 -41.76 
L 589.137221 -41.76 
L 590.732419 -41.76 
L 592.327616 -41.76 
L 593.922813 -41.76 
L 595.51801 -41.76 
L 597.113208 -41.76 
L 598.708405 -41.76 
L 600.303602 -41.76 
L 601.898799 -41.76 
L 603.493997 -41.76 
L 605.089194 -41.76 
L 606.684391 -41.76 
L 608.279588 -41.76 
L 609.874786 -41.76 
L 611.469983 -41.76 
L 613.06518 -41.76 
L 614.660377 -41.76 
L 616.255575 -41.76 
L 617.850772 -41.76 
L 619.445969 -41.76 
L 621.041166 -41.76 
L 622.636364 -41.76 
L 622.636364 -41.76 
L 622.636364 -41.76 
L 621.041166 -41.76 
L 619.445969 -41.76 
L 617.850772 -41.76 
L 616.255575 -41.76 
L 614.660377 -41.76 
L 613.06518 -68.390546 
L 611.469983 -41.76 
L 609.874786 -47.472232 
L 608.279588 -41.76 
L 606.684391 -41.76 
L 605.089194 -43.113421 
L 603.493997 -41.76 
L 601.898799 -41.76 
L 600.303602 -41.76 
L 598.708405 -41.76 
L 597.113208 -51.413075 
L 595.51801 -41.76 
L 593.922813 -41.76 
L 592.327616 -55.493241 
L 590.732419 -41.76 
L 589.137221 -41.76 
L 587.542024 -41.76 
L 585.946827 -41.76 
L 584.35163 -79.99414 
L 582.756432 -41.76 
L 581.161235 -41.76 
L 579.566038 -41.76 
L 577.97084 -41.76 
L 576.375643 -41.76 
L 574.780446 -62.77783 
L 573.185249 -41.76 
L 571.590051 -56.229661 
L 569.994854 -41.76 
L 568.399657 -41.76 
L 566.80446 -41.76 
L 565.209262 -41.76 
L 563.614065 -60.867118 
L 562.018868 -41.76 
L 560.423671 -41.76 
L 558.828473 -41.76 
L 557.233276 -51.333462 
L 555.638079 -41.76 
L 554.042882 -59.792343 
L 552.447684 -57.861728 
L 550.852487 -60.727795 
L 549.25729 -41.76 
L 547.662093 -41.76 
L 546.066895 -55.911209 
L 544.471698 -41.76 
L 542.876501 -41.76 
L 541.281304 -87.995245 
L 539.686106 -41.76 
L 538.090909 -41.76 
L 536.495712 -41.76 
L 534.900515 -41.76 
L 533.305317 -58.279696 
L 531.71012 -41.76 
L 530.114923 -55.552951 
L 528.519726 -41.76 
L 526.924528 -41.76 
L 525.329331 -62.200636 
L 523.734134 -41.76 
L 522.138937 -41.76 
L 520.543739 -72.251776 
L 518.948542 -41.76 
L 517.353345 -70.958065 
L 515.758148 -41.76 
L 514.16295 -41.76 
L 512.567753 -72.490615 
L 510.972556 -41.76 
L 509.377358 -76.670297 
L 507.782161 -41.76 
L 506.186964 -41.76 
L 504.591767 -72.610035 
L 502.996569 -41.76 
L 501.401372 -41.76 
L 499.806175 -71.614872 
L 498.210978 -41.76 
L 496.61578 -41.76 
L 495.020583 -41.76 
L 493.425386 -47.671265 
L 491.830189 -41.76 
L 490.234991 -52.368431 
L 488.639794 -41.76 
L 487.044597 -41.76 
L 485.4494 -41.76 
L 483.854202 -41.76 
L 482.259005 -46.019295 
L 480.663808 -41.76 
L 479.068611 -41.76 
L 477.473413 -43.252744 
L 475.878216 -41.76 
L 474.283019 -41.76 
L 472.687822 -41.76 
L 471.092624 -41.76 
L 469.497427 -57.702502 
L 467.90223 -51.81114 
L 466.307033 -41.76 
L 464.711835 -41.76 
L 463.116638 -41.76 
L 461.521441 -41.76 
L 459.926244 -41.76 
L 458.331046 -53.602433 
L 456.735849 -41.76 
L 455.140652 -41.76 
L 453.545455 -41.76 
L 451.950257 -61.404506 
L 450.35506 -41.76 
L 448.759863 -41.76 
L 447.164666 -41.76 
L 445.569468 -41.76 
L 443.974271 -57.881631 
L 442.379074 -41.76 
L 440.783877 -41.76 
L 439.188679 -46.576586 
L 437.593482 -41.76 
L 435.998285 -41.76 
L 434.403087 -62.598701 
L 432.80789 -41.76 
L 431.212693 -41.76 
L 429.617496 -55.652467 
L 428.022298 -41.76 
L 426.427101 -57.722405 
L 424.831904 -60.668086 
L 423.236707 -51.632011 
L 421.641509 -62.499185 
L 420.046312 -41.76 
L 418.451115 -41.76 
L 416.855918 -41.76 
L 415.26072 -41.76 
L 413.665523 -52.527657 
L 412.070326 -41.76 
L 410.475129 -53.025238 
L 408.879931 -41.76 
L 407.284734 -41.76 
L 405.689537 -41.76 
L 404.09434 -41.76 
L 402.499142 -48.726137 
L 400.903945 -41.76 
L 399.308748 -41.76 
L 397.713551 -53.841272 
L 396.118353 -70.838645 
L 394.523156 -41.76 
L 392.927959 -41.76 
L 391.332762 -41.76 
L 389.737564 -41.76 
L 388.142367 -41.76 
L 386.54717 -70.281355 
L 384.951973 -54.896144 
L 383.356775 -41.76 
L 381.761578 -41.76 
L 380.166381 -55.771887 
L 378.571184 -48.785847 
L 376.975986 -41.76 
L 375.380789 -48.905266 
L 373.785592 -50.198977 
L 372.190395 -41.76 
L 370.595197 -41.76 
L 369 -41.76 
L 367.404803 -41.76 
L 365.809605 -41.76 
L 364.214408 -50.557236 
L 362.619211 -56.767049 
L 361.024014 -41.76 
L 359.428816 -41.76 
L 357.833619 -41.76 
L 356.238422 -41.76 
L 354.643225 -50.477623 
L 353.048027 -41.76 
L 351.45283 -41.76 
L 349.857633 -72.769261 
L 348.262436 -41.76 
L 346.667238 -51.831044 
L 345.072041 -41.76 
L 343.476844 -41.76 
L 341.881647 -41.76 
L 340.286449 -41.76 
L 338.691252 -51.532495 
L 337.096055 -41.76 
L 335.500858 -41.76 
L 333.90566 -41.76 
L 332.310463 -49.323234 
L 330.715266 -41.76 
L 329.120069 -41.76 
L 327.524871 -41.76 
L 325.929674 -63.295314 
L 324.334477 -41.76 
L 322.73928 -41.76 
L 321.144082 -41.76 
L 319.548885 -41.76 
L 317.953688 -41.76 
L 316.358491 -51.393172 
L 314.763293 -41.76 
L 313.168096 -52.328625 
L 311.572899 -41.76 
L 309.977702 -41.76 
L 308.382504 -54.896144 
L 306.787307 -41.76 
L 305.19211 -60.847215 
L 303.596913 -41.76 
L 302.001715 -41.76 
L 300.406518 -41.76 
L 298.811321 -41.76 
L 297.216123 -63.175895 
L 295.620926 -41.76 
L 294.025729 -41.76 
L 292.430532 -41.76 
L 290.835334 -41.76 
L 289.240137 -75.854264 
L 287.64494 -41.76 
L 286.049743 -41.76 
L 284.454545 -41.76 
L 282.859348 -41.76 
L 281.264151 -51.751431 
L 279.668954 -41.76 
L 278.073756 -41.76 
L 276.478559 -41.76 
L 274.883362 -79.038784 
L 273.288165 -41.76 
L 271.692967 -41.76 
L 270.09777 -58.618051 
L 268.502573 -41.76 
L 266.907376 -41.76 
L 265.312178 -41.76 
L 263.716981 -69.88329 
L 262.121784 -47.133877 
L 260.526587 -41.76 
L 258.931389 -52.129592 
L 257.336192 -41.76 
L 255.740995 -41.76 
L 254.145798 -41.76 
L 252.5506 -63.534153 
L 250.955403 -41.76 
L 249.360206 -52.985432 
L 247.765009 -41.76 
L 246.169811 -41.76 
L 244.574614 -41.76 
L 242.979417 -41.76 
L 241.38422 -59.931666 
L 239.789022 -41.76 
L 238.193825 -41.76 
L 236.598628 -41.76 
L 235.003431 -41.76 
L 233.408233 -51.373269 
L 231.813036 -41.76 
L 230.217839 -41.76 
L 228.622642 -41.76 
L 227.027444 -41.76 
L 225.432247 -48.527104 
L 223.83705 -41.76 
L 222.241852 -41.76 
L 220.646655 -41.76 
L 219.051458 -55.254402 
L 217.456261 -41.76 
L 215.861063 -41.76 
L 214.265866 -41.76 
L 212.670669 -52.965529 
L 211.075472 -41.76 
L 209.480274 -41.76 
L 207.885077 -41.76 
L 206.28988 -48.129039 
L 204.694683 -41.76 
L 203.099485 -41.76 
L 201.504288 -41.76 
L 199.909091 -41.76 
L 198.313894 -62.499185 
L 196.718696 -41.76 
L 195.123499 -41.76 
L 193.528302 -41.76 
L 191.933105 -41.76 
L 190.337907 -63.076379 
L 188.74271 -41.76 
L 187.147513 -41.76 
L 185.552316 -62.339959 
L 183.957118 -41.76 
L 182.361921 -41.76 
L 180.766724 -47.910104 
L 179.171527 -41.76 
L 177.576329 -41.76 
L 175.981132 -61.384603 
L 174.385935 -55.970919 
L 172.790738 -41.76 
L 171.19554 -41.76 
L 169.600343 -41.76 
L 168.005146 -41.76 
L 166.409949 -56.309274 
L 164.814751 -41.76 
L 163.219554 -41.76 
L 161.624357 -44.407132 
L 160.02916 -55.871403 
L 158.433962 -61.484119 
L 156.838765 -59.075826 
L 155.243568 -59.792343 
L 153.64837 -56.368984 
L 152.053173 -41.76 
L 150.457976 -57.005888 
L 148.862779 -54.657305 
L 147.267581 -41.76 
L 145.672384 -47.372716 
L 144.077187 -41.76 
L 142.48199 -41.76 
L 140.886792 -41.76 
L 139.291595 -41.76 
L 137.696398 -46.835328 
L 136.101201 -41.76 
L 134.506003 -41.76 
L 132.910806 -47.492135 
L 131.315609 -49.343138 
L 129.720412 -41.76 
L 128.125214 -51.452882 
L 126.530017 -49.004782 
L 124.93482 -52.706786 
L 123.339623 -47.910104 
L 121.744425 -41.76 
L 120.149228 -41.76 
L 118.554031 -41.76 
L 116.958834 -41.76 
L 115.363636 -49.382944 
z
" style="stroke: #ff0000; stroke-width: 0.5"/>
    </defs>
    <g clip-path="url(#pf5d744965e)">
     <use xlink:href="#m1505e187b8" x="0" y="288" style="fill: #ff0000; stroke: #ff0000; stroke-width: 0.5"/>
    </g>
   </g>
   <g id="PolyCollection_2">
    <defs>
     <path id="m2c7c2b772c" d="M 115.363636 -51.333462 
L 115.363636 -49.382944 
L 116.958834 -41.76 
L 118.554031 -41.76 
L 120.149228 -41.76 
L 121.744425 -41.76 
L 123.339623 -47.910104 
L 124.93482 -52.706786 
L 126.530017 -49.004782 
L 128.125214 -51.452882 
L 129.720412 -41.76 
L 131.315609 -49.343138 
L 132.910806 -47.492135 
L 134.506003 -41.76 
L 136.101201 -41.76 
L 137.696398 -46.835328 
L 139.291595 -41.76 
L 140.886792 -41.76 
L 142.48199 -41.76 
L 144.077187 -41.76 
L 145.672384 -47.372716 
L 147.267581 -41.76 
L 148.862779 -54.657305 
L 150.457976 -57.005888 
L 152.053173 -41.76 
L 153.64837 -56.368984 
L 155.243568 -59.792343 
L 156.838765 -59.075826 
L 158.433962 -61.484119 
L 160.02916 -55.871403 
L 161.624357 -44.407132 
L 163.219554 -41.76 
L 164.814751 -41.76 
L 166.409949 -56.309274 
L 168.005146 -41.76 
L 169.600343 -41.76 
L 171.19554 -41.76 
L 172.790738 -41.76 
L 174.385935 -55.970919 
L 175.981132 -61.384603 
L 177.576329 -41.76 
L 179.171527 -41.76 
L 180.766724 -47.910104 
L 182.361921 -41.76 
L 183.957118 -41.76 
L 185.552316 -62.339959 
L 187.147513 -41.76 
L 188.74271 -41.76 
L 190.337907 -63.076379 
L 191.933105 -41.76 
L 193.528302 -41.76 
L 195.123499 -41.76 
L 196.718696 -41.76 
L 198.313894 -62.499185 
L 199.909091 -41.76 
L 201.504288 -41.76 
L 203.099485 -41.76 
L 204.694683 -41.76 
L 206.28988 -48.129039 
L 207.885077 -41.76 
L 209.480274 -41.76 
L 211.075472 -41.76 
L 212.670669 -52.965529 
L 214.265866 -41.76 
L 215.861063 -41.76 
L 217.456261 -41.76 
L 219.051458 -55.254402 
L 220.646655 -41.76 
L 222.241852 -41.76 
L 223.83705 -41.76 
L 225.432247 -48.527104 
L 227.027444 -41.76 
L 228.622642 -41.76 
L 230.217839 -41.76 
L 231.813036 -41.76 
L 233.408233 -51.373269 
L 235.003431 -41.76 
L 236.598628 -41.76 
L 238.193825 -41.76 
L 239.789022 -41.76 
L 241.38422 -59.931666 
L 242.979417 -41.76 
L 244.574614 -41.76 
L 246.169811 -41.76 
L 247.765009 -41.76 
L 249.360206 -52.985432 
L 250.955403 -41.76 
L 252.5506 -63.534153 
L 254.145798 -41.76 
L 255.740995 -41.76 
L 257.336192 -41.76 
L 258.931389 -52.129592 
L 260.526587 -41.76 
L 262.121784 -47.133877 
L 263.716981 -69.88329 
L 265.312178 -41.76 
L 266.907376 -41.76 
L 268.502573 -41.76 
L 270.09777 -58.618051 
L 271.692967 -41.76 
L 273.288165 -41.76 
L 274.883362 -79.038784 
L 276.478559 -41.76 
L 278.073756 -41.76 
L 279.668954 -41.76 
L 281.264151 -51.751431 
L 282.859348 -41.76 
L 284.454545 -41.76 
L 286.049743 -41.76 
L 287.64494 -41.76 
L 289.240137 -75.854264 
L 290.835334 -41.76 
L 292.430532 -41.76 
L 294.025729 -41.76 
L 295.620926 -41.76 
L 297.216123 -63.175895 
L 298.811321 -41.76 
L 300.406518 -41.76 
L 302.001715 -41.76 
L 303.596913 -41.76 
L 305.19211 -60.847215 
L 306.787307 -41.76 
L 308.382504 -54.896144 
L 309.977702 -41.76 
L 311.572899 -41.76 
L 313.168096 -52.328625 
L 314.763293 -41.76 
L 316.358491 -51.393172 
L 317.953688 -41.76 
L 319.548885 -41.76 
L 321.144082 -41.76 
L 322.73928 -41.76 
L 324.334477 -41.76 
L 325.929674 -63.295314 
L 327.524871 -41.76 
L 329.120069 -41.76 
L 330.715266 -41.76 
L 332.310463 -49.323234 
L 333.90566 -41.76 
L 335.500858 -41.76 
L 337.096055 -41.76 
L 338.691252 -51.532495 
L 340.286449 -41.76 
L 341.881647 -41.76 
L 343.476844 -41.76 
L 345.072041 -41.76 
L 346.667238 -51.831044 
L 348.262436 -41.76 
L 349.857633 -72.769261 
L 351.45283 -41.76 
L 353.048027 -41.76 
L 354.643225 -50.477623 
L 356.238422 -41.76 
L 357.833619 -41.76 
L 359.428816 -41.76 
L 361.024014 -41.76 
L 362.619211 -56.767049 
L 364.214408 -50.557236 
L 365.809605 -41.76 
L 367.404803 -41.76 
L 369 -41.76 
L 370.595197 -41.76 
L 372.190395 -41.76 
L 373.785592 -50.198977 
L 375.380789 -48.905266 
L 376.975986 -41.76 
L 378.571184 -48.785847 
L 380.166381 -55.771887 
L 381.761578 -41.76 
L 383.356775 -41.76 
L 384.951973 -54.896144 
L 386.54717 -70.281355 
L 388.142367 -41.76 
L 389.737564 -41.76 
L 391.332762 -41.76 
L 392.927959 -41.76 
L 394.523156 -41.76 
L 396.118353 -70.838645 
L 397.713551 -53.841272 
L 399.308748 -41.76 
L 400.903945 -41.76 
L 402.499142 -48.726137 
L 404.09434 -41.76 
L 405.689537 -41.76 
L 407.284734 -41.76 
L 408.879931 -41.76 
L 410.475129 -53.025238 
L 412.070326 -41.76 
L 413.665523 -52.527657 
L 415.26072 -41.76 
L 416.855918 -41.76 
L 418.451115 -41.76 
L 420.046312 -41.76 
L 421.641509 -62.499185 
L 423.236707 -51.632011 
L 424.831904 -60.668086 
L 426.427101 -57.722405 
L 428.022298 -41.76 
L 429.617496 -55.652467 
L 431.212693 -41.76 
L 432.80789 -41.76 
L 434.403087 -62.598701 
L 435.998285 -41.76 
L 437.593482 -41.76 
L 439.188679 -46.576586 
L 440.783877 -41.76 
L 442.379074 -41.76 
L 443.974271 -57.881631 
L 445.569468 -41.76 
L 447.164666 -41.76 
L 448.759863 -41.76 
L 450.35506 -41.76 
L 451.950257 -61.404506 
L 453.545455 -41.76 
L 455.140652 -41.76 
L 456.735849 -41.76 
L 458.331046 -53.602433 
L 459.926244 -41.76 
L 461.521441 -41.76 
L 463.116638 -41.76 
L 464.711835 -41.76 
L 466.307033 -41.76 
L 467.90223 -51.81114 
L 469.497427 -57.702502 
L 471.092624 -41.76 
L 472.687822 -41.76 
L 474.283019 -41.76 
L 475.878216 -41.76 
L 477.473413 -43.252744 
L 479.068611 -41.76 
L 480.663808 -41.76 
L 482.259005 -46.019295 
L 483.854202 -41.76 
L 485.4494 -41.76 
L 487.044597 -41.76 
L 488.639794 -41.76 
L 490.234991 -52.368431 
L 491.830189 -41.76 
L 493.425386 -47.671265 
L 495.020583 -41.76 
L 496.61578 -41.76 
L 498.210978 -41.76 
L 499.806175 -71.614872 
L 501.401372 -41.76 
L 502.996569 -41.76 
L 504.591767 -72.610035 
L 506.186964 -41.76 
L 507.782161 -41.76 
L 509.377358 -76.670297 
L 510.972556 -41.76 
L 512.567753 -72.490615 
L 514.16295 -41.76 
L 515.758148 -41.76 
L 517.353345 -70.958065 
L 518.948542 -41.76 
L 520.543739 -72.251776 
L 522.138937 -41.76 
L 523.734134 -41.76 
L 525.329331 -62.200636 
L 526.924528 -41.76 
L 528.519726 -41.76 
L 530.114923 -55.552951 
L 531.71012 -41.76 
L 533.305317 -58.279696 
L 534.900515 -41.76 
L 536.495712 -41.76 
L 538.090909 -41.76 
L 539.686106 -41.76 
L 541.281304 -87.995245 
L 542.876501 -41.76 
L 544.471698 -41.76 
L 546.066895 -55.911209 
L 547.662093 -41.76 
L 549.25729 -41.76 
L 550.852487 -60.727795 
L 552.447684 -57.861728 
L 554.042882 -59.792343 
L 555.638079 -41.76 
L 557.233276 -51.333462 
L 558.828473 -41.76 
L 560.423671 -41.76 
L 562.018868 -41.76 
L 563.614065 -60.867118 
L 565.209262 -41.76 
L 566.80446 -41.76 
L 568.399657 -41.76 
L 569.994854 -41.76 
L 571.590051 -56.229661 
L 573.185249 -41.76 
L 574.780446 -62.77783 
L 576.375643 -41.76 
L 577.97084 -41.76 
L 579.566038 -41.76 
L 581.161235 -41.76 
L 582.756432 -41.76 
L 584.35163 -79.99414 
L 585.946827 -41.76 
L 587.542024 -41.76 
L 589.137221 -41.76 
L 590.732419 -41.76 
L 592.327616 -55.493241 
L 593.922813 -41.76 
L 595.51801 -41.76 
L 597.113208 -51.413075 
L 598.708405 -41.76 
L 600.303602 -41.76 
L 601.898799 -41.76 
L 603.493997 -41.76 
L 605.089194 -43.113421 
L 606.684391 -41.76 
L 608.279588 -41.76 
L 609.874786 -47.472232 
L 611.469983 -41.76 
L 613.06518 -68.390546 
L 614.660377 -41.76 
L 616.255575 -41.76 
L 617.850772 -41.76 
L 619.445969 -41.76 
L 621.041166 -41.76 
L 622.636364 -41.76 
L 622.636364 -41.779903 
L 622.636364 -41.779903 
L 621.041166 -42.237678 
L 619.445969 -42.217775 
L 617.850772 -42.217775 
L 616.255575 -42.217775 
L 614.660377 -42.237678 
L 613.06518 -71.774098 
L 611.469983 -47.910104 
L 609.874786 -56.448597 
L 608.279588 -44.188196 
L 606.684391 -43.869744 
L 605.089194 -46.278037 
L 603.493997 -49.303331 
L 601.898799 -54.119917 
L 600.303602 -46.41736 
L 598.708405 -46.218328 
L 597.113208 -56.687436 
L 595.51801 -51.99027 
L 593.922813 -51.950463 
L 592.327616 -65.086607 
L 590.732419 -53.483013 
L 589.137221 -54.25924 
L 587.542024 -53.721852 
L 585.946827 -52.428141 
L 584.35163 -93.150187 
L 582.756432 -65.922543 
L 581.161235 -65.146317 
L 579.566038 -63.792896 
L 577.97084 -65.146317 
L 576.375643 -65.623994 
L 574.780446 -100.554195 
L 573.185249 -71.694485 
L 571.590051 -74.580456 
L 569.994854 -80.909689 
L 568.399657 -84.492274 
L 566.80446 -84.293241 
L 565.209262 -78.879558 
L 563.614065 -76.909136 
L 562.018868 -59.71273 
L 560.423671 -58.458825 
L 558.828473 -50.159171 
L 557.233276 -58.319502 
L 555.638079 -46.039198 
L 554.042882 -64.628832 
L 552.447684 -65.464768 
L 550.852487 -66.838093 
L 549.25729 -53.582529 
L 547.662093 -54.93595 
L 546.066895 -79.775204 
L 544.471698 -61.145764 
L 542.876501 -58.299599 
L 541.281304 -105.828556 
L 539.686106 -61.583635 
L 538.090909 -63.175895 
L 536.495712 -67.833255 
L 534.900515 -62.200636 
L 533.305317 -77.725169 
L 531.71012 -45.342585 
L 530.114923 -60.608376 
L 528.519726 -58.956406 
L 526.924528 -58.538438 
L 525.329331 -87.019986 
L 523.734134 -81.865045 
L 522.138937 -87.77631 
L 520.543739 -99.240581 
L 518.948542 -67.176448 
L 517.353345 -100.773131 
L 515.758148 -84.551983 
L 514.16295 -85.726275 
L 512.567753 -118.78557 
L 510.972556 -88.074858 
L 509.377358 -117.651085 
L 507.782161 -93.010864 
L 506.186964 -89.547699 
L 504.591767 -102.206164 
L 502.996569 -75.038231 
L 501.401372 -61.623442 
L 499.806175 -81.427173 
L 498.210978 -49.781009 
L 496.61578 -49.462557 
L 495.020583 -48.487298 
L 493.425386 -55.05537 
L 491.830189 -47.551845 
L 490.234991 -60.687989 
L 488.639794 -50.358203 
L 487.044597 -49.502364 
L 485.4494 -48.785847 
L 483.854202 -49.721299 
L 482.259005 -48.407685 
L 480.663808 -44.427035 
L 479.068611 -43.989164 
L 477.473413 -54.776724 
L 475.878216 -65.683704 
L 474.283019 -59.254955 
L 472.687822 -59.971472 
L 471.092624 -57.145211 
L 469.497427 -65.365252 
L 467.90223 -59.792343 
L 466.307033 -49.840719 
L 464.711835 -51.452882 
L 463.116638 -49.183912 
L 461.521441 -48.666427 
L 459.926244 -48.387782 
L 458.331046 -54.776724 
L 456.735849 -43.670712 
L 455.140652 -44.108583 
L 453.545455 -44.367326 
L 451.950257 -63.275411 
L 450.35506 -43.212937 
L 448.759863 -42.715356 
L 447.164666 -43.133324 
L 445.569468 -43.511486 
L 443.974271 -59.354471 
L 442.379074 -45.760553 
L 440.783877 -46.457167 
L 439.188679 -50.577139 
L 437.593482 -43.153227 
L 435.998285 -43.730422 
L 434.403087 -63.812799 
L 432.80789 -45.581424 
L 431.212693 -46.297941 
L 429.617496 -59.533601 
L 428.022298 -49.502364 
L 426.427101 -66.69877 
L 424.831904 -66.778383 
L 423.236707 -58.79718 
L 421.641509 -66.320608 
L 420.046312 -45.501811 
L 418.451115 -44.904713 
L 416.855918 -43.869744 
L 415.26072 -44.984326 
L 413.665523 -54.697111 
L 412.070326 -44.347422 
L 410.475129 -55.8515 
L 408.879931 -45.262972 
L 407.284734 -45.342585 
L 405.689537 -44.904713 
L 404.09434 -45.442101 
L 402.499142 -50.039751 
L 400.903945 -42.954195 
L 399.308748 -43.41197 
L 397.713551 -54.637402 
L 396.118353 -71.913421 
L 394.523156 -43.093518 
L 392.927959 -42.794969 
L 391.332762 -43.013905 
L 389.737564 -43.29255 
L 388.142367 -43.392066 
L 386.54717 -73.844036 
L 384.951973 -58.836987 
L 383.356775 -46.039198 
L 381.761578 -46.019295 
L 380.166381 -59.553504 
L 378.571184 -53.821368 
L 376.975986 -46.596489 
L 375.380789 -51.333462 
L 373.785592 -52.567464 
L 372.190395 -44.188196 
L 370.595197 -44.287713 
L 369 -44.88481 
L 367.404803 -44.307616 
L 365.809605 -44.267809 
L 364.214408 -52.686883 
L 362.619211 -59.573407 
L 361.024014 -44.168293 
L 359.428816 -43.591099 
L 357.833619 -44.307616 
L 356.238422 -44.466842 
L 354.643225 -51.711624 
L 353.048027 -42.894485 
L 351.45283 -43.153227 
L 349.857633 -74.003262 
L 348.262436 -43.750325 
L 346.667238 -54.717015 
L 345.072041 -44.745487 
L 343.476844 -44.14839 
L 341.881647 -44.068777 
L 340.286449 -45.68094 
L 338.691252 -56.448597 
L 337.096055 -49.164008 
L 335.500858 -47.930007 
L 333.90566 -48.029523 
L 332.310463 -55.433531 
L 330.715266 -48.407685 
L 329.120069 -48.208652 
L 327.524871 -46.596489 
L 325.929674 -66.778383 
L 324.334477 -46.198424 
L 322.73928 -45.820263 
L 321.144082 -46.676102 
L 319.548885 -48.487298 
L 317.953688 -45.521714 
L 316.358491 -52.965529 
L 314.763293 -43.949357 
L 313.168096 -53.46311 
L 311.572899 -43.551292 
L 309.977702 -44.407132 
L 308.382504 -57.961244 
L 306.787307 -45.800359 
L 305.19211 -63.792896 
L 303.596913 -44.068777 
L 302.001715 -43.212937 
L 300.406518 -42.954195 
L 298.811321 -43.29255 
L 297.216123 -65.803124 
L 295.620926 -44.188196 
L 294.025729 -44.745487 
L 292.430532 -44.14839 
L 290.835334 -43.571196 
L 289.240137 -77.585847 
L 287.64494 -43.909551 
L 286.049743 -43.810035 
L 284.454545 -43.770228 
L 282.859348 -43.869744 
L 281.264151 -53.562626 
L 279.668954 -45.103746 
L 278.073756 -45.521714 
L 276.478559 -44.665874 
L 274.883362 -84.571887 
L 273.288165 -47.850394 
L 271.692967 -48.407685 
L 270.09777 -63.175895 
L 268.502573 -43.491583 
L 266.907376 -43.551292 
L 265.312178 -43.312453 
L 263.716981 -72.848874 
L 262.121784 -54.896144 
L 260.526587 -50.238784 
L 258.931389 -59.752536 
L 257.336192 -44.725584 
L 255.740995 -45.103746 
L 254.145798 -44.327519 
L 252.5506 -65.086607 
L 250.955403 -43.173131 
L 249.360206 -54.99566 
L 247.765009 -43.093518 
L 246.169811 -43.212937 
L 244.574614 -44.188196 
L 242.979417 -45.143552 
L 241.38422 -61.782668 
L 239.789022 -43.969261 
L 238.193825 -44.02897 
L 236.598628 -43.29255 
L 235.003431 -42.954195 
L 233.408233 -52.905819 
L 231.813036 -43.969261 
L 230.217839 -43.153227 
L 228.622642 -43.531389 
L 227.027444 -44.407132 
L 225.432247 -51.890753 
L 223.83705 -43.969261 
L 222.241852 -44.108583 
L 220.646655 -44.407132 
L 219.051458 -56.568017 
L 217.456261 -43.670712 
L 215.861063 -45.004229 
L 214.265866 -44.904713 
L 212.670669 -58.498632 
L 211.075472 -48.288265 
L 209.480274 -48.347975 
L 207.885077 -48.367878 
L 206.28988 -53.980594 
L 204.694683 -47.8902 
L 203.099485 -47.989717 
L 201.504288 -48.268362 
L 199.909091 -48.029523 
L 198.313894 -64.071541 
L 196.718696 -43.113421 
L 195.123499 -43.272647 
L 193.528302 -43.212937 
L 191.933105 -43.113421 
L 190.337907 -64.111348 
L 188.74271 -43.053711 
L 187.147513 -42.914388 
L 185.552316 -63.255508 
L 183.957118 -43.392066 
L 182.361921 -44.2081 
L 180.766724 -49.502364 
L 179.171527 -43.849841 
L 177.576329 -44.14839 
L 175.981132 -62.698217 
L 174.385935 -57.125308 
L 172.790738 -43.193034 
L 171.19554 -43.013905 
L 169.600343 -43.212937 
L 168.005146 -43.35226 
L 166.409949 -57.403953 
L 164.814751 -44.347422 
L 163.219554 -49.263525 
L 161.624357 -55.572854 
L 160.02916 -60.270021 
L 158.433962 -66.121576 
L 156.838765 -63.972025 
L 155.243568 -68.1119 
L 153.64837 -59.911762 
L 152.053173 -45.56152 
L 150.457976 -60.469053 
L 148.862779 -62.479281 
L 147.267581 -57.503469 
L 145.672384 -59.931666 
L 144.077187 -53.801465 
L 142.48199 -52.288818 
L 140.886792 -52.925722 
L 139.291595 -55.612661 
L 137.696398 -60.568569 
L 136.101201 -53.383497 
L 134.506003 -53.164561 
L 132.910806 -57.045695 
L 131.315609 -58.359309 
L 129.720412 -51.273753 
L 128.125214 -61.882184 
L 126.530017 -61.822474 
L 124.93482 -59.095729 
L 123.339623 -52.368431 
L 121.744425 -43.710518 
L 120.149228 -43.153227 
L 118.554031 -43.332357 
L 116.958834 -43.849841 
L 115.363636 -51.333462 
z
" style="stroke: #0000ff; stroke-width: 0.5"/>
    </defs>
    <g clip-path="url(#pf5d744965e)">
     <use xlink:href="#m2c7c2b772c" x="0" y="288" style="fill: #0000ff; stroke: #0000ff; stroke-width: 0.5"/>
    </g>
   </g>
   <g id="PolyCollection_3">
    <defs>
     <path id="mbde1a550c5" d="M 115.363636 -56.687436 
L 115.363636 -51.333462 
L 116.958834 -43.849841 
L 118.554031 -43.332357 
L 120.149228 -43.153227 
L 121.744425 -43.710518 
L 123.339623 -52.368431 
L 124.93482 -59.095729 
L 126.530017 -61.822474 
L 128.125214 -61.882184 
L 129.720412 -51.273753 
L 131.315609 -58.359309 
L 132.910806 -57.045695 
L 134.506003 -53.164561 
L 136.101201 -53.383497 
L 137.696398 -60.568569 
L 139.291595 -55.612661 
L 140.886792 -52.925722 
L 142.48199 -52.288818 
L 144.077187 -53.801465 
L 145.672384 -59.931666 
L 147.267581 -57.503469 
L 148.862779 -62.479281 
L 150.457976 -60.469053 
L 152.053173 -45.56152 
L 153.64837 -59.911762 
L 155.243568 -68.1119 
L 156.838765 -63.972025 
L 158.433962 -66.121576 
L 160.02916 -60.270021 
L 161.624357 -55.572854 
L 163.219554 -49.263525 
L 164.814751 -44.347422 
L 166.409949 -57.403953 
L 168.005146 -43.35226 
L 169.600343 -43.212937 
L 171.19554 -43.013905 
L 172.790738 -43.193034 
L 174.385935 -57.125308 
L 175.981132 -62.698217 
L 177.576329 -44.14839 
L 179.171527 -43.849841 
L 180.766724 -49.502364 
L 182.361921 -44.2081 
L 183.957118 -43.392066 
L 185.552316 -63.255508 
L 187.147513 -42.914388 
L 188.74271 -43.053711 
L 190.337907 -64.111348 
L 191.933105 -43.113421 
L 193.528302 -43.212937 
L 195.123499 -43.272647 
L 196.718696 -43.113421 
L 198.313894 -64.071541 
L 199.909091 -48.029523 
L 201.504288 -48.268362 
L 203.099485 -47.989717 
L 204.694683 -47.8902 
L 206.28988 -53.980594 
L 207.885077 -48.367878 
L 209.480274 -48.347975 
L 211.075472 -48.288265 
L 212.670669 -58.498632 
L 214.265866 -44.904713 
L 215.861063 -45.004229 
L 217.456261 -43.670712 
L 219.051458 -56.568017 
L 220.646655 -44.407132 
L 222.241852 -44.108583 
L 223.83705 -43.969261 
L 225.432247 -51.890753 
L 227.027444 -44.407132 
L 228.622642 -43.531389 
L 230.217839 -43.153227 
L 231.813036 -43.969261 
L 233.408233 -52.905819 
L 235.003431 -42.954195 
L 236.598628 -43.29255 
L 238.193825 -44.02897 
L 239.789022 -43.969261 
L 241.38422 -61.782668 
L 242.979417 -45.143552 
L 244.574614 -44.188196 
L 246.169811 -43.212937 
L 247.765009 -43.093518 
L 249.360206 -54.99566 
L 250.955403 -43.173131 
L 252.5506 -65.086607 
L 254.145798 -44.327519 
L 255.740995 -45.103746 
L 257.336192 -44.725584 
L 258.931389 -59.752536 
L 260.526587 -50.238784 
L 262.121784 -54.896144 
L 263.716981 -72.848874 
L 265.312178 -43.312453 
L 266.907376 -43.551292 
L 268.502573 -43.491583 
L 270.09777 -63.175895 
L 271.692967 -48.407685 
L 273.288165 -47.850394 
L 274.883362 -84.571887 
L 276.478559 -44.665874 
L 278.073756 -45.521714 
L 279.668954 -45.103746 
L 281.264151 -53.562626 
L 282.859348 -43.869744 
L 284.454545 -43.770228 
L 286.049743 -43.810035 
L 287.64494 -43.909551 
L 289.240137 -77.585847 
L 290.835334 -43.571196 
L 292.430532 -44.14839 
L 294.025729 -44.745487 
L 295.620926 -44.188196 
L 297.216123 -65.803124 
L 298.811321 -43.29255 
L 300.406518 -42.954195 
L 302.001715 -43.212937 
L 303.596913 -44.068777 
L 305.19211 -63.792896 
L 306.787307 -45.800359 
L 308.382504 -57.961244 
L 309.977702 -44.407132 
L 311.572899 -43.551292 
L 313.168096 -53.46311 
L 314.763293 -43.949357 
L 316.358491 -52.965529 
L 317.953688 -45.521714 
L 319.548885 -48.487298 
L 321.144082 -46.676102 
L 322.73928 -45.820263 
L 324.334477 -46.198424 
L 325.929674 -66.778383 
L 327.524871 -46.596489 
L 329.120069 -48.208652 
L 330.715266 -48.407685 
L 332.310463 -55.433531 
L 333.90566 -48.029523 
L 335.500858 -47.930007 
L 337.096055 -49.164008 
L 338.691252 -56.448597 
L 340.286449 -45.68094 
L 341.881647 -44.068777 
L 343.476844 -44.14839 
L 345.072041 -44.745487 
L 346.667238 -54.717015 
L 348.262436 -43.750325 
L 349.857633 -74.003262 
L 351.45283 -43.153227 
L 353.048027 -42.894485 
L 354.643225 -51.711624 
L 356.238422 -44.466842 
L 357.833619 -44.307616 
L 359.428816 -43.591099 
L 361.024014 -44.168293 
L 362.619211 -59.573407 
L 364.214408 -52.686883 
L 365.809605 -44.267809 
L 367.404803 -44.307616 
L 369 -44.88481 
L 370.595197 -44.287713 
L 372.190395 -44.188196 
L 373.785592 -52.567464 
L 375.380789 -51.333462 
L 376.975986 -46.596489 
L 378.571184 -53.821368 
L 380.166381 -59.553504 
L 381.761578 -46.019295 
L 383.356775 -46.039198 
L 384.951973 -58.836987 
L 386.54717 -73.844036 
L 388.142367 -43.392066 
L 389.737564 -43.29255 
L 391.332762 -43.013905 
L 392.927959 -42.794969 
L 394.523156 -43.093518 
L 396.118353 -71.913421 
L 397.713551 -54.637402 
L 399.308748 -43.41197 
L 400.903945 -42.954195 
L 402.499142 -50.039751 
L 404.09434 -45.442101 
L 405.689537 -44.904713 
L 407.284734 -45.342585 
L 408.879931 -45.262972 
L 410.475129 -55.8515 
L 412.070326 -44.347422 
L 413.665523 -54.697111 
L 415.26072 -44.984326 
L 416.855918 -43.869744 
L 418.451115 -44.904713 
L 420.046312 -45.501811 
L 421.641509 -66.320608 
L 423.236707 -58.79718 
L 424.831904 -66.778383 
L 426.427101 -66.69877 
L 428.022298 -49.502364 
L 429.617496 -59.533601 
L 431.212693 -46.297941 
L 432.80789 -45.581424 
L 434.403087 -63.812799 
L 435.998285 -43.730422 
L 437.593482 -43.153227 
L 439.188679 -50.577139 
L 440.783877 -46.457167 
L 442.379074 -45.760553 
L 443.974271 -59.354471 
L 445.569468 -43.511486 
L 447.164666 -43.133324 
L 448.759863 -42.715356 
L 450.35506 -43.212937 
L 451.950257 -63.275411 
L 453.545455 -44.367326 
L 455.140652 -44.108583 
L 456.735849 -43.670712 
L 458.331046 -54.776724 
L 459.926244 -48.387782 
L 461.521441 -48.666427 
L 463.116638 -49.183912 
L 464.711835 -51.452882 
L 466.307033 -49.840719 
L 467.90223 -59.792343 
L 469.497427 -65.365252 
L 471.092624 -57.145211 
L 472.687822 -59.971472 
L 474.283019 -59.254955 
L 475.878216 -65.683704 
L 477.473413 -54.776724 
L 479.068611 -43.989164 
L 480.663808 -44.427035 
L 482.259005 -48.407685 
L 483.854202 -49.721299 
L 485.4494 -48.785847 
L 487.044597 -49.502364 
L 488.639794 -50.358203 
L 490.234991 -60.687989 
L 491.830189 -47.551845 
L 493.425386 -55.05537 
L 495.020583 -48.487298 
L 496.61578 -49.462557 
L 498.210978 -49.781009 
L 499.806175 -81.427173 
L 501.401372 -61.623442 
L 502.996569 -75.038231 
L 504.591767 -102.206164 
L 506.186964 -89.547699 
L 507.782161 -93.010864 
L 509.377358 -117.651085 
L 510.972556 -88.074858 
L 512.567753 -118.78557 
L 514.16295 -85.726275 
L 515.758148 -84.551983 
L 517.353345 -100.773131 
L 518.948542 -67.176448 
L 520.543739 -99.240581 
L 522.138937 -87.77631 
L 523.734134 -81.865045 
L 525.329331 -87.019986 
L 526.924528 -58.538438 
L 528.519726 -58.956406 
L 530.114923 -60.608376 
L 531.71012 -45.342585 
L 533.305317 -77.725169 
L 534.900515 -62.200636 
L 536.495712 -67.833255 
L 538.090909 -63.175895 
L 539.686106 -61.583635 
L 541.281304 -105.828556 
L 542.876501 -58.299599 
L 544.471698 -61.145764 
L 546.066895 -79.775204 
L 547.662093 -54.93595 
L 549.25729 -53.582529 
L 550.852487 -66.838093 
L 552.447684 -65.464768 
L 554.042882 -64.628832 
L 555.638079 -46.039198 
L 557.233276 -58.319502 
L 558.828473 -50.159171 
L 560.423671 -58.458825 
L 562.018868 -59.71273 
L 563.614065 -76.909136 
L 565.209262 -78.879558 
L 566.80446 -84.293241 
L 568.399657 -84.492274 
L 569.994854 -80.909689 
L 571.590051 -74.580456 
L 573.185249 -71.694485 
L 574.780446 -100.554195 
L 576.375643 -65.623994 
L 577.97084 -65.146317 
L 579.566038 -63.792896 
L 581.161235 -65.146317 
L 582.756432 -65.922543 
L 584.35163 -93.150187 
L 585.946827 -52.428141 
L 587.542024 -53.721852 
L 589.137221 -54.25924 
L 590.732419 -53.483013 
L 592.327616 -65.086607 
L 593.922813 -51.950463 
L 595.51801 -51.99027 
L 597.113208 -56.687436 
L 598.708405 -46.218328 
L 600.303602 -46.41736 
L 601.898799 -54.119917 
L 603.493997 -49.303331 
L 605.089194 -46.278037 
L 606.684391 -43.869744 
L 608.279588 -44.188196 
L 609.874786 -56.448597 
L 611.469983 -47.910104 
L 613.06518 -71.774098 
L 614.660377 -42.237678 
L 616.255575 -42.217775 
L 617.850772 -42.217775 
L 619.445969 -42.217775 
L 621.041166 -42.237678 
L 622.636364 -41.779903 
L 622.636364 -41.799806 
L 622.636364 -41.799806 
L 621.041166 -42.536227 
L 619.445969 -42.516323 
L 617.850772 -42.516323 
L 616.255575 -42.516323 
L 614.660377 -42.635743 
L 613.06518 -79.377139 
L 611.469983 -58.637954 
L 609.874786 -72.510518 
L 608.279588 -53.781562 
L 606.684391 -51.253849 
L 605.089194 -54.87624 
L 603.493997 -81.586399 
L 601.898799 -145.236987 
L 600.303602 -179.351154 
L 598.708405 -176.803538 
L 597.113208 -129.772163 
L 595.51801 -92.752122 
L 593.922813 -99.578936 
L 592.327616 -109.630076 
L 590.732419 -105.151845 
L 589.137221 -113.551016 
L 587.542024 -114.904437 
L 585.946827 -99.738162 
L 584.35163 -136.479558 
L 582.756432 -130.448874 
L 581.161235 -131.643068 
L 579.566038 -138.887851 
L 577.97084 -132.041133 
L 576.375643 -130.667809 
L 574.780446 -168.981562 
L 573.185249 -140.65924 
L 571.590051 -152.820124 
L 569.994854 -168.961659 
L 568.399657 -166.095591 
L 566.80446 -167.369399 
L 565.209262 -171.887436 
L 563.614065 -163.26933 
L 562.018868 -113.27237 
L 560.423671 -112.038369 
L 558.828473 -138.867947 
L 557.233276 -102.186261 
L 555.638079 -80.332495 
L 554.042882 -108.415978 
L 552.447684 -98.56387 
L 550.852487 -105.450394 
L 549.25729 -101.390131 
L 547.662093 -104.972716 
L 546.066895 -145.99331 
L 544.471698 -125.03519 
L 542.876501 -105.112039 
L 541.281304 -150.809896 
L 539.686106 -118.009343 
L 538.090909 -124.537609 
L 536.495712 -139.823303 
L 534.900515 -137.932495 
L 533.305317 -139.883013 
L 531.71012 -107.301396 
L 530.114923 -106.943138 
L 528.519726 -111.162626 
L 526.924528 -112.973822 
L 525.329331 -163.428556 
L 523.734134 -190.875135 
L 522.138937 -196.487851 
L 520.543739 -182.197319 
L 518.948542 -182.973545 
L 517.353345 -177.321023 
L 515.758148 -212.689095 
L 514.16295 -215.594969 
L 512.567753 -243.36 
L 510.972556 -216.351292 
L 509.377358 -227.039337 
L 507.782161 -228.53208 
L 506.186964 -217.764423 
L 504.591767 -219.15765 
L 502.996569 -178.03754 
L 501.401372 -177.460346 
L 499.806175 -119.840442 
L 498.210978 -88.652053 
L 496.61578 -108.575204 
L 495.020583 -88.592343 
L 493.425386 -92.493379 
L 491.830189 -82.979627 
L 490.234991 -100.076517 
L 488.639794 -94.662833 
L 487.044597 -92.493379 
L 485.4494 -70.440581 
L 483.854202 -76.491168 
L 482.259005 -63.036572 
L 480.663808 -52.885916 
L 479.068611 -50.756268 
L 477.473413 -88.57244 
L 475.878216 -108.575204 
L 474.283019 -106.127104 
L 472.687822 -100.633808 
L 471.092624 -91.299185 
L 469.497427 -79.99414 
L 467.90223 -74.162488 
L 466.307033 -68.748804 
L 464.711835 -97.389578 
L 463.116638 -87.437954 
L 461.521441 -62.797733 
L 459.926244 -61.583635 
L 458.331046 -58.717567 
L 456.735849 -50.537332 
L 455.140652 -56.926275 
L 453.545455 -58.498632 
L 451.950257 -72.769261 
L 450.35506 -48.885363 
L 448.759863 -46.815425 
L 447.164666 -49.641686 
L 445.569468 -49.920332 
L 443.974271 -63.096282 
L 442.379074 -58.200083 
L 440.783877 -59.71273 
L 439.188679 -62.897249 
L 437.593482 -47.989717 
L 435.998285 -50.258687 
L 434.403087 -67.176448 
L 432.80789 -59.175342 
L 431.212693 -65.345349 
L 429.617496 -80.770366 
L 428.022298 -73.326551 
L 426.427101 -97.76774 
L 424.831904 -94.384188 
L 423.236707 -92.572992 
L 421.641509 -79.536365 
L 420.046312 -69.266289 
L 418.451115 -66.678867 
L 416.855918 -51.612108 
L 415.26072 -59.414181 
L 413.665523 -69.604644 
L 412.070326 -56.209758 
L 410.475129 -66.778383 
L 408.879931 -62.817636 
L 407.284734 -70.50029 
L 405.689537 -66.539544 
L 404.09434 -64.648735 
L 402.499142 -52.945625 
L 400.903945 -46.954748 
L 399.308748 -46.815425 
L 397.713551 -56.607823 
L 396.118353 -76.152813 
L 394.523156 -46.138715 
L 392.927959 -45.879972 
L 391.332762 -47.034361 
L 389.737564 -47.173683 
L 388.142367 -47.392619 
L 386.54717 -89.886054 
L 384.951973 -79.635881 
L 383.356775 -78.899461 
L 381.761578 -77.307201 
L 380.166381 -83.218466 
L 378.571184 -76.590684 
L 376.975986 -73.187229 
L 375.380789 -63.912315 
L 373.785592 -65.10651 
L 372.190395 -53.164561 
L 370.595197 -56.329178 
L 369 -57.005888 
L 367.404803 -56.906372 
L 365.809605 -51.632011 
L 364.214408 -56.508307 
L 362.619211 -82.402433 
L 361.024014 -70.579903 
L 359.428816 -47.750878 
L 357.833619 -65.803124 
L 356.238422 -74.122681 
L 354.643225 -57.38405 
L 353.048027 -46.059102 
L 351.45283 -45.760553 
L 349.857633 -78.103331 
L 348.262436 -51.054817 
L 346.667238 -64.4298 
L 345.072041 -57.364147 
L 343.476844 -54.717015 
L 341.881647 -51.094623 
L 340.286449 -60.946731 
L 338.691252 -76.988749 
L 337.096055 -77.207685 
L 335.500858 -70.50029 
L 333.90566 -72.669744 
L 332.310463 -83.497111 
L 330.715266 -79.87472 
L 329.120069 -81.068915 
L 327.524871 -62.578798 
L 325.929674 -82.123787 
L 324.334477 -75.854264 
L 322.73928 -63.693379 
L 321.144082 -90.960829 
L 319.548885 -77.725169 
L 317.953688 -67.912868 
L 316.358491 -57.224824 
L 314.763293 -48.208652 
L 313.168096 -56.52821 
L 311.572899 -49.920332 
L 309.977702 -51.791237 
L 308.382504 -73.047906 
L 306.787307 -73.445971 
L 305.19211 -86.80105 
L 303.596913 -58.498632 
L 302.001715 -48.268362 
L 300.406518 -47.054264 
L 298.811321 -48.148943 
L 297.216123 -77.745073 
L 295.620926 -54.637402 
L 294.025729 -66.599254 
L 292.430532 -58.677761 
L 290.835334 -53.184464 
L 289.240137 -86.24376 
L 287.64494 -59.274858 
L 286.049743 -58.817084 
L 284.454545 -57.523372 
L 282.859348 -53.283981 
L 281.264151 -58.85689 
L 279.668954 -58.598148 
L 278.073756 -62.797733 
L 276.478559 -56.010726 
L 274.883362 -96.314803 
L 273.288165 -64.350187 
L 271.692967 -64.887574 
L 270.09777 -72.629938 
L 268.502573 -52.786399 
L 266.907376 -53.383497 
L 265.312178 -51.333462 
L 263.716981 -82.243207 
L 262.121784 -97.508998 
L 260.526587 -90.503055 
L 258.931389 -96.613352 
L 257.336192 -59.254955 
L 255.740995 -61.742861 
L 254.145798 -57.722405 
L 252.5506 -72.510518 
L 250.955403 -48.168846 
L 249.360206 -61.105957 
L 247.765009 -47.233393 
L 246.169811 -49.004782 
L 244.574614 -53.542723 
L 242.979417 -58.618051 
L 241.38422 -66.380318 
L 239.789022 -52.647077 
L 238.193825 -50.895591 
L 236.598628 -47.014457 
L 235.003431 -46.875135 
L 233.408233 -57.861728 
L 231.813036 -50.27859 
L 230.217839 -48.507201 
L 228.622642 -49.522267 
L 227.027444 -51.572301 
L 225.432247 -71.177001 
L 223.83705 -54.916047 
L 222.241852 -56.64763 
L 220.646655 -55.075273 
L 219.051458 -60.309827 
L 217.456261 -49.442654 
L 215.861063 -57.563179 
L 214.265866 -57.403953 
L 212.670669 -74.918811 
L 211.075472 -68.330836 
L 209.480274 -69.02745 
L 207.885077 -68.708998 
L 206.28988 -75.595522 
L 204.694683 -69.485225 
L 203.099485 -68.987643 
L 201.504288 -70.719226 
L 199.909091 -68.669191 
L 198.313894 -69.425515 
L 196.718696 -50.875688 
L 195.123499 -51.512592 
L 193.528302 -50.756268 
L 191.933105 -49.54217 
L 190.337907 -68.1119 
L 188.74271 -47.133877 
L 187.147513 -45.601327 
L 185.552316 -66.061866 
L 183.957118 -48.328072 
L 182.361921 -48.964976 
L 180.766724 -55.214596 
L 179.171527 -53.164561 
L 177.576329 -52.985432 
L 175.981132 -67.136641 
L 174.385935 -60.648182 
L 172.790738 -48.308169 
L 171.19554 -48.487298 
L 169.600343 -49.860622 
L 168.005146 -49.522267 
L 166.409949 -61.762764 
L 164.814751 -50.815978 
L 163.219554 -61.504022 
L 161.624357 -78.222751 
L 160.02916 -91.836572 
L 158.433962 -103.639198 
L 156.838765 -98.583773 
L 155.243568 -124.776448 
L 153.64837 -117.173407 
L 152.053173 -112.237402 
L 150.457976 -121.711348 
L 148.862779 -119.203538 
L 147.267581 -89.92586 
L 145.672384 -85.905404 
L 144.077187 -80.272785 
L 142.48199 -76.590684 
L 140.886792 -77.048459 
L 139.291595 -82.820401 
L 137.696398 -87.7166 
L 136.101201 -80.292688 
L 134.506003 -76.849426 
L 132.910806 -94.304575 
L 131.315609 -98.106095 
L 129.720412 -94.304575 
L 128.125214 -100.315356 
L 126.530017 -103.539682 
L 124.93482 -83.775757 
L 123.339623 -66.081769 
L 121.744425 -51.034914 
L 120.149228 -47.810587 
L 118.554031 -49.48246 
L 116.958834 -51.592205 
L 115.363636 -56.687436 
z
" style="stroke: #008000; stroke-width: 0.5"/>
    </defs>
    <g clip-path="url(#pf5d744965e)">
     <use xlink:href="#mbde1a550c5" x="0" y="288" style="fill: #008000; stroke: #008000; stroke-width: 0.5"/>
    </g>
   </g>
   <g id="line2d_24">
    <path d="M 90 44.64 
L 648 44.64 
" clip-path="url(#pf5d744965e)" style="fill: none; stroke: #000000; stroke-width: 1.5; stroke-linecap: square"/>
   </g>
   <g id="line2d_25">
    <path d="M 90 205.00047 
L 648 205.00047 
" clip-path="url(#pf5d744965e)" style="fill: none; stroke: #000000; stroke-width: 1.5; stroke-linecap: square"/>
   </g>
   <g id="patch_3">
    <path d="M 90 256.32 
L 90 34.56 
" style="fill: none; stroke: #000000; stroke-width: 0.8; stroke-linejoin: miter; stroke-linecap: square"/>
   </g>
   <g id="patch_4">
    <path d="M 648 256.32 
L 648 34.56 
" style="fill: none; stroke: #000000; stroke-width: 0.8; stroke-linejoin: miter; stroke-linecap: square"/>
   </g>
   <g id="patch_5">
    <path d="M 90 256.32 
L 648 256.32 
" style="fill: none; stroke: #000000; stroke-width: 0.8; stroke-linejoin: miter; stroke-linecap: square"/>
   </g>
   <g id="patch_6">
    <path d="M 90 34.56 
L 648 34.56 
" style="fill: none; stroke: #000000; stroke-width: 0.8; stroke-linejoin: miter; stroke-linecap: square"/>
   </g>
   <g id="text_20">
    <!-- peak (10,129) -->
    <g transform="translate(118.700327 41.3136) scale(0.1 -0.1)">
     <defs>
      <path id="DejaVuSans-Bold-70" d="M 1656 506 
L 1656 -1331 
L 538 -1331 
L 538 3500 
L 1656 3500 
L 1656 2988 
Q 1888 3294 2169 3439 
Q 2450 3584 2816 3584 
Q 3463 3584 3878 3070 
Q 4294 2556 4294 1747 
Q 4294 938 3878 423 
Q 3463 -91 2816 -91 
Q 2450 -91 2169 54 
Q 1888 200 1656 506 
z
M 2400 2772 
Q 2041 2772 1848 2508 
Q 1656 2244 1656 1747 
Q 1656 1250 1848 986 
Q 2041 722 2400 722 
Q 2759 722 2948 984 
Q 3138 1247 3138 1747 
Q 3138 2247 2948 2509 
Q 2759 2772 2400 2772 
z
" transform="scale(0.015625)"/>
      <path id="DejaVuSans-Bold-65" d="M 4031 1759 
L 4031 1441 
L 1416 1441 
Q 1456 1047 1700 850 
Q 1944 653 2381 653 
Q 2734 653 3104 758 
Q 3475 863 3866 1075 
L 3866 213 
Q 3469 63 3072 -14 
Q 2675 -91 2278 -91 
Q 1328 -91 801 392 
Q 275 875 275 1747 
Q 275 2603 792 3093 
Q 1309 3584 2216 3584 
Q 3041 3584 3536 3087 
Q 4031 2591 4031 1759 
z
M 2881 2131 
Q 2881 2450 2695 2645 
Q 2509 2841 2209 2841 
Q 1884 2841 1681 2658 
Q 1478 2475 1428 2131 
L 2881 2131 
z
" transform="scale(0.015625)"/>
      <path id="DejaVuSans-Bold-61" d="M 2106 1575 
Q 1756 1575 1579 1456 
Q 1403 1338 1403 1106 
Q 1403 894 1545 773 
Q 1688 653 1941 653 
Q 2256 653 2472 879 
Q 2688 1106 2688 1447 
L 2688 1575 
L 2106 1575 
z
M 3816 1997 
L 3816 0 
L 2688 0 
L 2688 519 
Q 2463 200 2181 54 
Q 1900 -91 1497 -91 
Q 953 -91 614 226 
Q 275 544 275 1050 
Q 275 1666 698 1953 
Q 1122 2241 2028 2241 
L 2688 2241 
L 2688 2328 
Q 2688 2594 2478 2717 
Q 2269 2841 1825 2841 
Q 1466 2841 1156 2769 
Q 847 2697 581 2553 
L 581 3406 
Q 941 3494 1303 3539 
Q 1666 3584 2028 3584 
Q 2975 3584 3395 3211 
Q 3816 2838 3816 1997 
z
" transform="scale(0.015625)"/>
      <path id="DejaVuSans-Bold-6b" d="M 538 4863 
L 1656 4863 
L 1656 2216 
L 2944 3500 
L 4244 3500 
L 2534 1894 
L 4378 0 
L 3022 0 
L 1656 1459 
L 1656 0 
L 538 0 
L 538 4863 
z
" transform="scale(0.015625)"/>
      <path id="DejaVuSans-Bold-20" transform="scale(0.015625)"/>
      <path id="DejaVuSans-Bold-28" d="M 2413 -844 
L 1484 -844 
Q 1006 -72 778 623 
Q 550 1319 550 2003 
Q 550 2688 779 3389 
Q 1009 4091 1484 4856 
L 2413 4856 
Q 2013 4116 1813 3408 
Q 1613 2700 1613 2009 
Q 1613 1319 1811 609 
Q 2009 -100 2413 -844 
z
" transform="scale(0.015625)"/>
      <path id="DejaVuSans-Bold-31" d="M 750 831 
L 1813 831 
L 1813 3847 
L 722 3622 
L 722 4441 
L 1806 4666 
L 2950 4666 
L 2950 831 
L 4013 831 
L 4013 0 
L 750 0 
L 750 831 
z
" transform="scale(0.015625)"/>
      <path id="DejaVuSans-Bold-30" d="M 2944 2338 
Q 2944 3213 2780 3570 
Q 2616 3928 2228 3928 
Q 1841 3928 1675 3570 
Q 1509 3213 1509 2338 
Q 1509 1453 1675 1090 
Q 1841 728 2228 728 
Q 2613 728 2778 1090 
Q 2944 1453 2944 2338 
z
M 4147 2328 
Q 4147 1169 3647 539 
Q 3147 -91 2228 -91 
Q 1306 -91 806 539 
Q 306 1169 306 2328 
Q 306 3491 806 4120 
Q 1306 4750 2228 4750 
Q 3147 4750 3647 4120 
Q 4147 3491 4147 2328 
z
" transform="scale(0.015625)"/>
      <path id="DejaVuSans-Bold-2c" d="M 653 1209 
L 1778 1209 
L 1778 256 
L 1006 -909 
L 341 -909 
L 653 256 
L 653 1209 
z
" transform="scale(0.015625)"/>
      <path id="DejaVuSans-Bold-32" d="M 1844 884 
L 3897 884 
L 3897 0 
L 506 0 
L 506 884 
L 2209 2388 
Q 2438 2594 2547 2791 
Q 2656 2988 2656 3200 
Q 2656 3528 2436 3728 
Q 2216 3928 1850 3928 
Q 1569 3928 1234 3808 
Q 900 3688 519 3450 
L 519 4475 
Q 925 4609 1322 4679 
Q 1719 4750 2100 4750 
Q 2938 4750 3402 4381 
Q 3866 4013 3866 3353 
Q 3866 2972 3669 2642 
Q 3472 2313 2841 1759 
L 1844 884 
z
" transform="scale(0.015625)"/>
      <path id="DejaVuSans-Bold-39" d="M 641 103 
L 641 966 
Q 928 831 1190 764 
Q 1453 697 1709 697 
Q 2247 697 2547 995 
Q 2847 1294 2900 1881 
Q 2688 1725 2447 1647 
Q 2206 1569 1925 1569 
Q 1209 1569 770 1986 
Q 331 2403 331 3084 
Q 331 3838 820 4291 
Q 1309 4744 2131 4744 
Q 3044 4744 3544 4128 
Q 4044 3513 4044 2388 
Q 4044 1231 3459 570 
Q 2875 -91 1856 -91 
Q 1528 -91 1228 -42 
Q 928 6 641 103 
z
M 2125 2350 
Q 2441 2350 2600 2554 
Q 2759 2759 2759 3169 
Q 2759 3575 2600 3781 
Q 2441 3988 2125 3988 
Q 1809 3988 1650 3781 
Q 1491 3575 1491 3169 
Q 1491 2759 1650 2554 
Q 1809 2350 2125 2350 
z
" transform="scale(0.015625)"/>
      <path id="DejaVuSans-Bold-29" d="M 513 -844 
Q 913 -100 1113 609 
Q 1313 1319 1313 2009 
Q 1313 2700 1113 3408 
Q 913 4116 513 4856 
L 1441 4856 
Q 1916 4091 2145 3389 
Q 2375 2688 2375 2003 
Q 2375 1319 2147 623 
Q 1919 -72 1441 -844 
L 513 -844 
z
" transform="scale(0.015625)"/>
     </defs>
     <use xlink:href="#DejaVuSans-Bold-70"/>
     <use xlink:href="#DejaVuSans-Bold-65" x="71.582031"/>
     <use xlink:href="#DejaVuSans-Bold-61" x="139.404297"/>
     <use xlink:href="#DejaVuSans-Bold-6b" x="206.884766"/>
     <use xlink:href="#DejaVuSans-Bold-20" x="273.388672"/>
     <use xlink:href="#DejaVuSans-Bold-28" x="308.203125"/>
     <use xlink:href="#DejaVuSans-Bold-31" x="353.90625"/>
     <use xlink:href="#DejaVuSans-Bold-30" x="423.486328"/>
     <use xlink:href="#DejaVuSans-Bold-2c" x="493.066406"/>
     <use xlink:href="#DejaVuSans-Bold-31" x="531.054688"/>
     <use xlink:href="#DejaVuSans-Bold-32" x="600.634766"/>
     <use xlink:href="#DejaVuSans-Bold-39" x="670.214844"/>
     <use xlink:href="#DejaVuSans-Bold-29" x="739.794922"/>
    </g>
   </g>
   <g id="text_21">
    <!-- mean (2,072) -->
    <g transform="translate(567.728153 201.67407) scale(0.1 -0.1)">
     <defs>
      <path id="DejaVuSans-Bold-6d" d="M 3781 2919 
Q 3994 3244 4286 3414 
Q 4578 3584 4928 3584 
Q 5531 3584 5847 3212 
Q 6163 2841 6163 2131 
L 6163 0 
L 5038 0 
L 5038 1825 
Q 5041 1866 5042 1909 
Q 5044 1953 5044 2034 
Q 5044 2406 4934 2573 
Q 4825 2741 4581 2741 
Q 4263 2741 4089 2478 
Q 3916 2216 3909 1719 
L 3909 0 
L 2784 0 
L 2784 1825 
Q 2784 2406 2684 2573 
Q 2584 2741 2328 2741 
Q 2006 2741 1831 2477 
Q 1656 2213 1656 1722 
L 1656 0 
L 531 0 
L 531 3500 
L 1656 3500 
L 1656 2988 
Q 1863 3284 2130 3434 
Q 2397 3584 2719 3584 
Q 3081 3584 3359 3409 
Q 3638 3234 3781 2919 
z
" transform="scale(0.015625)"/>
      <path id="DejaVuSans-Bold-6e" d="M 4056 2131 
L 4056 0 
L 2931 0 
L 2931 347 
L 2931 1631 
Q 2931 2084 2911 2256 
Q 2891 2428 2841 2509 
Q 2775 2619 2662 2680 
Q 2550 2741 2406 2741 
Q 2056 2741 1856 2470 
Q 1656 2200 1656 1722 
L 1656 0 
L 538 0 
L 538 3500 
L 1656 3500 
L 1656 2988 
Q 1909 3294 2193 3439 
Q 2478 3584 2822 3584 
Q 3428 3584 3742 3212 
Q 4056 2841 4056 2131 
z
" transform="scale(0.015625)"/>
      <path id="DejaVuSans-Bold-37" d="M 428 4666 
L 3944 4666 
L 3944 3988 
L 2125 0 
L 953 0 
L 2675 3781 
L 428 3781 
L 428 4666 
z
" transform="scale(0.015625)"/>
     </defs>
     <use xlink:href="#DejaVuSans-Bold-6d"/>
     <use xlink:href="#DejaVuSans-Bold-65" x="104.199219"/>
     <use xlink:href="#DejaVuSans-Bold-61" x="172.021484"/>
     <use xlink:href="#DejaVuSans-Bold-6e" x="239.501953"/>
     <use xlink:href="#DejaVuSans-Bold-20" x="310.693359"/>
     <use xlink:href="#DejaVuSans-Bold-28" x="345.507812"/>
     <use xlink:href="#DejaVuSans-Bold-32" x="391.210938"/>
     <use xlink:href="#DejaVuSans-Bold-2c" x="460.791016"/>
     <use xlink:href="#DejaVuSans-Bold-30" x="498.779297"/>
     <use xlink:href="#DejaVuSans-Bold-37" x="568.359375"/>
     <use xlink:href="#DejaVuSans-Bold-32" x="637.939453"/>
     <use xlink:href="#DejaVuSans-Bold-29" x="707.519531"/>
    </g>
   </g>
   <g id="text_22">
    <!-- Stream Bitrate over Time -->
    <g transform="translate(293.189062 28.56) scale(0.12 -0.12)">
     <defs>
      <path id="DejaVuSans-53" d="M 3425 4513 
L 3425 3897 
Q 3066 4069 2747 4153 
Q 2428 4238 2131 4238 
Q 1616 4238 1336 4038 
Q 1056 3838 1056 3469 
Q 1056 3159 1242 3001 
Q 1428 2844 1947 2747 
L 2328 2669 
Q 3034 2534 3370 2195 
Q 3706 1856 3706 1288 
Q 3706 609 3251 259 
Q 2797 -91 1919 -91 
Q 1588 -91 1214 -16 
Q 841 59 441 206 
L 441 856 
Q 825 641 1194 531 
Q 1563 422 1919 422 
Q 2459 422 2753 634 
Q 3047 847 3047 1241 
Q 3047 1584 2836 1778 
Q 2625 1972 2144 2069 
L 1759 2144 
Q 1053 2284 737 2584 
Q 422 2884 422 3419 
Q 422 4038 858 4394 
Q 1294 4750 2059 4750 
Q 2388 4750 2728 4690 
Q 3069 4631 3425 4513 
z
" transform="scale(0.015625)"/>
      <path id="DejaVuSans-6f" d="M 1959 3097 
Q 1497 3097 1228 2736 
Q 959 2375 959 1747 
Q 959 1119 1226 758 
Q 1494 397 1959 397 
Q 2419 397 2687 759 
Q 2956 1122 2956 1747 
Q 2956 2369 2687 2733 
Q 2419 3097 1959 3097 
z
M 1959 3584 
Q 2709 3584 3137 3096 
Q 3566 2609 3566 1747 
Q 3566 888 3137 398 
Q 2709 -91 1959 -91 
Q 1206 -91 779 398 
Q 353 888 353 1747 
Q 353 2609 779 3096 
Q 1206 3584 1959 3584 
z
" transform="scale(0.015625)"/>
      <path id="DejaVuSans-76" d="M 191 3500 
L 800 3500 
L 1894 563 
L 2988 3500 
L 3597 3500 
L 2284 0 
L 1503 0 
L 191 3500 
z
" transform="scale(0.015625)"/>
     </defs>
     <use xlink:href="#DejaVuSans-53"/>
     <use xlink:href="#DejaVuSans-74" x="63.476562"/>
     <use xlink:href="#DejaVuSans-72" x="102.685547"/>
     <use xlink:href="#DejaVuSans-65" x="141.548828"/>
     <use xlink:href="#DejaVuSans-61" x="203.072266"/>
     <use xlink:href="#DejaVuSans-6d" x="264.351562"/>
     <use xlink:href="#DejaVuSans-20" x="361.763672"/>
     <use xlink:href="#DejaVuSans-42" x="393.550781"/>
     <use xlink:href="#DejaVuSans-69" x="462.154297"/>
     <use xlink:href="#DejaVuSans-74" x="489.9375"/>
     <use xlink:href="#DejaVuSans-72" x="529.146484"/>
     <use xlink:href="#DejaVuSans-61" x="570.259766"/>
     <use xlink:href="#DejaVuSans-74" x="631.539062"/>
     <use xlink:href="#DejaVuSans-65" x="670.748047"/>
     <use xlink:href="#DejaVuSans-20" x="732.271484"/>
     <use xlink:href="#DejaVuSans-6f" x="764.058594"/>
     <use xlink:href="#DejaVuSans-76" x="825.240234"/>
     <use xlink:href="#DejaVuSans-65" x="884.419922"/>
     <use xlink:href="#DejaVuSans-72" x="945.943359"/>
     <use xlink:href="#DejaVuSans-20" x="987.056641"/>
     <use xlink:href="#DejaVuSans-54" x="1018.84375"/>
     <use xlink:href="#DejaVuSans-69" x="1076.802734"/>
     <use xlink:href="#DejaVuSans-6d" x="1104.585938"/>
     <use xlink:href="#DejaVuSans-65" x="1201.998047"/>
    </g>
   </g>
   <g id="legend_1">
    <g id="patch_7">
     <path d="M 602.139063 86.594375 
L 641 86.594375 
Q 643 86.594375 643 84.594375 
L 643 41.56 
Q 643 39.56 641 39.56 
L 602.139063 39.56 
Q 600.139063 39.56 600.139063 41.56 
L 600.139063 84.594375 
Q 600.139063 86.594375 602.139063 86.594375 
z
" style="fill: #ffffff; opacity: 0.8; stroke: #cccccc; stroke-linejoin: miter"/>
    </g>
    <g id="patch_8">
     <path d="M 604.139063 51.158438 
L 624.139063 51.158438 
L 624.139063 44.158438 
L 604.139063 44.158438 
z
" style="fill: #ff0000; stroke: #ff0000; stroke-width: 0.5; stroke-linejoin: miter"/>
    </g>
    <g id="text_23">
     <!-- I -->
     <g transform="translate(632.139063 51.158438) scale(0.1 -0.1)">
      <defs>
       <path id="DejaVuSans-49" d="M 628 4666 
L 1259 4666 
L 1259 0 
L 628 0 
L 628 4666 
z
" transform="scale(0.015625)"/>
      </defs>
      <use xlink:href="#DejaVuSans-49"/>
     </g>
    </g>
    <g id="patch_9">
     <path d="M 604.139063 65.836563 
L 624.139063 65.836563 
L 624.139063 58.836563 
L 604.139063 58.836563 
z
" style="fill: #0000ff; stroke: #0000ff; stroke-width: 0.5; stroke-linejoin: miter"/>
    </g>
    <g id="text_24">
     <!-- B -->
     <g transform="translate(632.139063 65.836563) scale(0.1 -0.1)">
      <use xlink:href="#DejaVuSans-42"/>
     </g>
    </g>
    <g id="patch_10">
     <path d="M 604.139063 80.514688 
L 624.139063 80.514688 
L 624.139063 73.514688 
L 604.139063 73.514688 
z
" style="fill: #008000; stroke: #008000; stroke-width: 0.5; stroke-linejoin: miter"/>
    </g>
    <g id="text_25">
     <!-- P -->
     <g transform="translate(632.139063 80.514688) scale(0.1 -0.1)">
      <defs>
       <path id="DejaVuSans-50" d="M 1259 4147 
L 1259 2394 
L 2053 2394 
Q 2494 2394 2734 2622 
Q 2975 2850 2975 3272 
Q 2975 3691 2734 3919 
Q 2494 4147 2053 4147 
L 1259 4147 
z
M 628 4666 
L 2053 4666 
Q 2838 4666 3239 4311 
Q 3641 3956 3641 3272 
Q 3641 2581 3239 2228 
Q 2838 1875 2053 1875 
L 1259 1875 
L 1259 0 
L 628 0 
L 628 4666 
z
" transform="scale(0.015625)"/>
      </defs>
      <use xlink:href="#DejaVuSans-50"/>
     </g>
    </g>
   </g>
  </g>
 </g>
 <defs>
  <clipPath id="pf5d744965e">
   <rect x="90" y="34.56" width="558" height="221.76"/>
  </clipPath>
 </defs>
</svg>
