<?xml version="1.0" encoding="utf-8" standalone="no"?>
<!DOCTYPE svg PUBLIC "-//W3C//DTD SVG 1.1//EN"
  "http://www.w3.org/Graphics/SVG/1.1/DTD/svg11.dtd">
<svg xmlns:xlink="http://www.w3.org/1999/xlink" width="720pt" height="288pt" viewBox="0 0 720 288" xmlns="http://www.w3.org/2000/svg" version="1.1">
 <metadata>
  <rdf:RDF xmlns:dc="http://purl.org/dc/elements/1.1/" xmlns:cc="http://creativecommons.org/ns#" xmlns:rdf="http://www.w3.org/1999/02/22-rdf-syntax-ns#">
   <cc:Work>
    <dc:type rdf:resource="http://purl.org/dc/dcmitype/StillImage"/>
    <dc:date>2023-05-07T14:00:59.118043</dc:date>
    <dc:format>image/svg+xml</dc:format>
    <dc:creator>
     <cc:Agent>
      <dc:title>Matplotlib v3.7.1, https://matplotlib.org/</dc:title>
     </cc:Agent>
    </dc:creator>
   </cc:Work>
  </rdf:RDF>
 </metadata>
 <defs>
  <style type="text/css">*{stroke-linejoin: round; stroke-linecap: butt}</style>
 </defs>
 <g id="figure_1">
  <g id="patch_1">
   <path d="M 0 288 
L 720 288 
L 720 0 
L 0 0 
z
" style="fill: #ffffff"/>
  </g>
  <g id="axes_1">
   <g id="patch_2">
    <path d="M 90 256.32 
L 648 256.32 
L 648 34.56 
L 90 34.56 
z
" style="fill: #ffffff"/>
   </g>
   <g id="matplotlib.axis_1">
    <g id="xtick_1">
     <g id="line2d_1">
      <defs>
       <path id="m38314c5f91" d="M 0 0 
L 0 3.5 
" style="stroke: #000000; stroke-width: 0.8"/>
      </defs>
      <g>
       <use xlink:href="#m38314c5f91" x="115.363636" y="256.32" style="stroke: #000000; stroke-width: 0.8"/>
      </g>
     </g>
     <g id="text_1">
      <!-- 0:00:00 -->
      <g transform="translate(96.088636 270.918437) scale(0.1 -0.1)">
       <defs>
        <path id="DejaVuSans-30" d="M 2034 4250 
Q 1547 4250 1301 3770 
Q 1056 3291 1056 2328 
Q 1056 1369 1301 889 
Q 1547 409 2034 409 
Q 2525 409 2770 889 
Q 3016 1369 3016 2328 
Q 3016 3291 2770 3770 
Q 2525 4250 2034 4250 
z
M 2034 4750 
Q 2819 4750 3233 4129 
Q 3647 3509 3647 2328 
Q 3647 1150 3233 529 
Q 2819 -91 2034 -91 
Q 1250 -91 836 529 
Q 422 1150 422 2328 
Q 422 3509 836 4129 
Q 1250 4750 2034 4750 
z
" transform="scale(0.015625)"/>
        <path id="DejaVuSans-3a" d="M 750 794 
L 1409 794 
L 1409 0 
L 750 0 
L 750 794 
z
M 750 3309 
L 1409 3309 
L 1409 2516 
L 750 2516 
L 750 3309 
z
" transform="scale(0.015625)"/>
       </defs>
       <use xlink:href="#DejaVuSans-30"/>
       <use xlink:href="#DejaVuSans-3a" x="63.623047"/>
       <use xlink:href="#DejaVuSans-30" x="97.314453"/>
       <use xlink:href="#DejaVuSans-30" x="160.9375"/>
       <use xlink:href="#DejaVuSans-3a" x="224.560547"/>
       <use xlink:href="#DejaVuSans-30" x="258.251953"/>
       <use xlink:href="#DejaVuSans-30" x="321.875"/>
      </g>
     </g>
    </g>
    <g id="xtick_2">
     <g id="line2d_2">
      <g>
       <use xlink:href="#m38314c5f91" x="164.814751" y="256.32" style="stroke: #000000; stroke-width: 0.8"/>
      </g>
     </g>
     <g id="text_2">
      <!-- 0:00:31 -->
      <g transform="translate(145.539751 270.918437) scale(0.1 -0.1)">
       <defs>
        <path id="DejaVuSans-33" d="M 2597 2516 
Q 3050 2419 3304 2112 
Q 3559 1806 3559 1356 
Q 3559 666 3084 287 
Q 2609 -91 1734 -91 
Q 1441 -91 1130 -33 
Q 819 25 488 141 
L 488 750 
Q 750 597 1062 519 
Q 1375 441 1716 441 
Q 2309 441 2620 675 
Q 2931 909 2931 1356 
Q 2931 1769 2642 2001 
Q 2353 2234 1838 2234 
L 1294 2234 
L 1294 2753 
L 1863 2753 
Q 2328 2753 2575 2939 
Q 2822 3125 2822 3475 
Q 2822 3834 2567 4026 
Q 2313 4219 1838 4219 
Q 1578 4219 1281 4162 
Q 984 4106 628 3988 
L 628 4550 
Q 988 4650 1302 4700 
Q 1616 4750 1894 4750 
Q 2613 4750 3031 4423 
Q 3450 4097 3450 3541 
Q 3450 3153 3228 2886 
Q 3006 2619 2597 2516 
z
" transform="scale(0.015625)"/>
        <path id="DejaVuSans-31" d="M 794 531 
L 1825 531 
L 1825 4091 
L 703 3866 
L 703 4441 
L 1819 4666 
L 2450 4666 
L 2450 531 
L 3481 531 
L 3481 0 
L 794 0 
L 794 531 
z
" transform="scale(0.015625)"/>
       </defs>
       <use xlink:href="#DejaVuSans-30"/>
       <use xlink:href="#DejaVuSans-3a" x="63.623047"/>
       <use xlink:href="#DejaVuSans-30" x="97.314453"/>
       <use xlink:href="#DejaVuSans-30" x="160.9375"/>
       <use xlink:href="#DejaVuSans-3a" x="224.560547"/>
       <use xlink:href="#DejaVuSans-33" x="258.251953"/>
       <use xlink:href="#DejaVuSans-31" x="321.875"/>
      </g>
     </g>
    </g>
    <g id="xtick_3">
     <g id="line2d_3">
      <g>
       <use xlink:href="#m38314c5f91" x="214.265866" y="256.32" style="stroke: #000000; stroke-width: 0.8"/>
      </g>
     </g>
     <g id="text_3">
      <!-- 0:01:02 -->
      <g transform="translate(194.990866 270.918437) scale(0.1 -0.1)">
       <defs>
        <path id="DejaVuSans-32" d="M 1228 531 
L 3431 531 
L 3431 0 
L 469 0 
L 469 531 
Q 828 903 1448 1529 
Q 2069 2156 2228 2338 
Q 2531 2678 2651 2914 
Q 2772 3150 2772 3378 
Q 2772 3750 2511 3984 
Q 2250 4219 1831 4219 
Q 1534 4219 1204 4116 
Q 875 4013 500 3803 
L 500 4441 
Q 881 4594 1212 4672 
Q 1544 4750 1819 4750 
Q 2544 4750 2975 4387 
Q 3406 4025 3406 3419 
Q 3406 3131 3298 2873 
Q 3191 2616 2906 2266 
Q 2828 2175 2409 1742 
Q 1991 1309 1228 531 
z
" transform="scale(0.015625)"/>
       </defs>
       <use xlink:href="#DejaVuSans-30"/>
       <use xlink:href="#DejaVuSans-3a" x="63.623047"/>
       <use xlink:href="#DejaVuSans-30" x="97.314453"/>
       <use xlink:href="#DejaVuSans-31" x="160.9375"/>
       <use xlink:href="#DejaVuSans-3a" x="224.560547"/>
       <use xlink:href="#DejaVuSans-30" x="258.251953"/>
       <use xlink:href="#DejaVuSans-32" x="321.875"/>
      </g>
     </g>
    </g>
    <g id="xtick_4">
     <g id="line2d_4">
      <g>
       <use xlink:href="#m38314c5f91" x="263.716981" y="256.32" style="stroke: #000000; stroke-width: 0.8"/>
      </g>
     </g>
     <g id="text_4">
      <!-- 0:01:33 -->
      <g transform="translate(244.441981 270.918437) scale(0.1 -0.1)">
       <use xlink:href="#DejaVuSans-30"/>
       <use xlink:href="#DejaVuSans-3a" x="63.623047"/>
       <use xlink:href="#DejaVuSans-30" x="97.314453"/>
       <use xlink:href="#DejaVuSans-31" x="160.9375"/>
       <use xlink:href="#DejaVuSans-3a" x="224.560547"/>
       <use xlink:href="#DejaVuSans-33" x="258.251953"/>
       <use xlink:href="#DejaVuSans-33" x="321.875"/>
      </g>
     </g>
    </g>
    <g id="xtick_5">
     <g id="line2d_5">
      <g>
       <use xlink:href="#m38314c5f91" x="313.168096" y="256.32" style="stroke: #000000; stroke-width: 0.8"/>
      </g>
     </g>
     <g id="text_5">
      <!-- 0:02:04 -->
      <g transform="translate(293.893096 270.918437) scale(0.1 -0.1)">
       <defs>
        <path id="DejaVuSans-34" d="M 2419 4116 
L 825 1625 
L 2419 1625 
L 2419 4116 
z
M 2253 4666 
L 3047 4666 
L 3047 1625 
L 3713 1625 
L 3713 1100 
L 3047 1100 
L 3047 0 
L 2419 0 
L 2419 1100 
L 313 1100 
L 313 1709 
L 2253 4666 
z
" transform="scale(0.015625)"/>
       </defs>
       <use xlink:href="#DejaVuSans-30"/>
       <use xlink:href="#DejaVuSans-3a" x="63.623047"/>
       <use xlink:href="#DejaVuSans-30" x="97.314453"/>
       <use xlink:href="#DejaVuSans-32" x="160.9375"/>
       <use xlink:href="#DejaVuSans-3a" x="224.560547"/>
       <use xlink:href="#DejaVuSans-30" x="258.251953"/>
       <use xlink:href="#DejaVuSans-34" x="321.875"/>
      </g>
     </g>
    </g>
    <g id="xtick_6">
     <g id="line2d_6">
      <g>
       <use xlink:href="#m38314c5f91" x="362.619211" y="256.32" style="stroke: #000000; stroke-width: 0.8"/>
      </g>
     </g>
     <g id="text_6">
      <!-- 0:02:35 -->
      <g transform="translate(343.344211 270.918437) scale(0.1 -0.1)">
       <defs>
        <path id="DejaVuSans-35" d="M 691 4666 
L 3169 4666 
L 3169 4134 
L 1269 4134 
L 1269 2991 
Q 1406 3038 1543 3061 
Q 1681 3084 1819 3084 
Q 2600 3084 3056 2656 
Q 3513 2228 3513 1497 
Q 3513 744 3044 326 
Q 2575 -91 1722 -91 
Q 1428 -91 1123 -41 
Q 819 9 494 109 
L 494 744 
Q 775 591 1075 516 
Q 1375 441 1709 441 
Q 2250 441 2565 725 
Q 2881 1009 2881 1497 
Q 2881 1984 2565 2268 
Q 2250 2553 1709 2553 
Q 1456 2553 1204 2497 
Q 953 2441 691 2322 
L 691 4666 
z
" transform="scale(0.015625)"/>
       </defs>
       <use xlink:href="#DejaVuSans-30"/>
       <use xlink:href="#DejaVuSans-3a" x="63.623047"/>
       <use xlink:href="#DejaVuSans-30" x="97.314453"/>
       <use xlink:href="#DejaVuSans-32" x="160.9375"/>
       <use xlink:href="#DejaVuSans-3a" x="224.560547"/>
       <use xlink:href="#DejaVuSans-33" x="258.251953"/>
       <use xlink:href="#DejaVuSans-35" x="321.875"/>
      </g>
     </g>
    </g>
    <g id="xtick_7">
     <g id="line2d_7">
      <g>
       <use xlink:href="#m38314c5f91" x="412.070326" y="256.32" style="stroke: #000000; stroke-width: 0.8"/>
      </g>
     </g>
     <g id="text_7">
      <!-- 0:03:06 -->
      <g transform="translate(392.795326 270.918437) scale(0.1 -0.1)">
       <defs>
        <path id="DejaVuSans-36" d="M 2113 2584 
Q 1688 2584 1439 2293 
Q 1191 2003 1191 1497 
Q 1191 994 1439 701 
Q 1688 409 2113 409 
Q 2538 409 2786 701 
Q 3034 994 3034 1497 
Q 3034 2003 2786 2293 
Q 2538 2584 2113 2584 
z
M 3366 4563 
L 3366 3988 
Q 3128 4100 2886 4159 
Q 2644 4219 2406 4219 
Q 1781 4219 1451 3797 
Q 1122 3375 1075 2522 
Q 1259 2794 1537 2939 
Q 1816 3084 2150 3084 
Q 2853 3084 3261 2657 
Q 3669 2231 3669 1497 
Q 3669 778 3244 343 
Q 2819 -91 2113 -91 
Q 1303 -91 875 529 
Q 447 1150 447 2328 
Q 447 3434 972 4092 
Q 1497 4750 2381 4750 
Q 2619 4750 2861 4703 
Q 3103 4656 3366 4563 
z
" transform="scale(0.015625)"/>
       </defs>
       <use xlink:href="#DejaVuSans-30"/>
       <use xlink:href="#DejaVuSans-3a" x="63.623047"/>
       <use xlink:href="#DejaVuSans-30" x="97.314453"/>
       <use xlink:href="#DejaVuSans-33" x="160.9375"/>
       <use xlink:href="#DejaVuSans-3a" x="224.560547"/>
       <use xlink:href="#DejaVuSans-30" x="258.251953"/>
       <use xlink:href="#DejaVuSans-36" x="321.875"/>
      </g>
     </g>
    </g>
    <g id="xtick_8">
     <g id="line2d_8">
      <g>
       <use xlink:href="#m38314c5f91" x="461.521441" y="256.32" style="stroke: #000000; stroke-width: 0.8"/>
      </g>
     </g>
     <g id="text_8">
      <!-- 0:03:37 -->
      <g transform="translate(442.246441 270.918437) scale(0.1 -0.1)">
       <defs>
        <path id="DejaVuSans-37" d="M 525 4666 
L 3525 4666 
L 3525 4397 
L 1831 0 
L 1172 0 
L 2766 4134 
L 525 4134 
L 525 4666 
z
" transform="scale(0.015625)"/>
       </defs>
       <use xlink:href="#DejaVuSans-30"/>
       <use xlink:href="#DejaVuSans-3a" x="63.623047"/>
       <use xlink:href="#DejaVuSans-30" x="97.314453"/>
       <use xlink:href="#DejaVuSans-33" x="160.9375"/>
       <use xlink:href="#DejaVuSans-3a" x="224.560547"/>
       <use xlink:href="#DejaVuSans-33" x="258.251953"/>
       <use xlink:href="#DejaVuSans-37" x="321.875"/>
      </g>
     </g>
    </g>
    <g id="xtick_9">
     <g id="line2d_9">
      <g>
       <use xlink:href="#m38314c5f91" x="510.972556" y="256.32" style="stroke: #000000; stroke-width: 0.8"/>
      </g>
     </g>
     <g id="text_9">
      <!-- 0:04:08 -->
      <g transform="translate(491.697556 270.918437) scale(0.1 -0.1)">
       <defs>
        <path id="DejaVuSans-38" d="M 2034 2216 
Q 1584 2216 1326 1975 
Q 1069 1734 1069 1313 
Q 1069 891 1326 650 
Q 1584 409 2034 409 
Q 2484 409 2743 651 
Q 3003 894 3003 1313 
Q 3003 1734 2745 1975 
Q 2488 2216 2034 2216 
z
M 1403 2484 
Q 997 2584 770 2862 
Q 544 3141 544 3541 
Q 544 4100 942 4425 
Q 1341 4750 2034 4750 
Q 2731 4750 3128 4425 
Q 3525 4100 3525 3541 
Q 3525 3141 3298 2862 
Q 3072 2584 2669 2484 
Q 3125 2378 3379 2068 
Q 3634 1759 3634 1313 
Q 3634 634 3220 271 
Q 2806 -91 2034 -91 
Q 1263 -91 848 271 
Q 434 634 434 1313 
Q 434 1759 690 2068 
Q 947 2378 1403 2484 
z
M 1172 3481 
Q 1172 3119 1398 2916 
Q 1625 2713 2034 2713 
Q 2441 2713 2670 2916 
Q 2900 3119 2900 3481 
Q 2900 3844 2670 4047 
Q 2441 4250 2034 4250 
Q 1625 4250 1398 4047 
Q 1172 3844 1172 3481 
z
" transform="scale(0.015625)"/>
       </defs>
       <use xlink:href="#DejaVuSans-30"/>
       <use xlink:href="#DejaVuSans-3a" x="63.623047"/>
       <use xlink:href="#DejaVuSans-30" x="97.314453"/>
       <use xlink:href="#DejaVuSans-34" x="160.9375"/>
       <use xlink:href="#DejaVuSans-3a" x="224.560547"/>
       <use xlink:href="#DejaVuSans-30" x="258.251953"/>
       <use xlink:href="#DejaVuSans-38" x="321.875"/>
      </g>
     </g>
    </g>
    <g id="xtick_10">
     <g id="line2d_10">
      <g>
       <use xlink:href="#m38314c5f91" x="560.423671" y="256.32" style="stroke: #000000; stroke-width: 0.8"/>
      </g>
     </g>
     <g id="text_10">
      <!-- 0:04:39 -->
      <g transform="translate(541.148671 270.918437) scale(0.1 -0.1)">
       <defs>
        <path id="DejaVuSans-39" d="M 703 97 
L 703 672 
Q 941 559 1184 500 
Q 1428 441 1663 441 
Q 2288 441 2617 861 
Q 2947 1281 2994 2138 
Q 2813 1869 2534 1725 
Q 2256 1581 1919 1581 
Q 1219 1581 811 2004 
Q 403 2428 403 3163 
Q 403 3881 828 4315 
Q 1253 4750 1959 4750 
Q 2769 4750 3195 4129 
Q 3622 3509 3622 2328 
Q 3622 1225 3098 567 
Q 2575 -91 1691 -91 
Q 1453 -91 1209 -44 
Q 966 3 703 97 
z
M 1959 2075 
Q 2384 2075 2632 2365 
Q 2881 2656 2881 3163 
Q 2881 3666 2632 3958 
Q 2384 4250 1959 4250 
Q 1534 4250 1286 3958 
Q 1038 3666 1038 3163 
Q 1038 2656 1286 2365 
Q 1534 2075 1959 2075 
z
" transform="scale(0.015625)"/>
       </defs>
       <use xlink:href="#DejaVuSans-30"/>
       <use xlink:href="#DejaVuSans-3a" x="63.623047"/>
       <use xlink:href="#DejaVuSans-30" x="97.314453"/>
       <use xlink:href="#DejaVuSans-34" x="160.9375"/>
       <use xlink:href="#DejaVuSans-3a" x="224.560547"/>
       <use xlink:href="#DejaVuSans-33" x="258.251953"/>
       <use xlink:href="#DejaVuSans-39" x="321.875"/>
      </g>
     </g>
    </g>
    <g id="xtick_11">
     <g id="line2d_11">
      <g>
       <use xlink:href="#m38314c5f91" x="609.874786" y="256.32" style="stroke: #000000; stroke-width: 0.8"/>
      </g>
     </g>
     <g id="text_11">
      <!-- 0:05:10 -->
      <g transform="translate(590.599786 270.918437) scale(0.1 -0.1)">
       <use xlink:href="#DejaVuSans-30"/>
       <use xlink:href="#DejaVuSans-3a" x="63.623047"/>
       <use xlink:href="#DejaVuSans-30" x="97.314453"/>
       <use xlink:href="#DejaVuSans-35" x="160.9375"/>
       <use xlink:href="#DejaVuSans-3a" x="224.560547"/>
       <use xlink:href="#DejaVuSans-31" x="258.251953"/>
       <use xlink:href="#DejaVuSans-30" x="321.875"/>
      </g>
     </g>
    </g>
    <g id="text_12">
     <!-- Time -->
     <g transform="translate(356.766406 284.596563) scale(0.1 -0.1)">
      <defs>
       <path id="DejaVuSans-54" d="M -19 4666 
L 3928 4666 
L 3928 4134 
L 2272 4134 
L 2272 0 
L 1638 0 
L 1638 4134 
L -19 4134 
L -19 4666 
z
" transform="scale(0.015625)"/>
       <path id="DejaVuSans-69" d="M 603 3500 
L 1178 3500 
L 1178 0 
L 603 0 
L 603 3500 
z
M 603 4863 
L 1178 4863 
L 1178 4134 
L 603 4134 
L 603 4863 
z
" transform="scale(0.015625)"/>
       <path id="DejaVuSans-6d" d="M 3328 2828 
Q 3544 3216 3844 3400 
Q 4144 3584 4550 3584 
Q 5097 3584 5394 3201 
Q 5691 2819 5691 2113 
L 5691 0 
L 5113 0 
L 5113 2094 
Q 5113 2597 4934 2840 
Q 4756 3084 4391 3084 
Q 3944 3084 3684 2787 
Q 3425 2491 3425 1978 
L 3425 0 
L 2847 0 
L 2847 2094 
Q 2847 2600 2669 2842 
Q 2491 3084 2119 3084 
Q 1678 3084 1418 2786 
Q 1159 2488 1159 1978 
L 1159 0 
L 581 0 
L 581 3500 
L 1159 3500 
L 1159 2956 
Q 1356 3278 1631 3431 
Q 1906 3584 2284 3584 
Q 2666 3584 2933 3390 
Q 3200 3197 3328 2828 
z
" transform="scale(0.015625)"/>
       <path id="DejaVuSans-65" d="M 3597 1894 
L 3597 1613 
L 953 1613 
Q 991 1019 1311 708 
Q 1631 397 2203 397 
Q 2534 397 2845 478 
Q 3156 559 3463 722 
L 3463 178 
Q 3153 47 2828 -22 
Q 2503 -91 2169 -91 
Q 1331 -91 842 396 
Q 353 884 353 1716 
Q 353 2575 817 3079 
Q 1281 3584 2069 3584 
Q 2775 3584 3186 3129 
Q 3597 2675 3597 1894 
z
M 3022 2063 
Q 3016 2534 2758 2815 
Q 2500 3097 2075 3097 
Q 1594 3097 1305 2825 
Q 1016 2553 972 2059 
L 3022 2063 
z
" transform="scale(0.015625)"/>
      </defs>
      <use xlink:href="#DejaVuSans-54"/>
      <use xlink:href="#DejaVuSans-69" x="57.958984"/>
      <use xlink:href="#DejaVuSans-6d" x="85.742188"/>
      <use xlink:href="#DejaVuSans-65" x="183.154297"/>
     </g>
    </g>
   </g>
   <g id="matplotlib.axis_2">
    <g id="ytick_1">
     <g id="line2d_12">
      <path d="M 90 246.24 
L 648 246.24 
" clip-path="url(#p4f7c603dc1)" style="fill: none; stroke: #b0b0b0; stroke-width: 0.8; stroke-linecap: square"/>
     </g>
     <g id="line2d_13">
      <defs>
       <path id="m535e5af3d0" d="M 0 0 
L -3.5 0 
" style="stroke: #000000; stroke-width: 0.8"/>
      </defs>
      <g>
       <use xlink:href="#m535e5af3d0" x="90" y="246.24" style="stroke: #000000; stroke-width: 0.8"/>
      </g>
     </g>
     <g id="text_13">
      <!-- 0 -->
      <g transform="translate(76.6375 250.039219) scale(0.1 -0.1)">
       <use xlink:href="#DejaVuSans-30"/>
      </g>
     </g>
    </g>
    <g id="ytick_2">
     <g id="line2d_14">
      <path d="M 90 205.756446 
L 648 205.756446 
" clip-path="url(#p4f7c603dc1)" style="fill: none; stroke: #b0b0b0; stroke-width: 0.8; stroke-linecap: square"/>
     </g>
     <g id="line2d_15">
      <g>
       <use xlink:href="#m535e5af3d0" x="90" y="205.756446" style="stroke: #000000; stroke-width: 0.8"/>
      </g>
     </g>
     <g id="text_14">
      <!-- 5,000 -->
      <g transform="translate(54.371875 209.555665) scale(0.1 -0.1)">
       <defs>
        <path id="DejaVuSans-2c" d="M 750 794 
L 1409 794 
L 1409 256 
L 897 -744 
L 494 -744 
L 750 256 
L 750 794 
z
" transform="scale(0.015625)"/>
       </defs>
       <use xlink:href="#DejaVuSans-35"/>
       <use xlink:href="#DejaVuSans-2c" x="63.623047"/>
       <use xlink:href="#DejaVuSans-30" x="95.410156"/>
       <use xlink:href="#DejaVuSans-30" x="159.033203"/>
       <use xlink:href="#DejaVuSans-30" x="222.65625"/>
      </g>
     </g>
    </g>
    <g id="ytick_3">
     <g id="line2d_16">
      <path d="M 90 165.272893 
L 648 165.272893 
" clip-path="url(#p4f7c603dc1)" style="fill: none; stroke: #b0b0b0; stroke-width: 0.8; stroke-linecap: square"/>
     </g>
     <g id="line2d_17">
      <g>
       <use xlink:href="#m535e5af3d0" x="90" y="165.272893" style="stroke: #000000; stroke-width: 0.8"/>
      </g>
     </g>
     <g id="text_15">
      <!-- 10,000 -->
      <g transform="translate(48.009375 169.072112) scale(0.1 -0.1)">
       <use xlink:href="#DejaVuSans-31"/>
       <use xlink:href="#DejaVuSans-30" x="63.623047"/>
       <use xlink:href="#DejaVuSans-2c" x="127.246094"/>
       <use xlink:href="#DejaVuSans-30" x="159.033203"/>
       <use xlink:href="#DejaVuSans-30" x="222.65625"/>
       <use xlink:href="#DejaVuSans-30" x="286.279297"/>
      </g>
     </g>
    </g>
    <g id="ytick_4">
     <g id="line2d_18">
      <path d="M 90 124.789339 
L 648 124.789339 
" clip-path="url(#p4f7c603dc1)" style="fill: none; stroke: #b0b0b0; stroke-width: 0.8; stroke-linecap: square"/>
     </g>
     <g id="line2d_19">
      <g>
       <use xlink:href="#m535e5af3d0" x="90" y="124.789339" style="stroke: #000000; stroke-width: 0.8"/>
      </g>
     </g>
     <g id="text_16">
      <!-- 15,000 -->
      <g transform="translate(48.009375 128.588558) scale(0.1 -0.1)">
       <use xlink:href="#DejaVuSans-31"/>
       <use xlink:href="#DejaVuSans-35" x="63.623047"/>
       <use xlink:href="#DejaVuSans-2c" x="127.246094"/>
       <use xlink:href="#DejaVuSans-30" x="159.033203"/>
       <use xlink:href="#DejaVuSans-30" x="222.65625"/>
       <use xlink:href="#DejaVuSans-30" x="286.279297"/>
      </g>
     </g>
    </g>
    <g id="ytick_5">
     <g id="line2d_20">
      <path d="M 90 84.305786 
L 648 84.305786 
" clip-path="url(#p4f7c603dc1)" style="fill: none; stroke: #b0b0b0; stroke-width: 0.8; stroke-linecap: square"/>
     </g>
     <g id="line2d_21">
      <g>
       <use xlink:href="#m535e5af3d0" x="90" y="84.305786" style="stroke: #000000; stroke-width: 0.8"/>
      </g>
     </g>
     <g id="text_17">
      <!-- 20,000 -->
      <g transform="translate(48.009375 88.105005) scale(0.1 -0.1)">
       <use xlink:href="#DejaVuSans-32"/>
       <use xlink:href="#DejaVuSans-30" x="63.623047"/>
       <use xlink:href="#DejaVuSans-2c" x="127.246094"/>
       <use xlink:href="#DejaVuSans-30" x="159.033203"/>
       <use xlink:href="#DejaVuSans-30" x="222.65625"/>
       <use xlink:href="#DejaVuSans-30" x="286.279297"/>
      </g>
     </g>
    </g>
    <g id="ytick_6">
     <g id="line2d_22">
      <path d="M 90 43.822232 
L 648 43.822232 
" clip-path="url(#p4f7c603dc1)" style="fill: none; stroke: #b0b0b0; stroke-width: 0.8; stroke-linecap: square"/>
     </g>
     <g id="line2d_23">
      <g>
       <use xlink:href="#m535e5af3d0" x="90" y="43.822232" style="stroke: #000000; stroke-width: 0.8"/>
      </g>
     </g>
     <g id="text_18">
      <!-- 25,000 -->
      <g transform="translate(48.009375 47.621451) scale(0.1 -0.1)">
       <use xlink:href="#DejaVuSans-32"/>
       <use xlink:href="#DejaVuSans-35" x="63.623047"/>
       <use xlink:href="#DejaVuSans-2c" x="127.246094"/>
       <use xlink:href="#DejaVuSans-30" x="159.033203"/>
       <use xlink:href="#DejaVuSans-30" x="222.65625"/>
       <use xlink:href="#DejaVuSans-30" x="286.279297"/>
      </g>
     </g>
    </g>
    <g id="text_19">
     <!-- Bitrate (kbit/s) -->
     <g transform="translate(41.929688 181.574375) rotate(-90) scale(0.1 -0.1)">
      <defs>
       <path id="DejaVuSans-42" d="M 1259 2228 
L 1259 519 
L 2272 519 
Q 2781 519 3026 730 
Q 3272 941 3272 1375 
Q 3272 1813 3026 2020 
Q 2781 2228 2272 2228 
L 1259 2228 
z
M 1259 4147 
L 1259 2741 
L 2194 2741 
Q 2656 2741 2882 2914 
Q 3109 3088 3109 3444 
Q 3109 3797 2882 3972 
Q 2656 4147 2194 4147 
L 1259 4147 
z
M 628 4666 
L 2241 4666 
Q 2963 4666 3353 4366 
Q 3744 4066 3744 3513 
Q 3744 3084 3544 2831 
Q 3344 2578 2956 2516 
Q 3422 2416 3680 2098 
Q 3938 1781 3938 1306 
Q 3938 681 3513 340 
Q 3088 0 2303 0 
L 628 0 
L 628 4666 
z
" transform="scale(0.015625)"/>
       <path id="DejaVuSans-74" d="M 1172 4494 
L 1172 3500 
L 2356 3500 
L 2356 3053 
L 1172 3053 
L 1172 1153 
Q 1172 725 1289 603 
Q 1406 481 1766 481 
L 2356 481 
L 2356 0 
L 1766 0 
Q 1100 0 847 248 
Q 594 497 594 1153 
L 594 3053 
L 172 3053 
L 172 3500 
L 594 3500 
L 594 4494 
L 1172 4494 
z
" transform="scale(0.015625)"/>
       <path id="DejaVuSans-72" d="M 2631 2963 
Q 2534 3019 2420 3045 
Q 2306 3072 2169 3072 
Q 1681 3072 1420 2755 
Q 1159 2438 1159 1844 
L 1159 0 
L 581 0 
L 581 3500 
L 1159 3500 
L 1159 2956 
Q 1341 3275 1631 3429 
Q 1922 3584 2338 3584 
Q 2397 3584 2469 3576 
Q 2541 3569 2628 3553 
L 2631 2963 
z
" transform="scale(0.015625)"/>
       <path id="DejaVuSans-61" d="M 2194 1759 
Q 1497 1759 1228 1600 
Q 959 1441 959 1056 
Q 959 750 1161 570 
Q 1363 391 1709 391 
Q 2188 391 2477 730 
Q 2766 1069 2766 1631 
L 2766 1759 
L 2194 1759 
z
M 3341 1997 
L 3341 0 
L 2766 0 
L 2766 531 
Q 2569 213 2275 61 
Q 1981 -91 1556 -91 
Q 1019 -91 701 211 
Q 384 513 384 1019 
Q 384 1609 779 1909 
Q 1175 2209 1959 2209 
L 2766 2209 
L 2766 2266 
Q 2766 2663 2505 2880 
Q 2244 3097 1772 3097 
Q 1472 3097 1187 3025 
Q 903 2953 641 2809 
L 641 3341 
Q 956 3463 1253 3523 
Q 1550 3584 1831 3584 
Q 2591 3584 2966 3190 
Q 3341 2797 3341 1997 
z
" transform="scale(0.015625)"/>
       <path id="DejaVuSans-20" transform="scale(0.015625)"/>
       <path id="DejaVuSans-28" d="M 1984 4856 
Q 1566 4138 1362 3434 
Q 1159 2731 1159 2009 
Q 1159 1288 1364 580 
Q 1569 -128 1984 -844 
L 1484 -844 
Q 1016 -109 783 600 
Q 550 1309 550 2009 
Q 550 2706 781 3412 
Q 1013 4119 1484 4856 
L 1984 4856 
z
" transform="scale(0.015625)"/>
       <path id="DejaVuSans-6b" d="M 581 4863 
L 1159 4863 
L 1159 1991 
L 2875 3500 
L 3609 3500 
L 1753 1863 
L 3688 0 
L 2938 0 
L 1159 1709 
L 1159 0 
L 581 0 
L 581 4863 
z
" transform="scale(0.015625)"/>
       <path id="DejaVuSans-62" d="M 3116 1747 
Q 3116 2381 2855 2742 
Q 2594 3103 2138 3103 
Q 1681 3103 1420 2742 
Q 1159 2381 1159 1747 
Q 1159 1113 1420 752 
Q 1681 391 2138 391 
Q 2594 391 2855 752 
Q 3116 1113 3116 1747 
z
M 1159 2969 
Q 1341 3281 1617 3432 
Q 1894 3584 2278 3584 
Q 2916 3584 3314 3078 
Q 3713 2572 3713 1747 
Q 3713 922 3314 415 
Q 2916 -91 2278 -91 
Q 1894 -91 1617 61 
Q 1341 213 1159 525 
L 1159 0 
L 581 0 
L 581 4863 
L 1159 4863 
L 1159 2969 
z
" transform="scale(0.015625)"/>
       <path id="DejaVuSans-2f" d="M 1625 4666 
L 2156 4666 
L 531 -594 
L 0 -594 
L 1625 4666 
z
" transform="scale(0.015625)"/>
       <path id="DejaVuSans-73" d="M 2834 3397 
L 2834 2853 
Q 2591 2978 2328 3040 
Q 2066 3103 1784 3103 
Q 1356 3103 1142 2972 
Q 928 2841 928 2578 
Q 928 2378 1081 2264 
Q 1234 2150 1697 2047 
L 1894 2003 
Q 2506 1872 2764 1633 
Q 3022 1394 3022 966 
Q 3022 478 2636 193 
Q 2250 -91 1575 -91 
Q 1294 -91 989 -36 
Q 684 19 347 128 
L 347 722 
Q 666 556 975 473 
Q 1284 391 1588 391 
Q 1994 391 2212 530 
Q 2431 669 2431 922 
Q 2431 1156 2273 1281 
Q 2116 1406 1581 1522 
L 1381 1569 
Q 847 1681 609 1914 
Q 372 2147 372 2553 
Q 372 3047 722 3315 
Q 1072 3584 1716 3584 
Q 2034 3584 2315 3537 
Q 2597 3491 2834 3397 
z
" transform="scale(0.015625)"/>
       <path id="DejaVuSans-29" d="M 513 4856 
L 1013 4856 
Q 1481 4119 1714 3412 
Q 1947 2706 1947 2009 
Q 1947 1309 1714 600 
Q 1481 -109 1013 -844 
L 513 -844 
Q 928 -128 1133 580 
Q 1338 1288 1338 2009 
Q 1338 2731 1133 3434 
Q 928 4138 513 4856 
z
" transform="scale(0.015625)"/>
      </defs>
      <use xlink:href="#DejaVuSans-42"/>
      <use xlink:href="#DejaVuSans-69" x="68.603516"/>
      <use xlink:href="#DejaVuSans-74" x="96.386719"/>
      <use xlink:href="#DejaVuSans-72" x="135.595703"/>
      <use xlink:href="#DejaVuSans-61" x="176.708984"/>
      <use xlink:href="#DejaVuSans-74" x="237.988281"/>
      <use xlink:href="#DejaVuSans-65" x="277.197266"/>
      <use xlink:href="#DejaVuSans-20" x="338.720703"/>
      <use xlink:href="#DejaVuSans-28" x="370.507812"/>
      <use xlink:href="#DejaVuSans-6b" x="409.521484"/>
      <use xlink:href="#DejaVuSans-62" x="467.431641"/>
      <use xlink:href="#DejaVuSans-69" x="530.908203"/>
      <use xlink:href="#DejaVuSans-74" x="558.691406"/>
      <use xlink:href="#DejaVuSans-2f" x="597.900391"/>
      <use xlink:href="#DejaVuSans-73" x="631.591797"/>
      <use xlink:href="#DejaVuSans-29" x="683.691406"/>
     </g>
    </g>
   </g>
   <g id="PolyCollection_1">
    <defs>
     <path id="m79aabdd320" d="M 115.363636 -45.727388 
L 115.363636 -41.76 
L 116.958834 -41.76 
L 118.554031 -41.76 
L 120.149228 -41.76 
L 121.744425 -41.76 
L 123.339623 -41.76 
L 124.93482 -41.76 
L 126.530017 -41.76 
L 128.125214 -41.76 
L 129.720412 -41.76 
L 131.315609 -41.76 
L 132.910806 -41.76 
L 134.506003 -41.76 
L 136.101201 -41.76 
L 137.696398 -41.76 
L 139.291595 -41.76 
L 140.886792 -41.76 
L 142.48199 -41.76 
L 144.077187 -41.76 
L 145.672384 -41.76 
L 147.267581 -41.76 
L 148.862779 -41.76 
L 150.457976 -41.76 
L 152.053173 -41.76 
L 153.64837 -41.76 
L 155.243568 -41.76 
L 156.838765 -41.76 
L 158.433962 -41.76 
L 160.02916 -41.76 
L 161.624357 -41.76 
L 163.219554 -41.76 
L 164.814751 -41.76 
L 166.409949 -41.76 
L 168.005146 -41.76 
L 169.600343 -41.76 
L 171.19554 -41.76 
L 172.790738 -41.76 
L 174.385935 -41.76 
L 175.981132 -41.76 
L 177.576329 -41.76 
L 179.171527 -41.76 
L 180.766724 -41.76 
L 182.361921 -41.76 
L 183.957118 -41.76 
L 185.552316 -41.76 
L 187.147513 -41.76 
L 188.74271 -41.76 
L 190.337907 -41.76 
L 191.933105 -41.76 
L 193.528302 -41.76 
L 195.123499 -41.76 
L 196.718696 -41.76 
L 198.313894 -41.76 
L 199.909091 -41.76 
L 201.504288 -41.76 
L 203.099485 -41.76 
L 204.694683 -41.76 
L 206.28988 -41.76 
L 207.885077 -41.76 
L 209.480274 -41.76 
L 211.075472 -41.76 
L 212.670669 -41.76 
L 214.265866 -41.76 
L 215.861063 -41.76 
L 217.456261 -41.76 
L 219.051458 -41.76 
L 220.646655 -41.76 
L 222.241852 -41.76 
L 223.83705 -41.76 
L 225.432247 -41.76 
L 227.027444 -41.76 
L 228.622642 -41.76 
L 230.217839 -41.76 
L 231.813036 -41.76 
L 233.408233 -41.76 
L 235.003431 -41.76 
L 236.598628 -41.76 
L 238.193825 -41.76 
L 239.789022 -41.76 
L 241.38422 -41.76 
L 242.979417 -41.76 
L 244.574614 -41.76 
L 246.169811 -41.76 
L 247.765009 -41.76 
L 249.360206 -41.76 
L 250.955403 -41.76 
L 252.5506 -41.76 
L 254.145798 -41.76 
L 255.740995 -41.76 
L 257.336192 -41.76 
L 258.931389 -41.76 
L 260.526587 -41.76 
L 262.121784 -41.76 
L 263.716981 -41.76 
L 265.312178 -41.76 
L 266.907376 -41.76 
L 268.502573 -41.76 
L 270.09777 -41.76 
L 271.692967 -41.76 
L 273.288165 -41.76 
L 274.883362 -41.76 
L 276.478559 -41.76 
L 278.073756 -41.76 
L 279.668954 -41.76 
L 281.264151 -41.76 
L 282.859348 -41.76 
L 284.454545 -41.76 
L 286.049743 -41.76 
L 287.64494 -41.76 
L 289.240137 -41.76 
L 290.835334 -41.76 
L 292.430532 -41.76 
L 294.025729 -41.76 
L 295.620926 -41.76 
L 297.216123 -41.76 
L 298.811321 -41.76 
L 300.406518 -41.76 
L 302.001715 -41.76 
L 303.596913 -41.76 
L 305.19211 -41.76 
L 306.787307 -41.76 
L 308.382504 -41.76 
L 309.977702 -41.76 
L 311.572899 -41.76 
L 313.168096 -41.76 
L 314.763293 -41.76 
L 316.358491 -41.76 
L 317.953688 -41.76 
L 319.548885 -41.76 
L 321.144082 -41.76 
L 322.73928 -41.76 
L 324.334477 -41.76 
L 325.929674 -41.76 
L 327.524871 -41.76 
L 329.120069 -41.76 
L 330.715266 -41.76 
L 332.310463 -41.76 
L 333.90566 -41.76 
L 335.500858 -41.76 
L 337.096055 -41.76 
L 338.691252 -41.76 
L 340.286449 -41.76 
L 341.881647 -41.76 
L 343.476844 -41.76 
L 345.072041 -41.76 
L 346.667238 -41.76 
L 348.262436 -41.76 
L 349.857633 -41.76 
L 351.45283 -41.76 
L 353.048027 -41.76 
L 354.643225 -41.76 
L 356.238422 -41.76 
L 357.833619 -41.76 
L 359.428816 -41.76 
L 361.024014 -41.76 
L 362.619211 -41.76 
L 364.214408 -41.76 
L 365.809605 -41.76 
L 367.404803 -41.76 
L 369 -41.76 
L 370.595197 -41.76 
L 372.190395 -41.76 
L 373.785592 -41.76 
L 375.380789 -41.76 
L 376.975986 -41.76 
L 378.571184 -41.76 
L 380.166381 -41.76 
L 381.761578 -41.76 
L 383.356775 -41.76 
L 384.951973 -41.76 
L 386.54717 -41.76 
L 388.142367 -41.76 
L 389.737564 -41.76 
L 391.332762 -41.76 
L 392.927959 -41.76 
L 394.523156 -41.76 
L 396.118353 -41.76 
L 397.713551 -41.76 
L 399.308748 -41.76 
L 400.903945 -41.76 
L 402.499142 -41.76 
L 404.09434 -41.76 
L 405.689537 -41.76 
L 407.284734 -41.76 
L 408.879931 -41.76 
L 410.475129 -41.76 
L 412.070326 -41.76 
L 413.665523 -41.76 
L 415.26072 -41.76 
L 416.855918 -41.76 
L 418.451115 -41.76 
L 420.046312 -41.76 
L 421.641509 -41.76 
L 423.236707 -41.76 
L 424.831904 -41.76 
L 426.427101 -41.76 
L 428.022298 -41.76 
L 429.617496 -41.76 
L 431.212693 -41.76 
L 432.80789 -41.76 
L 434.403087 -41.76 
L 435.998285 -41.76 
L 437.593482 -41.76 
L 439.188679 -41.76 
L 440.783877 -41.76 
L 442.379074 -41.76 
L 443.974271 -41.76 
L 445.569468 -41.76 
L 447.164666 -41.76 
L 448.759863 -41.76 
L 450.35506 -41.76 
L 451.950257 -41.76 
L 453.545455 -41.76 
L 455.140652 -41.76 
L 456.735849 -41.76 
L 458.331046 -41.76 
L 459.926244 -41.76 
L 461.521441 -41.76 
L 463.116638 -41.76 
L 464.711835 -41.76 
L 466.307033 -41.76 
L 467.90223 -41.76 
L 469.497427 -41.76 
L 471.092624 -41.76 
L 472.687822 -41.76 
L 474.283019 -41.76 
L 475.878216 -41.76 
L 477.473413 -41.76 
L 479.068611 -41.76 
L 480.663808 -41.76 
L 482.259005 -41.76 
L 483.854202 -41.76 
L 485.4494 -41.76 
L 487.044597 -41.76 
L 488.639794 -41.76 
L 490.234991 -41.76 
L 491.830189 -41.76 
L 493.425386 -41.76 
L 495.020583 -41.76 
L 496.61578 -41.76 
L 498.210978 -41.76 
L 499.806175 -41.76 
L 501.401372 -41.76 
L 502.996569 -41.76 
L 504.591767 -41.76 
L 506.186964 -41.76 
L 507.782161 -41.76 
L 509.377358 -41.76 
L 510.972556 -41.76 
L 512.567753 -41.76 
L 514.16295 -41.76 
L 515.758148 -41.76 
L 517.353345 -41.76 
L 518.948542 -41.76 
L 520.543739 -41.76 
L 522.138937 -41.76 
L 523.734134 -41.76 
L 525.329331 -41.76 
L 526.924528 -41.76 
L 528.519726 -41.76 
L 530.114923 -41.76 
L 531.71012 -41.76 
L 533.305317 -41.76 
L 534.900515 -41.76 
L 536.495712 -41.76 
L 538.090909 -41.76 
L 539.686106 -41.76 
L 541.281304 -41.76 
L 542.876501 -41.76 
L 544.471698 -41.76 
L 546.066895 -41.76 
L 547.662093 -41.76 
L 549.25729 -41.76 
L 550.852487 -41.76 
L 552.447684 -41.76 
L 554.042882 -41.76 
L 555.638079 -41.76 
L 557.233276 -41.76 
L 558.828473 -41.76 
L 560.423671 -41.76 
L 562.018868 -41.76 
L 563.614065 -41.76 
L 565.209262 -41.76 
L 566.80446 -41.76 
L 568.399657 -41.76 
L 569.994854 -41.76 
L 571.590051 -41.76 
L 573.185249 -41.76 
L 574.780446 -41.76 
L 576.375643 -41.76 
L 577.97084 -41.76 
L 579.566038 -41.76 
L 581.161235 -41.76 
L 582.756432 -41.76 
L 584.35163 -41.76 
L 585.946827 -41.76 
L 587.542024 -41.76 
L 589.137221 -41.76 
L 590.732419 -41.76 
L 592.327616 -41.76 
L 593.922813 -41.76 
L 595.51801 -41.76 
L 597.113208 -41.76 
L 598.708405 -41.76 
L 600.303602 -41.76 
L 601.898799 -41.76 
L 603.493997 -41.76 
L 605.089194 -41.76 
L 606.684391 -41.76 
L 608.279588 -41.76 
L 609.874786 -41.76 
L 611.469983 -41.76 
L 613.06518 -41.76 
L 614.660377 -41.76 
L 616.255575 -41.76 
L 617.850772 -41.76 
L 619.445969 -41.76 
L 621.041166 -41.76 
L 622.636364 -41.76 
L 622.636364 -41.76 
L 622.636364 -41.76 
L 621.041166 -53.046815 
L 619.445969 -41.76 
L 617.850772 -53.046815 
L 616.255575 -41.76 
L 614.660377 -41.76 
L 613.06518 -45.152522 
L 611.469983 -41.76 
L 609.874786 -45.460197 
L 608.279588 -41.76 
L 606.684391 -41.76 
L 605.089194 -42.91783 
L 603.493997 -41.76 
L 601.898799 -52.075209 
L 600.303602 -41.76 
L 598.708405 -41.76 
L 597.113208 -49.014653 
L 595.51801 -41.76 
L 593.922813 -50.804026 
L 592.327616 -41.76 
L 590.732419 -41.76 
L 589.137221 -51.249345 
L 587.542024 -41.76 
L 585.946827 -49.128007 
L 584.35163 -41.76 
L 582.756432 -41.76 
L 581.161235 -58.32587 
L 579.566038 -41.76 
L 577.97084 -56.981816 
L 576.375643 -41.76 
L 574.780446 -41.76 
L 573.185249 -51.978049 
L 571.590051 -41.76 
L 569.994854 -52.455755 
L 568.399657 -41.76 
L 566.80446 -41.76 
L 565.209262 -53.305909 
L 563.614065 -41.76 
L 562.018868 -53.411167 
L 560.423671 -41.76 
L 558.828473 -41.76 
L 557.233276 -48.342626 
L 555.638079 -41.76 
L 554.042882 -53.597391 
L 552.447684 -41.76 
L 550.852487 -41.76 
L 549.25729 -50.658285 
L 547.662093 -41.76 
L 546.066895 -53.896969 
L 544.471698 -41.76 
L 542.876501 -41.76 
L 541.281304 -55.743019 
L 539.686106 -41.76 
L 538.090909 -54.139871 
L 536.495712 -41.76 
L 534.900515 -41.76 
L 533.305317 -52.156177 
L 531.71012 -41.76 
L 530.114923 -49.09562 
L 528.519726 -41.76 
L 526.924528 -41.76 
L 525.329331 -52.957751 
L 523.734134 -41.76 
L 522.138937 -59.45941 
L 520.543739 -41.76 
L 518.948542 -41.76 
L 517.353345 -58.730706 
L 515.758148 -41.76 
L 514.16295 -60.471498 
L 512.567753 -41.76 
L 510.972556 -41.76 
L 509.377358 -59.4837 
L 507.782161 -41.76 
L 506.186964 -61.605038 
L 504.591767 -41.76 
L 502.996569 -41.76 
L 501.401372 -59.864245 
L 499.806175 -41.76 
L 498.210978 -51.063121 
L 496.61578 -41.76 
L 495.020583 -41.76 
L 493.425386 -45.063458 
L 491.830189 -41.76 
L 490.234991 -48.358819 
L 488.639794 -41.76 
L 487.044597 -41.76 
L 485.4494 -44.707203 
L 483.854202 -41.76 
L 482.259005 -43.65463 
L 480.663808 -41.76 
L 479.068611 -41.76 
L 477.473413 -42.124352 
L 475.878216 -41.76 
L 474.283019 -49.257554 
L 472.687822 -41.76 
L 471.092624 -41.76 
L 469.497427 -47.087636 
L 467.90223 -41.76 
L 466.307033 -47.22528 
L 464.711835 -41.76 
L 463.116638 -41.76 
L 461.521441 -46.982378 
L 459.926244 -41.76 
L 458.331046 -46.747574 
L 456.735849 -41.76 
L 455.140652 -41.76 
L 453.545455 -46.383222 
L 451.950257 -41.76 
L 450.35506 -48.124015 
L 448.759863 -41.76 
L 447.164666 -41.76 
L 445.569468 -48.124015 
L 443.974271 -41.76 
L 442.379074 -44.472398 
L 440.783877 -41.76 
L 439.188679 -41.76 
L 437.593482 -49.19278 
L 435.998285 -41.76 
L 434.403087 -49.087523 
L 432.80789 -41.76 
L 431.212693 -41.76 
L 429.617496 -48.391206 
L 428.022298 -41.76 
L 426.427101 -47.192893 
L 424.831904 -41.76 
L 423.236707 -41.76 
L 421.641509 -47.516761 
L 420.046312 -41.76 
L 418.451115 -46.941895 
L 416.855918 -41.76 
L 415.26072 -41.76 
L 413.665523 -46.618026 
L 412.070326 -41.76 
L 410.475129 -47.314344 
L 408.879931 -41.76 
L 407.284734 -41.76 
L 405.689537 -47.419601 
L 404.09434 -41.76 
L 402.499142 -45.557357 
L 400.903945 -41.76 
L 399.308748 -41.76 
L 397.713551 -45.565454 
L 396.118353 -41.76 
L 394.523156 -53.370683 
L 392.927959 -41.76 
L 391.332762 -41.76 
L 389.737564 -53.249232 
L 388.142367 -41.76 
L 386.54717 -49.16849 
L 384.951973 -41.76 
L 383.356775 -41.76 
L 381.761578 -48.828428 
L 380.166381 -41.76 
L 378.571184 -45.533067 
L 376.975986 -41.76 
L 375.380789 -41.76 
L 373.785592 -45.630228 
L 372.190395 -41.76 
L 370.595197 -45.703098 
L 369 -41.76 
L 367.404803 -41.76 
L 365.809605 -45.37923 
L 364.214408 -41.76 
L 362.619211 -48.852719 
L 361.024014 -41.76 
L 359.428816 -41.76 
L 357.833619 -48.941782 
L 356.238422 -41.76 
L 354.643225 -54.002227 
L 353.048027 -41.76 
L 351.45283 -41.76 
L 349.857633 -54.010323 
L 348.262436 -41.76 
L 346.667238 -45.751678 
L 345.072041 -41.76 
L 343.476844 -41.76 
L 341.881647 -45.873129 
L 340.286449 -41.76 
L 338.691252 -46.286061 
L 337.096055 -41.76 
L 335.500858 -41.76 
L 333.90566 -46.358932 
L 332.310463 -41.76 
L 330.715266 -46.553253 
L 329.120069 -41.76 
L 327.524871 -41.76 
L 325.929674 -44.601945 
L 324.334477 -41.76 
L 322.73928 -48.868912 
L 321.144082 -41.76 
L 319.548885 -41.76 
L 317.953688 -47.532955 
L 316.358491 -41.76 
L 314.763293 -45.120135 
L 313.168096 -41.76 
L 311.572899 -41.76 
L 309.977702 -48.893202 
L 308.382504 -41.76 
L 306.787307 -51.01454 
L 305.19211 -41.76 
L 303.596913 -41.76 
L 302.001715 -50.836413 
L 300.406518 -41.76 
L 298.811321 -50.763542 
L 297.216123 -41.76 
L 295.620926 -41.76 
L 294.025729 -50.617802 
L 292.430532 -41.76 
L 290.835334 -50.860703 
L 289.240137 -41.76 
L 287.64494 -41.76 
L 286.049743 -46.674703 
L 284.454545 -41.76 
L 282.859348 -45.751678 
L 281.264151 -41.76 
L 279.668954 -41.76 
L 278.073756 -57.718617 
L 276.478559 -41.76 
L 274.883362 -50.27774 
L 273.288165 -41.76 
L 271.692967 -41.76 
L 270.09777 -50.115805 
L 268.502573 -41.76 
L 266.907376 -50.820219 
L 265.312178 -41.76 
L 263.716981 -41.76 
L 262.121784 -46.14032 
L 260.526587 -41.76 
L 258.931389 -47.792049 
L 257.336192 -41.76 
L 255.740995 -41.76 
L 254.145798 -50.844509 
L 252.5506 -41.76 
L 250.955403 -46.318448 
L 249.360206 -41.76 
L 247.765009 -41.76 
L 246.169811 -46.318448 
L 244.574614 -41.76 
L 242.979417 -46.09174 
L 241.38422 -41.76 
L 239.789022 -41.76 
L 238.193825 -45.40352 
L 236.598628 -41.76 
L 235.003431 -45.411617 
L 233.408233 -41.76 
L 231.813036 -41.76 
L 230.217839 -45.4521 
L 228.622642 -41.76 
L 227.027444 -45.371133 
L 225.432247 -41.76 
L 223.83705 -41.76 
L 222.241852 -46.974282 
L 220.646655 -41.76 
L 219.051458 -46.70709 
L 217.456261 -41.76 
L 215.861063 -41.76 
L 214.265866 -46.196997 
L 212.670669 -41.76 
L 211.075472 -45.273972 
L 209.480274 -41.76 
L 207.885077 -41.76 
L 206.28988 -45.298263 
L 204.694683 -41.76 
L 203.099485 -45.387326 
L 201.504288 -41.76 
L 199.909091 -41.76 
L 198.313894 -50.739252 
L 196.718696 -41.76 
L 195.123499 -50.763542 
L 193.528302 -41.76 
L 191.933105 -41.76 
L 190.337907 -50.747349 
L 188.74271 -41.76 
L 187.147513 -49.905291 
L 185.552316 -41.76 
L 183.957118 -41.76 
L 182.361921 -43.873241 
L 180.766724 -41.76 
L 179.171527 -49.298038 
L 177.576329 -41.76 
L 175.981132 -41.76 
L 174.385935 -47.557245 
L 172.790738 -41.76 
L 171.19554 -47.541051 
L 169.600343 -41.76 
L 168.005146 -41.76 
L 166.409949 -47.500568 
L 164.814751 -41.76 
L 163.219554 -43.274085 
L 161.624357 -41.76 
L 160.02916 -41.76 
L 158.433962 -43.938015 
L 156.838765 -41.76 
L 155.243568 -51.055024 
L 153.64837 -41.76 
L 152.053173 -41.76 
L 150.457976 -50.925477 
L 148.862779 -41.76 
L 147.267581 -45.184909 
L 145.672384 -41.76 
L 144.077187 -41.76 
L 142.48199 -44.286174 
L 140.886792 -41.76 
L 139.291595 -44.391431 
L 137.696398 -41.76 
L 136.101201 -41.76 
L 134.506003 -44.618139 
L 132.910806 -41.76 
L 131.315609 -46.415609 
L 129.720412 -41.76 
L 128.125214 -41.76 
L 126.530017 -47.063346 
L 124.93482 -41.76 
L 123.339623 -45.184909 
L 121.744425 -41.76 
L 120.149228 -41.76 
L 118.554031 -45.630228 
L 116.958834 -41.76 
L 115.363636 -45.727388 
z
" style="stroke: #ff0000; stroke-width: 0.5"/>
    </defs>
    <g clip-path="url(#p4f7c603dc1)">
     <use xlink:href="#m79aabdd320" x="0" y="288" style="fill: #ff0000; stroke: #ff0000; stroke-width: 0.5"/>
    </g>
   </g>
   <g id="PolyCollection_2">
    <defs>
     <path id="mbb2fbe7ddf" d="M 115.363636 -45.865032 
L 115.363636 -45.727388 
L 116.958834 -41.76 
L 118.554031 -45.630228 
L 120.149228 -41.76 
L 121.744425 -41.76 
L 123.339623 -45.184909 
L 124.93482 -41.76 
L 126.530017 -47.063346 
L 128.125214 -41.76 
L 129.720412 -41.76 
L 131.315609 -46.415609 
L 132.910806 -41.76 
L 134.506003 -44.618139 
L 136.101201 -41.76 
L 137.696398 -41.76 
L 139.291595 -44.391431 
L 140.886792 -41.76 
L 142.48199 -44.286174 
L 144.077187 -41.76 
L 145.672384 -41.76 
L 147.267581 -45.184909 
L 148.862779 -41.76 
L 150.457976 -50.925477 
L 152.053173 -41.76 
L 153.64837 -41.76 
L 155.243568 -51.055024 
L 156.838765 -41.76 
L 158.433962 -43.938015 
L 160.02916 -41.76 
L 161.624357 -41.76 
L 163.219554 -43.274085 
L 164.814751 -41.76 
L 166.409949 -47.500568 
L 168.005146 -41.76 
L 169.600343 -41.76 
L 171.19554 -47.541051 
L 172.790738 -41.76 
L 174.385935 -47.557245 
L 175.981132 -41.76 
L 177.576329 -41.76 
L 179.171527 -49.298038 
L 180.766724 -41.76 
L 182.361921 -43.873241 
L 183.957118 -41.76 
L 185.552316 -41.76 
L 187.147513 -49.905291 
L 188.74271 -41.76 
L 190.337907 -50.747349 
L 191.933105 -41.76 
L 193.528302 -41.76 
L 195.123499 -50.763542 
L 196.718696 -41.76 
L 198.313894 -50.739252 
L 199.909091 -41.76 
L 201.504288 -41.76 
L 203.099485 -45.387326 
L 204.694683 -41.76 
L 206.28988 -45.298263 
L 207.885077 -41.76 
L 209.480274 -41.76 
L 211.075472 -45.273972 
L 212.670669 -41.76 
L 214.265866 -46.196997 
L 215.861063 -41.76 
L 217.456261 -41.76 
L 219.051458 -46.70709 
L 220.646655 -41.76 
L 222.241852 -46.974282 
L 223.83705 -41.76 
L 225.432247 -41.76 
L 227.027444 -45.371133 
L 228.622642 -41.76 
L 230.217839 -45.4521 
L 231.813036 -41.76 
L 233.408233 -41.76 
L 235.003431 -45.411617 
L 236.598628 -41.76 
L 238.193825 -45.40352 
L 239.789022 -41.76 
L 241.38422 -41.76 
L 242.979417 -46.09174 
L 244.574614 -41.76 
L 246.169811 -46.318448 
L 247.765009 -41.76 
L 249.360206 -41.76 
L 250.955403 -46.318448 
L 252.5506 -41.76 
L 254.145798 -50.844509 
L 255.740995 -41.76 
L 257.336192 -41.76 
L 258.931389 -47.792049 
L 260.526587 -41.76 
L 262.121784 -46.14032 
L 263.716981 -41.76 
L 265.312178 -41.76 
L 266.907376 -50.820219 
L 268.502573 -41.76 
L 270.09777 -50.115805 
L 271.692967 -41.76 
L 273.288165 -41.76 
L 274.883362 -50.27774 
L 276.478559 -41.76 
L 278.073756 -57.718617 
L 279.668954 -41.76 
L 281.264151 -41.76 
L 282.859348 -45.751678 
L 284.454545 -41.76 
L 286.049743 -46.674703 
L 287.64494 -41.76 
L 289.240137 -41.76 
L 290.835334 -50.860703 
L 292.430532 -41.76 
L 294.025729 -50.617802 
L 295.620926 -41.76 
L 297.216123 -41.76 
L 298.811321 -50.763542 
L 300.406518 -41.76 
L 302.001715 -50.836413 
L 303.596913 -41.76 
L 305.19211 -41.76 
L 306.787307 -51.01454 
L 308.382504 -41.76 
L 309.977702 -48.893202 
L 311.572899 -41.76 
L 313.168096 -41.76 
L 314.763293 -45.120135 
L 316.358491 -41.76 
L 317.953688 -47.532955 
L 319.548885 -41.76 
L 321.144082 -41.76 
L 322.73928 -48.868912 
L 324.334477 -41.76 
L 325.929674 -44.601945 
L 327.524871 -41.76 
L 329.120069 -41.76 
L 330.715266 -46.553253 
L 332.310463 -41.76 
L 333.90566 -46.358932 
L 335.500858 -41.76 
L 337.096055 -41.76 
L 338.691252 -46.286061 
L 340.286449 -41.76 
L 341.881647 -45.873129 
L 343.476844 -41.76 
L 345.072041 -41.76 
L 346.667238 -45.751678 
L 348.262436 -41.76 
L 349.857633 -54.010323 
L 351.45283 -41.76 
L 353.048027 -41.76 
L 354.643225 -54.002227 
L 356.238422 -41.76 
L 357.833619 -48.941782 
L 359.428816 -41.76 
L 361.024014 -41.76 
L 362.619211 -48.852719 
L 364.214408 -41.76 
L 365.809605 -45.37923 
L 367.404803 -41.76 
L 369 -41.76 
L 370.595197 -45.703098 
L 372.190395 -41.76 
L 373.785592 -45.630228 
L 375.380789 -41.76 
L 376.975986 -41.76 
L 378.571184 -45.533067 
L 380.166381 -41.76 
L 381.761578 -48.828428 
L 383.356775 -41.76 
L 384.951973 -41.76 
L 386.54717 -49.16849 
L 388.142367 -41.76 
L 389.737564 -53.249232 
L 391.332762 -41.76 
L 392.927959 -41.76 
L 394.523156 -53.370683 
L 396.118353 -41.76 
L 397.713551 -45.565454 
L 399.308748 -41.76 
L 400.903945 -41.76 
L 402.499142 -45.557357 
L 404.09434 -41.76 
L 405.689537 -47.419601 
L 407.284734 -41.76 
L 408.879931 -41.76 
L 410.475129 -47.314344 
L 412.070326 -41.76 
L 413.665523 -46.618026 
L 415.26072 -41.76 
L 416.855918 -41.76 
L 418.451115 -46.941895 
L 420.046312 -41.76 
L 421.641509 -47.516761 
L 423.236707 -41.76 
L 424.831904 -41.76 
L 426.427101 -47.192893 
L 428.022298 -41.76 
L 429.617496 -48.391206 
L 431.212693 -41.76 
L 432.80789 -41.76 
L 434.403087 -49.087523 
L 435.998285 -41.76 
L 437.593482 -49.19278 
L 439.188679 -41.76 
L 440.783877 -41.76 
L 442.379074 -44.472398 
L 443.974271 -41.76 
L 445.569468 -48.124015 
L 447.164666 -41.76 
L 448.759863 -41.76 
L 450.35506 -48.124015 
L 451.950257 -41.76 
L 453.545455 -46.383222 
L 455.140652 -41.76 
L 456.735849 -41.76 
L 458.331046 -46.747574 
L 459.926244 -41.76 
L 461.521441 -46.982378 
L 463.116638 -41.76 
L 464.711835 -41.76 
L 466.307033 -47.22528 
L 467.90223 -41.76 
L 469.497427 -47.087636 
L 471.092624 -41.76 
L 472.687822 -41.76 
L 474.283019 -49.257554 
L 475.878216 -41.76 
L 477.473413 -42.124352 
L 479.068611 -41.76 
L 480.663808 -41.76 
L 482.259005 -43.65463 
L 483.854202 -41.76 
L 485.4494 -44.707203 
L 487.044597 -41.76 
L 488.639794 -41.76 
L 490.234991 -48.358819 
L 491.830189 -41.76 
L 493.425386 -45.063458 
L 495.020583 -41.76 
L 496.61578 -41.76 
L 498.210978 -51.063121 
L 499.806175 -41.76 
L 501.401372 -59.864245 
L 502.996569 -41.76 
L 504.591767 -41.76 
L 506.186964 -61.605038 
L 507.782161 -41.76 
L 509.377358 -59.4837 
L 510.972556 -41.76 
L 512.567753 -41.76 
L 514.16295 -60.471498 
L 515.758148 -41.76 
L 517.353345 -58.730706 
L 518.948542 -41.76 
L 520.543739 -41.76 
L 522.138937 -59.45941 
L 523.734134 -41.76 
L 525.329331 -52.957751 
L 526.924528 -41.76 
L 528.519726 -41.76 
L 530.114923 -49.09562 
L 531.71012 -41.76 
L 533.305317 -52.156177 
L 534.900515 -41.76 
L 536.495712 -41.76 
L 538.090909 -54.139871 
L 539.686106 -41.76 
L 541.281304 -55.743019 
L 542.876501 -41.76 
L 544.471698 -41.76 
L 546.066895 -53.896969 
L 547.662093 -41.76 
L 549.25729 -50.658285 
L 550.852487 -41.76 
L 552.447684 -41.76 
L 554.042882 -53.597391 
L 555.638079 -41.76 
L 557.233276 -48.342626 
L 558.828473 -41.76 
L 560.423671 -41.76 
L 562.018868 -53.411167 
L 563.614065 -41.76 
L 565.209262 -53.305909 
L 566.80446 -41.76 
L 568.399657 -41.76 
L 569.994854 -52.455755 
L 571.590051 -41.76 
L 573.185249 -51.978049 
L 574.780446 -41.76 
L 576.375643 -41.76 
L 577.97084 -56.981816 
L 579.566038 -41.76 
L 581.161235 -58.32587 
L 582.756432 -41.76 
L 584.35163 -41.76 
L 585.946827 -49.128007 
L 587.542024 -41.76 
L 589.137221 -51.249345 
L 590.732419 -41.76 
L 592.327616 -41.76 
L 593.922813 -50.804026 
L 595.51801 -41.76 
L 597.113208 -49.014653 
L 598.708405 -41.76 
L 600.303602 -41.76 
L 601.898799 -52.075209 
L 603.493997 -41.76 
L 605.089194 -42.91783 
L 606.684391 -41.76 
L 608.279588 -41.76 
L 609.874786 -45.460197 
L 611.469983 -41.76 
L 613.06518 -45.152522 
L 614.660377 -41.76 
L 616.255575 -41.76 
L 617.850772 -53.046815 
L 619.445969 -41.76 
L 621.041166 -53.046815 
L 622.636364 -41.76 
L 622.636364 -41.76 
L 622.636364 -41.76 
L 621.041166 -53.305909 
L 619.445969 -41.954321 
L 617.850772 -53.281619 
L 616.255575 -41.994805 
L 614.660377 -41.986708 
L 613.06518 -45.282069 
L 611.469983 -41.897644 
L 609.874786 -46.796154 
L 608.279588 -42.019095 
L 606.684391 -42.237706 
L 605.089194 -44.310464 
L 603.493997 -45.209199 
L 601.898799 -68.964948 
L 600.303602 -66.89219 
L 598.708405 -61.208299 
L 597.113208 -64.204082 
L 595.51801 -46.051257 
L 593.922813 -55.216733 
L 592.327616 -46.350835 
L 590.732419 -46.334642 
L 589.137221 -55.945437 
L 587.542024 -46.966185 
L 585.946827 -54.471836 
L 584.35163 -53.322103 
L 582.756432 -60.76298 
L 581.161235 -75.43422 
L 579.566038 -60.957301 
L 577.97084 -74.235907 
L 576.375643 -59.151735 
L 574.780446 -74.503098 
L 573.185249 -71.15106 
L 571.590051 -61.605038 
L 569.994854 -80.057442 
L 568.399657 -74.341164 
L 566.80446 -75.571864 
L 565.209262 -79.312544 
L 563.614065 -51.637987 
L 562.018868 -63.208187 
L 560.423671 -53.783615 
L 558.828473 -56.220725 
L 557.233276 -54.593286 
L 555.638079 -43.476503 
L 554.042882 -58.002002 
L 552.447684 -49.961968 
L 550.852487 -47.111926 
L 549.25729 -58.431127 
L 547.662093 -50.212966 
L 546.066895 -74.284487 
L 544.471698 -72.648951 
L 542.876501 -53.96984 
L 541.281304 -66.050132 
L 539.686106 -57.216621 
L 538.090909 -68.519629 
L 536.495712 -63.953084 
L 534.900515 -59.354152 
L 533.305317 -60.568659 
L 531.71012 -44.140433 
L 530.114923 -51.249345 
L 528.519726 -53.233039 
L 526.924528 -54.156064 
L 525.329331 -72.527501 
L 523.734134 -82.478358 
L 522.138937 -100.922665 
L 520.543739 -74.284487 
L 518.948542 -81.199078 
L 517.353345 -92.955502 
L 515.758148 -92.234895 
L 514.16295 -104.18564 
L 512.567753 -97.870205 
L 510.972556 -93.392724 
L 509.377358 -94.890616 
L 507.782161 -95.384515 
L 506.186964 -107.481001 
L 504.591767 -88.40515 
L 502.996569 -74.948417 
L 501.401372 -82.494552 
L 499.806175 -52.285724 
L 498.210978 -53.516424 
L 496.61578 -48.140208 
L 495.020583 -43.031184 
L 493.425386 -49.751453 
L 491.830189 -45.290166 
L 490.234991 -49.921484 
L 488.639794 -42.901636 
L 487.044597 -42.982603 
L 485.4494 -45.565454 
L 483.854202 -42.91783 
L 482.259005 -45.160618 
L 480.663808 -42.294383 
L 479.068611 -42.156739 
L 477.473413 -48.771751 
L 475.878216 -56.674141 
L 474.283019 -60.463402 
L 472.687822 -58.625448 
L 471.092624 -54.520416 
L 469.497427 -48.196885 
L 467.90223 -42.488704 
L 466.307033 -47.953984 
L 464.711835 -43.112151 
L 463.116638 -42.707315 
L 461.521441 -48.383109 
L 459.926244 -43.597953 
L 458.331046 -46.917605 
L 456.735849 -41.897644 
L 455.140652 -41.930031 
L 453.545455 -46.561349 
L 451.950257 -41.921934 
L 450.35506 -48.277852 
L 448.759863 -41.921934 
L 447.164666 -42.002901 
L 445.569468 -48.318336 
L 443.974271 -41.921934 
L 442.379074 -44.796267 
L 440.783877 -42.229609 
L 439.188679 -42.148642 
L 437.593482 -49.330425 
L 435.998285 -41.913838 
L 434.403087 -49.249457 
L 432.80789 -42.148642 
L 431.212693 -42.156739 
L 429.617496 -50.083419 
L 428.022298 -48.366916 
L 426.427101 -52.180467 
L 424.831904 -50.067225 
L 423.236707 -45.945999 
L 421.641509 -48.55314 
L 420.046312 -42.043385 
L 418.451115 -47.136216 
L 416.855918 -41.930031 
L 415.26072 -41.994805 
L 413.665523 -47.095732 
L 412.070326 -42.019095 
L 410.475129 -47.654405 
L 408.879931 -42.140545 
L 407.284734 -42.091965 
L 405.689537 -47.694889 
L 404.09434 -42.075772 
L 402.499142 -45.711195 
L 400.903945 -41.889547 
L 399.308748 -41.897644 
L 397.713551 -45.695001 
L 396.118353 -41.913838 
L 394.523156 -53.508327 
L 392.927959 -41.897644 
L 391.332762 -41.897644 
L 389.737564 -53.443554 
L 388.142367 -42.035288 
L 386.54717 -49.540939 
L 384.951973 -42.108159 
L 383.356775 -42.035288 
L 381.761578 -49.030846 
L 380.166381 -41.954321 
L 378.571184 -45.695001 
L 376.975986 -41.921934 
L 375.380789 -41.938128 
L 373.785592 -45.816452 
L 372.190395 -42.051482 
L 370.595197 -45.978386 
L 369 -42.051482 
L 367.404803 -41.946224 
L 365.809605 -46.358932 
L 364.214408 -42.051482 
L 362.619211 -49.030846 
L 361.024014 -41.954321 
L 359.428816 -41.905741 
L 357.833619 -49.160394 
L 356.238422 -42.140545 
L 354.643225 -55.483925 
L 353.048027 -41.897644 
L 351.45283 -41.897644 
L 349.857633 -54.180354 
L 348.262436 -41.954321 
L 346.667238 -45.954096 
L 345.072041 -41.978611 
L 343.476844 -41.994805 
L 341.881647 -46.09174 
L 340.286449 -42.334866 
L 338.691252 -46.796154 
L 337.096055 -43.411729 
L 335.500858 -42.116255 
L 333.90566 -46.820444 
L 332.310463 -42.148642 
L 330.715266 -46.933798 
L 329.120069 -42.116255 
L 327.524871 -41.978611 
L 325.929674 -44.820557 
L 324.334477 -42.310576 
L 322.73928 -49.160394 
L 321.144082 -42.504897 
L 319.548885 -43.217408 
L 317.953688 -47.767759 
L 316.358491 -41.954321 
L 314.763293 -45.249682 
L 313.168096 -41.897644 
L 311.572899 -41.897644 
L 309.977702 -49.978161 
L 308.382504 -42.820669 
L 306.787307 -51.597504 
L 305.19211 -42.051482 
L 303.596913 -41.986708 
L 302.001715 -50.99025 
L 300.406518 -41.905741 
L 298.811321 -50.909283 
L 297.216123 -42.035288 
L 295.620926 -42.010998 
L 294.025729 -50.884993 
L 292.430532 -41.978611 
L 290.835334 -51.046927 
L 289.240137 -41.954321 
L 287.64494 -41.954321 
L 286.049743 -46.860928 
L 284.454545 -41.938128 
L 282.859348 -45.921709 
L 281.264151 -42.059578 
L 279.668954 -42.407737 
L 278.073756 -59.192218 
L 276.478559 -43.50889 
L 274.883362 -52.115693 
L 273.288165 -43.427922 
L 271.692967 -43.411729 
L 270.09777 -51.370796 
L 268.502573 -41.946224 
L 266.907376 -51.022637 
L 265.312178 -42.116255 
L 263.716981 -42.124352 
L 262.121784 -49.233264 
L 260.526587 -43.873241 
L 258.931389 -49.549036 
L 257.336192 -42.35106 
L 255.740995 -42.432027 
L 254.145798 -51.718954 
L 252.5506 -42.456317 
L 250.955403 -46.456092 
L 249.360206 -41.905741 
L 247.765009 -41.913838 
L 246.169811 -46.464189 
L 244.574614 -41.930031 
L 242.979417 -46.423705 
L 241.38422 -42.116255 
L 239.789022 -41.986708 
L 238.193825 -45.573551 
L 236.598628 -41.897644 
L 235.003431 -45.549261 
L 233.408233 -41.897644 
L 231.813036 -41.905741 
L 230.217839 -45.597841 
L 228.622642 -41.897644 
L 227.027444 -45.52497 
L 225.432247 -44.86104 
L 223.83705 -41.978611 
L 222.241852 -47.24957 
L 220.646655 -42.148642 
L 219.051458 -46.909508 
L 217.456261 -41.962418 
L 215.861063 -42.075772 
L 214.265866 -46.512769 
L 212.670669 -43.03928 
L 211.075472 -46.164611 
L 209.480274 -42.950216 
L 207.885077 -42.844959 
L 206.28988 -46.253674 
L 204.694683 -42.893539 
L 203.099485 -46.375125 
L 201.504288 -44.350947 
L 199.909091 -44.326657 
L 198.313894 -51.192668 
L 196.718696 -42.108159 
L 195.123499 -51.103604 
L 193.528302 -42.083868 
L 191.933105 -42.091965 
L 190.337907 -50.957863 
L 188.74271 -41.905741 
L 187.147513 -50.051032 
L 185.552316 -41.913838 
L 183.957118 -41.889547 
L 182.361921 -44.002789 
L 180.766724 -42.027191 
L 179.171527 -49.678583 
L 177.576329 -42.472511 
L 175.981132 -42.237706 
L 174.385935 -47.686792 
L 172.790738 -41.913838 
L 171.19554 -47.686792 
L 169.600343 -41.921934 
L 168.005146 -41.930031 
L 166.409949 -47.662502 
L 164.814751 -41.913838 
L 163.219554 -44.12424 
L 161.624357 -44.488592 
L 160.02916 -47.419601 
L 158.433962 -53.386877 
L 156.838765 -51.662277 
L 155.243568 -59.321766 
L 153.64837 -42.844959 
L 152.053173 -43.265988 
L 150.457976 -52.933461 
L 148.862779 -55.743019 
L 147.267581 -50.723059 
L 145.672384 -44.990588 
L 144.077187 -44.642429 
L 142.48199 -46.180804 
L 140.886792 -43.897532 
L 139.291595 -47.727276 
L 137.696398 -45.047265 
L 136.101201 -44.375238 
L 134.506003 -46.456092 
L 132.910806 -46.059353 
L 131.315609 -50.35061 
L 129.720412 -46.666607 
L 128.125214 -47.848726 
L 126.530017 -55.22483 
L 124.93482 -49.16849 
L 123.339623 -45.419713 
L 121.744425 -41.970514 
L 120.149228 -41.905741 
L 118.554031 -45.767872 
L 116.958834 -41.897644 
L 115.363636 -45.865032 
z
" style="stroke: #0000ff; stroke-width: 0.5"/>
    </defs>
    <g clip-path="url(#p4f7c603dc1)">
     <use xlink:href="#mbb2fbe7ddf" x="0" y="288" style="fill: #0000ff; stroke: #0000ff; stroke-width: 0.5"/>
    </g>
   </g>
   <g id="PolyCollection_3">
    <defs>
     <path id="md87588ed47" d="M 115.363636 -48.342626 
L 115.363636 -45.865032 
L 116.958834 -41.897644 
L 118.554031 -45.767872 
L 120.149228 -41.905741 
L 121.744425 -41.970514 
L 123.339623 -45.419713 
L 124.93482 -49.16849 
L 126.530017 -55.22483 
L 128.125214 -47.848726 
L 129.720412 -46.666607 
L 131.315609 -50.35061 
L 132.910806 -46.059353 
L 134.506003 -46.456092 
L 136.101201 -44.375238 
L 137.696398 -45.047265 
L 139.291595 -47.727276 
L 140.886792 -43.897532 
L 142.48199 -46.180804 
L 144.077187 -44.642429 
L 145.672384 -44.990588 
L 147.267581 -50.723059 
L 148.862779 -55.743019 
L 150.457976 -52.933461 
L 152.053173 -43.265988 
L 153.64837 -42.844959 
L 155.243568 -59.321766 
L 156.838765 -51.662277 
L 158.433962 -53.386877 
L 160.02916 -47.419601 
L 161.624357 -44.488592 
L 163.219554 -44.12424 
L 164.814751 -41.913838 
L 166.409949 -47.662502 
L 168.005146 -41.930031 
L 169.600343 -41.921934 
L 171.19554 -47.686792 
L 172.790738 -41.913838 
L 174.385935 -47.686792 
L 175.981132 -42.237706 
L 177.576329 -42.472511 
L 179.171527 -49.678583 
L 180.766724 -42.027191 
L 182.361921 -44.002789 
L 183.957118 -41.889547 
L 185.552316 -41.913838 
L 187.147513 -50.051032 
L 188.74271 -41.905741 
L 190.337907 -50.957863 
L 191.933105 -42.091965 
L 193.528302 -42.083868 
L 195.123499 -51.103604 
L 196.718696 -42.108159 
L 198.313894 -51.192668 
L 199.909091 -44.326657 
L 201.504288 -44.350947 
L 203.099485 -46.375125 
L 204.694683 -42.893539 
L 206.28988 -46.253674 
L 207.885077 -42.844959 
L 209.480274 -42.950216 
L 211.075472 -46.164611 
L 212.670669 -43.03928 
L 214.265866 -46.512769 
L 215.861063 -42.075772 
L 217.456261 -41.962418 
L 219.051458 -46.909508 
L 220.646655 -42.148642 
L 222.241852 -47.24957 
L 223.83705 -41.978611 
L 225.432247 -44.86104 
L 227.027444 -45.52497 
L 228.622642 -41.897644 
L 230.217839 -45.597841 
L 231.813036 -41.905741 
L 233.408233 -41.897644 
L 235.003431 -45.549261 
L 236.598628 -41.897644 
L 238.193825 -45.573551 
L 239.789022 -41.986708 
L 241.38422 -42.116255 
L 242.979417 -46.423705 
L 244.574614 -41.930031 
L 246.169811 -46.464189 
L 247.765009 -41.913838 
L 249.360206 -41.905741 
L 250.955403 -46.456092 
L 252.5506 -42.456317 
L 254.145798 -51.718954 
L 255.740995 -42.432027 
L 257.336192 -42.35106 
L 258.931389 -49.549036 
L 260.526587 -43.873241 
L 262.121784 -49.233264 
L 263.716981 -42.124352 
L 265.312178 -42.116255 
L 266.907376 -51.022637 
L 268.502573 -41.946224 
L 270.09777 -51.370796 
L 271.692967 -43.411729 
L 273.288165 -43.427922 
L 274.883362 -52.115693 
L 276.478559 -43.50889 
L 278.073756 -59.192218 
L 279.668954 -42.407737 
L 281.264151 -42.059578 
L 282.859348 -45.921709 
L 284.454545 -41.938128 
L 286.049743 -46.860928 
L 287.64494 -41.954321 
L 289.240137 -41.954321 
L 290.835334 -51.046927 
L 292.430532 -41.978611 
L 294.025729 -50.884993 
L 295.620926 -42.010998 
L 297.216123 -42.035288 
L 298.811321 -50.909283 
L 300.406518 -41.905741 
L 302.001715 -50.99025 
L 303.596913 -41.986708 
L 305.19211 -42.051482 
L 306.787307 -51.597504 
L 308.382504 -42.820669 
L 309.977702 -49.978161 
L 311.572899 -41.897644 
L 313.168096 -41.897644 
L 314.763293 -45.249682 
L 316.358491 -41.954321 
L 317.953688 -47.767759 
L 319.548885 -43.217408 
L 321.144082 -42.504897 
L 322.73928 -49.160394 
L 324.334477 -42.310576 
L 325.929674 -44.820557 
L 327.524871 -41.978611 
L 329.120069 -42.116255 
L 330.715266 -46.933798 
L 332.310463 -42.148642 
L 333.90566 -46.820444 
L 335.500858 -42.116255 
L 337.096055 -43.411729 
L 338.691252 -46.796154 
L 340.286449 -42.334866 
L 341.881647 -46.09174 
L 343.476844 -41.994805 
L 345.072041 -41.978611 
L 346.667238 -45.954096 
L 348.262436 -41.954321 
L 349.857633 -54.180354 
L 351.45283 -41.897644 
L 353.048027 -41.897644 
L 354.643225 -55.483925 
L 356.238422 -42.140545 
L 357.833619 -49.160394 
L 359.428816 -41.905741 
L 361.024014 -41.954321 
L 362.619211 -49.030846 
L 364.214408 -42.051482 
L 365.809605 -46.358932 
L 367.404803 -41.946224 
L 369 -42.051482 
L 370.595197 -45.978386 
L 372.190395 -42.051482 
L 373.785592 -45.816452 
L 375.380789 -41.938128 
L 376.975986 -41.921934 
L 378.571184 -45.695001 
L 380.166381 -41.954321 
L 381.761578 -49.030846 
L 383.356775 -42.035288 
L 384.951973 -42.108159 
L 386.54717 -49.540939 
L 388.142367 -42.035288 
L 389.737564 -53.443554 
L 391.332762 -41.897644 
L 392.927959 -41.897644 
L 394.523156 -53.508327 
L 396.118353 -41.913838 
L 397.713551 -45.695001 
L 399.308748 -41.897644 
L 400.903945 -41.889547 
L 402.499142 -45.711195 
L 404.09434 -42.075772 
L 405.689537 -47.694889 
L 407.284734 -42.091965 
L 408.879931 -42.140545 
L 410.475129 -47.654405 
L 412.070326 -42.019095 
L 413.665523 -47.095732 
L 415.26072 -41.994805 
L 416.855918 -41.930031 
L 418.451115 -47.136216 
L 420.046312 -42.043385 
L 421.641509 -48.55314 
L 423.236707 -45.945999 
L 424.831904 -50.067225 
L 426.427101 -52.180467 
L 428.022298 -48.366916 
L 429.617496 -50.083419 
L 431.212693 -42.156739 
L 432.80789 -42.148642 
L 434.403087 -49.249457 
L 435.998285 -41.913838 
L 437.593482 -49.330425 
L 439.188679 -42.148642 
L 440.783877 -42.229609 
L 442.379074 -44.796267 
L 443.974271 -41.921934 
L 445.569468 -48.318336 
L 447.164666 -42.002901 
L 448.759863 -41.921934 
L 450.35506 -48.277852 
L 451.950257 -41.921934 
L 453.545455 -46.561349 
L 455.140652 -41.930031 
L 456.735849 -41.897644 
L 458.331046 -46.917605 
L 459.926244 -43.597953 
L 461.521441 -48.383109 
L 463.116638 -42.707315 
L 464.711835 -43.112151 
L 466.307033 -47.953984 
L 467.90223 -42.488704 
L 469.497427 -48.196885 
L 471.092624 -54.520416 
L 472.687822 -58.625448 
L 474.283019 -60.463402 
L 475.878216 -56.674141 
L 477.473413 -48.771751 
L 479.068611 -42.156739 
L 480.663808 -42.294383 
L 482.259005 -45.160618 
L 483.854202 -42.91783 
L 485.4494 -45.565454 
L 487.044597 -42.982603 
L 488.639794 -42.901636 
L 490.234991 -49.921484 
L 491.830189 -45.290166 
L 493.425386 -49.751453 
L 495.020583 -43.031184 
L 496.61578 -48.140208 
L 498.210978 -53.516424 
L 499.806175 -52.285724 
L 501.401372 -82.494552 
L 502.996569 -74.948417 
L 504.591767 -88.40515 
L 506.186964 -107.481001 
L 507.782161 -95.384515 
L 509.377358 -94.890616 
L 510.972556 -93.392724 
L 512.567753 -97.870205 
L 514.16295 -104.18564 
L 515.758148 -92.234895 
L 517.353345 -92.955502 
L 518.948542 -81.199078 
L 520.543739 -74.284487 
L 522.138937 -100.922665 
L 523.734134 -82.478358 
L 525.329331 -72.527501 
L 526.924528 -54.156064 
L 528.519726 -53.233039 
L 530.114923 -51.249345 
L 531.71012 -44.140433 
L 533.305317 -60.568659 
L 534.900515 -59.354152 
L 536.495712 -63.953084 
L 538.090909 -68.519629 
L 539.686106 -57.216621 
L 541.281304 -66.050132 
L 542.876501 -53.96984 
L 544.471698 -72.648951 
L 546.066895 -74.284487 
L 547.662093 -50.212966 
L 549.25729 -58.431127 
L 550.852487 -47.111926 
L 552.447684 -49.961968 
L 554.042882 -58.002002 
L 555.638079 -43.476503 
L 557.233276 -54.593286 
L 558.828473 -56.220725 
L 560.423671 -53.783615 
L 562.018868 -63.208187 
L 563.614065 -51.637987 
L 565.209262 -79.312544 
L 566.80446 -75.571864 
L 568.399657 -74.341164 
L 569.994854 -80.057442 
L 571.590051 -61.605038 
L 573.185249 -71.15106 
L 574.780446 -74.503098 
L 576.375643 -59.151735 
L 577.97084 -74.235907 
L 579.566038 -60.957301 
L 581.161235 -75.43422 
L 582.756432 -60.76298 
L 584.35163 -53.322103 
L 585.946827 -54.471836 
L 587.542024 -46.966185 
L 589.137221 -55.945437 
L 590.732419 -46.334642 
L 592.327616 -46.350835 
L 593.922813 -55.216733 
L 595.51801 -46.051257 
L 597.113208 -64.204082 
L 598.708405 -61.208299 
L 600.303602 -66.89219 
L 601.898799 -68.964948 
L 603.493997 -45.209199 
L 605.089194 -44.310464 
L 606.684391 -42.237706 
L 608.279588 -42.019095 
L 609.874786 -46.796154 
L 611.469983 -41.897644 
L 613.06518 -45.282069 
L 614.660377 -41.986708 
L 616.255575 -41.994805 
L 617.850772 -53.281619 
L 619.445969 -41.954321 
L 621.041166 -53.305909 
L 622.636364 -41.76 
L 622.636364 -45.128232 
L 622.636364 -45.128232 
L 621.041166 -53.896969 
L 619.445969 -42.156739 
L 617.850772 -53.913163 
L 616.255575 -42.181029 
L 614.660377 -55.84018 
L 613.06518 -47.557245 
L 611.469983 -45.670711 
L 609.874786 -56.957526 
L 608.279588 -48.779848 
L 606.684391 -47.743469 
L 605.089194 -51.046927 
L 603.493997 -71.491122 
L 601.898799 -137.017802 
L 600.303602 -148.215552 
L 598.708405 -127.350329 
L 597.113208 -121.221119 
L 595.51801 -87.611673 
L 593.922813 -99.732449 
L 592.327616 -95.416902 
L 590.732419 -101.214147 
L 589.137221 -116.144481 
L 587.542024 -108.484993 
L 585.946827 -102.744425 
L 584.35163 -118.573495 
L 582.756432 -139.454911 
L 581.161235 -154.037087 
L 579.566038 -143.260365 
L 577.97084 -148.077908 
L 576.375643 -127.398909 
L 574.780446 -158.449795 
L 573.185249 -149.235738 
L 571.590051 -141.883925 
L 569.994854 -164.028428 
L 568.399657 -151.049401 
L 566.80446 -151.559494 
L 565.209262 -163.558819 
L 563.614065 -134.775013 
L 562.018868 -120.80009 
L 560.423671 -104.30709 
L 558.828473 -119.707034 
L 557.233276 -103.756514 
L 555.638079 -74.041586 
L 554.042882 -102.355783 
L 552.447684 -89.741108 
L 550.852487 -89.984009 
L 549.25729 -92.850245 
L 547.662093 -95.530256 
L 546.066895 -137.754602 
L 544.471698 -140.774675 
L 542.876501 -109.448502 
L 541.281304 -138.345662 
L 539.686106 -112.403801 
L 538.090909 -129.309733 
L 536.495712 -134.823593 
L 534.900515 -130.629497 
L 533.305317 -129.180186 
L 531.71012 -88.494214 
L 530.114923 -97.271049 
L 528.519726 -129.163992 
L 526.924528 -130.686174 
L 525.329331 -163.963655 
L 523.734134 -188.844847 
L 522.138937 -228.818308 
L 520.543739 -165.429159 
L 518.948542 -188.431915 
L 517.353345 -197.3302 
L 515.758148 -220.365342 
L 514.16295 -222.58384 
L 512.567753 -231.797897 
L 510.972556 -221.693202 
L 509.377358 -226.138296 
L 507.782161 -236.259185 
L 506.186964 -243.36 
L 504.591767 -225.595817 
L 502.996569 -187.193118 
L 501.401372 -204.17192 
L 499.806175 -109.683306 
L 498.210978 -84.0977 
L 496.61578 -92.809761 
L 495.020583 -74.430228 
L 493.425386 -76.300568 
L 491.830189 -67.175575 
L 490.234991 -83.700961 
L 488.639794 -78.681001 
L 487.044597 -73.855361 
L 485.4494 -60.293371 
L 483.854202 -59.062671 
L 482.259005 -56.253112 
L 480.663808 -48.885105 
L 479.068611 -46.164611 
L 477.473413 -82.632196 
L 475.878216 -104.047996 
L 474.283019 -109.237987 
L 472.687822 -111.456486 
L 471.092624 -99.327613 
L 469.497427 -75.725701 
L 467.90223 -59.60515 
L 466.307033 -64.900399 
L 464.711835 -83.425673 
L 463.116638 -80.170796 
L 461.521441 -67.734248 
L 459.926244 -63.896407 
L 458.331046 -55.710633 
L 456.735849 -46.342738 
L 455.140652 -51.419376 
L 453.545455 -58.552578 
L 451.950257 -53.014428 
L 450.35506 -52.731043 
L 448.759863 -44.367141 
L 447.164666 -46.277965 
L 445.569468 -54.147967 
L 443.974271 -51.50844 
L 442.379074 -55.670149 
L 440.783877 -55.524408 
L 439.188679 -54.836188 
L 437.593482 -51.678471 
L 435.998285 -46.901411 
L 434.403087 -63.76686 
L 432.80789 -51.961855 
L 431.212693 -53.856486 
L 429.617496 -77.191206 
L 428.022298 -93.133629 
L 426.427101 -99.465257 
L 424.831904 -84.810211 
L 423.236707 -81.66059 
L 421.641509 -58.333967 
L 420.046312 -58.682125 
L 418.451115 -59.402733 
L 416.855918 -45.686905 
L 415.26072 -51.168378 
L 413.665523 -64.649401 
L 412.070326 -50.747349 
L 410.475129 -59.653731 
L 408.879931 -56.010211 
L 407.284734 -61.038268 
L 405.689537 -63.15151 
L 404.09434 -53.637875 
L 402.499142 -48.626011 
L 400.903945 -42.723509 
L 399.308748 -43.01499 
L 397.713551 -49.128007 
L 396.118353 -44.108046 
L 394.523156 -55.419151 
L 392.927959 -42.998797 
L 391.332762 -44.17282 
L 389.737564 -56.925139 
L 388.142367 -44.375238 
L 386.54717 -79.992668 
L 384.951973 -70.300905 
L 383.356775 -65.361912 
L 381.761578 -77.28027 
L 380.166381 -66.22826 
L 378.571184 -64.827529 
L 376.975986 -59.945212 
L 375.380789 -53.087298 
L 373.785592 -53.913163 
L 372.190395 -48.358819 
L 370.595197 -53.767422 
L 369 -49.702873 
L 367.404803 -49.532842 
L 365.809605 -54.026517 
L 364.214408 -50.876896 
L 362.619211 -63.750666 
L 361.024014 -57.151847 
L 359.428816 -43.727501 
L 357.833619 -67.183672 
L 356.238422 -66.042035 
L 354.643225 -65.013753 
L 353.048027 -43.427922 
L 351.45283 -43.079764 
L 349.857633 -74.284487 
L 348.262436 -45.533067 
L 346.667238 -52.026629 
L 345.072041 -49.961968 
L 343.476844 -48.115918 
L 341.881647 -50.026742 
L 340.286449 -53.751229 
L 338.691252 -69.264526 
L 337.096055 -66.762643 
L 335.500858 -63.1758 
L 333.90566 -69.726039 
L 332.310463 -68.017633 
L 330.715266 -74.91603 
L 329.120069 -69.831296 
L 327.524871 -54.050807 
L 325.929674 -56.107371 
L 324.334477 -66.114906 
L 322.73928 -60.333854 
L 321.144082 -78.284262 
L 319.548885 -70.292809 
L 317.953688 -65.102817 
L 316.358491 -43.50889 
L 314.763293 -46.415609 
L 313.168096 -45.492584 
L 311.572899 -43.946112 
L 309.977702 -56.180242 
L 308.382504 -64.495564 
L 306.787307 -73.798684 
L 305.19211 -60.649626 
L 303.596913 -52.593399 
L 302.001715 -54.002227 
L 300.406518 -43.306472 
L 298.811321 -53.484037 
L 297.216123 -50.407287 
L 295.620926 -49.905291 
L 294.025729 -67.288929 
L 292.430532 -54.698544 
L 290.835334 -58.933123 
L 289.240137 -60.860141 
L 287.64494 -51.872792 
L 286.049743 -57.767197 
L 284.454545 -51.435569 
L 282.859348 -52.156177 
L 281.264151 -53.135879 
L 279.668954 -52.390981 
L 278.073756 -74.454518 
L 276.478559 -54.123677 
L 274.883362 -87.158257 
L 273.288165 -66.30113 
L 271.692967 -67.620894 
L 270.09777 -74.980804 
L 268.502573 -47.508665 
L 266.907376 -58.180129 
L 265.312178 -49.403295 
L 263.716981 -62.592837 
L 262.121784 -108.54167 
L 260.526587 -85.676559 
L 258.931389 -96.348024 
L 257.336192 -54.973832 
L 255.740995 -56.900849 
L 254.145798 -65.442879 
L 252.5506 -61.888423 
L 250.955403 -48.844622 
L 249.360206 -45.290166 
L 247.765009 -44.342851 
L 246.169811 -50.172482 
L 244.574614 -49.589519 
L 242.979417 -62.479483 
L 241.38422 -47.006669 
L 239.789022 -47.241473 
L 238.193825 -49.573326 
L 236.598628 -43.314568 
L 235.003431 -46.844734 
L 233.408233 -43.55747 
L 231.813036 -45.42781 
L 230.217839 -47.532955 
L 228.622642 -44.14853 
L 227.027444 -50.131999 
L 225.432247 -68.568209 
L 223.83705 -50.642092 
L 222.241852 -57.159944 
L 220.646655 -52.083306 
L 219.051458 -57.111364 
L 217.456261 -46.698994 
L 215.861063 -51.799921 
L 214.265866 -57.929131 
L 212.670669 -63.030059 
L 211.075472 -60.560562 
L 209.480274 -58.860253 
L 207.885077 -58.447321 
L 206.28988 -61.459297 
L 204.694683 -58.86835 
L 203.099485 -61.750779 
L 201.504288 -68.973045 
L 199.909091 -66.155389 
L 198.313894 -61.985583 
L 196.718696 -48.124015 
L 195.123499 -57.329975 
L 193.528302 -47.832533 
L 191.933105 -47.605825 
L 190.337907 -53.45165 
L 188.74271 -43.460309 
L 187.147513 -51.492246 
L 185.552316 -52.771527 
L 183.957118 -43.468406 
L 182.361921 -46.099837 
L 180.766724 -47.557245 
L 179.171527 -55.751116 
L 177.576329 -52.868687 
L 175.981132 -58.714512 
L 174.385935 -49.476165 
L 172.790738 -44.901524 
L 171.19554 -51.006444 
L 169.600343 -46.520866 
L 168.005146 -46.723284 
L 166.409949 -57.038493 
L 164.814751 -45.735485 
L 163.219554 -52.982041 
L 161.624357 -60.884431 
L 160.02916 -70.51142 
L 158.433962 -85.757526 
L 156.838765 -88.94763 
L 155.243568 -106.995198 
L 153.64837 -94.574844 
L 152.053173 -95.69219 
L 150.457976 -106.930425 
L 148.862779 -113.302536 
L 147.267581 -76.470599 
L 145.672384 -69.264526 
L 144.077187 -63.896407 
L 142.48199 -61.386427 
L 140.886792 -60.050469 
L 139.291595 -65.621006 
L 137.696398 -67.855699 
L 136.101201 -64.042148 
L 134.506003 -63.961181 
L 132.910806 -85.417464 
L 131.315609 -85.190756 
L 129.720412 -93.117436 
L 128.125214 -90.931324 
L 126.530017 -102.210042 
L 124.93482 -73.353365 
L 123.339623 -64.195985 
L 121.744425 -52.690559 
L 120.149228 -44.116143 
L 118.554031 -48.375013 
L 116.958834 -45.662615 
L 115.363636 -48.342626 
z
" style="stroke: #008000; stroke-width: 0.5"/>
    </defs>
    <g clip-path="url(#p4f7c603dc1)">
     <use xlink:href="#md87588ed47" x="0" y="288" style="fill: #008000; stroke: #008000; stroke-width: 0.5"/>
    </g>
   </g>
   <g id="line2d_24">
    <path d="M 90 44.64 
L 648 44.64 
" clip-path="url(#p4f7c603dc1)" style="fill: none; stroke: #000000; stroke-width: 1.5; stroke-linecap: square"/>
   </g>
   <g id="line2d_25">
    <path d="M 90 210.387765 
L 648 210.387765 
" clip-path="url(#p4f7c603dc1)" style="fill: none; stroke: #000000; stroke-width: 1.5; stroke-linecap: square"/>
   </g>
   <g id="patch_3">
    <path d="M 90 256.32 
L 90 34.56 
" style="fill: none; stroke: #000000; stroke-width: 0.8; stroke-linejoin: miter; stroke-linecap: square"/>
   </g>
   <g id="patch_4">
    <path d="M 648 256.32 
L 648 34.56 
" style="fill: none; stroke: #000000; stroke-width: 0.8; stroke-linejoin: miter; stroke-linecap: square"/>
   </g>
   <g id="patch_5">
    <path d="M 90 256.32 
L 648 256.32 
" style="fill: none; stroke: #000000; stroke-width: 0.8; stroke-linejoin: miter; stroke-linecap: square"/>
   </g>
   <g id="patch_6">
    <path d="M 90 34.56 
L 648 34.56 
" style="fill: none; stroke: #000000; stroke-width: 0.8; stroke-linejoin: miter; stroke-linecap: square"/>
   </g>
   <g id="text_20">
    <!-- peak (24,899) -->
    <g transform="translate(118.700327 41.3136) scale(0.1 -0.1)">
     <defs>
      <path id="DejaVuSans-Bold-70" d="M 1656 506 
L 1656 -1331 
L 538 -1331 
L 538 3500 
L 1656 3500 
L 1656 2988 
Q 1888 3294 2169 3439 
Q 2450 3584 2816 3584 
Q 3463 3584 3878 3070 
Q 4294 2556 4294 1747 
Q 4294 938 3878 423 
Q 3463 -91 2816 -91 
Q 2450 -91 2169 54 
Q 1888 200 1656 506 
z
M 2400 2772 
Q 2041 2772 1848 2508 
Q 1656 2244 1656 1747 
Q 1656 1250 1848 986 
Q 2041 722 2400 722 
Q 2759 722 2948 984 
Q 3138 1247 3138 1747 
Q 3138 2247 2948 2509 
Q 2759 2772 2400 2772 
z
" transform="scale(0.015625)"/>
      <path id="DejaVuSans-Bold-65" d="M 4031 1759 
L 4031 1441 
L 1416 1441 
Q 1456 1047 1700 850 
Q 1944 653 2381 653 
Q 2734 653 3104 758 
Q 3475 863 3866 1075 
L 3866 213 
Q 3469 63 3072 -14 
Q 2675 -91 2278 -91 
Q 1328 -91 801 392 
Q 275 875 275 1747 
Q 275 2603 792 3093 
Q 1309 3584 2216 3584 
Q 3041 3584 3536 3087 
Q 4031 2591 4031 1759 
z
M 2881 2131 
Q 2881 2450 2695 2645 
Q 2509 2841 2209 2841 
Q 1884 2841 1681 2658 
Q 1478 2475 1428 2131 
L 2881 2131 
z
" transform="scale(0.015625)"/>
      <path id="DejaVuSans-Bold-61" d="M 2106 1575 
Q 1756 1575 1579 1456 
Q 1403 1338 1403 1106 
Q 1403 894 1545 773 
Q 1688 653 1941 653 
Q 2256 653 2472 879 
Q 2688 1106 2688 1447 
L 2688 1575 
L 2106 1575 
z
M 3816 1997 
L 3816 0 
L 2688 0 
L 2688 519 
Q 2463 200 2181 54 
Q 1900 -91 1497 -91 
Q 953 -91 614 226 
Q 275 544 275 1050 
Q 275 1666 698 1953 
Q 1122 2241 2028 2241 
L 2688 2241 
L 2688 2328 
Q 2688 2594 2478 2717 
Q 2269 2841 1825 2841 
Q 1466 2841 1156 2769 
Q 847 2697 581 2553 
L 581 3406 
Q 941 3494 1303 3539 
Q 1666 3584 2028 3584 
Q 2975 3584 3395 3211 
Q 3816 2838 3816 1997 
z
" transform="scale(0.015625)"/>
      <path id="DejaVuSans-Bold-6b" d="M 538 4863 
L 1656 4863 
L 1656 2216 
L 2944 3500 
L 4244 3500 
L 2534 1894 
L 4378 0 
L 3022 0 
L 1656 1459 
L 1656 0 
L 538 0 
L 538 4863 
z
" transform="scale(0.015625)"/>
      <path id="DejaVuSans-Bold-20" transform="scale(0.015625)"/>
      <path id="DejaVuSans-Bold-28" d="M 2413 -844 
L 1484 -844 
Q 1006 -72 778 623 
Q 550 1319 550 2003 
Q 550 2688 779 3389 
Q 1009 4091 1484 4856 
L 2413 4856 
Q 2013 4116 1813 3408 
Q 1613 2700 1613 2009 
Q 1613 1319 1811 609 
Q 2009 -100 2413 -844 
z
" transform="scale(0.015625)"/>
      <path id="DejaVuSans-Bold-32" d="M 1844 884 
L 3897 884 
L 3897 0 
L 506 0 
L 506 884 
L 2209 2388 
Q 2438 2594 2547 2791 
Q 2656 2988 2656 3200 
Q 2656 3528 2436 3728 
Q 2216 3928 1850 3928 
Q 1569 3928 1234 3808 
Q 900 3688 519 3450 
L 519 4475 
Q 925 4609 1322 4679 
Q 1719 4750 2100 4750 
Q 2938 4750 3402 4381 
Q 3866 4013 3866 3353 
Q 3866 2972 3669 2642 
Q 3472 2313 2841 1759 
L 1844 884 
z
" transform="scale(0.015625)"/>
      <path id="DejaVuSans-Bold-34" d="M 2356 3675 
L 1038 1722 
L 2356 1722 
L 2356 3675 
z
M 2156 4666 
L 3494 4666 
L 3494 1722 
L 4159 1722 
L 4159 850 
L 3494 850 
L 3494 0 
L 2356 0 
L 2356 850 
L 288 850 
L 288 1881 
L 2156 4666 
z
" transform="scale(0.015625)"/>
      <path id="DejaVuSans-Bold-2c" d="M 653 1209 
L 1778 1209 
L 1778 256 
L 1006 -909 
L 341 -909 
L 653 256 
L 653 1209 
z
" transform="scale(0.015625)"/>
      <path id="DejaVuSans-Bold-38" d="M 2228 2088 
Q 1891 2088 1709 1903 
Q 1528 1719 1528 1375 
Q 1528 1031 1709 848 
Q 1891 666 2228 666 
Q 2563 666 2741 848 
Q 2919 1031 2919 1375 
Q 2919 1722 2741 1905 
Q 2563 2088 2228 2088 
z
M 1350 2484 
Q 925 2613 709 2878 
Q 494 3144 494 3541 
Q 494 4131 934 4440 
Q 1375 4750 2228 4750 
Q 3075 4750 3515 4442 
Q 3956 4134 3956 3541 
Q 3956 3144 3739 2878 
Q 3522 2613 3097 2484 
Q 3572 2353 3814 2058 
Q 4056 1763 4056 1313 
Q 4056 619 3595 264 
Q 3134 -91 2228 -91 
Q 1319 -91 855 264 
Q 391 619 391 1313 
Q 391 1763 633 2058 
Q 875 2353 1350 2484 
z
M 1631 3419 
Q 1631 3141 1786 2991 
Q 1941 2841 2228 2841 
Q 2509 2841 2662 2991 
Q 2816 3141 2816 3419 
Q 2816 3697 2662 3845 
Q 2509 3994 2228 3994 
Q 1941 3994 1786 3844 
Q 1631 3694 1631 3419 
z
" transform="scale(0.015625)"/>
      <path id="DejaVuSans-Bold-39" d="M 641 103 
L 641 966 
Q 928 831 1190 764 
Q 1453 697 1709 697 
Q 2247 697 2547 995 
Q 2847 1294 2900 1881 
Q 2688 1725 2447 1647 
Q 2206 1569 1925 1569 
Q 1209 1569 770 1986 
Q 331 2403 331 3084 
Q 331 3838 820 4291 
Q 1309 4744 2131 4744 
Q 3044 4744 3544 4128 
Q 4044 3513 4044 2388 
Q 4044 1231 3459 570 
Q 2875 -91 1856 -91 
Q 1528 -91 1228 -42 
Q 928 6 641 103 
z
M 2125 2350 
Q 2441 2350 2600 2554 
Q 2759 2759 2759 3169 
Q 2759 3575 2600 3781 
Q 2441 3988 2125 3988 
Q 1809 3988 1650 3781 
Q 1491 3575 1491 3169 
Q 1491 2759 1650 2554 
Q 1809 2350 2125 2350 
z
" transform="scale(0.015625)"/>
      <path id="DejaVuSans-Bold-29" d="M 513 -844 
Q 913 -100 1113 609 
Q 1313 1319 1313 2009 
Q 1313 2700 1113 3408 
Q 913 4116 513 4856 
L 1441 4856 
Q 1916 4091 2145 3389 
Q 2375 2688 2375 2003 
Q 2375 1319 2147 623 
Q 1919 -72 1441 -844 
L 513 -844 
z
" transform="scale(0.015625)"/>
     </defs>
     <use xlink:href="#DejaVuSans-Bold-70"/>
     <use xlink:href="#DejaVuSans-Bold-65" x="71.582031"/>
     <use xlink:href="#DejaVuSans-Bold-61" x="139.404297"/>
     <use xlink:href="#DejaVuSans-Bold-6b" x="206.884766"/>
     <use xlink:href="#DejaVuSans-Bold-20" x="273.388672"/>
     <use xlink:href="#DejaVuSans-Bold-28" x="308.203125"/>
     <use xlink:href="#DejaVuSans-Bold-32" x="353.90625"/>
     <use xlink:href="#DejaVuSans-Bold-34" x="423.486328"/>
     <use xlink:href="#DejaVuSans-Bold-2c" x="493.066406"/>
     <use xlink:href="#DejaVuSans-Bold-38" x="531.054688"/>
     <use xlink:href="#DejaVuSans-Bold-39" x="600.634766"/>
     <use xlink:href="#DejaVuSans-Bold-39" x="670.214844"/>
     <use xlink:href="#DejaVuSans-Bold-29" x="739.794922"/>
    </g>
   </g>
   <g id="text_21">
    <!-- mean (4,428) -->
    <g transform="translate(567.728153 207.061365) scale(0.1 -0.1)">
     <defs>
      <path id="DejaVuSans-Bold-6d" d="M 3781 2919 
Q 3994 3244 4286 3414 
Q 4578 3584 4928 3584 
Q 5531 3584 5847 3212 
Q 6163 2841 6163 2131 
L 6163 0 
L 5038 0 
L 5038 1825 
Q 5041 1866 5042 1909 
Q 5044 1953 5044 2034 
Q 5044 2406 4934 2573 
Q 4825 2741 4581 2741 
Q 4263 2741 4089 2478 
Q 3916 2216 3909 1719 
L 3909 0 
L 2784 0 
L 2784 1825 
Q 2784 2406 2684 2573 
Q 2584 2741 2328 2741 
Q 2006 2741 1831 2477 
Q 1656 2213 1656 1722 
L 1656 0 
L 531 0 
L 531 3500 
L 1656 3500 
L 1656 2988 
Q 1863 3284 2130 3434 
Q 2397 3584 2719 3584 
Q 3081 3584 3359 3409 
Q 3638 3234 3781 2919 
z
" transform="scale(0.015625)"/>
      <path id="DejaVuSans-Bold-6e" d="M 4056 2131 
L 4056 0 
L 2931 0 
L 2931 347 
L 2931 1631 
Q 2931 2084 2911 2256 
Q 2891 2428 2841 2509 
Q 2775 2619 2662 2680 
Q 2550 2741 2406 2741 
Q 2056 2741 1856 2470 
Q 1656 2200 1656 1722 
L 1656 0 
L 538 0 
L 538 3500 
L 1656 3500 
L 1656 2988 
Q 1909 3294 2193 3439 
Q 2478 3584 2822 3584 
Q 3428 3584 3742 3212 
Q 4056 2841 4056 2131 
z
" transform="scale(0.015625)"/>
     </defs>
     <use xlink:href="#DejaVuSans-Bold-6d"/>
     <use xlink:href="#DejaVuSans-Bold-65" x="104.199219"/>
     <use xlink:href="#DejaVuSans-Bold-61" x="172.021484"/>
     <use xlink:href="#DejaVuSans-Bold-6e" x="239.501953"/>
     <use xlink:href="#DejaVuSans-Bold-20" x="310.693359"/>
     <use xlink:href="#DejaVuSans-Bold-28" x="345.507812"/>
     <use xlink:href="#DejaVuSans-Bold-34" x="391.210938"/>
     <use xlink:href="#DejaVuSans-Bold-2c" x="460.791016"/>
     <use xlink:href="#DejaVuSans-Bold-34" x="498.779297"/>
     <use xlink:href="#DejaVuSans-Bold-32" x="568.359375"/>
     <use xlink:href="#DejaVuSans-Bold-38" x="637.939453"/>
     <use xlink:href="#DejaVuSans-Bold-29" x="707.519531"/>
    </g>
   </g>
   <g id="text_22">
    <!-- Stream Bitrate over Time -->
    <g transform="translate(293.189062 28.56) scale(0.12 -0.12)">
     <defs>
      <path id="DejaVuSans-53" d="M 3425 4513 
L 3425 3897 
Q 3066 4069 2747 4153 
Q 2428 4238 2131 4238 
Q 1616 4238 1336 4038 
Q 1056 3838 1056 3469 
Q 1056 3159 1242 3001 
Q 1428 2844 1947 2747 
L 2328 2669 
Q 3034 2534 3370 2195 
Q 3706 1856 3706 1288 
Q 3706 609 3251 259 
Q 2797 -91 1919 -91 
Q 1588 -91 1214 -16 
Q 841 59 441 206 
L 441 856 
Q 825 641 1194 531 
Q 1563 422 1919 422 
Q 2459 422 2753 634 
Q 3047 847 3047 1241 
Q 3047 1584 2836 1778 
Q 2625 1972 2144 2069 
L 1759 2144 
Q 1053 2284 737 2584 
Q 422 2884 422 3419 
Q 422 4038 858 4394 
Q 1294 4750 2059 4750 
Q 2388 4750 2728 4690 
Q 3069 4631 3425 4513 
z
" transform="scale(0.015625)"/>
      <path id="DejaVuSans-6f" d="M 1959 3097 
Q 1497 3097 1228 2736 
Q 959 2375 959 1747 
Q 959 1119 1226 758 
Q 1494 397 1959 397 
Q 2419 397 2687 759 
Q 2956 1122 2956 1747 
Q 2956 2369 2687 2733 
Q 2419 3097 1959 3097 
z
M 1959 3584 
Q 2709 3584 3137 3096 
Q 3566 2609 3566 1747 
Q 3566 888 3137 398 
Q 2709 -91 1959 -91 
Q 1206 -91 779 398 
Q 353 888 353 1747 
Q 353 2609 779 3096 
Q 1206 3584 1959 3584 
z
" transform="scale(0.015625)"/>
      <path id="DejaVuSans-76" d="M 191 3500 
L 800 3500 
L 1894 563 
L 2988 3500 
L 3597 3500 
L 2284 0 
L 1503 0 
L 191 3500 
z
" transform="scale(0.015625)"/>
     </defs>
     <use xlink:href="#DejaVuSans-53"/>
     <use xlink:href="#DejaVuSans-74" x="63.476562"/>
     <use xlink:href="#DejaVuSans-72" x="102.685547"/>
     <use xlink:href="#DejaVuSans-65" x="141.548828"/>
     <use xlink:href="#DejaVuSans-61" x="203.072266"/>
     <use xlink:href="#DejaVuSans-6d" x="264.351562"/>
     <use xlink:href="#DejaVuSans-20" x="361.763672"/>
     <use xlink:href="#DejaVuSans-42" x="393.550781"/>
     <use xlink:href="#DejaVuSans-69" x="462.154297"/>
     <use xlink:href="#DejaVuSans-74" x="489.9375"/>
     <use xlink:href="#DejaVuSans-72" x="529.146484"/>
     <use xlink:href="#DejaVuSans-61" x="570.259766"/>
     <use xlink:href="#DejaVuSans-74" x="631.539062"/>
     <use xlink:href="#DejaVuSans-65" x="670.748047"/>
     <use xlink:href="#DejaVuSans-20" x="732.271484"/>
     <use xlink:href="#DejaVuSans-6f" x="764.058594"/>
     <use xlink:href="#DejaVuSans-76" x="825.240234"/>
     <use xlink:href="#DejaVuSans-65" x="884.419922"/>
     <use xlink:href="#DejaVuSans-72" x="945.943359"/>
     <use xlink:href="#DejaVuSans-20" x="987.056641"/>
     <use xlink:href="#DejaVuSans-54" x="1018.84375"/>
     <use xlink:href="#DejaVuSans-69" x="1076.802734"/>
     <use xlink:href="#DejaVuSans-6d" x="1104.585938"/>
     <use xlink:href="#DejaVuSans-65" x="1201.998047"/>
    </g>
   </g>
   <g id="legend_1">
    <g id="patch_7">
     <path d="M 602.139063 86.594375 
L 641 86.594375 
Q 643 86.594375 643 84.594375 
L 643 41.56 
Q 643 39.56 641 39.56 
L 602.139063 39.56 
Q 600.139063 39.56 600.139063 41.56 
L 600.139063 84.594375 
Q 600.139063 86.594375 602.139063 86.594375 
z
" style="fill: #ffffff; opacity: 0.8; stroke: #cccccc; stroke-linejoin: miter"/>
    </g>
    <g id="patch_8">
     <path d="M 604.139063 51.158438 
L 624.139063 51.158438 
L 624.139063 44.158438 
L 604.139063 44.158438 
z
" style="fill: #ff0000; stroke: #ff0000; stroke-width: 0.5; stroke-linejoin: miter"/>
    </g>
    <g id="text_23">
     <!-- I -->
     <g transform="translate(632.139063 51.158438) scale(0.1 -0.1)">
      <defs>
       <path id="DejaVuSans-49" d="M 628 4666 
L 1259 4666 
L 1259 0 
L 628 0 
L 628 4666 
z
" transform="scale(0.015625)"/>
      </defs>
      <use xlink:href="#DejaVuSans-49"/>
     </g>
    </g>
    <g id="patch_9">
     <path d="M 604.139063 65.836563 
L 624.139063 65.836563 
L 624.139063 58.836563 
L 604.139063 58.836563 
z
" style="fill: #0000ff; stroke: #0000ff; stroke-width: 0.5; stroke-linejoin: miter"/>
    </g>
    <g id="text_24">
     <!-- B -->
     <g transform="translate(632.139063 65.836563) scale(0.1 -0.1)">
      <use xlink:href="#DejaVuSans-42"/>
     </g>
    </g>
    <g id="patch_10">
     <path d="M 604.139063 80.514688 
L 624.139063 80.514688 
L 624.139063 73.514688 
L 604.139063 73.514688 
z
" style="fill: #008000; stroke: #008000; stroke-width: 0.5; stroke-linejoin: miter"/>
    </g>
    <g id="text_25">
     <!-- P -->
     <g transform="translate(632.139063 80.514688) scale(0.1 -0.1)">
      <defs>
       <path id="DejaVuSans-50" d="M 1259 4147 
L 1259 2394 
L 2053 2394 
Q 2494 2394 2734 2622 
Q 2975 2850 2975 3272 
Q 2975 3691 2734 3919 
Q 2494 4147 2053 4147 
L 1259 4147 
z
M 628 4666 
L 2053 4666 
Q 2838 4666 3239 4311 
Q 3641 3956 3641 3272 
Q 3641 2581 3239 2228 
Q 2838 1875 2053 1875 
L 1259 1875 
L 1259 0 
L 628 0 
L 628 4666 
z
" transform="scale(0.015625)"/>
      </defs>
      <use xlink:href="#DejaVuSans-50"/>
     </g>
    </g>
   </g>
  </g>
 </g>
 <defs>
  <clipPath id="p4f7c603dc1">
   <rect x="90" y="34.56" width="558" height="221.76"/>
  </clipPath>
 </defs>
</svg>
