<?xml version="1.0" encoding="utf-8" standalone="no"?>
<!DOCTYPE svg PUBLIC "-//W3C//DTD SVG 1.1//EN"
  "http://www.w3.org/Graphics/SVG/1.1/DTD/svg11.dtd">
<svg xmlns:xlink="http://www.w3.org/1999/xlink" width="720pt" height="288pt" viewBox="0 0 720 288" xmlns="http://www.w3.org/2000/svg" version="1.1">
 <metadata>
  <rdf:RDF xmlns:dc="http://purl.org/dc/elements/1.1/" xmlns:cc="http://creativecommons.org/ns#" xmlns:rdf="http://www.w3.org/1999/02/22-rdf-syntax-ns#">
   <cc:Work>
    <dc:type rdf:resource="http://purl.org/dc/dcmitype/StillImage"/>
    <dc:date>2023-05-07T13:53:39.835929</dc:date>
    <dc:format>image/svg+xml</dc:format>
    <dc:creator>
     <cc:Agent>
      <dc:title>Matplotlib v3.7.1, https://matplotlib.org/</dc:title>
     </cc:Agent>
    </dc:creator>
   </cc:Work>
  </rdf:RDF>
 </metadata>
 <defs>
  <style type="text/css">*{stroke-linejoin: round; stroke-linecap: butt}</style>
 </defs>
 <g id="figure_1">
  <g id="patch_1">
   <path d="M 0 288 
L 720 288 
L 720 0 
L 0 0 
z
" style="fill: #ffffff"/>
  </g>
  <g id="axes_1">
   <g id="patch_2">
    <path d="M 90 256.32 
L 648 256.32 
L 648 34.56 
L 90 34.56 
z
" style="fill: #ffffff"/>
   </g>
   <g id="matplotlib.axis_1">
    <g id="xtick_1">
     <g id="line2d_1">
      <defs>
       <path id="m662dee1b70" d="M 0 0 
L 0 3.5 
" style="stroke: #000000; stroke-width: 0.8"/>
      </defs>
      <g>
       <use xlink:href="#m662dee1b70" x="115.363636" y="256.32" style="stroke: #000000; stroke-width: 0.8"/>
      </g>
     </g>
     <g id="text_1">
      <!-- 0:00:00 -->
      <g transform="translate(96.088636 270.918437) scale(0.1 -0.1)">
       <defs>
        <path id="DejaVuSans-30" d="M 2034 4250 
Q 1547 4250 1301 3770 
Q 1056 3291 1056 2328 
Q 1056 1369 1301 889 
Q 1547 409 2034 409 
Q 2525 409 2770 889 
Q 3016 1369 3016 2328 
Q 3016 3291 2770 3770 
Q 2525 4250 2034 4250 
z
M 2034 4750 
Q 2819 4750 3233 4129 
Q 3647 3509 3647 2328 
Q 3647 1150 3233 529 
Q 2819 -91 2034 -91 
Q 1250 -91 836 529 
Q 422 1150 422 2328 
Q 422 3509 836 4129 
Q 1250 4750 2034 4750 
z
" transform="scale(0.015625)"/>
        <path id="DejaVuSans-3a" d="M 750 794 
L 1409 794 
L 1409 0 
L 750 0 
L 750 794 
z
M 750 3309 
L 1409 3309 
L 1409 2516 
L 750 2516 
L 750 3309 
z
" transform="scale(0.015625)"/>
       </defs>
       <use xlink:href="#DejaVuSans-30"/>
       <use xlink:href="#DejaVuSans-3a" x="63.623047"/>
       <use xlink:href="#DejaVuSans-30" x="97.314453"/>
       <use xlink:href="#DejaVuSans-30" x="160.9375"/>
       <use xlink:href="#DejaVuSans-3a" x="224.560547"/>
       <use xlink:href="#DejaVuSans-30" x="258.251953"/>
       <use xlink:href="#DejaVuSans-30" x="321.875"/>
      </g>
     </g>
    </g>
    <g id="xtick_2">
     <g id="line2d_2">
      <g>
       <use xlink:href="#m662dee1b70" x="164.814751" y="256.32" style="stroke: #000000; stroke-width: 0.8"/>
      </g>
     </g>
     <g id="text_2">
      <!-- 0:00:31 -->
      <g transform="translate(145.539751 270.918437) scale(0.1 -0.1)">
       <defs>
        <path id="DejaVuSans-33" d="M 2597 2516 
Q 3050 2419 3304 2112 
Q 3559 1806 3559 1356 
Q 3559 666 3084 287 
Q 2609 -91 1734 -91 
Q 1441 -91 1130 -33 
Q 819 25 488 141 
L 488 750 
Q 750 597 1062 519 
Q 1375 441 1716 441 
Q 2309 441 2620 675 
Q 2931 909 2931 1356 
Q 2931 1769 2642 2001 
Q 2353 2234 1838 2234 
L 1294 2234 
L 1294 2753 
L 1863 2753 
Q 2328 2753 2575 2939 
Q 2822 3125 2822 3475 
Q 2822 3834 2567 4026 
Q 2313 4219 1838 4219 
Q 1578 4219 1281 4162 
Q 984 4106 628 3988 
L 628 4550 
Q 988 4650 1302 4700 
Q 1616 4750 1894 4750 
Q 2613 4750 3031 4423 
Q 3450 4097 3450 3541 
Q 3450 3153 3228 2886 
Q 3006 2619 2597 2516 
z
" transform="scale(0.015625)"/>
        <path id="DejaVuSans-31" d="M 794 531 
L 1825 531 
L 1825 4091 
L 703 3866 
L 703 4441 
L 1819 4666 
L 2450 4666 
L 2450 531 
L 3481 531 
L 3481 0 
L 794 0 
L 794 531 
z
" transform="scale(0.015625)"/>
       </defs>
       <use xlink:href="#DejaVuSans-30"/>
       <use xlink:href="#DejaVuSans-3a" x="63.623047"/>
       <use xlink:href="#DejaVuSans-30" x="97.314453"/>
       <use xlink:href="#DejaVuSans-30" x="160.9375"/>
       <use xlink:href="#DejaVuSans-3a" x="224.560547"/>
       <use xlink:href="#DejaVuSans-33" x="258.251953"/>
       <use xlink:href="#DejaVuSans-31" x="321.875"/>
      </g>
     </g>
    </g>
    <g id="xtick_3">
     <g id="line2d_3">
      <g>
       <use xlink:href="#m662dee1b70" x="214.265866" y="256.32" style="stroke: #000000; stroke-width: 0.8"/>
      </g>
     </g>
     <g id="text_3">
      <!-- 0:01:02 -->
      <g transform="translate(194.990866 270.918437) scale(0.1 -0.1)">
       <defs>
        <path id="DejaVuSans-32" d="M 1228 531 
L 3431 531 
L 3431 0 
L 469 0 
L 469 531 
Q 828 903 1448 1529 
Q 2069 2156 2228 2338 
Q 2531 2678 2651 2914 
Q 2772 3150 2772 3378 
Q 2772 3750 2511 3984 
Q 2250 4219 1831 4219 
Q 1534 4219 1204 4116 
Q 875 4013 500 3803 
L 500 4441 
Q 881 4594 1212 4672 
Q 1544 4750 1819 4750 
Q 2544 4750 2975 4387 
Q 3406 4025 3406 3419 
Q 3406 3131 3298 2873 
Q 3191 2616 2906 2266 
Q 2828 2175 2409 1742 
Q 1991 1309 1228 531 
z
" transform="scale(0.015625)"/>
       </defs>
       <use xlink:href="#DejaVuSans-30"/>
       <use xlink:href="#DejaVuSans-3a" x="63.623047"/>
       <use xlink:href="#DejaVuSans-30" x="97.314453"/>
       <use xlink:href="#DejaVuSans-31" x="160.9375"/>
       <use xlink:href="#DejaVuSans-3a" x="224.560547"/>
       <use xlink:href="#DejaVuSans-30" x="258.251953"/>
       <use xlink:href="#DejaVuSans-32" x="321.875"/>
      </g>
     </g>
    </g>
    <g id="xtick_4">
     <g id="line2d_4">
      <g>
       <use xlink:href="#m662dee1b70" x="263.716981" y="256.32" style="stroke: #000000; stroke-width: 0.8"/>
      </g>
     </g>
     <g id="text_4">
      <!-- 0:01:33 -->
      <g transform="translate(244.441981 270.918437) scale(0.1 -0.1)">
       <use xlink:href="#DejaVuSans-30"/>
       <use xlink:href="#DejaVuSans-3a" x="63.623047"/>
       <use xlink:href="#DejaVuSans-30" x="97.314453"/>
       <use xlink:href="#DejaVuSans-31" x="160.9375"/>
       <use xlink:href="#DejaVuSans-3a" x="224.560547"/>
       <use xlink:href="#DejaVuSans-33" x="258.251953"/>
       <use xlink:href="#DejaVuSans-33" x="321.875"/>
      </g>
     </g>
    </g>
    <g id="xtick_5">
     <g id="line2d_5">
      <g>
       <use xlink:href="#m662dee1b70" x="313.168096" y="256.32" style="stroke: #000000; stroke-width: 0.8"/>
      </g>
     </g>
     <g id="text_5">
      <!-- 0:02:04 -->
      <g transform="translate(293.893096 270.918437) scale(0.1 -0.1)">
       <defs>
        <path id="DejaVuSans-34" d="M 2419 4116 
L 825 1625 
L 2419 1625 
L 2419 4116 
z
M 2253 4666 
L 3047 4666 
L 3047 1625 
L 3713 1625 
L 3713 1100 
L 3047 1100 
L 3047 0 
L 2419 0 
L 2419 1100 
L 313 1100 
L 313 1709 
L 2253 4666 
z
" transform="scale(0.015625)"/>
       </defs>
       <use xlink:href="#DejaVuSans-30"/>
       <use xlink:href="#DejaVuSans-3a" x="63.623047"/>
       <use xlink:href="#DejaVuSans-30" x="97.314453"/>
       <use xlink:href="#DejaVuSans-32" x="160.9375"/>
       <use xlink:href="#DejaVuSans-3a" x="224.560547"/>
       <use xlink:href="#DejaVuSans-30" x="258.251953"/>
       <use xlink:href="#DejaVuSans-34" x="321.875"/>
      </g>
     </g>
    </g>
    <g id="xtick_6">
     <g id="line2d_6">
      <g>
       <use xlink:href="#m662dee1b70" x="362.619211" y="256.32" style="stroke: #000000; stroke-width: 0.8"/>
      </g>
     </g>
     <g id="text_6">
      <!-- 0:02:35 -->
      <g transform="translate(343.344211 270.918437) scale(0.1 -0.1)">
       <defs>
        <path id="DejaVuSans-35" d="M 691 4666 
L 3169 4666 
L 3169 4134 
L 1269 4134 
L 1269 2991 
Q 1406 3038 1543 3061 
Q 1681 3084 1819 3084 
Q 2600 3084 3056 2656 
Q 3513 2228 3513 1497 
Q 3513 744 3044 326 
Q 2575 -91 1722 -91 
Q 1428 -91 1123 -41 
Q 819 9 494 109 
L 494 744 
Q 775 591 1075 516 
Q 1375 441 1709 441 
Q 2250 441 2565 725 
Q 2881 1009 2881 1497 
Q 2881 1984 2565 2268 
Q 2250 2553 1709 2553 
Q 1456 2553 1204 2497 
Q 953 2441 691 2322 
L 691 4666 
z
" transform="scale(0.015625)"/>
       </defs>
       <use xlink:href="#DejaVuSans-30"/>
       <use xlink:href="#DejaVuSans-3a" x="63.623047"/>
       <use xlink:href="#DejaVuSans-30" x="97.314453"/>
       <use xlink:href="#DejaVuSans-32" x="160.9375"/>
       <use xlink:href="#DejaVuSans-3a" x="224.560547"/>
       <use xlink:href="#DejaVuSans-33" x="258.251953"/>
       <use xlink:href="#DejaVuSans-35" x="321.875"/>
      </g>
     </g>
    </g>
    <g id="xtick_7">
     <g id="line2d_7">
      <g>
       <use xlink:href="#m662dee1b70" x="412.070326" y="256.32" style="stroke: #000000; stroke-width: 0.8"/>
      </g>
     </g>
     <g id="text_7">
      <!-- 0:03:06 -->
      <g transform="translate(392.795326 270.918437) scale(0.1 -0.1)">
       <defs>
        <path id="DejaVuSans-36" d="M 2113 2584 
Q 1688 2584 1439 2293 
Q 1191 2003 1191 1497 
Q 1191 994 1439 701 
Q 1688 409 2113 409 
Q 2538 409 2786 701 
Q 3034 994 3034 1497 
Q 3034 2003 2786 2293 
Q 2538 2584 2113 2584 
z
M 3366 4563 
L 3366 3988 
Q 3128 4100 2886 4159 
Q 2644 4219 2406 4219 
Q 1781 4219 1451 3797 
Q 1122 3375 1075 2522 
Q 1259 2794 1537 2939 
Q 1816 3084 2150 3084 
Q 2853 3084 3261 2657 
Q 3669 2231 3669 1497 
Q 3669 778 3244 343 
Q 2819 -91 2113 -91 
Q 1303 -91 875 529 
Q 447 1150 447 2328 
Q 447 3434 972 4092 
Q 1497 4750 2381 4750 
Q 2619 4750 2861 4703 
Q 3103 4656 3366 4563 
z
" transform="scale(0.015625)"/>
       </defs>
       <use xlink:href="#DejaVuSans-30"/>
       <use xlink:href="#DejaVuSans-3a" x="63.623047"/>
       <use xlink:href="#DejaVuSans-30" x="97.314453"/>
       <use xlink:href="#DejaVuSans-33" x="160.9375"/>
       <use xlink:href="#DejaVuSans-3a" x="224.560547"/>
       <use xlink:href="#DejaVuSans-30" x="258.251953"/>
       <use xlink:href="#DejaVuSans-36" x="321.875"/>
      </g>
     </g>
    </g>
    <g id="xtick_8">
     <g id="line2d_8">
      <g>
       <use xlink:href="#m662dee1b70" x="461.521441" y="256.32" style="stroke: #000000; stroke-width: 0.8"/>
      </g>
     </g>
     <g id="text_8">
      <!-- 0:03:37 -->
      <g transform="translate(442.246441 270.918437) scale(0.1 -0.1)">
       <defs>
        <path id="DejaVuSans-37" d="M 525 4666 
L 3525 4666 
L 3525 4397 
L 1831 0 
L 1172 0 
L 2766 4134 
L 525 4134 
L 525 4666 
z
" transform="scale(0.015625)"/>
       </defs>
       <use xlink:href="#DejaVuSans-30"/>
       <use xlink:href="#DejaVuSans-3a" x="63.623047"/>
       <use xlink:href="#DejaVuSans-30" x="97.314453"/>
       <use xlink:href="#DejaVuSans-33" x="160.9375"/>
       <use xlink:href="#DejaVuSans-3a" x="224.560547"/>
       <use xlink:href="#DejaVuSans-33" x="258.251953"/>
       <use xlink:href="#DejaVuSans-37" x="321.875"/>
      </g>
     </g>
    </g>
    <g id="xtick_9">
     <g id="line2d_9">
      <g>
       <use xlink:href="#m662dee1b70" x="510.972556" y="256.32" style="stroke: #000000; stroke-width: 0.8"/>
      </g>
     </g>
     <g id="text_9">
      <!-- 0:04:08 -->
      <g transform="translate(491.697556 270.918437) scale(0.1 -0.1)">
       <defs>
        <path id="DejaVuSans-38" d="M 2034 2216 
Q 1584 2216 1326 1975 
Q 1069 1734 1069 1313 
Q 1069 891 1326 650 
Q 1584 409 2034 409 
Q 2484 409 2743 651 
Q 3003 894 3003 1313 
Q 3003 1734 2745 1975 
Q 2488 2216 2034 2216 
z
M 1403 2484 
Q 997 2584 770 2862 
Q 544 3141 544 3541 
Q 544 4100 942 4425 
Q 1341 4750 2034 4750 
Q 2731 4750 3128 4425 
Q 3525 4100 3525 3541 
Q 3525 3141 3298 2862 
Q 3072 2584 2669 2484 
Q 3125 2378 3379 2068 
Q 3634 1759 3634 1313 
Q 3634 634 3220 271 
Q 2806 -91 2034 -91 
Q 1263 -91 848 271 
Q 434 634 434 1313 
Q 434 1759 690 2068 
Q 947 2378 1403 2484 
z
M 1172 3481 
Q 1172 3119 1398 2916 
Q 1625 2713 2034 2713 
Q 2441 2713 2670 2916 
Q 2900 3119 2900 3481 
Q 2900 3844 2670 4047 
Q 2441 4250 2034 4250 
Q 1625 4250 1398 4047 
Q 1172 3844 1172 3481 
z
" transform="scale(0.015625)"/>
       </defs>
       <use xlink:href="#DejaVuSans-30"/>
       <use xlink:href="#DejaVuSans-3a" x="63.623047"/>
       <use xlink:href="#DejaVuSans-30" x="97.314453"/>
       <use xlink:href="#DejaVuSans-34" x="160.9375"/>
       <use xlink:href="#DejaVuSans-3a" x="224.560547"/>
       <use xlink:href="#DejaVuSans-30" x="258.251953"/>
       <use xlink:href="#DejaVuSans-38" x="321.875"/>
      </g>
     </g>
    </g>
    <g id="xtick_10">
     <g id="line2d_10">
      <g>
       <use xlink:href="#m662dee1b70" x="560.423671" y="256.32" style="stroke: #000000; stroke-width: 0.8"/>
      </g>
     </g>
     <g id="text_10">
      <!-- 0:04:39 -->
      <g transform="translate(541.148671 270.918437) scale(0.1 -0.1)">
       <defs>
        <path id="DejaVuSans-39" d="M 703 97 
L 703 672 
Q 941 559 1184 500 
Q 1428 441 1663 441 
Q 2288 441 2617 861 
Q 2947 1281 2994 2138 
Q 2813 1869 2534 1725 
Q 2256 1581 1919 1581 
Q 1219 1581 811 2004 
Q 403 2428 403 3163 
Q 403 3881 828 4315 
Q 1253 4750 1959 4750 
Q 2769 4750 3195 4129 
Q 3622 3509 3622 2328 
Q 3622 1225 3098 567 
Q 2575 -91 1691 -91 
Q 1453 -91 1209 -44 
Q 966 3 703 97 
z
M 1959 2075 
Q 2384 2075 2632 2365 
Q 2881 2656 2881 3163 
Q 2881 3666 2632 3958 
Q 2384 4250 1959 4250 
Q 1534 4250 1286 3958 
Q 1038 3666 1038 3163 
Q 1038 2656 1286 2365 
Q 1534 2075 1959 2075 
z
" transform="scale(0.015625)"/>
       </defs>
       <use xlink:href="#DejaVuSans-30"/>
       <use xlink:href="#DejaVuSans-3a" x="63.623047"/>
       <use xlink:href="#DejaVuSans-30" x="97.314453"/>
       <use xlink:href="#DejaVuSans-34" x="160.9375"/>
       <use xlink:href="#DejaVuSans-3a" x="224.560547"/>
       <use xlink:href="#DejaVuSans-33" x="258.251953"/>
       <use xlink:href="#DejaVuSans-39" x="321.875"/>
      </g>
     </g>
    </g>
    <g id="xtick_11">
     <g id="line2d_11">
      <g>
       <use xlink:href="#m662dee1b70" x="609.874786" y="256.32" style="stroke: #000000; stroke-width: 0.8"/>
      </g>
     </g>
     <g id="text_11">
      <!-- 0:05:10 -->
      <g transform="translate(590.599786 270.918437) scale(0.1 -0.1)">
       <use xlink:href="#DejaVuSans-30"/>
       <use xlink:href="#DejaVuSans-3a" x="63.623047"/>
       <use xlink:href="#DejaVuSans-30" x="97.314453"/>
       <use xlink:href="#DejaVuSans-35" x="160.9375"/>
       <use xlink:href="#DejaVuSans-3a" x="224.560547"/>
       <use xlink:href="#DejaVuSans-31" x="258.251953"/>
       <use xlink:href="#DejaVuSans-30" x="321.875"/>
      </g>
     </g>
    </g>
    <g id="text_12">
     <!-- Time -->
     <g transform="translate(356.766406 284.596563) scale(0.1 -0.1)">
      <defs>
       <path id="DejaVuSans-54" d="M -19 4666 
L 3928 4666 
L 3928 4134 
L 2272 4134 
L 2272 0 
L 1638 0 
L 1638 4134 
L -19 4134 
L -19 4666 
z
" transform="scale(0.015625)"/>
       <path id="DejaVuSans-69" d="M 603 3500 
L 1178 3500 
L 1178 0 
L 603 0 
L 603 3500 
z
M 603 4863 
L 1178 4863 
L 1178 4134 
L 603 4134 
L 603 4863 
z
" transform="scale(0.015625)"/>
       <path id="DejaVuSans-6d" d="M 3328 2828 
Q 3544 3216 3844 3400 
Q 4144 3584 4550 3584 
Q 5097 3584 5394 3201 
Q 5691 2819 5691 2113 
L 5691 0 
L 5113 0 
L 5113 2094 
Q 5113 2597 4934 2840 
Q 4756 3084 4391 3084 
Q 3944 3084 3684 2787 
Q 3425 2491 3425 1978 
L 3425 0 
L 2847 0 
L 2847 2094 
Q 2847 2600 2669 2842 
Q 2491 3084 2119 3084 
Q 1678 3084 1418 2786 
Q 1159 2488 1159 1978 
L 1159 0 
L 581 0 
L 581 3500 
L 1159 3500 
L 1159 2956 
Q 1356 3278 1631 3431 
Q 1906 3584 2284 3584 
Q 2666 3584 2933 3390 
Q 3200 3197 3328 2828 
z
" transform="scale(0.015625)"/>
       <path id="DejaVuSans-65" d="M 3597 1894 
L 3597 1613 
L 953 1613 
Q 991 1019 1311 708 
Q 1631 397 2203 397 
Q 2534 397 2845 478 
Q 3156 559 3463 722 
L 3463 178 
Q 3153 47 2828 -22 
Q 2503 -91 2169 -91 
Q 1331 -91 842 396 
Q 353 884 353 1716 
Q 353 2575 817 3079 
Q 1281 3584 2069 3584 
Q 2775 3584 3186 3129 
Q 3597 2675 3597 1894 
z
M 3022 2063 
Q 3016 2534 2758 2815 
Q 2500 3097 2075 3097 
Q 1594 3097 1305 2825 
Q 1016 2553 972 2059 
L 3022 2063 
z
" transform="scale(0.015625)"/>
      </defs>
      <use xlink:href="#DejaVuSans-54"/>
      <use xlink:href="#DejaVuSans-69" x="57.958984"/>
      <use xlink:href="#DejaVuSans-6d" x="85.742188"/>
      <use xlink:href="#DejaVuSans-65" x="183.154297"/>
     </g>
    </g>
   </g>
   <g id="matplotlib.axis_2">
    <g id="ytick_1">
     <g id="line2d_12">
      <path d="M 90 246.24 
L 648 246.24 
" clip-path="url(#p95f5f3b84f)" style="fill: none; stroke: #b0b0b0; stroke-width: 0.8; stroke-linecap: square"/>
     </g>
     <g id="line2d_13">
      <defs>
       <path id="m76b7c8c42b" d="M 0 0 
L -3.5 0 
" style="stroke: #000000; stroke-width: 0.8"/>
      </defs>
      <g>
       <use xlink:href="#m76b7c8c42b" x="90" y="246.24" style="stroke: #000000; stroke-width: 0.8"/>
      </g>
     </g>
     <g id="text_13">
      <!-- 0 -->
      <g transform="translate(76.6375 250.039219) scale(0.1 -0.1)">
       <use xlink:href="#DejaVuSans-30"/>
      </g>
     </g>
    </g>
    <g id="ytick_2">
     <g id="line2d_14">
      <path d="M 90 214.3564 
L 648 214.3564 
" clip-path="url(#p95f5f3b84f)" style="fill: none; stroke: #b0b0b0; stroke-width: 0.8; stroke-linecap: square"/>
     </g>
     <g id="line2d_15">
      <g>
       <use xlink:href="#m76b7c8c42b" x="90" y="214.3564" style="stroke: #000000; stroke-width: 0.8"/>
      </g>
     </g>
     <g id="text_14">
      <!-- 2,000 -->
      <g transform="translate(54.371875 218.155619) scale(0.1 -0.1)">
       <defs>
        <path id="DejaVuSans-2c" d="M 750 794 
L 1409 794 
L 1409 256 
L 897 -744 
L 494 -744 
L 750 256 
L 750 794 
z
" transform="scale(0.015625)"/>
       </defs>
       <use xlink:href="#DejaVuSans-32"/>
       <use xlink:href="#DejaVuSans-2c" x="63.623047"/>
       <use xlink:href="#DejaVuSans-30" x="95.410156"/>
       <use xlink:href="#DejaVuSans-30" x="159.033203"/>
       <use xlink:href="#DejaVuSans-30" x="222.65625"/>
      </g>
     </g>
    </g>
    <g id="ytick_3">
     <g id="line2d_16">
      <path d="M 90 182.472801 
L 648 182.472801 
" clip-path="url(#p95f5f3b84f)" style="fill: none; stroke: #b0b0b0; stroke-width: 0.8; stroke-linecap: square"/>
     </g>
     <g id="line2d_17">
      <g>
       <use xlink:href="#m76b7c8c42b" x="90" y="182.472801" style="stroke: #000000; stroke-width: 0.8"/>
      </g>
     </g>
     <g id="text_15">
      <!-- 4,000 -->
      <g transform="translate(54.371875 186.27202) scale(0.1 -0.1)">
       <use xlink:href="#DejaVuSans-34"/>
       <use xlink:href="#DejaVuSans-2c" x="63.623047"/>
       <use xlink:href="#DejaVuSans-30" x="95.410156"/>
       <use xlink:href="#DejaVuSans-30" x="159.033203"/>
       <use xlink:href="#DejaVuSans-30" x="222.65625"/>
      </g>
     </g>
    </g>
    <g id="ytick_4">
     <g id="line2d_18">
      <path d="M 90 150.589201 
L 648 150.589201 
" clip-path="url(#p95f5f3b84f)" style="fill: none; stroke: #b0b0b0; stroke-width: 0.8; stroke-linecap: square"/>
     </g>
     <g id="line2d_19">
      <g>
       <use xlink:href="#m76b7c8c42b" x="90" y="150.589201" style="stroke: #000000; stroke-width: 0.8"/>
      </g>
     </g>
     <g id="text_16">
      <!-- 6,000 -->
      <g transform="translate(54.371875 154.38842) scale(0.1 -0.1)">
       <use xlink:href="#DejaVuSans-36"/>
       <use xlink:href="#DejaVuSans-2c" x="63.623047"/>
       <use xlink:href="#DejaVuSans-30" x="95.410156"/>
       <use xlink:href="#DejaVuSans-30" x="159.033203"/>
       <use xlink:href="#DejaVuSans-30" x="222.65625"/>
      </g>
     </g>
    </g>
    <g id="ytick_5">
     <g id="line2d_20">
      <path d="M 90 118.705602 
L 648 118.705602 
" clip-path="url(#p95f5f3b84f)" style="fill: none; stroke: #b0b0b0; stroke-width: 0.8; stroke-linecap: square"/>
     </g>
     <g id="line2d_21">
      <g>
       <use xlink:href="#m76b7c8c42b" x="90" y="118.705602" style="stroke: #000000; stroke-width: 0.8"/>
      </g>
     </g>
     <g id="text_17">
      <!-- 8,000 -->
      <g transform="translate(54.371875 122.504821) scale(0.1 -0.1)">
       <use xlink:href="#DejaVuSans-38"/>
       <use xlink:href="#DejaVuSans-2c" x="63.623047"/>
       <use xlink:href="#DejaVuSans-30" x="95.410156"/>
       <use xlink:href="#DejaVuSans-30" x="159.033203"/>
       <use xlink:href="#DejaVuSans-30" x="222.65625"/>
      </g>
     </g>
    </g>
    <g id="ytick_6">
     <g id="line2d_22">
      <path d="M 90 86.822002 
L 648 86.822002 
" clip-path="url(#p95f5f3b84f)" style="fill: none; stroke: #b0b0b0; stroke-width: 0.8; stroke-linecap: square"/>
     </g>
     <g id="line2d_23">
      <g>
       <use xlink:href="#m76b7c8c42b" x="90" y="86.822002" style="stroke: #000000; stroke-width: 0.8"/>
      </g>
     </g>
     <g id="text_18">
      <!-- 10,000 -->
      <g transform="translate(48.009375 90.621221) scale(0.1 -0.1)">
       <use xlink:href="#DejaVuSans-31"/>
       <use xlink:href="#DejaVuSans-30" x="63.623047"/>
       <use xlink:href="#DejaVuSans-2c" x="127.246094"/>
       <use xlink:href="#DejaVuSans-30" x="159.033203"/>
       <use xlink:href="#DejaVuSans-30" x="222.65625"/>
       <use xlink:href="#DejaVuSans-30" x="286.279297"/>
      </g>
     </g>
    </g>
    <g id="ytick_7">
     <g id="line2d_24">
      <path d="M 90 54.938403 
L 648 54.938403 
" clip-path="url(#p95f5f3b84f)" style="fill: none; stroke: #b0b0b0; stroke-width: 0.8; stroke-linecap: square"/>
     </g>
     <g id="line2d_25">
      <g>
       <use xlink:href="#m76b7c8c42b" x="90" y="54.938403" style="stroke: #000000; stroke-width: 0.8"/>
      </g>
     </g>
     <g id="text_19">
      <!-- 12,000 -->
      <g transform="translate(48.009375 58.737621) scale(0.1 -0.1)">
       <use xlink:href="#DejaVuSans-31"/>
       <use xlink:href="#DejaVuSans-32" x="63.623047"/>
       <use xlink:href="#DejaVuSans-2c" x="127.246094"/>
       <use xlink:href="#DejaVuSans-30" x="159.033203"/>
       <use xlink:href="#DejaVuSans-30" x="222.65625"/>
       <use xlink:href="#DejaVuSans-30" x="286.279297"/>
      </g>
     </g>
    </g>
    <g id="text_20">
     <!-- Bitrate (kbit/s) -->
     <g transform="translate(41.929688 181.574375) rotate(-90) scale(0.1 -0.1)">
      <defs>
       <path id="DejaVuSans-42" d="M 1259 2228 
L 1259 519 
L 2272 519 
Q 2781 519 3026 730 
Q 3272 941 3272 1375 
Q 3272 1813 3026 2020 
Q 2781 2228 2272 2228 
L 1259 2228 
z
M 1259 4147 
L 1259 2741 
L 2194 2741 
Q 2656 2741 2882 2914 
Q 3109 3088 3109 3444 
Q 3109 3797 2882 3972 
Q 2656 4147 2194 4147 
L 1259 4147 
z
M 628 4666 
L 2241 4666 
Q 2963 4666 3353 4366 
Q 3744 4066 3744 3513 
Q 3744 3084 3544 2831 
Q 3344 2578 2956 2516 
Q 3422 2416 3680 2098 
Q 3938 1781 3938 1306 
Q 3938 681 3513 340 
Q 3088 0 2303 0 
L 628 0 
L 628 4666 
z
" transform="scale(0.015625)"/>
       <path id="DejaVuSans-74" d="M 1172 4494 
L 1172 3500 
L 2356 3500 
L 2356 3053 
L 1172 3053 
L 1172 1153 
Q 1172 725 1289 603 
Q 1406 481 1766 481 
L 2356 481 
L 2356 0 
L 1766 0 
Q 1100 0 847 248 
Q 594 497 594 1153 
L 594 3053 
L 172 3053 
L 172 3500 
L 594 3500 
L 594 4494 
L 1172 4494 
z
" transform="scale(0.015625)"/>
       <path id="DejaVuSans-72" d="M 2631 2963 
Q 2534 3019 2420 3045 
Q 2306 3072 2169 3072 
Q 1681 3072 1420 2755 
Q 1159 2438 1159 1844 
L 1159 0 
L 581 0 
L 581 3500 
L 1159 3500 
L 1159 2956 
Q 1341 3275 1631 3429 
Q 1922 3584 2338 3584 
Q 2397 3584 2469 3576 
Q 2541 3569 2628 3553 
L 2631 2963 
z
" transform="scale(0.015625)"/>
       <path id="DejaVuSans-61" d="M 2194 1759 
Q 1497 1759 1228 1600 
Q 959 1441 959 1056 
Q 959 750 1161 570 
Q 1363 391 1709 391 
Q 2188 391 2477 730 
Q 2766 1069 2766 1631 
L 2766 1759 
L 2194 1759 
z
M 3341 1997 
L 3341 0 
L 2766 0 
L 2766 531 
Q 2569 213 2275 61 
Q 1981 -91 1556 -91 
Q 1019 -91 701 211 
Q 384 513 384 1019 
Q 384 1609 779 1909 
Q 1175 2209 1959 2209 
L 2766 2209 
L 2766 2266 
Q 2766 2663 2505 2880 
Q 2244 3097 1772 3097 
Q 1472 3097 1187 3025 
Q 903 2953 641 2809 
L 641 3341 
Q 956 3463 1253 3523 
Q 1550 3584 1831 3584 
Q 2591 3584 2966 3190 
Q 3341 2797 3341 1997 
z
" transform="scale(0.015625)"/>
       <path id="DejaVuSans-20" transform="scale(0.015625)"/>
       <path id="DejaVuSans-28" d="M 1984 4856 
Q 1566 4138 1362 3434 
Q 1159 2731 1159 2009 
Q 1159 1288 1364 580 
Q 1569 -128 1984 -844 
L 1484 -844 
Q 1016 -109 783 600 
Q 550 1309 550 2009 
Q 550 2706 781 3412 
Q 1013 4119 1484 4856 
L 1984 4856 
z
" transform="scale(0.015625)"/>
       <path id="DejaVuSans-6b" d="M 581 4863 
L 1159 4863 
L 1159 1991 
L 2875 3500 
L 3609 3500 
L 1753 1863 
L 3688 0 
L 2938 0 
L 1159 1709 
L 1159 0 
L 581 0 
L 581 4863 
z
" transform="scale(0.015625)"/>
       <path id="DejaVuSans-62" d="M 3116 1747 
Q 3116 2381 2855 2742 
Q 2594 3103 2138 3103 
Q 1681 3103 1420 2742 
Q 1159 2381 1159 1747 
Q 1159 1113 1420 752 
Q 1681 391 2138 391 
Q 2594 391 2855 752 
Q 3116 1113 3116 1747 
z
M 1159 2969 
Q 1341 3281 1617 3432 
Q 1894 3584 2278 3584 
Q 2916 3584 3314 3078 
Q 3713 2572 3713 1747 
Q 3713 922 3314 415 
Q 2916 -91 2278 -91 
Q 1894 -91 1617 61 
Q 1341 213 1159 525 
L 1159 0 
L 581 0 
L 581 4863 
L 1159 4863 
L 1159 2969 
z
" transform="scale(0.015625)"/>
       <path id="DejaVuSans-2f" d="M 1625 4666 
L 2156 4666 
L 531 -594 
L 0 -594 
L 1625 4666 
z
" transform="scale(0.015625)"/>
       <path id="DejaVuSans-73" d="M 2834 3397 
L 2834 2853 
Q 2591 2978 2328 3040 
Q 2066 3103 1784 3103 
Q 1356 3103 1142 2972 
Q 928 2841 928 2578 
Q 928 2378 1081 2264 
Q 1234 2150 1697 2047 
L 1894 2003 
Q 2506 1872 2764 1633 
Q 3022 1394 3022 966 
Q 3022 478 2636 193 
Q 2250 -91 1575 -91 
Q 1294 -91 989 -36 
Q 684 19 347 128 
L 347 722 
Q 666 556 975 473 
Q 1284 391 1588 391 
Q 1994 391 2212 530 
Q 2431 669 2431 922 
Q 2431 1156 2273 1281 
Q 2116 1406 1581 1522 
L 1381 1569 
Q 847 1681 609 1914 
Q 372 2147 372 2553 
Q 372 3047 722 3315 
Q 1072 3584 1716 3584 
Q 2034 3584 2315 3537 
Q 2597 3491 2834 3397 
z
" transform="scale(0.015625)"/>
       <path id="DejaVuSans-29" d="M 513 4856 
L 1013 4856 
Q 1481 4119 1714 3412 
Q 1947 2706 1947 2009 
Q 1947 1309 1714 600 
Q 1481 -109 1013 -844 
L 513 -844 
Q 928 -128 1133 580 
Q 1338 1288 1338 2009 
Q 1338 2731 1133 3434 
Q 928 4138 513 4856 
z
" transform="scale(0.015625)"/>
      </defs>
      <use xlink:href="#DejaVuSans-42"/>
      <use xlink:href="#DejaVuSans-69" x="68.603516"/>
      <use xlink:href="#DejaVuSans-74" x="96.386719"/>
      <use xlink:href="#DejaVuSans-72" x="135.595703"/>
      <use xlink:href="#DejaVuSans-61" x="176.708984"/>
      <use xlink:href="#DejaVuSans-74" x="237.988281"/>
      <use xlink:href="#DejaVuSans-65" x="277.197266"/>
      <use xlink:href="#DejaVuSans-20" x="338.720703"/>
      <use xlink:href="#DejaVuSans-28" x="370.507812"/>
      <use xlink:href="#DejaVuSans-6b" x="409.521484"/>
      <use xlink:href="#DejaVuSans-62" x="467.431641"/>
      <use xlink:href="#DejaVuSans-69" x="530.908203"/>
      <use xlink:href="#DejaVuSans-74" x="558.691406"/>
      <use xlink:href="#DejaVuSans-2f" x="597.900391"/>
      <use xlink:href="#DejaVuSans-73" x="631.591797"/>
      <use xlink:href="#DejaVuSans-29" x="683.691406"/>
     </g>
    </g>
   </g>
   <g id="PolyCollection_1">
    <defs>
     <path id="m954d576142" d="M 115.363636 -53.36563 
L 115.363636 -41.76 
L 116.958834 -41.76 
L 118.554031 -41.76 
L 120.149228 -41.76 
L 121.744425 -41.76 
L 123.339623 -41.76 
L 124.93482 -41.76 
L 126.530017 -41.76 
L 128.125214 -41.76 
L 129.720412 -41.76 
L 131.315609 -41.76 
L 132.910806 -41.76 
L 134.506003 -41.76 
L 136.101201 -41.76 
L 137.696398 -41.76 
L 139.291595 -41.76 
L 140.886792 -41.76 
L 142.48199 -41.76 
L 144.077187 -41.76 
L 145.672384 -41.76 
L 147.267581 -41.76 
L 148.862779 -41.76 
L 150.457976 -41.76 
L 152.053173 -41.76 
L 153.64837 -41.76 
L 155.243568 -41.76 
L 156.838765 -41.76 
L 158.433962 -41.76 
L 160.02916 -41.76 
L 161.624357 -41.76 
L 163.219554 -41.76 
L 164.814751 -41.76 
L 166.409949 -41.76 
L 168.005146 -41.76 
L 169.600343 -41.76 
L 171.19554 -41.76 
L 172.790738 -41.76 
L 174.385935 -41.76 
L 175.981132 -41.76 
L 177.576329 -41.76 
L 179.171527 -41.76 
L 180.766724 -41.76 
L 182.361921 -41.76 
L 183.957118 -41.76 
L 185.552316 -41.76 
L 187.147513 -41.76 
L 188.74271 -41.76 
L 190.337907 -41.76 
L 191.933105 -41.76 
L 193.528302 -41.76 
L 195.123499 -41.76 
L 196.718696 -41.76 
L 198.313894 -41.76 
L 199.909091 -41.76 
L 201.504288 -41.76 
L 203.099485 -41.76 
L 204.694683 -41.76 
L 206.28988 -41.76 
L 207.885077 -41.76 
L 209.480274 -41.76 
L 211.075472 -41.76 
L 212.670669 -41.76 
L 214.265866 -41.76 
L 215.861063 -41.76 
L 217.456261 -41.76 
L 219.051458 -41.76 
L 220.646655 -41.76 
L 222.241852 -41.76 
L 223.83705 -41.76 
L 225.432247 -41.76 
L 227.027444 -41.76 
L 228.622642 -41.76 
L 230.217839 -41.76 
L 231.813036 -41.76 
L 233.408233 -41.76 
L 235.003431 -41.76 
L 236.598628 -41.76 
L 238.193825 -41.76 
L 239.789022 -41.76 
L 241.38422 -41.76 
L 242.979417 -41.76 
L 244.574614 -41.76 
L 246.169811 -41.76 
L 247.765009 -41.76 
L 249.360206 -41.76 
L 250.955403 -41.76 
L 252.5506 -41.76 
L 254.145798 -41.76 
L 255.740995 -41.76 
L 257.336192 -41.76 
L 258.931389 -41.76 
L 260.526587 -41.76 
L 262.121784 -41.76 
L 263.716981 -41.76 
L 265.312178 -41.76 
L 266.907376 -41.76 
L 268.502573 -41.76 
L 270.09777 -41.76 
L 271.692967 -41.76 
L 273.288165 -41.76 
L 274.883362 -41.76 
L 276.478559 -41.76 
L 278.073756 -41.76 
L 279.668954 -41.76 
L 281.264151 -41.76 
L 282.859348 -41.76 
L 284.454545 -41.76 
L 286.049743 -41.76 
L 287.64494 -41.76 
L 289.240137 -41.76 
L 290.835334 -41.76 
L 292.430532 -41.76 
L 294.025729 -41.76 
L 295.620926 -41.76 
L 297.216123 -41.76 
L 298.811321 -41.76 
L 300.406518 -41.76 
L 302.001715 -41.76 
L 303.596913 -41.76 
L 305.19211 -41.76 
L 306.787307 -41.76 
L 308.382504 -41.76 
L 309.977702 -41.76 
L 311.572899 -41.76 
L 313.168096 -41.76 
L 314.763293 -41.76 
L 316.358491 -41.76 
L 317.953688 -41.76 
L 319.548885 -41.76 
L 321.144082 -41.76 
L 322.73928 -41.76 
L 324.334477 -41.76 
L 325.929674 -41.76 
L 327.524871 -41.76 
L 329.120069 -41.76 
L 330.715266 -41.76 
L 332.310463 -41.76 
L 333.90566 -41.76 
L 335.500858 -41.76 
L 337.096055 -41.76 
L 338.691252 -41.76 
L 340.286449 -41.76 
L 341.881647 -41.76 
L 343.476844 -41.76 
L 345.072041 -41.76 
L 346.667238 -41.76 
L 348.262436 -41.76 
L 349.857633 -41.76 
L 351.45283 -41.76 
L 353.048027 -41.76 
L 354.643225 -41.76 
L 356.238422 -41.76 
L 357.833619 -41.76 
L 359.428816 -41.76 
L 361.024014 -41.76 
L 362.619211 -41.76 
L 364.214408 -41.76 
L 365.809605 -41.76 
L 367.404803 -41.76 
L 369 -41.76 
L 370.595197 -41.76 
L 372.190395 -41.76 
L 373.785592 -41.76 
L 375.380789 -41.76 
L 376.975986 -41.76 
L 378.571184 -41.76 
L 380.166381 -41.76 
L 381.761578 -41.76 
L 383.356775 -41.76 
L 384.951973 -41.76 
L 386.54717 -41.76 
L 388.142367 -41.76 
L 389.737564 -41.76 
L 391.332762 -41.76 
L 392.927959 -41.76 
L 394.523156 -41.76 
L 396.118353 -41.76 
L 397.713551 -41.76 
L 399.308748 -41.76 
L 400.903945 -41.76 
L 402.499142 -41.76 
L 404.09434 -41.76 
L 405.689537 -41.76 
L 407.284734 -41.76 
L 408.879931 -41.76 
L 410.475129 -41.76 
L 412.070326 -41.76 
L 413.665523 -41.76 
L 415.26072 -41.76 
L 416.855918 -41.76 
L 418.451115 -41.76 
L 420.046312 -41.76 
L 421.641509 -41.76 
L 423.236707 -41.76 
L 424.831904 -41.76 
L 426.427101 -41.76 
L 428.022298 -41.76 
L 429.617496 -41.76 
L 431.212693 -41.76 
L 432.80789 -41.76 
L 434.403087 -41.76 
L 435.998285 -41.76 
L 437.593482 -41.76 
L 439.188679 -41.76 
L 440.783877 -41.76 
L 442.379074 -41.76 
L 443.974271 -41.76 
L 445.569468 -41.76 
L 447.164666 -41.76 
L 448.759863 -41.76 
L 450.35506 -41.76 
L 451.950257 -41.76 
L 453.545455 -41.76 
L 455.140652 -41.76 
L 456.735849 -41.76 
L 458.331046 -41.76 
L 459.926244 -41.76 
L 461.521441 -41.76 
L 463.116638 -41.76 
L 464.711835 -41.76 
L 466.307033 -41.76 
L 467.90223 -41.76 
L 469.497427 -41.76 
L 471.092624 -41.76 
L 472.687822 -41.76 
L 474.283019 -41.76 
L 475.878216 -41.76 
L 477.473413 -41.76 
L 479.068611 -41.76 
L 480.663808 -41.76 
L 482.259005 -41.76 
L 483.854202 -41.76 
L 485.4494 -41.76 
L 487.044597 -41.76 
L 488.639794 -41.76 
L 490.234991 -41.76 
L 491.830189 -41.76 
L 493.425386 -41.76 
L 495.020583 -41.76 
L 496.61578 -41.76 
L 498.210978 -41.76 
L 499.806175 -41.76 
L 501.401372 -41.76 
L 502.996569 -41.76 
L 504.591767 -41.76 
L 506.186964 -41.76 
L 507.782161 -41.76 
L 509.377358 -41.76 
L 510.972556 -41.76 
L 512.567753 -41.76 
L 514.16295 -41.76 
L 515.758148 -41.76 
L 517.353345 -41.76 
L 518.948542 -41.76 
L 520.543739 -41.76 
L 522.138937 -41.76 
L 523.734134 -41.76 
L 525.329331 -41.76 
L 526.924528 -41.76 
L 528.519726 -41.76 
L 530.114923 -41.76 
L 531.71012 -41.76 
L 533.305317 -41.76 
L 534.900515 -41.76 
L 536.495712 -41.76 
L 538.090909 -41.76 
L 539.686106 -41.76 
L 541.281304 -41.76 
L 542.876501 -41.76 
L 544.471698 -41.76 
L 546.066895 -41.76 
L 547.662093 -41.76 
L 549.25729 -41.76 
L 550.852487 -41.76 
L 552.447684 -41.76 
L 554.042882 -41.76 
L 555.638079 -41.76 
L 557.233276 -41.76 
L 558.828473 -41.76 
L 560.423671 -41.76 
L 562.018868 -41.76 
L 563.614065 -41.76 
L 565.209262 -41.76 
L 566.80446 -41.76 
L 568.399657 -41.76 
L 569.994854 -41.76 
L 571.590051 -41.76 
L 573.185249 -41.76 
L 574.780446 -41.76 
L 576.375643 -41.76 
L 577.97084 -41.76 
L 579.566038 -41.76 
L 581.161235 -41.76 
L 582.756432 -41.76 
L 584.35163 -41.76 
L 585.946827 -41.76 
L 587.542024 -41.76 
L 589.137221 -41.76 
L 590.732419 -41.76 
L 592.327616 -41.76 
L 593.922813 -41.76 
L 595.51801 -41.76 
L 597.113208 -41.76 
L 598.708405 -41.76 
L 600.303602 -41.76 
L 601.898799 -41.76 
L 603.493997 -41.76 
L 605.089194 -41.76 
L 606.684391 -41.76 
L 608.279588 -41.76 
L 609.874786 -41.76 
L 611.469983 -41.76 
L 613.06518 -41.76 
L 614.660377 -41.76 
L 616.255575 -41.76 
L 617.850772 -41.76 
L 619.445969 -41.76 
L 621.041166 -41.76 
L 622.636364 -41.76 
L 622.636364 -41.76 
L 622.636364 -41.76 
L 621.041166 -41.76 
L 619.445969 -41.76 
L 617.850772 -41.76 
L 616.255575 -41.76 
L 614.660377 -41.76 
L 613.06518 -74.647933 
L 611.469983 -41.76 
L 609.874786 -48.31208 
L 608.279588 -41.76 
L 606.684391 -41.76 
L 605.089194 -43.673016 
L 603.493997 -41.76 
L 601.898799 -41.76 
L 600.303602 -41.76 
L 598.708405 -41.76 
L 597.113208 -51.659858 
L 595.51801 -41.76 
L 593.922813 -41.76 
L 592.327616 -58.275705 
L 590.732419 -41.76 
L 589.137221 -41.76 
L 587.542024 -41.76 
L 585.946827 -41.76 
L 584.35163 -55.48589 
L 582.756432 -71.395806 
L 581.161235 -41.76 
L 579.566038 -41.76 
L 577.97084 -41.76 
L 576.375643 -41.76 
L 574.780446 -73.021869 
L 573.185249 -41.76 
L 571.590051 -41.76 
L 569.994854 -41.76 
L 568.399657 -41.76 
L 566.80446 -56.027911 
L 565.209262 -41.76 
L 563.614065 -41.76 
L 562.018868 -41.76 
L 560.423671 -41.76 
L 558.828473 -54.114895 
L 557.233276 -41.76 
L 555.638079 -41.76 
L 554.042882 -41.76 
L 552.447684 -41.76 
L 550.852487 -63.584324 
L 549.25729 -41.76 
L 547.662093 -41.76 
L 546.066895 -55.804726 
L 544.471698 -41.76 
L 542.876501 -41.76 
L 541.281304 -89.952061 
L 539.686106 -41.76 
L 538.090909 -41.76 
L 536.495712 -41.76 
L 534.900515 -41.76 
L 533.305317 -59.088736 
L 531.71012 -41.76 
L 530.114923 -55.7569 
L 528.519726 -41.76 
L 526.924528 -41.76 
L 525.329331 -62.532165 
L 523.734134 -41.76 
L 522.138937 -41.76 
L 520.543739 -72.639266 
L 518.948542 -41.76 
L 517.353345 -101.733051 
L 515.758148 -41.76 
L 514.16295 -41.76 
L 512.567753 -41.76 
L 510.972556 -41.76 
L 509.377358 -105.782268 
L 507.782161 -41.76 
L 506.186964 -41.76 
L 504.591767 -41.76 
L 502.996569 -41.76 
L 501.401372 -41.76 
L 499.806175 -72.416081 
L 498.210978 -41.76 
L 496.61578 -41.76 
L 495.020583 -52.106228 
L 493.425386 -41.76 
L 491.830189 -41.76 
L 490.234991 -41.76 
L 488.639794 -41.76 
L 487.044597 -49.268588 
L 485.4494 -41.76 
L 483.854202 -41.76 
L 482.259005 -41.76 
L 480.663808 -41.76 
L 479.068611 -43.959968 
L 477.473413 -41.76 
L 475.878216 -41.76 
L 474.283019 -41.76 
L 472.687822 -41.76 
L 471.092624 -41.76 
L 469.497427 -60.029303 
L 467.90223 -53.222154 
L 466.307033 -41.76 
L 464.711835 -41.76 
L 463.116638 -41.76 
L 461.521441 -41.76 
L 459.926244 -41.76 
L 458.331046 -56.490223 
L 456.735849 -41.76 
L 455.140652 -41.76 
L 453.545455 -41.76 
L 451.950257 -64.572715 
L 450.35506 -41.76 
L 448.759863 -41.76 
L 447.164666 -41.76 
L 445.569468 -41.76 
L 443.974271 -64.094461 
L 442.379074 -41.76 
L 440.783877 -41.76 
L 439.188679 -46.303413 
L 437.593482 -41.76 
L 435.998285 -41.76 
L 434.403087 -69.817568 
L 432.80789 -41.76 
L 431.212693 -41.76 
L 429.617496 -56.267038 
L 428.022298 -41.76 
L 426.427101 -52.441006 
L 424.831904 -41.76 
L 423.236707 -51.085953 
L 421.641509 -64.461123 
L 420.046312 -41.76 
L 418.451115 -41.76 
L 416.855918 -41.76 
L 415.26072 -41.76 
L 413.665523 -55.151112 
L 412.070326 -41.76 
L 410.475129 -55.374297 
L 408.879931 -41.76 
L 407.284734 -41.76 
L 405.689537 -41.76 
L 404.09434 -41.76 
L 402.499142 -51.962752 
L 400.903945 -41.76 
L 399.308748 -41.76 
L 397.713551 -59.29598 
L 396.118353 -77.310214 
L 394.523156 -41.76 
L 392.927959 -41.76 
L 391.332762 -41.76 
L 389.737564 -41.76 
L 388.142367 -41.76 
L 386.54717 -73.930552 
L 384.951973 -58.594541 
L 383.356775 -41.76 
L 381.761578 -41.76 
L 380.166381 -57.733683 
L 378.571184 -49.571482 
L 376.975986 -41.76 
L 375.380789 -50.639582 
L 373.785592 -51.468556 
L 372.190395 -41.76 
L 370.595197 -41.76 
L 369 -41.76 
L 367.404803 -41.76 
L 365.809605 -41.76 
L 364.214408 -52.616366 
L 362.619211 -59.375689 
L 361.024014 -41.76 
L 359.428816 -41.76 
L 357.833619 -41.76 
L 356.238422 -41.76 
L 354.643225 -52.967085 
L 353.048027 -41.76 
L 351.45283 -41.76 
L 349.857633 -79.478298 
L 348.262436 -41.76 
L 346.667238 -53.71635 
L 345.072041 -41.76 
L 343.476844 -41.76 
L 341.881647 -41.76 
L 340.286449 -41.76 
L 338.691252 -53.301863 
L 337.096055 -41.76 
L 335.500858 -41.76 
L 333.90566 -51.372905 
L 332.310463 -41.76 
L 330.715266 -41.76 
L 329.120069 -41.76 
L 327.524871 -41.76 
L 325.929674 -66.437906 
L 324.334477 -41.76 
L 322.73928 -41.76 
L 321.144082 -41.76 
L 319.548885 -41.76 
L 317.953688 -41.76 
L 316.358491 -51.612032 
L 314.763293 -41.76 
L 313.168096 -57.143837 
L 311.572899 -41.76 
L 309.977702 -41.76 
L 308.382504 -54.943868 
L 306.787307 -41.76 
L 305.19211 -63.998811 
L 303.596913 -41.76 
L 302.001715 -41.76 
L 300.406518 -41.76 
L 298.811321 -41.76 
L 297.216123 -66.836451 
L 295.620926 -41.76 
L 294.025729 -41.76 
L 292.430532 -41.76 
L 290.835334 -41.76 
L 289.240137 -82.778251 
L 287.64494 -41.76 
L 286.049743 -41.76 
L 284.454545 -41.76 
L 282.859348 -41.76 
L 281.264151 -56.55399 
L 279.668954 -41.76 
L 278.073756 -41.76 
L 276.478559 -41.76 
L 274.883362 -86.572399 
L 273.288165 -41.76 
L 271.692967 -41.76 
L 270.09777 -59.949594 
L 268.502573 -41.76 
L 266.907376 -41.76 
L 265.312178 -41.76 
L 263.716981 -73.532007 
L 262.121784 -41.76 
L 260.526587 -41.76 
L 258.931389 -54.433731 
L 257.336192 -41.76 
L 255.740995 -41.76 
L 254.145798 -41.76 
L 252.5506 -69.674091 
L 250.955403 -56.267038 
L 249.360206 -41.76 
L 247.765009 -41.76 
L 246.169811 -41.76 
L 244.574614 -41.76 
L 242.979417 -41.76 
L 241.38422 -56.059794 
L 239.789022 -41.76 
L 238.193825 -41.76 
L 236.598628 -41.76 
L 235.003431 -55.788784 
L 233.408233 -41.76 
L 231.813036 -41.76 
L 230.217839 -41.76 
L 228.622642 -41.76 
L 227.027444 -52.329413 
L 225.432247 -41.76 
L 223.83705 -41.76 
L 222.241852 -41.76 
L 220.646655 -41.76 
L 219.051458 -60.523498 
L 217.456261 -41.76 
L 215.861063 -41.76 
L 214.265866 -41.76 
L 212.670669 -56.585874 
L 211.075472 -41.76 
L 209.480274 -41.76 
L 207.885077 -41.76 
L 206.28988 -49.077286 
L 204.694683 -41.76 
L 203.099485 -41.76 
L 201.504288 -41.76 
L 199.909091 -41.76 
L 198.313894 -66.278488 
L 196.718696 -41.76 
L 195.123499 -41.76 
L 193.528302 -41.76 
L 191.933105 -41.76 
L 190.337907 -69.48279 
L 188.74271 -41.76 
L 187.147513 -41.76 
L 185.552316 -69.913218 
L 183.957118 -41.76 
L 182.361921 -41.76 
L 180.766724 -51.277254 
L 179.171527 -41.76 
L 177.576329 -41.76 
L 175.981132 -68.590049 
L 174.385935 -58.626424 
L 172.790738 -41.76 
L 171.19554 -41.76 
L 169.600343 -41.76 
L 168.005146 -41.76 
L 166.409949 -62.149562 
L 164.814751 -41.76 
L 163.219554 -41.76 
L 161.624357 -41.76 
L 160.02916 -41.76 
L 158.433962 -45.219371 
L 156.838765 -41.76 
L 155.243568 -41.76 
L 153.64837 -41.76 
L 152.053173 -41.76 
L 150.457976 -58.690191 
L 148.862779 -41.76 
L 147.267581 -41.76 
L 145.672384 -41.76 
L 144.077187 -41.76 
L 142.48199 -47.259921 
L 140.886792 -41.76 
L 139.291595 -41.76 
L 137.696398 -41.76 
L 136.101201 -41.76 
L 134.506003 -41.76 
L 132.910806 -48.152662 
L 131.315609 -50.241037 
L 129.720412 -41.76 
L 128.125214 -41.76 
L 126.530017 -41.76 
L 124.93482 -41.76 
L 123.339623 -47.291805 
L 121.744425 -41.76 
L 120.149228 -41.76 
L 118.554031 -41.76 
L 116.958834 -41.76 
L 115.363636 -53.36563 
z
" style="stroke: #ff0000; stroke-width: 0.5"/>
    </defs>
    <g clip-path="url(#p95f5f3b84f)">
     <use xlink:href="#m954d576142" x="0" y="288" style="fill: #ff0000; stroke: #ff0000; stroke-width: 0.5"/>
    </g>
   </g>
   <g id="PolyCollection_2">
    <defs>
     <path id="m38ff518527" d="M 115.363636 -57.558324 
L 115.363636 -53.36563 
L 116.958834 -41.76 
L 118.554031 -41.76 
L 120.149228 -41.76 
L 121.744425 -41.76 
L 123.339623 -47.291805 
L 124.93482 -41.76 
L 126.530017 -41.76 
L 128.125214 -41.76 
L 129.720412 -41.76 
L 131.315609 -50.241037 
L 132.910806 -48.152662 
L 134.506003 -41.76 
L 136.101201 -41.76 
L 137.696398 -41.76 
L 139.291595 -41.76 
L 140.886792 -41.76 
L 142.48199 -47.259921 
L 144.077187 -41.76 
L 145.672384 -41.76 
L 147.267581 -41.76 
L 148.862779 -41.76 
L 150.457976 -58.690191 
L 152.053173 -41.76 
L 153.64837 -41.76 
L 155.243568 -41.76 
L 156.838765 -41.76 
L 158.433962 -45.219371 
L 160.02916 -41.76 
L 161.624357 -41.76 
L 163.219554 -41.76 
L 164.814751 -41.76 
L 166.409949 -62.149562 
L 168.005146 -41.76 
L 169.600343 -41.76 
L 171.19554 -41.76 
L 172.790738 -41.76 
L 174.385935 -58.626424 
L 175.981132 -68.590049 
L 177.576329 -41.76 
L 179.171527 -41.76 
L 180.766724 -51.277254 
L 182.361921 -41.76 
L 183.957118 -41.76 
L 185.552316 -69.913218 
L 187.147513 -41.76 
L 188.74271 -41.76 
L 190.337907 -69.48279 
L 191.933105 -41.76 
L 193.528302 -41.76 
L 195.123499 -41.76 
L 196.718696 -41.76 
L 198.313894 -66.278488 
L 199.909091 -41.76 
L 201.504288 -41.76 
L 203.099485 -41.76 
L 204.694683 -41.76 
L 206.28988 -49.077286 
L 207.885077 -41.76 
L 209.480274 -41.76 
L 211.075472 -41.76 
L 212.670669 -56.585874 
L 214.265866 -41.76 
L 215.861063 -41.76 
L 217.456261 -41.76 
L 219.051458 -60.523498 
L 220.646655 -41.76 
L 222.241852 -41.76 
L 223.83705 -41.76 
L 225.432247 -41.76 
L 227.027444 -52.329413 
L 228.622642 -41.76 
L 230.217839 -41.76 
L 231.813036 -41.76 
L 233.408233 -41.76 
L 235.003431 -55.788784 
L 236.598628 -41.76 
L 238.193825 -41.76 
L 239.789022 -41.76 
L 241.38422 -56.059794 
L 242.979417 -41.76 
L 244.574614 -41.76 
L 246.169811 -41.76 
L 247.765009 -41.76 
L 249.360206 -41.76 
L 250.955403 -56.267038 
L 252.5506 -69.674091 
L 254.145798 -41.76 
L 255.740995 -41.76 
L 257.336192 -41.76 
L 258.931389 -54.433731 
L 260.526587 -41.76 
L 262.121784 -41.76 
L 263.716981 -73.532007 
L 265.312178 -41.76 
L 266.907376 -41.76 
L 268.502573 -41.76 
L 270.09777 -59.949594 
L 271.692967 -41.76 
L 273.288165 -41.76 
L 274.883362 -86.572399 
L 276.478559 -41.76 
L 278.073756 -41.76 
L 279.668954 -41.76 
L 281.264151 -56.55399 
L 282.859348 -41.76 
L 284.454545 -41.76 
L 286.049743 -41.76 
L 287.64494 -41.76 
L 289.240137 -82.778251 
L 290.835334 -41.76 
L 292.430532 -41.76 
L 294.025729 -41.76 
L 295.620926 -41.76 
L 297.216123 -66.836451 
L 298.811321 -41.76 
L 300.406518 -41.76 
L 302.001715 -41.76 
L 303.596913 -41.76 
L 305.19211 -63.998811 
L 306.787307 -41.76 
L 308.382504 -54.943868 
L 309.977702 -41.76 
L 311.572899 -41.76 
L 313.168096 -57.143837 
L 314.763293 -41.76 
L 316.358491 -51.612032 
L 317.953688 -41.76 
L 319.548885 -41.76 
L 321.144082 -41.76 
L 322.73928 -41.76 
L 324.334477 -41.76 
L 325.929674 -66.437906 
L 327.524871 -41.76 
L 329.120069 -41.76 
L 330.715266 -41.76 
L 332.310463 -41.76 
L 333.90566 -51.372905 
L 335.500858 -41.76 
L 337.096055 -41.76 
L 338.691252 -53.301863 
L 340.286449 -41.76 
L 341.881647 -41.76 
L 343.476844 -41.76 
L 345.072041 -41.76 
L 346.667238 -53.71635 
L 348.262436 -41.76 
L 349.857633 -79.478298 
L 351.45283 -41.76 
L 353.048027 -41.76 
L 354.643225 -52.967085 
L 356.238422 -41.76 
L 357.833619 -41.76 
L 359.428816 -41.76 
L 361.024014 -41.76 
L 362.619211 -59.375689 
L 364.214408 -52.616366 
L 365.809605 -41.76 
L 367.404803 -41.76 
L 369 -41.76 
L 370.595197 -41.76 
L 372.190395 -41.76 
L 373.785592 -51.468556 
L 375.380789 -50.639582 
L 376.975986 -41.76 
L 378.571184 -49.571482 
L 380.166381 -57.733683 
L 381.761578 -41.76 
L 383.356775 -41.76 
L 384.951973 -58.594541 
L 386.54717 -73.930552 
L 388.142367 -41.76 
L 389.737564 -41.76 
L 391.332762 -41.76 
L 392.927959 -41.76 
L 394.523156 -41.76 
L 396.118353 -77.310214 
L 397.713551 -59.29598 
L 399.308748 -41.76 
L 400.903945 -41.76 
L 402.499142 -51.962752 
L 404.09434 -41.76 
L 405.689537 -41.76 
L 407.284734 -41.76 
L 408.879931 -41.76 
L 410.475129 -55.374297 
L 412.070326 -41.76 
L 413.665523 -55.151112 
L 415.26072 -41.76 
L 416.855918 -41.76 
L 418.451115 -41.76 
L 420.046312 -41.76 
L 421.641509 -64.461123 
L 423.236707 -51.085953 
L 424.831904 -41.76 
L 426.427101 -52.441006 
L 428.022298 -41.76 
L 429.617496 -56.267038 
L 431.212693 -41.76 
L 432.80789 -41.76 
L 434.403087 -69.817568 
L 435.998285 -41.76 
L 437.593482 -41.76 
L 439.188679 -46.303413 
L 440.783877 -41.76 
L 442.379074 -41.76 
L 443.974271 -64.094461 
L 445.569468 -41.76 
L 447.164666 -41.76 
L 448.759863 -41.76 
L 450.35506 -41.76 
L 451.950257 -64.572715 
L 453.545455 -41.76 
L 455.140652 -41.76 
L 456.735849 -41.76 
L 458.331046 -56.490223 
L 459.926244 -41.76 
L 461.521441 -41.76 
L 463.116638 -41.76 
L 464.711835 -41.76 
L 466.307033 -41.76 
L 467.90223 -53.222154 
L 469.497427 -60.029303 
L 471.092624 -41.76 
L 472.687822 -41.76 
L 474.283019 -41.76 
L 475.878216 -41.76 
L 477.473413 -41.76 
L 479.068611 -43.959968 
L 480.663808 -41.76 
L 482.259005 -41.76 
L 483.854202 -41.76 
L 485.4494 -41.76 
L 487.044597 -49.268588 
L 488.639794 -41.76 
L 490.234991 -41.76 
L 491.830189 -41.76 
L 493.425386 -41.76 
L 495.020583 -52.106228 
L 496.61578 -41.76 
L 498.210978 -41.76 
L 499.806175 -72.416081 
L 501.401372 -41.76 
L 502.996569 -41.76 
L 504.591767 -41.76 
L 506.186964 -41.76 
L 507.782161 -41.76 
L 509.377358 -105.782268 
L 510.972556 -41.76 
L 512.567753 -41.76 
L 514.16295 -41.76 
L 515.758148 -41.76 
L 517.353345 -101.733051 
L 518.948542 -41.76 
L 520.543739 -72.639266 
L 522.138937 -41.76 
L 523.734134 -41.76 
L 525.329331 -62.532165 
L 526.924528 -41.76 
L 528.519726 -41.76 
L 530.114923 -55.7569 
L 531.71012 -41.76 
L 533.305317 -59.088736 
L 534.900515 -41.76 
L 536.495712 -41.76 
L 538.090909 -41.76 
L 539.686106 -41.76 
L 541.281304 -89.952061 
L 542.876501 -41.76 
L 544.471698 -41.76 
L 546.066895 -55.804726 
L 547.662093 -41.76 
L 549.25729 -41.76 
L 550.852487 -63.584324 
L 552.447684 -41.76 
L 554.042882 -41.76 
L 555.638079 -41.76 
L 557.233276 -41.76 
L 558.828473 -54.114895 
L 560.423671 -41.76 
L 562.018868 -41.76 
L 563.614065 -41.76 
L 565.209262 -41.76 
L 566.80446 -56.027911 
L 568.399657 -41.76 
L 569.994854 -41.76 
L 571.590051 -41.76 
L 573.185249 -41.76 
L 574.780446 -73.021869 
L 576.375643 -41.76 
L 577.97084 -41.76 
L 579.566038 -41.76 
L 581.161235 -41.76 
L 582.756432 -71.395806 
L 584.35163 -55.48589 
L 585.946827 -41.76 
L 587.542024 -41.76 
L 589.137221 -41.76 
L 590.732419 -41.76 
L 592.327616 -58.275705 
L 593.922813 -41.76 
L 595.51801 -41.76 
L 597.113208 -51.659858 
L 598.708405 -41.76 
L 600.303602 -41.76 
L 601.898799 -41.76 
L 603.493997 -41.76 
L 605.089194 -43.673016 
L 606.684391 -41.76 
L 608.279588 -41.76 
L 609.874786 -48.31208 
L 611.469983 -41.76 
L 613.06518 -74.647933 
L 614.660377 -41.76 
L 616.255575 -41.76 
L 617.850772 -41.76 
L 619.445969 -41.76 
L 621.041166 -41.76 
L 622.636364 -41.76 
L 622.636364 -41.775942 
L 622.636364 -41.775942 
L 621.041166 -42.222312 
L 619.445969 -42.20637 
L 617.850772 -42.20637 
L 616.255575 -42.222312 
L 614.660377 -42.238254 
L 613.06518 -81.486965 
L 611.469983 -53.445339 
L 609.874786 -62.882885 
L 608.279588 -51.627974 
L 606.684391 -51.914926 
L 605.089194 -50.480164 
L 603.493997 -49.507715 
L 601.898799 -56.10762 
L 600.303602 -51.14972 
L 598.708405 -48.31208 
L 597.113208 -55.820667 
L 595.51801 -50.687408 
L 593.922813 -51.978694 
L 592.327616 -66.91616 
L 590.732419 -53.222154 
L 589.137221 -53.827942 
L 587.542024 -53.317805 
L 585.946827 -52.249704 
L 584.35163 -69.594382 
L 582.756432 -93.698384 
L 581.161235 -65.242271 
L 579.566038 -63.616207 
L 577.97084 -64.795901 
L 576.375643 -62.627816 
L 574.780446 -104.124321 
L 573.185249 -73.563891 
L 571.590051 -71.363922 
L 569.994854 -76.672542 
L 568.399657 -81.550732 
L 566.80446 -96.312839 
L 565.209262 -81.391314 
L 563.614065 -63.919102 
L 562.018868 -66.948044 
L 560.423671 -63.998811 
L 558.828473 -65.577049 
L 557.233276 -49.714958 
L 555.638079 -50.161328 
L 554.042882 -51.755508 
L 552.447684 -50.432339 
L 550.852487 -70.471181 
L 549.25729 -63.010419 
L 547.662093 -63.217663 
L 546.066895 -77.007319 
L 544.471698 -57.08007 
L 542.876501 -62.819118 
L 541.281304 -109.321347 
L 539.686106 -63.456789 
L 538.090909 -63.010419 
L 536.495712 -67.155287 
L 534.900515 -64.732133 
L 533.305317 -77.230505 
L 531.71012 -46.19182 
L 530.114923 -58.7699 
L 528.519726 -56.506165 
L 526.924528 -57.749625 
L 525.329331 -82.523182 
L 523.734134 -79.781192 
L 522.138937 -82.443473 
L 520.543739 -99.038887 
L 518.948542 -72.368256 
L 517.353345 -129.599317 
L 515.758148 -80.068145 
L 514.16295 -90.82886 
L 512.567753 -86.524574 
L 510.972556 -84.484023 
L 509.377358 -141.14118 
L 507.782161 -86.731817 
L 506.186964 -89.282505 
L 504.591767 -79.175404 
L 502.996569 -69.259605 
L 501.401372 -74.042145 
L 499.806175 -80.753642 
L 498.210978 -49.985969 
L 496.61578 -49.029461 
L 495.020583 -61.830726 
L 493.425386 -49.778725 
L 491.830189 -49.890318 
L 490.234991 -48.471498 
L 488.639794 -56.793117 
L 487.044597 -67.474123 
L 485.4494 -54.800392 
L 483.854202 -51.261313 
L 482.259005 -49.985969 
L 480.663808 -52.759842 
L 479.068611 -53.381572 
L 477.473413 -57.111953 
L 475.878216 -65.465456 
L 474.283019 -59.646699 
L 472.687822 -58.49889 
L 471.092624 -56.809059 
L 469.497427 -67.968319 
L 467.90223 -61.240879 
L 466.307033 -50.512048 
L 464.711835 -53.126503 
L 463.116638 -50.559873 
L 461.521441 -49.125111 
L 459.926244 -48.774392 
L 458.331046 -59.503223 
L 456.735849 -46.303413 
L 455.140652 -47.180212 
L 453.545455 -48.343963 
L 451.950257 -68.016144 
L 450.35506 -45.330963 
L 448.759863 -44.15127 
L 447.164666 -45.028069 
L 445.569468 -46.016461 
L 443.974271 -67.729192 
L 442.379074 -48.057011 
L 440.783877 -49.364238 
L 439.188679 -52.425064 
L 437.593482 -44.278804 
L 435.998285 -45.857043 
L 434.403087 -72.081303 
L 432.80789 -46.749783 
L 431.212693 -47.307746 
L 429.617496 -60.842334 
L 428.022298 -57.271371 
L 426.427101 -64.046636 
L 424.831904 -59.009027 
L 423.236707 -58.514832 
L 421.641509 -71.013203 
L 420.046312 -53.780117 
L 418.451115 -51.261313 
L 416.855918 -48.248313 
L 415.26072 -49.093228 
L 413.665523 -62.436514 
L 412.070326 -47.626582 
L 410.475129 -64.317647 
L 408.879931 -51.006244 
L 407.284734 -52.664191 
L 405.689537 -52.935202 
L 404.09434 -49.396122 
L 402.499142 -55.182995 
L 400.903945 -45.522265 
L 399.308748 -46.223704 
L 397.713551 -61.049578 
L 396.118353 -80.753642 
L 394.523156 -45.12372 
L 392.927959 -44.757058 
L 391.332762 -45.633857 
L 389.737564 -46.239646 
L 388.142367 -45.474439 
L 386.54717 -81.630441 
L 384.951973 -64.158229 
L 383.356775 -55.677191 
L 381.761578 -55.980085 
L 380.166381 -71.491457 
L 378.571184 -63.632149 
L 376.975986 -53.413456 
L 375.380789 -58.036578 
L 373.785592 -57.765567 
L 372.190395 -48.535265 
L 370.595197 -48.694683 
L 369 -51.675799 
L 367.404803 -47.291805 
L 365.809605 -47.626582 
L 364.214408 -56.952535 
L 362.619211 -69.291488 
L 361.024014 -48.838159 
L 359.428816 -46.494715 
L 357.833619 -48.678741 
L 356.238422 -49.55554 
L 354.643225 -56.410514 
L 353.048027 -45.330963 
L 351.45283 -45.203429 
L 349.857633 -82.220288 
L 348.262436 -46.526598 
L 346.667238 -59.662641 
L 345.072041 -47.993244 
L 343.476844 -48.232371 
L 341.881647 -47.674408 
L 340.286449 -48.75845 
L 338.691252 -64.365472 
L 337.096055 -57.143837 
L 335.500858 -55.119228 
L 333.90566 -66.135012 
L 332.310463 -55.868493 
L 330.715266 -62.165504 
L 329.120069 -53.046794 
L 327.524871 -51.930868 
L 325.929674 -73.675483 
L 324.334477 -57.7018 
L 322.73928 -51.022186 
L 321.144082 -59.152504 
L 319.548885 -54.306196 
L 317.953688 -48.519323 
L 316.358491 -55.964144 
L 314.763293 -47.004852 
L 313.168096 -59.822059 
L 311.572899 -46.478773 
L 309.977702 -46.925143 
L 308.382504 -60.874218 
L 306.787307 -54.6888 
L 305.19211 -74.472573 
L 303.596913 -48.630916 
L 302.001715 -45.984577 
L 300.406518 -44.852709 
L 298.811321 -45.936752 
L 297.216123 -74.042145 
L 295.620926 -48.471498 
L 294.025729 -52.441006 
L 292.430532 -48.678741 
L 290.835334 -47.69035 
L 289.240137 -87.337606 
L 287.64494 -49.20482 
L 286.049743 -50.464223 
L 284.454545 -49.10917 
L 282.859348 -47.610641 
L 281.264151 -59.91771 
L 279.668954 -45.984577 
L 278.073756 -46.462831 
L 276.478559 -45.29908 
L 274.883362 -93.363606 
L 273.288165 -48.678741 
L 271.692967 -49.587424 
L 270.09777 -65.465456 
L 268.502573 -45.57009 
L 266.907376 -46.733842 
L 265.312178 -46.175879 
L 263.716981 -81.168129 
L 262.121784 -51.32508 
L 260.526587 -50.241037 
L 258.931389 -62.101737 
L 257.336192 -45.522265 
L 255.740995 -46.36718 
L 254.145798 -45.251254 
L 252.5506 -72.352314 
L 250.955403 -60.252488 
L 249.360206 -46.574424 
L 247.765009 -45.474439 
L 246.169811 -45.315021 
L 244.574614 -47.116445 
L 242.979417 -49.141053 
L 241.38422 -60.571324 
L 239.789022 -48.120778 
L 238.193825 -46.877318 
L 236.598628 -45.601974 
L 235.003431 -58.817726 
L 233.408233 -45.506323 
L 231.813036 -47.084561 
L 230.217839 -45.139662 
L 228.622642 -46.287471 
L 227.027444 -57.765567 
L 225.432247 -49.459889 
L 223.83705 -48.455556 
L 222.241852 -47.33963 
L 220.646655 -48.742508 
L 219.051458 -64.126345 
L 217.456261 -47.467164 
L 215.861063 -50.17727 
L 214.265866 -49.938143 
L 212.670669 -63.759684 
L 211.075472 -49.156995 
L 209.480274 -49.507715 
L 207.885077 -49.348297 
L 206.28988 -56.442398 
L 204.694683 -49.443947 
L 203.099485 -49.667133 
L 201.504288 -49.826551 
L 199.909091 -48.949752 
L 198.313894 -68.526282 
L 196.718696 -44.039677 
L 195.123499 -44.390397 
L 193.528302 -44.693291 
L 191.933105 -43.991852 
L 190.337907 -71.316097 
L 188.74271 -44.565757 
L 187.147513 -43.991852 
L 185.552316 -72.368256 
L 183.957118 -46.686016 
L 182.361921 -47.51499 
L 180.766724 -54.194604 
L 179.171527 -45.458498 
L 177.576329 -46.36718 
L 175.981132 -70.55089 
L 174.385935 -61.240879 
L 172.790738 -44.900535 
L 171.19554 -45.984577 
L 169.600343 -46.877318 
L 168.005146 -47.467164 
L 166.409949 -65.449514 
L 164.814751 -47.754117 
L 163.219554 -50.225096 
L 161.624357 -53.875768 
L 160.02916 -45.952693 
L 158.433962 -49.284529 
L 156.838765 -51.898985 
L 155.243568 -50.448281 
L 153.64837 -66.421964 
L 152.053173 -67.139345 
L 150.457976 -85.121695 
L 148.862779 -50.049736 
L 147.267581 -53.461281 
L 145.672384 -53.939535 
L 144.077187 -52.791725 
L 142.48199 -56.872826 
L 140.886792 -54.672858 
L 139.291595 -54.816334 
L 137.696398 -55.900376 
L 136.101201 -54.736625 
L 134.506003 -51.930868 
L 132.910806 -54.943868 
L 131.315609 -57.733683 
L 129.720412 -49.396122 
L 128.125214 -51.627974 
L 126.530017 -52.504773 
L 124.93482 -51.484498 
L 123.339623 -54.497498 
L 121.744425 -45.904868 
L 120.149228 -45.12372 
L 118.554031 -45.346905 
L 116.958834 -46.351238 
L 115.363636 -57.558324 
z
" style="stroke: #0000ff; stroke-width: 0.5"/>
    </defs>
    <g clip-path="url(#p95f5f3b84f)">
     <use xlink:href="#m38ff518527" x="0" y="288" style="fill: #0000ff; stroke: #0000ff; stroke-width: 0.5"/>
    </g>
   </g>
   <g id="PolyCollection_3">
    <defs>
     <path id="mabeaf764c8" d="M 115.363636 -64.620541 
L 115.363636 -57.558324 
L 116.958834 -46.351238 
L 118.554031 -45.346905 
L 120.149228 -45.12372 
L 121.744425 -45.904868 
L 123.339623 -54.497498 
L 124.93482 -51.484498 
L 126.530017 -52.504773 
L 128.125214 -51.627974 
L 129.720412 -49.396122 
L 131.315609 -57.733683 
L 132.910806 -54.943868 
L 134.506003 -51.930868 
L 136.101201 -54.736625 
L 137.696398 -55.900376 
L 139.291595 -54.816334 
L 140.886792 -54.672858 
L 142.48199 -56.872826 
L 144.077187 -52.791725 
L 145.672384 -53.939535 
L 147.267581 -53.461281 
L 148.862779 -50.049736 
L 150.457976 -85.121695 
L 152.053173 -67.139345 
L 153.64837 -66.421964 
L 155.243568 -50.448281 
L 156.838765 -51.898985 
L 158.433962 -49.284529 
L 160.02916 -45.952693 
L 161.624357 -53.875768 
L 163.219554 -50.225096 
L 164.814751 -47.754117 
L 166.409949 -65.449514 
L 168.005146 -47.467164 
L 169.600343 -46.877318 
L 171.19554 -45.984577 
L 172.790738 -44.900535 
L 174.385935 -61.240879 
L 175.981132 -70.55089 
L 177.576329 -46.36718 
L 179.171527 -45.458498 
L 180.766724 -54.194604 
L 182.361921 -47.51499 
L 183.957118 -46.686016 
L 185.552316 -72.368256 
L 187.147513 -43.991852 
L 188.74271 -44.565757 
L 190.337907 -71.316097 
L 191.933105 -43.991852 
L 193.528302 -44.693291 
L 195.123499 -44.390397 
L 196.718696 -44.039677 
L 198.313894 -68.526282 
L 199.909091 -48.949752 
L 201.504288 -49.826551 
L 203.099485 -49.667133 
L 204.694683 -49.443947 
L 206.28988 -56.442398 
L 207.885077 -49.348297 
L 209.480274 -49.507715 
L 211.075472 -49.156995 
L 212.670669 -63.759684 
L 214.265866 -49.938143 
L 215.861063 -50.17727 
L 217.456261 -47.467164 
L 219.051458 -64.126345 
L 220.646655 -48.742508 
L 222.241852 -47.33963 
L 223.83705 -48.455556 
L 225.432247 -49.459889 
L 227.027444 -57.765567 
L 228.622642 -46.287471 
L 230.217839 -45.139662 
L 231.813036 -47.084561 
L 233.408233 -45.506323 
L 235.003431 -58.817726 
L 236.598628 -45.601974 
L 238.193825 -46.877318 
L 239.789022 -48.120778 
L 241.38422 -60.571324 
L 242.979417 -49.141053 
L 244.574614 -47.116445 
L 246.169811 -45.315021 
L 247.765009 -45.474439 
L 249.360206 -46.574424 
L 250.955403 -60.252488 
L 252.5506 -72.352314 
L 254.145798 -45.251254 
L 255.740995 -46.36718 
L 257.336192 -45.522265 
L 258.931389 -62.101737 
L 260.526587 -50.241037 
L 262.121784 -51.32508 
L 263.716981 -81.168129 
L 265.312178 -46.175879 
L 266.907376 -46.733842 
L 268.502573 -45.57009 
L 270.09777 -65.465456 
L 271.692967 -49.587424 
L 273.288165 -48.678741 
L 274.883362 -93.363606 
L 276.478559 -45.29908 
L 278.073756 -46.462831 
L 279.668954 -45.984577 
L 281.264151 -59.91771 
L 282.859348 -47.610641 
L 284.454545 -49.10917 
L 286.049743 -50.464223 
L 287.64494 -49.20482 
L 289.240137 -87.337606 
L 290.835334 -47.69035 
L 292.430532 -48.678741 
L 294.025729 -52.441006 
L 295.620926 -48.471498 
L 297.216123 -74.042145 
L 298.811321 -45.936752 
L 300.406518 -44.852709 
L 302.001715 -45.984577 
L 303.596913 -48.630916 
L 305.19211 -74.472573 
L 306.787307 -54.6888 
L 308.382504 -60.874218 
L 309.977702 -46.925143 
L 311.572899 -46.478773 
L 313.168096 -59.822059 
L 314.763293 -47.004852 
L 316.358491 -55.964144 
L 317.953688 -48.519323 
L 319.548885 -54.306196 
L 321.144082 -59.152504 
L 322.73928 -51.022186 
L 324.334477 -57.7018 
L 325.929674 -73.675483 
L 327.524871 -51.930868 
L 329.120069 -53.046794 
L 330.715266 -62.165504 
L 332.310463 -55.868493 
L 333.90566 -66.135012 
L 335.500858 -55.119228 
L 337.096055 -57.143837 
L 338.691252 -64.365472 
L 340.286449 -48.75845 
L 341.881647 -47.674408 
L 343.476844 -48.232371 
L 345.072041 -47.993244 
L 346.667238 -59.662641 
L 348.262436 -46.526598 
L 349.857633 -82.220288 
L 351.45283 -45.203429 
L 353.048027 -45.330963 
L 354.643225 -56.410514 
L 356.238422 -49.55554 
L 357.833619 -48.678741 
L 359.428816 -46.494715 
L 361.024014 -48.838159 
L 362.619211 -69.291488 
L 364.214408 -56.952535 
L 365.809605 -47.626582 
L 367.404803 -47.291805 
L 369 -51.675799 
L 370.595197 -48.694683 
L 372.190395 -48.535265 
L 373.785592 -57.765567 
L 375.380789 -58.036578 
L 376.975986 -53.413456 
L 378.571184 -63.632149 
L 380.166381 -71.491457 
L 381.761578 -55.980085 
L 383.356775 -55.677191 
L 384.951973 -64.158229 
L 386.54717 -81.630441 
L 388.142367 -45.474439 
L 389.737564 -46.239646 
L 391.332762 -45.633857 
L 392.927959 -44.757058 
L 394.523156 -45.12372 
L 396.118353 -80.753642 
L 397.713551 -61.049578 
L 399.308748 -46.223704 
L 400.903945 -45.522265 
L 402.499142 -55.182995 
L 404.09434 -49.396122 
L 405.689537 -52.935202 
L 407.284734 -52.664191 
L 408.879931 -51.006244 
L 410.475129 -64.317647 
L 412.070326 -47.626582 
L 413.665523 -62.436514 
L 415.26072 -49.093228 
L 416.855918 -48.248313 
L 418.451115 -51.261313 
L 420.046312 -53.780117 
L 421.641509 -71.013203 
L 423.236707 -58.514832 
L 424.831904 -59.009027 
L 426.427101 -64.046636 
L 428.022298 -57.271371 
L 429.617496 -60.842334 
L 431.212693 -47.307746 
L 432.80789 -46.749783 
L 434.403087 -72.081303 
L 435.998285 -45.857043 
L 437.593482 -44.278804 
L 439.188679 -52.425064 
L 440.783877 -49.364238 
L 442.379074 -48.057011 
L 443.974271 -67.729192 
L 445.569468 -46.016461 
L 447.164666 -45.028069 
L 448.759863 -44.15127 
L 450.35506 -45.330963 
L 451.950257 -68.016144 
L 453.545455 -48.343963 
L 455.140652 -47.180212 
L 456.735849 -46.303413 
L 458.331046 -59.503223 
L 459.926244 -48.774392 
L 461.521441 -49.125111 
L 463.116638 -50.559873 
L 464.711835 -53.126503 
L 466.307033 -50.512048 
L 467.90223 -61.240879 
L 469.497427 -67.968319 
L 471.092624 -56.809059 
L 472.687822 -58.49889 
L 474.283019 -59.646699 
L 475.878216 -65.465456 
L 477.473413 -57.111953 
L 479.068611 -53.381572 
L 480.663808 -52.759842 
L 482.259005 -49.985969 
L 483.854202 -51.261313 
L 485.4494 -54.800392 
L 487.044597 -67.474123 
L 488.639794 -56.793117 
L 490.234991 -48.471498 
L 491.830189 -49.890318 
L 493.425386 -49.778725 
L 495.020583 -61.830726 
L 496.61578 -49.029461 
L 498.210978 -49.985969 
L 499.806175 -80.753642 
L 501.401372 -74.042145 
L 502.996569 -69.259605 
L 504.591767 -79.175404 
L 506.186964 -89.282505 
L 507.782161 -86.731817 
L 509.377358 -141.14118 
L 510.972556 -84.484023 
L 512.567753 -86.524574 
L 514.16295 -90.82886 
L 515.758148 -80.068145 
L 517.353345 -129.599317 
L 518.948542 -72.368256 
L 520.543739 -99.038887 
L 522.138937 -82.443473 
L 523.734134 -79.781192 
L 525.329331 -82.523182 
L 526.924528 -57.749625 
L 528.519726 -56.506165 
L 530.114923 -58.7699 
L 531.71012 -46.19182 
L 533.305317 -77.230505 
L 534.900515 -64.732133 
L 536.495712 -67.155287 
L 538.090909 -63.010419 
L 539.686106 -63.456789 
L 541.281304 -109.321347 
L 542.876501 -62.819118 
L 544.471698 -57.08007 
L 546.066895 -77.007319 
L 547.662093 -63.217663 
L 549.25729 -63.010419 
L 550.852487 -70.471181 
L 552.447684 -50.432339 
L 554.042882 -51.755508 
L 555.638079 -50.161328 
L 557.233276 -49.714958 
L 558.828473 -65.577049 
L 560.423671 -63.998811 
L 562.018868 -66.948044 
L 563.614065 -63.919102 
L 565.209262 -81.391314 
L 566.80446 -96.312839 
L 568.399657 -81.550732 
L 569.994854 -76.672542 
L 571.590051 -71.363922 
L 573.185249 -73.563891 
L 574.780446 -104.124321 
L 576.375643 -62.627816 
L 577.97084 -64.795901 
L 579.566038 -63.616207 
L 581.161235 -65.242271 
L 582.756432 -93.698384 
L 584.35163 -69.594382 
L 585.946827 -52.249704 
L 587.542024 -53.317805 
L 589.137221 -53.827942 
L 590.732419 -53.222154 
L 592.327616 -66.91616 
L 593.922813 -51.978694 
L 595.51801 -50.687408 
L 597.113208 -55.820667 
L 598.708405 -48.31208 
L 600.303602 -51.14972 
L 601.898799 -56.10762 
L 603.493997 -49.507715 
L 605.089194 -50.480164 
L 606.684391 -51.914926 
L 608.279588 -51.627974 
L 609.874786 -62.882885 
L 611.469983 -53.445339 
L 613.06518 -81.486965 
L 614.660377 -42.238254 
L 616.255575 -42.222312 
L 617.850772 -42.20637 
L 619.445969 -42.20637 
L 621.041166 -42.222312 
L 622.636364 -41.775942 
L 622.636364 -41.823767 
L 622.636364 -41.823767 
L 621.041166 -42.286079 
L 619.445969 -42.270138 
L 617.850772 -42.270138 
L 616.255575 -42.286079 
L 614.660377 -42.365788 
L 613.06518 -96.312839 
L 611.469983 -75.763859 
L 609.874786 -88.310055 
L 608.279588 -64.333588 
L 606.684391 -63.807509 
L 605.089194 -63.632149 
L 603.493997 -80.068145 
L 601.898799 -157.226456 
L 600.303602 -175.798653 
L 598.708405 -171.972621 
L 597.113208 -130.061629 
L 595.51801 -89.776701 
L 593.922813 -100.027278 
L 592.327616 -116.112554 
L 590.732419 -105.479374 
L 589.137221 -112.605358 
L 587.542024 -116.112554 
L 585.946827 -99.644675 
L 584.35163 -118.6473 
L 582.756432 -167.014721 
L 581.161235 -147.454133 
L 579.566038 -153.496075 
L 577.97084 -142.942603 
L 576.375643 -140.232497 
L 574.780446 -171.063938 
L 573.185249 -147.884561 
L 571.590051 -141.428132 
L 569.994854 -160.335107 
L 568.399657 -151.072921 
L 566.80446 -177.504425 
L 565.209262 -160.924953 
L 563.614065 -138.12818 
L 562.018868 -111.632908 
L 560.423671 -117.977745 
L 558.828473 -146.72081 
L 557.233276 -95.914294 
L 555.638079 -74.329097 
L 554.042882 -102.673617 
L 552.447684 -101.382331 
L 550.852487 -112.987961 
L 549.25729 -103.614183 
L 547.662093 -105.941686 
L 546.066895 -144.696201 
L 544.471698 -125.502274 
L 542.876501 -105.846035 
L 541.281304 -154.96272 
L 539.686106 -125.837052 
L 538.090909 -140.232497 
L 536.495712 -153.256948 
L 534.900515 -148.362815 
L 533.305317 -143.197672 
L 531.71012 -101.892469 
L 530.114923 -103.901136 
L 528.519726 -110.245972 
L 526.924528 -115.554591 
L 525.329331 -165.819086 
L 523.734134 -180.246415 
L 522.138937 -193.988246 
L 520.543739 -182.51015 
L 518.948542 -180.517425 
L 517.353345 -204.621427 
L 515.758148 -213.86767 
L 514.16295 -210.503951 
L 512.567753 -215.669094 
L 510.972556 -205.290982 
L 509.377358 -243.36 
L 507.782161 -200.524384 
L 506.186964 -214.887946 
L 504.591767 -211.603935 
L 502.996569 -158.964112 
L 501.401372 -177.424716 
L 499.806175 -108.667734 
L 498.210978 -74.424748 
L 496.61578 -104.921411 
L 495.020583 -97.843252 
L 493.425386 -86.189796 
L 491.830189 -78.218896 
L 490.234991 -92.199854 
L 488.639794 -93.347664 
L 487.044597 -94.383881 
L 485.4494 -68.558165 
L 483.854202 -72.416081 
L 482.259005 -68.940769 
L 480.663808 -67.490065 
L 479.068611 -67.442239 
L 477.473413 -94.447648 
L 475.878216 -113.115496 
L 474.283019 -108.396723 
L 472.687822 -102.60985 
L 471.092624 -94.543299 
L 469.497427 -85.360822 
L 467.90223 -81.997103 
L 466.307033 -74.010261 
L 464.711835 -101.589575 
L 463.116638 -90.781034 
L 461.521441 -66.501673 
L 459.926244 -65.32198 
L 458.331046 -64.126345 
L 456.735849 -58.227879 
L 455.140652 -64.237938 
L 453.545455 -66.374139 
L 451.950257 -81.08842 
L 450.35506 -54.019244 
L 448.759863 -49.826551 
L 447.164666 -55.549657 
L 445.569468 -57.255429 
L 443.974271 -74.552282 
L 442.379074 -63.648091 
L 440.783877 -65.879943 
L 439.188679 -66.29443 
L 437.593482 -50.942477 
L 435.998285 -57.781509 
L 434.403087 -76.592833 
L 432.80789 -63.743742 
L 431.212693 -71.714642 
L 429.617496 -84.468082 
L 428.022298 -73.994319 
L 426.427101 -93.331722 
L 424.831904 -80.195679 
L 423.236707 -92.327389 
L 421.641509 -85.631833 
L 420.046312 -74.88706 
L 418.451115 -71.650875 
L 416.855918 -60.507557 
L 415.26072 -67.474123 
L 413.665523 -73.930552 
L 412.070326 -59.678583 
L 410.475129 -73.994319 
L 408.879931 -63.28143 
L 407.284734 -77.820351 
L 405.689537 -69.674091 
L 404.09434 -70.088578 
L 402.499142 -58.49889 
L 400.903945 -53.652583 
L 399.308748 -53.09462 
L 397.713551 -63.966927 
L 396.118353 -87.194129 
L 394.523156 -51.59609 
L 392.927959 -50.512048 
L 391.332762 -55.390239 
L 389.737564 -56.027911 
L 388.142367 -52.12217 
L 386.54717 -94.559241 
L 384.951973 -82.921727 
L 383.356775 -83.256505 
L 381.761578 -87.6405 
L 380.166381 -90.20713 
L 378.571184 -80.402923 
L 376.975986 -73.723309 
L 375.380789 -71.762467 
L 373.785592 -73.563891 
L 372.190395 -59.184387 
L 370.595197 -64.34953 
L 369 -63.137954 
L 367.404803 -64.046636 
L 365.809605 -54.083011 
L 364.214408 -63.584324 
L 362.619211 -88.820193 
L 361.024014 -76.194288 
L 359.428816 -54.736625 
L 357.833619 -75.189954 
L 356.238422 -71.539282 
L 354.643225 -63.648091 
L 353.048027 -51.723625 
L 351.45283 -49.810609 
L 349.857633 -89.202796 
L 348.262436 -58.722075 
L 346.667238 -73.994319 
L 345.072041 -65.369805 
L 343.476844 -62.564049 
L 341.881647 -59.822059 
L 340.286449 -68.781351 
L 338.691252 -80.833351 
L 337.096055 -83.814468 
L 335.500858 -79.988436 
L 333.90566 -91.418706 
L 332.310463 -88.341939 
L 330.715266 -86.986886 
L 329.120069 -89.027436 
L 327.524871 -68.542224 
L 325.929674 -90.03177 
L 324.334477 -81.120304 
L 322.73928 -69.275546 
L 321.144082 -94.878077 
L 319.548885 -87.831801 
L 317.953688 -73.850843 
L 316.358491 -62.93071 
L 314.763293 -55.374297 
L 313.168096 -64.381414 
L 311.572899 -58.67425 
L 309.977702 -59.74235 
L 308.382504 -81.152187 
L 306.787307 -76.560949 
L 305.19211 -99.293955 
L 303.596913 -63.456789 
L 302.001715 -52.664191 
L 300.406518 -52.185937 
L 298.811321 -56.203271 
L 297.216123 -87.369489 
L 295.620926 -62.851001 
L 294.025729 -74.233446 
L 292.430532 -66.166895 
L 290.835334 -57.893101 
L 289.240137 -98.433098 
L 287.64494 -65.401689 
L 286.049743 -65.513282 
L 284.454545 -64.333588 
L 282.859348 -60.172779 
L 281.264151 -67.123403 
L 279.668954 -64.413297 
L 278.073756 -71.985652 
L 276.478559 -61.256821 
L 274.883362 -108.683675 
L 273.288165 -71.475515 
L 271.692967 -75.413139 
L 270.09777 -79.860901 
L 268.502573 -57.653974 
L 266.907376 -60.842334 
L 265.312178 -55.565599 
L 263.716981 -93.985336 
L 262.121784 -104.044612 
L 260.526587 -99.022945 
L 258.931389 -106.41994 
L 257.336192 -63.010419 
L 255.740995 -66.326313 
L 254.145798 -63.185779 
L 252.5506 -80.498573 
L 250.955403 -66.421964 
L 249.360206 -56.267038 
L 247.765009 -50.958418 
L 246.169811 -54.497498 
L 244.574614 -61.208996 
L 242.979417 -62.803176 
L 241.38422 -67.553832 
L 239.789022 -58.514832 
L 238.193825 -58.451064 
L 236.598628 -51.245371 
L 235.003431 -64.206054 
L 233.408233 -54.545323 
L 231.813036 -57.542382 
L 230.217839 -51.739567 
L 228.622642 -56.72935 
L 227.027444 -70.694367 
L 225.432247 -74.520399 
L 223.83705 -61.145229 
L 222.241852 -61.910435 
L 220.646655 -62.532165 
L 219.051458 -67.761075 
L 217.456261 -55.071403 
L 215.861063 -64.843726 
L 214.265866 -61.942319 
L 212.670669 -84.069537 
L 211.075472 -73.165346 
L 209.480274 -73.946494 
L 207.885077 -73.229113 
L 206.28988 -83.288388 
L 204.694683 -75.843568 
L 203.099485 -75.668208 
L 201.504288 -77.581224 
L 199.909091 -73.611716 
L 198.313894 -75.540674 
L 196.718696 -55.517773 
L 195.123499 -55.087345 
L 193.528302 -55.772842 
L 191.933105 -52.7439 
L 190.337907 -75.747917 
L 188.74271 -51.723625 
L 187.147513 -47.833826 
L 185.552316 -76.401531 
L 183.957118 -55.326472 
L 182.361921 -56.10762 
L 180.766724 -62.006086 
L 179.171527 -59.264096 
L 177.576329 -59.997419 
L 175.981132 -76.353706 
L 174.385935 -67.155287 
L 172.790738 -52.775784 
L 171.19554 -52.807667 
L 169.600343 -55.071403 
L 168.005146 -54.6888 
L 166.409949 -70.216113 
L 164.814751 -58.132228 
L 163.219554 -67.633541 
L 161.624357 -76.863843 
L 160.02916 -87.01877 
L 158.433962 -95.483865 
L 156.838765 -97.859193 
L 155.243568 -118.408173 
L 153.64837 -95.388214 
L 152.053173 -104.586633 
L 150.457976 -130.093513 
L 148.862779 -107.870644 
L 147.267581 -88.310055 
L 145.672384 -86.31733 
L 144.077187 -82.650716 
L 142.48199 -85.344881 
L 140.886792 -81.646383 
L 139.291595 -86.508632 
L 137.696398 -91.131754 
L 136.101201 -84.292722 
L 134.506003 -78.553674 
L 132.910806 -96.105595 
L 131.315609 -100.075104 
L 129.720412 -94.224463 
L 128.125214 -96.280955 
L 126.530017 -106.148929 
L 124.93482 -82.571007 
L 123.339623 -69.48279 
L 121.744425 -56.793117 
L 120.149228 -52.552598 
L 118.554031 -56.37863 
L 116.958834 -59.91771 
L 115.363636 -64.620541 
z
" style="stroke: #008000; stroke-width: 0.5"/>
    </defs>
    <g clip-path="url(#p95f5f3b84f)">
     <use xlink:href="#mabeaf764c8" x="0" y="288" style="fill: #008000; stroke: #008000; stroke-width: 0.5"/>
    </g>
   </g>
   <g id="line2d_26">
    <path d="M 90 44.64 
L 648 44.64 
" clip-path="url(#p95f5f3b84f)" style="fill: none; stroke: #000000; stroke-width: 1.5; stroke-linecap: square"/>
   </g>
   <g id="line2d_27">
    <path d="M 90 200.853696 
L 648 200.853696 
" clip-path="url(#p95f5f3b84f)" style="fill: none; stroke: #000000; stroke-width: 1.5; stroke-linecap: square"/>
   </g>
   <g id="patch_3">
    <path d="M 90 256.32 
L 90 34.56 
" style="fill: none; stroke: #000000; stroke-width: 0.8; stroke-linejoin: miter; stroke-linecap: square"/>
   </g>
   <g id="patch_4">
    <path d="M 648 256.32 
L 648 34.56 
" style="fill: none; stroke: #000000; stroke-width: 0.8; stroke-linejoin: miter; stroke-linecap: square"/>
   </g>
   <g id="patch_5">
    <path d="M 90 256.32 
L 648 256.32 
" style="fill: none; stroke: #000000; stroke-width: 0.8; stroke-linejoin: miter; stroke-linecap: square"/>
   </g>
   <g id="patch_6">
    <path d="M 90 34.56 
L 648 34.56 
" style="fill: none; stroke: #000000; stroke-width: 0.8; stroke-linejoin: miter; stroke-linecap: square"/>
   </g>
   <g id="text_21">
    <!-- peak (12,646) -->
    <g transform="translate(118.700327 41.3136) scale(0.1 -0.1)">
     <defs>
      <path id="DejaVuSans-Bold-70" d="M 1656 506 
L 1656 -1331 
L 538 -1331 
L 538 3500 
L 1656 3500 
L 1656 2988 
Q 1888 3294 2169 3439 
Q 2450 3584 2816 3584 
Q 3463 3584 3878 3070 
Q 4294 2556 4294 1747 
Q 4294 938 3878 423 
Q 3463 -91 2816 -91 
Q 2450 -91 2169 54 
Q 1888 200 1656 506 
z
M 2400 2772 
Q 2041 2772 1848 2508 
Q 1656 2244 1656 1747 
Q 1656 1250 1848 986 
Q 2041 722 2400 722 
Q 2759 722 2948 984 
Q 3138 1247 3138 1747 
Q 3138 2247 2948 2509 
Q 2759 2772 2400 2772 
z
" transform="scale(0.015625)"/>
      <path id="DejaVuSans-Bold-65" d="M 4031 1759 
L 4031 1441 
L 1416 1441 
Q 1456 1047 1700 850 
Q 1944 653 2381 653 
Q 2734 653 3104 758 
Q 3475 863 3866 1075 
L 3866 213 
Q 3469 63 3072 -14 
Q 2675 -91 2278 -91 
Q 1328 -91 801 392 
Q 275 875 275 1747 
Q 275 2603 792 3093 
Q 1309 3584 2216 3584 
Q 3041 3584 3536 3087 
Q 4031 2591 4031 1759 
z
M 2881 2131 
Q 2881 2450 2695 2645 
Q 2509 2841 2209 2841 
Q 1884 2841 1681 2658 
Q 1478 2475 1428 2131 
L 2881 2131 
z
" transform="scale(0.015625)"/>
      <path id="DejaVuSans-Bold-61" d="M 2106 1575 
Q 1756 1575 1579 1456 
Q 1403 1338 1403 1106 
Q 1403 894 1545 773 
Q 1688 653 1941 653 
Q 2256 653 2472 879 
Q 2688 1106 2688 1447 
L 2688 1575 
L 2106 1575 
z
M 3816 1997 
L 3816 0 
L 2688 0 
L 2688 519 
Q 2463 200 2181 54 
Q 1900 -91 1497 -91 
Q 953 -91 614 226 
Q 275 544 275 1050 
Q 275 1666 698 1953 
Q 1122 2241 2028 2241 
L 2688 2241 
L 2688 2328 
Q 2688 2594 2478 2717 
Q 2269 2841 1825 2841 
Q 1466 2841 1156 2769 
Q 847 2697 581 2553 
L 581 3406 
Q 941 3494 1303 3539 
Q 1666 3584 2028 3584 
Q 2975 3584 3395 3211 
Q 3816 2838 3816 1997 
z
" transform="scale(0.015625)"/>
      <path id="DejaVuSans-Bold-6b" d="M 538 4863 
L 1656 4863 
L 1656 2216 
L 2944 3500 
L 4244 3500 
L 2534 1894 
L 4378 0 
L 3022 0 
L 1656 1459 
L 1656 0 
L 538 0 
L 538 4863 
z
" transform="scale(0.015625)"/>
      <path id="DejaVuSans-Bold-20" transform="scale(0.015625)"/>
      <path id="DejaVuSans-Bold-28" d="M 2413 -844 
L 1484 -844 
Q 1006 -72 778 623 
Q 550 1319 550 2003 
Q 550 2688 779 3389 
Q 1009 4091 1484 4856 
L 2413 4856 
Q 2013 4116 1813 3408 
Q 1613 2700 1613 2009 
Q 1613 1319 1811 609 
Q 2009 -100 2413 -844 
z
" transform="scale(0.015625)"/>
      <path id="DejaVuSans-Bold-31" d="M 750 831 
L 1813 831 
L 1813 3847 
L 722 3622 
L 722 4441 
L 1806 4666 
L 2950 4666 
L 2950 831 
L 4013 831 
L 4013 0 
L 750 0 
L 750 831 
z
" transform="scale(0.015625)"/>
      <path id="DejaVuSans-Bold-32" d="M 1844 884 
L 3897 884 
L 3897 0 
L 506 0 
L 506 884 
L 2209 2388 
Q 2438 2594 2547 2791 
Q 2656 2988 2656 3200 
Q 2656 3528 2436 3728 
Q 2216 3928 1850 3928 
Q 1569 3928 1234 3808 
Q 900 3688 519 3450 
L 519 4475 
Q 925 4609 1322 4679 
Q 1719 4750 2100 4750 
Q 2938 4750 3402 4381 
Q 3866 4013 3866 3353 
Q 3866 2972 3669 2642 
Q 3472 2313 2841 1759 
L 1844 884 
z
" transform="scale(0.015625)"/>
      <path id="DejaVuSans-Bold-2c" d="M 653 1209 
L 1778 1209 
L 1778 256 
L 1006 -909 
L 341 -909 
L 653 256 
L 653 1209 
z
" transform="scale(0.015625)"/>
      <path id="DejaVuSans-Bold-36" d="M 2316 2303 
Q 2000 2303 1842 2098 
Q 1684 1894 1684 1484 
Q 1684 1075 1842 870 
Q 2000 666 2316 666 
Q 2634 666 2792 870 
Q 2950 1075 2950 1484 
Q 2950 1894 2792 2098 
Q 2634 2303 2316 2303 
z
M 3803 4544 
L 3803 3681 
Q 3506 3822 3243 3889 
Q 2981 3956 2731 3956 
Q 2194 3956 1894 3657 
Q 1594 3359 1544 2772 
Q 1750 2925 1990 3001 
Q 2231 3078 2516 3078 
Q 3231 3078 3670 2659 
Q 4109 2241 4109 1563 
Q 4109 813 3618 361 
Q 3128 -91 2303 -91 
Q 1394 -91 895 523 
Q 397 1138 397 2266 
Q 397 3422 980 4083 
Q 1563 4744 2578 4744 
Q 2900 4744 3203 4694 
Q 3506 4644 3803 4544 
z
" transform="scale(0.015625)"/>
      <path id="DejaVuSans-Bold-34" d="M 2356 3675 
L 1038 1722 
L 2356 1722 
L 2356 3675 
z
M 2156 4666 
L 3494 4666 
L 3494 1722 
L 4159 1722 
L 4159 850 
L 3494 850 
L 3494 0 
L 2356 0 
L 2356 850 
L 288 850 
L 288 1881 
L 2156 4666 
z
" transform="scale(0.015625)"/>
      <path id="DejaVuSans-Bold-29" d="M 513 -844 
Q 913 -100 1113 609 
Q 1313 1319 1313 2009 
Q 1313 2700 1113 3408 
Q 913 4116 513 4856 
L 1441 4856 
Q 1916 4091 2145 3389 
Q 2375 2688 2375 2003 
Q 2375 1319 2147 623 
Q 1919 -72 1441 -844 
L 513 -844 
z
" transform="scale(0.015625)"/>
     </defs>
     <use xlink:href="#DejaVuSans-Bold-70"/>
     <use xlink:href="#DejaVuSans-Bold-65" x="71.582031"/>
     <use xlink:href="#DejaVuSans-Bold-61" x="139.404297"/>
     <use xlink:href="#DejaVuSans-Bold-6b" x="206.884766"/>
     <use xlink:href="#DejaVuSans-Bold-20" x="273.388672"/>
     <use xlink:href="#DejaVuSans-Bold-28" x="308.203125"/>
     <use xlink:href="#DejaVuSans-Bold-31" x="353.90625"/>
     <use xlink:href="#DejaVuSans-Bold-32" x="423.486328"/>
     <use xlink:href="#DejaVuSans-Bold-2c" x="493.066406"/>
     <use xlink:href="#DejaVuSans-Bold-36" x="531.054688"/>
     <use xlink:href="#DejaVuSans-Bold-34" x="600.634766"/>
     <use xlink:href="#DejaVuSans-Bold-36" x="670.214844"/>
     <use xlink:href="#DejaVuSans-Bold-29" x="739.794922"/>
    </g>
   </g>
   <g id="text_22">
    <!-- mean (2,847) -->
    <g transform="translate(567.728153 197.527296) scale(0.1 -0.1)">
     <defs>
      <path id="DejaVuSans-Bold-6d" d="M 3781 2919 
Q 3994 3244 4286 3414 
Q 4578 3584 4928 3584 
Q 5531 3584 5847 3212 
Q 6163 2841 6163 2131 
L 6163 0 
L 5038 0 
L 5038 1825 
Q 5041 1866 5042 1909 
Q 5044 1953 5044 2034 
Q 5044 2406 4934 2573 
Q 4825 2741 4581 2741 
Q 4263 2741 4089 2478 
Q 3916 2216 3909 1719 
L 3909 0 
L 2784 0 
L 2784 1825 
Q 2784 2406 2684 2573 
Q 2584 2741 2328 2741 
Q 2006 2741 1831 2477 
Q 1656 2213 1656 1722 
L 1656 0 
L 531 0 
L 531 3500 
L 1656 3500 
L 1656 2988 
Q 1863 3284 2130 3434 
Q 2397 3584 2719 3584 
Q 3081 3584 3359 3409 
Q 3638 3234 3781 2919 
z
" transform="scale(0.015625)"/>
      <path id="DejaVuSans-Bold-6e" d="M 4056 2131 
L 4056 0 
L 2931 0 
L 2931 347 
L 2931 1631 
Q 2931 2084 2911 2256 
Q 2891 2428 2841 2509 
Q 2775 2619 2662 2680 
Q 2550 2741 2406 2741 
Q 2056 2741 1856 2470 
Q 1656 2200 1656 1722 
L 1656 0 
L 538 0 
L 538 3500 
L 1656 3500 
L 1656 2988 
Q 1909 3294 2193 3439 
Q 2478 3584 2822 3584 
Q 3428 3584 3742 3212 
Q 4056 2841 4056 2131 
z
" transform="scale(0.015625)"/>
      <path id="DejaVuSans-Bold-38" d="M 2228 2088 
Q 1891 2088 1709 1903 
Q 1528 1719 1528 1375 
Q 1528 1031 1709 848 
Q 1891 666 2228 666 
Q 2563 666 2741 848 
Q 2919 1031 2919 1375 
Q 2919 1722 2741 1905 
Q 2563 2088 2228 2088 
z
M 1350 2484 
Q 925 2613 709 2878 
Q 494 3144 494 3541 
Q 494 4131 934 4440 
Q 1375 4750 2228 4750 
Q 3075 4750 3515 4442 
Q 3956 4134 3956 3541 
Q 3956 3144 3739 2878 
Q 3522 2613 3097 2484 
Q 3572 2353 3814 2058 
Q 4056 1763 4056 1313 
Q 4056 619 3595 264 
Q 3134 -91 2228 -91 
Q 1319 -91 855 264 
Q 391 619 391 1313 
Q 391 1763 633 2058 
Q 875 2353 1350 2484 
z
M 1631 3419 
Q 1631 3141 1786 2991 
Q 1941 2841 2228 2841 
Q 2509 2841 2662 2991 
Q 2816 3141 2816 3419 
Q 2816 3697 2662 3845 
Q 2509 3994 2228 3994 
Q 1941 3994 1786 3844 
Q 1631 3694 1631 3419 
z
" transform="scale(0.015625)"/>
      <path id="DejaVuSans-Bold-37" d="M 428 4666 
L 3944 4666 
L 3944 3988 
L 2125 0 
L 953 0 
L 2675 3781 
L 428 3781 
L 428 4666 
z
" transform="scale(0.015625)"/>
     </defs>
     <use xlink:href="#DejaVuSans-Bold-6d"/>
     <use xlink:href="#DejaVuSans-Bold-65" x="104.199219"/>
     <use xlink:href="#DejaVuSans-Bold-61" x="172.021484"/>
     <use xlink:href="#DejaVuSans-Bold-6e" x="239.501953"/>
     <use xlink:href="#DejaVuSans-Bold-20" x="310.693359"/>
     <use xlink:href="#DejaVuSans-Bold-28" x="345.507812"/>
     <use xlink:href="#DejaVuSans-Bold-32" x="391.210938"/>
     <use xlink:href="#DejaVuSans-Bold-2c" x="460.791016"/>
     <use xlink:href="#DejaVuSans-Bold-38" x="498.779297"/>
     <use xlink:href="#DejaVuSans-Bold-34" x="568.359375"/>
     <use xlink:href="#DejaVuSans-Bold-37" x="637.939453"/>
     <use xlink:href="#DejaVuSans-Bold-29" x="707.519531"/>
    </g>
   </g>
   <g id="text_23">
    <!-- Stream Bitrate over Time -->
    <g transform="translate(293.189062 28.56) scale(0.12 -0.12)">
     <defs>
      <path id="DejaVuSans-53" d="M 3425 4513 
L 3425 3897 
Q 3066 4069 2747 4153 
Q 2428 4238 2131 4238 
Q 1616 4238 1336 4038 
Q 1056 3838 1056 3469 
Q 1056 3159 1242 3001 
Q 1428 2844 1947 2747 
L 2328 2669 
Q 3034 2534 3370 2195 
Q 3706 1856 3706 1288 
Q 3706 609 3251 259 
Q 2797 -91 1919 -91 
Q 1588 -91 1214 -16 
Q 841 59 441 206 
L 441 856 
Q 825 641 1194 531 
Q 1563 422 1919 422 
Q 2459 422 2753 634 
Q 3047 847 3047 1241 
Q 3047 1584 2836 1778 
Q 2625 1972 2144 2069 
L 1759 2144 
Q 1053 2284 737 2584 
Q 422 2884 422 3419 
Q 422 4038 858 4394 
Q 1294 4750 2059 4750 
Q 2388 4750 2728 4690 
Q 3069 4631 3425 4513 
z
" transform="scale(0.015625)"/>
      <path id="DejaVuSans-6f" d="M 1959 3097 
Q 1497 3097 1228 2736 
Q 959 2375 959 1747 
Q 959 1119 1226 758 
Q 1494 397 1959 397 
Q 2419 397 2687 759 
Q 2956 1122 2956 1747 
Q 2956 2369 2687 2733 
Q 2419 3097 1959 3097 
z
M 1959 3584 
Q 2709 3584 3137 3096 
Q 3566 2609 3566 1747 
Q 3566 888 3137 398 
Q 2709 -91 1959 -91 
Q 1206 -91 779 398 
Q 353 888 353 1747 
Q 353 2609 779 3096 
Q 1206 3584 1959 3584 
z
" transform="scale(0.015625)"/>
      <path id="DejaVuSans-76" d="M 191 3500 
L 800 3500 
L 1894 563 
L 2988 3500 
L 3597 3500 
L 2284 0 
L 1503 0 
L 191 3500 
z
" transform="scale(0.015625)"/>
     </defs>
     <use xlink:href="#DejaVuSans-53"/>
     <use xlink:href="#DejaVuSans-74" x="63.476562"/>
     <use xlink:href="#DejaVuSans-72" x="102.685547"/>
     <use xlink:href="#DejaVuSans-65" x="141.548828"/>
     <use xlink:href="#DejaVuSans-61" x="203.072266"/>
     <use xlink:href="#DejaVuSans-6d" x="264.351562"/>
     <use xlink:href="#DejaVuSans-20" x="361.763672"/>
     <use xlink:href="#DejaVuSans-42" x="393.550781"/>
     <use xlink:href="#DejaVuSans-69" x="462.154297"/>
     <use xlink:href="#DejaVuSans-74" x="489.9375"/>
     <use xlink:href="#DejaVuSans-72" x="529.146484"/>
     <use xlink:href="#DejaVuSans-61" x="570.259766"/>
     <use xlink:href="#DejaVuSans-74" x="631.539062"/>
     <use xlink:href="#DejaVuSans-65" x="670.748047"/>
     <use xlink:href="#DejaVuSans-20" x="732.271484"/>
     <use xlink:href="#DejaVuSans-6f" x="764.058594"/>
     <use xlink:href="#DejaVuSans-76" x="825.240234"/>
     <use xlink:href="#DejaVuSans-65" x="884.419922"/>
     <use xlink:href="#DejaVuSans-72" x="945.943359"/>
     <use xlink:href="#DejaVuSans-20" x="987.056641"/>
     <use xlink:href="#DejaVuSans-54" x="1018.84375"/>
     <use xlink:href="#DejaVuSans-69" x="1076.802734"/>
     <use xlink:href="#DejaVuSans-6d" x="1104.585938"/>
     <use xlink:href="#DejaVuSans-65" x="1201.998047"/>
    </g>
   </g>
   <g id="legend_1">
    <g id="patch_7">
     <path d="M 602.139063 86.594375 
L 641 86.594375 
Q 643 86.594375 643 84.594375 
L 643 41.56 
Q 643 39.56 641 39.56 
L 602.139063 39.56 
Q 600.139063 39.56 600.139063 41.56 
L 600.139063 84.594375 
Q 600.139063 86.594375 602.139063 86.594375 
z
" style="fill: #ffffff; opacity: 0.8; stroke: #cccccc; stroke-linejoin: miter"/>
    </g>
    <g id="patch_8">
     <path d="M 604.139063 51.158438 
L 624.139063 51.158438 
L 624.139063 44.158438 
L 604.139063 44.158438 
z
" style="fill: #ff0000; stroke: #ff0000; stroke-width: 0.5; stroke-linejoin: miter"/>
    </g>
    <g id="text_24">
     <!-- I -->
     <g transform="translate(632.139063 51.158438) scale(0.1 -0.1)">
      <defs>
       <path id="DejaVuSans-49" d="M 628 4666 
L 1259 4666 
L 1259 0 
L 628 0 
L 628 4666 
z
" transform="scale(0.015625)"/>
      </defs>
      <use xlink:href="#DejaVuSans-49"/>
     </g>
    </g>
    <g id="patch_9">
     <path d="M 604.139063 65.836563 
L 624.139063 65.836563 
L 624.139063 58.836563 
L 604.139063 58.836563 
z
" style="fill: #0000ff; stroke: #0000ff; stroke-width: 0.5; stroke-linejoin: miter"/>
    </g>
    <g id="text_25">
     <!-- B -->
     <g transform="translate(632.139063 65.836563) scale(0.1 -0.1)">
      <use xlink:href="#DejaVuSans-42"/>
     </g>
    </g>
    <g id="patch_10">
     <path d="M 604.139063 80.514688 
L 624.139063 80.514688 
L 624.139063 73.514688 
L 604.139063 73.514688 
z
" style="fill: #008000; stroke: #008000; stroke-width: 0.5; stroke-linejoin: miter"/>
    </g>
    <g id="text_26">
     <!-- P -->
     <g transform="translate(632.139063 80.514688) scale(0.1 -0.1)">
      <defs>
       <path id="DejaVuSans-50" d="M 1259 4147 
L 1259 2394 
L 2053 2394 
Q 2494 2394 2734 2622 
Q 2975 2850 2975 3272 
Q 2975 3691 2734 3919 
Q 2494 4147 2053 4147 
L 1259 4147 
z
M 628 4666 
L 2053 4666 
Q 2838 4666 3239 4311 
Q 3641 3956 3641 3272 
Q 3641 2581 3239 2228 
Q 2838 1875 2053 1875 
L 1259 1875 
L 1259 0 
L 628 0 
L 628 4666 
z
" transform="scale(0.015625)"/>
      </defs>
      <use xlink:href="#DejaVuSans-50"/>
     </g>
    </g>
   </g>
  </g>
 </g>
 <defs>
  <clipPath id="p95f5f3b84f">
   <rect x="90" y="34.56" width="558" height="221.76"/>
  </clipPath>
 </defs>
</svg>
