<?xml version="1.0" encoding="utf-8" standalone="no"?>
<!DOCTYPE svg PUBLIC "-//W3C//DTD SVG 1.1//EN"
  "http://www.w3.org/Graphics/SVG/1.1/DTD/svg11.dtd">
<svg xmlns:xlink="http://www.w3.org/1999/xlink" width="720pt" height="288pt" viewBox="0 0 720 288" xmlns="http://www.w3.org/2000/svg" version="1.1">
 <metadata>
  <rdf:RDF xmlns:dc="http://purl.org/dc/elements/1.1/" xmlns:cc="http://creativecommons.org/ns#" xmlns:rdf="http://www.w3.org/1999/02/22-rdf-syntax-ns#">
   <cc:Work>
    <dc:type rdf:resource="http://purl.org/dc/dcmitype/StillImage"/>
    <dc:date>2023-05-07T13:57:54.009559</dc:date>
    <dc:format>image/svg+xml</dc:format>
    <dc:creator>
     <cc:Agent>
      <dc:title>Matplotlib v3.7.1, https://matplotlib.org/</dc:title>
     </cc:Agent>
    </dc:creator>
   </cc:Work>
  </rdf:RDF>
 </metadata>
 <defs>
  <style type="text/css">*{stroke-linejoin: round; stroke-linecap: butt}</style>
 </defs>
 <g id="figure_1">
  <g id="patch_1">
   <path d="M 0 288 
L 720 288 
L 720 0 
L 0 0 
z
" style="fill: #ffffff"/>
  </g>
  <g id="axes_1">
   <g id="patch_2">
    <path d="M 90 256.32 
L 648 256.32 
L 648 34.56 
L 90 34.56 
z
" style="fill: #ffffff"/>
   </g>
   <g id="matplotlib.axis_1">
    <g id="xtick_1">
     <g id="line2d_1">
      <defs>
       <path id="m39f08a9444" d="M 0 0 
L 0 3.5 
" style="stroke: #000000; stroke-width: 0.8"/>
      </defs>
      <g>
       <use xlink:href="#m39f08a9444" x="115.363636" y="256.32" style="stroke: #000000; stroke-width: 0.8"/>
      </g>
     </g>
     <g id="text_1">
      <!-- 0:00:00 -->
      <g transform="translate(96.088636 270.918437) scale(0.1 -0.1)">
       <defs>
        <path id="DejaVuSans-30" d="M 2034 4250 
Q 1547 4250 1301 3770 
Q 1056 3291 1056 2328 
Q 1056 1369 1301 889 
Q 1547 409 2034 409 
Q 2525 409 2770 889 
Q 3016 1369 3016 2328 
Q 3016 3291 2770 3770 
Q 2525 4250 2034 4250 
z
M 2034 4750 
Q 2819 4750 3233 4129 
Q 3647 3509 3647 2328 
Q 3647 1150 3233 529 
Q 2819 -91 2034 -91 
Q 1250 -91 836 529 
Q 422 1150 422 2328 
Q 422 3509 836 4129 
Q 1250 4750 2034 4750 
z
" transform="scale(0.015625)"/>
        <path id="DejaVuSans-3a" d="M 750 794 
L 1409 794 
L 1409 0 
L 750 0 
L 750 794 
z
M 750 3309 
L 1409 3309 
L 1409 2516 
L 750 2516 
L 750 3309 
z
" transform="scale(0.015625)"/>
       </defs>
       <use xlink:href="#DejaVuSans-30"/>
       <use xlink:href="#DejaVuSans-3a" x="63.623047"/>
       <use xlink:href="#DejaVuSans-30" x="97.314453"/>
       <use xlink:href="#DejaVuSans-30" x="160.9375"/>
       <use xlink:href="#DejaVuSans-3a" x="224.560547"/>
       <use xlink:href="#DejaVuSans-30" x="258.251953"/>
       <use xlink:href="#DejaVuSans-30" x="321.875"/>
      </g>
     </g>
    </g>
    <g id="xtick_2">
     <g id="line2d_2">
      <g>
       <use xlink:href="#m39f08a9444" x="164.814751" y="256.32" style="stroke: #000000; stroke-width: 0.8"/>
      </g>
     </g>
     <g id="text_2">
      <!-- 0:00:31 -->
      <g transform="translate(145.539751 270.918437) scale(0.1 -0.1)">
       <defs>
        <path id="DejaVuSans-33" d="M 2597 2516 
Q 3050 2419 3304 2112 
Q 3559 1806 3559 1356 
Q 3559 666 3084 287 
Q 2609 -91 1734 -91 
Q 1441 -91 1130 -33 
Q 819 25 488 141 
L 488 750 
Q 750 597 1062 519 
Q 1375 441 1716 441 
Q 2309 441 2620 675 
Q 2931 909 2931 1356 
Q 2931 1769 2642 2001 
Q 2353 2234 1838 2234 
L 1294 2234 
L 1294 2753 
L 1863 2753 
Q 2328 2753 2575 2939 
Q 2822 3125 2822 3475 
Q 2822 3834 2567 4026 
Q 2313 4219 1838 4219 
Q 1578 4219 1281 4162 
Q 984 4106 628 3988 
L 628 4550 
Q 988 4650 1302 4700 
Q 1616 4750 1894 4750 
Q 2613 4750 3031 4423 
Q 3450 4097 3450 3541 
Q 3450 3153 3228 2886 
Q 3006 2619 2597 2516 
z
" transform="scale(0.015625)"/>
        <path id="DejaVuSans-31" d="M 794 531 
L 1825 531 
L 1825 4091 
L 703 3866 
L 703 4441 
L 1819 4666 
L 2450 4666 
L 2450 531 
L 3481 531 
L 3481 0 
L 794 0 
L 794 531 
z
" transform="scale(0.015625)"/>
       </defs>
       <use xlink:href="#DejaVuSans-30"/>
       <use xlink:href="#DejaVuSans-3a" x="63.623047"/>
       <use xlink:href="#DejaVuSans-30" x="97.314453"/>
       <use xlink:href="#DejaVuSans-30" x="160.9375"/>
       <use xlink:href="#DejaVuSans-3a" x="224.560547"/>
       <use xlink:href="#DejaVuSans-33" x="258.251953"/>
       <use xlink:href="#DejaVuSans-31" x="321.875"/>
      </g>
     </g>
    </g>
    <g id="xtick_3">
     <g id="line2d_3">
      <g>
       <use xlink:href="#m39f08a9444" x="214.265866" y="256.32" style="stroke: #000000; stroke-width: 0.8"/>
      </g>
     </g>
     <g id="text_3">
      <!-- 0:01:02 -->
      <g transform="translate(194.990866 270.918437) scale(0.1 -0.1)">
       <defs>
        <path id="DejaVuSans-32" d="M 1228 531 
L 3431 531 
L 3431 0 
L 469 0 
L 469 531 
Q 828 903 1448 1529 
Q 2069 2156 2228 2338 
Q 2531 2678 2651 2914 
Q 2772 3150 2772 3378 
Q 2772 3750 2511 3984 
Q 2250 4219 1831 4219 
Q 1534 4219 1204 4116 
Q 875 4013 500 3803 
L 500 4441 
Q 881 4594 1212 4672 
Q 1544 4750 1819 4750 
Q 2544 4750 2975 4387 
Q 3406 4025 3406 3419 
Q 3406 3131 3298 2873 
Q 3191 2616 2906 2266 
Q 2828 2175 2409 1742 
Q 1991 1309 1228 531 
z
" transform="scale(0.015625)"/>
       </defs>
       <use xlink:href="#DejaVuSans-30"/>
       <use xlink:href="#DejaVuSans-3a" x="63.623047"/>
       <use xlink:href="#DejaVuSans-30" x="97.314453"/>
       <use xlink:href="#DejaVuSans-31" x="160.9375"/>
       <use xlink:href="#DejaVuSans-3a" x="224.560547"/>
       <use xlink:href="#DejaVuSans-30" x="258.251953"/>
       <use xlink:href="#DejaVuSans-32" x="321.875"/>
      </g>
     </g>
    </g>
    <g id="xtick_4">
     <g id="line2d_4">
      <g>
       <use xlink:href="#m39f08a9444" x="263.716981" y="256.32" style="stroke: #000000; stroke-width: 0.8"/>
      </g>
     </g>
     <g id="text_4">
      <!-- 0:01:33 -->
      <g transform="translate(244.441981 270.918437) scale(0.1 -0.1)">
       <use xlink:href="#DejaVuSans-30"/>
       <use xlink:href="#DejaVuSans-3a" x="63.623047"/>
       <use xlink:href="#DejaVuSans-30" x="97.314453"/>
       <use xlink:href="#DejaVuSans-31" x="160.9375"/>
       <use xlink:href="#DejaVuSans-3a" x="224.560547"/>
       <use xlink:href="#DejaVuSans-33" x="258.251953"/>
       <use xlink:href="#DejaVuSans-33" x="321.875"/>
      </g>
     </g>
    </g>
    <g id="xtick_5">
     <g id="line2d_5">
      <g>
       <use xlink:href="#m39f08a9444" x="313.168096" y="256.32" style="stroke: #000000; stroke-width: 0.8"/>
      </g>
     </g>
     <g id="text_5">
      <!-- 0:02:04 -->
      <g transform="translate(293.893096 270.918437) scale(0.1 -0.1)">
       <defs>
        <path id="DejaVuSans-34" d="M 2419 4116 
L 825 1625 
L 2419 1625 
L 2419 4116 
z
M 2253 4666 
L 3047 4666 
L 3047 1625 
L 3713 1625 
L 3713 1100 
L 3047 1100 
L 3047 0 
L 2419 0 
L 2419 1100 
L 313 1100 
L 313 1709 
L 2253 4666 
z
" transform="scale(0.015625)"/>
       </defs>
       <use xlink:href="#DejaVuSans-30"/>
       <use xlink:href="#DejaVuSans-3a" x="63.623047"/>
       <use xlink:href="#DejaVuSans-30" x="97.314453"/>
       <use xlink:href="#DejaVuSans-32" x="160.9375"/>
       <use xlink:href="#DejaVuSans-3a" x="224.560547"/>
       <use xlink:href="#DejaVuSans-30" x="258.251953"/>
       <use xlink:href="#DejaVuSans-34" x="321.875"/>
      </g>
     </g>
    </g>
    <g id="xtick_6">
     <g id="line2d_6">
      <g>
       <use xlink:href="#m39f08a9444" x="362.619211" y="256.32" style="stroke: #000000; stroke-width: 0.8"/>
      </g>
     </g>
     <g id="text_6">
      <!-- 0:02:35 -->
      <g transform="translate(343.344211 270.918437) scale(0.1 -0.1)">
       <defs>
        <path id="DejaVuSans-35" d="M 691 4666 
L 3169 4666 
L 3169 4134 
L 1269 4134 
L 1269 2991 
Q 1406 3038 1543 3061 
Q 1681 3084 1819 3084 
Q 2600 3084 3056 2656 
Q 3513 2228 3513 1497 
Q 3513 744 3044 326 
Q 2575 -91 1722 -91 
Q 1428 -91 1123 -41 
Q 819 9 494 109 
L 494 744 
Q 775 591 1075 516 
Q 1375 441 1709 441 
Q 2250 441 2565 725 
Q 2881 1009 2881 1497 
Q 2881 1984 2565 2268 
Q 2250 2553 1709 2553 
Q 1456 2553 1204 2497 
Q 953 2441 691 2322 
L 691 4666 
z
" transform="scale(0.015625)"/>
       </defs>
       <use xlink:href="#DejaVuSans-30"/>
       <use xlink:href="#DejaVuSans-3a" x="63.623047"/>
       <use xlink:href="#DejaVuSans-30" x="97.314453"/>
       <use xlink:href="#DejaVuSans-32" x="160.9375"/>
       <use xlink:href="#DejaVuSans-3a" x="224.560547"/>
       <use xlink:href="#DejaVuSans-33" x="258.251953"/>
       <use xlink:href="#DejaVuSans-35" x="321.875"/>
      </g>
     </g>
    </g>
    <g id="xtick_7">
     <g id="line2d_7">
      <g>
       <use xlink:href="#m39f08a9444" x="412.070326" y="256.32" style="stroke: #000000; stroke-width: 0.8"/>
      </g>
     </g>
     <g id="text_7">
      <!-- 0:03:06 -->
      <g transform="translate(392.795326 270.918437) scale(0.1 -0.1)">
       <defs>
        <path id="DejaVuSans-36" d="M 2113 2584 
Q 1688 2584 1439 2293 
Q 1191 2003 1191 1497 
Q 1191 994 1439 701 
Q 1688 409 2113 409 
Q 2538 409 2786 701 
Q 3034 994 3034 1497 
Q 3034 2003 2786 2293 
Q 2538 2584 2113 2584 
z
M 3366 4563 
L 3366 3988 
Q 3128 4100 2886 4159 
Q 2644 4219 2406 4219 
Q 1781 4219 1451 3797 
Q 1122 3375 1075 2522 
Q 1259 2794 1537 2939 
Q 1816 3084 2150 3084 
Q 2853 3084 3261 2657 
Q 3669 2231 3669 1497 
Q 3669 778 3244 343 
Q 2819 -91 2113 -91 
Q 1303 -91 875 529 
Q 447 1150 447 2328 
Q 447 3434 972 4092 
Q 1497 4750 2381 4750 
Q 2619 4750 2861 4703 
Q 3103 4656 3366 4563 
z
" transform="scale(0.015625)"/>
       </defs>
       <use xlink:href="#DejaVuSans-30"/>
       <use xlink:href="#DejaVuSans-3a" x="63.623047"/>
       <use xlink:href="#DejaVuSans-30" x="97.314453"/>
       <use xlink:href="#DejaVuSans-33" x="160.9375"/>
       <use xlink:href="#DejaVuSans-3a" x="224.560547"/>
       <use xlink:href="#DejaVuSans-30" x="258.251953"/>
       <use xlink:href="#DejaVuSans-36" x="321.875"/>
      </g>
     </g>
    </g>
    <g id="xtick_8">
     <g id="line2d_8">
      <g>
       <use xlink:href="#m39f08a9444" x="461.521441" y="256.32" style="stroke: #000000; stroke-width: 0.8"/>
      </g>
     </g>
     <g id="text_8">
      <!-- 0:03:37 -->
      <g transform="translate(442.246441 270.918437) scale(0.1 -0.1)">
       <defs>
        <path id="DejaVuSans-37" d="M 525 4666 
L 3525 4666 
L 3525 4397 
L 1831 0 
L 1172 0 
L 2766 4134 
L 525 4134 
L 525 4666 
z
" transform="scale(0.015625)"/>
       </defs>
       <use xlink:href="#DejaVuSans-30"/>
       <use xlink:href="#DejaVuSans-3a" x="63.623047"/>
       <use xlink:href="#DejaVuSans-30" x="97.314453"/>
       <use xlink:href="#DejaVuSans-33" x="160.9375"/>
       <use xlink:href="#DejaVuSans-3a" x="224.560547"/>
       <use xlink:href="#DejaVuSans-33" x="258.251953"/>
       <use xlink:href="#DejaVuSans-37" x="321.875"/>
      </g>
     </g>
    </g>
    <g id="xtick_9">
     <g id="line2d_9">
      <g>
       <use xlink:href="#m39f08a9444" x="510.972556" y="256.32" style="stroke: #000000; stroke-width: 0.8"/>
      </g>
     </g>
     <g id="text_9">
      <!-- 0:04:08 -->
      <g transform="translate(491.697556 270.918437) scale(0.1 -0.1)">
       <defs>
        <path id="DejaVuSans-38" d="M 2034 2216 
Q 1584 2216 1326 1975 
Q 1069 1734 1069 1313 
Q 1069 891 1326 650 
Q 1584 409 2034 409 
Q 2484 409 2743 651 
Q 3003 894 3003 1313 
Q 3003 1734 2745 1975 
Q 2488 2216 2034 2216 
z
M 1403 2484 
Q 997 2584 770 2862 
Q 544 3141 544 3541 
Q 544 4100 942 4425 
Q 1341 4750 2034 4750 
Q 2731 4750 3128 4425 
Q 3525 4100 3525 3541 
Q 3525 3141 3298 2862 
Q 3072 2584 2669 2484 
Q 3125 2378 3379 2068 
Q 3634 1759 3634 1313 
Q 3634 634 3220 271 
Q 2806 -91 2034 -91 
Q 1263 -91 848 271 
Q 434 634 434 1313 
Q 434 1759 690 2068 
Q 947 2378 1403 2484 
z
M 1172 3481 
Q 1172 3119 1398 2916 
Q 1625 2713 2034 2713 
Q 2441 2713 2670 2916 
Q 2900 3119 2900 3481 
Q 2900 3844 2670 4047 
Q 2441 4250 2034 4250 
Q 1625 4250 1398 4047 
Q 1172 3844 1172 3481 
z
" transform="scale(0.015625)"/>
       </defs>
       <use xlink:href="#DejaVuSans-30"/>
       <use xlink:href="#DejaVuSans-3a" x="63.623047"/>
       <use xlink:href="#DejaVuSans-30" x="97.314453"/>
       <use xlink:href="#DejaVuSans-34" x="160.9375"/>
       <use xlink:href="#DejaVuSans-3a" x="224.560547"/>
       <use xlink:href="#DejaVuSans-30" x="258.251953"/>
       <use xlink:href="#DejaVuSans-38" x="321.875"/>
      </g>
     </g>
    </g>
    <g id="xtick_10">
     <g id="line2d_10">
      <g>
       <use xlink:href="#m39f08a9444" x="560.423671" y="256.32" style="stroke: #000000; stroke-width: 0.8"/>
      </g>
     </g>
     <g id="text_10">
      <!-- 0:04:39 -->
      <g transform="translate(541.148671 270.918437) scale(0.1 -0.1)">
       <defs>
        <path id="DejaVuSans-39" d="M 703 97 
L 703 672 
Q 941 559 1184 500 
Q 1428 441 1663 441 
Q 2288 441 2617 861 
Q 2947 1281 2994 2138 
Q 2813 1869 2534 1725 
Q 2256 1581 1919 1581 
Q 1219 1581 811 2004 
Q 403 2428 403 3163 
Q 403 3881 828 4315 
Q 1253 4750 1959 4750 
Q 2769 4750 3195 4129 
Q 3622 3509 3622 2328 
Q 3622 1225 3098 567 
Q 2575 -91 1691 -91 
Q 1453 -91 1209 -44 
Q 966 3 703 97 
z
M 1959 2075 
Q 2384 2075 2632 2365 
Q 2881 2656 2881 3163 
Q 2881 3666 2632 3958 
Q 2384 4250 1959 4250 
Q 1534 4250 1286 3958 
Q 1038 3666 1038 3163 
Q 1038 2656 1286 2365 
Q 1534 2075 1959 2075 
z
" transform="scale(0.015625)"/>
       </defs>
       <use xlink:href="#DejaVuSans-30"/>
       <use xlink:href="#DejaVuSans-3a" x="63.623047"/>
       <use xlink:href="#DejaVuSans-30" x="97.314453"/>
       <use xlink:href="#DejaVuSans-34" x="160.9375"/>
       <use xlink:href="#DejaVuSans-3a" x="224.560547"/>
       <use xlink:href="#DejaVuSans-33" x="258.251953"/>
       <use xlink:href="#DejaVuSans-39" x="321.875"/>
      </g>
     </g>
    </g>
    <g id="xtick_11">
     <g id="line2d_11">
      <g>
       <use xlink:href="#m39f08a9444" x="609.874786" y="256.32" style="stroke: #000000; stroke-width: 0.8"/>
      </g>
     </g>
     <g id="text_11">
      <!-- 0:05:10 -->
      <g transform="translate(590.599786 270.918437) scale(0.1 -0.1)">
       <use xlink:href="#DejaVuSans-30"/>
       <use xlink:href="#DejaVuSans-3a" x="63.623047"/>
       <use xlink:href="#DejaVuSans-30" x="97.314453"/>
       <use xlink:href="#DejaVuSans-35" x="160.9375"/>
       <use xlink:href="#DejaVuSans-3a" x="224.560547"/>
       <use xlink:href="#DejaVuSans-31" x="258.251953"/>
       <use xlink:href="#DejaVuSans-30" x="321.875"/>
      </g>
     </g>
    </g>
    <g id="text_12">
     <!-- Time -->
     <g transform="translate(356.766406 284.596563) scale(0.1 -0.1)">
      <defs>
       <path id="DejaVuSans-54" d="M -19 4666 
L 3928 4666 
L 3928 4134 
L 2272 4134 
L 2272 0 
L 1638 0 
L 1638 4134 
L -19 4134 
L -19 4666 
z
" transform="scale(0.015625)"/>
       <path id="DejaVuSans-69" d="M 603 3500 
L 1178 3500 
L 1178 0 
L 603 0 
L 603 3500 
z
M 603 4863 
L 1178 4863 
L 1178 4134 
L 603 4134 
L 603 4863 
z
" transform="scale(0.015625)"/>
       <path id="DejaVuSans-6d" d="M 3328 2828 
Q 3544 3216 3844 3400 
Q 4144 3584 4550 3584 
Q 5097 3584 5394 3201 
Q 5691 2819 5691 2113 
L 5691 0 
L 5113 0 
L 5113 2094 
Q 5113 2597 4934 2840 
Q 4756 3084 4391 3084 
Q 3944 3084 3684 2787 
Q 3425 2491 3425 1978 
L 3425 0 
L 2847 0 
L 2847 2094 
Q 2847 2600 2669 2842 
Q 2491 3084 2119 3084 
Q 1678 3084 1418 2786 
Q 1159 2488 1159 1978 
L 1159 0 
L 581 0 
L 581 3500 
L 1159 3500 
L 1159 2956 
Q 1356 3278 1631 3431 
Q 1906 3584 2284 3584 
Q 2666 3584 2933 3390 
Q 3200 3197 3328 2828 
z
" transform="scale(0.015625)"/>
       <path id="DejaVuSans-65" d="M 3597 1894 
L 3597 1613 
L 953 1613 
Q 991 1019 1311 708 
Q 1631 397 2203 397 
Q 2534 397 2845 478 
Q 3156 559 3463 722 
L 3463 178 
Q 3153 47 2828 -22 
Q 2503 -91 2169 -91 
Q 1331 -91 842 396 
Q 353 884 353 1716 
Q 353 2575 817 3079 
Q 1281 3584 2069 3584 
Q 2775 3584 3186 3129 
Q 3597 2675 3597 1894 
z
M 3022 2063 
Q 3016 2534 2758 2815 
Q 2500 3097 2075 3097 
Q 1594 3097 1305 2825 
Q 1016 2553 972 2059 
L 3022 2063 
z
" transform="scale(0.015625)"/>
      </defs>
      <use xlink:href="#DejaVuSans-54"/>
      <use xlink:href="#DejaVuSans-69" x="57.958984"/>
      <use xlink:href="#DejaVuSans-6d" x="85.742188"/>
      <use xlink:href="#DejaVuSans-65" x="183.154297"/>
     </g>
    </g>
   </g>
   <g id="matplotlib.axis_2">
    <g id="ytick_1">
     <g id="line2d_12">
      <path d="M 90 246.24 
L 648 246.24 
" clip-path="url(#p5594cb6037)" style="fill: none; stroke: #b0b0b0; stroke-width: 0.8; stroke-linecap: square"/>
     </g>
     <g id="line2d_13">
      <defs>
       <path id="m9af50de933" d="M 0 0 
L -3.5 0 
" style="stroke: #000000; stroke-width: 0.8"/>
      </defs>
      <g>
       <use xlink:href="#m9af50de933" x="90" y="246.24" style="stroke: #000000; stroke-width: 0.8"/>
      </g>
     </g>
     <g id="text_13">
      <!-- 0 -->
      <g transform="translate(76.6375 250.039219) scale(0.1 -0.1)">
       <use xlink:href="#DejaVuSans-30"/>
      </g>
     </g>
    </g>
    <g id="ytick_2">
     <g id="line2d_14">
      <path d="M 90 197.720144 
L 648 197.720144 
" clip-path="url(#p5594cb6037)" style="fill: none; stroke: #b0b0b0; stroke-width: 0.8; stroke-linecap: square"/>
     </g>
     <g id="line2d_15">
      <g>
       <use xlink:href="#m9af50de933" x="90" y="197.720144" style="stroke: #000000; stroke-width: 0.8"/>
      </g>
     </g>
     <g id="text_14">
      <!-- 1,000 -->
      <g transform="translate(54.371875 201.519363) scale(0.1 -0.1)">
       <defs>
        <path id="DejaVuSans-2c" d="M 750 794 
L 1409 794 
L 1409 256 
L 897 -744 
L 494 -744 
L 750 256 
L 750 794 
z
" transform="scale(0.015625)"/>
       </defs>
       <use xlink:href="#DejaVuSans-31"/>
       <use xlink:href="#DejaVuSans-2c" x="63.623047"/>
       <use xlink:href="#DejaVuSans-30" x="95.410156"/>
       <use xlink:href="#DejaVuSans-30" x="159.033203"/>
       <use xlink:href="#DejaVuSans-30" x="222.65625"/>
      </g>
     </g>
    </g>
    <g id="ytick_3">
     <g id="line2d_16">
      <path d="M 90 149.200289 
L 648 149.200289 
" clip-path="url(#p5594cb6037)" style="fill: none; stroke: #b0b0b0; stroke-width: 0.8; stroke-linecap: square"/>
     </g>
     <g id="line2d_17">
      <g>
       <use xlink:href="#m9af50de933" x="90" y="149.200289" style="stroke: #000000; stroke-width: 0.8"/>
      </g>
     </g>
     <g id="text_15">
      <!-- 2,000 -->
      <g transform="translate(54.371875 152.999508) scale(0.1 -0.1)">
       <use xlink:href="#DejaVuSans-32"/>
       <use xlink:href="#DejaVuSans-2c" x="63.623047"/>
       <use xlink:href="#DejaVuSans-30" x="95.410156"/>
       <use xlink:href="#DejaVuSans-30" x="159.033203"/>
       <use xlink:href="#DejaVuSans-30" x="222.65625"/>
      </g>
     </g>
    </g>
    <g id="ytick_4">
     <g id="line2d_18">
      <path d="M 90 100.680433 
L 648 100.680433 
" clip-path="url(#p5594cb6037)" style="fill: none; stroke: #b0b0b0; stroke-width: 0.8; stroke-linecap: square"/>
     </g>
     <g id="line2d_19">
      <g>
       <use xlink:href="#m9af50de933" x="90" y="100.680433" style="stroke: #000000; stroke-width: 0.8"/>
      </g>
     </g>
     <g id="text_16">
      <!-- 3,000 -->
      <g transform="translate(54.371875 104.479652) scale(0.1 -0.1)">
       <use xlink:href="#DejaVuSans-33"/>
       <use xlink:href="#DejaVuSans-2c" x="63.623047"/>
       <use xlink:href="#DejaVuSans-30" x="95.410156"/>
       <use xlink:href="#DejaVuSans-30" x="159.033203"/>
       <use xlink:href="#DejaVuSans-30" x="222.65625"/>
      </g>
     </g>
    </g>
    <g id="ytick_5">
     <g id="line2d_20">
      <path d="M 90 52.160578 
L 648 52.160578 
" clip-path="url(#p5594cb6037)" style="fill: none; stroke: #b0b0b0; stroke-width: 0.8; stroke-linecap: square"/>
     </g>
     <g id="line2d_21">
      <g>
       <use xlink:href="#m9af50de933" x="90" y="52.160578" style="stroke: #000000; stroke-width: 0.8"/>
      </g>
     </g>
     <g id="text_17">
      <!-- 4,000 -->
      <g transform="translate(54.371875 55.959796) scale(0.1 -0.1)">
       <use xlink:href="#DejaVuSans-34"/>
       <use xlink:href="#DejaVuSans-2c" x="63.623047"/>
       <use xlink:href="#DejaVuSans-30" x="95.410156"/>
       <use xlink:href="#DejaVuSans-30" x="159.033203"/>
       <use xlink:href="#DejaVuSans-30" x="222.65625"/>
      </g>
     </g>
    </g>
    <g id="text_18">
     <!-- Bitrate (kbit/s) -->
     <g transform="translate(48.292187 181.574375) rotate(-90) scale(0.1 -0.1)">
      <defs>
       <path id="DejaVuSans-42" d="M 1259 2228 
L 1259 519 
L 2272 519 
Q 2781 519 3026 730 
Q 3272 941 3272 1375 
Q 3272 1813 3026 2020 
Q 2781 2228 2272 2228 
L 1259 2228 
z
M 1259 4147 
L 1259 2741 
L 2194 2741 
Q 2656 2741 2882 2914 
Q 3109 3088 3109 3444 
Q 3109 3797 2882 3972 
Q 2656 4147 2194 4147 
L 1259 4147 
z
M 628 4666 
L 2241 4666 
Q 2963 4666 3353 4366 
Q 3744 4066 3744 3513 
Q 3744 3084 3544 2831 
Q 3344 2578 2956 2516 
Q 3422 2416 3680 2098 
Q 3938 1781 3938 1306 
Q 3938 681 3513 340 
Q 3088 0 2303 0 
L 628 0 
L 628 4666 
z
" transform="scale(0.015625)"/>
       <path id="DejaVuSans-74" d="M 1172 4494 
L 1172 3500 
L 2356 3500 
L 2356 3053 
L 1172 3053 
L 1172 1153 
Q 1172 725 1289 603 
Q 1406 481 1766 481 
L 2356 481 
L 2356 0 
L 1766 0 
Q 1100 0 847 248 
Q 594 497 594 1153 
L 594 3053 
L 172 3053 
L 172 3500 
L 594 3500 
L 594 4494 
L 1172 4494 
z
" transform="scale(0.015625)"/>
       <path id="DejaVuSans-72" d="M 2631 2963 
Q 2534 3019 2420 3045 
Q 2306 3072 2169 3072 
Q 1681 3072 1420 2755 
Q 1159 2438 1159 1844 
L 1159 0 
L 581 0 
L 581 3500 
L 1159 3500 
L 1159 2956 
Q 1341 3275 1631 3429 
Q 1922 3584 2338 3584 
Q 2397 3584 2469 3576 
Q 2541 3569 2628 3553 
L 2631 2963 
z
" transform="scale(0.015625)"/>
       <path id="DejaVuSans-61" d="M 2194 1759 
Q 1497 1759 1228 1600 
Q 959 1441 959 1056 
Q 959 750 1161 570 
Q 1363 391 1709 391 
Q 2188 391 2477 730 
Q 2766 1069 2766 1631 
L 2766 1759 
L 2194 1759 
z
M 3341 1997 
L 3341 0 
L 2766 0 
L 2766 531 
Q 2569 213 2275 61 
Q 1981 -91 1556 -91 
Q 1019 -91 701 211 
Q 384 513 384 1019 
Q 384 1609 779 1909 
Q 1175 2209 1959 2209 
L 2766 2209 
L 2766 2266 
Q 2766 2663 2505 2880 
Q 2244 3097 1772 3097 
Q 1472 3097 1187 3025 
Q 903 2953 641 2809 
L 641 3341 
Q 956 3463 1253 3523 
Q 1550 3584 1831 3584 
Q 2591 3584 2966 3190 
Q 3341 2797 3341 1997 
z
" transform="scale(0.015625)"/>
       <path id="DejaVuSans-20" transform="scale(0.015625)"/>
       <path id="DejaVuSans-28" d="M 1984 4856 
Q 1566 4138 1362 3434 
Q 1159 2731 1159 2009 
Q 1159 1288 1364 580 
Q 1569 -128 1984 -844 
L 1484 -844 
Q 1016 -109 783 600 
Q 550 1309 550 2009 
Q 550 2706 781 3412 
Q 1013 4119 1484 4856 
L 1984 4856 
z
" transform="scale(0.015625)"/>
       <path id="DejaVuSans-6b" d="M 581 4863 
L 1159 4863 
L 1159 1991 
L 2875 3500 
L 3609 3500 
L 1753 1863 
L 3688 0 
L 2938 0 
L 1159 1709 
L 1159 0 
L 581 0 
L 581 4863 
z
" transform="scale(0.015625)"/>
       <path id="DejaVuSans-62" d="M 3116 1747 
Q 3116 2381 2855 2742 
Q 2594 3103 2138 3103 
Q 1681 3103 1420 2742 
Q 1159 2381 1159 1747 
Q 1159 1113 1420 752 
Q 1681 391 2138 391 
Q 2594 391 2855 752 
Q 3116 1113 3116 1747 
z
M 1159 2969 
Q 1341 3281 1617 3432 
Q 1894 3584 2278 3584 
Q 2916 3584 3314 3078 
Q 3713 2572 3713 1747 
Q 3713 922 3314 415 
Q 2916 -91 2278 -91 
Q 1894 -91 1617 61 
Q 1341 213 1159 525 
L 1159 0 
L 581 0 
L 581 4863 
L 1159 4863 
L 1159 2969 
z
" transform="scale(0.015625)"/>
       <path id="DejaVuSans-2f" d="M 1625 4666 
L 2156 4666 
L 531 -594 
L 0 -594 
L 1625 4666 
z
" transform="scale(0.015625)"/>
       <path id="DejaVuSans-73" d="M 2834 3397 
L 2834 2853 
Q 2591 2978 2328 3040 
Q 2066 3103 1784 3103 
Q 1356 3103 1142 2972 
Q 928 2841 928 2578 
Q 928 2378 1081 2264 
Q 1234 2150 1697 2047 
L 1894 2003 
Q 2506 1872 2764 1633 
Q 3022 1394 3022 966 
Q 3022 478 2636 193 
Q 2250 -91 1575 -91 
Q 1294 -91 989 -36 
Q 684 19 347 128 
L 347 722 
Q 666 556 975 473 
Q 1284 391 1588 391 
Q 1994 391 2212 530 
Q 2431 669 2431 922 
Q 2431 1156 2273 1281 
Q 2116 1406 1581 1522 
L 1381 1569 
Q 847 1681 609 1914 
Q 372 2147 372 2553 
Q 372 3047 722 3315 
Q 1072 3584 1716 3584 
Q 2034 3584 2315 3537 
Q 2597 3491 2834 3397 
z
" transform="scale(0.015625)"/>
       <path id="DejaVuSans-29" d="M 513 4856 
L 1013 4856 
Q 1481 4119 1714 3412 
Q 1947 2706 1947 2009 
Q 1947 1309 1714 600 
Q 1481 -109 1013 -844 
L 513 -844 
Q 928 -128 1133 580 
Q 1338 1288 1338 2009 
Q 1338 2731 1133 3434 
Q 928 4138 513 4856 
z
" transform="scale(0.015625)"/>
      </defs>
      <use xlink:href="#DejaVuSans-42"/>
      <use xlink:href="#DejaVuSans-69" x="68.603516"/>
      <use xlink:href="#DejaVuSans-74" x="96.386719"/>
      <use xlink:href="#DejaVuSans-72" x="135.595703"/>
      <use xlink:href="#DejaVuSans-61" x="176.708984"/>
      <use xlink:href="#DejaVuSans-74" x="237.988281"/>
      <use xlink:href="#DejaVuSans-65" x="277.197266"/>
      <use xlink:href="#DejaVuSans-20" x="338.720703"/>
      <use xlink:href="#DejaVuSans-28" x="370.507812"/>
      <use xlink:href="#DejaVuSans-6b" x="409.521484"/>
      <use xlink:href="#DejaVuSans-62" x="467.431641"/>
      <use xlink:href="#DejaVuSans-69" x="530.908203"/>
      <use xlink:href="#DejaVuSans-74" x="558.691406"/>
      <use xlink:href="#DejaVuSans-2f" x="597.900391"/>
      <use xlink:href="#DejaVuSans-73" x="631.591797"/>
      <use xlink:href="#DejaVuSans-29" x="683.691406"/>
     </g>
    </g>
   </g>
   <g id="PolyCollection_1">
    <defs>
     <path id="m27cbacd45e" d="M 115.363636 -44.040433 
L 115.363636 -41.76 
L 116.958834 -41.76 
L 118.554031 -41.76 
L 120.149228 -41.76 
L 121.744425 -41.76 
L 123.339623 -41.76 
L 124.93482 -41.76 
L 126.530017 -41.76 
L 128.125214 -41.76 
L 129.720412 -41.76 
L 131.315609 -41.76 
L 132.910806 -41.76 
L 134.506003 -41.76 
L 136.101201 -41.76 
L 137.696398 -41.76 
L 139.291595 -41.76 
L 140.886792 -41.76 
L 142.48199 -41.76 
L 144.077187 -41.76 
L 145.672384 -41.76 
L 147.267581 -41.76 
L 148.862779 -41.76 
L 150.457976 -41.76 
L 152.053173 -41.76 
L 153.64837 -41.76 
L 155.243568 -41.76 
L 156.838765 -41.76 
L 158.433962 -41.76 
L 160.02916 -41.76 
L 161.624357 -41.76 
L 163.219554 -41.76 
L 164.814751 -41.76 
L 166.409949 -41.76 
L 168.005146 -41.76 
L 169.600343 -41.76 
L 171.19554 -41.76 
L 172.790738 -41.76 
L 174.385935 -41.76 
L 175.981132 -41.76 
L 177.576329 -41.76 
L 179.171527 -41.76 
L 180.766724 -41.76 
L 182.361921 -41.76 
L 183.957118 -41.76 
L 185.552316 -41.76 
L 187.147513 -41.76 
L 188.74271 -41.76 
L 190.337907 -41.76 
L 191.933105 -41.76 
L 193.528302 -41.76 
L 195.123499 -41.76 
L 196.718696 -41.76 
L 198.313894 -41.76 
L 199.909091 -41.76 
L 201.504288 -41.76 
L 203.099485 -41.76 
L 204.694683 -41.76 
L 206.28988 -41.76 
L 207.885077 -41.76 
L 209.480274 -41.76 
L 211.075472 -41.76 
L 212.670669 -41.76 
L 214.265866 -41.76 
L 215.861063 -41.76 
L 217.456261 -41.76 
L 219.051458 -41.76 
L 220.646655 -41.76 
L 222.241852 -41.76 
L 223.83705 -41.76 
L 225.432247 -41.76 
L 227.027444 -41.76 
L 228.622642 -41.76 
L 230.217839 -41.76 
L 231.813036 -41.76 
L 233.408233 -41.76 
L 235.003431 -41.76 
L 236.598628 -41.76 
L 238.193825 -41.76 
L 239.789022 -41.76 
L 241.38422 -41.76 
L 242.979417 -41.76 
L 244.574614 -41.76 
L 246.169811 -41.76 
L 247.765009 -41.76 
L 249.360206 -41.76 
L 250.955403 -41.76 
L 252.5506 -41.76 
L 254.145798 -41.76 
L 255.740995 -41.76 
L 257.336192 -41.76 
L 258.931389 -41.76 
L 260.526587 -41.76 
L 262.121784 -41.76 
L 263.716981 -41.76 
L 265.312178 -41.76 
L 266.907376 -41.76 
L 268.502573 -41.76 
L 270.09777 -41.76 
L 271.692967 -41.76 
L 273.288165 -41.76 
L 274.883362 -41.76 
L 276.478559 -41.76 
L 278.073756 -41.76 
L 279.668954 -41.76 
L 281.264151 -41.76 
L 282.859348 -41.76 
L 284.454545 -41.76 
L 286.049743 -41.76 
L 287.64494 -41.76 
L 289.240137 -41.76 
L 290.835334 -41.76 
L 292.430532 -41.76 
L 294.025729 -41.76 
L 295.620926 -41.76 
L 297.216123 -41.76 
L 298.811321 -41.76 
L 300.406518 -41.76 
L 302.001715 -41.76 
L 303.596913 -41.76 
L 305.19211 -41.76 
L 306.787307 -41.76 
L 308.382504 -41.76 
L 309.977702 -41.76 
L 311.572899 -41.76 
L 313.168096 -41.76 
L 314.763293 -41.76 
L 316.358491 -41.76 
L 317.953688 -41.76 
L 319.548885 -41.76 
L 321.144082 -41.76 
L 322.73928 -41.76 
L 324.334477 -41.76 
L 325.929674 -41.76 
L 327.524871 -41.76 
L 329.120069 -41.76 
L 330.715266 -41.76 
L 332.310463 -41.76 
L 333.90566 -41.76 
L 335.500858 -41.76 
L 337.096055 -41.76 
L 338.691252 -41.76 
L 340.286449 -41.76 
L 341.881647 -41.76 
L 343.476844 -41.76 
L 345.072041 -41.76 
L 346.667238 -41.76 
L 348.262436 -41.76 
L 349.857633 -41.76 
L 351.45283 -41.76 
L 353.048027 -41.76 
L 354.643225 -41.76 
L 356.238422 -41.76 
L 357.833619 -41.76 
L 359.428816 -41.76 
L 361.024014 -41.76 
L 362.619211 -41.76 
L 364.214408 -41.76 
L 365.809605 -41.76 
L 367.404803 -41.76 
L 369 -41.76 
L 370.595197 -41.76 
L 372.190395 -41.76 
L 373.785592 -41.76 
L 375.380789 -41.76 
L 376.975986 -41.76 
L 378.571184 -41.76 
L 380.166381 -41.76 
L 381.761578 -41.76 
L 383.356775 -41.76 
L 384.951973 -41.76 
L 386.54717 -41.76 
L 388.142367 -41.76 
L 389.737564 -41.76 
L 391.332762 -41.76 
L 392.927959 -41.76 
L 394.523156 -41.76 
L 396.118353 -41.76 
L 397.713551 -41.76 
L 399.308748 -41.76 
L 400.903945 -41.76 
L 402.499142 -41.76 
L 404.09434 -41.76 
L 405.689537 -41.76 
L 407.284734 -41.76 
L 408.879931 -41.76 
L 410.475129 -41.76 
L 412.070326 -41.76 
L 413.665523 -41.76 
L 415.26072 -41.76 
L 416.855918 -41.76 
L 418.451115 -41.76 
L 420.046312 -41.76 
L 421.641509 -41.76 
L 423.236707 -41.76 
L 424.831904 -41.76 
L 426.427101 -41.76 
L 428.022298 -41.76 
L 429.617496 -41.76 
L 431.212693 -41.76 
L 432.80789 -41.76 
L 434.403087 -41.76 
L 435.998285 -41.76 
L 437.593482 -41.76 
L 439.188679 -41.76 
L 440.783877 -41.76 
L 442.379074 -41.76 
L 443.974271 -41.76 
L 445.569468 -41.76 
L 447.164666 -41.76 
L 448.759863 -41.76 
L 450.35506 -41.76 
L 451.950257 -41.76 
L 453.545455 -41.76 
L 455.140652 -41.76 
L 456.735849 -41.76 
L 458.331046 -41.76 
L 459.926244 -41.76 
L 461.521441 -41.76 
L 463.116638 -41.76 
L 464.711835 -41.76 
L 466.307033 -41.76 
L 467.90223 -41.76 
L 469.497427 -41.76 
L 471.092624 -41.76 
L 472.687822 -41.76 
L 474.283019 -41.76 
L 475.878216 -41.76 
L 477.473413 -41.76 
L 479.068611 -41.76 
L 480.663808 -41.76 
L 482.259005 -41.76 
L 483.854202 -41.76 
L 485.4494 -41.76 
L 487.044597 -41.76 
L 488.639794 -41.76 
L 490.234991 -41.76 
L 491.830189 -41.76 
L 493.425386 -41.76 
L 495.020583 -41.76 
L 496.61578 -41.76 
L 498.210978 -41.76 
L 499.806175 -41.76 
L 501.401372 -41.76 
L 502.996569 -41.76 
L 504.591767 -41.76 
L 506.186964 -41.76 
L 507.782161 -41.76 
L 509.377358 -41.76 
L 510.972556 -41.76 
L 512.567753 -41.76 
L 514.16295 -41.76 
L 515.758148 -41.76 
L 517.353345 -41.76 
L 518.948542 -41.76 
L 520.543739 -41.76 
L 522.138937 -41.76 
L 523.734134 -41.76 
L 525.329331 -41.76 
L 526.924528 -41.76 
L 528.519726 -41.76 
L 530.114923 -41.76 
L 531.71012 -41.76 
L 533.305317 -41.76 
L 534.900515 -41.76 
L 536.495712 -41.76 
L 538.090909 -41.76 
L 539.686106 -41.76 
L 541.281304 -41.76 
L 542.876501 -41.76 
L 544.471698 -41.76 
L 546.066895 -41.76 
L 547.662093 -41.76 
L 549.25729 -41.76 
L 550.852487 -41.76 
L 552.447684 -41.76 
L 554.042882 -41.76 
L 555.638079 -41.76 
L 557.233276 -41.76 
L 558.828473 -41.76 
L 560.423671 -41.76 
L 562.018868 -41.76 
L 563.614065 -41.76 
L 565.209262 -41.76 
L 566.80446 -41.76 
L 568.399657 -41.76 
L 569.994854 -41.76 
L 571.590051 -41.76 
L 573.185249 -41.76 
L 574.780446 -41.76 
L 576.375643 -41.76 
L 577.97084 -41.76 
L 579.566038 -41.76 
L 581.161235 -41.76 
L 582.756432 -41.76 
L 584.35163 -41.76 
L 585.946827 -41.76 
L 587.542024 -41.76 
L 589.137221 -41.76 
L 590.732419 -41.76 
L 592.327616 -41.76 
L 593.922813 -41.76 
L 595.51801 -41.76 
L 597.113208 -41.76 
L 598.708405 -41.76 
L 600.303602 -41.76 
L 601.898799 -41.76 
L 603.493997 -41.76 
L 605.089194 -41.76 
L 606.684391 -41.76 
L 608.279588 -41.76 
L 609.874786 -41.76 
L 611.469983 -41.76 
L 613.06518 -41.76 
L 614.660377 -41.76 
L 616.255575 -41.76 
L 617.850772 -41.76 
L 619.445969 -41.76 
L 621.041166 -41.76 
L 622.636364 -41.76 
L 622.636364 -41.76 
L 622.636364 -41.76 
L 621.041166 -41.76 
L 619.445969 -41.76 
L 617.850772 -41.76 
L 616.255575 -72.230469 
L 614.660377 -41.76 
L 613.06518 -41.76 
L 611.469983 -41.76 
L 609.874786 -41.76 
L 608.279588 -47.242744 
L 606.684391 -41.76 
L 605.089194 -41.76 
L 603.493997 -41.76 
L 601.898799 -41.76 
L 600.303602 -50.542094 
L 598.708405 -41.76 
L 597.113208 -41.76 
L 595.51801 -41.76 
L 593.922813 -41.76 
L 592.327616 -41.76 
L 590.732419 -51.075812 
L 589.137221 -41.76 
L 587.542024 -41.76 
L 585.946827 -41.76 
L 584.35163 -41.76 
L 582.756432 -55.539639 
L 581.161235 -41.76 
L 579.566038 -41.76 
L 577.97084 -41.76 
L 576.375643 -41.76 
L 574.780446 -49.037978 
L 573.185249 -41.76 
L 571.590051 -41.76 
L 569.994854 -41.76 
L 568.399657 -41.76 
L 566.80446 -41.76 
L 565.209262 -51.85213 
L 563.614065 -41.76 
L 562.018868 -41.76 
L 560.423671 -41.76 
L 558.828473 -41.76 
L 557.233276 -48.019061 
L 555.638079 -41.76 
L 554.042882 -41.76 
L 552.447684 -41.76 
L 550.852487 -41.76 
L 549.25729 -52.143249 
L 547.662093 -41.76 
L 546.066895 -41.76 
L 544.471698 -41.76 
L 542.876501 -41.76 
L 541.281304 -41.76 
L 539.686106 -53.841444 
L 538.090909 -41.76 
L 536.495712 -41.76 
L 534.900515 -41.76 
L 533.305317 -41.76 
L 531.71012 -46.903105 
L 530.114923 -41.76 
L 528.519726 -41.76 
L 526.924528 -41.76 
L 525.329331 -41.76 
L 523.734134 -54.035523 
L 522.138937 -41.76 
L 520.543739 -41.76 
L 518.948542 -41.76 
L 517.353345 -41.76 
L 515.758148 -41.76 
L 514.16295 -52.046209 
L 512.567753 -41.76 
L 510.972556 -41.76 
L 509.377358 -41.76 
L 507.782161 -41.76 
L 506.186964 -58.40231 
L 504.591767 -41.76 
L 502.996569 -41.76 
L 501.401372 -41.76 
L 499.806175 -41.76 
L 498.210978 -54.714801 
L 496.61578 -41.76 
L 495.020583 -41.76 
L 493.425386 -41.76 
L 491.830189 -41.76 
L 490.234991 -41.76 
L 488.639794 -52.725487 
L 487.044597 -41.76 
L 485.4494 -41.76 
L 483.854202 -41.76 
L 482.259005 -41.76 
L 480.663808 -46.660505 
L 479.068611 -41.76 
L 477.473413 -41.76 
L 475.878216 -41.76 
L 474.283019 -41.76 
L 472.687822 -52.434368 
L 471.092624 -41.76 
L 469.497427 -41.76 
L 467.90223 -41.76 
L 466.307033 -41.76 
L 464.711835 -41.76 
L 463.116638 -48.649819 
L 461.521441 -41.76 
L 459.926244 -41.76 
L 458.331046 -41.76 
L 456.735849 -41.76 
L 455.140652 -48.989458 
L 453.545455 -41.76 
L 451.950257 -41.76 
L 450.35506 -41.76 
L 448.759863 -41.76 
L 447.164666 -53.065126 
L 445.569468 -41.76 
L 443.974271 -41.76 
L 442.379074 -41.76 
L 440.783877 -41.76 
L 439.188679 -41.76 
L 437.593482 -54.423682 
L 435.998285 -41.76 
L 434.403087 -41.76 
L 432.80789 -41.76 
L 431.212693 -41.76 
L 429.617496 -54.084043 
L 428.022298 -41.76 
L 426.427101 -41.76 
L 424.831904 -41.76 
L 423.236707 -41.76 
L 421.641509 -50.736173 
L 420.046312 -41.76 
L 418.451115 -41.76 
L 416.855918 -41.76 
L 415.26072 -41.76 
L 413.665523 -41.76 
L 412.070326 -54.520722 
L 410.475129 -41.76 
L 408.879931 -41.76 
L 407.284734 -41.76 
L 405.689537 -41.76 
L 404.09434 -51.415451 
L 402.499142 -41.76 
L 400.903945 -41.76 
L 399.308748 -41.76 
L 397.713551 -41.76 
L 396.118353 -65.825848 
L 394.523156 -41.76 
L 392.927959 -41.76 
L 391.332762 -41.76 
L 389.737564 -41.76 
L 388.142367 -41.76 
L 386.54717 -57.043755 
L 384.951973 -41.76 
L 383.356775 -41.76 
L 381.761578 -41.76 
L 380.166381 -41.76 
L 378.571184 -46.854585 
L 376.975986 -41.76 
L 375.380789 -41.76 
L 373.785592 -41.76 
L 372.190395 -41.76 
L 370.595197 -48.40722 
L 369 -41.76 
L 367.404803 -41.76 
L 365.809605 -41.76 
L 364.214408 -41.76 
L 362.619211 -41.76 
L 361.024014 -52.822527 
L 359.428816 -41.76 
L 357.833619 -41.76 
L 356.238422 -41.76 
L 354.643225 -41.76 
L 353.048027 -70.483755 
L 351.45283 -41.76 
L 349.857633 -41.76 
L 348.262436 -41.76 
L 346.667238 -41.76 
L 345.072041 -49.717256 
L 343.476844 -41.76 
L 341.881647 -41.76 
L 340.286449 -41.76 
L 338.691252 -41.76 
L 337.096055 -41.76 
L 335.500858 -48.746859 
L 333.90566 -41.76 
L 332.310463 -41.76 
L 330.715266 -41.76 
L 329.120069 -41.76 
L 327.524871 -50.056895 
L 325.929674 -41.76 
L 324.334477 -41.76 
L 322.73928 -41.76 
L 321.144082 -41.76 
L 319.548885 -51.318412 
L 317.953688 -41.76 
L 316.358491 -41.76 
L 314.763293 -41.76 
L 313.168096 -41.76 
L 311.572899 -41.76 
L 309.977702 -53.695884 
L 308.382504 -41.76 
L 306.787307 -41.76 
L 305.19211 -41.76 
L 303.596913 -41.76 
L 302.001715 -58.159711 
L 300.406518 -41.76 
L 298.811321 -41.76 
L 297.216123 -41.76 
L 295.620926 -41.76 
L 294.025729 -56.073357 
L 292.430532 -41.76 
L 290.835334 -41.76 
L 289.240137 -41.76 
L 287.64494 -41.76 
L 286.049743 -41.76 
L 284.454545 -51.269892 
L 282.859348 -41.76 
L 281.264151 -41.76 
L 279.668954 -41.76 
L 278.073756 -41.76 
L 276.478559 -66.408087 
L 274.883362 -41.76 
L 273.288165 -41.76 
L 271.692967 -41.76 
L 270.09777 -41.76 
L 268.502573 -64.515812 
L 266.907376 -41.76 
L 265.312178 -41.76 
L 263.716981 -41.76 
L 262.121784 -41.76 
L 260.526587 -41.76 
L 258.931389 -49.086498 
L 257.336192 -41.76 
L 255.740995 -41.76 
L 254.145798 -41.76 
L 252.5506 -41.76 
L 250.955403 -53.598845 
L 249.360206 -41.76 
L 247.765009 -41.76 
L 246.169811 -41.76 
L 244.574614 -41.76 
L 242.979417 -51.172852 
L 241.38422 -41.76 
L 239.789022 -41.76 
L 238.193825 -41.76 
L 236.598628 -41.76 
L 235.003431 -41.76 
L 233.408233 -51.609531 
L 231.813036 -41.76 
L 230.217839 -41.76 
L 228.622642 -41.76 
L 227.027444 -41.76 
L 225.432247 -47.048664 
L 223.83705 -41.76 
L 222.241852 -41.76 
L 220.646655 -41.76 
L 219.051458 -41.76 
L 217.456261 -51.75509 
L 215.861063 -41.76 
L 214.265866 -41.76 
L 212.670669 -41.76 
L 211.075472 -41.76 
L 209.480274 -41.76 
L 207.885077 -50.202455 
L 206.28988 -41.76 
L 204.694683 -41.76 
L 203.099485 -41.76 
L 201.504288 -41.76 
L 199.909091 -50.250975 
L 198.313894 -41.76 
L 196.718696 -41.76 
L 195.123499 -41.76 
L 193.528302 -41.76 
L 191.933105 -60.343105 
L 190.337907 -41.76 
L 188.74271 -41.76 
L 187.147513 -41.76 
L 185.552316 -41.76 
L 183.957118 -41.76 
L 182.361921 -46.757545 
L 180.766724 -41.76 
L 179.171527 -41.76 
L 177.576329 -41.76 
L 175.981132 -41.76 
L 174.385935 -56.607076 
L 172.790738 -41.76 
L 171.19554 -41.76 
L 169.600343 -41.76 
L 168.005146 -41.76 
L 166.409949 -44.331552 
L 164.814751 -41.76 
L 163.219554 -41.76 
L 161.624357 -41.76 
L 160.02916 -41.76 
L 158.433962 -41.76 
L 156.838765 -44.283032 
L 155.243568 -41.76 
L 153.64837 -41.76 
L 152.053173 -41.76 
L 150.457976 -41.76 
L 148.862779 -53.210686 
L 147.267581 -41.76 
L 145.672384 -41.76 
L 144.077187 -41.76 
L 142.48199 -41.76 
L 140.886792 -45.690108 
L 139.291595 -41.76 
L 137.696398 -41.76 
L 136.101201 -41.76 
L 134.506003 -41.76 
L 132.910806 -41.76 
L 131.315609 -49.280578 
L 129.720412 -41.76 
L 128.125214 -41.76 
L 126.530017 -41.76 
L 124.93482 -41.76 
L 123.339623 -44.622671 
L 121.744425 -41.76 
L 120.149228 -41.76 
L 118.554031 -41.76 
L 116.958834 -41.76 
L 115.363636 -44.040433 
z
" style="stroke: #ff0000; stroke-width: 0.5"/>
    </defs>
    <g clip-path="url(#p5594cb6037)">
     <use xlink:href="#m27cbacd45e" x="0" y="288" style="fill: #ff0000; stroke: #ff0000; stroke-width: 0.5"/>
    </g>
   </g>
   <g id="PolyCollection_2">
    <defs>
     <path id="m66906c60da" d="M 115.363636 -45.01083 
L 115.363636 -44.040433 
L 116.958834 -41.76 
L 118.554031 -41.76 
L 120.149228 -41.76 
L 121.744425 -41.76 
L 123.339623 -44.622671 
L 124.93482 -41.76 
L 126.530017 -41.76 
L 128.125214 -41.76 
L 129.720412 -41.76 
L 131.315609 -49.280578 
L 132.910806 -41.76 
L 134.506003 -41.76 
L 136.101201 -41.76 
L 137.696398 -41.76 
L 139.291595 -41.76 
L 140.886792 -45.690108 
L 142.48199 -41.76 
L 144.077187 -41.76 
L 145.672384 -41.76 
L 147.267581 -41.76 
L 148.862779 -53.210686 
L 150.457976 -41.76 
L 152.053173 -41.76 
L 153.64837 -41.76 
L 155.243568 -41.76 
L 156.838765 -44.283032 
L 158.433962 -41.76 
L 160.02916 -41.76 
L 161.624357 -41.76 
L 163.219554 -41.76 
L 164.814751 -41.76 
L 166.409949 -44.331552 
L 168.005146 -41.76 
L 169.600343 -41.76 
L 171.19554 -41.76 
L 172.790738 -41.76 
L 174.385935 -56.607076 
L 175.981132 -41.76 
L 177.576329 -41.76 
L 179.171527 -41.76 
L 180.766724 -41.76 
L 182.361921 -46.757545 
L 183.957118 -41.76 
L 185.552316 -41.76 
L 187.147513 -41.76 
L 188.74271 -41.76 
L 190.337907 -41.76 
L 191.933105 -60.343105 
L 193.528302 -41.76 
L 195.123499 -41.76 
L 196.718696 -41.76 
L 198.313894 -41.76 
L 199.909091 -50.250975 
L 201.504288 -41.76 
L 203.099485 -41.76 
L 204.694683 -41.76 
L 206.28988 -41.76 
L 207.885077 -50.202455 
L 209.480274 -41.76 
L 211.075472 -41.76 
L 212.670669 -41.76 
L 214.265866 -41.76 
L 215.861063 -41.76 
L 217.456261 -51.75509 
L 219.051458 -41.76 
L 220.646655 -41.76 
L 222.241852 -41.76 
L 223.83705 -41.76 
L 225.432247 -47.048664 
L 227.027444 -41.76 
L 228.622642 -41.76 
L 230.217839 -41.76 
L 231.813036 -41.76 
L 233.408233 -51.609531 
L 235.003431 -41.76 
L 236.598628 -41.76 
L 238.193825 -41.76 
L 239.789022 -41.76 
L 241.38422 -41.76 
L 242.979417 -51.172852 
L 244.574614 -41.76 
L 246.169811 -41.76 
L 247.765009 -41.76 
L 249.360206 -41.76 
L 250.955403 -53.598845 
L 252.5506 -41.76 
L 254.145798 -41.76 
L 255.740995 -41.76 
L 257.336192 -41.76 
L 258.931389 -49.086498 
L 260.526587 -41.76 
L 262.121784 -41.76 
L 263.716981 -41.76 
L 265.312178 -41.76 
L 266.907376 -41.76 
L 268.502573 -64.515812 
L 270.09777 -41.76 
L 271.692967 -41.76 
L 273.288165 -41.76 
L 274.883362 -41.76 
L 276.478559 -66.408087 
L 278.073756 -41.76 
L 279.668954 -41.76 
L 281.264151 -41.76 
L 282.859348 -41.76 
L 284.454545 -51.269892 
L 286.049743 -41.76 
L 287.64494 -41.76 
L 289.240137 -41.76 
L 290.835334 -41.76 
L 292.430532 -41.76 
L 294.025729 -56.073357 
L 295.620926 -41.76 
L 297.216123 -41.76 
L 298.811321 -41.76 
L 300.406518 -41.76 
L 302.001715 -58.159711 
L 303.596913 -41.76 
L 305.19211 -41.76 
L 306.787307 -41.76 
L 308.382504 -41.76 
L 309.977702 -53.695884 
L 311.572899 -41.76 
L 313.168096 -41.76 
L 314.763293 -41.76 
L 316.358491 -41.76 
L 317.953688 -41.76 
L 319.548885 -51.318412 
L 321.144082 -41.76 
L 322.73928 -41.76 
L 324.334477 -41.76 
L 325.929674 -41.76 
L 327.524871 -50.056895 
L 329.120069 -41.76 
L 330.715266 -41.76 
L 332.310463 -41.76 
L 333.90566 -41.76 
L 335.500858 -48.746859 
L 337.096055 -41.76 
L 338.691252 -41.76 
L 340.286449 -41.76 
L 341.881647 -41.76 
L 343.476844 -41.76 
L 345.072041 -49.717256 
L 346.667238 -41.76 
L 348.262436 -41.76 
L 349.857633 -41.76 
L 351.45283 -41.76 
L 353.048027 -70.483755 
L 354.643225 -41.76 
L 356.238422 -41.76 
L 357.833619 -41.76 
L 359.428816 -41.76 
L 361.024014 -52.822527 
L 362.619211 -41.76 
L 364.214408 -41.76 
L 365.809605 -41.76 
L 367.404803 -41.76 
L 369 -41.76 
L 370.595197 -48.40722 
L 372.190395 -41.76 
L 373.785592 -41.76 
L 375.380789 -41.76 
L 376.975986 -41.76 
L 378.571184 -46.854585 
L 380.166381 -41.76 
L 381.761578 -41.76 
L 383.356775 -41.76 
L 384.951973 -41.76 
L 386.54717 -57.043755 
L 388.142367 -41.76 
L 389.737564 -41.76 
L 391.332762 -41.76 
L 392.927959 -41.76 
L 394.523156 -41.76 
L 396.118353 -65.825848 
L 397.713551 -41.76 
L 399.308748 -41.76 
L 400.903945 -41.76 
L 402.499142 -41.76 
L 404.09434 -51.415451 
L 405.689537 -41.76 
L 407.284734 -41.76 
L 408.879931 -41.76 
L 410.475129 -41.76 
L 412.070326 -54.520722 
L 413.665523 -41.76 
L 415.26072 -41.76 
L 416.855918 -41.76 
L 418.451115 -41.76 
L 420.046312 -41.76 
L 421.641509 -50.736173 
L 423.236707 -41.76 
L 424.831904 -41.76 
L 426.427101 -41.76 
L 428.022298 -41.76 
L 429.617496 -54.084043 
L 431.212693 -41.76 
L 432.80789 -41.76 
L 434.403087 -41.76 
L 435.998285 -41.76 
L 437.593482 -54.423682 
L 439.188679 -41.76 
L 440.783877 -41.76 
L 442.379074 -41.76 
L 443.974271 -41.76 
L 445.569468 -41.76 
L 447.164666 -53.065126 
L 448.759863 -41.76 
L 450.35506 -41.76 
L 451.950257 -41.76 
L 453.545455 -41.76 
L 455.140652 -48.989458 
L 456.735849 -41.76 
L 458.331046 -41.76 
L 459.926244 -41.76 
L 461.521441 -41.76 
L 463.116638 -48.649819 
L 464.711835 -41.76 
L 466.307033 -41.76 
L 467.90223 -41.76 
L 469.497427 -41.76 
L 471.092624 -41.76 
L 472.687822 -52.434368 
L 474.283019 -41.76 
L 475.878216 -41.76 
L 477.473413 -41.76 
L 479.068611 -41.76 
L 480.663808 -46.660505 
L 482.259005 -41.76 
L 483.854202 -41.76 
L 485.4494 -41.76 
L 487.044597 -41.76 
L 488.639794 -52.725487 
L 490.234991 -41.76 
L 491.830189 -41.76 
L 493.425386 -41.76 
L 495.020583 -41.76 
L 496.61578 -41.76 
L 498.210978 -54.714801 
L 499.806175 -41.76 
L 501.401372 -41.76 
L 502.996569 -41.76 
L 504.591767 -41.76 
L 506.186964 -58.40231 
L 507.782161 -41.76 
L 509.377358 -41.76 
L 510.972556 -41.76 
L 512.567753 -41.76 
L 514.16295 -52.046209 
L 515.758148 -41.76 
L 517.353345 -41.76 
L 518.948542 -41.76 
L 520.543739 -41.76 
L 522.138937 -41.76 
L 523.734134 -54.035523 
L 525.329331 -41.76 
L 526.924528 -41.76 
L 528.519726 -41.76 
L 530.114923 -41.76 
L 531.71012 -46.903105 
L 533.305317 -41.76 
L 534.900515 -41.76 
L 536.495712 -41.76 
L 538.090909 -41.76 
L 539.686106 -53.841444 
L 541.281304 -41.76 
L 542.876501 -41.76 
L 544.471698 -41.76 
L 546.066895 -41.76 
L 547.662093 -41.76 
L 549.25729 -52.143249 
L 550.852487 -41.76 
L 552.447684 -41.76 
L 554.042882 -41.76 
L 555.638079 -41.76 
L 557.233276 -48.019061 
L 558.828473 -41.76 
L 560.423671 -41.76 
L 562.018868 -41.76 
L 563.614065 -41.76 
L 565.209262 -51.85213 
L 566.80446 -41.76 
L 568.399657 -41.76 
L 569.994854 -41.76 
L 571.590051 -41.76 
L 573.185249 -41.76 
L 574.780446 -49.037978 
L 576.375643 -41.76 
L 577.97084 -41.76 
L 579.566038 -41.76 
L 581.161235 -41.76 
L 582.756432 -55.539639 
L 584.35163 -41.76 
L 585.946827 -41.76 
L 587.542024 -41.76 
L 589.137221 -41.76 
L 590.732419 -51.075812 
L 592.327616 -41.76 
L 593.922813 -41.76 
L 595.51801 -41.76 
L 597.113208 -41.76 
L 598.708405 -41.76 
L 600.303602 -50.542094 
L 601.898799 -41.76 
L 603.493997 -41.76 
L 605.089194 -41.76 
L 606.684391 -41.76 
L 608.279588 -47.242744 
L 609.874786 -41.76 
L 611.469983 -41.76 
L 613.06518 -41.76 
L 614.660377 -41.76 
L 616.255575 -72.230469 
L 617.850772 -41.76 
L 619.445969 -41.76 
L 621.041166 -41.76 
L 622.636364 -41.76 
L 622.636364 -41.76 
L 622.636364 -41.76 
L 621.041166 -42.730397 
L 619.445969 -42.730397 
L 617.850772 -42.778917 
L 616.255575 -73.200866 
L 614.660377 -43.312635 
L 613.06518 -42.778917 
L 611.469983 -42.730397 
L 609.874786 -46.417906 
L 608.279588 -52.725487 
L 606.684391 -45.981227 
L 605.089194 -46.320866 
L 603.493997 -46.611986 
L 601.898799 -63.739495 
L 600.303602 -76.451697 
L 598.708405 -67.815162 
L 597.113208 -63.254296 
L 595.51801 -55.394079 
L 593.922813 -55.976318 
L 592.327616 -55.15148 
L 590.732419 -65.049531 
L 589.137221 -57.383394 
L 587.542024 -55.976318 
L 585.946827 -53.550325 
L 584.35163 -54.472202 
L 582.756432 -69.950036 
L 581.161235 -57.286354 
L 579.566038 -56.315957 
L 577.97084 -58.062671 
L 576.375643 -55.491119 
L 574.780446 -78.441011 
L 573.185249 -68.057762 
L 571.590051 -62.138339 
L 569.994854 -71.793791 
L 568.399657 -74.947581 
L 566.80446 -74.704982 
L 565.209262 -80.964043 
L 563.614065 -59.372708 
L 562.018868 -57.528953 
L 560.423671 -52.774007 
L 558.828473 -69.901516 
L 557.233276 -66.553646 
L 555.638079 -61.119422 
L 554.042882 -66.553646 
L 552.447684 -67.135884 
L 550.852487 -55.15148 
L 549.25729 -62.283899 
L 547.662093 -55.927798 
L 546.066895 -68.882599 
L 544.471698 -65.34065 
L 542.876501 -54.520722 
L 541.281304 -58.014152 
L 539.686106 -67.038845 
L 538.090909 -54.666282 
L 536.495712 -57.286354 
L 534.900515 -57.286354 
L 533.305317 -60.051986 
L 531.71012 -66.262527 
L 530.114923 -63.545415 
L 528.519726 -69.901516 
L 526.924528 -71.405632 
L 525.329331 -81.449242 
L 523.734134 -95.42296 
L 522.138937 -83.972274 
L 520.543739 -90.765054 
L 518.948542 -79.508448 
L 517.353345 -84.214874 
L 515.758148 -63.982094 
L 514.16295 -69.222238 
L 512.567753 -70.241155 
L 510.972556 -76.063538 
L 509.377358 -59.518267 
L 507.782161 -113.375307 
L 506.186964 -137.004477 
L 504.591767 -116.723177 
L 502.996569 -92.511769 
L 501.401372 -96.732996 
L 499.806175 -55.24852 
L 498.210978 -59.227148 
L 496.61578 -54.957401 
L 495.020583 -45.10787 
L 493.425386 -50.687653 
L 491.830189 -49.377617 
L 490.234991 -47.388303 
L 488.639794 -57.092274 
L 487.044597 -45.301949 
L 485.4494 -43.797834 
L 483.854202 -44.428592 
L 482.259005 -50.250975 
L 480.663808 -49.620217 
L 479.068611 -44.477112 
L 477.473413 -55.733718 
L 475.878216 -63.448375 
L 474.283019 -60.246065 
L 472.687822 -71.502671 
L 471.092624 -59.130108 
L 469.497427 -44.234513 
L 467.90223 -42.778917 
L 466.307033 -42.778917 
L 464.711835 -42.778917 
L 463.116638 -49.668736 
L 461.521441 -42.778917 
L 459.926244 -42.778917 
L 458.331046 -44.331552 
L 456.735849 -42.778917 
L 455.140652 -52.337329 
L 453.545455 -46.951625 
L 451.950257 -47.679422 
L 450.35506 -43.312635 
L 448.759863 -42.972996 
L 447.164666 -54.472202 
L 445.569468 -42.972996 
L 443.974271 -42.924477 
L 442.379074 -47.291264 
L 440.783877 -47.533863 
L 439.188679 -47.145704 
L 437.593482 -55.394079 
L 435.998285 -42.730397 
L 434.403087 -42.827437 
L 432.80789 -44.331552 
L 431.212693 -43.603755 
L 429.617496 -59.227148 
L 428.022298 -44.671191 
L 426.427101 -44.768231 
L 424.831904 -52.191769 
L 423.236707 -44.96231 
L 421.641509 -54.520722 
L 420.046312 -49.717256 
L 418.451115 -49.086498 
L 416.855918 -42.924477 
L 415.26072 -44.719711 
L 413.665523 -47.048664 
L 412.070326 -56.364477 
L 410.475129 -44.768231 
L 408.879931 -44.477112 
L 407.284734 -45.884188 
L 405.689537 -46.951625 
L 404.09434 -55.927798 
L 402.499142 -44.525632 
L 400.903945 -42.730397 
L 399.308748 -42.730397 
L 397.713551 -42.778917 
L 396.118353 -67.038845 
L 394.523156 -42.827437 
L 392.927959 -42.730397 
L 391.332762 -42.730397 
L 389.737564 -42.730397 
L 388.142367 -42.730397 
L 386.54717 -59.372708 
L 384.951973 -47.436823 
L 383.356775 -45.690108 
L 381.761578 -45.884188 
L 380.166381 -48.55278 
L 378.571184 -55.879278 
L 376.975986 -52.676968 
L 375.380789 -46.126787 
L 373.785592 -43.943394 
L 372.190395 -43.797834 
L 370.595197 -50.736173 
L 369 -47.339783 
L 367.404803 -44.380072 
L 365.809605 -43.167076 
L 364.214408 -44.622671 
L 362.619211 -44.574152 
L 361.024014 -57.480433 
L 359.428816 -42.827437 
L 357.833619 -45.301949 
L 356.238422 -46.175307 
L 354.643225 -45.01083 
L 353.048027 -71.454152 
L 351.45283 -42.730397 
L 349.857633 -44.380072 
L 348.262436 -43.846354 
L 346.667238 -43.603755 
L 345.072041 -51.318412 
L 343.476844 -43.458195 
L 341.881647 -43.215596 
L 340.286449 -43.409675 
L 338.691252 -46.563466 
L 337.096055 -49.668736 
L 335.500858 -53.307726 
L 333.90566 -47.436823 
L 332.310463 -49.814296 
L 330.715266 -50.833213 
L 329.120069 -46.514946 
L 327.524871 -52.774007 
L 325.929674 -45.981227 
L 324.334477 -47.048664 
L 322.73928 -44.137473 
L 321.144082 -48.6013 
L 319.548885 -59.615307 
L 317.953688 -45.20491 
L 316.358491 -45.15639 
L 314.763293 -42.730397 
L 313.168096 -45.05935 
L 311.572899 -42.730397 
L 309.977702 -54.666282 
L 308.382504 -46.709025 
L 306.787307 -48.067581 
L 305.19211 -46.223827 
L 303.596913 -44.283032 
L 302.001715 -59.469747 
L 300.406518 -42.827437 
L 298.811321 -42.827437 
L 297.216123 -44.283032 
L 295.620926 -44.088953 
L 294.025729 -59.178628 
L 292.430532 -44.428592 
L 290.835334 -44.913791 
L 289.240137 -43.458195 
L 287.64494 -44.088953 
L 286.049743 -44.525632 
L 284.454545 -53.792924 
L 282.859348 -43.894874 
L 281.264151 -42.924477 
L 279.668954 -42.778917 
L 278.073756 -42.778917 
L 276.478559 -67.378484 
L 274.883362 -44.331552 
L 273.288165 -42.972996 
L 271.692967 -42.924477 
L 270.09777 -43.943394 
L 268.502573 -66.650686 
L 266.907376 -44.477112 
L 265.312178 -44.283032 
L 263.716981 -43.312635 
L 262.121784 -43.409675 
L 260.526587 -44.574152 
L 258.931389 -54.181083 
L 257.336192 -43.264116 
L 255.740995 -43.264116 
L 254.145798 -43.118556 
L 252.5506 -43.555235 
L 250.955403 -54.714801 
L 249.360206 -42.924477 
L 247.765009 -43.070036 
L 246.169811 -42.972996 
L 244.574614 -43.361155 
L 242.979417 -55.29704 
L 241.38422 -44.137473 
L 239.789022 -44.525632 
L 238.193825 -43.991913 
L 236.598628 -42.827437 
L 235.003431 -42.827437 
L 233.408233 -52.628448 
L 231.813036 -43.167076 
L 230.217839 -43.215596 
L 228.622642 -42.827437 
L 227.027444 -42.972996 
L 225.432247 -54.084043 
L 223.83705 -45.398989 
L 222.241852 -45.544549 
L 220.646655 -44.525632 
L 219.051458 -43.458195 
L 217.456261 -53.695884 
L 215.861063 -44.96231 
L 214.265866 -46.175307 
L 212.670669 -43.264116 
L 211.075472 -43.409675 
L 209.480274 -44.380072 
L 207.885077 -52.191769 
L 206.28988 -43.603755 
L 204.694683 -44.283032 
L 203.099485 -43.894874 
L 201.504288 -44.477112 
L 199.909091 -53.307726 
L 198.313894 -43.264116 
L 196.718696 -43.361155 
L 195.123499 -43.361155 
L 193.528302 -43.070036 
L 191.933105 -61.653141 
L 190.337907 -42.875957 
L 188.74271 -42.730397 
L 187.147513 -42.730397 
L 185.552316 -42.778917 
L 183.957118 -42.730397 
L 182.361921 -47.727942 
L 180.766724 -42.778917 
L 179.171527 -42.875957 
L 177.576329 -42.875957 
L 175.981132 -44.574152 
L 174.385935 -57.577473 
L 172.790738 -43.070036 
L 171.19554 -43.167076 
L 169.600343 -43.264116 
L 168.005146 -43.264116 
L 166.409949 -45.738628 
L 164.814751 -42.730397 
L 163.219554 -43.991913 
L 161.624357 -48.746859 
L 160.02916 -49.959856 
L 158.433962 -55.442599 
L 156.838765 -53.987004 
L 155.243568 -52.385848 
L 153.64837 -56.849675 
L 152.053173 -57.820072 
L 150.457976 -57.577473 
L 148.862779 -73.394946 
L 147.267581 -59.906426 
L 145.672384 -57.820072 
L 144.077187 -55.782238 
L 142.48199 -46.951625 
L 140.886792 -49.814296 
L 139.291595 -47.485343 
L 137.696398 -46.660505 
L 136.101201 -44.040433 
L 134.506003 -43.021516 
L 132.910806 -58.062671 
L 131.315609 -66.311047 
L 129.720412 -61.84722 
L 128.125214 -62.380939 
L 126.530017 -59.566787 
L 124.93482 -52.774007 
L 123.339623 -46.466426 
L 121.744425 -42.827437 
L 120.149228 -42.875957 
L 118.554031 -42.827437 
L 116.958834 -42.778917 
L 115.363636 -45.01083 
z
" style="stroke: #0000ff; stroke-width: 0.5"/>
    </defs>
    <g clip-path="url(#p5594cb6037)">
     <use xlink:href="#m66906c60da" x="0" y="288" style="fill: #0000ff; stroke: #0000ff; stroke-width: 0.5"/>
    </g>
   </g>
   <g id="PolyCollection_3">
    <defs>
     <path id="m1cc92502e3" d="M 115.363636 -45.593069 
L 115.363636 -45.01083 
L 116.958834 -42.778917 
L 118.554031 -42.827437 
L 120.149228 -42.875957 
L 121.744425 -42.827437 
L 123.339623 -46.466426 
L 124.93482 -52.774007 
L 126.530017 -59.566787 
L 128.125214 -62.380939 
L 129.720412 -61.84722 
L 131.315609 -66.311047 
L 132.910806 -58.062671 
L 134.506003 -43.021516 
L 136.101201 -44.040433 
L 137.696398 -46.660505 
L 139.291595 -47.485343 
L 140.886792 -49.814296 
L 142.48199 -46.951625 
L 144.077187 -55.782238 
L 145.672384 -57.820072 
L 147.267581 -59.906426 
L 148.862779 -73.394946 
L 150.457976 -57.577473 
L 152.053173 -57.820072 
L 153.64837 -56.849675 
L 155.243568 -52.385848 
L 156.838765 -53.987004 
L 158.433962 -55.442599 
L 160.02916 -49.959856 
L 161.624357 -48.746859 
L 163.219554 -43.991913 
L 164.814751 -42.730397 
L 166.409949 -45.738628 
L 168.005146 -43.264116 
L 169.600343 -43.264116 
L 171.19554 -43.167076 
L 172.790738 -43.070036 
L 174.385935 -57.577473 
L 175.981132 -44.574152 
L 177.576329 -42.875957 
L 179.171527 -42.875957 
L 180.766724 -42.778917 
L 182.361921 -47.727942 
L 183.957118 -42.730397 
L 185.552316 -42.778917 
L 187.147513 -42.730397 
L 188.74271 -42.730397 
L 190.337907 -42.875957 
L 191.933105 -61.653141 
L 193.528302 -43.070036 
L 195.123499 -43.361155 
L 196.718696 -43.361155 
L 198.313894 -43.264116 
L 199.909091 -53.307726 
L 201.504288 -44.477112 
L 203.099485 -43.894874 
L 204.694683 -44.283032 
L 206.28988 -43.603755 
L 207.885077 -52.191769 
L 209.480274 -44.380072 
L 211.075472 -43.409675 
L 212.670669 -43.264116 
L 214.265866 -46.175307 
L 215.861063 -44.96231 
L 217.456261 -53.695884 
L 219.051458 -43.458195 
L 220.646655 -44.525632 
L 222.241852 -45.544549 
L 223.83705 -45.398989 
L 225.432247 -54.084043 
L 227.027444 -42.972996 
L 228.622642 -42.827437 
L 230.217839 -43.215596 
L 231.813036 -43.167076 
L 233.408233 -52.628448 
L 235.003431 -42.827437 
L 236.598628 -42.827437 
L 238.193825 -43.991913 
L 239.789022 -44.525632 
L 241.38422 -44.137473 
L 242.979417 -55.29704 
L 244.574614 -43.361155 
L 246.169811 -42.972996 
L 247.765009 -43.070036 
L 249.360206 -42.924477 
L 250.955403 -54.714801 
L 252.5506 -43.555235 
L 254.145798 -43.118556 
L 255.740995 -43.264116 
L 257.336192 -43.264116 
L 258.931389 -54.181083 
L 260.526587 -44.574152 
L 262.121784 -43.409675 
L 263.716981 -43.312635 
L 265.312178 -44.283032 
L 266.907376 -44.477112 
L 268.502573 -66.650686 
L 270.09777 -43.943394 
L 271.692967 -42.924477 
L 273.288165 -42.972996 
L 274.883362 -44.331552 
L 276.478559 -67.378484 
L 278.073756 -42.778917 
L 279.668954 -42.778917 
L 281.264151 -42.924477 
L 282.859348 -43.894874 
L 284.454545 -53.792924 
L 286.049743 -44.525632 
L 287.64494 -44.088953 
L 289.240137 -43.458195 
L 290.835334 -44.913791 
L 292.430532 -44.428592 
L 294.025729 -59.178628 
L 295.620926 -44.088953 
L 297.216123 -44.283032 
L 298.811321 -42.827437 
L 300.406518 -42.827437 
L 302.001715 -59.469747 
L 303.596913 -44.283032 
L 305.19211 -46.223827 
L 306.787307 -48.067581 
L 308.382504 -46.709025 
L 309.977702 -54.666282 
L 311.572899 -42.730397 
L 313.168096 -45.05935 
L 314.763293 -42.730397 
L 316.358491 -45.15639 
L 317.953688 -45.20491 
L 319.548885 -59.615307 
L 321.144082 -48.6013 
L 322.73928 -44.137473 
L 324.334477 -47.048664 
L 325.929674 -45.981227 
L 327.524871 -52.774007 
L 329.120069 -46.514946 
L 330.715266 -50.833213 
L 332.310463 -49.814296 
L 333.90566 -47.436823 
L 335.500858 -53.307726 
L 337.096055 -49.668736 
L 338.691252 -46.563466 
L 340.286449 -43.409675 
L 341.881647 -43.215596 
L 343.476844 -43.458195 
L 345.072041 -51.318412 
L 346.667238 -43.603755 
L 348.262436 -43.846354 
L 349.857633 -44.380072 
L 351.45283 -42.730397 
L 353.048027 -71.454152 
L 354.643225 -45.01083 
L 356.238422 -46.175307 
L 357.833619 -45.301949 
L 359.428816 -42.827437 
L 361.024014 -57.480433 
L 362.619211 -44.574152 
L 364.214408 -44.622671 
L 365.809605 -43.167076 
L 367.404803 -44.380072 
L 369 -47.339783 
L 370.595197 -50.736173 
L 372.190395 -43.797834 
L 373.785592 -43.943394 
L 375.380789 -46.126787 
L 376.975986 -52.676968 
L 378.571184 -55.879278 
L 380.166381 -48.55278 
L 381.761578 -45.884188 
L 383.356775 -45.690108 
L 384.951973 -47.436823 
L 386.54717 -59.372708 
L 388.142367 -42.730397 
L 389.737564 -42.730397 
L 391.332762 -42.730397 
L 392.927959 -42.730397 
L 394.523156 -42.827437 
L 396.118353 -67.038845 
L 397.713551 -42.778917 
L 399.308748 -42.730397 
L 400.903945 -42.730397 
L 402.499142 -44.525632 
L 404.09434 -55.927798 
L 405.689537 -46.951625 
L 407.284734 -45.884188 
L 408.879931 -44.477112 
L 410.475129 -44.768231 
L 412.070326 -56.364477 
L 413.665523 -47.048664 
L 415.26072 -44.719711 
L 416.855918 -42.924477 
L 418.451115 -49.086498 
L 420.046312 -49.717256 
L 421.641509 -54.520722 
L 423.236707 -44.96231 
L 424.831904 -52.191769 
L 426.427101 -44.768231 
L 428.022298 -44.671191 
L 429.617496 -59.227148 
L 431.212693 -43.603755 
L 432.80789 -44.331552 
L 434.403087 -42.827437 
L 435.998285 -42.730397 
L 437.593482 -55.394079 
L 439.188679 -47.145704 
L 440.783877 -47.533863 
L 442.379074 -47.291264 
L 443.974271 -42.924477 
L 445.569468 -42.972996 
L 447.164666 -54.472202 
L 448.759863 -42.972996 
L 450.35506 -43.312635 
L 451.950257 -47.679422 
L 453.545455 -46.951625 
L 455.140652 -52.337329 
L 456.735849 -42.778917 
L 458.331046 -44.331552 
L 459.926244 -42.778917 
L 461.521441 -42.778917 
L 463.116638 -49.668736 
L 464.711835 -42.778917 
L 466.307033 -42.778917 
L 467.90223 -42.778917 
L 469.497427 -44.234513 
L 471.092624 -59.130108 
L 472.687822 -71.502671 
L 474.283019 -60.246065 
L 475.878216 -63.448375 
L 477.473413 -55.733718 
L 479.068611 -44.477112 
L 480.663808 -49.620217 
L 482.259005 -50.250975 
L 483.854202 -44.428592 
L 485.4494 -43.797834 
L 487.044597 -45.301949 
L 488.639794 -57.092274 
L 490.234991 -47.388303 
L 491.830189 -49.377617 
L 493.425386 -50.687653 
L 495.020583 -45.10787 
L 496.61578 -54.957401 
L 498.210978 -59.227148 
L 499.806175 -55.24852 
L 501.401372 -96.732996 
L 502.996569 -92.511769 
L 504.591767 -116.723177 
L 506.186964 -137.004477 
L 507.782161 -113.375307 
L 509.377358 -59.518267 
L 510.972556 -76.063538 
L 512.567753 -70.241155 
L 514.16295 -69.222238 
L 515.758148 -63.982094 
L 517.353345 -84.214874 
L 518.948542 -79.508448 
L 520.543739 -90.765054 
L 522.138937 -83.972274 
L 523.734134 -95.42296 
L 525.329331 -81.449242 
L 526.924528 -71.405632 
L 528.519726 -69.901516 
L 530.114923 -63.545415 
L 531.71012 -66.262527 
L 533.305317 -60.051986 
L 534.900515 -57.286354 
L 536.495712 -57.286354 
L 538.090909 -54.666282 
L 539.686106 -67.038845 
L 541.281304 -58.014152 
L 542.876501 -54.520722 
L 544.471698 -65.34065 
L 546.066895 -68.882599 
L 547.662093 -55.927798 
L 549.25729 -62.283899 
L 550.852487 -55.15148 
L 552.447684 -67.135884 
L 554.042882 -66.553646 
L 555.638079 -61.119422 
L 557.233276 -66.553646 
L 558.828473 -69.901516 
L 560.423671 -52.774007 
L 562.018868 -57.528953 
L 563.614065 -59.372708 
L 565.209262 -80.964043 
L 566.80446 -74.704982 
L 568.399657 -74.947581 
L 569.994854 -71.793791 
L 571.590051 -62.138339 
L 573.185249 -68.057762 
L 574.780446 -78.441011 
L 576.375643 -55.491119 
L 577.97084 -58.062671 
L 579.566038 -56.315957 
L 581.161235 -57.286354 
L 582.756432 -69.950036 
L 584.35163 -54.472202 
L 585.946827 -53.550325 
L 587.542024 -55.976318 
L 589.137221 -57.383394 
L 590.732419 -65.049531 
L 592.327616 -55.15148 
L 593.922813 -55.976318 
L 595.51801 -55.394079 
L 597.113208 -63.254296 
L 598.708405 -67.815162 
L 600.303602 -76.451697 
L 601.898799 -63.739495 
L 603.493997 -46.611986 
L 605.089194 -46.320866 
L 606.684391 -45.981227 
L 608.279588 -52.725487 
L 609.874786 -46.417906 
L 611.469983 -42.730397 
L 613.06518 -42.778917 
L 614.660377 -43.312635 
L 616.255575 -73.200866 
L 617.850772 -42.778917 
L 619.445969 -42.730397 
L 621.041166 -42.730397 
L 622.636364 -41.76 
L 622.636364 -41.80852 
L 622.636364 -41.80852 
L 621.041166 -47.485343 
L 619.445969 -43.409675 
L 617.850772 -76.209097 
L 616.255575 -73.928664 
L 614.660377 -108.765921 
L 613.06518 -65.777329 
L 611.469983 -74.802022 
L 609.874786 -105.175451 
L 608.279588 -83.681155 
L 606.684391 -60.876823 
L 605.089194 -63.788014 
L 603.493997 -97.848953 
L 601.898799 -112.25935 
L 600.303602 -131.473213 
L 598.708405 -128.028303 
L 597.113208 -127.106426 
L 595.51801 -114.151625 
L 593.922813 -119.10065 
L 592.327616 -117.159856 
L 590.732419 -130.988014 
L 589.137221 -119.440289 
L 587.542024 -126.669747 
L 585.946827 -121.138484 
L 584.35163 -110.900794 
L 582.756432 -129.775018 
L 581.161235 -123.612996 
L 579.566038 -120.750325 
L 577.97084 -116.626137 
L 576.375643 -103.913935 
L 574.780446 -133.268448 
L 573.185249 -125.262671 
L 571.590051 -117.062816 
L 569.994854 -124.049675 
L 568.399657 -125.505271 
L 566.80446 -125.456751 
L 565.209262 -132.34657 
L 563.614065 -130.939495 
L 562.018868 -123.807076 
L 560.423671 -117.062816 
L 558.828473 -130.502816 
L 557.233276 -135.597401 
L 555.638079 -114.006065 
L 554.042882 -124.195235 
L 552.447684 -123.224838 
L 550.852487 -120.265126 
L 549.25729 -115.60722 
L 547.662093 -120.459206 
L 546.066895 -123.224838 
L 544.471698 -125.311191 
L 542.876501 -113.326787 
L 541.281304 -115.510181 
L 539.686106 -135.69444 
L 538.090909 -98.673791 
L 536.495712 -109.299639 
L 534.900515 -96.296318 
L 533.305317 -95.859639 
L 531.71012 -86.786426 
L 530.114923 -87.126065 
L 528.519726 -109.639278 
L 526.924528 -108.91148 
L 525.329331 -148.164043 
L 523.734134 -162.283321 
L 522.138937 -174.801444 
L 520.543739 -166.844188 
L 518.948542 -156.655018 
L 517.353345 -169.221661 
L 515.758148 -164.515235 
L 514.16295 -173.976606 
L 512.567753 -164.418195 
L 510.972556 -169.41574 
L 509.377358 -163.690397 
L 507.782161 -227.348448 
L 506.186964 -243.36 
L 504.591767 -221.234946 
L 502.996569 -169.852419 
L 501.401372 -183.0013 
L 499.806175 -143.603177 
L 498.210978 -135.209242 
L 496.61578 -129.483899 
L 495.020583 -118.275812 
L 493.425386 -119.876968 
L 491.830189 -97.024116 
L 490.234991 -130.599856 
L 488.639794 -118.663971 
L 487.044597 -124.340794 
L 485.4494 -90.619495 
L 483.854202 -112.841588 
L 482.259005 -122.594079 
L 480.663808 -107.698484 
L 479.068611 -80.042166 
L 477.473413 -100.760144 
L 475.878216 -130.696895 
L 474.283019 -127.446065 
L 472.687822 -154.326065 
L 471.092624 -135.88852 
L 469.497427 -82.12852 
L 467.90223 -81.885921 
L 466.307033 -85.47639 
L 464.711835 -132.006931 
L 463.116638 -135.451841 
L 461.521441 -89.357978 
L 459.926244 -95.52 
L 458.331046 -53.016606 
L 456.735849 -56.170397 
L 455.140652 -88.72722 
L 453.545455 -72.909747 
L 451.950257 -78.149892 
L 450.35506 -59.130108 
L 448.759863 -51.80361 
L 447.164666 -86.786426 
L 445.569468 -54.278123 
L 443.974271 -68.009242 
L 442.379074 -76.985415 
L 440.783877 -80.915523 
L 439.188679 -91.686931 
L 437.593482 -67.766643 
L 435.998285 -49.862816 
L 434.403087 -68.445921 
L 432.80789 -84.942671 
L 431.212693 -89.697617 
L 429.617496 -115.995379 
L 428.022298 -120.653285 
L 426.427101 -142.63278 
L 424.831904 -156.02426 
L 423.236707 -151.608953 
L 421.641509 -116.868736 
L 420.046312 -86.980505 
L 418.451115 -82.371119 
L 416.855918 -47.533863 
L 415.26072 -64.952491 
L 413.665523 -89.843177 
L 412.070326 -92.26917 
L 410.475129 -75.917978 
L 408.879931 -80.624404 
L 407.284734 -95.762599 
L 405.689537 -98.091552 
L 404.09434 -94.889242 
L 402.499142 -52.094729 
L 400.903945 -43.312635 
L 399.308748 -43.361155 
L 397.713551 -56.073357 
L 396.118353 -107.989603 
L 394.523156 -46.320866 
L 392.927959 -44.768231 
L 391.332762 -47.291264 
L 389.737564 -51.027292 
L 388.142367 -65.34065 
L 386.54717 -102.797978 
L 384.951973 -111.968231 
L 383.356775 -103.234657 
L 381.761578 -107.019206 
L 380.166381 -103.331697 
L 378.571184 -110.706715 
L 376.975986 -93.627726 
L 375.380789 -86.737906 
L 373.785592 -78.295451 
L 372.190395 -72.812708 
L 370.595197 -91.978051 
L 369 -64.855451 
L 367.404803 -64.370253 
L 365.809605 -55.685199 
L 364.214408 -57.140794 
L 362.619211 -104.156534 
L 361.024014 -106.922166 
L 359.428816 -45.350469 
L 357.833619 -80.042166 
L 356.238422 -113.035668 
L 354.643225 -73.297906 
L 353.048027 -103.962455 
L 351.45283 -47.630903 
L 349.857633 -100.274946 
L 348.262436 -70.677834 
L 346.667238 -78.441011 
L 345.072041 -102.749458 
L 343.476844 -70.144116 
L 341.881647 -54.763321 
L 340.286449 -80.381805 
L 338.691252 -113.326787 
L 337.096055 -113.957545 
L 335.500858 -106.097329 
L 333.90566 -98.528231 
L 332.310463 -112.793069 
L 330.715266 -115.946859 
L 329.120069 -119.925487 
L 327.524871 -102.1187 
L 325.929674 -84.845632 
L 324.334477 -103.137617 
L 322.73928 -75.4813 
L 321.144082 -119.828448 
L 319.548885 -140.109747 
L 317.953688 -87.368664 
L 316.358491 -58.838989 
L 314.763293 -43.409675 
L 313.168096 -58.111191 
L 311.572899 -56.461516 
L 309.977702 -67.912202 
L 308.382504 -85.37935 
L 306.787307 -105.321011 
L 305.19211 -96.102238 
L 303.596913 -83.632635 
L 302.001715 -85.185271 
L 300.406518 -44.234513 
L 298.811321 -45.10787 
L 297.216123 -61.84722 
L 295.620926 -60.343105 
L 294.025729 -101.536462 
L 292.430532 -79.945126 
L 290.835334 -117.596534 
L 289.240137 -61.022383 
L 287.64494 -84.505993 
L 286.049743 -94.452563 
L 284.454545 -83.681155 
L 282.859348 -57.237834 
L 281.264151 -59.178628 
L 279.668954 -68.445921 
L 278.073756 -85.913069 
L 276.478559 -149.910758 
L 274.883362 -112.550469 
L 273.288165 -100.954224 
L 271.692967 -103.962455 
L 270.09777 -97.024116 
L 268.502573 -112.16231 
L 266.907376 -70.920433 
L 265.312178 -83.875235 
L 263.716981 -106.825126 
L 262.121784 -125.990469 
L 260.526587 -113.132708 
L 258.931389 -138.217473 
L 257.336192 -76.015018 
L 255.740995 -80.430325 
L 254.145798 -75.578339 
L 252.5506 -87.999422 
L 250.955403 -76.694296 
L 249.360206 -48.3587 
L 247.765009 -47.970542 
L 246.169811 -47.727942 
L 244.574614 -56.412996 
L 242.979417 -114.345704 
L 241.38422 -76.306137 
L 239.789022 -74.462383 
L 238.193825 -66.116968 
L 236.598628 -52.046209 
L 235.003431 -52.337329 
L 233.408233 -68.348881 
L 231.813036 -51.561011 
L 230.217839 -47.533863 
L 228.622642 -46.514946 
L 227.027444 -51.70657 
L 225.432247 -118.663971 
L 223.83705 -73.103827 
L 222.241852 -77.810253 
L 220.646655 -73.637545 
L 219.051458 -77.810253 
L 217.456261 -78.63509 
L 215.861063 -64.903971 
L 214.265866 -92.366209 
L 212.670669 -93.482166 
L 211.075472 -107.067726 
L 209.480274 -117.111336 
L 207.885077 -115.849819 
L 206.28988 -97.363755 
L 204.694683 -98.81935 
L 203.099485 -96.538917 
L 201.504288 -107.261805 
L 199.909091 -128.756101 
L 198.313894 -64.515812 
L 196.718696 -65.680289 
L 195.123499 -66.311047 
L 193.528302 -63.011697 
L 191.933105 -100.129386 
L 190.337907 -79.751047 
L 188.74271 -45.835668 
L 187.147513 -66.747726 
L 185.552316 -78.68361 
L 183.957118 -53.792924 
L 182.361921 -74.413863 
L 180.766724 -60.391625 
L 179.171527 -59.033069 
L 177.576329 -60.294585 
L 175.981132 -84.069314 
L 174.385935 -85.47639 
L 172.790738 -51.318412 
L 171.19554 -53.501805 
L 169.600343 -59.421227 
L 168.005146 -61.119422 
L 166.409949 -94.986282 
L 164.814751 -44.428592 
L 163.219554 -58.887509 
L 161.624357 -79.023249 
L 160.02916 -86.155668 
L 158.433962 -96.878556 
L 156.838765 -96.150758 
L 155.243568 -114.636823 
L 153.64837 -113.229747 
L 152.053173 -116.626137 
L 150.457976 -116.286498 
L 148.862779 -150.687076 
L 147.267581 -123.612996 
L 145.672384 -115.70426 
L 144.077187 -124.923032 
L 142.48199 -106.339928 
L 140.886792 -106.145848 
L 139.291595 -90.231336 
L 137.696398 -94.112924 
L 136.101201 -87.174585 
L 134.506003 -74.753502 
L 132.910806 -112.550469 
L 131.315609 -141.904982 
L 129.720412 -136.325199 
L 128.125214 -135.112202 
L 126.530017 -137.732274 
L 124.93482 -121.089964 
L 123.339623 -102.3613 
L 121.744425 -54.666282 
L 120.149228 -45.05935 
L 118.554031 -45.01083 
L 116.958834 -54.375162 
L 115.363636 -45.593069 
z
" style="stroke: #008000; stroke-width: 0.5"/>
    </defs>
    <g clip-path="url(#p5594cb6037)">
     <use xlink:href="#m1cc92502e3" x="0" y="288" style="fill: #008000; stroke: #008000; stroke-width: 0.5"/>
    </g>
   </g>
   <g id="line2d_22">
    <path d="M 90 44.64 
L 648 44.64 
" clip-path="url(#p5594cb6037)" style="fill: none; stroke: #000000; stroke-width: 1.5; stroke-linecap: square"/>
   </g>
   <g id="line2d_23">
    <path d="M 90 191.800722 
L 648 191.800722 
" clip-path="url(#p5594cb6037)" style="fill: none; stroke: #000000; stroke-width: 1.5; stroke-linecap: square"/>
   </g>
   <g id="patch_3">
    <path d="M 90 256.32 
L 90 34.56 
" style="fill: none; stroke: #000000; stroke-width: 0.8; stroke-linejoin: miter; stroke-linecap: square"/>
   </g>
   <g id="patch_4">
    <path d="M 648 256.32 
L 648 34.56 
" style="fill: none; stroke: #000000; stroke-width: 0.8; stroke-linejoin: miter; stroke-linecap: square"/>
   </g>
   <g id="patch_5">
    <path d="M 90 256.32 
L 648 256.32 
" style="fill: none; stroke: #000000; stroke-width: 0.8; stroke-linejoin: miter; stroke-linecap: square"/>
   </g>
   <g id="patch_6">
    <path d="M 90 34.56 
L 648 34.56 
" style="fill: none; stroke: #000000; stroke-width: 0.8; stroke-linejoin: miter; stroke-linecap: square"/>
   </g>
   <g id="text_19">
    <!-- peak (4,155) -->
    <g transform="translate(122.179233 41.3136) scale(0.1 -0.1)">
     <defs>
      <path id="DejaVuSans-Bold-70" d="M 1656 506 
L 1656 -1331 
L 538 -1331 
L 538 3500 
L 1656 3500 
L 1656 2988 
Q 1888 3294 2169 3439 
Q 2450 3584 2816 3584 
Q 3463 3584 3878 3070 
Q 4294 2556 4294 1747 
Q 4294 938 3878 423 
Q 3463 -91 2816 -91 
Q 2450 -91 2169 54 
Q 1888 200 1656 506 
z
M 2400 2772 
Q 2041 2772 1848 2508 
Q 1656 2244 1656 1747 
Q 1656 1250 1848 986 
Q 2041 722 2400 722 
Q 2759 722 2948 984 
Q 3138 1247 3138 1747 
Q 3138 2247 2948 2509 
Q 2759 2772 2400 2772 
z
" transform="scale(0.015625)"/>
      <path id="DejaVuSans-Bold-65" d="M 4031 1759 
L 4031 1441 
L 1416 1441 
Q 1456 1047 1700 850 
Q 1944 653 2381 653 
Q 2734 653 3104 758 
Q 3475 863 3866 1075 
L 3866 213 
Q 3469 63 3072 -14 
Q 2675 -91 2278 -91 
Q 1328 -91 801 392 
Q 275 875 275 1747 
Q 275 2603 792 3093 
Q 1309 3584 2216 3584 
Q 3041 3584 3536 3087 
Q 4031 2591 4031 1759 
z
M 2881 2131 
Q 2881 2450 2695 2645 
Q 2509 2841 2209 2841 
Q 1884 2841 1681 2658 
Q 1478 2475 1428 2131 
L 2881 2131 
z
" transform="scale(0.015625)"/>
      <path id="DejaVuSans-Bold-61" d="M 2106 1575 
Q 1756 1575 1579 1456 
Q 1403 1338 1403 1106 
Q 1403 894 1545 773 
Q 1688 653 1941 653 
Q 2256 653 2472 879 
Q 2688 1106 2688 1447 
L 2688 1575 
L 2106 1575 
z
M 3816 1997 
L 3816 0 
L 2688 0 
L 2688 519 
Q 2463 200 2181 54 
Q 1900 -91 1497 -91 
Q 953 -91 614 226 
Q 275 544 275 1050 
Q 275 1666 698 1953 
Q 1122 2241 2028 2241 
L 2688 2241 
L 2688 2328 
Q 2688 2594 2478 2717 
Q 2269 2841 1825 2841 
Q 1466 2841 1156 2769 
Q 847 2697 581 2553 
L 581 3406 
Q 941 3494 1303 3539 
Q 1666 3584 2028 3584 
Q 2975 3584 3395 3211 
Q 3816 2838 3816 1997 
z
" transform="scale(0.015625)"/>
      <path id="DejaVuSans-Bold-6b" d="M 538 4863 
L 1656 4863 
L 1656 2216 
L 2944 3500 
L 4244 3500 
L 2534 1894 
L 4378 0 
L 3022 0 
L 1656 1459 
L 1656 0 
L 538 0 
L 538 4863 
z
" transform="scale(0.015625)"/>
      <path id="DejaVuSans-Bold-20" transform="scale(0.015625)"/>
      <path id="DejaVuSans-Bold-28" d="M 2413 -844 
L 1484 -844 
Q 1006 -72 778 623 
Q 550 1319 550 2003 
Q 550 2688 779 3389 
Q 1009 4091 1484 4856 
L 2413 4856 
Q 2013 4116 1813 3408 
Q 1613 2700 1613 2009 
Q 1613 1319 1811 609 
Q 2009 -100 2413 -844 
z
" transform="scale(0.015625)"/>
      <path id="DejaVuSans-Bold-34" d="M 2356 3675 
L 1038 1722 
L 2356 1722 
L 2356 3675 
z
M 2156 4666 
L 3494 4666 
L 3494 1722 
L 4159 1722 
L 4159 850 
L 3494 850 
L 3494 0 
L 2356 0 
L 2356 850 
L 288 850 
L 288 1881 
L 2156 4666 
z
" transform="scale(0.015625)"/>
      <path id="DejaVuSans-Bold-2c" d="M 653 1209 
L 1778 1209 
L 1778 256 
L 1006 -909 
L 341 -909 
L 653 256 
L 653 1209 
z
" transform="scale(0.015625)"/>
      <path id="DejaVuSans-Bold-31" d="M 750 831 
L 1813 831 
L 1813 3847 
L 722 3622 
L 722 4441 
L 1806 4666 
L 2950 4666 
L 2950 831 
L 4013 831 
L 4013 0 
L 750 0 
L 750 831 
z
" transform="scale(0.015625)"/>
      <path id="DejaVuSans-Bold-35" d="M 678 4666 
L 3669 4666 
L 3669 3781 
L 1638 3781 
L 1638 3059 
Q 1775 3097 1914 3117 
Q 2053 3138 2203 3138 
Q 3056 3138 3531 2711 
Q 4006 2284 4006 1522 
Q 4006 766 3489 337 
Q 2972 -91 2053 -91 
Q 1656 -91 1267 -14 
Q 878 63 494 219 
L 494 1166 
Q 875 947 1217 837 
Q 1559 728 1863 728 
Q 2300 728 2551 942 
Q 2803 1156 2803 1522 
Q 2803 1891 2551 2103 
Q 2300 2316 1863 2316 
Q 1603 2316 1309 2248 
Q 1016 2181 678 2041 
L 678 4666 
z
" transform="scale(0.015625)"/>
      <path id="DejaVuSans-Bold-29" d="M 513 -844 
Q 913 -100 1113 609 
Q 1313 1319 1313 2009 
Q 1313 2700 1113 3408 
Q 913 4116 513 4856 
L 1441 4856 
Q 1916 4091 2145 3389 
Q 2375 2688 2375 2003 
Q 2375 1319 2147 623 
Q 1919 -72 1441 -844 
L 513 -844 
z
" transform="scale(0.015625)"/>
     </defs>
     <use xlink:href="#DejaVuSans-Bold-70"/>
     <use xlink:href="#DejaVuSans-Bold-65" x="71.582031"/>
     <use xlink:href="#DejaVuSans-Bold-61" x="139.404297"/>
     <use xlink:href="#DejaVuSans-Bold-6b" x="206.884766"/>
     <use xlink:href="#DejaVuSans-Bold-20" x="273.388672"/>
     <use xlink:href="#DejaVuSans-Bold-28" x="308.203125"/>
     <use xlink:href="#DejaVuSans-Bold-34" x="353.90625"/>
     <use xlink:href="#DejaVuSans-Bold-2c" x="423.486328"/>
     <use xlink:href="#DejaVuSans-Bold-31" x="461.474609"/>
     <use xlink:href="#DejaVuSans-Bold-35" x="531.054688"/>
     <use xlink:href="#DejaVuSans-Bold-35" x="600.634766"/>
     <use xlink:href="#DejaVuSans-Bold-29" x="670.214844"/>
    </g>
   </g>
   <g id="text_20">
    <!-- mean (1,122) -->
    <g transform="translate(567.728153 188.474322) scale(0.1 -0.1)">
     <defs>
      <path id="DejaVuSans-Bold-6d" d="M 3781 2919 
Q 3994 3244 4286 3414 
Q 4578 3584 4928 3584 
Q 5531 3584 5847 3212 
Q 6163 2841 6163 2131 
L 6163 0 
L 5038 0 
L 5038 1825 
Q 5041 1866 5042 1909 
Q 5044 1953 5044 2034 
Q 5044 2406 4934 2573 
Q 4825 2741 4581 2741 
Q 4263 2741 4089 2478 
Q 3916 2216 3909 1719 
L 3909 0 
L 2784 0 
L 2784 1825 
Q 2784 2406 2684 2573 
Q 2584 2741 2328 2741 
Q 2006 2741 1831 2477 
Q 1656 2213 1656 1722 
L 1656 0 
L 531 0 
L 531 3500 
L 1656 3500 
L 1656 2988 
Q 1863 3284 2130 3434 
Q 2397 3584 2719 3584 
Q 3081 3584 3359 3409 
Q 3638 3234 3781 2919 
z
" transform="scale(0.015625)"/>
      <path id="DejaVuSans-Bold-6e" d="M 4056 2131 
L 4056 0 
L 2931 0 
L 2931 347 
L 2931 1631 
Q 2931 2084 2911 2256 
Q 2891 2428 2841 2509 
Q 2775 2619 2662 2680 
Q 2550 2741 2406 2741 
Q 2056 2741 1856 2470 
Q 1656 2200 1656 1722 
L 1656 0 
L 538 0 
L 538 3500 
L 1656 3500 
L 1656 2988 
Q 1909 3294 2193 3439 
Q 2478 3584 2822 3584 
Q 3428 3584 3742 3212 
Q 4056 2841 4056 2131 
z
" transform="scale(0.015625)"/>
      <path id="DejaVuSans-Bold-32" d="M 1844 884 
L 3897 884 
L 3897 0 
L 506 0 
L 506 884 
L 2209 2388 
Q 2438 2594 2547 2791 
Q 2656 2988 2656 3200 
Q 2656 3528 2436 3728 
Q 2216 3928 1850 3928 
Q 1569 3928 1234 3808 
Q 900 3688 519 3450 
L 519 4475 
Q 925 4609 1322 4679 
Q 1719 4750 2100 4750 
Q 2938 4750 3402 4381 
Q 3866 4013 3866 3353 
Q 3866 2972 3669 2642 
Q 3472 2313 2841 1759 
L 1844 884 
z
" transform="scale(0.015625)"/>
     </defs>
     <use xlink:href="#DejaVuSans-Bold-6d"/>
     <use xlink:href="#DejaVuSans-Bold-65" x="104.199219"/>
     <use xlink:href="#DejaVuSans-Bold-61" x="172.021484"/>
     <use xlink:href="#DejaVuSans-Bold-6e" x="239.501953"/>
     <use xlink:href="#DejaVuSans-Bold-20" x="310.693359"/>
     <use xlink:href="#DejaVuSans-Bold-28" x="345.507812"/>
     <use xlink:href="#DejaVuSans-Bold-31" x="391.210938"/>
     <use xlink:href="#DejaVuSans-Bold-2c" x="460.791016"/>
     <use xlink:href="#DejaVuSans-Bold-31" x="498.779297"/>
     <use xlink:href="#DejaVuSans-Bold-32" x="568.359375"/>
     <use xlink:href="#DejaVuSans-Bold-32" x="637.939453"/>
     <use xlink:href="#DejaVuSans-Bold-29" x="707.519531"/>
    </g>
   </g>
   <g id="text_21">
    <!-- Stream Bitrate over Time -->
    <g transform="translate(293.189062 28.56) scale(0.12 -0.12)">
     <defs>
      <path id="DejaVuSans-53" d="M 3425 4513 
L 3425 3897 
Q 3066 4069 2747 4153 
Q 2428 4238 2131 4238 
Q 1616 4238 1336 4038 
Q 1056 3838 1056 3469 
Q 1056 3159 1242 3001 
Q 1428 2844 1947 2747 
L 2328 2669 
Q 3034 2534 3370 2195 
Q 3706 1856 3706 1288 
Q 3706 609 3251 259 
Q 2797 -91 1919 -91 
Q 1588 -91 1214 -16 
Q 841 59 441 206 
L 441 856 
Q 825 641 1194 531 
Q 1563 422 1919 422 
Q 2459 422 2753 634 
Q 3047 847 3047 1241 
Q 3047 1584 2836 1778 
Q 2625 1972 2144 2069 
L 1759 2144 
Q 1053 2284 737 2584 
Q 422 2884 422 3419 
Q 422 4038 858 4394 
Q 1294 4750 2059 4750 
Q 2388 4750 2728 4690 
Q 3069 4631 3425 4513 
z
" transform="scale(0.015625)"/>
      <path id="DejaVuSans-6f" d="M 1959 3097 
Q 1497 3097 1228 2736 
Q 959 2375 959 1747 
Q 959 1119 1226 758 
Q 1494 397 1959 397 
Q 2419 397 2687 759 
Q 2956 1122 2956 1747 
Q 2956 2369 2687 2733 
Q 2419 3097 1959 3097 
z
M 1959 3584 
Q 2709 3584 3137 3096 
Q 3566 2609 3566 1747 
Q 3566 888 3137 398 
Q 2709 -91 1959 -91 
Q 1206 -91 779 398 
Q 353 888 353 1747 
Q 353 2609 779 3096 
Q 1206 3584 1959 3584 
z
" transform="scale(0.015625)"/>
      <path id="DejaVuSans-76" d="M 191 3500 
L 800 3500 
L 1894 563 
L 2988 3500 
L 3597 3500 
L 2284 0 
L 1503 0 
L 191 3500 
z
" transform="scale(0.015625)"/>
     </defs>
     <use xlink:href="#DejaVuSans-53"/>
     <use xlink:href="#DejaVuSans-74" x="63.476562"/>
     <use xlink:href="#DejaVuSans-72" x="102.685547"/>
     <use xlink:href="#DejaVuSans-65" x="141.548828"/>
     <use xlink:href="#DejaVuSans-61" x="203.072266"/>
     <use xlink:href="#DejaVuSans-6d" x="264.351562"/>
     <use xlink:href="#DejaVuSans-20" x="361.763672"/>
     <use xlink:href="#DejaVuSans-42" x="393.550781"/>
     <use xlink:href="#DejaVuSans-69" x="462.154297"/>
     <use xlink:href="#DejaVuSans-74" x="489.9375"/>
     <use xlink:href="#DejaVuSans-72" x="529.146484"/>
     <use xlink:href="#DejaVuSans-61" x="570.259766"/>
     <use xlink:href="#DejaVuSans-74" x="631.539062"/>
     <use xlink:href="#DejaVuSans-65" x="670.748047"/>
     <use xlink:href="#DejaVuSans-20" x="732.271484"/>
     <use xlink:href="#DejaVuSans-6f" x="764.058594"/>
     <use xlink:href="#DejaVuSans-76" x="825.240234"/>
     <use xlink:href="#DejaVuSans-65" x="884.419922"/>
     <use xlink:href="#DejaVuSans-72" x="945.943359"/>
     <use xlink:href="#DejaVuSans-20" x="987.056641"/>
     <use xlink:href="#DejaVuSans-54" x="1018.84375"/>
     <use xlink:href="#DejaVuSans-69" x="1076.802734"/>
     <use xlink:href="#DejaVuSans-6d" x="1104.585938"/>
     <use xlink:href="#DejaVuSans-65" x="1201.998047"/>
    </g>
   </g>
   <g id="legend_1">
    <g id="patch_7">
     <path d="M 602.139063 86.594375 
L 641 86.594375 
Q 643 86.594375 643 84.594375 
L 643 41.56 
Q 643 39.56 641 39.56 
L 602.139063 39.56 
Q 600.139063 39.56 600.139063 41.56 
L 600.139063 84.594375 
Q 600.139063 86.594375 602.139063 86.594375 
z
" style="fill: #ffffff; opacity: 0.8; stroke: #cccccc; stroke-linejoin: miter"/>
    </g>
    <g id="patch_8">
     <path d="M 604.139063 51.158438 
L 624.139063 51.158438 
L 624.139063 44.158438 
L 604.139063 44.158438 
z
" style="fill: #ff0000; stroke: #ff0000; stroke-width: 0.5; stroke-linejoin: miter"/>
    </g>
    <g id="text_22">
     <!-- I -->
     <g transform="translate(632.139063 51.158438) scale(0.1 -0.1)">
      <defs>
       <path id="DejaVuSans-49" d="M 628 4666 
L 1259 4666 
L 1259 0 
L 628 0 
L 628 4666 
z
" transform="scale(0.015625)"/>
      </defs>
      <use xlink:href="#DejaVuSans-49"/>
     </g>
    </g>
    <g id="patch_9">
     <path d="M 604.139063 65.836563 
L 624.139063 65.836563 
L 624.139063 58.836563 
L 604.139063 58.836563 
z
" style="fill: #0000ff; stroke: #0000ff; stroke-width: 0.5; stroke-linejoin: miter"/>
    </g>
    <g id="text_23">
     <!-- B -->
     <g transform="translate(632.139063 65.836563) scale(0.1 -0.1)">
      <use xlink:href="#DejaVuSans-42"/>
     </g>
    </g>
    <g id="patch_10">
     <path d="M 604.139063 80.514688 
L 624.139063 80.514688 
L 624.139063 73.514688 
L 604.139063 73.514688 
z
" style="fill: #008000; stroke: #008000; stroke-width: 0.5; stroke-linejoin: miter"/>
    </g>
    <g id="text_24">
     <!-- P -->
     <g transform="translate(632.139063 80.514688) scale(0.1 -0.1)">
      <defs>
       <path id="DejaVuSans-50" d="M 1259 4147 
L 1259 2394 
L 2053 2394 
Q 2494 2394 2734 2622 
Q 2975 2850 2975 3272 
Q 2975 3691 2734 3919 
Q 2494 4147 2053 4147 
L 1259 4147 
z
M 628 4666 
L 2053 4666 
Q 2838 4666 3239 4311 
Q 3641 3956 3641 3272 
Q 3641 2581 3239 2228 
Q 2838 1875 2053 1875 
L 1259 1875 
L 1259 0 
L 628 0 
L 628 4666 
z
" transform="scale(0.015625)"/>
      </defs>
      <use xlink:href="#DejaVuSans-50"/>
     </g>
    </g>
   </g>
  </g>
 </g>
 <defs>
  <clipPath id="p5594cb6037">
   <rect x="90" y="34.56" width="558" height="221.76"/>
  </clipPath>
 </defs>
</svg>
