<?xml version="1.0" encoding="utf-8" standalone="no"?>
<!DOCTYPE svg PUBLIC "-//W3C//DTD SVG 1.1//EN"
  "http://www.w3.org/Graphics/SVG/1.1/DTD/svg11.dtd">
<svg xmlns:xlink="http://www.w3.org/1999/xlink" width="720pt" height="288pt" viewBox="0 0 720 288" xmlns="http://www.w3.org/2000/svg" version="1.1">
 <metadata>
  <rdf:RDF xmlns:dc="http://purl.org/dc/elements/1.1/" xmlns:cc="http://creativecommons.org/ns#" xmlns:rdf="http://www.w3.org/1999/02/22-rdf-syntax-ns#">
   <cc:Work>
    <dc:type rdf:resource="http://purl.org/dc/dcmitype/StillImage"/>
    <dc:date>2023-05-07T13:52:43.213682</dc:date>
    <dc:format>image/svg+xml</dc:format>
    <dc:creator>
     <cc:Agent>
      <dc:title>Matplotlib v3.7.1, https://matplotlib.org/</dc:title>
     </cc:Agent>
    </dc:creator>
   </cc:Work>
  </rdf:RDF>
 </metadata>
 <defs>
  <style type="text/css">*{stroke-linejoin: round; stroke-linecap: butt}</style>
 </defs>
 <g id="figure_1">
  <g id="patch_1">
   <path d="M 0 288 
L 720 288 
L 720 0 
L 0 0 
z
" style="fill: #ffffff"/>
  </g>
  <g id="axes_1">
   <g id="patch_2">
    <path d="M 90 256.32 
L 648 256.32 
L 648 34.56 
L 90 34.56 
z
" style="fill: #ffffff"/>
   </g>
   <g id="matplotlib.axis_1">
    <g id="xtick_1">
     <g id="line2d_1">
      <defs>
       <path id="m934206126b" d="M 0 0 
L 0 3.5 
" style="stroke: #000000; stroke-width: 0.8"/>
      </defs>
      <g>
       <use xlink:href="#m934206126b" x="115.363636" y="256.32" style="stroke: #000000; stroke-width: 0.8"/>
      </g>
     </g>
     <g id="text_1">
      <!-- 0:00:00 -->
      <g transform="translate(96.088636 270.918437) scale(0.1 -0.1)">
       <defs>
        <path id="DejaVuSans-30" d="M 2034 4250 
Q 1547 4250 1301 3770 
Q 1056 3291 1056 2328 
Q 1056 1369 1301 889 
Q 1547 409 2034 409 
Q 2525 409 2770 889 
Q 3016 1369 3016 2328 
Q 3016 3291 2770 3770 
Q 2525 4250 2034 4250 
z
M 2034 4750 
Q 2819 4750 3233 4129 
Q 3647 3509 3647 2328 
Q 3647 1150 3233 529 
Q 2819 -91 2034 -91 
Q 1250 -91 836 529 
Q 422 1150 422 2328 
Q 422 3509 836 4129 
Q 1250 4750 2034 4750 
z
" transform="scale(0.015625)"/>
        <path id="DejaVuSans-3a" d="M 750 794 
L 1409 794 
L 1409 0 
L 750 0 
L 750 794 
z
M 750 3309 
L 1409 3309 
L 1409 2516 
L 750 2516 
L 750 3309 
z
" transform="scale(0.015625)"/>
       </defs>
       <use xlink:href="#DejaVuSans-30"/>
       <use xlink:href="#DejaVuSans-3a" x="63.623047"/>
       <use xlink:href="#DejaVuSans-30" x="97.314453"/>
       <use xlink:href="#DejaVuSans-30" x="160.9375"/>
       <use xlink:href="#DejaVuSans-3a" x="224.560547"/>
       <use xlink:href="#DejaVuSans-30" x="258.251953"/>
       <use xlink:href="#DejaVuSans-30" x="321.875"/>
      </g>
     </g>
    </g>
    <g id="xtick_2">
     <g id="line2d_2">
      <g>
       <use xlink:href="#m934206126b" x="164.814751" y="256.32" style="stroke: #000000; stroke-width: 0.8"/>
      </g>
     </g>
     <g id="text_2">
      <!-- 0:00:31 -->
      <g transform="translate(145.539751 270.918437) scale(0.1 -0.1)">
       <defs>
        <path id="DejaVuSans-33" d="M 2597 2516 
Q 3050 2419 3304 2112 
Q 3559 1806 3559 1356 
Q 3559 666 3084 287 
Q 2609 -91 1734 -91 
Q 1441 -91 1130 -33 
Q 819 25 488 141 
L 488 750 
Q 750 597 1062 519 
Q 1375 441 1716 441 
Q 2309 441 2620 675 
Q 2931 909 2931 1356 
Q 2931 1769 2642 2001 
Q 2353 2234 1838 2234 
L 1294 2234 
L 1294 2753 
L 1863 2753 
Q 2328 2753 2575 2939 
Q 2822 3125 2822 3475 
Q 2822 3834 2567 4026 
Q 2313 4219 1838 4219 
Q 1578 4219 1281 4162 
Q 984 4106 628 3988 
L 628 4550 
Q 988 4650 1302 4700 
Q 1616 4750 1894 4750 
Q 2613 4750 3031 4423 
Q 3450 4097 3450 3541 
Q 3450 3153 3228 2886 
Q 3006 2619 2597 2516 
z
" transform="scale(0.015625)"/>
        <path id="DejaVuSans-31" d="M 794 531 
L 1825 531 
L 1825 4091 
L 703 3866 
L 703 4441 
L 1819 4666 
L 2450 4666 
L 2450 531 
L 3481 531 
L 3481 0 
L 794 0 
L 794 531 
z
" transform="scale(0.015625)"/>
       </defs>
       <use xlink:href="#DejaVuSans-30"/>
       <use xlink:href="#DejaVuSans-3a" x="63.623047"/>
       <use xlink:href="#DejaVuSans-30" x="97.314453"/>
       <use xlink:href="#DejaVuSans-30" x="160.9375"/>
       <use xlink:href="#DejaVuSans-3a" x="224.560547"/>
       <use xlink:href="#DejaVuSans-33" x="258.251953"/>
       <use xlink:href="#DejaVuSans-31" x="321.875"/>
      </g>
     </g>
    </g>
    <g id="xtick_3">
     <g id="line2d_3">
      <g>
       <use xlink:href="#m934206126b" x="214.265866" y="256.32" style="stroke: #000000; stroke-width: 0.8"/>
      </g>
     </g>
     <g id="text_3">
      <!-- 0:01:02 -->
      <g transform="translate(194.990866 270.918437) scale(0.1 -0.1)">
       <defs>
        <path id="DejaVuSans-32" d="M 1228 531 
L 3431 531 
L 3431 0 
L 469 0 
L 469 531 
Q 828 903 1448 1529 
Q 2069 2156 2228 2338 
Q 2531 2678 2651 2914 
Q 2772 3150 2772 3378 
Q 2772 3750 2511 3984 
Q 2250 4219 1831 4219 
Q 1534 4219 1204 4116 
Q 875 4013 500 3803 
L 500 4441 
Q 881 4594 1212 4672 
Q 1544 4750 1819 4750 
Q 2544 4750 2975 4387 
Q 3406 4025 3406 3419 
Q 3406 3131 3298 2873 
Q 3191 2616 2906 2266 
Q 2828 2175 2409 1742 
Q 1991 1309 1228 531 
z
" transform="scale(0.015625)"/>
       </defs>
       <use xlink:href="#DejaVuSans-30"/>
       <use xlink:href="#DejaVuSans-3a" x="63.623047"/>
       <use xlink:href="#DejaVuSans-30" x="97.314453"/>
       <use xlink:href="#DejaVuSans-31" x="160.9375"/>
       <use xlink:href="#DejaVuSans-3a" x="224.560547"/>
       <use xlink:href="#DejaVuSans-30" x="258.251953"/>
       <use xlink:href="#DejaVuSans-32" x="321.875"/>
      </g>
     </g>
    </g>
    <g id="xtick_4">
     <g id="line2d_4">
      <g>
       <use xlink:href="#m934206126b" x="263.716981" y="256.32" style="stroke: #000000; stroke-width: 0.8"/>
      </g>
     </g>
     <g id="text_4">
      <!-- 0:01:33 -->
      <g transform="translate(244.441981 270.918437) scale(0.1 -0.1)">
       <use xlink:href="#DejaVuSans-30"/>
       <use xlink:href="#DejaVuSans-3a" x="63.623047"/>
       <use xlink:href="#DejaVuSans-30" x="97.314453"/>
       <use xlink:href="#DejaVuSans-31" x="160.9375"/>
       <use xlink:href="#DejaVuSans-3a" x="224.560547"/>
       <use xlink:href="#DejaVuSans-33" x="258.251953"/>
       <use xlink:href="#DejaVuSans-33" x="321.875"/>
      </g>
     </g>
    </g>
    <g id="xtick_5">
     <g id="line2d_5">
      <g>
       <use xlink:href="#m934206126b" x="313.168096" y="256.32" style="stroke: #000000; stroke-width: 0.8"/>
      </g>
     </g>
     <g id="text_5">
      <!-- 0:02:04 -->
      <g transform="translate(293.893096 270.918437) scale(0.1 -0.1)">
       <defs>
        <path id="DejaVuSans-34" d="M 2419 4116 
L 825 1625 
L 2419 1625 
L 2419 4116 
z
M 2253 4666 
L 3047 4666 
L 3047 1625 
L 3713 1625 
L 3713 1100 
L 3047 1100 
L 3047 0 
L 2419 0 
L 2419 1100 
L 313 1100 
L 313 1709 
L 2253 4666 
z
" transform="scale(0.015625)"/>
       </defs>
       <use xlink:href="#DejaVuSans-30"/>
       <use xlink:href="#DejaVuSans-3a" x="63.623047"/>
       <use xlink:href="#DejaVuSans-30" x="97.314453"/>
       <use xlink:href="#DejaVuSans-32" x="160.9375"/>
       <use xlink:href="#DejaVuSans-3a" x="224.560547"/>
       <use xlink:href="#DejaVuSans-30" x="258.251953"/>
       <use xlink:href="#DejaVuSans-34" x="321.875"/>
      </g>
     </g>
    </g>
    <g id="xtick_6">
     <g id="line2d_6">
      <g>
       <use xlink:href="#m934206126b" x="362.619211" y="256.32" style="stroke: #000000; stroke-width: 0.8"/>
      </g>
     </g>
     <g id="text_6">
      <!-- 0:02:35 -->
      <g transform="translate(343.344211 270.918437) scale(0.1 -0.1)">
       <defs>
        <path id="DejaVuSans-35" d="M 691 4666 
L 3169 4666 
L 3169 4134 
L 1269 4134 
L 1269 2991 
Q 1406 3038 1543 3061 
Q 1681 3084 1819 3084 
Q 2600 3084 3056 2656 
Q 3513 2228 3513 1497 
Q 3513 744 3044 326 
Q 2575 -91 1722 -91 
Q 1428 -91 1123 -41 
Q 819 9 494 109 
L 494 744 
Q 775 591 1075 516 
Q 1375 441 1709 441 
Q 2250 441 2565 725 
Q 2881 1009 2881 1497 
Q 2881 1984 2565 2268 
Q 2250 2553 1709 2553 
Q 1456 2553 1204 2497 
Q 953 2441 691 2322 
L 691 4666 
z
" transform="scale(0.015625)"/>
       </defs>
       <use xlink:href="#DejaVuSans-30"/>
       <use xlink:href="#DejaVuSans-3a" x="63.623047"/>
       <use xlink:href="#DejaVuSans-30" x="97.314453"/>
       <use xlink:href="#DejaVuSans-32" x="160.9375"/>
       <use xlink:href="#DejaVuSans-3a" x="224.560547"/>
       <use xlink:href="#DejaVuSans-33" x="258.251953"/>
       <use xlink:href="#DejaVuSans-35" x="321.875"/>
      </g>
     </g>
    </g>
    <g id="xtick_7">
     <g id="line2d_7">
      <g>
       <use xlink:href="#m934206126b" x="412.070326" y="256.32" style="stroke: #000000; stroke-width: 0.8"/>
      </g>
     </g>
     <g id="text_7">
      <!-- 0:03:06 -->
      <g transform="translate(392.795326 270.918437) scale(0.1 -0.1)">
       <defs>
        <path id="DejaVuSans-36" d="M 2113 2584 
Q 1688 2584 1439 2293 
Q 1191 2003 1191 1497 
Q 1191 994 1439 701 
Q 1688 409 2113 409 
Q 2538 409 2786 701 
Q 3034 994 3034 1497 
Q 3034 2003 2786 2293 
Q 2538 2584 2113 2584 
z
M 3366 4563 
L 3366 3988 
Q 3128 4100 2886 4159 
Q 2644 4219 2406 4219 
Q 1781 4219 1451 3797 
Q 1122 3375 1075 2522 
Q 1259 2794 1537 2939 
Q 1816 3084 2150 3084 
Q 2853 3084 3261 2657 
Q 3669 2231 3669 1497 
Q 3669 778 3244 343 
Q 2819 -91 2113 -91 
Q 1303 -91 875 529 
Q 447 1150 447 2328 
Q 447 3434 972 4092 
Q 1497 4750 2381 4750 
Q 2619 4750 2861 4703 
Q 3103 4656 3366 4563 
z
" transform="scale(0.015625)"/>
       </defs>
       <use xlink:href="#DejaVuSans-30"/>
       <use xlink:href="#DejaVuSans-3a" x="63.623047"/>
       <use xlink:href="#DejaVuSans-30" x="97.314453"/>
       <use xlink:href="#DejaVuSans-33" x="160.9375"/>
       <use xlink:href="#DejaVuSans-3a" x="224.560547"/>
       <use xlink:href="#DejaVuSans-30" x="258.251953"/>
       <use xlink:href="#DejaVuSans-36" x="321.875"/>
      </g>
     </g>
    </g>
    <g id="xtick_8">
     <g id="line2d_8">
      <g>
       <use xlink:href="#m934206126b" x="461.521441" y="256.32" style="stroke: #000000; stroke-width: 0.8"/>
      </g>
     </g>
     <g id="text_8">
      <!-- 0:03:37 -->
      <g transform="translate(442.246441 270.918437) scale(0.1 -0.1)">
       <defs>
        <path id="DejaVuSans-37" d="M 525 4666 
L 3525 4666 
L 3525 4397 
L 1831 0 
L 1172 0 
L 2766 4134 
L 525 4134 
L 525 4666 
z
" transform="scale(0.015625)"/>
       </defs>
       <use xlink:href="#DejaVuSans-30"/>
       <use xlink:href="#DejaVuSans-3a" x="63.623047"/>
       <use xlink:href="#DejaVuSans-30" x="97.314453"/>
       <use xlink:href="#DejaVuSans-33" x="160.9375"/>
       <use xlink:href="#DejaVuSans-3a" x="224.560547"/>
       <use xlink:href="#DejaVuSans-33" x="258.251953"/>
       <use xlink:href="#DejaVuSans-37" x="321.875"/>
      </g>
     </g>
    </g>
    <g id="xtick_9">
     <g id="line2d_9">
      <g>
       <use xlink:href="#m934206126b" x="510.972556" y="256.32" style="stroke: #000000; stroke-width: 0.8"/>
      </g>
     </g>
     <g id="text_9">
      <!-- 0:04:08 -->
      <g transform="translate(491.697556 270.918437) scale(0.1 -0.1)">
       <defs>
        <path id="DejaVuSans-38" d="M 2034 2216 
Q 1584 2216 1326 1975 
Q 1069 1734 1069 1313 
Q 1069 891 1326 650 
Q 1584 409 2034 409 
Q 2484 409 2743 651 
Q 3003 894 3003 1313 
Q 3003 1734 2745 1975 
Q 2488 2216 2034 2216 
z
M 1403 2484 
Q 997 2584 770 2862 
Q 544 3141 544 3541 
Q 544 4100 942 4425 
Q 1341 4750 2034 4750 
Q 2731 4750 3128 4425 
Q 3525 4100 3525 3541 
Q 3525 3141 3298 2862 
Q 3072 2584 2669 2484 
Q 3125 2378 3379 2068 
Q 3634 1759 3634 1313 
Q 3634 634 3220 271 
Q 2806 -91 2034 -91 
Q 1263 -91 848 271 
Q 434 634 434 1313 
Q 434 1759 690 2068 
Q 947 2378 1403 2484 
z
M 1172 3481 
Q 1172 3119 1398 2916 
Q 1625 2713 2034 2713 
Q 2441 2713 2670 2916 
Q 2900 3119 2900 3481 
Q 2900 3844 2670 4047 
Q 2441 4250 2034 4250 
Q 1625 4250 1398 4047 
Q 1172 3844 1172 3481 
z
" transform="scale(0.015625)"/>
       </defs>
       <use xlink:href="#DejaVuSans-30"/>
       <use xlink:href="#DejaVuSans-3a" x="63.623047"/>
       <use xlink:href="#DejaVuSans-30" x="97.314453"/>
       <use xlink:href="#DejaVuSans-34" x="160.9375"/>
       <use xlink:href="#DejaVuSans-3a" x="224.560547"/>
       <use xlink:href="#DejaVuSans-30" x="258.251953"/>
       <use xlink:href="#DejaVuSans-38" x="321.875"/>
      </g>
     </g>
    </g>
    <g id="xtick_10">
     <g id="line2d_10">
      <g>
       <use xlink:href="#m934206126b" x="560.423671" y="256.32" style="stroke: #000000; stroke-width: 0.8"/>
      </g>
     </g>
     <g id="text_10">
      <!-- 0:04:39 -->
      <g transform="translate(541.148671 270.918437) scale(0.1 -0.1)">
       <defs>
        <path id="DejaVuSans-39" d="M 703 97 
L 703 672 
Q 941 559 1184 500 
Q 1428 441 1663 441 
Q 2288 441 2617 861 
Q 2947 1281 2994 2138 
Q 2813 1869 2534 1725 
Q 2256 1581 1919 1581 
Q 1219 1581 811 2004 
Q 403 2428 403 3163 
Q 403 3881 828 4315 
Q 1253 4750 1959 4750 
Q 2769 4750 3195 4129 
Q 3622 3509 3622 2328 
Q 3622 1225 3098 567 
Q 2575 -91 1691 -91 
Q 1453 -91 1209 -44 
Q 966 3 703 97 
z
M 1959 2075 
Q 2384 2075 2632 2365 
Q 2881 2656 2881 3163 
Q 2881 3666 2632 3958 
Q 2384 4250 1959 4250 
Q 1534 4250 1286 3958 
Q 1038 3666 1038 3163 
Q 1038 2656 1286 2365 
Q 1534 2075 1959 2075 
z
" transform="scale(0.015625)"/>
       </defs>
       <use xlink:href="#DejaVuSans-30"/>
       <use xlink:href="#DejaVuSans-3a" x="63.623047"/>
       <use xlink:href="#DejaVuSans-30" x="97.314453"/>
       <use xlink:href="#DejaVuSans-34" x="160.9375"/>
       <use xlink:href="#DejaVuSans-3a" x="224.560547"/>
       <use xlink:href="#DejaVuSans-33" x="258.251953"/>
       <use xlink:href="#DejaVuSans-39" x="321.875"/>
      </g>
     </g>
    </g>
    <g id="xtick_11">
     <g id="line2d_11">
      <g>
       <use xlink:href="#m934206126b" x="609.874786" y="256.32" style="stroke: #000000; stroke-width: 0.8"/>
      </g>
     </g>
     <g id="text_11">
      <!-- 0:05:10 -->
      <g transform="translate(590.599786 270.918437) scale(0.1 -0.1)">
       <use xlink:href="#DejaVuSans-30"/>
       <use xlink:href="#DejaVuSans-3a" x="63.623047"/>
       <use xlink:href="#DejaVuSans-30" x="97.314453"/>
       <use xlink:href="#DejaVuSans-35" x="160.9375"/>
       <use xlink:href="#DejaVuSans-3a" x="224.560547"/>
       <use xlink:href="#DejaVuSans-31" x="258.251953"/>
       <use xlink:href="#DejaVuSans-30" x="321.875"/>
      </g>
     </g>
    </g>
    <g id="text_12">
     <!-- Time -->
     <g transform="translate(356.766406 284.596563) scale(0.1 -0.1)">
      <defs>
       <path id="DejaVuSans-54" d="M -19 4666 
L 3928 4666 
L 3928 4134 
L 2272 4134 
L 2272 0 
L 1638 0 
L 1638 4134 
L -19 4134 
L -19 4666 
z
" transform="scale(0.015625)"/>
       <path id="DejaVuSans-69" d="M 603 3500 
L 1178 3500 
L 1178 0 
L 603 0 
L 603 3500 
z
M 603 4863 
L 1178 4863 
L 1178 4134 
L 603 4134 
L 603 4863 
z
" transform="scale(0.015625)"/>
       <path id="DejaVuSans-6d" d="M 3328 2828 
Q 3544 3216 3844 3400 
Q 4144 3584 4550 3584 
Q 5097 3584 5394 3201 
Q 5691 2819 5691 2113 
L 5691 0 
L 5113 0 
L 5113 2094 
Q 5113 2597 4934 2840 
Q 4756 3084 4391 3084 
Q 3944 3084 3684 2787 
Q 3425 2491 3425 1978 
L 3425 0 
L 2847 0 
L 2847 2094 
Q 2847 2600 2669 2842 
Q 2491 3084 2119 3084 
Q 1678 3084 1418 2786 
Q 1159 2488 1159 1978 
L 1159 0 
L 581 0 
L 581 3500 
L 1159 3500 
L 1159 2956 
Q 1356 3278 1631 3431 
Q 1906 3584 2284 3584 
Q 2666 3584 2933 3390 
Q 3200 3197 3328 2828 
z
" transform="scale(0.015625)"/>
       <path id="DejaVuSans-65" d="M 3597 1894 
L 3597 1613 
L 953 1613 
Q 991 1019 1311 708 
Q 1631 397 2203 397 
Q 2534 397 2845 478 
Q 3156 559 3463 722 
L 3463 178 
Q 3153 47 2828 -22 
Q 2503 -91 2169 -91 
Q 1331 -91 842 396 
Q 353 884 353 1716 
Q 353 2575 817 3079 
Q 1281 3584 2069 3584 
Q 2775 3584 3186 3129 
Q 3597 2675 3597 1894 
z
M 3022 2063 
Q 3016 2534 2758 2815 
Q 2500 3097 2075 3097 
Q 1594 3097 1305 2825 
Q 1016 2553 972 2059 
L 3022 2063 
z
" transform="scale(0.015625)"/>
      </defs>
      <use xlink:href="#DejaVuSans-54"/>
      <use xlink:href="#DejaVuSans-69" x="57.958984"/>
      <use xlink:href="#DejaVuSans-6d" x="85.742188"/>
      <use xlink:href="#DejaVuSans-65" x="183.154297"/>
     </g>
    </g>
   </g>
   <g id="matplotlib.axis_2">
    <g id="ytick_1">
     <g id="line2d_12">
      <path d="M 90 246.24 
L 648 246.24 
" clip-path="url(#pf26292098c)" style="fill: none; stroke: #b0b0b0; stroke-width: 0.8; stroke-linecap: square"/>
     </g>
     <g id="line2d_13">
      <defs>
       <path id="m57df54de05" d="M 0 0 
L -3.5 0 
" style="stroke: #000000; stroke-width: 0.8"/>
      </defs>
      <g>
       <use xlink:href="#m57df54de05" x="90" y="246.24" style="stroke: #000000; stroke-width: 0.8"/>
      </g>
     </g>
     <g id="text_13">
      <!-- 0 -->
      <g transform="translate(76.6375 250.039219) scale(0.1 -0.1)">
       <use xlink:href="#DejaVuSans-30"/>
      </g>
     </g>
    </g>
    <g id="ytick_2">
     <g id="line2d_14">
      <path d="M 90 199.356279 
L 648 199.356279 
" clip-path="url(#pf26292098c)" style="fill: none; stroke: #b0b0b0; stroke-width: 0.8; stroke-linecap: square"/>
     </g>
     <g id="line2d_15">
      <g>
       <use xlink:href="#m57df54de05" x="90" y="199.356279" style="stroke: #000000; stroke-width: 0.8"/>
      </g>
     </g>
     <g id="text_14">
      <!-- 2,000 -->
      <g transform="translate(54.371875 203.155498) scale(0.1 -0.1)">
       <defs>
        <path id="DejaVuSans-2c" d="M 750 794 
L 1409 794 
L 1409 256 
L 897 -744 
L 494 -744 
L 750 256 
L 750 794 
z
" transform="scale(0.015625)"/>
       </defs>
       <use xlink:href="#DejaVuSans-32"/>
       <use xlink:href="#DejaVuSans-2c" x="63.623047"/>
       <use xlink:href="#DejaVuSans-30" x="95.410156"/>
       <use xlink:href="#DejaVuSans-30" x="159.033203"/>
       <use xlink:href="#DejaVuSans-30" x="222.65625"/>
      </g>
     </g>
    </g>
    <g id="ytick_3">
     <g id="line2d_16">
      <path d="M 90 152.472558 
L 648 152.472558 
" clip-path="url(#pf26292098c)" style="fill: none; stroke: #b0b0b0; stroke-width: 0.8; stroke-linecap: square"/>
     </g>
     <g id="line2d_17">
      <g>
       <use xlink:href="#m57df54de05" x="90" y="152.472558" style="stroke: #000000; stroke-width: 0.8"/>
      </g>
     </g>
     <g id="text_15">
      <!-- 4,000 -->
      <g transform="translate(54.371875 156.271777) scale(0.1 -0.1)">
       <use xlink:href="#DejaVuSans-34"/>
       <use xlink:href="#DejaVuSans-2c" x="63.623047"/>
       <use xlink:href="#DejaVuSans-30" x="95.410156"/>
       <use xlink:href="#DejaVuSans-30" x="159.033203"/>
       <use xlink:href="#DejaVuSans-30" x="222.65625"/>
      </g>
     </g>
    </g>
    <g id="ytick_4">
     <g id="line2d_18">
      <path d="M 90 105.588837 
L 648 105.588837 
" clip-path="url(#pf26292098c)" style="fill: none; stroke: #b0b0b0; stroke-width: 0.8; stroke-linecap: square"/>
     </g>
     <g id="line2d_19">
      <g>
       <use xlink:href="#m57df54de05" x="90" y="105.588837" style="stroke: #000000; stroke-width: 0.8"/>
      </g>
     </g>
     <g id="text_16">
      <!-- 6,000 -->
      <g transform="translate(54.371875 109.388056) scale(0.1 -0.1)">
       <use xlink:href="#DejaVuSans-36"/>
       <use xlink:href="#DejaVuSans-2c" x="63.623047"/>
       <use xlink:href="#DejaVuSans-30" x="95.410156"/>
       <use xlink:href="#DejaVuSans-30" x="159.033203"/>
       <use xlink:href="#DejaVuSans-30" x="222.65625"/>
      </g>
     </g>
    </g>
    <g id="ytick_5">
     <g id="line2d_20">
      <path d="M 90 58.705116 
L 648 58.705116 
" clip-path="url(#pf26292098c)" style="fill: none; stroke: #b0b0b0; stroke-width: 0.8; stroke-linecap: square"/>
     </g>
     <g id="line2d_21">
      <g>
       <use xlink:href="#m57df54de05" x="90" y="58.705116" style="stroke: #000000; stroke-width: 0.8"/>
      </g>
     </g>
     <g id="text_17">
      <!-- 8,000 -->
      <g transform="translate(54.371875 62.504335) scale(0.1 -0.1)">
       <use xlink:href="#DejaVuSans-38"/>
       <use xlink:href="#DejaVuSans-2c" x="63.623047"/>
       <use xlink:href="#DejaVuSans-30" x="95.410156"/>
       <use xlink:href="#DejaVuSans-30" x="159.033203"/>
       <use xlink:href="#DejaVuSans-30" x="222.65625"/>
      </g>
     </g>
    </g>
    <g id="text_18">
     <!-- Bitrate (kbit/s) -->
     <g transform="translate(48.292187 181.574375) rotate(-90) scale(0.1 -0.1)">
      <defs>
       <path id="DejaVuSans-42" d="M 1259 2228 
L 1259 519 
L 2272 519 
Q 2781 519 3026 730 
Q 3272 941 3272 1375 
Q 3272 1813 3026 2020 
Q 2781 2228 2272 2228 
L 1259 2228 
z
M 1259 4147 
L 1259 2741 
L 2194 2741 
Q 2656 2741 2882 2914 
Q 3109 3088 3109 3444 
Q 3109 3797 2882 3972 
Q 2656 4147 2194 4147 
L 1259 4147 
z
M 628 4666 
L 2241 4666 
Q 2963 4666 3353 4366 
Q 3744 4066 3744 3513 
Q 3744 3084 3544 2831 
Q 3344 2578 2956 2516 
Q 3422 2416 3680 2098 
Q 3938 1781 3938 1306 
Q 3938 681 3513 340 
Q 3088 0 2303 0 
L 628 0 
L 628 4666 
z
" transform="scale(0.015625)"/>
       <path id="DejaVuSans-74" d="M 1172 4494 
L 1172 3500 
L 2356 3500 
L 2356 3053 
L 1172 3053 
L 1172 1153 
Q 1172 725 1289 603 
Q 1406 481 1766 481 
L 2356 481 
L 2356 0 
L 1766 0 
Q 1100 0 847 248 
Q 594 497 594 1153 
L 594 3053 
L 172 3053 
L 172 3500 
L 594 3500 
L 594 4494 
L 1172 4494 
z
" transform="scale(0.015625)"/>
       <path id="DejaVuSans-72" d="M 2631 2963 
Q 2534 3019 2420 3045 
Q 2306 3072 2169 3072 
Q 1681 3072 1420 2755 
Q 1159 2438 1159 1844 
L 1159 0 
L 581 0 
L 581 3500 
L 1159 3500 
L 1159 2956 
Q 1341 3275 1631 3429 
Q 1922 3584 2338 3584 
Q 2397 3584 2469 3576 
Q 2541 3569 2628 3553 
L 2631 2963 
z
" transform="scale(0.015625)"/>
       <path id="DejaVuSans-61" d="M 2194 1759 
Q 1497 1759 1228 1600 
Q 959 1441 959 1056 
Q 959 750 1161 570 
Q 1363 391 1709 391 
Q 2188 391 2477 730 
Q 2766 1069 2766 1631 
L 2766 1759 
L 2194 1759 
z
M 3341 1997 
L 3341 0 
L 2766 0 
L 2766 531 
Q 2569 213 2275 61 
Q 1981 -91 1556 -91 
Q 1019 -91 701 211 
Q 384 513 384 1019 
Q 384 1609 779 1909 
Q 1175 2209 1959 2209 
L 2766 2209 
L 2766 2266 
Q 2766 2663 2505 2880 
Q 2244 3097 1772 3097 
Q 1472 3097 1187 3025 
Q 903 2953 641 2809 
L 641 3341 
Q 956 3463 1253 3523 
Q 1550 3584 1831 3584 
Q 2591 3584 2966 3190 
Q 3341 2797 3341 1997 
z
" transform="scale(0.015625)"/>
       <path id="DejaVuSans-20" transform="scale(0.015625)"/>
       <path id="DejaVuSans-28" d="M 1984 4856 
Q 1566 4138 1362 3434 
Q 1159 2731 1159 2009 
Q 1159 1288 1364 580 
Q 1569 -128 1984 -844 
L 1484 -844 
Q 1016 -109 783 600 
Q 550 1309 550 2009 
Q 550 2706 781 3412 
Q 1013 4119 1484 4856 
L 1984 4856 
z
" transform="scale(0.015625)"/>
       <path id="DejaVuSans-6b" d="M 581 4863 
L 1159 4863 
L 1159 1991 
L 2875 3500 
L 3609 3500 
L 1753 1863 
L 3688 0 
L 2938 0 
L 1159 1709 
L 1159 0 
L 581 0 
L 581 4863 
z
" transform="scale(0.015625)"/>
       <path id="DejaVuSans-62" d="M 3116 1747 
Q 3116 2381 2855 2742 
Q 2594 3103 2138 3103 
Q 1681 3103 1420 2742 
Q 1159 2381 1159 1747 
Q 1159 1113 1420 752 
Q 1681 391 2138 391 
Q 2594 391 2855 752 
Q 3116 1113 3116 1747 
z
M 1159 2969 
Q 1341 3281 1617 3432 
Q 1894 3584 2278 3584 
Q 2916 3584 3314 3078 
Q 3713 2572 3713 1747 
Q 3713 922 3314 415 
Q 2916 -91 2278 -91 
Q 1894 -91 1617 61 
Q 1341 213 1159 525 
L 1159 0 
L 581 0 
L 581 4863 
L 1159 4863 
L 1159 2969 
z
" transform="scale(0.015625)"/>
       <path id="DejaVuSans-2f" d="M 1625 4666 
L 2156 4666 
L 531 -594 
L 0 -594 
L 1625 4666 
z
" transform="scale(0.015625)"/>
       <path id="DejaVuSans-73" d="M 2834 3397 
L 2834 2853 
Q 2591 2978 2328 3040 
Q 2066 3103 1784 3103 
Q 1356 3103 1142 2972 
Q 928 2841 928 2578 
Q 928 2378 1081 2264 
Q 1234 2150 1697 2047 
L 1894 2003 
Q 2506 1872 2764 1633 
Q 3022 1394 3022 966 
Q 3022 478 2636 193 
Q 2250 -91 1575 -91 
Q 1294 -91 989 -36 
Q 684 19 347 128 
L 347 722 
Q 666 556 975 473 
Q 1284 391 1588 391 
Q 1994 391 2212 530 
Q 2431 669 2431 922 
Q 2431 1156 2273 1281 
Q 2116 1406 1581 1522 
L 1381 1569 
Q 847 1681 609 1914 
Q 372 2147 372 2553 
Q 372 3047 722 3315 
Q 1072 3584 1716 3584 
Q 2034 3584 2315 3537 
Q 2597 3491 2834 3397 
z
" transform="scale(0.015625)"/>
       <path id="DejaVuSans-29" d="M 513 4856 
L 1013 4856 
Q 1481 4119 1714 3412 
Q 1947 2706 1947 2009 
Q 1947 1309 1714 600 
Q 1481 -109 1013 -844 
L 513 -844 
Q 928 -128 1133 580 
Q 1338 1288 1338 2009 
Q 1338 2731 1133 3434 
Q 928 4138 513 4856 
z
" transform="scale(0.015625)"/>
      </defs>
      <use xlink:href="#DejaVuSans-42"/>
      <use xlink:href="#DejaVuSans-69" x="68.603516"/>
      <use xlink:href="#DejaVuSans-74" x="96.386719"/>
      <use xlink:href="#DejaVuSans-72" x="135.595703"/>
      <use xlink:href="#DejaVuSans-61" x="176.708984"/>
      <use xlink:href="#DejaVuSans-74" x="237.988281"/>
      <use xlink:href="#DejaVuSans-65" x="277.197266"/>
      <use xlink:href="#DejaVuSans-20" x="338.720703"/>
      <use xlink:href="#DejaVuSans-28" x="370.507812"/>
      <use xlink:href="#DejaVuSans-6b" x="409.521484"/>
      <use xlink:href="#DejaVuSans-62" x="467.431641"/>
      <use xlink:href="#DejaVuSans-69" x="530.908203"/>
      <use xlink:href="#DejaVuSans-74" x="558.691406"/>
      <use xlink:href="#DejaVuSans-2f" x="597.900391"/>
      <use xlink:href="#DejaVuSans-73" x="631.591797"/>
      <use xlink:href="#DejaVuSans-29" x="683.691406"/>
     </g>
    </g>
   </g>
   <g id="PolyCollection_1">
    <defs>
     <path id="m21a79c6dd1" d="M 115.363636 -50.972651 
L 115.363636 -41.76 
L 116.958834 -41.76 
L 118.554031 -41.76 
L 120.149228 -41.76 
L 121.744425 -41.76 
L 123.339623 -41.76 
L 124.93482 -41.76 
L 126.530017 -41.76 
L 128.125214 -41.76 
L 129.720412 -41.76 
L 131.315609 -41.76 
L 132.910806 -41.76 
L 134.506003 -41.76 
L 136.101201 -41.76 
L 137.696398 -41.76 
L 139.291595 -41.76 
L 140.886792 -41.76 
L 142.48199 -41.76 
L 144.077187 -41.76 
L 145.672384 -41.76 
L 147.267581 -41.76 
L 148.862779 -41.76 
L 150.457976 -41.76 
L 152.053173 -41.76 
L 153.64837 -41.76 
L 155.243568 -41.76 
L 156.838765 -41.76 
L 158.433962 -41.76 
L 160.02916 -41.76 
L 161.624357 -41.76 
L 163.219554 -41.76 
L 164.814751 -41.76 
L 166.409949 -41.76 
L 168.005146 -41.76 
L 169.600343 -41.76 
L 171.19554 -41.76 
L 172.790738 -41.76 
L 174.385935 -41.76 
L 175.981132 -41.76 
L 177.576329 -41.76 
L 179.171527 -41.76 
L 180.766724 -41.76 
L 182.361921 -41.76 
L 183.957118 -41.76 
L 185.552316 -41.76 
L 187.147513 -41.76 
L 188.74271 -41.76 
L 190.337907 -41.76 
L 191.933105 -41.76 
L 193.528302 -41.76 
L 195.123499 -41.76 
L 196.718696 -41.76 
L 198.313894 -41.76 
L 199.909091 -41.76 
L 201.504288 -41.76 
L 203.099485 -41.76 
L 204.694683 -41.76 
L 206.28988 -41.76 
L 207.885077 -41.76 
L 209.480274 -41.76 
L 211.075472 -41.76 
L 212.670669 -41.76 
L 214.265866 -41.76 
L 215.861063 -41.76 
L 217.456261 -41.76 
L 219.051458 -41.76 
L 220.646655 -41.76 
L 222.241852 -41.76 
L 223.83705 -41.76 
L 225.432247 -41.76 
L 227.027444 -41.76 
L 228.622642 -41.76 
L 230.217839 -41.76 
L 231.813036 -41.76 
L 233.408233 -41.76 
L 235.003431 -41.76 
L 236.598628 -41.76 
L 238.193825 -41.76 
L 239.789022 -41.76 
L 241.38422 -41.76 
L 242.979417 -41.76 
L 244.574614 -41.76 
L 246.169811 -41.76 
L 247.765009 -41.76 
L 249.360206 -41.76 
L 250.955403 -41.76 
L 252.5506 -41.76 
L 254.145798 -41.76 
L 255.740995 -41.76 
L 257.336192 -41.76 
L 258.931389 -41.76 
L 260.526587 -41.76 
L 262.121784 -41.76 
L 263.716981 -41.76 
L 265.312178 -41.76 
L 266.907376 -41.76 
L 268.502573 -41.76 
L 270.09777 -41.76 
L 271.692967 -41.76 
L 273.288165 -41.76 
L 274.883362 -41.76 
L 276.478559 -41.76 
L 278.073756 -41.76 
L 279.668954 -41.76 
L 281.264151 -41.76 
L 282.859348 -41.76 
L 284.454545 -41.76 
L 286.049743 -41.76 
L 287.64494 -41.76 
L 289.240137 -41.76 
L 290.835334 -41.76 
L 292.430532 -41.76 
L 294.025729 -41.76 
L 295.620926 -41.76 
L 297.216123 -41.76 
L 298.811321 -41.76 
L 300.406518 -41.76 
L 302.001715 -41.76 
L 303.596913 -41.76 
L 305.19211 -41.76 
L 306.787307 -41.76 
L 308.382504 -41.76 
L 309.977702 -41.76 
L 311.572899 -41.76 
L 313.168096 -41.76 
L 314.763293 -41.76 
L 316.358491 -41.76 
L 317.953688 -41.76 
L 319.548885 -41.76 
L 321.144082 -41.76 
L 322.73928 -41.76 
L 324.334477 -41.76 
L 325.929674 -41.76 
L 327.524871 -41.76 
L 329.120069 -41.76 
L 330.715266 -41.76 
L 332.310463 -41.76 
L 333.90566 -41.76 
L 335.500858 -41.76 
L 337.096055 -41.76 
L 338.691252 -41.76 
L 340.286449 -41.76 
L 341.881647 -41.76 
L 343.476844 -41.76 
L 345.072041 -41.76 
L 346.667238 -41.76 
L 348.262436 -41.76 
L 349.857633 -41.76 
L 351.45283 -41.76 
L 353.048027 -41.76 
L 354.643225 -41.76 
L 356.238422 -41.76 
L 357.833619 -41.76 
L 359.428816 -41.76 
L 361.024014 -41.76 
L 362.619211 -41.76 
L 364.214408 -41.76 
L 365.809605 -41.76 
L 367.404803 -41.76 
L 369 -41.76 
L 370.595197 -41.76 
L 372.190395 -41.76 
L 373.785592 -41.76 
L 375.380789 -41.76 
L 376.975986 -41.76 
L 378.571184 -41.76 
L 380.166381 -41.76 
L 381.761578 -41.76 
L 383.356775 -41.76 
L 384.951973 -41.76 
L 386.54717 -41.76 
L 388.142367 -41.76 
L 389.737564 -41.76 
L 391.332762 -41.76 
L 392.927959 -41.76 
L 394.523156 -41.76 
L 396.118353 -41.76 
L 397.713551 -41.76 
L 399.308748 -41.76 
L 400.903945 -41.76 
L 402.499142 -41.76 
L 404.09434 -41.76 
L 405.689537 -41.76 
L 407.284734 -41.76 
L 408.879931 -41.76 
L 410.475129 -41.76 
L 412.070326 -41.76 
L 413.665523 -41.76 
L 415.26072 -41.76 
L 416.855918 -41.76 
L 418.451115 -41.76 
L 420.046312 -41.76 
L 421.641509 -41.76 
L 423.236707 -41.76 
L 424.831904 -41.76 
L 426.427101 -41.76 
L 428.022298 -41.76 
L 429.617496 -41.76 
L 431.212693 -41.76 
L 432.80789 -41.76 
L 434.403087 -41.76 
L 435.998285 -41.76 
L 437.593482 -41.76 
L 439.188679 -41.76 
L 440.783877 -41.76 
L 442.379074 -41.76 
L 443.974271 -41.76 
L 445.569468 -41.76 
L 447.164666 -41.76 
L 448.759863 -41.76 
L 450.35506 -41.76 
L 451.950257 -41.76 
L 453.545455 -41.76 
L 455.140652 -41.76 
L 456.735849 -41.76 
L 458.331046 -41.76 
L 459.926244 -41.76 
L 461.521441 -41.76 
L 463.116638 -41.76 
L 464.711835 -41.76 
L 466.307033 -41.76 
L 467.90223 -41.76 
L 469.497427 -41.76 
L 471.092624 -41.76 
L 472.687822 -41.76 
L 474.283019 -41.76 
L 475.878216 -41.76 
L 477.473413 -41.76 
L 479.068611 -41.76 
L 480.663808 -41.76 
L 482.259005 -41.76 
L 483.854202 -41.76 
L 485.4494 -41.76 
L 487.044597 -41.76 
L 488.639794 -41.76 
L 490.234991 -41.76 
L 491.830189 -41.76 
L 493.425386 -41.76 
L 495.020583 -41.76 
L 496.61578 -41.76 
L 498.210978 -41.76 
L 499.806175 -41.76 
L 501.401372 -41.76 
L 502.996569 -41.76 
L 504.591767 -41.76 
L 506.186964 -41.76 
L 507.782161 -41.76 
L 509.377358 -41.76 
L 510.972556 -41.76 
L 512.567753 -41.76 
L 514.16295 -41.76 
L 515.758148 -41.76 
L 517.353345 -41.76 
L 518.948542 -41.76 
L 520.543739 -41.76 
L 522.138937 -41.76 
L 523.734134 -41.76 
L 525.329331 -41.76 
L 526.924528 -41.76 
L 528.519726 -41.76 
L 530.114923 -41.76 
L 531.71012 -41.76 
L 533.305317 -41.76 
L 534.900515 -41.76 
L 536.495712 -41.76 
L 538.090909 -41.76 
L 539.686106 -41.76 
L 541.281304 -41.76 
L 542.876501 -41.76 
L 544.471698 -41.76 
L 546.066895 -41.76 
L 547.662093 -41.76 
L 549.25729 -41.76 
L 550.852487 -41.76 
L 552.447684 -41.76 
L 554.042882 -41.76 
L 555.638079 -41.76 
L 557.233276 -41.76 
L 558.828473 -41.76 
L 560.423671 -41.76 
L 562.018868 -41.76 
L 563.614065 -41.76 
L 565.209262 -41.76 
L 566.80446 -41.76 
L 568.399657 -41.76 
L 569.994854 -41.76 
L 571.590051 -41.76 
L 573.185249 -41.76 
L 574.780446 -41.76 
L 576.375643 -41.76 
L 577.97084 -41.76 
L 579.566038 -41.76 
L 581.161235 -41.76 
L 582.756432 -41.76 
L 584.35163 -41.76 
L 585.946827 -41.76 
L 587.542024 -41.76 
L 589.137221 -41.76 
L 590.732419 -41.76 
L 592.327616 -41.76 
L 593.922813 -41.76 
L 595.51801 -41.76 
L 597.113208 -41.76 
L 598.708405 -41.76 
L 600.303602 -41.76 
L 601.898799 -41.76 
L 603.493997 -41.76 
L 605.089194 -41.76 
L 606.684391 -41.76 
L 608.279588 -41.76 
L 609.874786 -41.76 
L 611.469983 -41.76 
L 613.06518 -41.76 
L 614.660377 -41.76 
L 616.255575 -41.76 
L 617.850772 -41.76 
L 619.445969 -41.76 
L 621.041166 -41.76 
L 622.636364 -41.76 
L 622.636364 -41.76 
L 622.636364 -41.76 
L 621.041166 -41.76 
L 619.445969 -41.76 
L 617.850772 -41.76 
L 616.255575 -41.76 
L 614.660377 -41.76 
L 613.06518 -73.75814 
L 611.469983 -41.76 
L 609.874786 -48.347163 
L 608.279588 -41.76 
L 606.684391 -41.76 
L 605.089194 -43.729116 
L 603.493997 -41.76 
L 601.898799 -41.76 
L 600.303602 -41.76 
L 598.708405 -41.76 
L 597.113208 -52.332279 
L 595.51801 -41.76 
L 593.922813 -41.76 
L 592.327616 -59.013209 
L 590.732419 -41.76 
L 589.137221 -41.76 
L 587.542024 -41.76 
L 585.946827 -41.76 
L 584.35163 -56.364279 
L 582.756432 -72.187535 
L 581.161235 -41.76 
L 579.566038 -41.76 
L 577.97084 -41.76 
L 576.375643 -41.76 
L 574.780446 -77.368186 
L 573.185249 -41.76 
L 571.590051 -41.76 
L 569.994854 -41.76 
L 568.399657 -41.76 
L 566.80446 -56.762791 
L 565.209262 -41.76 
L 563.614065 -41.76 
L 562.018868 -41.76 
L 560.423671 -41.76 
L 558.828473 -54.301395 
L 557.233276 -41.76 
L 555.638079 -41.76 
L 554.042882 -41.76 
L 552.447684 -41.76 
L 550.852487 -62.974884 
L 549.25729 -41.76 
L 547.662093 -41.76 
L 546.066895 -57.466047 
L 544.471698 -41.76 
L 542.876501 -41.76 
L 541.281304 -93.894698 
L 539.686106 -41.76 
L 538.090909 -41.76 
L 536.495712 -41.76 
L 534.900515 -41.76 
L 533.305317 -59.997767 
L 531.71012 -41.76 
L 530.114923 -57.090977 
L 528.519726 -41.76 
L 526.924528 -41.76 
L 525.329331 -64.662698 
L 523.734134 -41.76 
L 522.138937 -41.76 
L 520.543739 -75.211535 
L 518.948542 -41.76 
L 517.353345 -106.787721 
L 515.758148 -41.76 
L 514.16295 -41.76 
L 512.567753 -41.76 
L 510.972556 -41.76 
L 509.377358 -110.491535 
L 507.782161 -41.76 
L 506.186964 -41.76 
L 504.591767 -41.76 
L 502.996569 -41.76 
L 501.401372 -41.76 
L 499.806175 -75.234977 
L 498.210978 -41.76 
L 496.61578 -41.76 
L 495.020583 -52.707349 
L 493.425386 -41.76 
L 491.830189 -41.76 
L 490.234991 -41.76 
L 488.639794 -41.76 
L 487.044597 -49.683349 
L 485.4494 -41.76 
L 483.854202 -41.76 
L 482.259005 -41.76 
L 480.663808 -41.76 
L 479.068611 -44.03386 
L 477.473413 -41.76 
L 475.878216 -41.76 
L 474.283019 -41.76 
L 472.687822 -41.76 
L 471.092624 -41.76 
L 469.497427 -59.364837 
L 467.90223 -52.683907 
L 466.307033 -41.76 
L 464.711835 -41.76 
L 463.116638 -41.76 
L 461.521441 -41.76 
L 459.926244 -41.76 
L 458.331046 -54.746791 
L 456.735849 -41.76 
L 455.140652 -41.76 
L 453.545455 -41.76 
L 451.950257 -63.701581 
L 450.35506 -41.76 
L 448.759863 -41.76 
L 447.164666 -41.76 
L 445.569468 -41.76 
L 443.974271 -61.099535 
L 442.379074 -41.76 
L 440.783877 -41.76 
L 439.188679 -46.964093 
L 437.593482 -41.76 
L 435.998285 -41.76 
L 434.403087 -66.749023 
L 432.80789 -41.76 
L 431.212693 -41.76 
L 429.617496 -56.903442 
L 428.022298 -41.76 
L 426.427101 -52.918326 
L 424.831904 -41.76 
L 423.236707 -51.394605 
L 421.641509 -64.19386 
L 420.046312 -41.76 
L 418.451115 -41.76 
L 416.855918 -41.76 
L 415.26072 -41.76 
L 413.665523 -53.926326 
L 412.070326 -41.76 
L 410.475129 -55.168744 
L 408.879931 -41.76 
L 407.284734 -41.76 
L 405.689537 -41.76 
L 404.09434 -41.76 
L 402.499142 -49.44893 
L 400.903945 -41.76 
L 399.308748 -41.76 
L 397.713551 -56.200186 
L 396.118353 -77.321302 
L 394.523156 -41.76 
L 392.927959 -41.76 
L 391.332762 -41.76 
L 389.737564 -41.76 
L 388.142367 -41.76 
L 386.54717 -77.063442 
L 384.951973 -59.200744 
L 383.356775 -41.76 
L 381.761578 -41.76 
L 380.166381 -57.723907 
L 378.571184 -49.425488 
L 376.975986 -41.76 
L 375.380789 -49.683349 
L 373.785592 -51.253953 
L 372.190395 -41.76 
L 370.595197 -41.76 
L 369 -41.76 
L 367.404803 -41.76 
L 365.809605 -41.76 
L 364.214408 -52.050977 
L 362.619211 -59.693023 
L 361.024014 -41.76 
L 359.428816 -41.76 
L 357.833619 -41.76 
L 356.238422 -41.76 
L 354.643225 -51.652465 
L 353.048027 -41.76 
L 351.45283 -41.76 
L 349.857633 -79.149767 
L 348.262436 -41.76 
L 346.667238 -53.176186 
L 345.072041 -41.76 
L 343.476844 -41.76 
L 341.881647 -41.76 
L 340.286449 -41.76 
L 338.691252 -52.730791 
L 337.096055 -41.76 
L 335.500858 -41.76 
L 333.90566 -51.441488 
L 332.310463 -41.76 
L 330.715266 -41.76 
L 329.120069 -41.76 
L 327.524871 -41.76 
L 325.929674 -65.647256 
L 324.334477 -41.76 
L 322.73928 -41.76 
L 321.144082 -41.76 
L 319.548885 -41.76 
L 317.953688 -41.76 
L 316.358491 -52.894884 
L 314.763293 -41.76 
L 313.168096 -54.301395 
L 311.572899 -41.76 
L 309.977702 -41.76 
L 308.382504 -56.528372 
L 306.787307 -41.76 
L 305.19211 -63.982884 
L 303.596913 -41.76 
L 302.001715 -41.76 
L 300.406518 -41.76 
L 298.811321 -41.76 
L 297.216123 -66.772465 
L 295.620926 -41.76 
L 294.025729 -41.76 
L 292.430532 -41.76 
L 290.835334 -41.76 
L 289.240137 -81.072 
L 287.64494 -41.76 
L 286.049743 -41.76 
L 284.454545 -41.76 
L 282.859348 -41.76 
L 281.264151 -53.574698 
L 279.668954 -41.76 
L 278.073756 -41.76 
L 276.478559 -41.76 
L 274.883362 -86.112 
L 273.288165 -41.76 
L 271.692967 -41.76 
L 270.09777 -60.701023 
L 268.502573 -41.76 
L 266.907376 -41.76 
L 265.312178 -41.76 
L 263.716981 -68.952558 
L 262.121784 -41.76 
L 260.526587 -41.76 
L 258.931389 -53.012093 
L 257.336192 -41.76 
L 255.740995 -41.76 
L 254.145798 -41.76 
L 252.5506 -67.405395 
L 250.955403 -54.981209 
L 249.360206 -41.76 
L 247.765009 -41.76 
L 246.169811 -41.76 
L 244.574614 -41.76 
L 242.979417 -41.76 
L 241.38422 -53.457488 
L 239.789022 -41.76 
L 238.193825 -41.76 
L 236.598628 -41.76 
L 235.003431 -53.715349 
L 233.408233 -41.76 
L 231.813036 -41.76 
L 230.217839 -41.76 
L 228.622642 -41.76 
L 227.027444 -51.886884 
L 225.432247 -41.76 
L 223.83705 -41.76 
L 222.241852 -41.76 
L 220.646655 -41.76 
L 219.051458 -57.747349 
L 217.456261 -41.76 
L 215.861063 -41.76 
L 214.265866 -41.76 
L 212.670669 -54.723349 
L 211.075472 -41.76 
L 209.480274 -41.76 
L 207.885077 -41.76 
L 206.28988 -48.745674 
L 204.694683 -41.76 
L 203.099485 -41.76 
L 201.504288 -41.76 
L 199.909091 -41.76 
L 198.313894 -64.357953 
L 196.718696 -41.76 
L 195.123499 -41.76 
L 193.528302 -41.76 
L 191.933105 -41.76 
L 190.337907 -67.311628 
L 188.74271 -41.76 
L 187.147513 -41.76 
L 185.552316 -66.772465 
L 183.957118 -41.76 
L 182.361921 -41.76 
L 180.766724 -48.745674 
L 179.171527 -41.76 
L 177.576329 -41.76 
L 175.981132 -65.248744 
L 174.385935 -57.395721 
L 172.790738 -41.76 
L 171.19554 -41.76 
L 169.600343 -41.76 
L 168.005146 -41.76 
L 166.409949 -59.317953 
L 164.814751 -41.76 
L 163.219554 -41.76 
L 161.624357 -41.76 
L 160.02916 -41.76 
L 158.433962 -45.346605 
L 156.838765 -41.76 
L 155.243568 -41.76 
L 153.64837 -41.76 
L 152.053173 -41.76 
L 150.457976 -58.567814 
L 148.862779 -41.76 
L 147.267581 -41.76 
L 145.672384 -41.76 
L 144.077187 -41.76 
L 142.48199 -46.964093 
L 140.886792 -41.76 
L 139.291595 -41.76 
L 137.696398 -41.76 
L 136.101201 -41.76 
L 134.506003 -41.76 
L 132.910806 -47.854884 
L 131.315609 -50.245953 
L 129.720412 -41.76 
L 128.125214 -41.76 
L 126.530017 -41.76 
L 124.93482 -41.76 
L 123.339623 -46.893767 
L 121.744425 -41.76 
L 120.149228 -41.76 
L 118.554031 -41.76 
L 116.958834 -41.76 
L 115.363636 -50.972651 
z
" style="stroke: #ff0000; stroke-width: 0.5"/>
    </defs>
    <g clip-path="url(#pf26292098c)">
     <use xlink:href="#m21a79c6dd1" x="0" y="288" style="fill: #ff0000; stroke: #ff0000; stroke-width: 0.5"/>
    </g>
   </g>
   <g id="PolyCollection_2">
    <defs>
     <path id="m85256b064a" d="M 115.363636 -54.043535 
L 115.363636 -50.972651 
L 116.958834 -41.76 
L 118.554031 -41.76 
L 120.149228 -41.76 
L 121.744425 -41.76 
L 123.339623 -46.893767 
L 124.93482 -41.76 
L 126.530017 -41.76 
L 128.125214 -41.76 
L 129.720412 -41.76 
L 131.315609 -50.245953 
L 132.910806 -47.854884 
L 134.506003 -41.76 
L 136.101201 -41.76 
L 137.696398 -41.76 
L 139.291595 -41.76 
L 140.886792 -41.76 
L 142.48199 -46.964093 
L 144.077187 -41.76 
L 145.672384 -41.76 
L 147.267581 -41.76 
L 148.862779 -41.76 
L 150.457976 -58.567814 
L 152.053173 -41.76 
L 153.64837 -41.76 
L 155.243568 -41.76 
L 156.838765 -41.76 
L 158.433962 -45.346605 
L 160.02916 -41.76 
L 161.624357 -41.76 
L 163.219554 -41.76 
L 164.814751 -41.76 
L 166.409949 -59.317953 
L 168.005146 -41.76 
L 169.600343 -41.76 
L 171.19554 -41.76 
L 172.790738 -41.76 
L 174.385935 -57.395721 
L 175.981132 -65.248744 
L 177.576329 -41.76 
L 179.171527 -41.76 
L 180.766724 -48.745674 
L 182.361921 -41.76 
L 183.957118 -41.76 
L 185.552316 -66.772465 
L 187.147513 -41.76 
L 188.74271 -41.76 
L 190.337907 -67.311628 
L 191.933105 -41.76 
L 193.528302 -41.76 
L 195.123499 -41.76 
L 196.718696 -41.76 
L 198.313894 -64.357953 
L 199.909091 -41.76 
L 201.504288 -41.76 
L 203.099485 -41.76 
L 204.694683 -41.76 
L 206.28988 -48.745674 
L 207.885077 -41.76 
L 209.480274 -41.76 
L 211.075472 -41.76 
L 212.670669 -54.723349 
L 214.265866 -41.76 
L 215.861063 -41.76 
L 217.456261 -41.76 
L 219.051458 -57.747349 
L 220.646655 -41.76 
L 222.241852 -41.76 
L 223.83705 -41.76 
L 225.432247 -41.76 
L 227.027444 -51.886884 
L 228.622642 -41.76 
L 230.217839 -41.76 
L 231.813036 -41.76 
L 233.408233 -41.76 
L 235.003431 -53.715349 
L 236.598628 -41.76 
L 238.193825 -41.76 
L 239.789022 -41.76 
L 241.38422 -53.457488 
L 242.979417 -41.76 
L 244.574614 -41.76 
L 246.169811 -41.76 
L 247.765009 -41.76 
L 249.360206 -41.76 
L 250.955403 -54.981209 
L 252.5506 -67.405395 
L 254.145798 -41.76 
L 255.740995 -41.76 
L 257.336192 -41.76 
L 258.931389 -53.012093 
L 260.526587 -41.76 
L 262.121784 -41.76 
L 263.716981 -68.952558 
L 265.312178 -41.76 
L 266.907376 -41.76 
L 268.502573 -41.76 
L 270.09777 -60.701023 
L 271.692967 -41.76 
L 273.288165 -41.76 
L 274.883362 -86.112 
L 276.478559 -41.76 
L 278.073756 -41.76 
L 279.668954 -41.76 
L 281.264151 -53.574698 
L 282.859348 -41.76 
L 284.454545 -41.76 
L 286.049743 -41.76 
L 287.64494 -41.76 
L 289.240137 -81.072 
L 290.835334 -41.76 
L 292.430532 -41.76 
L 294.025729 -41.76 
L 295.620926 -41.76 
L 297.216123 -66.772465 
L 298.811321 -41.76 
L 300.406518 -41.76 
L 302.001715 -41.76 
L 303.596913 -41.76 
L 305.19211 -63.982884 
L 306.787307 -41.76 
L 308.382504 -56.528372 
L 309.977702 -41.76 
L 311.572899 -41.76 
L 313.168096 -54.301395 
L 314.763293 -41.76 
L 316.358491 -52.894884 
L 317.953688 -41.76 
L 319.548885 -41.76 
L 321.144082 -41.76 
L 322.73928 -41.76 
L 324.334477 -41.76 
L 325.929674 -65.647256 
L 327.524871 -41.76 
L 329.120069 -41.76 
L 330.715266 -41.76 
L 332.310463 -41.76 
L 333.90566 -51.441488 
L 335.500858 -41.76 
L 337.096055 -41.76 
L 338.691252 -52.730791 
L 340.286449 -41.76 
L 341.881647 -41.76 
L 343.476844 -41.76 
L 345.072041 -41.76 
L 346.667238 -53.176186 
L 348.262436 -41.76 
L 349.857633 -79.149767 
L 351.45283 -41.76 
L 353.048027 -41.76 
L 354.643225 -51.652465 
L 356.238422 -41.76 
L 357.833619 -41.76 
L 359.428816 -41.76 
L 361.024014 -41.76 
L 362.619211 -59.693023 
L 364.214408 -52.050977 
L 365.809605 -41.76 
L 367.404803 -41.76 
L 369 -41.76 
L 370.595197 -41.76 
L 372.190395 -41.76 
L 373.785592 -51.253953 
L 375.380789 -49.683349 
L 376.975986 -41.76 
L 378.571184 -49.425488 
L 380.166381 -57.723907 
L 381.761578 -41.76 
L 383.356775 -41.76 
L 384.951973 -59.200744 
L 386.54717 -77.063442 
L 388.142367 -41.76 
L 389.737564 -41.76 
L 391.332762 -41.76 
L 392.927959 -41.76 
L 394.523156 -41.76 
L 396.118353 -77.321302 
L 397.713551 -56.200186 
L 399.308748 -41.76 
L 400.903945 -41.76 
L 402.499142 -49.44893 
L 404.09434 -41.76 
L 405.689537 -41.76 
L 407.284734 -41.76 
L 408.879931 -41.76 
L 410.475129 -55.168744 
L 412.070326 -41.76 
L 413.665523 -53.926326 
L 415.26072 -41.76 
L 416.855918 -41.76 
L 418.451115 -41.76 
L 420.046312 -41.76 
L 421.641509 -64.19386 
L 423.236707 -51.394605 
L 424.831904 -41.76 
L 426.427101 -52.918326 
L 428.022298 -41.76 
L 429.617496 -56.903442 
L 431.212693 -41.76 
L 432.80789 -41.76 
L 434.403087 -66.749023 
L 435.998285 -41.76 
L 437.593482 -41.76 
L 439.188679 -46.964093 
L 440.783877 -41.76 
L 442.379074 -41.76 
L 443.974271 -61.099535 
L 445.569468 -41.76 
L 447.164666 -41.76 
L 448.759863 -41.76 
L 450.35506 -41.76 
L 451.950257 -63.701581 
L 453.545455 -41.76 
L 455.140652 -41.76 
L 456.735849 -41.76 
L 458.331046 -54.746791 
L 459.926244 -41.76 
L 461.521441 -41.76 
L 463.116638 -41.76 
L 464.711835 -41.76 
L 466.307033 -41.76 
L 467.90223 -52.683907 
L 469.497427 -59.364837 
L 471.092624 -41.76 
L 472.687822 -41.76 
L 474.283019 -41.76 
L 475.878216 -41.76 
L 477.473413 -41.76 
L 479.068611 -44.03386 
L 480.663808 -41.76 
L 482.259005 -41.76 
L 483.854202 -41.76 
L 485.4494 -41.76 
L 487.044597 -49.683349 
L 488.639794 -41.76 
L 490.234991 -41.76 
L 491.830189 -41.76 
L 493.425386 -41.76 
L 495.020583 -52.707349 
L 496.61578 -41.76 
L 498.210978 -41.76 
L 499.806175 -75.234977 
L 501.401372 -41.76 
L 502.996569 -41.76 
L 504.591767 -41.76 
L 506.186964 -41.76 
L 507.782161 -41.76 
L 509.377358 -110.491535 
L 510.972556 -41.76 
L 512.567753 -41.76 
L 514.16295 -41.76 
L 515.758148 -41.76 
L 517.353345 -106.787721 
L 518.948542 -41.76 
L 520.543739 -75.211535 
L 522.138937 -41.76 
L 523.734134 -41.76 
L 525.329331 -64.662698 
L 526.924528 -41.76 
L 528.519726 -41.76 
L 530.114923 -57.090977 
L 531.71012 -41.76 
L 533.305317 -59.997767 
L 534.900515 -41.76 
L 536.495712 -41.76 
L 538.090909 -41.76 
L 539.686106 -41.76 
L 541.281304 -93.894698 
L 542.876501 -41.76 
L 544.471698 -41.76 
L 546.066895 -57.466047 
L 547.662093 -41.76 
L 549.25729 -41.76 
L 550.852487 -62.974884 
L 552.447684 -41.76 
L 554.042882 -41.76 
L 555.638079 -41.76 
L 557.233276 -41.76 
L 558.828473 -54.301395 
L 560.423671 -41.76 
L 562.018868 -41.76 
L 563.614065 -41.76 
L 565.209262 -41.76 
L 566.80446 -56.762791 
L 568.399657 -41.76 
L 569.994854 -41.76 
L 571.590051 -41.76 
L 573.185249 -41.76 
L 574.780446 -77.368186 
L 576.375643 -41.76 
L 577.97084 -41.76 
L 579.566038 -41.76 
L 581.161235 -41.76 
L 582.756432 -72.187535 
L 584.35163 -56.364279 
L 585.946827 -41.76 
L 587.542024 -41.76 
L 589.137221 -41.76 
L 590.732419 -41.76 
L 592.327616 -59.013209 
L 593.922813 -41.76 
L 595.51801 -41.76 
L 597.113208 -52.332279 
L 598.708405 -41.76 
L 600.303602 -41.76 
L 601.898799 -41.76 
L 603.493997 -41.76 
L 605.089194 -43.729116 
L 606.684391 -41.76 
L 608.279588 -41.76 
L 609.874786 -48.347163 
L 611.469983 -41.76 
L 613.06518 -73.75814 
L 614.660377 -41.76 
L 616.255575 -41.76 
L 617.850772 -41.76 
L 619.445969 -41.76 
L 621.041166 -41.76 
L 622.636364 -41.76 
L 622.636364 -41.76 
L 622.636364 -41.76 
L 621.041166 -42.486698 
L 619.445969 -42.486698 
L 617.850772 -42.486698 
L 616.255575 -42.486698 
L 614.660377 -42.557023 
L 613.06518 -77.719814 
L 611.469983 -48.55814 
L 609.874786 -56.575256 
L 608.279588 -44.362047 
L 606.684391 -44.455814 
L 605.089194 -47.479814 
L 603.493997 -49.636465 
L 601.898799 -56.528372 
L 600.303602 -52.121302 
L 598.708405 -49.870884 
L 597.113208 -57.888 
L 595.51801 -51.136744 
L 593.922813 -52.402605 
L 592.327616 -68.483721 
L 590.732419 -53.856 
L 589.137221 -54.793674 
L 587.542024 -54.066977 
L 585.946827 -52.848 
L 584.35163 -70.663814 
L 582.756432 -94.668279 
L 581.161235 -65.717581 
L 579.566038 -64.240744 
L 577.97084 -65.600372 
L 576.375643 -63.795349 
L 574.780446 -109.506977 
L 573.185249 -74.320744 
L 571.590051 -72.75014 
L 569.994854 -78.79814 
L 568.399657 -83.533395 
L 566.80446 -98.817488 
L 565.209262 -83.955349 
L 563.614065 -65.436279 
L 562.018868 -68.507163 
L 560.423671 -65.131535 
L 558.828473 -66.889674 
L 557.233276 -50.316279 
L 555.638079 -49.659907 
L 554.042882 -51.535256 
L 552.447684 -50.316279 
L 550.852487 -69.773023 
L 549.25729 -62.928 
L 547.662093 -63.771907 
L 546.066895 -79.829581 
L 544.471698 -58.755349 
L 542.876501 -63.537488 
L 541.281304 -113.140465 
L 539.686106 -62.693581 
L 538.090909 -61.943442 
L 536.495712 -65.717581 
L 534.900515 -63.725023 
L 533.305317 -78.212093 
L 531.71012 -47.05786 
L 530.114923 -61.099535 
L 528.519726 -57.372279 
L 526.924528 -58.309953 
L 525.329331 -84.236651 
L 523.734134 -79.618605 
L 522.138937 -82.056558 
L 520.543739 -100.880372 
L 518.948542 -72.843907 
L 517.353345 -134.472558 
L 515.758148 -78.587163 
L 514.16295 -88.737488 
L 512.567753 -85.525953 
L 510.972556 -83.111442 
L 509.377358 -145.607442 
L 507.782161 -84.096 
L 506.186964 -87.401302 
L 504.591767 -78.212093 
L 502.996569 -68.765023 
L 501.401372 -74.461395 
L 499.806175 -84.283535 
L 498.210978 -50.949209 
L 496.61578 -50.08186 
L 495.020583 -63.232744 
L 493.425386 -50.949209 
L 491.830189 -50.785116 
L 490.234991 -49.613023 
L 488.639794 -57.700465 
L 487.044597 -68.178977 
L 485.4494 -53.082419 
L 483.854202 -50.058419 
L 482.259005 -44.291721 
L 480.663808 -45.135628 
L 479.068611 -47.690791 
L 477.473413 -55.942326 
L 475.878216 -65.037767 
L 474.283019 -59.763349 
L 472.687822 -58.544372 
L 471.092624 -56.997209 
L 469.497427 -67.616372 
L 467.90223 -60.818233 
L 466.307033 -50.738233 
L 464.711835 -50.269395 
L 463.116638 -48.55814 
L 461.521441 -49.425488 
L 459.926244 -48.909767 
L 458.331046 -56.669023 
L 456.735849 -44.52614 
L 455.140652 -45.229395 
L 453.545455 -46.096744 
L 451.950257 -65.952 
L 450.35506 -43.822884 
L 448.759863 -43.377488 
L 447.164666 -44.15107 
L 445.569468 -44.197953 
L 443.974271 -63.256186 
L 442.379074 -46.823442 
L 440.783877 -47.854884 
L 439.188679 -51.910326 
L 437.593482 -43.447814 
L 435.998285 -44.385488 
L 434.403087 -68.319628 
L 432.80789 -46.307721 
L 431.212693 -46.940651 
L 429.617496 -61.521488 
L 428.022298 -56.364279 
L 426.427101 -64.967442 
L 424.831904 -59.575814 
L 423.236707 -59.27107 
L 421.641509 -69.702698 
L 420.046312 -52.121302 
L 418.451115 -49.402047 
L 416.855918 -45.979535 
L 415.26072 -47.456372 
L 413.665523 -60.232186 
L 412.070326 -45.627907 
L 410.475129 -61.943442 
L 408.879931 -49.284837 
L 407.284734 -51.300837 
L 405.689537 -51.019535 
L 404.09434 -48.112744 
L 402.499142 -51.722791 
L 400.903945 -43.822884 
L 399.308748 -44.244837 
L 397.713551 -57.489488 
L 396.118353 -79.407628 
L 394.523156 -43.658791 
L 392.927959 -43.541581 
L 391.332762 -44.080744 
L 389.737564 -44.338605 
L 388.142367 -44.549581 
L 386.54717 -83.603721 
L 384.951973 -64.264186 
L 383.356775 -53.434047 
L 381.761578 -54.535814 
L 380.166381 -70.054326 
L 378.571184 -62.599814 
L 376.975986 -53.035535 
L 375.380789 -54.817116 
L 373.785592 -55.215628 
L 372.190395 -45.370047 
L 370.595197 -45.956093 
L 369 -48.698791 
L 367.404803 -45.04186 
L 365.809605 -45.979535 
L 364.214408 -54.840558 
L 362.619211 -67.59293 
L 361.024014 -47.503256 
L 359.428816 -44.40893 
L 357.833619 -47.479814 
L 356.238422 -48.534698 
L 354.643225 -54.137302 
L 353.048027 -43.424372 
L 351.45283 -43.635349 
L 349.857633 -80.81414 
L 348.262436 -44.432372 
L 346.667238 -56.88 
L 345.072041 -45.604465 
L 343.476844 -45.674791 
L 341.881647 -45.088744 
L 340.286449 -47.198512 
L 338.691252 -62.459163 
L 337.096055 -54.817116 
L 335.500858 -52.965209 
L 333.90566 -64.217302 
L 332.310463 -54.348279 
L 330.715266 -60.091535 
L 329.120069 -51.652465 
L 327.524871 -49.636465 
L 325.929674 -71.601488 
L 324.334477 -55.145302 
L 322.73928 -49.425488 
L 321.144082 -57.653581 
L 319.548885 -52.848 
L 317.953688 -46.776558 
L 316.358491 -55.192186 
L 314.763293 -44.52614 
L 313.168096 -55.989209 
L 311.572899 -44.596465 
L 309.977702 -45.604465 
L 308.382504 -62.224744 
L 306.787307 -53.10586 
L 305.19211 -72.351628 
L 303.596913 -46.354605 
L 302.001715 -44.619907 
L 300.406518 -43.682233 
L 298.811321 -44.268279 
L 297.216123 -71.953116 
L 295.620926 -46.307721 
L 294.025729 -50.128744 
L 292.430532 -46.635907 
L 290.835334 -46.42493 
L 289.240137 -83.931907 
L 287.64494 -47.245395 
L 286.049743 -48.136186 
L 284.454545 -46.729674 
L 282.859348 -45.229395 
L 281.264151 -55.754791 
L 279.668954 -45.135628 
L 278.073756 -45.768558 
L 276.478559 -45.252837 
L 274.883362 -93.191442 
L 273.288165 -49.050419 
L 271.692967 -49.706791 
L 270.09777 -65.834791 
L 268.502573 -44.174512 
L 266.907376 -44.901209 
L 265.312178 -44.854326 
L 263.716981 -74.578605 
L 262.121784 -48.55814 
L 260.526587 -49.824 
L 258.931389 -60.372837 
L 257.336192 -45.065302 
L 255.740995 -45.909209 
L 254.145798 -44.760558 
L 252.5506 -69.538605 
L 250.955403 -57.583256 
L 249.360206 -44.573023 
L 247.765009 -44.174512 
L 246.169811 -44.15107 
L 244.574614 -45.323163 
L 242.979417 -47.854884 
L 241.38422 -56.786233 
L 239.789022 -46.143628 
L 238.193825 -44.901209 
L 236.598628 -44.15107 
L 235.003431 -55.684465 
L 233.408233 -44.057302 
L 231.813036 -44.971535 
L 230.217839 -43.963535 
L 228.622642 -44.479256 
L 227.027444 -55.356279 
L 225.432247 -48.300279 
L 223.83705 -46.354605 
L 222.241852 -45.487256 
L 220.646655 -46.659349 
L 219.051458 -60.138419 
L 217.456261 -45.112186 
L 215.861063 -47.690791 
L 214.265866 -48.159628 
L 212.670669 -60.607256 
L 211.075472 -48.44093 
L 209.480274 -48.487814 
L 207.885077 -48.370605 
L 206.28988 -55.168744 
L 204.694683 -48.44093 
L 203.099485 -48.44093 
L 201.504288 -48.722233 
L 199.909091 -48.417488 
L 198.313894 -66.022326 
L 196.718696 -43.330605 
L 195.123499 -43.541581 
L 193.528302 -43.611907 
L 191.933105 -43.354047 
L 190.337907 -68.811907 
L 188.74271 -43.494698 
L 187.147513 -43.354047 
L 185.552316 -68.296186 
L 183.957118 -44.432372 
L 182.361921 -45.065302 
L 180.766724 -50.832 
L 179.171527 -44.385488 
L 177.576329 -44.619907 
L 175.981132 -66.889674 
L 174.385935 -59.060093 
L 172.790738 -43.658791 
L 171.19554 -44.221395 
L 169.600343 -44.901209 
L 168.005146 -45.065302 
L 166.409949 -61.66214 
L 164.814751 -45.41693 
L 163.219554 -48.956651 
L 161.624357 -53.926326 
L 160.02916 -47.43293 
L 158.433962 -51.113302 
L 156.838765 -52.566698 
L 155.243568 -50.316279 
L 153.64837 -65.459721 
L 152.053173 -65.881674 
L 150.457976 -83.955349 
L 148.862779 -49.777116 
L 147.267581 -52.683907 
L 145.672384 -52.543256 
L 144.077187 -51.253953 
L 142.48199 -55.356279 
L 140.886792 -52.144744 
L 139.291595 -52.894884 
L 137.696398 -53.293395 
L 136.101201 -52.144744 
L 134.506003 -50.621023 
L 132.910806 -54.770233 
L 131.315609 -57.958326 
L 129.720412 -49.542698 
L 128.125214 -51.558698 
L 126.530017 -52.050977 
L 124.93482 -51.019535 
L 123.339623 -51.910326 
L 121.744425 -44.03386 
L 120.149228 -43.799442 
L 118.554031 -44.104186 
L 116.958834 -44.455814 
L 115.363636 -54.043535 
z
" style="stroke: #0000ff; stroke-width: 0.5"/>
    </defs>
    <g clip-path="url(#pf26292098c)">
     <use xlink:href="#m85256b064a" x="0" y="288" style="fill: #0000ff; stroke: #0000ff; stroke-width: 0.5"/>
    </g>
   </g>
   <g id="PolyCollection_3">
    <defs>
     <path id="mf59aca47f4" d="M 115.363636 -58.309953 
L 115.363636 -54.043535 
L 116.958834 -44.455814 
L 118.554031 -44.104186 
L 120.149228 -43.799442 
L 121.744425 -44.03386 
L 123.339623 -51.910326 
L 124.93482 -51.019535 
L 126.530017 -52.050977 
L 128.125214 -51.558698 
L 129.720412 -49.542698 
L 131.315609 -57.958326 
L 132.910806 -54.770233 
L 134.506003 -50.621023 
L 136.101201 -52.144744 
L 137.696398 -53.293395 
L 139.291595 -52.894884 
L 140.886792 -52.144744 
L 142.48199 -55.356279 
L 144.077187 -51.253953 
L 145.672384 -52.543256 
L 147.267581 -52.683907 
L 148.862779 -49.777116 
L 150.457976 -83.955349 
L 152.053173 -65.881674 
L 153.64837 -65.459721 
L 155.243568 -50.316279 
L 156.838765 -52.566698 
L 158.433962 -51.113302 
L 160.02916 -47.43293 
L 161.624357 -53.926326 
L 163.219554 -48.956651 
L 164.814751 -45.41693 
L 166.409949 -61.66214 
L 168.005146 -45.065302 
L 169.600343 -44.901209 
L 171.19554 -44.221395 
L 172.790738 -43.658791 
L 174.385935 -59.060093 
L 175.981132 -66.889674 
L 177.576329 -44.619907 
L 179.171527 -44.385488 
L 180.766724 -50.832 
L 182.361921 -45.065302 
L 183.957118 -44.432372 
L 185.552316 -68.296186 
L 187.147513 -43.354047 
L 188.74271 -43.494698 
L 190.337907 -68.811907 
L 191.933105 -43.354047 
L 193.528302 -43.611907 
L 195.123499 -43.541581 
L 196.718696 -43.330605 
L 198.313894 -66.022326 
L 199.909091 -48.417488 
L 201.504288 -48.722233 
L 203.099485 -48.44093 
L 204.694683 -48.44093 
L 206.28988 -55.168744 
L 207.885077 -48.370605 
L 209.480274 -48.487814 
L 211.075472 -48.44093 
L 212.670669 -60.607256 
L 214.265866 -48.159628 
L 215.861063 -47.690791 
L 217.456261 -45.112186 
L 219.051458 -60.138419 
L 220.646655 -46.659349 
L 222.241852 -45.487256 
L 223.83705 -46.354605 
L 225.432247 -48.300279 
L 227.027444 -55.356279 
L 228.622642 -44.479256 
L 230.217839 -43.963535 
L 231.813036 -44.971535 
L 233.408233 -44.057302 
L 235.003431 -55.684465 
L 236.598628 -44.15107 
L 238.193825 -44.901209 
L 239.789022 -46.143628 
L 241.38422 -56.786233 
L 242.979417 -47.854884 
L 244.574614 -45.323163 
L 246.169811 -44.15107 
L 247.765009 -44.174512 
L 249.360206 -44.573023 
L 250.955403 -57.583256 
L 252.5506 -69.538605 
L 254.145798 -44.760558 
L 255.740995 -45.909209 
L 257.336192 -45.065302 
L 258.931389 -60.372837 
L 260.526587 -49.824 
L 262.121784 -48.55814 
L 263.716981 -74.578605 
L 265.312178 -44.854326 
L 266.907376 -44.901209 
L 268.502573 -44.174512 
L 270.09777 -65.834791 
L 271.692967 -49.706791 
L 273.288165 -49.050419 
L 274.883362 -93.191442 
L 276.478559 -45.252837 
L 278.073756 -45.768558 
L 279.668954 -45.135628 
L 281.264151 -55.754791 
L 282.859348 -45.229395 
L 284.454545 -46.729674 
L 286.049743 -48.136186 
L 287.64494 -47.245395 
L 289.240137 -83.931907 
L 290.835334 -46.42493 
L 292.430532 -46.635907 
L 294.025729 -50.128744 
L 295.620926 -46.307721 
L 297.216123 -71.953116 
L 298.811321 -44.268279 
L 300.406518 -43.682233 
L 302.001715 -44.619907 
L 303.596913 -46.354605 
L 305.19211 -72.351628 
L 306.787307 -53.10586 
L 308.382504 -62.224744 
L 309.977702 -45.604465 
L 311.572899 -44.596465 
L 313.168096 -55.989209 
L 314.763293 -44.52614 
L 316.358491 -55.192186 
L 317.953688 -46.776558 
L 319.548885 -52.848 
L 321.144082 -57.653581 
L 322.73928 -49.425488 
L 324.334477 -55.145302 
L 325.929674 -71.601488 
L 327.524871 -49.636465 
L 329.120069 -51.652465 
L 330.715266 -60.091535 
L 332.310463 -54.348279 
L 333.90566 -64.217302 
L 335.500858 -52.965209 
L 337.096055 -54.817116 
L 338.691252 -62.459163 
L 340.286449 -47.198512 
L 341.881647 -45.088744 
L 343.476844 -45.674791 
L 345.072041 -45.604465 
L 346.667238 -56.88 
L 348.262436 -44.432372 
L 349.857633 -80.81414 
L 351.45283 -43.635349 
L 353.048027 -43.424372 
L 354.643225 -54.137302 
L 356.238422 -48.534698 
L 357.833619 -47.479814 
L 359.428816 -44.40893 
L 361.024014 -47.503256 
L 362.619211 -67.59293 
L 364.214408 -54.840558 
L 365.809605 -45.979535 
L 367.404803 -45.04186 
L 369 -48.698791 
L 370.595197 -45.956093 
L 372.190395 -45.370047 
L 373.785592 -55.215628 
L 375.380789 -54.817116 
L 376.975986 -53.035535 
L 378.571184 -62.599814 
L 380.166381 -70.054326 
L 381.761578 -54.535814 
L 383.356775 -53.434047 
L 384.951973 -64.264186 
L 386.54717 -83.603721 
L 388.142367 -44.549581 
L 389.737564 -44.338605 
L 391.332762 -44.080744 
L 392.927959 -43.541581 
L 394.523156 -43.658791 
L 396.118353 -79.407628 
L 397.713551 -57.489488 
L 399.308748 -44.244837 
L 400.903945 -43.822884 
L 402.499142 -51.722791 
L 404.09434 -48.112744 
L 405.689537 -51.019535 
L 407.284734 -51.300837 
L 408.879931 -49.284837 
L 410.475129 -61.943442 
L 412.070326 -45.627907 
L 413.665523 -60.232186 
L 415.26072 -47.456372 
L 416.855918 -45.979535 
L 418.451115 -49.402047 
L 420.046312 -52.121302 
L 421.641509 -69.702698 
L 423.236707 -59.27107 
L 424.831904 -59.575814 
L 426.427101 -64.967442 
L 428.022298 -56.364279 
L 429.617496 -61.521488 
L 431.212693 -46.940651 
L 432.80789 -46.307721 
L 434.403087 -68.319628 
L 435.998285 -44.385488 
L 437.593482 -43.447814 
L 439.188679 -51.910326 
L 440.783877 -47.854884 
L 442.379074 -46.823442 
L 443.974271 -63.256186 
L 445.569468 -44.197953 
L 447.164666 -44.15107 
L 448.759863 -43.377488 
L 450.35506 -43.822884 
L 451.950257 -65.952 
L 453.545455 -46.096744 
L 455.140652 -45.229395 
L 456.735849 -44.52614 
L 458.331046 -56.669023 
L 459.926244 -48.909767 
L 461.521441 -49.425488 
L 463.116638 -48.55814 
L 464.711835 -50.269395 
L 466.307033 -50.738233 
L 467.90223 -60.818233 
L 469.497427 -67.616372 
L 471.092624 -56.997209 
L 472.687822 -58.544372 
L 474.283019 -59.763349 
L 475.878216 -65.037767 
L 477.473413 -55.942326 
L 479.068611 -47.690791 
L 480.663808 -45.135628 
L 482.259005 -44.291721 
L 483.854202 -50.058419 
L 485.4494 -53.082419 
L 487.044597 -68.178977 
L 488.639794 -57.700465 
L 490.234991 -49.613023 
L 491.830189 -50.785116 
L 493.425386 -50.949209 
L 495.020583 -63.232744 
L 496.61578 -50.08186 
L 498.210978 -50.949209 
L 499.806175 -84.283535 
L 501.401372 -74.461395 
L 502.996569 -68.765023 
L 504.591767 -78.212093 
L 506.186964 -87.401302 
L 507.782161 -84.096 
L 509.377358 -145.607442 
L 510.972556 -83.111442 
L 512.567753 -85.525953 
L 514.16295 -88.737488 
L 515.758148 -78.587163 
L 517.353345 -134.472558 
L 518.948542 -72.843907 
L 520.543739 -100.880372 
L 522.138937 -82.056558 
L 523.734134 -79.618605 
L 525.329331 -84.236651 
L 526.924528 -58.309953 
L 528.519726 -57.372279 
L 530.114923 -61.099535 
L 531.71012 -47.05786 
L 533.305317 -78.212093 
L 534.900515 -63.725023 
L 536.495712 -65.717581 
L 538.090909 -61.943442 
L 539.686106 -62.693581 
L 541.281304 -113.140465 
L 542.876501 -63.537488 
L 544.471698 -58.755349 
L 546.066895 -79.829581 
L 547.662093 -63.771907 
L 549.25729 -62.928 
L 550.852487 -69.773023 
L 552.447684 -50.316279 
L 554.042882 -51.535256 
L 555.638079 -49.659907 
L 557.233276 -50.316279 
L 558.828473 -66.889674 
L 560.423671 -65.131535 
L 562.018868 -68.507163 
L 563.614065 -65.436279 
L 565.209262 -83.955349 
L 566.80446 -98.817488 
L 568.399657 -83.533395 
L 569.994854 -78.79814 
L 571.590051 -72.75014 
L 573.185249 -74.320744 
L 574.780446 -109.506977 
L 576.375643 -63.795349 
L 577.97084 -65.600372 
L 579.566038 -64.240744 
L 581.161235 -65.717581 
L 582.756432 -94.668279 
L 584.35163 -70.663814 
L 585.946827 -52.848 
L 587.542024 -54.066977 
L 589.137221 -54.793674 
L 590.732419 -53.856 
L 592.327616 -68.483721 
L 593.922813 -52.402605 
L 595.51801 -51.136744 
L 597.113208 -57.888 
L 598.708405 -49.870884 
L 600.303602 -52.121302 
L 601.898799 -56.528372 
L 603.493997 -49.636465 
L 605.089194 -47.479814 
L 606.684391 -44.455814 
L 608.279588 -44.362047 
L 609.874786 -56.575256 
L 611.469983 -48.55814 
L 613.06518 -77.719814 
L 614.660377 -42.557023 
L 616.255575 -42.486698 
L 617.850772 -42.486698 
L 619.445969 -42.486698 
L 621.041166 -42.486698 
L 622.636364 -41.76 
L 622.636364 -41.783442 
L 622.636364 -41.783442 
L 621.041166 -42.580465 
L 619.445969 -42.580465 
L 617.850772 -42.580465 
L 616.255575 -42.603907 
L 614.660377 -42.744558 
L 613.06518 -83.767814 
L 611.469983 -57.13786 
L 609.874786 -72.562605 
L 608.279588 -48.229953 
L 606.684391 -47.972093 
L 605.089194 -54.840558 
L 603.493997 -77.930791 
L 601.898799 -151.092837 
L 600.303602 -174.933209 
L 598.708405 -174.675349 
L 597.113208 -131.753302 
L 595.51801 -87.260651 
L 593.922813 -97.410977 
L 592.327616 -115.71907 
L 590.732419 -102.826047 
L 589.137221 -110.890047 
L 587.542024 -115.344 
L 585.946827 -98.559628 
L 584.35163 -115.789395 
L 582.756432 -157.140837 
L 581.161235 -135.011721 
L 579.566038 -143.94307 
L 577.97084 -134.730419 
L 576.375643 -134.566326 
L 574.780446 -176.128744 
L 573.185249 -149.545674 
L 571.590051 -144.529116 
L 569.994854 -164.267163 
L 568.399657 -155.077953 
L 566.80446 -182.926884 
L 565.209262 -165.533023 
L 563.614065 -142.419349 
L 562.018868 -113.234233 
L 560.423671 -118.883721 
L 558.828473 -151.327256 
L 557.233276 -97.340651 
L 555.638079 -70.593488 
L 554.042882 -102.286884 
L 552.447684 -99.426977 
L 550.852487 -110.069581 
L 549.25729 -103.154233 
L 547.662093 -105.240558 
L 546.066895 -148.86586 
L 544.471698 -128.330791 
L 542.876501 -106.412651 
L 541.281304 -155.710884 
L 539.686106 -117.969488 
L 538.090909 -131.448558 
L 536.495712 -146.638884 
L 534.900515 -143.263256 
L 533.305317 -142.278698 
L 531.71012 -100.786605 
L 530.114923 -105.123349 
L 528.519726 -108.54586 
L 526.924528 -112.788837 
L 525.329331 -162.97786 
L 523.734134 -175.894326 
L 522.138937 -188.693581 
L 520.543739 -177.933767 
L 518.948542 -174.581581 
L 517.353345 -204.891907 
L 515.758148 -204.563721 
L 514.16295 -203.274419 
L 512.567753 -209.228651 
L 510.972556 -193.874233 
L 509.377358 -243.36 
L 507.782161 -185.810233 
L 506.186964 -202.219535 
L 504.591767 -207.775256 
L 502.996569 -151.022512 
L 501.401372 -173.737674 
L 499.806175 -110.350884 
L 498.210978 -73.617488 
L 496.61578 -107.115907 
L 495.020583 -99.895814 
L 493.425386 -89.698605 
L 491.830189 -80.81414 
L 490.234991 -95.93414 
L 488.639794 -95.81693 
L 487.044597 -95.910698 
L 485.4494 -65.248744 
L 483.854202 -69.163535 
L 482.259005 -55.825116 
L 480.663808 -50.222512 
L 479.068611 -52.918326 
L 477.473413 -89.675163 
L 475.878216 -110.514977 
L 474.283019 -106.52986 
L 472.687822 -99.075349 
L 471.092624 -90.003349 
L 469.497427 -81.165767 
L 467.90223 -76.078884 
L 466.307033 -68.952558 
L 464.711835 -95.324651 
L 463.116638 -85.385302 
L 461.521441 -62.763907 
L 459.926244 -61.498047 
L 458.331046 -58.896 
L 456.735849 -50.503814 
L 455.140652 -56.598698 
L 453.545455 -58.309953 
L 451.950257 -74.578605 
L 450.35506 -48.464372 
L 448.759863 -46.213953 
L 447.164666 -49.870884 
L 445.569468 -49.988093 
L 443.974271 -67.264744 
L 442.379074 -58.239628 
L 440.783877 -59.974326 
L 439.188679 -62.435721 
L 437.593482 -46.753116 
L 435.998285 -49.917767 
L 434.403087 -70.968558 
L 432.80789 -58.14586 
L 431.212693 -65.084651 
L 429.617496 -80.626605 
L 428.022298 -69.116651 
L 426.427101 -93.566512 
L 424.831904 -78.704372 
L 423.236707 -91.995907 
L 421.641509 -80.861023 
L 420.046312 -69.280744 
L 418.451115 -65.998884 
L 416.855918 -53.457488 
L 415.26072 -61.849674 
L 413.665523 -69.046326 
L 412.070326 -52.894884 
L 410.475129 -68.155535 
L 408.879931 -57.301953 
L 407.284734 -73.125209 
L 405.689537 -64.451721 
L 404.09434 -65.623814 
L 402.499142 -53.691907 
L 400.903945 -47.292279 
L 399.308748 -47.315721 
L 397.713551 -58.872558 
L 396.118353 -82.548837 
L 394.523156 -46.518698 
L 392.927959 -45.792 
L 391.332762 -47.854884 
L 389.737564 -47.995535 
L 388.142367 -48.18307 
L 386.54717 -93.191442 
L 384.951973 -79.032558 
L 383.356775 -76.430512 
L 381.761578 -81.118884 
L 380.166381 -86.36986 
L 378.571184 -78.001116 
L 376.975986 -71.132651 
L 375.380789 -65.084651 
L 373.785592 -66.092651 
L 372.190395 -51.019535 
L 370.595197 -56.106419 
L 369 -56.786233 
L 367.404803 -57.466047 
L 365.809605 -50.034977 
L 364.214408 -58.427163 
L 362.619211 -84.002233 
L 361.024014 -71.953116 
L 359.428816 -48.417488 
L 357.833619 -71.695256 
L 356.238422 -69.35107 
L 354.643225 -58.802233 
L 353.048027 -45.885767 
L 351.45283 -45.909209 
L 349.857633 -84.306977 
L 348.262436 -51.183628 
L 346.667238 -66.069209 
L 345.072041 -57.442605 
L 343.476844 -54.817116 
L 341.881647 -51.675907 
L 340.286449 -63.232744 
L 338.691252 -76.078884 
L 337.096055 -76.594605 
L 335.500858 -72.210977 
L 333.90566 -85.525953 
L 332.310463 -83.064558 
L 330.715266 -82.501953 
L 329.120069 -82.83014 
L 327.524871 -62.576372 
L 325.929674 -84.025674 
L 324.334477 -74.625488 
L 322.73928 -63.795349 
L 321.144082 -90.495628 
L 319.548885 -81.611163 
L 317.953688 -67.405395 
L 316.358491 -58.239628 
L 314.763293 -48.628465 
L 313.168096 -58.380279 
L 311.572899 -50.19907 
L 309.977702 -52.848 
L 308.382504 -77.41507 
L 306.787307 -71.554605 
L 305.19211 -92.863256 
L 303.596913 -56.88 
L 302.001715 -48.253395 
L 300.406518 -47.104744 
L 298.811321 -49.026977 
L 297.216123 -81.376744 
L 295.620926 -54.910884 
L 294.025729 -67.358512 
L 292.430532 -59.15386 
L 290.835334 -53.316837 
L 289.240137 -91.222326 
L 287.64494 -59.177302 
L 286.049743 -59.411721 
L 284.454545 -57.606698 
L 282.859348 -53.10586 
L 281.264151 -60.16186 
L 279.668954 -58.169302 
L 278.073756 -64.545488 
L 276.478559 -56.997209 
L 274.883362 -103.294884 
L 273.288165 -64.240744 
L 271.692967 -65.975442 
L 270.09777 -74.602047 
L 268.502573 -51.652465 
L 266.907376 -54.277953 
L 265.312178 -51.722791 
L 263.716981 -84.588279 
L 262.121784 -94.410419 
L 260.526587 -91.245767 
L 258.931389 -98.184558 
L 257.336192 -57.583256 
L 255.740995 -60.325953 
L 254.145798 -57.888 
L 252.5506 -75.610047 
L 250.955403 -61.16986 
L 249.360206 -49.706791 
L 247.765009 -47.081302 
L 246.169811 -49.120744 
L 244.574614 -54.207628 
L 242.979417 -58.286512 
L 241.38422 -60.27907 
L 239.789022 -52.660465 
L 238.193825 -51.418047 
L 236.598628 -47.151628 
L 235.003431 -58.26307 
L 233.408233 -48.44093 
L 231.813036 -50.785116 
L 230.217839 -47.479814 
L 228.622642 -49.683349 
L 227.027444 -63.18586 
L 225.432247 -70.101209 
L 223.83705 -55.004651 
L 222.241852 -55.403163 
L 220.646655 -56.12986 
L 219.051458 -62.037209 
L 217.456261 -49.026977 
L 215.861063 -58.028651 
L 214.265866 -57.747349 
L 212.670669 -76.829023 
L 211.075472 -68.178977 
L 209.480274 -68.671256 
L 207.885077 -67.757023 
L 206.28988 -77.110326 
L 204.694683 -70.194977 
L 203.099485 -69.538605 
L 201.504288 -71.554605 
L 199.909091 -69.093209 
L 198.313894 -71.038884 
L 196.718696 -51.324279 
L 195.123499 -50.855442 
L 193.528302 -50.644465 
L 191.933105 -49.706791 
L 190.337907 -71.953116 
L 188.74271 -47.245395 
L 187.147513 -45.745116 
L 185.552316 -70.382512 
L 183.957118 -48.628465 
L 182.361921 -49.589581 
L 180.766724 -55.754791 
L 179.171527 -53.152744 
L 177.576329 -53.246512 
L 175.981132 -71.179535 
L 174.385935 -61.990326 
L 172.790738 -48.042419 
L 171.19554 -47.831442 
L 169.600343 -49.683349 
L 168.005146 -49.44893 
L 166.409949 -64.639256 
L 164.814751 -51.277395 
L 163.219554 -62.060651 
L 161.624357 -75.000558 
L 160.02916 -88.807814 
L 158.433962 -98.58307 
L 156.838765 -98.137674 
L 155.243568 -117.524093 
L 153.64837 -91.691163 
L 152.053173 -101.021023 
L 150.457976 -127.252465 
L 148.862779 -107.162791 
L 147.267581 -85.596279 
L 145.672384 -81.423628 
L 144.077187 -78.188651 
L 142.48199 -79.853023 
L 140.886792 -75.234977 
L 139.291595 -81.118884 
L 137.696398 -85.033674 
L 136.101201 -78.188651 
L 134.506003 -74.625488 
L 132.910806 -95.301209 
L 131.315609 -101.278884 
L 129.720412 -94.340093 
L 128.125214 -94.644837 
L 126.530017 -105.428093 
L 124.93482 -82.267535 
L 123.339623 -63.771907 
L 121.744425 -50.410047 
L 120.149228 -47.901767 
L 118.554031 -49.964651 
L 116.958834 -51.793116 
L 115.363636 -58.309953 
z
" style="stroke: #008000; stroke-width: 0.5"/>
    </defs>
    <g clip-path="url(#pf26292098c)">
     <use xlink:href="#mf59aca47f4" x="0" y="288" style="fill: #008000; stroke: #008000; stroke-width: 0.5"/>
    </g>
   </g>
   <g id="line2d_22">
    <path d="M 90 44.64 
L 648 44.64 
" clip-path="url(#pf26292098c)" style="fill: none; stroke: #000000; stroke-width: 1.5; stroke-linecap: square"/>
   </g>
   <g id="line2d_23">
    <path d="M 90 205.521488 
L 648 205.521488 
" clip-path="url(#pf26292098c)" style="fill: none; stroke: #000000; stroke-width: 1.5; stroke-linecap: square"/>
   </g>
   <g id="patch_3">
    <path d="M 90 256.32 
L 90 34.56 
" style="fill: none; stroke: #000000; stroke-width: 0.8; stroke-linejoin: miter; stroke-linecap: square"/>
   </g>
   <g id="patch_4">
    <path d="M 648 256.32 
L 648 34.56 
" style="fill: none; stroke: #000000; stroke-width: 0.8; stroke-linejoin: miter; stroke-linecap: square"/>
   </g>
   <g id="patch_5">
    <path d="M 90 256.32 
L 648 256.32 
" style="fill: none; stroke: #000000; stroke-width: 0.8; stroke-linejoin: miter; stroke-linecap: square"/>
   </g>
   <g id="patch_6">
    <path d="M 90 34.56 
L 648 34.56 
" style="fill: none; stroke: #000000; stroke-width: 0.8; stroke-linejoin: miter; stroke-linecap: square"/>
   </g>
   <g id="text_19">
    <!-- peak (8,600) -->
    <g transform="translate(122.179233 41.3136) scale(0.1 -0.1)">
     <defs>
      <path id="DejaVuSans-Bold-70" d="M 1656 506 
L 1656 -1331 
L 538 -1331 
L 538 3500 
L 1656 3500 
L 1656 2988 
Q 1888 3294 2169 3439 
Q 2450 3584 2816 3584 
Q 3463 3584 3878 3070 
Q 4294 2556 4294 1747 
Q 4294 938 3878 423 
Q 3463 -91 2816 -91 
Q 2450 -91 2169 54 
Q 1888 200 1656 506 
z
M 2400 2772 
Q 2041 2772 1848 2508 
Q 1656 2244 1656 1747 
Q 1656 1250 1848 986 
Q 2041 722 2400 722 
Q 2759 722 2948 984 
Q 3138 1247 3138 1747 
Q 3138 2247 2948 2509 
Q 2759 2772 2400 2772 
z
" transform="scale(0.015625)"/>
      <path id="DejaVuSans-Bold-65" d="M 4031 1759 
L 4031 1441 
L 1416 1441 
Q 1456 1047 1700 850 
Q 1944 653 2381 653 
Q 2734 653 3104 758 
Q 3475 863 3866 1075 
L 3866 213 
Q 3469 63 3072 -14 
Q 2675 -91 2278 -91 
Q 1328 -91 801 392 
Q 275 875 275 1747 
Q 275 2603 792 3093 
Q 1309 3584 2216 3584 
Q 3041 3584 3536 3087 
Q 4031 2591 4031 1759 
z
M 2881 2131 
Q 2881 2450 2695 2645 
Q 2509 2841 2209 2841 
Q 1884 2841 1681 2658 
Q 1478 2475 1428 2131 
L 2881 2131 
z
" transform="scale(0.015625)"/>
      <path id="DejaVuSans-Bold-61" d="M 2106 1575 
Q 1756 1575 1579 1456 
Q 1403 1338 1403 1106 
Q 1403 894 1545 773 
Q 1688 653 1941 653 
Q 2256 653 2472 879 
Q 2688 1106 2688 1447 
L 2688 1575 
L 2106 1575 
z
M 3816 1997 
L 3816 0 
L 2688 0 
L 2688 519 
Q 2463 200 2181 54 
Q 1900 -91 1497 -91 
Q 953 -91 614 226 
Q 275 544 275 1050 
Q 275 1666 698 1953 
Q 1122 2241 2028 2241 
L 2688 2241 
L 2688 2328 
Q 2688 2594 2478 2717 
Q 2269 2841 1825 2841 
Q 1466 2841 1156 2769 
Q 847 2697 581 2553 
L 581 3406 
Q 941 3494 1303 3539 
Q 1666 3584 2028 3584 
Q 2975 3584 3395 3211 
Q 3816 2838 3816 1997 
z
" transform="scale(0.015625)"/>
      <path id="DejaVuSans-Bold-6b" d="M 538 4863 
L 1656 4863 
L 1656 2216 
L 2944 3500 
L 4244 3500 
L 2534 1894 
L 4378 0 
L 3022 0 
L 1656 1459 
L 1656 0 
L 538 0 
L 538 4863 
z
" transform="scale(0.015625)"/>
      <path id="DejaVuSans-Bold-20" transform="scale(0.015625)"/>
      <path id="DejaVuSans-Bold-28" d="M 2413 -844 
L 1484 -844 
Q 1006 -72 778 623 
Q 550 1319 550 2003 
Q 550 2688 779 3389 
Q 1009 4091 1484 4856 
L 2413 4856 
Q 2013 4116 1813 3408 
Q 1613 2700 1613 2009 
Q 1613 1319 1811 609 
Q 2009 -100 2413 -844 
z
" transform="scale(0.015625)"/>
      <path id="DejaVuSans-Bold-38" d="M 2228 2088 
Q 1891 2088 1709 1903 
Q 1528 1719 1528 1375 
Q 1528 1031 1709 848 
Q 1891 666 2228 666 
Q 2563 666 2741 848 
Q 2919 1031 2919 1375 
Q 2919 1722 2741 1905 
Q 2563 2088 2228 2088 
z
M 1350 2484 
Q 925 2613 709 2878 
Q 494 3144 494 3541 
Q 494 4131 934 4440 
Q 1375 4750 2228 4750 
Q 3075 4750 3515 4442 
Q 3956 4134 3956 3541 
Q 3956 3144 3739 2878 
Q 3522 2613 3097 2484 
Q 3572 2353 3814 2058 
Q 4056 1763 4056 1313 
Q 4056 619 3595 264 
Q 3134 -91 2228 -91 
Q 1319 -91 855 264 
Q 391 619 391 1313 
Q 391 1763 633 2058 
Q 875 2353 1350 2484 
z
M 1631 3419 
Q 1631 3141 1786 2991 
Q 1941 2841 2228 2841 
Q 2509 2841 2662 2991 
Q 2816 3141 2816 3419 
Q 2816 3697 2662 3845 
Q 2509 3994 2228 3994 
Q 1941 3994 1786 3844 
Q 1631 3694 1631 3419 
z
" transform="scale(0.015625)"/>
      <path id="DejaVuSans-Bold-2c" d="M 653 1209 
L 1778 1209 
L 1778 256 
L 1006 -909 
L 341 -909 
L 653 256 
L 653 1209 
z
" transform="scale(0.015625)"/>
      <path id="DejaVuSans-Bold-36" d="M 2316 2303 
Q 2000 2303 1842 2098 
Q 1684 1894 1684 1484 
Q 1684 1075 1842 870 
Q 2000 666 2316 666 
Q 2634 666 2792 870 
Q 2950 1075 2950 1484 
Q 2950 1894 2792 2098 
Q 2634 2303 2316 2303 
z
M 3803 4544 
L 3803 3681 
Q 3506 3822 3243 3889 
Q 2981 3956 2731 3956 
Q 2194 3956 1894 3657 
Q 1594 3359 1544 2772 
Q 1750 2925 1990 3001 
Q 2231 3078 2516 3078 
Q 3231 3078 3670 2659 
Q 4109 2241 4109 1563 
Q 4109 813 3618 361 
Q 3128 -91 2303 -91 
Q 1394 -91 895 523 
Q 397 1138 397 2266 
Q 397 3422 980 4083 
Q 1563 4744 2578 4744 
Q 2900 4744 3203 4694 
Q 3506 4644 3803 4544 
z
" transform="scale(0.015625)"/>
      <path id="DejaVuSans-Bold-30" d="M 2944 2338 
Q 2944 3213 2780 3570 
Q 2616 3928 2228 3928 
Q 1841 3928 1675 3570 
Q 1509 3213 1509 2338 
Q 1509 1453 1675 1090 
Q 1841 728 2228 728 
Q 2613 728 2778 1090 
Q 2944 1453 2944 2338 
z
M 4147 2328 
Q 4147 1169 3647 539 
Q 3147 -91 2228 -91 
Q 1306 -91 806 539 
Q 306 1169 306 2328 
Q 306 3491 806 4120 
Q 1306 4750 2228 4750 
Q 3147 4750 3647 4120 
Q 4147 3491 4147 2328 
z
" transform="scale(0.015625)"/>
      <path id="DejaVuSans-Bold-29" d="M 513 -844 
Q 913 -100 1113 609 
Q 1313 1319 1313 2009 
Q 1313 2700 1113 3408 
Q 913 4116 513 4856 
L 1441 4856 
Q 1916 4091 2145 3389 
Q 2375 2688 2375 2003 
Q 2375 1319 2147 623 
Q 1919 -72 1441 -844 
L 513 -844 
z
" transform="scale(0.015625)"/>
     </defs>
     <use xlink:href="#DejaVuSans-Bold-70"/>
     <use xlink:href="#DejaVuSans-Bold-65" x="71.582031"/>
     <use xlink:href="#DejaVuSans-Bold-61" x="139.404297"/>
     <use xlink:href="#DejaVuSans-Bold-6b" x="206.884766"/>
     <use xlink:href="#DejaVuSans-Bold-20" x="273.388672"/>
     <use xlink:href="#DejaVuSans-Bold-28" x="308.203125"/>
     <use xlink:href="#DejaVuSans-Bold-38" x="353.90625"/>
     <use xlink:href="#DejaVuSans-Bold-2c" x="423.486328"/>
     <use xlink:href="#DejaVuSans-Bold-36" x="461.474609"/>
     <use xlink:href="#DejaVuSans-Bold-30" x="531.054688"/>
     <use xlink:href="#DejaVuSans-Bold-30" x="600.634766"/>
     <use xlink:href="#DejaVuSans-Bold-29" x="670.214844"/>
    </g>
   </g>
   <g id="text_20">
    <!-- mean (1,737) -->
    <g transform="translate(567.728153 202.195088) scale(0.1 -0.1)">
     <defs>
      <path id="DejaVuSans-Bold-6d" d="M 3781 2919 
Q 3994 3244 4286 3414 
Q 4578 3584 4928 3584 
Q 5531 3584 5847 3212 
Q 6163 2841 6163 2131 
L 6163 0 
L 5038 0 
L 5038 1825 
Q 5041 1866 5042 1909 
Q 5044 1953 5044 2034 
Q 5044 2406 4934 2573 
Q 4825 2741 4581 2741 
Q 4263 2741 4089 2478 
Q 3916 2216 3909 1719 
L 3909 0 
L 2784 0 
L 2784 1825 
Q 2784 2406 2684 2573 
Q 2584 2741 2328 2741 
Q 2006 2741 1831 2477 
Q 1656 2213 1656 1722 
L 1656 0 
L 531 0 
L 531 3500 
L 1656 3500 
L 1656 2988 
Q 1863 3284 2130 3434 
Q 2397 3584 2719 3584 
Q 3081 3584 3359 3409 
Q 3638 3234 3781 2919 
z
" transform="scale(0.015625)"/>
      <path id="DejaVuSans-Bold-6e" d="M 4056 2131 
L 4056 0 
L 2931 0 
L 2931 347 
L 2931 1631 
Q 2931 2084 2911 2256 
Q 2891 2428 2841 2509 
Q 2775 2619 2662 2680 
Q 2550 2741 2406 2741 
Q 2056 2741 1856 2470 
Q 1656 2200 1656 1722 
L 1656 0 
L 538 0 
L 538 3500 
L 1656 3500 
L 1656 2988 
Q 1909 3294 2193 3439 
Q 2478 3584 2822 3584 
Q 3428 3584 3742 3212 
Q 4056 2841 4056 2131 
z
" transform="scale(0.015625)"/>
      <path id="DejaVuSans-Bold-31" d="M 750 831 
L 1813 831 
L 1813 3847 
L 722 3622 
L 722 4441 
L 1806 4666 
L 2950 4666 
L 2950 831 
L 4013 831 
L 4013 0 
L 750 0 
L 750 831 
z
" transform="scale(0.015625)"/>
      <path id="DejaVuSans-Bold-37" d="M 428 4666 
L 3944 4666 
L 3944 3988 
L 2125 0 
L 953 0 
L 2675 3781 
L 428 3781 
L 428 4666 
z
" transform="scale(0.015625)"/>
      <path id="DejaVuSans-Bold-33" d="M 2981 2516 
Q 3453 2394 3698 2092 
Q 3944 1791 3944 1325 
Q 3944 631 3412 270 
Q 2881 -91 1863 -91 
Q 1503 -91 1142 -33 
Q 781 25 428 141 
L 428 1069 
Q 766 900 1098 814 
Q 1431 728 1753 728 
Q 2231 728 2486 893 
Q 2741 1059 2741 1369 
Q 2741 1688 2480 1852 
Q 2219 2016 1709 2016 
L 1228 2016 
L 1228 2791 
L 1734 2791 
Q 2188 2791 2409 2933 
Q 2631 3075 2631 3366 
Q 2631 3634 2415 3781 
Q 2200 3928 1806 3928 
Q 1516 3928 1219 3862 
Q 922 3797 628 3669 
L 628 4550 
Q 984 4650 1334 4700 
Q 1684 4750 2022 4750 
Q 2931 4750 3382 4451 
Q 3834 4153 3834 3553 
Q 3834 3144 3618 2883 
Q 3403 2622 2981 2516 
z
" transform="scale(0.015625)"/>
     </defs>
     <use xlink:href="#DejaVuSans-Bold-6d"/>
     <use xlink:href="#DejaVuSans-Bold-65" x="104.199219"/>
     <use xlink:href="#DejaVuSans-Bold-61" x="172.021484"/>
     <use xlink:href="#DejaVuSans-Bold-6e" x="239.501953"/>
     <use xlink:href="#DejaVuSans-Bold-20" x="310.693359"/>
     <use xlink:href="#DejaVuSans-Bold-28" x="345.507812"/>
     <use xlink:href="#DejaVuSans-Bold-31" x="391.210938"/>
     <use xlink:href="#DejaVuSans-Bold-2c" x="460.791016"/>
     <use xlink:href="#DejaVuSans-Bold-37" x="498.779297"/>
     <use xlink:href="#DejaVuSans-Bold-33" x="568.359375"/>
     <use xlink:href="#DejaVuSans-Bold-37" x="637.939453"/>
     <use xlink:href="#DejaVuSans-Bold-29" x="707.519531"/>
    </g>
   </g>
   <g id="text_21">
    <!-- Stream Bitrate over Time -->
    <g transform="translate(293.189062 28.56) scale(0.12 -0.12)">
     <defs>
      <path id="DejaVuSans-53" d="M 3425 4513 
L 3425 3897 
Q 3066 4069 2747 4153 
Q 2428 4238 2131 4238 
Q 1616 4238 1336 4038 
Q 1056 3838 1056 3469 
Q 1056 3159 1242 3001 
Q 1428 2844 1947 2747 
L 2328 2669 
Q 3034 2534 3370 2195 
Q 3706 1856 3706 1288 
Q 3706 609 3251 259 
Q 2797 -91 1919 -91 
Q 1588 -91 1214 -16 
Q 841 59 441 206 
L 441 856 
Q 825 641 1194 531 
Q 1563 422 1919 422 
Q 2459 422 2753 634 
Q 3047 847 3047 1241 
Q 3047 1584 2836 1778 
Q 2625 1972 2144 2069 
L 1759 2144 
Q 1053 2284 737 2584 
Q 422 2884 422 3419 
Q 422 4038 858 4394 
Q 1294 4750 2059 4750 
Q 2388 4750 2728 4690 
Q 3069 4631 3425 4513 
z
" transform="scale(0.015625)"/>
      <path id="DejaVuSans-6f" d="M 1959 3097 
Q 1497 3097 1228 2736 
Q 959 2375 959 1747 
Q 959 1119 1226 758 
Q 1494 397 1959 397 
Q 2419 397 2687 759 
Q 2956 1122 2956 1747 
Q 2956 2369 2687 2733 
Q 2419 3097 1959 3097 
z
M 1959 3584 
Q 2709 3584 3137 3096 
Q 3566 2609 3566 1747 
Q 3566 888 3137 398 
Q 2709 -91 1959 -91 
Q 1206 -91 779 398 
Q 353 888 353 1747 
Q 353 2609 779 3096 
Q 1206 3584 1959 3584 
z
" transform="scale(0.015625)"/>
      <path id="DejaVuSans-76" d="M 191 3500 
L 800 3500 
L 1894 563 
L 2988 3500 
L 3597 3500 
L 2284 0 
L 1503 0 
L 191 3500 
z
" transform="scale(0.015625)"/>
     </defs>
     <use xlink:href="#DejaVuSans-53"/>
     <use xlink:href="#DejaVuSans-74" x="63.476562"/>
     <use xlink:href="#DejaVuSans-72" x="102.685547"/>
     <use xlink:href="#DejaVuSans-65" x="141.548828"/>
     <use xlink:href="#DejaVuSans-61" x="203.072266"/>
     <use xlink:href="#DejaVuSans-6d" x="264.351562"/>
     <use xlink:href="#DejaVuSans-20" x="361.763672"/>
     <use xlink:href="#DejaVuSans-42" x="393.550781"/>
     <use xlink:href="#DejaVuSans-69" x="462.154297"/>
     <use xlink:href="#DejaVuSans-74" x="489.9375"/>
     <use xlink:href="#DejaVuSans-72" x="529.146484"/>
     <use xlink:href="#DejaVuSans-61" x="570.259766"/>
     <use xlink:href="#DejaVuSans-74" x="631.539062"/>
     <use xlink:href="#DejaVuSans-65" x="670.748047"/>
     <use xlink:href="#DejaVuSans-20" x="732.271484"/>
     <use xlink:href="#DejaVuSans-6f" x="764.058594"/>
     <use xlink:href="#DejaVuSans-76" x="825.240234"/>
     <use xlink:href="#DejaVuSans-65" x="884.419922"/>
     <use xlink:href="#DejaVuSans-72" x="945.943359"/>
     <use xlink:href="#DejaVuSans-20" x="987.056641"/>
     <use xlink:href="#DejaVuSans-54" x="1018.84375"/>
     <use xlink:href="#DejaVuSans-69" x="1076.802734"/>
     <use xlink:href="#DejaVuSans-6d" x="1104.585938"/>
     <use xlink:href="#DejaVuSans-65" x="1201.998047"/>
    </g>
   </g>
   <g id="legend_1">
    <g id="patch_7">
     <path d="M 602.139063 86.594375 
L 641 86.594375 
Q 643 86.594375 643 84.594375 
L 643 41.56 
Q 643 39.56 641 39.56 
L 602.139063 39.56 
Q 600.139063 39.56 600.139063 41.56 
L 600.139063 84.594375 
Q 600.139063 86.594375 602.139063 86.594375 
z
" style="fill: #ffffff; opacity: 0.8; stroke: #cccccc; stroke-linejoin: miter"/>
    </g>
    <g id="patch_8">
     <path d="M 604.139063 51.158438 
L 624.139063 51.158438 
L 624.139063 44.158438 
L 604.139063 44.158438 
z
" style="fill: #ff0000; stroke: #ff0000; stroke-width: 0.5; stroke-linejoin: miter"/>
    </g>
    <g id="text_22">
     <!-- I -->
     <g transform="translate(632.139063 51.158438) scale(0.1 -0.1)">
      <defs>
       <path id="DejaVuSans-49" d="M 628 4666 
L 1259 4666 
L 1259 0 
L 628 0 
L 628 4666 
z
" transform="scale(0.015625)"/>
      </defs>
      <use xlink:href="#DejaVuSans-49"/>
     </g>
    </g>
    <g id="patch_9">
     <path d="M 604.139063 65.836563 
L 624.139063 65.836563 
L 624.139063 58.836563 
L 604.139063 58.836563 
z
" style="fill: #0000ff; stroke: #0000ff; stroke-width: 0.5; stroke-linejoin: miter"/>
    </g>
    <g id="text_23">
     <!-- B -->
     <g transform="translate(632.139063 65.836563) scale(0.1 -0.1)">
      <use xlink:href="#DejaVuSans-42"/>
     </g>
    </g>
    <g id="patch_10">
     <path d="M 604.139063 80.514688 
L 624.139063 80.514688 
L 624.139063 73.514688 
L 604.139063 73.514688 
z
" style="fill: #008000; stroke: #008000; stroke-width: 0.5; stroke-linejoin: miter"/>
    </g>
    <g id="text_24">
     <!-- P -->
     <g transform="translate(632.139063 80.514688) scale(0.1 -0.1)">
      <defs>
       <path id="DejaVuSans-50" d="M 1259 4147 
L 1259 2394 
L 2053 2394 
Q 2494 2394 2734 2622 
Q 2975 2850 2975 3272 
Q 2975 3691 2734 3919 
Q 2494 4147 2053 4147 
L 1259 4147 
z
M 628 4666 
L 2053 4666 
Q 2838 4666 3239 4311 
Q 3641 3956 3641 3272 
Q 3641 2581 3239 2228 
Q 2838 1875 2053 1875 
L 1259 1875 
L 1259 0 
L 628 0 
L 628 4666 
z
" transform="scale(0.015625)"/>
      </defs>
      <use xlink:href="#DejaVuSans-50"/>
     </g>
    </g>
   </g>
  </g>
 </g>
 <defs>
  <clipPath id="pf26292098c">
   <rect x="90" y="34.56" width="558" height="221.76"/>
  </clipPath>
 </defs>
</svg>
