<?xml version="1.0" encoding="utf-8" standalone="no"?>
<!DOCTYPE svg PUBLIC "-//W3C//DTD SVG 1.1//EN"
  "http://www.w3.org/Graphics/SVG/1.1/DTD/svg11.dtd">
<svg xmlns:xlink="http://www.w3.org/1999/xlink" width="720pt" height="288pt" viewBox="0 0 720 288" xmlns="http://www.w3.org/2000/svg" version="1.1">
 <metadata>
  <rdf:RDF xmlns:dc="http://purl.org/dc/elements/1.1/" xmlns:cc="http://creativecommons.org/ns#" xmlns:rdf="http://www.w3.org/1999/02/22-rdf-syntax-ns#">
   <cc:Work>
    <dc:type rdf:resource="http://purl.org/dc/dcmitype/StillImage"/>
    <dc:date>2023-05-07T14:02:23.526769</dc:date>
    <dc:format>image/svg+xml</dc:format>
    <dc:creator>
     <cc:Agent>
      <dc:title>Matplotlib v3.7.1, https://matplotlib.org/</dc:title>
     </cc:Agent>
    </dc:creator>
   </cc:Work>
  </rdf:RDF>
 </metadata>
 <defs>
  <style type="text/css">*{stroke-linejoin: round; stroke-linecap: butt}</style>
 </defs>
 <g id="figure_1">
  <g id="patch_1">
   <path d="M 0 288 
L 720 288 
L 720 0 
L 0 0 
z
" style="fill: #ffffff"/>
  </g>
  <g id="axes_1">
   <g id="patch_2">
    <path d="M 90 256.32 
L 648 256.32 
L 648 34.56 
L 90 34.56 
z
" style="fill: #ffffff"/>
   </g>
   <g id="matplotlib.axis_1">
    <g id="xtick_1">
     <g id="line2d_1">
      <defs>
       <path id="m1fd76b8c65" d="M 0 0 
L 0 3.5 
" style="stroke: #000000; stroke-width: 0.8"/>
      </defs>
      <g>
       <use xlink:href="#m1fd76b8c65" x="115.363636" y="256.32" style="stroke: #000000; stroke-width: 0.8"/>
      </g>
     </g>
     <g id="text_1">
      <!-- 0:00:00 -->
      <g transform="translate(96.088636 270.918437) scale(0.1 -0.1)">
       <defs>
        <path id="DejaVuSans-30" d="M 2034 4250 
Q 1547 4250 1301 3770 
Q 1056 3291 1056 2328 
Q 1056 1369 1301 889 
Q 1547 409 2034 409 
Q 2525 409 2770 889 
Q 3016 1369 3016 2328 
Q 3016 3291 2770 3770 
Q 2525 4250 2034 4250 
z
M 2034 4750 
Q 2819 4750 3233 4129 
Q 3647 3509 3647 2328 
Q 3647 1150 3233 529 
Q 2819 -91 2034 -91 
Q 1250 -91 836 529 
Q 422 1150 422 2328 
Q 422 3509 836 4129 
Q 1250 4750 2034 4750 
z
" transform="scale(0.015625)"/>
        <path id="DejaVuSans-3a" d="M 750 794 
L 1409 794 
L 1409 0 
L 750 0 
L 750 794 
z
M 750 3309 
L 1409 3309 
L 1409 2516 
L 750 2516 
L 750 3309 
z
" transform="scale(0.015625)"/>
       </defs>
       <use xlink:href="#DejaVuSans-30"/>
       <use xlink:href="#DejaVuSans-3a" x="63.623047"/>
       <use xlink:href="#DejaVuSans-30" x="97.314453"/>
       <use xlink:href="#DejaVuSans-30" x="160.9375"/>
       <use xlink:href="#DejaVuSans-3a" x="224.560547"/>
       <use xlink:href="#DejaVuSans-30" x="258.251953"/>
       <use xlink:href="#DejaVuSans-30" x="321.875"/>
      </g>
     </g>
    </g>
    <g id="xtick_2">
     <g id="line2d_2">
      <g>
       <use xlink:href="#m1fd76b8c65" x="164.814751" y="256.32" style="stroke: #000000; stroke-width: 0.8"/>
      </g>
     </g>
     <g id="text_2">
      <!-- 0:00:31 -->
      <g transform="translate(145.539751 270.918437) scale(0.1 -0.1)">
       <defs>
        <path id="DejaVuSans-33" d="M 2597 2516 
Q 3050 2419 3304 2112 
Q 3559 1806 3559 1356 
Q 3559 666 3084 287 
Q 2609 -91 1734 -91 
Q 1441 -91 1130 -33 
Q 819 25 488 141 
L 488 750 
Q 750 597 1062 519 
Q 1375 441 1716 441 
Q 2309 441 2620 675 
Q 2931 909 2931 1356 
Q 2931 1769 2642 2001 
Q 2353 2234 1838 2234 
L 1294 2234 
L 1294 2753 
L 1863 2753 
Q 2328 2753 2575 2939 
Q 2822 3125 2822 3475 
Q 2822 3834 2567 4026 
Q 2313 4219 1838 4219 
Q 1578 4219 1281 4162 
Q 984 4106 628 3988 
L 628 4550 
Q 988 4650 1302 4700 
Q 1616 4750 1894 4750 
Q 2613 4750 3031 4423 
Q 3450 4097 3450 3541 
Q 3450 3153 3228 2886 
Q 3006 2619 2597 2516 
z
" transform="scale(0.015625)"/>
        <path id="DejaVuSans-31" d="M 794 531 
L 1825 531 
L 1825 4091 
L 703 3866 
L 703 4441 
L 1819 4666 
L 2450 4666 
L 2450 531 
L 3481 531 
L 3481 0 
L 794 0 
L 794 531 
z
" transform="scale(0.015625)"/>
       </defs>
       <use xlink:href="#DejaVuSans-30"/>
       <use xlink:href="#DejaVuSans-3a" x="63.623047"/>
       <use xlink:href="#DejaVuSans-30" x="97.314453"/>
       <use xlink:href="#DejaVuSans-30" x="160.9375"/>
       <use xlink:href="#DejaVuSans-3a" x="224.560547"/>
       <use xlink:href="#DejaVuSans-33" x="258.251953"/>
       <use xlink:href="#DejaVuSans-31" x="321.875"/>
      </g>
     </g>
    </g>
    <g id="xtick_3">
     <g id="line2d_3">
      <g>
       <use xlink:href="#m1fd76b8c65" x="214.265866" y="256.32" style="stroke: #000000; stroke-width: 0.8"/>
      </g>
     </g>
     <g id="text_3">
      <!-- 0:01:02 -->
      <g transform="translate(194.990866 270.918437) scale(0.1 -0.1)">
       <defs>
        <path id="DejaVuSans-32" d="M 1228 531 
L 3431 531 
L 3431 0 
L 469 0 
L 469 531 
Q 828 903 1448 1529 
Q 2069 2156 2228 2338 
Q 2531 2678 2651 2914 
Q 2772 3150 2772 3378 
Q 2772 3750 2511 3984 
Q 2250 4219 1831 4219 
Q 1534 4219 1204 4116 
Q 875 4013 500 3803 
L 500 4441 
Q 881 4594 1212 4672 
Q 1544 4750 1819 4750 
Q 2544 4750 2975 4387 
Q 3406 4025 3406 3419 
Q 3406 3131 3298 2873 
Q 3191 2616 2906 2266 
Q 2828 2175 2409 1742 
Q 1991 1309 1228 531 
z
" transform="scale(0.015625)"/>
       </defs>
       <use xlink:href="#DejaVuSans-30"/>
       <use xlink:href="#DejaVuSans-3a" x="63.623047"/>
       <use xlink:href="#DejaVuSans-30" x="97.314453"/>
       <use xlink:href="#DejaVuSans-31" x="160.9375"/>
       <use xlink:href="#DejaVuSans-3a" x="224.560547"/>
       <use xlink:href="#DejaVuSans-30" x="258.251953"/>
       <use xlink:href="#DejaVuSans-32" x="321.875"/>
      </g>
     </g>
    </g>
    <g id="xtick_4">
     <g id="line2d_4">
      <g>
       <use xlink:href="#m1fd76b8c65" x="263.716981" y="256.32" style="stroke: #000000; stroke-width: 0.8"/>
      </g>
     </g>
     <g id="text_4">
      <!-- 0:01:33 -->
      <g transform="translate(244.441981 270.918437) scale(0.1 -0.1)">
       <use xlink:href="#DejaVuSans-30"/>
       <use xlink:href="#DejaVuSans-3a" x="63.623047"/>
       <use xlink:href="#DejaVuSans-30" x="97.314453"/>
       <use xlink:href="#DejaVuSans-31" x="160.9375"/>
       <use xlink:href="#DejaVuSans-3a" x="224.560547"/>
       <use xlink:href="#DejaVuSans-33" x="258.251953"/>
       <use xlink:href="#DejaVuSans-33" x="321.875"/>
      </g>
     </g>
    </g>
    <g id="xtick_5">
     <g id="line2d_5">
      <g>
       <use xlink:href="#m1fd76b8c65" x="313.168096" y="256.32" style="stroke: #000000; stroke-width: 0.8"/>
      </g>
     </g>
     <g id="text_5">
      <!-- 0:02:04 -->
      <g transform="translate(293.893096 270.918437) scale(0.1 -0.1)">
       <defs>
        <path id="DejaVuSans-34" d="M 2419 4116 
L 825 1625 
L 2419 1625 
L 2419 4116 
z
M 2253 4666 
L 3047 4666 
L 3047 1625 
L 3713 1625 
L 3713 1100 
L 3047 1100 
L 3047 0 
L 2419 0 
L 2419 1100 
L 313 1100 
L 313 1709 
L 2253 4666 
z
" transform="scale(0.015625)"/>
       </defs>
       <use xlink:href="#DejaVuSans-30"/>
       <use xlink:href="#DejaVuSans-3a" x="63.623047"/>
       <use xlink:href="#DejaVuSans-30" x="97.314453"/>
       <use xlink:href="#DejaVuSans-32" x="160.9375"/>
       <use xlink:href="#DejaVuSans-3a" x="224.560547"/>
       <use xlink:href="#DejaVuSans-30" x="258.251953"/>
       <use xlink:href="#DejaVuSans-34" x="321.875"/>
      </g>
     </g>
    </g>
    <g id="xtick_6">
     <g id="line2d_6">
      <g>
       <use xlink:href="#m1fd76b8c65" x="362.619211" y="256.32" style="stroke: #000000; stroke-width: 0.8"/>
      </g>
     </g>
     <g id="text_6">
      <!-- 0:02:35 -->
      <g transform="translate(343.344211 270.918437) scale(0.1 -0.1)">
       <defs>
        <path id="DejaVuSans-35" d="M 691 4666 
L 3169 4666 
L 3169 4134 
L 1269 4134 
L 1269 2991 
Q 1406 3038 1543 3061 
Q 1681 3084 1819 3084 
Q 2600 3084 3056 2656 
Q 3513 2228 3513 1497 
Q 3513 744 3044 326 
Q 2575 -91 1722 -91 
Q 1428 -91 1123 -41 
Q 819 9 494 109 
L 494 744 
Q 775 591 1075 516 
Q 1375 441 1709 441 
Q 2250 441 2565 725 
Q 2881 1009 2881 1497 
Q 2881 1984 2565 2268 
Q 2250 2553 1709 2553 
Q 1456 2553 1204 2497 
Q 953 2441 691 2322 
L 691 4666 
z
" transform="scale(0.015625)"/>
       </defs>
       <use xlink:href="#DejaVuSans-30"/>
       <use xlink:href="#DejaVuSans-3a" x="63.623047"/>
       <use xlink:href="#DejaVuSans-30" x="97.314453"/>
       <use xlink:href="#DejaVuSans-32" x="160.9375"/>
       <use xlink:href="#DejaVuSans-3a" x="224.560547"/>
       <use xlink:href="#DejaVuSans-33" x="258.251953"/>
       <use xlink:href="#DejaVuSans-35" x="321.875"/>
      </g>
     </g>
    </g>
    <g id="xtick_7">
     <g id="line2d_7">
      <g>
       <use xlink:href="#m1fd76b8c65" x="412.070326" y="256.32" style="stroke: #000000; stroke-width: 0.8"/>
      </g>
     </g>
     <g id="text_7">
      <!-- 0:03:06 -->
      <g transform="translate(392.795326 270.918437) scale(0.1 -0.1)">
       <defs>
        <path id="DejaVuSans-36" d="M 2113 2584 
Q 1688 2584 1439 2293 
Q 1191 2003 1191 1497 
Q 1191 994 1439 701 
Q 1688 409 2113 409 
Q 2538 409 2786 701 
Q 3034 994 3034 1497 
Q 3034 2003 2786 2293 
Q 2538 2584 2113 2584 
z
M 3366 4563 
L 3366 3988 
Q 3128 4100 2886 4159 
Q 2644 4219 2406 4219 
Q 1781 4219 1451 3797 
Q 1122 3375 1075 2522 
Q 1259 2794 1537 2939 
Q 1816 3084 2150 3084 
Q 2853 3084 3261 2657 
Q 3669 2231 3669 1497 
Q 3669 778 3244 343 
Q 2819 -91 2113 -91 
Q 1303 -91 875 529 
Q 447 1150 447 2328 
Q 447 3434 972 4092 
Q 1497 4750 2381 4750 
Q 2619 4750 2861 4703 
Q 3103 4656 3366 4563 
z
" transform="scale(0.015625)"/>
       </defs>
       <use xlink:href="#DejaVuSans-30"/>
       <use xlink:href="#DejaVuSans-3a" x="63.623047"/>
       <use xlink:href="#DejaVuSans-30" x="97.314453"/>
       <use xlink:href="#DejaVuSans-33" x="160.9375"/>
       <use xlink:href="#DejaVuSans-3a" x="224.560547"/>
       <use xlink:href="#DejaVuSans-30" x="258.251953"/>
       <use xlink:href="#DejaVuSans-36" x="321.875"/>
      </g>
     </g>
    </g>
    <g id="xtick_8">
     <g id="line2d_8">
      <g>
       <use xlink:href="#m1fd76b8c65" x="461.521441" y="256.32" style="stroke: #000000; stroke-width: 0.8"/>
      </g>
     </g>
     <g id="text_8">
      <!-- 0:03:37 -->
      <g transform="translate(442.246441 270.918437) scale(0.1 -0.1)">
       <defs>
        <path id="DejaVuSans-37" d="M 525 4666 
L 3525 4666 
L 3525 4397 
L 1831 0 
L 1172 0 
L 2766 4134 
L 525 4134 
L 525 4666 
z
" transform="scale(0.015625)"/>
       </defs>
       <use xlink:href="#DejaVuSans-30"/>
       <use xlink:href="#DejaVuSans-3a" x="63.623047"/>
       <use xlink:href="#DejaVuSans-30" x="97.314453"/>
       <use xlink:href="#DejaVuSans-33" x="160.9375"/>
       <use xlink:href="#DejaVuSans-3a" x="224.560547"/>
       <use xlink:href="#DejaVuSans-33" x="258.251953"/>
       <use xlink:href="#DejaVuSans-37" x="321.875"/>
      </g>
     </g>
    </g>
    <g id="xtick_9">
     <g id="line2d_9">
      <g>
       <use xlink:href="#m1fd76b8c65" x="510.972556" y="256.32" style="stroke: #000000; stroke-width: 0.8"/>
      </g>
     </g>
     <g id="text_9">
      <!-- 0:04:08 -->
      <g transform="translate(491.697556 270.918437) scale(0.1 -0.1)">
       <defs>
        <path id="DejaVuSans-38" d="M 2034 2216 
Q 1584 2216 1326 1975 
Q 1069 1734 1069 1313 
Q 1069 891 1326 650 
Q 1584 409 2034 409 
Q 2484 409 2743 651 
Q 3003 894 3003 1313 
Q 3003 1734 2745 1975 
Q 2488 2216 2034 2216 
z
M 1403 2484 
Q 997 2584 770 2862 
Q 544 3141 544 3541 
Q 544 4100 942 4425 
Q 1341 4750 2034 4750 
Q 2731 4750 3128 4425 
Q 3525 4100 3525 3541 
Q 3525 3141 3298 2862 
Q 3072 2584 2669 2484 
Q 3125 2378 3379 2068 
Q 3634 1759 3634 1313 
Q 3634 634 3220 271 
Q 2806 -91 2034 -91 
Q 1263 -91 848 271 
Q 434 634 434 1313 
Q 434 1759 690 2068 
Q 947 2378 1403 2484 
z
M 1172 3481 
Q 1172 3119 1398 2916 
Q 1625 2713 2034 2713 
Q 2441 2713 2670 2916 
Q 2900 3119 2900 3481 
Q 2900 3844 2670 4047 
Q 2441 4250 2034 4250 
Q 1625 4250 1398 4047 
Q 1172 3844 1172 3481 
z
" transform="scale(0.015625)"/>
       </defs>
       <use xlink:href="#DejaVuSans-30"/>
       <use xlink:href="#DejaVuSans-3a" x="63.623047"/>
       <use xlink:href="#DejaVuSans-30" x="97.314453"/>
       <use xlink:href="#DejaVuSans-34" x="160.9375"/>
       <use xlink:href="#DejaVuSans-3a" x="224.560547"/>
       <use xlink:href="#DejaVuSans-30" x="258.251953"/>
       <use xlink:href="#DejaVuSans-38" x="321.875"/>
      </g>
     </g>
    </g>
    <g id="xtick_10">
     <g id="line2d_10">
      <g>
       <use xlink:href="#m1fd76b8c65" x="560.423671" y="256.32" style="stroke: #000000; stroke-width: 0.8"/>
      </g>
     </g>
     <g id="text_10">
      <!-- 0:04:39 -->
      <g transform="translate(541.148671 270.918437) scale(0.1 -0.1)">
       <defs>
        <path id="DejaVuSans-39" d="M 703 97 
L 703 672 
Q 941 559 1184 500 
Q 1428 441 1663 441 
Q 2288 441 2617 861 
Q 2947 1281 2994 2138 
Q 2813 1869 2534 1725 
Q 2256 1581 1919 1581 
Q 1219 1581 811 2004 
Q 403 2428 403 3163 
Q 403 3881 828 4315 
Q 1253 4750 1959 4750 
Q 2769 4750 3195 4129 
Q 3622 3509 3622 2328 
Q 3622 1225 3098 567 
Q 2575 -91 1691 -91 
Q 1453 -91 1209 -44 
Q 966 3 703 97 
z
M 1959 2075 
Q 2384 2075 2632 2365 
Q 2881 2656 2881 3163 
Q 2881 3666 2632 3958 
Q 2384 4250 1959 4250 
Q 1534 4250 1286 3958 
Q 1038 3666 1038 3163 
Q 1038 2656 1286 2365 
Q 1534 2075 1959 2075 
z
" transform="scale(0.015625)"/>
       </defs>
       <use xlink:href="#DejaVuSans-30"/>
       <use xlink:href="#DejaVuSans-3a" x="63.623047"/>
       <use xlink:href="#DejaVuSans-30" x="97.314453"/>
       <use xlink:href="#DejaVuSans-34" x="160.9375"/>
       <use xlink:href="#DejaVuSans-3a" x="224.560547"/>
       <use xlink:href="#DejaVuSans-33" x="258.251953"/>
       <use xlink:href="#DejaVuSans-39" x="321.875"/>
      </g>
     </g>
    </g>
    <g id="xtick_11">
     <g id="line2d_11">
      <g>
       <use xlink:href="#m1fd76b8c65" x="609.874786" y="256.32" style="stroke: #000000; stroke-width: 0.8"/>
      </g>
     </g>
     <g id="text_11">
      <!-- 0:05:10 -->
      <g transform="translate(590.599786 270.918437) scale(0.1 -0.1)">
       <use xlink:href="#DejaVuSans-30"/>
       <use xlink:href="#DejaVuSans-3a" x="63.623047"/>
       <use xlink:href="#DejaVuSans-30" x="97.314453"/>
       <use xlink:href="#DejaVuSans-35" x="160.9375"/>
       <use xlink:href="#DejaVuSans-3a" x="224.560547"/>
       <use xlink:href="#DejaVuSans-31" x="258.251953"/>
       <use xlink:href="#DejaVuSans-30" x="321.875"/>
      </g>
     </g>
    </g>
    <g id="text_12">
     <!-- Time -->
     <g transform="translate(356.766406 284.596563) scale(0.1 -0.1)">
      <defs>
       <path id="DejaVuSans-54" d="M -19 4666 
L 3928 4666 
L 3928 4134 
L 2272 4134 
L 2272 0 
L 1638 0 
L 1638 4134 
L -19 4134 
L -19 4666 
z
" transform="scale(0.015625)"/>
       <path id="DejaVuSans-69" d="M 603 3500 
L 1178 3500 
L 1178 0 
L 603 0 
L 603 3500 
z
M 603 4863 
L 1178 4863 
L 1178 4134 
L 603 4134 
L 603 4863 
z
" transform="scale(0.015625)"/>
       <path id="DejaVuSans-6d" d="M 3328 2828 
Q 3544 3216 3844 3400 
Q 4144 3584 4550 3584 
Q 5097 3584 5394 3201 
Q 5691 2819 5691 2113 
L 5691 0 
L 5113 0 
L 5113 2094 
Q 5113 2597 4934 2840 
Q 4756 3084 4391 3084 
Q 3944 3084 3684 2787 
Q 3425 2491 3425 1978 
L 3425 0 
L 2847 0 
L 2847 2094 
Q 2847 2600 2669 2842 
Q 2491 3084 2119 3084 
Q 1678 3084 1418 2786 
Q 1159 2488 1159 1978 
L 1159 0 
L 581 0 
L 581 3500 
L 1159 3500 
L 1159 2956 
Q 1356 3278 1631 3431 
Q 1906 3584 2284 3584 
Q 2666 3584 2933 3390 
Q 3200 3197 3328 2828 
z
" transform="scale(0.015625)"/>
       <path id="DejaVuSans-65" d="M 3597 1894 
L 3597 1613 
L 953 1613 
Q 991 1019 1311 708 
Q 1631 397 2203 397 
Q 2534 397 2845 478 
Q 3156 559 3463 722 
L 3463 178 
Q 3153 47 2828 -22 
Q 2503 -91 2169 -91 
Q 1331 -91 842 396 
Q 353 884 353 1716 
Q 353 2575 817 3079 
Q 1281 3584 2069 3584 
Q 2775 3584 3186 3129 
Q 3597 2675 3597 1894 
z
M 3022 2063 
Q 3016 2534 2758 2815 
Q 2500 3097 2075 3097 
Q 1594 3097 1305 2825 
Q 1016 2553 972 2059 
L 3022 2063 
z
" transform="scale(0.015625)"/>
      </defs>
      <use xlink:href="#DejaVuSans-54"/>
      <use xlink:href="#DejaVuSans-69" x="57.958984"/>
      <use xlink:href="#DejaVuSans-6d" x="85.742188"/>
      <use xlink:href="#DejaVuSans-65" x="183.154297"/>
     </g>
    </g>
   </g>
   <g id="matplotlib.axis_2">
    <g id="ytick_1">
     <g id="line2d_12">
      <path d="M 90 246.24 
L 648 246.24 
" clip-path="url(#pfa7c0ad3b2)" style="fill: none; stroke: #b0b0b0; stroke-width: 0.8; stroke-linecap: square"/>
     </g>
     <g id="line2d_13">
      <defs>
       <path id="m680123ab94" d="M 0 0 
L -3.5 0 
" style="stroke: #000000; stroke-width: 0.8"/>
      </defs>
      <g>
       <use xlink:href="#m680123ab94" x="90" y="246.24" style="stroke: #000000; stroke-width: 0.8"/>
      </g>
     </g>
     <g id="text_13">
      <!-- 0 -->
      <g transform="translate(76.6375 250.039219) scale(0.1 -0.1)">
       <use xlink:href="#DejaVuSans-30"/>
      </g>
     </g>
    </g>
    <g id="ytick_2">
     <g id="line2d_14">
      <path d="M 90 218.636796 
L 648 218.636796 
" clip-path="url(#pfa7c0ad3b2)" style="fill: none; stroke: #b0b0b0; stroke-width: 0.8; stroke-linecap: square"/>
     </g>
     <g id="line2d_15">
      <g>
       <use xlink:href="#m680123ab94" x="90" y="218.636796" style="stroke: #000000; stroke-width: 0.8"/>
      </g>
     </g>
     <g id="text_14">
      <!-- 2,000 -->
      <g transform="translate(54.371875 222.436015) scale(0.1 -0.1)">
       <defs>
        <path id="DejaVuSans-2c" d="M 750 794 
L 1409 794 
L 1409 256 
L 897 -744 
L 494 -744 
L 750 256 
L 750 794 
z
" transform="scale(0.015625)"/>
       </defs>
       <use xlink:href="#DejaVuSans-32"/>
       <use xlink:href="#DejaVuSans-2c" x="63.623047"/>
       <use xlink:href="#DejaVuSans-30" x="95.410156"/>
       <use xlink:href="#DejaVuSans-30" x="159.033203"/>
       <use xlink:href="#DejaVuSans-30" x="222.65625"/>
      </g>
     </g>
    </g>
    <g id="ytick_3">
     <g id="line2d_16">
      <path d="M 90 191.033592 
L 648 191.033592 
" clip-path="url(#pfa7c0ad3b2)" style="fill: none; stroke: #b0b0b0; stroke-width: 0.8; stroke-linecap: square"/>
     </g>
     <g id="line2d_17">
      <g>
       <use xlink:href="#m680123ab94" x="90" y="191.033592" style="stroke: #000000; stroke-width: 0.8"/>
      </g>
     </g>
     <g id="text_15">
      <!-- 4,000 -->
      <g transform="translate(54.371875 194.832811) scale(0.1 -0.1)">
       <use xlink:href="#DejaVuSans-34"/>
       <use xlink:href="#DejaVuSans-2c" x="63.623047"/>
       <use xlink:href="#DejaVuSans-30" x="95.410156"/>
       <use xlink:href="#DejaVuSans-30" x="159.033203"/>
       <use xlink:href="#DejaVuSans-30" x="222.65625"/>
      </g>
     </g>
    </g>
    <g id="ytick_4">
     <g id="line2d_18">
      <path d="M 90 163.430388 
L 648 163.430388 
" clip-path="url(#pfa7c0ad3b2)" style="fill: none; stroke: #b0b0b0; stroke-width: 0.8; stroke-linecap: square"/>
     </g>
     <g id="line2d_19">
      <g>
       <use xlink:href="#m680123ab94" x="90" y="163.430388" style="stroke: #000000; stroke-width: 0.8"/>
      </g>
     </g>
     <g id="text_16">
      <!-- 6,000 -->
      <g transform="translate(54.371875 167.229607) scale(0.1 -0.1)">
       <use xlink:href="#DejaVuSans-36"/>
       <use xlink:href="#DejaVuSans-2c" x="63.623047"/>
       <use xlink:href="#DejaVuSans-30" x="95.410156"/>
       <use xlink:href="#DejaVuSans-30" x="159.033203"/>
       <use xlink:href="#DejaVuSans-30" x="222.65625"/>
      </g>
     </g>
    </g>
    <g id="ytick_5">
     <g id="line2d_20">
      <path d="M 90 135.827184 
L 648 135.827184 
" clip-path="url(#pfa7c0ad3b2)" style="fill: none; stroke: #b0b0b0; stroke-width: 0.8; stroke-linecap: square"/>
     </g>
     <g id="line2d_21">
      <g>
       <use xlink:href="#m680123ab94" x="90" y="135.827184" style="stroke: #000000; stroke-width: 0.8"/>
      </g>
     </g>
     <g id="text_17">
      <!-- 8,000 -->
      <g transform="translate(54.371875 139.626403) scale(0.1 -0.1)">
       <use xlink:href="#DejaVuSans-38"/>
       <use xlink:href="#DejaVuSans-2c" x="63.623047"/>
       <use xlink:href="#DejaVuSans-30" x="95.410156"/>
       <use xlink:href="#DejaVuSans-30" x="159.033203"/>
       <use xlink:href="#DejaVuSans-30" x="222.65625"/>
      </g>
     </g>
    </g>
    <g id="ytick_6">
     <g id="line2d_22">
      <path d="M 90 108.22398 
L 648 108.22398 
" clip-path="url(#pfa7c0ad3b2)" style="fill: none; stroke: #b0b0b0; stroke-width: 0.8; stroke-linecap: square"/>
     </g>
     <g id="line2d_23">
      <g>
       <use xlink:href="#m680123ab94" x="90" y="108.22398" style="stroke: #000000; stroke-width: 0.8"/>
      </g>
     </g>
     <g id="text_18">
      <!-- 10,000 -->
      <g transform="translate(48.009375 112.023199) scale(0.1 -0.1)">
       <use xlink:href="#DejaVuSans-31"/>
       <use xlink:href="#DejaVuSans-30" x="63.623047"/>
       <use xlink:href="#DejaVuSans-2c" x="127.246094"/>
       <use xlink:href="#DejaVuSans-30" x="159.033203"/>
       <use xlink:href="#DejaVuSans-30" x="222.65625"/>
       <use xlink:href="#DejaVuSans-30" x="286.279297"/>
      </g>
     </g>
    </g>
    <g id="ytick_7">
     <g id="line2d_24">
      <path d="M 90 80.620776 
L 648 80.620776 
" clip-path="url(#pfa7c0ad3b2)" style="fill: none; stroke: #b0b0b0; stroke-width: 0.8; stroke-linecap: square"/>
     </g>
     <g id="line2d_25">
      <g>
       <use xlink:href="#m680123ab94" x="90" y="80.620776" style="stroke: #000000; stroke-width: 0.8"/>
      </g>
     </g>
     <g id="text_19">
      <!-- 12,000 -->
      <g transform="translate(48.009375 84.419995) scale(0.1 -0.1)">
       <use xlink:href="#DejaVuSans-31"/>
       <use xlink:href="#DejaVuSans-32" x="63.623047"/>
       <use xlink:href="#DejaVuSans-2c" x="127.246094"/>
       <use xlink:href="#DejaVuSans-30" x="159.033203"/>
       <use xlink:href="#DejaVuSans-30" x="222.65625"/>
       <use xlink:href="#DejaVuSans-30" x="286.279297"/>
      </g>
     </g>
    </g>
    <g id="ytick_8">
     <g id="line2d_26">
      <path d="M 90 53.017572 
L 648 53.017572 
" clip-path="url(#pfa7c0ad3b2)" style="fill: none; stroke: #b0b0b0; stroke-width: 0.8; stroke-linecap: square"/>
     </g>
     <g id="line2d_27">
      <g>
       <use xlink:href="#m680123ab94" x="90" y="53.017572" style="stroke: #000000; stroke-width: 0.8"/>
      </g>
     </g>
     <g id="text_20">
      <!-- 14,000 -->
      <g transform="translate(48.009375 56.816791) scale(0.1 -0.1)">
       <use xlink:href="#DejaVuSans-31"/>
       <use xlink:href="#DejaVuSans-34" x="63.623047"/>
       <use xlink:href="#DejaVuSans-2c" x="127.246094"/>
       <use xlink:href="#DejaVuSans-30" x="159.033203"/>
       <use xlink:href="#DejaVuSans-30" x="222.65625"/>
       <use xlink:href="#DejaVuSans-30" x="286.279297"/>
      </g>
     </g>
    </g>
    <g id="text_21">
     <!-- Bitrate (kbit/s) -->
     <g transform="translate(41.929688 181.574375) rotate(-90) scale(0.1 -0.1)">
      <defs>
       <path id="DejaVuSans-42" d="M 1259 2228 
L 1259 519 
L 2272 519 
Q 2781 519 3026 730 
Q 3272 941 3272 1375 
Q 3272 1813 3026 2020 
Q 2781 2228 2272 2228 
L 1259 2228 
z
M 1259 4147 
L 1259 2741 
L 2194 2741 
Q 2656 2741 2882 2914 
Q 3109 3088 3109 3444 
Q 3109 3797 2882 3972 
Q 2656 4147 2194 4147 
L 1259 4147 
z
M 628 4666 
L 2241 4666 
Q 2963 4666 3353 4366 
Q 3744 4066 3744 3513 
Q 3744 3084 3544 2831 
Q 3344 2578 2956 2516 
Q 3422 2416 3680 2098 
Q 3938 1781 3938 1306 
Q 3938 681 3513 340 
Q 3088 0 2303 0 
L 628 0 
L 628 4666 
z
" transform="scale(0.015625)"/>
       <path id="DejaVuSans-74" d="M 1172 4494 
L 1172 3500 
L 2356 3500 
L 2356 3053 
L 1172 3053 
L 1172 1153 
Q 1172 725 1289 603 
Q 1406 481 1766 481 
L 2356 481 
L 2356 0 
L 1766 0 
Q 1100 0 847 248 
Q 594 497 594 1153 
L 594 3053 
L 172 3053 
L 172 3500 
L 594 3500 
L 594 4494 
L 1172 4494 
z
" transform="scale(0.015625)"/>
       <path id="DejaVuSans-72" d="M 2631 2963 
Q 2534 3019 2420 3045 
Q 2306 3072 2169 3072 
Q 1681 3072 1420 2755 
Q 1159 2438 1159 1844 
L 1159 0 
L 581 0 
L 581 3500 
L 1159 3500 
L 1159 2956 
Q 1341 3275 1631 3429 
Q 1922 3584 2338 3584 
Q 2397 3584 2469 3576 
Q 2541 3569 2628 3553 
L 2631 2963 
z
" transform="scale(0.015625)"/>
       <path id="DejaVuSans-61" d="M 2194 1759 
Q 1497 1759 1228 1600 
Q 959 1441 959 1056 
Q 959 750 1161 570 
Q 1363 391 1709 391 
Q 2188 391 2477 730 
Q 2766 1069 2766 1631 
L 2766 1759 
L 2194 1759 
z
M 3341 1997 
L 3341 0 
L 2766 0 
L 2766 531 
Q 2569 213 2275 61 
Q 1981 -91 1556 -91 
Q 1019 -91 701 211 
Q 384 513 384 1019 
Q 384 1609 779 1909 
Q 1175 2209 1959 2209 
L 2766 2209 
L 2766 2266 
Q 2766 2663 2505 2880 
Q 2244 3097 1772 3097 
Q 1472 3097 1187 3025 
Q 903 2953 641 2809 
L 641 3341 
Q 956 3463 1253 3523 
Q 1550 3584 1831 3584 
Q 2591 3584 2966 3190 
Q 3341 2797 3341 1997 
z
" transform="scale(0.015625)"/>
       <path id="DejaVuSans-20" transform="scale(0.015625)"/>
       <path id="DejaVuSans-28" d="M 1984 4856 
Q 1566 4138 1362 3434 
Q 1159 2731 1159 2009 
Q 1159 1288 1364 580 
Q 1569 -128 1984 -844 
L 1484 -844 
Q 1016 -109 783 600 
Q 550 1309 550 2009 
Q 550 2706 781 3412 
Q 1013 4119 1484 4856 
L 1984 4856 
z
" transform="scale(0.015625)"/>
       <path id="DejaVuSans-6b" d="M 581 4863 
L 1159 4863 
L 1159 1991 
L 2875 3500 
L 3609 3500 
L 1753 1863 
L 3688 0 
L 2938 0 
L 1159 1709 
L 1159 0 
L 581 0 
L 581 4863 
z
" transform="scale(0.015625)"/>
       <path id="DejaVuSans-62" d="M 3116 1747 
Q 3116 2381 2855 2742 
Q 2594 3103 2138 3103 
Q 1681 3103 1420 2742 
Q 1159 2381 1159 1747 
Q 1159 1113 1420 752 
Q 1681 391 2138 391 
Q 2594 391 2855 752 
Q 3116 1113 3116 1747 
z
M 1159 2969 
Q 1341 3281 1617 3432 
Q 1894 3584 2278 3584 
Q 2916 3584 3314 3078 
Q 3713 2572 3713 1747 
Q 3713 922 3314 415 
Q 2916 -91 2278 -91 
Q 1894 -91 1617 61 
Q 1341 213 1159 525 
L 1159 0 
L 581 0 
L 581 4863 
L 1159 4863 
L 1159 2969 
z
" transform="scale(0.015625)"/>
       <path id="DejaVuSans-2f" d="M 1625 4666 
L 2156 4666 
L 531 -594 
L 0 -594 
L 1625 4666 
z
" transform="scale(0.015625)"/>
       <path id="DejaVuSans-73" d="M 2834 3397 
L 2834 2853 
Q 2591 2978 2328 3040 
Q 2066 3103 1784 3103 
Q 1356 3103 1142 2972 
Q 928 2841 928 2578 
Q 928 2378 1081 2264 
Q 1234 2150 1697 2047 
L 1894 2003 
Q 2506 1872 2764 1633 
Q 3022 1394 3022 966 
Q 3022 478 2636 193 
Q 2250 -91 1575 -91 
Q 1294 -91 989 -36 
Q 684 19 347 128 
L 347 722 
Q 666 556 975 473 
Q 1284 391 1588 391 
Q 1994 391 2212 530 
Q 2431 669 2431 922 
Q 2431 1156 2273 1281 
Q 2116 1406 1581 1522 
L 1381 1569 
Q 847 1681 609 1914 
Q 372 2147 372 2553 
Q 372 3047 722 3315 
Q 1072 3584 1716 3584 
Q 2034 3584 2315 3537 
Q 2597 3491 2834 3397 
z
" transform="scale(0.015625)"/>
       <path id="DejaVuSans-29" d="M 513 4856 
L 1013 4856 
Q 1481 4119 1714 3412 
Q 1947 2706 1947 2009 
Q 1947 1309 1714 600 
Q 1481 -109 1013 -844 
L 513 -844 
Q 928 -128 1133 580 
Q 1338 1288 1338 2009 
Q 1338 2731 1133 3434 
Q 928 4138 513 4856 
z
" transform="scale(0.015625)"/>
      </defs>
      <use xlink:href="#DejaVuSans-42"/>
      <use xlink:href="#DejaVuSans-69" x="68.603516"/>
      <use xlink:href="#DejaVuSans-74" x="96.386719"/>
      <use xlink:href="#DejaVuSans-72" x="135.595703"/>
      <use xlink:href="#DejaVuSans-61" x="176.708984"/>
      <use xlink:href="#DejaVuSans-74" x="237.988281"/>
      <use xlink:href="#DejaVuSans-65" x="277.197266"/>
      <use xlink:href="#DejaVuSans-20" x="338.720703"/>
      <use xlink:href="#DejaVuSans-28" x="370.507812"/>
      <use xlink:href="#DejaVuSans-6b" x="409.521484"/>
      <use xlink:href="#DejaVuSans-62" x="467.431641"/>
      <use xlink:href="#DejaVuSans-69" x="530.908203"/>
      <use xlink:href="#DejaVuSans-74" x="558.691406"/>
      <use xlink:href="#DejaVuSans-2f" x="597.900391"/>
      <use xlink:href="#DejaVuSans-73" x="631.591797"/>
      <use xlink:href="#DejaVuSans-29" x="683.691406"/>
     </g>
    </g>
   </g>
   <g id="PolyCollection_1">
    <defs>
     <path id="m9c8b70d39b" d="M 115.363636 -51.06228 
L 115.363636 -41.76 
L 116.958834 -41.76 
L 118.554031 -41.76 
L 120.149228 -41.76 
L 121.744425 -41.76 
L 123.339623 -41.76 
L 124.93482 -41.76 
L 126.530017 -41.76 
L 128.125214 -41.76 
L 129.720412 -41.76 
L 131.315609 -41.76 
L 132.910806 -41.76 
L 134.506003 -41.76 
L 136.101201 -41.76 
L 137.696398 -41.76 
L 139.291595 -41.76 
L 140.886792 -41.76 
L 142.48199 -41.76 
L 144.077187 -41.76 
L 145.672384 -41.76 
L 147.267581 -41.76 
L 148.862779 -41.76 
L 150.457976 -41.76 
L 152.053173 -41.76 
L 153.64837 -41.76 
L 155.243568 -41.76 
L 156.838765 -41.76 
L 158.433962 -41.76 
L 160.02916 -41.76 
L 161.624357 -41.76 
L 163.219554 -41.76 
L 164.814751 -41.76 
L 166.409949 -41.76 
L 168.005146 -41.76 
L 169.600343 -41.76 
L 171.19554 -41.76 
L 172.790738 -41.76 
L 174.385935 -41.76 
L 175.981132 -41.76 
L 177.576329 -41.76 
L 179.171527 -41.76 
L 180.766724 -41.76 
L 182.361921 -41.76 
L 183.957118 -41.76 
L 185.552316 -41.76 
L 187.147513 -41.76 
L 188.74271 -41.76 
L 190.337907 -41.76 
L 191.933105 -41.76 
L 193.528302 -41.76 
L 195.123499 -41.76 
L 196.718696 -41.76 
L 198.313894 -41.76 
L 199.909091 -41.76 
L 201.504288 -41.76 
L 203.099485 -41.76 
L 204.694683 -41.76 
L 206.28988 -41.76 
L 207.885077 -41.76 
L 209.480274 -41.76 
L 211.075472 -41.76 
L 212.670669 -41.76 
L 214.265866 -41.76 
L 215.861063 -41.76 
L 217.456261 -41.76 
L 219.051458 -41.76 
L 220.646655 -41.76 
L 222.241852 -41.76 
L 223.83705 -41.76 
L 225.432247 -41.76 
L 227.027444 -41.76 
L 228.622642 -41.76 
L 230.217839 -41.76 
L 231.813036 -41.76 
L 233.408233 -41.76 
L 235.003431 -41.76 
L 236.598628 -41.76 
L 238.193825 -41.76 
L 239.789022 -41.76 
L 241.38422 -41.76 
L 242.979417 -41.76 
L 244.574614 -41.76 
L 246.169811 -41.76 
L 247.765009 -41.76 
L 249.360206 -41.76 
L 250.955403 -41.76 
L 252.5506 -41.76 
L 254.145798 -41.76 
L 255.740995 -41.76 
L 257.336192 -41.76 
L 258.931389 -41.76 
L 260.526587 -41.76 
L 262.121784 -41.76 
L 263.716981 -41.76 
L 265.312178 -41.76 
L 266.907376 -41.76 
L 268.502573 -41.76 
L 270.09777 -41.76 
L 271.692967 -41.76 
L 273.288165 -41.76 
L 274.883362 -41.76 
L 276.478559 -41.76 
L 278.073756 -41.76 
L 279.668954 -41.76 
L 281.264151 -41.76 
L 282.859348 -41.76 
L 284.454545 -41.76 
L 286.049743 -41.76 
L 287.64494 -41.76 
L 289.240137 -41.76 
L 290.835334 -41.76 
L 292.430532 -41.76 
L 294.025729 -41.76 
L 295.620926 -41.76 
L 297.216123 -41.76 
L 298.811321 -41.76 
L 300.406518 -41.76 
L 302.001715 -41.76 
L 303.596913 -41.76 
L 305.19211 -41.76 
L 306.787307 -41.76 
L 308.382504 -41.76 
L 309.977702 -41.76 
L 311.572899 -41.76 
L 313.168096 -41.76 
L 314.763293 -41.76 
L 316.358491 -41.76 
L 317.953688 -41.76 
L 319.548885 -41.76 
L 321.144082 -41.76 
L 322.73928 -41.76 
L 324.334477 -41.76 
L 325.929674 -41.76 
L 327.524871 -41.76 
L 329.120069 -41.76 
L 330.715266 -41.76 
L 332.310463 -41.76 
L 333.90566 -41.76 
L 335.500858 -41.76 
L 337.096055 -41.76 
L 338.691252 -41.76 
L 340.286449 -41.76 
L 341.881647 -41.76 
L 343.476844 -41.76 
L 345.072041 -41.76 
L 346.667238 -41.76 
L 348.262436 -41.76 
L 349.857633 -41.76 
L 351.45283 -41.76 
L 353.048027 -41.76 
L 354.643225 -41.76 
L 356.238422 -41.76 
L 357.833619 -41.76 
L 359.428816 -41.76 
L 361.024014 -41.76 
L 362.619211 -41.76 
L 364.214408 -41.76 
L 365.809605 -41.76 
L 367.404803 -41.76 
L 369 -41.76 
L 370.595197 -41.76 
L 372.190395 -41.76 
L 373.785592 -41.76 
L 375.380789 -41.76 
L 376.975986 -41.76 
L 378.571184 -41.76 
L 380.166381 -41.76 
L 381.761578 -41.76 
L 383.356775 -41.76 
L 384.951973 -41.76 
L 386.54717 -41.76 
L 388.142367 -41.76 
L 389.737564 -41.76 
L 391.332762 -41.76 
L 392.927959 -41.76 
L 394.523156 -41.76 
L 396.118353 -41.76 
L 397.713551 -41.76 
L 399.308748 -41.76 
L 400.903945 -41.76 
L 402.499142 -41.76 
L 404.09434 -41.76 
L 405.689537 -41.76 
L 407.284734 -41.76 
L 408.879931 -41.76 
L 410.475129 -41.76 
L 412.070326 -41.76 
L 413.665523 -41.76 
L 415.26072 -41.76 
L 416.855918 -41.76 
L 418.451115 -41.76 
L 420.046312 -41.76 
L 421.641509 -41.76 
L 423.236707 -41.76 
L 424.831904 -41.76 
L 426.427101 -41.76 
L 428.022298 -41.76 
L 429.617496 -41.76 
L 431.212693 -41.76 
L 432.80789 -41.76 
L 434.403087 -41.76 
L 435.998285 -41.76 
L 437.593482 -41.76 
L 439.188679 -41.76 
L 440.783877 -41.76 
L 442.379074 -41.76 
L 443.974271 -41.76 
L 445.569468 -41.76 
L 447.164666 -41.76 
L 448.759863 -41.76 
L 450.35506 -41.76 
L 451.950257 -41.76 
L 453.545455 -41.76 
L 455.140652 -41.76 
L 456.735849 -41.76 
L 458.331046 -41.76 
L 459.926244 -41.76 
L 461.521441 -41.76 
L 463.116638 -41.76 
L 464.711835 -41.76 
L 466.307033 -41.76 
L 467.90223 -41.76 
L 469.497427 -41.76 
L 471.092624 -41.76 
L 472.687822 -41.76 
L 474.283019 -41.76 
L 475.878216 -41.76 
L 477.473413 -41.76 
L 479.068611 -41.76 
L 480.663808 -41.76 
L 482.259005 -41.76 
L 483.854202 -41.76 
L 485.4494 -41.76 
L 487.044597 -41.76 
L 488.639794 -41.76 
L 490.234991 -41.76 
L 491.830189 -41.76 
L 493.425386 -41.76 
L 495.020583 -41.76 
L 496.61578 -41.76 
L 498.210978 -41.76 
L 499.806175 -41.76 
L 501.401372 -41.76 
L 502.996569 -41.76 
L 504.591767 -41.76 
L 506.186964 -41.76 
L 507.782161 -41.76 
L 509.377358 -41.76 
L 510.972556 -41.76 
L 512.567753 -41.76 
L 514.16295 -41.76 
L 515.758148 -41.76 
L 517.353345 -41.76 
L 518.948542 -41.76 
L 520.543739 -41.76 
L 522.138937 -41.76 
L 523.734134 -41.76 
L 525.329331 -41.76 
L 526.924528 -41.76 
L 528.519726 -41.76 
L 530.114923 -41.76 
L 531.71012 -41.76 
L 533.305317 -41.76 
L 534.900515 -41.76 
L 536.495712 -41.76 
L 538.090909 -41.76 
L 539.686106 -41.76 
L 541.281304 -41.76 
L 542.876501 -41.76 
L 544.471698 -41.76 
L 546.066895 -41.76 
L 547.662093 -41.76 
L 549.25729 -41.76 
L 550.852487 -41.76 
L 552.447684 -41.76 
L 554.042882 -41.76 
L 555.638079 -41.76 
L 557.233276 -41.76 
L 558.828473 -41.76 
L 560.423671 -41.76 
L 562.018868 -41.76 
L 563.614065 -41.76 
L 565.209262 -41.76 
L 566.80446 -41.76 
L 568.399657 -41.76 
L 569.994854 -41.76 
L 571.590051 -41.76 
L 573.185249 -41.76 
L 574.780446 -41.76 
L 576.375643 -41.76 
L 577.97084 -41.76 
L 579.566038 -41.76 
L 581.161235 -41.76 
L 582.756432 -41.76 
L 584.35163 -41.76 
L 585.946827 -41.76 
L 587.542024 -41.76 
L 589.137221 -41.76 
L 590.732419 -41.76 
L 592.327616 -41.76 
L 593.922813 -41.76 
L 595.51801 -41.76 
L 597.113208 -41.76 
L 598.708405 -41.76 
L 600.303602 -41.76 
L 601.898799 -41.76 
L 603.493997 -41.76 
L 605.089194 -41.76 
L 606.684391 -41.76 
L 608.279588 -41.76 
L 609.874786 -41.76 
L 611.469983 -41.76 
L 613.06518 -41.76 
L 614.660377 -41.76 
L 616.255575 -41.76 
L 617.850772 -41.76 
L 619.445969 -41.76 
L 621.041166 -41.76 
L 622.636364 -41.76 
L 622.636364 -41.76 
L 622.636364 -41.76 
L 621.041166 -41.76 
L 619.445969 -41.76 
L 617.850772 -41.76 
L 616.255575 -41.76 
L 614.660377 -41.76 
L 613.06518 -68.631719 
L 611.469983 -41.76 
L 609.874786 -47.391054 
L 608.279588 -41.76 
L 606.684391 -41.76 
L 605.089194 -42.767517 
L 603.493997 -41.76 
L 601.898799 -41.76 
L 600.303602 -41.76 
L 598.708405 -41.76 
L 597.113208 -51.020875 
L 595.51801 -41.76 
L 593.922813 -41.76 
L 592.327616 -55.230364 
L 590.732419 -41.76 
L 589.137221 -41.76 
L 587.542024 -41.76 
L 585.946827 -41.76 
L 584.35163 -78.762095 
L 582.756432 -41.76 
L 581.161235 -41.76 
L 579.566038 -41.76 
L 577.97084 -41.76 
L 576.375643 -41.76 
L 574.780446 -59.467455 
L 573.185249 -41.76 
L 571.590051 -55.63061 
L 569.994854 -41.76 
L 568.399657 -41.76 
L 566.80446 -41.76 
L 565.209262 -41.76 
L 563.614065 -60.088527 
L 562.018868 -41.76 
L 560.423671 -41.76 
L 558.828473 -41.76 
L 557.233276 -51.448725 
L 555.638079 -41.76 
L 554.042882 -59.881503 
L 552.447684 -57.424818 
L 550.852487 -61.427283 
L 549.25729 -41.76 
L 547.662093 -41.76 
L 546.066895 -54.650696 
L 544.471698 -41.76 
L 542.876501 -41.76 
L 541.281304 -84.848601 
L 539.686106 -41.76 
L 538.090909 -41.76 
L 536.495712 -41.76 
L 534.900515 -41.76 
L 533.305317 -57.631842 
L 531.71012 -41.76 
L 530.114923 -54.540283 
L 528.519726 -41.76 
L 526.924528 -41.76 
L 525.329331 -60.792409 
L 523.734134 -41.76 
L 522.138937 -41.76 
L 520.543739 -70.425927 
L 518.948542 -41.76 
L 517.353345 -68.866346 
L 515.758148 -41.76 
L 514.16295 -41.76 
L 512.567753 -70.343118 
L 510.972556 -41.76 
L 509.377358 -73.558891 
L 507.782161 -41.76 
L 506.186964 -41.76 
L 504.591767 -69.142378 
L 502.996569 -41.76 
L 501.401372 -41.76 
L 499.806175 -70.039482 
L 498.210978 -41.76 
L 496.61578 -41.76 
L 495.020583 -41.76 
L 493.425386 -47.128823 
L 491.830189 -41.76 
L 490.234991 -51.296907 
L 488.639794 -41.76 
L 487.044597 -41.76 
L 485.4494 -41.76 
L 483.854202 -41.76 
L 482.259005 -45.859076 
L 480.663808 -41.76 
L 479.068611 -41.76 
L 477.473413 -42.960739 
L 475.878216 -41.76 
L 474.283019 -41.76 
L 472.687822 -41.76 
L 471.092624 -41.76 
L 469.497427 -58.446137 
L 467.90223 -52.387234 
L 466.307033 -41.76 
L 464.711835 -41.76 
L 463.116638 -41.76 
L 461.521441 -41.76 
L 459.926244 -41.76 
L 458.331046 -55.175157 
L 456.735849 -41.76 
L 455.140652 -41.76 
L 453.545455 -41.76 
L 451.950257 -62.490006 
L 450.35506 -41.76 
L 448.759863 -41.76 
L 447.164666 -41.76 
L 445.569468 -41.76 
L 443.974271 -59.881503 
L 442.379074 -41.76 
L 440.783877 -41.76 
L 439.188679 -46.038497 
L 437.593482 -41.76 
L 435.998285 -41.76 
L 434.403087 -64.629254 
L 432.80789 -41.76 
L 431.212693 -41.76 
L 429.617496 -55.037141 
L 428.022298 -41.76 
L 426.427101 -57.480025 
L 424.831904 -60.350758 
L 423.236707 -51.697153 
L 421.641509 -63.083475 
L 420.046312 -41.76 
L 418.451115 -41.76 
L 416.855918 -41.76 
L 415.26072 -41.76 
L 413.665523 -53.463758 
L 412.070326 -41.76 
L 410.475129 -53.242933 
L 408.879931 -41.76 
L 407.284734 -41.76 
L 405.689537 -41.76 
L 404.09434 -41.76 
L 402.499142 -50.330795 
L 400.903945 -41.76 
L 399.308748 -41.76 
L 397.713551 -55.699618 
L 396.118353 -71.392039 
L 394.523156 -41.76 
L 392.927959 -41.76 
L 391.332762 -41.76 
L 389.737564 -41.76 
L 388.142367 -41.76 
L 386.54717 -69.294196 
L 384.951973 -55.050943 
L 383.356775 -41.76 
L 381.761578 -41.76 
L 380.166381 -56.030856 
L 378.571184 -48.90923 
L 376.975986 -41.76 
L 375.380789 -49.668318 
L 373.785592 -50.427406 
L 372.190395 -41.76 
L 370.595197 -41.76 
L 369 -41.76 
L 367.404803 -41.76 
L 365.809605 -41.76 
L 364.214408 -50.731041 
L 362.619211 -56.66573 
L 361.024014 -41.76 
L 359.428816 -41.76 
L 357.833619 -41.76 
L 356.238422 -41.76 
L 354.643225 -51.503931 
L 353.048027 -41.76 
L 351.45283 -41.76 
L 349.857633 -72.7722 
L 348.262436 -41.76 
L 346.667238 -52.235416 
L 345.072041 -41.76 
L 343.476844 -41.76 
L 341.881647 -41.76 
L 340.286449 -41.76 
L 338.691252 -51.973185 
L 337.096055 -41.76 
L 335.500858 -41.76 
L 333.90566 -41.76 
L 332.310463 -49.047246 
L 330.715266 -41.76 
L 329.120069 -41.76 
L 327.524871 -41.76 
L 325.929674 -63.856365 
L 324.334477 -41.76 
L 322.73928 -41.76 
L 321.144082 -41.76 
L 319.548885 -41.76 
L 317.953688 -41.76 
L 316.358491 -50.579224 
L 314.763293 -41.76 
L 313.168096 -54.195243 
L 311.572899 -41.76 
L 309.977702 -41.76 
L 308.382504 -53.436155 
L 306.787307 -41.76 
L 305.19211 -61.013235 
L 303.596913 -41.76 
L 302.001715 -41.76 
L 300.406518 -41.76 
L 298.811321 -41.76 
L 297.216123 -63.359507 
L 295.620926 -41.76 
L 294.025729 -41.76 
L 292.430532 -41.76 
L 290.835334 -41.76 
L 289.240137 -77.188712 
L 287.64494 -41.76 
L 286.049743 -41.76 
L 284.454545 -41.76 
L 282.859348 -41.76 
L 281.264151 -53.643179 
L 279.668954 -41.76 
L 278.073756 -41.76 
L 276.478559 -41.76 
L 274.883362 -78.996722 
L 273.288165 -41.76 
L 271.692967 -41.76 
L 270.09777 -58.087295 
L 268.502573 -41.76 
L 266.907376 -41.76 
L 265.312178 -41.76 
L 263.716981 -72.661787 
L 262.121784 -47.680887 
L 260.526587 -41.76 
L 258.931389 -53.532766 
L 257.336192 -41.76 
L 255.740995 -41.76 
L 254.145798 -41.76 
L 252.5506 -65.057104 
L 250.955403 -41.76 
L 249.360206 -53.781195 
L 247.765009 -41.76 
L 246.169811 -41.76 
L 244.574614 -41.76 
L 242.979417 -41.76 
L 241.38422 -63.497523 
L 239.789022 -41.76 
L 238.193825 -41.76 
L 236.598628 -41.76 
L 235.003431 -41.76 
L 233.408233 -52.580456 
L 231.813036 -41.76 
L 230.217839 -41.76 
L 228.622642 -41.76 
L 227.027444 -41.76 
L 225.432247 -50.054763 
L 223.83705 -41.76 
L 222.241852 -41.76 
L 220.646655 -41.76 
L 219.051458 -56.900357 
L 217.456261 -41.76 
L 215.861063 -41.76 
L 214.265866 -41.76 
L 212.670669 -54.140037 
L 211.075472 -41.76 
L 209.480274 -41.76 
L 207.885077 -41.76 
L 206.28988 -48.550388 
L 204.694683 -41.76 
L 203.099485 -41.76 
L 201.504288 -41.76 
L 199.909091 -41.76 
L 198.313894 -64.42223 
L 196.718696 -41.76 
L 195.123499 -41.76 
L 193.528302 -41.76 
L 191.933105 -41.76 
L 190.337907 -64.601651 
L 188.74271 -41.76 
L 187.147513 -41.76 
L 185.552316 -63.925373 
L 183.957118 -41.76 
L 182.361921 -41.76 
L 180.766724 -49.764929 
L 179.171527 -41.76 
L 177.576329 -41.76 
L 175.981132 -63.704547 
L 174.385935 -57.038373 
L 172.790738 -41.76 
L 171.19554 -41.76 
L 169.600343 -41.76 
L 168.005146 -41.76 
L 166.409949 -57.921676 
L 164.814751 -41.76 
L 163.219554 -41.76 
L 161.624357 -44.423709 
L 160.02916 -55.644412 
L 158.433962 -60.751004 
L 156.838765 -59.370844 
L 155.243568 -59.743487 
L 153.64837 -56.32069 
L 152.053173 -41.76 
L 150.457976 -57.134985 
L 148.862779 -55.188959 
L 147.267581 -41.76 
L 145.672384 -47.584276 
L 144.077187 -41.76 
L 142.48199 -41.76 
L 140.886792 -41.76 
L 139.291595 -41.76 
L 137.696398 -46.977006 
L 136.101201 -41.76 
L 134.506003 -41.76 
L 132.910806 -47.70849 
L 131.315609 -49.419889 
L 129.720412 -41.76 
L 128.125214 -50.965669 
L 126.530017 -48.923031 
L 124.93482 -52.304424 
L 123.339623 -48.288158 
L 121.744425 -41.76 
L 120.149228 -41.76 
L 118.554031 -41.76 
L 116.958834 -41.76 
L 115.363636 -51.06228 
z
" style="stroke: #ff0000; stroke-width: 0.5"/>
    </defs>
    <g clip-path="url(#pfa7c0ad3b2)">
     <use xlink:href="#m9c8b70d39b" x="0" y="288" style="fill: #ff0000; stroke: #ff0000; stroke-width: 0.5"/>
    </g>
   </g>
   <g id="PolyCollection_2">
    <defs>
     <path id="m2cd1277c2c" d="M 115.363636 -54.360863 
L 115.363636 -51.06228 
L 116.958834 -41.76 
L 118.554031 -41.76 
L 120.149228 -41.76 
L 121.744425 -41.76 
L 123.339623 -48.288158 
L 124.93482 -52.304424 
L 126.530017 -48.923031 
L 128.125214 -50.965669 
L 129.720412 -41.76 
L 131.315609 -49.419889 
L 132.910806 -47.70849 
L 134.506003 -41.76 
L 136.101201 -41.76 
L 137.696398 -46.977006 
L 139.291595 -41.76 
L 140.886792 -41.76 
L 142.48199 -41.76 
L 144.077187 -41.76 
L 145.672384 -47.584276 
L 147.267581 -41.76 
L 148.862779 -55.188959 
L 150.457976 -57.134985 
L 152.053173 -41.76 
L 153.64837 -56.32069 
L 155.243568 -59.743487 
L 156.838765 -59.370844 
L 158.433962 -60.751004 
L 160.02916 -55.644412 
L 161.624357 -44.423709 
L 163.219554 -41.76 
L 164.814751 -41.76 
L 166.409949 -57.921676 
L 168.005146 -41.76 
L 169.600343 -41.76 
L 171.19554 -41.76 
L 172.790738 -41.76 
L 174.385935 -57.038373 
L 175.981132 -63.704547 
L 177.576329 -41.76 
L 179.171527 -41.76 
L 180.766724 -49.764929 
L 182.361921 -41.76 
L 183.957118 -41.76 
L 185.552316 -63.925373 
L 187.147513 -41.76 
L 188.74271 -41.76 
L 190.337907 -64.601651 
L 191.933105 -41.76 
L 193.528302 -41.76 
L 195.123499 -41.76 
L 196.718696 -41.76 
L 198.313894 -64.42223 
L 199.909091 -41.76 
L 201.504288 -41.76 
L 203.099485 -41.76 
L 204.694683 -41.76 
L 206.28988 -48.550388 
L 207.885077 -41.76 
L 209.480274 -41.76 
L 211.075472 -41.76 
L 212.670669 -54.140037 
L 214.265866 -41.76 
L 215.861063 -41.76 
L 217.456261 -41.76 
L 219.051458 -56.900357 
L 220.646655 -41.76 
L 222.241852 -41.76 
L 223.83705 -41.76 
L 225.432247 -50.054763 
L 227.027444 -41.76 
L 228.622642 -41.76 
L 230.217839 -41.76 
L 231.813036 -41.76 
L 233.408233 -52.580456 
L 235.003431 -41.76 
L 236.598628 -41.76 
L 238.193825 -41.76 
L 239.789022 -41.76 
L 241.38422 -63.497523 
L 242.979417 -41.76 
L 244.574614 -41.76 
L 246.169811 -41.76 
L 247.765009 -41.76 
L 249.360206 -53.781195 
L 250.955403 -41.76 
L 252.5506 -65.057104 
L 254.145798 -41.76 
L 255.740995 -41.76 
L 257.336192 -41.76 
L 258.931389 -53.532766 
L 260.526587 -41.76 
L 262.121784 -47.680887 
L 263.716981 -72.661787 
L 265.312178 -41.76 
L 266.907376 -41.76 
L 268.502573 -41.76 
L 270.09777 -58.087295 
L 271.692967 -41.76 
L 273.288165 -41.76 
L 274.883362 -78.996722 
L 276.478559 -41.76 
L 278.073756 -41.76 
L 279.668954 -41.76 
L 281.264151 -53.643179 
L 282.859348 -41.76 
L 284.454545 -41.76 
L 286.049743 -41.76 
L 287.64494 -41.76 
L 289.240137 -77.188712 
L 290.835334 -41.76 
L 292.430532 -41.76 
L 294.025729 -41.76 
L 295.620926 -41.76 
L 297.216123 -63.359507 
L 298.811321 -41.76 
L 300.406518 -41.76 
L 302.001715 -41.76 
L 303.596913 -41.76 
L 305.19211 -61.013235 
L 306.787307 -41.76 
L 308.382504 -53.436155 
L 309.977702 -41.76 
L 311.572899 -41.76 
L 313.168096 -54.195243 
L 314.763293 -41.76 
L 316.358491 -50.579224 
L 317.953688 -41.76 
L 319.548885 -41.76 
L 321.144082 -41.76 
L 322.73928 -41.76 
L 324.334477 -41.76 
L 325.929674 -63.856365 
L 327.524871 -41.76 
L 329.120069 -41.76 
L 330.715266 -41.76 
L 332.310463 -49.047246 
L 333.90566 -41.76 
L 335.500858 -41.76 
L 337.096055 -41.76 
L 338.691252 -51.973185 
L 340.286449 -41.76 
L 341.881647 -41.76 
L 343.476844 -41.76 
L 345.072041 -41.76 
L 346.667238 -52.235416 
L 348.262436 -41.76 
L 349.857633 -72.7722 
L 351.45283 -41.76 
L 353.048027 -41.76 
L 354.643225 -51.503931 
L 356.238422 -41.76 
L 357.833619 -41.76 
L 359.428816 -41.76 
L 361.024014 -41.76 
L 362.619211 -56.66573 
L 364.214408 -50.731041 
L 365.809605 -41.76 
L 367.404803 -41.76 
L 369 -41.76 
L 370.595197 -41.76 
L 372.190395 -41.76 
L 373.785592 -50.427406 
L 375.380789 -49.668318 
L 376.975986 -41.76 
L 378.571184 -48.90923 
L 380.166381 -56.030856 
L 381.761578 -41.76 
L 383.356775 -41.76 
L 384.951973 -55.050943 
L 386.54717 -69.294196 
L 388.142367 -41.76 
L 389.737564 -41.76 
L 391.332762 -41.76 
L 392.927959 -41.76 
L 394.523156 -41.76 
L 396.118353 -71.392039 
L 397.713551 -55.699618 
L 399.308748 -41.76 
L 400.903945 -41.76 
L 402.499142 -50.330795 
L 404.09434 -41.76 
L 405.689537 -41.76 
L 407.284734 -41.76 
L 408.879931 -41.76 
L 410.475129 -53.242933 
L 412.070326 -41.76 
L 413.665523 -53.463758 
L 415.26072 -41.76 
L 416.855918 -41.76 
L 418.451115 -41.76 
L 420.046312 -41.76 
L 421.641509 -63.083475 
L 423.236707 -51.697153 
L 424.831904 -60.350758 
L 426.427101 -57.480025 
L 428.022298 -41.76 
L 429.617496 -55.037141 
L 431.212693 -41.76 
L 432.80789 -41.76 
L 434.403087 -64.629254 
L 435.998285 -41.76 
L 437.593482 -41.76 
L 439.188679 -46.038497 
L 440.783877 -41.76 
L 442.379074 -41.76 
L 443.974271 -59.881503 
L 445.569468 -41.76 
L 447.164666 -41.76 
L 448.759863 -41.76 
L 450.35506 -41.76 
L 451.950257 -62.490006 
L 453.545455 -41.76 
L 455.140652 -41.76 
L 456.735849 -41.76 
L 458.331046 -55.175157 
L 459.926244 -41.76 
L 461.521441 -41.76 
L 463.116638 -41.76 
L 464.711835 -41.76 
L 466.307033 -41.76 
L 467.90223 -52.387234 
L 469.497427 -58.446137 
L 471.092624 -41.76 
L 472.687822 -41.76 
L 474.283019 -41.76 
L 475.878216 -41.76 
L 477.473413 -42.960739 
L 479.068611 -41.76 
L 480.663808 -41.76 
L 482.259005 -45.859076 
L 483.854202 -41.76 
L 485.4494 -41.76 
L 487.044597 -41.76 
L 488.639794 -41.76 
L 490.234991 -51.296907 
L 491.830189 -41.76 
L 493.425386 -47.128823 
L 495.020583 -41.76 
L 496.61578 -41.76 
L 498.210978 -41.76 
L 499.806175 -70.039482 
L 501.401372 -41.76 
L 502.996569 -41.76 
L 504.591767 -69.142378 
L 506.186964 -41.76 
L 507.782161 -41.76 
L 509.377358 -73.558891 
L 510.972556 -41.76 
L 512.567753 -70.343118 
L 514.16295 -41.76 
L 515.758148 -41.76 
L 517.353345 -68.866346 
L 518.948542 -41.76 
L 520.543739 -70.425927 
L 522.138937 -41.76 
L 523.734134 -41.76 
L 525.329331 -60.792409 
L 526.924528 -41.76 
L 528.519726 -41.76 
L 530.114923 -54.540283 
L 531.71012 -41.76 
L 533.305317 -57.631842 
L 534.900515 -41.76 
L 536.495712 -41.76 
L 538.090909 -41.76 
L 539.686106 -41.76 
L 541.281304 -84.848601 
L 542.876501 -41.76 
L 544.471698 -41.76 
L 546.066895 -54.650696 
L 547.662093 -41.76 
L 549.25729 -41.76 
L 550.852487 -61.427283 
L 552.447684 -57.424818 
L 554.042882 -59.881503 
L 555.638079 -41.76 
L 557.233276 -51.448725 
L 558.828473 -41.76 
L 560.423671 -41.76 
L 562.018868 -41.76 
L 563.614065 -60.088527 
L 565.209262 -41.76 
L 566.80446 -41.76 
L 568.399657 -41.76 
L 569.994854 -41.76 
L 571.590051 -55.63061 
L 573.185249 -41.76 
L 574.780446 -59.467455 
L 576.375643 -41.76 
L 577.97084 -41.76 
L 579.566038 -41.76 
L 581.161235 -41.76 
L 582.756432 -41.76 
L 584.35163 -78.762095 
L 585.946827 -41.76 
L 587.542024 -41.76 
L 589.137221 -41.76 
L 590.732419 -41.76 
L 592.327616 -55.230364 
L 593.922813 -41.76 
L 595.51801 -41.76 
L 597.113208 -51.020875 
L 598.708405 -41.76 
L 600.303602 -41.76 
L 601.898799 -41.76 
L 603.493997 -41.76 
L 605.089194 -42.767517 
L 606.684391 -41.76 
L 608.279588 -41.76 
L 609.874786 -47.391054 
L 611.469983 -41.76 
L 613.06518 -68.631719 
L 614.660377 -41.76 
L 616.255575 -41.76 
L 617.850772 -41.76 
L 619.445969 -41.76 
L 621.041166 -41.76 
L 622.636364 -41.76 
L 622.636364 -41.773802 
L 622.636364 -41.773802 
L 621.041166 -42.118842 
L 619.445969 -42.063635 
L 617.850772 -42.10504 
L 616.255575 -42.10504 
L 614.660377 -42.091238 
L 613.06518 -76.029378 
L 611.469983 -55.244165 
L 609.874786 -64.684461 
L 608.279588 -51.724757 
L 606.684391 -51.296907 
L 605.089194 -49.820136 
L 603.493997 -49.999556 
L 601.898799 -54.388466 
L 600.303602 -45.486433 
L 598.708405 -45.610647 
L 597.113208 -55.810031 
L 595.51801 -52.470043 
L 593.922813 -52.069797 
L 592.327616 -64.629254 
L 590.732419 -53.587973 
L 589.137221 -54.25045 
L 587.542024 -53.781195 
L 585.946827 -52.594258 
L 584.35163 -92.67411 
L 582.756432 -67.044535 
L 581.161235 -66.175034 
L 579.566038 -64.146198 
L 577.97084 -65.415946 
L 576.375643 -65.774787 
L 574.780446 -96.842193 
L 573.185249 -71.074603 
L 571.590051 -73.517486 
L 569.994854 -79.562588 
L 568.399657 -83.095798 
L 566.80446 -83.28902 
L 565.209262 -77.533752 
L 563.614065 -75.463512 
L 562.018868 -59.039606 
L 560.423671 -58.087295 
L 558.828473 -49.613112 
L 557.233276 -58.39093 
L 555.638079 -46.41114 
L 554.042882 -65.126112 
L 552.447684 -65.774787 
L 550.852487 -67.789821 
L 549.25729 -53.933013 
L 547.662093 -54.816315 
L 546.066895 -77.864991 
L 544.471698 -60.350758 
L 542.876501 -58.266716 
L 541.281304 -103.508367 
L 539.686106 -63.511325 
L 538.090909 -65.139914 
L 536.495712 -69.984276 
L 534.900515 -63.414713 
L 533.305317 -78.085816 
L 531.71012 -44.644535 
L 530.114923 -59.067209 
L 528.519726 -58.832582 
L 526.924528 -58.860185 
L 525.329331 -86.366778 
L 523.734134 -82.005471 
L 522.138937 -89.541146 
L 520.543739 -98.222354 
L 518.948542 -67.182551 
L 517.353345 -99.533506 
L 515.758148 -85.773309 
L 514.16295 -87.526112 
L 512.567753 -117.14435 
L 510.972556 -88.685447 
L 509.377358 -115.971214 
L 507.782161 -94.288897 
L 506.186964 -90.369242 
L 504.591767 -99.464498 
L 502.996569 -75.849957 
L 501.401372 -61.385878 
L 499.806175 -79.700604 
L 498.210978 -49.033444 
L 496.61578 -48.936833 
L 495.020583 -48.177745 
L 493.425386 -54.209045 
L 491.830189 -47.44626 
L 490.234991 -59.191423 
L 488.639794 -50.358398 
L 487.044597 -49.475096 
L 485.4494 -50.261787 
L 483.854202 -51.421121 
L 482.259005 -53.781195 
L 480.663808 -52.263019 
L 479.068611 -50.648232 
L 477.473413 -55.464991 
L 475.878216 -67.582797 
L 474.283019 -60.336956 
L 472.687822 -62.103561 
L 471.092624 -59.108614 
L 469.497427 -67.26536 
L 467.90223 -62.08976 
L 466.307033 -51.06228 
L 464.711835 -55.244165 
L 463.116638 -52.069797 
L 461.521441 -49.585508 
L 459.926244 -49.17146 
L 458.331046 -57.328207 
L 456.735849 -46.010893 
L 455.140652 -46.245521 
L 453.545455 -46.825188 
L 451.950257 -66.078423 
L 450.35506 -44.94817 
L 448.759863 -43.4852 
L 447.164666 -44.051066 
L 445.569468 -45.527837 
L 443.974271 -62.848848 
L 442.379074 -48.039729 
L 440.783877 -49.640715 
L 439.188679 -52.221614 
L 437.593482 -43.940653 
L 435.998285 -45.362218 
L 434.403087 -66.644288 
L 432.80789 -47.70849 
L 431.212693 -48.729809 
L 429.617496 -60.019519 
L 428.022298 -49.875342 
L 426.427101 -66.547677 
L 424.831904 -66.202637 
L 423.236707 -58.81878 
L 421.641509 -68.742132 
L 420.046312 -46.438743 
L 418.451115 -46.935601 
L 416.855918 -46.75618 
L 415.26072 -47.10122 
L 413.665523 -56.444904 
L 412.070326 -46.935601 
L 410.475129 -58.252914 
L 408.879931 -47.073617 
L 407.284734 -46.549156 
L 405.689537 -47.128823 
L 404.09434 -47.335847 
L 402.499142 -52.414837 
L 400.903945 -44.630733 
L 399.308748 -45.98329 
L 397.713551 -57.065977 
L 396.118353 -73.72451 
L 394.523156 -44.989575 
L 392.927959 -43.857843 
L 391.332762 -44.796352 
L 389.737564 -45.845274 
L 388.142367 -44.796352 
L 386.54717 -74.179963 
L 384.951973 -60.240345 
L 383.356775 -47.197831 
L 381.761578 -46.659569 
L 380.166381 -60.474972 
L 378.571184 -54.416069 
L 376.975986 -46.963204 
L 375.380789 -55.244165 
L 373.785592 -56.279285 
L 372.190395 -48.067332 
L 370.595197 -47.7913 
L 369 -48.743611 
L 367.404803 -47.901713 
L 365.809605 -46.079901 
L 364.214408 -55.451189 
L 362.619211 -61.454886 
L 361.024014 -45.583044 
L 359.428816 -46.466346 
L 357.833619 -45.72106 
L 356.238422 -45.610647 
L 354.643225 -53.794997 
L 353.048027 -45.610647 
L 351.45283 -45.251805 
L 349.857633 -75.256488 
L 348.262436 -46.480148 
L 346.667238 -58.915391 
L 345.072041 -48.384769 
L 343.476844 -47.36345 
L 341.881647 -48.094935 
L 340.286449 -48.205348 
L 338.691252 -58.225311 
L 337.096055 -51.172693 
L 335.500858 -50.247985 
L 333.90566 -50.013358 
L 332.310463 -56.003253 
L 330.715266 -49.212865 
L 329.120069 -49.806334 
L 327.524871 -48.743611 
L 325.929674 -68.769735 
L 324.334477 -47.70849 
L 322.73928 -47.887911 
L 321.144082 -47.073617 
L 319.548885 -49.999556 
L 317.953688 -47.998324 
L 316.358491 -54.25045 
L 314.763293 -47.128823 
L 313.168096 -56.32069 
L 311.572899 -46.148909 
L 309.977702 -46.990807 
L 308.382504 -57.314405 
L 306.787307 -47.10122 
L 305.19211 -65.581565 
L 303.596913 -46.797585 
L 302.001715 -44.534122 
L 300.406518 -44.437511 
L 298.811321 -45.762465 
L 297.216123 -68.328084 
L 295.620926 -46.949402 
L 294.025729 -46.590561 
L 292.430532 -46.742378 
L 290.835334 -44.658336 
L 289.240137 -80.832335 
L 287.64494 -45.845274 
L 286.049743 -45.859076 
L 284.454545 -46.024695 
L 282.859348 -46.245521 
L 281.264151 -56.74854 
L 279.668954 -46.355933 
L 278.073756 -46.825188 
L 276.478559 -45.29321 
L 274.883362 -85.676697 
L 273.288165 -48.867825 
L 271.692967 -49.971953 
L 270.09777 -63.81496 
L 268.502573 -45.389821 
L 266.907376 -45.486433 
L 265.312178 -44.699741 
L 263.716981 -77.271522 
L 262.121784 -58.832582 
L 260.526587 -52.35963 
L 258.931389 -62.766038 
L 257.336192 -45.886679 
L 255.740995 -46.259322 
L 254.145798 -45.37602 
L 252.5506 -67.210154 
L 250.955403 -44.589328 
L 249.360206 -58.197708 
L 247.765009 -44.547924 
L 246.169811 -44.575527 
L 244.574614 -46.907998 
L 242.979417 -46.659569 
L 241.38422 -66.147431 
L 239.789022 -45.652052 
L 238.193825 -46.742378 
L 236.598628 -44.741146 
L 235.003431 -44.037264 
L 233.408233 -55.533999 
L 231.813036 -46.659569 
L 230.217839 -44.409908 
L 228.622642 -45.307012 
L 227.027444 -47.639482 
L 225.432247 -54.954331 
L 223.83705 -46.052298 
L 222.241852 -46.217917 
L 220.646655 -46.825188 
L 219.051458 -59.24663 
L 217.456261 -45.969489 
L 215.861063 -48.025927 
L 214.265866 -46.852791 
L 212.670669 -62.048355 
L 211.075472 -50.71724 
L 209.480274 -50.993272 
L 207.885077 -50.882859 
L 206.28988 -56.500111 
L 204.694683 -50.151374 
L 203.099485 -50.399803 
L 201.504288 -50.593025 
L 199.909091 -49.668318 
L 198.313894 -66.671892 
L 196.718696 -43.857843 
L 195.123499 -43.954455 
L 193.528302 -44.189082 
L 191.933105 -43.775034 
L 190.337907 -65.940407 
L 188.74271 -44.271892 
L 187.147513 -43.637018 
L 185.552316 -65.650573 
L 183.957118 -45.679655 
L 182.361921 -47.915514 
L 180.766724 -52.194011 
L 179.171527 -45.307012 
L 177.576329 -46.286925 
L 175.981132 -65.484954 
L 174.385935 -59.205225 
L 172.790738 -44.68594 
L 171.19554 -44.313296 
L 169.600343 -44.920567 
L 168.005146 -45.279409 
L 166.409949 -59.93671 
L 164.814751 -47.87411 
L 163.219554 -52.373432 
L 161.624357 -56.66573 
L 160.02916 -59.329439 
L 158.433962 -64.256611 
L 156.838765 -64.24281 
L 155.243568 -69.211386 
L 153.64837 -60.185139 
L 152.053173 -45.817671 
L 150.457976 -60.999433 
L 148.862779 -64.353222 
L 147.267581 -60.723401 
L 145.672384 -63.870166 
L 144.077187 -58.21151 
L 142.48199 -55.989452 
L 140.886792 -57.369612 
L 139.291595 -60.516377 
L 137.696398 -65.112311 
L 136.101201 -58.280518 
L 134.506003 -57.424818 
L 132.910806 -58.487542 
L 131.315609 -59.16382 
L 129.720412 -52.125003 
L 128.125214 -62.420998 
L 126.530017 -63.525126 
L 124.93482 -59.550265 
L 123.339623 -55.188959 
L 121.744425 -45.831473 
L 120.149228 -44.313296 
L 118.554031 -44.68594 
L 116.958834 -46.148909 
L 115.363636 -54.360863 
z
" style="stroke: #0000ff; stroke-width: 0.5"/>
    </defs>
    <g clip-path="url(#pfa7c0ad3b2)">
     <use xlink:href="#m2cd1277c2c" x="0" y="288" style="fill: #0000ff; stroke: #0000ff; stroke-width: 0.5"/>
    </g>
   </g>
   <g id="PolyCollection_3">
    <defs>
     <path id="m84ff45a5b6" d="M 115.363636 -62.338189 
L 115.363636 -54.360863 
L 116.958834 -46.148909 
L 118.554031 -44.68594 
L 120.149228 -44.313296 
L 121.744425 -45.831473 
L 123.339623 -55.188959 
L 124.93482 -59.550265 
L 126.530017 -63.525126 
L 128.125214 -62.420998 
L 129.720412 -52.125003 
L 131.315609 -59.16382 
L 132.910806 -58.487542 
L 134.506003 -57.424818 
L 136.101201 -58.280518 
L 137.696398 -65.112311 
L 139.291595 -60.516377 
L 140.886792 -57.369612 
L 142.48199 -55.989452 
L 144.077187 -58.21151 
L 145.672384 -63.870166 
L 147.267581 -60.723401 
L 148.862779 -64.353222 
L 150.457976 -60.999433 
L 152.053173 -45.817671 
L 153.64837 -60.185139 
L 155.243568 -69.211386 
L 156.838765 -64.24281 
L 158.433962 -64.256611 
L 160.02916 -59.329439 
L 161.624357 -56.66573 
L 163.219554 -52.373432 
L 164.814751 -47.87411 
L 166.409949 -59.93671 
L 168.005146 -45.279409 
L 169.600343 -44.920567 
L 171.19554 -44.313296 
L 172.790738 -44.68594 
L 174.385935 -59.205225 
L 175.981132 -65.484954 
L 177.576329 -46.286925 
L 179.171527 -45.307012 
L 180.766724 -52.194011 
L 182.361921 -47.915514 
L 183.957118 -45.679655 
L 185.552316 -65.650573 
L 187.147513 -43.637018 
L 188.74271 -44.271892 
L 190.337907 -65.940407 
L 191.933105 -43.775034 
L 193.528302 -44.189082 
L 195.123499 -43.954455 
L 196.718696 -43.857843 
L 198.313894 -66.671892 
L 199.909091 -49.668318 
L 201.504288 -50.593025 
L 203.099485 -50.399803 
L 204.694683 -50.151374 
L 206.28988 -56.500111 
L 207.885077 -50.882859 
L 209.480274 -50.993272 
L 211.075472 -50.71724 
L 212.670669 -62.048355 
L 214.265866 -46.852791 
L 215.861063 -48.025927 
L 217.456261 -45.969489 
L 219.051458 -59.24663 
L 220.646655 -46.825188 
L 222.241852 -46.217917 
L 223.83705 -46.052298 
L 225.432247 -54.954331 
L 227.027444 -47.639482 
L 228.622642 -45.307012 
L 230.217839 -44.409908 
L 231.813036 -46.659569 
L 233.408233 -55.533999 
L 235.003431 -44.037264 
L 236.598628 -44.741146 
L 238.193825 -46.742378 
L 239.789022 -45.652052 
L 241.38422 -66.147431 
L 242.979417 -46.659569 
L 244.574614 -46.907998 
L 246.169811 -44.575527 
L 247.765009 -44.547924 
L 249.360206 -58.197708 
L 250.955403 -44.589328 
L 252.5506 -67.210154 
L 254.145798 -45.37602 
L 255.740995 -46.259322 
L 257.336192 -45.886679 
L 258.931389 -62.766038 
L 260.526587 -52.35963 
L 262.121784 -58.832582 
L 263.716981 -77.271522 
L 265.312178 -44.699741 
L 266.907376 -45.486433 
L 268.502573 -45.389821 
L 270.09777 -63.81496 
L 271.692967 -49.971953 
L 273.288165 -48.867825 
L 274.883362 -85.676697 
L 276.478559 -45.29321 
L 278.073756 -46.825188 
L 279.668954 -46.355933 
L 281.264151 -56.74854 
L 282.859348 -46.245521 
L 284.454545 -46.024695 
L 286.049743 -45.859076 
L 287.64494 -45.845274 
L 289.240137 -80.832335 
L 290.835334 -44.658336 
L 292.430532 -46.742378 
L 294.025729 -46.590561 
L 295.620926 -46.949402 
L 297.216123 -68.328084 
L 298.811321 -45.762465 
L 300.406518 -44.437511 
L 302.001715 -44.534122 
L 303.596913 -46.797585 
L 305.19211 -65.581565 
L 306.787307 -47.10122 
L 308.382504 -57.314405 
L 309.977702 -46.990807 
L 311.572899 -46.148909 
L 313.168096 -56.32069 
L 314.763293 -47.128823 
L 316.358491 -54.25045 
L 317.953688 -47.998324 
L 319.548885 -49.999556 
L 321.144082 -47.073617 
L 322.73928 -47.887911 
L 324.334477 -47.70849 
L 325.929674 -68.769735 
L 327.524871 -48.743611 
L 329.120069 -49.806334 
L 330.715266 -49.212865 
L 332.310463 -56.003253 
L 333.90566 -50.013358 
L 335.500858 -50.247985 
L 337.096055 -51.172693 
L 338.691252 -58.225311 
L 340.286449 -48.205348 
L 341.881647 -48.094935 
L 343.476844 -47.36345 
L 345.072041 -48.384769 
L 346.667238 -58.915391 
L 348.262436 -46.480148 
L 349.857633 -75.256488 
L 351.45283 -45.251805 
L 353.048027 -45.610647 
L 354.643225 -53.794997 
L 356.238422 -45.610647 
L 357.833619 -45.72106 
L 359.428816 -46.466346 
L 361.024014 -45.583044 
L 362.619211 -61.454886 
L 364.214408 -55.451189 
L 365.809605 -46.079901 
L 367.404803 -47.901713 
L 369 -48.743611 
L 370.595197 -47.7913 
L 372.190395 -48.067332 
L 373.785592 -56.279285 
L 375.380789 -55.244165 
L 376.975986 -46.963204 
L 378.571184 -54.416069 
L 380.166381 -60.474972 
L 381.761578 -46.659569 
L 383.356775 -47.197831 
L 384.951973 -60.240345 
L 386.54717 -74.179963 
L 388.142367 -44.796352 
L 389.737564 -45.845274 
L 391.332762 -44.796352 
L 392.927959 -43.857843 
L 394.523156 -44.989575 
L 396.118353 -73.72451 
L 397.713551 -57.065977 
L 399.308748 -45.98329 
L 400.903945 -44.630733 
L 402.499142 -52.414837 
L 404.09434 -47.335847 
L 405.689537 -47.128823 
L 407.284734 -46.549156 
L 408.879931 -47.073617 
L 410.475129 -58.252914 
L 412.070326 -46.935601 
L 413.665523 -56.444904 
L 415.26072 -47.10122 
L 416.855918 -46.75618 
L 418.451115 -46.935601 
L 420.046312 -46.438743 
L 421.641509 -68.742132 
L 423.236707 -58.81878 
L 424.831904 -66.202637 
L 426.427101 -66.547677 
L 428.022298 -49.875342 
L 429.617496 -60.019519 
L 431.212693 -48.729809 
L 432.80789 -47.70849 
L 434.403087 -66.644288 
L 435.998285 -45.362218 
L 437.593482 -43.940653 
L 439.188679 -52.221614 
L 440.783877 -49.640715 
L 442.379074 -48.039729 
L 443.974271 -62.848848 
L 445.569468 -45.527837 
L 447.164666 -44.051066 
L 448.759863 -43.4852 
L 450.35506 -44.94817 
L 451.950257 -66.078423 
L 453.545455 -46.825188 
L 455.140652 -46.245521 
L 456.735849 -46.010893 
L 458.331046 -57.328207 
L 459.926244 -49.17146 
L 461.521441 -49.585508 
L 463.116638 -52.069797 
L 464.711835 -55.244165 
L 466.307033 -51.06228 
L 467.90223 -62.08976 
L 469.497427 -67.26536 
L 471.092624 -59.108614 
L 472.687822 -62.103561 
L 474.283019 -60.336956 
L 475.878216 -67.582797 
L 477.473413 -55.464991 
L 479.068611 -50.648232 
L 480.663808 -52.263019 
L 482.259005 -53.781195 
L 483.854202 -51.421121 
L 485.4494 -50.261787 
L 487.044597 -49.475096 
L 488.639794 -50.358398 
L 490.234991 -59.191423 
L 491.830189 -47.44626 
L 493.425386 -54.209045 
L 495.020583 -48.177745 
L 496.61578 -48.936833 
L 498.210978 -49.033444 
L 499.806175 -79.700604 
L 501.401372 -61.385878 
L 502.996569 -75.849957 
L 504.591767 -99.464498 
L 506.186964 -90.369242 
L 507.782161 -94.288897 
L 509.377358 -115.971214 
L 510.972556 -88.685447 
L 512.567753 -117.14435 
L 514.16295 -87.526112 
L 515.758148 -85.773309 
L 517.353345 -99.533506 
L 518.948542 -67.182551 
L 520.543739 -98.222354 
L 522.138937 -89.541146 
L 523.734134 -82.005471 
L 525.329331 -86.366778 
L 526.924528 -58.860185 
L 528.519726 -58.832582 
L 530.114923 -59.067209 
L 531.71012 -44.644535 
L 533.305317 -78.085816 
L 534.900515 -63.414713 
L 536.495712 -69.984276 
L 538.090909 -65.139914 
L 539.686106 -63.511325 
L 541.281304 -103.508367 
L 542.876501 -58.266716 
L 544.471698 -60.350758 
L 546.066895 -77.864991 
L 547.662093 -54.816315 
L 549.25729 -53.933013 
L 550.852487 -67.789821 
L 552.447684 -65.774787 
L 554.042882 -65.126112 
L 555.638079 -46.41114 
L 557.233276 -58.39093 
L 558.828473 -49.613112 
L 560.423671 -58.087295 
L 562.018868 -59.039606 
L 563.614065 -75.463512 
L 565.209262 -77.533752 
L 566.80446 -83.28902 
L 568.399657 -83.095798 
L 569.994854 -79.562588 
L 571.590051 -73.517486 
L 573.185249 -71.074603 
L 574.780446 -96.842193 
L 576.375643 -65.774787 
L 577.97084 -65.415946 
L 579.566038 -64.146198 
L 581.161235 -66.175034 
L 582.756432 -67.044535 
L 584.35163 -92.67411 
L 585.946827 -52.594258 
L 587.542024 -53.781195 
L 589.137221 -54.25045 
L 590.732419 -53.587973 
L 592.327616 -64.629254 
L 593.922813 -52.069797 
L 595.51801 -52.470043 
L 597.113208 -55.810031 
L 598.708405 -45.610647 
L 600.303602 -45.486433 
L 601.898799 -54.388466 
L 603.493997 -49.999556 
L 605.089194 -49.820136 
L 606.684391 -51.296907 
L 608.279588 -51.724757 
L 609.874786 -64.684461 
L 611.469983 -55.244165 
L 613.06518 -76.029378 
L 614.660377 -42.091238 
L 616.255575 -42.10504 
L 617.850772 -42.10504 
L 619.445969 -42.063635 
L 621.041166 -42.118842 
L 622.636364 -41.773802 
L 622.636364 -41.801405 
L 622.636364 -41.801405 
L 621.041166 -42.394874 
L 619.445969 -42.201651 
L 617.850772 -42.243056 
L 616.255575 -42.243056 
L 614.660377 -42.312064 
L 613.06518 -90.341639 
L 611.469983 -77.092101 
L 609.874786 -88.657843 
L 608.279588 -68.535108 
L 606.684391 -66.175034 
L 605.089194 -63.566531 
L 603.493997 -83.813481 
L 601.898799 -152.421245 
L 600.303602 -181.280394 
L 598.708405 -175.663142 
L 597.113208 -129.55199 
L 595.51801 -95.600049 
L 593.922813 -102.404239 
L 592.327616 -111.306272 
L 590.732419 -108.242317 
L 589.137221 -116.095428 
L 587.542024 -116.633691 
L 585.946827 -101.672754 
L 584.35163 -139.1165 
L 582.756432 -141.076328 
L 581.161235 -143.229378 
L 579.566038 -147.908121 
L 577.97084 -139.585755 
L 576.375643 -136.646014 
L 574.780446 -165.8226 
L 573.185249 -139.447739 
L 571.590051 -150.544227 
L 569.994854 -165.574171 
L 568.399657 -161.875342 
L 566.80446 -163.848971 
L 565.209262 -166.636895 
L 563.614065 -158.590561 
L 562.018868 -112.57602 
L 560.423671 -111.982551 
L 558.828473 -135.210647 
L 557.233276 -102.15581 
L 555.638079 -83.482243 
L 554.042882 -109.622477 
L 552.447684 -101.769365 
L 550.852487 -107.897277 
L 549.25729 -102.735478 
L 547.662093 -105.412988 
L 546.066895 -143.105163 
L 544.471698 -123.548293 
L 542.876501 -105.606211 
L 541.281304 -151.275712 
L 539.686106 -126.557043 
L 538.090909 -132.146691 
L 536.495712 -146.748786 
L 534.900515 -143.50541 
L 533.305317 -142.442686 
L 531.71012 -107.869673 
L 530.114923 -106.627529 
L 528.519726 -112.976266 
L 526.924528 -116.150635 
L 525.329331 -166.830117 
L 523.734134 -194.115884 
L 522.138937 -202.465853 
L 520.543739 -186.15236 
L 518.948542 -187.822354 
L 517.353345 -179.955441 
L 515.758148 -218.241084 
L 514.16295 -221.04281 
L 512.567753 -243.36 
L 510.972556 -219.800665 
L 509.377358 -228.302452 
L 507.782161 -229.516993 
L 506.186964 -217.77183 
L 504.591767 -218.72414 
L 502.996569 -183.585262 
L 501.401372 -179.6104 
L 499.806175 -118.759137 
L 498.210978 -87.788343 
L 496.61578 -106.392902 
L 495.020583 -87.16727 
L 493.425386 -89.610154 
L 491.830189 -80.708121 
L 490.234991 -96.428145 
L 488.639794 -92.605102 
L 487.044597 -91.086925 
L 485.4494 -72.993025 
L 483.854202 -79.327961 
L 482.259005 -75.463512 
L 480.663808 -69.58403 
L 479.068611 -66.202637 
L 477.473413 -91.390561 
L 475.878216 -111.830733 
L 474.283019 -108.518349 
L 472.687822 -105.371583 
L 471.092624 -97.214837 
L 469.497427 -86.725619 
L 467.90223 -81.48101 
L 466.307033 -75.18748 
L 464.711835 -104.529686 
L 463.116638 -94.606334 
L 461.521441 -68.824941 
L 459.926244 -66.754701 
L 458.331046 -64.58785 
L 456.735849 -58.749772 
L 455.140652 -64.93289 
L 453.545455 -66.851312 
L 451.950257 -79.893826 
L 450.35506 -55.133752 
L 448.759863 -50.869057 
L 447.164666 -55.464991 
L 445.569468 -57.162588 
L 443.974271 -69.50122 
L 442.379074 -65.650573 
L 440.783877 -68.176266 
L 439.188679 -68.714529 
L 437.593482 -52.345829 
L 435.998285 -57.397215 
L 434.403087 -71.57146 
L 432.80789 -67.237757 
L 431.212693 -72.979224 
L 429.617496 -85.152237 
L 428.022298 -75.987973 
L 426.427101 -98.029131 
L 424.831904 -94.192286 
L 423.236707 -93.350388 
L 421.641509 -85.759507 
L 420.046312 -74.41459 
L 418.451115 -73.144843 
L 416.855918 -60.336956 
L 415.26072 -66.57528 
L 413.665523 -74.801035 
L 412.070326 -63.704547 
L 410.475129 -74.290376 
L 408.879931 -69.556426 
L 407.284734 -75.849957 
L 405.689537 -73.365669 
L 404.09434 -69.984276 
L 402.499142 -57.217794 
L 400.903945 -53.877807 
L 399.308748 -53.491362 
L 397.713551 -60.640591 
L 396.118353 -81.453407 
L 394.523156 -52.000789 
L 392.927959 -50.97947 
L 391.332762 -54.954331 
L 389.737564 -55.561602 
L 388.142367 -51.352113 
L 386.54717 -94.785755 
L 384.951973 -84.172323 
L 383.356775 -86.394381 
L 381.761578 -83.647862 
L 380.166381 -87.815946 
L 378.571184 -79.41077 
L 376.975986 -75.863758 
L 375.380789 -72.26154 
L 373.785592 -74.15236 
L 372.190395 -63.221491 
L 370.595197 -66.340653 
L 369 -65.995613 
L 367.404803 -65.705779 
L 365.809605 -57.01077 
L 364.214408 -62.807443 
L 362.619211 -88.906272 
L 361.024014 -75.325496 
L 359.428816 -54.747307 
L 357.833619 -70.343118 
L 356.238422 -76.967887 
L 354.643225 -62.407197 
L 353.048027 -52.939298 
L 351.45283 -50.510216 
L 349.857633 -82.640345 
L 348.262436 -59.232828 
L 346.667238 -74.428392 
L 345.072041 -67.43098 
L 343.476844 -64.298016 
L 341.881647 -61.606704 
L 340.286449 -67.748417 
L 338.691252 -82.654147 
L 337.096055 -84.462157 
L 335.500858 -78.982921 
L 333.90566 -79.562588 
L 332.310463 -87.926359 
L 330.715266 -84.40695 
L 329.120069 -86.960246 
L 327.524871 -69.349402 
L 325.929674 -88.243795 
L 324.334477 -83.523648 
L 322.73928 -70.467332 
L 321.144082 -96.359137 
L 319.548885 -84.034307 
L 317.953688 -74.814837 
L 316.358491 -63.207689 
L 314.763293 -56.072261 
L 313.168096 -61.993148 
L 311.572899 -59.564067 
L 309.977702 -59.50886 
L 308.382504 -77.161109 
L 306.787307 -79.396969 
L 305.19211 -93.488404 
L 303.596913 -66.713296 
L 302.001715 -52.801282 
L 300.406518 -52.263019 
L 298.811321 -55.451189 
L 297.216123 -85.221245 
L 295.620926 -63.456118 
L 294.025729 -73.959137 
L 292.430532 -66.589082 
L 290.835334 -58.032089 
L 289.240137 -93.460801 
L 287.64494 -66.533876 
L 286.049743 -65.691978 
L 284.454545 -65.015699 
L 282.859348 -60.433567 
L 281.264151 -64.725866 
L 279.668954 -64.808675 
L 278.073756 -69.749649 
L 276.478559 -60.323155 
L 274.883362 -103.19093 
L 273.288165 -73.020628 
L 271.692967 -75.132274 
L 270.09777 -78.513666 
L 268.502573 -59.039606 
L 266.907376 -59.550265 
L 265.312178 -54.995736 
L 263.716981 -88.864868 
L 262.121784 -106.158275 
L 260.526587 -98.926235 
L 258.931389 -104.99894 
L 257.336192 -65.374541 
L 255.740995 -68.272877 
L 254.145798 -62.986864 
L 252.5506 -76.705656 
L 250.955403 -52.897893 
L 249.360206 -68.673124 
L 247.765009 -51.779963 
L 246.169811 -54.761109 
L 244.574614 -61.882736 
L 242.979417 -63.73215 
L 241.38422 -73.476081 
L 239.789022 -59.08101 
L 238.193825 -58.73597 
L 236.598628 -51.655749 
L 235.003431 -51.103685 
L 233.408233 -64.394627 
L 231.813036 -58.059692 
L 230.217839 -53.532766 
L 228.622642 -56.734738 
L 227.027444 -60.171337 
L 225.432247 -77.519951 
L 223.83705 -61.703315 
L 222.241852 -63.828762 
L 220.646655 -62.282982 
L 219.051458 -65.112311 
L 217.456261 -56.803746 
L 215.861063 -66.23024 
L 214.265866 -62.545213 
L 212.670669 -82.460924 
L 211.075472 -74.732027 
L 209.480274 -75.753346 
L 207.885077 -75.366901 
L 206.28988 -82.68175 
L 204.694683 -76.043179 
L 203.099485 -75.932766 
L 201.504288 -77.60276 
L 199.909091 -73.710709 
L 198.313894 -74.097153 
L 196.718696 -54.885323 
L 195.123499 -55.644412 
L 193.528302 -55.354578 
L 191.933105 -52.318226 
L 190.337907 -71.378238 
L 188.74271 -51.66955 
L 187.147513 -47.680887 
L 185.552316 -70.605348 
L 183.957118 -56.05846 
L 182.361921 -57.397215 
L 180.766724 -61.027036 
L 179.171527 -59.991916 
L 177.576329 -59.978115 
L 175.981132 -71.447246 
L 174.385935 -65.664375 
L 172.790738 -53.463758 
L 171.19554 -53.767394 
L 169.600343 -55.658213 
L 168.005146 -54.912927 
L 166.409949 -66.713296 
L 164.814751 -59.757289 
L 163.219554 -68.866346 
L 161.624357 -81.163574 
L 160.02916 -90.258829 
L 158.433962 -100.016562 
L 156.838765 -98.733013 
L 155.243568 -126.736463 
L 153.64837 -118.276081 
L 152.053173 -113.18329 
L 150.457976 -123.479285 
L 148.862779 -122.043919 
L 147.267581 -95.641454 
L 145.672384 -92.991547 
L 144.077187 -88.340407 
L 142.48199 -84.8348 
L 140.886792 -85.607689 
L 139.291595 -91.155933 
L 137.696398 -95.116993 
L 136.101201 -89.044288 
L 134.506003 -83.868688 
L 132.910806 -96.731781 
L 131.315609 -99.326482 
L 129.720412 -95.669057 
L 128.125214 -102.280025 
L 126.530017 -106.158275 
L 124.93482 -84.738189 
L 123.339623 -72.537572 
L 121.744425 -57.756057 
L 120.149228 -52.221614 
L 118.554031 -55.810031 
L 116.958834 -59.053407 
L 115.363636 -62.338189 
z
" style="stroke: #008000; stroke-width: 0.5"/>
    </defs>
    <g clip-path="url(#pfa7c0ad3b2)">
     <use xlink:href="#m84ff45a5b6" x="0" y="288" style="fill: #008000; stroke: #008000; stroke-width: 0.5"/>
    </g>
   </g>
   <g id="line2d_28">
    <path d="M 90 44.64 
L 648 44.64 
" clip-path="url(#pfa7c0ad3b2)" style="fill: none; stroke: #000000; stroke-width: 1.5; stroke-linecap: square"/>
   </g>
   <g id="line2d_29">
    <path d="M 90 199.949427 
L 648 199.949427 
" clip-path="url(#pfa7c0ad3b2)" style="fill: none; stroke: #000000; stroke-width: 1.5; stroke-linecap: square"/>
   </g>
   <g id="patch_3">
    <path d="M 90 256.32 
L 90 34.56 
" style="fill: none; stroke: #000000; stroke-width: 0.8; stroke-linejoin: miter; stroke-linecap: square"/>
   </g>
   <g id="patch_4">
    <path d="M 648 256.32 
L 648 34.56 
" style="fill: none; stroke: #000000; stroke-width: 0.8; stroke-linejoin: miter; stroke-linecap: square"/>
   </g>
   <g id="patch_5">
    <path d="M 90 256.32 
L 648 256.32 
" style="fill: none; stroke: #000000; stroke-width: 0.8; stroke-linejoin: miter; stroke-linecap: square"/>
   </g>
   <g id="patch_6">
    <path d="M 90 34.56 
L 648 34.56 
" style="fill: none; stroke: #000000; stroke-width: 0.8; stroke-linejoin: miter; stroke-linecap: square"/>
   </g>
   <g id="text_22">
    <!-- peak (14,607) -->
    <g transform="translate(118.700327 41.3136) scale(0.1 -0.1)">
     <defs>
      <path id="DejaVuSans-Bold-70" d="M 1656 506 
L 1656 -1331 
L 538 -1331 
L 538 3500 
L 1656 3500 
L 1656 2988 
Q 1888 3294 2169 3439 
Q 2450 3584 2816 3584 
Q 3463 3584 3878 3070 
Q 4294 2556 4294 1747 
Q 4294 938 3878 423 
Q 3463 -91 2816 -91 
Q 2450 -91 2169 54 
Q 1888 200 1656 506 
z
M 2400 2772 
Q 2041 2772 1848 2508 
Q 1656 2244 1656 1747 
Q 1656 1250 1848 986 
Q 2041 722 2400 722 
Q 2759 722 2948 984 
Q 3138 1247 3138 1747 
Q 3138 2247 2948 2509 
Q 2759 2772 2400 2772 
z
" transform="scale(0.015625)"/>
      <path id="DejaVuSans-Bold-65" d="M 4031 1759 
L 4031 1441 
L 1416 1441 
Q 1456 1047 1700 850 
Q 1944 653 2381 653 
Q 2734 653 3104 758 
Q 3475 863 3866 1075 
L 3866 213 
Q 3469 63 3072 -14 
Q 2675 -91 2278 -91 
Q 1328 -91 801 392 
Q 275 875 275 1747 
Q 275 2603 792 3093 
Q 1309 3584 2216 3584 
Q 3041 3584 3536 3087 
Q 4031 2591 4031 1759 
z
M 2881 2131 
Q 2881 2450 2695 2645 
Q 2509 2841 2209 2841 
Q 1884 2841 1681 2658 
Q 1478 2475 1428 2131 
L 2881 2131 
z
" transform="scale(0.015625)"/>
      <path id="DejaVuSans-Bold-61" d="M 2106 1575 
Q 1756 1575 1579 1456 
Q 1403 1338 1403 1106 
Q 1403 894 1545 773 
Q 1688 653 1941 653 
Q 2256 653 2472 879 
Q 2688 1106 2688 1447 
L 2688 1575 
L 2106 1575 
z
M 3816 1997 
L 3816 0 
L 2688 0 
L 2688 519 
Q 2463 200 2181 54 
Q 1900 -91 1497 -91 
Q 953 -91 614 226 
Q 275 544 275 1050 
Q 275 1666 698 1953 
Q 1122 2241 2028 2241 
L 2688 2241 
L 2688 2328 
Q 2688 2594 2478 2717 
Q 2269 2841 1825 2841 
Q 1466 2841 1156 2769 
Q 847 2697 581 2553 
L 581 3406 
Q 941 3494 1303 3539 
Q 1666 3584 2028 3584 
Q 2975 3584 3395 3211 
Q 3816 2838 3816 1997 
z
" transform="scale(0.015625)"/>
      <path id="DejaVuSans-Bold-6b" d="M 538 4863 
L 1656 4863 
L 1656 2216 
L 2944 3500 
L 4244 3500 
L 2534 1894 
L 4378 0 
L 3022 0 
L 1656 1459 
L 1656 0 
L 538 0 
L 538 4863 
z
" transform="scale(0.015625)"/>
      <path id="DejaVuSans-Bold-20" transform="scale(0.015625)"/>
      <path id="DejaVuSans-Bold-28" d="M 2413 -844 
L 1484 -844 
Q 1006 -72 778 623 
Q 550 1319 550 2003 
Q 550 2688 779 3389 
Q 1009 4091 1484 4856 
L 2413 4856 
Q 2013 4116 1813 3408 
Q 1613 2700 1613 2009 
Q 1613 1319 1811 609 
Q 2009 -100 2413 -844 
z
" transform="scale(0.015625)"/>
      <path id="DejaVuSans-Bold-31" d="M 750 831 
L 1813 831 
L 1813 3847 
L 722 3622 
L 722 4441 
L 1806 4666 
L 2950 4666 
L 2950 831 
L 4013 831 
L 4013 0 
L 750 0 
L 750 831 
z
" transform="scale(0.015625)"/>
      <path id="DejaVuSans-Bold-34" d="M 2356 3675 
L 1038 1722 
L 2356 1722 
L 2356 3675 
z
M 2156 4666 
L 3494 4666 
L 3494 1722 
L 4159 1722 
L 4159 850 
L 3494 850 
L 3494 0 
L 2356 0 
L 2356 850 
L 288 850 
L 288 1881 
L 2156 4666 
z
" transform="scale(0.015625)"/>
      <path id="DejaVuSans-Bold-2c" d="M 653 1209 
L 1778 1209 
L 1778 256 
L 1006 -909 
L 341 -909 
L 653 256 
L 653 1209 
z
" transform="scale(0.015625)"/>
      <path id="DejaVuSans-Bold-36" d="M 2316 2303 
Q 2000 2303 1842 2098 
Q 1684 1894 1684 1484 
Q 1684 1075 1842 870 
Q 2000 666 2316 666 
Q 2634 666 2792 870 
Q 2950 1075 2950 1484 
Q 2950 1894 2792 2098 
Q 2634 2303 2316 2303 
z
M 3803 4544 
L 3803 3681 
Q 3506 3822 3243 3889 
Q 2981 3956 2731 3956 
Q 2194 3956 1894 3657 
Q 1594 3359 1544 2772 
Q 1750 2925 1990 3001 
Q 2231 3078 2516 3078 
Q 3231 3078 3670 2659 
Q 4109 2241 4109 1563 
Q 4109 813 3618 361 
Q 3128 -91 2303 -91 
Q 1394 -91 895 523 
Q 397 1138 397 2266 
Q 397 3422 980 4083 
Q 1563 4744 2578 4744 
Q 2900 4744 3203 4694 
Q 3506 4644 3803 4544 
z
" transform="scale(0.015625)"/>
      <path id="DejaVuSans-Bold-30" d="M 2944 2338 
Q 2944 3213 2780 3570 
Q 2616 3928 2228 3928 
Q 1841 3928 1675 3570 
Q 1509 3213 1509 2338 
Q 1509 1453 1675 1090 
Q 1841 728 2228 728 
Q 2613 728 2778 1090 
Q 2944 1453 2944 2338 
z
M 4147 2328 
Q 4147 1169 3647 539 
Q 3147 -91 2228 -91 
Q 1306 -91 806 539 
Q 306 1169 306 2328 
Q 306 3491 806 4120 
Q 1306 4750 2228 4750 
Q 3147 4750 3647 4120 
Q 4147 3491 4147 2328 
z
" transform="scale(0.015625)"/>
      <path id="DejaVuSans-Bold-37" d="M 428 4666 
L 3944 4666 
L 3944 3988 
L 2125 0 
L 953 0 
L 2675 3781 
L 428 3781 
L 428 4666 
z
" transform="scale(0.015625)"/>
      <path id="DejaVuSans-Bold-29" d="M 513 -844 
Q 913 -100 1113 609 
Q 1313 1319 1313 2009 
Q 1313 2700 1113 3408 
Q 913 4116 513 4856 
L 1441 4856 
Q 1916 4091 2145 3389 
Q 2375 2688 2375 2003 
Q 2375 1319 2147 623 
Q 1919 -72 1441 -844 
L 513 -844 
z
" transform="scale(0.015625)"/>
     </defs>
     <use xlink:href="#DejaVuSans-Bold-70"/>
     <use xlink:href="#DejaVuSans-Bold-65" x="71.582031"/>
     <use xlink:href="#DejaVuSans-Bold-61" x="139.404297"/>
     <use xlink:href="#DejaVuSans-Bold-6b" x="206.884766"/>
     <use xlink:href="#DejaVuSans-Bold-20" x="273.388672"/>
     <use xlink:href="#DejaVuSans-Bold-28" x="308.203125"/>
     <use xlink:href="#DejaVuSans-Bold-31" x="353.90625"/>
     <use xlink:href="#DejaVuSans-Bold-34" x="423.486328"/>
     <use xlink:href="#DejaVuSans-Bold-2c" x="493.066406"/>
     <use xlink:href="#DejaVuSans-Bold-36" x="531.054688"/>
     <use xlink:href="#DejaVuSans-Bold-30" x="600.634766"/>
     <use xlink:href="#DejaVuSans-Bold-37" x="670.214844"/>
     <use xlink:href="#DejaVuSans-Bold-29" x="739.794922"/>
    </g>
   </g>
   <g id="text_23">
    <!-- mean (3,354) -->
    <g transform="translate(567.728153 196.623027) scale(0.1 -0.1)">
     <defs>
      <path id="DejaVuSans-Bold-6d" d="M 3781 2919 
Q 3994 3244 4286 3414 
Q 4578 3584 4928 3584 
Q 5531 3584 5847 3212 
Q 6163 2841 6163 2131 
L 6163 0 
L 5038 0 
L 5038 1825 
Q 5041 1866 5042 1909 
Q 5044 1953 5044 2034 
Q 5044 2406 4934 2573 
Q 4825 2741 4581 2741 
Q 4263 2741 4089 2478 
Q 3916 2216 3909 1719 
L 3909 0 
L 2784 0 
L 2784 1825 
Q 2784 2406 2684 2573 
Q 2584 2741 2328 2741 
Q 2006 2741 1831 2477 
Q 1656 2213 1656 1722 
L 1656 0 
L 531 0 
L 531 3500 
L 1656 3500 
L 1656 2988 
Q 1863 3284 2130 3434 
Q 2397 3584 2719 3584 
Q 3081 3584 3359 3409 
Q 3638 3234 3781 2919 
z
" transform="scale(0.015625)"/>
      <path id="DejaVuSans-Bold-6e" d="M 4056 2131 
L 4056 0 
L 2931 0 
L 2931 347 
L 2931 1631 
Q 2931 2084 2911 2256 
Q 2891 2428 2841 2509 
Q 2775 2619 2662 2680 
Q 2550 2741 2406 2741 
Q 2056 2741 1856 2470 
Q 1656 2200 1656 1722 
L 1656 0 
L 538 0 
L 538 3500 
L 1656 3500 
L 1656 2988 
Q 1909 3294 2193 3439 
Q 2478 3584 2822 3584 
Q 3428 3584 3742 3212 
Q 4056 2841 4056 2131 
z
" transform="scale(0.015625)"/>
      <path id="DejaVuSans-Bold-33" d="M 2981 2516 
Q 3453 2394 3698 2092 
Q 3944 1791 3944 1325 
Q 3944 631 3412 270 
Q 2881 -91 1863 -91 
Q 1503 -91 1142 -33 
Q 781 25 428 141 
L 428 1069 
Q 766 900 1098 814 
Q 1431 728 1753 728 
Q 2231 728 2486 893 
Q 2741 1059 2741 1369 
Q 2741 1688 2480 1852 
Q 2219 2016 1709 2016 
L 1228 2016 
L 1228 2791 
L 1734 2791 
Q 2188 2791 2409 2933 
Q 2631 3075 2631 3366 
Q 2631 3634 2415 3781 
Q 2200 3928 1806 3928 
Q 1516 3928 1219 3862 
Q 922 3797 628 3669 
L 628 4550 
Q 984 4650 1334 4700 
Q 1684 4750 2022 4750 
Q 2931 4750 3382 4451 
Q 3834 4153 3834 3553 
Q 3834 3144 3618 2883 
Q 3403 2622 2981 2516 
z
" transform="scale(0.015625)"/>
      <path id="DejaVuSans-Bold-35" d="M 678 4666 
L 3669 4666 
L 3669 3781 
L 1638 3781 
L 1638 3059 
Q 1775 3097 1914 3117 
Q 2053 3138 2203 3138 
Q 3056 3138 3531 2711 
Q 4006 2284 4006 1522 
Q 4006 766 3489 337 
Q 2972 -91 2053 -91 
Q 1656 -91 1267 -14 
Q 878 63 494 219 
L 494 1166 
Q 875 947 1217 837 
Q 1559 728 1863 728 
Q 2300 728 2551 942 
Q 2803 1156 2803 1522 
Q 2803 1891 2551 2103 
Q 2300 2316 1863 2316 
Q 1603 2316 1309 2248 
Q 1016 2181 678 2041 
L 678 4666 
z
" transform="scale(0.015625)"/>
     </defs>
     <use xlink:href="#DejaVuSans-Bold-6d"/>
     <use xlink:href="#DejaVuSans-Bold-65" x="104.199219"/>
     <use xlink:href="#DejaVuSans-Bold-61" x="172.021484"/>
     <use xlink:href="#DejaVuSans-Bold-6e" x="239.501953"/>
     <use xlink:href="#DejaVuSans-Bold-20" x="310.693359"/>
     <use xlink:href="#DejaVuSans-Bold-28" x="345.507812"/>
     <use xlink:href="#DejaVuSans-Bold-33" x="391.210938"/>
     <use xlink:href="#DejaVuSans-Bold-2c" x="460.791016"/>
     <use xlink:href="#DejaVuSans-Bold-33" x="498.779297"/>
     <use xlink:href="#DejaVuSans-Bold-35" x="568.359375"/>
     <use xlink:href="#DejaVuSans-Bold-34" x="637.939453"/>
     <use xlink:href="#DejaVuSans-Bold-29" x="707.519531"/>
    </g>
   </g>
   <g id="text_24">
    <!-- Stream Bitrate over Time -->
    <g transform="translate(293.189062 28.56) scale(0.12 -0.12)">
     <defs>
      <path id="DejaVuSans-53" d="M 3425 4513 
L 3425 3897 
Q 3066 4069 2747 4153 
Q 2428 4238 2131 4238 
Q 1616 4238 1336 4038 
Q 1056 3838 1056 3469 
Q 1056 3159 1242 3001 
Q 1428 2844 1947 2747 
L 2328 2669 
Q 3034 2534 3370 2195 
Q 3706 1856 3706 1288 
Q 3706 609 3251 259 
Q 2797 -91 1919 -91 
Q 1588 -91 1214 -16 
Q 841 59 441 206 
L 441 856 
Q 825 641 1194 531 
Q 1563 422 1919 422 
Q 2459 422 2753 634 
Q 3047 847 3047 1241 
Q 3047 1584 2836 1778 
Q 2625 1972 2144 2069 
L 1759 2144 
Q 1053 2284 737 2584 
Q 422 2884 422 3419 
Q 422 4038 858 4394 
Q 1294 4750 2059 4750 
Q 2388 4750 2728 4690 
Q 3069 4631 3425 4513 
z
" transform="scale(0.015625)"/>
      <path id="DejaVuSans-6f" d="M 1959 3097 
Q 1497 3097 1228 2736 
Q 959 2375 959 1747 
Q 959 1119 1226 758 
Q 1494 397 1959 397 
Q 2419 397 2687 759 
Q 2956 1122 2956 1747 
Q 2956 2369 2687 2733 
Q 2419 3097 1959 3097 
z
M 1959 3584 
Q 2709 3584 3137 3096 
Q 3566 2609 3566 1747 
Q 3566 888 3137 398 
Q 2709 -91 1959 -91 
Q 1206 -91 779 398 
Q 353 888 353 1747 
Q 353 2609 779 3096 
Q 1206 3584 1959 3584 
z
" transform="scale(0.015625)"/>
      <path id="DejaVuSans-76" d="M 191 3500 
L 800 3500 
L 1894 563 
L 2988 3500 
L 3597 3500 
L 2284 0 
L 1503 0 
L 191 3500 
z
" transform="scale(0.015625)"/>
     </defs>
     <use xlink:href="#DejaVuSans-53"/>
     <use xlink:href="#DejaVuSans-74" x="63.476562"/>
     <use xlink:href="#DejaVuSans-72" x="102.685547"/>
     <use xlink:href="#DejaVuSans-65" x="141.548828"/>
     <use xlink:href="#DejaVuSans-61" x="203.072266"/>
     <use xlink:href="#DejaVuSans-6d" x="264.351562"/>
     <use xlink:href="#DejaVuSans-20" x="361.763672"/>
     <use xlink:href="#DejaVuSans-42" x="393.550781"/>
     <use xlink:href="#DejaVuSans-69" x="462.154297"/>
     <use xlink:href="#DejaVuSans-74" x="489.9375"/>
     <use xlink:href="#DejaVuSans-72" x="529.146484"/>
     <use xlink:href="#DejaVuSans-61" x="570.259766"/>
     <use xlink:href="#DejaVuSans-74" x="631.539062"/>
     <use xlink:href="#DejaVuSans-65" x="670.748047"/>
     <use xlink:href="#DejaVuSans-20" x="732.271484"/>
     <use xlink:href="#DejaVuSans-6f" x="764.058594"/>
     <use xlink:href="#DejaVuSans-76" x="825.240234"/>
     <use xlink:href="#DejaVuSans-65" x="884.419922"/>
     <use xlink:href="#DejaVuSans-72" x="945.943359"/>
     <use xlink:href="#DejaVuSans-20" x="987.056641"/>
     <use xlink:href="#DejaVuSans-54" x="1018.84375"/>
     <use xlink:href="#DejaVuSans-69" x="1076.802734"/>
     <use xlink:href="#DejaVuSans-6d" x="1104.585938"/>
     <use xlink:href="#DejaVuSans-65" x="1201.998047"/>
    </g>
   </g>
   <g id="legend_1">
    <g id="patch_7">
     <path d="M 602.139063 86.594375 
L 641 86.594375 
Q 643 86.594375 643 84.594375 
L 643 41.56 
Q 643 39.56 641 39.56 
L 602.139063 39.56 
Q 600.139063 39.56 600.139063 41.56 
L 600.139063 84.594375 
Q 600.139063 86.594375 602.139063 86.594375 
z
" style="fill: #ffffff; opacity: 0.8; stroke: #cccccc; stroke-linejoin: miter"/>
    </g>
    <g id="patch_8">
     <path d="M 604.139063 51.158438 
L 624.139063 51.158438 
L 624.139063 44.158438 
L 604.139063 44.158438 
z
" style="fill: #ff0000; stroke: #ff0000; stroke-width: 0.5; stroke-linejoin: miter"/>
    </g>
    <g id="text_25">
     <!-- I -->
     <g transform="translate(632.139063 51.158438) scale(0.1 -0.1)">
      <defs>
       <path id="DejaVuSans-49" d="M 628 4666 
L 1259 4666 
L 1259 0 
L 628 0 
L 628 4666 
z
" transform="scale(0.015625)"/>
      </defs>
      <use xlink:href="#DejaVuSans-49"/>
     </g>
    </g>
    <g id="patch_9">
     <path d="M 604.139063 65.836563 
L 624.139063 65.836563 
L 624.139063 58.836563 
L 604.139063 58.836563 
z
" style="fill: #0000ff; stroke: #0000ff; stroke-width: 0.5; stroke-linejoin: miter"/>
    </g>
    <g id="text_26">
     <!-- B -->
     <g transform="translate(632.139063 65.836563) scale(0.1 -0.1)">
      <use xlink:href="#DejaVuSans-42"/>
     </g>
    </g>
    <g id="patch_10">
     <path d="M 604.139063 80.514688 
L 624.139063 80.514688 
L 624.139063 73.514688 
L 604.139063 73.514688 
z
" style="fill: #008000; stroke: #008000; stroke-width: 0.5; stroke-linejoin: miter"/>
    </g>
    <g id="text_27">
     <!-- P -->
     <g transform="translate(632.139063 80.514688) scale(0.1 -0.1)">
      <defs>
       <path id="DejaVuSans-50" d="M 1259 4147 
L 1259 2394 
L 2053 2394 
Q 2494 2394 2734 2622 
Q 2975 2850 2975 3272 
Q 2975 3691 2734 3919 
Q 2494 4147 2053 4147 
L 1259 4147 
z
M 628 4666 
L 2053 4666 
Q 2838 4666 3239 4311 
Q 3641 3956 3641 3272 
Q 3641 2581 3239 2228 
Q 2838 1875 2053 1875 
L 1259 1875 
L 1259 0 
L 628 0 
L 628 4666 
z
" transform="scale(0.015625)"/>
      </defs>
      <use xlink:href="#DejaVuSans-50"/>
     </g>
    </g>
   </g>
  </g>
 </g>
 <defs>
  <clipPath id="pfa7c0ad3b2">
   <rect x="90" y="34.56" width="558" height="221.76"/>
  </clipPath>
 </defs>
</svg>
