<?xml version="1.0" encoding="utf-8" standalone="no"?>
<!DOCTYPE svg PUBLIC "-//W3C//DTD SVG 1.1//EN"
  "http://www.w3.org/Graphics/SVG/1.1/DTD/svg11.dtd">
<svg xmlns:xlink="http://www.w3.org/1999/xlink" width="720pt" height="288pt" viewBox="0 0 720 288" xmlns="http://www.w3.org/2000/svg" version="1.1">
 <metadata>
  <rdf:RDF xmlns:dc="http://purl.org/dc/elements/1.1/" xmlns:cc="http://creativecommons.org/ns#" xmlns:rdf="http://www.w3.org/1999/02/22-rdf-syntax-ns#">
   <cc:Work>
    <dc:type rdf:resource="http://purl.org/dc/dcmitype/StillImage"/>
    <dc:date>2023-05-07T14:05:47.756617</dc:date>
    <dc:format>image/svg+xml</dc:format>
    <dc:creator>
     <cc:Agent>
      <dc:title>Matplotlib v3.7.1, https://matplotlib.org/</dc:title>
     </cc:Agent>
    </dc:creator>
   </cc:Work>
  </rdf:RDF>
 </metadata>
 <defs>
  <style type="text/css">*{stroke-linejoin: round; stroke-linecap: butt}</style>
 </defs>
 <g id="figure_1">
  <g id="patch_1">
   <path d="M 0 288 
L 720 288 
L 720 0 
L 0 0 
z
" style="fill: #ffffff"/>
  </g>
  <g id="axes_1">
   <g id="patch_2">
    <path d="M 90 256.32 
L 648 256.32 
L 648 34.56 
L 90 34.56 
z
" style="fill: #ffffff"/>
   </g>
   <g id="matplotlib.axis_1">
    <g id="xtick_1">
     <g id="line2d_1">
      <defs>
       <path id="m6c95d5ebb4" d="M 0 0 
L 0 3.5 
" style="stroke: #000000; stroke-width: 0.8"/>
      </defs>
      <g>
       <use xlink:href="#m6c95d5ebb4" x="115.363636" y="256.32" style="stroke: #000000; stroke-width: 0.8"/>
      </g>
     </g>
     <g id="text_1">
      <!-- 0:00:00 -->
      <g transform="translate(96.088636 270.918437) scale(0.1 -0.1)">
       <defs>
        <path id="DejaVuSans-30" d="M 2034 4250 
Q 1547 4250 1301 3770 
Q 1056 3291 1056 2328 
Q 1056 1369 1301 889 
Q 1547 409 2034 409 
Q 2525 409 2770 889 
Q 3016 1369 3016 2328 
Q 3016 3291 2770 3770 
Q 2525 4250 2034 4250 
z
M 2034 4750 
Q 2819 4750 3233 4129 
Q 3647 3509 3647 2328 
Q 3647 1150 3233 529 
Q 2819 -91 2034 -91 
Q 1250 -91 836 529 
Q 422 1150 422 2328 
Q 422 3509 836 4129 
Q 1250 4750 2034 4750 
z
" transform="scale(0.015625)"/>
        <path id="DejaVuSans-3a" d="M 750 794 
L 1409 794 
L 1409 0 
L 750 0 
L 750 794 
z
M 750 3309 
L 1409 3309 
L 1409 2516 
L 750 2516 
L 750 3309 
z
" transform="scale(0.015625)"/>
       </defs>
       <use xlink:href="#DejaVuSans-30"/>
       <use xlink:href="#DejaVuSans-3a" x="63.623047"/>
       <use xlink:href="#DejaVuSans-30" x="97.314453"/>
       <use xlink:href="#DejaVuSans-30" x="160.9375"/>
       <use xlink:href="#DejaVuSans-3a" x="224.560547"/>
       <use xlink:href="#DejaVuSans-30" x="258.251953"/>
       <use xlink:href="#DejaVuSans-30" x="321.875"/>
      </g>
     </g>
    </g>
    <g id="xtick_2">
     <g id="line2d_2">
      <g>
       <use xlink:href="#m6c95d5ebb4" x="164.814751" y="256.32" style="stroke: #000000; stroke-width: 0.8"/>
      </g>
     </g>
     <g id="text_2">
      <!-- 0:00:31 -->
      <g transform="translate(145.539751 270.918437) scale(0.1 -0.1)">
       <defs>
        <path id="DejaVuSans-33" d="M 2597 2516 
Q 3050 2419 3304 2112 
Q 3559 1806 3559 1356 
Q 3559 666 3084 287 
Q 2609 -91 1734 -91 
Q 1441 -91 1130 -33 
Q 819 25 488 141 
L 488 750 
Q 750 597 1062 519 
Q 1375 441 1716 441 
Q 2309 441 2620 675 
Q 2931 909 2931 1356 
Q 2931 1769 2642 2001 
Q 2353 2234 1838 2234 
L 1294 2234 
L 1294 2753 
L 1863 2753 
Q 2328 2753 2575 2939 
Q 2822 3125 2822 3475 
Q 2822 3834 2567 4026 
Q 2313 4219 1838 4219 
Q 1578 4219 1281 4162 
Q 984 4106 628 3988 
L 628 4550 
Q 988 4650 1302 4700 
Q 1616 4750 1894 4750 
Q 2613 4750 3031 4423 
Q 3450 4097 3450 3541 
Q 3450 3153 3228 2886 
Q 3006 2619 2597 2516 
z
" transform="scale(0.015625)"/>
        <path id="DejaVuSans-31" d="M 794 531 
L 1825 531 
L 1825 4091 
L 703 3866 
L 703 4441 
L 1819 4666 
L 2450 4666 
L 2450 531 
L 3481 531 
L 3481 0 
L 794 0 
L 794 531 
z
" transform="scale(0.015625)"/>
       </defs>
       <use xlink:href="#DejaVuSans-30"/>
       <use xlink:href="#DejaVuSans-3a" x="63.623047"/>
       <use xlink:href="#DejaVuSans-30" x="97.314453"/>
       <use xlink:href="#DejaVuSans-30" x="160.9375"/>
       <use xlink:href="#DejaVuSans-3a" x="224.560547"/>
       <use xlink:href="#DejaVuSans-33" x="258.251953"/>
       <use xlink:href="#DejaVuSans-31" x="321.875"/>
      </g>
     </g>
    </g>
    <g id="xtick_3">
     <g id="line2d_3">
      <g>
       <use xlink:href="#m6c95d5ebb4" x="214.265866" y="256.32" style="stroke: #000000; stroke-width: 0.8"/>
      </g>
     </g>
     <g id="text_3">
      <!-- 0:01:02 -->
      <g transform="translate(194.990866 270.918437) scale(0.1 -0.1)">
       <defs>
        <path id="DejaVuSans-32" d="M 1228 531 
L 3431 531 
L 3431 0 
L 469 0 
L 469 531 
Q 828 903 1448 1529 
Q 2069 2156 2228 2338 
Q 2531 2678 2651 2914 
Q 2772 3150 2772 3378 
Q 2772 3750 2511 3984 
Q 2250 4219 1831 4219 
Q 1534 4219 1204 4116 
Q 875 4013 500 3803 
L 500 4441 
Q 881 4594 1212 4672 
Q 1544 4750 1819 4750 
Q 2544 4750 2975 4387 
Q 3406 4025 3406 3419 
Q 3406 3131 3298 2873 
Q 3191 2616 2906 2266 
Q 2828 2175 2409 1742 
Q 1991 1309 1228 531 
z
" transform="scale(0.015625)"/>
       </defs>
       <use xlink:href="#DejaVuSans-30"/>
       <use xlink:href="#DejaVuSans-3a" x="63.623047"/>
       <use xlink:href="#DejaVuSans-30" x="97.314453"/>
       <use xlink:href="#DejaVuSans-31" x="160.9375"/>
       <use xlink:href="#DejaVuSans-3a" x="224.560547"/>
       <use xlink:href="#DejaVuSans-30" x="258.251953"/>
       <use xlink:href="#DejaVuSans-32" x="321.875"/>
      </g>
     </g>
    </g>
    <g id="xtick_4">
     <g id="line2d_4">
      <g>
       <use xlink:href="#m6c95d5ebb4" x="263.716981" y="256.32" style="stroke: #000000; stroke-width: 0.8"/>
      </g>
     </g>
     <g id="text_4">
      <!-- 0:01:33 -->
      <g transform="translate(244.441981 270.918437) scale(0.1 -0.1)">
       <use xlink:href="#DejaVuSans-30"/>
       <use xlink:href="#DejaVuSans-3a" x="63.623047"/>
       <use xlink:href="#DejaVuSans-30" x="97.314453"/>
       <use xlink:href="#DejaVuSans-31" x="160.9375"/>
       <use xlink:href="#DejaVuSans-3a" x="224.560547"/>
       <use xlink:href="#DejaVuSans-33" x="258.251953"/>
       <use xlink:href="#DejaVuSans-33" x="321.875"/>
      </g>
     </g>
    </g>
    <g id="xtick_5">
     <g id="line2d_5">
      <g>
       <use xlink:href="#m6c95d5ebb4" x="313.168096" y="256.32" style="stroke: #000000; stroke-width: 0.8"/>
      </g>
     </g>
     <g id="text_5">
      <!-- 0:02:04 -->
      <g transform="translate(293.893096 270.918437) scale(0.1 -0.1)">
       <defs>
        <path id="DejaVuSans-34" d="M 2419 4116 
L 825 1625 
L 2419 1625 
L 2419 4116 
z
M 2253 4666 
L 3047 4666 
L 3047 1625 
L 3713 1625 
L 3713 1100 
L 3047 1100 
L 3047 0 
L 2419 0 
L 2419 1100 
L 313 1100 
L 313 1709 
L 2253 4666 
z
" transform="scale(0.015625)"/>
       </defs>
       <use xlink:href="#DejaVuSans-30"/>
       <use xlink:href="#DejaVuSans-3a" x="63.623047"/>
       <use xlink:href="#DejaVuSans-30" x="97.314453"/>
       <use xlink:href="#DejaVuSans-32" x="160.9375"/>
       <use xlink:href="#DejaVuSans-3a" x="224.560547"/>
       <use xlink:href="#DejaVuSans-30" x="258.251953"/>
       <use xlink:href="#DejaVuSans-34" x="321.875"/>
      </g>
     </g>
    </g>
    <g id="xtick_6">
     <g id="line2d_6">
      <g>
       <use xlink:href="#m6c95d5ebb4" x="362.619211" y="256.32" style="stroke: #000000; stroke-width: 0.8"/>
      </g>
     </g>
     <g id="text_6">
      <!-- 0:02:35 -->
      <g transform="translate(343.344211 270.918437) scale(0.1 -0.1)">
       <defs>
        <path id="DejaVuSans-35" d="M 691 4666 
L 3169 4666 
L 3169 4134 
L 1269 4134 
L 1269 2991 
Q 1406 3038 1543 3061 
Q 1681 3084 1819 3084 
Q 2600 3084 3056 2656 
Q 3513 2228 3513 1497 
Q 3513 744 3044 326 
Q 2575 -91 1722 -91 
Q 1428 -91 1123 -41 
Q 819 9 494 109 
L 494 744 
Q 775 591 1075 516 
Q 1375 441 1709 441 
Q 2250 441 2565 725 
Q 2881 1009 2881 1497 
Q 2881 1984 2565 2268 
Q 2250 2553 1709 2553 
Q 1456 2553 1204 2497 
Q 953 2441 691 2322 
L 691 4666 
z
" transform="scale(0.015625)"/>
       </defs>
       <use xlink:href="#DejaVuSans-30"/>
       <use xlink:href="#DejaVuSans-3a" x="63.623047"/>
       <use xlink:href="#DejaVuSans-30" x="97.314453"/>
       <use xlink:href="#DejaVuSans-32" x="160.9375"/>
       <use xlink:href="#DejaVuSans-3a" x="224.560547"/>
       <use xlink:href="#DejaVuSans-33" x="258.251953"/>
       <use xlink:href="#DejaVuSans-35" x="321.875"/>
      </g>
     </g>
    </g>
    <g id="xtick_7">
     <g id="line2d_7">
      <g>
       <use xlink:href="#m6c95d5ebb4" x="412.070326" y="256.32" style="stroke: #000000; stroke-width: 0.8"/>
      </g>
     </g>
     <g id="text_7">
      <!-- 0:03:06 -->
      <g transform="translate(392.795326 270.918437) scale(0.1 -0.1)">
       <defs>
        <path id="DejaVuSans-36" d="M 2113 2584 
Q 1688 2584 1439 2293 
Q 1191 2003 1191 1497 
Q 1191 994 1439 701 
Q 1688 409 2113 409 
Q 2538 409 2786 701 
Q 3034 994 3034 1497 
Q 3034 2003 2786 2293 
Q 2538 2584 2113 2584 
z
M 3366 4563 
L 3366 3988 
Q 3128 4100 2886 4159 
Q 2644 4219 2406 4219 
Q 1781 4219 1451 3797 
Q 1122 3375 1075 2522 
Q 1259 2794 1537 2939 
Q 1816 3084 2150 3084 
Q 2853 3084 3261 2657 
Q 3669 2231 3669 1497 
Q 3669 778 3244 343 
Q 2819 -91 2113 -91 
Q 1303 -91 875 529 
Q 447 1150 447 2328 
Q 447 3434 972 4092 
Q 1497 4750 2381 4750 
Q 2619 4750 2861 4703 
Q 3103 4656 3366 4563 
z
" transform="scale(0.015625)"/>
       </defs>
       <use xlink:href="#DejaVuSans-30"/>
       <use xlink:href="#DejaVuSans-3a" x="63.623047"/>
       <use xlink:href="#DejaVuSans-30" x="97.314453"/>
       <use xlink:href="#DejaVuSans-33" x="160.9375"/>
       <use xlink:href="#DejaVuSans-3a" x="224.560547"/>
       <use xlink:href="#DejaVuSans-30" x="258.251953"/>
       <use xlink:href="#DejaVuSans-36" x="321.875"/>
      </g>
     </g>
    </g>
    <g id="xtick_8">
     <g id="line2d_8">
      <g>
       <use xlink:href="#m6c95d5ebb4" x="461.521441" y="256.32" style="stroke: #000000; stroke-width: 0.8"/>
      </g>
     </g>
     <g id="text_8">
      <!-- 0:03:37 -->
      <g transform="translate(442.246441 270.918437) scale(0.1 -0.1)">
       <defs>
        <path id="DejaVuSans-37" d="M 525 4666 
L 3525 4666 
L 3525 4397 
L 1831 0 
L 1172 0 
L 2766 4134 
L 525 4134 
L 525 4666 
z
" transform="scale(0.015625)"/>
       </defs>
       <use xlink:href="#DejaVuSans-30"/>
       <use xlink:href="#DejaVuSans-3a" x="63.623047"/>
       <use xlink:href="#DejaVuSans-30" x="97.314453"/>
       <use xlink:href="#DejaVuSans-33" x="160.9375"/>
       <use xlink:href="#DejaVuSans-3a" x="224.560547"/>
       <use xlink:href="#DejaVuSans-33" x="258.251953"/>
       <use xlink:href="#DejaVuSans-37" x="321.875"/>
      </g>
     </g>
    </g>
    <g id="xtick_9">
     <g id="line2d_9">
      <g>
       <use xlink:href="#m6c95d5ebb4" x="510.972556" y="256.32" style="stroke: #000000; stroke-width: 0.8"/>
      </g>
     </g>
     <g id="text_9">
      <!-- 0:04:08 -->
      <g transform="translate(491.697556 270.918437) scale(0.1 -0.1)">
       <defs>
        <path id="DejaVuSans-38" d="M 2034 2216 
Q 1584 2216 1326 1975 
Q 1069 1734 1069 1313 
Q 1069 891 1326 650 
Q 1584 409 2034 409 
Q 2484 409 2743 651 
Q 3003 894 3003 1313 
Q 3003 1734 2745 1975 
Q 2488 2216 2034 2216 
z
M 1403 2484 
Q 997 2584 770 2862 
Q 544 3141 544 3541 
Q 544 4100 942 4425 
Q 1341 4750 2034 4750 
Q 2731 4750 3128 4425 
Q 3525 4100 3525 3541 
Q 3525 3141 3298 2862 
Q 3072 2584 2669 2484 
Q 3125 2378 3379 2068 
Q 3634 1759 3634 1313 
Q 3634 634 3220 271 
Q 2806 -91 2034 -91 
Q 1263 -91 848 271 
Q 434 634 434 1313 
Q 434 1759 690 2068 
Q 947 2378 1403 2484 
z
M 1172 3481 
Q 1172 3119 1398 2916 
Q 1625 2713 2034 2713 
Q 2441 2713 2670 2916 
Q 2900 3119 2900 3481 
Q 2900 3844 2670 4047 
Q 2441 4250 2034 4250 
Q 1625 4250 1398 4047 
Q 1172 3844 1172 3481 
z
" transform="scale(0.015625)"/>
       </defs>
       <use xlink:href="#DejaVuSans-30"/>
       <use xlink:href="#DejaVuSans-3a" x="63.623047"/>
       <use xlink:href="#DejaVuSans-30" x="97.314453"/>
       <use xlink:href="#DejaVuSans-34" x="160.9375"/>
       <use xlink:href="#DejaVuSans-3a" x="224.560547"/>
       <use xlink:href="#DejaVuSans-30" x="258.251953"/>
       <use xlink:href="#DejaVuSans-38" x="321.875"/>
      </g>
     </g>
    </g>
    <g id="xtick_10">
     <g id="line2d_10">
      <g>
       <use xlink:href="#m6c95d5ebb4" x="560.423671" y="256.32" style="stroke: #000000; stroke-width: 0.8"/>
      </g>
     </g>
     <g id="text_10">
      <!-- 0:04:39 -->
      <g transform="translate(541.148671 270.918437) scale(0.1 -0.1)">
       <defs>
        <path id="DejaVuSans-39" d="M 703 97 
L 703 672 
Q 941 559 1184 500 
Q 1428 441 1663 441 
Q 2288 441 2617 861 
Q 2947 1281 2994 2138 
Q 2813 1869 2534 1725 
Q 2256 1581 1919 1581 
Q 1219 1581 811 2004 
Q 403 2428 403 3163 
Q 403 3881 828 4315 
Q 1253 4750 1959 4750 
Q 2769 4750 3195 4129 
Q 3622 3509 3622 2328 
Q 3622 1225 3098 567 
Q 2575 -91 1691 -91 
Q 1453 -91 1209 -44 
Q 966 3 703 97 
z
M 1959 2075 
Q 2384 2075 2632 2365 
Q 2881 2656 2881 3163 
Q 2881 3666 2632 3958 
Q 2384 4250 1959 4250 
Q 1534 4250 1286 3958 
Q 1038 3666 1038 3163 
Q 1038 2656 1286 2365 
Q 1534 2075 1959 2075 
z
" transform="scale(0.015625)"/>
       </defs>
       <use xlink:href="#DejaVuSans-30"/>
       <use xlink:href="#DejaVuSans-3a" x="63.623047"/>
       <use xlink:href="#DejaVuSans-30" x="97.314453"/>
       <use xlink:href="#DejaVuSans-34" x="160.9375"/>
       <use xlink:href="#DejaVuSans-3a" x="224.560547"/>
       <use xlink:href="#DejaVuSans-33" x="258.251953"/>
       <use xlink:href="#DejaVuSans-39" x="321.875"/>
      </g>
     </g>
    </g>
    <g id="xtick_11">
     <g id="line2d_11">
      <g>
       <use xlink:href="#m6c95d5ebb4" x="609.874786" y="256.32" style="stroke: #000000; stroke-width: 0.8"/>
      </g>
     </g>
     <g id="text_11">
      <!-- 0:05:10 -->
      <g transform="translate(590.599786 270.918437) scale(0.1 -0.1)">
       <use xlink:href="#DejaVuSans-30"/>
       <use xlink:href="#DejaVuSans-3a" x="63.623047"/>
       <use xlink:href="#DejaVuSans-30" x="97.314453"/>
       <use xlink:href="#DejaVuSans-35" x="160.9375"/>
       <use xlink:href="#DejaVuSans-3a" x="224.560547"/>
       <use xlink:href="#DejaVuSans-31" x="258.251953"/>
       <use xlink:href="#DejaVuSans-30" x="321.875"/>
      </g>
     </g>
    </g>
    <g id="text_12">
     <!-- Time -->
     <g transform="translate(356.766406 284.596563) scale(0.1 -0.1)">
      <defs>
       <path id="DejaVuSans-54" d="M -19 4666 
L 3928 4666 
L 3928 4134 
L 2272 4134 
L 2272 0 
L 1638 0 
L 1638 4134 
L -19 4134 
L -19 4666 
z
" transform="scale(0.015625)"/>
       <path id="DejaVuSans-69" d="M 603 3500 
L 1178 3500 
L 1178 0 
L 603 0 
L 603 3500 
z
M 603 4863 
L 1178 4863 
L 1178 4134 
L 603 4134 
L 603 4863 
z
" transform="scale(0.015625)"/>
       <path id="DejaVuSans-6d" d="M 3328 2828 
Q 3544 3216 3844 3400 
Q 4144 3584 4550 3584 
Q 5097 3584 5394 3201 
Q 5691 2819 5691 2113 
L 5691 0 
L 5113 0 
L 5113 2094 
Q 5113 2597 4934 2840 
Q 4756 3084 4391 3084 
Q 3944 3084 3684 2787 
Q 3425 2491 3425 1978 
L 3425 0 
L 2847 0 
L 2847 2094 
Q 2847 2600 2669 2842 
Q 2491 3084 2119 3084 
Q 1678 3084 1418 2786 
Q 1159 2488 1159 1978 
L 1159 0 
L 581 0 
L 581 3500 
L 1159 3500 
L 1159 2956 
Q 1356 3278 1631 3431 
Q 1906 3584 2284 3584 
Q 2666 3584 2933 3390 
Q 3200 3197 3328 2828 
z
" transform="scale(0.015625)"/>
       <path id="DejaVuSans-65" d="M 3597 1894 
L 3597 1613 
L 953 1613 
Q 991 1019 1311 708 
Q 1631 397 2203 397 
Q 2534 397 2845 478 
Q 3156 559 3463 722 
L 3463 178 
Q 3153 47 2828 -22 
Q 2503 -91 2169 -91 
Q 1331 -91 842 396 
Q 353 884 353 1716 
Q 353 2575 817 3079 
Q 1281 3584 2069 3584 
Q 2775 3584 3186 3129 
Q 3597 2675 3597 1894 
z
M 3022 2063 
Q 3016 2534 2758 2815 
Q 2500 3097 2075 3097 
Q 1594 3097 1305 2825 
Q 1016 2553 972 2059 
L 3022 2063 
z
" transform="scale(0.015625)"/>
      </defs>
      <use xlink:href="#DejaVuSans-54"/>
      <use xlink:href="#DejaVuSans-69" x="57.958984"/>
      <use xlink:href="#DejaVuSans-6d" x="85.742188"/>
      <use xlink:href="#DejaVuSans-65" x="183.154297"/>
     </g>
    </g>
   </g>
   <g id="matplotlib.axis_2">
    <g id="ytick_1">
     <g id="line2d_12">
      <path d="M 90 246.24 
L 648 246.24 
" clip-path="url(#pb6a745ee6c)" style="fill: none; stroke: #b0b0b0; stroke-width: 0.8; stroke-linecap: square"/>
     </g>
     <g id="line2d_13">
      <defs>
       <path id="m8523cf21dc" d="M 0 0 
L -3.5 0 
" style="stroke: #000000; stroke-width: 0.8"/>
      </defs>
      <g>
       <use xlink:href="#m8523cf21dc" x="90" y="246.24" style="stroke: #000000; stroke-width: 0.8"/>
      </g>
     </g>
     <g id="text_13">
      <!-- 0 -->
      <g transform="translate(76.6375 250.039219) scale(0.1 -0.1)">
       <use xlink:href="#DejaVuSans-30"/>
      </g>
     </g>
    </g>
    <g id="ytick_2">
     <g id="line2d_14">
      <path d="M 90 212.997358 
L 648 212.997358 
" clip-path="url(#pb6a745ee6c)" style="fill: none; stroke: #b0b0b0; stroke-width: 0.8; stroke-linecap: square"/>
     </g>
     <g id="line2d_15">
      <g>
       <use xlink:href="#m8523cf21dc" x="90" y="212.997358" style="stroke: #000000; stroke-width: 0.8"/>
      </g>
     </g>
     <g id="text_14">
      <!-- 2,000 -->
      <g transform="translate(54.371875 216.796577) scale(0.1 -0.1)">
       <defs>
        <path id="DejaVuSans-2c" d="M 750 794 
L 1409 794 
L 1409 256 
L 897 -744 
L 494 -744 
L 750 256 
L 750 794 
z
" transform="scale(0.015625)"/>
       </defs>
       <use xlink:href="#DejaVuSans-32"/>
       <use xlink:href="#DejaVuSans-2c" x="63.623047"/>
       <use xlink:href="#DejaVuSans-30" x="95.410156"/>
       <use xlink:href="#DejaVuSans-30" x="159.033203"/>
       <use xlink:href="#DejaVuSans-30" x="222.65625"/>
      </g>
     </g>
    </g>
    <g id="ytick_3">
     <g id="line2d_16">
      <path d="M 90 179.754717 
L 648 179.754717 
" clip-path="url(#pb6a745ee6c)" style="fill: none; stroke: #b0b0b0; stroke-width: 0.8; stroke-linecap: square"/>
     </g>
     <g id="line2d_17">
      <g>
       <use xlink:href="#m8523cf21dc" x="90" y="179.754717" style="stroke: #000000; stroke-width: 0.8"/>
      </g>
     </g>
     <g id="text_15">
      <!-- 4,000 -->
      <g transform="translate(54.371875 183.553936) scale(0.1 -0.1)">
       <use xlink:href="#DejaVuSans-34"/>
       <use xlink:href="#DejaVuSans-2c" x="63.623047"/>
       <use xlink:href="#DejaVuSans-30" x="95.410156"/>
       <use xlink:href="#DejaVuSans-30" x="159.033203"/>
       <use xlink:href="#DejaVuSans-30" x="222.65625"/>
      </g>
     </g>
    </g>
    <g id="ytick_4">
     <g id="line2d_18">
      <path d="M 90 146.512075 
L 648 146.512075 
" clip-path="url(#pb6a745ee6c)" style="fill: none; stroke: #b0b0b0; stroke-width: 0.8; stroke-linecap: square"/>
     </g>
     <g id="line2d_19">
      <g>
       <use xlink:href="#m8523cf21dc" x="90" y="146.512075" style="stroke: #000000; stroke-width: 0.8"/>
      </g>
     </g>
     <g id="text_16">
      <!-- 6,000 -->
      <g transform="translate(54.371875 150.311294) scale(0.1 -0.1)">
       <use xlink:href="#DejaVuSans-36"/>
       <use xlink:href="#DejaVuSans-2c" x="63.623047"/>
       <use xlink:href="#DejaVuSans-30" x="95.410156"/>
       <use xlink:href="#DejaVuSans-30" x="159.033203"/>
       <use xlink:href="#DejaVuSans-30" x="222.65625"/>
      </g>
     </g>
    </g>
    <g id="ytick_5">
     <g id="line2d_20">
      <path d="M 90 113.269434 
L 648 113.269434 
" clip-path="url(#pb6a745ee6c)" style="fill: none; stroke: #b0b0b0; stroke-width: 0.8; stroke-linecap: square"/>
     </g>
     <g id="line2d_21">
      <g>
       <use xlink:href="#m8523cf21dc" x="90" y="113.269434" style="stroke: #000000; stroke-width: 0.8"/>
      </g>
     </g>
     <g id="text_17">
      <!-- 8,000 -->
      <g transform="translate(54.371875 117.068652) scale(0.1 -0.1)">
       <use xlink:href="#DejaVuSans-38"/>
       <use xlink:href="#DejaVuSans-2c" x="63.623047"/>
       <use xlink:href="#DejaVuSans-30" x="95.410156"/>
       <use xlink:href="#DejaVuSans-30" x="159.033203"/>
       <use xlink:href="#DejaVuSans-30" x="222.65625"/>
      </g>
     </g>
    </g>
    <g id="ytick_6">
     <g id="line2d_22">
      <path d="M 90 80.026792 
L 648 80.026792 
" clip-path="url(#pb6a745ee6c)" style="fill: none; stroke: #b0b0b0; stroke-width: 0.8; stroke-linecap: square"/>
     </g>
     <g id="line2d_23">
      <g>
       <use xlink:href="#m8523cf21dc" x="90" y="80.026792" style="stroke: #000000; stroke-width: 0.8"/>
      </g>
     </g>
     <g id="text_18">
      <!-- 10,000 -->
      <g transform="translate(48.009375 83.826011) scale(0.1 -0.1)">
       <use xlink:href="#DejaVuSans-31"/>
       <use xlink:href="#DejaVuSans-30" x="63.623047"/>
       <use xlink:href="#DejaVuSans-2c" x="127.246094"/>
       <use xlink:href="#DejaVuSans-30" x="159.033203"/>
       <use xlink:href="#DejaVuSans-30" x="222.65625"/>
       <use xlink:href="#DejaVuSans-30" x="286.279297"/>
      </g>
     </g>
    </g>
    <g id="ytick_7">
     <g id="line2d_24">
      <path d="M 90 46.78415 
L 648 46.78415 
" clip-path="url(#pb6a745ee6c)" style="fill: none; stroke: #b0b0b0; stroke-width: 0.8; stroke-linecap: square"/>
     </g>
     <g id="line2d_25">
      <g>
       <use xlink:href="#m8523cf21dc" x="90" y="46.78415" style="stroke: #000000; stroke-width: 0.8"/>
      </g>
     </g>
     <g id="text_19">
      <!-- 12,000 -->
      <g transform="translate(48.009375 50.583369) scale(0.1 -0.1)">
       <use xlink:href="#DejaVuSans-31"/>
       <use xlink:href="#DejaVuSans-32" x="63.623047"/>
       <use xlink:href="#DejaVuSans-2c" x="127.246094"/>
       <use xlink:href="#DejaVuSans-30" x="159.033203"/>
       <use xlink:href="#DejaVuSans-30" x="222.65625"/>
       <use xlink:href="#DejaVuSans-30" x="286.279297"/>
      </g>
     </g>
    </g>
    <g id="text_20">
     <!-- Bitrate (kbit/s) -->
     <g transform="translate(41.929688 181.574375) rotate(-90) scale(0.1 -0.1)">
      <defs>
       <path id="DejaVuSans-42" d="M 1259 2228 
L 1259 519 
L 2272 519 
Q 2781 519 3026 730 
Q 3272 941 3272 1375 
Q 3272 1813 3026 2020 
Q 2781 2228 2272 2228 
L 1259 2228 
z
M 1259 4147 
L 1259 2741 
L 2194 2741 
Q 2656 2741 2882 2914 
Q 3109 3088 3109 3444 
Q 3109 3797 2882 3972 
Q 2656 4147 2194 4147 
L 1259 4147 
z
M 628 4666 
L 2241 4666 
Q 2963 4666 3353 4366 
Q 3744 4066 3744 3513 
Q 3744 3084 3544 2831 
Q 3344 2578 2956 2516 
Q 3422 2416 3680 2098 
Q 3938 1781 3938 1306 
Q 3938 681 3513 340 
Q 3088 0 2303 0 
L 628 0 
L 628 4666 
z
" transform="scale(0.015625)"/>
       <path id="DejaVuSans-74" d="M 1172 4494 
L 1172 3500 
L 2356 3500 
L 2356 3053 
L 1172 3053 
L 1172 1153 
Q 1172 725 1289 603 
Q 1406 481 1766 481 
L 2356 481 
L 2356 0 
L 1766 0 
Q 1100 0 847 248 
Q 594 497 594 1153 
L 594 3053 
L 172 3053 
L 172 3500 
L 594 3500 
L 594 4494 
L 1172 4494 
z
" transform="scale(0.015625)"/>
       <path id="DejaVuSans-72" d="M 2631 2963 
Q 2534 3019 2420 3045 
Q 2306 3072 2169 3072 
Q 1681 3072 1420 2755 
Q 1159 2438 1159 1844 
L 1159 0 
L 581 0 
L 581 3500 
L 1159 3500 
L 1159 2956 
Q 1341 3275 1631 3429 
Q 1922 3584 2338 3584 
Q 2397 3584 2469 3576 
Q 2541 3569 2628 3553 
L 2631 2963 
z
" transform="scale(0.015625)"/>
       <path id="DejaVuSans-61" d="M 2194 1759 
Q 1497 1759 1228 1600 
Q 959 1441 959 1056 
Q 959 750 1161 570 
Q 1363 391 1709 391 
Q 2188 391 2477 730 
Q 2766 1069 2766 1631 
L 2766 1759 
L 2194 1759 
z
M 3341 1997 
L 3341 0 
L 2766 0 
L 2766 531 
Q 2569 213 2275 61 
Q 1981 -91 1556 -91 
Q 1019 -91 701 211 
Q 384 513 384 1019 
Q 384 1609 779 1909 
Q 1175 2209 1959 2209 
L 2766 2209 
L 2766 2266 
Q 2766 2663 2505 2880 
Q 2244 3097 1772 3097 
Q 1472 3097 1187 3025 
Q 903 2953 641 2809 
L 641 3341 
Q 956 3463 1253 3523 
Q 1550 3584 1831 3584 
Q 2591 3584 2966 3190 
Q 3341 2797 3341 1997 
z
" transform="scale(0.015625)"/>
       <path id="DejaVuSans-20" transform="scale(0.015625)"/>
       <path id="DejaVuSans-28" d="M 1984 4856 
Q 1566 4138 1362 3434 
Q 1159 2731 1159 2009 
Q 1159 1288 1364 580 
Q 1569 -128 1984 -844 
L 1484 -844 
Q 1016 -109 783 600 
Q 550 1309 550 2009 
Q 550 2706 781 3412 
Q 1013 4119 1484 4856 
L 1984 4856 
z
" transform="scale(0.015625)"/>
       <path id="DejaVuSans-6b" d="M 581 4863 
L 1159 4863 
L 1159 1991 
L 2875 3500 
L 3609 3500 
L 1753 1863 
L 3688 0 
L 2938 0 
L 1159 1709 
L 1159 0 
L 581 0 
L 581 4863 
z
" transform="scale(0.015625)"/>
       <path id="DejaVuSans-62" d="M 3116 1747 
Q 3116 2381 2855 2742 
Q 2594 3103 2138 3103 
Q 1681 3103 1420 2742 
Q 1159 2381 1159 1747 
Q 1159 1113 1420 752 
Q 1681 391 2138 391 
Q 2594 391 2855 752 
Q 3116 1113 3116 1747 
z
M 1159 2969 
Q 1341 3281 1617 3432 
Q 1894 3584 2278 3584 
Q 2916 3584 3314 3078 
Q 3713 2572 3713 1747 
Q 3713 922 3314 415 
Q 2916 -91 2278 -91 
Q 1894 -91 1617 61 
Q 1341 213 1159 525 
L 1159 0 
L 581 0 
L 581 4863 
L 1159 4863 
L 1159 2969 
z
" transform="scale(0.015625)"/>
       <path id="DejaVuSans-2f" d="M 1625 4666 
L 2156 4666 
L 531 -594 
L 0 -594 
L 1625 4666 
z
" transform="scale(0.015625)"/>
       <path id="DejaVuSans-73" d="M 2834 3397 
L 2834 2853 
Q 2591 2978 2328 3040 
Q 2066 3103 1784 3103 
Q 1356 3103 1142 2972 
Q 928 2841 928 2578 
Q 928 2378 1081 2264 
Q 1234 2150 1697 2047 
L 1894 2003 
Q 2506 1872 2764 1633 
Q 3022 1394 3022 966 
Q 3022 478 2636 193 
Q 2250 -91 1575 -91 
Q 1294 -91 989 -36 
Q 684 19 347 128 
L 347 722 
Q 666 556 975 473 
Q 1284 391 1588 391 
Q 1994 391 2212 530 
Q 2431 669 2431 922 
Q 2431 1156 2273 1281 
Q 2116 1406 1581 1522 
L 1381 1569 
Q 847 1681 609 1914 
Q 372 2147 372 2553 
Q 372 3047 722 3315 
Q 1072 3584 1716 3584 
Q 2034 3584 2315 3537 
Q 2597 3491 2834 3397 
z
" transform="scale(0.015625)"/>
       <path id="DejaVuSans-29" d="M 513 4856 
L 1013 4856 
Q 1481 4119 1714 3412 
Q 1947 2706 1947 2009 
Q 1947 1309 1714 600 
Q 1481 -109 1013 -844 
L 513 -844 
Q 928 -128 1133 580 
Q 1338 1288 1338 2009 
Q 1338 2731 1133 3434 
Q 928 4138 513 4856 
z
" transform="scale(0.015625)"/>
      </defs>
      <use xlink:href="#DejaVuSans-42"/>
      <use xlink:href="#DejaVuSans-69" x="68.603516"/>
      <use xlink:href="#DejaVuSans-74" x="96.386719"/>
      <use xlink:href="#DejaVuSans-72" x="135.595703"/>
      <use xlink:href="#DejaVuSans-61" x="176.708984"/>
      <use xlink:href="#DejaVuSans-74" x="237.988281"/>
      <use xlink:href="#DejaVuSans-65" x="277.197266"/>
      <use xlink:href="#DejaVuSans-20" x="338.720703"/>
      <use xlink:href="#DejaVuSans-28" x="370.507812"/>
      <use xlink:href="#DejaVuSans-6b" x="409.521484"/>
      <use xlink:href="#DejaVuSans-62" x="467.431641"/>
      <use xlink:href="#DejaVuSans-69" x="530.908203"/>
      <use xlink:href="#DejaVuSans-74" x="558.691406"/>
      <use xlink:href="#DejaVuSans-2f" x="597.900391"/>
      <use xlink:href="#DejaVuSans-73" x="631.591797"/>
      <use xlink:href="#DejaVuSans-29" x="683.691406"/>
     </g>
    </g>
   </g>
   <g id="PolyCollection_1">
    <defs>
     <path id="mb98549e2d4" d="M 115.363636 -50.153767 
L 115.363636 -41.76 
L 116.958834 -41.76 
L 118.554031 -41.76 
L 120.149228 -41.76 
L 121.744425 -41.76 
L 123.339623 -41.76 
L 124.93482 -41.76 
L 126.530017 -41.76 
L 128.125214 -41.76 
L 129.720412 -41.76 
L 131.315609 -41.76 
L 132.910806 -41.76 
L 134.506003 -41.76 
L 136.101201 -41.76 
L 137.696398 -41.76 
L 139.291595 -41.76 
L 140.886792 -41.76 
L 142.48199 -41.76 
L 144.077187 -41.76 
L 145.672384 -41.76 
L 147.267581 -41.76 
L 148.862779 -41.76 
L 150.457976 -41.76 
L 152.053173 -41.76 
L 153.64837 -41.76 
L 155.243568 -41.76 
L 156.838765 -41.76 
L 158.433962 -41.76 
L 160.02916 -41.76 
L 161.624357 -41.76 
L 163.219554 -41.76 
L 164.814751 -41.76 
L 166.409949 -41.76 
L 168.005146 -41.76 
L 169.600343 -41.76 
L 171.19554 -41.76 
L 172.790738 -41.76 
L 174.385935 -41.76 
L 175.981132 -41.76 
L 177.576329 -41.76 
L 179.171527 -41.76 
L 180.766724 -41.76 
L 182.361921 -41.76 
L 183.957118 -41.76 
L 185.552316 -41.76 
L 187.147513 -41.76 
L 188.74271 -41.76 
L 190.337907 -41.76 
L 191.933105 -41.76 
L 193.528302 -41.76 
L 195.123499 -41.76 
L 196.718696 -41.76 
L 198.313894 -41.76 
L 199.909091 -41.76 
L 201.504288 -41.76 
L 203.099485 -41.76 
L 204.694683 -41.76 
L 206.28988 -41.76 
L 207.885077 -41.76 
L 209.480274 -41.76 
L 211.075472 -41.76 
L 212.670669 -41.76 
L 214.265866 -41.76 
L 215.861063 -41.76 
L 217.456261 -41.76 
L 219.051458 -41.76 
L 220.646655 -41.76 
L 222.241852 -41.76 
L 223.83705 -41.76 
L 225.432247 -41.76 
L 227.027444 -41.76 
L 228.622642 -41.76 
L 230.217839 -41.76 
L 231.813036 -41.76 
L 233.408233 -41.76 
L 235.003431 -41.76 
L 236.598628 -41.76 
L 238.193825 -41.76 
L 239.789022 -41.76 
L 241.38422 -41.76 
L 242.979417 -41.76 
L 244.574614 -41.76 
L 246.169811 -41.76 
L 247.765009 -41.76 
L 249.360206 -41.76 
L 250.955403 -41.76 
L 252.5506 -41.76 
L 254.145798 -41.76 
L 255.740995 -41.76 
L 257.336192 -41.76 
L 258.931389 -41.76 
L 260.526587 -41.76 
L 262.121784 -41.76 
L 263.716981 -41.76 
L 265.312178 -41.76 
L 266.907376 -41.76 
L 268.502573 -41.76 
L 270.09777 -41.76 
L 271.692967 -41.76 
L 273.288165 -41.76 
L 274.883362 -41.76 
L 276.478559 -41.76 
L 278.073756 -41.76 
L 279.668954 -41.76 
L 281.264151 -41.76 
L 282.859348 -41.76 
L 284.454545 -41.76 
L 286.049743 -41.76 
L 287.64494 -41.76 
L 289.240137 -41.76 
L 290.835334 -41.76 
L 292.430532 -41.76 
L 294.025729 -41.76 
L 295.620926 -41.76 
L 297.216123 -41.76 
L 298.811321 -41.76 
L 300.406518 -41.76 
L 302.001715 -41.76 
L 303.596913 -41.76 
L 305.19211 -41.76 
L 306.787307 -41.76 
L 308.382504 -41.76 
L 309.977702 -41.76 
L 311.572899 -41.76 
L 313.168096 -41.76 
L 314.763293 -41.76 
L 316.358491 -41.76 
L 317.953688 -41.76 
L 319.548885 -41.76 
L 321.144082 -41.76 
L 322.73928 -41.76 
L 324.334477 -41.76 
L 325.929674 -41.76 
L 327.524871 -41.76 
L 329.120069 -41.76 
L 330.715266 -41.76 
L 332.310463 -41.76 
L 333.90566 -41.76 
L 335.500858 -41.76 
L 337.096055 -41.76 
L 338.691252 -41.76 
L 340.286449 -41.76 
L 341.881647 -41.76 
L 343.476844 -41.76 
L 345.072041 -41.76 
L 346.667238 -41.76 
L 348.262436 -41.76 
L 349.857633 -41.76 
L 351.45283 -41.76 
L 353.048027 -41.76 
L 354.643225 -41.76 
L 356.238422 -41.76 
L 357.833619 -41.76 
L 359.428816 -41.76 
L 361.024014 -41.76 
L 362.619211 -41.76 
L 364.214408 -41.76 
L 365.809605 -41.76 
L 367.404803 -41.76 
L 369 -41.76 
L 370.595197 -41.76 
L 372.190395 -41.76 
L 373.785592 -41.76 
L 375.380789 -41.76 
L 376.975986 -41.76 
L 378.571184 -41.76 
L 380.166381 -41.76 
L 381.761578 -41.76 
L 383.356775 -41.76 
L 384.951973 -41.76 
L 386.54717 -41.76 
L 388.142367 -41.76 
L 389.737564 -41.76 
L 391.332762 -41.76 
L 392.927959 -41.76 
L 394.523156 -41.76 
L 396.118353 -41.76 
L 397.713551 -41.76 
L 399.308748 -41.76 
L 400.903945 -41.76 
L 402.499142 -41.76 
L 404.09434 -41.76 
L 405.689537 -41.76 
L 407.284734 -41.76 
L 408.879931 -41.76 
L 410.475129 -41.76 
L 412.070326 -41.76 
L 413.665523 -41.76 
L 415.26072 -41.76 
L 416.855918 -41.76 
L 418.451115 -41.76 
L 420.046312 -41.76 
L 421.641509 -41.76 
L 423.236707 -41.76 
L 424.831904 -41.76 
L 426.427101 -41.76 
L 428.022298 -41.76 
L 429.617496 -41.76 
L 431.212693 -41.76 
L 432.80789 -41.76 
L 434.403087 -41.76 
L 435.998285 -41.76 
L 437.593482 -41.76 
L 439.188679 -41.76 
L 440.783877 -41.76 
L 442.379074 -41.76 
L 443.974271 -41.76 
L 445.569468 -41.76 
L 447.164666 -41.76 
L 448.759863 -41.76 
L 450.35506 -41.76 
L 451.950257 -41.76 
L 453.545455 -41.76 
L 455.140652 -41.76 
L 456.735849 -41.76 
L 458.331046 -41.76 
L 459.926244 -41.76 
L 461.521441 -41.76 
L 463.116638 -41.76 
L 464.711835 -41.76 
L 466.307033 -41.76 
L 467.90223 -41.76 
L 469.497427 -41.76 
L 471.092624 -41.76 
L 472.687822 -41.76 
L 474.283019 -41.76 
L 475.878216 -41.76 
L 477.473413 -41.76 
L 479.068611 -41.76 
L 480.663808 -41.76 
L 482.259005 -41.76 
L 483.854202 -41.76 
L 485.4494 -41.76 
L 487.044597 -41.76 
L 488.639794 -41.76 
L 490.234991 -41.76 
L 491.830189 -41.76 
L 493.425386 -41.76 
L 495.020583 -41.76 
L 496.61578 -41.76 
L 498.210978 -41.76 
L 499.806175 -41.76 
L 501.401372 -41.76 
L 502.996569 -41.76 
L 504.591767 -41.76 
L 506.186964 -41.76 
L 507.782161 -41.76 
L 509.377358 -41.76 
L 510.972556 -41.76 
L 512.567753 -41.76 
L 514.16295 -41.76 
L 515.758148 -41.76 
L 517.353345 -41.76 
L 518.948542 -41.76 
L 520.543739 -41.76 
L 522.138937 -41.76 
L 523.734134 -41.76 
L 525.329331 -41.76 
L 526.924528 -41.76 
L 528.519726 -41.76 
L 530.114923 -41.76 
L 531.71012 -41.76 
L 533.305317 -41.76 
L 534.900515 -41.76 
L 536.495712 -41.76 
L 538.090909 -41.76 
L 539.686106 -41.76 
L 541.281304 -41.76 
L 542.876501 -41.76 
L 544.471698 -41.76 
L 546.066895 -41.76 
L 547.662093 -41.76 
L 549.25729 -41.76 
L 550.852487 -41.76 
L 552.447684 -41.76 
L 554.042882 -41.76 
L 555.638079 -41.76 
L 557.233276 -41.76 
L 558.828473 -41.76 
L 560.423671 -41.76 
L 562.018868 -41.76 
L 563.614065 -41.76 
L 565.209262 -41.76 
L 566.80446 -41.76 
L 568.399657 -41.76 
L 569.994854 -41.76 
L 571.590051 -41.76 
L 573.185249 -41.76 
L 574.780446 -41.76 
L 576.375643 -41.76 
L 577.97084 -41.76 
L 579.566038 -41.76 
L 581.161235 -41.76 
L 582.756432 -41.76 
L 584.35163 -41.76 
L 585.946827 -41.76 
L 587.542024 -41.76 
L 589.137221 -41.76 
L 590.732419 -41.76 
L 592.327616 -41.76 
L 593.922813 -41.76 
L 595.51801 -41.76 
L 597.113208 -41.76 
L 598.708405 -41.76 
L 600.303602 -41.76 
L 601.898799 -41.76 
L 603.493997 -41.76 
L 605.089194 -41.76 
L 606.684391 -41.76 
L 608.279588 -41.76 
L 609.874786 -41.76 
L 611.469983 -41.76 
L 613.06518 -41.76 
L 614.660377 -41.76 
L 616.255575 -41.76 
L 617.850772 -41.76 
L 619.445969 -41.76 
L 621.041166 -41.76 
L 622.636364 -41.76 
L 622.636364 -41.76 
L 622.636364 -41.76 
L 621.041166 -41.76 
L 619.445969 -41.76 
L 617.850772 -41.76 
L 616.255575 -41.76 
L 614.660377 -41.76 
L 613.06518 -69.018966 
L 611.469983 -41.76 
L 609.874786 -47.461113 
L 608.279588 -41.76 
L 606.684391 -41.76 
L 605.089194 -42.906871 
L 603.493997 -41.76 
L 601.898799 -41.76 
L 600.303602 -41.76 
L 598.708405 -41.76 
L 597.113208 -51.284017 
L 595.51801 -41.76 
L 593.922813 -41.76 
L 592.327616 -55.339619 
L 590.732419 -41.76 
L 589.137221 -41.76 
L 587.542024 -41.76 
L 585.946827 -41.76 
L 584.35163 -79.606747 
L 582.756432 -41.76 
L 581.161235 -41.76 
L 579.566038 -41.76 
L 577.97084 -41.76 
L 576.375643 -41.76 
L 574.780446 -61.157081 
L 573.185249 -41.76 
L 571.590051 -55.871501 
L 569.994854 -41.76 
L 568.399657 -41.76 
L 566.80446 -41.76 
L 565.209262 -41.76 
L 563.614065 -60.658442 
L 562.018868 -41.76 
L 560.423671 -41.76 
L 558.828473 -41.76 
L 557.233276 -51.466851 
L 555.638079 -41.76 
L 554.042882 -60.093317 
L 552.447684 -57.816196 
L 550.852487 -61.173703 
L 549.25729 -41.76 
L 547.662093 -41.76 
L 546.066895 -55.239891 
L 544.471698 -41.76 
L 542.876501 -41.76 
L 541.281304 -86.704051 
L 539.686106 -41.76 
L 538.090909 -41.76 
L 536.495712 -41.76 
L 534.900515 -41.76 
L 533.305317 -58.048894 
L 531.71012 -41.76 
L 530.114923 -55.22327 
L 528.519726 -41.76 
L 526.924528 -41.76 
L 525.329331 -61.589236 
L 523.734134 -41.76 
L 522.138937 -41.76 
L 520.543739 -71.395815 
L 518.948542 -41.76 
L 517.353345 -69.933139 
L 515.758148 -41.76 
L 514.16295 -41.76 
L 512.567753 -71.429058 
L 510.972556 -41.76 
L 509.377358 -75.185476 
L 507.782161 -41.76 
L 506.186964 -41.76 
L 504.591767 -71.013525 
L 502.996569 -41.76 
L 501.401372 -41.76 
L 499.806175 -70.498264 
L 498.210978 -41.76 
L 496.61578 -41.76 
L 495.020583 -41.76 
L 493.425386 -47.527598 
L 491.830189 -41.76 
L 490.234991 -51.94887 
L 488.639794 -41.76 
L 487.044597 -41.76 
L 485.4494 -41.76 
L 483.854202 -41.76 
L 482.259005 -46.031679 
L 480.663808 -41.76 
L 479.068611 -41.76 
L 477.473413 -43.073084 
L 475.878216 -41.76 
L 474.283019 -41.76 
L 472.687822 -41.76 
L 471.092624 -41.76 
L 469.497427 -57.849439 
L 467.90223 -52.115083 
L 466.307033 -41.76 
L 464.711835 -41.76 
L 463.116638 -41.76 
L 461.521441 -41.76 
L 459.926244 -41.76 
L 458.331046 -54.292476 
L 456.735849 -41.76 
L 455.140652 -41.76 
L 453.545455 -41.76 
L 451.950257 -61.938283 
L 450.35506 -41.76 
L 448.759863 -41.76 
L 447.164666 -41.76 
L 445.569468 -41.76 
L 443.974271 -58.763611 
L 442.379074 -41.76 
L 440.783877 -41.76 
L 439.188679 -46.280999 
L 437.593482 -41.76 
L 435.998285 -41.76 
L 434.403087 -63.700143 
L 432.80789 -41.76 
L 431.212693 -41.76 
L 429.617496 -55.190027 
L 428.022298 -41.76 
L 426.427101 -57.799575 
L 424.831904 -60.625199 
L 423.236707 -51.69955 
L 421.641509 -62.586515 
L 420.046312 -41.76 
L 418.451115 -41.76 
L 416.855918 -41.76 
L 415.26072 -41.76 
L 413.665523 -52.846421 
L 412.070326 -41.76 
L 410.475129 -53.145605 
L 408.879931 -41.76 
L 407.284734 -41.76 
L 405.689537 -41.76 
L 404.09434 -41.76 
L 402.499142 -49.488914 
L 400.903945 -41.76 
L 399.308748 -41.76 
L 397.713551 -54.558417 
L 396.118353 -71.32933 
L 394.523156 -41.76 
L 392.927959 -41.76 
L 391.332762 -41.76 
L 389.737564 -41.76 
L 388.142367 -41.76 
L 386.54717 -70.348672 
L 384.951973 -55.239891 
L 383.356775 -41.76 
L 381.761578 -41.76 
L 380.166381 -55.788395 
L 378.571184 -48.890547 
L 376.975986 -41.76 
L 375.380789 -49.18973 
L 373.785592 -50.31998 
L 372.190395 -41.76 
L 370.595197 -41.76 
L 369 -41.76 
L 367.404803 -41.76 
L 365.809605 -41.76 
L 364.214408 -50.585921 
L 362.619211 -56.769053 
L 361.024014 -41.76 
L 359.428816 -41.76 
L 357.833619 -41.76 
L 356.238422 -41.76 
L 354.643225 -50.95159 
L 353.048027 -41.76 
L 351.45283 -41.76 
L 349.857633 -72.725521 
L 348.262436 -41.76 
L 346.667238 -52.08184 
L 345.072041 -41.76 
L 343.476844 -41.76 
L 341.881647 -41.76 
L 340.286449 -41.76 
L 338.691252 -51.749414 
L 337.096055 -41.76 
L 335.500858 -41.76 
L 333.90566 -41.76 
L 332.310463 -49.222973 
L 330.715266 -41.76 
L 329.120069 -41.76 
L 327.524871 -41.76 
L 325.929674 -63.600416 
L 324.334477 -41.76 
L 322.73928 -41.76 
L 321.144082 -41.76 
L 319.548885 -41.76 
L 317.953688 -41.76 
L 316.358491 -51.001454 
L 314.763293 -41.76 
L 313.168096 -52.979392 
L 311.572899 -41.76 
L 309.977702 -41.76 
L 308.382504 -54.026535 
L 306.787307 -41.76 
L 305.19211 -61.024111 
L 303.596913 -41.76 
L 302.001715 -41.76 
L 300.406518 -41.76 
L 298.811321 -41.76 
L 297.216123 -63.317853 
L 295.620926 -41.76 
L 294.025729 -41.76 
L 292.430532 -41.76 
L 290.835334 -41.76 
L 289.240137 -76.398833 
L 287.64494 -41.76 
L 286.049743 -41.76 
L 284.454545 -41.76 
L 282.859348 -41.76 
L 281.264151 -52.630344 
L 279.668954 -41.76 
L 278.073756 -41.76 
L 276.478559 -41.76 
L 274.883362 -78.642711 
L 273.288165 -41.76 
L 271.692967 -41.76 
L 270.09777 -58.447806 
L 268.502573 -41.76 
L 266.907376 -41.76 
L 265.312178 -41.76 
L 263.716981 -71.345951 
L 262.121784 -47.394628 
L 260.526587 -41.76 
L 258.931389 -52.779936 
L 257.336192 -41.76 
L 255.740995 -41.76 
L 254.145798 -41.76 
L 252.5506 -64.16554 
L 250.955403 -41.76 
L 249.360206 -53.444789 
L 247.765009 -41.76 
L 246.169811 -41.76 
L 244.574614 -41.76 
L 242.979417 -41.76 
L 241.38422 -61.605857 
L 239.789022 -41.76 
L 238.193825 -41.76 
L 236.598628 -41.76 
L 235.003431 -41.76 
L 233.408233 -52.015355 
L 231.813036 -41.76 
L 230.217839 -41.76 
L 228.622642 -41.76 
L 227.027444 -41.76 
L 225.432247 -49.173109 
L 223.83705 -41.76 
L 222.241852 -41.76 
L 220.646655 -41.76 
L 219.051458 -55.771773 
L 217.456261 -41.76 
L 215.861063 -41.76 
L 214.265866 -41.76 
L 212.670669 -53.394925 
L 211.075472 -41.76 
L 209.480274 -41.76 
L 207.885077 -41.76 
L 206.28988 -48.3088 
L 204.694683 -41.76 
L 203.099485 -41.76 
L 201.504288 -41.76 
L 199.909091 -41.76 
L 198.313894 -63.367717 
L 196.718696 -41.76 
L 195.123499 -41.76 
L 193.528302 -41.76 
L 191.933105 -41.76 
L 190.337907 -63.716765 
L 188.74271 -41.76 
L 187.147513 -41.76 
L 185.552316 -63.018669 
L 183.957118 -41.76 
L 182.361921 -41.76 
L 180.766724 -48.707712 
L 179.171527 -41.76 
L 177.576329 -41.76 
L 175.981132 -62.387059 
L 174.385935 -56.536354 
L 172.790738 -41.76 
L 171.19554 -41.76 
L 169.600343 -41.76 
L 168.005146 -41.76 
L 166.409949 -57.001751 
L 164.814751 -41.76 
L 163.219554 -41.76 
L 161.624357 -44.469275 
L 160.02916 -55.871501 
L 158.433962 -61.306673 
L 156.838765 -59.361979 
L 155.243568 -59.711026 
L 153.64837 -56.386762 
L 152.053173 -41.76 
L 150.457976 -57.134722 
L 148.862779 -54.874222 
L 147.267581 -41.76 
L 145.672384 -47.477734 
L 144.077187 -41.76 
L 142.48199 -41.76 
L 140.886792 -41.76 
L 139.291595 -41.76 
L 137.696398 -46.945852 
L 136.101201 -41.76 
L 134.506003 -41.76 
L 132.910806 -47.594084 
L 131.315609 -49.422429 
L 129.720412 -41.76 
L 128.125214 -51.367123 
L 126.530017 -49.073381 
L 124.93482 -52.730072 
L 123.339623 -48.076102 
L 121.744425 -41.76 
L 120.149228 -41.76 
L 118.554031 -41.76 
L 116.958834 -41.76 
L 115.363636 -50.153767 
z
" style="stroke: #ff0000; stroke-width: 0.5"/>
    </defs>
    <g clip-path="url(#pb6a745ee6c)">
     <use xlink:href="#mb98549e2d4" x="0" y="288" style="fill: #ff0000; stroke: #ff0000; stroke-width: 0.5"/>
    </g>
   </g>
   <g id="PolyCollection_2">
    <defs>
     <path id="m219ba86496" d="M 115.363636 -52.796557 
L 115.363636 -50.153767 
L 116.958834 -41.76 
L 118.554031 -41.76 
L 120.149228 -41.76 
L 121.744425 -41.76 
L 123.339623 -48.076102 
L 124.93482 -52.730072 
L 126.530017 -49.073381 
L 128.125214 -51.367123 
L 129.720412 -41.76 
L 131.315609 -49.422429 
L 132.910806 -47.594084 
L 134.506003 -41.76 
L 136.101201 -41.76 
L 137.696398 -46.945852 
L 139.291595 -41.76 
L 140.886792 -41.76 
L 142.48199 -41.76 
L 144.077187 -41.76 
L 145.672384 -47.477734 
L 147.267581 -41.76 
L 148.862779 -54.874222 
L 150.457976 -57.134722 
L 152.053173 -41.76 
L 153.64837 -56.386762 
L 155.243568 -59.711026 
L 156.838765 -59.361979 
L 158.433962 -61.306673 
L 160.02916 -55.871501 
L 161.624357 -44.469275 
L 163.219554 -41.76 
L 164.814751 -41.76 
L 166.409949 -57.001751 
L 168.005146 -41.76 
L 169.600343 -41.76 
L 171.19554 -41.76 
L 172.790738 -41.76 
L 174.385935 -56.536354 
L 175.981132 -62.387059 
L 177.576329 -41.76 
L 179.171527 -41.76 
L 180.766724 -48.707712 
L 182.361921 -41.76 
L 183.957118 -41.76 
L 185.552316 -63.018669 
L 187.147513 -41.76 
L 188.74271 -41.76 
L 190.337907 -63.716765 
L 191.933105 -41.76 
L 193.528302 -41.76 
L 195.123499 -41.76 
L 196.718696 -41.76 
L 198.313894 -63.367717 
L 199.909091 -41.76 
L 201.504288 -41.76 
L 203.099485 -41.76 
L 204.694683 -41.76 
L 206.28988 -48.3088 
L 207.885077 -41.76 
L 209.480274 -41.76 
L 211.075472 -41.76 
L 212.670669 -53.394925 
L 214.265866 -41.76 
L 215.861063 -41.76 
L 217.456261 -41.76 
L 219.051458 -55.771773 
L 220.646655 -41.76 
L 222.241852 -41.76 
L 223.83705 -41.76 
L 225.432247 -49.173109 
L 227.027444 -41.76 
L 228.622642 -41.76 
L 230.217839 -41.76 
L 231.813036 -41.76 
L 233.408233 -52.015355 
L 235.003431 -41.76 
L 236.598628 -41.76 
L 238.193825 -41.76 
L 239.789022 -41.76 
L 241.38422 -61.605857 
L 242.979417 -41.76 
L 244.574614 -41.76 
L 246.169811 -41.76 
L 247.765009 -41.76 
L 249.360206 -53.444789 
L 250.955403 -41.76 
L 252.5506 -64.16554 
L 254.145798 -41.76 
L 255.740995 -41.76 
L 257.336192 -41.76 
L 258.931389 -52.779936 
L 260.526587 -41.76 
L 262.121784 -47.394628 
L 263.716981 -71.345951 
L 265.312178 -41.76 
L 266.907376 -41.76 
L 268.502573 -41.76 
L 270.09777 -58.447806 
L 271.692967 -41.76 
L 273.288165 -41.76 
L 274.883362 -78.642711 
L 276.478559 -41.76 
L 278.073756 -41.76 
L 279.668954 -41.76 
L 281.264151 -52.630344 
L 282.859348 -41.76 
L 284.454545 -41.76 
L 286.049743 -41.76 
L 287.64494 -41.76 
L 289.240137 -76.398833 
L 290.835334 -41.76 
L 292.430532 -41.76 
L 294.025729 -41.76 
L 295.620926 -41.76 
L 297.216123 -63.317853 
L 298.811321 -41.76 
L 300.406518 -41.76 
L 302.001715 -41.76 
L 303.596913 -41.76 
L 305.19211 -61.024111 
L 306.787307 -41.76 
L 308.382504 -54.026535 
L 309.977702 -41.76 
L 311.572899 -41.76 
L 313.168096 -52.979392 
L 314.763293 -41.76 
L 316.358491 -51.001454 
L 317.953688 -41.76 
L 319.548885 -41.76 
L 321.144082 -41.76 
L 322.73928 -41.76 
L 324.334477 -41.76 
L 325.929674 -63.600416 
L 327.524871 -41.76 
L 329.120069 -41.76 
L 330.715266 -41.76 
L 332.310463 -49.222973 
L 333.90566 -41.76 
L 335.500858 -41.76 
L 337.096055 -41.76 
L 338.691252 -51.749414 
L 340.286449 -41.76 
L 341.881647 -41.76 
L 343.476844 -41.76 
L 345.072041 -41.76 
L 346.667238 -52.08184 
L 348.262436 -41.76 
L 349.857633 -72.725521 
L 351.45283 -41.76 
L 353.048027 -41.76 
L 354.643225 -50.95159 
L 356.238422 -41.76 
L 357.833619 -41.76 
L 359.428816 -41.76 
L 361.024014 -41.76 
L 362.619211 -56.769053 
L 364.214408 -50.585921 
L 365.809605 -41.76 
L 367.404803 -41.76 
L 369 -41.76 
L 370.595197 -41.76 
L 372.190395 -41.76 
L 373.785592 -50.31998 
L 375.380789 -49.18973 
L 376.975986 -41.76 
L 378.571184 -48.890547 
L 380.166381 -55.788395 
L 381.761578 -41.76 
L 383.356775 -41.76 
L 384.951973 -55.239891 
L 386.54717 -70.348672 
L 388.142367 -41.76 
L 389.737564 -41.76 
L 391.332762 -41.76 
L 392.927959 -41.76 
L 394.523156 -41.76 
L 396.118353 -71.32933 
L 397.713551 -54.558417 
L 399.308748 -41.76 
L 400.903945 -41.76 
L 402.499142 -49.488914 
L 404.09434 -41.76 
L 405.689537 -41.76 
L 407.284734 -41.76 
L 408.879931 -41.76 
L 410.475129 -53.145605 
L 412.070326 -41.76 
L 413.665523 -52.846421 
L 415.26072 -41.76 
L 416.855918 -41.76 
L 418.451115 -41.76 
L 420.046312 -41.76 
L 421.641509 -62.586515 
L 423.236707 -51.69955 
L 424.831904 -60.625199 
L 426.427101 -57.799575 
L 428.022298 -41.76 
L 429.617496 -55.190027 
L 431.212693 -41.76 
L 432.80789 -41.76 
L 434.403087 -63.700143 
L 435.998285 -41.76 
L 437.593482 -41.76 
L 439.188679 -46.280999 
L 440.783877 -41.76 
L 442.379074 -41.76 
L 443.974271 -58.763611 
L 445.569468 -41.76 
L 447.164666 -41.76 
L 448.759863 -41.76 
L 450.35506 -41.76 
L 451.950257 -61.938283 
L 453.545455 -41.76 
L 455.140652 -41.76 
L 456.735849 -41.76 
L 458.331046 -54.292476 
L 459.926244 -41.76 
L 461.521441 -41.76 
L 463.116638 -41.76 
L 464.711835 -41.76 
L 466.307033 -41.76 
L 467.90223 -52.115083 
L 469.497427 -57.849439 
L 471.092624 -41.76 
L 472.687822 -41.76 
L 474.283019 -41.76 
L 475.878216 -41.76 
L 477.473413 -43.073084 
L 479.068611 -41.76 
L 480.663808 -41.76 
L 482.259005 -46.031679 
L 483.854202 -41.76 
L 485.4494 -41.76 
L 487.044597 -41.76 
L 488.639794 -41.76 
L 490.234991 -51.94887 
L 491.830189 -41.76 
L 493.425386 -47.527598 
L 495.020583 -41.76 
L 496.61578 -41.76 
L 498.210978 -41.76 
L 499.806175 -70.498264 
L 501.401372 -41.76 
L 502.996569 -41.76 
L 504.591767 -71.013525 
L 506.186964 -41.76 
L 507.782161 -41.76 
L 509.377358 -75.185476 
L 510.972556 -41.76 
L 512.567753 -71.429058 
L 514.16295 -41.76 
L 515.758148 -41.76 
L 517.353345 -69.933139 
L 518.948542 -41.76 
L 520.543739 -71.395815 
L 522.138937 -41.76 
L 523.734134 -41.76 
L 525.329331 -61.589236 
L 526.924528 -41.76 
L 528.519726 -41.76 
L 530.114923 -55.22327 
L 531.71012 -41.76 
L 533.305317 -58.048894 
L 534.900515 -41.76 
L 536.495712 -41.76 
L 538.090909 -41.76 
L 539.686106 -41.76 
L 541.281304 -86.704051 
L 542.876501 -41.76 
L 544.471698 -41.76 
L 546.066895 -55.239891 
L 547.662093 -41.76 
L 549.25729 -41.76 
L 550.852487 -61.173703 
L 552.447684 -57.816196 
L 554.042882 -60.093317 
L 555.638079 -41.76 
L 557.233276 -51.466851 
L 558.828473 -41.76 
L 560.423671 -41.76 
L 562.018868 -41.76 
L 563.614065 -60.658442 
L 565.209262 -41.76 
L 566.80446 -41.76 
L 568.399657 -41.76 
L 569.994854 -41.76 
L 571.590051 -55.871501 
L 573.185249 -41.76 
L 574.780446 -61.157081 
L 576.375643 -41.76 
L 577.97084 -41.76 
L 579.566038 -41.76 
L 581.161235 -41.76 
L 582.756432 -41.76 
L 584.35163 -79.606747 
L 585.946827 -41.76 
L 587.542024 -41.76 
L 589.137221 -41.76 
L 590.732419 -41.76 
L 592.327616 -55.339619 
L 593.922813 -41.76 
L 595.51801 -41.76 
L 597.113208 -51.284017 
L 598.708405 -41.76 
L 600.303602 -41.76 
L 601.898799 -41.76 
L 603.493997 -41.76 
L 605.089194 -42.906871 
L 606.684391 -41.76 
L 608.279588 -41.76 
L 609.874786 -47.461113 
L 611.469983 -41.76 
L 613.06518 -69.018966 
L 614.660377 -41.76 
L 616.255575 -41.76 
L 617.850772 -41.76 
L 619.445969 -41.76 
L 621.041166 -41.76 
L 622.636364 -41.76 
L 622.636364 -41.776621 
L 622.636364 -41.776621 
L 621.041166 -42.158912 
L 619.445969 -42.14229 
L 617.850772 -42.158912 
L 616.255575 -42.158912 
L 614.660377 -42.175533 
L 613.06518 -74.653594 
L 611.469983 -51.749414 
L 609.874786 -60.093317 
L 608.279588 -46.530319 
L 606.684391 -45.882088 
L 605.089194 -47.378006 
L 603.493997 -49.721613 
L 601.898799 -54.076399 
L 600.303602 -45.898709 
L 598.708405 -45.865466 
L 597.113208 -56.270413 
L 595.51801 -52.231432 
L 593.922813 -51.982112 
L 592.327616 -64.797151 
L 590.732419 -53.527895 
L 589.137221 -54.358961 
L 587.542024 -53.777215 
L 585.946827 -52.480752 
L 584.35163 -93.036775 
L 582.756432 -66.459283 
L 581.161235 -65.511867 
L 579.566038 -63.816493 
L 577.97084 -65.312412 
L 576.375643 -65.54511 
L 574.780446 -98.804373 
L 573.185249 -71.395815 
L 571.590051 -73.85577 
L 569.994854 -80.38795 
L 568.399657 -83.928291 
L 566.80446 -83.961534 
L 565.209262 -78.293663 
L 563.614065 -76.299105 
L 562.018868 -59.395221 
L 560.423671 -58.281593 
L 558.828473 -49.871205 
L 557.233276 -58.364699 
L 555.638079 -46.16465 
L 554.042882 -65.079713 
L 552.447684 -65.628217 
L 550.852487 -67.140757 
L 549.25729 -53.893564 
L 547.662093 -54.957329 
L 546.066895 -78.62609 
L 544.471698 -60.857898 
L 542.876501 -58.331457 
L 541.281304 -104.80467 
L 539.686106 -62.320574 
L 538.090909 -64.049191 
L 536.495712 -68.902617 
L 534.900515 -62.569894 
L 533.305317 -77.861509 
L 531.71012 -44.918051 
L 530.114923 -59.87724 
L 528.519726 -58.813475 
L 526.924528 -58.564155 
L 525.329331 -86.920129 
L 523.734134 -82.14981 
L 522.138937 -89.047658 
L 520.543739 -98.721266 
L 518.948542 -66.991165 
L 517.353345 -99.951244 
L 515.758148 -84.942191 
L 514.16295 -86.637566 
L 512.567753 -118.085105 
L 510.972556 -88.582261 
L 509.377358 -116.63905 
L 507.782161 -93.286094 
L 506.186964 -89.679268 
L 504.591767 -100.798931 
L 502.996569 -75.268583 
L 501.401372 -61.206945 
L 499.806175 -80.122008 
L 498.210978 -49.488914 
L 496.61578 -49.372565 
L 495.020583 -48.541499 
L 493.425386 -55.057057 
L 491.830189 -47.710433 
L 490.234991 -60.226287 
L 488.639794 -50.552679 
L 487.044597 -49.904447 
L 485.4494 -50.203631 
L 483.854202 -51.117804 
L 482.259005 -50.452951 
L 480.663808 -46.779639 
L 479.068611 -46.280999 
L 477.473413 -55.106921 
L 475.878216 -66.559011 
L 474.283019 -59.794133 
L 472.687822 -60.974247 
L 471.092624 -58.132001 
L 469.497427 -66.060371 
L 467.90223 -60.874519 
L 466.307033 -50.502815 
L 464.711835 -53.361682 
L 463.116638 -50.552679 
L 461.521441 -49.023517 
L 459.926244 -48.757576 
L 458.331046 -55.987851 
L 456.735849 -44.801702 
L 455.140652 -45.117507 
L 453.545455 -45.53304 
L 451.950257 -64.680801 
L 450.35506 -44.053742 
L 448.759863 -43.056463 
L 447.164666 -43.588345 
L 445.569468 -44.469275 
L 443.974271 -60.957626 
L 442.379074 -46.646668 
L 440.783877 -47.876646 
L 439.188679 -51.267395 
L 437.593482 -43.555103 
L 435.998285 -44.618867 
L 434.403087 -65.378897 
L 432.80789 -46.580183 
L 431.212693 -47.560841 
L 429.617496 -59.727648 
L 428.022298 -49.788098 
L 426.427101 -66.891437 
L 424.831904 -66.642117 
L 423.236707 -58.913203 
L 421.641509 -67.290349 
L 420.046312 -46.081543 
L 418.451115 -45.882088 
L 416.855918 -45.217235 
L 415.26072 -46.081543 
L 413.665523 -55.406104 
L 412.070326 -45.599525 
L 410.475129 -57.084858 
L 408.879931 -46.364106 
L 407.284734 -46.197893 
L 405.689537 -45.998437 
L 404.09434 -46.497076 
L 402.499142 -51.20091 
L 400.903945 -43.737937 
L 399.308748 -44.65211 
L 397.713551 -55.572318 
L 396.118353 -73.008083 
L 394.523156 -43.937393 
L 392.927959 -43.355647 
L 391.332762 -43.821044 
L 389.737564 -44.519139 
L 388.142367 -44.15347 
L 386.54717 -74.769943 
L 384.951973 -60.026832 
L 383.356775 -46.829503 
L 381.761578 -46.613426 
L 380.166381 -60.109938 
L 378.571184 -54.641524 
L 376.975986 -46.995716 
L 375.380789 -52.979392 
L 373.785592 -54.142884 
L 372.190395 -45.865466 
L 370.595197 -45.91533 
L 369 -46.613426 
L 367.404803 -46.015058 
L 365.809605 -45.233856 
L 364.214408 -54.026535 
L 362.619211 -60.824655 
L 361.024014 -44.951294 
L 359.428816 -44.918051 
L 357.833619 -45.167371 
L 356.238422 -45.167371 
L 354.643225 -52.646965 
L 353.048027 -44.120228 
L 351.45283 -44.186713 
L 349.857633 -74.520623 
L 348.262436 -44.90143 
L 346.667238 -56.702567 
L 345.072041 -46.347485 
L 343.476844 -45.599525 
L 341.881647 -45.965194 
L 340.286449 -47.2949 
L 338.691252 -57.417284 
L 337.096055 -49.970932 
L 335.500858 -48.973653 
L 333.90566 -48.973653 
L 332.310463 -55.738531 
L 330.715266 -48.774197 
L 329.120069 -49.006896 
L 327.524871 -47.843403 
L 325.929674 -67.971823 
L 324.334477 -47.128687 
L 322.73928 -47.062201 
L 321.144082 -46.929231 
L 319.548885 -49.422429 
L 317.953688 -46.895988 
L 316.358491 -53.59438 
L 314.763293 -45.449933 
L 313.168096 -54.624902 
L 311.572899 -44.801702 
L 309.977702 -45.848845 
L 308.382504 -57.683225 
L 306.787307 -46.646668 
L 305.19211 -64.880257 
L 303.596913 -45.300341 
L 302.001715 -43.870908 
L 300.406518 -43.638209 
L 298.811321 -44.436033 
L 297.216123 -67.157378 
L 295.620926 -45.516419 
L 294.025729 -45.798981 
L 292.430532 -45.366827 
L 290.835334 -44.120228 
L 289.240137 -79.074865 
L 287.64494 -44.967915 
L 286.049743 -44.851566 
L 284.454545 -44.934672 
L 282.859348 -44.967915 
L 281.264151 -55.073678 
L 279.668954 -45.616146 
L 278.073756 -46.098165 
L 276.478559 -45.0344 
L 274.883362 -84.67625 
L 273.288165 -48.142587 
L 271.692967 -49.006896 
L 270.09777 -63.583794 
L 268.502573 -44.40279 
L 266.907376 -44.452654 
L 265.312178 -44.086985 
L 263.716981 -75.085748 
L 262.121784 -57.034994 
L 260.526587 -51.184289 
L 258.931389 -61.14046 
L 257.336192 -45.366827 
L 255.740995 -45.749117 
L 254.145798 -44.851566 
L 252.5506 -65.977264 
L 250.955403 -43.854286 
L 249.360206 -56.436626 
L 247.765009 -43.754558 
L 246.169811 -43.870908 
L 244.574614 -45.483176 
L 242.979417 -45.965194 
L 241.38422 -63.816493 
L 239.789022 -44.685352 
L 238.193825 -45.316963 
L 236.598628 -43.970636 
L 235.003431 -43.405511 
L 233.408233 -54.192748 
L 231.813036 -45.217235 
L 230.217839 -43.754558 
L 228.622642 -44.336305 
L 227.027444 -46.015058 
L 225.432247 -53.394925 
L 223.83705 -44.90143 
L 222.241852 -45.0344 
L 220.646655 -45.632768 
L 219.051458 -57.550255 
L 217.456261 -44.735216 
L 215.861063 -46.530319 
L 214.265866 -46.048301 
L 212.670669 -60.026832 
L 211.075472 -49.43905 
L 209.480274 -49.538778 
L 207.885077 -49.43905 
L 206.28988 -55.239891 
L 204.694683 -48.973653 
L 203.099485 -49.173109 
L 201.504288 -49.372565 
L 199.909091 -49.006896 
L 198.313894 -65.245926 
L 196.718696 -43.505239 
L 195.123499 -43.638209 
L 193.528302 -43.754558 
L 191.933105 -43.422132 
L 190.337907 -64.896879 
L 188.74271 -43.621588 
L 187.147513 -43.255919 
L 185.552316 -64.331754 
L 183.957118 -44.485897 
L 182.361921 -46.081543 
L 180.766724 -50.652407 
L 179.171527 -44.602246 
L 177.576329 -45.134128 
L 175.981132 -63.949463 
L 174.385935 -58.132001 
L 172.790738 -43.854286 
L 171.19554 -43.621588 
L 169.600343 -44.037121 
L 168.005146 -44.236577 
L 166.409949 -58.547534 
L 164.814751 -46.031679 
L 163.219554 -50.851862 
L 161.624357 -56.170685 
L 160.02916 -59.87724 
L 158.433962 -65.329033 
L 156.838765 -64.315132 
L 155.243568 -68.81951 
L 153.64837 -60.126559 
L 152.053173 -45.682632 
L 150.457976 -60.824655 
L 148.862779 -63.334474 
L 147.267581 -59.079416 
L 145.672384 -61.805313 
L 144.077187 -55.85488 
L 142.48199 -54.159505 
L 140.886792 -55.040435 
L 139.291595 -57.99903 
L 137.696398 -62.686243 
L 136.101201 -55.672046 
L 134.506003 -55.22327 
L 132.910806 -57.716468 
L 131.315609 -58.846718 
L 129.720412 -51.682929 
L 128.125214 -62.204225 
L 126.530017 -62.669622 
L 124.93482 -59.594677 
L 123.339623 -53.577759 
L 121.744425 -44.701974 
L 120.149228 -43.688073 
L 118.554031 -43.937393 
L 116.958834 -44.951294 
L 115.363636 -52.796557 
z
" style="stroke: #0000ff; stroke-width: 0.5"/>
    </defs>
    <g clip-path="url(#pb6a745ee6c)">
     <use xlink:href="#m219ba86496" x="0" y="288" style="fill: #0000ff; stroke: #0000ff; stroke-width: 0.5"/>
    </g>
   </g>
   <g id="PolyCollection_3">
    <defs>
     <path id="mbf95c0c05b" d="M 115.363636 -59.3786 
L 115.363636 -52.796557 
L 116.958834 -44.951294 
L 118.554031 -43.937393 
L 120.149228 -43.688073 
L 121.744425 -44.701974 
L 123.339623 -53.577759 
L 124.93482 -59.594677 
L 126.530017 -62.669622 
L 128.125214 -62.204225 
L 129.720412 -51.682929 
L 131.315609 -58.846718 
L 132.910806 -57.716468 
L 134.506003 -55.22327 
L 136.101201 -55.672046 
L 137.696398 -62.686243 
L 139.291595 -57.99903 
L 140.886792 -55.040435 
L 142.48199 -54.159505 
L 144.077187 -55.85488 
L 145.672384 -61.805313 
L 147.267581 -59.079416 
L 148.862779 -63.334474 
L 150.457976 -60.824655 
L 152.053173 -45.682632 
L 153.64837 -60.126559 
L 155.243568 -68.81951 
L 156.838765 -64.315132 
L 158.433962 -65.329033 
L 160.02916 -59.87724 
L 161.624357 -56.170685 
L 163.219554 -50.851862 
L 164.814751 -46.031679 
L 166.409949 -58.547534 
L 168.005146 -44.236577 
L 169.600343 -44.037121 
L 171.19554 -43.621588 
L 172.790738 -43.854286 
L 174.385935 -58.132001 
L 175.981132 -63.949463 
L 177.576329 -45.134128 
L 179.171527 -44.602246 
L 180.766724 -50.652407 
L 182.361921 -46.081543 
L 183.957118 -44.485897 
L 185.552316 -64.331754 
L 187.147513 -43.255919 
L 188.74271 -43.621588 
L 190.337907 -64.896879 
L 191.933105 -43.422132 
L 193.528302 -43.754558 
L 195.123499 -43.638209 
L 196.718696 -43.505239 
L 198.313894 -65.245926 
L 199.909091 -49.006896 
L 201.504288 -49.372565 
L 203.099485 -49.173109 
L 204.694683 -48.973653 
L 206.28988 -55.239891 
L 207.885077 -49.43905 
L 209.480274 -49.538778 
L 211.075472 -49.43905 
L 212.670669 -60.026832 
L 214.265866 -46.048301 
L 215.861063 -46.530319 
L 217.456261 -44.735216 
L 219.051458 -57.550255 
L 220.646655 -45.632768 
L 222.241852 -45.0344 
L 223.83705 -44.90143 
L 225.432247 -53.394925 
L 227.027444 -46.015058 
L 228.622642 -44.336305 
L 230.217839 -43.754558 
L 231.813036 -45.217235 
L 233.408233 -54.192748 
L 235.003431 -43.405511 
L 236.598628 -43.970636 
L 238.193825 -45.316963 
L 239.789022 -44.685352 
L 241.38422 -63.816493 
L 242.979417 -45.965194 
L 244.574614 -45.483176 
L 246.169811 -43.870908 
L 247.765009 -43.754558 
L 249.360206 -56.436626 
L 250.955403 -43.854286 
L 252.5506 -65.977264 
L 254.145798 -44.851566 
L 255.740995 -45.749117 
L 257.336192 -45.366827 
L 258.931389 -61.14046 
L 260.526587 -51.184289 
L 262.121784 -57.034994 
L 263.716981 -75.085748 
L 265.312178 -44.086985 
L 266.907376 -44.452654 
L 268.502573 -44.40279 
L 270.09777 -63.583794 
L 271.692967 -49.006896 
L 273.288165 -48.142587 
L 274.883362 -84.67625 
L 276.478559 -45.0344 
L 278.073756 -46.098165 
L 279.668954 -45.616146 
L 281.264151 -55.073678 
L 282.859348 -44.967915 
L 284.454545 -44.934672 
L 286.049743 -44.851566 
L 287.64494 -44.967915 
L 289.240137 -79.074865 
L 290.835334 -44.120228 
L 292.430532 -45.366827 
L 294.025729 -45.798981 
L 295.620926 -45.516419 
L 297.216123 -67.157378 
L 298.811321 -44.436033 
L 300.406518 -43.638209 
L 302.001715 -43.870908 
L 303.596913 -45.300341 
L 305.19211 -64.880257 
L 306.787307 -46.646668 
L 308.382504 -57.683225 
L 309.977702 -45.848845 
L 311.572899 -44.801702 
L 313.168096 -54.624902 
L 314.763293 -45.449933 
L 316.358491 -53.59438 
L 317.953688 -46.895988 
L 319.548885 -49.422429 
L 321.144082 -46.929231 
L 322.73928 -47.062201 
L 324.334477 -47.128687 
L 325.929674 -67.971823 
L 327.524871 -47.843403 
L 329.120069 -49.006896 
L 330.715266 -48.774197 
L 332.310463 -55.738531 
L 333.90566 -48.973653 
L 335.500858 -48.973653 
L 337.096055 -49.970932 
L 338.691252 -57.417284 
L 340.286449 -47.2949 
L 341.881647 -45.965194 
L 343.476844 -45.599525 
L 345.072041 -46.347485 
L 346.667238 -56.702567 
L 348.262436 -44.90143 
L 349.857633 -74.520623 
L 351.45283 -44.186713 
L 353.048027 -44.120228 
L 354.643225 -52.646965 
L 356.238422 -45.167371 
L 357.833619 -45.167371 
L 359.428816 -44.918051 
L 361.024014 -44.951294 
L 362.619211 -60.824655 
L 364.214408 -54.026535 
L 365.809605 -45.233856 
L 367.404803 -46.015058 
L 369 -46.613426 
L 370.595197 -45.91533 
L 372.190395 -45.865466 
L 373.785592 -54.142884 
L 375.380789 -52.979392 
L 376.975986 -46.995716 
L 378.571184 -54.641524 
L 380.166381 -60.109938 
L 381.761578 -46.613426 
L 383.356775 -46.829503 
L 384.951973 -60.026832 
L 386.54717 -74.769943 
L 388.142367 -44.15347 
L 389.737564 -44.519139 
L 391.332762 -43.821044 
L 392.927959 -43.355647 
L 394.523156 -43.937393 
L 396.118353 -73.008083 
L 397.713551 -55.572318 
L 399.308748 -44.65211 
L 400.903945 -43.737937 
L 402.499142 -51.20091 
L 404.09434 -46.497076 
L 405.689537 -45.998437 
L 407.284734 -46.197893 
L 408.879931 -46.364106 
L 410.475129 -57.084858 
L 412.070326 -45.599525 
L 413.665523 -55.406104 
L 415.26072 -46.081543 
L 416.855918 -45.217235 
L 418.451115 -45.882088 
L 420.046312 -46.081543 
L 421.641509 -67.290349 
L 423.236707 -58.913203 
L 424.831904 -66.642117 
L 426.427101 -66.891437 
L 428.022298 -49.788098 
L 429.617496 -59.727648 
L 431.212693 -47.560841 
L 432.80789 -46.580183 
L 434.403087 -65.378897 
L 435.998285 -44.618867 
L 437.593482 -43.555103 
L 439.188679 -51.267395 
L 440.783877 -47.876646 
L 442.379074 -46.646668 
L 443.974271 -60.957626 
L 445.569468 -44.469275 
L 447.164666 -43.588345 
L 448.759863 -43.056463 
L 450.35506 -44.053742 
L 451.950257 -64.680801 
L 453.545455 -45.53304 
L 455.140652 -45.117507 
L 456.735849 -44.801702 
L 458.331046 -55.987851 
L 459.926244 -48.757576 
L 461.521441 -49.023517 
L 463.116638 -50.552679 
L 464.711835 -53.361682 
L 466.307033 -50.502815 
L 467.90223 -60.874519 
L 469.497427 -66.060371 
L 471.092624 -58.132001 
L 472.687822 -60.974247 
L 474.283019 -59.794133 
L 475.878216 -66.559011 
L 477.473413 -55.106921 
L 479.068611 -46.280999 
L 480.663808 -46.779639 
L 482.259005 -50.452951 
L 483.854202 -51.117804 
L 485.4494 -50.203631 
L 487.044597 -49.904447 
L 488.639794 -50.552679 
L 490.234991 -60.226287 
L 491.830189 -47.710433 
L 493.425386 -55.057057 
L 495.020583 -48.541499 
L 496.61578 -49.372565 
L 498.210978 -49.488914 
L 499.806175 -80.122008 
L 501.401372 -61.206945 
L 502.996569 -75.268583 
L 504.591767 -100.798931 
L 506.186964 -89.679268 
L 507.782161 -93.286094 
L 509.377358 -116.63905 
L 510.972556 -88.582261 
L 512.567753 -118.085105 
L 514.16295 -86.637566 
L 515.758148 -84.942191 
L 517.353345 -99.951244 
L 518.948542 -66.991165 
L 520.543739 -98.721266 
L 522.138937 -89.047658 
L 523.734134 -82.14981 
L 525.329331 -86.920129 
L 526.924528 -58.564155 
L 528.519726 -58.813475 
L 530.114923 -59.87724 
L 531.71012 -44.918051 
L 533.305317 -77.861509 
L 534.900515 -62.569894 
L 536.495712 -68.902617 
L 538.090909 -64.049191 
L 539.686106 -62.320574 
L 541.281304 -104.80467 
L 542.876501 -58.331457 
L 544.471698 -60.857898 
L 546.066895 -78.62609 
L 547.662093 -54.957329 
L 549.25729 -53.893564 
L 550.852487 -67.140757 
L 552.447684 -65.628217 
L 554.042882 -65.079713 
L 555.638079 -46.16465 
L 557.233276 -58.364699 
L 558.828473 -49.871205 
L 560.423671 -58.281593 
L 562.018868 -59.395221 
L 563.614065 -76.299105 
L 565.209262 -78.293663 
L 566.80446 -83.961534 
L 568.399657 -83.928291 
L 569.994854 -80.38795 
L 571.590051 -73.85577 
L 573.185249 -71.395815 
L 574.780446 -98.804373 
L 576.375643 -65.54511 
L 577.97084 -65.312412 
L 579.566038 -63.816493 
L 581.161235 -65.511867 
L 582.756432 -66.459283 
L 584.35163 -93.036775 
L 585.946827 -52.480752 
L 587.542024 -53.777215 
L 589.137221 -54.358961 
L 590.732419 -53.527895 
L 592.327616 -64.797151 
L 593.922813 -51.982112 
L 595.51801 -52.231432 
L 597.113208 -56.270413 
L 598.708405 -45.865466 
L 600.303602 -45.898709 
L 601.898799 -54.076399 
L 603.493997 -49.721613 
L 605.089194 -47.378006 
L 606.684391 -45.882088 
L 608.279588 -46.530319 
L 609.874786 -60.093317 
L 611.469983 -51.749414 
L 613.06518 -74.653594 
L 614.660377 -42.175533 
L 616.255575 -42.158912 
L 617.850772 -42.158912 
L 619.445969 -42.14229 
L 621.041166 -42.158912 
L 622.636364 -41.776621 
L 622.636364 -41.793243 
L 622.636364 -41.793243 
L 621.041166 -42.424853 
L 619.445969 -42.358368 
L 617.850772 -42.374989 
L 616.255575 -42.374989 
L 614.660377 -42.491338 
L 613.06518 -85.856364 
L 611.469983 -68.57019 
L 609.874786 -79.905931 
L 608.279588 -58.763611 
L 606.684391 -56.087579 
L 605.089194 -58.132001 
L 603.493997 -82.798041 
L 601.898799 -148.502122 
L 600.303602 -180.165738 
L 598.708405 -176.276349 
L 597.113208 -129.570438 
L 595.51801 -94.067297 
L 593.922813 -100.965145 
L 592.327616 -110.47254 
L 590.732419 -106.782607 
L 589.137221 -114.960297 
L 587.542024 -115.957576 
L 585.946827 -100.848795 
L 584.35163 -137.847856 
L 582.756432 -135.171823 
L 581.161235 -136.601256 
L 579.566038 -143.100193 
L 577.97084 -135.504249 
L 576.375643 -133.260371 
L 574.780446 -167.433807 
L 573.185249 -140.141598 
L 571.590051 -151.643552 
L 569.994854 -167.699748 
L 568.399657 -164.525075 
L 566.80446 -166.004373 
L 565.209262 -169.544714 
L 563.614065 -160.968113 
L 562.018868 -113.015602 
L 560.423671 -112.134672 
L 558.828473 -137.332595 
L 557.233276 -102.244986 
L 555.638079 -81.90049 
L 554.042882 -109.541746 
L 552.447684 -100.267049 
L 550.852487 -106.616394 
L 549.25729 -102.178501 
L 547.662093 -105.43628 
L 546.066895 -144.44652 
L 544.471698 -124.733633 
L 542.876501 -105.502765 
L 541.281304 -151.11167 
L 539.686106 -121.725174 
L 538.090909 -128.008034 
L 536.495712 -143.166678 
L 534.900515 -140.440782 
L 533.305317 -141.089013 
L 531.71012 -107.480702 
L 530.114923 -106.882335 
L 528.519726 -112.034944 
L 526.924528 -114.262201 
L 525.329331 -165.389384 
L 523.734134 -192.532001 
L 522.138937 -199.994974 
L 520.543739 -184.237962 
L 518.948542 -185.168756 
L 517.353345 -178.221044 
L 515.758148 -215.469424 
L 514.16295 -218.078971 
L 512.567753 -243.36 
L 510.972556 -218.361534 
L 509.377358 -227.586367 
L 507.782161 -229.098907 
L 506.186964 -217.796409 
L 504.591767 -218.660717 
L 502.996569 -180.415058 
L 501.401372 -178.237665 
L 499.806175 -118.799822 
L 498.210978 -88.249834 
L 496.61578 -107.597052 
L 495.020583 -88.083621 
L 493.425386 -91.474371 
L 491.830189 -81.983596 
L 490.234991 -98.555053 
L 488.639794 -93.552036 
L 487.044597 -92.122602 
L 485.4494 -72.426337 
L 483.854202 -78.393391 
L 482.259005 -67.705882 
L 480.663808 -57.99903 
L 479.068611 -56.253792 
L 477.473413 -89.895345 
L 475.878216 -110.040386 
L 474.283019 -107.464081 
L 472.687822 -102.810111 
L 471.092624 -94.034054 
L 469.497427 -82.91439 
L 467.90223 -77.711917 
L 466.307033 -71.877833 
L 464.711835 -100.798931 
L 463.116638 -90.70979 
L 461.521441 -65.611595 
L 459.926244 -63.999327 
L 458.331046 -61.423023 
L 456.735849 -54.242612 
L 455.140652 -60.774791 
L 453.545455 -62.52003 
L 451.950257 -76.249241 
L 450.35506 -51.666307 
L 448.759863 -48.42515 
L 447.164666 -52.098462 
L 445.569468 -53.21209 
L 443.974271 -65.977264 
L 442.379074 -61.572614 
L 440.783877 -63.766629 
L 439.188679 -65.744566 
L 437.593482 -50.020796 
L 435.998285 -53.59438 
L 434.403087 -69.384635 
L 432.80789 -63.018669 
L 431.212693 -69.218422 
L 429.617496 -82.931012 
L 428.022298 -74.520623 
L 426.427101 -98.073035 
L 424.831904 -94.266752 
L 423.236707 -92.887183 
L 421.641509 -82.216295 
L 420.046312 -71.728241 
L 418.451115 -69.733683 
L 416.855918 -55.622182 
L 415.26072 -62.918941 
L 413.665523 -71.977561 
L 412.070326 -59.893861 
L 410.475129 -70.514885 
L 408.879931 -66.309691 
L 407.284734 -73.506723 
L 405.689537 -69.783547 
L 404.09434 -67.373455 
L 402.499142 -55.023814 
L 400.903945 -50.203631 
L 399.308748 -49.987554 
L 397.713551 -58.331457 
L 396.118353 -78.842167 
L 394.523156 -48.724333 
L 392.927959 -48.225694 
L 391.332762 -50.536057 
L 389.737564 -51.051318 
L 388.142367 -49.355944 
L 386.54717 -92.953668 
L 384.951973 -82.415751 
L 383.356775 -82.931012 
L 381.761578 -80.986317 
L 380.166381 -85.690151 
L 378.571184 -78.50974 
L 376.975986 -74.753322 
L 375.380789 -67.539669 
L 373.785592 -69.085451 
L 372.190395 -57.61674 
L 370.595197 -60.974247 
L 369 -60.990868 
L 367.404803 -61.14046 
L 365.809605 -54.375582 
L 364.214408 -59.528192 
L 362.619211 -85.972713 
L 361.024014 -72.991462 
L 359.428816 -50.95159 
L 357.833619 -68.354113 
L 356.238422 -75.534524 
L 354.643225 -59.677784 
L 353.048027 -49.156488 
L 351.45283 -47.943131 
L 349.857633 -80.088766 
L 348.262436 -54.774494 
L 346.667238 -69.185179 
L 345.072041 -62.02139 
L 343.476844 -59.245629 
L 341.881647 -56.120821 
L 340.286449 -64.747287 
L 338.691252 -79.872689 
L 337.096055 -80.221736 
L 335.500858 -74.371031 
L 333.90566 -75.833708 
L 332.310463 -85.590423 
L 330.715266 -81.917111 
L 329.120069 -83.546 
L 327.524871 -65.9274 
L 325.929674 -85.30786 
L 324.334477 -80.105387 
L 322.73928 -67.456562 
L 321.144082 -94.034054 
L 319.548885 -81.219016 
L 317.953688 -71.32933 
L 316.358491 -59.993589 
L 314.763293 -51.932248 
L 313.168096 -59.012931 
L 311.572899 -54.59166 
L 309.977702 -55.971229 
L 308.382504 -75.351689 
L 306.787307 -76.631531 
L 305.19211 -90.294257 
L 303.596913 -62.40368 
L 302.001715 -50.31998 
L 300.406518 -49.505535 
L 298.811321 -51.549958 
L 297.216123 -81.468335 
L 295.620926 -58.863339 
L 294.025729 -70.498264 
L 292.430532 -62.320574 
L 290.835334 -55.455968 
L 289.240137 -89.812238 
L 287.64494 -62.918941 
L 286.049743 -62.353816 
L 284.454545 -61.406401 
L 282.859348 -56.652703 
L 281.264151 -61.6391 
L 279.668954 -61.439644 
L 278.073756 -65.993886 
L 276.478559 -58.032273 
L 274.883362 -99.103557 
L 273.288165 -68.304249 
L 271.692967 -69.733683 
L 270.09777 -75.61763 
L 268.502573 -55.821637 
L 266.907376 -56.320277 
L 265.312178 -53.228711 
L 263.716981 -85.390967 
L 262.121784 -102.095395 
L 260.526587 -94.649043 
L 258.931389 -100.848795 
L 257.336192 -62.553272 
L 255.740995 -65.112956 
L 254.145798 -60.25953 
L 252.5506 -74.420895 
L 250.955403 -50.336602 
L 249.360206 -64.514588 
L 247.765009 -49.106624 
L 246.169811 -51.716171 
L 244.574614 -57.566876 
L 242.979417 -61.173703 
L 241.38422 -69.633955 
L 239.789022 -55.422726 
L 238.193825 -54.525174 
L 236.598628 -48.940411 
L 235.003431 -48.757576 
L 233.408233 -60.841276 
L 231.813036 -53.993292 
L 230.217839 -50.735513 
L 228.622642 -52.796557 
L 227.027444 -55.871501 
L 225.432247 -74.287925 
L 223.83705 -58.098758 
L 222.241852 -60.076696 
L 220.646655 -58.713747 
L 219.051458 -62.27071 
L 217.456261 -52.813178 
L 215.861063 -61.971526 
L 214.265866 -60.193045 
L 212.670669 -78.360148 
L 211.075472 -71.429058 
L 209.480274 -72.226881 
L 207.885077 -71.861212 
L 206.28988 -79.241078 
L 204.694683 -72.758763 
L 203.099485 -72.476201 
L 201.504288 -74.071848 
L 199.909091 -71.4623 
L 198.313894 -71.678377 
L 196.718696 -53.012634 
L 195.123499 -53.544516 
L 193.528302 -53.062498 
L 191.933105 -50.835241 
L 190.337907 -69.600712 
L 188.74271 -49.18973 
L 187.147513 -46.563562 
L 185.552316 -68.121415 
L 183.957118 -52.08184 
L 182.361921 -53.162226 
L 180.766724 -57.86606 
L 179.171527 -56.453248 
L 177.576329 -56.220549 
L 175.981132 -69.185179 
L 174.385935 -62.885699 
L 172.790738 -50.536057 
L 171.19554 -50.801999 
L 169.600343 -52.58048 
L 168.005146 -51.899006 
L 166.409949 -64.015949 
L 164.814751 -55.239891 
L 163.219554 -64.979985 
L 161.624357 -79.523641 
L 160.02916 -91.175187 
L 158.433962 -102.062152 
L 156.838765 -98.904101 
L 155.243568 -125.913747 
L 153.64837 -117.902271 
L 152.053173 -112.666555 
L 150.457976 -122.572862 
L 148.862779 -120.727895 
L 147.267581 -92.687727 
L 145.672384 -89.147386 
L 144.077187 -83.994776 
L 142.48199 -80.554163 
L 140.886792 -80.986317 
L 139.291595 -86.787158 
L 137.696398 -91.175187 
L 136.101201 -84.327203 
L 134.506003 -80.188494 
L 132.910806 -95.596458 
L 131.315609 -98.837616 
L 129.720412 -95.081197 
L 128.125214 -101.297571 
L 126.530017 -104.837912 
L 124.93482 -84.54328 
L 123.339623 -68.836132 
L 121.744425 -54.176127 
L 120.149228 -49.605263 
L 118.554031 -52.148326 
L 116.958834 -55.090299 
L 115.363636 -59.3786 
z
" style="stroke: #008000; stroke-width: 0.5"/>
    </defs>
    <g clip-path="url(#pb6a745ee6c)">
     <use xlink:href="#mbf95c0c05b" x="0" y="288" style="fill: #008000; stroke: #008000; stroke-width: 0.5"/>
    </g>
   </g>
   <g id="line2d_26">
    <path d="M 90 44.64 
L 648 44.64 
" clip-path="url(#pb6a745ee6c)" style="fill: none; stroke: #000000; stroke-width: 1.5; stroke-linecap: square"/>
   </g>
   <g id="line2d_27">
    <path d="M 90 202.592412 
L 648 202.592412 
" clip-path="url(#pb6a745ee6c)" style="fill: none; stroke: #000000; stroke-width: 1.5; stroke-linecap: square"/>
   </g>
   <g id="patch_3">
    <path d="M 90 256.32 
L 90 34.56 
" style="fill: none; stroke: #000000; stroke-width: 0.8; stroke-linejoin: miter; stroke-linecap: square"/>
   </g>
   <g id="patch_4">
    <path d="M 648 256.32 
L 648 34.56 
" style="fill: none; stroke: #000000; stroke-width: 0.8; stroke-linejoin: miter; stroke-linecap: square"/>
   </g>
   <g id="patch_5">
    <path d="M 90 256.32 
L 648 256.32 
" style="fill: none; stroke: #000000; stroke-width: 0.8; stroke-linejoin: miter; stroke-linecap: square"/>
   </g>
   <g id="patch_6">
    <path d="M 90 34.56 
L 648 34.56 
" style="fill: none; stroke: #000000; stroke-width: 0.8; stroke-linejoin: miter; stroke-linecap: square"/>
   </g>
   <g id="text_21">
    <!-- peak (12,129) -->
    <g transform="translate(118.700327 41.3136) scale(0.1 -0.1)">
     <defs>
      <path id="DejaVuSans-Bold-70" d="M 1656 506 
L 1656 -1331 
L 538 -1331 
L 538 3500 
L 1656 3500 
L 1656 2988 
Q 1888 3294 2169 3439 
Q 2450 3584 2816 3584 
Q 3463 3584 3878 3070 
Q 4294 2556 4294 1747 
Q 4294 938 3878 423 
Q 3463 -91 2816 -91 
Q 2450 -91 2169 54 
Q 1888 200 1656 506 
z
M 2400 2772 
Q 2041 2772 1848 2508 
Q 1656 2244 1656 1747 
Q 1656 1250 1848 986 
Q 2041 722 2400 722 
Q 2759 722 2948 984 
Q 3138 1247 3138 1747 
Q 3138 2247 2948 2509 
Q 2759 2772 2400 2772 
z
" transform="scale(0.015625)"/>
      <path id="DejaVuSans-Bold-65" d="M 4031 1759 
L 4031 1441 
L 1416 1441 
Q 1456 1047 1700 850 
Q 1944 653 2381 653 
Q 2734 653 3104 758 
Q 3475 863 3866 1075 
L 3866 213 
Q 3469 63 3072 -14 
Q 2675 -91 2278 -91 
Q 1328 -91 801 392 
Q 275 875 275 1747 
Q 275 2603 792 3093 
Q 1309 3584 2216 3584 
Q 3041 3584 3536 3087 
Q 4031 2591 4031 1759 
z
M 2881 2131 
Q 2881 2450 2695 2645 
Q 2509 2841 2209 2841 
Q 1884 2841 1681 2658 
Q 1478 2475 1428 2131 
L 2881 2131 
z
" transform="scale(0.015625)"/>
      <path id="DejaVuSans-Bold-61" d="M 2106 1575 
Q 1756 1575 1579 1456 
Q 1403 1338 1403 1106 
Q 1403 894 1545 773 
Q 1688 653 1941 653 
Q 2256 653 2472 879 
Q 2688 1106 2688 1447 
L 2688 1575 
L 2106 1575 
z
M 3816 1997 
L 3816 0 
L 2688 0 
L 2688 519 
Q 2463 200 2181 54 
Q 1900 -91 1497 -91 
Q 953 -91 614 226 
Q 275 544 275 1050 
Q 275 1666 698 1953 
Q 1122 2241 2028 2241 
L 2688 2241 
L 2688 2328 
Q 2688 2594 2478 2717 
Q 2269 2841 1825 2841 
Q 1466 2841 1156 2769 
Q 847 2697 581 2553 
L 581 3406 
Q 941 3494 1303 3539 
Q 1666 3584 2028 3584 
Q 2975 3584 3395 3211 
Q 3816 2838 3816 1997 
z
" transform="scale(0.015625)"/>
      <path id="DejaVuSans-Bold-6b" d="M 538 4863 
L 1656 4863 
L 1656 2216 
L 2944 3500 
L 4244 3500 
L 2534 1894 
L 4378 0 
L 3022 0 
L 1656 1459 
L 1656 0 
L 538 0 
L 538 4863 
z
" transform="scale(0.015625)"/>
      <path id="DejaVuSans-Bold-20" transform="scale(0.015625)"/>
      <path id="DejaVuSans-Bold-28" d="M 2413 -844 
L 1484 -844 
Q 1006 -72 778 623 
Q 550 1319 550 2003 
Q 550 2688 779 3389 
Q 1009 4091 1484 4856 
L 2413 4856 
Q 2013 4116 1813 3408 
Q 1613 2700 1613 2009 
Q 1613 1319 1811 609 
Q 2009 -100 2413 -844 
z
" transform="scale(0.015625)"/>
      <path id="DejaVuSans-Bold-31" d="M 750 831 
L 1813 831 
L 1813 3847 
L 722 3622 
L 722 4441 
L 1806 4666 
L 2950 4666 
L 2950 831 
L 4013 831 
L 4013 0 
L 750 0 
L 750 831 
z
" transform="scale(0.015625)"/>
      <path id="DejaVuSans-Bold-32" d="M 1844 884 
L 3897 884 
L 3897 0 
L 506 0 
L 506 884 
L 2209 2388 
Q 2438 2594 2547 2791 
Q 2656 2988 2656 3200 
Q 2656 3528 2436 3728 
Q 2216 3928 1850 3928 
Q 1569 3928 1234 3808 
Q 900 3688 519 3450 
L 519 4475 
Q 925 4609 1322 4679 
Q 1719 4750 2100 4750 
Q 2938 4750 3402 4381 
Q 3866 4013 3866 3353 
Q 3866 2972 3669 2642 
Q 3472 2313 2841 1759 
L 1844 884 
z
" transform="scale(0.015625)"/>
      <path id="DejaVuSans-Bold-2c" d="M 653 1209 
L 1778 1209 
L 1778 256 
L 1006 -909 
L 341 -909 
L 653 256 
L 653 1209 
z
" transform="scale(0.015625)"/>
      <path id="DejaVuSans-Bold-39" d="M 641 103 
L 641 966 
Q 928 831 1190 764 
Q 1453 697 1709 697 
Q 2247 697 2547 995 
Q 2847 1294 2900 1881 
Q 2688 1725 2447 1647 
Q 2206 1569 1925 1569 
Q 1209 1569 770 1986 
Q 331 2403 331 3084 
Q 331 3838 820 4291 
Q 1309 4744 2131 4744 
Q 3044 4744 3544 4128 
Q 4044 3513 4044 2388 
Q 4044 1231 3459 570 
Q 2875 -91 1856 -91 
Q 1528 -91 1228 -42 
Q 928 6 641 103 
z
M 2125 2350 
Q 2441 2350 2600 2554 
Q 2759 2759 2759 3169 
Q 2759 3575 2600 3781 
Q 2441 3988 2125 3988 
Q 1809 3988 1650 3781 
Q 1491 3575 1491 3169 
Q 1491 2759 1650 2554 
Q 1809 2350 2125 2350 
z
" transform="scale(0.015625)"/>
      <path id="DejaVuSans-Bold-29" d="M 513 -844 
Q 913 -100 1113 609 
Q 1313 1319 1313 2009 
Q 1313 2700 1113 3408 
Q 913 4116 513 4856 
L 1441 4856 
Q 1916 4091 2145 3389 
Q 2375 2688 2375 2003 
Q 2375 1319 2147 623 
Q 1919 -72 1441 -844 
L 513 -844 
z
" transform="scale(0.015625)"/>
     </defs>
     <use xlink:href="#DejaVuSans-Bold-70"/>
     <use xlink:href="#DejaVuSans-Bold-65" x="71.582031"/>
     <use xlink:href="#DejaVuSans-Bold-61" x="139.404297"/>
     <use xlink:href="#DejaVuSans-Bold-6b" x="206.884766"/>
     <use xlink:href="#DejaVuSans-Bold-20" x="273.388672"/>
     <use xlink:href="#DejaVuSans-Bold-28" x="308.203125"/>
     <use xlink:href="#DejaVuSans-Bold-31" x="353.90625"/>
     <use xlink:href="#DejaVuSans-Bold-32" x="423.486328"/>
     <use xlink:href="#DejaVuSans-Bold-2c" x="493.066406"/>
     <use xlink:href="#DejaVuSans-Bold-31" x="531.054688"/>
     <use xlink:href="#DejaVuSans-Bold-32" x="600.634766"/>
     <use xlink:href="#DejaVuSans-Bold-39" x="670.214844"/>
     <use xlink:href="#DejaVuSans-Bold-29" x="739.794922"/>
    </g>
   </g>
   <g id="text_22">
    <!-- mean (2,626) -->
    <g transform="translate(567.728153 199.266012) scale(0.1 -0.1)">
     <defs>
      <path id="DejaVuSans-Bold-6d" d="M 3781 2919 
Q 3994 3244 4286 3414 
Q 4578 3584 4928 3584 
Q 5531 3584 5847 3212 
Q 6163 2841 6163 2131 
L 6163 0 
L 5038 0 
L 5038 1825 
Q 5041 1866 5042 1909 
Q 5044 1953 5044 2034 
Q 5044 2406 4934 2573 
Q 4825 2741 4581 2741 
Q 4263 2741 4089 2478 
Q 3916 2216 3909 1719 
L 3909 0 
L 2784 0 
L 2784 1825 
Q 2784 2406 2684 2573 
Q 2584 2741 2328 2741 
Q 2006 2741 1831 2477 
Q 1656 2213 1656 1722 
L 1656 0 
L 531 0 
L 531 3500 
L 1656 3500 
L 1656 2988 
Q 1863 3284 2130 3434 
Q 2397 3584 2719 3584 
Q 3081 3584 3359 3409 
Q 3638 3234 3781 2919 
z
" transform="scale(0.015625)"/>
      <path id="DejaVuSans-Bold-6e" d="M 4056 2131 
L 4056 0 
L 2931 0 
L 2931 347 
L 2931 1631 
Q 2931 2084 2911 2256 
Q 2891 2428 2841 2509 
Q 2775 2619 2662 2680 
Q 2550 2741 2406 2741 
Q 2056 2741 1856 2470 
Q 1656 2200 1656 1722 
L 1656 0 
L 538 0 
L 538 3500 
L 1656 3500 
L 1656 2988 
Q 1909 3294 2193 3439 
Q 2478 3584 2822 3584 
Q 3428 3584 3742 3212 
Q 4056 2841 4056 2131 
z
" transform="scale(0.015625)"/>
      <path id="DejaVuSans-Bold-36" d="M 2316 2303 
Q 2000 2303 1842 2098 
Q 1684 1894 1684 1484 
Q 1684 1075 1842 870 
Q 2000 666 2316 666 
Q 2634 666 2792 870 
Q 2950 1075 2950 1484 
Q 2950 1894 2792 2098 
Q 2634 2303 2316 2303 
z
M 3803 4544 
L 3803 3681 
Q 3506 3822 3243 3889 
Q 2981 3956 2731 3956 
Q 2194 3956 1894 3657 
Q 1594 3359 1544 2772 
Q 1750 2925 1990 3001 
Q 2231 3078 2516 3078 
Q 3231 3078 3670 2659 
Q 4109 2241 4109 1563 
Q 4109 813 3618 361 
Q 3128 -91 2303 -91 
Q 1394 -91 895 523 
Q 397 1138 397 2266 
Q 397 3422 980 4083 
Q 1563 4744 2578 4744 
Q 2900 4744 3203 4694 
Q 3506 4644 3803 4544 
z
" transform="scale(0.015625)"/>
     </defs>
     <use xlink:href="#DejaVuSans-Bold-6d"/>
     <use xlink:href="#DejaVuSans-Bold-65" x="104.199219"/>
     <use xlink:href="#DejaVuSans-Bold-61" x="172.021484"/>
     <use xlink:href="#DejaVuSans-Bold-6e" x="239.501953"/>
     <use xlink:href="#DejaVuSans-Bold-20" x="310.693359"/>
     <use xlink:href="#DejaVuSans-Bold-28" x="345.507812"/>
     <use xlink:href="#DejaVuSans-Bold-32" x="391.210938"/>
     <use xlink:href="#DejaVuSans-Bold-2c" x="460.791016"/>
     <use xlink:href="#DejaVuSans-Bold-36" x="498.779297"/>
     <use xlink:href="#DejaVuSans-Bold-32" x="568.359375"/>
     <use xlink:href="#DejaVuSans-Bold-36" x="637.939453"/>
     <use xlink:href="#DejaVuSans-Bold-29" x="707.519531"/>
    </g>
   </g>
   <g id="text_23">
    <!-- Stream Bitrate over Time -->
    <g transform="translate(293.189062 28.56) scale(0.12 -0.12)">
     <defs>
      <path id="DejaVuSans-53" d="M 3425 4513 
L 3425 3897 
Q 3066 4069 2747 4153 
Q 2428 4238 2131 4238 
Q 1616 4238 1336 4038 
Q 1056 3838 1056 3469 
Q 1056 3159 1242 3001 
Q 1428 2844 1947 2747 
L 2328 2669 
Q 3034 2534 3370 2195 
Q 3706 1856 3706 1288 
Q 3706 609 3251 259 
Q 2797 -91 1919 -91 
Q 1588 -91 1214 -16 
Q 841 59 441 206 
L 441 856 
Q 825 641 1194 531 
Q 1563 422 1919 422 
Q 2459 422 2753 634 
Q 3047 847 3047 1241 
Q 3047 1584 2836 1778 
Q 2625 1972 2144 2069 
L 1759 2144 
Q 1053 2284 737 2584 
Q 422 2884 422 3419 
Q 422 4038 858 4394 
Q 1294 4750 2059 4750 
Q 2388 4750 2728 4690 
Q 3069 4631 3425 4513 
z
" transform="scale(0.015625)"/>
      <path id="DejaVuSans-6f" d="M 1959 3097 
Q 1497 3097 1228 2736 
Q 959 2375 959 1747 
Q 959 1119 1226 758 
Q 1494 397 1959 397 
Q 2419 397 2687 759 
Q 2956 1122 2956 1747 
Q 2956 2369 2687 2733 
Q 2419 3097 1959 3097 
z
M 1959 3584 
Q 2709 3584 3137 3096 
Q 3566 2609 3566 1747 
Q 3566 888 3137 398 
Q 2709 -91 1959 -91 
Q 1206 -91 779 398 
Q 353 888 353 1747 
Q 353 2609 779 3096 
Q 1206 3584 1959 3584 
z
" transform="scale(0.015625)"/>
      <path id="DejaVuSans-76" d="M 191 3500 
L 800 3500 
L 1894 563 
L 2988 3500 
L 3597 3500 
L 2284 0 
L 1503 0 
L 191 3500 
z
" transform="scale(0.015625)"/>
     </defs>
     <use xlink:href="#DejaVuSans-53"/>
     <use xlink:href="#DejaVuSans-74" x="63.476562"/>
     <use xlink:href="#DejaVuSans-72" x="102.685547"/>
     <use xlink:href="#DejaVuSans-65" x="141.548828"/>
     <use xlink:href="#DejaVuSans-61" x="203.072266"/>
     <use xlink:href="#DejaVuSans-6d" x="264.351562"/>
     <use xlink:href="#DejaVuSans-20" x="361.763672"/>
     <use xlink:href="#DejaVuSans-42" x="393.550781"/>
     <use xlink:href="#DejaVuSans-69" x="462.154297"/>
     <use xlink:href="#DejaVuSans-74" x="489.9375"/>
     <use xlink:href="#DejaVuSans-72" x="529.146484"/>
     <use xlink:href="#DejaVuSans-61" x="570.259766"/>
     <use xlink:href="#DejaVuSans-74" x="631.539062"/>
     <use xlink:href="#DejaVuSans-65" x="670.748047"/>
     <use xlink:href="#DejaVuSans-20" x="732.271484"/>
     <use xlink:href="#DejaVuSans-6f" x="764.058594"/>
     <use xlink:href="#DejaVuSans-76" x="825.240234"/>
     <use xlink:href="#DejaVuSans-65" x="884.419922"/>
     <use xlink:href="#DejaVuSans-72" x="945.943359"/>
     <use xlink:href="#DejaVuSans-20" x="987.056641"/>
     <use xlink:href="#DejaVuSans-54" x="1018.84375"/>
     <use xlink:href="#DejaVuSans-69" x="1076.802734"/>
     <use xlink:href="#DejaVuSans-6d" x="1104.585938"/>
     <use xlink:href="#DejaVuSans-65" x="1201.998047"/>
    </g>
   </g>
   <g id="legend_1">
    <g id="patch_7">
     <path d="M 602.139063 86.594375 
L 641 86.594375 
Q 643 86.594375 643 84.594375 
L 643 41.56 
Q 643 39.56 641 39.56 
L 602.139063 39.56 
Q 600.139063 39.56 600.139063 41.56 
L 600.139063 84.594375 
Q 600.139063 86.594375 602.139063 86.594375 
z
" style="fill: #ffffff; opacity: 0.8; stroke: #cccccc; stroke-linejoin: miter"/>
    </g>
    <g id="patch_8">
     <path d="M 604.139063 51.158438 
L 624.139063 51.158438 
L 624.139063 44.158438 
L 604.139063 44.158438 
z
" style="fill: #ff0000; stroke: #ff0000; stroke-width: 0.5; stroke-linejoin: miter"/>
    </g>
    <g id="text_24">
     <!-- I -->
     <g transform="translate(632.139063 51.158438) scale(0.1 -0.1)">
      <defs>
       <path id="DejaVuSans-49" d="M 628 4666 
L 1259 4666 
L 1259 0 
L 628 0 
L 628 4666 
z
" transform="scale(0.015625)"/>
      </defs>
      <use xlink:href="#DejaVuSans-49"/>
     </g>
    </g>
    <g id="patch_9">
     <path d="M 604.139063 65.836563 
L 624.139063 65.836563 
L 624.139063 58.836563 
L 604.139063 58.836563 
z
" style="fill: #0000ff; stroke: #0000ff; stroke-width: 0.5; stroke-linejoin: miter"/>
    </g>
    <g id="text_25">
     <!-- B -->
     <g transform="translate(632.139063 65.836563) scale(0.1 -0.1)">
      <use xlink:href="#DejaVuSans-42"/>
     </g>
    </g>
    <g id="patch_10">
     <path d="M 604.139063 80.514688 
L 624.139063 80.514688 
L 624.139063 73.514688 
L 604.139063 73.514688 
z
" style="fill: #008000; stroke: #008000; stroke-width: 0.5; stroke-linejoin: miter"/>
    </g>
    <g id="text_26">
     <!-- P -->
     <g transform="translate(632.139063 80.514688) scale(0.1 -0.1)">
      <defs>
       <path id="DejaVuSans-50" d="M 1259 4147 
L 1259 2394 
L 2053 2394 
Q 2494 2394 2734 2622 
Q 2975 2850 2975 3272 
Q 2975 3691 2734 3919 
Q 2494 4147 2053 4147 
L 1259 4147 
z
M 628 4666 
L 2053 4666 
Q 2838 4666 3239 4311 
Q 3641 3956 3641 3272 
Q 3641 2581 3239 2228 
Q 2838 1875 2053 1875 
L 1259 1875 
L 1259 0 
L 628 0 
L 628 4666 
z
" transform="scale(0.015625)"/>
      </defs>
      <use xlink:href="#DejaVuSans-50"/>
     </g>
    </g>
   </g>
  </g>
 </g>
 <defs>
  <clipPath id="pb6a745ee6c">
   <rect x="90" y="34.56" width="558" height="221.76"/>
  </clipPath>
 </defs>
</svg>
