<?xml version="1.0" encoding="utf-8" standalone="no"?>
<!DOCTYPE svg PUBLIC "-//W3C//DTD SVG 1.1//EN"
  "http://www.w3.org/Graphics/SVG/1.1/DTD/svg11.dtd">
<svg xmlns:xlink="http://www.w3.org/1999/xlink" width="720pt" height="288pt" viewBox="0 0 720 288" xmlns="http://www.w3.org/2000/svg" version="1.1">
 <metadata>
  <rdf:RDF xmlns:dc="http://purl.org/dc/elements/1.1/" xmlns:cc="http://creativecommons.org/ns#" xmlns:rdf="http://www.w3.org/1999/02/22-rdf-syntax-ns#">
   <cc:Work>
    <dc:type rdf:resource="http://purl.org/dc/dcmitype/StillImage"/>
    <dc:date>2023-05-07T14:06:54.167110</dc:date>
    <dc:format>image/svg+xml</dc:format>
    <dc:creator>
     <cc:Agent>
      <dc:title>Matplotlib v3.7.1, https://matplotlib.org/</dc:title>
     </cc:Agent>
    </dc:creator>
   </cc:Work>
  </rdf:RDF>
 </metadata>
 <defs>
  <style type="text/css">*{stroke-linejoin: round; stroke-linecap: butt}</style>
 </defs>
 <g id="figure_1">
  <g id="patch_1">
   <path d="M 0 288 
L 720 288 
L 720 0 
L 0 0 
z
" style="fill: #ffffff"/>
  </g>
  <g id="axes_1">
   <g id="patch_2">
    <path d="M 90 256.32 
L 648 256.32 
L 648 34.56 
L 90 34.56 
z
" style="fill: #ffffff"/>
   </g>
   <g id="matplotlib.axis_1">
    <g id="xtick_1">
     <g id="line2d_1">
      <defs>
       <path id="m3b7242142e" d="M 0 0 
L 0 3.5 
" style="stroke: #000000; stroke-width: 0.8"/>
      </defs>
      <g>
       <use xlink:href="#m3b7242142e" x="115.363636" y="256.32" style="stroke: #000000; stroke-width: 0.8"/>
      </g>
     </g>
     <g id="text_1">
      <!-- 0:00:00 -->
      <g transform="translate(96.088636 270.918437) scale(0.1 -0.1)">
       <defs>
        <path id="DejaVuSans-30" d="M 2034 4250 
Q 1547 4250 1301 3770 
Q 1056 3291 1056 2328 
Q 1056 1369 1301 889 
Q 1547 409 2034 409 
Q 2525 409 2770 889 
Q 3016 1369 3016 2328 
Q 3016 3291 2770 3770 
Q 2525 4250 2034 4250 
z
M 2034 4750 
Q 2819 4750 3233 4129 
Q 3647 3509 3647 2328 
Q 3647 1150 3233 529 
Q 2819 -91 2034 -91 
Q 1250 -91 836 529 
Q 422 1150 422 2328 
Q 422 3509 836 4129 
Q 1250 4750 2034 4750 
z
" transform="scale(0.015625)"/>
        <path id="DejaVuSans-3a" d="M 750 794 
L 1409 794 
L 1409 0 
L 750 0 
L 750 794 
z
M 750 3309 
L 1409 3309 
L 1409 2516 
L 750 2516 
L 750 3309 
z
" transform="scale(0.015625)"/>
       </defs>
       <use xlink:href="#DejaVuSans-30"/>
       <use xlink:href="#DejaVuSans-3a" x="63.623047"/>
       <use xlink:href="#DejaVuSans-30" x="97.314453"/>
       <use xlink:href="#DejaVuSans-30" x="160.9375"/>
       <use xlink:href="#DejaVuSans-3a" x="224.560547"/>
       <use xlink:href="#DejaVuSans-30" x="258.251953"/>
       <use xlink:href="#DejaVuSans-30" x="321.875"/>
      </g>
     </g>
    </g>
    <g id="xtick_2">
     <g id="line2d_2">
      <g>
       <use xlink:href="#m3b7242142e" x="164.814751" y="256.32" style="stroke: #000000; stroke-width: 0.8"/>
      </g>
     </g>
     <g id="text_2">
      <!-- 0:00:31 -->
      <g transform="translate(145.539751 270.918437) scale(0.1 -0.1)">
       <defs>
        <path id="DejaVuSans-33" d="M 2597 2516 
Q 3050 2419 3304 2112 
Q 3559 1806 3559 1356 
Q 3559 666 3084 287 
Q 2609 -91 1734 -91 
Q 1441 -91 1130 -33 
Q 819 25 488 141 
L 488 750 
Q 750 597 1062 519 
Q 1375 441 1716 441 
Q 2309 441 2620 675 
Q 2931 909 2931 1356 
Q 2931 1769 2642 2001 
Q 2353 2234 1838 2234 
L 1294 2234 
L 1294 2753 
L 1863 2753 
Q 2328 2753 2575 2939 
Q 2822 3125 2822 3475 
Q 2822 3834 2567 4026 
Q 2313 4219 1838 4219 
Q 1578 4219 1281 4162 
Q 984 4106 628 3988 
L 628 4550 
Q 988 4650 1302 4700 
Q 1616 4750 1894 4750 
Q 2613 4750 3031 4423 
Q 3450 4097 3450 3541 
Q 3450 3153 3228 2886 
Q 3006 2619 2597 2516 
z
" transform="scale(0.015625)"/>
        <path id="DejaVuSans-31" d="M 794 531 
L 1825 531 
L 1825 4091 
L 703 3866 
L 703 4441 
L 1819 4666 
L 2450 4666 
L 2450 531 
L 3481 531 
L 3481 0 
L 794 0 
L 794 531 
z
" transform="scale(0.015625)"/>
       </defs>
       <use xlink:href="#DejaVuSans-30"/>
       <use xlink:href="#DejaVuSans-3a" x="63.623047"/>
       <use xlink:href="#DejaVuSans-30" x="97.314453"/>
       <use xlink:href="#DejaVuSans-30" x="160.9375"/>
       <use xlink:href="#DejaVuSans-3a" x="224.560547"/>
       <use xlink:href="#DejaVuSans-33" x="258.251953"/>
       <use xlink:href="#DejaVuSans-31" x="321.875"/>
      </g>
     </g>
    </g>
    <g id="xtick_3">
     <g id="line2d_3">
      <g>
       <use xlink:href="#m3b7242142e" x="214.265866" y="256.32" style="stroke: #000000; stroke-width: 0.8"/>
      </g>
     </g>
     <g id="text_3">
      <!-- 0:01:02 -->
      <g transform="translate(194.990866 270.918437) scale(0.1 -0.1)">
       <defs>
        <path id="DejaVuSans-32" d="M 1228 531 
L 3431 531 
L 3431 0 
L 469 0 
L 469 531 
Q 828 903 1448 1529 
Q 2069 2156 2228 2338 
Q 2531 2678 2651 2914 
Q 2772 3150 2772 3378 
Q 2772 3750 2511 3984 
Q 2250 4219 1831 4219 
Q 1534 4219 1204 4116 
Q 875 4013 500 3803 
L 500 4441 
Q 881 4594 1212 4672 
Q 1544 4750 1819 4750 
Q 2544 4750 2975 4387 
Q 3406 4025 3406 3419 
Q 3406 3131 3298 2873 
Q 3191 2616 2906 2266 
Q 2828 2175 2409 1742 
Q 1991 1309 1228 531 
z
" transform="scale(0.015625)"/>
       </defs>
       <use xlink:href="#DejaVuSans-30"/>
       <use xlink:href="#DejaVuSans-3a" x="63.623047"/>
       <use xlink:href="#DejaVuSans-30" x="97.314453"/>
       <use xlink:href="#DejaVuSans-31" x="160.9375"/>
       <use xlink:href="#DejaVuSans-3a" x="224.560547"/>
       <use xlink:href="#DejaVuSans-30" x="258.251953"/>
       <use xlink:href="#DejaVuSans-32" x="321.875"/>
      </g>
     </g>
    </g>
    <g id="xtick_4">
     <g id="line2d_4">
      <g>
       <use xlink:href="#m3b7242142e" x="263.716981" y="256.32" style="stroke: #000000; stroke-width: 0.8"/>
      </g>
     </g>
     <g id="text_4">
      <!-- 0:01:33 -->
      <g transform="translate(244.441981 270.918437) scale(0.1 -0.1)">
       <use xlink:href="#DejaVuSans-30"/>
       <use xlink:href="#DejaVuSans-3a" x="63.623047"/>
       <use xlink:href="#DejaVuSans-30" x="97.314453"/>
       <use xlink:href="#DejaVuSans-31" x="160.9375"/>
       <use xlink:href="#DejaVuSans-3a" x="224.560547"/>
       <use xlink:href="#DejaVuSans-33" x="258.251953"/>
       <use xlink:href="#DejaVuSans-33" x="321.875"/>
      </g>
     </g>
    </g>
    <g id="xtick_5">
     <g id="line2d_5">
      <g>
       <use xlink:href="#m3b7242142e" x="313.168096" y="256.32" style="stroke: #000000; stroke-width: 0.8"/>
      </g>
     </g>
     <g id="text_5">
      <!-- 0:02:04 -->
      <g transform="translate(293.893096 270.918437) scale(0.1 -0.1)">
       <defs>
        <path id="DejaVuSans-34" d="M 2419 4116 
L 825 1625 
L 2419 1625 
L 2419 4116 
z
M 2253 4666 
L 3047 4666 
L 3047 1625 
L 3713 1625 
L 3713 1100 
L 3047 1100 
L 3047 0 
L 2419 0 
L 2419 1100 
L 313 1100 
L 313 1709 
L 2253 4666 
z
" transform="scale(0.015625)"/>
       </defs>
       <use xlink:href="#DejaVuSans-30"/>
       <use xlink:href="#DejaVuSans-3a" x="63.623047"/>
       <use xlink:href="#DejaVuSans-30" x="97.314453"/>
       <use xlink:href="#DejaVuSans-32" x="160.9375"/>
       <use xlink:href="#DejaVuSans-3a" x="224.560547"/>
       <use xlink:href="#DejaVuSans-30" x="258.251953"/>
       <use xlink:href="#DejaVuSans-34" x="321.875"/>
      </g>
     </g>
    </g>
    <g id="xtick_6">
     <g id="line2d_6">
      <g>
       <use xlink:href="#m3b7242142e" x="362.619211" y="256.32" style="stroke: #000000; stroke-width: 0.8"/>
      </g>
     </g>
     <g id="text_6">
      <!-- 0:02:35 -->
      <g transform="translate(343.344211 270.918437) scale(0.1 -0.1)">
       <defs>
        <path id="DejaVuSans-35" d="M 691 4666 
L 3169 4666 
L 3169 4134 
L 1269 4134 
L 1269 2991 
Q 1406 3038 1543 3061 
Q 1681 3084 1819 3084 
Q 2600 3084 3056 2656 
Q 3513 2228 3513 1497 
Q 3513 744 3044 326 
Q 2575 -91 1722 -91 
Q 1428 -91 1123 -41 
Q 819 9 494 109 
L 494 744 
Q 775 591 1075 516 
Q 1375 441 1709 441 
Q 2250 441 2565 725 
Q 2881 1009 2881 1497 
Q 2881 1984 2565 2268 
Q 2250 2553 1709 2553 
Q 1456 2553 1204 2497 
Q 953 2441 691 2322 
L 691 4666 
z
" transform="scale(0.015625)"/>
       </defs>
       <use xlink:href="#DejaVuSans-30"/>
       <use xlink:href="#DejaVuSans-3a" x="63.623047"/>
       <use xlink:href="#DejaVuSans-30" x="97.314453"/>
       <use xlink:href="#DejaVuSans-32" x="160.9375"/>
       <use xlink:href="#DejaVuSans-3a" x="224.560547"/>
       <use xlink:href="#DejaVuSans-33" x="258.251953"/>
       <use xlink:href="#DejaVuSans-35" x="321.875"/>
      </g>
     </g>
    </g>
    <g id="xtick_7">
     <g id="line2d_7">
      <g>
       <use xlink:href="#m3b7242142e" x="412.070326" y="256.32" style="stroke: #000000; stroke-width: 0.8"/>
      </g>
     </g>
     <g id="text_7">
      <!-- 0:03:06 -->
      <g transform="translate(392.795326 270.918437) scale(0.1 -0.1)">
       <defs>
        <path id="DejaVuSans-36" d="M 2113 2584 
Q 1688 2584 1439 2293 
Q 1191 2003 1191 1497 
Q 1191 994 1439 701 
Q 1688 409 2113 409 
Q 2538 409 2786 701 
Q 3034 994 3034 1497 
Q 3034 2003 2786 2293 
Q 2538 2584 2113 2584 
z
M 3366 4563 
L 3366 3988 
Q 3128 4100 2886 4159 
Q 2644 4219 2406 4219 
Q 1781 4219 1451 3797 
Q 1122 3375 1075 2522 
Q 1259 2794 1537 2939 
Q 1816 3084 2150 3084 
Q 2853 3084 3261 2657 
Q 3669 2231 3669 1497 
Q 3669 778 3244 343 
Q 2819 -91 2113 -91 
Q 1303 -91 875 529 
Q 447 1150 447 2328 
Q 447 3434 972 4092 
Q 1497 4750 2381 4750 
Q 2619 4750 2861 4703 
Q 3103 4656 3366 4563 
z
" transform="scale(0.015625)"/>
       </defs>
       <use xlink:href="#DejaVuSans-30"/>
       <use xlink:href="#DejaVuSans-3a" x="63.623047"/>
       <use xlink:href="#DejaVuSans-30" x="97.314453"/>
       <use xlink:href="#DejaVuSans-33" x="160.9375"/>
       <use xlink:href="#DejaVuSans-3a" x="224.560547"/>
       <use xlink:href="#DejaVuSans-30" x="258.251953"/>
       <use xlink:href="#DejaVuSans-36" x="321.875"/>
      </g>
     </g>
    </g>
    <g id="xtick_8">
     <g id="line2d_8">
      <g>
       <use xlink:href="#m3b7242142e" x="461.521441" y="256.32" style="stroke: #000000; stroke-width: 0.8"/>
      </g>
     </g>
     <g id="text_8">
      <!-- 0:03:37 -->
      <g transform="translate(442.246441 270.918437) scale(0.1 -0.1)">
       <defs>
        <path id="DejaVuSans-37" d="M 525 4666 
L 3525 4666 
L 3525 4397 
L 1831 0 
L 1172 0 
L 2766 4134 
L 525 4134 
L 525 4666 
z
" transform="scale(0.015625)"/>
       </defs>
       <use xlink:href="#DejaVuSans-30"/>
       <use xlink:href="#DejaVuSans-3a" x="63.623047"/>
       <use xlink:href="#DejaVuSans-30" x="97.314453"/>
       <use xlink:href="#DejaVuSans-33" x="160.9375"/>
       <use xlink:href="#DejaVuSans-3a" x="224.560547"/>
       <use xlink:href="#DejaVuSans-33" x="258.251953"/>
       <use xlink:href="#DejaVuSans-37" x="321.875"/>
      </g>
     </g>
    </g>
    <g id="xtick_9">
     <g id="line2d_9">
      <g>
       <use xlink:href="#m3b7242142e" x="510.972556" y="256.32" style="stroke: #000000; stroke-width: 0.8"/>
      </g>
     </g>
     <g id="text_9">
      <!-- 0:04:08 -->
      <g transform="translate(491.697556 270.918437) scale(0.1 -0.1)">
       <defs>
        <path id="DejaVuSans-38" d="M 2034 2216 
Q 1584 2216 1326 1975 
Q 1069 1734 1069 1313 
Q 1069 891 1326 650 
Q 1584 409 2034 409 
Q 2484 409 2743 651 
Q 3003 894 3003 1313 
Q 3003 1734 2745 1975 
Q 2488 2216 2034 2216 
z
M 1403 2484 
Q 997 2584 770 2862 
Q 544 3141 544 3541 
Q 544 4100 942 4425 
Q 1341 4750 2034 4750 
Q 2731 4750 3128 4425 
Q 3525 4100 3525 3541 
Q 3525 3141 3298 2862 
Q 3072 2584 2669 2484 
Q 3125 2378 3379 2068 
Q 3634 1759 3634 1313 
Q 3634 634 3220 271 
Q 2806 -91 2034 -91 
Q 1263 -91 848 271 
Q 434 634 434 1313 
Q 434 1759 690 2068 
Q 947 2378 1403 2484 
z
M 1172 3481 
Q 1172 3119 1398 2916 
Q 1625 2713 2034 2713 
Q 2441 2713 2670 2916 
Q 2900 3119 2900 3481 
Q 2900 3844 2670 4047 
Q 2441 4250 2034 4250 
Q 1625 4250 1398 4047 
Q 1172 3844 1172 3481 
z
" transform="scale(0.015625)"/>
       </defs>
       <use xlink:href="#DejaVuSans-30"/>
       <use xlink:href="#DejaVuSans-3a" x="63.623047"/>
       <use xlink:href="#DejaVuSans-30" x="97.314453"/>
       <use xlink:href="#DejaVuSans-34" x="160.9375"/>
       <use xlink:href="#DejaVuSans-3a" x="224.560547"/>
       <use xlink:href="#DejaVuSans-30" x="258.251953"/>
       <use xlink:href="#DejaVuSans-38" x="321.875"/>
      </g>
     </g>
    </g>
    <g id="xtick_10">
     <g id="line2d_10">
      <g>
       <use xlink:href="#m3b7242142e" x="560.423671" y="256.32" style="stroke: #000000; stroke-width: 0.8"/>
      </g>
     </g>
     <g id="text_10">
      <!-- 0:04:39 -->
      <g transform="translate(541.148671 270.918437) scale(0.1 -0.1)">
       <defs>
        <path id="DejaVuSans-39" d="M 703 97 
L 703 672 
Q 941 559 1184 500 
Q 1428 441 1663 441 
Q 2288 441 2617 861 
Q 2947 1281 2994 2138 
Q 2813 1869 2534 1725 
Q 2256 1581 1919 1581 
Q 1219 1581 811 2004 
Q 403 2428 403 3163 
Q 403 3881 828 4315 
Q 1253 4750 1959 4750 
Q 2769 4750 3195 4129 
Q 3622 3509 3622 2328 
Q 3622 1225 3098 567 
Q 2575 -91 1691 -91 
Q 1453 -91 1209 -44 
Q 966 3 703 97 
z
M 1959 2075 
Q 2384 2075 2632 2365 
Q 2881 2656 2881 3163 
Q 2881 3666 2632 3958 
Q 2384 4250 1959 4250 
Q 1534 4250 1286 3958 
Q 1038 3666 1038 3163 
Q 1038 2656 1286 2365 
Q 1534 2075 1959 2075 
z
" transform="scale(0.015625)"/>
       </defs>
       <use xlink:href="#DejaVuSans-30"/>
       <use xlink:href="#DejaVuSans-3a" x="63.623047"/>
       <use xlink:href="#DejaVuSans-30" x="97.314453"/>
       <use xlink:href="#DejaVuSans-34" x="160.9375"/>
       <use xlink:href="#DejaVuSans-3a" x="224.560547"/>
       <use xlink:href="#DejaVuSans-33" x="258.251953"/>
       <use xlink:href="#DejaVuSans-39" x="321.875"/>
      </g>
     </g>
    </g>
    <g id="xtick_11">
     <g id="line2d_11">
      <g>
       <use xlink:href="#m3b7242142e" x="609.874786" y="256.32" style="stroke: #000000; stroke-width: 0.8"/>
      </g>
     </g>
     <g id="text_11">
      <!-- 0:05:10 -->
      <g transform="translate(590.599786 270.918437) scale(0.1 -0.1)">
       <use xlink:href="#DejaVuSans-30"/>
       <use xlink:href="#DejaVuSans-3a" x="63.623047"/>
       <use xlink:href="#DejaVuSans-30" x="97.314453"/>
       <use xlink:href="#DejaVuSans-35" x="160.9375"/>
       <use xlink:href="#DejaVuSans-3a" x="224.560547"/>
       <use xlink:href="#DejaVuSans-31" x="258.251953"/>
       <use xlink:href="#DejaVuSans-30" x="321.875"/>
      </g>
     </g>
    </g>
    <g id="text_12">
     <!-- Time -->
     <g transform="translate(356.766406 284.596563) scale(0.1 -0.1)">
      <defs>
       <path id="DejaVuSans-54" d="M -19 4666 
L 3928 4666 
L 3928 4134 
L 2272 4134 
L 2272 0 
L 1638 0 
L 1638 4134 
L -19 4134 
L -19 4666 
z
" transform="scale(0.015625)"/>
       <path id="DejaVuSans-69" d="M 603 3500 
L 1178 3500 
L 1178 0 
L 603 0 
L 603 3500 
z
M 603 4863 
L 1178 4863 
L 1178 4134 
L 603 4134 
L 603 4863 
z
" transform="scale(0.015625)"/>
       <path id="DejaVuSans-6d" d="M 3328 2828 
Q 3544 3216 3844 3400 
Q 4144 3584 4550 3584 
Q 5097 3584 5394 3201 
Q 5691 2819 5691 2113 
L 5691 0 
L 5113 0 
L 5113 2094 
Q 5113 2597 4934 2840 
Q 4756 3084 4391 3084 
Q 3944 3084 3684 2787 
Q 3425 2491 3425 1978 
L 3425 0 
L 2847 0 
L 2847 2094 
Q 2847 2600 2669 2842 
Q 2491 3084 2119 3084 
Q 1678 3084 1418 2786 
Q 1159 2488 1159 1978 
L 1159 0 
L 581 0 
L 581 3500 
L 1159 3500 
L 1159 2956 
Q 1356 3278 1631 3431 
Q 1906 3584 2284 3584 
Q 2666 3584 2933 3390 
Q 3200 3197 3328 2828 
z
" transform="scale(0.015625)"/>
       <path id="DejaVuSans-65" d="M 3597 1894 
L 3597 1613 
L 953 1613 
Q 991 1019 1311 708 
Q 1631 397 2203 397 
Q 2534 397 2845 478 
Q 3156 559 3463 722 
L 3463 178 
Q 3153 47 2828 -22 
Q 2503 -91 2169 -91 
Q 1331 -91 842 396 
Q 353 884 353 1716 
Q 353 2575 817 3079 
Q 1281 3584 2069 3584 
Q 2775 3584 3186 3129 
Q 3597 2675 3597 1894 
z
M 3022 2063 
Q 3016 2534 2758 2815 
Q 2500 3097 2075 3097 
Q 1594 3097 1305 2825 
Q 1016 2553 972 2059 
L 3022 2063 
z
" transform="scale(0.015625)"/>
      </defs>
      <use xlink:href="#DejaVuSans-54"/>
      <use xlink:href="#DejaVuSans-69" x="57.958984"/>
      <use xlink:href="#DejaVuSans-6d" x="85.742188"/>
      <use xlink:href="#DejaVuSans-65" x="183.154297"/>
     </g>
    </g>
   </g>
   <g id="matplotlib.axis_2">
    <g id="ytick_1">
     <g id="line2d_12">
      <path d="M 90 246.24 
L 648 246.24 
" clip-path="url(#p0a7d9dc68f)" style="fill: none; stroke: #b0b0b0; stroke-width: 0.8; stroke-linecap: square"/>
     </g>
     <g id="line2d_13">
      <defs>
       <path id="mf05197befb" d="M 0 0 
L -3.5 0 
" style="stroke: #000000; stroke-width: 0.8"/>
      </defs>
      <g>
       <use xlink:href="#mf05197befb" x="90" y="246.24" style="stroke: #000000; stroke-width: 0.8"/>
      </g>
     </g>
     <g id="text_13">
      <!-- 0 -->
      <g transform="translate(76.6375 250.039219) scale(0.1 -0.1)">
       <use xlink:href="#DejaVuSans-30"/>
      </g>
     </g>
    </g>
    <g id="ytick_2">
     <g id="line2d_14">
      <path d="M 90 207.369856 
L 648 207.369856 
" clip-path="url(#p0a7d9dc68f)" style="fill: none; stroke: #b0b0b0; stroke-width: 0.8; stroke-linecap: square"/>
     </g>
     <g id="line2d_15">
      <g>
       <use xlink:href="#mf05197befb" x="90" y="207.369856" style="stroke: #000000; stroke-width: 0.8"/>
      </g>
     </g>
     <g id="text_14">
      <!-- 2,000 -->
      <g transform="translate(54.371875 211.169075) scale(0.1 -0.1)">
       <defs>
        <path id="DejaVuSans-2c" d="M 750 794 
L 1409 794 
L 1409 256 
L 897 -744 
L 494 -744 
L 750 256 
L 750 794 
z
" transform="scale(0.015625)"/>
       </defs>
       <use xlink:href="#DejaVuSans-32"/>
       <use xlink:href="#DejaVuSans-2c" x="63.623047"/>
       <use xlink:href="#DejaVuSans-30" x="95.410156"/>
       <use xlink:href="#DejaVuSans-30" x="159.033203"/>
       <use xlink:href="#DejaVuSans-30" x="222.65625"/>
      </g>
     </g>
    </g>
    <g id="ytick_3">
     <g id="line2d_16">
      <path d="M 90 168.499713 
L 648 168.499713 
" clip-path="url(#p0a7d9dc68f)" style="fill: none; stroke: #b0b0b0; stroke-width: 0.8; stroke-linecap: square"/>
     </g>
     <g id="line2d_17">
      <g>
       <use xlink:href="#mf05197befb" x="90" y="168.499713" style="stroke: #000000; stroke-width: 0.8"/>
      </g>
     </g>
     <g id="text_15">
      <!-- 4,000 -->
      <g transform="translate(54.371875 172.298931) scale(0.1 -0.1)">
       <use xlink:href="#DejaVuSans-34"/>
       <use xlink:href="#DejaVuSans-2c" x="63.623047"/>
       <use xlink:href="#DejaVuSans-30" x="95.410156"/>
       <use xlink:href="#DejaVuSans-30" x="159.033203"/>
       <use xlink:href="#DejaVuSans-30" x="222.65625"/>
      </g>
     </g>
    </g>
    <g id="ytick_4">
     <g id="line2d_18">
      <path d="M 90 129.629569 
L 648 129.629569 
" clip-path="url(#p0a7d9dc68f)" style="fill: none; stroke: #b0b0b0; stroke-width: 0.8; stroke-linecap: square"/>
     </g>
     <g id="line2d_19">
      <g>
       <use xlink:href="#mf05197befb" x="90" y="129.629569" style="stroke: #000000; stroke-width: 0.8"/>
      </g>
     </g>
     <g id="text_16">
      <!-- 6,000 -->
      <g transform="translate(54.371875 133.428788) scale(0.1 -0.1)">
       <use xlink:href="#DejaVuSans-36"/>
       <use xlink:href="#DejaVuSans-2c" x="63.623047"/>
       <use xlink:href="#DejaVuSans-30" x="95.410156"/>
       <use xlink:href="#DejaVuSans-30" x="159.033203"/>
       <use xlink:href="#DejaVuSans-30" x="222.65625"/>
      </g>
     </g>
    </g>
    <g id="ytick_5">
     <g id="line2d_20">
      <path d="M 90 90.759425 
L 648 90.759425 
" clip-path="url(#p0a7d9dc68f)" style="fill: none; stroke: #b0b0b0; stroke-width: 0.8; stroke-linecap: square"/>
     </g>
     <g id="line2d_21">
      <g>
       <use xlink:href="#mf05197befb" x="90" y="90.759425" style="stroke: #000000; stroke-width: 0.8"/>
      </g>
     </g>
     <g id="text_17">
      <!-- 8,000 -->
      <g transform="translate(54.371875 94.558644) scale(0.1 -0.1)">
       <use xlink:href="#DejaVuSans-38"/>
       <use xlink:href="#DejaVuSans-2c" x="63.623047"/>
       <use xlink:href="#DejaVuSans-30" x="95.410156"/>
       <use xlink:href="#DejaVuSans-30" x="159.033203"/>
       <use xlink:href="#DejaVuSans-30" x="222.65625"/>
      </g>
     </g>
    </g>
    <g id="ytick_6">
     <g id="line2d_22">
      <path d="M 90 51.889282 
L 648 51.889282 
" clip-path="url(#p0a7d9dc68f)" style="fill: none; stroke: #b0b0b0; stroke-width: 0.8; stroke-linecap: square"/>
     </g>
     <g id="line2d_23">
      <g>
       <use xlink:href="#mf05197befb" x="90" y="51.889282" style="stroke: #000000; stroke-width: 0.8"/>
      </g>
     </g>
     <g id="text_18">
      <!-- 10,000 -->
      <g transform="translate(48.009375 55.688501) scale(0.1 -0.1)">
       <use xlink:href="#DejaVuSans-31"/>
       <use xlink:href="#DejaVuSans-30" x="63.623047"/>
       <use xlink:href="#DejaVuSans-2c" x="127.246094"/>
       <use xlink:href="#DejaVuSans-30" x="159.033203"/>
       <use xlink:href="#DejaVuSans-30" x="222.65625"/>
       <use xlink:href="#DejaVuSans-30" x="286.279297"/>
      </g>
     </g>
    </g>
    <g id="text_19">
     <!-- Bitrate (kbit/s) -->
     <g transform="translate(41.929688 181.574375) rotate(-90) scale(0.1 -0.1)">
      <defs>
       <path id="DejaVuSans-42" d="M 1259 2228 
L 1259 519 
L 2272 519 
Q 2781 519 3026 730 
Q 3272 941 3272 1375 
Q 3272 1813 3026 2020 
Q 2781 2228 2272 2228 
L 1259 2228 
z
M 1259 4147 
L 1259 2741 
L 2194 2741 
Q 2656 2741 2882 2914 
Q 3109 3088 3109 3444 
Q 3109 3797 2882 3972 
Q 2656 4147 2194 4147 
L 1259 4147 
z
M 628 4666 
L 2241 4666 
Q 2963 4666 3353 4366 
Q 3744 4066 3744 3513 
Q 3744 3084 3544 2831 
Q 3344 2578 2956 2516 
Q 3422 2416 3680 2098 
Q 3938 1781 3938 1306 
Q 3938 681 3513 340 
Q 3088 0 2303 0 
L 628 0 
L 628 4666 
z
" transform="scale(0.015625)"/>
       <path id="DejaVuSans-74" d="M 1172 4494 
L 1172 3500 
L 2356 3500 
L 2356 3053 
L 1172 3053 
L 1172 1153 
Q 1172 725 1289 603 
Q 1406 481 1766 481 
L 2356 481 
L 2356 0 
L 1766 0 
Q 1100 0 847 248 
Q 594 497 594 1153 
L 594 3053 
L 172 3053 
L 172 3500 
L 594 3500 
L 594 4494 
L 1172 4494 
z
" transform="scale(0.015625)"/>
       <path id="DejaVuSans-72" d="M 2631 2963 
Q 2534 3019 2420 3045 
Q 2306 3072 2169 3072 
Q 1681 3072 1420 2755 
Q 1159 2438 1159 1844 
L 1159 0 
L 581 0 
L 581 3500 
L 1159 3500 
L 1159 2956 
Q 1341 3275 1631 3429 
Q 1922 3584 2338 3584 
Q 2397 3584 2469 3576 
Q 2541 3569 2628 3553 
L 2631 2963 
z
" transform="scale(0.015625)"/>
       <path id="DejaVuSans-61" d="M 2194 1759 
Q 1497 1759 1228 1600 
Q 959 1441 959 1056 
Q 959 750 1161 570 
Q 1363 391 1709 391 
Q 2188 391 2477 730 
Q 2766 1069 2766 1631 
L 2766 1759 
L 2194 1759 
z
M 3341 1997 
L 3341 0 
L 2766 0 
L 2766 531 
Q 2569 213 2275 61 
Q 1981 -91 1556 -91 
Q 1019 -91 701 211 
Q 384 513 384 1019 
Q 384 1609 779 1909 
Q 1175 2209 1959 2209 
L 2766 2209 
L 2766 2266 
Q 2766 2663 2505 2880 
Q 2244 3097 1772 3097 
Q 1472 3097 1187 3025 
Q 903 2953 641 2809 
L 641 3341 
Q 956 3463 1253 3523 
Q 1550 3584 1831 3584 
Q 2591 3584 2966 3190 
Q 3341 2797 3341 1997 
z
" transform="scale(0.015625)"/>
       <path id="DejaVuSans-20" transform="scale(0.015625)"/>
       <path id="DejaVuSans-28" d="M 1984 4856 
Q 1566 4138 1362 3434 
Q 1159 2731 1159 2009 
Q 1159 1288 1364 580 
Q 1569 -128 1984 -844 
L 1484 -844 
Q 1016 -109 783 600 
Q 550 1309 550 2009 
Q 550 2706 781 3412 
Q 1013 4119 1484 4856 
L 1984 4856 
z
" transform="scale(0.015625)"/>
       <path id="DejaVuSans-6b" d="M 581 4863 
L 1159 4863 
L 1159 1991 
L 2875 3500 
L 3609 3500 
L 1753 1863 
L 3688 0 
L 2938 0 
L 1159 1709 
L 1159 0 
L 581 0 
L 581 4863 
z
" transform="scale(0.015625)"/>
       <path id="DejaVuSans-62" d="M 3116 1747 
Q 3116 2381 2855 2742 
Q 2594 3103 2138 3103 
Q 1681 3103 1420 2742 
Q 1159 2381 1159 1747 
Q 1159 1113 1420 752 
Q 1681 391 2138 391 
Q 2594 391 2855 752 
Q 3116 1113 3116 1747 
z
M 1159 2969 
Q 1341 3281 1617 3432 
Q 1894 3584 2278 3584 
Q 2916 3584 3314 3078 
Q 3713 2572 3713 1747 
Q 3713 922 3314 415 
Q 2916 -91 2278 -91 
Q 1894 -91 1617 61 
Q 1341 213 1159 525 
L 1159 0 
L 581 0 
L 581 4863 
L 1159 4863 
L 1159 2969 
z
" transform="scale(0.015625)"/>
       <path id="DejaVuSans-2f" d="M 1625 4666 
L 2156 4666 
L 531 -594 
L 0 -594 
L 1625 4666 
z
" transform="scale(0.015625)"/>
       <path id="DejaVuSans-73" d="M 2834 3397 
L 2834 2853 
Q 2591 2978 2328 3040 
Q 2066 3103 1784 3103 
Q 1356 3103 1142 2972 
Q 928 2841 928 2578 
Q 928 2378 1081 2264 
Q 1234 2150 1697 2047 
L 1894 2003 
Q 2506 1872 2764 1633 
Q 3022 1394 3022 966 
Q 3022 478 2636 193 
Q 2250 -91 1575 -91 
Q 1294 -91 989 -36 
Q 684 19 347 128 
L 347 722 
Q 666 556 975 473 
Q 1284 391 1588 391 
Q 1994 391 2212 530 
Q 2431 669 2431 922 
Q 2431 1156 2273 1281 
Q 2116 1406 1581 1522 
L 1381 1569 
Q 847 1681 609 1914 
Q 372 2147 372 2553 
Q 372 3047 722 3315 
Q 1072 3584 1716 3584 
Q 2034 3584 2315 3537 
Q 2597 3491 2834 3397 
z
" transform="scale(0.015625)"/>
       <path id="DejaVuSans-29" d="M 513 4856 
L 1013 4856 
Q 1481 4119 1714 3412 
Q 1947 2706 1947 2009 
Q 1947 1309 1714 600 
Q 1481 -109 1013 -844 
L 513 -844 
Q 928 -128 1133 580 
Q 1338 1288 1338 2009 
Q 1338 2731 1133 3434 
Q 928 4138 513 4856 
z
" transform="scale(0.015625)"/>
      </defs>
      <use xlink:href="#DejaVuSans-42"/>
      <use xlink:href="#DejaVuSans-69" x="68.603516"/>
      <use xlink:href="#DejaVuSans-74" x="96.386719"/>
      <use xlink:href="#DejaVuSans-72" x="135.595703"/>
      <use xlink:href="#DejaVuSans-61" x="176.708984"/>
      <use xlink:href="#DejaVuSans-74" x="237.988281"/>
      <use xlink:href="#DejaVuSans-65" x="277.197266"/>
      <use xlink:href="#DejaVuSans-20" x="338.720703"/>
      <use xlink:href="#DejaVuSans-28" x="370.507812"/>
      <use xlink:href="#DejaVuSans-6b" x="409.521484"/>
      <use xlink:href="#DejaVuSans-62" x="467.431641"/>
      <use xlink:href="#DejaVuSans-69" x="530.908203"/>
      <use xlink:href="#DejaVuSans-74" x="558.691406"/>
      <use xlink:href="#DejaVuSans-2f" x="597.900391"/>
      <use xlink:href="#DejaVuSans-73" x="631.591797"/>
      <use xlink:href="#DejaVuSans-29" x="683.691406"/>
     </g>
    </g>
   </g>
   <g id="PolyCollection_1">
    <defs>
     <path id="ma741d55541" d="M 115.363636 -52.021718 
L 115.363636 -41.76 
L 116.958834 -41.76 
L 118.554031 -41.76 
L 120.149228 -41.76 
L 121.744425 -41.76 
L 123.339623 -41.76 
L 124.93482 -41.76 
L 126.530017 -41.76 
L 128.125214 -41.76 
L 129.720412 -41.76 
L 131.315609 -41.76 
L 132.910806 -41.76 
L 134.506003 -41.76 
L 136.101201 -41.76 
L 137.696398 -41.76 
L 139.291595 -41.76 
L 140.886792 -41.76 
L 142.48199 -41.76 
L 144.077187 -41.76 
L 145.672384 -41.76 
L 147.267581 -41.76 
L 148.862779 -41.76 
L 150.457976 -41.76 
L 152.053173 -41.76 
L 153.64837 -41.76 
L 155.243568 -41.76 
L 156.838765 -41.76 
L 158.433962 -41.76 
L 160.02916 -41.76 
L 161.624357 -41.76 
L 163.219554 -41.76 
L 164.814751 -41.76 
L 166.409949 -41.76 
L 168.005146 -41.76 
L 169.600343 -41.76 
L 171.19554 -41.76 
L 172.790738 -41.76 
L 174.385935 -41.76 
L 175.981132 -41.76 
L 177.576329 -41.76 
L 179.171527 -41.76 
L 180.766724 -41.76 
L 182.361921 -41.76 
L 183.957118 -41.76 
L 185.552316 -41.76 
L 187.147513 -41.76 
L 188.74271 -41.76 
L 190.337907 -41.76 
L 191.933105 -41.76 
L 193.528302 -41.76 
L 195.123499 -41.76 
L 196.718696 -41.76 
L 198.313894 -41.76 
L 199.909091 -41.76 
L 201.504288 -41.76 
L 203.099485 -41.76 
L 204.694683 -41.76 
L 206.28988 -41.76 
L 207.885077 -41.76 
L 209.480274 -41.76 
L 211.075472 -41.76 
L 212.670669 -41.76 
L 214.265866 -41.76 
L 215.861063 -41.76 
L 217.456261 -41.76 
L 219.051458 -41.76 
L 220.646655 -41.76 
L 222.241852 -41.76 
L 223.83705 -41.76 
L 225.432247 -41.76 
L 227.027444 -41.76 
L 228.622642 -41.76 
L 230.217839 -41.76 
L 231.813036 -41.76 
L 233.408233 -41.76 
L 235.003431 -41.76 
L 236.598628 -41.76 
L 238.193825 -41.76 
L 239.789022 -41.76 
L 241.38422 -41.76 
L 242.979417 -41.76 
L 244.574614 -41.76 
L 246.169811 -41.76 
L 247.765009 -41.76 
L 249.360206 -41.76 
L 250.955403 -41.76 
L 252.5506 -41.76 
L 254.145798 -41.76 
L 255.740995 -41.76 
L 257.336192 -41.76 
L 258.931389 -41.76 
L 260.526587 -41.76 
L 262.121784 -41.76 
L 263.716981 -41.76 
L 265.312178 -41.76 
L 266.907376 -41.76 
L 268.502573 -41.76 
L 270.09777 -41.76 
L 271.692967 -41.76 
L 273.288165 -41.76 
L 274.883362 -41.76 
L 276.478559 -41.76 
L 278.073756 -41.76 
L 279.668954 -41.76 
L 281.264151 -41.76 
L 282.859348 -41.76 
L 284.454545 -41.76 
L 286.049743 -41.76 
L 287.64494 -41.76 
L 289.240137 -41.76 
L 290.835334 -41.76 
L 292.430532 -41.76 
L 294.025729 -41.76 
L 295.620926 -41.76 
L 297.216123 -41.76 
L 298.811321 -41.76 
L 300.406518 -41.76 
L 302.001715 -41.76 
L 303.596913 -41.76 
L 305.19211 -41.76 
L 306.787307 -41.76 
L 308.382504 -41.76 
L 309.977702 -41.76 
L 311.572899 -41.76 
L 313.168096 -41.76 
L 314.763293 -41.76 
L 316.358491 -41.76 
L 317.953688 -41.76 
L 319.548885 -41.76 
L 321.144082 -41.76 
L 322.73928 -41.76 
L 324.334477 -41.76 
L 325.929674 -41.76 
L 327.524871 -41.76 
L 329.120069 -41.76 
L 330.715266 -41.76 
L 332.310463 -41.76 
L 333.90566 -41.76 
L 335.500858 -41.76 
L 337.096055 -41.76 
L 338.691252 -41.76 
L 340.286449 -41.76 
L 341.881647 -41.76 
L 343.476844 -41.76 
L 345.072041 -41.76 
L 346.667238 -41.76 
L 348.262436 -41.76 
L 349.857633 -41.76 
L 351.45283 -41.76 
L 353.048027 -41.76 
L 354.643225 -41.76 
L 356.238422 -41.76 
L 357.833619 -41.76 
L 359.428816 -41.76 
L 361.024014 -41.76 
L 362.619211 -41.76 
L 364.214408 -41.76 
L 365.809605 -41.76 
L 367.404803 -41.76 
L 369 -41.76 
L 370.595197 -41.76 
L 372.190395 -41.76 
L 373.785592 -41.76 
L 375.380789 -41.76 
L 376.975986 -41.76 
L 378.571184 -41.76 
L 380.166381 -41.76 
L 381.761578 -41.76 
L 383.356775 -41.76 
L 384.951973 -41.76 
L 386.54717 -41.76 
L 388.142367 -41.76 
L 389.737564 -41.76 
L 391.332762 -41.76 
L 392.927959 -41.76 
L 394.523156 -41.76 
L 396.118353 -41.76 
L 397.713551 -41.76 
L 399.308748 -41.76 
L 400.903945 -41.76 
L 402.499142 -41.76 
L 404.09434 -41.76 
L 405.689537 -41.76 
L 407.284734 -41.76 
L 408.879931 -41.76 
L 410.475129 -41.76 
L 412.070326 -41.76 
L 413.665523 -41.76 
L 415.26072 -41.76 
L 416.855918 -41.76 
L 418.451115 -41.76 
L 420.046312 -41.76 
L 421.641509 -41.76 
L 423.236707 -41.76 
L 424.831904 -41.76 
L 426.427101 -41.76 
L 428.022298 -41.76 
L 429.617496 -41.76 
L 431.212693 -41.76 
L 432.80789 -41.76 
L 434.403087 -41.76 
L 435.998285 -41.76 
L 437.593482 -41.76 
L 439.188679 -41.76 
L 440.783877 -41.76 
L 442.379074 -41.76 
L 443.974271 -41.76 
L 445.569468 -41.76 
L 447.164666 -41.76 
L 448.759863 -41.76 
L 450.35506 -41.76 
L 451.950257 -41.76 
L 453.545455 -41.76 
L 455.140652 -41.76 
L 456.735849 -41.76 
L 458.331046 -41.76 
L 459.926244 -41.76 
L 461.521441 -41.76 
L 463.116638 -41.76 
L 464.711835 -41.76 
L 466.307033 -41.76 
L 467.90223 -41.76 
L 469.497427 -41.76 
L 471.092624 -41.76 
L 472.687822 -41.76 
L 474.283019 -41.76 
L 475.878216 -41.76 
L 477.473413 -41.76 
L 479.068611 -41.76 
L 480.663808 -41.76 
L 482.259005 -41.76 
L 483.854202 -41.76 
L 485.4494 -41.76 
L 487.044597 -41.76 
L 488.639794 -41.76 
L 490.234991 -41.76 
L 491.830189 -41.76 
L 493.425386 -41.76 
L 495.020583 -41.76 
L 496.61578 -41.76 
L 498.210978 -41.76 
L 499.806175 -41.76 
L 501.401372 -41.76 
L 502.996569 -41.76 
L 504.591767 -41.76 
L 506.186964 -41.76 
L 507.782161 -41.76 
L 509.377358 -41.76 
L 510.972556 -41.76 
L 512.567753 -41.76 
L 514.16295 -41.76 
L 515.758148 -41.76 
L 517.353345 -41.76 
L 518.948542 -41.76 
L 520.543739 -41.76 
L 522.138937 -41.76 
L 523.734134 -41.76 
L 525.329331 -41.76 
L 526.924528 -41.76 
L 528.519726 -41.76 
L 530.114923 -41.76 
L 531.71012 -41.76 
L 533.305317 -41.76 
L 534.900515 -41.76 
L 536.495712 -41.76 
L 538.090909 -41.76 
L 539.686106 -41.76 
L 541.281304 -41.76 
L 542.876501 -41.76 
L 544.471698 -41.76 
L 546.066895 -41.76 
L 547.662093 -41.76 
L 549.25729 -41.76 
L 550.852487 -41.76 
L 552.447684 -41.76 
L 554.042882 -41.76 
L 555.638079 -41.76 
L 557.233276 -41.76 
L 558.828473 -41.76 
L 560.423671 -41.76 
L 562.018868 -41.76 
L 563.614065 -41.76 
L 565.209262 -41.76 
L 566.80446 -41.76 
L 568.399657 -41.76 
L 569.994854 -41.76 
L 571.590051 -41.76 
L 573.185249 -41.76 
L 574.780446 -41.76 
L 576.375643 -41.76 
L 577.97084 -41.76 
L 579.566038 -41.76 
L 581.161235 -41.76 
L 582.756432 -41.76 
L 584.35163 -41.76 
L 585.946827 -41.76 
L 587.542024 -41.76 
L 589.137221 -41.76 
L 590.732419 -41.76 
L 592.327616 -41.76 
L 593.922813 -41.76 
L 595.51801 -41.76 
L 597.113208 -41.76 
L 598.708405 -41.76 
L 600.303602 -41.76 
L 601.898799 -41.76 
L 603.493997 -41.76 
L 605.089194 -41.76 
L 606.684391 -41.76 
L 608.279588 -41.76 
L 609.874786 -41.76 
L 611.469983 -41.76 
L 613.06518 -41.76 
L 614.660377 -41.76 
L 616.255575 -41.76 
L 617.850772 -41.76 
L 619.445969 -41.76 
L 621.041166 -41.76 
L 622.636364 -41.76 
L 622.636364 -41.76 
L 622.636364 -41.76 
L 621.041166 -41.76 
L 619.445969 -41.76 
L 617.850772 -41.76 
L 616.255575 -41.76 
L 614.660377 -41.76 
L 613.06518 -75.499285 
L 611.469983 -41.76 
L 609.874786 -48.406795 
L 608.279588 -41.76 
L 606.684391 -41.76 
L 605.089194 -43.703507 
L 603.493997 -41.76 
L 601.898799 -41.76 
L 600.303602 -41.76 
L 598.708405 -41.76 
L 597.113208 -52.118893 
L 595.51801 -41.76 
L 593.922813 -41.76 
L 592.327616 -58.726818 
L 590.732419 -41.76 
L 589.137221 -41.76 
L 587.542024 -41.76 
L 585.946827 -41.76 
L 584.35163 -56.219693 
L 582.756432 -71.962102 
L 581.161235 -41.76 
L 579.566038 -41.76 
L 577.97084 -41.76 
L 576.375643 -41.76 
L 574.780446 -74.916233 
L 573.185249 -41.76 
L 571.590051 -41.76 
L 569.994854 -41.76 
L 568.399657 -41.76 
L 566.80446 -56.355739 
L 565.209262 -41.76 
L 563.614065 -41.76 
L 562.018868 -41.76 
L 560.423671 -41.76 
L 558.828473 -54.276186 
L 557.233276 -41.76 
L 555.638079 -41.76 
L 554.042882 -41.76 
L 552.447684 -41.76 
L 550.852487 -63.52728 
L 549.25729 -41.76 
L 547.662093 -41.76 
L 546.066895 -56.491784 
L 544.471698 -41.76 
L 542.876501 -41.76 
L 541.281304 -92.407797 
L 539.686106 -41.76 
L 538.090909 -41.76 
L 536.495712 -41.76 
L 534.900515 -41.76 
L 533.305317 -59.795747 
L 531.71012 -41.76 
L 530.114923 -56.880486 
L 528.519726 -41.76 
L 526.924528 -41.76 
L 525.329331 -63.663326 
L 523.734134 -41.76 
L 522.138937 -41.76 
L 520.543739 -73.983349 
L 518.948542 -41.76 
L 517.353345 -104.515847 
L 515.758148 -41.76 
L 514.16295 -41.76 
L 512.567753 -41.76 
L 510.972556 -41.76 
L 509.377358 -108.363991 
L 507.782161 -41.76 
L 506.186964 -41.76 
L 504.591767 -41.76 
L 502.996569 -41.76 
L 501.401372 -41.76 
L 499.806175 -73.614083 
L 498.210978 -41.76 
L 496.61578 -41.76 
L 495.020583 -52.546465 
L 493.425386 -41.76 
L 491.830189 -41.76 
L 490.234991 -41.76 
L 488.639794 -41.76 
L 487.044597 -49.475724 
L 485.4494 -41.76 
L 483.854202 -41.76 
L 482.259005 -41.76 
L 480.663808 -41.76 
L 479.068611 -44.053338 
L 477.473413 -41.76 
L 475.878216 -41.76 
L 474.283019 -41.76 
L 472.687822 -41.76 
L 471.092624 -41.76 
L 469.497427 -59.640266 
L 467.90223 -52.974036 
L 466.307033 -41.76 
L 464.711835 -41.76 
L 463.116638 -41.76 
L 461.521441 -41.76 
L 459.926244 -41.76 
L 458.331046 -55.558901 
L 456.735849 -41.76 
L 455.140652 -41.76 
L 453.545455 -41.76 
L 451.950257 -64.285248 
L 450.35506 -41.76 
L 448.759863 -41.76 
L 447.164666 -41.76 
L 445.569468 -41.76 
L 443.974271 -62.10852 
L 442.379074 -41.76 
L 440.783877 -41.76 
L 439.188679 -46.618768 
L 437.593482 -41.76 
L 435.998285 -41.76 
L 434.403087 -68.172263 
L 432.80789 -41.76 
L 431.212693 -41.76 
L 429.617496 -56.433479 
L 428.022298 -41.76 
L 426.427101 -52.64364 
L 424.831904 -41.76 
L 423.236707 -51.283185 
L 421.641509 -64.226943 
L 420.046312 -41.76 
L 418.451115 -41.76 
L 416.855918 -41.76 
L 415.26072 -41.76 
L 413.665523 -54.373362 
L 412.070326 -41.76 
L 410.475129 -55.28681 
L 408.879931 -41.76 
L 407.284734 -41.76 
L 405.689537 -41.76 
L 404.09434 -41.76 
L 402.499142 -50.661263 
L 400.903945 -41.76 
L 399.308748 -41.76 
L 397.713551 -57.327493 
L 396.118353 -77.714883 
L 394.523156 -41.76 
L 392.927959 -41.76 
L 391.332762 -41.76 
L 389.737564 -41.76 
L 388.142367 -41.76 
L 386.54717 -76.257252 
L 384.951973 -59.484786 
L 383.356775 -41.76 
L 381.761578 -41.76 
L 380.166381 -57.657889 
L 378.571184 -49.572899 
L 376.975986 -41.76 
L 375.380789 -49.942165 
L 373.785592 -51.380361 
L 372.190395 -41.76 
L 370.595197 -41.76 
L 369 -41.76 
L 367.404803 -41.76 
L 365.809605 -41.76 
L 364.214408 -52.235504 
L 362.619211 -59.698571 
L 361.024014 -41.76 
L 359.428816 -41.76 
L 357.833619 -41.76 
L 356.238422 -41.76 
L 354.643225 -52.216069 
L 353.048027 -41.76 
L 351.45283 -41.76 
L 349.857633 -78.803247 
L 348.262436 -41.76 
L 346.667238 -53.459913 
L 345.072041 -41.76 
L 343.476844 -41.76 
L 341.881647 -41.76 
L 340.286449 -41.76 
L 338.691252 -53.110082 
L 337.096055 -41.76 
L 335.500858 -41.76 
L 333.90566 -51.477536 
L 332.310463 -41.76 
L 330.715266 -41.76 
L 329.120069 -41.76 
L 327.524871 -41.76 
L 325.929674 -66.09271 
L 324.334477 -41.76 
L 322.73928 -41.76 
L 321.144082 -41.76 
L 319.548885 -41.76 
L 317.953688 -41.76 
L 316.358491 -52.352114 
L 314.763293 -41.76 
L 313.168096 -55.24794 
L 311.572899 -41.76 
L 309.977702 -41.76 
L 308.382504 -55.558901 
L 306.787307 -41.76 
L 305.19211 -64.129768 
L 303.596913 -41.76 
L 302.001715 -41.76 
L 300.406518 -41.76 
L 298.811321 -41.76 
L 297.216123 -67.025593 
L 295.620926 -41.76 
L 294.025729 -41.76 
L 292.430532 -41.76 
L 290.835334 -41.76 
L 289.240137 -81.621332 
L 287.64494 -41.76 
L 286.049743 -41.76 
L 284.454545 -41.76 
L 282.859348 -41.76 
L 281.264151 -54.839803 
L 279.668954 -41.76 
L 278.073756 -41.76 
L 276.478559 -41.76 
L 274.883362 -85.17795 
L 273.288165 -41.76 
L 271.692967 -41.76 
L 270.09777 -60.631455 
L 268.502573 -41.76 
L 266.907376 -41.76 
L 265.312178 -41.76 
L 263.716981 -71.49566 
L 262.121784 -41.76 
L 260.526587 -41.76 
L 258.931389 -53.459913 
L 257.336192 -41.76 
L 255.740995 -41.76 
L 254.145798 -41.76 
L 252.5506 -67.997347 
L 250.955403 -55.578336 
L 249.360206 -41.76 
L 247.765009 -41.76 
L 246.169811 -41.76 
L 244.574614 -41.76 
L 242.979417 -41.76 
L 241.38422 -54.470537 
L 239.789022 -41.76 
L 238.193825 -41.76 
L 236.598628 -41.76 
L 235.003431 -54.781498 
L 233.408233 -41.76 
L 231.813036 -41.76 
L 230.217839 -41.76 
L 228.622642 -41.76 
L 227.027444 -52.118893 
L 225.432247 -41.76 
L 223.83705 -41.76 
L 222.241852 -41.76 
L 220.646655 -41.76 
L 219.051458 -58.435292 
L 217.456261 -41.76 
L 215.861063 -41.76 
L 214.265866 -41.76 
L 212.670669 -55.36455 
L 211.075472 -41.76 
L 209.480274 -41.76 
L 207.885077 -41.76 
L 206.28988 -48.912106 
L 204.694683 -41.76 
L 203.099485 -41.76 
L 201.504288 -41.76 
L 199.909091 -41.76 
L 198.313894 -65.179262 
L 196.718696 -41.76 
L 195.123499 -41.76 
L 193.528302 -41.76 
L 191.933105 -41.76 
L 190.337907 -67.802996 
L 188.74271 -41.76 
L 187.147513 -41.76 
L 185.552316 -67.900172 
L 183.957118 -41.76 
L 182.361921 -41.76 
L 180.766724 -49.864425 
L 179.171527 -41.76 
L 177.576329 -41.76 
L 175.981132 -66.481411 
L 174.385935 -58.066025 
L 172.790738 -41.76 
L 171.19554 -41.76 
L 169.600343 -41.76 
L 168.005146 -41.76 
L 166.409949 -60.320494 
L 164.814751 -41.76 
L 163.219554 -41.76 
L 161.624357 -41.76 
L 160.02916 -41.76 
L 158.433962 -45.316618 
L 156.838765 -41.76 
L 155.243568 -41.76 
L 153.64837 -41.76 
L 152.053173 -41.76 
L 150.457976 -58.882298 
L 148.862779 -41.76 
L 147.267581 -41.76 
L 145.672384 -41.76 
L 144.077187 -41.76 
L 142.48199 -47.16295 
L 140.886792 -41.76 
L 139.291595 -41.76 
L 137.696398 -41.76 
L 136.101201 -41.76 
L 134.506003 -41.76 
L 132.910806 -48.037528 
L 131.315609 -50.447477 
L 129.720412 -41.76 
L 128.125214 -41.76 
L 126.530017 -41.76 
L 124.93482 -41.76 
L 123.339623 -47.12408 
L 121.744425 -41.76 
L 120.149228 -41.76 
L 118.554031 -41.76 
L 116.958834 -41.76 
L 115.363636 -52.021718 
z
" style="stroke: #ff0000; stroke-width: 0.5"/>
    </defs>
    <g clip-path="url(#p0a7d9dc68f)">
     <use xlink:href="#ma741d55541" x="0" y="288" style="fill: #ff0000; stroke: #ff0000; stroke-width: 0.5"/>
    </g>
   </g>
   <g id="PolyCollection_2">
    <defs>
     <path id="m9d0ae5cb09" d="M 115.363636 -55.733817 
L 115.363636 -52.021718 
L 116.958834 -41.76 
L 118.554031 -41.76 
L 120.149228 -41.76 
L 121.744425 -41.76 
L 123.339623 -47.12408 
L 124.93482 -41.76 
L 126.530017 -41.76 
L 128.125214 -41.76 
L 129.720412 -41.76 
L 131.315609 -50.447477 
L 132.910806 -48.037528 
L 134.506003 -41.76 
L 136.101201 -41.76 
L 137.696398 -41.76 
L 139.291595 -41.76 
L 140.886792 -41.76 
L 142.48199 -47.16295 
L 144.077187 -41.76 
L 145.672384 -41.76 
L 147.267581 -41.76 
L 148.862779 -41.76 
L 150.457976 -58.882298 
L 152.053173 -41.76 
L 153.64837 -41.76 
L 155.243568 -41.76 
L 156.838765 -41.76 
L 158.433962 -45.316618 
L 160.02916 -41.76 
L 161.624357 -41.76 
L 163.219554 -41.76 
L 164.814751 -41.76 
L 166.409949 -60.320494 
L 168.005146 -41.76 
L 169.600343 -41.76 
L 171.19554 -41.76 
L 172.790738 -41.76 
L 174.385935 -58.066025 
L 175.981132 -66.481411 
L 177.576329 -41.76 
L 179.171527 -41.76 
L 180.766724 -49.864425 
L 182.361921 -41.76 
L 183.957118 -41.76 
L 185.552316 -67.900172 
L 187.147513 -41.76 
L 188.74271 -41.76 
L 190.337907 -67.802996 
L 191.933105 -41.76 
L 193.528302 -41.76 
L 195.123499 -41.76 
L 196.718696 -41.76 
L 198.313894 -65.179262 
L 199.909091 -41.76 
L 201.504288 -41.76 
L 203.099485 -41.76 
L 204.694683 -41.76 
L 206.28988 -48.912106 
L 207.885077 -41.76 
L 209.480274 -41.76 
L 211.075472 -41.76 
L 212.670669 -55.36455 
L 214.265866 -41.76 
L 215.861063 -41.76 
L 217.456261 -41.76 
L 219.051458 -58.435292 
L 220.646655 -41.76 
L 222.241852 -41.76 
L 223.83705 -41.76 
L 225.432247 -41.76 
L 227.027444 -52.118893 
L 228.622642 -41.76 
L 230.217839 -41.76 
L 231.813036 -41.76 
L 233.408233 -41.76 
L 235.003431 -54.781498 
L 236.598628 -41.76 
L 238.193825 -41.76 
L 239.789022 -41.76 
L 241.38422 -54.470537 
L 242.979417 -41.76 
L 244.574614 -41.76 
L 246.169811 -41.76 
L 247.765009 -41.76 
L 249.360206 -41.76 
L 250.955403 -55.578336 
L 252.5506 -67.997347 
L 254.145798 -41.76 
L 255.740995 -41.76 
L 257.336192 -41.76 
L 258.931389 -53.459913 
L 260.526587 -41.76 
L 262.121784 -41.76 
L 263.716981 -71.49566 
L 265.312178 -41.76 
L 266.907376 -41.76 
L 268.502573 -41.76 
L 270.09777 -60.631455 
L 271.692967 -41.76 
L 273.288165 -41.76 
L 274.883362 -85.17795 
L 276.478559 -41.76 
L 278.073756 -41.76 
L 279.668954 -41.76 
L 281.264151 -54.839803 
L 282.859348 -41.76 
L 284.454545 -41.76 
L 286.049743 -41.76 
L 287.64494 -41.76 
L 289.240137 -81.621332 
L 290.835334 -41.76 
L 292.430532 -41.76 
L 294.025729 -41.76 
L 295.620926 -41.76 
L 297.216123 -67.025593 
L 298.811321 -41.76 
L 300.406518 -41.76 
L 302.001715 -41.76 
L 303.596913 -41.76 
L 305.19211 -64.129768 
L 306.787307 -41.76 
L 308.382504 -55.558901 
L 309.977702 -41.76 
L 311.572899 -41.76 
L 313.168096 -55.24794 
L 314.763293 -41.76 
L 316.358491 -52.352114 
L 317.953688 -41.76 
L 319.548885 -41.76 
L 321.144082 -41.76 
L 322.73928 -41.76 
L 324.334477 -41.76 
L 325.929674 -66.09271 
L 327.524871 -41.76 
L 329.120069 -41.76 
L 330.715266 -41.76 
L 332.310463 -41.76 
L 333.90566 -51.477536 
L 335.500858 -41.76 
L 337.096055 -41.76 
L 338.691252 -53.110082 
L 340.286449 -41.76 
L 341.881647 -41.76 
L 343.476844 -41.76 
L 345.072041 -41.76 
L 346.667238 -53.459913 
L 348.262436 -41.76 
L 349.857633 -78.803247 
L 351.45283 -41.76 
L 353.048027 -41.76 
L 354.643225 -52.216069 
L 356.238422 -41.76 
L 357.833619 -41.76 
L 359.428816 -41.76 
L 361.024014 -41.76 
L 362.619211 -59.698571 
L 364.214408 -52.235504 
L 365.809605 -41.76 
L 367.404803 -41.76 
L 369 -41.76 
L 370.595197 -41.76 
L 372.190395 -41.76 
L 373.785592 -51.380361 
L 375.380789 -49.942165 
L 376.975986 -41.76 
L 378.571184 -49.572899 
L 380.166381 -57.657889 
L 381.761578 -41.76 
L 383.356775 -41.76 
L 384.951973 -59.484786 
L 386.54717 -76.257252 
L 388.142367 -41.76 
L 389.737564 -41.76 
L 391.332762 -41.76 
L 392.927959 -41.76 
L 394.523156 -41.76 
L 396.118353 -77.714883 
L 397.713551 -57.327493 
L 399.308748 -41.76 
L 400.903945 -41.76 
L 402.499142 -50.661263 
L 404.09434 -41.76 
L 405.689537 -41.76 
L 407.284734 -41.76 
L 408.879931 -41.76 
L 410.475129 -55.28681 
L 412.070326 -41.76 
L 413.665523 -54.373362 
L 415.26072 -41.76 
L 416.855918 -41.76 
L 418.451115 -41.76 
L 420.046312 -41.76 
L 421.641509 -64.226943 
L 423.236707 -51.283185 
L 424.831904 -41.76 
L 426.427101 -52.64364 
L 428.022298 -41.76 
L 429.617496 -56.433479 
L 431.212693 -41.76 
L 432.80789 -41.76 
L 434.403087 -68.172263 
L 435.998285 -41.76 
L 437.593482 -41.76 
L 439.188679 -46.618768 
L 440.783877 -41.76 
L 442.379074 -41.76 
L 443.974271 -62.10852 
L 445.569468 -41.76 
L 447.164666 -41.76 
L 448.759863 -41.76 
L 450.35506 -41.76 
L 451.950257 -64.285248 
L 453.545455 -41.76 
L 455.140652 -41.76 
L 456.735849 -41.76 
L 458.331046 -55.558901 
L 459.926244 -41.76 
L 461.521441 -41.76 
L 463.116638 -41.76 
L 464.711835 -41.76 
L 466.307033 -41.76 
L 467.90223 -52.974036 
L 469.497427 -59.640266 
L 471.092624 -41.76 
L 472.687822 -41.76 
L 474.283019 -41.76 
L 475.878216 -41.76 
L 477.473413 -41.76 
L 479.068611 -44.053338 
L 480.663808 -41.76 
L 482.259005 -41.76 
L 483.854202 -41.76 
L 485.4494 -41.76 
L 487.044597 -49.475724 
L 488.639794 -41.76 
L 490.234991 -41.76 
L 491.830189 -41.76 
L 493.425386 -41.76 
L 495.020583 -52.546465 
L 496.61578 -41.76 
L 498.210978 -41.76 
L 499.806175 -73.614083 
L 501.401372 -41.76 
L 502.996569 -41.76 
L 504.591767 -41.76 
L 506.186964 -41.76 
L 507.782161 -41.76 
L 509.377358 -108.363991 
L 510.972556 -41.76 
L 512.567753 -41.76 
L 514.16295 -41.76 
L 515.758148 -41.76 
L 517.353345 -104.515847 
L 518.948542 -41.76 
L 520.543739 -73.983349 
L 522.138937 -41.76 
L 523.734134 -41.76 
L 525.329331 -63.663326 
L 526.924528 -41.76 
L 528.519726 -41.76 
L 530.114923 -56.880486 
L 531.71012 -41.76 
L 533.305317 -59.795747 
L 534.900515 -41.76 
L 536.495712 -41.76 
L 538.090909 -41.76 
L 539.686106 -41.76 
L 541.281304 -92.407797 
L 542.876501 -41.76 
L 544.471698 -41.76 
L 546.066895 -56.491784 
L 547.662093 -41.76 
L 549.25729 -41.76 
L 550.852487 -63.52728 
L 552.447684 -41.76 
L 554.042882 -41.76 
L 555.638079 -41.76 
L 557.233276 -41.76 
L 558.828473 -54.276186 
L 560.423671 -41.76 
L 562.018868 -41.76 
L 563.614065 -41.76 
L 565.209262 -41.76 
L 566.80446 -56.355739 
L 568.399657 -41.76 
L 569.994854 -41.76 
L 571.590051 -41.76 
L 573.185249 -41.76 
L 574.780446 -74.916233 
L 576.375643 -41.76 
L 577.97084 -41.76 
L 579.566038 -41.76 
L 581.161235 -41.76 
L 582.756432 -71.962102 
L 584.35163 -56.219693 
L 585.946827 -41.76 
L 587.542024 -41.76 
L 589.137221 -41.76 
L 590.732419 -41.76 
L 592.327616 -58.726818 
L 593.922813 -41.76 
L 595.51801 -41.76 
L 597.113208 -52.118893 
L 598.708405 -41.76 
L 600.303602 -41.76 
L 601.898799 -41.76 
L 603.493997 -41.76 
L 605.089194 -43.703507 
L 606.684391 -41.76 
L 608.279588 -41.76 
L 609.874786 -48.406795 
L 611.469983 -41.76 
L 613.06518 -75.499285 
L 614.660377 -41.76 
L 616.255575 -41.76 
L 617.850772 -41.76 
L 619.445969 -41.76 
L 621.041166 -41.76 
L 622.636364 -41.76 
L 622.636364 -41.76 
L 622.636364 -41.76 
L 621.041166 -42.284747 
L 619.445969 -42.284747 
L 617.850772 -42.304182 
L 616.255575 -42.304182 
L 614.660377 -42.323617 
L 613.06518 -80.99941 
L 611.469983 -51.011094 
L 609.874786 -59.193259 
L 608.279588 -46.910294 
L 606.684391 -46.871424 
L 605.089194 -48.853801 
L 603.493997 -49.592334 
L 601.898799 -56.064213 
L 600.303602 -51.574711 
L 598.708405 -48.931542 
L 597.113208 -56.880486 
L 595.51801 -50.875049 
L 593.922813 -52.118893 
L 592.327616 -67.647516 
L 590.732419 -53.459913 
L 589.137221 -54.237316 
L 587.542024 -53.654264 
L 585.946827 -52.332679 
L 584.35163 -70.27125 
L 582.756432 -94.040343 
L 581.161235 -65.237567 
L 579.566038 -63.779936 
L 577.97084 -65.082086 
L 576.375643 -63.099709 
L 574.780446 -106.614835 
L 573.185249 -73.925044 
L 571.590051 -72.137017 
L 569.994854 -77.928669 
L 568.399657 -82.787437 
L 566.80446 -97.596961 
L 565.209262 -82.865177 
L 563.614065 -64.771125 
L 562.018868 -67.822431 
L 560.423671 -64.576774 
L 558.828473 -66.287061 
L 557.233276 -49.903295 
L 555.638079 -49.88386 
L 554.042882 -51.613581 
L 552.447684 -50.155951 
L 550.852487 -70.251815 
L 549.25729 -63.002534 
L 547.662093 -63.352365 
L 546.066895 -78.20076 
L 544.471698 -57.735629 
L 542.876501 -63.099709 
L 541.281304 -111.609648 
L 539.686106 -62.769313 
L 538.090909 -62.14739 
L 536.495712 -66.384236 
L 534.900515 -64.013157 
L 533.305317 -77.792623 
L 531.71012 -46.599333 
L 530.114923 -60.242753 
L 528.519726 -56.763875 
L 526.924528 -57.852239 
L 525.329331 -83.312184 
L 523.734134 -79.755565 
L 522.138937 -82.204384 
L 520.543739 -99.870865 
L 518.948542 -72.214758 
L 517.353345 -131.802688 
L 515.758148 -78.919857 
L 514.16295 -89.492536 
L 512.567753 -85.799873 
L 510.972556 -83.64258 
L 509.377358 -143.405426 
L 507.782161 -84.9836 
L 506.186964 -87.937731 
L 504.591767 -78.453416 
L 502.996569 -68.638704 
L 501.401372 -74.022219 
L 499.806175 -82.165514 
L 498.210978 -50.525217 
L 496.61578 -49.475724 
L 495.020583 -62.672137 
L 493.425386 -50.311432 
L 491.830189 -50.291997 
L 490.234991 -49.106457 
L 488.639794 -57.385798 
L 487.044597 -67.958477 
L 485.4494 -53.887485 
L 483.854202 -50.758438 
L 482.259005 -46.346677 
L 480.663808 -47.804307 
L 479.068611 -50.194821 
L 477.473413 -56.394609 
L 475.878216 -65.062651 
L 474.283019 -59.620831 
L 472.687822 -58.513032 
L 471.092624 -56.647265 
L 469.497427 -67.628081 
L 467.90223 -60.942416 
L 466.307033 -50.564088 
L 464.711835 -51.652452 
L 463.116638 -49.184197 
L 461.521441 -49.087022 
L 459.926244 -48.776061 
L 458.331046 -58.066025 
L 456.735849 -45.608144 
L 455.140652 -46.171761 
L 453.545455 -47.16295 
L 451.950257 -67.200509 
L 450.35506 -44.48091 
L 448.759863 -43.722942 
L 447.164666 -44.51978 
L 445.569468 -45.063962 
L 443.974271 -65.023781 
L 442.379074 -47.298995 
L 440.783877 -48.348489 
L 439.188679 -52.041153 
L 437.593482 -43.975598 
L 435.998285 -45.355488 
L 434.403087 -70.174075 
L 432.80789 -46.579898 
L 431.212693 -47.182385 
L 429.617496 -61.156202 
L 428.022298 -56.608395 
L 426.427101 -64.246378 
L 424.831904 -59.096084 
L 423.236707 -58.804558 
L 421.641509 -70.15464 
L 420.046312 -52.779686 
L 418.451115 -50.136516 
L 416.855918 -47.065775 
L 415.26072 -48.173574 
L 413.665523 -61.020156 
L 412.070326 -46.618768 
L 410.475129 -63.099709 
L 408.879931 -50.097646 
L 407.284734 -52.021718 
L 405.689537 -51.905107 
L 404.09434 -48.717756 
L 402.499142 -53.518218 
L 400.903945 -44.655826 
L 399.308748 -45.238878 
L 397.713551 -58.862863 
L 396.118353 -80.435793 
L 394.523156 -44.305994 
L 392.927959 -44.208819 
L 391.332762 -44.772436 
L 389.737564 -45.433229 
L 388.142367 -45.044527 
L 386.54717 -83.331619 
L 384.951973 -64.75169 
L 383.356775 -54.587147 
L 381.761578 -55.034154 
L 380.166381 -70.640517 
L 378.571184 -63.119144 
L 376.975986 -53.246127 
L 375.380789 -55.986473 
L 373.785592 -56.297434 
L 372.190395 -46.618768 
L 370.595197 -47.104645 
L 369 -49.728379 
L 367.404803 -45.996846 
L 365.809605 -46.735378 
L 364.214408 -55.733817 
L 362.619211 -68.541529 
L 361.024014 -48.115268 
L 359.428816 -45.374923 
L 357.833619 -48.095833 
L 356.238422 -48.970412 
L 354.643225 -55.092459 
L 353.048027 -44.267124 
L 351.45283 -44.40317 
L 349.857633 -81.096585 
L 348.262436 -45.452664 
L 346.667238 -58.12433 
L 345.072041 -46.677073 
L 343.476844 -46.735378 
L 341.881647 -46.424417 
L 340.286449 -48.076398 
L 338.691252 -63.48841 
L 337.096055 -55.733817 
L 335.500858 -53.654264 
L 333.90566 -64.946041 
L 332.310463 -54.917544 
L 330.715266 -60.942416 
L 329.120069 -52.196634 
L 327.524871 -50.525217 
L 325.929674 -72.700634 
L 324.334477 -56.472349 
L 322.73928 -50.136516 
L 321.144082 -58.279811 
L 319.548885 -53.518218 
L 317.953688 -47.707132 
L 316.358491 -55.694946 
L 314.763293 -45.74419 
L 313.168096 -57.424668 
L 311.572899 -45.549839 
L 309.977702 -46.443852 
L 308.382504 -61.272812 
L 306.787307 -53.751439 
L 305.19211 -73.264251 
L 303.596913 -47.27956 
L 302.001715 -45.336053 
L 300.406518 -44.305994 
L 298.811321 -45.122267 
L 297.216123 -73.264251 
L 295.620926 -47.357301 
L 294.025729 -51.322055 
L 292.430532 -47.648827 
L 290.835334 -47.143515 
L 289.240137 -85.275126 
L 287.64494 -48.212444 
L 286.049743 -49.456288 
L 284.454545 -47.998658 
L 282.859348 -46.463287 
L 281.264151 -57.657889 
L 279.668954 -45.549839 
L 278.073756 -46.171761 
L 276.478559 -45.200008 
L 274.883362 -92.194011 
L 273.288165 -48.737191 
L 271.692967 -49.456288 
L 270.09777 -65.898359 
L 268.502573 -44.908482 
L 266.907376 -45.89967 
L 265.312178 -45.588709 
L 263.716981 -77.909234 
L 262.121784 -49.942165 
L 260.526587 -49.9616 
L 258.931389 -60.864676 
L 257.336192 -45.336053 
L 255.740995 -46.132891 
L 254.145798 -45.044527 
L 252.5506 -70.407296 
L 250.955403 -58.843428 
L 249.360206 -45.549839 
L 247.765009 -44.753001 
L 246.169811 -44.830741 
L 244.574614 -46.230067 
L 242.979417 -48.42623 
L 241.38422 -58.376986 
L 239.789022 -46.988034 
L 238.193825 -45.82193 
L 236.598628 -44.927917 
L 235.003431 -57.308057 
L 233.408233 -44.869611 
L 231.813036 -45.957976 
L 230.217839 -44.48091 
L 228.622642 -45.297183 
L 227.027444 -56.569525 
L 225.432247 -48.853801 
L 223.83705 -47.376736 
L 222.241852 -46.424417 
L 220.646655 -47.648827 
L 219.051458 -61.428293 
L 217.456261 -46.210631 
L 215.861063 -48.776061 
L 214.265866 -49.028717 
L 212.670669 -61.739254 
L 211.075472 -48.698321 
L 209.480274 -48.931542 
L 207.885077 -48.795496 
L 206.28988 -55.733817 
L 204.694683 -48.814931 
L 203.099485 -48.989847 
L 201.504288 -49.145327 
L 199.909091 -48.640015 
L 198.313894 -67.122769 
L 196.718696 -43.684072 
L 195.123499 -43.975598 
L 193.528302 -44.247689 
L 191.933105 -43.645202 
L 190.337907 -69.493847 
L 188.74271 -44.092209 
L 187.147513 -43.645202 
L 185.552316 -69.863114 
L 183.957118 -45.491534 
L 182.361921 -46.249502 
L 180.766724 -52.390984 
L 179.171527 -44.966787 
L 177.576329 -45.452664 
L 175.981132 -68.327743 
L 174.385935 -60.223318 
L 172.790738 -44.325429 
L 171.19554 -45.102832 
L 169.600343 -45.82193 
L 168.005146 -46.152326 
L 166.409949 -63.216319 
L 164.814751 -46.502158 
L 163.219554 -49.339678 
L 161.624357 -53.693134 
L 160.02916 -46.638203 
L 158.433962 -50.214256 
L 156.838765 -52.060588 
L 155.243568 -50.505782 
L 153.64837 -65.801184 
L 152.053173 -66.403671 
L 150.457976 -84.769814 
L 148.862779 -49.864425 
L 147.267581 -53.012907 
L 145.672384 -53.110082 
L 144.077187 -51.905107 
L 142.48199 -56.025343 
L 140.886792 -53.207257 
L 139.291595 -53.732004 
L 137.696398 -54.567712 
L 136.101201 -53.226692 
L 134.506003 -51.26375 
L 132.910806 -54.800933 
L 131.315609 -58.027155 
L 129.720412 -49.359113 
L 128.125214 -51.555276 
L 126.530017 -52.138328 
L 124.93482 -51.10827 
L 123.339623 -53.304433 
L 121.744425 -44.947352 
L 120.149228 -44.461475 
L 118.554031 -44.830741 
L 116.958834 -45.569274 
L 115.363636 -55.733817 
z
" style="stroke: #0000ff; stroke-width: 0.5"/>
    </defs>
    <g clip-path="url(#p0a7d9dc68f)">
     <use xlink:href="#m9d0ae5cb09" x="0" y="288" style="fill: #0000ff; stroke: #0000ff; stroke-width: 0.5"/>
    </g>
   </g>
   <g id="PolyCollection_3">
    <defs>
     <path id="mbc023d0d86" d="M 115.363636 -61.350552 
L 115.363636 -55.733817 
L 116.958834 -45.569274 
L 118.554031 -44.830741 
L 120.149228 -44.461475 
L 121.744425 -44.947352 
L 123.339623 -53.304433 
L 124.93482 -51.10827 
L 126.530017 -52.138328 
L 128.125214 -51.555276 
L 129.720412 -49.359113 
L 131.315609 -58.027155 
L 132.910806 -54.800933 
L 134.506003 -51.26375 
L 136.101201 -53.226692 
L 137.696398 -54.567712 
L 139.291595 -53.732004 
L 140.886792 -53.207257 
L 142.48199 -56.025343 
L 144.077187 -51.905107 
L 145.672384 -53.110082 
L 147.267581 -53.012907 
L 148.862779 -49.864425 
L 150.457976 -84.769814 
L 152.053173 -66.403671 
L 153.64837 -65.801184 
L 155.243568 -50.505782 
L 156.838765 -52.060588 
L 158.433962 -50.214256 
L 160.02916 -46.638203 
L 161.624357 -53.693134 
L 163.219554 -49.339678 
L 164.814751 -46.502158 
L 166.409949 -63.216319 
L 168.005146 -46.152326 
L 169.600343 -45.82193 
L 171.19554 -45.102832 
L 172.790738 -44.325429 
L 174.385935 -60.223318 
L 175.981132 -68.327743 
L 177.576329 -45.452664 
L 179.171527 -44.966787 
L 180.766724 -52.390984 
L 182.361921 -46.249502 
L 183.957118 -45.491534 
L 185.552316 -69.863114 
L 187.147513 -43.645202 
L 188.74271 -44.092209 
L 190.337907 -69.493847 
L 191.933105 -43.645202 
L 193.528302 -44.247689 
L 195.123499 -43.975598 
L 196.718696 -43.684072 
L 198.313894 -67.122769 
L 199.909091 -48.640015 
L 201.504288 -49.145327 
L 203.099485 -48.989847 
L 204.694683 -48.814931 
L 206.28988 -55.733817 
L 207.885077 -48.795496 
L 209.480274 -48.931542 
L 211.075472 -48.698321 
L 212.670669 -61.739254 
L 214.265866 -49.028717 
L 215.861063 -48.776061 
L 217.456261 -46.210631 
L 219.051458 -61.428293 
L 220.646655 -47.648827 
L 222.241852 -46.424417 
L 223.83705 -47.376736 
L 225.432247 -48.853801 
L 227.027444 -56.569525 
L 228.622642 -45.297183 
L 230.217839 -44.48091 
L 231.813036 -45.957976 
L 233.408233 -44.869611 
L 235.003431 -57.308057 
L 236.598628 -44.927917 
L 238.193825 -45.82193 
L 239.789022 -46.988034 
L 241.38422 -58.376986 
L 242.979417 -48.42623 
L 244.574614 -46.230067 
L 246.169811 -44.830741 
L 247.765009 -44.753001 
L 249.360206 -45.549839 
L 250.955403 -58.843428 
L 252.5506 -70.407296 
L 254.145798 -45.044527 
L 255.740995 -46.132891 
L 257.336192 -45.336053 
L 258.931389 -60.864676 
L 260.526587 -49.9616 
L 262.121784 -49.942165 
L 263.716981 -77.909234 
L 265.312178 -45.588709 
L 266.907376 -45.89967 
L 268.502573 -44.908482 
L 270.09777 -65.898359 
L 271.692967 -49.456288 
L 273.288165 -48.737191 
L 274.883362 -92.194011 
L 276.478559 -45.200008 
L 278.073756 -46.171761 
L 279.668954 -45.549839 
L 281.264151 -57.657889 
L 282.859348 -46.463287 
L 284.454545 -47.998658 
L 286.049743 -49.456288 
L 287.64494 -48.212444 
L 289.240137 -85.275126 
L 290.835334 -47.143515 
L 292.430532 -47.648827 
L 294.025729 -51.322055 
L 295.620926 -47.357301 
L 297.216123 -73.264251 
L 298.811321 -45.122267 
L 300.406518 -44.305994 
L 302.001715 -45.336053 
L 303.596913 -47.27956 
L 305.19211 -73.264251 
L 306.787307 -53.751439 
L 308.382504 -61.272812 
L 309.977702 -46.443852 
L 311.572899 -45.549839 
L 313.168096 -57.424668 
L 314.763293 -45.74419 
L 316.358491 -55.694946 
L 317.953688 -47.707132 
L 319.548885 -53.518218 
L 321.144082 -58.279811 
L 322.73928 -50.136516 
L 324.334477 -56.472349 
L 325.929674 -72.700634 
L 327.524871 -50.525217 
L 329.120069 -52.196634 
L 330.715266 -60.942416 
L 332.310463 -54.917544 
L 333.90566 -64.946041 
L 335.500858 -53.654264 
L 337.096055 -55.733817 
L 338.691252 -63.48841 
L 340.286449 -48.076398 
L 341.881647 -46.424417 
L 343.476844 -46.735378 
L 345.072041 -46.677073 
L 346.667238 -58.12433 
L 348.262436 -45.452664 
L 349.857633 -81.096585 
L 351.45283 -44.40317 
L 353.048027 -44.267124 
L 354.643225 -55.092459 
L 356.238422 -48.970412 
L 357.833619 -48.095833 
L 359.428816 -45.374923 
L 361.024014 -48.115268 
L 362.619211 -68.541529 
L 364.214408 -55.733817 
L 365.809605 -46.735378 
L 367.404803 -45.996846 
L 369 -49.728379 
L 370.595197 -47.104645 
L 372.190395 -46.618768 
L 373.785592 -56.297434 
L 375.380789 -55.986473 
L 376.975986 -53.246127 
L 378.571184 -63.119144 
L 380.166381 -70.640517 
L 381.761578 -55.034154 
L 383.356775 -54.587147 
L 384.951973 -64.75169 
L 386.54717 -83.331619 
L 388.142367 -45.044527 
L 389.737564 -45.433229 
L 391.332762 -44.772436 
L 392.927959 -44.208819 
L 394.523156 -44.305994 
L 396.118353 -80.435793 
L 397.713551 -58.862863 
L 399.308748 -45.238878 
L 400.903945 -44.655826 
L 402.499142 -53.518218 
L 404.09434 -48.717756 
L 405.689537 -51.905107 
L 407.284734 -52.021718 
L 408.879931 -50.097646 
L 410.475129 -63.099709 
L 412.070326 -46.618768 
L 413.665523 -61.020156 
L 415.26072 -48.173574 
L 416.855918 -47.065775 
L 418.451115 -50.136516 
L 420.046312 -52.779686 
L 421.641509 -70.15464 
L 423.236707 -58.804558 
L 424.831904 -59.096084 
L 426.427101 -64.246378 
L 428.022298 -56.608395 
L 429.617496 -61.156202 
L 431.212693 -47.182385 
L 432.80789 -46.579898 
L 434.403087 -70.174075 
L 435.998285 -45.355488 
L 437.593482 -43.975598 
L 439.188679 -52.041153 
L 440.783877 -48.348489 
L 442.379074 -47.298995 
L 443.974271 -65.023781 
L 445.569468 -45.063962 
L 447.164666 -44.51978 
L 448.759863 -43.722942 
L 450.35506 -44.48091 
L 451.950257 -67.200509 
L 453.545455 -47.16295 
L 455.140652 -46.171761 
L 456.735849 -45.608144 
L 458.331046 -58.066025 
L 459.926244 -48.776061 
L 461.521441 -49.087022 
L 463.116638 -49.184197 
L 464.711835 -51.652452 
L 466.307033 -50.564088 
L 467.90223 -60.942416 
L 469.497427 -67.628081 
L 471.092624 -56.647265 
L 472.687822 -58.513032 
L 474.283019 -59.620831 
L 475.878216 -65.062651 
L 477.473413 -56.394609 
L 479.068611 -50.194821 
L 480.663808 -47.804307 
L 482.259005 -46.346677 
L 483.854202 -50.758438 
L 485.4494 -53.887485 
L 487.044597 -67.958477 
L 488.639794 -57.385798 
L 490.234991 -49.106457 
L 491.830189 -50.291997 
L 493.425386 -50.311432 
L 495.020583 -62.672137 
L 496.61578 -49.475724 
L 498.210978 -50.525217 
L 499.806175 -82.165514 
L 501.401372 -74.022219 
L 502.996569 -68.638704 
L 504.591767 -78.453416 
L 506.186964 -87.937731 
L 507.782161 -84.9836 
L 509.377358 -143.405426 
L 510.972556 -83.64258 
L 512.567753 -85.799873 
L 514.16295 -89.492536 
L 515.758148 -78.919857 
L 517.353345 -131.802688 
L 518.948542 -72.214758 
L 520.543739 -99.870865 
L 522.138937 -82.204384 
L 523.734134 -79.755565 
L 525.329331 -83.312184 
L 526.924528 -57.852239 
L 528.519726 -56.763875 
L 530.114923 -60.242753 
L 531.71012 -46.599333 
L 533.305317 -77.792623 
L 534.900515 -64.013157 
L 536.495712 -66.384236 
L 538.090909 -62.14739 
L 539.686106 -62.769313 
L 541.281304 -111.609648 
L 542.876501 -63.099709 
L 544.471698 -57.735629 
L 546.066895 -78.20076 
L 547.662093 -63.352365 
L 549.25729 -63.002534 
L 550.852487 -70.251815 
L 552.447684 -50.155951 
L 554.042882 -51.613581 
L 555.638079 -49.88386 
L 557.233276 -49.903295 
L 558.828473 -66.287061 
L 560.423671 -64.576774 
L 562.018868 -67.822431 
L 563.614065 -64.771125 
L 565.209262 -82.865177 
L 566.80446 -97.596961 
L 568.399657 -82.787437 
L 569.994854 -77.928669 
L 571.590051 -72.137017 
L 573.185249 -73.925044 
L 574.780446 -106.614835 
L 576.375643 -63.099709 
L 577.97084 -65.082086 
L 579.566038 -63.779936 
L 581.161235 -65.237567 
L 582.756432 -94.040343 
L 584.35163 -70.27125 
L 585.946827 -52.332679 
L 587.542024 -53.654264 
L 589.137221 -54.237316 
L 590.732419 -53.459913 
L 592.327616 -67.647516 
L 593.922813 -52.118893 
L 595.51801 -50.875049 
L 597.113208 -56.880486 
L 598.708405 -48.931542 
L 600.303602 -51.574711 
L 601.898799 -56.064213 
L 603.493997 -49.592334 
L 605.089194 -48.853801 
L 606.684391 -46.871424 
L 608.279588 -46.910294 
L 609.874786 -59.193259 
L 611.469983 -51.011094 
L 613.06518 -80.99941 
L 614.660377 -42.323617 
L 616.255575 -42.304182 
L 617.850772 -42.304182 
L 619.445969 -42.284747 
L 621.041166 -42.284747 
L 622.636364 -41.76 
L 622.636364 -41.79887 
L 622.636364 -41.79887 
L 621.041166 -42.362487 
L 619.445969 -42.362487 
L 617.850772 -42.381922 
L 616.255575 -42.381922 
L 614.660377 -42.459663 
L 613.06518 -91.358303 
L 611.469983 -66.403671 
L 609.874786 -78.803247 
L 608.279588 -53.537654 
L 606.684391 -52.993472 
L 605.089194 -58.571337 
L 603.493997 -78.919857 
L 601.898799 -154.016975 
L 600.303602 -175.220638 
L 598.708405 -173.179956 
L 597.113208 -131.08359 
L 595.51801 -88.501348 
L 593.922813 -98.452105 
L 592.327616 -115.865929 
L 590.732419 -104.146581 
L 589.137221 -111.726259 
L 587.542024 -115.807624 
L 585.946827 -99.035157 
L 584.35163 -117.129209 
L 582.756432 -161.713263 
L 581.161235 -140.334684 
L 579.566038 -148.7112 
L 577.97084 -138.507788 
L 576.375643 -137.069592 
L 574.780446 -173.510352 
L 573.185249 -148.847246 
L 571.590051 -143.19164 
L 569.994854 -162.685017 
L 568.399657 -153.356182 
L 566.80446 -180.662458 
L 565.209262 -163.676206 
L 563.614065 -140.354119 
L 562.018868 -112.542532 
L 560.423671 -118.722884 
L 558.828473 -149.255382 
L 557.233276 -96.528032 
L 555.638079 -72.545154 
L 554.042882 -102.922171 
L 552.447684 -100.551092 
L 550.852487 -111.862304 
L 549.25729 -103.427483 
L 547.662093 -105.565341 
L 546.066895 -146.787128 
L 544.471698 -126.86618 
L 542.876501 -106.167828 
L 541.281304 -155.474605 
L 539.686106 -121.288314 
L 538.090909 -135.359306 
L 536.495712 -149.877305 
L 534.900515 -145.737634 
L 533.305317 -142.880679 
L 531.71012 -101.250755 
L 530.114923 -104.710198 
L 528.519726 -109.024784 
L 526.924528 -113.961292 
L 525.329331 -164.123212 
L 523.734134 -178.097029 
L 522.138937 -191.487793 
L 520.543739 -179.82675 
L 518.948542 -177.397366 
L 517.353345 -204.470421 
L 515.758148 -208.512916 
L 514.16295 -206.452799 
L 512.567753 -211.758573 
L 510.972556 -199.164647 
L 509.377358 -243.36 
L 507.782161 -192.712203 
L 506.186964 -208.415741 
L 504.591767 -209.679021 
L 502.996569 -154.502852 
L 501.401372 -175.220638 
L 499.806175 -109.102524 
L 498.210978 -74.022219 
L 496.61578 -106.070653 
L 495.020583 -98.957416 
L 493.425386 -87.957166 
L 491.830189 -79.366864 
L 490.234991 -93.923733 
L 488.639794 -94.56509 
L 487.044597 -95.342493 
L 485.4494 -66.753502 
L 483.854202 -70.718257 
L 482.259005 -60.067838 
L 480.663808 -55.073024 
L 479.068611 -58.221506 
L 477.473413 -91.92192 
L 475.878216 -111.493038 
L 474.283019 -107.178452 
L 472.687822 -100.862053 
L 471.092624 -91.747005 
L 469.497427 -82.826307 
L 467.90223 -78.550591 
L 466.307033 -71.165264 
L 464.711835 -98.354929 
L 463.116638 -87.374114 
L 461.521441 -64.110333 
L 459.926244 -63.002534 
L 458.331046 -61.369987 
L 456.735849 -54.295621 
L 455.140652 -60.359364 
L 453.545455 -62.06965 
L 451.950257 -77.967539 
L 450.35506 -50.894484 
L 448.759863 -47.823742 
L 447.164666 -52.177198 
L 445.569468 -53.168387 
L 443.974271 -70.27125 
L 442.379074 -60.534279 
L 440.783877 -62.380611 
L 439.188679 -64.090898 
L 437.593482 -48.814931 
L 435.998285 -53.693134 
L 434.403087 -73.555777 
L 432.80789 -60.709195 
L 431.212693 -68.230568 
L 429.617496 -82.515346 
L 428.022298 -71.223569 
L 426.427101 -93.029719 
L 424.831904 -79.153078 
L 423.236707 -91.80531 
L 421.641509 -82.768002 
L 420.046312 -71.690011 
L 418.451115 -68.288873 
L 416.855918 -56.62783 
L 415.26072 -64.479599 
L 413.665523 -70.951478 
L 412.070326 -56.122518 
L 410.475129 -70.932043 
L 408.879931 -59.990097 
L 407.284734 -75.55759 
L 405.689537 -66.831243 
L 404.09434 -67.569775 
L 402.499142 -56.103083 
L 400.903945 -50.019906 
L 399.308748 -50.058776 
L 397.713551 -60.845241 
L 396.118353 -84.905859 
L 394.523156 -48.562275 
L 392.927959 -47.823742 
L 391.332762 -50.739003 
L 389.737564 -51.535841 
L 388.142367 -50.019906 
L 386.54717 -94.467915 
L 384.951973 -81.485287 
L 383.356775 -80.047091 
L 381.761578 -84.264502 
L 380.166381 -88.268127 
L 378.571184 -79.230818 
L 376.975986 -72.447978 
L 375.380789 -67.58921 
L 373.785592 -69.124581 
L 372.190395 -54.295621 
L 370.595197 -59.34874 
L 369 -59.096084 
L 367.404803 -60.203883 
L 365.809605 -51.905107 
L 364.214408 -60.61202 
L 362.619211 -86.4801 
L 361.024014 -73.886174 
L 359.428816 -51.166575 
L 357.833619 -73.555777 
L 356.238422 -70.601647 
L 354.643225 -60.748065 
L 353.048027 -48.115268 
L 351.45283 -47.590522 
L 349.857633 -86.052529 
L 348.262436 -54.606582 
L 346.667238 -69.493847 
L 345.072041 -60.922981 
L 343.476844 -58.00772 
L 341.881647 -55.36455 
L 340.286449 -66.189885 
L 338.691252 -78.375675 
L 337.096055 -79.58065 
L 335.500858 -75.382674 
L 333.90566 -88.151516 
L 332.310463 -85.372301 
L 330.715266 -84.342242 
L 329.120069 -85.255691 
L 327.524871 -65.004346 
L 325.929674 -87.082587 
L 324.334477 -77.986974 
L 322.73928 -66.636892 
L 321.144082 -92.815934 
L 319.548885 -84.692074 
L 317.953688 -70.523906 
L 316.358491 -60.437104 
L 314.763293 -51.730192 
L 313.168096 -60.709195 
L 311.572899 -53.90692 
L 309.977702 -56.414044 
L 308.382504 -79.425169 
L 306.787307 -73.827869 
L 305.19211 -95.7895 
L 303.596913 -59.718006 
L 302.001715 -50.175386 
L 300.406518 -49.242503 
L 298.811321 -52.157763 
L 297.216123 -84.419983 
L 295.620926 -58.610207 
L 294.025729 -70.718257 
L 292.430532 -62.400046 
L 290.835334 -55.481161 
L 289.240137 -94.292999 
L 287.64494 -62.225131 
L 286.049743 -62.477787 
L 284.454545 -60.903546 
L 282.859348 -56.452914 
L 281.264151 -63.177449 
L 279.668954 -60.864676 
L 278.073756 -68.113957 
L 276.478559 -58.765688 
L 274.883362 -104.457542 
L 273.288165 -67.258814 
L 271.692967 -70.057465 
L 270.09777 -77.267876 
L 268.502573 -54.489972 
L 266.907376 -57.482973 
L 265.312178 -53.770874 
L 263.716981 -89.04553 
L 262.121784 -99.229507 
L 260.526587 -95.128707 
L 258.931389 -102.222508 
L 257.336192 -60.106708 
L 255.740995 -63.158014 
L 254.145798 -60.339929 
L 252.5506 -77.442792 
L 250.955403 -63.546716 
L 249.360206 -52.799121 
L 247.765009 -48.756626 
L 246.169811 -51.691322 
L 244.574614 -57.560713 
L 242.979417 -60.398234 
L 241.38422 -63.29406 
L 239.789022 -55.189635 
L 238.193825 -54.489972 
L 236.598628 -49.087022 
L 235.003431 -61.059026 
L 233.408233 -51.10827 
L 231.813036 -53.82918 
L 230.217839 -49.223068 
L 228.622642 -52.663075 
L 227.027444 -66.811808 
L 225.432247 -72.292498 
L 223.83705 -57.813369 
L 222.241852 -58.590772 
L 220.646655 -59.271 
L 219.051458 -64.052027 
L 217.456261 -51.769062 
L 215.861063 -61.214507 
L 214.265866 -59.892922 
L 212.670669 -79.677825 
L 211.075472 -70.329556 
L 209.480274 -70.970913 
L 207.885077 -70.19351 
L 206.28988 -80.027656 
L 204.694683 -72.720069 
L 203.099485 -72.331368 
L 201.504288 -74.236005 
L 199.909091 -71.281874 
L 198.313894 -73.031031 
L 196.718696 -53.265563 
L 195.123499 -52.915731 
L 193.528302 -53.090647 
L 191.933105 -51.049964 
L 190.337907 -73.205946 
L 188.74271 -49.242503 
L 187.147513 -46.715943 
L 185.552316 -72.720069 
L 183.957118 -51.555276 
L 182.361921 -52.52703 
L 180.766724 -58.610207 
L 179.171527 -56.025343 
L 177.576329 -56.297434 
L 175.981132 -73.322557 
L 174.385935 -64.343553 
L 172.790738 -50.214256 
L 171.19554 -50.097646 
L 169.600343 -52.041153 
L 168.005146 -51.885672 
L 166.409949 -66.928418 
L 164.814751 -54.392797 
L 163.219554 -64.226943 
L 161.624357 -75.440979 
L 160.02916 -87.898861 
L 158.433962 -97.441481 
L 156.838765 -97.985663 
L 155.243568 -118.159267 
L 153.64837 -93.243505 
L 152.053173 -102.72782 
L 150.457976 -128.887427 
L 148.862779 -107.547718 
L 147.267581 -86.557841 
L 145.672384 -83.409359 
L 144.077187 -79.949916 
L 142.48199 -82.107209 
L 140.886792 -77.831493 
L 139.291595 -83.098398 
L 137.696398 -87.568464 
L 136.101201 -80.552403 
L 134.506003 -76.548779 
L 132.910806 -95.692324 
L 131.315609 -101.036969 
L 129.720412 -94.467915 
L 128.125214 -95.148142 
L 126.530017 -105.643081 
L 124.93482 -82.320995 
L 123.339623 -66.228755 
L 121.744425 -53.323868 
L 120.149228 -49.942165 
L 118.554031 -52.915731 
L 116.958834 -55.889297 
L 115.363636 -61.350552 
z
" style="stroke: #008000; stroke-width: 0.5"/>
    </defs>
    <g clip-path="url(#p0a7d9dc68f)">
     <use xlink:href="#mbc023d0d86" x="0" y="288" style="fill: #008000; stroke: #008000; stroke-width: 0.5"/>
    </g>
   </g>
   <g id="line2d_24">
    <path d="M 90 44.64 
L 648 44.64 
" clip-path="url(#p0a7d9dc68f)" style="fill: none; stroke: #000000; stroke-width: 1.5; stroke-linecap: square"/>
   </g>
   <g id="line2d_25">
    <path d="M 90 203.443972 
L 648 203.443972 
" clip-path="url(#p0a7d9dc68f)" style="fill: none; stroke: #000000; stroke-width: 1.5; stroke-linecap: square"/>
   </g>
   <g id="patch_3">
    <path d="M 90 256.32 
L 90 34.56 
" style="fill: none; stroke: #000000; stroke-width: 0.8; stroke-linejoin: miter; stroke-linecap: square"/>
   </g>
   <g id="patch_4">
    <path d="M 648 256.32 
L 648 34.56 
" style="fill: none; stroke: #000000; stroke-width: 0.8; stroke-linejoin: miter; stroke-linecap: square"/>
   </g>
   <g id="patch_5">
    <path d="M 90 256.32 
L 648 256.32 
" style="fill: none; stroke: #000000; stroke-width: 0.8; stroke-linejoin: miter; stroke-linecap: square"/>
   </g>
   <g id="patch_6">
    <path d="M 90 34.56 
L 648 34.56 
" style="fill: none; stroke: #000000; stroke-width: 0.8; stroke-linejoin: miter; stroke-linecap: square"/>
   </g>
   <g id="text_20">
    <!-- peak (10,373) -->
    <g transform="translate(118.700327 41.3136) scale(0.1 -0.1)">
     <defs>
      <path id="DejaVuSans-Bold-70" d="M 1656 506 
L 1656 -1331 
L 538 -1331 
L 538 3500 
L 1656 3500 
L 1656 2988 
Q 1888 3294 2169 3439 
Q 2450 3584 2816 3584 
Q 3463 3584 3878 3070 
Q 4294 2556 4294 1747 
Q 4294 938 3878 423 
Q 3463 -91 2816 -91 
Q 2450 -91 2169 54 
Q 1888 200 1656 506 
z
M 2400 2772 
Q 2041 2772 1848 2508 
Q 1656 2244 1656 1747 
Q 1656 1250 1848 986 
Q 2041 722 2400 722 
Q 2759 722 2948 984 
Q 3138 1247 3138 1747 
Q 3138 2247 2948 2509 
Q 2759 2772 2400 2772 
z
" transform="scale(0.015625)"/>
      <path id="DejaVuSans-Bold-65" d="M 4031 1759 
L 4031 1441 
L 1416 1441 
Q 1456 1047 1700 850 
Q 1944 653 2381 653 
Q 2734 653 3104 758 
Q 3475 863 3866 1075 
L 3866 213 
Q 3469 63 3072 -14 
Q 2675 -91 2278 -91 
Q 1328 -91 801 392 
Q 275 875 275 1747 
Q 275 2603 792 3093 
Q 1309 3584 2216 3584 
Q 3041 3584 3536 3087 
Q 4031 2591 4031 1759 
z
M 2881 2131 
Q 2881 2450 2695 2645 
Q 2509 2841 2209 2841 
Q 1884 2841 1681 2658 
Q 1478 2475 1428 2131 
L 2881 2131 
z
" transform="scale(0.015625)"/>
      <path id="DejaVuSans-Bold-61" d="M 2106 1575 
Q 1756 1575 1579 1456 
Q 1403 1338 1403 1106 
Q 1403 894 1545 773 
Q 1688 653 1941 653 
Q 2256 653 2472 879 
Q 2688 1106 2688 1447 
L 2688 1575 
L 2106 1575 
z
M 3816 1997 
L 3816 0 
L 2688 0 
L 2688 519 
Q 2463 200 2181 54 
Q 1900 -91 1497 -91 
Q 953 -91 614 226 
Q 275 544 275 1050 
Q 275 1666 698 1953 
Q 1122 2241 2028 2241 
L 2688 2241 
L 2688 2328 
Q 2688 2594 2478 2717 
Q 2269 2841 1825 2841 
Q 1466 2841 1156 2769 
Q 847 2697 581 2553 
L 581 3406 
Q 941 3494 1303 3539 
Q 1666 3584 2028 3584 
Q 2975 3584 3395 3211 
Q 3816 2838 3816 1997 
z
" transform="scale(0.015625)"/>
      <path id="DejaVuSans-Bold-6b" d="M 538 4863 
L 1656 4863 
L 1656 2216 
L 2944 3500 
L 4244 3500 
L 2534 1894 
L 4378 0 
L 3022 0 
L 1656 1459 
L 1656 0 
L 538 0 
L 538 4863 
z
" transform="scale(0.015625)"/>
      <path id="DejaVuSans-Bold-20" transform="scale(0.015625)"/>
      <path id="DejaVuSans-Bold-28" d="M 2413 -844 
L 1484 -844 
Q 1006 -72 778 623 
Q 550 1319 550 2003 
Q 550 2688 779 3389 
Q 1009 4091 1484 4856 
L 2413 4856 
Q 2013 4116 1813 3408 
Q 1613 2700 1613 2009 
Q 1613 1319 1811 609 
Q 2009 -100 2413 -844 
z
" transform="scale(0.015625)"/>
      <path id="DejaVuSans-Bold-31" d="M 750 831 
L 1813 831 
L 1813 3847 
L 722 3622 
L 722 4441 
L 1806 4666 
L 2950 4666 
L 2950 831 
L 4013 831 
L 4013 0 
L 750 0 
L 750 831 
z
" transform="scale(0.015625)"/>
      <path id="DejaVuSans-Bold-30" d="M 2944 2338 
Q 2944 3213 2780 3570 
Q 2616 3928 2228 3928 
Q 1841 3928 1675 3570 
Q 1509 3213 1509 2338 
Q 1509 1453 1675 1090 
Q 1841 728 2228 728 
Q 2613 728 2778 1090 
Q 2944 1453 2944 2338 
z
M 4147 2328 
Q 4147 1169 3647 539 
Q 3147 -91 2228 -91 
Q 1306 -91 806 539 
Q 306 1169 306 2328 
Q 306 3491 806 4120 
Q 1306 4750 2228 4750 
Q 3147 4750 3647 4120 
Q 4147 3491 4147 2328 
z
" transform="scale(0.015625)"/>
      <path id="DejaVuSans-Bold-2c" d="M 653 1209 
L 1778 1209 
L 1778 256 
L 1006 -909 
L 341 -909 
L 653 256 
L 653 1209 
z
" transform="scale(0.015625)"/>
      <path id="DejaVuSans-Bold-33" d="M 2981 2516 
Q 3453 2394 3698 2092 
Q 3944 1791 3944 1325 
Q 3944 631 3412 270 
Q 2881 -91 1863 -91 
Q 1503 -91 1142 -33 
Q 781 25 428 141 
L 428 1069 
Q 766 900 1098 814 
Q 1431 728 1753 728 
Q 2231 728 2486 893 
Q 2741 1059 2741 1369 
Q 2741 1688 2480 1852 
Q 2219 2016 1709 2016 
L 1228 2016 
L 1228 2791 
L 1734 2791 
Q 2188 2791 2409 2933 
Q 2631 3075 2631 3366 
Q 2631 3634 2415 3781 
Q 2200 3928 1806 3928 
Q 1516 3928 1219 3862 
Q 922 3797 628 3669 
L 628 4550 
Q 984 4650 1334 4700 
Q 1684 4750 2022 4750 
Q 2931 4750 3382 4451 
Q 3834 4153 3834 3553 
Q 3834 3144 3618 2883 
Q 3403 2622 2981 2516 
z
" transform="scale(0.015625)"/>
      <path id="DejaVuSans-Bold-37" d="M 428 4666 
L 3944 4666 
L 3944 3988 
L 2125 0 
L 953 0 
L 2675 3781 
L 428 3781 
L 428 4666 
z
" transform="scale(0.015625)"/>
      <path id="DejaVuSans-Bold-29" d="M 513 -844 
Q 913 -100 1113 609 
Q 1313 1319 1313 2009 
Q 1313 2700 1113 3408 
Q 913 4116 513 4856 
L 1441 4856 
Q 1916 4091 2145 3389 
Q 2375 2688 2375 2003 
Q 2375 1319 2147 623 
Q 1919 -72 1441 -844 
L 513 -844 
z
" transform="scale(0.015625)"/>
     </defs>
     <use xlink:href="#DejaVuSans-Bold-70"/>
     <use xlink:href="#DejaVuSans-Bold-65" x="71.582031"/>
     <use xlink:href="#DejaVuSans-Bold-61" x="139.404297"/>
     <use xlink:href="#DejaVuSans-Bold-6b" x="206.884766"/>
     <use xlink:href="#DejaVuSans-Bold-20" x="273.388672"/>
     <use xlink:href="#DejaVuSans-Bold-28" x="308.203125"/>
     <use xlink:href="#DejaVuSans-Bold-31" x="353.90625"/>
     <use xlink:href="#DejaVuSans-Bold-30" x="423.486328"/>
     <use xlink:href="#DejaVuSans-Bold-2c" x="493.066406"/>
     <use xlink:href="#DejaVuSans-Bold-33" x="531.054688"/>
     <use xlink:href="#DejaVuSans-Bold-37" x="600.634766"/>
     <use xlink:href="#DejaVuSans-Bold-33" x="670.214844"/>
     <use xlink:href="#DejaVuSans-Bold-29" x="739.794922"/>
    </g>
   </g>
   <g id="text_21">
    <!-- mean (2,202) -->
    <g transform="translate(567.728153 200.117572) scale(0.1 -0.1)">
     <defs>
      <path id="DejaVuSans-Bold-6d" d="M 3781 2919 
Q 3994 3244 4286 3414 
Q 4578 3584 4928 3584 
Q 5531 3584 5847 3212 
Q 6163 2841 6163 2131 
L 6163 0 
L 5038 0 
L 5038 1825 
Q 5041 1866 5042 1909 
Q 5044 1953 5044 2034 
Q 5044 2406 4934 2573 
Q 4825 2741 4581 2741 
Q 4263 2741 4089 2478 
Q 3916 2216 3909 1719 
L 3909 0 
L 2784 0 
L 2784 1825 
Q 2784 2406 2684 2573 
Q 2584 2741 2328 2741 
Q 2006 2741 1831 2477 
Q 1656 2213 1656 1722 
L 1656 0 
L 531 0 
L 531 3500 
L 1656 3500 
L 1656 2988 
Q 1863 3284 2130 3434 
Q 2397 3584 2719 3584 
Q 3081 3584 3359 3409 
Q 3638 3234 3781 2919 
z
" transform="scale(0.015625)"/>
      <path id="DejaVuSans-Bold-6e" d="M 4056 2131 
L 4056 0 
L 2931 0 
L 2931 347 
L 2931 1631 
Q 2931 2084 2911 2256 
Q 2891 2428 2841 2509 
Q 2775 2619 2662 2680 
Q 2550 2741 2406 2741 
Q 2056 2741 1856 2470 
Q 1656 2200 1656 1722 
L 1656 0 
L 538 0 
L 538 3500 
L 1656 3500 
L 1656 2988 
Q 1909 3294 2193 3439 
Q 2478 3584 2822 3584 
Q 3428 3584 3742 3212 
Q 4056 2841 4056 2131 
z
" transform="scale(0.015625)"/>
      <path id="DejaVuSans-Bold-32" d="M 1844 884 
L 3897 884 
L 3897 0 
L 506 0 
L 506 884 
L 2209 2388 
Q 2438 2594 2547 2791 
Q 2656 2988 2656 3200 
Q 2656 3528 2436 3728 
Q 2216 3928 1850 3928 
Q 1569 3928 1234 3808 
Q 900 3688 519 3450 
L 519 4475 
Q 925 4609 1322 4679 
Q 1719 4750 2100 4750 
Q 2938 4750 3402 4381 
Q 3866 4013 3866 3353 
Q 3866 2972 3669 2642 
Q 3472 2313 2841 1759 
L 1844 884 
z
" transform="scale(0.015625)"/>
     </defs>
     <use xlink:href="#DejaVuSans-Bold-6d"/>
     <use xlink:href="#DejaVuSans-Bold-65" x="104.199219"/>
     <use xlink:href="#DejaVuSans-Bold-61" x="172.021484"/>
     <use xlink:href="#DejaVuSans-Bold-6e" x="239.501953"/>
     <use xlink:href="#DejaVuSans-Bold-20" x="310.693359"/>
     <use xlink:href="#DejaVuSans-Bold-28" x="345.507812"/>
     <use xlink:href="#DejaVuSans-Bold-32" x="391.210938"/>
     <use xlink:href="#DejaVuSans-Bold-2c" x="460.791016"/>
     <use xlink:href="#DejaVuSans-Bold-32" x="498.779297"/>
     <use xlink:href="#DejaVuSans-Bold-30" x="568.359375"/>
     <use xlink:href="#DejaVuSans-Bold-32" x="637.939453"/>
     <use xlink:href="#DejaVuSans-Bold-29" x="707.519531"/>
    </g>
   </g>
   <g id="text_22">
    <!-- Stream Bitrate over Time -->
    <g transform="translate(293.189062 28.56) scale(0.12 -0.12)">
     <defs>
      <path id="DejaVuSans-53" d="M 3425 4513 
L 3425 3897 
Q 3066 4069 2747 4153 
Q 2428 4238 2131 4238 
Q 1616 4238 1336 4038 
Q 1056 3838 1056 3469 
Q 1056 3159 1242 3001 
Q 1428 2844 1947 2747 
L 2328 2669 
Q 3034 2534 3370 2195 
Q 3706 1856 3706 1288 
Q 3706 609 3251 259 
Q 2797 -91 1919 -91 
Q 1588 -91 1214 -16 
Q 841 59 441 206 
L 441 856 
Q 825 641 1194 531 
Q 1563 422 1919 422 
Q 2459 422 2753 634 
Q 3047 847 3047 1241 
Q 3047 1584 2836 1778 
Q 2625 1972 2144 2069 
L 1759 2144 
Q 1053 2284 737 2584 
Q 422 2884 422 3419 
Q 422 4038 858 4394 
Q 1294 4750 2059 4750 
Q 2388 4750 2728 4690 
Q 3069 4631 3425 4513 
z
" transform="scale(0.015625)"/>
      <path id="DejaVuSans-6f" d="M 1959 3097 
Q 1497 3097 1228 2736 
Q 959 2375 959 1747 
Q 959 1119 1226 758 
Q 1494 397 1959 397 
Q 2419 397 2687 759 
Q 2956 1122 2956 1747 
Q 2956 2369 2687 2733 
Q 2419 3097 1959 3097 
z
M 1959 3584 
Q 2709 3584 3137 3096 
Q 3566 2609 3566 1747 
Q 3566 888 3137 398 
Q 2709 -91 1959 -91 
Q 1206 -91 779 398 
Q 353 888 353 1747 
Q 353 2609 779 3096 
Q 1206 3584 1959 3584 
z
" transform="scale(0.015625)"/>
      <path id="DejaVuSans-76" d="M 191 3500 
L 800 3500 
L 1894 563 
L 2988 3500 
L 3597 3500 
L 2284 0 
L 1503 0 
L 191 3500 
z
" transform="scale(0.015625)"/>
     </defs>
     <use xlink:href="#DejaVuSans-53"/>
     <use xlink:href="#DejaVuSans-74" x="63.476562"/>
     <use xlink:href="#DejaVuSans-72" x="102.685547"/>
     <use xlink:href="#DejaVuSans-65" x="141.548828"/>
     <use xlink:href="#DejaVuSans-61" x="203.072266"/>
     <use xlink:href="#DejaVuSans-6d" x="264.351562"/>
     <use xlink:href="#DejaVuSans-20" x="361.763672"/>
     <use xlink:href="#DejaVuSans-42" x="393.550781"/>
     <use xlink:href="#DejaVuSans-69" x="462.154297"/>
     <use xlink:href="#DejaVuSans-74" x="489.9375"/>
     <use xlink:href="#DejaVuSans-72" x="529.146484"/>
     <use xlink:href="#DejaVuSans-61" x="570.259766"/>
     <use xlink:href="#DejaVuSans-74" x="631.539062"/>
     <use xlink:href="#DejaVuSans-65" x="670.748047"/>
     <use xlink:href="#DejaVuSans-20" x="732.271484"/>
     <use xlink:href="#DejaVuSans-6f" x="764.058594"/>
     <use xlink:href="#DejaVuSans-76" x="825.240234"/>
     <use xlink:href="#DejaVuSans-65" x="884.419922"/>
     <use xlink:href="#DejaVuSans-72" x="945.943359"/>
     <use xlink:href="#DejaVuSans-20" x="987.056641"/>
     <use xlink:href="#DejaVuSans-54" x="1018.84375"/>
     <use xlink:href="#DejaVuSans-69" x="1076.802734"/>
     <use xlink:href="#DejaVuSans-6d" x="1104.585938"/>
     <use xlink:href="#DejaVuSans-65" x="1201.998047"/>
    </g>
   </g>
   <g id="legend_1">
    <g id="patch_7">
     <path d="M 602.139063 86.594375 
L 641 86.594375 
Q 643 86.594375 643 84.594375 
L 643 41.56 
Q 643 39.56 641 39.56 
L 602.139063 39.56 
Q 600.139063 39.56 600.139063 41.56 
L 600.139063 84.594375 
Q 600.139063 86.594375 602.139063 86.594375 
z
" style="fill: #ffffff; opacity: 0.8; stroke: #cccccc; stroke-linejoin: miter"/>
    </g>
    <g id="patch_8">
     <path d="M 604.139063 51.158438 
L 624.139063 51.158438 
L 624.139063 44.158438 
L 604.139063 44.158438 
z
" style="fill: #ff0000; stroke: #ff0000; stroke-width: 0.5; stroke-linejoin: miter"/>
    </g>
    <g id="text_23">
     <!-- I -->
     <g transform="translate(632.139063 51.158438) scale(0.1 -0.1)">
      <defs>
       <path id="DejaVuSans-49" d="M 628 4666 
L 1259 4666 
L 1259 0 
L 628 0 
L 628 4666 
z
" transform="scale(0.015625)"/>
      </defs>
      <use xlink:href="#DejaVuSans-49"/>
     </g>
    </g>
    <g id="patch_9">
     <path d="M 604.139063 65.836563 
L 624.139063 65.836563 
L 624.139063 58.836563 
L 604.139063 58.836563 
z
" style="fill: #0000ff; stroke: #0000ff; stroke-width: 0.5; stroke-linejoin: miter"/>
    </g>
    <g id="text_24">
     <!-- B -->
     <g transform="translate(632.139063 65.836563) scale(0.1 -0.1)">
      <use xlink:href="#DejaVuSans-42"/>
     </g>
    </g>
    <g id="patch_10">
     <path d="M 604.139063 80.514688 
L 624.139063 80.514688 
L 624.139063 73.514688 
L 604.139063 73.514688 
z
" style="fill: #008000; stroke: #008000; stroke-width: 0.5; stroke-linejoin: miter"/>
    </g>
    <g id="text_25">
     <!-- P -->
     <g transform="translate(632.139063 80.514688) scale(0.1 -0.1)">
      <defs>
       <path id="DejaVuSans-50" d="M 1259 4147 
L 1259 2394 
L 2053 2394 
Q 2494 2394 2734 2622 
Q 2975 2850 2975 3272 
Q 2975 3691 2734 3919 
Q 2494 4147 2053 4147 
L 1259 4147 
z
M 628 4666 
L 2053 4666 
Q 2838 4666 3239 4311 
Q 3641 3956 3641 3272 
Q 3641 2581 3239 2228 
Q 2838 1875 2053 1875 
L 1259 1875 
L 1259 0 
L 628 0 
L 628 4666 
z
" transform="scale(0.015625)"/>
      </defs>
      <use xlink:href="#DejaVuSans-50"/>
     </g>
    </g>
   </g>
  </g>
 </g>
 <defs>
  <clipPath id="p0a7d9dc68f">
   <rect x="90" y="34.56" width="558" height="221.76"/>
  </clipPath>
 </defs>
</svg>
