<?xml version="1.0" encoding="utf-8" standalone="no"?>
<!DOCTYPE svg PUBLIC "-//W3C//DTD SVG 1.1//EN"
  "http://www.w3.org/Graphics/SVG/1.1/DTD/svg11.dtd">
<svg xmlns:xlink="http://www.w3.org/1999/xlink" width="720pt" height="288pt" viewBox="0 0 720 288" xmlns="http://www.w3.org/2000/svg" version="1.1">
 <metadata>
  <rdf:RDF xmlns:dc="http://purl.org/dc/elements/1.1/" xmlns:cc="http://creativecommons.org/ns#" xmlns:rdf="http://www.w3.org/1999/02/22-rdf-syntax-ns#">
   <cc:Work>
    <dc:type rdf:resource="http://purl.org/dc/dcmitype/StillImage"/>
    <dc:date>2023-05-07T13:55:21.932900</dc:date>
    <dc:format>image/svg+xml</dc:format>
    <dc:creator>
     <cc:Agent>
      <dc:title>Matplotlib v3.7.1, https://matplotlib.org/</dc:title>
     </cc:Agent>
    </dc:creator>
   </cc:Work>
  </rdf:RDF>
 </metadata>
 <defs>
  <style type="text/css">*{stroke-linejoin: round; stroke-linecap: butt}</style>
 </defs>
 <g id="figure_1">
  <g id="patch_1">
   <path d="M 0 288 
L 720 288 
L 720 0 
L 0 0 
z
" style="fill: #ffffff"/>
  </g>
  <g id="axes_1">
   <g id="patch_2">
    <path d="M 90 256.32 
L 648 256.32 
L 648 34.56 
L 90 34.56 
z
" style="fill: #ffffff"/>
   </g>
   <g id="matplotlib.axis_1">
    <g id="xtick_1">
     <g id="line2d_1">
      <defs>
       <path id="m05f33174f3" d="M 0 0 
L 0 3.5 
" style="stroke: #000000; stroke-width: 0.8"/>
      </defs>
      <g>
       <use xlink:href="#m05f33174f3" x="115.363636" y="256.32" style="stroke: #000000; stroke-width: 0.8"/>
      </g>
     </g>
     <g id="text_1">
      <!-- 0:00:00 -->
      <g transform="translate(96.088636 270.918437) scale(0.1 -0.1)">
       <defs>
        <path id="DejaVuSans-30" d="M 2034 4250 
Q 1547 4250 1301 3770 
Q 1056 3291 1056 2328 
Q 1056 1369 1301 889 
Q 1547 409 2034 409 
Q 2525 409 2770 889 
Q 3016 1369 3016 2328 
Q 3016 3291 2770 3770 
Q 2525 4250 2034 4250 
z
M 2034 4750 
Q 2819 4750 3233 4129 
Q 3647 3509 3647 2328 
Q 3647 1150 3233 529 
Q 2819 -91 2034 -91 
Q 1250 -91 836 529 
Q 422 1150 422 2328 
Q 422 3509 836 4129 
Q 1250 4750 2034 4750 
z
" transform="scale(0.015625)"/>
        <path id="DejaVuSans-3a" d="M 750 794 
L 1409 794 
L 1409 0 
L 750 0 
L 750 794 
z
M 750 3309 
L 1409 3309 
L 1409 2516 
L 750 2516 
L 750 3309 
z
" transform="scale(0.015625)"/>
       </defs>
       <use xlink:href="#DejaVuSans-30"/>
       <use xlink:href="#DejaVuSans-3a" x="63.623047"/>
       <use xlink:href="#DejaVuSans-30" x="97.314453"/>
       <use xlink:href="#DejaVuSans-30" x="160.9375"/>
       <use xlink:href="#DejaVuSans-3a" x="224.560547"/>
       <use xlink:href="#DejaVuSans-30" x="258.251953"/>
       <use xlink:href="#DejaVuSans-30" x="321.875"/>
      </g>
     </g>
    </g>
    <g id="xtick_2">
     <g id="line2d_2">
      <g>
       <use xlink:href="#m05f33174f3" x="164.814751" y="256.32" style="stroke: #000000; stroke-width: 0.8"/>
      </g>
     </g>
     <g id="text_2">
      <!-- 0:00:31 -->
      <g transform="translate(145.539751 270.918437) scale(0.1 -0.1)">
       <defs>
        <path id="DejaVuSans-33" d="M 2597 2516 
Q 3050 2419 3304 2112 
Q 3559 1806 3559 1356 
Q 3559 666 3084 287 
Q 2609 -91 1734 -91 
Q 1441 -91 1130 -33 
Q 819 25 488 141 
L 488 750 
Q 750 597 1062 519 
Q 1375 441 1716 441 
Q 2309 441 2620 675 
Q 2931 909 2931 1356 
Q 2931 1769 2642 2001 
Q 2353 2234 1838 2234 
L 1294 2234 
L 1294 2753 
L 1863 2753 
Q 2328 2753 2575 2939 
Q 2822 3125 2822 3475 
Q 2822 3834 2567 4026 
Q 2313 4219 1838 4219 
Q 1578 4219 1281 4162 
Q 984 4106 628 3988 
L 628 4550 
Q 988 4650 1302 4700 
Q 1616 4750 1894 4750 
Q 2613 4750 3031 4423 
Q 3450 4097 3450 3541 
Q 3450 3153 3228 2886 
Q 3006 2619 2597 2516 
z
" transform="scale(0.015625)"/>
        <path id="DejaVuSans-31" d="M 794 531 
L 1825 531 
L 1825 4091 
L 703 3866 
L 703 4441 
L 1819 4666 
L 2450 4666 
L 2450 531 
L 3481 531 
L 3481 0 
L 794 0 
L 794 531 
z
" transform="scale(0.015625)"/>
       </defs>
       <use xlink:href="#DejaVuSans-30"/>
       <use xlink:href="#DejaVuSans-3a" x="63.623047"/>
       <use xlink:href="#DejaVuSans-30" x="97.314453"/>
       <use xlink:href="#DejaVuSans-30" x="160.9375"/>
       <use xlink:href="#DejaVuSans-3a" x="224.560547"/>
       <use xlink:href="#DejaVuSans-33" x="258.251953"/>
       <use xlink:href="#DejaVuSans-31" x="321.875"/>
      </g>
     </g>
    </g>
    <g id="xtick_3">
     <g id="line2d_3">
      <g>
       <use xlink:href="#m05f33174f3" x="214.265866" y="256.32" style="stroke: #000000; stroke-width: 0.8"/>
      </g>
     </g>
     <g id="text_3">
      <!-- 0:01:02 -->
      <g transform="translate(194.990866 270.918437) scale(0.1 -0.1)">
       <defs>
        <path id="DejaVuSans-32" d="M 1228 531 
L 3431 531 
L 3431 0 
L 469 0 
L 469 531 
Q 828 903 1448 1529 
Q 2069 2156 2228 2338 
Q 2531 2678 2651 2914 
Q 2772 3150 2772 3378 
Q 2772 3750 2511 3984 
Q 2250 4219 1831 4219 
Q 1534 4219 1204 4116 
Q 875 4013 500 3803 
L 500 4441 
Q 881 4594 1212 4672 
Q 1544 4750 1819 4750 
Q 2544 4750 2975 4387 
Q 3406 4025 3406 3419 
Q 3406 3131 3298 2873 
Q 3191 2616 2906 2266 
Q 2828 2175 2409 1742 
Q 1991 1309 1228 531 
z
" transform="scale(0.015625)"/>
       </defs>
       <use xlink:href="#DejaVuSans-30"/>
       <use xlink:href="#DejaVuSans-3a" x="63.623047"/>
       <use xlink:href="#DejaVuSans-30" x="97.314453"/>
       <use xlink:href="#DejaVuSans-31" x="160.9375"/>
       <use xlink:href="#DejaVuSans-3a" x="224.560547"/>
       <use xlink:href="#DejaVuSans-30" x="258.251953"/>
       <use xlink:href="#DejaVuSans-32" x="321.875"/>
      </g>
     </g>
    </g>
    <g id="xtick_4">
     <g id="line2d_4">
      <g>
       <use xlink:href="#m05f33174f3" x="263.716981" y="256.32" style="stroke: #000000; stroke-width: 0.8"/>
      </g>
     </g>
     <g id="text_4">
      <!-- 0:01:33 -->
      <g transform="translate(244.441981 270.918437) scale(0.1 -0.1)">
       <use xlink:href="#DejaVuSans-30"/>
       <use xlink:href="#DejaVuSans-3a" x="63.623047"/>
       <use xlink:href="#DejaVuSans-30" x="97.314453"/>
       <use xlink:href="#DejaVuSans-31" x="160.9375"/>
       <use xlink:href="#DejaVuSans-3a" x="224.560547"/>
       <use xlink:href="#DejaVuSans-33" x="258.251953"/>
       <use xlink:href="#DejaVuSans-33" x="321.875"/>
      </g>
     </g>
    </g>
    <g id="xtick_5">
     <g id="line2d_5">
      <g>
       <use xlink:href="#m05f33174f3" x="313.168096" y="256.32" style="stroke: #000000; stroke-width: 0.8"/>
      </g>
     </g>
     <g id="text_5">
      <!-- 0:02:04 -->
      <g transform="translate(293.893096 270.918437) scale(0.1 -0.1)">
       <defs>
        <path id="DejaVuSans-34" d="M 2419 4116 
L 825 1625 
L 2419 1625 
L 2419 4116 
z
M 2253 4666 
L 3047 4666 
L 3047 1625 
L 3713 1625 
L 3713 1100 
L 3047 1100 
L 3047 0 
L 2419 0 
L 2419 1100 
L 313 1100 
L 313 1709 
L 2253 4666 
z
" transform="scale(0.015625)"/>
       </defs>
       <use xlink:href="#DejaVuSans-30"/>
       <use xlink:href="#DejaVuSans-3a" x="63.623047"/>
       <use xlink:href="#DejaVuSans-30" x="97.314453"/>
       <use xlink:href="#DejaVuSans-32" x="160.9375"/>
       <use xlink:href="#DejaVuSans-3a" x="224.560547"/>
       <use xlink:href="#DejaVuSans-30" x="258.251953"/>
       <use xlink:href="#DejaVuSans-34" x="321.875"/>
      </g>
     </g>
    </g>
    <g id="xtick_6">
     <g id="line2d_6">
      <g>
       <use xlink:href="#m05f33174f3" x="362.619211" y="256.32" style="stroke: #000000; stroke-width: 0.8"/>
      </g>
     </g>
     <g id="text_6">
      <!-- 0:02:35 -->
      <g transform="translate(343.344211 270.918437) scale(0.1 -0.1)">
       <defs>
        <path id="DejaVuSans-35" d="M 691 4666 
L 3169 4666 
L 3169 4134 
L 1269 4134 
L 1269 2991 
Q 1406 3038 1543 3061 
Q 1681 3084 1819 3084 
Q 2600 3084 3056 2656 
Q 3513 2228 3513 1497 
Q 3513 744 3044 326 
Q 2575 -91 1722 -91 
Q 1428 -91 1123 -41 
Q 819 9 494 109 
L 494 744 
Q 775 591 1075 516 
Q 1375 441 1709 441 
Q 2250 441 2565 725 
Q 2881 1009 2881 1497 
Q 2881 1984 2565 2268 
Q 2250 2553 1709 2553 
Q 1456 2553 1204 2497 
Q 953 2441 691 2322 
L 691 4666 
z
" transform="scale(0.015625)"/>
       </defs>
       <use xlink:href="#DejaVuSans-30"/>
       <use xlink:href="#DejaVuSans-3a" x="63.623047"/>
       <use xlink:href="#DejaVuSans-30" x="97.314453"/>
       <use xlink:href="#DejaVuSans-32" x="160.9375"/>
       <use xlink:href="#DejaVuSans-3a" x="224.560547"/>
       <use xlink:href="#DejaVuSans-33" x="258.251953"/>
       <use xlink:href="#DejaVuSans-35" x="321.875"/>
      </g>
     </g>
    </g>
    <g id="xtick_7">
     <g id="line2d_7">
      <g>
       <use xlink:href="#m05f33174f3" x="412.070326" y="256.32" style="stroke: #000000; stroke-width: 0.8"/>
      </g>
     </g>
     <g id="text_7">
      <!-- 0:03:06 -->
      <g transform="translate(392.795326 270.918437) scale(0.1 -0.1)">
       <defs>
        <path id="DejaVuSans-36" d="M 2113 2584 
Q 1688 2584 1439 2293 
Q 1191 2003 1191 1497 
Q 1191 994 1439 701 
Q 1688 409 2113 409 
Q 2538 409 2786 701 
Q 3034 994 3034 1497 
Q 3034 2003 2786 2293 
Q 2538 2584 2113 2584 
z
M 3366 4563 
L 3366 3988 
Q 3128 4100 2886 4159 
Q 2644 4219 2406 4219 
Q 1781 4219 1451 3797 
Q 1122 3375 1075 2522 
Q 1259 2794 1537 2939 
Q 1816 3084 2150 3084 
Q 2853 3084 3261 2657 
Q 3669 2231 3669 1497 
Q 3669 778 3244 343 
Q 2819 -91 2113 -91 
Q 1303 -91 875 529 
Q 447 1150 447 2328 
Q 447 3434 972 4092 
Q 1497 4750 2381 4750 
Q 2619 4750 2861 4703 
Q 3103 4656 3366 4563 
z
" transform="scale(0.015625)"/>
       </defs>
       <use xlink:href="#DejaVuSans-30"/>
       <use xlink:href="#DejaVuSans-3a" x="63.623047"/>
       <use xlink:href="#DejaVuSans-30" x="97.314453"/>
       <use xlink:href="#DejaVuSans-33" x="160.9375"/>
       <use xlink:href="#DejaVuSans-3a" x="224.560547"/>
       <use xlink:href="#DejaVuSans-30" x="258.251953"/>
       <use xlink:href="#DejaVuSans-36" x="321.875"/>
      </g>
     </g>
    </g>
    <g id="xtick_8">
     <g id="line2d_8">
      <g>
       <use xlink:href="#m05f33174f3" x="461.521441" y="256.32" style="stroke: #000000; stroke-width: 0.8"/>
      </g>
     </g>
     <g id="text_8">
      <!-- 0:03:37 -->
      <g transform="translate(442.246441 270.918437) scale(0.1 -0.1)">
       <defs>
        <path id="DejaVuSans-37" d="M 525 4666 
L 3525 4666 
L 3525 4397 
L 1831 0 
L 1172 0 
L 2766 4134 
L 525 4134 
L 525 4666 
z
" transform="scale(0.015625)"/>
       </defs>
       <use xlink:href="#DejaVuSans-30"/>
       <use xlink:href="#DejaVuSans-3a" x="63.623047"/>
       <use xlink:href="#DejaVuSans-30" x="97.314453"/>
       <use xlink:href="#DejaVuSans-33" x="160.9375"/>
       <use xlink:href="#DejaVuSans-3a" x="224.560547"/>
       <use xlink:href="#DejaVuSans-33" x="258.251953"/>
       <use xlink:href="#DejaVuSans-37" x="321.875"/>
      </g>
     </g>
    </g>
    <g id="xtick_9">
     <g id="line2d_9">
      <g>
       <use xlink:href="#m05f33174f3" x="510.972556" y="256.32" style="stroke: #000000; stroke-width: 0.8"/>
      </g>
     </g>
     <g id="text_9">
      <!-- 0:04:08 -->
      <g transform="translate(491.697556 270.918437) scale(0.1 -0.1)">
       <defs>
        <path id="DejaVuSans-38" d="M 2034 2216 
Q 1584 2216 1326 1975 
Q 1069 1734 1069 1313 
Q 1069 891 1326 650 
Q 1584 409 2034 409 
Q 2484 409 2743 651 
Q 3003 894 3003 1313 
Q 3003 1734 2745 1975 
Q 2488 2216 2034 2216 
z
M 1403 2484 
Q 997 2584 770 2862 
Q 544 3141 544 3541 
Q 544 4100 942 4425 
Q 1341 4750 2034 4750 
Q 2731 4750 3128 4425 
Q 3525 4100 3525 3541 
Q 3525 3141 3298 2862 
Q 3072 2584 2669 2484 
Q 3125 2378 3379 2068 
Q 3634 1759 3634 1313 
Q 3634 634 3220 271 
Q 2806 -91 2034 -91 
Q 1263 -91 848 271 
Q 434 634 434 1313 
Q 434 1759 690 2068 
Q 947 2378 1403 2484 
z
M 1172 3481 
Q 1172 3119 1398 2916 
Q 1625 2713 2034 2713 
Q 2441 2713 2670 2916 
Q 2900 3119 2900 3481 
Q 2900 3844 2670 4047 
Q 2441 4250 2034 4250 
Q 1625 4250 1398 4047 
Q 1172 3844 1172 3481 
z
" transform="scale(0.015625)"/>
       </defs>
       <use xlink:href="#DejaVuSans-30"/>
       <use xlink:href="#DejaVuSans-3a" x="63.623047"/>
       <use xlink:href="#DejaVuSans-30" x="97.314453"/>
       <use xlink:href="#DejaVuSans-34" x="160.9375"/>
       <use xlink:href="#DejaVuSans-3a" x="224.560547"/>
       <use xlink:href="#DejaVuSans-30" x="258.251953"/>
       <use xlink:href="#DejaVuSans-38" x="321.875"/>
      </g>
     </g>
    </g>
    <g id="xtick_10">
     <g id="line2d_10">
      <g>
       <use xlink:href="#m05f33174f3" x="560.423671" y="256.32" style="stroke: #000000; stroke-width: 0.8"/>
      </g>
     </g>
     <g id="text_10">
      <!-- 0:04:39 -->
      <g transform="translate(541.148671 270.918437) scale(0.1 -0.1)">
       <defs>
        <path id="DejaVuSans-39" d="M 703 97 
L 703 672 
Q 941 559 1184 500 
Q 1428 441 1663 441 
Q 2288 441 2617 861 
Q 2947 1281 2994 2138 
Q 2813 1869 2534 1725 
Q 2256 1581 1919 1581 
Q 1219 1581 811 2004 
Q 403 2428 403 3163 
Q 403 3881 828 4315 
Q 1253 4750 1959 4750 
Q 2769 4750 3195 4129 
Q 3622 3509 3622 2328 
Q 3622 1225 3098 567 
Q 2575 -91 1691 -91 
Q 1453 -91 1209 -44 
Q 966 3 703 97 
z
M 1959 2075 
Q 2384 2075 2632 2365 
Q 2881 2656 2881 3163 
Q 2881 3666 2632 3958 
Q 2384 4250 1959 4250 
Q 1534 4250 1286 3958 
Q 1038 3666 1038 3163 
Q 1038 2656 1286 2365 
Q 1534 2075 1959 2075 
z
" transform="scale(0.015625)"/>
       </defs>
       <use xlink:href="#DejaVuSans-30"/>
       <use xlink:href="#DejaVuSans-3a" x="63.623047"/>
       <use xlink:href="#DejaVuSans-30" x="97.314453"/>
       <use xlink:href="#DejaVuSans-34" x="160.9375"/>
       <use xlink:href="#DejaVuSans-3a" x="224.560547"/>
       <use xlink:href="#DejaVuSans-33" x="258.251953"/>
       <use xlink:href="#DejaVuSans-39" x="321.875"/>
      </g>
     </g>
    </g>
    <g id="xtick_11">
     <g id="line2d_11">
      <g>
       <use xlink:href="#m05f33174f3" x="609.874786" y="256.32" style="stroke: #000000; stroke-width: 0.8"/>
      </g>
     </g>
     <g id="text_11">
      <!-- 0:05:10 -->
      <g transform="translate(590.599786 270.918437) scale(0.1 -0.1)">
       <use xlink:href="#DejaVuSans-30"/>
       <use xlink:href="#DejaVuSans-3a" x="63.623047"/>
       <use xlink:href="#DejaVuSans-30" x="97.314453"/>
       <use xlink:href="#DejaVuSans-35" x="160.9375"/>
       <use xlink:href="#DejaVuSans-3a" x="224.560547"/>
       <use xlink:href="#DejaVuSans-31" x="258.251953"/>
       <use xlink:href="#DejaVuSans-30" x="321.875"/>
      </g>
     </g>
    </g>
    <g id="text_12">
     <!-- Time -->
     <g transform="translate(356.766406 284.596563) scale(0.1 -0.1)">
      <defs>
       <path id="DejaVuSans-54" d="M -19 4666 
L 3928 4666 
L 3928 4134 
L 2272 4134 
L 2272 0 
L 1638 0 
L 1638 4134 
L -19 4134 
L -19 4666 
z
" transform="scale(0.015625)"/>
       <path id="DejaVuSans-69" d="M 603 3500 
L 1178 3500 
L 1178 0 
L 603 0 
L 603 3500 
z
M 603 4863 
L 1178 4863 
L 1178 4134 
L 603 4134 
L 603 4863 
z
" transform="scale(0.015625)"/>
       <path id="DejaVuSans-6d" d="M 3328 2828 
Q 3544 3216 3844 3400 
Q 4144 3584 4550 3584 
Q 5097 3584 5394 3201 
Q 5691 2819 5691 2113 
L 5691 0 
L 5113 0 
L 5113 2094 
Q 5113 2597 4934 2840 
Q 4756 3084 4391 3084 
Q 3944 3084 3684 2787 
Q 3425 2491 3425 1978 
L 3425 0 
L 2847 0 
L 2847 2094 
Q 2847 2600 2669 2842 
Q 2491 3084 2119 3084 
Q 1678 3084 1418 2786 
Q 1159 2488 1159 1978 
L 1159 0 
L 581 0 
L 581 3500 
L 1159 3500 
L 1159 2956 
Q 1356 3278 1631 3431 
Q 1906 3584 2284 3584 
Q 2666 3584 2933 3390 
Q 3200 3197 3328 2828 
z
" transform="scale(0.015625)"/>
       <path id="DejaVuSans-65" d="M 3597 1894 
L 3597 1613 
L 953 1613 
Q 991 1019 1311 708 
Q 1631 397 2203 397 
Q 2534 397 2845 478 
Q 3156 559 3463 722 
L 3463 178 
Q 3153 47 2828 -22 
Q 2503 -91 2169 -91 
Q 1331 -91 842 396 
Q 353 884 353 1716 
Q 353 2575 817 3079 
Q 1281 3584 2069 3584 
Q 2775 3584 3186 3129 
Q 3597 2675 3597 1894 
z
M 3022 2063 
Q 3016 2534 2758 2815 
Q 2500 3097 2075 3097 
Q 1594 3097 1305 2825 
Q 1016 2553 972 2059 
L 3022 2063 
z
" transform="scale(0.015625)"/>
      </defs>
      <use xlink:href="#DejaVuSans-54"/>
      <use xlink:href="#DejaVuSans-69" x="57.958984"/>
      <use xlink:href="#DejaVuSans-6d" x="85.742188"/>
      <use xlink:href="#DejaVuSans-65" x="183.154297"/>
     </g>
    </g>
   </g>
   <g id="matplotlib.axis_2">
    <g id="ytick_1">
     <g id="line2d_12">
      <path d="M 90 246.24 
L 648 246.24 
" clip-path="url(#pc9c9c4e101)" style="fill: none; stroke: #b0b0b0; stroke-width: 0.8; stroke-linecap: square"/>
     </g>
     <g id="line2d_13">
      <defs>
       <path id="md5e7221ad7" d="M 0 0 
L -3.5 0 
" style="stroke: #000000; stroke-width: 0.8"/>
      </defs>
      <g>
       <use xlink:href="#md5e7221ad7" x="90" y="246.24" style="stroke: #000000; stroke-width: 0.8"/>
      </g>
     </g>
     <g id="text_13">
      <!-- 0 -->
      <g transform="translate(76.6375 250.039219) scale(0.1 -0.1)">
       <use xlink:href="#DejaVuSans-30"/>
      </g>
     </g>
    </g>
    <g id="ytick_2">
     <g id="line2d_14">
      <path d="M 90 213.942659 
L 648 213.942659 
" clip-path="url(#pc9c9c4e101)" style="fill: none; stroke: #b0b0b0; stroke-width: 0.8; stroke-linecap: square"/>
     </g>
     <g id="line2d_15">
      <g>
       <use xlink:href="#md5e7221ad7" x="90" y="213.942659" style="stroke: #000000; stroke-width: 0.8"/>
      </g>
     </g>
     <g id="text_14">
      <!-- 1,000 -->
      <g transform="translate(54.371875 217.741878) scale(0.1 -0.1)">
       <defs>
        <path id="DejaVuSans-2c" d="M 750 794 
L 1409 794 
L 1409 256 
L 897 -744 
L 494 -744 
L 750 256 
L 750 794 
z
" transform="scale(0.015625)"/>
       </defs>
       <use xlink:href="#DejaVuSans-31"/>
       <use xlink:href="#DejaVuSans-2c" x="63.623047"/>
       <use xlink:href="#DejaVuSans-30" x="95.410156"/>
       <use xlink:href="#DejaVuSans-30" x="159.033203"/>
       <use xlink:href="#DejaVuSans-30" x="222.65625"/>
      </g>
     </g>
    </g>
    <g id="ytick_3">
     <g id="line2d_16">
      <path d="M 90 181.645319 
L 648 181.645319 
" clip-path="url(#pc9c9c4e101)" style="fill: none; stroke: #b0b0b0; stroke-width: 0.8; stroke-linecap: square"/>
     </g>
     <g id="line2d_17">
      <g>
       <use xlink:href="#md5e7221ad7" x="90" y="181.645319" style="stroke: #000000; stroke-width: 0.8"/>
      </g>
     </g>
     <g id="text_15">
      <!-- 2,000 -->
      <g transform="translate(54.371875 185.444538) scale(0.1 -0.1)">
       <use xlink:href="#DejaVuSans-32"/>
       <use xlink:href="#DejaVuSans-2c" x="63.623047"/>
       <use xlink:href="#DejaVuSans-30" x="95.410156"/>
       <use xlink:href="#DejaVuSans-30" x="159.033203"/>
       <use xlink:href="#DejaVuSans-30" x="222.65625"/>
      </g>
     </g>
    </g>
    <g id="ytick_4">
     <g id="line2d_18">
      <path d="M 90 149.347978 
L 648 149.347978 
" clip-path="url(#pc9c9c4e101)" style="fill: none; stroke: #b0b0b0; stroke-width: 0.8; stroke-linecap: square"/>
     </g>
     <g id="line2d_19">
      <g>
       <use xlink:href="#md5e7221ad7" x="90" y="149.347978" style="stroke: #000000; stroke-width: 0.8"/>
      </g>
     </g>
     <g id="text_16">
      <!-- 3,000 -->
      <g transform="translate(54.371875 153.147197) scale(0.1 -0.1)">
       <use xlink:href="#DejaVuSans-33"/>
       <use xlink:href="#DejaVuSans-2c" x="63.623047"/>
       <use xlink:href="#DejaVuSans-30" x="95.410156"/>
       <use xlink:href="#DejaVuSans-30" x="159.033203"/>
       <use xlink:href="#DejaVuSans-30" x="222.65625"/>
      </g>
     </g>
    </g>
    <g id="ytick_5">
     <g id="line2d_20">
      <path d="M 90 117.050638 
L 648 117.050638 
" clip-path="url(#pc9c9c4e101)" style="fill: none; stroke: #b0b0b0; stroke-width: 0.8; stroke-linecap: square"/>
     </g>
     <g id="line2d_21">
      <g>
       <use xlink:href="#md5e7221ad7" x="90" y="117.050638" style="stroke: #000000; stroke-width: 0.8"/>
      </g>
     </g>
     <g id="text_17">
      <!-- 4,000 -->
      <g transform="translate(54.371875 120.849856) scale(0.1 -0.1)">
       <use xlink:href="#DejaVuSans-34"/>
       <use xlink:href="#DejaVuSans-2c" x="63.623047"/>
       <use xlink:href="#DejaVuSans-30" x="95.410156"/>
       <use xlink:href="#DejaVuSans-30" x="159.033203"/>
       <use xlink:href="#DejaVuSans-30" x="222.65625"/>
      </g>
     </g>
    </g>
    <g id="ytick_6">
     <g id="line2d_22">
      <path d="M 90 84.753297 
L 648 84.753297 
" clip-path="url(#pc9c9c4e101)" style="fill: none; stroke: #b0b0b0; stroke-width: 0.8; stroke-linecap: square"/>
     </g>
     <g id="line2d_23">
      <g>
       <use xlink:href="#md5e7221ad7" x="90" y="84.753297" style="stroke: #000000; stroke-width: 0.8"/>
      </g>
     </g>
     <g id="text_18">
      <!-- 5,000 -->
      <g transform="translate(54.371875 88.552516) scale(0.1 -0.1)">
       <use xlink:href="#DejaVuSans-35"/>
       <use xlink:href="#DejaVuSans-2c" x="63.623047"/>
       <use xlink:href="#DejaVuSans-30" x="95.410156"/>
       <use xlink:href="#DejaVuSans-30" x="159.033203"/>
       <use xlink:href="#DejaVuSans-30" x="222.65625"/>
      </g>
     </g>
    </g>
    <g id="ytick_7">
     <g id="line2d_24">
      <path d="M 90 52.455956 
L 648 52.455956 
" clip-path="url(#pc9c9c4e101)" style="fill: none; stroke: #b0b0b0; stroke-width: 0.8; stroke-linecap: square"/>
     </g>
     <g id="line2d_25">
      <g>
       <use xlink:href="#md5e7221ad7" x="90" y="52.455956" style="stroke: #000000; stroke-width: 0.8"/>
      </g>
     </g>
     <g id="text_19">
      <!-- 6,000 -->
      <g transform="translate(54.371875 56.255175) scale(0.1 -0.1)">
       <use xlink:href="#DejaVuSans-36"/>
       <use xlink:href="#DejaVuSans-2c" x="63.623047"/>
       <use xlink:href="#DejaVuSans-30" x="95.410156"/>
       <use xlink:href="#DejaVuSans-30" x="159.033203"/>
       <use xlink:href="#DejaVuSans-30" x="222.65625"/>
      </g>
     </g>
    </g>
    <g id="text_20">
     <!-- Bitrate (kbit/s) -->
     <g transform="translate(48.292187 181.574375) rotate(-90) scale(0.1 -0.1)">
      <defs>
       <path id="DejaVuSans-42" d="M 1259 2228 
L 1259 519 
L 2272 519 
Q 2781 519 3026 730 
Q 3272 941 3272 1375 
Q 3272 1813 3026 2020 
Q 2781 2228 2272 2228 
L 1259 2228 
z
M 1259 4147 
L 1259 2741 
L 2194 2741 
Q 2656 2741 2882 2914 
Q 3109 3088 3109 3444 
Q 3109 3797 2882 3972 
Q 2656 4147 2194 4147 
L 1259 4147 
z
M 628 4666 
L 2241 4666 
Q 2963 4666 3353 4366 
Q 3744 4066 3744 3513 
Q 3744 3084 3544 2831 
Q 3344 2578 2956 2516 
Q 3422 2416 3680 2098 
Q 3938 1781 3938 1306 
Q 3938 681 3513 340 
Q 3088 0 2303 0 
L 628 0 
L 628 4666 
z
" transform="scale(0.015625)"/>
       <path id="DejaVuSans-74" d="M 1172 4494 
L 1172 3500 
L 2356 3500 
L 2356 3053 
L 1172 3053 
L 1172 1153 
Q 1172 725 1289 603 
Q 1406 481 1766 481 
L 2356 481 
L 2356 0 
L 1766 0 
Q 1100 0 847 248 
Q 594 497 594 1153 
L 594 3053 
L 172 3053 
L 172 3500 
L 594 3500 
L 594 4494 
L 1172 4494 
z
" transform="scale(0.015625)"/>
       <path id="DejaVuSans-72" d="M 2631 2963 
Q 2534 3019 2420 3045 
Q 2306 3072 2169 3072 
Q 1681 3072 1420 2755 
Q 1159 2438 1159 1844 
L 1159 0 
L 581 0 
L 581 3500 
L 1159 3500 
L 1159 2956 
Q 1341 3275 1631 3429 
Q 1922 3584 2338 3584 
Q 2397 3584 2469 3576 
Q 2541 3569 2628 3553 
L 2631 2963 
z
" transform="scale(0.015625)"/>
       <path id="DejaVuSans-61" d="M 2194 1759 
Q 1497 1759 1228 1600 
Q 959 1441 959 1056 
Q 959 750 1161 570 
Q 1363 391 1709 391 
Q 2188 391 2477 730 
Q 2766 1069 2766 1631 
L 2766 1759 
L 2194 1759 
z
M 3341 1997 
L 3341 0 
L 2766 0 
L 2766 531 
Q 2569 213 2275 61 
Q 1981 -91 1556 -91 
Q 1019 -91 701 211 
Q 384 513 384 1019 
Q 384 1609 779 1909 
Q 1175 2209 1959 2209 
L 2766 2209 
L 2766 2266 
Q 2766 2663 2505 2880 
Q 2244 3097 1772 3097 
Q 1472 3097 1187 3025 
Q 903 2953 641 2809 
L 641 3341 
Q 956 3463 1253 3523 
Q 1550 3584 1831 3584 
Q 2591 3584 2966 3190 
Q 3341 2797 3341 1997 
z
" transform="scale(0.015625)"/>
       <path id="DejaVuSans-20" transform="scale(0.015625)"/>
       <path id="DejaVuSans-28" d="M 1984 4856 
Q 1566 4138 1362 3434 
Q 1159 2731 1159 2009 
Q 1159 1288 1364 580 
Q 1569 -128 1984 -844 
L 1484 -844 
Q 1016 -109 783 600 
Q 550 1309 550 2009 
Q 550 2706 781 3412 
Q 1013 4119 1484 4856 
L 1984 4856 
z
" transform="scale(0.015625)"/>
       <path id="DejaVuSans-6b" d="M 581 4863 
L 1159 4863 
L 1159 1991 
L 2875 3500 
L 3609 3500 
L 1753 1863 
L 3688 0 
L 2938 0 
L 1159 1709 
L 1159 0 
L 581 0 
L 581 4863 
z
" transform="scale(0.015625)"/>
       <path id="DejaVuSans-62" d="M 3116 1747 
Q 3116 2381 2855 2742 
Q 2594 3103 2138 3103 
Q 1681 3103 1420 2742 
Q 1159 2381 1159 1747 
Q 1159 1113 1420 752 
Q 1681 391 2138 391 
Q 2594 391 2855 752 
Q 3116 1113 3116 1747 
z
M 1159 2969 
Q 1341 3281 1617 3432 
Q 1894 3584 2278 3584 
Q 2916 3584 3314 3078 
Q 3713 2572 3713 1747 
Q 3713 922 3314 415 
Q 2916 -91 2278 -91 
Q 1894 -91 1617 61 
Q 1341 213 1159 525 
L 1159 0 
L 581 0 
L 581 4863 
L 1159 4863 
L 1159 2969 
z
" transform="scale(0.015625)"/>
       <path id="DejaVuSans-2f" d="M 1625 4666 
L 2156 4666 
L 531 -594 
L 0 -594 
L 1625 4666 
z
" transform="scale(0.015625)"/>
       <path id="DejaVuSans-73" d="M 2834 3397 
L 2834 2853 
Q 2591 2978 2328 3040 
Q 2066 3103 1784 3103 
Q 1356 3103 1142 2972 
Q 928 2841 928 2578 
Q 928 2378 1081 2264 
Q 1234 2150 1697 2047 
L 1894 2003 
Q 2506 1872 2764 1633 
Q 3022 1394 3022 966 
Q 3022 478 2636 193 
Q 2250 -91 1575 -91 
Q 1294 -91 989 -36 
Q 684 19 347 128 
L 347 722 
Q 666 556 975 473 
Q 1284 391 1588 391 
Q 1994 391 2212 530 
Q 2431 669 2431 922 
Q 2431 1156 2273 1281 
Q 2116 1406 1581 1522 
L 1381 1569 
Q 847 1681 609 1914 
Q 372 2147 372 2553 
Q 372 3047 722 3315 
Q 1072 3584 1716 3584 
Q 2034 3584 2315 3537 
Q 2597 3491 2834 3397 
z
" transform="scale(0.015625)"/>
       <path id="DejaVuSans-29" d="M 513 4856 
L 1013 4856 
Q 1481 4119 1714 3412 
Q 1947 2706 1947 2009 
Q 1947 1309 1714 600 
Q 1481 -109 1013 -844 
L 513 -844 
Q 928 -128 1133 580 
Q 1338 1288 1338 2009 
Q 1338 2731 1133 3434 
Q 928 4138 513 4856 
z
" transform="scale(0.015625)"/>
      </defs>
      <use xlink:href="#DejaVuSans-42"/>
      <use xlink:href="#DejaVuSans-69" x="68.603516"/>
      <use xlink:href="#DejaVuSans-74" x="96.386719"/>
      <use xlink:href="#DejaVuSans-72" x="135.595703"/>
      <use xlink:href="#DejaVuSans-61" x="176.708984"/>
      <use xlink:href="#DejaVuSans-74" x="237.988281"/>
      <use xlink:href="#DejaVuSans-65" x="277.197266"/>
      <use xlink:href="#DejaVuSans-20" x="338.720703"/>
      <use xlink:href="#DejaVuSans-28" x="370.507812"/>
      <use xlink:href="#DejaVuSans-6b" x="409.521484"/>
      <use xlink:href="#DejaVuSans-62" x="467.431641"/>
      <use xlink:href="#DejaVuSans-69" x="530.908203"/>
      <use xlink:href="#DejaVuSans-74" x="558.691406"/>
      <use xlink:href="#DejaVuSans-2f" x="597.900391"/>
      <use xlink:href="#DejaVuSans-73" x="631.591797"/>
      <use xlink:href="#DejaVuSans-29" x="683.691406"/>
     </g>
    </g>
   </g>
   <g id="PolyCollection_1">
    <defs>
     <path id="m26c4dee861" d="M 115.363636 -44.440679 
L 115.363636 -41.76 
L 116.958834 -41.76 
L 118.554031 -41.76 
L 120.149228 -41.76 
L 121.744425 -41.76 
L 123.339623 -41.76 
L 124.93482 -41.76 
L 126.530017 -41.76 
L 128.125214 -41.76 
L 129.720412 -41.76 
L 131.315609 -41.76 
L 132.910806 -41.76 
L 134.506003 -41.76 
L 136.101201 -41.76 
L 137.696398 -41.76 
L 139.291595 -41.76 
L 140.886792 -41.76 
L 142.48199 -41.76 
L 144.077187 -41.76 
L 145.672384 -41.76 
L 147.267581 -41.76 
L 148.862779 -41.76 
L 150.457976 -41.76 
L 152.053173 -41.76 
L 153.64837 -41.76 
L 155.243568 -41.76 
L 156.838765 -41.76 
L 158.433962 -41.76 
L 160.02916 -41.76 
L 161.624357 -41.76 
L 163.219554 -41.76 
L 164.814751 -41.76 
L 166.409949 -41.76 
L 168.005146 -41.76 
L 169.600343 -41.76 
L 171.19554 -41.76 
L 172.790738 -41.76 
L 174.385935 -41.76 
L 175.981132 -41.76 
L 177.576329 -41.76 
L 179.171527 -41.76 
L 180.766724 -41.76 
L 182.361921 -41.76 
L 183.957118 -41.76 
L 185.552316 -41.76 
L 187.147513 -41.76 
L 188.74271 -41.76 
L 190.337907 -41.76 
L 191.933105 -41.76 
L 193.528302 -41.76 
L 195.123499 -41.76 
L 196.718696 -41.76 
L 198.313894 -41.76 
L 199.909091 -41.76 
L 201.504288 -41.76 
L 203.099485 -41.76 
L 204.694683 -41.76 
L 206.28988 -41.76 
L 207.885077 -41.76 
L 209.480274 -41.76 
L 211.075472 -41.76 
L 212.670669 -41.76 
L 214.265866 -41.76 
L 215.861063 -41.76 
L 217.456261 -41.76 
L 219.051458 -41.76 
L 220.646655 -41.76 
L 222.241852 -41.76 
L 223.83705 -41.76 
L 225.432247 -41.76 
L 227.027444 -41.76 
L 228.622642 -41.76 
L 230.217839 -41.76 
L 231.813036 -41.76 
L 233.408233 -41.76 
L 235.003431 -41.76 
L 236.598628 -41.76 
L 238.193825 -41.76 
L 239.789022 -41.76 
L 241.38422 -41.76 
L 242.979417 -41.76 
L 244.574614 -41.76 
L 246.169811 -41.76 
L 247.765009 -41.76 
L 249.360206 -41.76 
L 250.955403 -41.76 
L 252.5506 -41.76 
L 254.145798 -41.76 
L 255.740995 -41.76 
L 257.336192 -41.76 
L 258.931389 -41.76 
L 260.526587 -41.76 
L 262.121784 -41.76 
L 263.716981 -41.76 
L 265.312178 -41.76 
L 266.907376 -41.76 
L 268.502573 -41.76 
L 270.09777 -41.76 
L 271.692967 -41.76 
L 273.288165 -41.76 
L 274.883362 -41.76 
L 276.478559 -41.76 
L 278.073756 -41.76 
L 279.668954 -41.76 
L 281.264151 -41.76 
L 282.859348 -41.76 
L 284.454545 -41.76 
L 286.049743 -41.76 
L 287.64494 -41.76 
L 289.240137 -41.76 
L 290.835334 -41.76 
L 292.430532 -41.76 
L 294.025729 -41.76 
L 295.620926 -41.76 
L 297.216123 -41.76 
L 298.811321 -41.76 
L 300.406518 -41.76 
L 302.001715 -41.76 
L 303.596913 -41.76 
L 305.19211 -41.76 
L 306.787307 -41.76 
L 308.382504 -41.76 
L 309.977702 -41.76 
L 311.572899 -41.76 
L 313.168096 -41.76 
L 314.763293 -41.76 
L 316.358491 -41.76 
L 317.953688 -41.76 
L 319.548885 -41.76 
L 321.144082 -41.76 
L 322.73928 -41.76 
L 324.334477 -41.76 
L 325.929674 -41.76 
L 327.524871 -41.76 
L 329.120069 -41.76 
L 330.715266 -41.76 
L 332.310463 -41.76 
L 333.90566 -41.76 
L 335.500858 -41.76 
L 337.096055 -41.76 
L 338.691252 -41.76 
L 340.286449 -41.76 
L 341.881647 -41.76 
L 343.476844 -41.76 
L 345.072041 -41.76 
L 346.667238 -41.76 
L 348.262436 -41.76 
L 349.857633 -41.76 
L 351.45283 -41.76 
L 353.048027 -41.76 
L 354.643225 -41.76 
L 356.238422 -41.76 
L 357.833619 -41.76 
L 359.428816 -41.76 
L 361.024014 -41.76 
L 362.619211 -41.76 
L 364.214408 -41.76 
L 365.809605 -41.76 
L 367.404803 -41.76 
L 369 -41.76 
L 370.595197 -41.76 
L 372.190395 -41.76 
L 373.785592 -41.76 
L 375.380789 -41.76 
L 376.975986 -41.76 
L 378.571184 -41.76 
L 380.166381 -41.76 
L 381.761578 -41.76 
L 383.356775 -41.76 
L 384.951973 -41.76 
L 386.54717 -41.76 
L 388.142367 -41.76 
L 389.737564 -41.76 
L 391.332762 -41.76 
L 392.927959 -41.76 
L 394.523156 -41.76 
L 396.118353 -41.76 
L 397.713551 -41.76 
L 399.308748 -41.76 
L 400.903945 -41.76 
L 402.499142 -41.76 
L 404.09434 -41.76 
L 405.689537 -41.76 
L 407.284734 -41.76 
L 408.879931 -41.76 
L 410.475129 -41.76 
L 412.070326 -41.76 
L 413.665523 -41.76 
L 415.26072 -41.76 
L 416.855918 -41.76 
L 418.451115 -41.76 
L 420.046312 -41.76 
L 421.641509 -41.76 
L 423.236707 -41.76 
L 424.831904 -41.76 
L 426.427101 -41.76 
L 428.022298 -41.76 
L 429.617496 -41.76 
L 431.212693 -41.76 
L 432.80789 -41.76 
L 434.403087 -41.76 
L 435.998285 -41.76 
L 437.593482 -41.76 
L 439.188679 -41.76 
L 440.783877 -41.76 
L 442.379074 -41.76 
L 443.974271 -41.76 
L 445.569468 -41.76 
L 447.164666 -41.76 
L 448.759863 -41.76 
L 450.35506 -41.76 
L 451.950257 -41.76 
L 453.545455 -41.76 
L 455.140652 -41.76 
L 456.735849 -41.76 
L 458.331046 -41.76 
L 459.926244 -41.76 
L 461.521441 -41.76 
L 463.116638 -41.76 
L 464.711835 -41.76 
L 466.307033 -41.76 
L 467.90223 -41.76 
L 469.497427 -41.76 
L 471.092624 -41.76 
L 472.687822 -41.76 
L 474.283019 -41.76 
L 475.878216 -41.76 
L 477.473413 -41.76 
L 479.068611 -41.76 
L 480.663808 -41.76 
L 482.259005 -41.76 
L 483.854202 -41.76 
L 485.4494 -41.76 
L 487.044597 -41.76 
L 488.639794 -41.76 
L 490.234991 -41.76 
L 491.830189 -41.76 
L 493.425386 -41.76 
L 495.020583 -41.76 
L 496.61578 -41.76 
L 498.210978 -41.76 
L 499.806175 -41.76 
L 501.401372 -41.76 
L 502.996569 -41.76 
L 504.591767 -41.76 
L 506.186964 -41.76 
L 507.782161 -41.76 
L 509.377358 -41.76 
L 510.972556 -41.76 
L 512.567753 -41.76 
L 514.16295 -41.76 
L 515.758148 -41.76 
L 517.353345 -41.76 
L 518.948542 -41.76 
L 520.543739 -41.76 
L 522.138937 -41.76 
L 523.734134 -41.76 
L 525.329331 -41.76 
L 526.924528 -41.76 
L 528.519726 -41.76 
L 530.114923 -41.76 
L 531.71012 -41.76 
L 533.305317 -41.76 
L 534.900515 -41.76 
L 536.495712 -41.76 
L 538.090909 -41.76 
L 539.686106 -41.76 
L 541.281304 -41.76 
L 542.876501 -41.76 
L 544.471698 -41.76 
L 546.066895 -41.76 
L 547.662093 -41.76 
L 549.25729 -41.76 
L 550.852487 -41.76 
L 552.447684 -41.76 
L 554.042882 -41.76 
L 555.638079 -41.76 
L 557.233276 -41.76 
L 558.828473 -41.76 
L 560.423671 -41.76 
L 562.018868 -41.76 
L 563.614065 -41.76 
L 565.209262 -41.76 
L 566.80446 -41.76 
L 568.399657 -41.76 
L 569.994854 -41.76 
L 571.590051 -41.76 
L 573.185249 -41.76 
L 574.780446 -41.76 
L 576.375643 -41.76 
L 577.97084 -41.76 
L 579.566038 -41.76 
L 581.161235 -41.76 
L 582.756432 -41.76 
L 584.35163 -41.76 
L 585.946827 -41.76 
L 587.542024 -41.76 
L 589.137221 -41.76 
L 590.732419 -41.76 
L 592.327616 -41.76 
L 593.922813 -41.76 
L 595.51801 -41.76 
L 597.113208 -41.76 
L 598.708405 -41.76 
L 600.303602 -41.76 
L 601.898799 -41.76 
L 603.493997 -41.76 
L 605.089194 -41.76 
L 606.684391 -41.76 
L 608.279588 -41.76 
L 609.874786 -41.76 
L 611.469983 -41.76 
L 613.06518 -41.76 
L 614.660377 -41.76 
L 616.255575 -41.76 
L 617.850772 -41.76 
L 619.445969 -41.76 
L 621.041166 -41.76 
L 622.636364 -41.76 
L 622.636364 -77.093291 
L 622.636364 -77.093291 
L 621.041166 -41.76 
L 619.445969 -41.76 
L 617.850772 -41.76 
L 616.255575 -41.76 
L 614.660377 -41.76 
L 613.06518 -52.644204 
L 611.469983 -41.76 
L 609.874786 -41.76 
L 608.279588 -41.76 
L 606.684391 -41.76 
L 605.089194 -43.116488 
L 603.493997 -41.76 
L 601.898799 -41.76 
L 600.303602 -41.76 
L 598.708405 -41.76 
L 597.113208 -51.35231 
L 595.51801 -41.76 
L 593.922813 -41.76 
L 592.327616 -41.76 
L 590.732419 -41.76 
L 589.137221 -55.615559 
L 587.542024 -41.76 
L 585.946827 -41.76 
L 584.35163 -41.76 
L 582.756432 -41.76 
L 581.161235 -41.76 
L 579.566038 -68.340711 
L 577.97084 -41.76 
L 576.375643 -41.76 
L 574.780446 -41.76 
L 573.185249 -41.76 
L 571.590051 -54.51745 
L 569.994854 -41.76 
L 568.399657 -41.76 
L 566.80446 -41.76 
L 565.209262 -41.76 
L 563.614065 -65.175572 
L 562.018868 -41.76 
L 560.423671 -41.76 
L 558.828473 -41.76 
L 557.233276 -41.76 
L 555.638079 -69.309632 
L 554.042882 -41.76 
L 552.447684 -41.76 
L 550.852487 -41.76 
L 549.25729 -41.76 
L 547.662093 -64.012868 
L 546.066895 -41.76 
L 544.471698 -41.76 
L 542.876501 -41.76 
L 541.281304 -41.76 
L 539.686106 -41.76 
L 538.090909 -70.278552 
L 536.495712 -41.76 
L 534.900515 -41.76 
L 533.305317 -41.76 
L 531.71012 -41.76 
L 530.114923 -57.133534 
L 528.519726 -41.76 
L 526.924528 -41.76 
L 525.329331 -41.76 
L 523.734134 -41.76 
L 522.138937 -59.362051 
L 520.543739 -41.76 
L 518.948542 -41.76 
L 517.353345 -41.76 
L 515.758148 -41.76 
L 514.16295 -58.03786 
L 512.567753 -41.76 
L 510.972556 -41.76 
L 509.377358 -41.76 
L 507.782161 -41.76 
L 506.186964 -59.652727 
L 504.591767 -41.76 
L 502.996569 -41.76 
L 501.401372 -41.76 
L 499.806175 -41.76 
L 498.210978 -41.76 
L 496.61578 -63.754489 
L 495.020583 -41.76 
L 493.425386 -41.76 
L 491.830189 -41.76 
L 490.234991 -41.76 
L 488.639794 -59.200564 
L 487.044597 -41.76 
L 485.4494 -41.76 
L 483.854202 -41.76 
L 482.259005 -41.76 
L 480.663808 -49.188388 
L 479.068611 -41.76 
L 477.473413 -41.76 
L 475.878216 -41.76 
L 474.283019 -41.76 
L 472.687822 -66.467466 
L 471.092624 -41.76 
L 469.497427 -41.76 
L 467.90223 -41.76 
L 466.307033 -41.76 
L 464.711835 -41.76 
L 463.116638 -55.647856 
L 461.521441 -41.76 
L 459.926244 -41.76 
L 458.331046 -41.76 
L 456.735849 -41.76 
L 455.140652 -55.615559 
L 453.545455 -41.76 
L 451.950257 -41.76 
L 450.35506 -41.76 
L 448.759863 -41.76 
L 447.164666 -60.653944 
L 445.569468 -41.76 
L 443.974271 -41.76 
L 442.379074 -41.76 
L 440.783877 -41.76 
L 439.188679 -49.41447 
L 437.593482 -41.76 
L 435.998285 -41.76 
L 434.403087 -41.76 
L 432.80789 -41.76 
L 431.212693 -68.017738 
L 429.617496 -41.76 
L 428.022298 -41.76 
L 426.427101 -41.76 
L 424.831904 -41.76 
L 423.236707 -41.76 
L 421.641509 -65.530843 
L 420.046312 -41.76 
L 418.451115 -41.76 
L 416.855918 -41.76 
L 415.26072 -41.76 
L 413.665523 -60.104889 
L 412.070326 -41.76 
L 410.475129 -41.76 
L 408.879931 -41.76 
L 407.284734 -41.76 
L 405.689537 -60.880026 
L 404.09434 -41.76 
L 402.499142 -41.76 
L 400.903945 -41.76 
L 399.308748 -41.76 
L 397.713551 -92.305338 
L 396.118353 -41.76 
L 394.523156 -41.76 
L 392.927959 -41.76 
L 391.332762 -41.76 
L 389.737564 -92.434527 
L 388.142367 -41.76 
L 386.54717 -41.76 
L 384.951973 -41.76 
L 383.356775 -41.76 
L 381.761578 -41.76 
L 380.166381 -59.362051 
L 378.571184 -41.76 
L 376.975986 -41.76 
L 375.380789 -41.76 
L 373.785592 -41.76 
L 372.190395 -57.198129 
L 370.595197 -41.76 
L 369 -41.76 
L 367.404803 -41.76 
L 365.809605 -41.76 
L 364.214408 -71.925716 
L 362.619211 -41.76 
L 361.024014 -41.76 
L 359.428816 -41.76 
L 357.833619 -41.76 
L 356.238422 -55.712451 
L 354.643225 -41.76 
L 353.048027 -41.76 
L 351.45283 -41.76 
L 349.857633 -41.76 
L 348.262436 -41.76 
L 346.667238 -55.389478 
L 345.072041 -41.76 
L 343.476844 -41.76 
L 341.881647 -41.76 
L 340.286449 -41.76 
L 338.691252 -52.482717 
L 337.096055 -41.76 
L 335.500858 -41.76 
L 333.90566 -41.76 
L 332.310463 -41.76 
L 330.715266 -54.808126 
L 329.120069 -41.76 
L 327.524871 -41.76 
L 325.929674 -41.76 
L 324.334477 -41.76 
L 322.73928 -63.302326 
L 321.144082 -41.76 
L 319.548885 -41.76 
L 317.953688 -41.76 
L 316.358491 -41.76 
L 314.763293 -54.905018 
L 313.168096 -41.76 
L 311.572899 -41.76 
L 309.977702 -41.76 
L 308.382504 -41.76 
L 306.787307 -41.76 
L 305.19211 -73.153015 
L 303.596913 -41.76 
L 302.001715 -41.76 
L 300.406518 -41.76 
L 298.811321 -41.76 
L 297.216123 -78.1914 
L 295.620926 -41.76 
L 294.025729 -41.76 
L 292.430532 -41.76 
L 290.835334 -41.76 
L 289.240137 -61.461378 
L 287.64494 -41.76 
L 286.049743 -41.76 
L 284.454545 -41.76 
L 282.859348 -41.76 
L 281.264151 -54.549747 
L 279.668954 -41.76 
L 278.073756 -41.76 
L 276.478559 -41.76 
L 274.883362 -41.76 
L 273.288165 -73.992746 
L 271.692967 -41.76 
L 270.09777 -41.76 
L 268.502573 -41.76 
L 266.907376 -41.76 
L 265.312178 -41.76 
L 263.716981 -74.67099 
L 262.121784 -41.76 
L 260.526587 -41.76 
L 258.931389 -41.76 
L 257.336192 -41.76 
L 255.740995 -78.740455 
L 254.145798 -41.76 
L 252.5506 -41.76 
L 250.955403 -41.76 
L 249.360206 -41.76 
L 247.765009 -56.164614 
L 246.169811 -41.76 
L 244.574614 -41.76 
L 242.979417 -41.76 
L 241.38422 -41.76 
L 239.789022 -54.129881 
L 238.193825 -41.76 
L 236.598628 -41.76 
L 235.003431 -41.76 
L 233.408233 -41.76 
L 231.813036 -41.76 
L 230.217839 -54.259071 
L 228.622642 -41.76 
L 227.027444 -41.76 
L 225.432247 -41.76 
L 223.83705 -41.76 
L 222.241852 -59.200564 
L 220.646655 -41.76 
L 219.051458 -41.76 
L 217.456261 -41.76 
L 215.861063 -41.76 
L 214.265866 -56.196911 
L 212.670669 -41.76 
L 211.075472 -41.76 
L 209.480274 -41.76 
L 207.885077 -41.76 
L 206.28988 -54.129881 
L 204.694683 -41.76 
L 203.099485 -41.76 
L 201.504288 -41.76 
L 199.909091 -41.76 
L 198.313894 -76.576533 
L 196.718696 -41.76 
L 195.123499 -41.76 
L 193.528302 -41.76 
L 191.933105 -41.76 
L 190.337907 -41.76 
L 188.74271 -78.1914 
L 187.147513 -41.76 
L 185.552316 -41.76 
L 183.957118 -41.76 
L 182.361921 -41.76 
L 180.766724 -49.446767 
L 179.171527 -41.76 
L 177.576329 -41.76 
L 175.981132 -41.76 
L 174.385935 -41.76 
L 172.790738 -60.524755 
L 171.19554 -41.76 
L 169.600343 -41.76 
L 168.005146 -41.76 
L 166.409949 -41.76 
L 164.814751 -44.828247 
L 163.219554 -41.76 
L 161.624357 -41.76 
L 160.02916 -41.76 
L 158.433962 -41.76 
L 156.838765 -47.34744 
L 155.243568 -41.76 
L 153.64837 -41.76 
L 152.053173 -41.76 
L 150.457976 -41.76 
L 148.862779 -41.76 
L 147.267581 -49.575956 
L 145.672384 -41.76 
L 144.077187 -41.76 
L 142.48199 -41.76 
L 140.886792 -41.76 
L 139.291595 -47.185953 
L 137.696398 -41.76 
L 136.101201 -41.76 
L 134.506003 -41.76 
L 132.910806 -41.76 
L 131.315609 -53.031772 
L 129.720412 -41.76 
L 128.125214 -41.76 
L 126.530017 -41.76 
L 124.93482 -41.76 
L 123.339623 -48.090279 
L 121.744425 -41.76 
L 120.149228 -41.76 
L 118.554031 -41.76 
L 116.958834 -41.76 
L 115.363636 -44.440679 
z
" style="stroke: #ff0000; stroke-width: 0.5"/>
    </defs>
    <g clip-path="url(#pc9c9c4e101)">
     <use xlink:href="#m26c4dee861" x="0" y="288" style="fill: #ff0000; stroke: #ff0000; stroke-width: 0.5"/>
    </g>
   </g>
   <g id="PolyCollection_2">
    <defs>
     <path id="m7b2f2cedcd" d="M 115.363636 -51.287715 
L 115.363636 -44.440679 
L 116.958834 -41.76 
L 118.554031 -41.76 
L 120.149228 -41.76 
L 121.744425 -41.76 
L 123.339623 -48.090279 
L 124.93482 -41.76 
L 126.530017 -41.76 
L 128.125214 -41.76 
L 129.720412 -41.76 
L 131.315609 -53.031772 
L 132.910806 -41.76 
L 134.506003 -41.76 
L 136.101201 -41.76 
L 137.696398 -41.76 
L 139.291595 -47.185953 
L 140.886792 -41.76 
L 142.48199 -41.76 
L 144.077187 -41.76 
L 145.672384 -41.76 
L 147.267581 -49.575956 
L 148.862779 -41.76 
L 150.457976 -41.76 
L 152.053173 -41.76 
L 153.64837 -41.76 
L 155.243568 -41.76 
L 156.838765 -47.34744 
L 158.433962 -41.76 
L 160.02916 -41.76 
L 161.624357 -41.76 
L 163.219554 -41.76 
L 164.814751 -44.828247 
L 166.409949 -41.76 
L 168.005146 -41.76 
L 169.600343 -41.76 
L 171.19554 -41.76 
L 172.790738 -60.524755 
L 174.385935 -41.76 
L 175.981132 -41.76 
L 177.576329 -41.76 
L 179.171527 -41.76 
L 180.766724 -49.446767 
L 182.361921 -41.76 
L 183.957118 -41.76 
L 185.552316 -41.76 
L 187.147513 -41.76 
L 188.74271 -78.1914 
L 190.337907 -41.76 
L 191.933105 -41.76 
L 193.528302 -41.76 
L 195.123499 -41.76 
L 196.718696 -41.76 
L 198.313894 -76.576533 
L 199.909091 -41.76 
L 201.504288 -41.76 
L 203.099485 -41.76 
L 204.694683 -41.76 
L 206.28988 -54.129881 
L 207.885077 -41.76 
L 209.480274 -41.76 
L 211.075472 -41.76 
L 212.670669 -41.76 
L 214.265866 -56.196911 
L 215.861063 -41.76 
L 217.456261 -41.76 
L 219.051458 -41.76 
L 220.646655 -41.76 
L 222.241852 -59.200564 
L 223.83705 -41.76 
L 225.432247 -41.76 
L 227.027444 -41.76 
L 228.622642 -41.76 
L 230.217839 -54.259071 
L 231.813036 -41.76 
L 233.408233 -41.76 
L 235.003431 -41.76 
L 236.598628 -41.76 
L 238.193825 -41.76 
L 239.789022 -54.129881 
L 241.38422 -41.76 
L 242.979417 -41.76 
L 244.574614 -41.76 
L 246.169811 -41.76 
L 247.765009 -56.164614 
L 249.360206 -41.76 
L 250.955403 -41.76 
L 252.5506 -41.76 
L 254.145798 -41.76 
L 255.740995 -78.740455 
L 257.336192 -41.76 
L 258.931389 -41.76 
L 260.526587 -41.76 
L 262.121784 -41.76 
L 263.716981 -74.67099 
L 265.312178 -41.76 
L 266.907376 -41.76 
L 268.502573 -41.76 
L 270.09777 -41.76 
L 271.692967 -41.76 
L 273.288165 -73.992746 
L 274.883362 -41.76 
L 276.478559 -41.76 
L 278.073756 -41.76 
L 279.668954 -41.76 
L 281.264151 -54.549747 
L 282.859348 -41.76 
L 284.454545 -41.76 
L 286.049743 -41.76 
L 287.64494 -41.76 
L 289.240137 -61.461378 
L 290.835334 -41.76 
L 292.430532 -41.76 
L 294.025729 -41.76 
L 295.620926 -41.76 
L 297.216123 -78.1914 
L 298.811321 -41.76 
L 300.406518 -41.76 
L 302.001715 -41.76 
L 303.596913 -41.76 
L 305.19211 -73.153015 
L 306.787307 -41.76 
L 308.382504 -41.76 
L 309.977702 -41.76 
L 311.572899 -41.76 
L 313.168096 -41.76 
L 314.763293 -54.905018 
L 316.358491 -41.76 
L 317.953688 -41.76 
L 319.548885 -41.76 
L 321.144082 -41.76 
L 322.73928 -63.302326 
L 324.334477 -41.76 
L 325.929674 -41.76 
L 327.524871 -41.76 
L 329.120069 -41.76 
L 330.715266 -54.808126 
L 332.310463 -41.76 
L 333.90566 -41.76 
L 335.500858 -41.76 
L 337.096055 -41.76 
L 338.691252 -52.482717 
L 340.286449 -41.76 
L 341.881647 -41.76 
L 343.476844 -41.76 
L 345.072041 -41.76 
L 346.667238 -55.389478 
L 348.262436 -41.76 
L 349.857633 -41.76 
L 351.45283 -41.76 
L 353.048027 -41.76 
L 354.643225 -41.76 
L 356.238422 -55.712451 
L 357.833619 -41.76 
L 359.428816 -41.76 
L 361.024014 -41.76 
L 362.619211 -41.76 
L 364.214408 -71.925716 
L 365.809605 -41.76 
L 367.404803 -41.76 
L 369 -41.76 
L 370.595197 -41.76 
L 372.190395 -57.198129 
L 373.785592 -41.76 
L 375.380789 -41.76 
L 376.975986 -41.76 
L 378.571184 -41.76 
L 380.166381 -59.362051 
L 381.761578 -41.76 
L 383.356775 -41.76 
L 384.951973 -41.76 
L 386.54717 -41.76 
L 388.142367 -41.76 
L 389.737564 -92.434527 
L 391.332762 -41.76 
L 392.927959 -41.76 
L 394.523156 -41.76 
L 396.118353 -41.76 
L 397.713551 -92.305338 
L 399.308748 -41.76 
L 400.903945 -41.76 
L 402.499142 -41.76 
L 404.09434 -41.76 
L 405.689537 -60.880026 
L 407.284734 -41.76 
L 408.879931 -41.76 
L 410.475129 -41.76 
L 412.070326 -41.76 
L 413.665523 -60.104889 
L 415.26072 -41.76 
L 416.855918 -41.76 
L 418.451115 -41.76 
L 420.046312 -41.76 
L 421.641509 -65.530843 
L 423.236707 -41.76 
L 424.831904 -41.76 
L 426.427101 -41.76 
L 428.022298 -41.76 
L 429.617496 -41.76 
L 431.212693 -68.017738 
L 432.80789 -41.76 
L 434.403087 -41.76 
L 435.998285 -41.76 
L 437.593482 -41.76 
L 439.188679 -49.41447 
L 440.783877 -41.76 
L 442.379074 -41.76 
L 443.974271 -41.76 
L 445.569468 -41.76 
L 447.164666 -60.653944 
L 448.759863 -41.76 
L 450.35506 -41.76 
L 451.950257 -41.76 
L 453.545455 -41.76 
L 455.140652 -55.615559 
L 456.735849 -41.76 
L 458.331046 -41.76 
L 459.926244 -41.76 
L 461.521441 -41.76 
L 463.116638 -55.647856 
L 464.711835 -41.76 
L 466.307033 -41.76 
L 467.90223 -41.76 
L 469.497427 -41.76 
L 471.092624 -41.76 
L 472.687822 -66.467466 
L 474.283019 -41.76 
L 475.878216 -41.76 
L 477.473413 -41.76 
L 479.068611 -41.76 
L 480.663808 -49.188388 
L 482.259005 -41.76 
L 483.854202 -41.76 
L 485.4494 -41.76 
L 487.044597 -41.76 
L 488.639794 -59.200564 
L 490.234991 -41.76 
L 491.830189 -41.76 
L 493.425386 -41.76 
L 495.020583 -41.76 
L 496.61578 -63.754489 
L 498.210978 -41.76 
L 499.806175 -41.76 
L 501.401372 -41.76 
L 502.996569 -41.76 
L 504.591767 -41.76 
L 506.186964 -59.652727 
L 507.782161 -41.76 
L 509.377358 -41.76 
L 510.972556 -41.76 
L 512.567753 -41.76 
L 514.16295 -58.03786 
L 515.758148 -41.76 
L 517.353345 -41.76 
L 518.948542 -41.76 
L 520.543739 -41.76 
L 522.138937 -59.362051 
L 523.734134 -41.76 
L 525.329331 -41.76 
L 526.924528 -41.76 
L 528.519726 -41.76 
L 530.114923 -57.133534 
L 531.71012 -41.76 
L 533.305317 -41.76 
L 534.900515 -41.76 
L 536.495712 -41.76 
L 538.090909 -70.278552 
L 539.686106 -41.76 
L 541.281304 -41.76 
L 542.876501 -41.76 
L 544.471698 -41.76 
L 546.066895 -41.76 
L 547.662093 -64.012868 
L 549.25729 -41.76 
L 550.852487 -41.76 
L 552.447684 -41.76 
L 554.042882 -41.76 
L 555.638079 -69.309632 
L 557.233276 -41.76 
L 558.828473 -41.76 
L 560.423671 -41.76 
L 562.018868 -41.76 
L 563.614065 -65.175572 
L 565.209262 -41.76 
L 566.80446 -41.76 
L 568.399657 -41.76 
L 569.994854 -41.76 
L 571.590051 -54.51745 
L 573.185249 -41.76 
L 574.780446 -41.76 
L 576.375643 -41.76 
L 577.97084 -41.76 
L 579.566038 -68.340711 
L 581.161235 -41.76 
L 582.756432 -41.76 
L 584.35163 -41.76 
L 585.946827 -41.76 
L 587.542024 -41.76 
L 589.137221 -55.615559 
L 590.732419 -41.76 
L 592.327616 -41.76 
L 593.922813 -41.76 
L 595.51801 -41.76 
L 597.113208 -51.35231 
L 598.708405 -41.76 
L 600.303602 -41.76 
L 601.898799 -41.76 
L 603.493997 -41.76 
L 605.089194 -43.116488 
L 606.684391 -41.76 
L 608.279588 -41.76 
L 609.874786 -41.76 
L 611.469983 -41.76 
L 613.06518 -52.644204 
L 614.660377 -41.76 
L 616.255575 -41.76 
L 617.850772 -41.76 
L 619.445969 -41.76 
L 621.041166 -41.76 
L 622.636364 -77.093291 
L 622.636364 -77.093291 
L 622.636364 -77.093291 
L 621.041166 -42.922704 
L 619.445969 -43.084191 
L 617.850772 -43.148786 
L 616.255575 -43.084191 
L 614.660377 -43.277975 
L 613.06518 -53.613124 
L 611.469983 -43.69784 
L 609.874786 -47.605819 
L 608.279588 -43.568651 
L 606.684391 -44.472977 
L 605.089194 -46.443114 
L 603.493997 -46.281628 
L 601.898799 -55.227991 
L 600.303602 -60.266376 
L 598.708405 -59.685024 
L 597.113208 -64.400436 
L 595.51801 -47.508927 
L 593.922813 -48.025684 
L 592.327616 -47.412035 
L 590.732419 -48.348657 
L 589.137221 -63.173137 
L 587.542024 -49.091496 
L 585.946827 -48.639334 
L 584.35163 -52.288933 
L 582.756432 -56.745966 
L 581.161235 -56.519885 
L 579.566038 -82.002486 
L 577.97084 -56.649074 
L 576.375643 -55.421775 
L 574.780446 -72.280987 
L 573.185249 -70.117065 
L 571.590051 -71.958013 
L 569.994854 -78.288292 
L 568.399657 -81.937892 
L 566.80446 -82.939109 
L 565.209262 -74.67099 
L 563.614065 -77.868427 
L 562.018868 -62.882461 
L 560.423671 -60.58935 
L 558.828473 -69.56801 
L 557.233276 -60.912323 
L 555.638079 -73.992746 
L 554.042882 -56.035425 
L 552.447684 -58.39313 
L 550.852487 -55.066504 
L 549.25729 -54.291368 
L 547.662093 -80.484511 
L 546.066895 -82.260865 
L 544.471698 -86.168843 
L 542.876501 -65.498545 
L 541.281304 -59.458943 
L 539.686106 -60.234079 
L 538.090909 -86.976277 
L 536.495712 -65.046383 
L 534.900515 -59.071375 
L 533.305317 -61.655162 
L 531.71012 -64.691112 
L 530.114923 -78.901942 
L 528.519726 -66.273682 
L 526.924528 -57.133534 
L 525.329331 -63.205434 
L 523.734134 -81.130458 
L 522.138937 -96.310208 
L 520.543739 -69.08355 
L 518.948542 -74.251125 
L 517.353345 -73.831259 
L 515.758148 -82.939109 
L 514.16295 -93.177366 
L 512.567753 -86.524114 
L 510.972556 -83.455867 
L 509.377358 -75.413829 
L 507.782161 -83.714245 
L 506.186964 -102.511298 
L 504.591767 -77.997616 
L 502.996569 -75.316937 
L 501.401372 -71.279769 
L 499.806175 -58.231644 
L 498.210978 -52.482717 
L 496.61578 -83.940327 
L 495.020583 -47.961089 
L 493.425386 -52.482717 
L 491.830189 -53.580827 
L 490.234991 -46.701493 
L 488.639794 -65.014085 
L 487.044597 -48.542442 
L 485.4494 -50.609471 
L 483.854202 -54.194476 
L 482.259005 -61.170702 
L 480.663808 -63.205434 
L 479.068611 -54.775828 
L 477.473413 -56.907453 
L 475.878216 -70.827607 
L 474.283019 -64.012868 
L 472.687822 -92.983582 
L 471.092624 -66.241384 
L 469.497427 -51.96596 
L 467.90223 -52.127446 
L 466.307033 -52.353528 
L 464.711835 -55.389478 
L 463.116638 -72.377879 
L 461.521441 -53.9038 
L 459.926244 -54.000692 
L 458.331046 -45.732573 
L 456.735849 -45.151221 
L 455.140652 -59.588132 
L 453.545455 -47.896495 
L 451.950257 -47.412035 
L 450.35506 -44.699058 
L 448.759863 -43.82703 
L 447.164666 -63.560705 
L 445.569468 -45.377302 
L 443.974271 -46.281628 
L 442.379074 -47.896495 
L 440.783877 -49.543659 
L 439.188679 -57.359616 
L 437.593482 -45.506492 
L 435.998285 -47.024467 
L 434.403087 -46.636898 
L 432.80789 -53.160961 
L 431.212693 -77.997616 
L 429.617496 -47.638116 
L 428.022298 -50.286498 
L 426.427101 -50.351093 
L 424.831904 -50.157309 
L 423.236707 -57.327318 
L 421.641509 -74.18653 
L 420.046312 -47.185953 
L 418.451115 -48.219468 
L 416.855918 -46.959872 
L 415.26072 -48.31636 
L 413.665523 -65.886113 
L 412.070326 -46.087844 
L 410.475129 -48.284063 
L 408.879931 -46.86298 
L 407.284734 -45.700276 
L 405.689537 -68.179225 
L 404.09434 -50.480282 
L 402.499142 -46.572304 
L 400.903945 -45.28041 
L 399.308748 -46.507709 
L 397.713551 -96.439398 
L 396.118353 -44.343787 
L 394.523156 -44.860545 
L 392.927959 -44.182301 
L 391.332762 -44.860545 
L 389.737564 -96.439398 
L 388.142367 -46.604601 
L 386.54717 -46.152438 
L 384.951973 -45.312707 
L 383.356775 -45.086626 
L 381.761578 -44.860545 
L 380.166381 -63.270029 
L 378.571184 -47.702711 
L 376.975986 -47.444332 
L 375.380789 -48.994604 
L 373.785592 -48.413252 
L 372.190395 -62.365703 
L 370.595197 -48.348657 
L 369 -48.80082 
L 367.404803 -48.122576 
L 365.809605 -47.185953 
L 364.214408 -77.351669 
L 362.619211 -46.604601 
L 361.024014 -46.572304 
L 359.428816 -46.217033 
L 357.833619 -44.989734 
L 356.238422 -62.236514 
L 354.643225 -46.73379 
L 353.048027 -45.248113 
L 351.45283 -45.958654 
L 349.857633 -45.603384 
L 348.262436 -46.73379 
L 346.667238 -60.718539 
L 345.072041 -49.446767 
L 343.476844 -47.541224 
L 341.881647 -46.604601 
L 340.286449 -49.317578 
L 338.691252 -61.461378 
L 337.096055 -49.995822 
L 335.500858 -46.830682 
L 333.90566 -46.766088 
L 332.310463 -46.604601 
L 330.715266 -59.200564 
L 329.120069 -46.73379 
L 327.524871 -49.543659 
L 325.929674 -48.477847 
L 324.334477 -50.641769 
L 322.73928 -68.437603 
L 321.144082 -45.151221 
L 319.548885 -50.125011 
L 317.953688 -48.639334 
L 316.358491 -45.861762 
L 314.763293 -59.458943 
L 313.168096 -46.73379 
L 311.572899 -46.669196 
L 309.977702 -48.057981 
L 308.382504 -45.990952 
L 306.787307 -47.638116 
L 305.19211 -78.062211 
L 303.596913 -46.217033 
L 302.001715 -44.602166 
L 300.406518 -44.376085 
L 298.811321 -45.312707 
L 297.216123 -82.874515 
L 295.620926 -46.798385 
L 294.025729 -46.766088 
L 292.430532 -46.701493 
L 290.835334 -47.024467 
L 289.240137 -65.660032 
L 287.64494 -46.959872 
L 286.049743 -46.992169 
L 284.454545 -47.799603 
L 282.859348 -46.37852 
L 281.264151 -59.103672 
L 279.668954 -49.76974 
L 278.073756 -50.770958 
L 276.478559 -50.125011 
L 274.883362 -55.324883 
L 273.288165 -89.043307 
L 271.692967 -54.87272 
L 270.09777 -52.030554 
L 268.502573 -45.990952 
L 266.907376 -46.152438 
L 265.312178 -45.732573 
L 263.716981 -86.653303 
L 262.121784 -56.067722 
L 260.526587 -54.162179 
L 258.931389 -58.102454 
L 257.336192 -48.154873 
L 255.740995 -86.685601 
L 254.145798 -49.802038 
L 252.5506 -48.833118 
L 250.955403 -44.440679 
L 249.360206 -45.441897 
L 247.765009 -59.135969 
L 246.169811 -44.634463 
L 244.574614 -46.152438 
L 242.979417 -48.897712 
L 241.38422 -45.89406 
L 239.789022 -58.490022 
L 238.193825 -46.087844 
L 236.598628 -44.666761 
L 235.003431 -44.376085 
L 233.408233 -44.860545 
L 231.813036 -46.281628 
L 230.217839 -56.842858 
L 228.622642 -44.989734 
L 227.027444 -46.346222 
L 225.432247 -52.708798 
L 223.83705 -46.023249 
L 222.241852 -63.883678 
L 220.646655 -46.959872 
L 219.051458 -45.76487 
L 217.456261 -45.215815 
L 215.861063 -47.767305 
L 214.265866 -61.138404 
L 212.670669 -55.518667 
L 211.075472 -56.100019 
L 209.480274 -55.938533 
L 207.885077 -57.004345 
L 206.28988 -68.857469 
L 204.694683 -57.5534 
L 203.099485 -57.262723 
L 201.504288 -59.426645 
L 199.909091 -58.457725 
L 198.313894 -81.582621 
L 196.718696 -46.152438 
L 195.123499 -46.346222 
L 193.528302 -46.37852 
L 191.933105 -46.217033 
L 190.337907 -46.830682 
L 188.74271 -82.034784 
L 187.147513 -45.667978 
L 185.552316 -45.377302 
L 183.957118 -45.409599 
L 182.361921 -46.572304 
L 180.766724 -53.871503 
L 179.171527 -47.541224 
L 177.576329 -47.799603 
L 175.981132 -46.927574 
L 174.385935 -44.279193 
L 172.790738 -62.947055 
L 171.19554 -44.505274 
L 169.600343 -44.117706 
L 168.005146 -44.246895 
L 166.409949 -44.602166 
L 164.814751 -47.089061 
L 163.219554 -47.121359 
L 161.624357 -52.611906 
L 160.02916 -56.810561 
L 158.433962 -65.175572 
L 156.838765 -57.488805 
L 155.243568 -49.672848 
L 153.64837 -44.408382 
L 152.053173 -44.634463 
L 150.457976 -44.763653 
L 148.862779 -52.870285 
L 147.267581 -73.08842 
L 145.672384 -59.814213 
L 144.077187 -59.458943 
L 142.48199 -55.066504 
L 140.886792 -54.905018 
L 139.291595 -61.267594 
L 137.696398 -58.877591 
L 136.101201 -54.775828 
L 134.506003 -53.322448 
L 132.910806 -52.611906 
L 131.315609 -63.851381 
L 129.720412 -53.9038 
L 128.125214 -54.937315 
L 126.530017 -61.590567 
L 124.93482 -65.272464 
L 123.339623 -57.165831 
L 121.744425 -46.895277 
L 120.149228 -45.829465 
L 118.554031 -48.574739 
L 116.958834 -51.675284 
L 115.363636 -51.287715 
z
" style="stroke: #0000ff; stroke-width: 0.5"/>
    </defs>
    <g clip-path="url(#pc9c9c4e101)">
     <use xlink:href="#m7b2f2cedcd" x="0" y="288" style="fill: #0000ff; stroke: #0000ff; stroke-width: 0.5"/>
    </g>
   </g>
   <g id="PolyCollection_3">
    <defs>
     <path id="m4982c48aa9" d="M 115.363636 -60.072592 
L 115.363636 -51.287715 
L 116.958834 -51.675284 
L 118.554031 -48.574739 
L 120.149228 -45.829465 
L 121.744425 -46.895277 
L 123.339623 -57.165831 
L 124.93482 -65.272464 
L 126.530017 -61.590567 
L 128.125214 -54.937315 
L 129.720412 -53.9038 
L 131.315609 -63.851381 
L 132.910806 -52.611906 
L 134.506003 -53.322448 
L 136.101201 -54.775828 
L 137.696398 -58.877591 
L 139.291595 -61.267594 
L 140.886792 -54.905018 
L 142.48199 -55.066504 
L 144.077187 -59.458943 
L 145.672384 -59.814213 
L 147.267581 -73.08842 
L 148.862779 -52.870285 
L 150.457976 -44.763653 
L 152.053173 -44.634463 
L 153.64837 -44.408382 
L 155.243568 -49.672848 
L 156.838765 -57.488805 
L 158.433962 -65.175572 
L 160.02916 -56.810561 
L 161.624357 -52.611906 
L 163.219554 -47.121359 
L 164.814751 -47.089061 
L 166.409949 -44.602166 
L 168.005146 -44.246895 
L 169.600343 -44.117706 
L 171.19554 -44.505274 
L 172.790738 -62.947055 
L 174.385935 -44.279193 
L 175.981132 -46.927574 
L 177.576329 -47.799603 
L 179.171527 -47.541224 
L 180.766724 -53.871503 
L 182.361921 -46.572304 
L 183.957118 -45.409599 
L 185.552316 -45.377302 
L 187.147513 -45.667978 
L 188.74271 -82.034784 
L 190.337907 -46.830682 
L 191.933105 -46.217033 
L 193.528302 -46.37852 
L 195.123499 -46.346222 
L 196.718696 -46.152438 
L 198.313894 -81.582621 
L 199.909091 -58.457725 
L 201.504288 -59.426645 
L 203.099485 -57.262723 
L 204.694683 -57.5534 
L 206.28988 -68.857469 
L 207.885077 -57.004345 
L 209.480274 -55.938533 
L 211.075472 -56.100019 
L 212.670669 -55.518667 
L 214.265866 -61.138404 
L 215.861063 -47.767305 
L 217.456261 -45.215815 
L 219.051458 -45.76487 
L 220.646655 -46.959872 
L 222.241852 -63.883678 
L 223.83705 -46.023249 
L 225.432247 -52.708798 
L 227.027444 -46.346222 
L 228.622642 -44.989734 
L 230.217839 -56.842858 
L 231.813036 -46.281628 
L 233.408233 -44.860545 
L 235.003431 -44.376085 
L 236.598628 -44.666761 
L 238.193825 -46.087844 
L 239.789022 -58.490022 
L 241.38422 -45.89406 
L 242.979417 -48.897712 
L 244.574614 -46.152438 
L 246.169811 -44.634463 
L 247.765009 -59.135969 
L 249.360206 -45.441897 
L 250.955403 -44.440679 
L 252.5506 -48.833118 
L 254.145798 -49.802038 
L 255.740995 -86.685601 
L 257.336192 -48.154873 
L 258.931389 -58.102454 
L 260.526587 -54.162179 
L 262.121784 -56.067722 
L 263.716981 -86.653303 
L 265.312178 -45.732573 
L 266.907376 -46.152438 
L 268.502573 -45.990952 
L 270.09777 -52.030554 
L 271.692967 -54.87272 
L 273.288165 -89.043307 
L 274.883362 -55.324883 
L 276.478559 -50.125011 
L 278.073756 -50.770958 
L 279.668954 -49.76974 
L 281.264151 -59.103672 
L 282.859348 -46.37852 
L 284.454545 -47.799603 
L 286.049743 -46.992169 
L 287.64494 -46.959872 
L 289.240137 -65.660032 
L 290.835334 -47.024467 
L 292.430532 -46.701493 
L 294.025729 -46.766088 
L 295.620926 -46.798385 
L 297.216123 -82.874515 
L 298.811321 -45.312707 
L 300.406518 -44.376085 
L 302.001715 -44.602166 
L 303.596913 -46.217033 
L 305.19211 -78.062211 
L 306.787307 -47.638116 
L 308.382504 -45.990952 
L 309.977702 -48.057981 
L 311.572899 -46.669196 
L 313.168096 -46.73379 
L 314.763293 -59.458943 
L 316.358491 -45.861762 
L 317.953688 -48.639334 
L 319.548885 -50.125011 
L 321.144082 -45.151221 
L 322.73928 -68.437603 
L 324.334477 -50.641769 
L 325.929674 -48.477847 
L 327.524871 -49.543659 
L 329.120069 -46.73379 
L 330.715266 -59.200564 
L 332.310463 -46.604601 
L 333.90566 -46.766088 
L 335.500858 -46.830682 
L 337.096055 -49.995822 
L 338.691252 -61.461378 
L 340.286449 -49.317578 
L 341.881647 -46.604601 
L 343.476844 -47.541224 
L 345.072041 -49.446767 
L 346.667238 -60.718539 
L 348.262436 -46.73379 
L 349.857633 -45.603384 
L 351.45283 -45.958654 
L 353.048027 -45.248113 
L 354.643225 -46.73379 
L 356.238422 -62.236514 
L 357.833619 -44.989734 
L 359.428816 -46.217033 
L 361.024014 -46.572304 
L 362.619211 -46.604601 
L 364.214408 -77.351669 
L 365.809605 -47.185953 
L 367.404803 -48.122576 
L 369 -48.80082 
L 370.595197 -48.348657 
L 372.190395 -62.365703 
L 373.785592 -48.413252 
L 375.380789 -48.994604 
L 376.975986 -47.444332 
L 378.571184 -47.702711 
L 380.166381 -63.270029 
L 381.761578 -44.860545 
L 383.356775 -45.086626 
L 384.951973 -45.312707 
L 386.54717 -46.152438 
L 388.142367 -46.604601 
L 389.737564 -96.439398 
L 391.332762 -44.860545 
L 392.927959 -44.182301 
L 394.523156 -44.860545 
L 396.118353 -44.343787 
L 397.713551 -96.439398 
L 399.308748 -46.507709 
L 400.903945 -45.28041 
L 402.499142 -46.572304 
L 404.09434 -50.480282 
L 405.689537 -68.179225 
L 407.284734 -45.700276 
L 408.879931 -46.86298 
L 410.475129 -48.284063 
L 412.070326 -46.087844 
L 413.665523 -65.886113 
L 415.26072 -48.31636 
L 416.855918 -46.959872 
L 418.451115 -48.219468 
L 420.046312 -47.185953 
L 421.641509 -74.18653 
L 423.236707 -57.327318 
L 424.831904 -50.157309 
L 426.427101 -50.351093 
L 428.022298 -50.286498 
L 429.617496 -47.638116 
L 431.212693 -77.997616 
L 432.80789 -53.160961 
L 434.403087 -46.636898 
L 435.998285 -47.024467 
L 437.593482 -45.506492 
L 439.188679 -57.359616 
L 440.783877 -49.543659 
L 442.379074 -47.896495 
L 443.974271 -46.281628 
L 445.569468 -45.377302 
L 447.164666 -63.560705 
L 448.759863 -43.82703 
L 450.35506 -44.699058 
L 451.950257 -47.412035 
L 453.545455 -47.896495 
L 455.140652 -59.588132 
L 456.735849 -45.151221 
L 458.331046 -45.732573 
L 459.926244 -54.000692 
L 461.521441 -53.9038 
L 463.116638 -72.377879 
L 464.711835 -55.389478 
L 466.307033 -52.353528 
L 467.90223 -52.127446 
L 469.497427 -51.96596 
L 471.092624 -66.241384 
L 472.687822 -92.983582 
L 474.283019 -64.012868 
L 475.878216 -70.827607 
L 477.473413 -56.907453 
L 479.068611 -54.775828 
L 480.663808 -63.205434 
L 482.259005 -61.170702 
L 483.854202 -54.194476 
L 485.4494 -50.609471 
L 487.044597 -48.542442 
L 488.639794 -65.014085 
L 490.234991 -46.701493 
L 491.830189 -53.580827 
L 493.425386 -52.482717 
L 495.020583 -47.961089 
L 496.61578 -83.940327 
L 498.210978 -52.482717 
L 499.806175 -58.231644 
L 501.401372 -71.279769 
L 502.996569 -75.316937 
L 504.591767 -77.997616 
L 506.186964 -102.511298 
L 507.782161 -83.714245 
L 509.377358 -75.413829 
L 510.972556 -83.455867 
L 512.567753 -86.524114 
L 514.16295 -93.177366 
L 515.758148 -82.939109 
L 517.353345 -73.831259 
L 518.948542 -74.251125 
L 520.543739 -69.08355 
L 522.138937 -96.310208 
L 523.734134 -81.130458 
L 525.329331 -63.205434 
L 526.924528 -57.133534 
L 528.519726 -66.273682 
L 530.114923 -78.901942 
L 531.71012 -64.691112 
L 533.305317 -61.655162 
L 534.900515 -59.071375 
L 536.495712 -65.046383 
L 538.090909 -86.976277 
L 539.686106 -60.234079 
L 541.281304 -59.458943 
L 542.876501 -65.498545 
L 544.471698 -86.168843 
L 546.066895 -82.260865 
L 547.662093 -80.484511 
L 549.25729 -54.291368 
L 550.852487 -55.066504 
L 552.447684 -58.39313 
L 554.042882 -56.035425 
L 555.638079 -73.992746 
L 557.233276 -60.912323 
L 558.828473 -69.56801 
L 560.423671 -60.58935 
L 562.018868 -62.882461 
L 563.614065 -77.868427 
L 565.209262 -74.67099 
L 566.80446 -82.939109 
L 568.399657 -81.937892 
L 569.994854 -78.288292 
L 571.590051 -71.958013 
L 573.185249 -70.117065 
L 574.780446 -72.280987 
L 576.375643 -55.421775 
L 577.97084 -56.649074 
L 579.566038 -82.002486 
L 581.161235 -56.519885 
L 582.756432 -56.745966 
L 584.35163 -52.288933 
L 585.946827 -48.639334 
L 587.542024 -49.091496 
L 589.137221 -63.173137 
L 590.732419 -48.348657 
L 592.327616 -47.412035 
L 593.922813 -48.025684 
L 595.51801 -47.508927 
L 597.113208 -64.400436 
L 598.708405 -59.685024 
L 600.303602 -60.266376 
L 601.898799 -55.227991 
L 603.493997 -46.281628 
L 605.089194 -46.443114 
L 606.684391 -44.472977 
L 608.279588 -43.568651 
L 609.874786 -47.605819 
L 611.469983 -43.69784 
L 613.06518 -53.613124 
L 614.660377 -43.277975 
L 616.255575 -43.084191 
L 617.850772 -43.148786 
L 619.445969 -43.084191 
L 621.041166 -42.922704 
L 622.636364 -77.093291 
L 622.636364 -78.352887 
L 622.636364 -78.352887 
L 621.041166 -48.510144 
L 619.445969 -47.250548 
L 617.850772 -45.054329 
L 616.255575 -45.215815 
L 614.660377 -47.056764 
L 613.06518 -73.249907 
L 611.469983 -45.345005 
L 609.874786 -66.887331 
L 608.279588 -63.140839 
L 606.684391 -54.743531 
L 605.089194 -54.840423 
L 603.493997 -74.218827 
L 601.898799 -123.439974 
L 600.303602 -145.660545 
L 598.708405 -134.614854 
L 597.113208 -128.026197 
L 595.51801 -93.209664 
L 593.922813 -97.602102 
L 592.327616 -98.732509 
L 590.732419 -106.709952 
L 589.137221 -127.703223 
L 587.542024 -134.679449 
L 585.946827 -117.045101 
L 584.35163 -111.780634 
L 582.756432 -104.029273 
L 581.161235 -104.869004 
L 579.566038 -144.62703 
L 577.97084 -114.041448 
L 576.375643 -109.03536 
L 574.780446 -170.077334 
L 573.185249 -172.854905 
L 571.590051 -170.303416 
L 569.994854 -192.976149 
L 568.399657 -198.757373 
L 566.80446 -197.2071 
L 565.209262 -195.043178 
L 563.614065 -213.452663 
L 562.018868 -173.274771 
L 560.423671 -168.817738 
L 558.828473 -197.69156 
L 557.233276 -153.831772 
L 555.638079 -128.672144 
L 554.042882 -140.105402 
L 552.447684 -137.360128 
L 550.852487 -115.171855 
L 549.25729 -124.3443 
L 547.662093 -162.487459 
L 546.066895 -190.844524 
L 544.471698 -173.468555 
L 542.876501 -138.942698 
L 541.281304 -169.88355 
L 539.686106 -154.380827 
L 538.090909 -191.102903 
L 536.495712 -175.051125 
L 534.900515 -173.113284 
L 533.305317 -179.023698 
L 531.71012 -175.406395 
L 530.114923 -158.095021 
L 528.519726 -178.216264 
L 526.924528 -146.112707 
L 525.329331 -161.906107 
L 523.734134 -195.26926 
L 522.138937 -237.578776 
L 520.543739 -178.345453 
L 518.948542 -188.163845 
L 517.353345 -177.247344 
L 515.758148 -206.153464 
L 514.16295 -199.144941 
L 512.567753 -215.55199 
L 510.972556 -202.859135 
L 509.377358 -196.981019 
L 507.782161 -218.910913 
L 506.186964 -227.857277 
L 504.591767 -225.434976 
L 502.996569 -207.703736 
L 501.401372 -243.36 
L 499.806175 -178.50694 
L 498.210978 -132.8385 
L 496.61578 -203.085216 
L 495.020583 -149.633118 
L 493.425386 -151.764742 
L 491.830189 -113.78307 
L 490.234991 -139.459455 
L 488.639794 -165.620301 
L 487.044597 -172.951798 
L 485.4494 -135.196206 
L 483.854202 -138.490535 
L 482.259005 -118.046318 
L 480.663808 -106.742249 
L 479.068611 -83.940327 
L 477.473413 -130.319308 
L 475.878216 -175.761666 
L 474.283019 -164.4253 
L 472.687822 -174.308286 
L 471.092624 -143.399731 
L 469.497427 -104.287651 
L 467.90223 -84.231003 
L 466.307033 -94.630747 
L 464.711835 -140.719052 
L 463.116638 -149.891496 
L 461.521441 -74.283422 
L 459.926244 -90.46439 
L 458.331046 -48.542442 
L 456.735849 -50.38339 
L 455.140652 -77.997616 
L 453.545455 -94.372368 
L 451.950257 -77.997616 
L 450.35506 -51.998257 
L 448.759863 -47.767305 
L 447.164666 -70.440038 
L 445.569468 -54.808126 
L 443.974271 -70.698417 
L 442.379074 -68.276117 
L 440.783877 -74.089638 
L 439.188679 -85.619789 
L 437.593482 -51.513797 
L 435.998285 -56.713669 
L 434.403087 -76.996399 
L 432.80789 -78.80505 
L 431.212693 -113.395501 
L 429.617496 -104.158462 
L 428.022298 -136.940263 
L 426.427101 -153.476501 
L 424.831904 -150.666632 
L 423.236707 -189.455739 
L 421.641509 -142.237027 
L 420.046312 -113.16942 
L 418.451115 -100.896431 
L 416.855918 -64.529625 
L 415.26072 -80.74289 
L 413.665523 -113.718475 
L 412.070326 -87.202358 
L 410.475129 -106.1286 
L 408.879931 -104.707517 
L 407.284734 -118.2724 
L 405.689537 -139.071887 
L 404.09434 -105.99941 
L 402.499142 -57.488805 
L 400.903945 -50.028119 
L 399.308748 -53.128664 
L 397.713551 -110.198065 
L 396.118353 -52.353528 
L 394.523156 -50.415687 
L 392.927959 -47.993387 
L 391.332762 -50.512579 
L 389.737564 -104.836706 
L 388.142367 -67.274899 
L 386.54717 -114.364422 
L 384.951973 -143.851894 
L 383.356775 -120.630106 
L 381.761578 -118.563076 
L 380.166381 -148.761089 
L 378.571184 -110.004281 
L 376.975986 -120.33943 
L 375.380789 -100.638052 
L 373.785592 -87.29925 
L 372.190395 -88.429657 
L 370.595197 -90.722768 
L 369 -79.741673 
L 367.404803 -90.270606 
L 365.809605 -82.131676 
L 364.214408 -101.768459 
L 362.619211 -120.953079 
L 361.024014 -118.75686 
L 359.428816 -60.46016 
L 357.833619 -105.611842 
L 356.238422 -150.08528 
L 354.643225 -73.734367 
L 353.048027 -51.96596 
L 351.45283 -58.909888 
L 349.857633 -88.39736 
L 348.262436 -61.041512 
L 346.667238 -87.9129 
L 345.072041 -85.006139 
L 343.476844 -70.504633 
L 341.881647 -58.877591 
L 340.286449 -100.702647 
L 338.691252 -132.935393 
L 337.096055 -146.209599 
L 335.500858 -133.322961 
L 333.90566 -138.878103 
L 332.310463 -144.788517 
L 330.715266 -159.160833 
L 329.120069 -164.070029 
L 327.524871 -116.625236 
L 325.929674 -106.451573 
L 324.334477 -137.683102 
L 322.73928 -121.146863 
L 321.144082 -140.428376 
L 319.548885 -180.703159 
L 317.953688 -123.698353 
L 316.358491 -61.913541 
L 314.763293 -64.497328 
L 313.168096 -62.52719 
L 311.572899 -54.808126 
L 309.977702 -67.307196 
L 308.382504 -99.281564 
L 306.787307 -123.989029 
L 305.19211 -141.59108 
L 303.596913 -85.942762 
L 302.001715 -55.680154 
L 300.406518 -49.28528 
L 298.811321 -52.579609 
L 297.216123 -113.266312 
L 295.620926 -77.513156 
L 294.025729 -103.480218 
L 292.430532 -87.266953 
L 290.835334 -81.71181 
L 289.240137 -115.850099 
L 287.64494 -106.160897 
L 286.049743 -110.165767 
L 284.454545 -100.411971 
L 282.859348 -71.861121 
L 281.264151 -70.66612 
L 279.668954 -79.354104 
L 278.073756 -92.240743 
L 276.478559 -92.854393 
L 274.883362 -115.430234 
L 273.288165 -116.560641 
L 271.692967 -97.828183 
L 270.09777 -102.12373 
L 268.502573 -62.882461 
L 266.907376 -67.791657 
L 265.312178 -64.949491 
L 263.716981 -133.742826 
L 262.121784 -159.031644 
L 260.526587 -151.377174 
L 258.931389 -164.877462 
L 257.336192 -80.064646 
L 255.740995 -127.477142 
L 254.145798 -82.971407 
L 252.5506 -92.466825 
L 250.955403 -48.284063 
L 249.360206 -50.221903 
L 247.765009 -63.302326 
L 246.169811 -48.833118 
L 244.574614 -63.076245 
L 242.979417 -96.05183 
L 241.38422 -52.192041 
L 239.789022 -71.828824 
L 238.193825 -55.583262 
L 236.598628 -48.31636 
L 235.003431 -47.573521 
L 233.408233 -48.865415 
L 231.813036 -52.80569 
L 230.217839 -61.590567 
L 228.622642 -49.123794 
L 227.027444 -58.780698 
L 225.432247 -114.655098 
L 223.83705 -69.245037 
L 222.241852 -89.883037 
L 220.646655 -70.504633 
L 219.051458 -66.499763 
L 217.456261 -49.89893 
L 215.861063 -79.77397 
L 214.265866 -92.757501 
L 212.670669 -113.104825 
L 211.075472 -106.516168 
L 209.480274 -118.982941 
L 207.885077 -108.421711 
L 206.28988 -122.471054 
L 204.694683 -122.535649 
L 203.099485 -120.726998 
L 201.504288 -129.80255 
L 199.909091 -119.370509 
L 198.313894 -100.831836 
L 196.718696 -63.528408 
L 195.123499 -64.238949 
L 193.528302 -62.333406 
L 191.933105 -63.431516 
L 190.337907 -80.387619 
L 188.74271 -88.494252 
L 187.147513 -53.354745 
L 185.552316 -77.125588 
L 183.957118 -49.543659 
L 182.361921 -51.578392 
L 180.766724 -63.948273 
L 179.171527 -63.786786 
L 177.576329 -64.949491 
L 175.981132 -81.744108 
L 174.385935 -46.798385 
L 172.790738 -70.53693 
L 171.19554 -52.741096 
L 169.600343 -55.292586 
L 168.005146 -54.87272 
L 166.409949 -63.302326 
L 164.814751 -50.092714 
L 163.219554 -55.550964 
L 161.624357 -70.440038 
L 160.02916 -82.357757 
L 158.433962 -100.831836 
L 156.838765 -103.544813 
L 155.243568 -121.857405 
L 153.64837 -129.027414 
L 152.053173 -131.611202 
L 150.457976 -138.684319 
L 148.862779 -176.343018 
L 147.267581 -134.647152 
L 145.672384 -122.438757 
L 144.077187 -106.386979 
L 142.48199 -89.237091 
L 140.886792 -88.752631 
L 139.291595 -99.475348 
L 137.696398 -100.379673 
L 136.101201 -91.562499 
L 134.506003 -84.618571 
L 132.910806 -131.417417 
L 131.315609 -146.08041 
L 129.720412 -146.241897 
L 128.125214 -146.532573 
L 126.530017 -173.823826 
L 124.93482 -120.274835 
L 123.339623 -89.333983 
L 121.744425 -84.037219 
L 120.149228 -73.056123 
L 118.554031 -79.677078 
L 116.958834 -76.447344 
L 115.363636 -60.072592 
z
" style="stroke: #008000; stroke-width: 0.5"/>
    </defs>
    <g clip-path="url(#pc9c9c4e101)">
     <use xlink:href="#m4982c48aa9" x="0" y="288" style="fill: #008000; stroke: #008000; stroke-width: 0.5"/>
    </g>
   </g>
   <g id="line2d_26">
    <path d="M 90 44.64 
L 648 44.64 
" clip-path="url(#pc9c9c4e101)" style="fill: none; stroke: #000000; stroke-width: 1.5; stroke-linecap: square"/>
   </g>
   <g id="line2d_27">
    <path d="M 90 179.158424 
L 648 179.158424 
" clip-path="url(#pc9c9c4e101)" style="fill: none; stroke: #000000; stroke-width: 1.5; stroke-linecap: square"/>
   </g>
   <g id="patch_3">
    <path d="M 90 256.32 
L 90 34.56 
" style="fill: none; stroke: #000000; stroke-width: 0.8; stroke-linejoin: miter; stroke-linecap: square"/>
   </g>
   <g id="patch_4">
    <path d="M 648 256.32 
L 648 34.56 
" style="fill: none; stroke: #000000; stroke-width: 0.8; stroke-linejoin: miter; stroke-linecap: square"/>
   </g>
   <g id="patch_5">
    <path d="M 90 256.32 
L 648 256.32 
" style="fill: none; stroke: #000000; stroke-width: 0.8; stroke-linejoin: miter; stroke-linecap: square"/>
   </g>
   <g id="patch_6">
    <path d="M 90 34.56 
L 648 34.56 
" style="fill: none; stroke: #000000; stroke-width: 0.8; stroke-linejoin: miter; stroke-linecap: square"/>
   </g>
   <g id="text_21">
    <!-- peak (6,242) -->
    <g transform="translate(122.179233 41.3136) scale(0.1 -0.1)">
     <defs>
      <path id="DejaVuSans-Bold-70" d="M 1656 506 
L 1656 -1331 
L 538 -1331 
L 538 3500 
L 1656 3500 
L 1656 2988 
Q 1888 3294 2169 3439 
Q 2450 3584 2816 3584 
Q 3463 3584 3878 3070 
Q 4294 2556 4294 1747 
Q 4294 938 3878 423 
Q 3463 -91 2816 -91 
Q 2450 -91 2169 54 
Q 1888 200 1656 506 
z
M 2400 2772 
Q 2041 2772 1848 2508 
Q 1656 2244 1656 1747 
Q 1656 1250 1848 986 
Q 2041 722 2400 722 
Q 2759 722 2948 984 
Q 3138 1247 3138 1747 
Q 3138 2247 2948 2509 
Q 2759 2772 2400 2772 
z
" transform="scale(0.015625)"/>
      <path id="DejaVuSans-Bold-65" d="M 4031 1759 
L 4031 1441 
L 1416 1441 
Q 1456 1047 1700 850 
Q 1944 653 2381 653 
Q 2734 653 3104 758 
Q 3475 863 3866 1075 
L 3866 213 
Q 3469 63 3072 -14 
Q 2675 -91 2278 -91 
Q 1328 -91 801 392 
Q 275 875 275 1747 
Q 275 2603 792 3093 
Q 1309 3584 2216 3584 
Q 3041 3584 3536 3087 
Q 4031 2591 4031 1759 
z
M 2881 2131 
Q 2881 2450 2695 2645 
Q 2509 2841 2209 2841 
Q 1884 2841 1681 2658 
Q 1478 2475 1428 2131 
L 2881 2131 
z
" transform="scale(0.015625)"/>
      <path id="DejaVuSans-Bold-61" d="M 2106 1575 
Q 1756 1575 1579 1456 
Q 1403 1338 1403 1106 
Q 1403 894 1545 773 
Q 1688 653 1941 653 
Q 2256 653 2472 879 
Q 2688 1106 2688 1447 
L 2688 1575 
L 2106 1575 
z
M 3816 1997 
L 3816 0 
L 2688 0 
L 2688 519 
Q 2463 200 2181 54 
Q 1900 -91 1497 -91 
Q 953 -91 614 226 
Q 275 544 275 1050 
Q 275 1666 698 1953 
Q 1122 2241 2028 2241 
L 2688 2241 
L 2688 2328 
Q 2688 2594 2478 2717 
Q 2269 2841 1825 2841 
Q 1466 2841 1156 2769 
Q 847 2697 581 2553 
L 581 3406 
Q 941 3494 1303 3539 
Q 1666 3584 2028 3584 
Q 2975 3584 3395 3211 
Q 3816 2838 3816 1997 
z
" transform="scale(0.015625)"/>
      <path id="DejaVuSans-Bold-6b" d="M 538 4863 
L 1656 4863 
L 1656 2216 
L 2944 3500 
L 4244 3500 
L 2534 1894 
L 4378 0 
L 3022 0 
L 1656 1459 
L 1656 0 
L 538 0 
L 538 4863 
z
" transform="scale(0.015625)"/>
      <path id="DejaVuSans-Bold-20" transform="scale(0.015625)"/>
      <path id="DejaVuSans-Bold-28" d="M 2413 -844 
L 1484 -844 
Q 1006 -72 778 623 
Q 550 1319 550 2003 
Q 550 2688 779 3389 
Q 1009 4091 1484 4856 
L 2413 4856 
Q 2013 4116 1813 3408 
Q 1613 2700 1613 2009 
Q 1613 1319 1811 609 
Q 2009 -100 2413 -844 
z
" transform="scale(0.015625)"/>
      <path id="DejaVuSans-Bold-36" d="M 2316 2303 
Q 2000 2303 1842 2098 
Q 1684 1894 1684 1484 
Q 1684 1075 1842 870 
Q 2000 666 2316 666 
Q 2634 666 2792 870 
Q 2950 1075 2950 1484 
Q 2950 1894 2792 2098 
Q 2634 2303 2316 2303 
z
M 3803 4544 
L 3803 3681 
Q 3506 3822 3243 3889 
Q 2981 3956 2731 3956 
Q 2194 3956 1894 3657 
Q 1594 3359 1544 2772 
Q 1750 2925 1990 3001 
Q 2231 3078 2516 3078 
Q 3231 3078 3670 2659 
Q 4109 2241 4109 1563 
Q 4109 813 3618 361 
Q 3128 -91 2303 -91 
Q 1394 -91 895 523 
Q 397 1138 397 2266 
Q 397 3422 980 4083 
Q 1563 4744 2578 4744 
Q 2900 4744 3203 4694 
Q 3506 4644 3803 4544 
z
" transform="scale(0.015625)"/>
      <path id="DejaVuSans-Bold-2c" d="M 653 1209 
L 1778 1209 
L 1778 256 
L 1006 -909 
L 341 -909 
L 653 256 
L 653 1209 
z
" transform="scale(0.015625)"/>
      <path id="DejaVuSans-Bold-32" d="M 1844 884 
L 3897 884 
L 3897 0 
L 506 0 
L 506 884 
L 2209 2388 
Q 2438 2594 2547 2791 
Q 2656 2988 2656 3200 
Q 2656 3528 2436 3728 
Q 2216 3928 1850 3928 
Q 1569 3928 1234 3808 
Q 900 3688 519 3450 
L 519 4475 
Q 925 4609 1322 4679 
Q 1719 4750 2100 4750 
Q 2938 4750 3402 4381 
Q 3866 4013 3866 3353 
Q 3866 2972 3669 2642 
Q 3472 2313 2841 1759 
L 1844 884 
z
" transform="scale(0.015625)"/>
      <path id="DejaVuSans-Bold-34" d="M 2356 3675 
L 1038 1722 
L 2356 1722 
L 2356 3675 
z
M 2156 4666 
L 3494 4666 
L 3494 1722 
L 4159 1722 
L 4159 850 
L 3494 850 
L 3494 0 
L 2356 0 
L 2356 850 
L 288 850 
L 288 1881 
L 2156 4666 
z
" transform="scale(0.015625)"/>
      <path id="DejaVuSans-Bold-29" d="M 513 -844 
Q 913 -100 1113 609 
Q 1313 1319 1313 2009 
Q 1313 2700 1113 3408 
Q 913 4116 513 4856 
L 1441 4856 
Q 1916 4091 2145 3389 
Q 2375 2688 2375 2003 
Q 2375 1319 2147 623 
Q 1919 -72 1441 -844 
L 513 -844 
z
" transform="scale(0.015625)"/>
     </defs>
     <use xlink:href="#DejaVuSans-Bold-70"/>
     <use xlink:href="#DejaVuSans-Bold-65" x="71.582031"/>
     <use xlink:href="#DejaVuSans-Bold-61" x="139.404297"/>
     <use xlink:href="#DejaVuSans-Bold-6b" x="206.884766"/>
     <use xlink:href="#DejaVuSans-Bold-20" x="273.388672"/>
     <use xlink:href="#DejaVuSans-Bold-28" x="308.203125"/>
     <use xlink:href="#DejaVuSans-Bold-36" x="353.90625"/>
     <use xlink:href="#DejaVuSans-Bold-2c" x="423.486328"/>
     <use xlink:href="#DejaVuSans-Bold-32" x="461.474609"/>
     <use xlink:href="#DejaVuSans-Bold-34" x="531.054688"/>
     <use xlink:href="#DejaVuSans-Bold-32" x="600.634766"/>
     <use xlink:href="#DejaVuSans-Bold-29" x="670.214844"/>
    </g>
   </g>
   <g id="text_22">
    <!-- mean (2,077) -->
    <g transform="translate(567.728153 175.832024) scale(0.1 -0.1)">
     <defs>
      <path id="DejaVuSans-Bold-6d" d="M 3781 2919 
Q 3994 3244 4286 3414 
Q 4578 3584 4928 3584 
Q 5531 3584 5847 3212 
Q 6163 2841 6163 2131 
L 6163 0 
L 5038 0 
L 5038 1825 
Q 5041 1866 5042 1909 
Q 5044 1953 5044 2034 
Q 5044 2406 4934 2573 
Q 4825 2741 4581 2741 
Q 4263 2741 4089 2478 
Q 3916 2216 3909 1719 
L 3909 0 
L 2784 0 
L 2784 1825 
Q 2784 2406 2684 2573 
Q 2584 2741 2328 2741 
Q 2006 2741 1831 2477 
Q 1656 2213 1656 1722 
L 1656 0 
L 531 0 
L 531 3500 
L 1656 3500 
L 1656 2988 
Q 1863 3284 2130 3434 
Q 2397 3584 2719 3584 
Q 3081 3584 3359 3409 
Q 3638 3234 3781 2919 
z
" transform="scale(0.015625)"/>
      <path id="DejaVuSans-Bold-6e" d="M 4056 2131 
L 4056 0 
L 2931 0 
L 2931 347 
L 2931 1631 
Q 2931 2084 2911 2256 
Q 2891 2428 2841 2509 
Q 2775 2619 2662 2680 
Q 2550 2741 2406 2741 
Q 2056 2741 1856 2470 
Q 1656 2200 1656 1722 
L 1656 0 
L 538 0 
L 538 3500 
L 1656 3500 
L 1656 2988 
Q 1909 3294 2193 3439 
Q 2478 3584 2822 3584 
Q 3428 3584 3742 3212 
Q 4056 2841 4056 2131 
z
" transform="scale(0.015625)"/>
      <path id="DejaVuSans-Bold-30" d="M 2944 2338 
Q 2944 3213 2780 3570 
Q 2616 3928 2228 3928 
Q 1841 3928 1675 3570 
Q 1509 3213 1509 2338 
Q 1509 1453 1675 1090 
Q 1841 728 2228 728 
Q 2613 728 2778 1090 
Q 2944 1453 2944 2338 
z
M 4147 2328 
Q 4147 1169 3647 539 
Q 3147 -91 2228 -91 
Q 1306 -91 806 539 
Q 306 1169 306 2328 
Q 306 3491 806 4120 
Q 1306 4750 2228 4750 
Q 3147 4750 3647 4120 
Q 4147 3491 4147 2328 
z
" transform="scale(0.015625)"/>
      <path id="DejaVuSans-Bold-37" d="M 428 4666 
L 3944 4666 
L 3944 3988 
L 2125 0 
L 953 0 
L 2675 3781 
L 428 3781 
L 428 4666 
z
" transform="scale(0.015625)"/>
     </defs>
     <use xlink:href="#DejaVuSans-Bold-6d"/>
     <use xlink:href="#DejaVuSans-Bold-65" x="104.199219"/>
     <use xlink:href="#DejaVuSans-Bold-61" x="172.021484"/>
     <use xlink:href="#DejaVuSans-Bold-6e" x="239.501953"/>
     <use xlink:href="#DejaVuSans-Bold-20" x="310.693359"/>
     <use xlink:href="#DejaVuSans-Bold-28" x="345.507812"/>
     <use xlink:href="#DejaVuSans-Bold-32" x="391.210938"/>
     <use xlink:href="#DejaVuSans-Bold-2c" x="460.791016"/>
     <use xlink:href="#DejaVuSans-Bold-30" x="498.779297"/>
     <use xlink:href="#DejaVuSans-Bold-37" x="568.359375"/>
     <use xlink:href="#DejaVuSans-Bold-37" x="637.939453"/>
     <use xlink:href="#DejaVuSans-Bold-29" x="707.519531"/>
    </g>
   </g>
   <g id="text_23">
    <!-- Stream Bitrate over Time -->
    <g transform="translate(293.189062 28.56) scale(0.12 -0.12)">
     <defs>
      <path id="DejaVuSans-53" d="M 3425 4513 
L 3425 3897 
Q 3066 4069 2747 4153 
Q 2428 4238 2131 4238 
Q 1616 4238 1336 4038 
Q 1056 3838 1056 3469 
Q 1056 3159 1242 3001 
Q 1428 2844 1947 2747 
L 2328 2669 
Q 3034 2534 3370 2195 
Q 3706 1856 3706 1288 
Q 3706 609 3251 259 
Q 2797 -91 1919 -91 
Q 1588 -91 1214 -16 
Q 841 59 441 206 
L 441 856 
Q 825 641 1194 531 
Q 1563 422 1919 422 
Q 2459 422 2753 634 
Q 3047 847 3047 1241 
Q 3047 1584 2836 1778 
Q 2625 1972 2144 2069 
L 1759 2144 
Q 1053 2284 737 2584 
Q 422 2884 422 3419 
Q 422 4038 858 4394 
Q 1294 4750 2059 4750 
Q 2388 4750 2728 4690 
Q 3069 4631 3425 4513 
z
" transform="scale(0.015625)"/>
      <path id="DejaVuSans-6f" d="M 1959 3097 
Q 1497 3097 1228 2736 
Q 959 2375 959 1747 
Q 959 1119 1226 758 
Q 1494 397 1959 397 
Q 2419 397 2687 759 
Q 2956 1122 2956 1747 
Q 2956 2369 2687 2733 
Q 2419 3097 1959 3097 
z
M 1959 3584 
Q 2709 3584 3137 3096 
Q 3566 2609 3566 1747 
Q 3566 888 3137 398 
Q 2709 -91 1959 -91 
Q 1206 -91 779 398 
Q 353 888 353 1747 
Q 353 2609 779 3096 
Q 1206 3584 1959 3584 
z
" transform="scale(0.015625)"/>
      <path id="DejaVuSans-76" d="M 191 3500 
L 800 3500 
L 1894 563 
L 2988 3500 
L 3597 3500 
L 2284 0 
L 1503 0 
L 191 3500 
z
" transform="scale(0.015625)"/>
     </defs>
     <use xlink:href="#DejaVuSans-53"/>
     <use xlink:href="#DejaVuSans-74" x="63.476562"/>
     <use xlink:href="#DejaVuSans-72" x="102.685547"/>
     <use xlink:href="#DejaVuSans-65" x="141.548828"/>
     <use xlink:href="#DejaVuSans-61" x="203.072266"/>
     <use xlink:href="#DejaVuSans-6d" x="264.351562"/>
     <use xlink:href="#DejaVuSans-20" x="361.763672"/>
     <use xlink:href="#DejaVuSans-42" x="393.550781"/>
     <use xlink:href="#DejaVuSans-69" x="462.154297"/>
     <use xlink:href="#DejaVuSans-74" x="489.9375"/>
     <use xlink:href="#DejaVuSans-72" x="529.146484"/>
     <use xlink:href="#DejaVuSans-61" x="570.259766"/>
     <use xlink:href="#DejaVuSans-74" x="631.539062"/>
     <use xlink:href="#DejaVuSans-65" x="670.748047"/>
     <use xlink:href="#DejaVuSans-20" x="732.271484"/>
     <use xlink:href="#DejaVuSans-6f" x="764.058594"/>
     <use xlink:href="#DejaVuSans-76" x="825.240234"/>
     <use xlink:href="#DejaVuSans-65" x="884.419922"/>
     <use xlink:href="#DejaVuSans-72" x="945.943359"/>
     <use xlink:href="#DejaVuSans-20" x="987.056641"/>
     <use xlink:href="#DejaVuSans-54" x="1018.84375"/>
     <use xlink:href="#DejaVuSans-69" x="1076.802734"/>
     <use xlink:href="#DejaVuSans-6d" x="1104.585938"/>
     <use xlink:href="#DejaVuSans-65" x="1201.998047"/>
    </g>
   </g>
   <g id="legend_1">
    <g id="patch_7">
     <path d="M 602.139063 86.594375 
L 641 86.594375 
Q 643 86.594375 643 84.594375 
L 643 41.56 
Q 643 39.56 641 39.56 
L 602.139063 39.56 
Q 600.139063 39.56 600.139063 41.56 
L 600.139063 84.594375 
Q 600.139063 86.594375 602.139063 86.594375 
z
" style="fill: #ffffff; opacity: 0.8; stroke: #cccccc; stroke-linejoin: miter"/>
    </g>
    <g id="patch_8">
     <path d="M 604.139063 51.158438 
L 624.139063 51.158438 
L 624.139063 44.158438 
L 604.139063 44.158438 
z
" style="fill: #ff0000; stroke: #ff0000; stroke-width: 0.5; stroke-linejoin: miter"/>
    </g>
    <g id="text_24">
     <!-- I -->
     <g transform="translate(632.139063 51.158438) scale(0.1 -0.1)">
      <defs>
       <path id="DejaVuSans-49" d="M 628 4666 
L 1259 4666 
L 1259 0 
L 628 0 
L 628 4666 
z
" transform="scale(0.015625)"/>
      </defs>
      <use xlink:href="#DejaVuSans-49"/>
     </g>
    </g>
    <g id="patch_9">
     <path d="M 604.139063 65.836563 
L 624.139063 65.836563 
L 624.139063 58.836563 
L 604.139063 58.836563 
z
" style="fill: #0000ff; stroke: #0000ff; stroke-width: 0.5; stroke-linejoin: miter"/>
    </g>
    <g id="text_25">
     <!-- B -->
     <g transform="translate(632.139063 65.836563) scale(0.1 -0.1)">
      <use xlink:href="#DejaVuSans-42"/>
     </g>
    </g>
    <g id="patch_10">
     <path d="M 604.139063 80.514688 
L 624.139063 80.514688 
L 624.139063 73.514688 
L 604.139063 73.514688 
z
" style="fill: #008000; stroke: #008000; stroke-width: 0.5; stroke-linejoin: miter"/>
    </g>
    <g id="text_26">
     <!-- P -->
     <g transform="translate(632.139063 80.514688) scale(0.1 -0.1)">
      <defs>
       <path id="DejaVuSans-50" d="M 1259 4147 
L 1259 2394 
L 2053 2394 
Q 2494 2394 2734 2622 
Q 2975 2850 2975 3272 
Q 2975 3691 2734 3919 
Q 2494 4147 2053 4147 
L 1259 4147 
z
M 628 4666 
L 2053 4666 
Q 2838 4666 3239 4311 
Q 3641 3956 3641 3272 
Q 3641 2581 3239 2228 
Q 2838 1875 2053 1875 
L 1259 1875 
L 1259 0 
L 628 0 
L 628 4666 
z
" transform="scale(0.015625)"/>
      </defs>
      <use xlink:href="#DejaVuSans-50"/>
     </g>
    </g>
   </g>
  </g>
 </g>
 <defs>
  <clipPath id="pc9c9c4e101">
   <rect x="90" y="34.56" width="558" height="221.76"/>
  </clipPath>
 </defs>
</svg>
