<?xml version="1.0" encoding="utf-8" standalone="no"?>
<!DOCTYPE svg PUBLIC "-//W3C//DTD SVG 1.1//EN"
  "http://www.w3.org/Graphics/SVG/1.1/DTD/svg11.dtd">
<svg xmlns:xlink="http://www.w3.org/1999/xlink" width="720pt" height="288pt" viewBox="0 0 720 288" xmlns="http://www.w3.org/2000/svg" version="1.1">
 <metadata>
  <rdf:RDF xmlns:dc="http://purl.org/dc/elements/1.1/" xmlns:cc="http://creativecommons.org/ns#" xmlns:rdf="http://www.w3.org/1999/02/22-rdf-syntax-ns#">
   <cc:Work>
    <dc:type rdf:resource="http://purl.org/dc/dcmitype/StillImage"/>
    <dc:date>2023-05-07T14:06:28.987217</dc:date>
    <dc:format>image/svg+xml</dc:format>
    <dc:creator>
     <cc:Agent>
      <dc:title>Matplotlib v3.7.1, https://matplotlib.org/</dc:title>
     </cc:Agent>
    </dc:creator>
   </cc:Work>
  </rdf:RDF>
 </metadata>
 <defs>
  <style type="text/css">*{stroke-linejoin: round; stroke-linecap: butt}</style>
 </defs>
 <g id="figure_1">
  <g id="patch_1">
   <path d="M 0 288 
L 720 288 
L 720 0 
L 0 0 
z
" style="fill: #ffffff"/>
  </g>
  <g id="axes_1">
   <g id="patch_2">
    <path d="M 90 256.32 
L 648 256.32 
L 648 34.56 
L 90 34.56 
z
" style="fill: #ffffff"/>
   </g>
   <g id="matplotlib.axis_1">
    <g id="xtick_1">
     <g id="line2d_1">
      <defs>
       <path id="m565df04a70" d="M 0 0 
L 0 3.5 
" style="stroke: #000000; stroke-width: 0.8"/>
      </defs>
      <g>
       <use xlink:href="#m565df04a70" x="115.363636" y="256.32" style="stroke: #000000; stroke-width: 0.8"/>
      </g>
     </g>
     <g id="text_1">
      <!-- 0:00:00 -->
      <g transform="translate(96.088636 270.918437) scale(0.1 -0.1)">
       <defs>
        <path id="DejaVuSans-30" d="M 2034 4250 
Q 1547 4250 1301 3770 
Q 1056 3291 1056 2328 
Q 1056 1369 1301 889 
Q 1547 409 2034 409 
Q 2525 409 2770 889 
Q 3016 1369 3016 2328 
Q 3016 3291 2770 3770 
Q 2525 4250 2034 4250 
z
M 2034 4750 
Q 2819 4750 3233 4129 
Q 3647 3509 3647 2328 
Q 3647 1150 3233 529 
Q 2819 -91 2034 -91 
Q 1250 -91 836 529 
Q 422 1150 422 2328 
Q 422 3509 836 4129 
Q 1250 4750 2034 4750 
z
" transform="scale(0.015625)"/>
        <path id="DejaVuSans-3a" d="M 750 794 
L 1409 794 
L 1409 0 
L 750 0 
L 750 794 
z
M 750 3309 
L 1409 3309 
L 1409 2516 
L 750 2516 
L 750 3309 
z
" transform="scale(0.015625)"/>
       </defs>
       <use xlink:href="#DejaVuSans-30"/>
       <use xlink:href="#DejaVuSans-3a" x="63.623047"/>
       <use xlink:href="#DejaVuSans-30" x="97.314453"/>
       <use xlink:href="#DejaVuSans-30" x="160.9375"/>
       <use xlink:href="#DejaVuSans-3a" x="224.560547"/>
       <use xlink:href="#DejaVuSans-30" x="258.251953"/>
       <use xlink:href="#DejaVuSans-30" x="321.875"/>
      </g>
     </g>
    </g>
    <g id="xtick_2">
     <g id="line2d_2">
      <g>
       <use xlink:href="#m565df04a70" x="164.814751" y="256.32" style="stroke: #000000; stroke-width: 0.8"/>
      </g>
     </g>
     <g id="text_2">
      <!-- 0:00:31 -->
      <g transform="translate(145.539751 270.918437) scale(0.1 -0.1)">
       <defs>
        <path id="DejaVuSans-33" d="M 2597 2516 
Q 3050 2419 3304 2112 
Q 3559 1806 3559 1356 
Q 3559 666 3084 287 
Q 2609 -91 1734 -91 
Q 1441 -91 1130 -33 
Q 819 25 488 141 
L 488 750 
Q 750 597 1062 519 
Q 1375 441 1716 441 
Q 2309 441 2620 675 
Q 2931 909 2931 1356 
Q 2931 1769 2642 2001 
Q 2353 2234 1838 2234 
L 1294 2234 
L 1294 2753 
L 1863 2753 
Q 2328 2753 2575 2939 
Q 2822 3125 2822 3475 
Q 2822 3834 2567 4026 
Q 2313 4219 1838 4219 
Q 1578 4219 1281 4162 
Q 984 4106 628 3988 
L 628 4550 
Q 988 4650 1302 4700 
Q 1616 4750 1894 4750 
Q 2613 4750 3031 4423 
Q 3450 4097 3450 3541 
Q 3450 3153 3228 2886 
Q 3006 2619 2597 2516 
z
" transform="scale(0.015625)"/>
        <path id="DejaVuSans-31" d="M 794 531 
L 1825 531 
L 1825 4091 
L 703 3866 
L 703 4441 
L 1819 4666 
L 2450 4666 
L 2450 531 
L 3481 531 
L 3481 0 
L 794 0 
L 794 531 
z
" transform="scale(0.015625)"/>
       </defs>
       <use xlink:href="#DejaVuSans-30"/>
       <use xlink:href="#DejaVuSans-3a" x="63.623047"/>
       <use xlink:href="#DejaVuSans-30" x="97.314453"/>
       <use xlink:href="#DejaVuSans-30" x="160.9375"/>
       <use xlink:href="#DejaVuSans-3a" x="224.560547"/>
       <use xlink:href="#DejaVuSans-33" x="258.251953"/>
       <use xlink:href="#DejaVuSans-31" x="321.875"/>
      </g>
     </g>
    </g>
    <g id="xtick_3">
     <g id="line2d_3">
      <g>
       <use xlink:href="#m565df04a70" x="214.265866" y="256.32" style="stroke: #000000; stroke-width: 0.8"/>
      </g>
     </g>
     <g id="text_3">
      <!-- 0:01:02 -->
      <g transform="translate(194.990866 270.918437) scale(0.1 -0.1)">
       <defs>
        <path id="DejaVuSans-32" d="M 1228 531 
L 3431 531 
L 3431 0 
L 469 0 
L 469 531 
Q 828 903 1448 1529 
Q 2069 2156 2228 2338 
Q 2531 2678 2651 2914 
Q 2772 3150 2772 3378 
Q 2772 3750 2511 3984 
Q 2250 4219 1831 4219 
Q 1534 4219 1204 4116 
Q 875 4013 500 3803 
L 500 4441 
Q 881 4594 1212 4672 
Q 1544 4750 1819 4750 
Q 2544 4750 2975 4387 
Q 3406 4025 3406 3419 
Q 3406 3131 3298 2873 
Q 3191 2616 2906 2266 
Q 2828 2175 2409 1742 
Q 1991 1309 1228 531 
z
" transform="scale(0.015625)"/>
       </defs>
       <use xlink:href="#DejaVuSans-30"/>
       <use xlink:href="#DejaVuSans-3a" x="63.623047"/>
       <use xlink:href="#DejaVuSans-30" x="97.314453"/>
       <use xlink:href="#DejaVuSans-31" x="160.9375"/>
       <use xlink:href="#DejaVuSans-3a" x="224.560547"/>
       <use xlink:href="#DejaVuSans-30" x="258.251953"/>
       <use xlink:href="#DejaVuSans-32" x="321.875"/>
      </g>
     </g>
    </g>
    <g id="xtick_4">
     <g id="line2d_4">
      <g>
       <use xlink:href="#m565df04a70" x="263.716981" y="256.32" style="stroke: #000000; stroke-width: 0.8"/>
      </g>
     </g>
     <g id="text_4">
      <!-- 0:01:33 -->
      <g transform="translate(244.441981 270.918437) scale(0.1 -0.1)">
       <use xlink:href="#DejaVuSans-30"/>
       <use xlink:href="#DejaVuSans-3a" x="63.623047"/>
       <use xlink:href="#DejaVuSans-30" x="97.314453"/>
       <use xlink:href="#DejaVuSans-31" x="160.9375"/>
       <use xlink:href="#DejaVuSans-3a" x="224.560547"/>
       <use xlink:href="#DejaVuSans-33" x="258.251953"/>
       <use xlink:href="#DejaVuSans-33" x="321.875"/>
      </g>
     </g>
    </g>
    <g id="xtick_5">
     <g id="line2d_5">
      <g>
       <use xlink:href="#m565df04a70" x="313.168096" y="256.32" style="stroke: #000000; stroke-width: 0.8"/>
      </g>
     </g>
     <g id="text_5">
      <!-- 0:02:04 -->
      <g transform="translate(293.893096 270.918437) scale(0.1 -0.1)">
       <defs>
        <path id="DejaVuSans-34" d="M 2419 4116 
L 825 1625 
L 2419 1625 
L 2419 4116 
z
M 2253 4666 
L 3047 4666 
L 3047 1625 
L 3713 1625 
L 3713 1100 
L 3047 1100 
L 3047 0 
L 2419 0 
L 2419 1100 
L 313 1100 
L 313 1709 
L 2253 4666 
z
" transform="scale(0.015625)"/>
       </defs>
       <use xlink:href="#DejaVuSans-30"/>
       <use xlink:href="#DejaVuSans-3a" x="63.623047"/>
       <use xlink:href="#DejaVuSans-30" x="97.314453"/>
       <use xlink:href="#DejaVuSans-32" x="160.9375"/>
       <use xlink:href="#DejaVuSans-3a" x="224.560547"/>
       <use xlink:href="#DejaVuSans-30" x="258.251953"/>
       <use xlink:href="#DejaVuSans-34" x="321.875"/>
      </g>
     </g>
    </g>
    <g id="xtick_6">
     <g id="line2d_6">
      <g>
       <use xlink:href="#m565df04a70" x="362.619211" y="256.32" style="stroke: #000000; stroke-width: 0.8"/>
      </g>
     </g>
     <g id="text_6">
      <!-- 0:02:35 -->
      <g transform="translate(343.344211 270.918437) scale(0.1 -0.1)">
       <defs>
        <path id="DejaVuSans-35" d="M 691 4666 
L 3169 4666 
L 3169 4134 
L 1269 4134 
L 1269 2991 
Q 1406 3038 1543 3061 
Q 1681 3084 1819 3084 
Q 2600 3084 3056 2656 
Q 3513 2228 3513 1497 
Q 3513 744 3044 326 
Q 2575 -91 1722 -91 
Q 1428 -91 1123 -41 
Q 819 9 494 109 
L 494 744 
Q 775 591 1075 516 
Q 1375 441 1709 441 
Q 2250 441 2565 725 
Q 2881 1009 2881 1497 
Q 2881 1984 2565 2268 
Q 2250 2553 1709 2553 
Q 1456 2553 1204 2497 
Q 953 2441 691 2322 
L 691 4666 
z
" transform="scale(0.015625)"/>
       </defs>
       <use xlink:href="#DejaVuSans-30"/>
       <use xlink:href="#DejaVuSans-3a" x="63.623047"/>
       <use xlink:href="#DejaVuSans-30" x="97.314453"/>
       <use xlink:href="#DejaVuSans-32" x="160.9375"/>
       <use xlink:href="#DejaVuSans-3a" x="224.560547"/>
       <use xlink:href="#DejaVuSans-33" x="258.251953"/>
       <use xlink:href="#DejaVuSans-35" x="321.875"/>
      </g>
     </g>
    </g>
    <g id="xtick_7">
     <g id="line2d_7">
      <g>
       <use xlink:href="#m565df04a70" x="412.070326" y="256.32" style="stroke: #000000; stroke-width: 0.8"/>
      </g>
     </g>
     <g id="text_7">
      <!-- 0:03:06 -->
      <g transform="translate(392.795326 270.918437) scale(0.1 -0.1)">
       <defs>
        <path id="DejaVuSans-36" d="M 2113 2584 
Q 1688 2584 1439 2293 
Q 1191 2003 1191 1497 
Q 1191 994 1439 701 
Q 1688 409 2113 409 
Q 2538 409 2786 701 
Q 3034 994 3034 1497 
Q 3034 2003 2786 2293 
Q 2538 2584 2113 2584 
z
M 3366 4563 
L 3366 3988 
Q 3128 4100 2886 4159 
Q 2644 4219 2406 4219 
Q 1781 4219 1451 3797 
Q 1122 3375 1075 2522 
Q 1259 2794 1537 2939 
Q 1816 3084 2150 3084 
Q 2853 3084 3261 2657 
Q 3669 2231 3669 1497 
Q 3669 778 3244 343 
Q 2819 -91 2113 -91 
Q 1303 -91 875 529 
Q 447 1150 447 2328 
Q 447 3434 972 4092 
Q 1497 4750 2381 4750 
Q 2619 4750 2861 4703 
Q 3103 4656 3366 4563 
z
" transform="scale(0.015625)"/>
       </defs>
       <use xlink:href="#DejaVuSans-30"/>
       <use xlink:href="#DejaVuSans-3a" x="63.623047"/>
       <use xlink:href="#DejaVuSans-30" x="97.314453"/>
       <use xlink:href="#DejaVuSans-33" x="160.9375"/>
       <use xlink:href="#DejaVuSans-3a" x="224.560547"/>
       <use xlink:href="#DejaVuSans-30" x="258.251953"/>
       <use xlink:href="#DejaVuSans-36" x="321.875"/>
      </g>
     </g>
    </g>
    <g id="xtick_8">
     <g id="line2d_8">
      <g>
       <use xlink:href="#m565df04a70" x="461.521441" y="256.32" style="stroke: #000000; stroke-width: 0.8"/>
      </g>
     </g>
     <g id="text_8">
      <!-- 0:03:37 -->
      <g transform="translate(442.246441 270.918437) scale(0.1 -0.1)">
       <defs>
        <path id="DejaVuSans-37" d="M 525 4666 
L 3525 4666 
L 3525 4397 
L 1831 0 
L 1172 0 
L 2766 4134 
L 525 4134 
L 525 4666 
z
" transform="scale(0.015625)"/>
       </defs>
       <use xlink:href="#DejaVuSans-30"/>
       <use xlink:href="#DejaVuSans-3a" x="63.623047"/>
       <use xlink:href="#DejaVuSans-30" x="97.314453"/>
       <use xlink:href="#DejaVuSans-33" x="160.9375"/>
       <use xlink:href="#DejaVuSans-3a" x="224.560547"/>
       <use xlink:href="#DejaVuSans-33" x="258.251953"/>
       <use xlink:href="#DejaVuSans-37" x="321.875"/>
      </g>
     </g>
    </g>
    <g id="xtick_9">
     <g id="line2d_9">
      <g>
       <use xlink:href="#m565df04a70" x="510.972556" y="256.32" style="stroke: #000000; stroke-width: 0.8"/>
      </g>
     </g>
     <g id="text_9">
      <!-- 0:04:08 -->
      <g transform="translate(491.697556 270.918437) scale(0.1 -0.1)">
       <defs>
        <path id="DejaVuSans-38" d="M 2034 2216 
Q 1584 2216 1326 1975 
Q 1069 1734 1069 1313 
Q 1069 891 1326 650 
Q 1584 409 2034 409 
Q 2484 409 2743 651 
Q 3003 894 3003 1313 
Q 3003 1734 2745 1975 
Q 2488 2216 2034 2216 
z
M 1403 2484 
Q 997 2584 770 2862 
Q 544 3141 544 3541 
Q 544 4100 942 4425 
Q 1341 4750 2034 4750 
Q 2731 4750 3128 4425 
Q 3525 4100 3525 3541 
Q 3525 3141 3298 2862 
Q 3072 2584 2669 2484 
Q 3125 2378 3379 2068 
Q 3634 1759 3634 1313 
Q 3634 634 3220 271 
Q 2806 -91 2034 -91 
Q 1263 -91 848 271 
Q 434 634 434 1313 
Q 434 1759 690 2068 
Q 947 2378 1403 2484 
z
M 1172 3481 
Q 1172 3119 1398 2916 
Q 1625 2713 2034 2713 
Q 2441 2713 2670 2916 
Q 2900 3119 2900 3481 
Q 2900 3844 2670 4047 
Q 2441 4250 2034 4250 
Q 1625 4250 1398 4047 
Q 1172 3844 1172 3481 
z
" transform="scale(0.015625)"/>
       </defs>
       <use xlink:href="#DejaVuSans-30"/>
       <use xlink:href="#DejaVuSans-3a" x="63.623047"/>
       <use xlink:href="#DejaVuSans-30" x="97.314453"/>
       <use xlink:href="#DejaVuSans-34" x="160.9375"/>
       <use xlink:href="#DejaVuSans-3a" x="224.560547"/>
       <use xlink:href="#DejaVuSans-30" x="258.251953"/>
       <use xlink:href="#DejaVuSans-38" x="321.875"/>
      </g>
     </g>
    </g>
    <g id="xtick_10">
     <g id="line2d_10">
      <g>
       <use xlink:href="#m565df04a70" x="560.423671" y="256.32" style="stroke: #000000; stroke-width: 0.8"/>
      </g>
     </g>
     <g id="text_10">
      <!-- 0:04:39 -->
      <g transform="translate(541.148671 270.918437) scale(0.1 -0.1)">
       <defs>
        <path id="DejaVuSans-39" d="M 703 97 
L 703 672 
Q 941 559 1184 500 
Q 1428 441 1663 441 
Q 2288 441 2617 861 
Q 2947 1281 2994 2138 
Q 2813 1869 2534 1725 
Q 2256 1581 1919 1581 
Q 1219 1581 811 2004 
Q 403 2428 403 3163 
Q 403 3881 828 4315 
Q 1253 4750 1959 4750 
Q 2769 4750 3195 4129 
Q 3622 3509 3622 2328 
Q 3622 1225 3098 567 
Q 2575 -91 1691 -91 
Q 1453 -91 1209 -44 
Q 966 3 703 97 
z
M 1959 2075 
Q 2384 2075 2632 2365 
Q 2881 2656 2881 3163 
Q 2881 3666 2632 3958 
Q 2384 4250 1959 4250 
Q 1534 4250 1286 3958 
Q 1038 3666 1038 3163 
Q 1038 2656 1286 2365 
Q 1534 2075 1959 2075 
z
" transform="scale(0.015625)"/>
       </defs>
       <use xlink:href="#DejaVuSans-30"/>
       <use xlink:href="#DejaVuSans-3a" x="63.623047"/>
       <use xlink:href="#DejaVuSans-30" x="97.314453"/>
       <use xlink:href="#DejaVuSans-34" x="160.9375"/>
       <use xlink:href="#DejaVuSans-3a" x="224.560547"/>
       <use xlink:href="#DejaVuSans-33" x="258.251953"/>
       <use xlink:href="#DejaVuSans-39" x="321.875"/>
      </g>
     </g>
    </g>
    <g id="xtick_11">
     <g id="line2d_11">
      <g>
       <use xlink:href="#m565df04a70" x="609.874786" y="256.32" style="stroke: #000000; stroke-width: 0.8"/>
      </g>
     </g>
     <g id="text_11">
      <!-- 0:05:10 -->
      <g transform="translate(590.599786 270.918437) scale(0.1 -0.1)">
       <use xlink:href="#DejaVuSans-30"/>
       <use xlink:href="#DejaVuSans-3a" x="63.623047"/>
       <use xlink:href="#DejaVuSans-30" x="97.314453"/>
       <use xlink:href="#DejaVuSans-35" x="160.9375"/>
       <use xlink:href="#DejaVuSans-3a" x="224.560547"/>
       <use xlink:href="#DejaVuSans-31" x="258.251953"/>
       <use xlink:href="#DejaVuSans-30" x="321.875"/>
      </g>
     </g>
    </g>
    <g id="text_12">
     <!-- Time -->
     <g transform="translate(356.766406 284.596563) scale(0.1 -0.1)">
      <defs>
       <path id="DejaVuSans-54" d="M -19 4666 
L 3928 4666 
L 3928 4134 
L 2272 4134 
L 2272 0 
L 1638 0 
L 1638 4134 
L -19 4134 
L -19 4666 
z
" transform="scale(0.015625)"/>
       <path id="DejaVuSans-69" d="M 603 3500 
L 1178 3500 
L 1178 0 
L 603 0 
L 603 3500 
z
M 603 4863 
L 1178 4863 
L 1178 4134 
L 603 4134 
L 603 4863 
z
" transform="scale(0.015625)"/>
       <path id="DejaVuSans-6d" d="M 3328 2828 
Q 3544 3216 3844 3400 
Q 4144 3584 4550 3584 
Q 5097 3584 5394 3201 
Q 5691 2819 5691 2113 
L 5691 0 
L 5113 0 
L 5113 2094 
Q 5113 2597 4934 2840 
Q 4756 3084 4391 3084 
Q 3944 3084 3684 2787 
Q 3425 2491 3425 1978 
L 3425 0 
L 2847 0 
L 2847 2094 
Q 2847 2600 2669 2842 
Q 2491 3084 2119 3084 
Q 1678 3084 1418 2786 
Q 1159 2488 1159 1978 
L 1159 0 
L 581 0 
L 581 3500 
L 1159 3500 
L 1159 2956 
Q 1356 3278 1631 3431 
Q 1906 3584 2284 3584 
Q 2666 3584 2933 3390 
Q 3200 3197 3328 2828 
z
" transform="scale(0.015625)"/>
       <path id="DejaVuSans-65" d="M 3597 1894 
L 3597 1613 
L 953 1613 
Q 991 1019 1311 708 
Q 1631 397 2203 397 
Q 2534 397 2845 478 
Q 3156 559 3463 722 
L 3463 178 
Q 3153 47 2828 -22 
Q 2503 -91 2169 -91 
Q 1331 -91 842 396 
Q 353 884 353 1716 
Q 353 2575 817 3079 
Q 1281 3584 2069 3584 
Q 2775 3584 3186 3129 
Q 3597 2675 3597 1894 
z
M 3022 2063 
Q 3016 2534 2758 2815 
Q 2500 3097 2075 3097 
Q 1594 3097 1305 2825 
Q 1016 2553 972 2059 
L 3022 2063 
z
" transform="scale(0.015625)"/>
      </defs>
      <use xlink:href="#DejaVuSans-54"/>
      <use xlink:href="#DejaVuSans-69" x="57.958984"/>
      <use xlink:href="#DejaVuSans-6d" x="85.742188"/>
      <use xlink:href="#DejaVuSans-65" x="183.154297"/>
     </g>
    </g>
   </g>
   <g id="matplotlib.axis_2">
    <g id="ytick_1">
     <g id="line2d_12">
      <path d="M 90 246.24 
L 648 246.24 
" clip-path="url(#pee80fa705d)" style="fill: none; stroke: #b0b0b0; stroke-width: 0.8; stroke-linecap: square"/>
     </g>
     <g id="line2d_13">
      <defs>
       <path id="mb776418b09" d="M 0 0 
L -3.5 0 
" style="stroke: #000000; stroke-width: 0.8"/>
      </defs>
      <g>
       <use xlink:href="#mb776418b09" x="90" y="246.24" style="stroke: #000000; stroke-width: 0.8"/>
      </g>
     </g>
     <g id="text_13">
      <!-- 0 -->
      <g transform="translate(76.6375 250.039219) scale(0.1 -0.1)">
       <use xlink:href="#DejaVuSans-30"/>
      </g>
     </g>
    </g>
    <g id="ytick_2">
     <g id="line2d_14">
      <path d="M 90 221.101276 
L 648 221.101276 
" clip-path="url(#pee80fa705d)" style="fill: none; stroke: #b0b0b0; stroke-width: 0.8; stroke-linecap: square"/>
     </g>
     <g id="line2d_15">
      <g>
       <use xlink:href="#mb776418b09" x="90" y="221.101276" style="stroke: #000000; stroke-width: 0.8"/>
      </g>
     </g>
     <g id="text_14">
      <!-- 2,000 -->
      <g transform="translate(54.371875 224.900494) scale(0.1 -0.1)">
       <defs>
        <path id="DejaVuSans-2c" d="M 750 794 
L 1409 794 
L 1409 256 
L 897 -744 
L 494 -744 
L 750 256 
L 750 794 
z
" transform="scale(0.015625)"/>
       </defs>
       <use xlink:href="#DejaVuSans-32"/>
       <use xlink:href="#DejaVuSans-2c" x="63.623047"/>
       <use xlink:href="#DejaVuSans-30" x="95.410156"/>
       <use xlink:href="#DejaVuSans-30" x="159.033203"/>
       <use xlink:href="#DejaVuSans-30" x="222.65625"/>
      </g>
     </g>
    </g>
    <g id="ytick_3">
     <g id="line2d_16">
      <path d="M 90 195.962551 
L 648 195.962551 
" clip-path="url(#pee80fa705d)" style="fill: none; stroke: #b0b0b0; stroke-width: 0.8; stroke-linecap: square"/>
     </g>
     <g id="line2d_17">
      <g>
       <use xlink:href="#mb776418b09" x="90" y="195.962551" style="stroke: #000000; stroke-width: 0.8"/>
      </g>
     </g>
     <g id="text_15">
      <!-- 4,000 -->
      <g transform="translate(54.371875 199.76177) scale(0.1 -0.1)">
       <use xlink:href="#DejaVuSans-34"/>
       <use xlink:href="#DejaVuSans-2c" x="63.623047"/>
       <use xlink:href="#DejaVuSans-30" x="95.410156"/>
       <use xlink:href="#DejaVuSans-30" x="159.033203"/>
       <use xlink:href="#DejaVuSans-30" x="222.65625"/>
      </g>
     </g>
    </g>
    <g id="ytick_4">
     <g id="line2d_18">
      <path d="M 90 170.823827 
L 648 170.823827 
" clip-path="url(#pee80fa705d)" style="fill: none; stroke: #b0b0b0; stroke-width: 0.8; stroke-linecap: square"/>
     </g>
     <g id="line2d_19">
      <g>
       <use xlink:href="#mb776418b09" x="90" y="170.823827" style="stroke: #000000; stroke-width: 0.8"/>
      </g>
     </g>
     <g id="text_16">
      <!-- 6,000 -->
      <g transform="translate(54.371875 174.623046) scale(0.1 -0.1)">
       <use xlink:href="#DejaVuSans-36"/>
       <use xlink:href="#DejaVuSans-2c" x="63.623047"/>
       <use xlink:href="#DejaVuSans-30" x="95.410156"/>
       <use xlink:href="#DejaVuSans-30" x="159.033203"/>
       <use xlink:href="#DejaVuSans-30" x="222.65625"/>
      </g>
     </g>
    </g>
    <g id="ytick_5">
     <g id="line2d_20">
      <path d="M 90 145.685103 
L 648 145.685103 
" clip-path="url(#pee80fa705d)" style="fill: none; stroke: #b0b0b0; stroke-width: 0.8; stroke-linecap: square"/>
     </g>
     <g id="line2d_21">
      <g>
       <use xlink:href="#mb776418b09" x="90" y="145.685103" style="stroke: #000000; stroke-width: 0.8"/>
      </g>
     </g>
     <g id="text_17">
      <!-- 8,000 -->
      <g transform="translate(54.371875 149.484321) scale(0.1 -0.1)">
       <use xlink:href="#DejaVuSans-38"/>
       <use xlink:href="#DejaVuSans-2c" x="63.623047"/>
       <use xlink:href="#DejaVuSans-30" x="95.410156"/>
       <use xlink:href="#DejaVuSans-30" x="159.033203"/>
       <use xlink:href="#DejaVuSans-30" x="222.65625"/>
      </g>
     </g>
    </g>
    <g id="ytick_6">
     <g id="line2d_22">
      <path d="M 90 120.546378 
L 648 120.546378 
" clip-path="url(#pee80fa705d)" style="fill: none; stroke: #b0b0b0; stroke-width: 0.8; stroke-linecap: square"/>
     </g>
     <g id="line2d_23">
      <g>
       <use xlink:href="#mb776418b09" x="90" y="120.546378" style="stroke: #000000; stroke-width: 0.8"/>
      </g>
     </g>
     <g id="text_18">
      <!-- 10,000 -->
      <g transform="translate(48.009375 124.345597) scale(0.1 -0.1)">
       <use xlink:href="#DejaVuSans-31"/>
       <use xlink:href="#DejaVuSans-30" x="63.623047"/>
       <use xlink:href="#DejaVuSans-2c" x="127.246094"/>
       <use xlink:href="#DejaVuSans-30" x="159.033203"/>
       <use xlink:href="#DejaVuSans-30" x="222.65625"/>
       <use xlink:href="#DejaVuSans-30" x="286.279297"/>
      </g>
     </g>
    </g>
    <g id="ytick_7">
     <g id="line2d_24">
      <path d="M 90 95.407654 
L 648 95.407654 
" clip-path="url(#pee80fa705d)" style="fill: none; stroke: #b0b0b0; stroke-width: 0.8; stroke-linecap: square"/>
     </g>
     <g id="line2d_25">
      <g>
       <use xlink:href="#mb776418b09" x="90" y="95.407654" style="stroke: #000000; stroke-width: 0.8"/>
      </g>
     </g>
     <g id="text_19">
      <!-- 12,000 -->
      <g transform="translate(48.009375 99.206873) scale(0.1 -0.1)">
       <use xlink:href="#DejaVuSans-31"/>
       <use xlink:href="#DejaVuSans-32" x="63.623047"/>
       <use xlink:href="#DejaVuSans-2c" x="127.246094"/>
       <use xlink:href="#DejaVuSans-30" x="159.033203"/>
       <use xlink:href="#DejaVuSans-30" x="222.65625"/>
       <use xlink:href="#DejaVuSans-30" x="286.279297"/>
      </g>
     </g>
    </g>
    <g id="ytick_8">
     <g id="line2d_26">
      <path d="M 90 70.268929 
L 648 70.268929 
" clip-path="url(#pee80fa705d)" style="fill: none; stroke: #b0b0b0; stroke-width: 0.8; stroke-linecap: square"/>
     </g>
     <g id="line2d_27">
      <g>
       <use xlink:href="#mb776418b09" x="90" y="70.268929" style="stroke: #000000; stroke-width: 0.8"/>
      </g>
     </g>
     <g id="text_20">
      <!-- 14,000 -->
      <g transform="translate(48.009375 74.068148) scale(0.1 -0.1)">
       <use xlink:href="#DejaVuSans-31"/>
       <use xlink:href="#DejaVuSans-34" x="63.623047"/>
       <use xlink:href="#DejaVuSans-2c" x="127.246094"/>
       <use xlink:href="#DejaVuSans-30" x="159.033203"/>
       <use xlink:href="#DejaVuSans-30" x="222.65625"/>
       <use xlink:href="#DejaVuSans-30" x="286.279297"/>
      </g>
     </g>
    </g>
    <g id="ytick_9">
     <g id="line2d_28">
      <path d="M 90 45.130205 
L 648 45.130205 
" clip-path="url(#pee80fa705d)" style="fill: none; stroke: #b0b0b0; stroke-width: 0.8; stroke-linecap: square"/>
     </g>
     <g id="line2d_29">
      <g>
       <use xlink:href="#mb776418b09" x="90" y="45.130205" style="stroke: #000000; stroke-width: 0.8"/>
      </g>
     </g>
     <g id="text_21">
      <!-- 16,000 -->
      <g transform="translate(48.009375 48.929424) scale(0.1 -0.1)">
       <use xlink:href="#DejaVuSans-31"/>
       <use xlink:href="#DejaVuSans-36" x="63.623047"/>
       <use xlink:href="#DejaVuSans-2c" x="127.246094"/>
       <use xlink:href="#DejaVuSans-30" x="159.033203"/>
       <use xlink:href="#DejaVuSans-30" x="222.65625"/>
       <use xlink:href="#DejaVuSans-30" x="286.279297"/>
      </g>
     </g>
    </g>
    <g id="text_22">
     <!-- Bitrate (kbit/s) -->
     <g transform="translate(41.929688 181.574375) rotate(-90) scale(0.1 -0.1)">
      <defs>
       <path id="DejaVuSans-42" d="M 1259 2228 
L 1259 519 
L 2272 519 
Q 2781 519 3026 730 
Q 3272 941 3272 1375 
Q 3272 1813 3026 2020 
Q 2781 2228 2272 2228 
L 1259 2228 
z
M 1259 4147 
L 1259 2741 
L 2194 2741 
Q 2656 2741 2882 2914 
Q 3109 3088 3109 3444 
Q 3109 3797 2882 3972 
Q 2656 4147 2194 4147 
L 1259 4147 
z
M 628 4666 
L 2241 4666 
Q 2963 4666 3353 4366 
Q 3744 4066 3744 3513 
Q 3744 3084 3544 2831 
Q 3344 2578 2956 2516 
Q 3422 2416 3680 2098 
Q 3938 1781 3938 1306 
Q 3938 681 3513 340 
Q 3088 0 2303 0 
L 628 0 
L 628 4666 
z
" transform="scale(0.015625)"/>
       <path id="DejaVuSans-74" d="M 1172 4494 
L 1172 3500 
L 2356 3500 
L 2356 3053 
L 1172 3053 
L 1172 1153 
Q 1172 725 1289 603 
Q 1406 481 1766 481 
L 2356 481 
L 2356 0 
L 1766 0 
Q 1100 0 847 248 
Q 594 497 594 1153 
L 594 3053 
L 172 3053 
L 172 3500 
L 594 3500 
L 594 4494 
L 1172 4494 
z
" transform="scale(0.015625)"/>
       <path id="DejaVuSans-72" d="M 2631 2963 
Q 2534 3019 2420 3045 
Q 2306 3072 2169 3072 
Q 1681 3072 1420 2755 
Q 1159 2438 1159 1844 
L 1159 0 
L 581 0 
L 581 3500 
L 1159 3500 
L 1159 2956 
Q 1341 3275 1631 3429 
Q 1922 3584 2338 3584 
Q 2397 3584 2469 3576 
Q 2541 3569 2628 3553 
L 2631 2963 
z
" transform="scale(0.015625)"/>
       <path id="DejaVuSans-61" d="M 2194 1759 
Q 1497 1759 1228 1600 
Q 959 1441 959 1056 
Q 959 750 1161 570 
Q 1363 391 1709 391 
Q 2188 391 2477 730 
Q 2766 1069 2766 1631 
L 2766 1759 
L 2194 1759 
z
M 3341 1997 
L 3341 0 
L 2766 0 
L 2766 531 
Q 2569 213 2275 61 
Q 1981 -91 1556 -91 
Q 1019 -91 701 211 
Q 384 513 384 1019 
Q 384 1609 779 1909 
Q 1175 2209 1959 2209 
L 2766 2209 
L 2766 2266 
Q 2766 2663 2505 2880 
Q 2244 3097 1772 3097 
Q 1472 3097 1187 3025 
Q 903 2953 641 2809 
L 641 3341 
Q 956 3463 1253 3523 
Q 1550 3584 1831 3584 
Q 2591 3584 2966 3190 
Q 3341 2797 3341 1997 
z
" transform="scale(0.015625)"/>
       <path id="DejaVuSans-20" transform="scale(0.015625)"/>
       <path id="DejaVuSans-28" d="M 1984 4856 
Q 1566 4138 1362 3434 
Q 1159 2731 1159 2009 
Q 1159 1288 1364 580 
Q 1569 -128 1984 -844 
L 1484 -844 
Q 1016 -109 783 600 
Q 550 1309 550 2009 
Q 550 2706 781 3412 
Q 1013 4119 1484 4856 
L 1984 4856 
z
" transform="scale(0.015625)"/>
       <path id="DejaVuSans-6b" d="M 581 4863 
L 1159 4863 
L 1159 1991 
L 2875 3500 
L 3609 3500 
L 1753 1863 
L 3688 0 
L 2938 0 
L 1159 1709 
L 1159 0 
L 581 0 
L 581 4863 
z
" transform="scale(0.015625)"/>
       <path id="DejaVuSans-62" d="M 3116 1747 
Q 3116 2381 2855 2742 
Q 2594 3103 2138 3103 
Q 1681 3103 1420 2742 
Q 1159 2381 1159 1747 
Q 1159 1113 1420 752 
Q 1681 391 2138 391 
Q 2594 391 2855 752 
Q 3116 1113 3116 1747 
z
M 1159 2969 
Q 1341 3281 1617 3432 
Q 1894 3584 2278 3584 
Q 2916 3584 3314 3078 
Q 3713 2572 3713 1747 
Q 3713 922 3314 415 
Q 2916 -91 2278 -91 
Q 1894 -91 1617 61 
Q 1341 213 1159 525 
L 1159 0 
L 581 0 
L 581 4863 
L 1159 4863 
L 1159 2969 
z
" transform="scale(0.015625)"/>
       <path id="DejaVuSans-2f" d="M 1625 4666 
L 2156 4666 
L 531 -594 
L 0 -594 
L 1625 4666 
z
" transform="scale(0.015625)"/>
       <path id="DejaVuSans-73" d="M 2834 3397 
L 2834 2853 
Q 2591 2978 2328 3040 
Q 2066 3103 1784 3103 
Q 1356 3103 1142 2972 
Q 928 2841 928 2578 
Q 928 2378 1081 2264 
Q 1234 2150 1697 2047 
L 1894 2003 
Q 2506 1872 2764 1633 
Q 3022 1394 3022 966 
Q 3022 478 2636 193 
Q 2250 -91 1575 -91 
Q 1294 -91 989 -36 
Q 684 19 347 128 
L 347 722 
Q 666 556 975 473 
Q 1284 391 1588 391 
Q 1994 391 2212 530 
Q 2431 669 2431 922 
Q 2431 1156 2273 1281 
Q 2116 1406 1581 1522 
L 1381 1569 
Q 847 1681 609 1914 
Q 372 2147 372 2553 
Q 372 3047 722 3315 
Q 1072 3584 1716 3584 
Q 2034 3584 2315 3537 
Q 2597 3491 2834 3397 
z
" transform="scale(0.015625)"/>
       <path id="DejaVuSans-29" d="M 513 4856 
L 1013 4856 
Q 1481 4119 1714 3412 
Q 1947 2706 1947 2009 
Q 1947 1309 1714 600 
Q 1481 -109 1013 -844 
L 513 -844 
Q 928 -128 1133 580 
Q 1338 1288 1338 2009 
Q 1338 2731 1133 3434 
Q 928 4138 513 4856 
z
" transform="scale(0.015625)"/>
      </defs>
      <use xlink:href="#DejaVuSans-42"/>
      <use xlink:href="#DejaVuSans-69" x="68.603516"/>
      <use xlink:href="#DejaVuSans-74" x="96.386719"/>
      <use xlink:href="#DejaVuSans-72" x="135.595703"/>
      <use xlink:href="#DejaVuSans-61" x="176.708984"/>
      <use xlink:href="#DejaVuSans-74" x="237.988281"/>
      <use xlink:href="#DejaVuSans-65" x="277.197266"/>
      <use xlink:href="#DejaVuSans-20" x="338.720703"/>
      <use xlink:href="#DejaVuSans-28" x="370.507812"/>
      <use xlink:href="#DejaVuSans-6b" x="409.521484"/>
      <use xlink:href="#DejaVuSans-62" x="467.431641"/>
      <use xlink:href="#DejaVuSans-69" x="530.908203"/>
      <use xlink:href="#DejaVuSans-74" x="558.691406"/>
      <use xlink:href="#DejaVuSans-2f" x="597.900391"/>
      <use xlink:href="#DejaVuSans-73" x="631.591797"/>
      <use xlink:href="#DejaVuSans-29" x="683.691406"/>
     </g>
    </g>
   </g>
   <g id="PolyCollection_1">
    <defs>
     <path id="mad20027593" d="M 115.363636 -45.065742 
L 115.363636 -41.76 
L 116.958834 -41.76 
L 118.554031 -41.76 
L 120.149228 -41.76 
L 121.744425 -41.76 
L 123.339623 -41.76 
L 124.93482 -41.76 
L 126.530017 -41.76 
L 128.125214 -41.76 
L 129.720412 -41.76 
L 131.315609 -41.76 
L 132.910806 -41.76 
L 134.506003 -41.76 
L 136.101201 -41.76 
L 137.696398 -41.76 
L 139.291595 -41.76 
L 140.886792 -41.76 
L 142.48199 -41.76 
L 144.077187 -41.76 
L 145.672384 -41.76 
L 147.267581 -41.76 
L 148.862779 -41.76 
L 150.457976 -41.76 
L 152.053173 -41.76 
L 153.64837 -41.76 
L 155.243568 -41.76 
L 156.838765 -41.76 
L 158.433962 -41.76 
L 160.02916 -41.76 
L 161.624357 -41.76 
L 163.219554 -41.76 
L 164.814751 -41.76 
L 166.409949 -41.76 
L 168.005146 -41.76 
L 169.600343 -41.76 
L 171.19554 -41.76 
L 172.790738 -41.76 
L 174.385935 -41.76 
L 175.981132 -41.76 
L 177.576329 -41.76 
L 179.171527 -41.76 
L 180.766724 -41.76 
L 182.361921 -41.76 
L 183.957118 -41.76 
L 185.552316 -41.76 
L 187.147513 -41.76 
L 188.74271 -41.76 
L 190.337907 -41.76 
L 191.933105 -41.76 
L 193.528302 -41.76 
L 195.123499 -41.76 
L 196.718696 -41.76 
L 198.313894 -41.76 
L 199.909091 -41.76 
L 201.504288 -41.76 
L 203.099485 -41.76 
L 204.694683 -41.76 
L 206.28988 -41.76 
L 207.885077 -41.76 
L 209.480274 -41.76 
L 211.075472 -41.76 
L 212.670669 -41.76 
L 214.265866 -41.76 
L 215.861063 -41.76 
L 217.456261 -41.76 
L 219.051458 -41.76 
L 220.646655 -41.76 
L 222.241852 -41.76 
L 223.83705 -41.76 
L 225.432247 -41.76 
L 227.027444 -41.76 
L 228.622642 -41.76 
L 230.217839 -41.76 
L 231.813036 -41.76 
L 233.408233 -41.76 
L 235.003431 -41.76 
L 236.598628 -41.76 
L 238.193825 -41.76 
L 239.789022 -41.76 
L 241.38422 -41.76 
L 242.979417 -41.76 
L 244.574614 -41.76 
L 246.169811 -41.76 
L 247.765009 -41.76 
L 249.360206 -41.76 
L 250.955403 -41.76 
L 252.5506 -41.76 
L 254.145798 -41.76 
L 255.740995 -41.76 
L 257.336192 -41.76 
L 258.931389 -41.76 
L 260.526587 -41.76 
L 262.121784 -41.76 
L 263.716981 -41.76 
L 265.312178 -41.76 
L 266.907376 -41.76 
L 268.502573 -41.76 
L 270.09777 -41.76 
L 271.692967 -41.76 
L 273.288165 -41.76 
L 274.883362 -41.76 
L 276.478559 -41.76 
L 278.073756 -41.76 
L 279.668954 -41.76 
L 281.264151 -41.76 
L 282.859348 -41.76 
L 284.454545 -41.76 
L 286.049743 -41.76 
L 287.64494 -41.76 
L 289.240137 -41.76 
L 290.835334 -41.76 
L 292.430532 -41.76 
L 294.025729 -41.76 
L 295.620926 -41.76 
L 297.216123 -41.76 
L 298.811321 -41.76 
L 300.406518 -41.76 
L 302.001715 -41.76 
L 303.596913 -41.76 
L 305.19211 -41.76 
L 306.787307 -41.76 
L 308.382504 -41.76 
L 309.977702 -41.76 
L 311.572899 -41.76 
L 313.168096 -41.76 
L 314.763293 -41.76 
L 316.358491 -41.76 
L 317.953688 -41.76 
L 319.548885 -41.76 
L 321.144082 -41.76 
L 322.73928 -41.76 
L 324.334477 -41.76 
L 325.929674 -41.76 
L 327.524871 -41.76 
L 329.120069 -41.76 
L 330.715266 -41.76 
L 332.310463 -41.76 
L 333.90566 -41.76 
L 335.500858 -41.76 
L 337.096055 -41.76 
L 338.691252 -41.76 
L 340.286449 -41.76 
L 341.881647 -41.76 
L 343.476844 -41.76 
L 345.072041 -41.76 
L 346.667238 -41.76 
L 348.262436 -41.76 
L 349.857633 -41.76 
L 351.45283 -41.76 
L 353.048027 -41.76 
L 354.643225 -41.76 
L 356.238422 -41.76 
L 357.833619 -41.76 
L 359.428816 -41.76 
L 361.024014 -41.76 
L 362.619211 -41.76 
L 364.214408 -41.76 
L 365.809605 -41.76 
L 367.404803 -41.76 
L 369 -41.76 
L 370.595197 -41.76 
L 372.190395 -41.76 
L 373.785592 -41.76 
L 375.380789 -41.76 
L 376.975986 -41.76 
L 378.571184 -41.76 
L 380.166381 -41.76 
L 381.761578 -41.76 
L 383.356775 -41.76 
L 384.951973 -41.76 
L 386.54717 -41.76 
L 388.142367 -41.76 
L 389.737564 -41.76 
L 391.332762 -41.76 
L 392.927959 -41.76 
L 394.523156 -41.76 
L 396.118353 -41.76 
L 397.713551 -41.76 
L 399.308748 -41.76 
L 400.903945 -41.76 
L 402.499142 -41.76 
L 404.09434 -41.76 
L 405.689537 -41.76 
L 407.284734 -41.76 
L 408.879931 -41.76 
L 410.475129 -41.76 
L 412.070326 -41.76 
L 413.665523 -41.76 
L 415.26072 -41.76 
L 416.855918 -41.76 
L 418.451115 -41.76 
L 420.046312 -41.76 
L 421.641509 -41.76 
L 423.236707 -41.76 
L 424.831904 -41.76 
L 426.427101 -41.76 
L 428.022298 -41.76 
L 429.617496 -41.76 
L 431.212693 -41.76 
L 432.80789 -41.76 
L 434.403087 -41.76 
L 435.998285 -41.76 
L 437.593482 -41.76 
L 439.188679 -41.76 
L 440.783877 -41.76 
L 442.379074 -41.76 
L 443.974271 -41.76 
L 445.569468 -41.76 
L 447.164666 -41.76 
L 448.759863 -41.76 
L 450.35506 -41.76 
L 451.950257 -41.76 
L 453.545455 -41.76 
L 455.140652 -41.76 
L 456.735849 -41.76 
L 458.331046 -41.76 
L 459.926244 -41.76 
L 461.521441 -41.76 
L 463.116638 -41.76 
L 464.711835 -41.76 
L 466.307033 -41.76 
L 467.90223 -41.76 
L 469.497427 -41.76 
L 471.092624 -41.76 
L 472.687822 -41.76 
L 474.283019 -41.76 
L 475.878216 -41.76 
L 477.473413 -41.76 
L 479.068611 -41.76 
L 480.663808 -41.76 
L 482.259005 -41.76 
L 483.854202 -41.76 
L 485.4494 -41.76 
L 487.044597 -41.76 
L 488.639794 -41.76 
L 490.234991 -41.76 
L 491.830189 -41.76 
L 493.425386 -41.76 
L 495.020583 -41.76 
L 496.61578 -41.76 
L 498.210978 -41.76 
L 499.806175 -41.76 
L 501.401372 -41.76 
L 502.996569 -41.76 
L 504.591767 -41.76 
L 506.186964 -41.76 
L 507.782161 -41.76 
L 509.377358 -41.76 
L 510.972556 -41.76 
L 512.567753 -41.76 
L 514.16295 -41.76 
L 515.758148 -41.76 
L 517.353345 -41.76 
L 518.948542 -41.76 
L 520.543739 -41.76 
L 522.138937 -41.76 
L 523.734134 -41.76 
L 525.329331 -41.76 
L 526.924528 -41.76 
L 528.519726 -41.76 
L 530.114923 -41.76 
L 531.71012 -41.76 
L 533.305317 -41.76 
L 534.900515 -41.76 
L 536.495712 -41.76 
L 538.090909 -41.76 
L 539.686106 -41.76 
L 541.281304 -41.76 
L 542.876501 -41.76 
L 544.471698 -41.76 
L 546.066895 -41.76 
L 547.662093 -41.76 
L 549.25729 -41.76 
L 550.852487 -41.76 
L 552.447684 -41.76 
L 554.042882 -41.76 
L 555.638079 -41.76 
L 557.233276 -41.76 
L 558.828473 -41.76 
L 560.423671 -41.76 
L 562.018868 -41.76 
L 563.614065 -41.76 
L 565.209262 -41.76 
L 566.80446 -41.76 
L 568.399657 -41.76 
L 569.994854 -41.76 
L 571.590051 -41.76 
L 573.185249 -41.76 
L 574.780446 -41.76 
L 576.375643 -41.76 
L 577.97084 -41.76 
L 579.566038 -41.76 
L 581.161235 -41.76 
L 582.756432 -41.76 
L 584.35163 -41.76 
L 585.946827 -41.76 
L 587.542024 -41.76 
L 589.137221 -41.76 
L 590.732419 -41.76 
L 592.327616 -41.76 
L 593.922813 -41.76 
L 595.51801 -41.76 
L 597.113208 -41.76 
L 598.708405 -41.76 
L 600.303602 -41.76 
L 601.898799 -41.76 
L 603.493997 -41.76 
L 605.089194 -41.76 
L 606.684391 -41.76 
L 608.279588 -41.76 
L 609.874786 -41.76 
L 611.469983 -41.76 
L 613.06518 -41.76 
L 614.660377 -41.76 
L 616.255575 -41.76 
L 617.850772 -41.76 
L 619.445969 -41.76 
L 621.041166 -41.76 
L 622.636364 -41.76 
L 622.636364 -41.76 
L 622.636364 -41.76 
L 621.041166 -53.411799 
L 619.445969 -41.76 
L 617.850772 -53.399229 
L 616.255575 -41.76 
L 614.660377 -41.76 
L 613.06518 -46.398095 
L 611.469983 -41.76 
L 609.874786 -46.548927 
L 608.279588 -41.76 
L 606.684391 -41.76 
L 605.089194 -43.419156 
L 603.493997 -41.76 
L 601.898799 -53.38666 
L 600.303602 -41.76 
L 598.708405 -41.76 
L 597.113208 -49.741545 
L 595.51801 -41.76 
L 593.922813 -51.476117 
L 592.327616 -41.76 
L 590.732419 -41.76 
L 589.137221 -52.305695 
L 587.542024 -41.76 
L 585.946827 -50.344874 
L 584.35163 -41.76 
L 582.756432 -41.76 
L 581.161235 -60.513488 
L 579.566038 -41.76 
L 577.97084 -57.647674 
L 576.375643 -41.76 
L 574.780446 -41.76 
L 573.185249 -54.693874 
L 571.590051 -41.76 
L 569.994854 -54.693874 
L 568.399657 -41.76 
L 566.80446 -41.76 
L 565.209262 -56.554139 
L 563.614065 -41.76 
L 562.018868 -55.309772 
L 560.423671 -41.76 
L 558.828473 -41.76 
L 557.233276 -49.087938 
L 555.638079 -41.76 
L 554.042882 -53.801449 
L 552.447684 -41.76 
L 550.852487 -41.76 
L 549.25729 -52.506805 
L 547.662093 -41.76 
L 546.066895 -58.364127 
L 544.471698 -41.76 
L 542.876501 -41.76 
L 541.281304 -59.746757 
L 539.686106 -41.76 
L 538.090909 -55.259495 
L 536.495712 -41.76 
L 534.900515 -41.76 
L 533.305317 -53.072426 
L 531.71012 -41.76 
L 530.114923 -49.037661 
L 528.519726 -41.76 
L 526.924528 -41.76 
L 525.329331 -54.920122 
L 523.734134 -41.76 
L 522.138937 -60.08613 
L 520.543739 -41.76 
L 518.948542 -41.76 
L 517.353345 -59.005165 
L 515.758148 -41.76 
L 514.16295 -62.134936 
L 512.567753 -41.76 
L 510.972556 -41.76 
L 509.377358 -62.939375 
L 507.782161 -41.76 
L 506.186964 -65.289846 
L 504.591767 -41.76 
L 502.996569 -41.76 
L 501.401372 -61.695008 
L 499.806175 -41.76 
L 498.210978 -52.833608 
L 496.61578 -41.76 
L 495.020583 -41.76 
L 493.425386 -46.335248 
L 491.830189 -41.76 
L 490.234991 -50.344874 
L 488.639794 -41.76 
L 487.044597 -41.76 
L 485.4494 -45.794765 
L 483.854202 -41.76 
L 482.259005 -44.085332 
L 480.663808 -41.76 
L 479.068611 -41.76 
L 477.473413 -42.338191 
L 475.878216 -41.76 
L 474.283019 -49.779253 
L 472.687822 -41.76 
L 471.092624 -41.76 
L 469.497427 -46.435803 
L 467.90223 -41.76 
L 466.307033 -46.68719 
L 464.711835 -41.76 
L 463.116638 -41.76 
L 461.521441 -46.108999 
L 459.926244 -41.76 
L 458.331046 -45.70678 
L 456.735849 -41.76 
L 455.140652 -41.76 
L 453.545455 -45.455392 
L 451.950257 -41.76 
L 450.35506 -46.259832 
L 448.759863 -41.76 
L 447.164666 -41.76 
L 445.569468 -46.272401 
L 443.974271 -41.76 
L 442.379074 -44.060193 
L 440.783877 -41.76 
L 439.188679 -41.76 
L 437.593482 -48.006973 
L 435.998285 -41.76 
L 434.403087 -47.994404 
L 432.80789 -41.76 
L 431.212693 -41.76 
L 429.617496 -48.64801 
L 428.022298 -41.76 
L 426.427101 -47.805863 
L 424.831904 -41.76 
L 423.236707 -41.76 
L 421.641509 -47.780724 
L 420.046312 -41.76 
L 418.451115 -46.511219 
L 416.855918 -41.76 
L 415.26072 -41.76 
L 413.665523 -46.272401 
L 412.070326 -41.76 
L 410.475129 -47.340797 
L 408.879931 -41.76 
L 407.284734 -41.76 
L 405.689537 -47.340797 
L 404.09434 -41.76 
L 402.499142 -45.153728 
L 400.903945 -41.76 
L 399.308748 -41.76 
L 397.713551 -45.153728 
L 396.118353 -41.76 
L 394.523156 -52.770761 
L 392.927959 -41.76 
L 391.332762 -41.76 
L 389.737564 -52.758192 
L 388.142367 -41.76 
L 386.54717 -48.622872 
L 384.951973 -41.76 
L 383.356775 -41.76 
L 381.761578 -48.283499 
L 380.166381 -41.76 
L 378.571184 -45.078312 
L 376.975986 -41.76 
L 375.380789 -41.76 
L 373.785592 -45.618794 
L 372.190395 -41.76 
L 370.595197 -45.719349 
L 369 -41.76 
L 367.404803 -41.76 
L 365.809605 -45.568517 
L 364.214408 -41.76 
L 362.619211 -48.886828 
L 361.024014 -41.76 
L 359.428816 -41.76 
L 357.833619 -49.012522 
L 356.238422 -41.76 
L 354.643225 -53.562631 
L 353.048027 -41.76 
L 351.45283 -41.76 
L 349.857633 -53.562631 
L 348.262436 -41.76 
L 346.667238 -45.229144 
L 345.072041 -41.76 
L 343.476844 -41.76 
L 341.881647 -45.392546 
L 340.286449 -41.76 
L 338.691252 -46.272401 
L 337.096055 -41.76 
L 335.500858 -41.76 
L 333.90566 -46.29754 
L 332.310463 -41.76 
L 330.715266 -46.372956 
L 329.120069 -41.76 
L 327.524871 -41.76 
L 325.929674 -44.663523 
L 324.334477 -41.76 
L 322.73928 -49.201062 
L 321.144082 -41.76 
L 319.548885 -41.76 
L 317.953688 -48.296068 
L 316.358491 -41.76 
L 314.763293 -45.153728 
L 313.168096 -41.76 
L 311.572899 -41.76 
L 309.977702 -48.610302 
L 308.382504 -41.76 
L 306.787307 -50.508276 
L 305.19211 -41.76 
L 303.596913 -41.76 
L 302.001715 -50.04321 
L 300.406518 -41.76 
L 298.811321 -50.005502 
L 297.216123 -41.76 
L 295.620926 -41.76 
L 294.025729 -49.967794 
L 292.430532 -41.76 
L 290.835334 -50.181473 
L 289.240137 -41.76 
L 287.64494 -41.76 
L 286.049743 -46.863161 
L 284.454545 -41.76 
L 282.859348 -45.518239 
L 281.264151 -41.76 
L 279.668954 -41.76 
L 278.073756 -57.547119 
L 276.478559 -41.76 
L 274.883362 -49.364464 
L 273.288165 -41.76 
L 271.692967 -41.76 
L 270.09777 -49.326756 
L 268.502573 -41.76 
L 266.907376 -49.578143 
L 265.312178 -41.76 
L 263.716981 -41.76 
L 262.121784 -45.870181 
L 260.526587 -41.76 
L 258.931389 -47.567045 
L 257.336192 -41.76 
L 255.740995 -41.76 
L 254.145798 -50.483137 
L 252.5506 -41.76 
L 250.955403 -45.719349 
L 249.360206 -41.76 
L 247.765009 -41.76 
L 246.169811 -45.719349 
L 244.574614 -41.76 
L 242.979417 -45.631364 
L 241.38422 -41.76 
L 239.789022 -41.76 
L 238.193825 -45.141158 
L 236.598628 -41.76 
L 235.003431 -45.141158 
L 233.408233 -41.76 
L 231.813036 -41.76 
L 230.217839 -45.166297 
L 228.622642 -41.76 
L 227.027444 -45.216575 
L 225.432247 -41.76 
L 223.83705 -41.76 
L 222.241852 -46.372956 
L 220.646655 -41.76 
L 219.051458 -45.769627 
L 217.456261 -41.76 
L 215.861063 -41.76 
L 214.265866 -45.455392 
L 212.670669 -41.76 
L 211.075472 -45.354838 
L 209.480274 -41.76 
L 207.885077 -41.76 
L 206.28988 -45.329699 
L 204.694683 -41.76 
L 203.099485 -45.379976 
L 201.504288 -41.76 
L 199.909091 -41.76 
L 198.313894 -50.068348 
L 196.718696 -41.76 
L 195.123499 -50.080918 
L 193.528302 -41.76 
L 191.933105 -41.76 
L 190.337907 -50.143765 
L 188.74271 -41.76 
L 187.147513 -50.772233 
L 185.552316 -41.76 
L 183.957118 -41.76 
L 182.361921 -43.92193 
L 180.766724 -41.76 
L 179.171527 -48.999953 
L 177.576329 -41.76 
L 175.981132 -41.76 
L 174.385935 -47.07684 
L 172.790738 -41.76 
L 171.19554 -47.07684 
L 169.600343 -41.76 
L 168.005146 -41.76 
L 166.409949 -47.001424 
L 164.814751 -41.76 
L 163.219554 -43.293462 
L 161.624357 -41.76 
L 160.02916 -41.76 
L 158.433962 -43.808806 
L 156.838765 -41.76 
L 155.243568 -50.470568 
L 153.64837 -41.76 
L 152.053173 -41.76 
L 150.457976 -50.156334 
L 148.862779 -41.76 
L 147.267581 -45.153728 
L 145.672384 -41.76 
L 144.077187 -41.76 
L 142.48199 -44.349289 
L 140.886792 -41.76 
L 139.291595 -44.474982 
L 137.696398 -41.76 
L 136.101201 -41.76 
L 134.506003 -44.650953 
L 132.910806 -41.76 
L 131.315609 -46.335248 
L 129.720412 -41.76 
L 128.125214 -41.76 
L 126.530017 -46.838022 
L 124.93482 -41.76 
L 123.339623 -44.550398 
L 121.744425 -41.76 
L 120.149228 -41.76 
L 118.554031 -45.040604 
L 116.958834 -41.76 
L 115.363636 -45.065742 
z
" style="stroke: #ff0000; stroke-width: 0.5"/>
    </defs>
    <g clip-path="url(#pee80fa705d)">
     <use xlink:href="#mad20027593" x="0" y="288" style="fill: #ff0000; stroke: #ff0000; stroke-width: 0.5"/>
    </g>
   </g>
   <g id="PolyCollection_2">
    <defs>
     <path id="m65799bb0cf" d="M 115.363636 -45.744488 
L 115.363636 -45.065742 
L 116.958834 -41.76 
L 118.554031 -45.040604 
L 120.149228 -41.76 
L 121.744425 -41.76 
L 123.339623 -44.550398 
L 124.93482 -41.76 
L 126.530017 -46.838022 
L 128.125214 -41.76 
L 129.720412 -41.76 
L 131.315609 -46.335248 
L 132.910806 -41.76 
L 134.506003 -44.650953 
L 136.101201 -41.76 
L 137.696398 -41.76 
L 139.291595 -44.474982 
L 140.886792 -41.76 
L 142.48199 -44.349289 
L 144.077187 -41.76 
L 145.672384 -41.76 
L 147.267581 -45.153728 
L 148.862779 -41.76 
L 150.457976 -50.156334 
L 152.053173 -41.76 
L 153.64837 -41.76 
L 155.243568 -50.470568 
L 156.838765 -41.76 
L 158.433962 -43.808806 
L 160.02916 -41.76 
L 161.624357 -41.76 
L 163.219554 -43.293462 
L 164.814751 -41.76 
L 166.409949 -47.001424 
L 168.005146 -41.76 
L 169.600343 -41.76 
L 171.19554 -47.07684 
L 172.790738 -41.76 
L 174.385935 -47.07684 
L 175.981132 -41.76 
L 177.576329 -41.76 
L 179.171527 -48.999953 
L 180.766724 -41.76 
L 182.361921 -43.92193 
L 183.957118 -41.76 
L 185.552316 -41.76 
L 187.147513 -50.772233 
L 188.74271 -41.76 
L 190.337907 -50.143765 
L 191.933105 -41.76 
L 193.528302 -41.76 
L 195.123499 -50.080918 
L 196.718696 -41.76 
L 198.313894 -50.068348 
L 199.909091 -41.76 
L 201.504288 -41.76 
L 203.099485 -45.379976 
L 204.694683 -41.76 
L 206.28988 -45.329699 
L 207.885077 -41.76 
L 209.480274 -41.76 
L 211.075472 -45.354838 
L 212.670669 -41.76 
L 214.265866 -45.455392 
L 215.861063 -41.76 
L 217.456261 -41.76 
L 219.051458 -45.769627 
L 220.646655 -41.76 
L 222.241852 -46.372956 
L 223.83705 -41.76 
L 225.432247 -41.76 
L 227.027444 -45.216575 
L 228.622642 -41.76 
L 230.217839 -45.166297 
L 231.813036 -41.76 
L 233.408233 -41.76 
L 235.003431 -45.141158 
L 236.598628 -41.76 
L 238.193825 -45.141158 
L 239.789022 -41.76 
L 241.38422 -41.76 
L 242.979417 -45.631364 
L 244.574614 -41.76 
L 246.169811 -45.719349 
L 247.765009 -41.76 
L 249.360206 -41.76 
L 250.955403 -45.719349 
L 252.5506 -41.76 
L 254.145798 -50.483137 
L 255.740995 -41.76 
L 257.336192 -41.76 
L 258.931389 -47.567045 
L 260.526587 -41.76 
L 262.121784 -45.870181 
L 263.716981 -41.76 
L 265.312178 -41.76 
L 266.907376 -49.578143 
L 268.502573 -41.76 
L 270.09777 -49.326756 
L 271.692967 -41.76 
L 273.288165 -41.76 
L 274.883362 -49.364464 
L 276.478559 -41.76 
L 278.073756 -57.547119 
L 279.668954 -41.76 
L 281.264151 -41.76 
L 282.859348 -45.518239 
L 284.454545 -41.76 
L 286.049743 -46.863161 
L 287.64494 -41.76 
L 289.240137 -41.76 
L 290.835334 -50.181473 
L 292.430532 -41.76 
L 294.025729 -49.967794 
L 295.620926 -41.76 
L 297.216123 -41.76 
L 298.811321 -50.005502 
L 300.406518 -41.76 
L 302.001715 -50.04321 
L 303.596913 -41.76 
L 305.19211 -41.76 
L 306.787307 -50.508276 
L 308.382504 -41.76 
L 309.977702 -48.610302 
L 311.572899 -41.76 
L 313.168096 -41.76 
L 314.763293 -45.153728 
L 316.358491 -41.76 
L 317.953688 -48.296068 
L 319.548885 -41.76 
L 321.144082 -41.76 
L 322.73928 -49.201062 
L 324.334477 -41.76 
L 325.929674 -44.663523 
L 327.524871 -41.76 
L 329.120069 -41.76 
L 330.715266 -46.372956 
L 332.310463 -41.76 
L 333.90566 -46.29754 
L 335.500858 -41.76 
L 337.096055 -41.76 
L 338.691252 -46.272401 
L 340.286449 -41.76 
L 341.881647 -45.392546 
L 343.476844 -41.76 
L 345.072041 -41.76 
L 346.667238 -45.229144 
L 348.262436 -41.76 
L 349.857633 -53.562631 
L 351.45283 -41.76 
L 353.048027 -41.76 
L 354.643225 -53.562631 
L 356.238422 -41.76 
L 357.833619 -49.012522 
L 359.428816 -41.76 
L 361.024014 -41.76 
L 362.619211 -48.886828 
L 364.214408 -41.76 
L 365.809605 -45.568517 
L 367.404803 -41.76 
L 369 -41.76 
L 370.595197 -45.719349 
L 372.190395 -41.76 
L 373.785592 -45.618794 
L 375.380789 -41.76 
L 376.975986 -41.76 
L 378.571184 -45.078312 
L 380.166381 -41.76 
L 381.761578 -48.283499 
L 383.356775 -41.76 
L 384.951973 -41.76 
L 386.54717 -48.622872 
L 388.142367 -41.76 
L 389.737564 -52.758192 
L 391.332762 -41.76 
L 392.927959 -41.76 
L 394.523156 -52.770761 
L 396.118353 -41.76 
L 397.713551 -45.153728 
L 399.308748 -41.76 
L 400.903945 -41.76 
L 402.499142 -45.153728 
L 404.09434 -41.76 
L 405.689537 -47.340797 
L 407.284734 -41.76 
L 408.879931 -41.76 
L 410.475129 -47.340797 
L 412.070326 -41.76 
L 413.665523 -46.272401 
L 415.26072 -41.76 
L 416.855918 -41.76 
L 418.451115 -46.511219 
L 420.046312 -41.76 
L 421.641509 -47.780724 
L 423.236707 -41.76 
L 424.831904 -41.76 
L 426.427101 -47.805863 
L 428.022298 -41.76 
L 429.617496 -48.64801 
L 431.212693 -41.76 
L 432.80789 -41.76 
L 434.403087 -47.994404 
L 435.998285 -41.76 
L 437.593482 -48.006973 
L 439.188679 -41.76 
L 440.783877 -41.76 
L 442.379074 -44.060193 
L 443.974271 -41.76 
L 445.569468 -46.272401 
L 447.164666 -41.76 
L 448.759863 -41.76 
L 450.35506 -46.259832 
L 451.950257 -41.76 
L 453.545455 -45.455392 
L 455.140652 -41.76 
L 456.735849 -41.76 
L 458.331046 -45.70678 
L 459.926244 -41.76 
L 461.521441 -46.108999 
L 463.116638 -41.76 
L 464.711835 -41.76 
L 466.307033 -46.68719 
L 467.90223 -41.76 
L 469.497427 -46.435803 
L 471.092624 -41.76 
L 472.687822 -41.76 
L 474.283019 -49.779253 
L 475.878216 -41.76 
L 477.473413 -42.338191 
L 479.068611 -41.76 
L 480.663808 -41.76 
L 482.259005 -44.085332 
L 483.854202 -41.76 
L 485.4494 -45.794765 
L 487.044597 -41.76 
L 488.639794 -41.76 
L 490.234991 -50.344874 
L 491.830189 -41.76 
L 493.425386 -46.335248 
L 495.020583 -41.76 
L 496.61578 -41.76 
L 498.210978 -52.833608 
L 499.806175 -41.76 
L 501.401372 -61.695008 
L 502.996569 -41.76 
L 504.591767 -41.76 
L 506.186964 -65.289846 
L 507.782161 -41.76 
L 509.377358 -62.939375 
L 510.972556 -41.76 
L 512.567753 -41.76 
L 514.16295 -62.134936 
L 515.758148 -41.76 
L 517.353345 -59.005165 
L 518.948542 -41.76 
L 520.543739 -41.76 
L 522.138937 -60.08613 
L 523.734134 -41.76 
L 525.329331 -54.920122 
L 526.924528 -41.76 
L 528.519726 -41.76 
L 530.114923 -49.037661 
L 531.71012 -41.76 
L 533.305317 -53.072426 
L 534.900515 -41.76 
L 536.495712 -41.76 
L 538.090909 -55.259495 
L 539.686106 -41.76 
L 541.281304 -59.746757 
L 542.876501 -41.76 
L 544.471698 -41.76 
L 546.066895 -58.364127 
L 547.662093 -41.76 
L 549.25729 -52.506805 
L 550.852487 -41.76 
L 552.447684 -41.76 
L 554.042882 -53.801449 
L 555.638079 -41.76 
L 557.233276 -49.087938 
L 558.828473 -41.76 
L 560.423671 -41.76 
L 562.018868 -55.309772 
L 563.614065 -41.76 
L 565.209262 -56.554139 
L 566.80446 -41.76 
L 568.399657 -41.76 
L 569.994854 -54.693874 
L 571.590051 -41.76 
L 573.185249 -54.693874 
L 574.780446 -41.76 
L 576.375643 -41.76 
L 577.97084 -57.647674 
L 579.566038 -41.76 
L 581.161235 -60.513488 
L 582.756432 -41.76 
L 584.35163 -41.76 
L 585.946827 -50.344874 
L 587.542024 -41.76 
L 589.137221 -52.305695 
L 590.732419 -41.76 
L 592.327616 -41.76 
L 593.922813 -51.476117 
L 595.51801 -41.76 
L 597.113208 -49.741545 
L 598.708405 -41.76 
L 600.303602 -41.76 
L 601.898799 -53.38666 
L 603.493997 -41.76 
L 605.089194 -43.419156 
L 606.684391 -41.76 
L 608.279588 -41.76 
L 609.874786 -46.548927 
L 611.469983 -41.76 
L 613.06518 -46.398095 
L 614.660377 -41.76 
L 616.255575 -41.76 
L 617.850772 -53.399229 
L 619.445969 -41.76 
L 621.041166 -53.411799 
L 622.636364 -41.76 
L 622.636364 -41.76 
L 622.636364 -41.76 
L 621.041166 -53.713463 
L 619.445969 -42.011387 
L 617.850772 -53.675755 
L 616.255575 -42.036526 
L 614.660377 -42.061665 
L 613.06518 -47.101979 
L 611.469983 -42.878673 
L 609.874786 -49.854669 
L 608.279588 -42.866104 
L 606.684391 -43.218046 
L 605.089194 -46.322678 
L 603.493997 -49.967794 
L 601.898799 -78.02261 
L 600.303602 -77.758653 
L 598.708405 -69.714261 
L 597.113208 -67.212958 
L 595.51801 -55.184079 
L 593.922813 -63.680968 
L 592.327616 -54.505333 
L 590.732419 -59.218844 
L 589.137221 -64.849918 
L 587.542024 -56.491292 
L 585.946827 -65.692066 
L 584.35163 -62.122367 
L 582.756432 -70.053634 
L 581.161235 -78.940173 
L 579.566038 -62.46174 
L 577.97084 -82.245916 
L 576.375643 -72.30355 
L 574.780446 -80.549052 
L 573.185249 -85.438534 
L 571.590051 -77.771223 
L 569.994854 -97.040055 
L 568.399657 -82.535011 
L 566.80446 -83.352019 
L 565.209262 -94.387919 
L 563.614065 -60.375225 
L 562.018868 -72.554937 
L 560.423671 -58.175587 
L 558.828473 -62.160075 
L 557.233276 -57.32087 
L 555.638079 -45.291991 
L 554.042882 -59.746757 
L 552.447684 -51.476117 
L 550.852487 -48.823982 
L 549.25729 -62.889098 
L 547.662093 -53.38666 
L 546.066895 -82.937231 
L 544.471698 -75.345336 
L 542.876501 -61.820702 
L 541.281304 -76.212622 
L 539.686106 -63.982632 
L 538.090909 -74.352356 
L 536.495712 -65.365262 
L 534.900515 -60.739737 
L 533.305317 -66.974141 
L 531.71012 -48.509747 
L 530.114923 -54.191099 
L 528.519726 -68.583019 
L 526.924528 -69.75197 
L 525.329331 -79.367532 
L 523.734134 -88.040392 
L 522.138937 -105.976871 
L 520.543739 -77.997471 
L 518.948542 -86.469221 
L 517.353345 -94.513613 
L 515.758148 -100.031563 
L 514.16295 -111.117741 
L 512.567753 -106.555062 
L 510.972556 -102.960224 
L 509.377358 -102.733976 
L 507.782161 -97.756509 
L 506.186964 -114.524038 
L 504.591767 -102.168355 
L 502.996569 -87.889559 
L 501.401372 -91.899186 
L 499.806175 -58.527529 
L 498.210978 -61.770425 
L 496.61578 -51.111605 
L 495.020583 -45.681641 
L 493.425386 -54.982969 
L 491.830189 -47.001424 
L 490.234991 -53.147842 
L 488.639794 -45.442823 
L 487.044597 -44.940049 
L 485.4494 -49.276479 
L 483.854202 -46.385525 
L 482.259005 -47.391074 
L 480.663808 -43.280893 
L 479.068611 -43.482003 
L 477.473413 -53.18555 
L 475.878216 -63.668398 
L 474.283019 -66.207409 
L 472.687822 -62.24806 
L 471.092624 -57.408856 
L 469.497427 -48.446901 
L 467.90223 -43.519711 
L 466.307033 -48.434331 
L 464.711835 -45.581086 
L 463.116638 -44.902341 
L 461.521441 -48.635441 
L 459.926244 -44.537829 
L 458.331046 -45.995875 
L 456.735849 -41.986249 
L 455.140652 -42.225066 
L 453.545455 -46.046153 
L 451.950257 -42.187358 
L 450.35506 -46.649482 
L 448.759863 -42.023957 
L 447.164666 -42.250205 
L 445.569468 -47.001424 
L 443.974271 -42.438746 
L 442.379074 -44.902341 
L 440.783877 -43.469433 
L 439.188679 -43.419156 
L 437.593482 -48.484609 
L 435.998285 -42.589578 
L 434.403087 -48.572594 
L 432.80789 -42.677563 
L 431.212693 -42.715272 
L 429.617496 -50.646539 
L 428.022298 -53.022149 
L 426.427101 -56.956359 
L 424.831904 -50.897926 
L 423.236707 -46.850592 
L 421.641509 -49.301617 
L 420.046312 -42.438746 
L 418.451115 -47.064271 
L 416.855918 -42.011387 
L 415.26072 -42.287913 
L 413.665523 -46.988855 
L 412.070326 -42.187358 
L 410.475129 -47.86871 
L 408.879931 -42.35076 
L 407.284734 -42.325621 
L 405.689537 -47.86871 
L 404.09434 -42.325621 
L 402.499142 -45.656502 
L 400.903945 -42.111942 
L 399.308748 -42.187358 
L 397.713551 -45.367407 
L 396.118353 -41.986249 
L 394.523156 -52.98444 
L 392.927959 -41.973679 
L 391.332762 -42.061665 
L 389.737564 -53.084995 
L 388.142367 -42.174789 
L 386.54717 -49.414742 
L 384.951973 -43.13006 
L 383.356775 -43.419156 
L 381.761578 -57.245454 
L 380.166381 -46.196985 
L 378.571184 -45.568517 
L 376.975986 -42.426176 
L 375.380789 -42.426176 
L 373.785592 -46.473511 
L 372.190395 -43.406586 
L 370.595197 -46.850592 
L 369 -42.501592 
L 367.404803 -44.537829 
L 365.809605 -48.208083 
L 364.214408 -42.426176 
L 362.619211 -49.527866 
L 361.024014 -42.325621 
L 359.428816 -42.036526 
L 357.833619 -49.565574 
L 356.238422 -42.401037 
L 354.643225 -55.284634 
L 353.048027 -42.187358 
L 351.45283 -42.225066 
L 349.857633 -54.153391 
L 348.262436 -42.765549 
L 346.667238 -46.398095 
L 345.072041 -43.14263 
L 343.476844 -43.243185 
L 341.881647 -46.146707 
L 340.286449 -44.097901 
L 338.691252 -48.245791 
L 337.096055 -44.462413 
L 335.500858 -42.727841 
L 333.90566 -47.189964 
L 332.310463 -42.790688 
L 330.715266 -47.265381 
L 329.120069 -42.778118 
L 327.524871 -42.602147 
L 325.929674 -45.216575 
L 324.334477 -44.349289 
L 322.73928 -49.804392 
L 321.144082 -45.983306 
L 319.548885 -48.346346 
L 317.953688 -50.935634 
L 316.358491 -42.250205 
L 314.763293 -45.530809 
L 313.168096 -42.237636 
L 311.572899 -42.061665 
L 309.977702 -48.999953 
L 308.382504 -42.501592 
L 306.787307 -51.375562 
L 305.19211 -42.426176 
L 303.596913 -42.212497 
L 302.001715 -50.357444 
L 300.406518 -41.986249 
L 298.811321 -50.395152 
L 297.216123 -42.313052 
L 295.620926 -42.212497 
L 294.025729 -50.382582 
L 292.430532 -42.237636 
L 290.835334 -50.63397 
L 289.240137 -42.401037 
L 287.64494 -43.243185 
L 286.049743 -47.554476 
L 284.454545 -42.526731 
L 282.859348 -46.825453 
L 281.264151 -42.903812 
L 279.668954 -43.042075 
L 278.073756 -60.023283 
L 276.478559 -43.821375 
L 274.883362 -51.124175 
L 273.288165 -43.544849 
L 271.692967 -43.595127 
L 270.09777 -50.583692 
L 268.502573 -42.187358 
L 266.907376 -50.055779 
L 265.312178 -42.602147 
L 263.716981 -43.92193 
L 262.121784 -50.520845 
L 260.526587 -45.845043 
L 258.931389 -51.061328 
L 257.336192 -44.148179 
L 255.740995 -44.248734 
L 254.145798 -52.707914 
L 252.5506 -43.444295 
L 250.955403 -46.033583 
L 249.360206 -42.212497 
L 247.765009 -42.061665 
L 246.169811 -46.09643 
L 244.574614 -43.192907 
L 242.979417 -49.45245 
L 241.38422 -42.438746 
L 239.789022 -42.250205 
L 238.193825 -45.530809 
L 236.598628 -42.074234 
L 235.003431 -45.442823 
L 233.408233 -41.935971 
L 231.813036 -41.998818 
L 230.217839 -45.518239 
L 228.622642 -42.111942 
L 227.027444 -45.681641 
L 225.432247 -46.536358 
L 223.83705 -42.262774 
L 222.241852 -46.900869 
L 220.646655 -42.225066 
L 219.051458 -46.448372 
L 217.456261 -42.187358 
L 215.861063 -42.438746 
L 214.265866 -46.196985 
L 212.670669 -44.160748 
L 211.075472 -47.541907 
L 209.480274 -44.336719 
L 207.885077 -44.223595 
L 206.28988 -47.554476 
L 204.694683 -44.211026 
L 203.099485 -47.6676 
L 201.504288 -45.606225 
L 199.909091 -45.254283 
L 198.313894 -50.747094 
L 196.718696 -42.413607 
L 195.123499 -50.721955 
L 193.528302 -42.237636 
L 191.933105 -42.325621 
L 190.337907 -50.483137 
L 188.74271 -42.023957 
L 187.147513 -51.048759 
L 185.552316 -42.099373 
L 183.957118 -42.011387 
L 182.361921 -44.336719 
L 180.766724 -42.338191 
L 179.171527 -49.703837 
L 177.576329 -43.218046 
L 175.981132 -42.55187 
L 174.385935 -47.303089 
L 172.790738 -42.099373 
L 171.19554 -47.504199 
L 169.600343 -42.036526 
L 168.005146 -42.212497 
L 166.409949 -47.340797 
L 164.814751 -42.237636 
L 163.219554 -45.002895 
L 161.624357 -47.491629 
L 160.02916 -52.192571 
L 158.433962 -57.597396 
L 156.838765 -52.217709 
L 155.243568 -63.203332 
L 153.64837 -43.720821 
L 152.053173 -44.336719 
L 150.457976 -54.040267 
L 148.862779 -56.604417 
L 147.267581 -52.531943 
L 145.672384 -46.712329 
L 144.077187 -46.134138 
L 142.48199 -47.717878 
L 140.886792 -45.656502 
L 139.291595 -50.093487 
L 137.696398 -47.403644 
L 136.101201 -46.561496 
L 134.506003 -48.170375 
L 132.910806 -51.450978 
L 131.315609 -56.893512 
L 129.720412 -51.828059 
L 128.125214 -52.921594 
L 126.530017 -57.672813 
L 124.93482 -50.118626 
L 123.339623 -45.933028 
L 121.744425 -42.14965 
L 120.149228 -42.086803 
L 118.554031 -45.518239 
L 116.958834 -42.451315 
L 115.363636 -45.744488 
z
" style="stroke: #0000ff; stroke-width: 0.5"/>
    </defs>
    <g clip-path="url(#pee80fa705d)">
     <use xlink:href="#m65799bb0cf" x="0" y="288" style="fill: #0000ff; stroke: #0000ff; stroke-width: 0.5"/>
    </g>
   </g>
   <g id="PolyCollection_3">
    <defs>
     <path id="m9ff4fbe6a6" d="M 115.363636 -46.48608 
L 115.363636 -45.744488 
L 116.958834 -42.451315 
L 118.554031 -45.518239 
L 120.149228 -42.086803 
L 121.744425 -42.14965 
L 123.339623 -45.933028 
L 124.93482 -50.118626 
L 126.530017 -57.672813 
L 128.125214 -52.921594 
L 129.720412 -51.828059 
L 131.315609 -56.893512 
L 132.910806 -51.450978 
L 134.506003 -48.170375 
L 136.101201 -46.561496 
L 137.696398 -47.403644 
L 139.291595 -50.093487 
L 140.886792 -45.656502 
L 142.48199 -47.717878 
L 144.077187 -46.134138 
L 145.672384 -46.712329 
L 147.267581 -52.531943 
L 148.862779 -56.604417 
L 150.457976 -54.040267 
L 152.053173 -44.336719 
L 153.64837 -43.720821 
L 155.243568 -63.203332 
L 156.838765 -52.217709 
L 158.433962 -57.597396 
L 160.02916 -52.192571 
L 161.624357 -47.491629 
L 163.219554 -45.002895 
L 164.814751 -42.237636 
L 166.409949 -47.340797 
L 168.005146 -42.212497 
L 169.600343 -42.036526 
L 171.19554 -47.504199 
L 172.790738 -42.099373 
L 174.385935 -47.303089 
L 175.981132 -42.55187 
L 177.576329 -43.218046 
L 179.171527 -49.703837 
L 180.766724 -42.338191 
L 182.361921 -44.336719 
L 183.957118 -42.011387 
L 185.552316 -42.099373 
L 187.147513 -51.048759 
L 188.74271 -42.023957 
L 190.337907 -50.483137 
L 191.933105 -42.325621 
L 193.528302 -42.237636 
L 195.123499 -50.721955 
L 196.718696 -42.413607 
L 198.313894 -50.747094 
L 199.909091 -45.254283 
L 201.504288 -45.606225 
L 203.099485 -47.6676 
L 204.694683 -44.211026 
L 206.28988 -47.554476 
L 207.885077 -44.223595 
L 209.480274 -44.336719 
L 211.075472 -47.541907 
L 212.670669 -44.160748 
L 214.265866 -46.196985 
L 215.861063 -42.438746 
L 217.456261 -42.187358 
L 219.051458 -46.448372 
L 220.646655 -42.225066 
L 222.241852 -46.900869 
L 223.83705 -42.262774 
L 225.432247 -46.536358 
L 227.027444 -45.681641 
L 228.622642 -42.111942 
L 230.217839 -45.518239 
L 231.813036 -41.998818 
L 233.408233 -41.935971 
L 235.003431 -45.442823 
L 236.598628 -42.074234 
L 238.193825 -45.530809 
L 239.789022 -42.250205 
L 241.38422 -42.438746 
L 242.979417 -49.45245 
L 244.574614 -43.192907 
L 246.169811 -46.09643 
L 247.765009 -42.061665 
L 249.360206 -42.212497 
L 250.955403 -46.033583 
L 252.5506 -43.444295 
L 254.145798 -52.707914 
L 255.740995 -44.248734 
L 257.336192 -44.148179 
L 258.931389 -51.061328 
L 260.526587 -45.845043 
L 262.121784 -50.520845 
L 263.716981 -43.92193 
L 265.312178 -42.602147 
L 266.907376 -50.055779 
L 268.502573 -42.187358 
L 270.09777 -50.583692 
L 271.692967 -43.595127 
L 273.288165 -43.544849 
L 274.883362 -51.124175 
L 276.478559 -43.821375 
L 278.073756 -60.023283 
L 279.668954 -43.042075 
L 281.264151 -42.903812 
L 282.859348 -46.825453 
L 284.454545 -42.526731 
L 286.049743 -47.554476 
L 287.64494 -43.243185 
L 289.240137 -42.401037 
L 290.835334 -50.63397 
L 292.430532 -42.237636 
L 294.025729 -50.382582 
L 295.620926 -42.212497 
L 297.216123 -42.313052 
L 298.811321 -50.395152 
L 300.406518 -41.986249 
L 302.001715 -50.357444 
L 303.596913 -42.212497 
L 305.19211 -42.426176 
L 306.787307 -51.375562 
L 308.382504 -42.501592 
L 309.977702 -48.999953 
L 311.572899 -42.061665 
L 313.168096 -42.237636 
L 314.763293 -45.530809 
L 316.358491 -42.250205 
L 317.953688 -50.935634 
L 319.548885 -48.346346 
L 321.144082 -45.983306 
L 322.73928 -49.804392 
L 324.334477 -44.349289 
L 325.929674 -45.216575 
L 327.524871 -42.602147 
L 329.120069 -42.778118 
L 330.715266 -47.265381 
L 332.310463 -42.790688 
L 333.90566 -47.189964 
L 335.500858 -42.727841 
L 337.096055 -44.462413 
L 338.691252 -48.245791 
L 340.286449 -44.097901 
L 341.881647 -46.146707 
L 343.476844 -43.243185 
L 345.072041 -43.14263 
L 346.667238 -46.398095 
L 348.262436 -42.765549 
L 349.857633 -54.153391 
L 351.45283 -42.225066 
L 353.048027 -42.187358 
L 354.643225 -55.284634 
L 356.238422 -42.401037 
L 357.833619 -49.565574 
L 359.428816 -42.036526 
L 361.024014 -42.325621 
L 362.619211 -49.527866 
L 364.214408 -42.426176 
L 365.809605 -48.208083 
L 367.404803 -44.537829 
L 369 -42.501592 
L 370.595197 -46.850592 
L 372.190395 -43.406586 
L 373.785592 -46.473511 
L 375.380789 -42.426176 
L 376.975986 -42.426176 
L 378.571184 -45.568517 
L 380.166381 -46.196985 
L 381.761578 -57.245454 
L 383.356775 -43.419156 
L 384.951973 -43.13006 
L 386.54717 -49.414742 
L 388.142367 -42.174789 
L 389.737564 -53.084995 
L 391.332762 -42.061665 
L 392.927959 -41.973679 
L 394.523156 -52.98444 
L 396.118353 -41.986249 
L 397.713551 -45.367407 
L 399.308748 -42.187358 
L 400.903945 -42.111942 
L 402.499142 -45.656502 
L 404.09434 -42.325621 
L 405.689537 -47.86871 
L 407.284734 -42.325621 
L 408.879931 -42.35076 
L 410.475129 -47.86871 
L 412.070326 -42.187358 
L 413.665523 -46.988855 
L 415.26072 -42.287913 
L 416.855918 -42.011387 
L 418.451115 -47.064271 
L 420.046312 -42.438746 
L 421.641509 -49.301617 
L 423.236707 -46.850592 
L 424.831904 -50.897926 
L 426.427101 -56.956359 
L 428.022298 -53.022149 
L 429.617496 -50.646539 
L 431.212693 -42.715272 
L 432.80789 -42.677563 
L 434.403087 -48.572594 
L 435.998285 -42.589578 
L 437.593482 -48.484609 
L 439.188679 -43.419156 
L 440.783877 -43.469433 
L 442.379074 -44.902341 
L 443.974271 -42.438746 
L 445.569468 -47.001424 
L 447.164666 -42.250205 
L 448.759863 -42.023957 
L 450.35506 -46.649482 
L 451.950257 -42.187358 
L 453.545455 -46.046153 
L 455.140652 -42.225066 
L 456.735849 -41.986249 
L 458.331046 -45.995875 
L 459.926244 -44.537829 
L 461.521441 -48.635441 
L 463.116638 -44.902341 
L 464.711835 -45.581086 
L 466.307033 -48.434331 
L 467.90223 -43.519711 
L 469.497427 -48.446901 
L 471.092624 -57.408856 
L 472.687822 -62.24806 
L 474.283019 -66.207409 
L 475.878216 -63.668398 
L 477.473413 -53.18555 
L 479.068611 -43.482003 
L 480.663808 -43.280893 
L 482.259005 -47.391074 
L 483.854202 -46.385525 
L 485.4494 -49.276479 
L 487.044597 -44.940049 
L 488.639794 -45.442823 
L 490.234991 -53.147842 
L 491.830189 -47.001424 
L 493.425386 -54.982969 
L 495.020583 -45.681641 
L 496.61578 -51.111605 
L 498.210978 -61.770425 
L 499.806175 -58.527529 
L 501.401372 -91.899186 
L 502.996569 -87.889559 
L 504.591767 -102.168355 
L 506.186964 -114.524038 
L 507.782161 -97.756509 
L 509.377358 -102.733976 
L 510.972556 -102.960224 
L 512.567753 -106.555062 
L 514.16295 -111.117741 
L 515.758148 -100.031563 
L 517.353345 -94.513613 
L 518.948542 -86.469221 
L 520.543739 -77.997471 
L 522.138937 -105.976871 
L 523.734134 -88.040392 
L 525.329331 -79.367532 
L 526.924528 -69.75197 
L 528.519726 -68.583019 
L 530.114923 -54.191099 
L 531.71012 -48.509747 
L 533.305317 -66.974141 
L 534.900515 -60.739737 
L 536.495712 -65.365262 
L 538.090909 -74.352356 
L 539.686106 -63.982632 
L 541.281304 -76.212622 
L 542.876501 -61.820702 
L 544.471698 -75.345336 
L 546.066895 -82.937231 
L 547.662093 -53.38666 
L 549.25729 -62.889098 
L 550.852487 -48.823982 
L 552.447684 -51.476117 
L 554.042882 -59.746757 
L 555.638079 -45.291991 
L 557.233276 -57.32087 
L 558.828473 -62.160075 
L 560.423671 -58.175587 
L 562.018868 -72.554937 
L 563.614065 -60.375225 
L 565.209262 -94.387919 
L 566.80446 -83.352019 
L 568.399657 -82.535011 
L 569.994854 -97.040055 
L 571.590051 -77.771223 
L 573.185249 -85.438534 
L 574.780446 -80.549052 
L 576.375643 -72.30355 
L 577.97084 -82.245916 
L 579.566038 -62.46174 
L 581.161235 -78.940173 
L 582.756432 -70.053634 
L 584.35163 -62.122367 
L 585.946827 -65.692066 
L 587.542024 -56.491292 
L 589.137221 -64.849918 
L 590.732419 -59.218844 
L 592.327616 -54.505333 
L 593.922813 -63.680968 
L 595.51801 -55.184079 
L 597.113208 -67.212958 
L 598.708405 -69.714261 
L 600.303602 -77.758653 
L 601.898799 -78.02261 
L 603.493997 -49.967794 
L 605.089194 -46.322678 
L 606.684391 -43.218046 
L 608.279588 -42.866104 
L 609.874786 -49.854669 
L 611.469983 -42.878673 
L 613.06518 -47.101979 
L 614.660377 -42.061665 
L 616.255575 -42.036526 
L 617.850772 -53.675755 
L 619.445969 -42.011387 
L 621.041166 -53.713463 
L 622.636364 -41.76 
L 622.636364 -59.68391 
L 622.636364 -59.68391 
L 621.041166 -53.902004 
L 619.445969 -42.16222 
L 617.850772 -53.902004 
L 616.255575 -42.225066 
L 614.660377 -57.496841 
L 613.06518 -47.956696 
L 611.469983 -43.9345 
L 609.874786 -60.840292 
L 608.279588 -52.808469 
L 606.684391 -51.488686 
L 605.089194 -55.573729 
L 603.493997 -78.965312 
L 601.898799 -142.704548 
L 600.303602 -159.685756 
L 598.708405 -134.823558 
L 597.113208 -116.786523 
L 595.51801 -96.688113 
L 593.922813 -109.999067 
L 592.327616 -106.643048 
L 590.732419 -116.145485 
L 589.137221 -128.815402 
L 587.542024 -124.277863 
L 585.946827 -113.656752 
L 584.35163 -121.990239 
L 582.756432 -136.294173 
L 581.161235 -137.72708 
L 579.566038 -126.980276 
L 577.97084 -138.179577 
L 576.375643 -124.453834 
L 574.780446 -175.535722 
L 573.185249 -170.533116 
L 571.590051 -167.239943 
L 569.994854 -190.669234 
L 568.399657 -171.82776 
L 566.80446 -172.40595 
L 565.209262 -199.178692 
L 563.614065 -162.061365 
L 562.018868 -139.386236 
L 560.423671 -116.233471 
L 558.828473 -137.299722 
L 557.233276 -107.724013 
L 555.638079 -90.214891 
L 554.042882 -105.574652 
L 552.447684 -88.819692 
L 550.852487 -85.70249 
L 549.25729 -101.502178 
L 547.662093 -101.338777 
L 546.066895 -153.979266 
L 544.471698 -139.323389 
L 542.876501 -109.986498 
L 541.281304 -153.577046 
L 539.686106 -117.301867 
L 538.090909 -132.297116 
L 536.495712 -130.927055 
L 534.900515 -126.11299 
L 533.305317 -134.484185 
L 531.71012 -85.828184 
L 530.114923 -97.178318 
L 528.519726 -130.851639 
L 526.924528 -131.668648 
L 525.329331 -165.354538 
L 523.734134 -188.746121 
L 522.138937 -227.887115 
L 520.543739 -163.821076 
L 518.948542 -191.473673 
L 517.353345 -196.66482 
L 515.758148 -228.012809 
L 514.16295 -227.472326 
L 512.567753 -243.36 
L 510.972556 -232.51264 
L 509.377358 -227.975101 
L 507.782161 -226.02685 
L 506.186964 -237.791773 
L 504.591767 -241.78883 
L 502.996569 -192.881441 
L 501.401372 -201.202359 
L 499.806175 -123.624256 
L 498.210978 -97.53026 
L 496.61578 -98.837474 
L 495.020583 -92.867027 
L 493.425386 -89.309897 
L 491.830189 -72.328689 
L 490.234991 -96.361309 
L 488.639794 -88.367195 
L 487.044597 -104.04119 
L 485.4494 -78.600801 
L 483.854202 -69.588568 
L 482.259005 -63.228471 
L 480.663808 -53.286105 
L 479.068611 -49.565574 
L 477.473413 -82.811537 
L 475.878216 -106.165412 
L 474.283019 -105.185002 
L 472.687822 -94.601599 
L 471.092624 -81.278075 
L 469.497427 -67.439207 
L 467.90223 -49.263909 
L 466.307033 -54.37964 
L 464.711835 -69.915371 
L 463.116638 -65.226999 
L 461.521441 -52.619929 
L 459.926244 -48.132667 
L 458.331046 -56.038795 
L 456.735849 -42.891243 
L 455.140652 -46.68719 
L 453.545455 -51.551533 
L 451.950257 -56.54157 
L 450.35506 -48.220652 
L 448.759863 -49.163354 
L 447.164666 -43.884222 
L 445.569468 -48.64801 
L 443.974271 -56.415876 
L 442.379074 -48.874259 
L 440.783877 -47.768155 
L 439.188679 -52.557082 
L 437.593482 -49.377033 
L 435.998285 -43.947069 
L 434.403087 -62.612572 
L 432.80789 -45.518239 
L 431.212693 -67.150112 
L 429.617496 -91.534674 
L 428.022298 -87.763866 
L 426.427101 -98.108451 
L 424.831904 -93.960561 
L 423.236707 -128.212073 
L 421.641509 -89.875518 
L 420.046312 -93.017859 
L 418.451115 -84.344999 
L 416.855918 -47.906418 
L 415.26072 -67.753441 
L 413.665523 -74.968255 
L 412.070326 -69.613707 
L 410.475129 -92.99272 
L 408.879931 -89.749825 
L 407.284734 -102.444881 
L 405.689537 -101.577595 
L 404.09434 -82.296193 
L 402.499142 -56.076504 
L 400.903945 -42.438746 
L 399.308748 -42.652425 
L 397.713551 -54.656166 
L 396.118353 -43.544849 
L 394.523156 -53.839157 
L 392.927959 -42.564439 
L 391.332762 -43.406586 
L 389.737564 -53.864296 
L 388.142367 -42.677563 
L 386.54717 -106.831588 
L 384.951973 -65.352693 
L 383.356775 -102.64599 
L 381.761578 -85.011175 
L 380.166381 -91.61009 
L 378.571184 -100.081841 
L 376.975986 -80.19711 
L 375.380789 -67.640317 
L 373.785592 -73.384515 
L 372.190395 -48.597733 
L 370.595197 -67.049557 
L 369 -71.247724 
L 367.404803 -53.361521 
L 365.809605 -53.512354 
L 364.214408 -51.174452 
L 362.619211 -98.90032 
L 361.024014 -92.967582 
L 359.428816 -43.268323 
L 357.833619 -87.600464 
L 356.238422 -103.362444 
L 354.643225 -65.629219 
L 353.048027 -42.74041 
L 351.45283 -42.966659 
L 349.857633 -74.126108 
L 348.262436 -45.857612 
L 346.667238 -51.878337 
L 345.072041 -50.809941 
L 343.476844 -48.710857 
L 341.881647 -48.66058 
L 340.286449 -53.700894 
L 338.691252 -105.034169 
L 337.096055 -124.240155 
L 335.500858 -119.086716 
L 333.90566 -128.425752 
L 332.310463 -129.305608 
L 330.715266 -141.233932 
L 329.120069 -134.609878 
L 327.524871 -85.425964 
L 325.929674 -63.530135 
L 324.334477 -80.951271 
L 322.73928 -92.779041 
L 321.144082 -85.488811 
L 319.548885 -75.709847 
L 317.953688 -75.345336 
L 316.358491 -43.218046 
L 314.763293 -46.134138 
L 313.168096 -52.418819 
L 311.572899 -43.029506 
L 309.977702 -50.206611 
L 308.382504 -87.851851 
L 306.787307 -138.242424 
L 305.19211 -106.944712 
L 303.596913 -83.817086 
L 302.001715 -81.290644 
L 300.406518 -42.866104 
L 298.811321 -51.865767 
L 297.216123 -47.793294 
L 295.620926 -62.775974 
L 294.025729 -103.726956 
L 292.430532 -77.771223 
L 290.835334 -86.406374 
L 289.240137 -61.380774 
L 287.64494 -53.009579 
L 286.049743 -59.960436 
L 284.454545 -52.99701 
L 282.859348 -52.456527 
L 281.264151 -55.309772 
L 279.668954 -50.332305 
L 278.073756 -69.048085 
L 276.478559 -49.402172 
L 274.883362 -77.281018 
L 273.288165 -48.421762 
L 271.692967 -48.45947 
L 270.09777 -66.936432 
L 268.502573 -46.435803 
L 266.907376 -56.202197 
L 265.312178 -48.006973 
L 263.716981 -64.296866 
L 262.121784 -93.319524 
L 260.526587 -71.348279 
L 258.931389 -84.558678 
L 257.336192 -51.199591 
L 255.740995 -53.19812 
L 254.145798 -59.281691 
L 252.5506 -58.7035 
L 250.955403 -47.026563 
L 249.360206 -42.991797 
L 247.765009 -43.004367 
L 246.169811 -47.27795 
L 244.574614 -46.234693 
L 242.979417 -65.956022 
L 241.38422 -44.676092 
L 239.789022 -45.11602 
L 238.193825 -47.026563 
L 236.598628 -42.501592 
L 235.003431 -45.995875 
L 233.408233 -42.225066 
L 231.813036 -42.765549 
L 230.217839 -56.390738 
L 228.622642 -42.778118 
L 227.027444 -47.353366 
L 225.432247 -64.950473 
L 223.83705 -65.930883 
L 222.241852 -66.471366 
L 220.646655 -63.982632 
L 219.051458 -63.165624 
L 217.456261 -43.620266 
L 215.861063 -54.216238 
L 214.265866 -75.986373 
L 212.670669 -60.111269 
L 211.075472 -56.013657 
L 209.480274 -53.989989 
L 207.885077 -53.78888 
L 206.28988 -56.629555 
L 204.694683 -54.253946 
L 203.099485 -56.378168 
L 201.504288 -55.925671 
L 199.909091 -54.354501 
L 198.313894 -62.160075 
L 196.718696 -46.046153 
L 195.123499 -54.656166 
L 193.528302 -44.562968 
L 191.933105 -44.801786 
L 190.337907 -69.588568 
L 188.74271 -42.702702 
L 187.147513 -52.0166 
L 185.552316 -53.097565 
L 183.957118 -42.338191 
L 182.361921 -44.801786 
L 180.766724 -50.43286 
L 179.171527 -52.531943 
L 177.576329 -45.819904 
L 175.981132 -58.188156 
L 174.385935 -47.856141 
L 172.790738 -43.607696 
L 171.19554 -49.565574 
L 169.600343 -48.84912 
L 168.005146 -61.556745 
L 166.409949 -70.191897 
L 164.814751 -42.866104 
L 163.219554 -48.823982 
L 161.624357 -58.640653 
L 160.02916 -70.73238 
L 158.433962 -82.447025 
L 156.838765 -80.762731 
L 155.243568 -176.95606 
L 153.64837 -181.845541 
L 152.053173 -182.235192 
L 150.457976 -136.633546 
L 148.862779 -107.698874 
L 147.267581 -68.683574 
L 145.672384 -61.141956 
L 144.077187 -57.811076 
L 142.48199 -56.843235 
L 140.886792 -55.56116 
L 139.291595 -61.607023 
L 137.696398 -62.863959 
L 136.101201 -58.690931 
L 134.506003 -57.773367 
L 132.910806 -93.231538 
L 131.315609 -89.573854 
L 129.720412 -91.672937 
L 128.125214 -89.875518 
L 126.530017 -95.116942 
L 124.93482 -76.866229 
L 123.339623 -85.136869 
L 121.744425 -68.432187 
L 120.149228 -47.780724 
L 118.554031 -46.435803 
L 116.958834 -43.255754 
L 115.363636 -46.48608 
z
" style="stroke: #008000; stroke-width: 0.5"/>
    </defs>
    <g clip-path="url(#pee80fa705d)">
     <use xlink:href="#m9ff4fbe6a6" x="0" y="288" style="fill: #008000; stroke: #008000; stroke-width: 0.5"/>
    </g>
   </g>
   <g id="line2d_30">
    <path d="M 90 44.64 
L 648 44.64 
" clip-path="url(#pee80fa705d)" style="fill: none; stroke: #000000; stroke-width: 1.5; stroke-linecap: square"/>
   </g>
   <g id="line2d_31">
    <path d="M 90 203.780695 
L 648 203.780695 
" clip-path="url(#pee80fa705d)" style="fill: none; stroke: #000000; stroke-width: 1.5; stroke-linecap: square"/>
   </g>
   <g id="patch_3">
    <path d="M 90 256.32 
L 90 34.56 
" style="fill: none; stroke: #000000; stroke-width: 0.8; stroke-linejoin: miter; stroke-linecap: square"/>
   </g>
   <g id="patch_4">
    <path d="M 648 256.32 
L 648 34.56 
" style="fill: none; stroke: #000000; stroke-width: 0.8; stroke-linejoin: miter; stroke-linecap: square"/>
   </g>
   <g id="patch_5">
    <path d="M 90 256.32 
L 648 256.32 
" style="fill: none; stroke: #000000; stroke-width: 0.8; stroke-linejoin: miter; stroke-linecap: square"/>
   </g>
   <g id="patch_6">
    <path d="M 90 34.56 
L 648 34.56 
" style="fill: none; stroke: #000000; stroke-width: 0.8; stroke-linejoin: miter; stroke-linecap: square"/>
   </g>
   <g id="text_23">
    <!-- peak (16,039) -->
    <g transform="translate(118.700327 41.3136) scale(0.1 -0.1)">
     <defs>
      <path id="DejaVuSans-Bold-70" d="M 1656 506 
L 1656 -1331 
L 538 -1331 
L 538 3500 
L 1656 3500 
L 1656 2988 
Q 1888 3294 2169 3439 
Q 2450 3584 2816 3584 
Q 3463 3584 3878 3070 
Q 4294 2556 4294 1747 
Q 4294 938 3878 423 
Q 3463 -91 2816 -91 
Q 2450 -91 2169 54 
Q 1888 200 1656 506 
z
M 2400 2772 
Q 2041 2772 1848 2508 
Q 1656 2244 1656 1747 
Q 1656 1250 1848 986 
Q 2041 722 2400 722 
Q 2759 722 2948 984 
Q 3138 1247 3138 1747 
Q 3138 2247 2948 2509 
Q 2759 2772 2400 2772 
z
" transform="scale(0.015625)"/>
      <path id="DejaVuSans-Bold-65" d="M 4031 1759 
L 4031 1441 
L 1416 1441 
Q 1456 1047 1700 850 
Q 1944 653 2381 653 
Q 2734 653 3104 758 
Q 3475 863 3866 1075 
L 3866 213 
Q 3469 63 3072 -14 
Q 2675 -91 2278 -91 
Q 1328 -91 801 392 
Q 275 875 275 1747 
Q 275 2603 792 3093 
Q 1309 3584 2216 3584 
Q 3041 3584 3536 3087 
Q 4031 2591 4031 1759 
z
M 2881 2131 
Q 2881 2450 2695 2645 
Q 2509 2841 2209 2841 
Q 1884 2841 1681 2658 
Q 1478 2475 1428 2131 
L 2881 2131 
z
" transform="scale(0.015625)"/>
      <path id="DejaVuSans-Bold-61" d="M 2106 1575 
Q 1756 1575 1579 1456 
Q 1403 1338 1403 1106 
Q 1403 894 1545 773 
Q 1688 653 1941 653 
Q 2256 653 2472 879 
Q 2688 1106 2688 1447 
L 2688 1575 
L 2106 1575 
z
M 3816 1997 
L 3816 0 
L 2688 0 
L 2688 519 
Q 2463 200 2181 54 
Q 1900 -91 1497 -91 
Q 953 -91 614 226 
Q 275 544 275 1050 
Q 275 1666 698 1953 
Q 1122 2241 2028 2241 
L 2688 2241 
L 2688 2328 
Q 2688 2594 2478 2717 
Q 2269 2841 1825 2841 
Q 1466 2841 1156 2769 
Q 847 2697 581 2553 
L 581 3406 
Q 941 3494 1303 3539 
Q 1666 3584 2028 3584 
Q 2975 3584 3395 3211 
Q 3816 2838 3816 1997 
z
" transform="scale(0.015625)"/>
      <path id="DejaVuSans-Bold-6b" d="M 538 4863 
L 1656 4863 
L 1656 2216 
L 2944 3500 
L 4244 3500 
L 2534 1894 
L 4378 0 
L 3022 0 
L 1656 1459 
L 1656 0 
L 538 0 
L 538 4863 
z
" transform="scale(0.015625)"/>
      <path id="DejaVuSans-Bold-20" transform="scale(0.015625)"/>
      <path id="DejaVuSans-Bold-28" d="M 2413 -844 
L 1484 -844 
Q 1006 -72 778 623 
Q 550 1319 550 2003 
Q 550 2688 779 3389 
Q 1009 4091 1484 4856 
L 2413 4856 
Q 2013 4116 1813 3408 
Q 1613 2700 1613 2009 
Q 1613 1319 1811 609 
Q 2009 -100 2413 -844 
z
" transform="scale(0.015625)"/>
      <path id="DejaVuSans-Bold-31" d="M 750 831 
L 1813 831 
L 1813 3847 
L 722 3622 
L 722 4441 
L 1806 4666 
L 2950 4666 
L 2950 831 
L 4013 831 
L 4013 0 
L 750 0 
L 750 831 
z
" transform="scale(0.015625)"/>
      <path id="DejaVuSans-Bold-36" d="M 2316 2303 
Q 2000 2303 1842 2098 
Q 1684 1894 1684 1484 
Q 1684 1075 1842 870 
Q 2000 666 2316 666 
Q 2634 666 2792 870 
Q 2950 1075 2950 1484 
Q 2950 1894 2792 2098 
Q 2634 2303 2316 2303 
z
M 3803 4544 
L 3803 3681 
Q 3506 3822 3243 3889 
Q 2981 3956 2731 3956 
Q 2194 3956 1894 3657 
Q 1594 3359 1544 2772 
Q 1750 2925 1990 3001 
Q 2231 3078 2516 3078 
Q 3231 3078 3670 2659 
Q 4109 2241 4109 1563 
Q 4109 813 3618 361 
Q 3128 -91 2303 -91 
Q 1394 -91 895 523 
Q 397 1138 397 2266 
Q 397 3422 980 4083 
Q 1563 4744 2578 4744 
Q 2900 4744 3203 4694 
Q 3506 4644 3803 4544 
z
" transform="scale(0.015625)"/>
      <path id="DejaVuSans-Bold-2c" d="M 653 1209 
L 1778 1209 
L 1778 256 
L 1006 -909 
L 341 -909 
L 653 256 
L 653 1209 
z
" transform="scale(0.015625)"/>
      <path id="DejaVuSans-Bold-30" d="M 2944 2338 
Q 2944 3213 2780 3570 
Q 2616 3928 2228 3928 
Q 1841 3928 1675 3570 
Q 1509 3213 1509 2338 
Q 1509 1453 1675 1090 
Q 1841 728 2228 728 
Q 2613 728 2778 1090 
Q 2944 1453 2944 2338 
z
M 4147 2328 
Q 4147 1169 3647 539 
Q 3147 -91 2228 -91 
Q 1306 -91 806 539 
Q 306 1169 306 2328 
Q 306 3491 806 4120 
Q 1306 4750 2228 4750 
Q 3147 4750 3647 4120 
Q 4147 3491 4147 2328 
z
" transform="scale(0.015625)"/>
      <path id="DejaVuSans-Bold-33" d="M 2981 2516 
Q 3453 2394 3698 2092 
Q 3944 1791 3944 1325 
Q 3944 631 3412 270 
Q 2881 -91 1863 -91 
Q 1503 -91 1142 -33 
Q 781 25 428 141 
L 428 1069 
Q 766 900 1098 814 
Q 1431 728 1753 728 
Q 2231 728 2486 893 
Q 2741 1059 2741 1369 
Q 2741 1688 2480 1852 
Q 2219 2016 1709 2016 
L 1228 2016 
L 1228 2791 
L 1734 2791 
Q 2188 2791 2409 2933 
Q 2631 3075 2631 3366 
Q 2631 3634 2415 3781 
Q 2200 3928 1806 3928 
Q 1516 3928 1219 3862 
Q 922 3797 628 3669 
L 628 4550 
Q 984 4650 1334 4700 
Q 1684 4750 2022 4750 
Q 2931 4750 3382 4451 
Q 3834 4153 3834 3553 
Q 3834 3144 3618 2883 
Q 3403 2622 2981 2516 
z
" transform="scale(0.015625)"/>
      <path id="DejaVuSans-Bold-39" d="M 641 103 
L 641 966 
Q 928 831 1190 764 
Q 1453 697 1709 697 
Q 2247 697 2547 995 
Q 2847 1294 2900 1881 
Q 2688 1725 2447 1647 
Q 2206 1569 1925 1569 
Q 1209 1569 770 1986 
Q 331 2403 331 3084 
Q 331 3838 820 4291 
Q 1309 4744 2131 4744 
Q 3044 4744 3544 4128 
Q 4044 3513 4044 2388 
Q 4044 1231 3459 570 
Q 2875 -91 1856 -91 
Q 1528 -91 1228 -42 
Q 928 6 641 103 
z
M 2125 2350 
Q 2441 2350 2600 2554 
Q 2759 2759 2759 3169 
Q 2759 3575 2600 3781 
Q 2441 3988 2125 3988 
Q 1809 3988 1650 3781 
Q 1491 3575 1491 3169 
Q 1491 2759 1650 2554 
Q 1809 2350 2125 2350 
z
" transform="scale(0.015625)"/>
      <path id="DejaVuSans-Bold-29" d="M 513 -844 
Q 913 -100 1113 609 
Q 1313 1319 1313 2009 
Q 1313 2700 1113 3408 
Q 913 4116 513 4856 
L 1441 4856 
Q 1916 4091 2145 3389 
Q 2375 2688 2375 2003 
Q 2375 1319 2147 623 
Q 1919 -72 1441 -844 
L 513 -844 
z
" transform="scale(0.015625)"/>
     </defs>
     <use xlink:href="#DejaVuSans-Bold-70"/>
     <use xlink:href="#DejaVuSans-Bold-65" x="71.582031"/>
     <use xlink:href="#DejaVuSans-Bold-61" x="139.404297"/>
     <use xlink:href="#DejaVuSans-Bold-6b" x="206.884766"/>
     <use xlink:href="#DejaVuSans-Bold-20" x="273.388672"/>
     <use xlink:href="#DejaVuSans-Bold-28" x="308.203125"/>
     <use xlink:href="#DejaVuSans-Bold-31" x="353.90625"/>
     <use xlink:href="#DejaVuSans-Bold-36" x="423.486328"/>
     <use xlink:href="#DejaVuSans-Bold-2c" x="493.066406"/>
     <use xlink:href="#DejaVuSans-Bold-30" x="531.054688"/>
     <use xlink:href="#DejaVuSans-Bold-33" x="600.634766"/>
     <use xlink:href="#DejaVuSans-Bold-39" x="670.214844"/>
     <use xlink:href="#DejaVuSans-Bold-29" x="739.794922"/>
    </g>
   </g>
   <g id="text_24">
    <!-- mean (3,378) -->
    <g transform="translate(567.728153 200.454295) scale(0.1 -0.1)">
     <defs>
      <path id="DejaVuSans-Bold-6d" d="M 3781 2919 
Q 3994 3244 4286 3414 
Q 4578 3584 4928 3584 
Q 5531 3584 5847 3212 
Q 6163 2841 6163 2131 
L 6163 0 
L 5038 0 
L 5038 1825 
Q 5041 1866 5042 1909 
Q 5044 1953 5044 2034 
Q 5044 2406 4934 2573 
Q 4825 2741 4581 2741 
Q 4263 2741 4089 2478 
Q 3916 2216 3909 1719 
L 3909 0 
L 2784 0 
L 2784 1825 
Q 2784 2406 2684 2573 
Q 2584 2741 2328 2741 
Q 2006 2741 1831 2477 
Q 1656 2213 1656 1722 
L 1656 0 
L 531 0 
L 531 3500 
L 1656 3500 
L 1656 2988 
Q 1863 3284 2130 3434 
Q 2397 3584 2719 3584 
Q 3081 3584 3359 3409 
Q 3638 3234 3781 2919 
z
" transform="scale(0.015625)"/>
      <path id="DejaVuSans-Bold-6e" d="M 4056 2131 
L 4056 0 
L 2931 0 
L 2931 347 
L 2931 1631 
Q 2931 2084 2911 2256 
Q 2891 2428 2841 2509 
Q 2775 2619 2662 2680 
Q 2550 2741 2406 2741 
Q 2056 2741 1856 2470 
Q 1656 2200 1656 1722 
L 1656 0 
L 538 0 
L 538 3500 
L 1656 3500 
L 1656 2988 
Q 1909 3294 2193 3439 
Q 2478 3584 2822 3584 
Q 3428 3584 3742 3212 
Q 4056 2841 4056 2131 
z
" transform="scale(0.015625)"/>
      <path id="DejaVuSans-Bold-37" d="M 428 4666 
L 3944 4666 
L 3944 3988 
L 2125 0 
L 953 0 
L 2675 3781 
L 428 3781 
L 428 4666 
z
" transform="scale(0.015625)"/>
      <path id="DejaVuSans-Bold-38" d="M 2228 2088 
Q 1891 2088 1709 1903 
Q 1528 1719 1528 1375 
Q 1528 1031 1709 848 
Q 1891 666 2228 666 
Q 2563 666 2741 848 
Q 2919 1031 2919 1375 
Q 2919 1722 2741 1905 
Q 2563 2088 2228 2088 
z
M 1350 2484 
Q 925 2613 709 2878 
Q 494 3144 494 3541 
Q 494 4131 934 4440 
Q 1375 4750 2228 4750 
Q 3075 4750 3515 4442 
Q 3956 4134 3956 3541 
Q 3956 3144 3739 2878 
Q 3522 2613 3097 2484 
Q 3572 2353 3814 2058 
Q 4056 1763 4056 1313 
Q 4056 619 3595 264 
Q 3134 -91 2228 -91 
Q 1319 -91 855 264 
Q 391 619 391 1313 
Q 391 1763 633 2058 
Q 875 2353 1350 2484 
z
M 1631 3419 
Q 1631 3141 1786 2991 
Q 1941 2841 2228 2841 
Q 2509 2841 2662 2991 
Q 2816 3141 2816 3419 
Q 2816 3697 2662 3845 
Q 2509 3994 2228 3994 
Q 1941 3994 1786 3844 
Q 1631 3694 1631 3419 
z
" transform="scale(0.015625)"/>
     </defs>
     <use xlink:href="#DejaVuSans-Bold-6d"/>
     <use xlink:href="#DejaVuSans-Bold-65" x="104.199219"/>
     <use xlink:href="#DejaVuSans-Bold-61" x="172.021484"/>
     <use xlink:href="#DejaVuSans-Bold-6e" x="239.501953"/>
     <use xlink:href="#DejaVuSans-Bold-20" x="310.693359"/>
     <use xlink:href="#DejaVuSans-Bold-28" x="345.507812"/>
     <use xlink:href="#DejaVuSans-Bold-33" x="391.210938"/>
     <use xlink:href="#DejaVuSans-Bold-2c" x="460.791016"/>
     <use xlink:href="#DejaVuSans-Bold-33" x="498.779297"/>
     <use xlink:href="#DejaVuSans-Bold-37" x="568.359375"/>
     <use xlink:href="#DejaVuSans-Bold-38" x="637.939453"/>
     <use xlink:href="#DejaVuSans-Bold-29" x="707.519531"/>
    </g>
   </g>
   <g id="text_25">
    <!-- Stream Bitrate over Time -->
    <g transform="translate(293.189062 28.56) scale(0.12 -0.12)">
     <defs>
      <path id="DejaVuSans-53" d="M 3425 4513 
L 3425 3897 
Q 3066 4069 2747 4153 
Q 2428 4238 2131 4238 
Q 1616 4238 1336 4038 
Q 1056 3838 1056 3469 
Q 1056 3159 1242 3001 
Q 1428 2844 1947 2747 
L 2328 2669 
Q 3034 2534 3370 2195 
Q 3706 1856 3706 1288 
Q 3706 609 3251 259 
Q 2797 -91 1919 -91 
Q 1588 -91 1214 -16 
Q 841 59 441 206 
L 441 856 
Q 825 641 1194 531 
Q 1563 422 1919 422 
Q 2459 422 2753 634 
Q 3047 847 3047 1241 
Q 3047 1584 2836 1778 
Q 2625 1972 2144 2069 
L 1759 2144 
Q 1053 2284 737 2584 
Q 422 2884 422 3419 
Q 422 4038 858 4394 
Q 1294 4750 2059 4750 
Q 2388 4750 2728 4690 
Q 3069 4631 3425 4513 
z
" transform="scale(0.015625)"/>
      <path id="DejaVuSans-6f" d="M 1959 3097 
Q 1497 3097 1228 2736 
Q 959 2375 959 1747 
Q 959 1119 1226 758 
Q 1494 397 1959 397 
Q 2419 397 2687 759 
Q 2956 1122 2956 1747 
Q 2956 2369 2687 2733 
Q 2419 3097 1959 3097 
z
M 1959 3584 
Q 2709 3584 3137 3096 
Q 3566 2609 3566 1747 
Q 3566 888 3137 398 
Q 2709 -91 1959 -91 
Q 1206 -91 779 398 
Q 353 888 353 1747 
Q 353 2609 779 3096 
Q 1206 3584 1959 3584 
z
" transform="scale(0.015625)"/>
      <path id="DejaVuSans-76" d="M 191 3500 
L 800 3500 
L 1894 563 
L 2988 3500 
L 3597 3500 
L 2284 0 
L 1503 0 
L 191 3500 
z
" transform="scale(0.015625)"/>
     </defs>
     <use xlink:href="#DejaVuSans-53"/>
     <use xlink:href="#DejaVuSans-74" x="63.476562"/>
     <use xlink:href="#DejaVuSans-72" x="102.685547"/>
     <use xlink:href="#DejaVuSans-65" x="141.548828"/>
     <use xlink:href="#DejaVuSans-61" x="203.072266"/>
     <use xlink:href="#DejaVuSans-6d" x="264.351562"/>
     <use xlink:href="#DejaVuSans-20" x="361.763672"/>
     <use xlink:href="#DejaVuSans-42" x="393.550781"/>
     <use xlink:href="#DejaVuSans-69" x="462.154297"/>
     <use xlink:href="#DejaVuSans-74" x="489.9375"/>
     <use xlink:href="#DejaVuSans-72" x="529.146484"/>
     <use xlink:href="#DejaVuSans-61" x="570.259766"/>
     <use xlink:href="#DejaVuSans-74" x="631.539062"/>
     <use xlink:href="#DejaVuSans-65" x="670.748047"/>
     <use xlink:href="#DejaVuSans-20" x="732.271484"/>
     <use xlink:href="#DejaVuSans-6f" x="764.058594"/>
     <use xlink:href="#DejaVuSans-76" x="825.240234"/>
     <use xlink:href="#DejaVuSans-65" x="884.419922"/>
     <use xlink:href="#DejaVuSans-72" x="945.943359"/>
     <use xlink:href="#DejaVuSans-20" x="987.056641"/>
     <use xlink:href="#DejaVuSans-54" x="1018.84375"/>
     <use xlink:href="#DejaVuSans-69" x="1076.802734"/>
     <use xlink:href="#DejaVuSans-6d" x="1104.585938"/>
     <use xlink:href="#DejaVuSans-65" x="1201.998047"/>
    </g>
   </g>
   <g id="legend_1">
    <g id="patch_7">
     <path d="M 602.139063 86.594375 
L 641 86.594375 
Q 643 86.594375 643 84.594375 
L 643 41.56 
Q 643 39.56 641 39.56 
L 602.139063 39.56 
Q 600.139063 39.56 600.139063 41.56 
L 600.139063 84.594375 
Q 600.139063 86.594375 602.139063 86.594375 
z
" style="fill: #ffffff; opacity: 0.8; stroke: #cccccc; stroke-linejoin: miter"/>
    </g>
    <g id="patch_8">
     <path d="M 604.139063 51.158438 
L 624.139063 51.158438 
L 624.139063 44.158438 
L 604.139063 44.158438 
z
" style="fill: #ff0000; stroke: #ff0000; stroke-width: 0.5; stroke-linejoin: miter"/>
    </g>
    <g id="text_26">
     <!-- I -->
     <g transform="translate(632.139063 51.158438) scale(0.1 -0.1)">
      <defs>
       <path id="DejaVuSans-49" d="M 628 4666 
L 1259 4666 
L 1259 0 
L 628 0 
L 628 4666 
z
" transform="scale(0.015625)"/>
      </defs>
      <use xlink:href="#DejaVuSans-49"/>
     </g>
    </g>
    <g id="patch_9">
     <path d="M 604.139063 65.836563 
L 624.139063 65.836563 
L 624.139063 58.836563 
L 604.139063 58.836563 
z
" style="fill: #0000ff; stroke: #0000ff; stroke-width: 0.5; stroke-linejoin: miter"/>
    </g>
    <g id="text_27">
     <!-- B -->
     <g transform="translate(632.139063 65.836563) scale(0.1 -0.1)">
      <use xlink:href="#DejaVuSans-42"/>
     </g>
    </g>
    <g id="patch_10">
     <path d="M 604.139063 80.514688 
L 624.139063 80.514688 
L 624.139063 73.514688 
L 604.139063 73.514688 
z
" style="fill: #008000; stroke: #008000; stroke-width: 0.5; stroke-linejoin: miter"/>
    </g>
    <g id="text_28">
     <!-- P -->
     <g transform="translate(632.139063 80.514688) scale(0.1 -0.1)">
      <defs>
       <path id="DejaVuSans-50" d="M 1259 4147 
L 1259 2394 
L 2053 2394 
Q 2494 2394 2734 2622 
Q 2975 2850 2975 3272 
Q 2975 3691 2734 3919 
Q 2494 4147 2053 4147 
L 1259 4147 
z
M 628 4666 
L 2053 4666 
Q 2838 4666 3239 4311 
Q 3641 3956 3641 3272 
Q 3641 2581 3239 2228 
Q 2838 1875 2053 1875 
L 1259 1875 
L 1259 0 
L 628 0 
L 628 4666 
z
" transform="scale(0.015625)"/>
      </defs>
      <use xlink:href="#DejaVuSans-50"/>
     </g>
    </g>
   </g>
  </g>
 </g>
 <defs>
  <clipPath id="pee80fa705d">
   <rect x="90" y="34.56" width="558" height="221.76"/>
  </clipPath>
 </defs>
</svg>
