<?xml version="1.0" encoding="utf-8" standalone="no"?>
<!DOCTYPE svg PUBLIC "-//W3C//DTD SVG 1.1//EN"
  "http://www.w3.org/Graphics/SVG/1.1/DTD/svg11.dtd">
<svg xmlns:xlink="http://www.w3.org/1999/xlink" width="720pt" height="288pt" viewBox="0 0 720 288" xmlns="http://www.w3.org/2000/svg" version="1.1">
 <metadata>
  <rdf:RDF xmlns:dc="http://purl.org/dc/elements/1.1/" xmlns:cc="http://creativecommons.org/ns#" xmlns:rdf="http://www.w3.org/1999/02/22-rdf-syntax-ns#">
   <cc:Work>
    <dc:type rdf:resource="http://purl.org/dc/dcmitype/StillImage"/>
    <dc:date>2023-05-07T13:58:29.933909</dc:date>
    <dc:format>image/svg+xml</dc:format>
    <dc:creator>
     <cc:Agent>
      <dc:title>Matplotlib v3.7.1, https://matplotlib.org/</dc:title>
     </cc:Agent>
    </dc:creator>
   </cc:Work>
  </rdf:RDF>
 </metadata>
 <defs>
  <style type="text/css">*{stroke-linejoin: round; stroke-linecap: butt}</style>
 </defs>
 <g id="figure_1">
  <g id="patch_1">
   <path d="M 0 288 
L 720 288 
L 720 0 
L 0 0 
z
" style="fill: #ffffff"/>
  </g>
  <g id="axes_1">
   <g id="patch_2">
    <path d="M 90 256.32 
L 648 256.32 
L 648 34.56 
L 90 34.56 
z
" style="fill: #ffffff"/>
   </g>
   <g id="matplotlib.axis_1">
    <g id="xtick_1">
     <g id="line2d_1">
      <defs>
       <path id="m8949dd41e0" d="M 0 0 
L 0 3.5 
" style="stroke: #000000; stroke-width: 0.8"/>
      </defs>
      <g>
       <use xlink:href="#m8949dd41e0" x="115.363636" y="256.32" style="stroke: #000000; stroke-width: 0.8"/>
      </g>
     </g>
     <g id="text_1">
      <!-- 0:00:00 -->
      <g transform="translate(96.088636 270.918437) scale(0.1 -0.1)">
       <defs>
        <path id="DejaVuSans-30" d="M 2034 4250 
Q 1547 4250 1301 3770 
Q 1056 3291 1056 2328 
Q 1056 1369 1301 889 
Q 1547 409 2034 409 
Q 2525 409 2770 889 
Q 3016 1369 3016 2328 
Q 3016 3291 2770 3770 
Q 2525 4250 2034 4250 
z
M 2034 4750 
Q 2819 4750 3233 4129 
Q 3647 3509 3647 2328 
Q 3647 1150 3233 529 
Q 2819 -91 2034 -91 
Q 1250 -91 836 529 
Q 422 1150 422 2328 
Q 422 3509 836 4129 
Q 1250 4750 2034 4750 
z
" transform="scale(0.015625)"/>
        <path id="DejaVuSans-3a" d="M 750 794 
L 1409 794 
L 1409 0 
L 750 0 
L 750 794 
z
M 750 3309 
L 1409 3309 
L 1409 2516 
L 750 2516 
L 750 3309 
z
" transform="scale(0.015625)"/>
       </defs>
       <use xlink:href="#DejaVuSans-30"/>
       <use xlink:href="#DejaVuSans-3a" x="63.623047"/>
       <use xlink:href="#DejaVuSans-30" x="97.314453"/>
       <use xlink:href="#DejaVuSans-30" x="160.9375"/>
       <use xlink:href="#DejaVuSans-3a" x="224.560547"/>
       <use xlink:href="#DejaVuSans-30" x="258.251953"/>
       <use xlink:href="#DejaVuSans-30" x="321.875"/>
      </g>
     </g>
    </g>
    <g id="xtick_2">
     <g id="line2d_2">
      <g>
       <use xlink:href="#m8949dd41e0" x="164.814751" y="256.32" style="stroke: #000000; stroke-width: 0.8"/>
      </g>
     </g>
     <g id="text_2">
      <!-- 0:00:31 -->
      <g transform="translate(145.539751 270.918437) scale(0.1 -0.1)">
       <defs>
        <path id="DejaVuSans-33" d="M 2597 2516 
Q 3050 2419 3304 2112 
Q 3559 1806 3559 1356 
Q 3559 666 3084 287 
Q 2609 -91 1734 -91 
Q 1441 -91 1130 -33 
Q 819 25 488 141 
L 488 750 
Q 750 597 1062 519 
Q 1375 441 1716 441 
Q 2309 441 2620 675 
Q 2931 909 2931 1356 
Q 2931 1769 2642 2001 
Q 2353 2234 1838 2234 
L 1294 2234 
L 1294 2753 
L 1863 2753 
Q 2328 2753 2575 2939 
Q 2822 3125 2822 3475 
Q 2822 3834 2567 4026 
Q 2313 4219 1838 4219 
Q 1578 4219 1281 4162 
Q 984 4106 628 3988 
L 628 4550 
Q 988 4650 1302 4700 
Q 1616 4750 1894 4750 
Q 2613 4750 3031 4423 
Q 3450 4097 3450 3541 
Q 3450 3153 3228 2886 
Q 3006 2619 2597 2516 
z
" transform="scale(0.015625)"/>
        <path id="DejaVuSans-31" d="M 794 531 
L 1825 531 
L 1825 4091 
L 703 3866 
L 703 4441 
L 1819 4666 
L 2450 4666 
L 2450 531 
L 3481 531 
L 3481 0 
L 794 0 
L 794 531 
z
" transform="scale(0.015625)"/>
       </defs>
       <use xlink:href="#DejaVuSans-30"/>
       <use xlink:href="#DejaVuSans-3a" x="63.623047"/>
       <use xlink:href="#DejaVuSans-30" x="97.314453"/>
       <use xlink:href="#DejaVuSans-30" x="160.9375"/>
       <use xlink:href="#DejaVuSans-3a" x="224.560547"/>
       <use xlink:href="#DejaVuSans-33" x="258.251953"/>
       <use xlink:href="#DejaVuSans-31" x="321.875"/>
      </g>
     </g>
    </g>
    <g id="xtick_3">
     <g id="line2d_3">
      <g>
       <use xlink:href="#m8949dd41e0" x="214.265866" y="256.32" style="stroke: #000000; stroke-width: 0.8"/>
      </g>
     </g>
     <g id="text_3">
      <!-- 0:01:02 -->
      <g transform="translate(194.990866 270.918437) scale(0.1 -0.1)">
       <defs>
        <path id="DejaVuSans-32" d="M 1228 531 
L 3431 531 
L 3431 0 
L 469 0 
L 469 531 
Q 828 903 1448 1529 
Q 2069 2156 2228 2338 
Q 2531 2678 2651 2914 
Q 2772 3150 2772 3378 
Q 2772 3750 2511 3984 
Q 2250 4219 1831 4219 
Q 1534 4219 1204 4116 
Q 875 4013 500 3803 
L 500 4441 
Q 881 4594 1212 4672 
Q 1544 4750 1819 4750 
Q 2544 4750 2975 4387 
Q 3406 4025 3406 3419 
Q 3406 3131 3298 2873 
Q 3191 2616 2906 2266 
Q 2828 2175 2409 1742 
Q 1991 1309 1228 531 
z
" transform="scale(0.015625)"/>
       </defs>
       <use xlink:href="#DejaVuSans-30"/>
       <use xlink:href="#DejaVuSans-3a" x="63.623047"/>
       <use xlink:href="#DejaVuSans-30" x="97.314453"/>
       <use xlink:href="#DejaVuSans-31" x="160.9375"/>
       <use xlink:href="#DejaVuSans-3a" x="224.560547"/>
       <use xlink:href="#DejaVuSans-30" x="258.251953"/>
       <use xlink:href="#DejaVuSans-32" x="321.875"/>
      </g>
     </g>
    </g>
    <g id="xtick_4">
     <g id="line2d_4">
      <g>
       <use xlink:href="#m8949dd41e0" x="263.716981" y="256.32" style="stroke: #000000; stroke-width: 0.8"/>
      </g>
     </g>
     <g id="text_4">
      <!-- 0:01:33 -->
      <g transform="translate(244.441981 270.918437) scale(0.1 -0.1)">
       <use xlink:href="#DejaVuSans-30"/>
       <use xlink:href="#DejaVuSans-3a" x="63.623047"/>
       <use xlink:href="#DejaVuSans-30" x="97.314453"/>
       <use xlink:href="#DejaVuSans-31" x="160.9375"/>
       <use xlink:href="#DejaVuSans-3a" x="224.560547"/>
       <use xlink:href="#DejaVuSans-33" x="258.251953"/>
       <use xlink:href="#DejaVuSans-33" x="321.875"/>
      </g>
     </g>
    </g>
    <g id="xtick_5">
     <g id="line2d_5">
      <g>
       <use xlink:href="#m8949dd41e0" x="313.168096" y="256.32" style="stroke: #000000; stroke-width: 0.8"/>
      </g>
     </g>
     <g id="text_5">
      <!-- 0:02:04 -->
      <g transform="translate(293.893096 270.918437) scale(0.1 -0.1)">
       <defs>
        <path id="DejaVuSans-34" d="M 2419 4116 
L 825 1625 
L 2419 1625 
L 2419 4116 
z
M 2253 4666 
L 3047 4666 
L 3047 1625 
L 3713 1625 
L 3713 1100 
L 3047 1100 
L 3047 0 
L 2419 0 
L 2419 1100 
L 313 1100 
L 313 1709 
L 2253 4666 
z
" transform="scale(0.015625)"/>
       </defs>
       <use xlink:href="#DejaVuSans-30"/>
       <use xlink:href="#DejaVuSans-3a" x="63.623047"/>
       <use xlink:href="#DejaVuSans-30" x="97.314453"/>
       <use xlink:href="#DejaVuSans-32" x="160.9375"/>
       <use xlink:href="#DejaVuSans-3a" x="224.560547"/>
       <use xlink:href="#DejaVuSans-30" x="258.251953"/>
       <use xlink:href="#DejaVuSans-34" x="321.875"/>
      </g>
     </g>
    </g>
    <g id="xtick_6">
     <g id="line2d_6">
      <g>
       <use xlink:href="#m8949dd41e0" x="362.619211" y="256.32" style="stroke: #000000; stroke-width: 0.8"/>
      </g>
     </g>
     <g id="text_6">
      <!-- 0:02:35 -->
      <g transform="translate(343.344211 270.918437) scale(0.1 -0.1)">
       <defs>
        <path id="DejaVuSans-35" d="M 691 4666 
L 3169 4666 
L 3169 4134 
L 1269 4134 
L 1269 2991 
Q 1406 3038 1543 3061 
Q 1681 3084 1819 3084 
Q 2600 3084 3056 2656 
Q 3513 2228 3513 1497 
Q 3513 744 3044 326 
Q 2575 -91 1722 -91 
Q 1428 -91 1123 -41 
Q 819 9 494 109 
L 494 744 
Q 775 591 1075 516 
Q 1375 441 1709 441 
Q 2250 441 2565 725 
Q 2881 1009 2881 1497 
Q 2881 1984 2565 2268 
Q 2250 2553 1709 2553 
Q 1456 2553 1204 2497 
Q 953 2441 691 2322 
L 691 4666 
z
" transform="scale(0.015625)"/>
       </defs>
       <use xlink:href="#DejaVuSans-30"/>
       <use xlink:href="#DejaVuSans-3a" x="63.623047"/>
       <use xlink:href="#DejaVuSans-30" x="97.314453"/>
       <use xlink:href="#DejaVuSans-32" x="160.9375"/>
       <use xlink:href="#DejaVuSans-3a" x="224.560547"/>
       <use xlink:href="#DejaVuSans-33" x="258.251953"/>
       <use xlink:href="#DejaVuSans-35" x="321.875"/>
      </g>
     </g>
    </g>
    <g id="xtick_7">
     <g id="line2d_7">
      <g>
       <use xlink:href="#m8949dd41e0" x="412.070326" y="256.32" style="stroke: #000000; stroke-width: 0.8"/>
      </g>
     </g>
     <g id="text_7">
      <!-- 0:03:06 -->
      <g transform="translate(392.795326 270.918437) scale(0.1 -0.1)">
       <defs>
        <path id="DejaVuSans-36" d="M 2113 2584 
Q 1688 2584 1439 2293 
Q 1191 2003 1191 1497 
Q 1191 994 1439 701 
Q 1688 409 2113 409 
Q 2538 409 2786 701 
Q 3034 994 3034 1497 
Q 3034 2003 2786 2293 
Q 2538 2584 2113 2584 
z
M 3366 4563 
L 3366 3988 
Q 3128 4100 2886 4159 
Q 2644 4219 2406 4219 
Q 1781 4219 1451 3797 
Q 1122 3375 1075 2522 
Q 1259 2794 1537 2939 
Q 1816 3084 2150 3084 
Q 2853 3084 3261 2657 
Q 3669 2231 3669 1497 
Q 3669 778 3244 343 
Q 2819 -91 2113 -91 
Q 1303 -91 875 529 
Q 447 1150 447 2328 
Q 447 3434 972 4092 
Q 1497 4750 2381 4750 
Q 2619 4750 2861 4703 
Q 3103 4656 3366 4563 
z
" transform="scale(0.015625)"/>
       </defs>
       <use xlink:href="#DejaVuSans-30"/>
       <use xlink:href="#DejaVuSans-3a" x="63.623047"/>
       <use xlink:href="#DejaVuSans-30" x="97.314453"/>
       <use xlink:href="#DejaVuSans-33" x="160.9375"/>
       <use xlink:href="#DejaVuSans-3a" x="224.560547"/>
       <use xlink:href="#DejaVuSans-30" x="258.251953"/>
       <use xlink:href="#DejaVuSans-36" x="321.875"/>
      </g>
     </g>
    </g>
    <g id="xtick_8">
     <g id="line2d_8">
      <g>
       <use xlink:href="#m8949dd41e0" x="461.521441" y="256.32" style="stroke: #000000; stroke-width: 0.8"/>
      </g>
     </g>
     <g id="text_8">
      <!-- 0:03:37 -->
      <g transform="translate(442.246441 270.918437) scale(0.1 -0.1)">
       <defs>
        <path id="DejaVuSans-37" d="M 525 4666 
L 3525 4666 
L 3525 4397 
L 1831 0 
L 1172 0 
L 2766 4134 
L 525 4134 
L 525 4666 
z
" transform="scale(0.015625)"/>
       </defs>
       <use xlink:href="#DejaVuSans-30"/>
       <use xlink:href="#DejaVuSans-3a" x="63.623047"/>
       <use xlink:href="#DejaVuSans-30" x="97.314453"/>
       <use xlink:href="#DejaVuSans-33" x="160.9375"/>
       <use xlink:href="#DejaVuSans-3a" x="224.560547"/>
       <use xlink:href="#DejaVuSans-33" x="258.251953"/>
       <use xlink:href="#DejaVuSans-37" x="321.875"/>
      </g>
     </g>
    </g>
    <g id="xtick_9">
     <g id="line2d_9">
      <g>
       <use xlink:href="#m8949dd41e0" x="510.972556" y="256.32" style="stroke: #000000; stroke-width: 0.8"/>
      </g>
     </g>
     <g id="text_9">
      <!-- 0:04:08 -->
      <g transform="translate(491.697556 270.918437) scale(0.1 -0.1)">
       <defs>
        <path id="DejaVuSans-38" d="M 2034 2216 
Q 1584 2216 1326 1975 
Q 1069 1734 1069 1313 
Q 1069 891 1326 650 
Q 1584 409 2034 409 
Q 2484 409 2743 651 
Q 3003 894 3003 1313 
Q 3003 1734 2745 1975 
Q 2488 2216 2034 2216 
z
M 1403 2484 
Q 997 2584 770 2862 
Q 544 3141 544 3541 
Q 544 4100 942 4425 
Q 1341 4750 2034 4750 
Q 2731 4750 3128 4425 
Q 3525 4100 3525 3541 
Q 3525 3141 3298 2862 
Q 3072 2584 2669 2484 
Q 3125 2378 3379 2068 
Q 3634 1759 3634 1313 
Q 3634 634 3220 271 
Q 2806 -91 2034 -91 
Q 1263 -91 848 271 
Q 434 634 434 1313 
Q 434 1759 690 2068 
Q 947 2378 1403 2484 
z
M 1172 3481 
Q 1172 3119 1398 2916 
Q 1625 2713 2034 2713 
Q 2441 2713 2670 2916 
Q 2900 3119 2900 3481 
Q 2900 3844 2670 4047 
Q 2441 4250 2034 4250 
Q 1625 4250 1398 4047 
Q 1172 3844 1172 3481 
z
" transform="scale(0.015625)"/>
       </defs>
       <use xlink:href="#DejaVuSans-30"/>
       <use xlink:href="#DejaVuSans-3a" x="63.623047"/>
       <use xlink:href="#DejaVuSans-30" x="97.314453"/>
       <use xlink:href="#DejaVuSans-34" x="160.9375"/>
       <use xlink:href="#DejaVuSans-3a" x="224.560547"/>
       <use xlink:href="#DejaVuSans-30" x="258.251953"/>
       <use xlink:href="#DejaVuSans-38" x="321.875"/>
      </g>
     </g>
    </g>
    <g id="xtick_10">
     <g id="line2d_10">
      <g>
       <use xlink:href="#m8949dd41e0" x="560.423671" y="256.32" style="stroke: #000000; stroke-width: 0.8"/>
      </g>
     </g>
     <g id="text_10">
      <!-- 0:04:39 -->
      <g transform="translate(541.148671 270.918437) scale(0.1 -0.1)">
       <defs>
        <path id="DejaVuSans-39" d="M 703 97 
L 703 672 
Q 941 559 1184 500 
Q 1428 441 1663 441 
Q 2288 441 2617 861 
Q 2947 1281 2994 2138 
Q 2813 1869 2534 1725 
Q 2256 1581 1919 1581 
Q 1219 1581 811 2004 
Q 403 2428 403 3163 
Q 403 3881 828 4315 
Q 1253 4750 1959 4750 
Q 2769 4750 3195 4129 
Q 3622 3509 3622 2328 
Q 3622 1225 3098 567 
Q 2575 -91 1691 -91 
Q 1453 -91 1209 -44 
Q 966 3 703 97 
z
M 1959 2075 
Q 2384 2075 2632 2365 
Q 2881 2656 2881 3163 
Q 2881 3666 2632 3958 
Q 2384 4250 1959 4250 
Q 1534 4250 1286 3958 
Q 1038 3666 1038 3163 
Q 1038 2656 1286 2365 
Q 1534 2075 1959 2075 
z
" transform="scale(0.015625)"/>
       </defs>
       <use xlink:href="#DejaVuSans-30"/>
       <use xlink:href="#DejaVuSans-3a" x="63.623047"/>
       <use xlink:href="#DejaVuSans-30" x="97.314453"/>
       <use xlink:href="#DejaVuSans-34" x="160.9375"/>
       <use xlink:href="#DejaVuSans-3a" x="224.560547"/>
       <use xlink:href="#DejaVuSans-33" x="258.251953"/>
       <use xlink:href="#DejaVuSans-39" x="321.875"/>
      </g>
     </g>
    </g>
    <g id="xtick_11">
     <g id="line2d_11">
      <g>
       <use xlink:href="#m8949dd41e0" x="609.874786" y="256.32" style="stroke: #000000; stroke-width: 0.8"/>
      </g>
     </g>
     <g id="text_11">
      <!-- 0:05:10 -->
      <g transform="translate(590.599786 270.918437) scale(0.1 -0.1)">
       <use xlink:href="#DejaVuSans-30"/>
       <use xlink:href="#DejaVuSans-3a" x="63.623047"/>
       <use xlink:href="#DejaVuSans-30" x="97.314453"/>
       <use xlink:href="#DejaVuSans-35" x="160.9375"/>
       <use xlink:href="#DejaVuSans-3a" x="224.560547"/>
       <use xlink:href="#DejaVuSans-31" x="258.251953"/>
       <use xlink:href="#DejaVuSans-30" x="321.875"/>
      </g>
     </g>
    </g>
    <g id="text_12">
     <!-- Time -->
     <g transform="translate(356.766406 284.596563) scale(0.1 -0.1)">
      <defs>
       <path id="DejaVuSans-54" d="M -19 4666 
L 3928 4666 
L 3928 4134 
L 2272 4134 
L 2272 0 
L 1638 0 
L 1638 4134 
L -19 4134 
L -19 4666 
z
" transform="scale(0.015625)"/>
       <path id="DejaVuSans-69" d="M 603 3500 
L 1178 3500 
L 1178 0 
L 603 0 
L 603 3500 
z
M 603 4863 
L 1178 4863 
L 1178 4134 
L 603 4134 
L 603 4863 
z
" transform="scale(0.015625)"/>
       <path id="DejaVuSans-6d" d="M 3328 2828 
Q 3544 3216 3844 3400 
Q 4144 3584 4550 3584 
Q 5097 3584 5394 3201 
Q 5691 2819 5691 2113 
L 5691 0 
L 5113 0 
L 5113 2094 
Q 5113 2597 4934 2840 
Q 4756 3084 4391 3084 
Q 3944 3084 3684 2787 
Q 3425 2491 3425 1978 
L 3425 0 
L 2847 0 
L 2847 2094 
Q 2847 2600 2669 2842 
Q 2491 3084 2119 3084 
Q 1678 3084 1418 2786 
Q 1159 2488 1159 1978 
L 1159 0 
L 581 0 
L 581 3500 
L 1159 3500 
L 1159 2956 
Q 1356 3278 1631 3431 
Q 1906 3584 2284 3584 
Q 2666 3584 2933 3390 
Q 3200 3197 3328 2828 
z
" transform="scale(0.015625)"/>
       <path id="DejaVuSans-65" d="M 3597 1894 
L 3597 1613 
L 953 1613 
Q 991 1019 1311 708 
Q 1631 397 2203 397 
Q 2534 397 2845 478 
Q 3156 559 3463 722 
L 3463 178 
Q 3153 47 2828 -22 
Q 2503 -91 2169 -91 
Q 1331 -91 842 396 
Q 353 884 353 1716 
Q 353 2575 817 3079 
Q 1281 3584 2069 3584 
Q 2775 3584 3186 3129 
Q 3597 2675 3597 1894 
z
M 3022 2063 
Q 3016 2534 2758 2815 
Q 2500 3097 2075 3097 
Q 1594 3097 1305 2825 
Q 1016 2553 972 2059 
L 3022 2063 
z
" transform="scale(0.015625)"/>
      </defs>
      <use xlink:href="#DejaVuSans-54"/>
      <use xlink:href="#DejaVuSans-69" x="57.958984"/>
      <use xlink:href="#DejaVuSans-6d" x="85.742188"/>
      <use xlink:href="#DejaVuSans-65" x="183.154297"/>
     </g>
    </g>
   </g>
   <g id="matplotlib.axis_2">
    <g id="ytick_1">
     <g id="line2d_12">
      <path d="M 90 246.24 
L 648 246.24 
" clip-path="url(#p1b12f16232)" style="fill: none; stroke: #b0b0b0; stroke-width: 0.8; stroke-linecap: square"/>
     </g>
     <g id="line2d_13">
      <defs>
       <path id="m6760be87f0" d="M 0 0 
L -3.5 0 
" style="stroke: #000000; stroke-width: 0.8"/>
      </defs>
      <g>
       <use xlink:href="#m6760be87f0" x="90" y="246.24" style="stroke: #000000; stroke-width: 0.8"/>
      </g>
     </g>
     <g id="text_13">
      <!-- 0 -->
      <g transform="translate(76.6375 250.039219) scale(0.1 -0.1)">
       <use xlink:href="#DejaVuSans-30"/>
      </g>
     </g>
    </g>
    <g id="ytick_2">
     <g id="line2d_14">
      <path d="M 90 212.790523 
L 648 212.790523 
" clip-path="url(#p1b12f16232)" style="fill: none; stroke: #b0b0b0; stroke-width: 0.8; stroke-linecap: square"/>
     </g>
     <g id="line2d_15">
      <g>
       <use xlink:href="#m6760be87f0" x="90" y="212.790523" style="stroke: #000000; stroke-width: 0.8"/>
      </g>
     </g>
     <g id="text_14">
      <!-- 1,000 -->
      <g transform="translate(54.371875 216.589741) scale(0.1 -0.1)">
       <defs>
        <path id="DejaVuSans-2c" d="M 750 794 
L 1409 794 
L 1409 256 
L 897 -744 
L 494 -744 
L 750 256 
L 750 794 
z
" transform="scale(0.015625)"/>
       </defs>
       <use xlink:href="#DejaVuSans-31"/>
       <use xlink:href="#DejaVuSans-2c" x="63.623047"/>
       <use xlink:href="#DejaVuSans-30" x="95.410156"/>
       <use xlink:href="#DejaVuSans-30" x="159.033203"/>
       <use xlink:href="#DejaVuSans-30" x="222.65625"/>
      </g>
     </g>
    </g>
    <g id="ytick_3">
     <g id="line2d_16">
      <path d="M 90 179.341045 
L 648 179.341045 
" clip-path="url(#p1b12f16232)" style="fill: none; stroke: #b0b0b0; stroke-width: 0.8; stroke-linecap: square"/>
     </g>
     <g id="line2d_17">
      <g>
       <use xlink:href="#m6760be87f0" x="90" y="179.341045" style="stroke: #000000; stroke-width: 0.8"/>
      </g>
     </g>
     <g id="text_15">
      <!-- 2,000 -->
      <g transform="translate(54.371875 183.140264) scale(0.1 -0.1)">
       <use xlink:href="#DejaVuSans-32"/>
       <use xlink:href="#DejaVuSans-2c" x="63.623047"/>
       <use xlink:href="#DejaVuSans-30" x="95.410156"/>
       <use xlink:href="#DejaVuSans-30" x="159.033203"/>
       <use xlink:href="#DejaVuSans-30" x="222.65625"/>
      </g>
     </g>
    </g>
    <g id="ytick_4">
     <g id="line2d_18">
      <path d="M 90 145.891568 
L 648 145.891568 
" clip-path="url(#p1b12f16232)" style="fill: none; stroke: #b0b0b0; stroke-width: 0.8; stroke-linecap: square"/>
     </g>
     <g id="line2d_19">
      <g>
       <use xlink:href="#m6760be87f0" x="90" y="145.891568" style="stroke: #000000; stroke-width: 0.8"/>
      </g>
     </g>
     <g id="text_16">
      <!-- 3,000 -->
      <g transform="translate(54.371875 149.690787) scale(0.1 -0.1)">
       <use xlink:href="#DejaVuSans-33"/>
       <use xlink:href="#DejaVuSans-2c" x="63.623047"/>
       <use xlink:href="#DejaVuSans-30" x="95.410156"/>
       <use xlink:href="#DejaVuSans-30" x="159.033203"/>
       <use xlink:href="#DejaVuSans-30" x="222.65625"/>
      </g>
     </g>
    </g>
    <g id="ytick_5">
     <g id="line2d_20">
      <path d="M 90 112.442091 
L 648 112.442091 
" clip-path="url(#p1b12f16232)" style="fill: none; stroke: #b0b0b0; stroke-width: 0.8; stroke-linecap: square"/>
     </g>
     <g id="line2d_21">
      <g>
       <use xlink:href="#m6760be87f0" x="90" y="112.442091" style="stroke: #000000; stroke-width: 0.8"/>
      </g>
     </g>
     <g id="text_17">
      <!-- 4,000 -->
      <g transform="translate(54.371875 116.241309) scale(0.1 -0.1)">
       <use xlink:href="#DejaVuSans-34"/>
       <use xlink:href="#DejaVuSans-2c" x="63.623047"/>
       <use xlink:href="#DejaVuSans-30" x="95.410156"/>
       <use xlink:href="#DejaVuSans-30" x="159.033203"/>
       <use xlink:href="#DejaVuSans-30" x="222.65625"/>
      </g>
     </g>
    </g>
    <g id="ytick_6">
     <g id="line2d_22">
      <path d="M 90 78.992613 
L 648 78.992613 
" clip-path="url(#p1b12f16232)" style="fill: none; stroke: #b0b0b0; stroke-width: 0.8; stroke-linecap: square"/>
     </g>
     <g id="line2d_23">
      <g>
       <use xlink:href="#m6760be87f0" x="90" y="78.992613" style="stroke: #000000; stroke-width: 0.8"/>
      </g>
     </g>
     <g id="text_18">
      <!-- 5,000 -->
      <g transform="translate(54.371875 82.791832) scale(0.1 -0.1)">
       <use xlink:href="#DejaVuSans-35"/>
       <use xlink:href="#DejaVuSans-2c" x="63.623047"/>
       <use xlink:href="#DejaVuSans-30" x="95.410156"/>
       <use xlink:href="#DejaVuSans-30" x="159.033203"/>
       <use xlink:href="#DejaVuSans-30" x="222.65625"/>
      </g>
     </g>
    </g>
    <g id="ytick_7">
     <g id="line2d_24">
      <path d="M 90 45.543136 
L 648 45.543136 
" clip-path="url(#p1b12f16232)" style="fill: none; stroke: #b0b0b0; stroke-width: 0.8; stroke-linecap: square"/>
     </g>
     <g id="line2d_25">
      <g>
       <use xlink:href="#m6760be87f0" x="90" y="45.543136" style="stroke: #000000; stroke-width: 0.8"/>
      </g>
     </g>
     <g id="text_19">
      <!-- 6,000 -->
      <g transform="translate(54.371875 49.342355) scale(0.1 -0.1)">
       <use xlink:href="#DejaVuSans-36"/>
       <use xlink:href="#DejaVuSans-2c" x="63.623047"/>
       <use xlink:href="#DejaVuSans-30" x="95.410156"/>
       <use xlink:href="#DejaVuSans-30" x="159.033203"/>
       <use xlink:href="#DejaVuSans-30" x="222.65625"/>
      </g>
     </g>
    </g>
    <g id="text_20">
     <!-- Bitrate (kbit/s) -->
     <g transform="translate(48.292187 181.574375) rotate(-90) scale(0.1 -0.1)">
      <defs>
       <path id="DejaVuSans-42" d="M 1259 2228 
L 1259 519 
L 2272 519 
Q 2781 519 3026 730 
Q 3272 941 3272 1375 
Q 3272 1813 3026 2020 
Q 2781 2228 2272 2228 
L 1259 2228 
z
M 1259 4147 
L 1259 2741 
L 2194 2741 
Q 2656 2741 2882 2914 
Q 3109 3088 3109 3444 
Q 3109 3797 2882 3972 
Q 2656 4147 2194 4147 
L 1259 4147 
z
M 628 4666 
L 2241 4666 
Q 2963 4666 3353 4366 
Q 3744 4066 3744 3513 
Q 3744 3084 3544 2831 
Q 3344 2578 2956 2516 
Q 3422 2416 3680 2098 
Q 3938 1781 3938 1306 
Q 3938 681 3513 340 
Q 3088 0 2303 0 
L 628 0 
L 628 4666 
z
" transform="scale(0.015625)"/>
       <path id="DejaVuSans-74" d="M 1172 4494 
L 1172 3500 
L 2356 3500 
L 2356 3053 
L 1172 3053 
L 1172 1153 
Q 1172 725 1289 603 
Q 1406 481 1766 481 
L 2356 481 
L 2356 0 
L 1766 0 
Q 1100 0 847 248 
Q 594 497 594 1153 
L 594 3053 
L 172 3053 
L 172 3500 
L 594 3500 
L 594 4494 
L 1172 4494 
z
" transform="scale(0.015625)"/>
       <path id="DejaVuSans-72" d="M 2631 2963 
Q 2534 3019 2420 3045 
Q 2306 3072 2169 3072 
Q 1681 3072 1420 2755 
Q 1159 2438 1159 1844 
L 1159 0 
L 581 0 
L 581 3500 
L 1159 3500 
L 1159 2956 
Q 1341 3275 1631 3429 
Q 1922 3584 2338 3584 
Q 2397 3584 2469 3576 
Q 2541 3569 2628 3553 
L 2631 2963 
z
" transform="scale(0.015625)"/>
       <path id="DejaVuSans-61" d="M 2194 1759 
Q 1497 1759 1228 1600 
Q 959 1441 959 1056 
Q 959 750 1161 570 
Q 1363 391 1709 391 
Q 2188 391 2477 730 
Q 2766 1069 2766 1631 
L 2766 1759 
L 2194 1759 
z
M 3341 1997 
L 3341 0 
L 2766 0 
L 2766 531 
Q 2569 213 2275 61 
Q 1981 -91 1556 -91 
Q 1019 -91 701 211 
Q 384 513 384 1019 
Q 384 1609 779 1909 
Q 1175 2209 1959 2209 
L 2766 2209 
L 2766 2266 
Q 2766 2663 2505 2880 
Q 2244 3097 1772 3097 
Q 1472 3097 1187 3025 
Q 903 2953 641 2809 
L 641 3341 
Q 956 3463 1253 3523 
Q 1550 3584 1831 3584 
Q 2591 3584 2966 3190 
Q 3341 2797 3341 1997 
z
" transform="scale(0.015625)"/>
       <path id="DejaVuSans-20" transform="scale(0.015625)"/>
       <path id="DejaVuSans-28" d="M 1984 4856 
Q 1566 4138 1362 3434 
Q 1159 2731 1159 2009 
Q 1159 1288 1364 580 
Q 1569 -128 1984 -844 
L 1484 -844 
Q 1016 -109 783 600 
Q 550 1309 550 2009 
Q 550 2706 781 3412 
Q 1013 4119 1484 4856 
L 1984 4856 
z
" transform="scale(0.015625)"/>
       <path id="DejaVuSans-6b" d="M 581 4863 
L 1159 4863 
L 1159 1991 
L 2875 3500 
L 3609 3500 
L 1753 1863 
L 3688 0 
L 2938 0 
L 1159 1709 
L 1159 0 
L 581 0 
L 581 4863 
z
" transform="scale(0.015625)"/>
       <path id="DejaVuSans-62" d="M 3116 1747 
Q 3116 2381 2855 2742 
Q 2594 3103 2138 3103 
Q 1681 3103 1420 2742 
Q 1159 2381 1159 1747 
Q 1159 1113 1420 752 
Q 1681 391 2138 391 
Q 2594 391 2855 752 
Q 3116 1113 3116 1747 
z
M 1159 2969 
Q 1341 3281 1617 3432 
Q 1894 3584 2278 3584 
Q 2916 3584 3314 3078 
Q 3713 2572 3713 1747 
Q 3713 922 3314 415 
Q 2916 -91 2278 -91 
Q 1894 -91 1617 61 
Q 1341 213 1159 525 
L 1159 0 
L 581 0 
L 581 4863 
L 1159 4863 
L 1159 2969 
z
" transform="scale(0.015625)"/>
       <path id="DejaVuSans-2f" d="M 1625 4666 
L 2156 4666 
L 531 -594 
L 0 -594 
L 1625 4666 
z
" transform="scale(0.015625)"/>
       <path id="DejaVuSans-73" d="M 2834 3397 
L 2834 2853 
Q 2591 2978 2328 3040 
Q 2066 3103 1784 3103 
Q 1356 3103 1142 2972 
Q 928 2841 928 2578 
Q 928 2378 1081 2264 
Q 1234 2150 1697 2047 
L 1894 2003 
Q 2506 1872 2764 1633 
Q 3022 1394 3022 966 
Q 3022 478 2636 193 
Q 2250 -91 1575 -91 
Q 1294 -91 989 -36 
Q 684 19 347 128 
L 347 722 
Q 666 556 975 473 
Q 1284 391 1588 391 
Q 1994 391 2212 530 
Q 2431 669 2431 922 
Q 2431 1156 2273 1281 
Q 2116 1406 1581 1522 
L 1381 1569 
Q 847 1681 609 1914 
Q 372 2147 372 2553 
Q 372 3047 722 3315 
Q 1072 3584 1716 3584 
Q 2034 3584 2315 3537 
Q 2597 3491 2834 3397 
z
" transform="scale(0.015625)"/>
       <path id="DejaVuSans-29" d="M 513 4856 
L 1013 4856 
Q 1481 4119 1714 3412 
Q 1947 2706 1947 2009 
Q 1947 1309 1714 600 
Q 1481 -109 1013 -844 
L 513 -844 
Q 928 -128 1133 580 
Q 1338 1288 1338 2009 
Q 1338 2731 1133 3434 
Q 928 4138 513 4856 
z
" transform="scale(0.015625)"/>
      </defs>
      <use xlink:href="#DejaVuSans-42"/>
      <use xlink:href="#DejaVuSans-69" x="68.603516"/>
      <use xlink:href="#DejaVuSans-74" x="96.386719"/>
      <use xlink:href="#DejaVuSans-72" x="135.595703"/>
      <use xlink:href="#DejaVuSans-61" x="176.708984"/>
      <use xlink:href="#DejaVuSans-74" x="237.988281"/>
      <use xlink:href="#DejaVuSans-65" x="277.197266"/>
      <use xlink:href="#DejaVuSans-20" x="338.720703"/>
      <use xlink:href="#DejaVuSans-28" x="370.507812"/>
      <use xlink:href="#DejaVuSans-6b" x="409.521484"/>
      <use xlink:href="#DejaVuSans-62" x="467.431641"/>
      <use xlink:href="#DejaVuSans-69" x="530.908203"/>
      <use xlink:href="#DejaVuSans-74" x="558.691406"/>
      <use xlink:href="#DejaVuSans-2f" x="597.900391"/>
      <use xlink:href="#DejaVuSans-73" x="631.591797"/>
      <use xlink:href="#DejaVuSans-29" x="683.691406"/>
     </g>
    </g>
   </g>
   <g id="PolyCollection_1">
    <defs>
     <path id="mc23df928c1" d="M 115.363636 -46.743972 
L 115.363636 -41.76 
L 116.958834 -41.76 
L 118.554031 -41.76 
L 120.149228 -41.76 
L 121.744425 -41.76 
L 123.339623 -41.76 
L 124.93482 -41.76 
L 126.530017 -41.76 
L 128.125214 -41.76 
L 129.720412 -41.76 
L 131.315609 -41.76 
L 132.910806 -41.76 
L 134.506003 -41.76 
L 136.101201 -41.76 
L 137.696398 -41.76 
L 139.291595 -41.76 
L 140.886792 -41.76 
L 142.48199 -41.76 
L 144.077187 -41.76 
L 145.672384 -41.76 
L 147.267581 -41.76 
L 148.862779 -41.76 
L 150.457976 -41.76 
L 152.053173 -41.76 
L 153.64837 -41.76 
L 155.243568 -41.76 
L 156.838765 -41.76 
L 158.433962 -41.76 
L 160.02916 -41.76 
L 161.624357 -41.76 
L 163.219554 -41.76 
L 164.814751 -41.76 
L 166.409949 -41.76 
L 168.005146 -41.76 
L 169.600343 -41.76 
L 171.19554 -41.76 
L 172.790738 -41.76 
L 174.385935 -41.76 
L 175.981132 -41.76 
L 177.576329 -41.76 
L 179.171527 -41.76 
L 180.766724 -41.76 
L 182.361921 -41.76 
L 183.957118 -41.76 
L 185.552316 -41.76 
L 187.147513 -41.76 
L 188.74271 -41.76 
L 190.337907 -41.76 
L 191.933105 -41.76 
L 193.528302 -41.76 
L 195.123499 -41.76 
L 196.718696 -41.76 
L 198.313894 -41.76 
L 199.909091 -41.76 
L 201.504288 -41.76 
L 203.099485 -41.76 
L 204.694683 -41.76 
L 206.28988 -41.76 
L 207.885077 -41.76 
L 209.480274 -41.76 
L 211.075472 -41.76 
L 212.670669 -41.76 
L 214.265866 -41.76 
L 215.861063 -41.76 
L 217.456261 -41.76 
L 219.051458 -41.76 
L 220.646655 -41.76 
L 222.241852 -41.76 
L 223.83705 -41.76 
L 225.432247 -41.76 
L 227.027444 -41.76 
L 228.622642 -41.76 
L 230.217839 -41.76 
L 231.813036 -41.76 
L 233.408233 -41.76 
L 235.003431 -41.76 
L 236.598628 -41.76 
L 238.193825 -41.76 
L 239.789022 -41.76 
L 241.38422 -41.76 
L 242.979417 -41.76 
L 244.574614 -41.76 
L 246.169811 -41.76 
L 247.765009 -41.76 
L 249.360206 -41.76 
L 250.955403 -41.76 
L 252.5506 -41.76 
L 254.145798 -41.76 
L 255.740995 -41.76 
L 257.336192 -41.76 
L 258.931389 -41.76 
L 260.526587 -41.76 
L 262.121784 -41.76 
L 263.716981 -41.76 
L 265.312178 -41.76 
L 266.907376 -41.76 
L 268.502573 -41.76 
L 270.09777 -41.76 
L 271.692967 -41.76 
L 273.288165 -41.76 
L 274.883362 -41.76 
L 276.478559 -41.76 
L 278.073756 -41.76 
L 279.668954 -41.76 
L 281.264151 -41.76 
L 282.859348 -41.76 
L 284.454545 -41.76 
L 286.049743 -41.76 
L 287.64494 -41.76 
L 289.240137 -41.76 
L 290.835334 -41.76 
L 292.430532 -41.76 
L 294.025729 -41.76 
L 295.620926 -41.76 
L 297.216123 -41.76 
L 298.811321 -41.76 
L 300.406518 -41.76 
L 302.001715 -41.76 
L 303.596913 -41.76 
L 305.19211 -41.76 
L 306.787307 -41.76 
L 308.382504 -41.76 
L 309.977702 -41.76 
L 311.572899 -41.76 
L 313.168096 -41.76 
L 314.763293 -41.76 
L 316.358491 -41.76 
L 317.953688 -41.76 
L 319.548885 -41.76 
L 321.144082 -41.76 
L 322.73928 -41.76 
L 324.334477 -41.76 
L 325.929674 -41.76 
L 327.524871 -41.76 
L 329.120069 -41.76 
L 330.715266 -41.76 
L 332.310463 -41.76 
L 333.90566 -41.76 
L 335.500858 -41.76 
L 337.096055 -41.76 
L 338.691252 -41.76 
L 340.286449 -41.76 
L 341.881647 -41.76 
L 343.476844 -41.76 
L 345.072041 -41.76 
L 346.667238 -41.76 
L 348.262436 -41.76 
L 349.857633 -41.76 
L 351.45283 -41.76 
L 353.048027 -41.76 
L 354.643225 -41.76 
L 356.238422 -41.76 
L 357.833619 -41.76 
L 359.428816 -41.76 
L 361.024014 -41.76 
L 362.619211 -41.76 
L 364.214408 -41.76 
L 365.809605 -41.76 
L 367.404803 -41.76 
L 369 -41.76 
L 370.595197 -41.76 
L 372.190395 -41.76 
L 373.785592 -41.76 
L 375.380789 -41.76 
L 376.975986 -41.76 
L 378.571184 -41.76 
L 380.166381 -41.76 
L 381.761578 -41.76 
L 383.356775 -41.76 
L 384.951973 -41.76 
L 386.54717 -41.76 
L 388.142367 -41.76 
L 389.737564 -41.76 
L 391.332762 -41.76 
L 392.927959 -41.76 
L 394.523156 -41.76 
L 396.118353 -41.76 
L 397.713551 -41.76 
L 399.308748 -41.76 
L 400.903945 -41.76 
L 402.499142 -41.76 
L 404.09434 -41.76 
L 405.689537 -41.76 
L 407.284734 -41.76 
L 408.879931 -41.76 
L 410.475129 -41.76 
L 412.070326 -41.76 
L 413.665523 -41.76 
L 415.26072 -41.76 
L 416.855918 -41.76 
L 418.451115 -41.76 
L 420.046312 -41.76 
L 421.641509 -41.76 
L 423.236707 -41.76 
L 424.831904 -41.76 
L 426.427101 -41.76 
L 428.022298 -41.76 
L 429.617496 -41.76 
L 431.212693 -41.76 
L 432.80789 -41.76 
L 434.403087 -41.76 
L 435.998285 -41.76 
L 437.593482 -41.76 
L 439.188679 -41.76 
L 440.783877 -41.76 
L 442.379074 -41.76 
L 443.974271 -41.76 
L 445.569468 -41.76 
L 447.164666 -41.76 
L 448.759863 -41.76 
L 450.35506 -41.76 
L 451.950257 -41.76 
L 453.545455 -41.76 
L 455.140652 -41.76 
L 456.735849 -41.76 
L 458.331046 -41.76 
L 459.926244 -41.76 
L 461.521441 -41.76 
L 463.116638 -41.76 
L 464.711835 -41.76 
L 466.307033 -41.76 
L 467.90223 -41.76 
L 469.497427 -41.76 
L 471.092624 -41.76 
L 472.687822 -41.76 
L 474.283019 -41.76 
L 475.878216 -41.76 
L 477.473413 -41.76 
L 479.068611 -41.76 
L 480.663808 -41.76 
L 482.259005 -41.76 
L 483.854202 -41.76 
L 485.4494 -41.76 
L 487.044597 -41.76 
L 488.639794 -41.76 
L 490.234991 -41.76 
L 491.830189 -41.76 
L 493.425386 -41.76 
L 495.020583 -41.76 
L 496.61578 -41.76 
L 498.210978 -41.76 
L 499.806175 -41.76 
L 501.401372 -41.76 
L 502.996569 -41.76 
L 504.591767 -41.76 
L 506.186964 -41.76 
L 507.782161 -41.76 
L 509.377358 -41.76 
L 510.972556 -41.76 
L 512.567753 -41.76 
L 514.16295 -41.76 
L 515.758148 -41.76 
L 517.353345 -41.76 
L 518.948542 -41.76 
L 520.543739 -41.76 
L 522.138937 -41.76 
L 523.734134 -41.76 
L 525.329331 -41.76 
L 526.924528 -41.76 
L 528.519726 -41.76 
L 530.114923 -41.76 
L 531.71012 -41.76 
L 533.305317 -41.76 
L 534.900515 -41.76 
L 536.495712 -41.76 
L 538.090909 -41.76 
L 539.686106 -41.76 
L 541.281304 -41.76 
L 542.876501 -41.76 
L 544.471698 -41.76 
L 546.066895 -41.76 
L 547.662093 -41.76 
L 549.25729 -41.76 
L 550.852487 -41.76 
L 552.447684 -41.76 
L 554.042882 -41.76 
L 555.638079 -41.76 
L 557.233276 -41.76 
L 558.828473 -41.76 
L 560.423671 -41.76 
L 562.018868 -41.76 
L 563.614065 -41.76 
L 565.209262 -41.76 
L 566.80446 -41.76 
L 568.399657 -41.76 
L 569.994854 -41.76 
L 571.590051 -41.76 
L 573.185249 -41.76 
L 574.780446 -41.76 
L 576.375643 -41.76 
L 577.97084 -41.76 
L 579.566038 -41.76 
L 581.161235 -41.76 
L 582.756432 -41.76 
L 584.35163 -41.76 
L 585.946827 -41.76 
L 587.542024 -41.76 
L 589.137221 -41.76 
L 590.732419 -41.76 
L 592.327616 -41.76 
L 593.922813 -41.76 
L 595.51801 -41.76 
L 597.113208 -41.76 
L 598.708405 -41.76 
L 600.303602 -41.76 
L 601.898799 -41.76 
L 603.493997 -41.76 
L 605.089194 -41.76 
L 606.684391 -41.76 
L 608.279588 -41.76 
L 609.874786 -41.76 
L 611.469983 -41.76 
L 613.06518 -41.76 
L 614.660377 -41.76 
L 616.255575 -41.76 
L 617.850772 -41.76 
L 619.445969 -41.76 
L 621.041166 -41.76 
L 622.636364 -41.76 
L 622.636364 -41.76 
L 622.636364 -41.76 
L 621.041166 -41.76 
L 619.445969 -41.76 
L 617.850772 -41.76 
L 616.255575 -41.76 
L 614.660377 -41.76 
L 613.06518 -72.433171 
L 611.469983 -41.76 
L 609.874786 -41.76 
L 608.279588 -41.76 
L 606.684391 -41.76 
L 605.089194 -42.127944 
L 603.493997 -41.76 
L 601.898799 -41.76 
L 600.303602 -41.76 
L 598.708405 -41.76 
L 597.113208 -50.490314 
L 595.51801 -41.76 
L 593.922813 -41.76 
L 592.327616 -52.898676 
L 590.732419 -41.76 
L 589.137221 -41.76 
L 587.542024 -41.76 
L 585.946827 -41.76 
L 584.35163 -76.94885 
L 582.756432 -41.76 
L 581.161235 -41.76 
L 579.566038 -41.76 
L 577.97084 -41.76 
L 576.375643 -41.76 
L 574.780446 -65.776725 
L 573.185249 -56.812265 
L 571.590051 -41.76 
L 569.994854 -41.76 
L 568.399657 -41.76 
L 566.80446 -41.76 
L 565.209262 -60.759303 
L 563.614065 -41.76 
L 562.018868 -41.76 
L 560.423671 -41.76 
L 558.828473 -41.76 
L 557.233276 -48.1823 
L 555.638079 -41.76 
L 554.042882 -55.340488 
L 552.447684 -54.939094 
L 550.852487 -54.604599 
L 549.25729 -58.551638 
L 547.662093 -41.76 
L 546.066895 -41.76 
L 544.471698 -41.76 
L 542.876501 -41.76 
L 541.281304 -87.619233 
L 539.686106 -41.76 
L 538.090909 -41.76 
L 536.495712 -41.76 
L 534.900515 -41.76 
L 533.305317 -56.678467 
L 531.71012 -41.76 
L 530.114923 -52.02899 
L 528.519726 -41.76 
L 526.924528 -41.76 
L 525.329331 -60.424808 
L 523.734134 -41.76 
L 522.138937 -41.76 
L 520.543739 -65.375331 
L 518.948542 -41.76 
L 517.353345 -65.44223 
L 515.758148 -41.76 
L 514.16295 -41.76 
L 512.567753 -66.646411 
L 510.972556 -41.76 
L 509.377358 -93.874286 
L 507.782161 -41.76 
L 506.186964 -41.76 
L 504.591767 -41.76 
L 502.996569 -41.76 
L 501.401372 -41.76 
L 499.806175 -68.720279 
L 498.210978 -41.76 
L 496.61578 -41.76 
L 495.020583 -50.155819 
L 493.425386 -41.76 
L 491.830189 -41.76 
L 490.234991 -41.76 
L 488.639794 -41.76 
L 487.044597 -49.787875 
L 485.4494 -41.76 
L 483.854202 -41.76 
L 482.259005 -41.76 
L 480.663808 -41.76 
L 479.068611 -42.596237 
L 477.473413 -41.76 
L 475.878216 -41.76 
L 474.283019 -41.76 
L 472.687822 -41.76 
L 471.092624 -41.76 
L 469.497427 -54.805296 
L 467.90223 -47.948153 
L 466.307033 -41.76 
L 464.711835 -41.76 
L 463.116638 -41.76 
L 461.521441 -41.76 
L 459.926244 -41.76 
L 458.331046 -48.249199 
L 456.735849 -41.76 
L 455.140652 -41.76 
L 453.545455 -41.76 
L 451.950257 -52.697979 
L 450.35506 -41.76 
L 448.759863 -41.76 
L 447.164666 -41.76 
L 445.569468 -41.76 
L 443.974271 -50.356516 
L 442.379074 -41.76 
L 440.783877 -41.76 
L 439.188679 -44.603206 
L 437.593482 -41.76 
L 435.998285 -41.76 
L 434.403087 -54.905645 
L 432.80789 -41.76 
L 431.212693 -41.76 
L 429.617496 -53.467317 
L 428.022298 -41.76 
L 426.427101 -48.1823 
L 424.831904 -49.520279 
L 423.236707 -48.684042 
L 421.641509 -55.072892 
L 420.046312 -41.76 
L 418.451115 -41.76 
L 416.855918 -41.76 
L 415.26072 -41.76 
L 413.665523 -48.516794 
L 412.070326 -41.76 
L 410.475129 -50.356516 
L 408.879931 -41.76 
L 407.284734 -41.76 
L 405.689537 -41.76 
L 404.09434 -41.76 
L 402.499142 -45.104948 
L 400.903945 -41.76 
L 399.308748 -41.76 
L 397.713551 -47.847805 
L 396.118353 -64.104251 
L 394.523156 -41.76 
L 392.927959 -41.76 
L 391.332762 -41.76 
L 389.737564 -41.76 
L 388.142367 -41.76 
L 386.54717 -64.539094 
L 384.951973 -41.76 
L 383.356775 -41.76 
L 381.761578 -41.76 
L 380.166381 -51.226202 
L 378.571184 -41.76 
L 376.975986 -41.76 
L 375.380789 -45.472892 
L 373.785592 -47.446411 
L 372.190395 -41.76 
L 370.595197 -41.76 
L 369 -41.76 
L 367.404803 -41.76 
L 365.809605 -41.76 
L 364.214408 -47.948153 
L 362.619211 -52.932125 
L 361.024014 -41.76 
L 359.428816 -41.76 
L 357.833619 -41.76 
L 356.238422 -41.76 
L 354.643225 -46.91122 
L 353.048027 -41.76 
L 351.45283 -41.76 
L 349.857633 -65.843624 
L 348.262436 -41.76 
L 346.667238 -47.078467 
L 345.072041 -41.76 
L 343.476844 -41.76 
L 341.881647 -41.76 
L 340.286449 -41.76 
L 338.691252 -46.777422 
L 337.096055 -41.76 
L 335.500858 -41.76 
L 333.90566 -47.948153 
L 332.310463 -41.76 
L 330.715266 -41.76 
L 329.120069 -41.76 
L 327.524871 -41.76 
L 325.929674 -57.347456 
L 324.334477 -41.76 
L 322.73928 -41.76 
L 321.144082 -41.76 
L 319.548885 -41.76 
L 317.953688 -41.76 
L 316.358491 -48.750941 
L 314.763293 -41.76 
L 313.168096 -47.814355 
L 311.572899 -41.76 
L 309.977702 -41.76 
L 308.382504 -53.634564 
L 306.787307 -41.76 
L 305.19211 -55.340488 
L 303.596913 -41.76 
L 302.001715 -41.76 
L 300.406518 -41.76 
L 298.811321 -41.76 
L 297.216123 -57.079861 
L 295.620926 -41.76 
L 294.025729 -41.76 
L 292.430532 -41.76 
L 290.835334 -41.76 
L 289.240137 -66.311916 
L 287.64494 -41.76 
L 286.049743 -41.76 
L 284.454545 -41.76 
L 282.859348 -41.76 
L 281.264151 -47.51331 
L 279.668954 -41.76 
L 278.073756 -41.76 
L 276.478559 -41.76 
L 274.883362 -74.306341 
L 273.288165 -41.76 
L 271.692967 -53.601115 
L 270.09777 -41.76 
L 268.502573 -41.76 
L 266.907376 -41.76 
L 265.312178 -41.76 
L 263.716981 -41.76 
L 262.121784 -44.001115 
L 260.526587 -41.76 
L 258.931389 -48.750941 
L 257.336192 -41.76 
L 255.740995 -41.76 
L 254.145798 -41.76 
L 252.5506 -58.484739 
L 250.955403 -41.76 
L 249.360206 -48.249199 
L 247.765009 -41.76 
L 246.169811 -41.76 
L 244.574614 -41.76 
L 242.979417 -41.76 
L 241.38422 -52.463833 
L 239.789022 -41.76 
L 238.193825 -41.76 
L 236.598628 -41.76 
L 235.003431 -41.76 
L 233.408233 -47.178815 
L 231.813036 -41.76 
L 230.217839 -41.76 
L 228.622642 -41.76 
L 227.027444 -41.76 
L 225.432247 -45.673589 
L 223.83705 -41.76 
L 222.241852 -41.76 
L 220.646655 -41.76 
L 219.051458 -49.921672 
L 217.456261 -41.76 
L 215.861063 -41.76 
L 214.265866 -41.76 
L 212.670669 -48.215749 
L 211.075472 -41.76 
L 209.480274 -41.76 
L 207.885077 -41.76 
L 206.28988 -45.974634 
L 204.694683 -41.76 
L 203.099485 -41.76 
L 201.504288 -41.76 
L 199.909091 -41.76 
L 198.313894 -56.845714 
L 196.718696 -41.76 
L 195.123499 -41.76 
L 193.528302 -41.76 
L 191.933105 -41.76 
L 190.337907 -58.016446 
L 188.74271 -41.76 
L 187.147513 -41.76 
L 185.552316 -59.488223 
L 183.957118 -41.76 
L 182.361921 -41.76 
L 180.766724 -45.104948 
L 179.171527 -41.76 
L 177.576329 -41.76 
L 175.981132 -56.711916 
L 174.385935 -51.794843 
L 172.790738 -41.76 
L 171.19554 -41.76 
L 169.600343 -41.76 
L 168.005146 -41.76 
L 166.409949 -51.694495 
L 164.814751 -43.566272 
L 163.219554 -41.76 
L 161.624357 -41.76 
L 160.02916 -41.76 
L 158.433962 -41.76 
L 156.838765 -47.479861 
L 155.243568 -41.76 
L 153.64837 -41.76 
L 152.053173 -41.76 
L 150.457976 -41.76 
L 148.862779 -50.356516 
L 147.267581 -41.76 
L 145.672384 -41.76 
L 144.077187 -41.76 
L 142.48199 -41.76 
L 140.886792 -44.469408 
L 139.291595 -41.76 
L 137.696398 -41.76 
L 136.101201 -41.76 
L 134.506003 -41.76 
L 132.910806 -50.657561 
L 131.315609 -41.76 
L 129.720412 -41.76 
L 128.125214 -41.76 
L 126.530017 -41.76 
L 124.93482 -42.161394 
L 123.339623 -44.402509 
L 121.744425 -41.76 
L 120.149228 -41.76 
L 118.554031 -41.76 
L 116.958834 -41.76 
L 115.363636 -46.743972 
z
" style="stroke: #ff0000; stroke-width: 0.5"/>
    </defs>
    <g clip-path="url(#p1b12f16232)">
     <use xlink:href="#mc23df928c1" x="0" y="288" style="fill: #ff0000; stroke: #ff0000; stroke-width: 0.5"/>
    </g>
   </g>
   <g id="PolyCollection_2">
    <defs>
     <path id="me4549a0a8a" d="M 115.363636 -47.948153 
L 115.363636 -46.743972 
L 116.958834 -41.76 
L 118.554031 -41.76 
L 120.149228 -41.76 
L 121.744425 -41.76 
L 123.339623 -44.402509 
L 124.93482 -42.161394 
L 126.530017 -41.76 
L 128.125214 -41.76 
L 129.720412 -41.76 
L 131.315609 -41.76 
L 132.910806 -50.657561 
L 134.506003 -41.76 
L 136.101201 -41.76 
L 137.696398 -41.76 
L 139.291595 -41.76 
L 140.886792 -44.469408 
L 142.48199 -41.76 
L 144.077187 -41.76 
L 145.672384 -41.76 
L 147.267581 -41.76 
L 148.862779 -50.356516 
L 150.457976 -41.76 
L 152.053173 -41.76 
L 153.64837 -41.76 
L 155.243568 -41.76 
L 156.838765 -47.479861 
L 158.433962 -41.76 
L 160.02916 -41.76 
L 161.624357 -41.76 
L 163.219554 -41.76 
L 164.814751 -43.566272 
L 166.409949 -51.694495 
L 168.005146 -41.76 
L 169.600343 -41.76 
L 171.19554 -41.76 
L 172.790738 -41.76 
L 174.385935 -51.794843 
L 175.981132 -56.711916 
L 177.576329 -41.76 
L 179.171527 -41.76 
L 180.766724 -45.104948 
L 182.361921 -41.76 
L 183.957118 -41.76 
L 185.552316 -59.488223 
L 187.147513 -41.76 
L 188.74271 -41.76 
L 190.337907 -58.016446 
L 191.933105 -41.76 
L 193.528302 -41.76 
L 195.123499 -41.76 
L 196.718696 -41.76 
L 198.313894 -56.845714 
L 199.909091 -41.76 
L 201.504288 -41.76 
L 203.099485 -41.76 
L 204.694683 -41.76 
L 206.28988 -45.974634 
L 207.885077 -41.76 
L 209.480274 -41.76 
L 211.075472 -41.76 
L 212.670669 -48.215749 
L 214.265866 -41.76 
L 215.861063 -41.76 
L 217.456261 -41.76 
L 219.051458 -49.921672 
L 220.646655 -41.76 
L 222.241852 -41.76 
L 223.83705 -41.76 
L 225.432247 -45.673589 
L 227.027444 -41.76 
L 228.622642 -41.76 
L 230.217839 -41.76 
L 231.813036 -41.76 
L 233.408233 -47.178815 
L 235.003431 -41.76 
L 236.598628 -41.76 
L 238.193825 -41.76 
L 239.789022 -41.76 
L 241.38422 -52.463833 
L 242.979417 -41.76 
L 244.574614 -41.76 
L 246.169811 -41.76 
L 247.765009 -41.76 
L 249.360206 -48.249199 
L 250.955403 -41.76 
L 252.5506 -58.484739 
L 254.145798 -41.76 
L 255.740995 -41.76 
L 257.336192 -41.76 
L 258.931389 -48.750941 
L 260.526587 -41.76 
L 262.121784 -44.001115 
L 263.716981 -41.76 
L 265.312178 -41.76 
L 266.907376 -41.76 
L 268.502573 -41.76 
L 270.09777 -41.76 
L 271.692967 -53.601115 
L 273.288165 -41.76 
L 274.883362 -74.306341 
L 276.478559 -41.76 
L 278.073756 -41.76 
L 279.668954 -41.76 
L 281.264151 -47.51331 
L 282.859348 -41.76 
L 284.454545 -41.76 
L 286.049743 -41.76 
L 287.64494 -41.76 
L 289.240137 -66.311916 
L 290.835334 -41.76 
L 292.430532 -41.76 
L 294.025729 -41.76 
L 295.620926 -41.76 
L 297.216123 -57.079861 
L 298.811321 -41.76 
L 300.406518 -41.76 
L 302.001715 -41.76 
L 303.596913 -41.76 
L 305.19211 -55.340488 
L 306.787307 -41.76 
L 308.382504 -53.634564 
L 309.977702 -41.76 
L 311.572899 -41.76 
L 313.168096 -47.814355 
L 314.763293 -41.76 
L 316.358491 -48.750941 
L 317.953688 -41.76 
L 319.548885 -41.76 
L 321.144082 -41.76 
L 322.73928 -41.76 
L 324.334477 -41.76 
L 325.929674 -57.347456 
L 327.524871 -41.76 
L 329.120069 -41.76 
L 330.715266 -41.76 
L 332.310463 -41.76 
L 333.90566 -47.948153 
L 335.500858 -41.76 
L 337.096055 -41.76 
L 338.691252 -46.777422 
L 340.286449 -41.76 
L 341.881647 -41.76 
L 343.476844 -41.76 
L 345.072041 -41.76 
L 346.667238 -47.078467 
L 348.262436 -41.76 
L 349.857633 -65.843624 
L 351.45283 -41.76 
L 353.048027 -41.76 
L 354.643225 -46.91122 
L 356.238422 -41.76 
L 357.833619 -41.76 
L 359.428816 -41.76 
L 361.024014 -41.76 
L 362.619211 -52.932125 
L 364.214408 -47.948153 
L 365.809605 -41.76 
L 367.404803 -41.76 
L 369 -41.76 
L 370.595197 -41.76 
L 372.190395 -41.76 
L 373.785592 -47.446411 
L 375.380789 -45.472892 
L 376.975986 -41.76 
L 378.571184 -41.76 
L 380.166381 -51.226202 
L 381.761578 -41.76 
L 383.356775 -41.76 
L 384.951973 -41.76 
L 386.54717 -64.539094 
L 388.142367 -41.76 
L 389.737564 -41.76 
L 391.332762 -41.76 
L 392.927959 -41.76 
L 394.523156 -41.76 
L 396.118353 -64.104251 
L 397.713551 -47.847805 
L 399.308748 -41.76 
L 400.903945 -41.76 
L 402.499142 -45.104948 
L 404.09434 -41.76 
L 405.689537 -41.76 
L 407.284734 -41.76 
L 408.879931 -41.76 
L 410.475129 -50.356516 
L 412.070326 -41.76 
L 413.665523 -48.516794 
L 415.26072 -41.76 
L 416.855918 -41.76 
L 418.451115 -41.76 
L 420.046312 -41.76 
L 421.641509 -55.072892 
L 423.236707 -48.684042 
L 424.831904 -49.520279 
L 426.427101 -48.1823 
L 428.022298 -41.76 
L 429.617496 -53.467317 
L 431.212693 -41.76 
L 432.80789 -41.76 
L 434.403087 -54.905645 
L 435.998285 -41.76 
L 437.593482 -41.76 
L 439.188679 -44.603206 
L 440.783877 -41.76 
L 442.379074 -41.76 
L 443.974271 -50.356516 
L 445.569468 -41.76 
L 447.164666 -41.76 
L 448.759863 -41.76 
L 450.35506 -41.76 
L 451.950257 -52.697979 
L 453.545455 -41.76 
L 455.140652 -41.76 
L 456.735849 -41.76 
L 458.331046 -48.249199 
L 459.926244 -41.76 
L 461.521441 -41.76 
L 463.116638 -41.76 
L 464.711835 -41.76 
L 466.307033 -41.76 
L 467.90223 -47.948153 
L 469.497427 -54.805296 
L 471.092624 -41.76 
L 472.687822 -41.76 
L 474.283019 -41.76 
L 475.878216 -41.76 
L 477.473413 -41.76 
L 479.068611 -42.596237 
L 480.663808 -41.76 
L 482.259005 -41.76 
L 483.854202 -41.76 
L 485.4494 -41.76 
L 487.044597 -49.787875 
L 488.639794 -41.76 
L 490.234991 -41.76 
L 491.830189 -41.76 
L 493.425386 -41.76 
L 495.020583 -50.155819 
L 496.61578 -41.76 
L 498.210978 -41.76 
L 499.806175 -68.720279 
L 501.401372 -41.76 
L 502.996569 -41.76 
L 504.591767 -41.76 
L 506.186964 -41.76 
L 507.782161 -41.76 
L 509.377358 -93.874286 
L 510.972556 -41.76 
L 512.567753 -66.646411 
L 514.16295 -41.76 
L 515.758148 -41.76 
L 517.353345 -65.44223 
L 518.948542 -41.76 
L 520.543739 -65.375331 
L 522.138937 -41.76 
L 523.734134 -41.76 
L 525.329331 -60.424808 
L 526.924528 -41.76 
L 528.519726 -41.76 
L 530.114923 -52.02899 
L 531.71012 -41.76 
L 533.305317 -56.678467 
L 534.900515 -41.76 
L 536.495712 -41.76 
L 538.090909 -41.76 
L 539.686106 -41.76 
L 541.281304 -87.619233 
L 542.876501 -41.76 
L 544.471698 -41.76 
L 546.066895 -41.76 
L 547.662093 -41.76 
L 549.25729 -58.551638 
L 550.852487 -54.604599 
L 552.447684 -54.939094 
L 554.042882 -55.340488 
L 555.638079 -41.76 
L 557.233276 -48.1823 
L 558.828473 -41.76 
L 560.423671 -41.76 
L 562.018868 -41.76 
L 563.614065 -41.76 
L 565.209262 -60.759303 
L 566.80446 -41.76 
L 568.399657 -41.76 
L 569.994854 -41.76 
L 571.590051 -41.76 
L 573.185249 -56.812265 
L 574.780446 -65.776725 
L 576.375643 -41.76 
L 577.97084 -41.76 
L 579.566038 -41.76 
L 581.161235 -41.76 
L 582.756432 -41.76 
L 584.35163 -76.94885 
L 585.946827 -41.76 
L 587.542024 -41.76 
L 589.137221 -41.76 
L 590.732419 -41.76 
L 592.327616 -52.898676 
L 593.922813 -41.76 
L 595.51801 -41.76 
L 597.113208 -50.490314 
L 598.708405 -41.76 
L 600.303602 -41.76 
L 601.898799 -41.76 
L 603.493997 -41.76 
L 605.089194 -42.127944 
L 606.684391 -41.76 
L 608.279588 -41.76 
L 609.874786 -41.76 
L 611.469983 -41.76 
L 613.06518 -72.433171 
L 614.660377 -41.76 
L 616.255575 -41.76 
L 617.850772 -41.76 
L 619.445969 -41.76 
L 621.041166 -41.76 
L 622.636364 -41.76 
L 622.636364 -41.793449 
L 622.636364 -41.793449 
L 621.041166 -43.532822 
L 619.445969 -43.432474 
L 617.850772 -43.399024 
L 616.255575 -43.465923 
L 614.660377 -43.599721 
L 613.06518 -74.139094 
L 611.469983 -44.168362 
L 609.874786 -43.766969 
L 608.279588 -43.164878 
L 606.684391 -43.766969 
L 605.089194 -44.235261 
L 603.493997 -47.011568 
L 601.898799 -56.845714 
L 600.303602 -51.326551 
L 598.708405 -50.222718 
L 597.113208 -59.187178 
L 595.51801 -46.442927 
L 593.922813 -48.449895 
L 592.327616 -58.484739 
L 590.732419 -48.015052 
L 589.137221 -51.627596 
L 587.542024 -51.928641 
L 585.946827 -47.714007 
L 584.35163 -84.474983 
L 582.756432 -56.711916 
L 581.161235 -56.042927 
L 579.566038 -56.611568 
L 577.97084 -56.51122 
L 576.375643 -54.671498 
L 574.780446 -89.09101 
L 573.185249 -84.508432 
L 571.590051 -66.07777 
L 569.994854 -81.364181 
L 568.399657 -86.54885 
L 566.80446 -79.123066 
L 565.209262 -99.627596 
L 563.614065 -59.856167 
L 562.018868 -58.718885 
L 560.423671 -62.030383 
L 558.828473 -44.670105 
L 557.233276 -53.400418 
L 555.638079 -50.824808 
L 554.042882 -65.743275 
L 552.447684 -59.789268 
L 550.852487 -57.916098 
L 549.25729 -75.309826 
L 547.662093 -61.796237 
L 546.066895 -62.431777 
L 544.471698 -56.745366 
L 542.876501 -55.674983 
L 541.281304 -99.794843 
L 539.686106 -52.263136 
L 538.090909 -56.879164 
L 536.495712 -64.104251 
L 534.900515 -57.715401 
L 533.305317 -68.318885 
L 531.71012 -43.633171 
L 530.114923 -57.14676 
L 528.519726 -55.072892 
L 526.924528 -56.277073 
L 525.329331 -78.755122 
L 523.734134 -71.028293 
L 522.138937 -81.631777 
L 520.543739 -90.061045 
L 518.948542 -71.362787 
L 517.353345 -86.415052 
L 515.758148 -77.61784 
L 514.16295 -94.978118 
L 512.567753 -119.897979 
L 510.972556 -94.008084 
L 509.377358 -136.923763 
L 507.782161 -82.367666 
L 506.186964 -76.815052 
L 504.591767 -80.293798 
L 502.996569 -69.088223 
L 501.401372 -65.007387 
L 499.806175 -75.744669 
L 498.210978 -48.884739 
L 496.61578 -45.807387 
L 495.020583 -55.440836 
L 493.425386 -46.91122 
L 491.830189 -43.766969 
L 490.234991 -45.840836 
L 488.639794 -48.015052 
L 487.044597 -64.371847 
L 485.4494 -49.286132 
L 483.854202 -45.405993 
L 482.259005 -43.03108 
L 480.663808 -43.733519 
L 479.068611 -43.900767 
L 477.473413 -49.787875 
L 475.878216 -62.23108 
L 474.283019 -54.872195 
L 472.687822 -53.099373 
L 471.092624 -48.951638 
L 469.497427 -57.280557 
L 467.90223 -50.389965 
L 466.307033 -44.268711 
L 464.711835 -44.703554 
L 463.116638 -44.670105 
L 461.521441 -43.934216 
L 459.926244 -43.833868 
L 458.331046 -49.553728 
L 456.735849 -43.131429 
L 455.140652 -43.800418 
L 453.545455 -45.339094 
L 451.950257 -54.771847 
L 450.35506 -43.465923 
L 448.759863 -43.265226 
L 447.164666 -43.465923 
L 445.569468 -43.399024 
L 443.974271 -52.062439 
L 442.379074 -44.469408 
L 440.783877 -44.402509 
L 439.188679 -47.245714 
L 437.593482 -43.265226 
L 435.998285 -43.332125 
L 434.403087 -56.277073 
L 432.80789 -43.198328 
L 431.212693 -44.068014 
L 429.617496 -55.474286 
L 428.022298 -47.54676 
L 426.427101 -56.845714 
L 424.831904 -55.976028 
L 423.236707 -52.564181 
L 421.641509 -58.350941 
L 420.046312 -49.620627 
L 418.451115 -45.171847 
L 416.855918 -44.536307 
L 415.26072 -44.904251 
L 413.665523 -53.065923 
L 412.070326 -43.465923 
L 410.475129 -55.608084 
L 408.879931 -46.777422 
L 407.284734 -48.483345 
L 405.689537 -49.620627 
L 404.09434 -44.97115 
L 402.499142 -46.576725 
L 400.903945 -43.06453 
L 399.308748 -43.097979 
L 397.713551 -49.252683 
L 396.118353 -66.010871 
L 394.523156 -43.332125 
L 392.927959 -43.265226 
L 391.332762 -43.231777 
L 389.737564 -43.265226 
L 388.142367 -43.332125 
L 386.54717 -67.98439 
L 384.951973 -46.91122 
L 383.356775 -50.824808 
L 381.761578 -50.791359 
L 380.166381 -58.886132 
L 378.571184 -48.048502 
L 376.975986 -45.640139 
L 375.380789 -47.881254 
L 373.785592 -49.553728 
L 372.190395 -45.004599 
L 370.595197 -45.272195 
L 369 -45.673589 
L 367.404803 -46.108432 
L 365.809605 -44.670105 
L 364.214408 -49.486829 
L 362.619211 -58.852683 
L 361.024014 -46.543275 
L 359.428816 -43.365575 
L 357.833619 -48.048502 
L 356.238422 -44.201812 
L 354.643225 -48.884739 
L 353.048027 -43.399024 
L 351.45283 -43.399024 
L 349.857633 -67.415749 
L 348.262436 -43.633171 
L 346.667238 -50.323066 
L 345.072041 -45.272195 
L 343.476844 -44.603206 
L 341.881647 -43.499373 
L 340.286449 -45.740488 
L 338.691252 -53.634564 
L 337.096055 -50.356516 
L 335.500858 -49.185784 
L 333.90566 -56.210174 
L 332.310463 -49.955122 
L 330.715266 -55.139791 
L 329.120069 -44.670105 
L 327.524871 -45.272195 
L 325.929674 -60.692404 
L 324.334477 -50.791359 
L 322.73928 -46.543275 
L 321.144082 -50.72446 
L 319.548885 -49.787875 
L 317.953688 -44.101463 
L 316.358491 -50.08892 
L 314.763293 -43.06453 
L 313.168096 -49.152334 
L 311.572899 -43.265226 
L 309.977702 -43.198328 
L 308.382504 -56.377422 
L 306.787307 -53.400418 
L 305.19211 -61.495192 
L 303.596913 -46.677073 
L 302.001715 -44.235261 
L 300.406518 -43.465923 
L 298.811321 -43.399024 
L 297.216123 -60.792753 
L 295.620926 -45.907735 
L 294.025729 -47.111916 
L 292.430532 -47.346063 
L 290.835334 -44.803902 
L 289.240137 -68.352334 
L 287.64494 -45.038049 
L 286.049743 -49.118885 
L 284.454545 -48.382997 
L 282.859348 -44.435958 
L 281.264151 -49.018537 
L 279.668954 -43.800418 
L 278.073756 -43.766969 
L 276.478559 -43.532822 
L 274.883362 -76.279861 
L 273.288165 -44.001115 
L 271.692967 -55.775331 
L 270.09777 -43.733519 
L 268.502573 -44.134913 
L 266.907376 -44.770453 
L 265.312178 -45.305645 
L 263.716981 -45.038049 
L 262.121784 -52.396934 
L 260.526587 -44.737003 
L 258.931389 -51.159303 
L 257.336192 -44.33561 
L 255.740995 -44.034564 
L 254.145798 -44.101463 
L 252.5506 -60.525157 
L 250.955403 -43.332125 
L 249.360206 -49.754425 
L 247.765009 -43.298676 
L 246.169811 -43.265226 
L 244.574614 -43.532822 
L 242.979417 -45.640139 
L 241.38422 -54.403902 
L 239.789022 -44.101463 
L 238.193825 -43.465923 
L 236.598628 -43.164878 
L 235.003431 -43.198328 
L 233.408233 -48.717491 
L 231.813036 -43.231777 
L 230.217839 -43.198328 
L 228.622642 -43.164878 
L 227.027444 -43.298676 
L 225.432247 -50.557213 
L 223.83705 -44.870801 
L 222.241852 -44.837352 
L 220.646655 -44.536307 
L 219.051458 -51.393449 
L 217.456261 -43.432474 
L 215.861063 -45.004599 
L 214.265866 -45.372544 
L 212.670669 -51.058955 
L 211.075472 -44.369059 
L 209.480274 -44.369059 
L 207.885077 -44.235261 
L 206.28988 -48.416446 
L 204.694683 -44.737003 
L 203.099485 -44.502857 
L 201.504288 -44.369059 
L 199.909091 -44.435958 
L 198.313894 -58.752334 
L 196.718696 -43.800418 
L 195.123499 -43.532822 
L 193.528302 -43.66662 
L 191.933105 -43.833868 
L 190.337907 -59.722369 
L 188.74271 -43.365575 
L 187.147513 -43.399024 
L 185.552316 -60.792753 
L 183.957118 -43.06453 
L 182.361921 -43.164878 
L 180.766724 -46.476376 
L 179.171527 -43.399024 
L 177.576329 -43.499373 
L 175.981132 -58.083345 
L 174.385935 -53.233171 
L 172.790738 -43.432474 
L 171.19554 -43.66662 
L 169.600343 -43.967666 
L 168.005146 -44.101463 
L 166.409949 -53.500767 
L 164.814751 -45.104948 
L 163.219554 -44.134913 
L 161.624357 -46.074983 
L 160.02916 -49.085436 
L 158.433962 -51.527247 
L 156.838765 -50.657561 
L 155.243568 -48.249199 
L 153.64837 -61.963484 
L 152.053173 -56.310523 
L 150.457976 -56.544669 
L 148.862779 -66.646411 
L 147.267581 -45.941185 
L 145.672384 -45.138397 
L 144.077187 -44.569756 
L 142.48199 -44.33561 
L 140.886792 -47.479861 
L 139.291595 -45.57324 
L 137.696398 -45.539791 
L 136.101201 -45.004599 
L 134.506003 -44.435958 
L 132.910806 -55.17324 
L 131.315609 -46.677073 
L 129.720412 -46.978118 
L 128.125214 -47.279164 
L 126.530017 -49.319582 
L 124.93482 -45.138397 
L 123.339623 -46.376028 
L 121.744425 -43.231777 
L 120.149228 -43.03108 
L 118.554031 -42.897282 
L 116.958834 -42.964181 
L 115.363636 -47.948153 
z
" style="stroke: #0000ff; stroke-width: 0.5"/>
    </defs>
    <g clip-path="url(#p1b12f16232)">
     <use xlink:href="#me4549a0a8a" x="0" y="288" style="fill: #0000ff; stroke: #0000ff; stroke-width: 0.5"/>
    </g>
   </g>
   <g id="PolyCollection_3">
    <defs>
     <path id="m794164c1e7" d="M 115.363636 -48.483345 
L 115.363636 -47.948153 
L 116.958834 -42.964181 
L 118.554031 -42.897282 
L 120.149228 -43.03108 
L 121.744425 -43.231777 
L 123.339623 -46.376028 
L 124.93482 -45.138397 
L 126.530017 -49.319582 
L 128.125214 -47.279164 
L 129.720412 -46.978118 
L 131.315609 -46.677073 
L 132.910806 -55.17324 
L 134.506003 -44.435958 
L 136.101201 -45.004599 
L 137.696398 -45.539791 
L 139.291595 -45.57324 
L 140.886792 -47.479861 
L 142.48199 -44.33561 
L 144.077187 -44.569756 
L 145.672384 -45.138397 
L 147.267581 -45.941185 
L 148.862779 -66.646411 
L 150.457976 -56.544669 
L 152.053173 -56.310523 
L 153.64837 -61.963484 
L 155.243568 -48.249199 
L 156.838765 -50.657561 
L 158.433962 -51.527247 
L 160.02916 -49.085436 
L 161.624357 -46.074983 
L 163.219554 -44.134913 
L 164.814751 -45.104948 
L 166.409949 -53.500767 
L 168.005146 -44.101463 
L 169.600343 -43.967666 
L 171.19554 -43.66662 
L 172.790738 -43.432474 
L 174.385935 -53.233171 
L 175.981132 -58.083345 
L 177.576329 -43.499373 
L 179.171527 -43.399024 
L 180.766724 -46.476376 
L 182.361921 -43.164878 
L 183.957118 -43.06453 
L 185.552316 -60.792753 
L 187.147513 -43.399024 
L 188.74271 -43.365575 
L 190.337907 -59.722369 
L 191.933105 -43.833868 
L 193.528302 -43.66662 
L 195.123499 -43.532822 
L 196.718696 -43.800418 
L 198.313894 -58.752334 
L 199.909091 -44.435958 
L 201.504288 -44.369059 
L 203.099485 -44.502857 
L 204.694683 -44.737003 
L 206.28988 -48.416446 
L 207.885077 -44.235261 
L 209.480274 -44.369059 
L 211.075472 -44.369059 
L 212.670669 -51.058955 
L 214.265866 -45.372544 
L 215.861063 -45.004599 
L 217.456261 -43.432474 
L 219.051458 -51.393449 
L 220.646655 -44.536307 
L 222.241852 -44.837352 
L 223.83705 -44.870801 
L 225.432247 -50.557213 
L 227.027444 -43.298676 
L 228.622642 -43.164878 
L 230.217839 -43.198328 
L 231.813036 -43.231777 
L 233.408233 -48.717491 
L 235.003431 -43.198328 
L 236.598628 -43.164878 
L 238.193825 -43.465923 
L 239.789022 -44.101463 
L 241.38422 -54.403902 
L 242.979417 -45.640139 
L 244.574614 -43.532822 
L 246.169811 -43.265226 
L 247.765009 -43.298676 
L 249.360206 -49.754425 
L 250.955403 -43.332125 
L 252.5506 -60.525157 
L 254.145798 -44.101463 
L 255.740995 -44.034564 
L 257.336192 -44.33561 
L 258.931389 -51.159303 
L 260.526587 -44.737003 
L 262.121784 -52.396934 
L 263.716981 -45.038049 
L 265.312178 -45.305645 
L 266.907376 -44.770453 
L 268.502573 -44.134913 
L 270.09777 -43.733519 
L 271.692967 -55.775331 
L 273.288165 -44.001115 
L 274.883362 -76.279861 
L 276.478559 -43.532822 
L 278.073756 -43.766969 
L 279.668954 -43.800418 
L 281.264151 -49.018537 
L 282.859348 -44.435958 
L 284.454545 -48.382997 
L 286.049743 -49.118885 
L 287.64494 -45.038049 
L 289.240137 -68.352334 
L 290.835334 -44.803902 
L 292.430532 -47.346063 
L 294.025729 -47.111916 
L 295.620926 -45.907735 
L 297.216123 -60.792753 
L 298.811321 -43.399024 
L 300.406518 -43.465923 
L 302.001715 -44.235261 
L 303.596913 -46.677073 
L 305.19211 -61.495192 
L 306.787307 -53.400418 
L 308.382504 -56.377422 
L 309.977702 -43.198328 
L 311.572899 -43.265226 
L 313.168096 -49.152334 
L 314.763293 -43.06453 
L 316.358491 -50.08892 
L 317.953688 -44.101463 
L 319.548885 -49.787875 
L 321.144082 -50.72446 
L 322.73928 -46.543275 
L 324.334477 -50.791359 
L 325.929674 -60.692404 
L 327.524871 -45.272195 
L 329.120069 -44.670105 
L 330.715266 -55.139791 
L 332.310463 -49.955122 
L 333.90566 -56.210174 
L 335.500858 -49.185784 
L 337.096055 -50.356516 
L 338.691252 -53.634564 
L 340.286449 -45.740488 
L 341.881647 -43.499373 
L 343.476844 -44.603206 
L 345.072041 -45.272195 
L 346.667238 -50.323066 
L 348.262436 -43.633171 
L 349.857633 -67.415749 
L 351.45283 -43.399024 
L 353.048027 -43.399024 
L 354.643225 -48.884739 
L 356.238422 -44.201812 
L 357.833619 -48.048502 
L 359.428816 -43.365575 
L 361.024014 -46.543275 
L 362.619211 -58.852683 
L 364.214408 -49.486829 
L 365.809605 -44.670105 
L 367.404803 -46.108432 
L 369 -45.673589 
L 370.595197 -45.272195 
L 372.190395 -45.004599 
L 373.785592 -49.553728 
L 375.380789 -47.881254 
L 376.975986 -45.640139 
L 378.571184 -48.048502 
L 380.166381 -58.886132 
L 381.761578 -50.791359 
L 383.356775 -50.824808 
L 384.951973 -46.91122 
L 386.54717 -67.98439 
L 388.142367 -43.332125 
L 389.737564 -43.265226 
L 391.332762 -43.231777 
L 392.927959 -43.265226 
L 394.523156 -43.332125 
L 396.118353 -66.010871 
L 397.713551 -49.252683 
L 399.308748 -43.097979 
L 400.903945 -43.06453 
L 402.499142 -46.576725 
L 404.09434 -44.97115 
L 405.689537 -49.620627 
L 407.284734 -48.483345 
L 408.879931 -46.777422 
L 410.475129 -55.608084 
L 412.070326 -43.465923 
L 413.665523 -53.065923 
L 415.26072 -44.904251 
L 416.855918 -44.536307 
L 418.451115 -45.171847 
L 420.046312 -49.620627 
L 421.641509 -58.350941 
L 423.236707 -52.564181 
L 424.831904 -55.976028 
L 426.427101 -56.845714 
L 428.022298 -47.54676 
L 429.617496 -55.474286 
L 431.212693 -44.068014 
L 432.80789 -43.198328 
L 434.403087 -56.277073 
L 435.998285 -43.332125 
L 437.593482 -43.265226 
L 439.188679 -47.245714 
L 440.783877 -44.402509 
L 442.379074 -44.469408 
L 443.974271 -52.062439 
L 445.569468 -43.399024 
L 447.164666 -43.465923 
L 448.759863 -43.265226 
L 450.35506 -43.465923 
L 451.950257 -54.771847 
L 453.545455 -45.339094 
L 455.140652 -43.800418 
L 456.735849 -43.131429 
L 458.331046 -49.553728 
L 459.926244 -43.833868 
L 461.521441 -43.934216 
L 463.116638 -44.670105 
L 464.711835 -44.703554 
L 466.307033 -44.268711 
L 467.90223 -50.389965 
L 469.497427 -57.280557 
L 471.092624 -48.951638 
L 472.687822 -53.099373 
L 474.283019 -54.872195 
L 475.878216 -62.23108 
L 477.473413 -49.787875 
L 479.068611 -43.900767 
L 480.663808 -43.733519 
L 482.259005 -43.03108 
L 483.854202 -45.405993 
L 485.4494 -49.286132 
L 487.044597 -64.371847 
L 488.639794 -48.015052 
L 490.234991 -45.840836 
L 491.830189 -43.766969 
L 493.425386 -46.91122 
L 495.020583 -55.440836 
L 496.61578 -45.807387 
L 498.210978 -48.884739 
L 499.806175 -75.744669 
L 501.401372 -65.007387 
L 502.996569 -69.088223 
L 504.591767 -80.293798 
L 506.186964 -76.815052 
L 507.782161 -82.367666 
L 509.377358 -136.923763 
L 510.972556 -94.008084 
L 512.567753 -119.897979 
L 514.16295 -94.978118 
L 515.758148 -77.61784 
L 517.353345 -86.415052 
L 518.948542 -71.362787 
L 520.543739 -90.061045 
L 522.138937 -81.631777 
L 523.734134 -71.028293 
L 525.329331 -78.755122 
L 526.924528 -56.277073 
L 528.519726 -55.072892 
L 530.114923 -57.14676 
L 531.71012 -43.633171 
L 533.305317 -68.318885 
L 534.900515 -57.715401 
L 536.495712 -64.104251 
L 538.090909 -56.879164 
L 539.686106 -52.263136 
L 541.281304 -99.794843 
L 542.876501 -55.674983 
L 544.471698 -56.745366 
L 546.066895 -62.431777 
L 547.662093 -61.796237 
L 549.25729 -75.309826 
L 550.852487 -57.916098 
L 552.447684 -59.789268 
L 554.042882 -65.743275 
L 555.638079 -50.824808 
L 557.233276 -53.400418 
L 558.828473 -44.670105 
L 560.423671 -62.030383 
L 562.018868 -58.718885 
L 563.614065 -59.856167 
L 565.209262 -99.627596 
L 566.80446 -79.123066 
L 568.399657 -86.54885 
L 569.994854 -81.364181 
L 571.590051 -66.07777 
L 573.185249 -84.508432 
L 574.780446 -89.09101 
L 576.375643 -54.671498 
L 577.97084 -56.51122 
L 579.566038 -56.611568 
L 581.161235 -56.042927 
L 582.756432 -56.711916 
L 584.35163 -84.474983 
L 585.946827 -47.714007 
L 587.542024 -51.928641 
L 589.137221 -51.627596 
L 590.732419 -48.015052 
L 592.327616 -58.484739 
L 593.922813 -48.449895 
L 595.51801 -46.442927 
L 597.113208 -59.187178 
L 598.708405 -50.222718 
L 600.303602 -51.326551 
L 601.898799 -56.845714 
L 603.493997 -47.011568 
L 605.089194 -44.235261 
L 606.684391 -43.766969 
L 608.279588 -43.164878 
L 609.874786 -43.766969 
L 611.469983 -44.168362 
L 613.06518 -74.139094 
L 614.660377 -43.599721 
L 616.255575 -43.465923 
L 617.850772 -43.399024 
L 619.445969 -43.432474 
L 621.041166 -43.532822 
L 622.636364 -41.793449 
L 622.636364 -41.826899 
L 622.636364 -41.826899 
L 621.041166 -43.800418 
L 619.445969 -43.800418 
L 617.850772 -43.833868 
L 616.255575 -43.833868 
L 614.660377 -44.034564 
L 613.06518 -74.908432 
L 611.469983 -45.238746 
L 609.874786 -58.116794 
L 608.279588 -46.20878 
L 606.684391 -46.576725 
L 605.089194 -49.118885 
L 603.493997 -67.917491 
L 601.898799 -133.478467 
L 600.303602 -143.178815 
L 598.708405 -120.801115 
L 597.113208 -106.852683 
L 595.51801 -84.140488 
L 593.922813 -99.493798 
L 592.327616 -105.581603 
L 590.732419 -107.588571 
L 589.137221 -120.366272 
L 587.542024 -122.640836 
L 585.946827 -104.544669 
L 584.35163 -129.263833 
L 582.756432 -125.517491 
L 581.161235 -131.070105 
L 579.566038 -143.111916 
L 577.97084 -131.270801 
L 576.375643 -128.82899 
L 574.780446 -185.960697 
L 573.185249 -159.702857 
L 571.590051 -162.512613 
L 569.994854 -181.110523 
L 568.399657 -180.374634 
L 566.80446 -181.812962 
L 565.209262 -192.650592 
L 563.614065 -142.309129 
L 562.018868 -121.804599 
L 560.423671 -119.128641 
L 558.828473 -149.30007 
L 557.233276 -93.773937 
L 555.638079 -62.766272 
L 554.042882 -100.764878 
L 552.447684 -99.661045 
L 550.852487 -92.235261 
L 549.25729 -108.96 
L 547.662093 -106.116794 
L 546.066895 -146.323066 
L 544.471698 -131.137003 
L 542.876501 -102.671498 
L 541.281304 -139.733519 
L 539.686106 -109.896585 
L 538.090909 -124.212962 
L 536.495712 -146.757909 
L 534.900515 -136.522369 
L 533.305317 -131.772544 
L 531.71012 -90.830383 
L 530.114923 -91.499373 
L 528.519726 -113.341882 
L 526.924528 -119.797631 
L 525.329331 -159.53561 
L 523.734134 -192.583693 
L 522.138937 -199.307038 
L 520.543739 -177.564878 
L 518.948542 -190.108432 
L 517.353345 -170.874983 
L 515.758148 -219.71122 
L 514.16295 -218.37324 
L 512.567753 -242.08892 
L 510.972556 -235.532822 
L 509.377358 -243.36 
L 507.782161 -224.461045 
L 506.186964 -229.344669 
L 504.591767 -216.633868 
L 502.996569 -162.579512 
L 501.401372 -181.511916 
L 499.806175 -104.176725 
L 498.210978 -80.728641 
L 496.61578 -112.204599 
L 495.020583 -92.201812 
L 493.425386 -88.355122 
L 491.830189 -75.276376 
L 490.234991 -95.814355 
L 488.639794 -89.659652 
L 487.044597 -93.707038 
L 485.4494 -55.240139 
L 483.854202 -61.026899 
L 482.259005 -54.403902 
L 480.663808 -49.018537 
L 479.068611 -47.914704 
L 477.473413 -82.568362 
L 475.878216 -103.507735 
L 474.283019 -96.951638 
L 472.687822 -85.779512 
L 471.092624 -74.640836 
L 469.497427 -62.632474 
L 467.90223 -56.210174 
L 466.307033 -50.858258 
L 464.711835 -68.051289 
L 463.116638 -59.989965 
L 461.521441 -47.780906 
L 459.926244 -47.680557 
L 458.331046 -49.988571 
L 456.735849 -43.934216 
L 455.140652 -50.423415 
L 453.545455 -51.661045 
L 451.950257 -58.217143 
L 450.35506 -45.405993 
L 448.759863 -44.636655 
L 447.164666 -45.339094 
L 445.569468 -45.57324 
L 443.974271 -53.433868 
L 442.379074 -48.851289 
L 440.783877 -49.252683 
L 439.188679 -51.058955 
L 437.593482 -44.201812 
L 435.998285 -44.369059 
L 434.403087 -57.213659 
L 432.80789 -47.379512 
L 431.212693 -51.527247 
L 429.617496 -64.77324 
L 428.022298 -58.852683 
L 426.427101 -90.629686 
L 424.831904 -82.200418 
L 423.236707 -80.16 
L 421.641509 -66.579512 
L 420.046312 -61.796237 
L 418.451115 -59.956516 
L 416.855918 -48.416446 
L 415.26072 -54.470801 
L 413.665523 -59.755819 
L 412.070326 -47.613659 
L 410.475129 -56.109826 
L 408.879931 -53.801812 
L 407.284734 -67.549547 
L 405.689537 -61.194146 
L 404.09434 -56.444321 
L 402.499142 -47.245714 
L 400.903945 -43.633171 
L 399.308748 -43.599721 
L 397.713551 -49.754425 
L 396.118353 -67.616446 
L 394.523156 -44.068014 
L 392.927959 -43.766969 
L 391.332762 -43.967666 
L 389.737564 -43.833868 
L 388.142367 -43.934216 
L 386.54717 -82.635261 
L 384.951973 -57.380906 
L 383.356775 -74.507038 
L 381.761578 -77.751638 
L 380.166381 -72.366272 
L 378.571184 -65.40878 
L 376.975986 -58.986481 
L 375.380789 -55.440836 
L 373.785592 -59.68892 
L 372.190395 -48.048502 
L 370.595197 -50.456864 
L 369 -50.992056 
L 367.404803 -54.771847 
L 365.809605 -46.610174 
L 364.214408 -50.08892 
L 362.619211 -71.496585 
L 361.024014 -66.378815 
L 359.428816 -44.034564 
L 357.833619 -70.158606 
L 356.238422 -65.241533 
L 354.643225 -52.229686 
L 353.048027 -43.800418 
L 351.45283 -43.900767 
L 349.857633 -69.322369 
L 348.262436 -47.346063 
L 346.667238 -53.567666 
L 345.072041 -52.831777 
L 343.476844 -50.490314 
L 341.881647 -45.907735 
L 340.286449 -55.942578 
L 338.691252 -64.338397 
L 337.096055 -72.098676 
L 335.500858 -67.649895 
L 333.90566 -72.834564 
L 332.310463 -72.065226 
L 330.715266 -74.239443 
L 329.120069 -74.139094 
L 327.524871 -58.183693 
L 325.929674 -69.523066 
L 324.334477 -70.125157 
L 322.73928 -58.819233 
L 321.144082 -92.134913 
L 319.548885 -77.751638 
L 317.953688 -58.919582 
L 316.358491 -50.757909 
L 314.763293 -43.599721 
L 313.168096 -49.720976 
L 311.572899 -44.30216 
L 309.977702 -44.603206 
L 308.382504 -67.549547 
L 306.787307 -73.403206 
L 305.19211 -75.945366 
L 303.596913 -54.504251 
L 302.001715 -46.610174 
L 300.406518 -44.001115 
L 298.811321 -44.268711 
L 297.216123 -67.014355 
L 295.620926 -50.557213 
L 294.025729 -62.23108 
L 292.430532 -57.079861 
L 290.835334 -50.423415 
L 289.240137 -72.132125 
L 287.64494 -56.343972 
L 286.049743 -58.819233 
L 284.454545 -55.507735 
L 282.859348 -49.787875 
L 281.264151 -51.092404 
L 279.668954 -50.958606 
L 278.073756 -55.875679 
L 276.478559 -51.694495 
L 274.883362 -79.323763 
L 273.288165 -48.617143 
L 271.692967 -60.29101 
L 270.09777 -57.982997 
L 268.502573 -47.747456 
L 266.907376 -50.523763 
L 265.312178 -50.022021 
L 263.716981 -64.605993 
L 262.121784 -74.841533 
L 260.526587 -71.663833 
L 258.931389 -76.915401 
L 257.336192 -51.36 
L 255.740995 -53.366969 
L 254.145798 -51.895192 
L 252.5506 -64.271498 
L 250.955403 -44.101463 
L 249.360206 -50.256167 
L 247.765009 -43.967666 
L 246.169811 -44.30216 
L 244.574614 -45.974634 
L 242.979417 -51.393449 
L 241.38422 -55.106341 
L 239.789022 -46.91122 
L 238.193825 -45.506341 
L 236.598628 -43.66662 
L 235.003431 -43.66662 
L 233.408233 -49.252683 
L 231.813036 -44.9377 
L 230.217839 -44.268711 
L 228.622642 -44.034564 
L 227.027444 -44.703554 
L 225.432247 -61.461742 
L 223.83705 -50.456864 
L 222.241852 -50.222718 
L 220.646655 -50.490314 
L 219.051458 -51.895192 
L 217.456261 -44.034564 
L 215.861063 -50.189268 
L 214.265866 -51.694495 
L 212.670669 -57.715401 
L 211.075472 -54.002509 
L 209.480274 -54.604599 
L 207.885077 -54.069408 
L 206.28988 -58.38439 
L 204.694683 -54.504251 
L 203.099485 -54.771847 
L 201.504288 -56.243624 
L 199.909091 -54.57115 
L 198.313894 -61.930035 
L 196.718696 -48.81784 
L 195.123499 -48.985087 
L 193.528302 -47.54676 
L 191.933105 -47.914704 
L 190.337907 -61.863136 
L 188.74271 -44.235261 
L 187.147513 -44.33561 
L 185.552316 -61.294495 
L 183.957118 -43.566272 
L 182.361921 -43.633171 
L 180.766724 -49.185784 
L 179.171527 -48.081951 
L 177.576329 -47.881254 
L 175.981132 -61.060348 
L 174.385935 -53.567666 
L 172.790738 -45.305645 
L 171.19554 -46.275679 
L 169.600343 -46.810871 
L 168.005146 -46.777422 
L 166.409949 -55.17324 
L 164.814751 -45.740488 
L 163.219554 -48.750941 
L 161.624357 -54.470801 
L 160.02916 -60.592056 
L 158.433962 -69.523066 
L 156.838765 -71.663833 
L 155.243568 -94.710523 
L 153.64837 -93.57324 
L 152.053173 -98.925157 
L 150.457976 -93.506341 
L 148.862779 -97.45338 
L 147.267581 -63.401812 
L 145.672384 -57.681951 
L 144.077187 -56.210174 
L 142.48199 -54.972544 
L 140.886792 -56.042927 
L 139.291595 -57.949547 
L 137.696398 -59.889617 
L 136.101201 -56.544669 
L 134.506003 -54.337003 
L 132.910806 -82.534913 
L 131.315609 -77.952334 
L 129.720412 -79.992753 
L 128.125214 -83.504948 
L 126.530017 -82.501463 
L 124.93482 -65.40878 
L 123.339623 -53.366969 
L 121.744425 -43.967666 
L 120.149228 -44.068014 
L 118.554031 -43.900767 
L 116.958834 -43.867317 
L 115.363636 -48.483345 
z
" style="stroke: #008000; stroke-width: 0.5"/>
    </defs>
    <g clip-path="url(#p1b12f16232)">
     <use xlink:href="#m794164c1e7" x="0" y="288" style="fill: #008000; stroke: #008000; stroke-width: 0.5"/>
    </g>
   </g>
   <g id="line2d_26">
    <path d="M 90 44.64 
L 648 44.64 
" clip-path="url(#p1b12f16232)" style="fill: none; stroke: #000000; stroke-width: 1.5; stroke-linecap: square"/>
   </g>
   <g id="line2d_27">
    <path d="M 90 212.188432 
L 648 212.188432 
" clip-path="url(#p1b12f16232)" style="fill: none; stroke: #000000; stroke-width: 1.5; stroke-linecap: square"/>
   </g>
   <g id="patch_3">
    <path d="M 90 256.32 
L 90 34.56 
" style="fill: none; stroke: #000000; stroke-width: 0.8; stroke-linejoin: miter; stroke-linecap: square"/>
   </g>
   <g id="patch_4">
    <path d="M 648 256.32 
L 648 34.56 
" style="fill: none; stroke: #000000; stroke-width: 0.8; stroke-linejoin: miter; stroke-linecap: square"/>
   </g>
   <g id="patch_5">
    <path d="M 90 256.32 
L 648 256.32 
" style="fill: none; stroke: #000000; stroke-width: 0.8; stroke-linejoin: miter; stroke-linecap: square"/>
   </g>
   <g id="patch_6">
    <path d="M 90 34.56 
L 648 34.56 
" style="fill: none; stroke: #000000; stroke-width: 0.8; stroke-linejoin: miter; stroke-linecap: square"/>
   </g>
   <g id="text_21">
    <!-- peak (6,027) -->
    <g transform="translate(122.179233 41.3136) scale(0.1 -0.1)">
     <defs>
      <path id="DejaVuSans-Bold-70" d="M 1656 506 
L 1656 -1331 
L 538 -1331 
L 538 3500 
L 1656 3500 
L 1656 2988 
Q 1888 3294 2169 3439 
Q 2450 3584 2816 3584 
Q 3463 3584 3878 3070 
Q 4294 2556 4294 1747 
Q 4294 938 3878 423 
Q 3463 -91 2816 -91 
Q 2450 -91 2169 54 
Q 1888 200 1656 506 
z
M 2400 2772 
Q 2041 2772 1848 2508 
Q 1656 2244 1656 1747 
Q 1656 1250 1848 986 
Q 2041 722 2400 722 
Q 2759 722 2948 984 
Q 3138 1247 3138 1747 
Q 3138 2247 2948 2509 
Q 2759 2772 2400 2772 
z
" transform="scale(0.015625)"/>
      <path id="DejaVuSans-Bold-65" d="M 4031 1759 
L 4031 1441 
L 1416 1441 
Q 1456 1047 1700 850 
Q 1944 653 2381 653 
Q 2734 653 3104 758 
Q 3475 863 3866 1075 
L 3866 213 
Q 3469 63 3072 -14 
Q 2675 -91 2278 -91 
Q 1328 -91 801 392 
Q 275 875 275 1747 
Q 275 2603 792 3093 
Q 1309 3584 2216 3584 
Q 3041 3584 3536 3087 
Q 4031 2591 4031 1759 
z
M 2881 2131 
Q 2881 2450 2695 2645 
Q 2509 2841 2209 2841 
Q 1884 2841 1681 2658 
Q 1478 2475 1428 2131 
L 2881 2131 
z
" transform="scale(0.015625)"/>
      <path id="DejaVuSans-Bold-61" d="M 2106 1575 
Q 1756 1575 1579 1456 
Q 1403 1338 1403 1106 
Q 1403 894 1545 773 
Q 1688 653 1941 653 
Q 2256 653 2472 879 
Q 2688 1106 2688 1447 
L 2688 1575 
L 2106 1575 
z
M 3816 1997 
L 3816 0 
L 2688 0 
L 2688 519 
Q 2463 200 2181 54 
Q 1900 -91 1497 -91 
Q 953 -91 614 226 
Q 275 544 275 1050 
Q 275 1666 698 1953 
Q 1122 2241 2028 2241 
L 2688 2241 
L 2688 2328 
Q 2688 2594 2478 2717 
Q 2269 2841 1825 2841 
Q 1466 2841 1156 2769 
Q 847 2697 581 2553 
L 581 3406 
Q 941 3494 1303 3539 
Q 1666 3584 2028 3584 
Q 2975 3584 3395 3211 
Q 3816 2838 3816 1997 
z
" transform="scale(0.015625)"/>
      <path id="DejaVuSans-Bold-6b" d="M 538 4863 
L 1656 4863 
L 1656 2216 
L 2944 3500 
L 4244 3500 
L 2534 1894 
L 4378 0 
L 3022 0 
L 1656 1459 
L 1656 0 
L 538 0 
L 538 4863 
z
" transform="scale(0.015625)"/>
      <path id="DejaVuSans-Bold-20" transform="scale(0.015625)"/>
      <path id="DejaVuSans-Bold-28" d="M 2413 -844 
L 1484 -844 
Q 1006 -72 778 623 
Q 550 1319 550 2003 
Q 550 2688 779 3389 
Q 1009 4091 1484 4856 
L 2413 4856 
Q 2013 4116 1813 3408 
Q 1613 2700 1613 2009 
Q 1613 1319 1811 609 
Q 2009 -100 2413 -844 
z
" transform="scale(0.015625)"/>
      <path id="DejaVuSans-Bold-36" d="M 2316 2303 
Q 2000 2303 1842 2098 
Q 1684 1894 1684 1484 
Q 1684 1075 1842 870 
Q 2000 666 2316 666 
Q 2634 666 2792 870 
Q 2950 1075 2950 1484 
Q 2950 1894 2792 2098 
Q 2634 2303 2316 2303 
z
M 3803 4544 
L 3803 3681 
Q 3506 3822 3243 3889 
Q 2981 3956 2731 3956 
Q 2194 3956 1894 3657 
Q 1594 3359 1544 2772 
Q 1750 2925 1990 3001 
Q 2231 3078 2516 3078 
Q 3231 3078 3670 2659 
Q 4109 2241 4109 1563 
Q 4109 813 3618 361 
Q 3128 -91 2303 -91 
Q 1394 -91 895 523 
Q 397 1138 397 2266 
Q 397 3422 980 4083 
Q 1563 4744 2578 4744 
Q 2900 4744 3203 4694 
Q 3506 4644 3803 4544 
z
" transform="scale(0.015625)"/>
      <path id="DejaVuSans-Bold-2c" d="M 653 1209 
L 1778 1209 
L 1778 256 
L 1006 -909 
L 341 -909 
L 653 256 
L 653 1209 
z
" transform="scale(0.015625)"/>
      <path id="DejaVuSans-Bold-30" d="M 2944 2338 
Q 2944 3213 2780 3570 
Q 2616 3928 2228 3928 
Q 1841 3928 1675 3570 
Q 1509 3213 1509 2338 
Q 1509 1453 1675 1090 
Q 1841 728 2228 728 
Q 2613 728 2778 1090 
Q 2944 1453 2944 2338 
z
M 4147 2328 
Q 4147 1169 3647 539 
Q 3147 -91 2228 -91 
Q 1306 -91 806 539 
Q 306 1169 306 2328 
Q 306 3491 806 4120 
Q 1306 4750 2228 4750 
Q 3147 4750 3647 4120 
Q 4147 3491 4147 2328 
z
" transform="scale(0.015625)"/>
      <path id="DejaVuSans-Bold-32" d="M 1844 884 
L 3897 884 
L 3897 0 
L 506 0 
L 506 884 
L 2209 2388 
Q 2438 2594 2547 2791 
Q 2656 2988 2656 3200 
Q 2656 3528 2436 3728 
Q 2216 3928 1850 3928 
Q 1569 3928 1234 3808 
Q 900 3688 519 3450 
L 519 4475 
Q 925 4609 1322 4679 
Q 1719 4750 2100 4750 
Q 2938 4750 3402 4381 
Q 3866 4013 3866 3353 
Q 3866 2972 3669 2642 
Q 3472 2313 2841 1759 
L 1844 884 
z
" transform="scale(0.015625)"/>
      <path id="DejaVuSans-Bold-37" d="M 428 4666 
L 3944 4666 
L 3944 3988 
L 2125 0 
L 953 0 
L 2675 3781 
L 428 3781 
L 428 4666 
z
" transform="scale(0.015625)"/>
      <path id="DejaVuSans-Bold-29" d="M 513 -844 
Q 913 -100 1113 609 
Q 1313 1319 1313 2009 
Q 1313 2700 1113 3408 
Q 913 4116 513 4856 
L 1441 4856 
Q 1916 4091 2145 3389 
Q 2375 2688 2375 2003 
Q 2375 1319 2147 623 
Q 1919 -72 1441 -844 
L 513 -844 
z
" transform="scale(0.015625)"/>
     </defs>
     <use xlink:href="#DejaVuSans-Bold-70"/>
     <use xlink:href="#DejaVuSans-Bold-65" x="71.582031"/>
     <use xlink:href="#DejaVuSans-Bold-61" x="139.404297"/>
     <use xlink:href="#DejaVuSans-Bold-6b" x="206.884766"/>
     <use xlink:href="#DejaVuSans-Bold-20" x="273.388672"/>
     <use xlink:href="#DejaVuSans-Bold-28" x="308.203125"/>
     <use xlink:href="#DejaVuSans-Bold-36" x="353.90625"/>
     <use xlink:href="#DejaVuSans-Bold-2c" x="423.486328"/>
     <use xlink:href="#DejaVuSans-Bold-30" x="461.474609"/>
     <use xlink:href="#DejaVuSans-Bold-32" x="531.054688"/>
     <use xlink:href="#DejaVuSans-Bold-37" x="600.634766"/>
     <use xlink:href="#DejaVuSans-Bold-29" x="670.214844"/>
    </g>
   </g>
   <g id="text_22">
    <!-- mean (1,018) -->
    <g transform="translate(567.728153 208.862032) scale(0.1 -0.1)">
     <defs>
      <path id="DejaVuSans-Bold-6d" d="M 3781 2919 
Q 3994 3244 4286 3414 
Q 4578 3584 4928 3584 
Q 5531 3584 5847 3212 
Q 6163 2841 6163 2131 
L 6163 0 
L 5038 0 
L 5038 1825 
Q 5041 1866 5042 1909 
Q 5044 1953 5044 2034 
Q 5044 2406 4934 2573 
Q 4825 2741 4581 2741 
Q 4263 2741 4089 2478 
Q 3916 2216 3909 1719 
L 3909 0 
L 2784 0 
L 2784 1825 
Q 2784 2406 2684 2573 
Q 2584 2741 2328 2741 
Q 2006 2741 1831 2477 
Q 1656 2213 1656 1722 
L 1656 0 
L 531 0 
L 531 3500 
L 1656 3500 
L 1656 2988 
Q 1863 3284 2130 3434 
Q 2397 3584 2719 3584 
Q 3081 3584 3359 3409 
Q 3638 3234 3781 2919 
z
" transform="scale(0.015625)"/>
      <path id="DejaVuSans-Bold-6e" d="M 4056 2131 
L 4056 0 
L 2931 0 
L 2931 347 
L 2931 1631 
Q 2931 2084 2911 2256 
Q 2891 2428 2841 2509 
Q 2775 2619 2662 2680 
Q 2550 2741 2406 2741 
Q 2056 2741 1856 2470 
Q 1656 2200 1656 1722 
L 1656 0 
L 538 0 
L 538 3500 
L 1656 3500 
L 1656 2988 
Q 1909 3294 2193 3439 
Q 2478 3584 2822 3584 
Q 3428 3584 3742 3212 
Q 4056 2841 4056 2131 
z
" transform="scale(0.015625)"/>
      <path id="DejaVuSans-Bold-31" d="M 750 831 
L 1813 831 
L 1813 3847 
L 722 3622 
L 722 4441 
L 1806 4666 
L 2950 4666 
L 2950 831 
L 4013 831 
L 4013 0 
L 750 0 
L 750 831 
z
" transform="scale(0.015625)"/>
      <path id="DejaVuSans-Bold-38" d="M 2228 2088 
Q 1891 2088 1709 1903 
Q 1528 1719 1528 1375 
Q 1528 1031 1709 848 
Q 1891 666 2228 666 
Q 2563 666 2741 848 
Q 2919 1031 2919 1375 
Q 2919 1722 2741 1905 
Q 2563 2088 2228 2088 
z
M 1350 2484 
Q 925 2613 709 2878 
Q 494 3144 494 3541 
Q 494 4131 934 4440 
Q 1375 4750 2228 4750 
Q 3075 4750 3515 4442 
Q 3956 4134 3956 3541 
Q 3956 3144 3739 2878 
Q 3522 2613 3097 2484 
Q 3572 2353 3814 2058 
Q 4056 1763 4056 1313 
Q 4056 619 3595 264 
Q 3134 -91 2228 -91 
Q 1319 -91 855 264 
Q 391 619 391 1313 
Q 391 1763 633 2058 
Q 875 2353 1350 2484 
z
M 1631 3419 
Q 1631 3141 1786 2991 
Q 1941 2841 2228 2841 
Q 2509 2841 2662 2991 
Q 2816 3141 2816 3419 
Q 2816 3697 2662 3845 
Q 2509 3994 2228 3994 
Q 1941 3994 1786 3844 
Q 1631 3694 1631 3419 
z
" transform="scale(0.015625)"/>
     </defs>
     <use xlink:href="#DejaVuSans-Bold-6d"/>
     <use xlink:href="#DejaVuSans-Bold-65" x="104.199219"/>
     <use xlink:href="#DejaVuSans-Bold-61" x="172.021484"/>
     <use xlink:href="#DejaVuSans-Bold-6e" x="239.501953"/>
     <use xlink:href="#DejaVuSans-Bold-20" x="310.693359"/>
     <use xlink:href="#DejaVuSans-Bold-28" x="345.507812"/>
     <use xlink:href="#DejaVuSans-Bold-31" x="391.210938"/>
     <use xlink:href="#DejaVuSans-Bold-2c" x="460.791016"/>
     <use xlink:href="#DejaVuSans-Bold-30" x="498.779297"/>
     <use xlink:href="#DejaVuSans-Bold-31" x="568.359375"/>
     <use xlink:href="#DejaVuSans-Bold-38" x="637.939453"/>
     <use xlink:href="#DejaVuSans-Bold-29" x="707.519531"/>
    </g>
   </g>
   <g id="text_23">
    <!-- Stream Bitrate over Time -->
    <g transform="translate(293.189062 28.56) scale(0.12 -0.12)">
     <defs>
      <path id="DejaVuSans-53" d="M 3425 4513 
L 3425 3897 
Q 3066 4069 2747 4153 
Q 2428 4238 2131 4238 
Q 1616 4238 1336 4038 
Q 1056 3838 1056 3469 
Q 1056 3159 1242 3001 
Q 1428 2844 1947 2747 
L 2328 2669 
Q 3034 2534 3370 2195 
Q 3706 1856 3706 1288 
Q 3706 609 3251 259 
Q 2797 -91 1919 -91 
Q 1588 -91 1214 -16 
Q 841 59 441 206 
L 441 856 
Q 825 641 1194 531 
Q 1563 422 1919 422 
Q 2459 422 2753 634 
Q 3047 847 3047 1241 
Q 3047 1584 2836 1778 
Q 2625 1972 2144 2069 
L 1759 2144 
Q 1053 2284 737 2584 
Q 422 2884 422 3419 
Q 422 4038 858 4394 
Q 1294 4750 2059 4750 
Q 2388 4750 2728 4690 
Q 3069 4631 3425 4513 
z
" transform="scale(0.015625)"/>
      <path id="DejaVuSans-6f" d="M 1959 3097 
Q 1497 3097 1228 2736 
Q 959 2375 959 1747 
Q 959 1119 1226 758 
Q 1494 397 1959 397 
Q 2419 397 2687 759 
Q 2956 1122 2956 1747 
Q 2956 2369 2687 2733 
Q 2419 3097 1959 3097 
z
M 1959 3584 
Q 2709 3584 3137 3096 
Q 3566 2609 3566 1747 
Q 3566 888 3137 398 
Q 2709 -91 1959 -91 
Q 1206 -91 779 398 
Q 353 888 353 1747 
Q 353 2609 779 3096 
Q 1206 3584 1959 3584 
z
" transform="scale(0.015625)"/>
      <path id="DejaVuSans-76" d="M 191 3500 
L 800 3500 
L 1894 563 
L 2988 3500 
L 3597 3500 
L 2284 0 
L 1503 0 
L 191 3500 
z
" transform="scale(0.015625)"/>
     </defs>
     <use xlink:href="#DejaVuSans-53"/>
     <use xlink:href="#DejaVuSans-74" x="63.476562"/>
     <use xlink:href="#DejaVuSans-72" x="102.685547"/>
     <use xlink:href="#DejaVuSans-65" x="141.548828"/>
     <use xlink:href="#DejaVuSans-61" x="203.072266"/>
     <use xlink:href="#DejaVuSans-6d" x="264.351562"/>
     <use xlink:href="#DejaVuSans-20" x="361.763672"/>
     <use xlink:href="#DejaVuSans-42" x="393.550781"/>
     <use xlink:href="#DejaVuSans-69" x="462.154297"/>
     <use xlink:href="#DejaVuSans-74" x="489.9375"/>
     <use xlink:href="#DejaVuSans-72" x="529.146484"/>
     <use xlink:href="#DejaVuSans-61" x="570.259766"/>
     <use xlink:href="#DejaVuSans-74" x="631.539062"/>
     <use xlink:href="#DejaVuSans-65" x="670.748047"/>
     <use xlink:href="#DejaVuSans-20" x="732.271484"/>
     <use xlink:href="#DejaVuSans-6f" x="764.058594"/>
     <use xlink:href="#DejaVuSans-76" x="825.240234"/>
     <use xlink:href="#DejaVuSans-65" x="884.419922"/>
     <use xlink:href="#DejaVuSans-72" x="945.943359"/>
     <use xlink:href="#DejaVuSans-20" x="987.056641"/>
     <use xlink:href="#DejaVuSans-54" x="1018.84375"/>
     <use xlink:href="#DejaVuSans-69" x="1076.802734"/>
     <use xlink:href="#DejaVuSans-6d" x="1104.585938"/>
     <use xlink:href="#DejaVuSans-65" x="1201.998047"/>
    </g>
   </g>
   <g id="legend_1">
    <g id="patch_7">
     <path d="M 602.139063 86.594375 
L 641 86.594375 
Q 643 86.594375 643 84.594375 
L 643 41.56 
Q 643 39.56 641 39.56 
L 602.139063 39.56 
Q 600.139063 39.56 600.139063 41.56 
L 600.139063 84.594375 
Q 600.139063 86.594375 602.139063 86.594375 
z
" style="fill: #ffffff; opacity: 0.8; stroke: #cccccc; stroke-linejoin: miter"/>
    </g>
    <g id="patch_8">
     <path d="M 604.139063 51.158438 
L 624.139063 51.158438 
L 624.139063 44.158438 
L 604.139063 44.158438 
z
" style="fill: #ff0000; stroke: #ff0000; stroke-width: 0.5; stroke-linejoin: miter"/>
    </g>
    <g id="text_24">
     <!-- I -->
     <g transform="translate(632.139063 51.158438) scale(0.1 -0.1)">
      <defs>
       <path id="DejaVuSans-49" d="M 628 4666 
L 1259 4666 
L 1259 0 
L 628 0 
L 628 4666 
z
" transform="scale(0.015625)"/>
      </defs>
      <use xlink:href="#DejaVuSans-49"/>
     </g>
    </g>
    <g id="patch_9">
     <path d="M 604.139063 65.836563 
L 624.139063 65.836563 
L 624.139063 58.836563 
L 604.139063 58.836563 
z
" style="fill: #0000ff; stroke: #0000ff; stroke-width: 0.5; stroke-linejoin: miter"/>
    </g>
    <g id="text_25">
     <!-- B -->
     <g transform="translate(632.139063 65.836563) scale(0.1 -0.1)">
      <use xlink:href="#DejaVuSans-42"/>
     </g>
    </g>
    <g id="patch_10">
     <path d="M 604.139063 80.514688 
L 624.139063 80.514688 
L 624.139063 73.514688 
L 604.139063 73.514688 
z
" style="fill: #008000; stroke: #008000; stroke-width: 0.5; stroke-linejoin: miter"/>
    </g>
    <g id="text_26">
     <!-- P -->
     <g transform="translate(632.139063 80.514688) scale(0.1 -0.1)">
      <defs>
       <path id="DejaVuSans-50" d="M 1259 4147 
L 1259 2394 
L 2053 2394 
Q 2494 2394 2734 2622 
Q 2975 2850 2975 3272 
Q 2975 3691 2734 3919 
Q 2494 4147 2053 4147 
L 1259 4147 
z
M 628 4666 
L 2053 4666 
Q 2838 4666 3239 4311 
Q 3641 3956 3641 3272 
Q 3641 2581 3239 2228 
Q 2838 1875 2053 1875 
L 1259 1875 
L 1259 0 
L 628 0 
L 628 4666 
z
" transform="scale(0.015625)"/>
      </defs>
      <use xlink:href="#DejaVuSans-50"/>
     </g>
    </g>
   </g>
  </g>
 </g>
 <defs>
  <clipPath id="p1b12f16232">
   <rect x="90" y="34.56" width="558" height="221.76"/>
  </clipPath>
 </defs>
</svg>
